<svg width="14" height="14" viewBox="0 0 14 14" fill="none" xmlns="http://www.w3.org/2000/svg">
<path d="M13.5741 4.96817C13.4684 5.13318 13.3149 5.36569 13.1188 5.64329C12.8485 6.02579 12.4943 6.49829 12.0701 6.99999C12.4943 7.50169 12.8485 7.97419 13.1188 8.35669C13.3149 8.63429 13.4684 8.86681 13.5741 9.03181C13.6315 9.12149 13.689 9.21273 13.7434 9.30427C14.0241 9.77985 13.8662 10.393 13.3907 10.6738C12.8796 10.9756 12.2844 10.7553 11.9917 10.2725C11.9252 10.1642 11.75 9.88533 11.4853 9.51076C11.2709 9.20728 11 8.84401 10.682 8.45808C9.3742 9.66412 7.6254 10.8113 5.64593 10.8127C4.52535 10.8203 3.42667 10.5082 2.47055 9.91391C1.51372 9.31916 0.738173 8.46589 0.224901 7.45146C0.0812829 7.16761 0.0812829 6.83237 0.224901 6.54852C0.738173 5.53409 1.51372 4.68083 2.47055 4.08607C3.42668 3.49175 4.52537 3.17968 5.64596 3.18729C7.62542 3.18874 9.37422 4.33586 10.682 5.54191C11 5.15597 11.2709 4.7927 11.4853 4.48923C11.6618 4.23945 11.7984 4.03248 11.8897 3.88985C11.9344 3.81995 11.9787 3.7497 12.0214 3.6785C12.3022 3.20321 12.9152 3.04546 13.3907 3.32618C13.8618 3.60433 14.0199 4.22845 13.7417 4.69848C13.6874 4.78933 13.6311 4.87902 13.5741 4.96817Z" fill="black"/>
</svg>
