<svg width="14" height="14" viewBox="0 0 14 14" fill="none" xmlns="http://www.w3.org/2000/svg">
<path fill-rule="evenodd" clip-rule="evenodd" d="M8.00055 1.12439C8.00055 0.572106 7.55284 0.12439 7.00055 0.12439C6.44827 0.12439 6.00055 0.572104 6.00055 1.12439V3.74015H3.38477C2.83248 3.74015 2.38477 4.18787 2.38477 4.74015C2.38477 5.29244 2.83248 5.74015 3.38477 5.74015H6.00054L6.00053 12.9281C6.00053 13.4804 6.44825 13.9281 7.00053 13.9281C7.55282 13.9281 8.00053 13.4804 8.00053 12.9281L8.00054 5.74015H10.6162C11.1685 5.74015 11.6162 5.29244 11.6162 4.74015C11.6162 4.18787 11.1685 3.74015 10.6162 3.74015H8.00055V1.12439Z" fill="black"/>
</svg>
