<svg width="14" height="14" viewBox="0 0 14 14" fill="none" xmlns="http://www.w3.org/2000/svg">
<g clip-path="url(#clip0_1068_189854)">
<path fill-rule="evenodd" clip-rule="evenodd" d="M6.37389 0.0893649C4.92541 0.21874 3.60511 0.7934 2.55084 1.67549L5.70503 4.82968C5.9108 4.70656 6.13557 4.61193 6.37389 4.55122V0.0893649ZM1.66785 2.56026C0.788776 3.61526 0.216961 4.93527 0.0898438 6.38287H4.55059C4.60987 6.14559 4.70275 5.92161 4.82388 5.71629L1.66785 2.56026ZM0.0916878 7.63287C0.222869 9.07746 0.796994 10.3941 1.67714 11.446L4.83227 8.29082C4.71095 8.08821 4.61726 7.86716 4.55638 7.63287H0.0916878ZM2.56196 12.3289C3.61439 13.2057 4.9305 13.7768 6.37389 13.9057V9.44177C6.14101 9.38245 5.92107 9.29073 5.71916 9.1717L2.56196 12.3289ZM7.62389 13.9057C9.06737 13.7768 10.3835 13.2057 11.436 12.3288L8.27866 9.17144C8.07674 9.29052 7.85679 9.3823 7.62389 9.44167V13.9057ZM12.3208 11.4458C13.2009 10.394 13.775 9.07741 13.9062 7.63287H9.44098C9.38015 7.86698 9.28655 8.08788 9.16536 8.29037L12.3208 11.4458ZM13.908 6.38287C13.7809 4.93542 13.2092 3.61552 12.3303 2.56057L9.17389 5.71697C9.29482 5.92211 9.38756 6.14585 9.44678 6.38287H13.908ZM11.4473 1.67574C10.393 0.79349 9.07255 0.218725 7.62389 0.0893555V4.55132C7.86232 4.6121 8.08718 4.70684 8.29301 4.83008L11.4473 1.67574ZM5.72545 6.9965C5.72545 6.29566 6.29168 5.72708 6.99162 5.72328L6.99889 5.72332L7.00602 5.72328C7.70583 5.72723 8.27191 6.29576 8.27191 6.9965C8.27191 7.69968 7.70187 8.26973 6.99868 8.26973C6.2955 8.26973 5.72545 7.69968 5.72545 6.9965Z" fill="black"/>
</g>
<defs>
<clipPath id="clip0_1068_189854">
<rect width="14" height="14" fill="white"/>
</clipPath>
</defs>
</svg>
