<svg width="14" height="14" viewBox="0 0 14 14" fill="none" xmlns="http://www.w3.org/2000/svg">
<g clip-path="url(#clip0_1068_189866)">
<path fill-rule="evenodd" clip-rule="evenodd" d="M7.85643 0.564416C7.67568 0.263318 7.35024 0.0791016 6.99905 0.0791016C6.64787 0.0791016 6.32242 0.263318 6.14167 0.564416L4.66918 3.01734H1.65429C1.29398 3.01734 0.961533 3.21118 0.784043 3.52474C0.606552 3.8383 0.611471 4.22311 0.796918 4.53203L2.27841 6.99995L0.796918 9.46788C0.611471 9.7768 0.606552 10.1616 0.784043 10.4752C0.961533 10.7887 1.29398 10.9826 1.65429 10.9826H4.66918L6.14167 13.4355C6.32242 13.7366 6.64787 13.9208 6.99905 13.9208C7.35024 13.9208 7.67568 13.7366 7.85643 13.4355L9.32893 10.9826H12.3439C12.7042 10.9826 13.0366 10.7887 13.2141 10.4752C13.3916 10.1616 13.3867 9.7768 13.2012 9.46788L11.7197 6.99995L13.2012 4.53203C13.3867 4.22311 13.3916 3.8383 13.2141 3.52474C13.0366 3.21118 12.7042 3.01734 12.3439 3.01734H9.32893L7.85643 0.564416Z" fill="black"/>
</g>
<defs>
<clipPath id="clip0_1068_189866">
<rect width="14" height="14" fill="white"/>
</clipPath>
</defs>
</svg>
