<svg width="14" height="14" viewBox="0 0 14 14" fill="none" xmlns="http://www.w3.org/2000/svg">
<g clip-path="url(#clip0_1068_189860)">
<path fill-rule="evenodd" clip-rule="evenodd" d="M11.1123 2.54126C11.6646 2.54126 12.1123 2.09354 12.1123 1.54126C12.1123 0.988975 11.6646 0.54126 11.1123 0.54126C10.56 0.54126 10.1123 0.988975 10.1123 1.54126C10.1123 2.09354 10.56 2.54126 11.1123 2.54126ZM4.41997 2.05688C3.94028 2.05688 3.5001 2.21692 3.14697 2.48691C2.8179 2.73848 2.3472 2.67567 2.09563 2.34661C1.84405 2.01755 1.90686 1.54685 2.23592 1.29527C2.84151 0.832278 3.59965 0.556885 4.41997 0.556885C6.40739 0.556885 8.01851 2.16801 8.01851 4.15542C8.01851 4.72601 7.8853 5.26636 7.64849 5.74622C7.74274 5.81751 7.83409 5.89242 7.92234 5.97076C8.10815 5.89438 8.29769 5.83948 8.4747 5.80024C8.87978 5.71045 9.31474 5.68168 9.69565 5.71322C11.8611 5.89255 13.4712 7.79338 13.2919 9.95885C13.2238 10.7805 12.9069 11.5242 12.4215 12.1193C12.1596 12.4402 11.6872 12.4881 11.3662 12.2263C11.0453 11.9644 10.9974 11.492 11.2592 11.171C11.5591 10.8034 11.7547 10.3451 11.797 9.83505C11.9079 8.49519 10.9117 7.31907 9.57185 7.20811C9.37933 7.19216 9.14558 7.20222 8.91896 7.24121C9.24835 7.8663 9.4348 8.57842 9.4348 9.3341C9.4348 11.817 7.42199 13.8298 4.93908 13.8298C2.45616 13.8298 0.443359 11.817 0.443359 9.3341C0.443359 8.91988 0.779146 8.5841 1.19336 8.5841C1.60757 8.5841 1.94336 8.91988 1.94336 9.3341C1.94336 10.9886 3.28459 12.3298 4.93908 12.3298C6.59357 12.3298 7.9348 10.9886 7.9348 9.3341C7.9348 7.67961 6.59357 6.33838 4.93908 6.33838C4.52486 6.33838 4.18908 6.00259 4.18908 5.58838C4.18908 5.17417 4.52486 4.83838 4.93908 4.83838C5.41986 4.83838 5.88302 4.91385 6.31735 5.05359C6.44643 4.78152 6.51851 4.47729 6.51851 4.15542C6.51851 2.99643 5.57896 2.05688 4.41997 2.05688ZM13.337 4.16507C13.6298 3.87218 13.6298 3.3973 13.337 3.10441C13.0441 2.81152 12.5692 2.81152 12.2763 3.10441C11.6334 3.74726 10.5912 3.74726 9.94832 3.10441C9.65542 2.81152 9.18055 2.81152 8.88766 3.10441C8.59476 3.3973 8.59476 3.87218 8.88766 4.16507C10.1163 5.39371 12.1083 5.39371 13.337 4.16507Z" fill="black"/>
</g>
<defs>
<clipPath id="clip0_1068_189860">
<rect width="14" height="14" fill="white"/>
</clipPath>
</defs>
</svg>
