<svg width="14" height="14" viewBox="0 0 14 14" fill="none" xmlns="http://www.w3.org/2000/svg">
<g clip-path="url(#clip0_1068_189845)">
<path fill-rule="evenodd" clip-rule="evenodd" d="M7.32499 0.00291425C6.07391 -0.0331934 4.83604 0.266791 3.74029 0.871624C2.64454 1.47646 1.731 2.36402 1.09481 3.44186C0.458618 4.5197 0.123047 5.74841 0.123047 7C0.123047 8.25159 0.458618 9.4803 1.09481 10.5581C1.731 11.636 2.64454 12.5235 3.74029 13.1284C4.83604 13.7332 6.07391 14.0332 7.32499 13.9971C8.57606 13.961 9.79457 13.5901 10.8537 12.9231C11.0417 12.8046 11.129 12.5763 11.0679 12.3626C11.0069 12.149 10.8121 12.0012 10.5899 12C9.26853 11.9928 8.00375 11.4628 7.07195 10.5259C6.14016 9.58903 5.61712 8.32136 5.61714 6.99999C5.61712 5.67862 6.14016 4.41097 7.07195 3.47407C8.00375 2.53717 9.26853 2.0072 10.5899 1.99999C10.8121 1.99878 11.0069 1.85104 11.0679 1.63736C11.129 1.42369 11.0417 1.19536 10.8537 1.07692C9.79457 0.409901 8.57606 0.0390218 7.32499 0.00291425ZM12.1951 4.94407C12.11 4.77486 11.9367 4.66825 11.7473 4.66866C11.5579 4.66908 11.385 4.77647 11.3007 4.94605L10.8999 5.75196H10.1264C9.92548 5.75196 9.74407 5.87222 9.66584 6.05727C9.58761 6.24233 9.62775 6.45624 9.76774 6.60035L10.4028 7.25405L10.2328 8.1983C10.1983 8.39036 10.2786 8.58497 10.4386 8.69674C10.5985 8.80851 10.8089 8.817 10.9773 8.71849L11.754 8.26428L12.5758 8.72338C12.7473 8.81917 12.959 8.8057 13.1169 8.68895C13.2749 8.5722 13.3498 8.3738 13.3085 8.18178L13.1074 7.24635L13.7349 6.60035C13.8749 6.45624 13.9151 6.24233 13.8368 6.05727C13.7586 5.87222 13.5772 5.75196 13.3763 5.75196H12.6013L12.1951 4.94407Z" fill="black"/>
</g>
<defs>
<clipPath id="clip0_1068_189845">
<rect width="14" height="14" fill="white"/>
</clipPath>
</defs>
</svg>
