<svg width="14" height="14" viewBox="0 0 14 14" fill="none" xmlns="http://www.w3.org/2000/svg">
<path fill-rule="evenodd" clip-rule="evenodd" d="M1 1.25C0.734784 1.25 0.48043 1.35536 0.292893 1.54289C0.105357 1.73043 0 1.98478 0 2.25V11.25C0 11.6478 0.158035 12.0294 0.43934 12.3107C0.720644 12.592 1.10217 12.75 1.5 12.75H12.25C12.7141 12.75 13.1592 12.5656 13.4874 12.2374C13.8156 11.9092 14 11.4641 14 11V4.5C14 4.22386 13.7761 4 13.5 4H12.519V10.459C12.519 10.8042 12.2392 11.084 11.894 11.084C11.5488 11.084 11.269 10.8042 11.269 10.459V3.74341C11.269 3.73309 11.2692 3.72284 11.2697 3.71265V2.25C11.2697 1.98478 11.1644 1.73043 10.9768 1.54289C10.7893 1.35536 10.5349 1.25 10.2697 1.25H1ZM2.78653 4.03653C2.78653 3.76039 3.01039 3.53653 3.28653 3.53653H7.78653C8.06267 3.53653 8.28653 3.76039 8.28653 4.03653V6.53653C8.28653 6.81267 8.06267 7.03653 7.78653 7.03653H3.28653C3.01039 7.03653 2.78653 6.81267 2.78653 6.53653V4.03653ZM2.66153 9.75C2.66153 9.40482 2.94135 9.125 3.28653 9.125H7.78653C8.13171 9.125 8.41153 9.40482 8.41153 9.75C8.41153 10.0952 8.13171 10.375 7.78653 10.375H3.28653C2.94135 10.375 2.66153 10.0952 2.66153 9.75Z" fill="black"/>
</svg>
