<svg width="14" height="14" viewBox="0 0 14 14" fill="none" xmlns="http://www.w3.org/2000/svg">
<g clip-path="url(#clip0_1068_189857)">
<path fill-rule="evenodd" clip-rule="evenodd" d="M2 7.00001C2 4.59154 3.70936 2.58231 5.98109 2.11933V4.87103L2.29796 8.70091C2.10515 8.17017 2 7.59737 2 7.00001ZM3.38943 10.4513C4.07579 11.1654 4.97308 11.6753 5.98109 11.8807V7.75636L3.38943 10.4513ZM7.98109 7.75637V11.8807C8.9891 11.6753 9.88639 11.1654 10.5727 10.4513L7.98109 7.75637ZM11.6642 8.70093C11.857 8.17018 11.9622 7.59738 11.9622 7.00001C11.9622 4.59154 10.2528 2.58231 7.98109 2.11933V4.87104L11.6642 8.70093ZM0 7.00001C0 3.14446 3.12554 0.0189209 6.98109 0.0189209C10.8366 0.0189209 13.9622 3.14446 13.9622 7.00001C13.9622 10.8556 10.8366 13.9811 6.98109 13.9811C3.12554 13.9811 0 10.8556 0 7.00001Z" fill="black"/>
</g>
<defs>
<clipPath id="clip0_1068_189857">
<rect width="14" height="14" fill="white"/>
</clipPath>
</defs>
</svg>
