<svg width="14" height="14" viewBox="0 0 14 14" fill="none" xmlns="http://www.w3.org/2000/svg">
<path fill-rule="evenodd" clip-rule="evenodd" d="M7.16396 6.32673L9.42585 4.06484C9.62111 3.86958 9.62111 3.553 9.42585 3.35774L6.42171 0.3536C6.22645 0.158338 5.90987 0.158338 5.71461 0.3536L3.45272 2.61549C3.25746 2.81075 3.25746 3.12733 3.45272 3.32259L6.45685 6.32673C6.65212 6.52199 6.9687 6.52199 7.16396 6.32673ZM2.27148 5.63647H3.99883L5.51055 7.14819H4.29025C3.94507 7.14819 3.66525 7.42802 3.66525 7.77319C3.66525 8.11837 3.94507 8.39819 4.29025 8.39819H9.15971C9.50488 8.39819 9.78471 8.11837 9.78471 7.77319C9.78471 7.42802 9.50488 7.14819 9.15971 7.14819H8.11027L9.62198 5.63647H11.1784C12.0068 5.63647 12.6784 6.30805 12.6784 7.13647V9.75317H0.771484V7.13647C0.771484 6.30805 1.44306 5.63647 2.27148 5.63647ZM12.6784 11.0032H0.771484V13.4728C0.771484 13.7489 0.995342 13.9728 1.27148 13.9728H12.1784C12.4545 13.9728 12.6784 13.7489 12.6784 13.4728V11.0032Z" fill="black"/>
</svg>
