<svg width="14" height="14" viewBox="0 0 14 14" fill="none" xmlns="http://www.w3.org/2000/svg">
<path fill-rule="evenodd" clip-rule="evenodd" d="M7.00018 3.35998C7.92801 3.35998 8.68017 2.60782 8.68017 1.67999C8.68017 0.752157 7.92801 0 7.00018 0C6.07234 0 5.32019 0.752157 5.32019 1.67999C5.32019 2.60782 6.07234 3.35998 7.00018 3.35998ZM4.35887 5.78845C4.74273 4.69999 5.78036 3.91996 7.00018 3.91996C8.21999 3.91996 9.25763 4.69999 9.64148 5.78845H4.35887ZM1.89405 7.03512C1.51024 7.06803 1.20898 7.39001 1.20898 7.78235C1.20898 8.19656 1.54477 8.53235 1.95898 8.53235H2.85046L3.20963 13.4312C3.22879 13.6924 3.44634 13.8946 3.70829 13.8946H10.292C10.554 13.8946 10.7715 13.6924 10.7907 13.4312L11.1499 8.53235H12.0414C12.4556 8.53235 12.7914 8.19656 12.7914 7.78235C12.7914 7.39001 12.4902 7.06803 12.1063 7.03512C12.085 7.03732 12.0633 7.03845 12.0414 7.03845H1.95898C1.93706 7.03845 1.91539 7.03732 1.89405 7.03512ZM7.00017 8.69922C7.19049 8.69922 7.36431 8.80727 7.44854 8.97794L7.71051 9.50875L8.2963 9.59387C8.48465 9.62124 8.64112 9.75316 8.69993 9.93417C8.75874 10.1152 8.7097 10.3139 8.57341 10.4467L8.14953 10.8599L8.24959 11.4433C8.28177 11.6309 8.20465 11.8205 8.05068 11.9324C7.89671 12.0442 7.69258 12.059 7.52412 11.9704L7.00017 11.695L6.47622 11.9704C6.30776 12.059 6.10363 12.0442 5.94966 11.9324C5.79569 11.8205 5.71858 11.6309 5.75075 11.4433L5.85081 10.8599L5.42693 10.4467C5.29064 10.3139 5.2416 10.1152 5.30041 9.93417C5.35922 9.75316 5.51569 9.62124 5.70404 9.59387L6.28983 9.50875L6.5518 8.97794C6.63603 8.80727 6.80985 8.69922 7.00017 8.69922Z" fill="black"/>
</svg>
