<svg width="14" height="14" viewBox="0 0 14 14" fill="none" xmlns="http://www.w3.org/2000/svg">
<g clip-path="url(#clip0_1068_189872)">
<path fill-rule="evenodd" clip-rule="evenodd" d="M11.5366 3.95691C11.5498 3.97651 11.5629 3.9962 11.5758 4.01597C12.046 4.73569 12.3511 5.57314 12.4371 6.47449C12.4536 6.64742 12.4621 6.82274 12.4621 7.00007C12.4621 7.12523 12.4578 7.24939 12.4496 7.37241C12.3833 8.357 12.0561 9.27007 11.5366 10.0431H2.46265C1.87818 9.17344 1.53714 8.12652 1.53714 6.99995C1.53714 5.87342 1.87815 4.82654 2.46257 3.95691H11.5366ZM6.99961 0.0374756C4.89037 0.0374756 3.00019 0.975391 1.72339 2.45691H1.71068L1.50659 2.72126C0.676248 3.78575 0.148559 5.09786 0.0528662 6.52825C0.0424177 6.68419 0.0371094 6.84152 0.0371094 7.00007C0.0371094 7.22673 0.0479587 7.4509 0.0691648 7.67208C0.179327 8.82215 0.569267 9.89054 1.17013 10.8084C1.26955 10.9603 1.37473 11.1081 1.48538 11.2514L1.71056 11.5431H1.72348C3.00029 13.0245 4.89042 13.9624 6.99961 13.9624C9.1088 13.9624 10.9989 13.0245 12.2757 11.5431H12.2886L12.5138 11.2514C12.5294 11.2311 12.545 11.2107 12.5604 11.1903C12.5834 11.1598 12.6061 11.1292 12.6286 11.0984C13.4672 9.94856 13.9621 8.53205 13.9621 6.99995C13.9621 5.3837 13.4114 3.89609 12.4874 2.71451L12.2885 2.45691H12.2758C10.999 0.975391 9.10885 0.0374756 6.99961 0.0374756ZM3.94815 5.85474C3.94815 5.57859 3.72429 5.35474 3.44815 5.35474C3.17201 5.35474 2.94815 5.57859 2.94815 5.85474V6.22352L2.54376 6.08873C2.28179 6.0014 1.99863 6.14298 1.91131 6.40496C1.82398 6.66693 1.96556 6.95009 2.22753 7.03741L2.669 7.18457L2.32379 7.70239C2.17061 7.93215 2.2327 8.24259 2.46246 8.39576C2.69223 8.54894 3.00266 8.48685 3.15584 8.25709L3.44815 7.81862L3.74046 8.25709C3.89363 8.48685 4.20407 8.54894 4.43383 8.39576C4.66359 8.24259 4.72568 7.93215 4.57251 7.70239L4.22729 7.18457L4.66876 7.03741C4.93073 6.95009 5.07231 6.66693 4.98499 6.40496C4.89767 6.14298 4.61451 6.0014 4.35253 6.08873L3.94815 6.22352V5.85474ZM6.96011 5.35474C7.23625 5.35474 7.46011 5.57859 7.46011 5.85474V6.22352L7.8645 6.08873C8.12647 6.0014 8.40963 6.14298 8.49695 6.40496C8.58428 6.66693 8.4427 6.95009 8.18072 7.03741L7.73926 7.18457L8.08447 7.70239C8.23764 7.93215 8.17556 8.24259 7.94579 8.39576C7.71603 8.54894 7.40559 8.48685 7.25242 8.25709L6.96011 7.81862L6.6678 8.25709C6.51463 8.48685 6.20419 8.54894 5.97443 8.39576C5.74466 8.24259 5.68258 7.93215 5.83575 7.70239L6.18096 7.18457L5.7395 7.03741C5.47752 6.95009 5.33594 6.66693 5.42327 6.40496C5.51059 6.14298 5.79375 6.0014 6.05572 6.08873L6.46011 6.22352V5.85474C6.46011 5.57859 6.68397 5.35474 6.96011 5.35474ZM10.9721 5.85474C10.9721 5.57859 10.7482 5.35474 10.4721 5.35474C10.1959 5.35474 9.97207 5.57859 9.97207 5.85474V6.22352L9.56769 6.08873C9.30572 6.0014 9.02255 6.14298 8.93523 6.40496C8.84791 6.66693 8.98949 6.95009 9.25146 7.03741L9.69293 7.18457L9.34771 7.70239C9.19454 7.93215 9.25663 8.24259 9.48639 8.39576C9.71615 8.54894 10.0266 8.48685 10.1798 8.25709L10.4721 7.81862L10.7644 8.25709C10.9176 8.48685 11.228 8.54894 11.4578 8.39576C11.6875 8.24259 11.7496 7.93215 11.5964 7.70239L11.2512 7.18457L11.6927 7.03741C11.9547 6.95009 12.0962 6.66693 12.0089 6.40496C11.9216 6.14298 11.6384 6.0014 11.3765 6.08873L10.9721 6.22352V5.85474Z" fill="black"/>
</g>
<defs>
<clipPath id="clip0_1068_189872">
<rect width="14" height="14" fill="white"/>
</clipPath>
</defs>
</svg>
