<svg width="14" height="14" viewBox="0 0 14 14" fill="none" xmlns="http://www.w3.org/2000/svg">
<g clip-path="url(#clip0_1068_189851)">
<path fill-rule="evenodd" clip-rule="evenodd" d="M0.946518 1.74318C1.21086 1.63433 1.50812 1.77848 1.69547 1.9944C1.705 2.00538 1.71471 2.01623 1.72459 2.02692C1.85374 2.16675 2.00993 2.27891 2.1837 2.35659C2.35747 2.43428 2.5452 2.47588 2.73552 2.47887C2.92584 2.48186 3.11478 2.44619 3.29091 2.374C3.46704 2.30182 3.62667 2.19463 3.76015 2.05894C3.89363 1.92324 3.99818 1.76185 4.06745 1.58456C4.13672 1.40727 4.16927 1.21776 4.16314 1.02752C4.16239 1.00418 4.16106 0.980895 4.15915 0.957678C4.13658 0.682805 4.23397 0.382937 4.48365 0.2658L4.89471 0.0729576C5.12513 -0.0230685 5.38413 -0.0243501 5.61549 0.0693909C5.84685 0.163132 6.03191 0.344332 6.1305 0.573666L6.6142 1.69096C6.59566 1.72809 6.57813 1.76583 6.56162 1.80414L6.56086 1.8059L3.37165 9.17262L3.025 9.96047L0.068737 3.11982C-0.0205235 2.89835 -0.0229323 2.65135 0.0619914 2.42818C0.146915 2.20501 0.312918 2.0221 0.526832 1.91599L0.946518 1.74318ZM12.2691 3.74706C12.4544 3.52936 12.7517 3.3856 13.016 3.49445L13.4594 3.67701C13.6789 3.78589 13.8492 3.97358 13.9364 4.20259C14.0235 4.43159 14.021 4.68505 13.9294 4.91231L10.2565 13.4113C10.1553 13.6467 9.96544 13.8326 9.72803 13.9288C9.49062 14.025 9.22486 14.0237 8.98841 13.9251L4.55009 12.0339C4.31476 11.9327 4.12882 11.7429 4.03263 11.5054C3.93644 11.268 3.93775 11.0023 4.03629 10.7658L4.51729 9.67264L7.70923 2.2996C7.8104 2.06427 8.0003 1.87833 8.23771 1.78214C8.47511 1.68595 8.74088 1.68727 8.97732 1.7858L9.41094 1.98923C9.66063 2.10636 9.7583 2.40599 9.73324 2.68065C9.73067 2.70878 9.72893 2.73701 9.72801 2.76531C9.72173 2.96053 9.75513 3.15499 9.82621 3.33692C9.89729 3.51885 10.0046 3.68445 10.1415 3.82369C10.2785 3.96294 10.4423 4.07293 10.623 4.147C10.8038 4.22107 10.9977 4.25767 11.193 4.2546C11.3883 4.25153 11.5809 4.20884 11.7592 4.12913C11.9375 4.04941 12.0978 3.93433 12.2303 3.79084C12.2436 3.7765 12.2565 3.7619 12.2691 3.74706Z" fill="black"/>
</g>
<defs>
<clipPath id="clip0_1068_189851">
<rect width="14" height="14" fill="white"/>
</clipPath>
</defs>
</svg>
