<svg width="14" height="14" viewBox="0 0 14 14" fill="none" xmlns="http://www.w3.org/2000/svg">
<path fill-rule="evenodd" clip-rule="evenodd" d="M8.60645 1.5509H1.55664C0.728213 1.5509 0.0566406 2.22248 0.0566406 3.0509V5.0495C0.0566406 5.27686 0.210031 5.47559 0.429971 5.53319C1.08081 5.70363 1.5604 6.29632 1.5604 6.99976C1.5604 7.7032 1.0808 8.29589 0.429971 8.46634C0.210031 8.52393 0.0566406 8.72267 0.0566406 8.95002V10.9486C0.0566406 11.777 0.728215 12.4486 1.55664 12.4486H8.60645V10.7336C8.60645 10.3884 8.88627 10.1086 9.23145 10.1086C9.57663 10.1086 9.85645 10.3884 9.85645 10.7336V12.4486H12.4451C13.2736 12.4486 13.9451 11.777 13.9451 10.9486V8.94557C13.9451 8.71982 13.7939 8.52207 13.576 8.46299C12.9315 8.28824 12.4581 7.69865 12.4581 6.99976C12.4581 6.30088 12.9315 5.71128 13.576 5.53653C13.7939 5.47745 13.9451 5.27971 13.9451 5.05396V3.0509C13.9451 2.22247 13.2736 1.5509 12.4451 1.5509H9.85645V3.2742C9.85645 3.61937 9.57663 3.8992 9.23145 3.8992C8.88627 3.8992 8.60645 3.61937 8.60645 3.2742V1.5509ZM9.23145 5.36606C9.57663 5.36606 9.85645 5.64588 9.85645 5.99106V8.00711C9.85645 8.35228 9.57663 8.63211 9.23145 8.63211C8.88627 8.63211 8.60645 8.35228 8.60645 8.00711V5.99106C8.60645 5.64588 8.88627 5.36606 9.23145 5.36606Z" fill="black"/>
</svg>
