<svg width="14" height="14" viewBox="0 0 14 14" fill="none" xmlns="http://www.w3.org/2000/svg">
<g clip-path="url(#clip0_1068_189848)">
<path fill-rule="evenodd" clip-rule="evenodd" d="M5.69797 2.17043C3.56805 2.74213 2 4.68625 2 6.99662C2 9.75617 4.23706 11.9932 6.99662 11.9932C7.34889 11.9932 7.69265 11.9568 8.02433 11.8874C8.68462 10.4966 9.076 8.48189 6.99662 6.99662C4.68963 5.34715 4.99797 3.47921 5.69797 2.17043ZM6.99662 0C3.13249 0 0 3.13249 0 6.99662C0 10.8607 3.13249 13.9932 6.99662 13.9932C10.8607 13.9932 13.9932 10.8607 13.9932 6.99662C13.9932 3.13249 10.8607 0 6.99662 0ZM8.59172 5.24968C9.27441 5.24968 9.82784 4.69625 9.82784 4.01356C9.82784 3.33087 9.27441 2.77745 8.59172 2.77745C7.90903 2.77745 7.35561 3.33087 7.35561 4.01356C7.35561 4.69625 7.90903 5.24968 8.59172 5.24968ZM6.99661 9.49026C6.99661 10.1729 6.44319 10.7264 5.7605 10.7264C5.07781 10.7264 4.52438 10.1729 4.52438 9.49026C4.52438 8.80757 5.07781 8.25414 5.7605 8.25414C6.44319 8.25414 6.99661 8.80757 6.99661 9.49026Z" fill="black"/>
</g>
<defs>
<clipPath id="clip0_1068_189848">
<rect width="14" height="14" fill="white"/>
</clipPath>
</defs>
</svg>
