<svg width="14" height="14" viewBox="0 0 14 14" fill="none" xmlns="http://www.w3.org/2000/svg">
<g clip-path="url(#clip0_1068_189905)">
<path fill-rule="evenodd" clip-rule="evenodd" d="M1.74633 0.334427C1.37874 -0.0777562 0.74661 -0.113905 0.334427 0.253686C-0.0777562 0.621278 -0.113905 1.25341 0.253686 1.66559C1.07188 2.58304 2.11439 3.30687 3.29019 3.78713C3.42293 3.84135 3.55703 3.89233 3.69233 3.94005V10.06C3.55703 10.1077 3.42293 10.1586 3.29019 10.2129C2.11439 10.6931 1.07188 11.417 0.253686 12.3344C-0.113905 12.7466 -0.077756 13.3787 0.334427 13.7463C0.746611 14.1139 1.37874 14.0778 1.74633 13.6656C2.351 12.9876 3.137 12.4358 4.04646 12.0644C4.95603 11.6928 5.95707 11.5149 6.96653 11.5487C6.98884 11.5494 7.01116 11.5494 7.03347 11.5487C8.04293 11.5149 9.04397 11.6928 9.95354 12.0644C10.863 12.4358 11.649 12.9876 12.2537 13.6656C12.6212 14.0778 13.2534 14.1139 13.6656 13.7463C14.0777 13.3787 14.1139 12.7466 13.7463 12.3344C12.9281 11.417 11.8856 10.6931 10.7098 10.2129C10.5771 10.1586 10.443 10.1077 10.3077 10.06V3.94004C10.443 3.89233 10.5771 3.84135 10.7098 3.78713C11.8856 3.30687 12.9281 2.58304 13.7463 1.66559C14.1139 1.25341 14.0777 0.621278 13.6656 0.253686C13.2534 -0.113905 12.6212 -0.0777562 12.2537 0.334427C11.649 1.01245 10.863 1.56415 9.95354 1.93563C9.04397 2.30715 8.04293 2.48513 7.03347 2.45133C7.01116 2.45058 6.98884 2.45058 6.96653 2.45133C5.95707 2.48513 4.95603 2.30715 4.04646 1.93563C3.137 1.56415 2.351 1.01245 1.74633 0.334427ZM8.30769 4.39753C7.87501 4.44623 7.43776 4.46434 7 4.45126C6.56225 4.46434 6.125 4.44624 5.69233 4.39754V9.60247C6.125 9.55377 6.56225 9.53567 7 9.54874C7.43776 9.53567 7.87501 9.55377 8.30769 9.60248V4.39753Z" fill="black"/>
</g>
<defs>
<clipPath id="clip0_1068_189905">
<rect width="14" height="14" fill="white"/>
</clipPath>
</defs>
</svg>
