<svg width="14" height="14" viewBox="0 0 14 14" fill="none" xmlns="http://www.w3.org/2000/svg">
<path fill-rule="evenodd" clip-rule="evenodd" d="M4.02001 1.10698C3.95634 0.558382 3.46 0.165263 2.91139 0.228929C2.36279 0.292595 1.96967 0.788937 2.03334 1.33754C2.1747 2.55564 2.75877 3.67931 3.67449 4.49491C3.78298 4.59154 3.89524 4.68305 4.01087 4.76929C2.79024 5.68098 2 7.1371 2 8.7778C2 11.5392 4.23857 13.7778 6.99999 13.7778C9.76141 13.7778 12 11.5392 12 8.7778C12 7.13711 11.2097 5.68098 9.98912 4.76929C10.1048 4.68305 10.217 4.59154 10.3255 4.49491C11.2412 3.67931 11.8253 2.55564 11.9667 1.33754C12.0303 0.788937 11.6372 0.292595 11.0886 0.228929C10.54 0.165263 10.0437 0.558382 9.97999 1.10698C9.89517 1.83784 9.54473 2.51205 8.9953 3.0014C8.44587 3.49076 7.73576 3.76115 7 3.76115C6.26424 3.76115 5.55413 3.49076 5.0047 3.0014C4.45526 2.51205 4.10482 1.83784 4.02001 1.10698ZM4 8.7778C4 7.12095 5.34314 5.7778 6.99999 5.7778C8.65684 5.7778 9.99999 7.12095 9.99999 8.7778C9.99999 10.4346 8.65684 11.7778 6.99999 11.7778C5.34314 11.7778 4 10.4346 4 8.7778Z" fill="black"/>
</svg>
