<svg width="14" height="14" viewBox="0 0 14 14" fill="none" xmlns="http://www.w3.org/2000/svg">
<g clip-path="url(#clip0_1068_189917)">
<path fill-rule="evenodd" clip-rule="evenodd" d="M1.13813 0.380503C1.48029 -0.0530219 2.10911 -0.127087 2.54263 0.215074C3.56764 1.02407 4.38711 2.06369 4.93432 3.24931C5.33597 4.11955 5.5826 5.0504 5.66586 6.00004H8.33424C8.4175 5.0504 8.66413 4.11955 9.06578 3.24931C9.61299 2.06369 10.4325 1.02407 11.4575 0.215074C11.891 -0.127087 12.5198 -0.0530219 12.862 0.380503C13.2041 0.814028 13.1301 1.44285 12.6965 1.78501C11.9188 2.39888 11.2969 3.18776 10.8817 4.08742C10.6016 4.69433 10.4208 5.34008 10.3444 6.00004H13C13.5523 6.00004 14 6.44776 14 7.00004C14 7.55232 13.5523 8.00004 13 8.00004H10.3444C10.4208 8.66001 10.6016 9.30577 10.8817 9.91269C11.2969 10.8123 11.9188 11.6012 12.6965 12.2151C13.1301 12.5572 13.2041 13.186 12.862 13.6196C12.5198 14.0531 11.891 14.1272 11.4575 13.785C10.4325 12.976 9.61299 11.9364 9.06578 10.7508C8.66413 9.88055 8.41749 8.94969 8.33424 8.00004H5.66587C5.58261 8.94969 5.33598 9.88055 4.93432 10.7508C4.38711 11.9364 3.56764 12.976 2.54263 13.785C2.10911 14.1272 1.48029 14.0531 1.13813 13.6196C0.795968 13.186 0.870033 12.5572 1.30356 12.2151C2.08135 11.6012 2.70317 10.8123 3.1184 9.91269C3.39852 9.30577 3.57927 8.66001 3.65574 8.00004H1C0.447715 8.00004 0 7.55232 0 7.00004C0 6.44776 0.447715 6.00004 1 6.00004H3.65573C3.57926 5.34008 3.39851 4.69433 3.1184 4.08742C2.70317 3.18776 2.08135 2.39888 1.30356 1.78501C0.870033 1.44285 0.795968 0.814028 1.13813 0.380503Z" fill="black"/>
</g>
<defs>
<clipPath id="clip0_1068_189917">
<rect width="14" height="14" fill="white"/>
</clipPath>
</defs>
</svg>
