<svg width="14" height="14" viewBox="0 0 14 14" fill="none" xmlns="http://www.w3.org/2000/svg">
<g clip-path="url(#clip0_1068_189911)">
<path fill-rule="evenodd" clip-rule="evenodd" d="M3.30769 2.53088C2.58547 2.53088 2 3.11636 2 3.83857C2 4.56079 2.58547 5.14626 3.30769 5.14626C4.02991 5.14626 4.61538 4.56079 4.61538 3.83857C4.61538 3.11636 4.02991 2.53088 3.30769 2.53088ZM0 3.83857C0 2.01179 1.4809 0.530884 3.30769 0.530884H13C13.5523 0.530884 14 0.978599 14 1.53088C14 2.08317 13.5523 2.53088 13 2.53088H6.34683C6.51964 2.93198 6.61538 3.3741 6.61538 3.83857C6.61538 5.66536 5.13448 7.14626 3.30769 7.14626C1.4809 7.14626 0 5.66536 0 3.83857ZM10.6923 8.85379C9.97012 8.85379 9.38464 9.43926 9.38464 10.1615C9.38464 10.881 9.96581 11.4649 10.6844 11.4691H10.6923L10.6976 11.4692C11.4174 11.4663 12 10.882 12 10.1615C12 9.43926 11.4146 8.85379 10.6923 8.85379ZM7.38464 10.1615C7.38464 10.6259 7.48038 11.0681 7.65319 11.4691H1C0.447715 11.4691 0 11.9169 0 12.4691C0 13.0214 0.447715 13.4691 1 13.4691H10.6796L10.6923 13.4692C12.5191 13.4692 14 11.9883 14 10.1615C14 8.33469 12.5191 6.85379 10.6923 6.85379C8.86555 6.85379 7.38464 8.33469 7.38464 10.1615Z" fill="black"/>
</g>
<defs>
<clipPath id="clip0_1068_189911">
<rect width="14" height="14" fill="white"/>
</clipPath>
</defs>
</svg>
