<svg width="14" height="14" viewBox="0 0 14 14" fill="none" xmlns="http://www.w3.org/2000/svg">
<g clip-path="url(#clip0_1068_189884)">
<path fill-rule="evenodd" clip-rule="evenodd" d="M1.21714 0.0240269C0.67801 -0.0957798 0.143833 0.244151 0.0240268 0.783285C-0.0957235 1.32216 0.243832 1.85609 0.782524 1.97623L0.78079 1.97584L0.779748 1.9756C0.779748 1.9756 0.781055 1.97589 0.782524 1.97623L0.80264 1.9812C0.823483 1.98645 0.857914 1.99545 0.903981 2.00861C0.996335 2.035 1.1341 2.07772 1.30194 2.13988C1.64078 2.26538 2.08525 2.46388 2.52245 2.75534C3.39071 3.33417 4.15408 4.21553 4.15408 5.61559C4.15408 6.16788 4.60179 6.61559 5.15408 6.61559C5.70636 6.61559 6.15408 6.16788 6.15408 5.61559C6.15408 4.21553 6.91745 3.33417 7.7857 2.75534C7.96103 2.63845 8.13753 2.53651 8.30792 2.44824V8.30789H1.00021C0.447929 8.30789 0.000214141 8.7556 0.000214141 9.30789C0.000214141 9.86018 0.447929 10.3079 1.00021 10.3079H8.30792V11.1399C8.3079 11.1446 8.30789 11.1493 8.30789 11.154C8.30789 12.7259 9.58215 14.0002 11.154 14.0002C12.7259 14.0002 14.0002 12.7259 14.0002 11.154C14.0002 9.58324 12.7277 8.30964 11.1573 8.30789H11.154H10.3079V1.00021C10.3079 0.696894 10.1702 0.409968 9.93365 0.220172C9.69705 0.0303768 9.38709 -0.0417721 9.09099 0.0240271L9.30792 1.00021C9.09099 0.0240271 9.09142 0.0239299 9.09099 0.0240271L9.08918 0.024431L9.08698 0.0249253L9.08143 0.0261884L9.0658 0.0298329C9.0534 0.0327669 9.03706 0.0367236 9.01705 0.0417637C8.97704 0.0518389 8.92223 0.0662751 8.85472 0.0855652C8.71991 0.124082 8.53315 0.182321 8.31157 0.264388C7.87157 0.427352 7.27757 0.690393 6.6763 1.09124C6.1497 1.4423 5.60319 1.91117 5.15408 2.51812C4.70496 1.91117 4.15845 1.4423 3.63184 1.09123C3.03057 0.690392 2.43657 0.427351 1.99656 0.264387C1.77498 0.18232 1.58823 0.124082 1.45342 0.0855648C1.3859 0.0662747 1.33109 0.0518386 1.29108 0.0417633C1.27107 0.0367232 1.25473 0.0327665 1.24233 0.0298325L1.2267 0.0261881L1.22115 0.024925L1.21895 0.0244307C1.21851 0.0243335 1.21714 0.0240269 1.00021 1.00021L1.21714 0.0240269ZM10.3079 11.16C10.3079 11.158 10.3079 11.156 10.3079 11.154V11.1463C10.312 10.6826 10.6893 10.3079 11.154 10.3079C11.6213 10.3079 12.0002 10.6867 12.0002 11.154C12.0002 11.6213 11.6213 12.0002 11.154 12.0002C10.6887 12.0002 10.3111 11.6246 10.3079 11.16Z" fill="black"/>
</g>
<defs>
<clipPath id="clip0_1068_189884">
<rect width="14" height="14" fill="white"/>
</clipPath>
</defs>
</svg>
