<svg width="14" height="14" viewBox="0 0 14 14" fill="none" xmlns="http://www.w3.org/2000/svg">
<g clip-path="url(#clip0_1068_189893)">
<path fill-rule="evenodd" clip-rule="evenodd" d="M7.46149 0C6.46183 0 5.50311 0.397114 4.79624 1.10398C4.08938 1.81085 3.69226 2.76957 3.69226 3.76923V8.43557C3.42497 8.35246 3.14079 8.30769 2.84615 8.30769C1.27427 8.30769 0 9.58196 0 11.1538C0 12.7257 1.27427 14 2.84615 14C4.41804 14 5.69231 12.7257 5.69231 11.1538C5.69231 11.1483 5.69229 11.1429 5.69226 11.1374V3.76923C5.69226 3.3 5.87866 2.84999 6.21046 2.5182C6.54225 2.1864 6.99226 2 7.46149 2C7.93072 2 8.38073 2.1864 8.71253 2.5182C9.04432 2.84999 9.23072 3.3 9.23072 3.76923V11.6154C9.23072 12.2478 9.48196 12.8544 9.92916 13.3016C10.3764 13.7488 10.9829 14 11.6153 14C12.2478 14 12.8543 13.7488 13.3015 13.3016C13.7487 12.8544 14 12.2478 14 11.6154C14 11.0631 13.5522 10.6154 13 10.6154C12.4477 10.6154 12 11.0631 12 11.6154C12 11.7174 11.9594 11.8152 11.8873 11.8873C11.8152 11.9595 11.7173 12 11.6153 12C11.5133 12 11.4155 11.9595 11.3434 11.8873C11.2712 11.8152 11.2307 11.7174 11.2307 11.6154V3.76923C11.2307 2.76957 10.8336 1.81085 10.1267 1.10398C9.41987 0.397114 8.46115 0 7.46149 0ZM3.69226 11.1448V11.1538C3.69226 11.1562 3.69227 11.1585 3.69228 11.1609C3.68851 11.625 3.31113 12 2.84615 12C2.37884 12 2 11.6212 2 11.1538C2 10.6865 2.37884 10.3077 2.84615 10.3077C3.31047 10.3077 3.68743 10.6817 3.69226 11.1448Z" fill="black"/>
</g>
<defs>
<clipPath id="clip0_1068_189893">
<rect width="14" height="14" fill="white"/>
</clipPath>
</defs>
</svg>
