<svg width="14" height="14" viewBox="0 0 14 14" fill="none" xmlns="http://www.w3.org/2000/svg">
<g clip-path="url(#clip0_1068_189899)">
<path fill-rule="evenodd" clip-rule="evenodd" d="M3.07692 2C2.7913 2 2.51738 2.11346 2.31542 2.31542C2.11346 2.51738 2 2.7913 2 3.07692V9.30767C2 9.85996 1.55228 10.3077 1 10.3077C0.447715 10.3077 0 9.85996 0 9.30767V3.07692C0 2.26087 0.324174 1.47824 0.901209 0.901209C1.47824 0.324174 2.26087 0 3.07692 0C3.84729 0 4.58788 0.288902 5.15384 0.806708C5.71979 0.288902 6.46038 0 7.23076 0C8.04681 0 8.82943 0.324174 9.40647 0.901209C9.85496 1.3497 10.1507 1.9224 10.2602 2.53845H10.568C13.4635 2.53845 14.9135 6.03916 12.8661 8.08655L10.3799 10.5728C10.4217 10.6674 10.4809 10.7545 10.5555 10.8291C10.7142 10.9878 10.9294 11.0769 11.1538 11.0769C11.3782 11.0769 11.5935 10.9878 11.7521 10.8291C11.9108 10.6704 12 10.4552 12 10.2307V9.80767C12 9.25539 12.4477 8.80767 13 8.80767C13.5523 8.80767 14 9.25539 14 9.80767V10.2307C14 10.9856 13.7001 11.7095 13.1664 12.2433C12.6326 12.777 11.9087 13.0769 11.1538 13.0769C10.399 13.0769 9.67505 12.777 9.14129 12.2433C9.06881 12.1708 9.00064 12.0948 8.93695 12.0157L8.20711 12.7456C7.81658 13.1361 7.18342 13.1361 6.79289 12.7456C6.40237 12.355 6.40237 11.7219 6.79289 11.3313L8.30767 9.81656V3.07692C8.30767 2.7913 8.19421 2.51738 7.99225 2.31542C7.79029 2.11346 7.51637 2 7.23076 2C6.94514 2 6.67122 2.11346 6.46926 2.31542C6.26867 2.51601 6.15539 2.78758 6.15385 3.07109L6.15387 3.07693V9.30769C6.15387 9.85998 5.70615 10.3077 5.15387 10.3077C4.60158 10.3077 4.15387 9.85998 4.15387 9.30769V3.08506L4.15384 3.07692C4.15384 2.7913 4.04038 2.51738 3.83841 2.31542C3.63645 2.11346 3.36254 2 3.07692 2ZM10.3077 7.81656L11.4519 6.67234C12.2394 5.88488 11.6817 4.53845 10.568 4.53845H10.3077V7.81656Z" fill="black"/>
</g>
<defs>
<clipPath id="clip0_1068_189899">
<rect width="14" height="14" fill="white"/>
</clipPath>
</defs>
</svg>
