<svg width="14" height="14" viewBox="0 0 14 14" fill="none" xmlns="http://www.w3.org/2000/svg">
<g clip-path="url(#clip0_1068_189923)">
<path fill-rule="evenodd" clip-rule="evenodd" d="M0.105792 0.552761C0.352781 0.0587829 0.953455 -0.141442 1.44743 0.105548C3.06476 0.914215 5.60521 3.16432 7.00022 7.01866C8.39522 3.16432 10.9357 0.914215 12.553 0.105548C13.047 -0.141442 13.6476 0.0587829 13.8946 0.552761C14.1416 1.04674 13.9414 1.64741 13.4474 1.8944C11.7711 2.73257 8.00022 6.19536 8.00022 13C8.00022 13.5523 7.5525 14 7.00022 14C6.44793 14 6.00022 13.5523 6.00022 13C6.00022 6.19536 2.22934 2.73257 0.553006 1.8944C0.059027 1.64741 -0.141197 1.04674 0.105792 0.552761Z" fill="black"/>
</g>
<defs>
<clipPath id="clip0_1068_189923">
<rect width="14" height="14" fill="white"/>
</clipPath>
</defs>
</svg>
