<svg width="14" height="14" viewBox="0 0 14 14" fill="none" xmlns="http://www.w3.org/2000/svg">
<g clip-path="url(#clip0_1068_189887)">
<path fill-rule="evenodd" clip-rule="evenodd" d="M2.84615 3.38464C2.62174 3.38464 2.40652 3.47379 2.24783 3.63248C2.08915 3.79116 2 4.00638 2 4.2308V9.76926C2 10.3215 1.55228 10.7693 1 10.7693C0.447715 10.7693 0 10.3215 0 9.76926V4.2308C0 3.47595 0.299862 2.75202 0.833619 2.21826C1.36738 1.68451 2.09131 1.38464 2.84615 1.38464C3.5252 1.38464 4.17923 1.62731 4.69231 2.06461C5.20538 1.62731 5.85941 1.38464 6.53846 1.38464C7.29331 1.38464 8.01724 1.68451 8.551 2.21826C9.08475 2.75202 9.38462 3.47595 9.38461 4.2308V9.76926C9.38461 9.99367 9.47376 10.2089 9.63245 10.3676C9.79113 10.5263 10.0064 10.6154 10.2308 10.6154C10.4552 10.6154 10.6704 10.5263 10.8291 10.3676C10.9703 10.2264 11.0564 10.0404 11.0737 9.84299C10.8451 9.82471 10.6216 9.72815 10.4468 9.5533C10.0562 9.16277 10.0562 8.52961 10.4468 8.13908L11.3653 7.22057C11.3806 7.20506 11.3964 7.19005 11.4127 7.17557C11.4933 7.10378 11.5828 7.0473 11.6773 7.00614C11.7997 6.95273 11.9349 6.92311 12.0769 6.92311C12.2114 6.92311 12.3398 6.94966 12.4569 6.99783C12.5759 7.04664 12.6874 7.11936 12.7841 7.216L13.7071 8.13908C14.0977 8.52961 14.0977 9.16277 13.7071 9.5533C13.5312 9.72923 13.306 9.8259 13.076 9.84331C13.057 10.5713 12.7596 11.2655 12.2433 11.7818C11.7095 12.3155 10.9856 12.6154 10.2308 12.6154C9.47592 12.6154 8.75199 12.3155 8.21824 11.7818C7.68448 11.248 7.38462 10.5241 7.38462 9.76926V4.2308C7.38462 4.00638 7.29547 3.79116 7.13678 3.63248C6.9781 3.47379 6.76288 3.38464 6.53846 3.38464C6.31405 3.38464 6.09882 3.47379 5.94014 3.63248C5.78232 3.7903 5.69327 4.00405 5.69232 4.22715V4.23079V9.76925C5.69232 10.3215 5.24461 10.7693 4.69232 10.7693C4.14004 10.7693 3.69232 10.3215 3.69232 9.76925V4.23616L3.69231 4.2308C3.69231 4.00638 3.60316 3.79116 3.44448 3.63248C3.28579 3.47379 3.07057 3.38464 2.84615 3.38464Z" fill="black"/>
</g>
<defs>
<clipPath id="clip0_1068_189887">
<rect width="14" height="14" fill="white"/>
</clipPath>
</defs>
</svg>
