<svg width="14" height="14" viewBox="0 0 14 14" fill="none" xmlns="http://www.w3.org/2000/svg">
<g clip-path="url(#clip0_1068_189908)">
<path fill-rule="evenodd" clip-rule="evenodd" d="M13.7434 0.331137C13.7206 0.305748 13.6964 0.281536 13.6711 0.258603C13.4937 0.0978959 13.2583 0 13 0H8.38464C7.83236 0 7.38464 0.447715 7.38464 1C7.38464 1.55228 7.83236 2 8.38464 2H10.5858L4.23075 8.35505L2.63014 6.75444C2.23962 6.36392 1.60645 6.36392 1.21593 6.75444C0.825404 7.14497 0.825404 7.77813 1.21593 8.16865L2.81654 9.76926L0.292893 12.2929C-0.097631 12.6834 -0.097631 13.3166 0.292893 13.7071C0.683417 14.0976 1.31658 14.0976 1.70711 13.7071L4.23075 11.1835L5.83132 12.784C6.22184 13.1746 6.85501 13.1746 7.24553 12.784C7.63606 12.3935 7.63606 11.7604 7.24553 11.3698L5.64496 9.76926L12 3.41419V5.61539C12 6.16767 12.4477 6.61539 13 6.61539C13.5523 6.61539 14 6.16767 14 5.61539V1C14 0.855771 13.9695 0.718673 13.9145 0.594818C13.8728 0.500539 13.8158 0.411391 13.7434 0.331137Z" fill="black"/>
</g>
<defs>
<clipPath id="clip0_1068_189908">
<rect width="14" height="14" fill="white"/>
</clipPath>
</defs>
</svg>
