<svg width="14" height="14" viewBox="0 0 14 14" fill="none" xmlns="http://www.w3.org/2000/svg">
<g clip-path="url(#clip0_1068_189896)">
<path fill-rule="evenodd" clip-rule="evenodd" d="M1.75887 2.35694C1.39919 1.93783 0.767865 1.88966 0.34876 2.24934C-0.0703449 2.60902 -0.118518 3.24035 0.241161 3.65945L2.36424 6.1333L2.36506 6.13425C2.53691 6.33399 2.74798 6.49628 2.98516 6.61106C3.22235 6.72583 3.48058 6.79064 3.74386 6.80146C4.00713 6.81227 4.26981 6.76887 4.51561 6.67395C4.76141 6.57903 4.98509 6.4346 5.17275 6.24964L5.17789 6.24453L6.97232 4.4501L8.76676 6.24453L8.7719 6.24964C8.95956 6.4346 9.18323 6.57903 9.42903 6.67395C9.67483 6.76888 9.93752 6.81227 10.2008 6.80146C10.4641 6.79064 10.7223 6.72583 10.9595 6.61106C11.1947 6.49726 11.4041 6.33675 11.5752 6.13934L13.7505 3.66908C14.1155 3.25459 14.0754 2.6227 13.6609 2.25771C13.2464 1.89271 12.6145 1.93283 12.2495 2.34732L10.1182 4.76759L8.33771 2.98707L8.33594 2.98529C8.15753 2.80588 7.94547 2.66344 7.71189 2.56613C7.47755 2.46849 7.22619 2.41823 6.97232 2.41823C6.71845 2.41823 6.4671 2.46849 6.23275 2.56613C5.99917 2.66344 5.78711 2.80589 5.60869 2.98531L3.82711 4.76689L1.75887 2.35694ZM1.75887 7.54563C1.3992 7.12652 0.767865 7.07835 0.34876 7.43803C-0.0703449 7.79771 -0.118518 8.42904 0.241161 8.84814L2.36424 11.322L2.36506 11.3229C2.53691 11.5227 2.74798 11.685 2.98516 11.7997C3.22235 11.9145 3.48058 11.9793 3.74386 11.9901C4.00713 12.001 4.26981 11.9576 4.51561 11.8626C4.76141 11.7677 4.98509 11.6233 5.17275 11.4383L5.17789 11.4332L6.97232 9.63879L8.76676 11.4332L8.7719 11.4383C8.95956 11.6233 9.18323 11.7677 9.42903 11.8626C9.67483 11.9576 9.93752 12.001 10.2008 11.9901C10.4641 11.9793 10.7223 11.9145 10.9595 11.7997C11.1947 11.6859 11.4041 11.5254 11.5752 11.328L13.7505 8.85777C14.1155 8.44328 14.0754 7.81139 13.6609 7.44639C13.2464 7.0814 12.6145 7.12152 12.2495 7.53601L10.1182 9.95628L8.33771 8.17576L8.33595 8.17399C8.15754 7.99458 7.94547 7.85213 7.71189 7.75482C7.47755 7.65719 7.22619 7.60692 6.97232 7.60692C6.71845 7.60692 6.4671 7.65719 6.23275 7.75482C5.99917 7.85213 5.7871 7.99458 5.60869 8.174L3.82711 9.95558L1.75887 7.54563Z" fill="black"/>
</g>
<defs>
<clipPath id="clip0_1068_189896">
<rect width="14" height="14" fill="white"/>
</clipPath>
</defs>
</svg>
