<svg width="14" height="14" viewBox="0 0 14 14" fill="none" xmlns="http://www.w3.org/2000/svg">
<path fill-rule="evenodd" clip-rule="evenodd" d="M6.99999 0.885986C5.75551 0.885986 4.56201 1.38035 3.68203 2.26033C2.80274 3.13962 2.30846 4.33195 2.30769 5.57538C2.30621 5.86128 2.33143 6.14548 2.38241 6.42444H1C0.447715 6.42444 0 6.87215 0 7.42444C0 7.97672 0.447715 8.42444 1 8.42444H3.80615C4.16514 8.42444 4.49658 8.23201 4.67457 7.92026C4.85257 7.6085 4.8498 7.22526 4.66731 6.91611C4.42924 6.51278 4.30495 6.05245 4.30767 5.5841L4.30769 5.57829C4.30769 4.86424 4.59134 4.17945 5.09624 3.67454C5.60115 3.16964 6.28595 2.88599 6.99999 2.88599C7.71403 2.88599 8.39883 3.16964 8.90373 3.67454C9.40864 4.17945 9.69229 4.86424 9.69229 5.57829L9.69256 5.60149C9.70337 6.06736 9.58833 6.52753 9.35955 6.9335C9.18507 7.24313 9.18804 7.62209 9.36735 7.92895C9.54665 8.2358 9.87535 8.42444 10.2308 8.42444H13C13.5523 8.42444 14 7.97672 14 7.42444C14 6.87215 13.5523 6.42444 13 6.42444H11.6294C11.677 6.14225 11.6982 5.85511 11.6923 5.56668C11.6892 4.3264 11.1952 3.13757 10.3179 2.26033C9.43797 1.38035 8.24446 0.885986 6.99999 0.885986ZM1 10.6068C0.447715 10.6068 0 11.0545 0 11.6068C0 12.159 0.447715 12.6068 1 12.6068H13C13.5523 12.6068 14 12.159 14 11.6068C14 11.0545 13.5523 10.6068 13 10.6068H1Z" fill="black"/>
</svg>
