<svg xmlns="http://www.w3.org/2000/svg" width="20" height="16" viewBox="0 0 20 16" fill="none">
    <path d="M16.3916 2.18032C16.3865 2.17042 16.378 2.16267 16.3677 2.15844C15.1764 1.61184 13.9191 1.22207 12.6275 0.998881C12.6158 0.996699 12.6037 0.998273 12.5929 1.00338C12.5821 1.00848 12.5732 1.01686 12.5674 1.02732C12.3962 1.33803 12.2408 1.65719 12.1018 1.98357C10.7095 1.77222 9.29329 1.77222 7.901 1.98357C7.76105 1.65636 7.60315 1.33713 7.42803 1.02732C7.42202 1.01709 7.41307 1.0089 7.40235 1.00383C7.39162 0.99876 7.37962 0.997034 7.3679 0.998881C6.07615 1.2216 4.81885 1.6114 3.62765 2.15847C3.61745 2.1628 3.60885 2.17018 3.60303 2.1796C1.22087 5.73704 0.568308 9.20701 0.888433 12.634C0.889334 12.6424 0.891914 12.6505 0.896021 12.6579C0.900128 12.6653 0.905677 12.6718 0.912339 12.677C2.29945 13.704 3.85094 14.488 5.50062 14.9954C5.51224 14.9989 5.52464 14.9987 5.53617 14.9949C5.5477 14.9912 5.55779 14.9839 5.56509 14.9743C5.9194 14.4922 6.23335 13.9817 6.50375 13.4479C6.50746 13.4406 6.50958 13.4326 6.50997 13.4244C6.51036 13.4162 6.509 13.408 6.50599 13.4004C6.50298 13.3927 6.49839 13.3858 6.49251 13.3801C6.48664 13.3743 6.47961 13.3699 6.4719 13.3671C5.97683 13.1776 5.49754 12.9493 5.03853 12.6842C5.03019 12.6793 5.02319 12.6724 5.01814 12.6641C5.01309 12.6559 5.01015 12.6465 5.00958 12.6369C5.00901 12.6272 5.01082 12.6176 5.01486 12.6088C5.0189 12.6 5.02504 12.5923 5.03275 12.5865C5.12933 12.5143 5.22424 12.44 5.3174 12.3634C5.32557 12.3567 5.33546 12.3524 5.34595 12.351C5.35644 12.3496 5.36712 12.3511 5.37678 12.3554C8.38393 13.7278 11.6396 13.7278 14.6112 12.3554C14.6208 12.3508 14.6316 12.3491 14.6423 12.3504C14.6529 12.3517 14.663 12.3559 14.6713 12.3627C14.7645 12.4396 14.8597 12.5143 14.9567 12.5865C14.9644 12.5923 14.9706 12.5999 14.9747 12.6086C14.9788 12.6174 14.9807 12.627 14.9802 12.6367C14.9797 12.6463 14.9768 12.6557 14.9718 12.664C14.9668 12.6723 14.9599 12.6792 14.9516 12.6842C14.4936 12.9515 14.0139 13.1797 13.5175 13.3663C13.5098 13.3693 13.5028 13.3738 13.497 13.3796C13.4911 13.3855 13.4866 13.3925 13.4836 13.4002C13.4807 13.4079 13.4794 13.4161 13.4799 13.4243C13.4803 13.4326 13.4825 13.4406 13.4863 13.4479C13.7612 13.9787 14.0747 14.4885 14.4242 14.9734C14.4313 14.9834 14.4414 14.9908 14.4529 14.9947C14.4645 14.9987 14.477 14.9989 14.4887 14.9953C16.1413 14.4896 17.6955 13.7056 19.0844 12.677C19.0911 12.672 19.0968 12.6657 19.1009 12.6584C19.105 12.6511 19.1075 12.6431 19.1083 12.6347C19.4915 8.67276 18.4667 5.23122 16.3916 2.18032ZM6.95284 10.5473C6.04746 10.5473 5.30146 9.71647 5.30146 8.6961C5.30146 7.67572 6.033 6.84482 6.95284 6.84482C7.87987 6.84482 8.61865 7.68294 8.60418 8.69604C8.60418 9.71647 7.87262 10.5473 6.95284 10.5473ZM13.0585 10.5473C12.1531 10.5473 11.4071 9.71647 11.4071 8.6961C11.4071 7.67572 12.1387 6.84482 13.0585 6.84482C13.9856 6.84482 14.7243 7.68294 14.7098 8.69604C14.7098 9.71647 13.9856 10.5473 13.0585 10.5473Z"
          fill="#5865F2"/>
</svg>