<svg xmlns="http://www.w3.org/2000/svg" width="20" height="20" viewBox="0 0 20 20" fill="none">
    <path d="M10.0002 0.83128C7.59472 0.806836 5.27798 1.73845 3.55911 3.42138C1.84023 5.10431 0.85988 7.40085 0.833496 9.80628C0.842765 11.7073 1.45428 13.5564 2.58021 15.0881C3.70615 16.6198 5.28856 17.7552 7.10016 18.3313C7.5585 18.4146 7.72516 18.1396 7.72516 17.8979V16.3729C5.17516 16.9146 4.6335 15.1729 4.6335 15.1729C4.46374 14.6262 4.10286 14.1588 3.61683 13.8563C2.7835 13.3063 3.6835 13.3146 3.6835 13.3146C3.97154 13.3531 4.24712 13.4563 4.48959 13.6165C4.73205 13.7767 4.93509 13.9898 5.0835 14.2396C5.34211 14.688 5.76644 15.017 6.26517 15.1557C6.7639 15.2944 7.29716 15.2318 7.75016 14.9813C7.79675 14.5249 8.00341 14.0998 8.3335 13.7813C6.30016 13.5563 4.16683 12.7896 4.16683 9.34795C4.14865 8.45018 4.48036 7.58054 5.09183 6.92295C4.81335 6.15217 4.84623 5.30321 5.1835 4.55628C5.1835 4.55628 5.9585 4.31461 7.6835 5.47295C9.18507 5.07281 10.7653 5.07281 12.2668 5.47295C14.0168 4.31461 14.7668 4.55628 14.7668 4.55628C15.1041 5.30321 15.137 6.15217 14.8585 6.92295C15.4842 7.56849 15.8339 8.43229 15.8335 9.33128C15.8335 12.7813 13.6835 13.5396 11.6668 13.7646C11.8876 13.979 12.0582 14.2397 12.1663 14.5278C12.2744 14.816 12.3172 15.1246 12.2918 15.4313V17.8896C12.2918 18.1813 12.4585 18.4146 12.9168 18.3229C14.7233 17.7433 16.3004 16.6076 17.4228 15.0781C18.5453 13.5485 19.1557 11.7034 19.1668 9.80628C19.1404 7.40085 18.1601 5.10431 16.4412 3.42138C14.7223 1.73845 12.4056 0.806836 10.0002 0.83128Z"
          fill="currentColor"/>
</svg>