<svg xmlns="http://www.w3.org/2000/svg" width="21" height="20" viewBox="0 0 21 20" fill="none">
    <g clip-path="url(#clip0_346_13747)">
        <path d="M4.68181 9.99793C4.68181 9.36293 4.79014 8.75376 4.98181 8.18293L1.61681 5.66626C0.940723 7.00999 0.589632 8.4937 0.591807 9.99793C0.591807 11.5546 0.96014 13.0229 1.61514 14.3263L4.97847 11.8054C4.78236 11.223 4.68217 10.6125 4.68181 9.99793Z"
              fill="#FBBC05"/>
        <path d="M10.5917 4.22046C12 4.22046 13.2725 4.70879 14.2725 5.50879L17.1817 2.66463C15.4092 1.15379 13.1367 0.220459 10.5917 0.220459C6.64003 0.220459 3.24337 2.43296 1.6167 5.66629L4.98337 8.18296C5.75837 5.87796 7.96837 4.22046 10.5917 4.22046Z"
              fill="#EA4335"/>
        <path d="M10.5917 15.7755C7.96753 15.7755 5.75753 14.118 4.9817 11.813L1.6167 14.3297C3.24253 17.563 6.6392 19.7755 10.5917 19.7755C13.03 19.7755 15.3584 18.928 17.1067 17.3388L13.9117 14.9205C13.0109 15.4763 11.8759 15.7755 10.5909 15.7755"
              fill="#34A853"/>
        <path d="M20.1367 9.99796C20.1367 9.42046 20.045 8.79796 19.9092 8.22046H10.5908V11.998H15.9542C15.6867 13.2863 14.9567 14.2763 13.9125 14.9205L17.1067 17.3388C18.9425 15.6705 20.1367 13.1855 20.1367 9.99796Z"
              fill="#4285F4"/>
    </g>
    <defs>
        <clipPath id="clip0_346_13747">
            <rect width="20" height="20" fill="white" transform="translate(0.5 -0.0020752)"/>
        </clipPath>
    </defs>
</svg>