<svg width="92" height="17" fill="none" xmlns="http://www.w3.org/2000/svg">
    <g clip-path="url(#prefix__clip0)">
        <path
            d="M32.732 4.841h2.16v.795c.526-.554 1.521-.998 2.63-.998 2.328 0 3.849 1.774 3.849 4.25 0 2.532-1.765 4.509-4.488 4.509-.752 0-1.484-.13-1.972-.407v3.918h-2.16V4.84h-.019zm2.179 2.698v3.382c.582.37 1.07.48 1.784.48 1.502 0 2.366-1.072 2.366-2.457 0-1.33-.789-2.292-2.216-2.292-.732-.018-1.408.314-1.934.887zM27.38 4.675c-2.723 0-4.488 1.958-4.488 4.509 0 2.476 1.502 4.25 3.85 4.25 1.09 0 2.084-.444 2.629-.998v.794h2.16V6.227c-1.615-1.201-3.4-1.552-4.15-1.552zm1.972 5.857c-.526.573-1.202.906-1.934.906-1.427 0-2.216-.961-2.216-2.291 0-1.386.864-2.477 2.366-2.477.714 0 1.202.111 1.784.48v3.382zM42.291 4.841h2.16v.795c.526-.554 1.52-.998 2.629-.998 2.328 0 3.85 1.774 3.85 4.25 0 2.532-1.766 4.509-4.489 4.509-.75 0-1.483-.13-1.972-.407v3.918h-2.16V4.84h-.018zm2.178 2.698v3.382c.583.37 1.07.48 1.785.48 1.502 0 2.366-1.072 2.366-2.457 0-1.33-.79-2.292-2.216-2.292-.733-.018-1.409.314-1.935.887zM57.202 2.44c-.32-.223-.826-.444-1.334-.444-.976 0-1.483.499-1.483 1.644v1.183h1.521v2.014h-1.521v6.338h-2.178V3.492C52.206 1.182 53.332 0 55.23 0c.864 0 1.653.203 2.216.554h1.916v9.461c0 .943.244 1.35.732 1.35.357 0 .638-.149.901-.334l.451 1.627c-.488.388-1.22.702-2.235.702-1.295 0-2.01-.776-2.01-2.476V2.439zM66.085 4.638c2.817 0 4.62 1.866 4.62 4.38 0 2.494-1.803 4.379-4.62 4.379s-4.62-1.866-4.62-4.38c0-2.513 1.821-4.379 4.62-4.379zm0 6.763c1.333 0 2.31-.942 2.31-2.383 0-1.405-.996-2.366-2.31-2.366-1.277 0-2.291.924-2.291 2.366 0 1.385.976 2.383 2.29 2.383zM81.427 13.23h-1.934L77.69 8.594c-.131-.314-.188-.666-.282-.98-.075.37-.169.684-.3 1.017l-1.803 4.6h-1.84l-2.76-8.388h2.309l1.352 4.545c.132.407.17.72.244 1.109.094-.351.15-.647.32-1.109l1.577-4.545h1.915l1.634 4.527c.132.37.226.757.32 1.145.075-.388.168-.794.262-1.2l1.24-4.472h2.178l-2.629 8.389z"
            fill="#000" />
        <path
            d="M88.657 13.194c-1.24 2.993-2.028 3.714-3.286 3.714-.77 0-1.333-.296-1.822-.647l.695-1.608c.226.13.545.296.883.296.544 0 .939-.425 1.296-1.293l.187-.444-3.924-8.352h2.61l1.972 4.564c.169.407.281.795.413 1.201.075-.388.15-.794.3-1.22l1.521-4.545h2.46l-3.305 8.334z"
            fill="#000" />
        <path
            d="M17.014 10.403c-.488 2.606-2.629 4.879-5.089 6.154-.3.166-.657.258-.995.277h5.22c.507 0 .864-.37.864-.832v-5.599z"
            fill="#F7931E" />
        <path
            d="M6.573 5.377l-.226.167C5.07 6.43 1.202 9.276.32 8.038c-.864-1.2.056-4.6 2.272-6.245.038-.037.094-.056.132-.093C5.145.02 6.948.26 7.83 1.48c.826 1.145-.094 2.956-1.258 3.898z"
            fill="#8427E0" />
        <path
            d="M16.037 8.02c-1.202.832-3.08-.129-4.018-1.33-.038-.055-.076-.092-.113-.148C11.004 5.286 8.112 1.48 9.352.63c1.24-.868 4.826.074 6.46 2.365.038.056.075.093.113.148 1.577 2.31 1.333 4.028.112 4.878z"
            fill="#00B5FF" />
        <path
            d="M14.423 15.522c-.038.037-.075.055-.132.092-2.422 1.682-4.225 1.442-5.108.222-.826-1.146.094-2.957 1.258-3.899l.226-.166c1.277-.869 5.145-3.733 6.01-2.495.882 1.201-.02 4.601-2.254 6.246z"
            fill="#FFBD00" />
        <path
            d="M7.662 16.686c-1.24.868-4.808-.074-6.441-2.365a.562.562 0 01-.094-.13c-1.597-2.31-1.334-4.046-.113-4.878 1.202-.831 3.08.13 4.019 1.33.037.056.075.093.112.148.883 1.238 3.775 5.045 2.517 5.895z"
            fill="#E3006D" />
        <path
            d="M6.573 5.377C4.845 6.135 1.164 7.687.62 6.431c-.47-1.054.394-3.197 1.972-4.638.037-.037.094-.056.131-.093C5.146.02 6.948.26 7.831 1.48c.826 1.145-.094 2.956-1.258 3.898z"
            fill="#9327FF" />
        <path
            d="M16.037 8.02c-1.201.831-3.08-.13-4.018-1.33-.77-1.756-2.254-5.212-1.014-5.729 1.126-.48 3.455.48 4.938 2.18 1.56 2.31 1.315 4.029.094 4.879z"
            fill="#00C8FF" />
        <path
            d="M14.423 15.522c-.038.037-.075.055-.132.092-2.422 1.682-4.225 1.441-5.108.222-.826-1.146.094-2.957 1.258-3.9 1.728-.757 5.409-2.309 5.953-1.052.489 1.053-.375 3.196-1.971 4.638z"
            fill="#FFCE00" />
        <path
            d="M6.047 16.353c-1.127.48-3.456-.462-4.92-2.162-1.597-2.31-1.334-4.046-.113-4.878 1.202-.831 3.08.13 4.019 1.33.77 1.737 2.253 5.193 1.014 5.71z"
            fill="#FB006D" />
    </g>
    <defs>
        <clipPath id="prefix__clip0">
            <path fill="#fff" d="M0 0h92v17H0z" />
        </clipPath>
    </defs>
</svg>