<svg width="64" height="64" fill="none" xmlns="http://www.w3.org/2000/svg">
    <path fill-rule="evenodd" clip-rule="evenodd" d="M18 8a4 4 0 0 0-4 4v40a4 4 0 0 0 4 4h28a4 4 0 0 0 4-4V20L38 8H18Z" fill="#fff"/>
    <rect x="24" y="24" width="3" height="6" rx="1.5" fill="#D3D8E1"/>
    <rect x="37" y="24" width="3" height="6" rx="1.5" fill="#D3D8E1"/>
    <path d="m38 8 12 12H40a2 2 0 0 1-2-2V8Z" fill="#D3D8E1"/>
    <path fill-rule="evenodd" clip-rule="evenodd" d="M38 40a6 6 0 0 0-12 0h12Z" fill="#D3D8E1"/>
</svg>
