<svg width="86" height="86" viewBox="0 0 86 86" fill="none" xmlns="http://www.w3.org/2000/svg">
<rect width="86" height="86" rx="30" fill="#BAC9FF"/>
<path d="M36.342 32.6719C36.342 31.8452 37.0122 31.175 37.8389 31.175H52.519C53.3457 31.175 54.0159 31.8452 54.0159 32.6719C54.0159 33.4986 53.3457 34.1688 52.519 34.1688H37.8389C37.0122 34.1688 36.342 33.4986 36.342 32.6719ZM36.342 42.4586C36.342 41.6319 37.0122 40.9617 37.8389 40.9617H52.519C53.3457 40.9617 54.0159 41.6319 54.0159 42.4586C54.0159 43.2853 53.3457 43.9554 52.519 43.9554H37.8389C37.0122 43.9554 36.342 43.2853 36.342 42.4586ZM36.342 52.2454C36.342 51.4187 37.0122 50.7486 37.8389 50.7486H52.519C53.3457 50.7486 54.0159 51.4187 54.0159 52.2454C54.0159 53.0721 53.3457 53.7423 52.519 53.7423H37.8389C37.0122 53.7423 36.342 53.0721 36.342 52.2454ZM32.8967 32.672C32.8967 33.32 32.3714 33.8453 31.7233 33.8453C31.0753 33.8453 30.55 33.32 30.55 32.672C30.55 32.0239 31.0753 31.4986 31.7233 31.4986C32.3714 31.4986 32.8967 32.0239 32.8967 32.672ZM32.8967 42.4588C32.8967 43.1068 32.3714 43.6321 31.7233 43.6321C31.0753 43.6321 30.55 43.1068 30.55 42.4588C30.55 41.8107 31.0753 41.2854 31.7233 41.2854C32.3714 41.2854 32.8967 41.8107 32.8967 42.4588ZM32.8967 52.2454C32.8967 52.8934 32.3714 53.4187 31.7233 53.4187C31.0753 53.4187 30.55 52.8934 30.55 52.2454C30.55 51.5974 31.0753 51.0721 31.7233 51.0721C32.3714 51.0721 32.8967 51.5974 32.8967 52.2454Z" fill="#192432" stroke="#DBEAFF" stroke-width="0.1"/>
</svg>
