<svg width="86" height="86" viewBox="0 0 86 86" fill="none" xmlns="http://www.w3.org/2000/svg">
<rect width="86" height="86" rx="30" fill="#91EBF5"/>
<path d="M57 42.1264L43.7622 54.6113C42.1405 56.1407 39.941 57 37.6475 57C35.3541 57 33.1545 56.1407 31.5328 54.6113C29.9111 53.0818 29 51.0073 29 48.8443C29 46.6813 29.9111 44.6068 31.5328 43.0774L44.7706 30.5925C45.8517 29.5728 47.3181 29 48.847 29C50.376 29 51.8424 29.5728 52.9235 30.5925C54.0047 31.6122 54.6121 32.9951 54.6121 34.4371C54.6121 35.8791 54.0047 37.2621 52.9235 38.2818L39.6714 50.7666C39.1308 51.2765 38.3976 51.5629 37.6331 51.5629C36.8686 51.5629 36.1355 51.2765 35.5949 50.7666C35.0543 50.2568 34.7506 49.5653 34.7506 48.8443C34.7506 48.1233 35.0543 47.4318 35.5949 46.922L47.8243 35.4017" stroke="#1F2329" stroke-width="2.2807" stroke-linecap="round" stroke-linejoin="round"/>
</svg>
