<svg width="86" height="86" viewBox="0 0 86 86" fill="none" xmlns="http://www.w3.org/2000/svg">
<rect width="86" height="86" rx="30" fill="#98F4CD"/>
<path d="M43.2629 45.1502C43.2827 45.1686 43.3134 45.1686 43.3332 45.1502L56.3646 33.0497C56.8664 32.5837 57.651 32.6127 58.117 33.1146C58.583 33.6164 58.5539 34.401 58.0521 34.867L44.1418 47.7837C43.6661 48.2254 42.9301 48.2254 42.4543 47.7837L38.2812 43.9087C37.7794 43.4427 37.7503 42.6581 38.2163 42.1562C38.6823 41.6544 39.4669 41.6253 39.9688 42.0913L43.2629 45.1502ZM43 30.0317C35.8378 30.0317 30.0317 35.8378 30.0317 43C30.0317 50.1622 35.8378 55.9683 43 55.9683C50.1622 55.9683 55.9683 50.1622 55.9683 43C55.9683 42.3152 56.5235 41.76 57.2083 41.76C57.8932 41.76 58.4483 42.3152 58.4483 43C58.4483 51.5319 51.5319 58.4483 43 58.4483C34.4681 58.4483 27.5517 51.5319 27.5517 43C27.5517 34.4681 34.4681 27.5517 43 27.5517C45.298 27.5517 47.482 28.0542 49.4453 28.9567C50.0675 29.2427 50.3401 29.979 50.0541 30.6012C49.7681 31.2235 49.0318 31.496 48.4095 31.21C46.7646 30.4539 44.9333 30.0317 43 30.0317Z" fill="#1D2F28" stroke="#B1EEB8" stroke-width="0.103333" stroke-linecap="round" stroke-linejoin="round"/>
</svg>
