<svg width="86" height="86" viewBox="0 0 86 86" fill="none" xmlns="http://www.w3.org/2000/svg">
<rect width="86" height="86" rx="30" fill="#FDEDA7"/>
<mask id="path-2-inside-1_72_2774" fill="white">
<path fill-rule="evenodd" clip-rule="evenodd" d="M33.5418 37.2754C34.9586 37.2754 36.1591 36.1065 36.1591 34.6C36.1591 33.0935 34.9586 31.9246 33.5418 31.9246C32.1251 31.9246 30.9246 33.0935 30.9246 34.6C30.9246 36.1065 32.1251 37.2754 33.5418 37.2754ZM37.1003 46.1687L35.2406 39.932C37.1097 39.3244 38.5457 37.7412 38.9613 35.7759L46.9159 36.8982L46.9159 36.9164C46.9159 38.2222 47.3581 39.4236 48.0996 40.3759L42.1395 46.7255C41.2638 46.1398 40.2138 45.7988 39.085 45.7988C38.3856 45.7988 37.7165 45.9297 37.1003 46.1687ZM44.0676 48.9444C44.4258 49.6855 44.6269 50.5185 44.6269 51.3988C44.6269 54.4916 42.1457 56.9988 39.085 56.9988C36.0244 56.9988 33.5432 54.4916 33.5432 51.3988C33.5432 50.1516 33.9467 48.9996 34.6289 48.0689L32.2358 40.0436C29.8054 39.4503 28 37.2382 28 34.6C28 31.5072 30.4812 29 33.5418 29C35.9731 29 38.0387 30.5821 38.7854 32.783L47.7012 34.041C48.6696 32.4088 50.4374 31.3164 52.4577 31.3164C55.5184 31.3164 57.9995 33.8236 57.9995 36.9164C57.9995 40.0092 55.5184 42.5164 52.4577 42.5164C51.7515 42.5164 51.0761 42.3829 50.455 42.1396L44.0676 48.9444ZM55.075 36.9164C55.075 38.4229 53.8745 39.5919 52.4577 39.5919C51.0409 39.5919 49.8404 38.4229 49.8404 36.9164C49.8404 35.4099 51.0409 34.241 52.4577 34.241C53.8745 34.241 55.075 35.4099 55.075 36.9164ZM41.7023 51.3988C41.7023 52.9053 40.5018 54.0743 39.085 54.0743C37.6683 54.0743 36.4678 52.9053 36.4678 51.3988C36.4678 49.8924 37.6683 48.7234 39.085 48.7234C40.5018 48.7234 41.7023 49.8924 41.7023 51.3988Z"/>
</mask>
<path fill-rule="evenodd" clip-rule="evenodd" d="M33.5418 37.2754C34.9586 37.2754 36.1591 36.1065 36.1591 34.6C36.1591 33.0935 34.9586 31.9246 33.5418 31.9246C32.1251 31.9246 30.9246 33.0935 30.9246 34.6C30.9246 36.1065 32.1251 37.2754 33.5418 37.2754ZM37.1003 46.1687L35.2406 39.932C37.1097 39.3244 38.5457 37.7412 38.9613 35.7759L46.9159 36.8982L46.9159 36.9164C46.9159 38.2222 47.3581 39.4236 48.0996 40.3759L42.1395 46.7255C41.2638 46.1398 40.2138 45.7988 39.085 45.7988C38.3856 45.7988 37.7165 45.9297 37.1003 46.1687ZM44.0676 48.9444C44.4258 49.6855 44.6269 50.5185 44.6269 51.3988C44.6269 54.4916 42.1457 56.9988 39.085 56.9988C36.0244 56.9988 33.5432 54.4916 33.5432 51.3988C33.5432 50.1516 33.9467 48.9996 34.6289 48.0689L32.2358 40.0436C29.8054 39.4503 28 37.2382 28 34.6C28 31.5072 30.4812 29 33.5418 29C35.9731 29 38.0387 30.5821 38.7854 32.783L47.7012 34.041C48.6696 32.4088 50.4374 31.3164 52.4577 31.3164C55.5184 31.3164 57.9995 33.8236 57.9995 36.9164C57.9995 40.0092 55.5184 42.5164 52.4577 42.5164C51.7515 42.5164 51.0761 42.3829 50.455 42.1396L44.0676 48.9444ZM55.075 36.9164C55.075 38.4229 53.8745 39.5919 52.4577 39.5919C51.0409 39.5919 49.8404 38.4229 49.8404 36.9164C49.8404 35.4099 51.0409 34.241 52.4577 34.241C53.8745 34.241 55.075 35.4099 55.075 36.9164ZM41.7023 51.3988C41.7023 52.9053 40.5018 54.0743 39.085 54.0743C37.6683 54.0743 36.4678 52.9053 36.4678 51.3988C36.4678 49.8924 37.6683 48.7234 39.085 48.7234C40.5018 48.7234 41.7023 49.8924 41.7023 51.3988Z" fill="black" fill-opacity="0.8"/>
<path d="M35.2406 39.932L35.1407 39.6248L34.8409 39.7222L34.931 40.0243L35.2406 39.932ZM37.1003 46.1687L36.7907 46.261L36.8907 46.5964L37.2171 46.4699L37.1003 46.1687ZM38.9613 35.7759L39.0064 35.456L38.7076 35.4138L38.6452 35.709L38.9613 35.7759ZM46.9159 36.8982L47.239 36.8987L47.2394 36.6176L46.961 36.5783L46.9159 36.8982ZM46.9159 36.9164L46.5928 36.9159V36.9164H46.9159ZM48.0996 40.3759L48.3351 40.5971L48.5243 40.3956L48.3545 40.1775L48.0996 40.3759ZM42.1395 46.7255L41.9599 46.994L42.1876 47.1463L42.3751 46.9466L42.1395 46.7255ZM44.0676 48.9444L43.832 48.7233L43.6801 48.8851L43.7767 49.085L44.0676 48.9444ZM34.6289 48.0689L34.8895 48.2599L34.9844 48.1304L34.9386 47.9766L34.6289 48.0689ZM32.2358 40.0436L32.5454 39.9513L32.4925 39.7737L32.3125 39.7297L32.2358 40.0436ZM38.7854 32.783L38.4795 32.8868L38.5434 33.0751L38.7403 33.1029L38.7854 32.783ZM47.7012 34.041L47.6561 34.3609L47.8693 34.3909L47.9791 34.2058L47.7012 34.041ZM50.455 42.1396L50.5728 41.8388L50.3692 41.7589L50.2194 41.9185L50.455 42.1396ZM35.836 34.6C35.836 35.9302 34.7781 36.9524 33.5418 36.9524V37.5985C35.1391 37.5985 36.4822 36.2828 36.4822 34.6H35.836ZM33.5418 32.2476C34.7781 32.2476 35.836 33.2698 35.836 34.6H36.4822C36.4822 32.9172 35.1391 31.6015 33.5418 31.6015V32.2476ZM31.2476 34.6C31.2476 33.2698 32.3056 32.2476 33.5418 32.2476V31.6015C31.9445 31.6015 30.6015 32.9172 30.6015 34.6H31.2476ZM33.5418 36.9524C32.3056 36.9524 31.2476 35.9302 31.2476 34.6H30.6015C30.6015 36.2828 31.9445 37.5985 33.5418 37.5985V36.9524ZM34.931 40.0243L36.7907 46.261L37.4099 46.0763L35.5502 39.8397L34.931 40.0243ZM38.6452 35.709C38.2535 37.5616 36.8997 39.053 35.1407 39.6248L35.3405 40.2393C37.3196 39.5959 38.8379 37.9208 39.2774 35.8427L38.6452 35.709ZM46.961 36.5783L39.0064 35.456L38.9162 36.0958L46.8708 37.2181L46.961 36.5783ZM47.2389 36.9169L47.239 36.8987L46.5928 36.8977L46.5928 36.9159L47.2389 36.9169ZM48.3545 40.1775C47.6558 39.28 47.2389 38.1481 47.2389 36.9164H46.5928C46.5928 38.2963 47.0604 39.5671 47.8446 40.5744L48.3545 40.1775ZM42.3751 46.9466L48.3351 40.5971L47.864 40.1548L41.904 46.5044L42.3751 46.9466ZM39.085 46.1219C40.1477 46.1219 41.1355 46.4427 41.9599 46.994L42.3191 46.4569C41.392 45.837 40.2799 45.4758 39.085 45.4758V46.1219ZM37.2171 46.4699C37.7967 46.2452 38.4263 46.1219 39.085 46.1219V45.4758C38.345 45.4758 37.6363 45.6143 36.9835 45.8674L37.2171 46.4699ZM43.7767 49.085C44.1142 49.7832 44.3038 50.5681 44.3038 51.3988H44.9499C44.9499 50.4688 44.7375 49.5879 44.3585 48.8038L43.7767 49.085ZM44.3038 51.3988C44.3038 54.3164 41.9641 56.6758 39.085 56.6758V57.3219C42.3273 57.3219 44.9499 54.6669 44.9499 51.3988H44.3038ZM39.085 56.6758C36.206 56.6758 33.8663 54.3164 33.8663 51.3988H33.2201C33.2201 54.6669 35.8428 57.3219 39.085 57.3219V56.6758ZM33.8663 51.3988C33.8663 50.2224 34.2466 49.1369 34.8895 48.2599L34.3684 47.8779C33.6467 48.8624 33.2201 50.0809 33.2201 51.3988H33.8663ZM34.9386 47.9766L32.5454 39.9513L31.9262 40.1359L34.3193 48.1612L34.9386 47.9766ZM32.3125 39.7297C30.0254 39.1715 28.3231 37.088 28.3231 34.6H27.6769C27.6769 37.3884 29.5854 39.7292 32.1592 40.3575L32.3125 39.7297ZM28.3231 34.6C28.3231 31.6824 30.6628 29.3231 33.5418 29.3231V28.6769C30.2996 28.6769 27.6769 31.332 27.6769 34.6H28.3231ZM33.5418 29.3231C35.8287 29.3231 37.7753 30.8112 38.4795 32.8868L39.0914 32.6792C38.3021 30.3529 36.1175 28.6769 33.5418 28.6769V29.3231ZM38.7403 33.1029L47.6561 34.3609L47.7464 33.721L38.8306 32.4631L38.7403 33.1029ZM47.9791 34.2058C48.8923 32.6667 50.5572 31.6395 52.4577 31.6395V30.9933C50.3176 30.9933 48.447 32.1509 47.4234 33.8761L47.9791 34.2058ZM52.4577 31.6395C55.3368 31.6395 57.6765 33.9989 57.6765 36.9164H58.3226C58.3226 33.6484 55.7 30.9933 52.4577 30.9933V31.6395ZM57.6765 36.9164C57.6765 39.834 55.3368 42.1933 52.4577 42.1933V42.8395C55.7 42.8395 58.3226 40.1844 58.3226 36.9164H57.6765ZM52.4577 42.1933C51.7925 42.1933 51.1571 42.0677 50.5728 41.8388L50.3371 42.4404C50.9952 42.6982 51.7105 42.8395 52.4577 42.8395V42.1933ZM50.2194 41.9185L43.832 48.7233L44.3032 49.1655L50.6906 42.3607L50.2194 41.9185ZM52.4577 39.9149C54.055 39.9149 55.3981 38.5992 55.3981 36.9164H54.7519C54.7519 38.2466 53.6939 39.2688 52.4577 39.2688V39.9149ZM49.5173 36.9164C49.5173 38.5992 50.8604 39.9149 52.4577 39.9149V39.2688C51.2215 39.2688 50.1635 38.2466 50.1635 36.9164H49.5173ZM52.4577 33.9179C50.8604 33.9179 49.5173 35.2336 49.5173 36.9164H50.1635C50.1635 35.5862 51.2215 34.564 52.4577 34.564V33.9179ZM55.3981 36.9164C55.3981 35.2336 54.055 33.9179 52.4577 33.9179V34.564C53.6939 34.564 54.7519 35.5862 54.7519 36.9164H55.3981ZM39.085 54.3974C40.6823 54.3974 42.0254 53.0816 42.0254 51.3988H41.3792C41.3792 52.729 40.3213 53.7512 39.085 53.7512V54.3974ZM36.1447 51.3988C36.1447 53.0816 37.4877 54.3974 39.085 54.3974V53.7512C37.8488 53.7512 36.7908 52.729 36.7908 51.3988H36.1447ZM39.085 48.4003C37.4877 48.4003 36.1447 49.716 36.1447 51.3988H36.7908C36.7908 50.0687 37.8488 49.0465 39.085 49.0465V48.4003ZM42.0254 51.3988C42.0254 49.716 40.6823 48.4003 39.085 48.4003V49.0465C40.3213 49.0465 41.3792 50.0687 41.3792 51.3988H42.0254Z" fill="#FFD18B" mask="url(#path-2-inside-1_72_2774)"/>
</svg>
