<svg width="86" height="86" viewBox="0 0 86 86" fill="none" xmlns="http://www.w3.org/2000/svg">
<rect width="86" height="86" rx="30" fill="#CABDFF"/>
<path d="M38.7237 33.9987C38.7237 33.2947 39.2944 32.7239 39.9985 32.7239H45.9974C46.7015 32.7239 47.2722 33.2947 47.2722 33.9987C47.2722 34.7028 46.7015 35.2735 45.9974 35.2735H39.9985C39.2944 35.2735 38.7237 34.7028 38.7237 33.9987ZM40.2234 51.9956C40.2234 51.2916 40.7942 50.7208 41.4982 50.7208H44.4977C45.2017 50.7208 45.7725 51.2916 45.7725 51.9956C45.7725 52.6997 45.2017 53.2704 44.4977 53.2704H41.4982C40.7942 53.2704 40.2234 52.6997 40.2234 51.9956ZM31.225 32C31.225 29.0867 33.5867 26.725 36.5 26.725H49.5C52.4133 26.725 54.775 29.0867 54.775 32V53.9974C54.775 56.9107 52.4133 59.2724 49.5 59.2724H36.5C33.5867 59.2724 31.225 56.9107 31.225 53.9974V32ZM52.2214 32.4995C52.2214 30.7184 50.7775 29.2745 48.9964 29.2745H36.9995C35.2184 29.2745 33.7745 30.7184 33.7745 32.4995V53.4949C33.7745 55.276 35.2184 56.7198 36.9995 56.7198H48.9964C50.7775 56.7198 52.2214 55.276 52.2214 53.4949V32.4995Z" fill="black" fill-opacity="0.8" stroke="#DFC0FF" stroke-width="0.449923"/>
</svg>
