<svg width="86" height="86" viewBox="0 0 86 86" fill="none" xmlns="http://www.w3.org/2000/svg">
<rect width="86" height="86" rx="30" fill="#FFB9EF"/>
<mask id="path-2-inside-1_72_2706" fill="white">
<path fill-rule="evenodd" clip-rule="evenodd" d="M46.837 36.7826C46.837 39.1478 44.9196 41.0652 42.5543 41.0652C40.1891 41.0652 38.2717 39.1478 38.2717 36.7826C38.2717 34.4174 40.1891 32.5 42.5543 32.5C44.9196 32.5 46.837 34.4174 46.837 36.7826ZM45.8011 42.7391C47.9079 41.5883 49.337 39.3523 49.337 36.7826C49.337 33.0367 46.3003 30 42.5543 30C38.8084 30 35.7717 33.0367 35.7717 36.7826C35.7717 39.3523 37.2008 41.5883 39.3076 42.7391C33.9478 44.17 30 49.0588 30 54.8696C30 55.5599 30.5596 56.1196 31.25 56.1196C31.9404 56.1196 32.5 55.5599 32.5 54.8696C32.5 49.3167 37.0015 44.8152 42.5543 44.8152C48.1072 44.8152 52.6087 49.3167 52.6087 54.8696C52.6087 55.5599 53.1683 56.1196 53.8587 56.1196C54.5491 56.1196 55.1087 55.5599 55.1087 54.8696C55.1087 49.0588 51.1609 44.17 45.8011 42.7391Z"/>
</mask>
<path fill-rule="evenodd" clip-rule="evenodd" d="M46.837 36.7826C46.837 39.1478 44.9196 41.0652 42.5543 41.0652C40.1891 41.0652 38.2717 39.1478 38.2717 36.7826C38.2717 34.4174 40.1891 32.5 42.5543 32.5C44.9196 32.5 46.837 34.4174 46.837 36.7826ZM45.8011 42.7391C47.9079 41.5883 49.337 39.3523 49.337 36.7826C49.337 33.0367 46.3003 30 42.5543 30C38.8084 30 35.7717 33.0367 35.7717 36.7826C35.7717 39.3523 37.2008 41.5883 39.3076 42.7391C33.9478 44.17 30 49.0588 30 54.8696C30 55.5599 30.5596 56.1196 31.25 56.1196C31.9404 56.1196 32.5 55.5599 32.5 54.8696C32.5 49.3167 37.0015 44.8152 42.5543 44.8152C48.1072 44.8152 52.6087 49.3167 52.6087 54.8696C52.6087 55.5599 53.1683 56.1196 53.8587 56.1196C54.5491 56.1196 55.1087 55.5599 55.1087 54.8696C55.1087 49.0588 51.1609 44.17 45.8011 42.7391Z" fill="#1F2329"/>
<path d="M45.8011 42.7391L45.7532 42.6513L45.5337 42.7712L45.7753 42.8357L45.8011 42.7391ZM39.3076 42.7391L39.3334 42.8357L39.575 42.7712L39.3555 42.6513L39.3076 42.7391ZM42.5543 41.1652C44.9748 41.1652 46.937 39.2031 46.937 36.7826H46.737C46.737 39.0926 44.8643 40.9652 42.5543 40.9652V41.1652ZM38.1717 36.7826C38.1717 39.2031 40.1339 41.1652 42.5543 41.1652V40.9652C40.2444 40.9652 38.3717 39.0926 38.3717 36.7826H38.1717ZM42.5543 32.4C40.1339 32.4 38.1717 34.3622 38.1717 36.7826H38.3717C38.3717 34.4726 40.2444 32.6 42.5543 32.6V32.4ZM46.937 36.7826C46.937 34.3622 44.9748 32.4 42.5543 32.4V32.6C44.8643 32.6 46.737 34.4726 46.737 36.7826H46.937ZM45.849 42.8269C47.9866 41.6592 49.437 39.3904 49.437 36.7826H49.237C49.237 39.3143 47.8291 41.5174 45.7532 42.6513L45.849 42.8269ZM49.437 36.7826C49.437 32.9814 46.3555 29.9 42.5543 29.9V30.1C46.2451 30.1 49.237 33.0919 49.237 36.7826H49.437ZM42.5543 29.9C38.7532 29.9 35.6717 32.9814 35.6717 36.7826H35.8717C35.8717 33.0919 38.8636 30.1 42.5543 30.1V29.9ZM35.6717 36.7826C35.6717 39.3904 37.1221 41.6592 39.2597 42.8269L39.3555 42.6513C37.2796 41.5174 35.8717 39.3143 35.8717 36.7826H35.6717ZM30.1 54.8696C30.1 49.1052 34.0162 44.2552 39.3334 42.8357L39.2818 42.6425C33.8793 44.0848 29.9 49.0123 29.9 54.8696H30.1ZM31.25 56.0196C30.6149 56.0196 30.1 55.5047 30.1 54.8696H29.9C29.9 55.6152 30.5044 56.2196 31.25 56.2196V56.0196ZM32.4 54.8696C32.4 55.5047 31.8851 56.0196 31.25 56.0196V56.2196C31.9956 56.2196 32.6 55.6152 32.6 54.8696H32.4ZM42.5543 44.7152C36.9463 44.7152 32.4 49.2615 32.4 54.8696H32.6C32.6 49.3719 37.0567 44.9152 42.5543 44.9152V44.7152ZM52.7087 54.8696C52.7087 49.2615 48.1624 44.7152 42.5543 44.7152V44.9152C48.052 44.9152 52.5087 49.3719 52.5087 54.8696H52.7087ZM53.8587 56.0196C53.2236 56.0196 52.7087 55.5047 52.7087 54.8696H52.5087C52.5087 55.6152 53.1131 56.2196 53.8587 56.2196V56.0196ZM55.0087 54.8696C55.0087 55.5047 54.4938 56.0196 53.8587 56.0196V56.2196C54.6043 56.2196 55.2087 55.6152 55.2087 54.8696H55.0087ZM45.7753 42.8357C51.0925 44.2552 55.0087 49.1052 55.0087 54.8696H55.2087C55.2087 49.0123 51.2294 44.0848 45.8269 42.6425L45.7753 42.8357Z" fill="#FFC5E8" mask="url(#path-2-inside-1_72_2706)"/>
</svg>
