<svg width="86" height="86" viewBox="0 0 86 86" fill="none" xmlns="http://www.w3.org/2000/svg">
<rect width="86" height="86" rx="30" fill="#CABDFF"/>
<path d="M55.6164 48.5837L55.6162 48.5838C54.2773 50.1393 52.4736 50.9218 50.1802 50.9218C49.1723 50.9218 48.3115 50.7288 47.5903 50.3517C46.8827 49.9755 46.3493 49.4392 45.9849 48.7394L45.8256 48.4336L45.6099 48.7026C44.4472 50.1523 42.9386 50.8735 41.065 50.8735C39.3701 50.8735 38.0779 50.2424 37.1593 48.9845C36.2379 47.7228 35.8792 46.04 36.116 43.9082C36.3299 42.1629 36.822 40.6195 37.5889 39.2744C38.3683 37.9176 39.3439 36.8838 40.5136 36.165C41.6844 35.4455 42.9458 35.0868 44.3024 35.0868C45.9947 35.0868 47.4241 35.4343 48.6002 36.1183L49.6168 36.7363L48.7089 45.901C48.5855 46.7745 48.684 47.4913 49.0573 48.0085L49.0573 48.0086L49.0596 48.0117C49.4514 48.5351 50.0591 48.7784 50.8313 48.7784C52.0351 48.7784 53.0272 48.1482 53.805 46.9526L53.8055 46.9518C54.5811 45.7486 54.9974 44.1922 55.071 42.2981C55.2777 38.5125 54.4204 35.5664 52.4599 33.4995C50.5112 31.4215 47.6334 30.4006 43.8683 30.4006C41.5061 30.4006 39.3927 30.9351 37.5343 32.0093C35.6758 33.0836 34.2123 34.6128 33.1446 36.5911C32.0777 38.5572 31.4796 40.808 31.3454 43.3387L31.3454 43.3392C31.1505 47.1789 32.014 50.1828 33.9725 52.3136C35.9334 54.4578 38.8545 55.5114 42.6927 55.5114C43.7084 55.5114 44.7709 55.4079 45.8797 55.2017C46.883 55.0249 47.7669 54.7895 48.5295 54.4938L49.1025 56.562C48.411 56.9363 47.4918 57.2448 46.3369 57.4822L46.3347 57.4827C45.1083 57.7478 43.8703 57.8803 42.6204 57.8803C39.4638 57.8803 36.788 57.3106 34.5844 56.1815L34.5837 56.1811C32.3839 55.0646 30.7431 53.4138 29.6556 51.224C28.5791 49.0429 28.1067 46.4251 28.25 43.3614C28.3931 40.4305 29.1437 37.8085 30.4983 35.4908C31.8523 33.1742 33.6912 31.3888 36.0176 30.1308L36.0179 30.1307C38.3569 28.8617 40.9961 28.225 43.9406 28.225C46.9383 28.225 49.5048 28.7993 51.6481 29.9383L51.6488 29.9387C53.7909 31.0665 55.3905 32.6813 56.454 34.7861C57.5187 36.8933 57.99 39.35 57.8589 42.164C57.728 44.8773 56.9738 47.0099 55.6164 48.5837ZM39.684 43.8568L39.684 43.8568L39.6836 43.8612C39.5493 45.2962 39.6845 46.4295 40.1267 47.2287L40.1273 47.23C40.5815 48.0389 41.3246 48.4401 42.3129 48.4401C42.968 48.4401 43.5793 48.1825 44.1426 47.6922C44.7074 47.2006 45.1652 46.5014 45.5239 45.6091L45.5358 45.5794L45.539 45.5475L46.2986 37.9285L46.317 37.7435L46.1388 37.6906C45.6476 37.5448 45.1437 37.4719 44.6279 37.4719C43.1749 37.4719 42.0262 38.0281 41.2091 39.1424L41.2082 39.1437C40.4167 40.2403 39.9152 41.8193 39.684 43.8568Z" fill="black" fill-opacity="0.8" stroke="#DFC0FF" stroke-width="0.449923"/>
</svg>
