<svg width="86" height="86" viewBox="0 0 86 86" fill="none" xmlns="http://www.w3.org/2000/svg">
<rect width="86" height="86" rx="30" fill="#FFB9EF"/>
<path fill-rule="evenodd" clip-rule="evenodd" d="M49.0126 30.0003C47.0975 29.9824 45.2718 30.7763 43.9237 32.1785L43.9113 32.1916L41.869 34.3783C41.3978 34.8828 41.4248 35.6738 41.9293 36.145C42.4338 36.6162 43.2248 36.5892 43.696 36.0847L45.7318 33.905C46.6225 32.9818 47.7937 32.489 48.9892 32.5002C50.1875 32.5114 51.3541 33.0284 52.2315 33.9733C53.1116 34.9211 53.6251 36.2214 53.6362 37.5983C53.6473 38.9716 53.1574 40.279 52.296 41.2435L48.7416 45.0714L48.7414 45.0715C48.2612 45.5889 47.6893 45.9826 47.0677 46.2323C46.4466 46.4819 45.7865 46.5834 45.1307 46.5328C44.4748 46.4822 43.8321 46.2801 43.2461 45.9353C42.6596 45.5902 42.1414 45.1089 41.7312 44.5183C41.3374 43.9513 40.5585 43.8109 39.9915 44.2048C39.4245 44.5986 39.2841 45.3775 39.6779 45.9445C40.2876 46.8223 41.0705 47.5559 41.9783 48.09C42.8864 48.6243 43.8961 48.945 44.9385 49.0254C45.981 49.1058 47.0255 48.9435 47.9997 48.5521C48.9734 48.161 49.8501 47.5519 50.5736 46.7725L50.5737 46.7723L54.1358 42.9362L54.1504 42.9202C55.4477 41.4736 56.152 39.5541 56.1361 37.5782C56.1202 35.6022 55.3849 33.6953 54.0634 32.2721C52.7392 30.8461 50.9277 30.0182 49.0126 30.0003ZM41.1979 37.1109C40.1554 37.0305 39.1108 37.1929 38.1367 37.5842C37.163 37.9754 36.2863 38.5845 35.5628 39.3639L35.5626 39.364L32.0006 43.2002L31.986 43.2161C30.6887 44.6627 29.9843 46.5823 30.0003 48.5582C30.0162 50.5342 30.7515 52.4411 32.0729 53.8642C33.3971 55.2903 35.2087 56.1181 37.1237 56.1361C39.0389 56.154 40.8646 55.36 42.2126 53.9579L42.2275 53.9421L44.258 51.7554C44.7277 51.2495 44.6984 50.4586 44.1925 49.9889C43.6867 49.5191 42.8957 49.5484 42.426 50.0543L40.4033 52.2326C39.5128 53.155 38.3421 53.6474 37.1471 53.6362C35.9488 53.625 34.7822 53.1079 33.9049 52.1631C33.0248 51.2153 32.5113 49.9149 32.5002 48.538C32.4891 47.1647 32.979 45.8573 33.8404 44.8929L37.3948 41.065L37.395 41.0648C37.8752 40.5474 38.4471 40.1537 39.0686 39.904C39.6898 39.6545 40.3498 39.553 41.0056 39.6035C41.6616 39.6541 42.3042 39.8562 42.8903 40.2011C43.4768 40.5461 43.995 41.0275 44.4052 41.618C44.799 42.185 45.5779 42.3254 46.1449 41.9316C46.7119 41.5378 46.8523 40.7589 46.4585 40.1919C45.8488 39.3141 45.0658 38.5805 44.1581 38.0464C43.2499 37.512 42.2403 37.1913 41.1979 37.1109Z" fill="#342A40"/>
</svg>
