<svg width="86" height="86" viewBox="0 0 86 86" fill="none" xmlns="http://www.w3.org/2000/svg">
<rect width="86" height="86" rx="30" fill="#91EBF5"/>
<path d="M44.234 40.3346V40.4346H44.334H49.6673C50.3485 40.4346 50.9007 40.9868 50.9007 41.668C50.9007 42.3491 50.3485 42.9013 49.6673 42.9013H44.334H44.234V43.0013V50.3346C44.234 53.5976 41.5749 56.2346 38.3209 56.2346C35.0813 56.2346 32.434 53.6092 32.434 50.3607V50.3346C32.434 49.6535 32.9862 49.1013 33.6673 49.1013C34.3485 49.1013 34.9007 49.6535 34.9007 50.3346V50.3607C34.9007 52.2379 36.4346 53.768 38.3209 53.768C40.2216 53.768 41.7673 52.2263 41.7673 50.3346L41.7673 43.0013V42.9013H41.6673H37.6673C36.9862 42.9013 36.434 42.3491 36.434 41.668C36.434 40.9868 36.9862 40.4346 37.6673 40.4346H41.6673H41.7673V40.3346V35.668C41.7673 32.405 44.4264 29.768 47.6804 29.768C50.92 29.768 53.5673 32.3934 53.5673 35.6419V35.668C53.5673 36.3491 53.0151 36.9013 52.334 36.9013C51.6528 36.9013 51.1007 36.3491 51.1007 35.668V35.6419C51.1007 33.7647 49.5667 32.2346 47.6804 32.2346C45.7797 32.2346 44.234 33.7763 44.234 35.668V40.3346Z" fill="black" fill-opacity="0.8" stroke="#92E8FF" stroke-width="0.2"/>
</svg>
