<svg width="86" height="86" viewBox="0 0 86 86" fill="none" xmlns="http://www.w3.org/2000/svg">
<rect width="86" height="86" rx="30" fill="#BAC9FF"/>
<path d="M36.7312 30.55L44.3714 51.0671H41.5663L39.9016 46.4759L39.8896 46.443H39.8546H30.5888H30.5537L30.5418 46.4759L28.8771 51.0671H26.072L33.7121 30.55H36.7312ZM31.483 43.9136L31.4588 43.9806H31.5301H38.9133H38.9848L38.9603 43.9134L35.2539 33.7522L35.2068 33.6229L35.16 33.7523L31.483 43.9136ZM52.8814 51.45C50.836 51.45 49.0938 50.7094 47.6519 49.2267C46.2101 47.7245 45.4893 45.9012 45.4893 43.7539C45.4893 41.6064 46.2102 39.793 47.6519 38.3105L47.6521 38.3102C49.0941 36.8079 50.8362 36.0577 52.8814 36.0577C55.2971 36.0577 57.1341 37.0219 58.3991 38.951L58.4909 39.091V38.9236V36.4406H60.95V51.0671H58.4909V48.5842V48.4167L58.3991 48.5567C57.1341 50.4858 55.2971 51.45 52.8814 51.45ZM56.9761 47.5592L56.9764 47.5588C57.9861 46.528 58.4909 45.2586 58.4909 43.7539C58.4909 42.2492 57.9862 40.9895 56.9762 39.9782C55.9663 38.9472 54.708 38.4318 53.205 38.4318C51.7213 38.4318 50.4729 38.9473 49.4631 39.9782C48.4532 40.9895 47.9485 42.2492 47.9485 43.7539C47.9485 45.2586 48.4532 46.528 49.4629 47.5588L49.4633 47.5592C50.4732 48.5704 51.7215 49.0759 53.205 49.0759C54.7078 49.0759 55.966 48.5705 56.9761 47.5592Z" fill="#1D2F28" stroke="#A8CBFF" stroke-width="0.1"/>
</svg>
