<svg width="86" height="86" viewBox="0 0 86 86" fill="none" xmlns="http://www.w3.org/2000/svg">
<rect width="86" height="86" rx="30" fill="#FDEDA7"/>
<path d="M46.75 30.55C46.7776 30.55 46.8 30.5276 46.8 30.5V29.25C46.8 28.5873 47.3373 28.05 48 28.05C48.6627 28.05 49.2 28.5873 49.2 29.25V30.5C49.2 30.5276 49.2224 30.55 49.25 30.55H52.7222C54.7975 30.55 56.7 32.0912 56.7 34.25V51.75C56.7 53.9088 54.7975 55.45 52.7222 55.45H33.2778C31.2025 55.45 29.3 53.9088 29.3 51.75V34.25C29.3 32.0912 31.2025 30.55 33.2778 30.55H36.75C36.7776 30.55 36.8 30.5276 36.8 30.5V29.25C36.8 28.5873 37.3373 28.05 38 28.05C38.6627 28.05 39.2 28.5873 39.2 29.25V30.5C39.2 30.5276 39.2224 30.55 39.25 30.55H46.75ZM54.3 40.5C54.3 40.4724 54.2776 40.45 54.25 40.45H31.75C31.7224 40.45 31.7 40.4724 31.7 40.5V51.75C31.7 52.3509 32.2829 53.05 33.2778 53.05H52.7222C53.7171 53.05 54.3 52.3509 54.3 51.75V40.5ZM31.7 38C31.7 38.0276 31.7224 38.05 31.75 38.05H54.25C54.2776 38.05 54.3 38.0276 54.3 38V34.25C54.3 33.6491 53.7171 32.95 52.7222 32.95H49.25C49.2224 32.95 49.2 32.9724 49.2 33V34.4545C49.2 35.1173 48.6627 35.6545 48 35.6545C47.3373 35.6545 46.8 35.1173 46.8 34.4545V33C46.8 32.9724 46.7776 32.95 46.75 32.95H39.25C39.2224 32.95 39.2 32.9724 39.2 33V34.4545C39.2 35.1173 38.6627 35.6545 38 35.6545C37.3373 35.6545 36.8 35.1173 36.8 34.4545V33C36.8 32.9724 36.7776 32.95 36.75 32.95H33.2778C32.2829 32.95 31.7 33.6491 31.7 34.25V38Z" fill="#2D2017" stroke="#FFEFE3" stroke-width="0.1" stroke-linecap="round" stroke-linejoin="round"/>
</svg>
