<svg width="86" height="86" viewBox="0 0 86 86" fill="none" xmlns="http://www.w3.org/2000/svg">
<rect width="86" height="86" rx="30" fill="#CABDFF"/>
<mask id="path-2-inside-1_72_2751" fill="white">
<path fill-rule="evenodd" clip-rule="evenodd" d="M54.4528 41.0224C55.874 41.359 57.0241 42.0229 57.903 43.014C58.8006 43.9864 59.2494 45.2113 59.2494 46.6886C59.2494 48.6522 58.5855 50.195 57.2578 51.317C55.9301 52.439 54.3032 53 52.377 53C50.881 53 49.5346 52.654 48.3378 51.9621C47.1596 51.2702 46.3088 50.2604 45.7852 48.9327L48.5341 47.3338C49.1138 49.0168 50.3948 49.8583 52.377 49.8583C53.499 49.8583 54.3873 49.5778 55.0418 49.0168C55.6963 48.4371 56.0236 47.6611 56.0236 46.6886C56.0236 45.7162 55.6963 44.9495 55.0418 44.3885C54.3873 43.8275 53.499 43.547 52.377 43.547H51.6477L50.3574 41.6115L54.593 36.0295H46.3742V33H58.4359V35.7489L54.4528 41.0224ZM33.4398 52.6354V50.5316L39.1434 44.7112C40.5303 43.3242 41.2238 42.1243 41.2238 41.1113C41.2238 40.3166 40.9823 39.701 40.4992 39.2647C40.0317 38.8128 39.4317 38.5868 38.6993 38.5868C37.3279 38.5868 36.315 39.2647 35.6605 40.6205L33.393 39.2881C33.9073 38.1972 34.6319 37.3713 35.567 36.8103C36.502 36.2493 37.5383 35.9688 38.6759 35.9688C40.1096 35.9688 41.3407 36.4207 42.3692 37.3245C43.3977 38.2284 43.912 39.4595 43.912 41.0178C43.912 42.6853 42.9848 44.4618 41.1303 46.3474L37.437 50.0407H44.2159V52.6354H33.4398ZM31.3109 39.5458H29.4409L26 40.7613L26.5236 42.5939L29.1604 41.8459V52.636H31.3109V39.5458Z"/>
</mask>
<path fill-rule="evenodd" clip-rule="evenodd" d="M54.4528 41.0224C55.874 41.359 57.0241 42.0229 57.903 43.014C58.8006 43.9864 59.2494 45.2113 59.2494 46.6886C59.2494 48.6522 58.5855 50.195 57.2578 51.317C55.9301 52.439 54.3032 53 52.377 53C50.881 53 49.5346 52.654 48.3378 51.9621C47.1596 51.2702 46.3088 50.2604 45.7852 48.9327L48.5341 47.3338C49.1138 49.0168 50.3948 49.8583 52.377 49.8583C53.499 49.8583 54.3873 49.5778 55.0418 49.0168C55.6963 48.4371 56.0236 47.6611 56.0236 46.6886C56.0236 45.7162 55.6963 44.9495 55.0418 44.3885C54.3873 43.8275 53.499 43.547 52.377 43.547H51.6477L50.3574 41.6115L54.593 36.0295H46.3742V33H58.4359V35.7489L54.4528 41.0224ZM33.4398 52.6354V50.5316L39.1434 44.7112C40.5303 43.3242 41.2238 42.1243 41.2238 41.1113C41.2238 40.3166 40.9823 39.701 40.4992 39.2647C40.0317 38.8128 39.4317 38.5868 38.6993 38.5868C37.3279 38.5868 36.315 39.2647 35.6605 40.6205L33.393 39.2881C33.9073 38.1972 34.6319 37.3713 35.567 36.8103C36.502 36.2493 37.5383 35.9688 38.6759 35.9688C40.1096 35.9688 41.3407 36.4207 42.3692 37.3245C43.3977 38.2284 43.912 39.4595 43.912 41.0178C43.912 42.6853 42.9848 44.4618 41.1303 46.3474L37.437 50.0407H44.2159V52.6354H33.4398ZM31.3109 39.5458H29.4409L26 40.7613L26.5236 42.5939L29.1604 41.8459V52.636H31.3109V39.5458Z" fill="black" fill-opacity="0.8"/>
<path d="M57.903 43.014L57.8242 43.0839L57.8256 43.0854L57.903 43.014ZM54.4528 41.0224L54.3688 40.959L54.2716 41.0877L54.4285 41.1249L54.4528 41.0224ZM57.2578 51.317L57.1899 51.2366L57.2578 51.317ZM48.3378 51.9621L48.2844 52.0529L48.2851 52.0533L48.3378 51.9621ZM45.7852 48.9327L45.7322 48.8417L45.6541 48.8872L45.6872 48.9713L45.7852 48.9327ZM48.5341 47.3338L48.6336 47.2995L48.5919 47.1784L48.4812 47.2428L48.5341 47.3338ZM55.0418 49.0168L55.1103 49.0968L55.1116 49.0956L55.0418 49.0168ZM55.0418 44.3885L55.1103 44.3086L55.0418 44.3885ZM51.6477 43.547L51.5601 43.6054L51.5914 43.6522H51.6477V43.547ZM50.3574 41.6115L50.2735 41.5479L50.2282 41.6076L50.2698 41.6699L50.3574 41.6115ZM54.593 36.0295L54.6769 36.0931L54.805 35.9242H54.593V36.0295ZM46.3742 36.0295H46.269V36.1347H46.3742V36.0295ZM46.3742 33V32.8947H46.269V33H46.3742ZM58.4359 33H58.5412V32.8947H58.4359V33ZM58.4359 35.7489L58.5199 35.8124L58.5412 35.7842V35.7489H58.4359ZM33.4398 50.5316L33.3646 50.458L33.3345 50.4887V50.5316H33.4398ZM33.4398 52.6354H33.3345V52.7407H33.4398V52.6354ZM39.1434 44.7112L39.069 44.6367L39.0682 44.6375L39.1434 44.7112ZM40.4992 39.2647L40.426 39.3404L40.4286 39.3428L40.4992 39.2647ZM35.6605 40.6205L35.6071 40.7112L35.7056 40.7691L35.7553 40.6662L35.6605 40.6205ZM33.393 39.2881L33.2978 39.2432L33.2568 39.3301L33.3397 39.3788L33.393 39.2881ZM35.567 36.8103L35.5128 36.72L35.567 36.8103ZM42.3692 37.3245L42.4387 37.2455L42.3692 37.3245ZM41.1303 46.3474L41.2047 46.4219L41.2054 46.4212L41.1303 46.3474ZM37.437 50.0407L37.3626 49.9663L37.1829 50.146H37.437V50.0407ZM44.2159 50.0407H44.3211V49.9355H44.2159V50.0407ZM44.2159 52.6354V52.7407H44.3211V52.6354H44.2159ZM29.4409 39.5458V39.4405H29.4228L29.4058 39.4465L29.4409 39.5458ZM31.3109 39.5458H31.4162V39.4405H31.3109V39.5458ZM26 40.7613L25.9649 40.662L25.8716 40.695L25.8988 40.7902L26 40.7613ZM26.5236 42.5939L26.4224 42.6228L26.4513 42.7239L26.5523 42.6952L26.5236 42.5939ZM29.1604 41.8459H29.2656V41.7066L29.1316 41.7446L29.1604 41.8459ZM29.1604 52.636H29.0551V52.7412H29.1604V52.636ZM31.3109 52.636V52.7412H31.4162V52.636H31.3109ZM57.9817 42.9442C57.087 41.9352 55.9171 41.2611 54.477 40.92L54.4285 41.1249C55.8309 41.457 56.9611 42.1106 57.8242 43.0839L57.9817 42.9442ZM59.3547 46.6886C59.3547 45.1882 58.898 43.9368 57.9803 42.9426L57.8256 43.0854C58.7032 44.0361 59.1441 45.2344 59.1441 46.6886H59.3547ZM57.3258 51.3974C58.6804 50.2526 59.3547 48.6787 59.3547 46.6886H59.1441C59.1441 48.6257 58.4907 50.1373 57.1899 51.2366L57.3258 51.3974ZM52.377 53.1053C54.3252 53.1053 55.9769 52.5372 57.3258 51.3974L57.1899 51.2366C55.8832 52.3408 54.2812 52.8947 52.377 52.8947V53.1053ZM48.2851 52.0533C49.4992 52.7552 50.8641 53.1053 52.377 53.1053V52.8947C50.8979 52.8947 49.5699 52.5529 48.3904 51.871L48.2851 52.0533ZM45.6872 48.9713C46.2191 50.3198 47.0851 51.3485 48.2844 52.0529L48.3911 51.8714C47.2342 51.1919 46.3985 50.201 45.8831 48.8941L45.6872 48.9713ZM48.4812 47.2428L45.7322 48.8417L45.8381 49.0237L48.587 47.4248L48.4812 47.2428ZM52.377 49.7531C51.4005 49.7531 50.6063 49.5458 49.9874 49.1392C49.3694 48.7333 48.9172 48.1227 48.6336 47.2995L48.4346 47.3681C48.7307 48.2279 49.2088 48.8796 49.8718 49.3152C50.5339 49.7501 51.3713 49.9636 52.377 49.9636V49.7531ZM54.9733 48.9369C54.343 49.4772 53.4816 49.7531 52.377 49.7531V49.9636C53.5164 49.9636 54.4316 49.6785 55.1103 49.0968L54.9733 48.9369ZM55.9183 46.6886C55.9183 47.6347 55.6013 48.3807 54.972 48.938L55.1116 49.0956C55.7914 48.4936 56.1288 47.6874 56.1288 46.6886H55.9183ZM54.9733 44.4684C55.6013 45.0067 55.9183 45.7425 55.9183 46.6886H56.1288C56.1288 45.6899 55.7913 44.8923 55.1103 44.3086L54.9733 44.4684ZM52.377 43.6522C53.4816 43.6522 54.343 43.9282 54.9733 44.4684L55.1103 44.3086C54.4316 43.7268 53.5164 43.4417 52.377 43.4417V43.6522ZM51.6477 43.6522H52.377V43.4417H51.6477V43.6522ZM50.2698 41.6699L51.5601 43.6054L51.7353 43.4886L50.445 41.5531L50.2698 41.6699ZM54.5092 35.9658L50.2735 41.5479L50.4412 41.6751L54.6769 36.0931L54.5092 35.9658ZM46.3742 36.1347H54.593V35.9242H46.3742V36.1347ZM46.269 33V36.0295H46.4795V33H46.269ZM58.4359 32.8947H46.3742V33.1053H58.4359V32.8947ZM58.5412 35.7489V33H58.3307V35.7489H58.5412ZM54.5368 41.0859L58.5199 35.8124L58.3519 35.6855L54.3688 40.959L54.5368 41.0859ZM33.3345 50.5316V52.6354H33.5451V50.5316H33.3345ZM39.0682 44.6375L33.3646 50.458L33.515 50.6053L39.2186 44.7848L39.0682 44.6375ZM41.1185 41.1113C41.1185 42.0796 40.4525 43.2532 39.069 44.6367L39.2178 44.7856C40.6082 43.3952 41.3291 42.1689 41.3291 41.1113H41.1185ZM40.4286 39.3428C40.8848 39.7549 41.1185 40.3392 41.1185 41.1113H41.3291C41.3291 40.2939 41.0797 39.6472 40.5697 39.1866L40.4286 39.3428ZM38.6993 38.6921C39.4081 38.6921 39.9807 38.9099 40.426 39.3404L40.5723 39.189C40.0827 38.7156 39.4552 38.4815 38.6993 38.4815V38.6921ZM35.7553 40.6662C36.0763 40.0013 36.482 39.509 36.9696 39.1827C37.4566 38.8568 38.0317 38.6921 38.6993 38.6921V38.4815C37.9954 38.4815 37.3784 38.6558 36.8525 39.0077C36.3272 39.3593 35.8992 39.8839 35.5657 40.5747L35.7553 40.6662ZM33.3397 39.3788L35.6071 40.7112L35.7138 40.5297L33.4464 39.1973L33.3397 39.3788ZM35.5128 36.72C34.558 37.2929 33.82 38.1355 33.2978 39.2432L33.4883 39.3329C33.9946 38.2589 34.7058 37.4497 35.6211 36.9005L35.5128 36.72ZM38.6759 35.8635C37.5201 35.8635 36.4649 36.1487 35.5128 36.72L35.6211 36.9005C36.539 36.3498 37.5565 36.074 38.6759 36.074V35.8635ZM42.4387 37.2455C41.39 36.3239 40.1338 35.8635 38.6759 35.8635V36.074C40.0853 36.074 41.2914 36.5175 42.2997 37.4036L42.4387 37.2455ZM44.0172 41.0178C44.0172 39.4338 43.4932 38.1722 42.4387 37.2455L42.2997 37.4036C43.3022 38.2846 43.8067 39.4851 43.8067 41.0178H44.0172ZM41.2054 46.4212C43.0682 44.5271 44.0172 42.7253 44.0172 41.0178H43.8067C43.8067 42.6452 42.9013 44.3966 41.0553 46.2736L41.2054 46.4212ZM37.5114 50.1152L41.2047 46.4219L41.0559 46.273L37.3626 49.9663L37.5114 50.1152ZM44.2159 49.9355H37.437V50.146H44.2159V49.9355ZM44.3211 52.6354V50.0407H44.1106V52.6354H44.3211ZM33.4398 52.7407H44.2159V52.5302H33.4398V52.7407ZM29.4409 39.651H31.3109V39.4405H29.4409V39.651ZM26.0351 40.8605L29.4759 39.645L29.4058 39.4465L25.9649 40.662L26.0351 40.8605ZM26.6248 42.565L26.1012 40.7324L25.8988 40.7902L26.4224 42.6228L26.6248 42.565ZM29.1316 41.7446L26.4949 42.4926L26.5523 42.6952L29.1891 41.9472L29.1316 41.7446ZM29.2656 52.636V41.8459H29.0551V52.636H29.2656ZM31.3109 52.5307H29.1604V52.7412H31.3109V52.5307ZM31.2056 39.5458V52.636H31.4162V39.5458H31.2056Z" fill="#DFC0FF" mask="url(#path-2-inside-1_72_2751)"/>
</svg>
