<svg width="41" height="41" viewBox="0 0 41 41" fill="none" xmlns="http://www.w3.org/2000/svg">
<rect x="0.5" y="0.5" width="40" height="40" rx="20" fill="#333333"/>
<path d="M30.0703 20.9907C30.0703 20.4387 29.6223 19.9907 29.0703 19.9907L22.0703 19.9907L22.0703 12.9907C22.0703 12.4387 21.6223 11.9907 21.0703 11.9907C20.5183 11.9907 20.0703 12.4387 20.0703 12.9907L20.0703 19.9907L13.0703 19.9907C12.5183 19.9907 12.0703 20.4387 12.0703 20.9907C12.0703 21.5427 12.5183 21.9907 13.0703 21.9907L20.0703 21.9907L20.0703 28.9907C20.0703 29.5427 20.5183 29.9907 21.0703 29.9907C21.6223 29.9907 22.0703 29.5427 22.0703 28.9907L22.0703 21.9907L29.0703 21.9907C29.6223 21.9907 30.0703 21.5427 30.0703 20.9907Z" fill="white"/>
</svg>
