<svg width="40" height="40" viewBox="0 0 40 40" fill="none" xmlns="http://www.w3.org/2000/svg">
<path d="M33.7359 8.64277C31.2096 7.48358 28.5005 6.62955 25.6679 6.1404C25.6163 6.13096 25.5648 6.15455 25.5382 6.20174C25.1898 6.82142 24.8039 7.62985 24.5336 8.26527C21.4871 7.80916 18.4561 7.80916 15.472 8.26527C15.2017 7.61572 14.8018 6.82142 14.4518 6.20174C14.4252 6.15613 14.3737 6.13254 14.3221 6.1404C11.4911 6.62798 8.78201 7.48202 6.25412 8.64277C6.23224 8.6522 6.21348 8.66795 6.20103 8.68838C1.06243 16.3653 -0.345244 23.8536 0.345315 31.249C0.348439 31.2852 0.36875 31.3198 0.396872 31.3418C3.78717 33.8316 7.07126 35.3431 10.2944 36.3449C10.3459 36.3607 10.4006 36.3418 10.4334 36.2993C11.1958 35.2582 11.8755 34.1603 12.4582 33.0058C12.4926 32.9382 12.4598 32.858 12.3895 32.8313C11.3115 32.4223 10.285 31.9237 9.29757 31.3575C9.21947 31.3119 9.21322 31.2002 9.28507 31.1467C9.49285 30.991 9.7007 30.829 9.8991 30.6655C9.935 30.6356 9.98502 30.6293 10.0272 30.6482C16.5141 33.6098 23.5368 33.6098 29.9471 30.6482C29.9894 30.6277 30.0394 30.634 30.0768 30.6639C30.2753 30.8275 30.4831 30.991 30.6924 31.1467C30.7643 31.2002 30.7596 31.3119 30.6815 31.3575C29.6941 31.9347 28.6676 32.4223 27.588 32.8297C27.5177 32.8564 27.4865 32.9382 27.5209 33.0058C28.1161 34.1587 28.7957 35.2565 29.5441 36.2978C29.5753 36.3418 29.6316 36.3607 29.6831 36.3449C32.9219 35.3431 36.2059 33.8316 39.5962 31.3418C39.6259 31.3198 39.6447 31.2868 39.6478 31.2506C40.4743 22.7007 38.2635 15.2738 33.7874 8.68994C33.7765 8.66795 33.7578 8.6522 33.7359 8.64277ZM13.4269 26.746C11.4739 26.746 9.86471 24.953 9.86471 22.751C9.86471 20.549 11.4427 18.7561 13.4269 18.7561C15.4267 18.7561 17.0203 20.5648 16.989 22.751C16.989 24.953 15.411 26.746 13.4269 26.746ZM26.5975 26.746C24.6446 26.746 23.0354 24.953 23.0354 22.751C23.0354 20.549 24.6133 18.7561 26.5975 18.7561C28.5973 18.7561 30.1909 20.5648 30.1597 22.751C30.1597 24.953 28.5973 26.746 26.5975 26.746Z" fill="#5865F2"/>
</svg>
