<svg width="44" height="44" viewBox="0 0 44 44" fill="none" xmlns="http://www.w3.org/2000/svg">
<g opacity="0.4">
<path d="M16.5001 40.3334H27.5001C36.6667 40.3334 40.3334 36.6667 40.3334 27.5001V16.5001C40.3334 7.33341 36.6667 3.66675 27.5001 3.66675H16.5001C7.33341 3.66675 3.66675 7.33341 3.66675 16.5001V27.5001C3.66675 36.6667 7.33341 40.3334 16.5001 40.3334Z" stroke="#171717" stroke-width="1.83333" stroke-linecap="round" stroke-linejoin="round"/>
<path d="M3.66675 23.8338H10.5601C11.9534 23.8338 13.2184 24.6221 13.8417 25.8688L15.4734 29.1504C16.5001 31.1671 18.3334 31.1671 18.7734 31.1671H25.2451C26.6384 31.1671 27.9034 30.3788 28.5267 29.1321L30.1584 25.8504C30.7817 24.6038 32.0467 23.8154 33.4401 23.8154H40.2967" stroke="#171717" stroke-width="1.83333" stroke-linecap="round" stroke-linejoin="round"/>
</g>
</svg>
