<svg width="48" height="48" viewBox="0 0 48 48" fill="none" xmlns="http://www.w3.org/2000/svg">
<g opacity="0.4">
<path d="M18 44H30C40 44 44 40 44 30V18C44 8 40 4 30 4H18C8 4 4 8 4 18V30C4 40 8 44 18 44Z" stroke="#171717" stroke-width="2" stroke-linecap="round" stroke-linejoin="round"/>
<path d="M4 26.0005H11.52C13.04 26.0005 14.42 26.8605 15.1 28.2205L16.88 31.8005C18 34.0005 20 34.0005 20.48 34.0005H27.54C29.06 34.0005 30.44 33.1405 31.12 31.7805L32.9 28.2005C33.58 26.8405 34.96 25.9805 36.48 25.9805H43.96" stroke="#171717" stroke-width="2" stroke-linecap="round" stroke-linejoin="round"/>
</g>
</svg>
