<svg width="14" height="14" viewBox="0 0 14 14" fill="none" xmlns="http://www.w3.org/2000/svg">
<g clip-path="url(#clip0_1068_189512)">
<path fill-rule="evenodd" clip-rule="evenodd" d="M0.99821 0.0552416C1.18696 0.000289671 1.38524 -0.0138743 1.57988 0.0136904L1.59166 0.0153584C3.07902 0.262213 4.46918 0.8883 5.63281 1.82302V11.6552C4.17132 10.6391 2.85089 10.1691 1.21826 9.8969C0.883558 9.85615 0.574991 9.69472 0.350599 9.44259C0.123214 9.1871 -0.00164239 8.85657 1.63169e-05 8.51459V1.38568C7.91267e-06 1.18553 0.0433555 0.987722 0.127077 0.805926C0.210804 0.62412 0.332922 0.462609 0.485029 0.332506C0.634457 0.204769 0.809462 0.110194 0.99821 0.0552416ZM6.88281 5.88966V1.82263C8.04634 0.888126 9.43633 0.262178 10.9235 0.0153584L10.9353 0.0136904C11.1299 -0.0138743 11.3282 0.000289671 11.5169 0.0552416C11.7057 0.110194 11.8807 0.204769 12.0301 0.332506C12.1822 0.462609 12.3043 0.62412 12.3881 0.805926C12.4718 0.987722 12.5151 1.18553 12.5151 1.38568V8.51459C12.5168 8.85657 12.3919 9.1871 12.1645 9.44259C12.112 9.50159 12.0549 9.55562 11.9939 9.6043C11.7994 9.56796 11.5987 9.54895 11.3936 9.54895H10.6436V8.04895C10.6436 6.66824 9.52427 5.54895 8.14355 5.54895C7.68375 5.54895 7.25295 5.67308 6.88281 5.88966ZM6.89355 13.299V8.04895C6.89355 7.35859 7.4532 6.79895 8.14355 6.79895C8.83391 6.79895 9.39355 7.35859 9.39355 8.04895V10.799H11.3936C12.4981 10.799 13.3936 11.6944 13.3936 12.799V13.299C13.3936 13.5751 13.1697 13.799 12.8936 13.799H7.39355C7.11741 13.799 6.89355 13.5751 6.89355 13.299Z" fill="black"/>
</g>
<defs>
<clipPath id="clip0_1068_189512">
<rect width="14" height="14" fill="white"/>
</clipPath>
</defs>
</svg>
