<svg width="14" height="14" viewBox="0 0 14 14" fill="none" xmlns="http://www.w3.org/2000/svg">
<g clip-path="url(#clip0_1068_189503)">
<path fill-rule="evenodd" clip-rule="evenodd" d="M12.4019 8.97632H7.25922C8.42674 8.87838 9.34376 7.89974 9.34376 6.70691C9.34376 5.4491 8.3241 4.42944 7.06629 4.42944H5.38599C5.7693 3.91386 5.9961 3.27501 5.9961 2.58319C5.9961 1.50454 5.44476 0.554665 4.60852 0H12.4019C13.1469 0 13.7507 0.603888 13.7507 1.34882V7.6275C13.7507 8.37243 13.1469 8.97632 12.4019 8.97632ZM2.89856 4.43073C3.91893 4.43073 4.7461 3.60356 4.7461 2.58319C4.7461 1.56283 3.91893 0.735657 2.89856 0.735657C1.8782 0.735657 1.05103 1.56283 1.05103 2.58319C1.05103 3.60356 1.8782 4.43073 2.89856 4.43073ZM8.09376 6.70691C8.09376 6.13946 7.63374 5.67944 7.06629 5.67944H2.89893C1.43597 5.67944 0.25 6.86541 0.25 8.32837V9.53391C0.25 10.0661 0.681426 10.4975 1.21362 10.4975H1.38526L1.66724 13.1074C1.7221 13.6152 2.15075 14 2.66145 14H3.16373C3.66275 14 4.08539 13.6321 4.15418 13.1379L4.90626 7.73438H7.06629C7.63374 7.73438 8.09376 7.27436 8.09376 6.70691Z" fill="black"/>
</g>
<defs>
<clipPath id="clip0_1068_189503">
<rect width="14" height="14" fill="white"/>
</clipPath>
</defs>
</svg>
