<svg width="14" height="14" viewBox="0 0 14 14" fill="none" xmlns="http://www.w3.org/2000/svg">
<g clip-path="url(#clip0_1068_189485)">
<path fill-rule="evenodd" clip-rule="evenodd" d="M9.88672 0C10.2319 0 10.5117 0.279822 10.5117 0.625V1.44559C10.5117 1.79077 10.2319 2.07059 9.88672 2.07059C9.54154 2.07059 9.26172 1.79077 9.26172 1.44559V0.625C9.26172 0.279822 9.54154 0 9.88672 0ZM4.04771 8.73814C5.38896 8.73814 6.47627 7.65084 6.47627 6.30958C6.47627 4.96832 5.38896 3.88101 4.04771 3.88101C2.70645 3.88101 1.61914 4.96832 1.61914 6.30958C1.61914 7.65084 2.70645 8.73814 4.04771 8.73814ZM0 13.5952C0 11.3598 1.81218 9.54764 4.04761 9.54764C6.28304 9.54764 8.09521 11.3598 8.09521 13.5952C8.09521 13.8188 7.914 14 7.69045 14H0.404761C0.181218 14 0 13.8188 0 13.5952ZM13.7165 2.49274C13.999 2.29442 14.0673 1.90462 13.869 1.6221C13.6706 1.33959 13.2808 1.27134 12.9983 1.46966L12.3267 1.94113C12.0442 2.13946 11.9759 2.52926 12.1742 2.81177C12.3726 3.09429 12.7624 3.16254 13.0449 2.96422L13.7165 2.49274ZM5.90253 1.6221C5.70421 1.90462 5.77246 2.29442 6.05497 2.49274L6.7266 2.96422C7.00911 3.16254 7.39891 3.09429 7.59723 2.81177C7.79556 2.52926 7.72731 2.13946 7.44479 1.94113L6.77317 1.46966C6.49065 1.27134 6.10085 1.33959 5.90253 1.6221ZM9.8405 2.84017C11.0737 2.81456 12.1176 3.84088 12.113 5.07432C12.1029 5.89314 11.6121 6.6749 10.879 7.03982V8.15297C10.8774 8.21766 10.8505 8.27913 10.8041 8.32429C10.7578 8.36944 10.6956 8.3947 10.6309 8.39468H9.1425C9.0778 8.3947 9.01564 8.36944 8.9693 8.32429C8.92295 8.27913 8.89609 8.21766 8.89443 8.15297V7.0589C8.18372 6.70503 7.69866 5.95988 7.66272 5.16676C7.60689 3.93457 8.60732 2.86578 9.8405 2.84017Z" fill="black"/>
</g>
<defs>
<clipPath id="clip0_1068_189485">
<rect width="14" height="14" fill="white"/>
</clipPath>
</defs>
</svg>
