<svg width="14" height="14" viewBox="0 0 14 14" fill="none" xmlns="http://www.w3.org/2000/svg">
<g clip-path="url(#clip0_1068_189494)">
<path fill-rule="evenodd" clip-rule="evenodd" d="M0.5 0.125244C0.223858 0.125244 0 0.349102 0 0.625244V10.6252C0 10.9014 0.223858 11.1252 0.5 11.1252H5.25606C5.09023 10.6561 5 10.1512 5 9.62524C5 8.35387 5.52724 7.20564 6.375 6.38728V1.42771C6.09192 0.667083 5.35924 0.125244 4.5 0.125244H0.5ZM7.625 1.4277V5.53328C8.19579 5.2713 8.83084 5.12524 9.5 5.12524C11.8136 5.12524 13.7194 6.87122 13.9717 9.11743H14V0.625244C14 0.349102 13.7761 0.125244 13.5 0.125244H9.5C8.64077 0.125244 7.90808 0.667068 7.625 1.4277ZM9.5 7.87524C8.5335 7.87524 7.75 8.65875 7.75 9.62524C7.75 10.5917 8.5335 11.3752 9.5 11.3752C10.4665 11.3752 11.25 10.5917 11.25 9.62524C11.25 8.65875 10.4665 7.87524 9.5 7.87524ZM6.25 9.62524C6.25 7.83032 7.70507 6.37524 9.5 6.37524C11.2949 6.37524 12.75 7.83032 12.75 9.62524C12.75 10.251 12.5732 10.8354 12.2667 11.3313L13.5299 12.5944C13.8228 12.8873 13.8228 13.3622 13.5299 13.6551C13.237 13.948 12.7621 13.948 12.4692 13.6551L11.2061 12.392C10.7102 12.6984 10.1257 12.8752 9.5 12.8752C7.70507 12.8752 6.25 11.4202 6.25 9.62524Z" fill="black"/>
</g>
<defs>
<clipPath id="clip0_1068_189494">
<rect width="14" height="14" fill="white"/>
</clipPath>
</defs>
</svg>
