<svg width="14" height="14" viewBox="0 0 14 14" fill="none" xmlns="http://www.w3.org/2000/svg">
<path fill-rule="evenodd" clip-rule="evenodd" d="M1.25 11.625V2.25C1.25 1.00736 2.25736 0 3.5 0H10.5C11.7426 0 12.75 1.00736 12.75 2.25V10C12.75 10.4142 12.4142 10.75 12 10.75H11.75V12.5H12C12.4142 12.5 12.75 12.8358 12.75 13.25C12.75 13.6642 12.4142 14 12 14H11H3.625C2.31332 14 1.25 12.9367 1.25 11.625ZM10.25 10.75H3.625C3.14175 10.75 2.75 11.1418 2.75 11.625C2.75 12.1082 3.14175 12.5 3.625 12.5H10.25V10.75ZM10.8107 4.77228C10.7248 4.60623 10.5535 4.50195 10.3665 4.50195H8.05148C7.77534 4.50195 7.55148 4.72581 7.55148 5.00195C7.55148 5.2781 7.77534 5.50195 8.05148 5.50195H9.39965L7.49878 8.18553C7.39072 8.33808 7.37679 8.53816 7.46266 8.70421C7.54852 8.87026 7.71985 8.97454 7.90679 8.97454H10.5112C10.7874 8.97454 11.0112 8.75069 11.0112 8.47454C11.0112 8.1984 10.7874 7.97454 10.5112 7.97454H8.87368L10.7746 5.29096C10.8826 5.13842 10.8965 4.93833 10.8107 4.77228ZM5.81387 2.62936C5.69116 2.26124 5.34666 2.01294 4.95863 2.01294C4.5706 2.01294 4.2261 2.26124 4.1034 2.62936L3.42691 4.65881C3.4243 4.66607 3.42185 4.67341 3.41957 4.68082L3.03738 5.82742C2.95005 6.08939 3.09163 6.37255 3.3536 6.45987C3.61558 6.54719 3.89874 6.40561 3.98606 6.14364L4.25794 5.328H5.65932L5.9312 6.14364C6.01853 6.40561 6.30169 6.54719 6.56366 6.45987C6.82563 6.37255 6.96721 6.08939 6.87989 5.82742L6.49769 4.68083C6.49541 4.67341 6.49296 4.66607 6.49035 4.65881L5.81387 2.62936ZM4.59127 4.328L4.95863 3.22593L5.32599 4.328H4.59127Z" fill="black"/>
</svg>
