<svg width="14" height="14" viewBox="0 0 14 14" fill="none" xmlns="http://www.w3.org/2000/svg">
<g clip-path="url(#clip0_1068_189515)">
<path fill-rule="evenodd" clip-rule="evenodd" d="M0 5.36834C0.29929 2.47376 2.65444 0.189377 5.58036 0.000265758C5.54627 0.0276337 5.51486 0.0587409 5.48678 0.0932758C4.25652 1.60616 3.4918 3.43852 3.27803 5.36834H0ZM3.65196 8.90907C3.65196 8.953 3.6536 8.99667 3.65684 9.04V11.5359C1.67339 10.7058 0.229961 8.84217 4.83546e-06 6.61834H3.27804C3.35121 7.27883 3.48891 7.92791 3.68773 8.55666C3.6642 8.67119 3.65196 8.78914 3.65196 8.90907ZM4.53677 6.61834H6.28714L4.70622 7.30331C4.6892 7.31068 4.67234 7.31831 4.65564 7.32618C4.60659 7.0924 4.5669 6.85627 4.53677 6.61834ZM11.9472 5.36834H8.66534C8.45157 3.43852 7.68685 1.60616 6.45659 0.0932758C6.42842 0.0586291 6.3969 0.0274323 6.36269 0C9.29052 0.187225 11.6477 2.4724 11.9472 5.36834ZM4.53677 5.36834H7.4066C7.23293 3.99653 6.7412 2.68472 5.97169 1.53757C5.20217 2.68472 4.71045 3.99653 4.53677 5.36834ZM9.65015 6.71004C9.51167 6.65004 9.35452 6.65004 9.21604 6.71004L5.24248 8.43168C5.20049 8.44988 5.16161 8.47295 5.1264 8.50007C4.91789 8.61686 4.77696 8.83992 4.77696 9.0959V12.1244C4.77696 12.5013 5.08251 12.8068 5.45942 12.8068C5.83633 12.8068 6.14188 12.5013 6.14188 12.1244V9.82329L9.21604 11.1553C9.35452 11.2153 9.51167 11.2153 9.65015 11.1553L13.6237 9.43361C13.8234 9.34709 13.9526 9.15026 13.9526 8.93265C13.9526 8.71503 13.8234 8.5182 13.6237 8.43168L9.65015 6.71004ZM6.71728 11.2197L8.74112 12.0966C9.18242 12.2878 9.68319 12.2878 10.1245 12.0966L12.1483 11.2197L12.1486 12.5783C12.1486 12.6976 12.1096 12.8136 12.0374 12.9087L11.6031 12.5787C12.0374 12.9087 12.0376 12.9085 12.0374 12.9087L12.0367 12.9096L12.0358 12.9107L12.034 12.9131L12.0296 12.9187L12.0175 12.9337C12.0081 12.9453 11.9957 12.96 11.9804 12.9773C11.9499 13.0119 11.9074 13.0571 11.8526 13.1093C11.7431 13.2137 11.5833 13.3467 11.3696 13.4778C10.9388 13.7422 10.2985 13.9925 9.43263 13.9925C8.56671 13.9925 7.92709 13.7422 7.49687 13.4775C7.28351 13.3463 7.1241 13.2131 7.01486 13.1086C6.96019 13.0563 6.91785 13.011 6.88736 12.9764C6.87211 12.959 6.85979 12.9443 6.85034 12.9327L6.83831 12.9177L6.83389 12.912L6.83207 12.9096L6.83126 12.9085C6.83108 12.9083 6.83051 12.9075 7.26597 12.5785L6.83051 12.9075C6.75913 12.8131 6.72039 12.698 6.72014 12.5795L6.71728 11.2197Z" fill="black"/>
</g>
<defs>
<clipPath id="clip0_1068_189515">
<rect width="14" height="14" fill="white"/>
</clipPath>
</defs>
</svg>
