<svg width="14" height="14" viewBox="0 0 14 14" fill="none" xmlns="http://www.w3.org/2000/svg">
<path fill-rule="evenodd" clip-rule="evenodd" d="M7.19878 0.728346C7.07196 0.673396 6.92804 0.673396 6.80122 0.728346L0.301219 3.54463C0.118352 3.62386 0 3.80412 0 4.00342C0 4.20271 0.118352 4.38297 0.301219 4.46221L1.19382 4.84895V10.44C0.759479 10.6327 0.456528 11.0677 0.456528 11.5735C0.456528 12.258 1.01143 12.8129 1.69594 12.8129C2.38045 12.8129 2.93535 12.258 2.93535 11.5735C2.93535 11.0672 2.63182 10.6318 2.19681 10.4394V5.28352L6.80122 7.27849C6.92804 7.33344 7.07196 7.33344 7.19878 7.27849L13.6988 4.46221C13.8816 4.38297 14 4.20271 14 4.00342C14 3.80412 13.8816 3.62386 13.6988 3.54463L7.19878 0.728346ZM2.95569 9.35343L2.95068 6.97264L6.3038 8.42546C6.74769 8.61778 7.25139 8.61778 7.69527 8.42546L11.049 6.97238L11.0495 9.35227C11.0495 9.46155 11.0137 9.56782 10.9476 9.65484L10.5495 9.35238C10.9476 9.65484 10.9478 9.65462 10.9476 9.65484L10.9469 9.65576L10.9461 9.65682L10.9442 9.65932L10.9391 9.66585L10.9238 9.68483C10.9114 9.70001 10.8945 9.72016 10.8729 9.74455C10.8298 9.79331 10.7681 9.85917 10.6872 9.93629C10.5254 10.0904 10.2857 10.2904 9.9627 10.4886C9.31348 10.887 8.33649 11.2726 6.99973 11.2726C5.66292 11.2726 4.68718 10.887 4.03914 10.4883C3.71673 10.29 3.47771 10.0899 3.31639 9.93563C3.23569 9.85844 3.17421 9.79252 3.13126 9.7437C3.10977 9.71928 3.09288 9.6991 3.0805 9.68389L3.0653 9.66488L3.06021 9.65832L3.05828 9.65581L3.05748 9.65475C3.05731 9.65452 3.05677 9.65382 3.45565 9.35241L3.05677 9.65382C2.9914 9.5673 2.95592 9.46187 2.95569 9.35343Z" fill="black"/>
</svg>
