<svg width="14" height="14" viewBox="0 0 14 14" fill="none" xmlns="http://www.w3.org/2000/svg">
<path fill-rule="evenodd" clip-rule="evenodd" d="M2.21823 0C1.54542 0 1 0.545422 1 1.21823V5.78891C1 6.46172 1.54542 7.00714 2.21823 7.00714H11.7818C12.4546 7.00714 13 6.46172 13 5.78891V1.21823C13 0.545421 12.4546 0 11.7818 0H2.21823ZM4.92088 9.44131C4.92088 10.2373 4.27559 10.8826 3.47958 10.8826C2.68356 10.8826 2.03827 10.2373 2.03827 9.44131C2.03827 8.6453 2.68356 8 3.47958 8C4.27559 8 4.92088 8.6453 4.92088 9.44131ZM10.5254 10.8826C11.3214 10.8826 11.9667 10.2373 11.9667 9.44131C11.9667 8.6453 11.3214 8 10.5254 8C9.72938 8 9.08409 8.6453 9.08409 9.44131C9.08409 10.2373 9.72938 10.8826 10.5254 10.8826ZM3.47949 11.661C2.32188 11.661 1.36101 12.5033 1.1764 13.6085C1.14098 13.8205 1.31863 13.9961 1.53357 13.9961H5.42542C5.64036 13.9961 5.818 13.8205 5.78259 13.6085C5.59798 12.5033 4.63711 11.661 3.47949 11.661ZM8.22229 13.6085C8.40691 12.5033 9.36778 11.661 10.5254 11.661C11.683 11.661 12.6439 12.5033 12.8285 13.6085C12.8639 13.8205 12.6863 13.9961 12.4713 13.9961H8.57947C8.36453 13.9961 8.18688 13.8205 8.22229 13.6085ZM8.12343 2.12148C8.12343 2.7419 7.62048 3.24486 7.00006 3.24486C6.37963 3.24486 5.87668 2.7419 5.87668 2.12148C5.87668 1.50105 6.37963 0.998101 7.00006 0.998101C7.62048 0.998101 8.12343 1.50105 8.12343 2.12148ZM5.02496 5.65702C5.18328 4.70925 6.00728 3.98688 7 3.98688C7.99272 3.98688 8.81672 4.70925 8.97503 5.65702C9.0054 5.83882 8.85306 5.98937 8.66874 5.98937H5.33126C5.14693 5.98937 4.99459 5.83882 5.02496 5.65702Z" fill="black"/>
</svg>
