<svg width="14" height="14" viewBox="0 0 14 14" fill="none" xmlns="http://www.w3.org/2000/svg">
<g clip-path="url(#clip0_1068_189506)">
<path fill-rule="evenodd" clip-rule="evenodd" d="M1.13917 1.519C1.13917 0.68197 1.81772 0.00341797 2.65475 0.00341797H7.44523C8.28228 0.00341797 8.96081 0.681977 8.96081 1.519L8.9608 5.00664C8.06379 5.58057 7.46918 6.5856 7.46918 7.72951C7.46918 8.53378 7.76311 9.2694 8.24942 9.8348C6.98626 10.6434 6.14899 12.0589 6.14899 13.6699C6.14899 13.7831 6.16088 13.8935 6.1835 13.9999H1.63916C1.62334 13.9999 1.60761 13.9992 1.592 13.9977H0.765625C0.351412 13.9977 0.015625 13.6619 0.015625 13.2477C0.015625 12.8335 0.351412 12.4977 0.765625 12.4977H1.13916L1.13917 5.62207H5.48681C5.83199 5.62207 6.11181 5.34225 6.11181 4.99707C6.11181 4.65189 5.83199 4.37207 5.48681 4.37207H1.13917V3.02213H4.09928C4.44446 3.02213 4.72428 2.7423 4.72428 2.39713C4.72428 2.05195 4.44446 1.77213 4.09928 1.77213H1.13917V1.519ZM12.6795 7.72951C12.6795 8.82312 11.7929 9.70966 10.6993 9.70966C9.60572 9.70966 8.71918 8.82312 8.71918 7.72951C8.71918 6.6359 9.60572 5.74936 10.6993 5.74936C11.7929 5.74936 12.6795 6.6359 12.6795 7.72951ZM10.6992 10.3697C8.87656 10.3697 7.39899 11.8473 7.39899 13.6699C7.39899 13.8522 7.54674 14 7.72901 14H13.6695C13.8517 14 13.9995 13.8522 13.9995 13.6699C13.9995 11.8473 12.5219 10.3697 10.6992 10.3697Z" fill="black"/>
</g>
<defs>
<clipPath id="clip0_1068_189506">
<rect width="14" height="14" fill="white"/>
</clipPath>
</defs>
</svg>
