<svg width="14" height="14" viewBox="0 0 14 14" fill="none" xmlns="http://www.w3.org/2000/svg">
<g clip-path="url(#clip0_1068_189491)">
<path fill-rule="evenodd" clip-rule="evenodd" d="M3.5 4C4.60457 4 5.5 3.10457 5.5 2C5.5 0.89543 4.60457 0 3.5 0C2.39543 0 1.5 0.89543 1.5 2C1.5 3.10457 2.39543 4 3.5 4ZM5.54492 10V9.9705C5.54492 8.98028 6.09168 8.11776 6.89977 7.66837C6.74884 7.05141 6.43144 6.48169 5.97487 6.02513C5.3185 5.36875 4.42826 5 3.5 5C2.57174 5 1.6815 5.36875 1.02513 6.02513C0.368749 6.6815 0 7.57174 0 8.5V9.5C0 9.77614 0.223858 10 0.5 10H1.5L1.94525 13.562C1.97653 13.8122 2.18923 14 2.44139 14H4.55861C4.81077 14 5.02347 13.8122 5.05475 13.562L5.5 10H5.54492ZM9.927 7.68726C9.78893 7.68726 9.677 7.79918 9.677 7.93726V8.58813H11.0896V7.93726C11.0896 7.79918 10.9776 7.68726 10.8396 7.68726H9.927ZM8.177 7.93726V8.58813C7.41367 8.58829 6.79492 9.20714 6.79492 9.9705V12.6176C6.79492 13.381 7.41383 13.9999 8.17728 13.9999H12.5891C13.3525 13.9999 13.9714 13.381 13.9714 12.6176V9.9705C13.9714 9.20721 13.3528 8.58841 12.5896 8.58813V7.93726C12.5896 6.97076 11.8061 6.18726 10.8396 6.18726H9.927C8.9605 6.18726 8.177 6.97076 8.177 7.93726Z" fill="black"/>
</g>
<defs>
<clipPath id="clip0_1068_189491">
<rect width="14" height="14" fill="white"/>
</clipPath>
</defs>
</svg>
