<svg width="14" height="14" viewBox="0 0 14 14" fill="none" xmlns="http://www.w3.org/2000/svg">
<path fill-rule="evenodd" clip-rule="evenodd" d="M5.5 0C4.94772 0 4.5 0.447716 4.5 1V1.5C4.5 1.50216 4.50001 1.50431 4.50002 1.50647C4.5035 2.05578 4.94987 2.5 5.5 2.5H8.5C9.05229 2.5 9.5 2.05229 9.5 1.5V1C9.5 0.447715 9.05229 0 8.5 0H5.5ZM3.5 1H3C2.17157 1 1.5 1.67157 1.5 2.5V12.5C1.5 13.3284 2.17157 14 3 14H11C11.8284 14 12.5 13.3284 12.5 12.5V2.5C12.5 1.67157 11.8284 1 11 1H10.5V1.5C10.5 2.60457 9.60457 3.5 8.5 3.5H5.5C4.39543 3.5 3.5 2.60457 3.5 1.5V1ZM4.53662 6.56888C4.53662 6.14956 4.87655 5.80963 5.29587 5.80963C5.71519 5.80963 6.05512 6.14956 6.05512 6.56888C6.05512 6.88122 5.86639 7.1509 5.59425 7.26742C5.50347 7.30629 5.40303 7.32812 5.29587 7.32812C4.87655 7.32812 4.53662 6.9882 4.53662 6.56888ZM5.29587 4.55963C4.18619 4.55963 3.28662 5.4592 3.28662 6.56888C3.28662 7.67855 4.18619 8.57812 5.29587 8.57812C5.57525 8.57812 5.84284 8.52074 6.08625 8.41653C6.80182 8.11015 7.30512 7.399 7.30512 6.56888C7.30512 5.4592 6.40554 4.55963 5.29587 4.55963ZM10.3957 8.89082C10.6398 9.1349 10.6398 9.53063 10.3957 9.77471L9.58685 10.5836L10.3941 11.3908C10.6382 11.6349 10.6382 12.0306 10.3941 12.2747C10.15 12.5188 9.75428 12.5188 9.51021 12.2747L8.70296 11.4675L7.89572 12.2747C7.65164 12.5188 7.25591 12.5188 7.01184 12.2747C6.76776 12.0306 6.76776 11.6349 7.01184 11.3908L7.81908 10.5836L7.01021 9.77471C6.76613 9.53063 6.76613 9.1349 7.01021 8.89083C7.25428 8.64675 7.65001 8.64675 7.89409 8.89083L8.70296 9.6997L9.51184 8.89082C9.75591 8.64674 10.1516 8.64674 10.3957 8.89082Z" fill="black"/>
</svg>
