<svg width="14" height="14" viewBox="0 0 14 14" fill="none" xmlns="http://www.w3.org/2000/svg">
<path fill-rule="evenodd" clip-rule="evenodd" d="M0.65809 0.43934C0.939394 0.158035 1.32093 0 1.71875 0H7.30454C7.70236 0 8.08389 0.158035 8.3652 0.43934L11.7794 3.85355C12.0607 4.13486 12.2188 4.51639 12.2188 4.91421V12.5C12.2188 12.8978 12.0607 13.2794 11.7794 13.5607C11.4981 13.842 11.1166 14 10.7188 14H1.71875C1.32092 14 0.939394 13.842 0.65809 13.5607C0.376785 13.2794 0.21875 12.8978 0.21875 12.5V1.5C0.21875 1.10218 0.376785 0.720644 0.65809 0.43934ZM5.33031 4.52837C5.66737 4.76913 5.74544 5.23754 5.50468 5.5746L4.10819 7.52968C3.98005 7.70907 3.77947 7.82301 3.55975 7.84119C3.34004 7.85938 3.12346 7.77997 2.96756 7.62408L2.12967 6.78619C1.83678 6.49329 1.83678 6.01842 2.12967 5.72553C2.42257 5.43263 2.89744 5.43263 3.19033 5.72553L3.40219 5.93738L4.28408 4.70274C4.52484 4.36568 4.99325 4.28761 5.33031 4.52837ZM6.28 6.375C6.28 5.96079 6.61579 5.625 7.03 5.625H9.53C9.94421 5.625 10.28 5.96079 10.28 6.375C10.28 6.78921 9.94421 7.125 9.53 7.125H7.03C6.61579 7.125 6.28 6.78921 6.28 6.375ZM6.28 10.3438C6.28 9.92954 6.61579 9.59375 7.03 9.59375H9.53C9.94421 9.59375 10.28 9.92954 10.28 10.3438C10.28 10.758 9.94421 11.0938 9.53 11.0938H7.03C6.61579 11.0938 6.28 10.758 6.28 10.3438ZM5.50468 9.60585C5.74544 9.26879 5.66737 8.80038 5.33031 8.55962C4.99325 8.31886 4.52484 8.39693 4.28408 8.73399L3.40219 9.96863L3.19033 9.75678C2.89744 9.46388 2.42257 9.46388 2.12967 9.75678C1.83678 10.0497 1.83678 10.5245 2.12967 10.8174L2.96756 11.6553C3.12346 11.8112 3.34004 11.8906 3.55975 11.8724C3.77947 11.8543 3.98005 11.7403 4.10819 11.5609L5.50468 9.60585Z" fill="black"/>
</svg>
