<svg width="14" height="14" viewBox="0 0 14 14" fill="none" xmlns="http://www.w3.org/2000/svg">
<g clip-path="url(#clip0_1068_189509)">
<path fill-rule="evenodd" clip-rule="evenodd" d="M3.78399 1.50464H10.216C10.2348 1.50464 10.25 1.51985 10.25 1.53862V5.47062C10.25 5.48939 10.2348 5.50461 10.216 5.50461H3.78399C3.76522 5.50461 3.75 5.48939 3.75 5.47063V1.53863C3.75 1.51986 3.76522 1.50464 3.78399 1.50464ZM10.216 0.00463867L3.78399 0.00464058C2.93679 0.00464058 2.25 0.691429 2.25 1.53863V5.47063C2.25 6.31782 2.93679 7.00461 3.78399 7.00461H6.24867L6.24872 8.02075H2.2023C1.17586 8.02075 0.34375 8.85286 0.34375 9.8793V13.2455C0.34375 13.6597 0.679537 13.9955 1.09375 13.9955C1.50797 13.9955 1.84375 13.6597 1.84375 13.2455V10.7278H12.1561V13.2455C12.1561 13.6597 12.4919 13.9955 12.9061 13.9955C13.3203 13.9955 13.6561 13.6597 13.6561 13.2455V9.8793C13.6561 8.85287 12.824 8.02075 11.7975 8.02075H7.74872L7.74867 7.00461H10.216C11.0632 7.00461 11.75 6.31782 11.75 5.47062V1.53862C11.75 0.691427 11.0632 0.00463867 10.216 0.00463867Z" fill="black"/>
</g>
<defs>
<clipPath id="clip0_1068_189509">
<rect width="14" height="14" fill="white"/>
</clipPath>
</defs>
</svg>
