<svg width="16" height="16" viewBox="0 0 16 16" fill="none" xmlns="http://www.w3.org/2000/svg">
<path d="M13 7.688L8.27223 12.1469C7.69304 12.6931 6.90749 13 6.0884 13C5.26931 13 4.48376 12.6931 3.90457 12.1469C3.32538 11.6006 3 10.8598 3 10.0873C3 9.31474 3.32538 8.57387 3.90457 8.02763L8.63234 3.56875C9.01847 3.20459 9.54216 3 10.0882 3C10.6343 3 11.158 3.20459 11.5441 3.56875C11.9302 3.93291 12.1472 4.42683 12.1472 4.94183C12.1472 5.45684 11.9302 5.95075 11.5441 6.31491L6.8112 10.7738C6.61814 10.9559 6.35629 11.0582 6.08326 11.0582C5.81022 11.0582 5.54838 10.9559 5.35531 10.7738C5.16225 10.5917 5.05379 10.3448 5.05379 10.0873C5.05379 9.82975 5.16225 9.58279 5.35531 9.40071L9.72297 5.28632" stroke="#333333" stroke-width="0.9989" stroke-linecap="round" stroke-linejoin="round"/>
</svg>
