<svg width="16" height="16" viewBox="0 0 16 16" fill="none" xmlns="http://www.w3.org/2000/svg">
<path d="M7.15625 11.8359L6.43768 9.85414H2.46662L1.74805 11.8359H0.5L3.7903 3H5.11399L8.4043 11.8359H7.15625ZM2.87003 8.75596H6.03427L4.44584 4.40112L2.87003 8.75596Z" fill="#333333"/>
<path d="M14.4032 5.52454H15.5V11.8359H14.4032V10.7504C13.8569 11.5835 13.0627 12 12.0206 12C11.1381 12 10.386 11.6802 9.76403 11.0407C9.14211 10.3927 8.83114 9.60589 8.83114 8.68022C8.83114 7.75456 9.14211 6.97195 9.76403 6.3324C10.386 5.68443 11.1381 5.36045 12.0206 5.36045C13.0627 5.36045 13.8569 5.777 14.4032 6.6101V5.52454ZM12.1593 10.9397C12.798 10.9397 13.3317 10.7251 13.7603 10.2959C14.1889 9.85835 14.4032 9.31978 14.4032 8.68022C14.4032 8.04067 14.1889 7.50631 13.7603 7.07714C13.3317 6.63955 12.798 6.42076 12.1593 6.42076C11.5289 6.42076 10.9995 6.63955 10.5708 7.07714C10.1422 7.50631 9.92791 8.04067 9.92791 8.68022C9.92791 9.31978 10.1422 9.85835 10.5708 10.2959C10.9995 10.7251 11.5289 10.9397 12.1593 10.9397Z" fill="#333333"/>
</svg>
