<svg width="24" height="25" viewBox="0 0 24 25" fill="none" xmlns="http://www.w3.org/2000/svg">
    <g clip-path="url(#clip0_10_2941)">
        <path
            d="M17.9706 5.70199L17.9706 5.702L17.9712 5.70405L20.4218 13.6624C20.4393 13.7435 20.4508 13.8258 20.4561 13.9086V19.3106C20.4561 19.7769 20.078 20.1549 19.6117 20.1548H3.40062C2.93431 20.1549 2.55625 19.7769 2.55625 19.3106V13.9086C2.56155 13.8257 2.57301 13.7433 2.59054 13.6622L4.97263 5.70366C5.26597 4.72587 6.16595 4.05625 7.1868 4.05625L15.8285 4.05625C16.8329 4.05625 17.7119 4.7315 17.9706 5.70199ZM4.55716 12.99L4.53544 13.0624H4.61104H8.80431C9.02825 13.0624 9.24302 13.1514 9.40137 13.3097C9.55971 13.4681 9.64867 13.6828 9.64867 13.9068V14.8074V14.8636H9.70492H13.3074H13.3636V14.8074V13.9068C13.3636 13.6828 13.4526 13.4681 13.6109 13.3097C13.7693 13.1514 13.9841 13.0624 14.208 13.0624H18.4013H18.4769L18.4551 12.99L16.5342 6.5868C16.3843 6.08715 15.9244 5.74498 15.4028 5.74498H7.60955C7.0879 5.74498 6.62802 6.08715 6.47812 6.5868L4.55716 12.99ZM15.1086 14.7511H15.0524V14.8074V15.708C15.0524 15.8189 15.0305 15.9287 14.9881 16.0311C14.9457 16.1336 14.8835 16.2267 14.8051 16.3051C14.7267 16.3835 14.6336 16.4457 14.5311 16.4881C14.4287 16.5305 14.3189 16.5524 14.208 16.5524H8.80431C8.69343 16.5524 8.58363 16.5305 8.48118 16.4881C8.37874 16.4457 8.28566 16.3835 8.20725 16.3051C8.12885 16.2267 8.06665 16.1336 8.02422 16.0311C7.98178 15.9287 7.95994 15.8189 7.95994 15.708V14.8074V14.7511H7.90369H4.52623C4.3709 14.7511 4.24498 14.8771 4.24498 15.0324V18.1849C4.24498 18.3402 4.3709 18.4661 4.52623 18.4661H18.4861C18.6414 18.4661 18.7673 18.3402 18.7673 18.1849V15.0324C18.7673 14.8771 18.6414 14.7511 18.4861 14.7511H15.1086ZM8.80435 10.2481C8.58041 10.2481 8.36564 10.1591 8.20729 10.0007C8.04895 9.8424 7.95999 9.62763 7.95999 9.40369C7.95999 9.17975 8.04895 8.96498 8.20729 8.80663C8.36564 8.64829 8.58041 8.55933 8.80435 8.55933H14.208C14.432 8.55933 14.6468 8.64829 14.8051 8.80663C14.9635 8.96498 15.0524 9.17975 15.0524 9.40369C15.0524 9.62763 14.9635 9.8424 14.8051 10.0007C14.6468 10.1591 14.432 10.2481 14.208 10.2481H8.80435Z"
            fill="#333333" stroke="white" stroke-width="0.1125" />
    </g>
    <defs>
        <clipPath id="clip0_10_2941">
            <rect width="18" height="16.2111" fill="white" transform="translate(2.5 4)" />
        </clipPath>
    </defs>
</svg>