<svg width="800" height="800" viewBox="-.02 0 122.88 122.88" xmlns="http://www.w3.org/2000/svg">
    <path
        d="M81.54 4.71c0-2.62 2.58-4.71 5.77-4.71 3.2 0 5.77 2.13 5.77 4.71V25.4c0 2.62-2.58 4.71-5.77 4.71-3.2 0-5.77-2.13-5.77-4.71V4.71zM20.4 89.87l7.55-.47c.16 1.22.5 2.16 1 2.79.82 1.04 1.99 1.56 3.51 1.56 1.13 0 2.01-.26 2.62-.8.61-.54.92-1.15.92-1.85 0-.66-.29-1.26-.87-1.79-.58-.53-1.93-1.02-4.06-1.49-3.49-.78-5.96-1.82-7.45-3.12-1.5-1.29-2.25-2.95-2.25-4.96 0-1.32.38-2.56 1.15-3.74.77-1.18 1.92-2.1 3.46-2.77 1.54-.67 3.65-1.01 6.32-1.01 3.29 0 5.79.61 7.52 1.84 1.72 1.22 2.75 3.17 3.08 5.84l-7.47.44c-.2-1.17-.62-2.02-1.25-2.55-.64-.53-1.52-.8-2.64-.8-.92 0-1.62.2-2.09.59-.47.39-.7.87-.7 1.43 0 .41.19.77.57 1.1.37.34 1.25.65 2.65.95 3.47.75 5.96 1.51 7.46 2.28 1.5.77 2.6 1.71 3.28 2.85.68 1.13 1.02 2.4 1.02 3.81 0 1.65-.46 3.17-1.37 4.56-.92 1.39-2.19 2.45-3.83 3.17-1.64.72-3.7 1.08-6.19 1.08-4.37 0-7.4-.84-9.09-2.53-1.67-1.68-2.63-3.82-2.85-6.41zm44.13-17.22h7.94v15.33c0 1.52-.24 2.95-.71 4.3a9.377 9.377 0 01-2.23 3.55c-1.01 1.01-2.07 1.72-3.18 2.13-1.54.57-3.4.86-5.56.86-1.25 0-2.62-.09-4.1-.26-1.48-.17-2.72-.52-3.71-1.04-.99-.52-1.9-1.26-2.72-2.22-.83-.96-1.39-1.95-1.69-2.96-.49-1.64-.74-3.08-.74-4.35V72.65h7.94v15.69c0 1.4.39 2.5 1.16 3.28.78.79 1.86 1.19 3.23 1.19 1.36 0 2.43-.39 3.21-1.17.77-.77 1.16-1.87 1.16-3.3V72.65zm13.32 0h7.42l9.65 14.21V72.65h7.51v25.73h-7.51l-9.59-14.13v14.13h-7.47V72.65h-.01zM29.53 4.71C29.53 2.09 32.11 0 35.3 0c3.2 0 5.77 2.13 5.77 4.71V25.4c0 2.62-2.58 4.71-5.77 4.71-3.2 0-5.77-2.13-5.77-4.71V4.71zM7.56 44.09h107.62V22.66c0-.8-.31-1.55-.84-2.04-.53-.53-1.24-.84-2.04-.84h-9.31c-1.78 0-3.2-2.63-3.2-4.41 0-1.78 1.42-3.2 3.2-3.2h10.53c2.58 0 4.88 1.07 6.57 2.75 1.69 1.69 2.75 4.04 2.75 6.57v92.06c0 2.58-1.07 4.88-2.75 6.57-1.69 1.69-4.04 2.75-6.57 2.75H9.33c-2.58 0-4.88-1.07-6.57-2.75-1.69-1.68-2.76-4.04-2.76-6.57V21.49c0-2.58 1.07-4.88 2.75-6.57 1.69-1.69 4.04-2.75 6.57-2.75H20.6c1.78 0 3.2 1.42 3.2 3.2s-1.42 4.41-3.2 4.41H10.54c-.8 0-1.55.31-2.09.84-.53.53-.84 1.24-.84 2.09v21.43l-.05-.05zm107.63 8.81H7.56v59.4c0 .8.31 1.55.84 2.09.53.53 1.24.84 2.09.84h101.76c.8 0 1.55-.31 2.09-.84.53-.53.84-1.24.84-2.09V52.9h.01zM50.36 19.73c-1.78 0-3.2-2.63-3.2-4.41 0-1.78 1.42-3.2 3.2-3.2h21.49c1.78 0 3.2 1.42 3.2 3.2 0 1.78-1.42 4.41-3.2 4.41H50.36z" />
</svg>