<svg width="16" height="16" viewBox="0 0 16 16" fill="none" xmlns="http://www.w3.org/2000/svg">
<path fill-rule="evenodd" clip-rule="evenodd" d="M8 15C11.866 15 15 11.866 15 8C15 4.13401 11.866 1 8 1C4.13401 1 1 4.13401 1 8C1 11.866 4.13401 15 8 15ZM10.1392 5.14768C10.3361 4.95077 10.6554 4.95077 10.8523 5.14768C11.0492 5.34459 11.0492 5.66385 10.8523 5.86076L8.71303 8L10.8523 10.1392C11.0492 10.3362 11.0492 10.6554 10.8523 10.8523C10.6554 11.0492 10.3361 11.0492 10.1392 10.8523L7.99996 8.71307L5.86076 10.8523C5.66385 11.0492 5.34459 11.0492 5.14768 10.8523C4.95077 10.6554 4.95077 10.3361 5.14768 10.1392L7.28688 8L5.14769 5.8608C4.95078 5.66389 4.95078 5.34464 5.14769 5.14773C5.3446 4.95082 5.66385 4.95082 5.86076 5.14773L7.99996 7.28692L10.1392 5.14768Z" fill="#1F2329" fill-opacity="0.4"/>
</svg>
