<?xml version="1.0" standalone="no"?>
<!DOCTYPE svg PUBLIC "-//W3C//DTD SVG 20010904//EN" "http://www.w3.org/TR/2001/REC-SVG-20010904/DTD/svg10.dtd">
<svg version="1.0" xmlns="http://www.w3.org/2000/svg" width="512.000000pt" height="512.000000pt"
    viewBox="0 0 512.000000 512.000000" preserveAspectRatio="xMidYMid meet">

    <g transform="translate(0.000000,512.000000) scale(0.100000,-0.100000)" fill="#000000" stroke="none">
        <path d="M2990 5100 c-19 -10 -382 -366 -806 -792 l-771 -773 -42 -85 c-125
-256 -84 -501 120 -714 47 -50 91 -101 98 -113 14 -27 14 -116 0 -168 -57
-207 -310 -495 -535 -606 -73 -37 -92 -42 -190 -50 -60 -4 -145 -18 -189 -29
-312 -80 -560 -328 -646 -645 -32 -116 -32 -336 -1 -450 88 -318 330 -560 647
-646 115 -32 335 -32 450 0 263 71 474 247 591 494 45 95 71 203 83 337 7 90
15 122 40 176 149 318 583 627 777 554 15 -6 68 -50 119 -98 214 -205 459
-246 715 -121 85 42 85 42 849 803 420 418 776 781 792 805 34 53 37 97 10
149 -24 46 -1934 1954 -1978 1976 -42 21 -90 20 -133 -4z m920 -1195 l845
-845 -318 -317 -317 -318 -847 847 -848 848 315 315 c173 173 317 315 320 315
3 0 385 -380 850 -845z m-282 -1972 c-320 -320 -330 -327 -458 -328 -100 0
-145 23 -264 135 -52 49 -114 99 -137 111 -242 123 -589 11 -902 -291 -135
-130 -224 -245 -287 -375 -54 -110 -80 -200 -80 -285 -2 -277 -206 -528 -475
-585 -203 -43 -395 15 -545 164 -190 188 -233 466 -108 704 42 81 164 203 245
245 77 41 198 72 277 72 326 1 780 374 949 780 74 178 76 355 5 494 -11 21
-59 80 -108 132 -110 117 -135 164 -135 259 0 131 3 136 324 458 l286 287 847
-847 848 -848 -282 -282z" />
        <path d="M828 1029 c-43 -22 -78 -81 -78 -129 0 -76 74 -150 150 -150 17 0 49
9 70 20 45 23 80 80 80 130 0 50 -35 107 -80 130 -49 25 -94 25 -142 -1z" />
    </g>
</svg>