<svg width="24" height="24" viewBox="0 0 24 24" fill="none" xmlns="http://www.w3.org/2000/svg">
<path d="M13.2967 5.63248L14.6167 8.27248C14.7967 8.63998 15.2767 8.99248 15.6817 9.05998L18.0742 9.45748C19.6042 9.71248 19.9642 10.8225 18.8617 11.9175L17.0017 13.7775C16.6867 14.0925 16.5142 14.7 16.6117 15.135L17.1442 17.4375C17.5642 19.26 16.5967 19.965 14.9842 19.0125L12.7417 17.685C12.3367 17.445 11.6692 17.445 11.2567 17.685L9.0142 19.0125C7.4092 19.965 6.4342 19.2525 6.8542 17.4375L7.3867 15.135C7.4842 14.7 7.3117 14.0925 6.9967 13.7775L5.1367 11.9175C4.0417 10.8225 4.3942 9.71248 5.9242 9.45748L8.3167 9.05998C8.7142 8.99248 9.1942 8.63998 9.3742 8.27248L10.6942 5.63248C11.4142 4.19998 12.5842 4.19998 13.2967 5.63248Z" fill="#FFBA00"/>
</svg>
