<?xml version="1.0" encoding="utf-8"?>
<svg width="800px" height="800px" viewBox="0 0 24 24" fill="none" xmlns="http://www.w3.org/2000/svg">
    <path
        d="M3.5 15V6.9C3.5 6.05992 3.5 5.63988 3.66349 5.31901C3.8073 5.03677 4.03677 4.8073 4.31901 4.66349C4.63988 4.5 5.05992 4.5 5.9 4.5H8.47237C8.84808 4.5 9.03594 4.5 9.20646 4.55179C9.35741 4.59763 9.49785 4.6728 9.61972 4.77298C9.75739 4.88614 9.86159 5.04245 10.07 5.35507L10.93 6.64533C11.1384 6.95795 11.2426 7.11426 11.3803 7.22742C11.5022 7.3276 11.6426 7.40277 11.7935 7.44861C11.9641 7.5004 12.1519 7.5004 12.5276 7.5004H16.5004C16.965 7.5004 17.1973 7.5004 17.3879 7.55143C17.9058 7.69008 18.3103 8.09459 18.449 8.61248C18.5 8.80308 18.5 9.03539 18.5 9.5V9.5M10.5 13.5H16.5"
        stroke="#222222" stroke-linecap="round" />
    <path
        d="M4.5 18.5L16.7701 18.5004C17.3922 18.5004 17.7032 18.5004 17.9679 18.3963C18.2016 18.3044 18.4084 18.1553 18.5695 17.9626C18.752 17.7445 18.8503 17.4494 19.047 16.8593L20.4471 12.6592C20.8026 11.5927 20.9803 11.0595 20.8737 10.635C20.7804 10.2635 20.5485 9.94171 20.2255 9.7357C19.8566 9.50035 19.2945 9.50033 18.1703 9.5003L10.2299 9.50005C9.60784 9.50003 9.29681 9.50002 9.03216 9.60411C8.79846 9.69601 8.59157 9.84513 8.43047 10.0378C8.24804 10.2559 8.14968 10.551 7.95298 11.1411L5.7649 17.7057C5.60671 18.1803 5.16255 18.5004 4.66227 18.5004V18.5004C4.02037 18.5004 3.5 17.98 3.5 17.3381V14.5"
        stroke="#222222" />
</svg>