<svg width="24" height="24" viewBox="0 0 24 24" fill="none" xmlns="http://www.w3.org/2000/svg">
<path d="M2 3C1.44772 3 1 3.44772 1 4V20C1 20.5523 1.44772 21 2 21C2.55228 21 3 20.5523 3 20V13H12V20C12 20.5523 12.4477 21 13 21C13.5523 21 14 20.5523 14 20V4C14 3.44772 13.5523 3 13 3C12.4477 3 12 3.44772 12 4V11H3V4C3 3.44772 2.55228 3 2 3Z" fill="#1E2022"/>
<path d="M22.9997 17.2957C22.9997 16.7854 22.8918 16.2984 22.6764 15.8345C22.4818 15.4356 22.1888 15.0883 21.7989 14.7909C22.1757 14.494 22.4487 14.1604 22.615 13.7897C22.7843 13.3504 22.8669 12.9042 22.8669 12.4422C22.8559 11.526 22.5403 10.7287 21.9236 10.0569C21.2739 9.36276 20.3985 9.01094 19.3095 9C18.436 9.01108 17.6839 9.32307 17.0586 9.93168C16.7102 10.268 16.2107 10.8107 16.2107 11.3157C16.2107 11.8679 16.6584 12.3157 17.2107 12.3157C17.6929 12.3157 17.9779 11.9643 18.2538 11.6242C18.2838 11.5872 18.3137 11.5504 18.3436 11.5142C18.4013 11.4446 18.4652 11.3819 18.536 11.3294C18.7918 11.1295 19.0662 11.0328 19.37 11.0328C19.8014 11.0421 20.1488 11.177 20.4186 11.4376C20.6859 11.705 20.8248 12.0488 20.8341 12.4778C20.8341 12.8946 20.7013 13.2278 20.4342 13.4858C20.0993 13.8206 19.6676 13.8731 19.2225 13.8731C18.6933 13.8731 18.2643 14.3021 18.2643 14.8313C18.2643 15.3605 18.6933 15.7896 19.2225 15.7896C19.2521 15.7896 19.2813 15.7895 19.3102 15.7894C19.7621 15.788 20.1344 15.7868 20.5146 16.1428C20.8052 16.4199 20.9574 16.8166 20.9669 17.3442C20.9575 17.8531 20.8061 18.2384 20.5157 18.5061C20.2196 18.802 19.8669 18.9453 19.4403 18.9453C19.0395 18.9453 18.7281 18.8393 18.4963 18.6297L18.4884 18.6225C18.4155 18.5551 18.3447 18.4847 18.2748 18.4151C18.1754 18.3161 18.0966 18.2084 18.0208 18.1049C17.8281 17.8415 17.6548 17.6047 17.2107 17.6047C16.6584 17.6047 16.2107 18.0524 16.2107 18.6047C16.2107 19.1791 16.7544 19.7949 17.165 20.1377C17.7999 20.6676 18.5158 20.9781 19.3388 20.9781C20.3963 20.9672 21.269 20.6275 21.9478 19.9598C22.6375 19.3087 22.9888 18.4153 22.9997 17.2957Z" fill="#1E2022"/>
</svg>
