<svg width="24" height="24" viewBox="0 0 24 24" fill="none" xmlns="http://www.w3.org/2000/svg">
<path d="M2.5 3C1.94772 3 1.5 3.44772 1.5 4V20C1.5 20.5523 1.94772 21 2.5 21C3.05228 21 3.5 20.5523 3.5 20V13H12.5V20C12.5 20.5523 12.9477 21 13.5 21C14.0523 21 14.5 20.5523 14.5 20V4C14.5 3.44772 14.0523 3 13.5 3C12.9477 3 12.5 3.44772 12.5 4V11H3.5V4C3.5 3.44772 3.05228 3 2.5 3Z" fill="#1E2022"/>
<path d="M18.0996 11L21.4746 10L21.4746 20" stroke="#1E2022" stroke-width="2.2" stroke-linecap="round" stroke-linejoin="round"/>
</svg>
