<svg width="24" height="24" viewBox="0 0 24 24" fill="none" xmlns="http://www.w3.org/2000/svg">
<path d="M2.0003 3C1.44785 3 1 3.44772 1 4V20C1 20.5523 1.44785 21 2.0003 21C2.55276 21 3.00061 20.5523 3.00061 20V13H12.0033V20C12.0033 20.5523 12.4512 21 13.0036 21C13.5561 21 14.0039 20.5523 14.0039 20V4C14.0039 3.44772 13.5561 3 13.0036 3C12.4512 3 12.0033 3.44772 12.0033 4V11H3.00061V4C3.00061 3.44772 2.55276 3 2.0003 3Z" fill="#1E2022"/>
<path d="M23 19.8723C23 19.3107 22.5446 18.8565 21.9828 18.8565H18.8604L22.2683 14.5853C22.7557 13.9652 23 13.2546 23 12.4595C22.989 11.4675 22.6529 10.643 21.9941 9.99538C21.3476 9.34354 20.5021 9.01096 19.4712 9C18.5388 9.01105 17.7509 9.33946 17.1142 9.98155C16.7442 10.3676 16.1726 11.026 16.1726 11.584C16.1726 12.1753 16.652 12.6546 17.2435 12.6546C17.806 12.6546 18.0119 12.3067 18.2361 11.9279C18.296 11.8269 18.3571 11.7236 18.4266 11.6241C18.4815 11.5456 18.5435 11.4743 18.6125 11.41C18.8739 11.1579 19.1966 11.0338 19.5941 11.0338C20.0417 11.0431 20.3787 11.1846 20.6159 11.4574C20.8489 11.7361 20.9655 12.0631 20.9655 12.4439C20.9655 12.5899 20.9465 12.747 20.908 12.9152C20.8579 13.0671 20.7516 13.2561 20.5925 13.4633L16.1899 18.9689C16.1331 19.0398 16.1022 19.1279 16.1022 19.2188V20.2409C16.1022 20.462 16.3693 20.8904 16.7088 20.8904H21.9828C22.5446 20.8904 23 20.434 23 19.8723Z" fill="#1E2022"/>
</svg>
