<svg width="24" height="24" viewBox="0 0 24 24" fill="none" xmlns="http://www.w3.org/2000/svg">
<path d="M14.0728 9.84672H14.1508L14.1201 9.77508L12.0471 4.93434L11.9998 4.824L11.9526 4.93434L9.87952 9.77508L9.84884 9.84672H9.92677H14.0728ZM14.8724 11.5318L14.8561 11.4938L14.8155 11.5016C14.7642 11.5114 14.7113 11.5166 14.6571 11.5166H9.34296C9.28863 11.5166 9.23556 11.5114 9.1842 11.5015L9.14353 11.4937L9.12722 11.5318L7.45253 15.4423C7.27102 15.8662 6.78056 16.0625 6.35709 15.8809C5.93359 15.6992 5.73737 15.2084 5.9189 14.7845L10.826 3.32604C11.2683 2.29319 12.7313 2.29319 13.1737 3.32604L18.0807 14.7845C18.2622 15.2084 18.066 15.6992 17.6425 15.8809C17.219 16.0625 16.7286 15.8662 16.5471 15.4423L14.8724 11.5318Z" fill="#1E2022" stroke="white" stroke-width="0.102805"/>
<rect x="3" y="18.5" width="18" height="3" rx="1.5" fill="#1E2022"/>
</svg>
