<svg width="24" height="24" viewBox="0 0 24 24" fill="none" xmlns="http://www.w3.org/2000/svg">
<path d="M13.4375 10.2V10.275H13.5125H17.2125C17.6819 10.275 18.0625 10.6555 18.0625 11.125C18.0625 11.5944 17.6819 11.975 17.2125 11.975H13.5125H13.4375V12.05V17.1375C13.4375 19.398 11.5953 21.225 9.34094 21.225C7.09653 21.225 5.2625 19.4061 5.2625 17.1556V17.1375C5.2625 16.668 5.64306 16.2875 6.1125 16.2875C6.58194 16.2875 6.9625 16.668 6.9625 17.1375V17.1556C6.9625 18.461 8.02921 19.525 9.34094 19.525C10.6626 19.525 11.7375 18.4529 11.7375 17.1375L11.7375 12.05V11.975H11.6625H8.8875C8.41806 11.975 8.0375 11.5944 8.0375 11.125C8.0375 10.6555 8.41806 10.275 8.8875 10.275H11.6625H11.7375V10.2V6.96249C11.7375 4.70195 13.5797 2.87499 15.8341 2.87499C18.0785 2.87499 19.9125 4.69387 19.9125 6.94442V6.96249C19.9125 7.43193 19.5319 7.81249 19.0625 7.81249C18.5931 7.81249 18.2125 7.43193 18.2125 6.96249V6.94442C18.2125 5.63894 17.1458 4.57499 15.8341 4.57499C14.5124 4.57499 13.4375 5.64703 13.4375 6.96249V10.2Z" fill="#1E2022" stroke="white" stroke-width="0.15"/>
</svg>
