<svg width="24" height="24" viewBox="0 0 24 24" fill="none" xmlns="http://www.w3.org/2000/svg">
<path d="M17.1782 19.5C14.8477 19.5 12.7998 17.6748 12.7998 14.3624C12.7998 10.4864 15.6286 7.98428 18.6661 5.66114C18.9933 5.41085 19.4624 5.46028 19.7488 5.75288C20.1069 6.11875 20.037 6.70969 19.6478 7.04513C17.4771 8.91559 14.8597 10.9512 15.0101 12.8468C15.2033 12.7489 16.1596 12.402 17.5313 12.402C19.5086 12.402 20.9916 13.8892 20.9916 15.8496C20.9916 17.8776 19.2967 19.5 17.1782 19.5Z" fill="#1E2022"/>
<path d="M13.0908 15.5004C13.0908 17.7092 14.9937 19.5 17.3407 19.5C19.6878 19.5 21.5908 17.708 21.5908 15.5004C21.5908 13.2929 19.688 11.5 17.3407 11.5C14.9935 11.5 13.0908 13.2908 13.0908 15.5004Z" fill="#1E2022"/>
<path d="M6.87836 19.5C4.54794 19.5 2.5 17.6748 2.5 14.3624C2.5 10.4864 5.32881 7.98428 8.36626 5.66114C8.69351 5.41085 9.16255 5.46028 9.44895 5.75288C9.80707 6.11875 9.73722 6.70969 9.34795 7.04513C7.17733 8.91559 4.55994 10.9512 4.71026 12.8468C4.90347 12.7489 5.85976 12.402 7.23145 12.402C9.20877 12.402 10.6918 13.8892 10.6918 15.8496C10.6918 17.8776 8.99691 19.5 6.87836 19.5Z" fill="#1E2022"/>
<path d="M2.7998 15.5004C2.7998 17.7092 4.70267 19.5 7.04971 19.5C9.39675 19.5 11.2998 17.708 11.2998 15.5004C11.2998 13.2929 9.39694 11.5 7.04971 11.5C4.70248 11.5 2.7998 13.2908 2.7998 15.5004Z" fill="#1E2022"/>
</svg>
