<svg width="24" height="24" viewBox="0 0 24 24" fill="none" xmlns="http://www.w3.org/2000/svg">
<path d="M4.16484 3.1001H8.96484L8.96484 15.1001C8.96484 15.6524 8.51713 16.1001 7.96484 16.1001H4.16484C3.33642 16.1001 2.66484 15.4285 2.66484 14.6001L2.66484 4.6001C2.66484 3.77167 3.33642 3.1001 4.16484 3.1001Z" stroke="#49CD57" stroke-width="1.58" stroke-linecap="round" stroke-linejoin="round"/>
<path d="M15.2648 3.1001H8.96484V19.4001C8.96484 20.2285 9.63642 20.9001 10.4648 20.9001H13.7648C14.5933 20.9001 15.2648 20.2285 15.2648 19.4001V3.1001Z" stroke="#49CD57" stroke-width="1.58" stroke-linecap="round" stroke-linejoin="round"/>
<path d="M20.0656 12.6001H16.2656C15.7133 12.6001 15.2656 12.1524 15.2656 11.6001V3.1001H20.0656C20.8941 3.1001 21.5656 3.77167 21.5656 4.6001V11.1001C21.5656 11.9285 20.8941 12.6001 20.0656 12.6001Z" stroke="#49CD57" stroke-width="1.58" stroke-linecap="round" stroke-linejoin="round"/>
</svg>
