<svg width="24" height="24" viewBox="0 0 24 24" fill="none" xmlns="http://www.w3.org/2000/svg">
<path d="M8.48828 3.90625C7.65988 3.90625 6.98828 4.53823 6.98828 5.31823C6.98828 6.02423 6.98828 10.2592 6.98828 10.9652V18.4942C6.98828 19.2742 7.65988 19.9062 8.48828 19.9062C8.71218 19.9062 10.8837 19.9062 12.4883 19.9062C15.5259 19.9062 17.9883 17.5882 17.9883 14.7302C17.9883 13.1162 17.1954 11.6862 16.0192 10.7762C16.6546 10.0452 16.9883 9.15922 16.9883 8.14122C16.9883 5.80223 14.9735 3.90625 12.4883 3.90625C11.7348 3.90625 9.02118 3.90625 8.48828 3.90625ZM9.98828 6.73021C10.9796 6.73021 12.0174 6.73021 12.4883 6.73021C13.3167 6.73021 13.9883 7.36222 13.9883 8.14122C13.9883 8.92122 13.3167 9.5532 12.4883 9.5532C12.03 9.5532 10.9805 9.5532 9.98828 9.5532C9.98828 8.53821 9.98828 7.74421 9.98828 6.73021ZM9.98828 12.3772C10.9821 12.3772 12.0241 12.3772 12.4883 12.3772C13.869 12.3772 14.9883 13.4302 14.9883 14.7302C14.9883 16.0292 13.869 17.0822 12.4883 17.0822C11.4854 17.0822 10.8202 17.0822 9.98828 17.0822V12.3772Z" fill="#2F3030"/>
</svg>
