<svg width="18" height="18" viewBox="0 0 18 18" fill="none" xmlns="http://www.w3.org/2000/svg">
<g id="&#229;&#133;&#179;&#233;&#151;&#173;_close 1">
<path id="Union" d="M4.13807 3.19526C3.87772 2.93491 3.45561 2.93491 3.19526 3.19526C2.93491 3.45561 2.93491 3.87772 3.19526 4.13807L8.05719 9L3.19526 13.8619C2.93491 14.1223 2.93491 14.5444 3.19526 14.8047C3.45561 15.0651 3.87772 15.0651 4.13807 14.8047L9 9.94281L13.8619 14.8047C14.1223 15.0651 14.5444 15.0651 14.8047 14.8047C15.0651 14.5444 15.0651 14.1223 14.8047 13.8619L9.94281 9L14.8047 4.13807C15.0651 3.87772 15.0651 3.45561 14.8047 3.19526C14.5444 2.93491 14.1223 2.93491 13.8619 3.19526L9 8.05719L4.13807 3.19526Z" fill="#1F2329" stroke="#1F2329" stroke-width="0.24" stroke-linecap="round" stroke-linejoin="round"/>
</g>
</svg>
