<svg width="24" height="24" viewBox="0 0 24 24" fill="none" xmlns="http://www.w3.org/2000/svg">
<path fill-rule="evenodd" clip-rule="evenodd" d="M8.57344 2.0002C8.57344 1.55837 8.21527 1.2002 7.77344 1.2002C7.33161 1.2002 6.97344 1.55837 6.97344 2.0002V3.01729H6C3.79086 3.01729 2 4.80815 2 7.01729V18.0003C2 20.2095 3.79086 22.0003 6 22.0003H18C20.2091 22.0003 22 20.2095 22 18.0003V7.01728C22 4.80815 20.2091 3.01729 18 3.01729H17.0266V2.0002C17.0266 1.55837 16.6684 1.2002 16.2266 1.2002C15.7847 1.2002 15.4266 1.55837 15.4266 2.0002V3.01729H8.57344V2.0002ZM6.97344 4.61729V5.22053C6.97344 5.66236 7.33161 6.02053 7.77344 6.02053C8.21527 6.02053 8.57344 5.66236 8.57344 5.22053V4.61729H15.4266V5.22053C15.4266 5.66236 15.7847 6.02053 16.2266 6.02053C16.6684 6.02053 17.0266 5.66236 17.0266 5.22053V4.61729H18C19.3255 4.61729 20.4 5.6918 20.4 7.01728V8.81165H3.6V7.01729C3.6 5.6918 4.67452 4.61729 6 4.61729H6.97344ZM3.6 10.4116V18.0003C3.6 19.3258 4.67452 20.4003 6 20.4003H18C19.3255 20.4003 20.4 19.3258 20.4 18.0003V10.4116H3.6Z" fill="#FD9D44"/>
</svg>
