<svg width="24" height="24" viewBox="0 0 24 24" fill="none" xmlns="http://www.w3.org/2000/svg">
<path d="M12.2512 2.00865C12.6242 2.024 12.9057 2.33929 12.9057 2.71167C12.9057 3.15181 12.5169 3.48883 12.0759 3.47567C11.9942 3.47323 11.9122 3.472 11.83 3.472C7.29835 3.472 3.47548 7.20902 3.47548 11.6008C3.47548 12.9149 3.83321 14.1816 4.43775 15.2947C4.80485 15.9386 4.9607 16.656 5.01511 17.3947C5.06953 18.1335 4.96317 18.875 4.69436 19.5655L11.83 19.664C16.3632 19.664 20.1677 15.9926 20.1677 11.5992C20.1677 11.46 20.1638 11.3214 20.1563 11.1836C20.1314 10.7297 20.4752 10.32 20.9309 10.32C21.2989 10.32 21.6136 10.5912 21.6383 10.9576C21.6526 11.1697 21.6599 11.3836 21.6599 11.5992C21.6599 16.903 17.261 21.2 11.83 21.2H3.18451C3.00675 21.1812 2.84212 21.0979 2.72191 20.9659C2.60169 20.8339 2.53427 20.6624 2.53246 20.4841C2.53246 20.3811 2.61274 20.185 2.66844 20.0706C3.23694 19.4577 3.58426 18.6486 3.58426 17.7595C3.58426 17.1596 3.42535 16.5925 3.14519 16.1005C2.39249 14.7197 1.99876 13.1726 2 11.6008C2 6.29863 6.40218 2 11.83 2C11.9711 2 12.1115 2.0029 12.2512 2.00865Z" fill="url(#paint0_linear_428_29806)"/>
<path d="M19.0812 2.44864C18.9077 2.03084 18.3146 2.03074 18.1409 2.44848L17.916 2.98961C17.5715 3.81841 16.9112 4.47685 16.0803 4.82022L15.5338 5.04608C15.1148 5.21922 15.1149 5.81133 15.5339 5.98433L16.0753 6.20781C16.9078 6.55152 17.5691 7.21144 17.9133 8.04209L18.1383 8.58479C18.3116 9.00301 18.9054 9.00311 19.0789 8.58495L19.3022 8.04649C19.6466 7.21653 20.3074 6.55714 21.1393 6.21353L21.6857 5.98783C22.1047 5.81479 22.1048 5.22283 21.6859 5.04965L21.1432 4.82527C20.3122 4.48168 19.6519 3.82291 19.3076 2.99381L19.0812 2.44864Z" fill="url(#paint1_linear_428_29806)"/>
<defs>
<linearGradient id="paint0_linear_428_29806" x1="23.5236" y1="6.53153" x2="6.77803" y2="20.7735" gradientUnits="userSpaceOnUse">
<stop stop-color="#FF53C5"/>
<stop offset="1" stop-color="#8E59FF"/>
</linearGradient>
<linearGradient id="paint1_linear_428_29806" x1="23.5236" y1="6.53153" x2="6.77803" y2="20.7735" gradientUnits="userSpaceOnUse">
<stop stop-color="#FF53C5"/>
<stop offset="1" stop-color="#8E59FF"/>
</linearGradient>
</defs>
</svg>
