<svg width="24" height="24" viewBox="0 0 24 24" fill="none" xmlns="http://www.w3.org/2000/svg">
<path d="M6.99072 2.99829C4.78162 2.99829 2.99072 4.78929 2.99072 6.99828V16.9983C2.99072 19.2073 4.78162 20.9983 6.99072 20.9983H16.9907C19.1997 20.9983 20.9907 19.2073 20.9907 16.9983V6.99828C20.9907 4.78929 19.1997 2.99829 16.9907 2.99829H6.99072ZM6.99072 4.99829H16.9907C18.0957 4.99829 18.9907 5.89329 18.9907 6.99828V16.9983C18.9907 18.1033 18.0957 18.9983 16.9907 18.9983H6.99072C5.88612 18.9983 4.99072 18.1033 4.99072 16.9983V6.99828C4.99072 5.89329 5.88612 4.99829 6.99072 4.99829ZM15.9907 8.81029C15.7347 8.81029 15.4677 8.89728 15.2717 9.09228L11.5527 12.8103C11.2957 13.0683 11.0367 13.0513 10.8347 12.7483L9.83453 11.2483C9.52813 10.7883 8.88782 10.6603 8.42822 10.9673C7.96872 11.2733 7.84062 11.9133 8.14692 12.3733L9.14692 13.8733C10.0497 15.2263 11.8097 15.3983 12.9597 14.2483L16.7097 10.4983C17.0997 10.1073 17.0997 9.48227 16.7097 9.09228C16.5137 8.89628 16.2467 8.81129 15.9907 8.81029Z" fill="#2F3030"/>
</svg>
