<svg width="24" height="24" viewBox="0 0 24 24" fill="none" xmlns="http://www.w3.org/2000/svg">
<path d="M7.00586 2.92969C4.79686 2.92969 3.00586 4.72069 3.00586 6.92969V16.9297C3.00586 19.1387 4.79686 20.9297 7.00586 20.9297H17.0059C19.2149 20.9297 21.0059 19.1387 21.0059 16.9297V6.92969C21.0059 4.72069 19.2149 2.92969 17.0059 2.92969H7.00586ZM9.00586 7.92969C9.26186 7.92969 9.52885 8.01569 9.72485 8.21069L12.0059 10.4917L14.2869 8.21069C14.4819 8.01569 14.7499 7.92969 15.0059 7.92969C15.2619 7.92969 15.5289 8.01569 15.7249 8.21069C16.1149 8.60169 16.1149 9.25768 15.7249 9.64868L13.4438 11.9297L15.7249 14.2107C16.1149 14.6017 16.1149 15.2577 15.7249 15.6487C15.3339 16.0387 14.6779 16.0387 14.2869 15.6487L12.0059 13.3677L9.72485 15.6487C9.33385 16.0387 8.67787 16.0387 8.28687 15.6487C7.89687 15.2577 7.89687 14.6017 8.28687 14.2107L10.5679 11.9297L8.28687 9.64868C7.89687 9.25768 7.89687 8.60169 8.28687 8.21069C8.48187 8.01569 8.74986 7.92969 9.00586 7.92969Z" fill="#2F3030"/>
</svg>
