<svg width="24" height="24" viewBox="0 0 24 24" fill="none" xmlns="http://www.w3.org/2000/svg">
<path d="M14.3071 4.02869C13.7761 3.87769 13.2089 4.18468 13.0571 4.71668L9.05711 18.7167C8.90541 19.2477 9.21361 19.8147 9.74471 19.9667C10.2757 20.1177 10.8429 19.8107 10.9947 19.2787L14.9947 5.27869C15.1464 4.74769 14.8382 4.18069 14.3071 4.02869ZM6.83841 5.02869C6.58741 5.07869 6.33531 5.20567 6.18211 5.43567L2.18211 11.4357C1.98311 11.7337 1.95921 12.1147 2.11971 12.4357L5.11971 18.4357C5.36661 18.9287 5.96941 19.1507 6.46341 18.9037C6.95741 18.6567 7.17911 18.0537 6.93211 17.5597L4.18211 12.0917L7.86971 6.55969C8.17601 6.10069 8.04791 5.46069 7.58841 5.15369C7.35861 5.00069 7.08941 4.97869 6.83841 5.02869ZM18.3384 5.05969C18.0956 4.97969 17.8354 4.96768 17.5884 5.09168C17.0944 5.33868 16.8727 5.94167 17.1197 6.43567L19.8697 11.9037L16.1821 17.4357C15.8758 17.8947 16.0039 18.5347 16.4634 18.8417C16.9229 19.1477 17.5633 19.0197 17.8697 18.5597L21.8697 12.5597C22.0687 12.2617 22.0926 11.8807 21.9321 11.5597L18.9321 5.55969C18.8087 5.31369 18.5812 5.14169 18.3384 5.05969Z" fill="#2F3030"/>
</svg>
