<svg width="24" height="24" viewBox="0 0 24 24" fill="none" xmlns="http://www.w3.org/2000/svg">
<path d="M11.999 1.95312C6.47602 1.95312 1.99902 6.43012 1.99902 11.9531C1.99902 17.4761 6.47602 21.9531 11.999 21.9531C12.08 21.9531 12.695 21.9661 12.905 21.9531C13.185 21.9351 13.437 21.8911 13.718 21.8281C15.05 21.5281 15.941 20.6311 16.187 19.4221C16.279 18.9641 16.23 18.6641 16.093 17.8281C16.037 17.4871 16.009 17.3241 15.999 17.1411C15.977 16.7211 16.064 16.4761 16.28 16.2651C16.472 16.0791 16.651 15.9791 16.874 15.9531C17.105 15.9261 17.341 15.9771 17.843 16.0781C18.473 16.2051 18.683 16.2131 19.03 16.2031C20.516 16.1611 21.705 15.0451 21.905 13.5151C21.975 12.9841 21.999 12.4771 21.999 11.9531C21.999 6.43012 17.522 1.95312 11.999 1.95312ZM11.999 3.95312C16.417 3.95312 19.999 7.53511 19.999 11.9531C19.999 12.3881 19.964 12.8181 19.905 13.2651C19.83 13.8431 19.447 14.1891 18.968 14.2031C18.835 14.2071 18.708 14.2021 18.249 14.1091C17.549 13.9681 17.159 13.9251 16.655 13.9841C16.001 14.0611 15.387 14.3281 14.874 14.8281C14.196 15.4881 13.98 16.2861 14.03 17.2341C14.045 17.5131 14.056 17.7611 14.124 18.1721C14.216 18.7281 14.242 18.8981 14.218 19.0151C14.129 19.4531 13.844 19.7321 13.28 19.8591C13.106 19.8991 12.957 19.9421 12.78 19.9531C12.629 19.9631 12.489 19.9541 12.155 19.9531C12.075 19.9531 12.084 19.9531 11.999 19.9531C7.58102 19.9531 3.99902 16.3711 3.99902 11.9531C3.99902 7.53511 7.58102 3.95312 11.999 3.95312ZM12.999 6.07812C12.171 6.07812 11.499 6.75012 11.499 7.57811C11.499 8.40611 12.171 9.07811 12.999 9.07811C13.827 9.07811 14.499 8.40611 14.499 7.57811C14.499 6.75012 13.827 6.07812 12.999 6.07812ZM8.81104 7.26513C7.98304 7.26613 7.31104 7.93712 7.31104 8.76512C7.31104 9.59412 7.98304 10.2651 8.81104 10.2651C9.64004 10.2651 10.311 9.59412 10.311 8.76512C10.312 7.93712 9.64004 7.26513 8.81104 7.26513ZM16.218 8.98412C15.389 8.98412 14.718 9.65612 14.718 10.4841C14.718 11.3131 15.389 11.9841 16.218 11.9841C17.046 11.9841 17.718 11.3131 17.718 10.4841C17.718 9.65612 17.046 8.98412 16.218 8.98412ZM7.59302 11.4221C6.76402 11.4221 6.09302 12.0931 6.09302 12.9221C6.09302 13.7501 6.76402 14.4221 7.59302 14.4221C8.42102 14.4221 9.09302 13.7501 9.09302 12.9221C9.09302 12.0931 8.42102 11.4221 7.59302 11.4221ZM10.499 14.6721C9.67102 14.6721 8.99902 15.3431 8.99902 16.1721C8.99902 17.0001 9.67102 17.6721 10.499 17.6721C11.327 17.6721 11.999 17.0001 11.999 16.1721C11.999 15.3431 11.327 14.6721 10.499 14.6721Z" fill="#2F3030"/>
</svg>
