<svg width="24" height="24" viewBox="0 0 24 24" fill="none" xmlns="http://www.w3.org/2000/svg">
<path d="M11.998 1.95312C10.893 1.95312 9.99804 2.84812 9.99804 3.95312H4.99805C4.44605 3.95312 3.99805 4.40112 3.99805 4.95312C3.99805 5.50511 4.44605 5.95311 4.99805 5.95311V17.9531C4.99805 20.1431 6.80304 21.9531 8.99804 21.9531H14.998C17.193 21.9531 18.998 20.1481 18.998 17.9531V5.95311C19.55 5.95311 19.998 5.50511 19.998 4.95312C19.998 4.40112 19.55 3.95312 18.998 3.95312H13.998C13.998 2.84812 13.103 1.95312 11.998 1.95312ZM6.99804 5.95311H16.998V17.9531C16.998 19.0501 16.108 19.9531 15.029 19.9531L8.99804 19.9221C7.89604 19.9221 6.99804 19.0321 6.99804 17.9531V5.95311ZM9.99804 7.95311C9.44604 7.95311 8.99804 8.40111 8.99804 8.9531V16.9531C8.99804 17.5051 9.44604 17.9531 9.99804 17.9531C10.55 17.9531 10.998 17.5051 10.998 16.9531V8.9531C10.998 8.40111 10.55 7.95311 9.99804 7.95311ZM13.998 7.95311C13.446 7.95311 12.998 8.40111 12.998 8.9531V16.9531C12.998 17.5051 13.446 17.9531 13.998 17.9531C14.55 17.9531 14.998 17.5051 14.998 16.9531V8.9531C14.998 8.40111 14.55 7.95311 13.998 7.95311Z" fill="#FB006D"/>
</svg>
