<svg width="24" height="24" viewBox="0 0 24 24" fill="none" xmlns="http://www.w3.org/2000/svg">
<path fill-rule="evenodd" clip-rule="evenodd" d="M21.1281 9.71474C21.2395 9.97997 21.2969 10.2648 21.2969 10.5524V15.0265C21.2969 17.5387 20.8692 19.5 19.7213 20.8261C18.5476 22.1821 16.7813 22.6972 14.55 22.6972H9.45C7.21866 22.6972 5.45244 22.1821 4.27874 20.8261C3.13079 19.5 2.70312 17.5387 2.70312 15.0265V9.1346C2.70312 6.62238 3.13079 4.66112 4.27874 3.33493C5.45244 1.97899 7.21866 1.46387 9.45 1.46387H13.2039C13.4655 1.46387 13.7245 1.51474 13.9666 1.61366C14.2618 1.73425 14.5241 1.92311 14.7322 2.16473L20.8619 9.28469C20.9725 9.41324 21.0624 9.55836 21.1281 9.71474ZM4.29688 9.1346C4.29688 6.73691 4.71921 5.26125 5.48376 4.37799C6.22256 3.52448 7.43134 3.05762 9.45 3.05762H12.8281V6.04936C12.8281 7.55636 13.0326 8.80405 13.7648 9.65464C14.5286 10.5418 15.681 10.7955 17.025 10.7955H19.7031V15.0265C19.7031 17.4242 19.2808 18.8998 18.5162 19.7831C17.7774 20.6366 16.5687 21.1034 14.55 21.1034H9.45C7.43134 21.1034 6.22256 20.6366 5.48376 19.7831C4.71921 18.8998 4.29688 17.4242 4.29688 15.0265V9.1346ZM14.4219 6.04936V4.24708L18.6874 9.20175H17.025C15.819 9.20175 15.2714 8.96182 14.9727 8.61481C14.6424 8.23125 14.4219 7.50431 14.4219 6.04936Z" fill="#00C2FF"/>
</svg>
