<svg width="24" height="24" viewBox="0 0 24 24" fill="none" xmlns="http://www.w3.org/2000/svg">
<path d="M9.99805 2.01416C6.43705 2.01416 2.99805 5.41996 2.99805 8.98296C2.99805 8.99326 2.99805 9.00376 2.99805 9.01416C2.99805 11.4742 2.99805 14.4105 2.99805 14.6704C2.99805 16.5342 4.60906 18.0142 6.56006 18.0142H6.99805V18.6704C6.99805 20.5342 8.60906 22.0142 10.5601 22.0142H17.436C19.387 22.0142 20.998 20.5342 20.998 18.6704V9.35796C20.998 7.49416 19.387 6.01416 17.436 6.01416H16.998V5.35796C16.998 3.49416 15.387 2.01416 13.436 2.01416C13.222 2.01416 13.212 2.01416 9.99805 2.01416ZM10.998 4.01416C12.16 4.01416 13.284 4.01416 13.436 4.01416C14.324 4.01416 14.998 4.64436 14.998 5.35796V14.6704C14.998 15.384 14.324 16.0142 13.436 16.0142H6.56006C5.67206 16.0142 4.99805 15.384 4.99805 14.6704C4.99805 14.4564 4.99805 12.0945 4.99805 10.0142H7.43604C9.38603 10.0142 10.998 8.53426 10.998 6.67036V4.01416ZM8.99805 4.26416V6.67036C8.99805 7.38396 8.32404 8.01416 7.43604 8.01416H5.21704C5.67604 6.24696 7.22605 4.73456 8.99805 4.26416ZM16.998 8.01416H17.436C18.324 8.01416 18.998 8.64436 18.998 9.35796V18.6704C18.998 19.384 18.324 20.0142 17.436 20.0142H10.5601C9.67206 20.0142 8.99805 19.384 8.99805 18.6704V18.0142H13.436C15.387 18.0142 16.998 16.5342 16.998 14.6704V8.01416Z" fill="#2F3030"/>
</svg>
