<svg width="24" height="24" viewBox="0 0 24 24" fill="none" xmlns="http://www.w3.org/2000/svg">
<path fill-rule="evenodd" clip-rule="evenodd" d="M10.3028 4.01974H18.4211C19.5583 4.01974 20.4803 4.94168 20.4803 6.07895V8.12292H10.3028V4.01974ZM10.3028 9.64266H20.4803V14.3572H10.3028V9.64266ZM8.7831 14.3572V9.64266H3.51974V14.3572H8.7831ZM3.51974 15.8769H8.7831V19.9803H5.57895C4.44168 19.9803 3.51974 19.0583 3.51974 17.9211V15.8769ZM10.3028 15.8769H20.4803V17.9211C20.4803 19.0583 19.5583 19.9803 18.4211 19.9803H10.3028V15.8769ZM8.7831 4.01974V8.12292H3.51974V6.07895C3.51974 4.94168 4.44168 4.01974 5.57895 4.01974H8.7831ZM2 6.07895C2 4.10235 3.60235 2.5 5.57895 2.5H18.4211C20.3976 2.5 22 4.10235 22 6.07895V17.9211C22 19.8976 20.3977 21.5 18.4211 21.5H5.57895C3.60235 21.5 2 19.8977 2 17.9211V6.07895Z" fill="#8263FF"/>
</svg>
