<svg width="24" height="24" viewBox="0 0 24 24" fill="none" xmlns="http://www.w3.org/2000/svg">
<path d="M3.99121 3.92166C3.43891 3.92166 2.99121 4.36966 2.99121 4.92166V18.9216C2.99121 19.4736 3.43891 19.9216 3.99121 19.9216C4.54351 19.9216 4.99121 19.4736 4.99121 18.9216V12.9216H10.9912V18.9216C10.9912 19.4736 11.4389 19.9216 11.9912 19.9216C12.5435 19.9216 12.9912 19.4736 12.9912 18.9216V4.92166C12.9912 4.36966 12.5435 3.92166 11.9912 3.92166C11.4389 3.92166 10.9912 4.36966 10.9912 4.92166V10.9216H4.99121V4.92166C4.99121 4.36966 4.54351 3.92166 3.99121 3.92166ZM20.3662 3.98368C20.0182 3.83968 19.5875 3.88767 19.2724 4.20267L15.2724 8.20266C14.8819 8.59366 14.8819 9.24965 15.2724 9.64065C15.663 10.0306 16.3194 10.0306 16.71 9.64065L18.9912 7.35867V18.9216C18.9912 19.4736 19.4389 19.9216 19.9912 19.9216C20.5435 19.9216 20.9912 19.4736 20.9912 18.9216V4.92166C20.9912 4.47666 20.7142 4.12868 20.3662 3.98368Z" fill="#2F3030"/>
</svg>
