<svg width="24" height="24" viewBox="0 0 24 24" fill="none" xmlns="http://www.w3.org/2000/svg">
<path d="M3.01367 3.90625C2.46137 3.90625 2.01367 4.35425 2.01367 4.90625V18.9062C2.01367 19.4582 2.46137 19.9062 3.01367 19.9062C3.56597 19.9062 4.01367 19.4582 4.01367 18.9062V12.9062H10.0137V18.9062C10.0137 19.4582 10.4617 19.9062 11.0137 19.9062C11.5657 19.9062 12.0137 19.4582 12.0137 18.9062V4.90625C12.0137 4.35425 11.5657 3.90625 11.0137 3.90625C10.4617 3.90625 10.0137 4.35425 10.0137 4.90625V10.9062H4.01367V4.90625C4.01367 4.35425 3.56597 3.90625 3.01367 3.90625ZM18.0137 3.90625C15.8047 3.90625 14.0137 5.69724 14.0137 7.90623C14.0137 8.45823 14.4617 8.90623 15.0137 8.90623C15.5657 8.90623 16.0137 8.45823 16.0137 7.90623C16.0137 6.80124 16.9087 5.90624 18.0137 5.90624C19.1187 5.90624 20.0137 6.80124 20.0137 7.90623C20.0137 9.64023 19.3687 10.6142 17.2947 12.6872C14.8687 15.1142 14.0137 16.4732 14.0137 18.9062C14.0137 19.4582 14.4617 19.9062 15.0137 19.9062C16.1247 19.9062 20.1247 19.9062 21.0137 19.9062C21.5657 19.9062 22.0137 19.4582 22.0137 18.9062C22.0137 18.3542 21.5657 17.9062 21.0137 17.9062C20.3097 17.9062 17.8897 17.9062 16.2637 17.9062C16.5107 16.7402 17.1137 15.7432 18.7327 14.1252C21.1587 11.6982 22.0137 10.3392 22.0137 7.90623C22.0137 5.69724 20.2227 3.90625 18.0137 3.90625Z" fill="#2F3030"/>
</svg>
