<svg width="24" height="24" viewBox="0 0 24 24" fill="none" xmlns="http://www.w3.org/2000/svg">
<path d="M3.01465 3.90625C2.46265 3.90625 2.01465 4.35425 2.01465 4.90625V18.9062C2.01465 19.4582 2.46265 19.9062 3.01465 19.9062C3.56665 19.9062 4.01465 19.4582 4.01465 18.9062V12.9062H10.0146V18.9062C10.0146 19.4582 10.4626 19.9062 11.0146 19.9062C11.5666 19.9062 12.0146 19.4582 12.0146 18.9062V4.90625C12.0146 4.35425 11.5666 3.90625 11.0146 3.90625C10.4626 3.90625 10.0146 4.35425 10.0146 4.90625V10.9062H4.01465V4.90625C4.01465 4.35425 3.56665 3.90625 3.01465 3.90625ZM18.0146 3.90625C15.8056 3.90625 14.0146 5.69724 14.0146 7.90623C14.0146 8.45823 14.4626 8.90623 15.0146 8.90623C15.5666 8.90623 16.0146 8.45823 16.0146 7.90623C16.0146 6.80124 16.9096 5.90624 18.0146 5.90624C19.1196 5.90624 20.0146 6.80124 20.0146 7.90623C20.0146 9.14923 19.2616 10.1632 17.5766 11.0002C17.1826 11.1962 17.0226 11.6112 17.0136 11.9092C17.0046 12.2082 17.1346 12.5842 17.5766 12.8122C19.2496 13.6742 20.0146 14.6632 20.0146 15.9062C20.0146 17.0112 19.1196 17.9062 18.0146 17.9062C16.9096 17.9062 16.0146 17.0112 16.0146 15.9062C16.0146 15.3542 15.5666 14.9062 15.0146 14.9062C14.4626 14.9062 14.0146 15.3542 14.0146 15.9062C14.0146 18.1152 15.8056 19.9062 18.0146 19.9062C20.2236 19.9062 22.0146 18.1152 22.0146 15.9062C22.0146 14.2792 21.2666 12.9522 19.9196 11.9022C21.2276 10.9272 22.0146 9.53323 22.0146 7.90623C22.0146 5.69724 20.2236 3.90625 18.0146 3.90625Z" fill="#2F3030"/>
</svg>
