<svg width="24" height="24" viewBox="0 0 24 24" fill="none" xmlns="http://www.w3.org/2000/svg">
<path d="M11.9961 3.90625C9.78709 3.90625 7.99609 5.69725 7.99609 7.90625C7.99609 8.45825 8.44409 8.90625 8.99609 8.90625C9.54809 8.90625 9.99609 8.45825 9.99609 7.90625C9.99609 6.80125 10.8911 5.90625 11.9961 5.90625C13.1011 5.90625 13.9961 6.80125 13.9961 7.90625C13.9961 8.87525 13.6861 9.47526 12.6841 10.8123C11.4361 12.4753 10.9961 13.3752 10.9961 14.9062C10.9961 15.4583 11.4441 15.9062 11.9961 15.9062C12.5481 15.9062 12.9961 15.4583 12.9961 14.9062C12.9961 13.9373 13.3061 13.3372 14.3081 12.0002C15.5561 10.3372 15.9961 9.43725 15.9961 7.90625C15.9961 5.69725 14.2051 3.90625 11.9961 3.90625ZM11.9961 17.9062C11.4441 17.9062 10.9961 18.3542 10.9961 18.9062C10.9961 19.4583 11.4441 19.9062 11.9961 19.9062C12.5481 19.9062 12.9961 19.4583 12.9961 18.9062C12.9961 18.3542 12.5481 17.9062 11.9961 17.9062Z" fill="#2F3030"/>
</svg>
