<svg width="24" height="24" viewBox="0 0 24 24" fill="none" xmlns="http://www.w3.org/2000/svg">
<path d="M21.4697 22.5304C21.7627 22.8233 22.2375 22.8232 22.5304 22.5303C22.8233 22.2373 22.8232 21.7625 22.5303 21.4696L21.4697 22.5304ZM19.1582 10.9517C19.1582 15.4812 15.4853 19.1535 10.9541 19.1535V20.6535C16.3134 20.6535 20.6582 16.31 20.6582 10.9517L19.1582 10.9517ZM10.9541 19.1535C6.42292 19.1535 2.75 15.4812 2.75 10.9517L1.25 10.9517C1.25 16.31 5.59487 20.6535 10.9541 20.6535V19.1535ZM2.75 10.9517C2.75 6.42223 6.42292 2.75 10.9541 2.75V1.25C5.59487 1.25 1.25 5.59342 1.25 10.9517L2.75 10.9517ZM10.9541 2.75C15.4853 2.75 19.1582 6.42223 19.1582 10.9517L20.6582 10.9517C20.6582 5.59342 16.3134 1.25 10.9541 1.25V2.75ZM16.3531 17.4151L21.4697 22.5304L22.5303 21.4696L17.4136 16.3543L16.3531 17.4151Z" fill="#21232A"/>
</svg>
