<svg width="24" height="24" viewBox="0 0 24 24" fill="none" xmlns="http://www.w3.org/2000/svg">
<path d="M20.1818 12.3973C20.1818 17.418 16.1116 21.4882 11.0909 21.4882C9.63663 21.4882 8.26215 21.1467 7.04321 20.5396C6.71928 20.3783 6.34902 20.3246 5.99944 20.4181L3.97577 20.9596C3.09728 21.1946 2.29359 20.3909 2.52865 19.5125L3.07011 17.4888C3.16364 17.1392 3.10994 16.7689 2.9486 16.445C2.34147 15.226 2 13.8516 2 12.3973C2 7.37653 6.07013 3.3064 11.0909 3.3064" stroke="url(#paint0_linear_12410_5325)" stroke-width="1.5" stroke-linecap="round"/>
<path d="M16.5672 2.95381C16.8117 2.36433 17.6468 2.36447 17.891 2.95403L18.2097 3.72334C18.6944 4.89331 19.6239 5.82291 20.7938 6.30777L21.5579 6.6244C22.1475 6.86878 22.1474 7.70411 21.5576 7.94829L20.7884 8.26678C19.6173 8.75166 18.6869 9.68215 18.2021 10.8533L17.8877 11.6132C17.6434 12.2032 16.8075 12.2031 16.5635 11.6129L16.2468 10.8471C15.7622 9.67497 14.8312 8.74372 13.6592 8.25872L12.8971 7.94335C12.3072 7.69923 12.307 6.86369 12.8969 6.61937L13.6663 6.30064C14.8361 5.8161 15.7656 4.88696 16.2506 3.71741L16.5672 2.95381Z" fill="url(#paint1_linear_12410_5325)"/>
<defs>
<linearGradient id="paint0_linear_12410_5325" x1="6.94038" y1="17.7702" x2="19.8274" y2="14.106" gradientUnits="userSpaceOnUse">
<stop stop-color="#8032FF"/>
<stop offset="1" stop-color="#FB3DFF"/>
</linearGradient>
<linearGradient id="paint1_linear_12410_5325" x1="10.4259" y1="15.3832" x2="20.8041" y2="11.1784" gradientUnits="userSpaceOnUse">
<stop stop-color="#8032FF"/>
<stop offset="1" stop-color="#FB3DFF"/>
</linearGradient>
</defs>
</svg>
