<svg width="24" height="24" viewBox="0 0 24 24" fill="none" xmlns="http://www.w3.org/2000/svg">
<path d="M10.06 5.32771V5.33V7.23C10.06 8.23613 9.79557 8.92232 9.35895 9.35895C8.92232 9.79557 8.23613 10.06 7.23 10.06H5.33C4.32387 10.06 3.63768 9.79557 3.20105 9.35895C2.76443 8.92232 2.5 8.23613 2.5 7.23V5.33C2.5 4.32387 2.76441 3.63797 3.20191 3.20145C3.63959 2.76474 4.32828 2.5 5.34 2.5H7.24C8.24631 2.5 8.93213 2.76451 9.3673 3.20066C9.80228 3.63661 10.0646 4.322 10.06 5.32771Z" stroke="#191919"/>
<path d="M18.6704 2H16.7704C14.5904 2 13.4404 3.15 13.4404 5.33V7.23C13.4404 9.41 14.5904 10.56 16.7704 10.56H18.6704C20.8504 10.56 22.0004 9.41 22.0004 7.23V5.33C22.0004 3.15 20.8504 2 18.6704 2Z" fill="#191919"/>
<path d="M18.6704 13.4302H16.7704C14.5904 13.4302 13.4404 14.5802 13.4404 16.7602V18.6602C13.4404 20.8402 14.5904 21.9902 16.7704 21.9902H18.6704C20.8504 21.9902 22.0004 20.8402 22.0004 18.6602V16.7602C22.0004 14.5802 20.8504 13.4302 18.6704 13.4302Z" fill="#191919"/>
<path d="M7.24 13.4302H5.34C3.15 13.4302 2 14.5802 2 16.7602V18.6602C2 20.8502 3.15 22.0002 5.33 22.0002H7.23C9.41 22.0002 10.56 20.8502 10.56 18.6702V16.7702C10.57 14.5802 9.42 13.4302 7.24 13.4302Z" fill="#191919"/>
</svg>
