<svg width="24" height="24" viewBox="0 0 24 24" fill="none" xmlns="http://www.w3.org/2000/svg">
<path d="M20.9395 23.0608C21.5253 23.6465 22.4751 23.6464 23.0608 23.0605C23.6465 22.4747 23.6464 21.5249 23.0605 20.9392L20.9395 23.0608ZM18.4082 10.9517C18.4082 15.0668 15.0713 18.4035 10.9541 18.4035V21.4035C16.7274 21.4035 21.4082 16.7244 21.4082 10.9517L18.4082 10.9517ZM10.9541 18.4035C6.83695 18.4035 3.5 15.0668 3.5 10.9517L0.5 10.9517C0.5 16.7244 5.18085 21.4035 10.9541 21.4035V18.4035ZM3.5 10.9517C3.5 6.83663 6.83695 3.5 10.9541 3.5V0.5C5.18085 0.5 0.5 5.17902 0.5 10.9517L3.5 10.9517ZM10.9541 3.5C15.0713 3.5 18.4082 6.83663 18.4082 10.9517L21.4082 10.9517C21.4082 5.17902 16.7274 0.5 10.9541 0.5V3.5ZM15.8228 17.9455L20.9395 23.0608L23.0605 20.9392L17.9439 15.8239L15.8228 17.9455Z" fill="#00B5FF"/>
</svg>
