<svg width="24" height="24" viewBox="0 0 24 24" fill="none" xmlns="http://www.w3.org/2000/svg">
<path d="M5.7 10.2H7.5C9.3 10.2 10.2 9.3 10.2 7.5V5.7C10.2 3.9 9.3 3 7.5 3H5.7C3.9 3 3 3.9 3 5.7V7.5C3 9.3 3.9 10.2 5.7 10.2Z" stroke="#171717" stroke-width="1.35" stroke-miterlimit="10" stroke-linecap="round" stroke-linejoin="round"/>
<path d="M16.5008 10.2H18.3008C20.1008 10.2 21.0008 9.3 21.0008 7.5V5.7C21.0008 3.9 20.1008 3 18.3008 3H16.5008C14.7008 3 13.8008 3.9 13.8008 5.7V7.5C13.8008 9.3 14.7008 10.2 16.5008 10.2Z" stroke="#171717" stroke-width="1.35" stroke-miterlimit="10" stroke-linecap="round" stroke-linejoin="round"/>
<path d="M16.5008 20.9998H18.3008C20.1008 20.9998 21.0008 20.0998 21.0008 18.2998V16.4998C21.0008 14.6998 20.1008 13.7998 18.3008 13.7998H16.5008C14.7008 13.7998 13.8008 14.6998 13.8008 16.4998V18.2998C13.8008 20.0998 14.7008 20.9998 16.5008 20.9998Z" stroke="#171717" stroke-width="1.35" stroke-miterlimit="10" stroke-linecap="round" stroke-linejoin="round"/>
<path d="M5.7 20.9998H7.5C9.3 20.9998 10.2 20.0998 10.2 18.2998V16.4998C10.2 14.6998 9.3 13.7998 7.5 13.7998H5.7C3.9 13.7998 3 14.6998 3 16.4998V18.2998C3 20.0998 3.9 20.9998 5.7 20.9998Z" stroke="#171717" stroke-width="1.35" stroke-miterlimit="10" stroke-linecap="round" stroke-linejoin="round"/>
</svg>
