<svg width="24" height="24" viewBox="0 0 24 24" fill="none" xmlns="http://www.w3.org/2000/svg">
<path d="M11.0117 3.90625C10.4597 3.90625 10.0117 4.35425 10.0117 4.90625C10.0117 5.45824 10.4597 5.90624 11.0117 5.90624H12.6677L9.26171 17.9062H7.01172C6.45972 17.9062 6.01172 18.3542 6.01172 18.9062C6.01172 19.4582 6.45972 19.9062 7.01172 19.9062H13.0117C13.5637 19.9062 14.0117 19.4582 14.0117 18.9062C14.0117 18.3542 13.5637 17.9062 13.0117 17.9062H11.3557L14.7617 5.90624H17.0117C17.5637 5.90624 18.0117 5.45824 18.0117 4.90625C18.0117 4.35425 17.5637 3.90625 17.0117 3.90625H11.0117Z" fill="#2F3030"/>
</svg>
