<svg width="24" height="24" viewBox="0 0 24 24" fill="none" xmlns="http://www.w3.org/2000/svg">
<path d="M4.21685 5.21492L3.09185 6.33992C2.98045 6.45092 2.98045 6.66593 3.09185 6.77693C3.20315 6.88893 3.38675 6.88893 3.49805 6.77693L4.15435 6.12093V8.83992C4.15435 8.99692 4.27815 9.12093 4.43555 9.12093C4.59295 9.12093 4.71685 8.99692 4.71685 8.83992V5.40193C4.71685 5.14793 4.39635 5.03492 4.21685 5.21492ZM7.99805 6.12093C7.44575 6.12093 6.99805 6.56893 6.99805 7.12093C6.99805 7.67293 7.44575 8.12093 7.99805 8.12093H20.9981C21.5504 8.12093 21.9981 7.67293 21.9981 7.12093C21.9981 6.56893 21.5504 6.12093 20.9981 6.12093H7.99805ZM4.12305 10.1209C3.49335 10.1209 2.99805 10.6419 2.99805 11.2769C2.99805 11.4359 3.12185 11.5579 3.27935 11.5589C3.43675 11.5589 3.56055 11.4359 3.56055 11.2769C3.56055 10.9599 3.80825 10.6829 4.12305 10.6829C4.43895 10.6829 4.71935 10.9629 4.71685 11.2769C4.71415 11.6069 4.55555 11.7449 4.12305 12.0269C4.04635 12.0769 4.07845 12.0679 3.99805 12.1209C3.32265 12.5659 2.99635 12.9859 2.99805 13.8089C2.99835 13.9679 3.12165 14.1219 3.27935 14.1209H4.99805C5.15545 14.1199 5.27995 13.9989 5.27935 13.8399C5.27865 13.6809 5.15545 13.5579 4.99805 13.5589L3.74805 13.5269C3.82535 13.1799 3.87905 12.9159 4.27935 12.6519C4.35575 12.6019 4.38815 12.5779 4.46685 12.5269C5.04465 12.1499 5.27465 11.8519 5.27935 11.2769C5.28445 10.6419 4.75425 10.1209 4.12305 10.1209ZM7.99805 11.1209C7.44575 11.1209 6.99805 11.5689 6.99805 12.1209C6.99805 12.6729 7.44575 13.1209 7.99805 13.1209H20.9981C21.5504 13.1209 21.9981 12.6729 21.9981 12.1209C21.9981 11.5689 21.5504 11.1209 20.9981 11.1209H7.99805ZM4.15435 15.1209C3.66235 15.1209 3.21775 15.4439 3.06055 15.9019C3.01985 16.0209 2.99805 16.1499 2.99805 16.2769C2.99805 16.4349 3.12155 16.5579 3.27935 16.5589C3.43705 16.5589 3.56055 16.4349 3.56055 16.2769C3.56055 16.2129 3.57155 16.1489 3.59185 16.0899C3.67035 15.8609 3.90825 15.6829 4.15435 15.6829C4.46985 15.6829 4.71685 15.9619 4.71685 16.2769C4.71685 16.5929 4.46985 16.8399 4.15435 16.8399C3.99655 16.8399 3.84185 16.9629 3.84185 17.1209C3.84185 17.2789 3.99645 17.4019 4.15435 17.4019C4.46985 17.4019 4.71685 17.6489 4.71685 17.9649C4.71685 18.2799 4.46985 18.5589 4.15435 18.5589C3.83875 18.5589 3.56055 18.2799 3.56055 17.9649C3.56055 17.8069 3.43715 17.684 3.27935 17.683C3.12155 17.683 2.99805 17.8069 2.99805 17.9649C2.99805 18.5959 3.52305 19.1209 4.15435 19.1209C4.78545 19.1209 5.27935 18.5959 5.27935 17.9649C5.27935 17.6089 5.09695 17.3309 4.84185 17.1209C5.09695 16.9109 5.27935 16.6329 5.27935 16.2769C5.27935 15.6459 4.78545 15.1209 4.15435 15.1209ZM7.99805 16.1209C7.44575 16.1209 6.99805 16.5689 6.99805 17.1209C6.99805 17.6729 7.44575 18.1209 7.99805 18.1209H20.9981C21.5504 18.1209 21.9981 17.6729 21.9981 17.1209C21.9981 16.5689 21.5504 16.1209 20.9981 16.1209H7.99805Z" fill="#2F3030"/>
</svg>
