<svg width="29" height="28" viewBox="0 0 29 28" fill="none" xmlns="http://www.w3.org/2000/svg">
<path d="M11.5 24H17.5C22.5 24 24.5 22 24.5 17V11C24.5 6 22.5 4 17.5 4H11.5C6.5 4 4.5 6 4.5 11V17C4.5 22 6.5 24 11.5 24Z" stroke="#1E2022" stroke-width="1.39709" stroke-linecap="round" stroke-linejoin="round"/>
<path d="M18.168 12C19.2725 12 20.168 11.1046 20.168 10C20.168 8.89543 19.2725 8 18.168 8C17.0634 8 16.168 8.89543 16.168 10C16.168 11.1046 17.0634 12 18.168 12Z" stroke="#1E2022" stroke-width="1.5" stroke-linecap="round" stroke-linejoin="round"/>
<path d="M23.9443 20.3968L19.0143 17.0868C18.2243 16.5568 17.0843 16.6168 16.3743 17.2268L16.0443 17.5168C15.2643 18.1868 14.0043 18.1868 13.2243 17.5168L9.06434 13.9468C8.28434 13.2768 7.02434 13.2768 6.24434 13.9468L4.61434 15.3468" stroke="#1E2022" stroke-width="1.5" stroke-linecap="round" stroke-linejoin="round"/>
</svg>
