<svg width="24" height="24" viewBox="0 0 24 24" fill="none" xmlns="http://www.w3.org/2000/svg">
<path d="M3.01416 5.00488C2.46216 5.00488 2.01416 5.45288 2.01416 6.00488C2.01416 6.55688 2.46216 7.00488 3.01416 7.00488H21.0142C21.5662 7.00488 22.0142 6.55688 22.0142 6.00488C22.0142 5.45288 21.5662 5.00488 21.0142 5.00488H3.01416ZM13.0142 9.00488C12.4622 9.00488 12.0142 9.45288 12.0142 10.0049C12.0142 10.5569 12.4622 11.0049 13.0142 11.0049H21.0142C21.5662 11.0049 22.0142 10.5569 22.0142 10.0049C22.0142 9.45288 21.5662 9.00488 21.0142 9.00488H13.0142ZM5.17017 9.09888C3.82317 10.1339 3.01416 11.7419 3.01416 13.4739C3.01416 13.4839 3.01416 13.4949 3.01416 13.5049C3.01416 14.3339 3.68516 15.0049 4.51416 15.0049C5.34316 15.0049 6.01416 14.3339 6.01416 13.5049C6.01416 12.6759 5.34316 12.0049 4.51416 12.0049C4.44316 12.0049 4.33316 11.9959 4.26416 12.0049C4.54416 11.1559 5.04816 10.4299 5.76416 9.87988C5.98316 9.71188 6.02615 9.41187 5.85815 9.19287C5.68915 8.97287 5.38917 8.92988 5.17017 9.09888ZM9.17017 9.09888C7.82317 10.1339 7.01416 11.7419 7.01416 13.4739C7.01416 13.4839 7.01416 13.4949 7.01416 13.5049C7.01416 14.3339 7.68516 15.0049 8.51416 15.0049C9.34316 15.0049 10.0142 14.3339 10.0142 13.5049C10.0142 12.6759 9.34316 12.0049 8.51416 12.0049C8.44316 12.0049 8.33316 12.0269 8.26416 12.0359C8.54416 11.1869 9.04816 10.4299 9.76416 9.87988C9.98316 9.71188 10.0262 9.41187 9.85815 9.19287C9.68915 8.97287 9.38917 8.92988 9.17017 9.09888ZM13.0142 13.0049C12.4622 13.0049 12.0142 13.4529 12.0142 14.0049C12.0142 14.5569 12.4622 15.0049 13.0142 15.0049H21.0142C21.5662 15.0049 22.0142 14.5569 22.0142 14.0049C22.0142 13.4529 21.5662 13.0049 21.0142 13.0049H13.0142ZM3.01416 17.0049C2.46216 17.0049 2.01416 17.4529 2.01416 18.0049C2.01416 18.5569 2.46216 19.0049 3.01416 19.0049H21.0142C21.5662 19.0049 22.0142 18.5569 22.0142 18.0049C22.0142 17.4529 21.5662 17.0049 21.0142 17.0049H3.01416Z" fill="#2F3030"/>
</svg>
