<svg width="24" height="24" viewBox="0 0 24 24" fill="none" xmlns="http://www.w3.org/2000/svg">
<path d="M16.9946 1.95312C16.7296 1.95312 16.4636 2.04713 16.2756 2.23413C15.7196 2.79013 13.7186 4.79115 13.2746 5.23615L4.26961 14.2412L3.2686 15.2412C3.1296 15.3812 3.0576 15.5792 3.0186 15.7732L2.0186 20.7762C1.8786 21.4762 2.47461 22.0721 3.17461 21.9331C3.80061 21.8071 7.5526 21.0572 8.1776 20.9322C8.3716 20.8932 8.56961 20.8212 8.70961 20.6822L9.70961 19.6812L18.7146 10.6762C19.1596 10.2322 21.1606 8.23012 21.7166 7.67512C21.9036 7.48712 21.9976 7.22113 21.9976 6.95613C21.9976 5.31912 21.5806 4.14912 20.7156 3.26612C19.8426 2.37511 18.6766 1.95312 16.9946 1.95312ZM17.3886 3.97211C18.2916 4.02511 18.8766 4.23216 19.2776 4.64216C19.6876 5.06016 19.9466 5.64015 20.0026 6.52516C19.4546 7.07216 18.6526 7.86212 17.9956 8.51912C17.2026 7.72612 16.2246 6.74815 15.4316 5.95515C16.0896 5.29815 16.8416 4.51911 17.3886 3.97211ZM13.9936 7.39314L16.5576 9.95717L8.9906 17.5241L6.4266 14.9602L13.9936 7.39314ZM4.9886 16.3982L7.5526 18.9621L7.4586 19.0562C6.7986 19.1882 5.46561 19.4672 4.23761 19.7132L4.89461 16.4922L4.9886 16.3982Z" fill="#2F3030"/>
</svg>
