<svg width="24" height="24" viewBox="0 0 24 24" fill="none" xmlns="http://www.w3.org/2000/svg">
<path d="M8.96704 2.45522C7.54904 2.90522 6.32605 3.63923 5.24805 4.64323C4.91505 4.95323 4.81305 5.46123 5.02905 5.86123C5.83005 7.34223 4.99204 8.92723 3.18504 9.01823C2.74304 9.04023 2.35205 9.36823 2.24805 9.79923C2.06905 10.5442 1.99805 11.1682 1.99805 11.9862C1.99805 12.6732 2.07204 13.4512 2.21704 14.1432C2.30704 14.5752 2.68305 14.8862 3.12305 14.9242C4.94105 15.0812 5.84105 16.4682 5.02905 18.2362C4.84905 18.6292 4.93105 19.0992 5.24805 19.3932C6.31005 20.3752 7.53004 21.0682 8.96704 21.5182C9.37704 21.6462 9.84004 21.4912 10.092 21.1432C11.204 19.6042 12.817 19.5992 13.873 21.1432C14.122 21.5062 14.578 21.6812 14.998 21.5492C16.385 21.1122 17.677 20.3692 18.748 19.3932C19.078 19.0922 19.165 18.6052 18.967 18.2052C18.135 16.5262 19.0921 14.9852 20.8101 14.9552C21.2661 14.9472 21.6721 14.6482 21.7791 14.2052C21.9521 13.4882 21.998 12.8642 21.998 11.9862C21.998 11.2322 21.909 10.4892 21.748 9.76823C21.646 9.31123 21.2471 8.98723 20.7791 8.98623C19.0881 8.98323 18.14 7.32123 18.967 5.86123C19.197 5.45523 19.1251 4.95723 18.7791 4.64323C17.6891 3.65323 16.36 2.87922 14.967 2.45522C14.539 2.32522 14.084 2.48523 13.842 2.86123C12.876 4.36223 11.072 4.38823 10.123 2.89323C9.88005 2.50923 9.39904 2.31822 8.96704 2.45522ZM15.045 4.57923C15.728 4.86523 16.267 5.16423 16.886 5.63323C16.16 7.93023 17.391 10.3162 19.941 10.8972C20.004 11.3102 19.998 11.5602 19.998 11.9862C19.998 12.4952 20.0051 12.6742 19.9471 13.0422C17.4081 13.5682 16.152 15.8872 16.859 18.3382C16.251 18.7792 15.816 19.0852 15.053 19.3802C13.261 17.5562 10.7731 17.4762 8.94305 19.3922C8.22905 19.0782 7.68006 18.7992 7.12506 18.3302C7.81306 15.8412 6.65005 13.6922 4.06805 13.0402C3.95305 12.5842 3.99905 11.2962 4.06505 10.9052C6.73505 10.2652 7.78705 7.90223 7.12405 5.62623C7.71005 5.18523 8.23706 4.86423 8.92206 4.58623C10.6471 6.34123 13.237 6.51623 15.045 4.57923ZM11.998 7.98623C9.78905 7.98623 7.99805 9.77723 7.99805 11.9862C7.99805 14.1962 9.78905 15.9862 11.998 15.9862C14.207 15.9862 15.998 14.1962 15.998 11.9862C15.998 9.77723 14.207 7.98623 11.998 7.98623ZM11.998 9.98623C13.103 9.98623 13.998 10.8822 13.998 11.9862C13.998 13.0912 13.103 13.9862 11.998 13.9862C10.893 13.9862 9.99805 13.0912 9.99805 11.9862C9.99805 10.8822 10.893 9.98623 11.998 9.98623Z" fill="#2F3030"/>
</svg>
