<svg width="20" height="20" viewBox="0 0 20 20" fill="none" xmlns="http://www.w3.org/2000/svg">
<g opacity="0.7">
<path d="M10 12.5C11.3807 12.5 12.5 11.3807 12.5 10C12.5 8.61929 11.3807 7.5 10 7.5C8.61929 7.5 7.5 8.61929 7.5 10C7.5 11.3807 8.61929 12.5 10 12.5Z" stroke="#171717" stroke-width="1.25" stroke-miterlimit="10" stroke-linecap="round" stroke-linejoin="round"/>
<path d="M1.66602 10.7334V9.26669C1.66602 8.40003 2.37435 7.68336 3.24935 7.68336C4.75768 7.68336 5.37435 6.6167 4.61602 5.30836C4.18268 4.55836 4.44102 3.58336 5.19935 3.15003L6.64102 2.32503C7.29935 1.93336 8.14935 2.1667 8.54102 2.82503L8.63268 2.98336C9.38268 4.2917 10.616 4.2917 11.3743 2.98336L11.466 2.82503C11.8577 2.1667 12.7077 1.93336 13.366 2.32503L14.8077 3.15003C15.566 3.58336 15.8243 4.55836 15.391 5.30836C14.6327 6.6167 15.2493 7.68336 16.7577 7.68336C17.6243 7.68336 18.341 8.39169 18.341 9.26669V10.7334C18.341 11.6 17.6327 12.3167 16.7577 12.3167C15.2493 12.3167 14.6327 13.3834 15.391 14.6917C15.8243 15.45 15.566 16.4167 14.8077 16.85L13.366 17.675C12.7077 18.0667 11.8577 17.8334 11.466 17.175L11.3743 17.0167C10.6243 15.7084 9.39102 15.7084 8.63268 17.0167L8.54102 17.175C8.14935 17.8334 7.29935 18.0667 6.64102 17.675L5.19935 16.85C4.44102 16.4167 4.18268 15.4417 4.61602 14.6917C5.37435 13.3834 4.75768 12.3167 3.24935 12.3167C2.37435 12.3167 1.66602 11.6 1.66602 10.7334Z" stroke="#171717" stroke-width="1.25" stroke-miterlimit="10" stroke-linecap="round" stroke-linejoin="round"/>
</g>
</svg>
