<svg width="24" height="24" viewBox="0 0 24 24" fill="none" xmlns="http://www.w3.org/2000/svg">
<path d="M16.998 1.95312C15.341 1.95312 13.998 3.29613 13.998 4.95312C13.998 5.21012 14.039 5.53013 14.1 5.76813L8.74704 9.50412C8.26804 9.18012 7.61905 8.95312 6.99805 8.95312C5.34105 8.95312 3.99805 10.2961 3.99805 11.9531C3.99805 13.6101 5.34105 14.9531 6.99805 14.9531C7.63005 14.9531 8.25404 14.7181 8.73804 14.3851L14.1021 18.1511C14.0361 18.3981 13.998 18.6851 13.998 18.9531C13.998 20.6101 15.341 21.9531 16.998 21.9531C18.655 21.9531 19.998 20.6101 19.998 18.9531C19.998 17.2961 18.655 15.9531 16.998 15.9531C16.366 15.9531 15.7501 16.1811 15.2671 16.5151L9.88904 12.7521C9.95404 12.5051 9.99805 12.2211 9.99805 11.9531C9.99805 11.6851 9.96004 11.3961 9.89404 11.1491L15.259 7.39713C15.738 7.72013 16.377 7.95312 16.998 7.95312C18.655 7.95312 19.998 6.61013 19.998 4.95312C19.998 3.29613 18.655 1.95312 16.998 1.95312ZM16.998 3.95312C17.55 3.95312 17.998 4.40112 17.998 4.95312C17.998 5.50513 17.55 5.95312 16.998 5.95312C16.446 5.95312 15.998 5.50513 15.998 4.95312C15.998 4.40112 16.446 3.95312 16.998 3.95312ZM6.99805 10.9531C7.55005 10.9531 7.99805 11.4011 7.99805 11.9531C7.99805 12.5051 7.55005 12.9531 6.99805 12.9531C6.44605 12.9531 5.99805 12.5051 5.99805 11.9531C5.99805 11.4011 6.44605 10.9531 6.99805 10.9531ZM16.998 17.9531C17.55 17.9531 17.998 18.4011 17.998 18.9531C17.998 19.5051 17.55 19.9531 16.998 19.9531C16.446 19.9531 15.998 19.5051 15.998 18.9531C15.998 18.4011 16.446 17.9531 16.998 17.9531Z" fill="#2F3030"/>
</svg>
