<svg width="24" height="24" viewBox="0 0 24 24" fill="none" xmlns="http://www.w3.org/2000/svg">
<path d="M12.0049 3.90625C9.79588 3.90625 8.00488 5.69724 8.00488 7.90623C8.00488 8.53823 8.16288 9.16424 8.44288 9.71824C8.62788 10.0862 8.92987 10.4732 9.34887 10.9062H6.00488C5.45288 10.9062 5.00488 11.3542 5.00488 11.9062C5.00488 12.4582 5.45288 12.9062 6.00488 12.9062H11.6609C11.7169 12.9552 11.7459 12.9732 11.8169 13.0312C12.1339 13.2902 12.4629 13.5712 12.7549 13.8432C12.9619 14.0372 13.1239 14.2002 13.2859 14.3752C13.5739 14.6852 13.7829 14.9742 13.8489 15.1252C13.9569 15.3732 14.0049 15.6272 14.0049 15.9062C14.0049 17.0112 13.1099 17.9062 12.0049 17.9062C10.8999 17.9062 10.0049 17.0112 10.0049 15.9062C10.0049 15.3542 9.55688 14.9062 9.00488 14.9062C8.45288 14.9062 8.00488 15.3542 8.00488 15.9062C8.00488 18.1152 9.79588 19.9062 12.0049 19.9062C14.2139 19.9062 16.0049 18.1152 16.0049 15.9062C16.0049 15.3522 15.8779 14.8112 15.6609 14.3122C15.4859 13.9082 15.1839 13.4932 14.7549 13.0312C14.7179 12.9912 14.6689 12.9472 14.6299 12.9062H18.0049C18.5569 12.9062 19.0049 12.4582 19.0049 11.9062C19.0049 11.3542 18.5569 10.9062 18.0049 10.9062H12.3489C12.2919 10.8572 12.2629 10.8382 12.1929 10.7812C11.8809 10.5272 11.5739 10.2642 11.2859 10.0002C11.1109 9.83822 10.9609 9.67823 10.8169 9.53123C10.5109 9.21623 10.3009 8.96624 10.2239 8.81224C10.0849 8.53624 10.0049 8.22423 10.0049 7.90623C10.0049 6.80124 10.8999 5.90624 12.0049 5.90624C13.1099 5.90624 14.0049 6.80124 14.0049 7.90623C14.0049 8.45823 14.4529 8.90623 15.0049 8.90623C15.5569 8.90623 16.0049 8.45823 16.0049 7.90623C16.0049 5.69724 14.2139 3.90625 12.0049 3.90625Z" fill="#2F3030"/>
</svg>
