<svg width="24" height="24" viewBox="0 0 24 24" fill="none" xmlns="http://www.w3.org/2000/svg">
<path d="M7.47028 3.90625C7.06928 3.90725 6.64926 4.13024 6.50226 4.59424L2.06427 18.5942C1.89727 19.1202 2.16327 19.6762 2.68927 19.8442C3.21527 20.0112 3.77227 19.7452 3.93927 19.2192L5.31427 14.9062H9.65826L11.0643 19.2192C11.2353 19.7442 11.7893 20.0142 12.3143 19.8442C12.8393 19.6732 13.1093 19.1192 12.9393 18.5942L8.40827 4.59424C8.25827 4.13124 7.87228 3.90525 7.47028 3.90625ZM17.5643 7.90625C16.0363 7.90625 14.5733 9.07324 14.0643 10.5942C13.8893 11.1172 14.1653 11.6682 14.6893 11.8442C15.2133 12.0192 15.7643 11.7422 15.9393 11.2192C16.1853 10.4842 16.9313 9.90625 17.5643 9.90625H18.4393C19.2703 9.90625 20.0023 10.7702 20.0023 11.9062V12.9062C19.1163 12.9062 18.0203 12.9062 17.5643 12.9062C15.5983 12.9062 14.0023 14.4672 14.0023 16.4062C14.0023 18.3462 15.5983 19.9092 17.5643 19.9062C17.6143 19.9062 17.9343 19.9072 18.0333 19.9062C18.8003 19.8982 19.5023 19.6422 20.1273 19.2502C20.2743 19.6192 20.5803 19.9062 21.0023 19.9062C21.5543 19.9062 22.0023 19.4582 22.0023 18.9062V15.9062C22.0043 15.6982 22.0023 13.9832 22.0023 13.9062V11.9062C22.0023 9.72825 20.4493 7.90625 18.4393 7.90625H17.5643ZM7.47028 8.18725L9.00226 12.9062H5.97028L7.47028 8.18725ZM17.5643 14.9062C18.0203 14.9062 19.1193 14.9062 20.0023 14.9062C20.0023 15.3602 20.0033 15.7782 20.0023 15.8752C19.9853 17.1102 19.0653 17.8952 18.0023 17.9062C17.9333 17.9072 17.6473 17.9062 17.5643 17.9062C16.6923 17.9072 16.0023 17.2292 16.0023 16.4062C16.0023 15.5842 16.6903 14.9062 17.5643 14.9062Z" fill="#2F3030"/>
</svg>
