<svg width="24" height="24" viewBox="0 0 24 24" fill="none" xmlns="http://www.w3.org/2000/svg">
<path d="M17.9626 7.46464L18.0479 7.55H17.9272H9.75C6.04969 7.55 3.05 10.5497 3.05 14.25C3.05 17.9503 6.04969 20.95 9.75 20.95H12.9C13.3694 20.95 13.75 20.5694 13.75 20.1C13.75 19.6306 13.3694 19.25 12.9 19.25H9.75C6.98858 19.25 4.75 17.0114 4.75 14.25C4.75 11.4886 6.98858 9.25 9.75 9.25H17.9272H18.0479L17.9626 9.33536L14.999 12.299C14.667 12.6309 14.667 13.1691 14.999 13.501C15.3309 13.833 15.8691 13.833 16.201 13.501L20.701 9.00104C21.033 8.6691 21.033 8.1309 20.701 7.79896L16.201 3.29896C15.8691 2.96701 15.3309 2.96701 14.999 3.29896C14.667 3.6309 14.667 4.1691 14.999 4.50104L17.9626 7.46464Z" fill="#1E2022" stroke="white" stroke-width="0.1"/>
</svg>
