<svg width="24" height="24" viewBox="0 0 24 24" fill="none" xmlns="http://www.w3.org/2000/svg">
<path d="M4.94255 3.26527C4.94255 2.90593 4.55208 2.68264 4.24238 2.86486L3.81247 3.11776L3.80916 3.11982C3.76398 3.14781 3.66745 3.20617 3.54496 3.28024C3.2521 3.45732 2.81082 3.72414 2.56784 3.8802C2.42402 3.97257 2.34473 4.13065 2.34473 4.29458C2.34473 4.70723 2.81039 4.95674 3.15587 4.74166C3.35003 4.62078 3.55347 4.49554 3.70477 4.40363V7.37893C3.70477 7.72073 3.98186 7.99782 4.32366 7.99782C4.66546 7.99782 4.94255 7.72073 4.94255 7.37893V3.26527Z" fill="#1E2022"/>
<path d="M8.58301 5.39891C8.58301 4.95708 8.97103 4.59891 9.44967 4.59891H20.7163C21.195 4.59891 21.583 4.95708 21.583 5.39891C21.583 5.84074 21.195 6.19891 20.7163 6.19891H9.44967C8.97103 6.19891 8.58301 5.84074 8.58301 5.39891Z" fill="#1E2022"/>
<path d="M4.10314 9.59781C3.0489 9.59781 2.34473 10.2971 2.34473 11.1724C2.34473 11.2909 2.44078 11.387 2.55927 11.387H3.32118C3.44336 11.387 3.5424 11.2879 3.5424 11.1657C3.5424 10.8915 3.73754 10.6618 4.06304 10.6618C4.2201 10.6618 4.34546 10.7123 4.42983 10.7902C4.51284 10.8668 4.56697 10.9798 4.56697 11.129C4.56697 11.3981 4.40564 11.6237 4.10588 11.9403L2.55373 13.6239C2.45587 13.7301 2.40154 13.8692 2.40154 14.0135C2.40154 14.331 2.65889 14.5883 2.97634 14.5883H5.54475C5.84226 14.5883 6.08343 14.3472 6.08343 14.0497C6.08343 13.7521 5.84226 13.511 5.54475 13.511H4.15996L4.95807 12.6144C5.47921 12.0566 5.80475 11.6509 5.80475 11.0454C5.80475 10.6226 5.62978 10.2556 5.32337 9.99697C5.01902 9.7401 4.59484 9.59781 4.10314 9.59781Z" fill="#1E2022"/>
<path d="M8.58301 12.0931C8.58301 11.6513 8.97103 11.2931 9.44967 11.2931H20.7163C21.195 11.2931 21.583 11.6513 21.583 12.0931C21.583 12.5349 21.195 12.8931 20.7163 12.8931H9.44967C8.97103 12.8931 8.58301 12.5349 8.58301 12.0931Z" fill="#1E2022"/>
<path d="M4.12893 16.1884C3.26832 16.1884 2.68143 16.597 2.46434 17.196C2.39958 17.3747 2.44877 17.5474 2.55589 17.6687C2.66003 17.7865 2.81824 17.8572 2.98597 17.8572C3.1498 17.8572 3.28669 17.7873 3.39459 17.7029C3.50153 17.6192 3.59074 17.513 3.66197 17.4208C3.74397 17.3148 3.88156 17.229 4.09885 17.229C4.2788 17.229 4.41468 17.2828 4.50291 17.3595C4.58964 17.4349 4.63954 17.5397 4.63954 17.6661L4.63955 17.6676C4.6408 17.8089 4.58759 17.9226 4.49811 18.0027C4.40714 18.0841 4.2679 18.1399 4.08548 18.1399H3.96518C3.67875 18.1399 3.44655 18.3721 3.44655 18.6586C3.44655 18.945 3.67875 19.1772 3.96518 19.1772H4.10888C4.34464 19.1772 4.50983 19.2408 4.61356 19.3293C4.71508 19.4158 4.77193 19.5379 4.77322 19.6893C4.7745 19.8432 4.71737 19.9702 4.61473 20.0608C4.51045 20.1528 4.34574 20.2185 4.11556 20.2185C3.84186 20.2185 3.66388 20.1208 3.56511 19.9928C3.49483 19.9017 3.40708 19.7979 3.30159 19.7164C3.19501 19.634 3.06042 19.5668 2.89959 19.5668C2.73171 19.5668 2.57342 19.6372 2.46852 19.7547C2.36081 19.8754 2.30991 20.0473 2.37092 20.2265C2.57944 20.8392 3.16318 21.2691 4.09217 21.2691C4.6067 21.2691 5.08562 21.1257 5.43906 20.8611C5.79549 20.5944 6.02342 20.2034 6.01765 19.7289C6.00958 19.1393 5.69587 18.7688 5.33908 18.589C5.62983 18.3915 5.87831 18.0387 5.8706 17.5425C5.8547 16.7194 5.08423 16.1884 4.12893 16.1884Z" fill="#1E2022"/>
<path d="M8.51758 18.7287C8.51758 18.2869 8.9056 17.9287 9.38424 17.9287H20.6509C21.1296 17.9287 21.5176 18.2869 21.5176 18.7287C21.5176 19.1706 21.1296 19.5287 20.6509 19.5287H9.38424C8.9056 19.5287 8.51758 19.1706 8.51758 18.7287Z" fill="#1E2022"/>
</svg>
