<svg width="24" height="24" viewBox="0 0 24 24" fill="none" xmlns="http://www.w3.org/2000/svg">
<path d="M7.00586 2.99072C4.79686 2.99072 3.00586 4.78172 3.00586 6.99072V16.9907C3.00586 19.1997 4.79686 20.9907 7.00586 20.9907H17.0059C19.2149 20.9907 21.0059 19.1997 21.0059 16.9907V6.99072C21.0059 4.78172 19.2149 2.99072 17.0059 2.99072H7.00586ZM7.00586 4.99072H17.0059C18.1109 4.99072 19.0059 5.88572 19.0059 6.99072V16.9907C19.0059 18.0957 18.1109 18.9907 17.0059 18.9907H7.00586C5.90086 18.9907 5.00586 18.0957 5.00586 16.9907V6.99072C5.00586 5.88572 5.90086 4.99072 7.00586 4.99072Z" fill="#2F3030"/>
<path d="M9.04616 10.1891C8.97814 10.3025 8.98028 10.4504 9.08637 10.5681C9.40678 10.9246 11.3322 13.0635 11.6531 13.42C11.8238 13.61 12.1767 13.61 12.3478 13.42L14.9145 10.5681C15.1263 10.3332 14.9197 9.99984 14.5672 9.99984L9.43374 9.99984C9.25749 9.99984 9.11418 10.0761 9.04616 10.1891Z" fill="#2F3030"/>
</svg>
