<svg width="24" height="24" viewBox="0 0 24 24" fill="none" xmlns="http://www.w3.org/2000/svg">
<path d="M7.32838 4.49652L7.32857 4.49632C8.32944 3.41015 9.85986 2.82708 11.7638 2.82708C13.7074 2.82708 15.1801 3.34977 16.1546 4.36563L16.1546 4.36565L16.156 4.36701C16.5208 4.72866 16.9496 5.25372 17.3048 5.84365C17.4871 6.14648 17.4461 6.46283 17.2703 6.70691C17.093 6.95301 16.7776 7.12549 16.4146 7.12549C15.9026 7.12549 15.5265 6.74844 15.2717 6.2657C15.1798 6.0915 15.0686 5.9328 14.9292 5.76875C14.2395 4.88562 13.1424 4.42795 11.7756 4.42795C9.55191 4.42795 7.90505 5.73936 7.86167 7.64175C7.84512 8.36739 8.11674 9.01093 8.62622 9.45625H6.38611C6.15736 8.90375 6.04538 8.27333 6.06107 7.58549C6.08722 6.4386 6.52966 5.3571 7.32838 4.49652ZM14.119 13.1562L14.1357 13.081L14.1274 13.0792H14.119H4.66706C4.22613 13.0792 3.87694 12.7586 3.87691 12.3266C3.87688 11.886 4.23477 11.499 4.66695 11.499H19.3771C19.8117 11.499 20.1672 11.8664 20.1672 12.3046C20.1672 12.7391 19.8153 13.0792 19.3771 13.0792H17.1452H17.0015L17.081 13.1989C17.5692 13.9342 17.9445 14.9805 17.9217 15.9809C17.8851 17.5855 17.2608 18.8805 16.1648 19.7756C15.0674 20.6719 13.49 21.1729 11.5394 21.1729C8.92918 21.1729 6.99287 20.287 6.0059 18.6707C5.832 18.3812 5.66031 17.9941 5.50784 17.5657C5.29413 16.9652 5.77547 16.3614 6.42981 16.3614C6.91427 16.3614 7.31208 16.714 7.48924 17.1848C7.64934 17.6103 7.86513 17.944 8.17766 18.274C8.93297 19.0894 10.1439 19.5053 11.6747 19.5053C12.9858 19.5053 14.0763 19.1812 14.8467 18.5902C15.6191 17.9977 16.0643 17.1411 16.0882 16.0914C16.0997 15.5881 16.0404 15.205 15.9014 14.8511C15.7628 14.4984 15.5468 14.1796 15.2528 13.8033C15.0275 13.5149 14.7485 13.3348 14.5273 13.2269C14.4165 13.1728 14.3196 13.1366 14.2499 13.1138C14.2151 13.1023 14.1871 13.0943 14.1675 13.089C14.1636 13.0879 14.16 13.087 14.1568 13.0862C14.1519 13.0849 14.1478 13.0839 14.1446 13.0831L14.1383 13.0816L14.1365 13.0812L14.136 13.0811L14.1358 13.081L14.1357 13.081L14.119 13.1562Z" fill="#1E2022" stroke="white" stroke-width="0.154167"/>
</svg>
