<svg width="24" height="24" viewBox="0 0 24 24" fill="none" xmlns="http://www.w3.org/2000/svg">
<path d="M9.225 21.25H14.775C19.4 21.25 21.25 19.4 21.25 14.775V9.225C21.25 4.6 19.4 2.75 14.775 2.75H9.225C4.6 2.75 2.75 4.6 2.75 9.225V14.775C2.75 19.4 4.6 21.25 9.225 21.25Z" stroke="#1E2022" stroke-width="1.5" stroke-linecap="round" stroke-linejoin="round"/>
<path d="M15.393 10.15C16.4147 10.15 17.243 9.32174 17.243 8.30001C17.243 7.27829 16.4147 6.45001 15.393 6.45001C14.3712 6.45001 13.543 7.27829 13.543 8.30001C13.543 9.32174 14.3712 10.15 15.393 10.15Z" stroke="#1E2022" stroke-width="1.5" stroke-linecap="round" stroke-linejoin="round"/>
<path d="M20.7363 17.9172L16.1761 14.8554C15.4453 14.3652 14.3908 14.4207 13.7341 14.9849L13.4288 15.2532C12.7073 15.8729 11.5418 15.8729 10.8203 15.2532L6.97233 11.9509C6.25083 11.3312 5.08533 11.3312 4.36383 11.9509L2.85608 13.2459" stroke="#1E2022" stroke-width="1.5" stroke-linecap="round" stroke-linejoin="round"/>
</svg>
