<svg width="24" height="24" viewBox="0 0 24 24" fill="none" xmlns="http://www.w3.org/2000/svg">
<path d="M22.5003 19.7619V16.1299M22.5003 16.1299V12.4979M22.5003 16.1299C22.5003 18.1358 20.8742 19.7619 18.8683 19.7619C16.8624 19.7619 15.2363 18.1358 15.2363 16.1299C15.2363 14.124 16.8624 12.4979 18.8683 12.4979C20.8742 12.4979 22.5003 14.124 22.5003 16.1299Z" stroke="#1E2022" stroke-width="1.45279" stroke-linecap="round" stroke-linejoin="round"/>
<path d="M9.76815 12.978H9.83922L9.81522 12.9111L7.32677 5.97632L7.27971 5.84517L7.23265 5.97632L4.7442 12.9111L4.7202 12.978H4.79126H9.76815ZM10.5064 14.8373L10.4944 14.8038L10.4589 14.8041L10.4434 14.8043H10.4432H4.11618H4.11593L4.10053 14.8041L4.06501 14.8038L4.05301 14.8373L2.20143 19.9972C2.03193 20.4696 1.538 20.7018 1.10021 20.5235C0.660632 20.3444 0.43696 19.8167 0.606918 19.343L6.06029 4.14567C6.48882 2.95146 8.07059 2.95145 8.49912 4.14567L13.9525 19.343C14.1225 19.8167 13.8988 20.3444 13.4592 20.5235C13.0214 20.7018 12.5275 20.4696 12.358 19.9972L10.5064 14.8373Z" fill="#1E2022" stroke="white" stroke-width="0.1" stroke-linecap="round"/>
</svg>
