<svg width="24" height="24" viewBox="0 0 24 24" fill="none" xmlns="http://www.w3.org/2000/svg">
<path fill-rule="evenodd" clip-rule="evenodd" d="M4.10369 3.34242C4.65687 3.26914 5.26134 3.25 5.90952 3.25H15.2352C15.8834 3.25 16.4879 3.26914 17.0411 3.34242C18.4813 3.49279 19.6019 3.90704 20.3039 4.90643C20.9699 5.85457 21.1448 7.18351 21.1448 8.83571V12.5268C20.6858 12.367 20.1964 12.2722 19.6876 12.2535V8.83571C19.6876 7.20449 19.4946 6.28943 19.1115 5.744C18.7661 5.25233 18.1601 4.923 16.8804 4.79071C16.8731 4.78996 16.8659 4.7891 16.8586 4.78812C16.3993 4.72661 15.8676 4.70714 15.2352 4.70714H5.90952C5.27712 4.70714 4.74547 4.72661 4.28616 4.78812C4.27891 4.7891 4.27164 4.78996 4.26436 4.79071C2.98462 4.923 2.37862 5.25233 2.03325 5.744C1.65012 6.28943 1.45714 7.20449 1.45714 8.83571V14.6643C1.45714 16.2955 1.65012 17.2106 2.03325 17.756C2.37862 18.2477 2.98462 18.577 4.26436 18.7093C4.27164 18.71 4.27891 18.7109 4.28616 18.7119C4.74547 18.7734 5.27712 18.7929 5.90952 18.7929H14.7426C14.9142 19.3224 15.1717 19.8132 15.4988 20.2488C15.4118 20.2496 15.3239 20.25 15.2352 20.25H5.90952C5.26135 20.25 4.6569 20.2309 4.10373 20.1576C2.66349 20.0072 1.5429 19.593 0.840882 18.5936C0.174873 17.6454 0 16.3165 0 14.6643V8.83571C0 7.18351 0.174873 5.85457 0.840882 4.90643C1.5429 3.90704 2.66347 3.49279 4.10369 3.34242ZM16.6005 13.1761C16.0822 13.5456 15.6375 14.0116 15.2924 14.5477H5.39085C4.99026 14.5477 4.66551 14.223 4.66551 13.8224C4.66551 13.4218 4.99026 13.0971 5.39085 13.0971H16.2708C16.3895 13.0971 16.5016 13.1256 16.6005 13.1761ZM5.39085 8.9523C4.99026 8.9523 4.66551 9.27704 4.66551 9.67763C4.66551 10.0782 4.99026 10.403 5.39085 10.403H6.2198C6.62039 10.403 6.94513 10.0782 6.94513 9.67763C6.94513 9.27704 6.62039 8.9523 6.2198 8.9523H5.39085ZM8.29224 9.67763C8.29224 9.27704 8.61699 8.9523 9.01758 8.9523H9.84653C10.2471 8.9523 10.5719 9.27704 10.5719 9.67763C10.5719 10.0782 10.2471 10.403 9.84653 10.403H9.01758C8.61699 10.403 8.29224 10.0782 8.29224 9.67763ZM11.919 9.67763C11.919 9.27704 12.2437 8.9523 12.6443 8.9523H16.271C16.6716 8.9523 16.9963 9.27704 16.9963 9.67763C16.9963 10.0782 16.6716 10.403 16.271 10.403H12.6443C12.2437 10.403 11.919 10.0782 11.919 9.67763Z" fill="#1E2022"/>
<path d="M22.9999 18.25L20.25 21M20.25 21L17.5 18.25M20.25 21L20.25 15" stroke="#1E2022" stroke-width="1.3" stroke-linecap="round" stroke-linejoin="round"/>
</svg>
