<svg width="24" height="24" viewBox="0 0 24 24" fill="none" xmlns="http://www.w3.org/2000/svg">
<path d="M6.03744 7.46464L5.95208 7.55H6.07279H14.25C17.9503 7.55 20.95 10.5497 20.95 14.25C20.95 17.9503 17.9503 20.95 14.25 20.95H11.1C10.6306 20.95 10.25 20.5694 10.25 20.1C10.25 19.6306 10.6306 19.25 11.1 19.25H14.25C17.0114 19.25 19.25 17.0114 19.25 14.25C19.25 11.4886 17.0114 9.25 14.25 9.25H6.07279H5.95208L6.03744 9.33536L9.00104 12.299C9.33299 12.6309 9.33299 13.1691 9.00104 13.501C8.6691 13.833 8.1309 13.833 7.79896 13.501L3.29896 9.00104C2.96701 8.6691 2.96701 8.1309 3.29896 7.79896L7.79896 3.29896C8.1309 2.96701 8.6691 2.96701 9.00104 3.29896C9.33299 3.6309 9.33299 4.1691 9.00104 4.50104L6.03744 7.46464Z" fill="#1E2022" stroke="white" stroke-width="0.1"/>
</svg>
