<svg width="24" height="24" viewBox="0 0 24 24" fill="none" xmlns="http://www.w3.org/2000/svg">
<path d="M7.98828 3.90625C7.43628 3.90625 6.98828 4.35425 6.98828 4.90625V10.9062C6.98828 13.6672 9.22727 15.9062 11.9883 15.9062C14.7493 15.9062 16.9883 13.6672 16.9883 10.9062V4.90625C16.9883 4.35425 16.5403 3.90625 15.9883 3.90625C15.4363 3.90625 14.9883 4.35425 14.9883 4.90625V10.9062C14.9883 12.5632 13.6453 13.9062 11.9883 13.9062C10.3313 13.9062 8.98828 12.5632 8.98828 10.9062V4.90625C8.98828 4.35425 8.54028 3.90625 7.98828 3.90625ZM7.98828 17.9062C7.43628 17.9062 6.98828 18.3542 6.98828 18.9062C6.98828 19.4582 7.43628 19.9062 7.98828 19.9062H15.9883C16.5403 19.9062 16.9883 19.4582 16.9883 18.9062C16.9883 18.3542 16.5403 17.9062 15.9883 17.9062H7.98828Z" fill="#2F3030"/>
</svg>
