<svg width="24" height="24" viewBox="0 0 24 24" fill="none" xmlns="http://www.w3.org/2000/svg">
<path d="M12.0232 2.44141C11.4522 2.44121 10.8692 2.79641 10.5242 3.50341L8.40012 7.87611L3.55892 8.56321C2.00202 8.77981 1.49763 10.3072 2.62193 11.4052L6.12003 14.8102L5.30802 19.5892C5.04062 21.1362 6.32372 22.0712 7.71302 21.3382C8.24982 21.0542 11.0102 19.6242 12.0232 19.0892L16.3332 21.3382C17.7242 22.0712 19.0112 21.1372 18.7382 19.5892L17.8952 14.8102L21.3932 11.4052C22.5232 10.3112 22.0442 8.78421 20.4872 8.56321L15.6152 7.87611L13.5222 3.50341C13.1772 2.79611 12.5942 2.44171 12.0232 2.44141ZM12.0232 5.03381L14.0842 9.25041C14.2302 9.54871 14.5052 9.73481 14.8342 9.78141L19.5192 10.4682L16.1152 13.7482C15.8762 13.9792 15.7762 14.2962 15.8342 14.6222L16.6462 19.2452L12.4922 17.0592C12.3382 16.9782 12.1672 16.9392 11.9972 16.9442C11.9972 16.0352 12.0232 5.03381 12.0232 5.03381Z" fill="#FFCE00"/>
</svg>
