<svg width="16" height="17" viewBox="0 0 16 17" fill="none" xmlns="http://www.w3.org/2000/svg">
<g clip-path="url(#clip0_361_3208)">
<path d="M0.559387 1.54443L15.2066 15.8953" stroke="black" stroke-linecap="round"/>
<path fill-rule="evenodd" clip-rule="evenodd" d="M8.36877 5.14741C8.27405 5.0438 8.14014 4.98479 7.99976 4.98479C7.85938 4.98479 7.72547 5.0438 7.63074 5.14741L7.04482 5.78826L8.49976 7.21377V6.77266L10.6461 9.12024C10.8325 9.32404 11.1487 9.3382 11.3525 9.15187C11.5563 8.96553 11.5705 8.64927 11.3841 8.44547L8.36877 5.14741ZM8.49976 8.61375V15.2848C8.49976 15.5609 8.2759 15.7848 7.99976 15.7848C7.72362 15.7848 7.49976 15.5609 7.49976 15.2848L7.49976 7.63398L8.49976 8.61375ZM7.08437 7.22699L6.36964 6.52673L4.61537 8.44547C4.42904 8.64927 4.4432 8.96553 4.647 9.15187C4.8508 9.3382 5.16706 9.32404 5.3534 9.12024L7.08437 7.22699Z" fill="black"/>
<path fill-rule="evenodd" clip-rule="evenodd" d="M1.55997 1.98933C1.54804 2.00074 1.5362 2.01232 1.52444 2.02409L1.52441 2.02412C1.08482 2.46369 0.893062 3.01891 0.802803 3.69018C0.715517 4.33935 0.715527 5.16661 0.715539 6.20119V6.20122V6.23828C0.715539 6.51442 0.939397 6.73828 1.21554 6.73828C1.49168 6.73828 1.71554 6.51442 1.71554 6.23828C1.71554 5.15808 1.7166 4.39822 1.79388 3.82344C1.86923 3.26305 2.00869 2.95403 2.23151 2.73123L2.23155 2.73119C2.24566 2.71708 2.26011 2.7033 2.27496 2.68985L1.63588 2.0637L1.55997 1.98933ZM2.73054 1.38624L3.6236 2.26123C4.15767 2.21596 4.83641 2.21522 5.7386 2.21522H10.2617C11.342 2.21522 12.1018 2.21628 12.6766 2.29356C13.237 2.36891 13.546 2.50837 13.7689 2.73121C13.9917 2.95401 14.1311 3.26302 14.2065 3.82341C14.2837 4.39819 14.2848 5.15805 14.2848 6.23828C14.2848 6.39472 14.3566 6.53438 14.4691 6.62606C14.5552 6.69622 14.6651 6.73828 14.7848 6.73828C15.0609 6.73828 15.2848 6.51442 15.2848 6.23828V6.20123V6.20122C15.2848 5.16659 15.2848 4.33933 15.1975 3.69017C15.1073 3.01888 14.9155 2.46367 14.476 2.0241C14.0364 1.58451 13.4812 1.39274 12.8099 1.30248C12.1607 1.2152 11.3334 1.21521 10.2988 1.21522H10.2988H10.2617H5.7386H5.70155C4.66695 1.21521 3.83968 1.2152 3.1905 1.30248C3.0306 1.32398 2.87728 1.35124 2.73054 1.38624Z" fill="black"/>
</g>
<defs>
<clipPath id="clip0_361_3208">
<rect width="16" height="16" fill="white" transform="matrix(-1 0 0 -1 16 16.5)"/>
</clipPath>
</defs>
</svg>
