<svg width="24" height="24" viewBox="0 0 24 24" fill="none" xmlns="http://www.w3.org/2000/svg">
<mask id="mask0_675_14315" style="mask-type:alpha" maskUnits="userSpaceOnUse" x="0" y="0" width="24" height="24">
<rect width="24" height="24" fill="#D9D9D9"/>
</mask>
<g mask="url(#mask0_675_14315)">
<path d="M3 21C2.45 21 1.97917 20.8042 1.5875 20.4125C1.19583 20.0208 1 19.55 1 19V6C1 5.45 1.19583 4.97917 1.5875 4.5875C1.97917 4.19583 2.45 4 3 4H21C21.55 4 22.0208 4.19583 22.4125 4.5875C22.8042 4.97917 23 5.45 23 6V19C23 19.55 22.8042 20.0208 22.4125 20.4125C22.0208 20.8042 21.55 21 21 21H3ZM3 19H21V6H3V19ZM8 17H16V16H8V17ZM5 14H7V12H5V14ZM9 14H11V12H9V14ZM13 14H15V12H13V14ZM17 14H19V12H17V14ZM5 10H7V8H5V10ZM9 10H11V8H9V10ZM13 10H15V8H13V10ZM17 10H19V8H17V10Z" fill="#1C1B1F"/>
</g>
</svg>
