<svg width="24" height="24" viewBox="0 0 24 24" fill="none" xmlns="http://www.w3.org/2000/svg">
<mask id="mask0_122_2565" style="mask-type:alpha" maskUnits="userSpaceOnUse" x="0" y="0" width="24" height="24">
<rect width="24" height="24" fill="#D9D9D9"/>
</mask>
<g mask="url(#mask0_122_2565)">
<path d="M2 10C2 8.33333 2.37083 6.80416 3.1125 5.4125C3.85417 4.02083 4.85 2.86666 6.1 1.95L7.275 3.55C6.275 4.28333 5.47917 5.20833 4.8875 6.325C4.29583 7.44166 4 8.66666 4 10H2ZM20 10C20 8.66666 19.7042 7.44166 19.1125 6.325C18.5208 5.20833 17.725 4.28333 16.725 3.55L17.9 1.95C19.15 2.86666 20.1458 4.02083 20.8875 5.4125C21.6292 6.80416 22 8.33333 22 10H20ZM4 19V17H6V10C6 8.61666 6.41667 7.3875 7.25 6.3125C8.08333 5.2375 9.16667 4.53333 10.5 4.2V3.5C10.5 3.08333 10.6458 2.72916 10.9375 2.4375C11.2292 2.14583 11.5833 2 12 2C12.4167 2 12.7708 2.14583 13.0625 2.4375C13.3542 2.72916 13.5 3.08333 13.5 3.5V4.2C14.8333 4.53333 15.9167 5.2375 16.75 6.3125C17.5833 7.3875 18 8.61666 18 10V17H20V19H4ZM12 22C11.45 22 10.9792 21.8042 10.5875 21.4125C10.1958 21.0208 10 20.55 10 20H14C14 20.55 13.8042 21.0208 13.4125 21.4125C13.0208 21.8042 12.55 22 12 22ZM8 17H16V10C16 8.9 15.6083 7.95833 14.825 7.175C14.0417 6.39166 13.1 6 12 6C10.9 6 9.95833 6.39166 9.175 7.175C8.39167 7.95833 8 8.9 8 10V17Z" fill="#1C1B1F"/>
</g>
</svg>
