<svg width="24" height="24" viewBox="0 0 24 24" fill="none" xmlns="http://www.w3.org/2000/svg">
<circle cx="12" cy="12" r="12" fill="#14AE5C"/>
<circle cx="12" cy="12" r="9" fill="white"/>
<mask id="mask0_3623_112333" style="mask-type:alpha" maskUnits="userSpaceOnUse" x="0" y="0" width="24" height="24">
<rect width="24" height="24" fill="#66CF80"/>
</mask>
<g mask="url(#mask0_3623_112333)">
<path d="M10.598 16.6L17.648 9.55L16.248 8.15L10.598 13.8L7.74805 10.95L6.34805 12.35L10.598 16.6ZM11.998 22C10.6147 22 9.31471 21.7375 8.09805 21.2125C6.88138 20.6875 5.82305 19.975 4.92305 19.075C4.02305 18.175 3.31055 17.1167 2.78555 15.9C2.26055 14.6833 1.99805 13.3833 1.99805 12C1.99805 10.6167 2.26055 9.31667 2.78555 8.1C3.31055 6.88333 4.02305 5.825 4.92305 4.925C5.82305 4.025 6.88138 3.3125 8.09805 2.7875C9.31471 2.2625 10.6147 2 11.998 2C13.3814 2 14.6814 2.2625 15.898 2.7875C17.1147 3.3125 18.173 4.025 19.073 4.925C19.973 5.825 20.6855 6.88333 21.2105 8.1C21.7355 9.31667 21.998 10.6167 21.998 12C21.998 13.3833 21.7355 14.6833 21.2105 15.9C20.6855 17.1167 19.973 18.175 19.073 19.075C18.173 19.975 17.1147 20.6875 15.898 21.2125C14.6814 21.7375 13.3814 22 11.998 22Z" fill="#66CF80"/>
</g>
</svg>
