<svg width="24" height="24" viewBox="0 0 24 24" fill="none" xmlns="http://www.w3.org/2000/svg">
<mask id="mask0_675_14661" style="mask-type:alpha" maskUnits="userSpaceOnUse" x="0" y="0" width="24" height="24">
<rect width="24" height="24" fill="#D9D9D9"/>
</mask>
<g mask="url(#mask0_675_14661)">
<path d="M0 18V16.425C0 15.7083 0.366667 15.125 1.1 14.675C1.83333 14.225 2.8 14 4 14C4.21667 14 4.425 14.0042 4.625 14.0125C4.825 14.0208 5.01667 14.0417 5.2 14.075C4.96667 14.425 4.79167 14.7917 4.675 15.175C4.55833 15.5583 4.5 15.9583 4.5 16.375V18H0ZM6 18V16.375C6 15.8417 6.14583 15.3542 6.4375 14.9125C6.72917 14.4708 7.14167 14.0833 7.675 13.75C8.20833 13.4167 8.84583 13.1667 9.5875 13C10.3292 12.8333 11.1333 12.75 12 12.75C12.8833 12.75 13.6958 12.8333 14.4375 13C15.1792 13.1667 15.8167 13.4167 16.35 13.75C16.8833 14.0833 17.2917 14.4708 17.575 14.9125C17.8583 15.3542 18 15.8417 18 16.375V18H6ZM19.5 18V16.375C19.5 15.9417 19.4458 15.5333 19.3375 15.15C19.2292 14.7667 19.0667 14.4083 18.85 14.075C19.0333 14.0417 19.2208 14.0208 19.4125 14.0125C19.6042 14.0042 19.8 14 20 14C21.2 14 22.1667 14.2208 22.9 14.6625C23.6333 15.1042 24 15.6917 24 16.425V18H19.5ZM8.125 16H15.9C15.7333 15.6667 15.2708 15.375 14.5125 15.125C13.7542 14.875 12.9167 14.75 12 14.75C11.0833 14.75 10.2458 14.875 9.4875 15.125C8.72917 15.375 8.275 15.6667 8.125 16ZM4 13C3.45 13 2.97917 12.8042 2.5875 12.4125C2.19583 12.0208 2 11.55 2 11C2 10.4333 2.19583 9.95833 2.5875 9.575C2.97917 9.19167 3.45 9 4 9C4.56667 9 5.04167 9.19167 5.425 9.575C5.80833 9.95833 6 10.4333 6 11C6 11.55 5.80833 12.0208 5.425 12.4125C5.04167 12.8042 4.56667 13 4 13ZM20 13C19.45 13 18.9792 12.8042 18.5875 12.4125C18.1958 12.0208 18 11.55 18 11C18 10.4333 18.1958 9.95833 18.5875 9.575C18.9792 9.19167 19.45 9 20 9C20.5667 9 21.0417 9.19167 21.425 9.575C21.8083 9.95833 22 10.4333 22 11C22 11.55 21.8083 12.0208 21.425 12.4125C21.0417 12.8042 20.5667 13 20 13ZM12 12C11.1667 12 10.4583 11.7083 9.875 11.125C9.29167 10.5417 9 9.83333 9 9C9 8.15 9.29167 7.4375 9.875 6.8625C10.4583 6.2875 11.1667 6 12 6C12.85 6 13.5625 6.2875 14.1375 6.8625C14.7125 7.4375 15 8.15 15 9C15 9.83333 14.7125 10.5417 14.1375 11.125C13.5625 11.7083 12.85 12 12 12ZM12 10C12.2833 10 12.5208 9.90417 12.7125 9.7125C12.9042 9.52083 13 9.28333 13 9C13 8.71667 12.9042 8.47917 12.7125 8.2875C12.5208 8.09583 12.2833 8 12 8C11.7167 8 11.4792 8.09583 11.2875 8.2875C11.0958 8.47917 11 8.71667 11 9C11 9.28333 11.0958 9.52083 11.2875 9.7125C11.4792 9.90417 11.7167 10 12 10Z" fill="#1C1B1F"/>
</g>
</svg>
