<svg width="24" height="24" viewBox="0 0 24 24" fill="none" xmlns="http://www.w3.org/2000/svg">
<path d="M2.41663 12C2.41663 12 5.29163 5.29167 12 5.29167C18.7083 5.29167 21.5833 12 21.5833 12C21.5833 12 18.7083 18.7083 12 18.7083C5.29163 18.7083 2.41663 12 2.41663 12Z" stroke="black" stroke-linecap="round" stroke-linejoin="round"/>
<path d="M9.125 12C9.125 12.7625 9.4279 13.4938 9.96707 14.0329C10.5062 14.5721 11.2375 14.875 12 14.875C12.7625 14.875 13.4938 14.5721 14.0329 14.0329C14.5721 13.4938 14.875 12.7625 14.875 12C14.875 11.2375 14.5721 10.5062 14.0329 9.96707C13.4938 9.4279 12.7625 9.125 12 9.125C11.2375 9.125 10.5062 9.4279 9.96707 9.96707C9.4279 10.5062 9.125 11.2375 9.125 12Z" stroke="black" stroke-linecap="round" stroke-linejoin="round"/>
</svg>

