<svg width="24" height="24" viewBox="0 0 24 24" fill="none" xmlns="http://www.w3.org/2000/svg">
<path d="M12 7V13" stroke="#6F748C" stroke-width="1.5" stroke-linecap="round"/>
<path d="M11 16C11 16.2652 11.1054 16.5196 11.2929 16.7071C11.4804 16.8946 11.7348 17 12 17C12.2652 17 12.5196 16.8946 12.7071 16.7071C12.8946 16.5196 13 16.2652 13 16C13 15.7348 12.8946 15.4804 12.7071 15.2929C12.5196 15.1054 12.2652 15 12 15C11.7348 15 11.4804 15.1054 11.2929 15.2929C11.1054 15.4804 11 15.7348 11 16Z" fill="#6F748C"/>
<path d="M2 12C2 7.28595 2 4.92893 3.46447 3.46447C4.92893 2 7.28595 2 12 2C16.714 2 19.0711 2 20.5355 3.46447C22 4.92893 22 7.28595 22 12C22 16.714 22 19.0711 20.5355 20.5355C19.0711 22 16.714 22 12 22C7.28595 22 4.92893 22 3.46447 20.5355C2 19.0711 2 16.714 2 12Z" stroke="#6F748C" stroke-width="1.5"/>
</svg>
