<svg width="24" height="24" viewBox="0 0 24 24" fill="none" xmlns="http://www.w3.org/2000/svg">
<path d="M8.325 12.0004C8.325 12.746 7.72058 13.3504 6.975 13.3504C6.22942 13.3504 5.625 12.746 5.625 12.0004C5.625 11.2548 6.22942 10.6504 6.975 10.6504C7.72058 10.6504 8.325 11.2548 8.325 12.0004Z" fill="#171717"/>
<path d="M13.3499 12.0004C13.3499 12.746 12.7455 13.3504 11.9999 13.3504C11.2543 13.3504 10.6499 12.746 10.6499 12.0004C10.6499 11.2548 11.2543 10.6504 11.9999 10.6504C12.7455 10.6504 13.3499 11.2548 13.3499 12.0004Z" fill="#171717"/>
<path d="M18.375 12.0004C18.375 12.746 17.7706 13.3504 17.025 13.3504C16.2795 13.3504 15.675 12.746 15.675 12.0004C15.675 11.2548 16.2795 10.6504 17.025 10.6504C17.7706 10.6504 18.375 11.2548 18.375 12.0004Z" fill="#171717"/>
</svg>
