<svg width="14" height="14" viewBox="0 0 14 14" fill="none" xmlns="http://www.w3.org/2000/svg">
<g clip-path="url(#clip0_1068_187143)">
<path fill-rule="evenodd" clip-rule="evenodd" d="M6.42865 0.0709229C5.1031 0.0709229 3.96726 0.879371 3.48608 2.03021C3.41103 2.02446 3.33527 2.02154 3.2589 2.02154C1.63273 2.02154 0.314453 3.33981 0.314453 4.96598C0.314453 6.05209 0.902207 6.99954 1.77559 7.50985V11.4999C1.77559 12.8806 2.89488 13.9999 4.27559 13.9999H8.07806C9.35323 13.9999 10.4054 13.0452 10.5589 11.8116H10.5657H12.1563C13.1228 11.8116 13.9063 11.0281 13.9063 10.0616V7.67279C13.9063 6.78175 13.2404 6.04625 12.3791 5.93683C12.4852 5.63286 12.5429 5.30616 12.5429 4.96598C12.5429 3.33981 11.2246 2.02154 9.5984 2.02154C9.52203 2.02154 9.44627 2.02446 9.37122 2.03021C8.89004 0.879372 7.7542 0.0709229 6.42865 0.0709229ZM4.75804 3.01341C4.87654 2.19772 5.58005 1.57092 6.42865 1.57092C7.27725 1.57092 7.98076 2.19773 8.09926 3.01341C8.13176 3.23713 8.26345 3.43426 8.45768 3.54995C8.65191 3.66564 8.88797 3.68753 9.10017 3.60955C9.25449 3.55284 9.42195 3.52154 9.5984 3.52154C10.3962 3.52154 11.0429 4.16824 11.0429 4.96598C11.0429 5.76373 10.3962 6.41043 9.5984 6.41043H5.95334C5.53913 6.41043 5.20334 6.74621 5.20334 7.16043V8.86104C5.20334 9.39287 4.77221 9.82401 4.24038 9.82401C3.70855 9.82401 3.27742 9.39287 3.27742 8.86104V7.03556C3.27742 6.7177 3.07704 6.43435 2.77735 6.32843C2.21532 6.12978 1.81445 5.59373 1.81445 4.96598C1.81445 4.16824 2.46115 3.52154 3.2589 3.52154C3.43536 3.52154 3.60282 3.55284 3.75713 3.60955C3.96933 3.68753 4.20539 3.66563 4.39962 3.54995C4.59385 3.43426 4.72554 3.23713 4.75804 3.01341ZM10.5781 7.42279H12.1563C12.2944 7.42279 12.4063 7.53472 12.4063 7.67279V10.0616C12.4063 10.1997 12.2944 10.3116 12.1563 10.3116H10.5781V7.42279Z" fill="black"/>
</g>
<defs>
<clipPath id="clip0_1068_187143">
<rect width="14" height="14" fill="white"/>
</clipPath>
</defs>
</svg>
