<svg width="14" height="14" viewBox="0 0 14 14" fill="none" xmlns="http://www.w3.org/2000/svg">
<g clip-path="url(#clip0_1068_187140)">
<path fill-rule="evenodd" clip-rule="evenodd" d="M0.413767 0.449317C0.682488 0.165204 1.05309 0 1.44582 0H9.01238C9.40511 0 9.77571 0.165204 10.0444 0.449317C10.3123 0.732486 10.4582 1.11088 10.4582 1.5V2.25H12.2355C12.6997 2.25 13.1448 2.43437 13.473 2.76256C13.8012 3.09075 13.9855 3.53587 13.9855 4V8.5C13.9855 8.96413 13.8012 9.40925 13.473 9.73744C13.1448 10.0656 12.6997 10.25 12.2355 10.25H10.4582V11.5C10.4582 12.1543 10.2126 12.7871 9.76741 13.2578C9.32131 13.7294 8.71014 14 8.06656 14H2.39164C1.74807 14 1.13689 13.7294 0.690792 13.2578C0.24559 12.7871 0 12.1543 0 11.5V1.5C0 1.11088 0.145941 0.732486 0.413767 0.449317ZM10.4582 8.75H12.2355C12.3018 8.75 12.3654 8.72366 12.4123 8.67678C12.4592 8.62989 12.4855 8.5663 12.4855 8.5V4C12.4855 3.9337 12.4592 3.87011 12.4123 3.82322C12.3654 3.77634 12.3018 3.75 12.2355 3.75H10.4582V8.75ZM3.17749 3.375C3.52267 3.375 3.80249 3.65482 3.80249 4V9.5C3.80249 9.84518 3.52267 10.125 3.17749 10.125C2.83231 10.125 2.55249 9.84518 2.55249 9.5V4C2.55249 3.65482 2.83231 3.375 3.17749 3.375ZM7.9057 4C7.9057 3.65482 7.62588 3.375 7.2807 3.375C6.93552 3.375 6.6557 3.65482 6.6557 4V9.5C6.6557 9.84518 6.93552 10.125 7.2807 10.125C7.62588 10.125 7.9057 9.84518 7.9057 9.5V4Z" fill="black"/>
</g>
<defs>
<clipPath id="clip0_1068_187140">
<rect width="14" height="14" fill="white"/>
</clipPath>
</defs>
</svg>
