<svg width="14" height="14" viewBox="0 0 14 14" fill="none" xmlns="http://www.w3.org/2000/svg">
<g clip-path="url(#clip0_1068_187134)">
<path fill-rule="evenodd" clip-rule="evenodd" d="M1.18359 1.0936C1.93591 0.389977 2.94953 0 4 0H10C11.0505 0 12.0641 0.389977 12.8164 1.0936C13.5699 1.79828 14 2.76147 14 3.77346C14 4.16533 13.8333 4.53379 13.5486 4.79998C13.2652 5.06511 12.8874 5.20874 12.5 5.20874H1.5C1.11257 5.20874 0.734832 5.06511 0.451355 4.79998C0.166747 4.53379 0 4.16533 0 3.77346C0 2.76147 0.430139 1.79828 1.18359 1.0936ZM0.769592 6.75C0.355379 6.75 0.0195923 7.08579 0.0195923 7.5C0.0195923 7.91421 0.355379 8.25 0.769592 8.25H13.2304C13.6446 8.25 13.9804 7.91421 13.9804 7.5C13.9804 7.08579 13.6446 6.75 13.2304 6.75H0.769592ZM0.306084 10.0174C0.495961 9.84094 0.746138 9.74757 1 9.74757H2.5C2.57278 9.74757 2.64468 9.76345 2.71069 9.79412L5.40586 11.0464L6.65964 9.8813C6.75214 9.79534 6.87373 9.74757 7 9.74757H13C13.2539 9.74757 13.504 9.84094 13.6939 10.0174C13.885 10.195 14 10.444 14 10.7122C14 11.5965 13.6216 12.4365 12.9617 13.0497C12.303 13.6619 11.4169 14 10.5 14H3.5C2.5831 14 1.69703 13.6619 1.03832 13.0497C0.378363 12.4365 0 11.5965 0 10.7122C0 10.444 0.114971 10.195 0.306084 10.0174Z" fill="black"/>
</g>
<defs>
<clipPath id="clip0_1068_187134">
<rect width="14" height="14" fill="white"/>
</clipPath>
</defs>
</svg>
