<svg width="14" height="14" viewBox="0 0 14 14" fill="none" xmlns="http://www.w3.org/2000/svg">
<g clip-path="url(#clip0_1068_187131)">
<path fill-rule="evenodd" clip-rule="evenodd" d="M13.3237 1.98918C13.0729 1.73831 12.771 1.56772 12.4515 1.47776C12.3616 1.15834 12.191 0.856445 11.9401 0.605578C11.5662 0.231647 11.0794 0.0363321 10.5893 0.0203572L10.5881 0.0203178C10.1415 0.00688275 9.6893 0.142423 9.31487 0.427913C8.6298 0.219448 7.8544 0.387292 7.31332 0.928373C6.53262 1.70908 6.53193 2.97531 7.31332 3.75671L10.1726 6.61594C10.954 7.39733 12.2202 7.39664 13.0009 6.61594C13.542 6.07486 13.7099 5.29947 13.5014 4.61438C13.7869 4.23996 13.9224 3.78782 13.909 3.34123V3.33998C13.893 2.84986 13.6977 2.36311 13.3237 1.98918ZM10.912 5.9396C10.9011 5.9296 10.8903 5.91931 10.8798 5.90873L8.02049 3.0495C8.01034 3.03935 8.00046 3.02904 7.99084 3.01858C8.08734 2.89495 8.19966 2.78051 8.32746 2.67825C8.65934 2.41269 9.04844 2.26699 9.44247 2.23536C10.0401 2.18738 10.649 2.40177 11.0868 2.85827C11.5433 3.29601 11.7385 3.8941 11.6905 4.4917C11.6589 4.88572 11.5132 5.27482 11.2476 5.6067C11.1466 5.73286 11.0338 5.84393 10.912 5.9396ZM0.904153 9.08736L4.7303 5.2612L6.57996 10.2979C6.72689 10.698 6.33795 11.0867 5.93795 10.9395L0.904153 9.08736ZM0.38469 11.021C0.0784756 10.7148 0.0123672 10.2594 0.186365 9.88879L5.59264 11.878C5.79205 11.9513 5.99054 11.9803 6.18089 11.9721L4.46546 13.6876C4.07494 14.0781 3.44177 14.0781 3.05125 13.6876L0.38469 11.021ZM9.93715 8.21591L7.61249 10.5405C7.62067 10.3505 7.59179 10.1523 7.51866 9.95319L5.50947 4.48204L5.85637 4.13513L9.93715 8.21591Z" fill="black"/>
</g>
<defs>
<clipPath id="clip0_1068_187131">
<rect width="14" height="14" fill="white"/>
</clipPath>
</defs>
</svg>
