<svg width="14" height="14" viewBox="0 0 14 14" fill="none" xmlns="http://www.w3.org/2000/svg">
<g clip-path="url(#clip0_1068_187155)">
<path fill-rule="evenodd" clip-rule="evenodd" d="M1.46982 3.81718C1.46982 2.87989 2.10497 2.09095 2.96835 1.8573C2.98991 1.69217 3.03267 1.46667 3.12036 1.23284C3.21013 0.993442 3.35959 0.711647 3.61395 0.485552C3.88121 0.247989 4.2332 0.100586 4.65937 0.100586C5.00455 0.100586 5.28437 0.380408 5.28437 0.725586C5.28437 1.07076 5.00455 1.35058 4.65937 1.35058C4.54051 1.35058 4.48373 1.38486 4.4444 1.41981C4.39218 1.46623 4.33725 1.54779 4.29077 1.67175C4.26003 1.75373 4.23842 1.83978 4.22354 1.91968C4.98754 2.21117 5.53023 2.95079 5.53023 3.81718C5.53023 4.93843 4.62128 5.84738 3.50003 5.84738C2.37877 5.84738 1.46982 4.93843 1.46982 3.81718ZM0 7.47323C0 7.19709 0.223858 6.97323 0.5 6.97323H13.5C13.7761 6.97323 14 7.19709 14 7.47323V8.87502H0V7.47323ZM0 10.125V13.5C0 13.7761 0.223858 14 0.5 14H13.5C13.7761 14 14 13.7761 14 13.5V10.125H0Z" fill="black"/>
</g>
<defs>
<clipPath id="clip0_1068_187155">
<rect width="14" height="14" fill="white"/>
</clipPath>
</defs>
</svg>
