<svg width="14" height="14" viewBox="0 0 14 14" fill="none" xmlns="http://www.w3.org/2000/svg">
<path fill-rule="evenodd" clip-rule="evenodd" d="M6.98092 0C7.99989 0 8.98576 0.320909 9.80344 0.906759L8.04609 3.6317C7.75236 3.37405 7.37403 3.23077 6.98092 3.23077C6.5525 3.23077 6.14162 3.40096 5.83867 3.7039C5.83562 3.70696 5.83258 3.71002 5.82956 3.7131L2.8455 2.51104C2.81431 2.49848 2.7827 2.48861 2.75093 2.48132C2.96665 2.09542 3.23601 1.73757 3.55418 1.41941C4.46301 0.510575 5.69564 0 6.98092 0ZM2.29063 3.62694C2.18798 4.02178 2.13477 4.43122 2.13477 4.84615V5.92308C2.13477 6.3515 2.30496 6.76238 2.60791 7.06533C2.91085 7.36827 3.32173 7.53846 3.75015 7.53846C4.17858 7.53846 4.58946 7.36827 4.8924 7.06533C5.19535 6.76238 5.36554 6.3515 5.36554 5.92308V4.87379L2.37844 3.6705C2.3476 3.65808 2.3183 3.64348 2.29063 3.62694ZM8.59631 5.08489L10.7303 1.77581C11.4364 2.63801 11.827 3.72195 11.827 4.84615V6.1161L8.59631 9.34687V5.08489ZM8.59631 11.1146V12.3846C8.59631 12.813 8.7665 13.2239 9.06944 13.5269C9.37239 13.8298 9.78327 14 10.2117 14C10.6401 14 11.051 13.8298 11.3539 13.5269C11.6568 13.2239 11.827 12.813 11.827 12.3846V7.88387L8.59631 11.1146Z" fill="black"/>
</svg>
