<svg width="14" height="14" viewBox="0 0 14 14" fill="none" xmlns="http://www.w3.org/2000/svg">
<g clip-path="url(#clip0_1068_187122)">
<path fill-rule="evenodd" clip-rule="evenodd" d="M3.20744 0.574046C3.34514 0.209041 3.73966 0.0105433 4.11482 0.117511L7.71581 1.14424C8.09097 1.25121 8.32148 1.62792 8.24598 2.01066L7.19959 7.31488C6.90129 8.82701 5.55145 9.84459 4.08281 9.79689L3.41068 12.1542L4.15072 12.3652C4.54906 12.4788 4.77991 12.8938 4.66633 13.2921C4.55276 13.6905 4.13777 13.9213 3.73943 13.8077L2.31302 13.401C2.3013 13.3983 2.28959 13.3952 2.27789 13.3919C2.2662 13.3886 2.25464 13.385 2.24324 13.3811L0.814077 12.9736C0.415739 12.8601 0.184893 12.4451 0.298469 12.0467C0.412045 11.6484 0.827033 11.4176 1.22538 11.5311L1.96817 11.7429L2.64016 9.38608C1.36596 8.65254 0.754903 7.07529 1.29918 5.63253L3.20744 0.574046ZM3.68886 3.54765L6.26274 4.31369L6.64076 2.3975L4.36728 1.74928L3.68886 3.54765ZM10.0018 9.869C9.18928 9.87038 8.42324 9.54735 7.85811 9.00131C8.12502 8.57099 8.32069 8.08536 8.42498 7.55675L9.12302 4.01835L10.6016 3.66539L9.97071 1.81641L9.5083 1.93244C9.52657 1.40168 9.33175 0.895758 8.98637 0.516901L10.2751 0.193531C10.6535 0.0985867 11.0415 0.30957 11.1675 0.678782L12.9134 5.79557C13.411 7.2538 12.7514 8.80945 11.4564 9.50278L12.053 11.8803L12.7975 11.6935C13.1992 11.5927 13.6066 11.8367 13.7075 12.2385C13.8083 12.6402 13.5643 13.0476 13.1625 13.1484L11.7203 13.5103C11.7106 13.5132 11.7007 13.5159 11.6908 13.5184C11.6808 13.5209 11.6709 13.5231 11.661 13.5252L10.2121 13.8888C9.81027 13.9896 9.40285 13.7456 9.30204 13.3438C9.20124 12.9421 9.4452 12.5347 9.84696 12.4339L10.5981 12.2454L10.0018 9.869Z" fill="black"/>
</g>
<defs>
<clipPath id="clip0_1068_187122">
<rect width="14" height="14" fill="white"/>
</clipPath>
</defs>
</svg>
