<svg width="14" height="14" viewBox="0 0 14 14" fill="none" xmlns="http://www.w3.org/2000/svg">
<g clip-path="url(#clip0_1068_187125)">
<path d="M14 5.65998C13.8431 4.32479 13.279 3.07023 12.3846 2.06661C11.4901 1.06299 10.3084 0.35892 9.00001 0.0499772C8.8908 0.0100534 8.77412 -0.00526956 8.6583 0.00510204C8.54249 0.0154736 8.43039 0.0512841 8.33001 0.109977L0.620008 4.99998C0.446369 5.10736 0.300006 5.25356 0.192425 5.42708C0.0848449 5.6006 0.0189797 5.7967 8.30897e-06 5.99998V10.4C-0.000716655 10.553 0.046015 10.7025 0.133768 10.8279C0.221522 10.9532 0.345981 11.0483 0.490008 11.1C0.631565 11.1545 0.786596 11.1636 0.933553 11.126C1.08051 11.0883 1.21209 11.0059 1.31001 10.89C1.421 10.756 1.55875 10.6466 1.71445 10.5689C1.87014 10.4911 2.04036 10.4468 2.21419 10.4386C2.38802 10.4305 2.56163 10.4587 2.72392 10.5215C2.88622 10.5843 3.0336 10.6803 3.15666 10.8034C3.27971 10.9264 3.37571 11.0738 3.43852 11.2361C3.50133 11.3984 3.52956 11.572 3.5214 11.7458C3.51324 11.9197 3.46888 12.0899 3.39115 12.2456C3.31342 12.4013 3.20404 12.539 3.07001 12.65C2.95414 12.7479 2.87166 12.8795 2.83403 13.0265C2.79639 13.1734 2.80547 13.3284 2.86001 13.47C2.9117 13.614 3.00678 13.7385 3.13214 13.8262C3.2575 13.914 3.40699 13.9607 3.56001 13.96H12.75C13.0747 13.9602 13.3867 13.834 13.62 13.6081C13.8533 13.3823 13.9896 13.0745 14 12.75V5.65998ZM8.75001 11C8.40389 11 8.06555 10.8974 7.77776 10.7051C7.48997 10.5128 7.26567 10.2395 7.13322 9.91968C7.00077 9.59991 6.96611 9.24804 7.03363 8.90857C7.10116 8.56911 7.26783 8.25728 7.51257 8.01254C7.75731 7.7678 8.06913 7.60113 8.4086 7.53361C8.74807 7.46608 9.09993 7.50074 9.4197 7.63319C9.73948 7.76564 10.0128 7.98995 10.2051 8.27773C10.3974 8.56552 10.5 8.90386 10.5 9.24998C10.5 9.71411 10.3156 10.1592 9.98745 10.4874C9.65926 10.8156 9.21414 11 8.75001 11ZM4.25001 4.99998C4.19384 5.00408 4.13802 4.98829 4.09232 4.95538C4.04661 4.92248 4.01394 4.87455 4.00001 4.81998C3.98451 4.76875 3.98586 4.7139 4.00386 4.6635C4.02186 4.6131 4.05556 4.5698 4.10001 4.53998L8.67001 1.67998C8.73515 1.63977 8.80836 1.61444 8.88442 1.6058C8.96048 1.59716 9.03751 1.60541 9.11001 1.62998C9.811 1.87965 10.4504 2.27658 10.9851 2.79406C11.5198 3.31153 11.9375 3.93755 12.21 4.62998C12.2293 4.66525 12.2394 4.70479 12.2394 4.74498C12.2394 4.78517 12.2293 4.82471 12.21 4.85998C12.1925 4.90125 12.1632 4.93648 12.1259 4.96136C12.0886 4.98623 12.0448 4.99966 12 4.99998H4.25001Z" fill="black"/>
</g>
<defs>
<clipPath id="clip0_1068_187125">
<rect width="14" height="14" fill="white"/>
</clipPath>
</defs>
</svg>
