<svg width="14" height="14" viewBox="0 0 14 14" fill="none" xmlns="http://www.w3.org/2000/svg">
<g clip-path="url(#clip0_1068_187113)">
<path fill-rule="evenodd" clip-rule="evenodd" d="M4.64188 1.54558C3.53344 3.4659 2.89471 5.62681 2.78486 7.85072C1.37087 8.13031 0.304688 9.37731 0.304688 10.8733C0.304688 12.575 1.68419 13.9545 3.3859 13.9545C5.08761 13.9545 6.46712 12.575 6.46712 10.8733C6.46712 9.48369 5.54716 8.3089 4.28303 7.92477C4.36938 6.17654 4.8218 4.47192 5.60421 2.91913C6.08186 4.73096 7.02946 6.39526 8.36244 7.73666C7.84737 8.2874 7.53206 9.02731 7.53206 9.84086C7.53206 11.5425 8.91157 12.922 10.6133 12.922C12.315 12.922 13.6945 11.5425 13.6945 9.84086C13.6945 8.13915 12.315 6.75964 10.6133 6.75964C10.2817 6.75964 9.96227 6.81204 9.66295 6.90899C8.14341 5.48552 7.15566 3.59323 6.8509 1.54558H8.47944C8.89365 1.54558 9.22944 1.2098 9.22944 0.795579C9.22944 0.381365 8.89365 0.0455784 8.47944 0.0455784H6.02736C6.02181 0.0455168 6.01627 0.0455169 6.01073 0.0455784H3.48174C3.06752 0.0455784 2.73174 0.381365 2.73174 0.795579C2.73174 1.2098 3.06752 1.54558 3.48174 1.54558H4.64188Z" fill="black"/>
</g>
<defs>
<clipPath id="clip0_1068_187113">
<rect width="14" height="14" fill="white"/>
</clipPath>
</defs>
</svg>
