<svg width="14" height="14" viewBox="0 0 14 14" fill="none" xmlns="http://www.w3.org/2000/svg">
<g clip-path="url(#clip0_1068_187146)">
<path fill-rule="evenodd" clip-rule="evenodd" d="M5.14893 1.14502C5.14893 0.799842 4.86911 0.52002 4.52393 0.52002C4.17875 0.52002 3.89893 0.799842 3.89893 1.14502V2.70752C3.89893 3.0527 4.17875 3.33252 4.52393 3.33252C4.86911 3.33252 5.14893 3.0527 5.14893 2.70752V1.14502ZM2.24268 1.68311C2.58786 1.68311 2.86768 1.96293 2.86768 2.30811V3.87061C2.86768 4.21578 2.58786 4.49561 2.24268 4.49561C1.8975 4.49561 1.61768 4.21578 1.61768 3.87061V2.30811C1.61768 1.96293 1.8975 1.68311 2.24268 1.68311ZM6.80518 1.68311C7.15036 1.68311 7.43018 1.96293 7.43018 2.30811V3.87061C7.43018 4.21578 7.15036 4.49561 6.80518 4.49561C6.46 4.49561 6.18018 4.21578 6.18018 3.87061V2.30811C6.18018 1.96293 6.46 1.68311 6.80518 1.68311ZM12.4631 3.20947C11.6593 3.20947 11.0077 3.86111 11.0077 4.66494C11.0077 4.84575 11.0406 5.01885 11.1009 5.17857L10.0248 6.17343C9.41521 5.90535 8.67675 5.94816 8.01254 6.27605C7.77714 6.41333 7.55125 6.59386 7.3459 6.8194C6.50083 7.74752 6.44485 8.96916 6.99778 9.68493C7.05451 9.75837 7.1181 9.82759 7.18874 9.8919C7.39292 10.0778 7.40773 10.394 7.22182 10.5982C7.03591 10.8024 6.71967 10.8172 6.51549 10.6313C6.40151 10.5275 6.29844 10.4154 6.20641 10.2963C5.29417 9.11538 5.50883 7.35168 6.60648 6.14615L6.63385 6.11641C4.56147 5.50147 1.86152 6.22979 0.670576 8.60837C-0.247685 10.4424 0.100231 11.9433 0.41784 12.7093C0.638161 13.2407 1.16132 13.48 1.63918 13.48H11.9412C12.7696 13.48 13.4412 12.8084 13.4412 11.98V11.6832C13.4412 11.0073 13.3302 10.3683 12.9781 9.79272C12.7098 9.35429 12.3211 8.9844 11.799 8.66592C11.6432 9.18873 11.3637 9.69186 10.9725 10.1215C10.7866 10.3257 10.4703 10.3405 10.2662 10.1546C10.062 9.96865 10.0472 9.65242 10.2331 9.44823C10.8988 8.71705 11.0735 7.81517 10.8515 7.11141L11.9677 6.07954C11.9795 6.0686 11.9908 6.05732 12.0016 6.04572C12.1466 6.09417 12.3018 6.12041 12.4631 6.12041C13.267 6.12041 13.9186 5.46878 13.9186 4.66494C13.9186 3.86111 13.267 3.20947 12.4631 3.20947Z" fill="black"/>
</g>
<defs>
<clipPath id="clip0_1068_187146">
<rect width="14" height="14" fill="white"/>
</clipPath>
</defs>
</svg>
