<svg width="14" height="14" viewBox="0 0 14 14" fill="none" xmlns="http://www.w3.org/2000/svg">
<path fill-rule="evenodd" clip-rule="evenodd" d="M2.53708 0.0264893C1.73779 0.0264893 1.08984 0.67444 1.08984 1.47373C1.08984 1.798 1.19874 2.11288 1.39909 2.36786L6.25097 8.54299V12.4888H4.00097C3.58676 12.4888 3.25097 12.8246 3.25097 13.2388C3.25097 13.653 3.58676 13.9888 4.00097 13.9888H10.001C10.4152 13.9888 10.751 13.653 10.751 13.2388C10.751 12.8246 10.4152 12.4888 10.001 12.4888H7.75097V8.54295L12.6029 2.36786C12.8032 2.11288 12.9121 1.798 12.9121 1.47373C12.9121 0.674439 12.2642 0.0264893 11.4649 0.0264893H2.53708ZM9.80549 3.50021L11.3563 1.52649H2.64563L4.19642 3.50021H9.80549Z" fill="black"/>
</svg>
