<svg width="14" height="14" viewBox="0 0 14 14" fill="none" xmlns="http://www.w3.org/2000/svg">
<path fill-rule="evenodd" clip-rule="evenodd" d="M3.49956 0C3.29511 0 3.11125 0.124475 3.03532 0.314305L2.19566 2.41347H11.8034L10.9637 0.314305C10.8878 0.124475 10.704 0 10.4995 0H3.49956ZM3.00537 13.576L2.2518 8.6778H11.7473L10.9937 13.576C10.9562 13.8199 10.7463 14 10.4995 14H3.49956C3.25277 14 3.0429 13.8199 3.00537 13.576ZM2.1148 3.66347H11.8843C12.4838 3.66347 12.9698 4.0848 12.9698 4.60455V6.48671C12.9698 7.00646 12.4838 7.4278 11.8843 7.4278H2.1148C1.5153 7.4278 1.0293 7.00646 1.0293 6.48671V4.60455C1.0293 4.0848 1.5153 3.66347 2.1148 3.66347Z" fill="black"/>
</svg>
