<svg width="14" height="14" viewBox="0 0 14 14" fill="none" xmlns="http://www.w3.org/2000/svg">
<g clip-path="url(#clip0_1068_187116)">
<path fill-rule="evenodd" clip-rule="evenodd" d="M2.17472 12.3563C4.39598 14.2226 8.22282 13.6267 10.9247 10.9248C13.3696 8.47989 14.0901 5.1138 12.8221 2.84979C12.7734 3.0231 12.717 3.20885 12.6523 3.40305C12.3236 4.38922 11.7582 5.65532 10.8148 6.5987C10.2748 7.13871 9.6145 7.38984 8.95628 7.50951C8.32077 7.62506 7.64086 7.62503 7.02836 7.625H6.99988C6.35488 7.625 5.78118 7.62685 5.26709 7.72032C4.76585 7.81146 4.37208 7.98195 4.06885 8.28518C3.32574 9.02829 2.83706 10.0811 2.53335 10.9922C2.38378 11.4409 2.28396 11.8403 2.22177 12.1263C2.20255 12.2147 2.18699 12.292 2.17472 12.3563ZM1.17767 11.1502C-0.0901756 8.88615 0.630281 5.52014 3.07515 3.07527C5.77699 0.373441 9.60377 -0.222449 11.8251 1.64375C11.8128 1.708 11.7972 1.78527 11.778 1.87365C11.7158 2.15974 11.616 2.55906 11.4664 3.00776C11.1627 3.91889 10.674 4.97171 9.93091 5.71482C9.62768 6.01805 9.23391 6.18854 8.73267 6.27968C8.21858 6.37315 7.64488 6.375 6.99988 6.375H6.97141C6.35891 6.37497 5.67899 6.37494 5.04348 6.49049C4.38526 6.61016 3.72498 6.86129 3.18497 7.4013C2.24159 8.34468 1.67622 9.61078 1.3475 10.597C1.28277 10.7911 1.22644 10.9769 1.17767 11.1502Z" fill="black"/>
</g>
<defs>
<clipPath id="clip0_1068_187116">
<rect width="14" height="14" fill="white"/>
</clipPath>
</defs>
</svg>
