<svg width="14" height="14" viewBox="0 0 14 14" fill="none" xmlns="http://www.w3.org/2000/svg">
<path fill-rule="evenodd" clip-rule="evenodd" d="M4 0.0228271C4.41421 0.0228271 4.75 0.358614 4.75 0.772827V2.77282C4.75 3.18704 4.41421 3.52282 4 3.52282C3.58579 3.52282 3.25 3.18704 3.25 2.77282V0.772827C3.25 0.358614 3.58579 0.0228271 4 0.0228271ZM1.93934 5.43932C2.22064 5.15802 2.60217 4.99998 3 4.99998H8C8.39783 4.99998 8.77936 5.15802 9.06066 5.43932C9.23147 5.61014 9.35683 5.81789 9.42896 6.04382H9.5C10.362 6.04382 11.1886 6.38623 11.7981 6.99572C12.4076 7.60521 12.75 8.43186 12.75 9.29383C12.75 10.1558 12.4076 10.9824 11.7981 11.5919C11.1886 12.2014 10.362 12.5438 9.5 12.5438H9.27165C9.14908 12.8106 8.97934 13.0562 8.76777 13.2678C8.29893 13.7366 7.66304 14 7 14H4C3.33696 14 2.70107 13.7366 2.23223 13.2678C1.76339 12.7989 1.5 12.163 1.5 11.5V6.49998C1.5 6.10216 1.65804 5.72062 1.93934 5.43932ZM9.5 11.0438C9.96413 11.0438 10.4092 10.8595 10.7374 10.5313C11.0656 10.2031 11.25 9.75796 11.25 9.29383C11.25 8.82969 11.0656 8.38457 10.7374 8.05639C10.4092 7.7282 9.96413 7.54382 9.5 7.54382V11.0438ZM7.75 0.772827C7.75 0.358614 7.41421 0.0228271 7 0.0228271C6.58579 0.0228271 6.25 0.358614 6.25 0.772827V2.77282C6.25 3.18704 6.58579 3.52282 7 3.52282C7.41421 3.52282 7.75 3.18704 7.75 2.77282V0.772827Z" fill="black"/>
</svg>
