<svg width="14" height="14" viewBox="0 0 14 14" fill="none" xmlns="http://www.w3.org/2000/svg">
<g clip-path="url(#clip0_1068_187179)">
<path fill-rule="evenodd" clip-rule="evenodd" d="M13.5 7C13.5 10.5899 10.5899 13.5 7 13.5C3.41015 13.5 0.5 10.5899 0.5 7C0.5 3.41015 3.41015 0.5 7 0.5C10.5899 0.5 13.5 3.41015 13.5 7ZM9 7C9 8.10457 8.10457 9 7 9C5.89543 9 5 8.10457 5 7C5 5.89543 5.89543 5 7 5C8.10457 5 9 5.89543 9 7ZM12.059 6.77951C12.2134 6.47077 12.0882 6.09535 11.7795 5.94098C11.4708 5.78661 11.0954 5.91176 10.941 6.22049L10.441 7.22049C10.2866 7.52923 10.4118 7.90465 10.7205 8.05902C11.0292 8.21339 11.4046 8.08824 11.559 7.77951L12.059 6.77951ZM2.55806 8.55806C2.80214 8.31398 3.19786 8.31398 3.44194 8.55806L4.44194 9.55806C4.68602 9.80214 4.68602 10.1979 4.44194 10.4419C4.19786 10.686 3.80214 10.686 3.55806 10.4419L2.55806 9.44194C2.31398 9.19786 2.31398 8.80214 2.55806 8.55806ZM8.44194 2.05806C8.19786 1.81398 7.80214 1.81398 7.55806 2.05806C7.31398 2.30214 7.31398 2.69786 7.55806 2.94194L8.55806 3.94194C8.80214 4.18602 9.19786 4.18602 9.44194 3.94194C9.68602 3.69786 9.68602 3.30214 9.44194 3.05806L8.44194 2.05806ZM3.5 5.5C4.05228 5.5 4.5 5.05228 4.5 4.5C4.5 3.94772 4.05228 3.5 3.5 3.5C2.94772 3.5 2.5 3.94772 2.5 4.5C2.5 5.05228 2.94772 5.5 3.5 5.5ZM9.5 11C9.5 11.5523 9.05228 12 8.5 12C7.94772 12 7.5 11.5523 7.5 11C7.5 10.4477 7.94772 10 8.5 10C9.05228 10 9.5 10.4477 9.5 11Z" fill="black"/>
</g>
<defs>
<clipPath id="clip0_1068_187179">
<rect width="14" height="14" fill="white"/>
</clipPath>
</defs>
</svg>
