<svg width="14" height="14" viewBox="0 0 14 14" fill="none" xmlns="http://www.w3.org/2000/svg">
<g clip-path="url(#clip0_1068_187119)">
<path fill-rule="evenodd" clip-rule="evenodd" d="M7.97427 0.14935C8.26908 -0.0328564 8.63723 -0.0494204 8.94721 0.105574C11.2804 1.27216 12.4141 3.30942 12.9615 5.22528C13.5001 7.11028 13.5 8.97447 13.5 9.97651V10C13.5 10.2652 13.3946 10.5196 13.2071 10.7071C13.0196 10.8946 12.7652 11 12.5 11H9.5V13C9.5 13.5523 9.05228 14 8.5 14C7.94772 14 7.5 13.5523 7.5 13V10V1C7.5 0.653423 7.67945 0.331557 7.97427 0.14935ZM1 0.25C1.41421 0.25 1.75 0.585786 1.75 1V3.5C1.75 3.96413 1.93437 4.40925 2.26256 4.73744C2.40555 4.88042 2.57072 4.99611 2.75 5.08114V1C2.75 0.585786 3.08579 0.25 3.5 0.25C3.91421 0.25 4.25 0.585786 4.25 1V5.08114C4.43075 4.9954 4.59567 4.8792 4.73744 4.73744C4.89994 4.57493 5.02884 4.38202 5.11679 4.1697C5.20473 3.95738 5.25 3.72981 5.25 3.5V1C5.25 0.585786 5.58579 0.25 6 0.25C6.41421 0.25 6.75 0.585786 6.75 1V3.5C6.75 3.9268 6.66594 4.34941 6.50261 4.74372C6.33928 5.13803 6.09989 5.49631 5.7981 5.7981C5.49631 6.09989 5.13803 6.33928 4.74372 6.50261C4.66358 6.5358 4.58227 6.56572 4.5 6.59233V13C4.5 13.5523 4.05228 14 3.5 14C2.94772 14 2.5 13.5523 2.5 13V6.59233C2.015 6.43548 1.56905 6.16525 1.2019 5.7981C0.59241 5.1886 0.25 4.36195 0.25 3.5V1C0.25 0.585786 0.585786 0.25 1 0.25Z" fill="black"/>
</g>
<defs>
<clipPath id="clip0_1068_187119">
<rect width="14" height="14" fill="white"/>
</clipPath>
</defs>
</svg>
