<svg width="14" height="14" viewBox="0 0 14 14" fill="none" xmlns="http://www.w3.org/2000/svg">
<g clip-path="url(#clip0_1068_187158)">
<path fill-rule="evenodd" clip-rule="evenodd" d="M0.785156 0.0240479C1.19937 0.0240479 1.53516 0.359834 1.53516 0.774048V3.27405C1.53516 3.73818 1.71953 4.1833 2.04772 4.51148C2.1907 4.65447 2.35588 4.77015 2.53516 4.85519V0.774048C2.53516 0.359834 2.87094 0.0240479 3.28516 0.0240479C3.69937 0.0240479 4.03516 0.359834 4.03516 0.774048V4.85519C4.21591 4.76945 4.38083 4.65325 4.52259 4.51148C4.6851 4.34898 4.814 4.15606 4.90195 3.94374C4.98989 3.73142 5.03516 3.50386 5.03516 3.27405V0.774048C5.03516 0.359834 5.37094 0.0240479 5.78516 0.0240479C6.19937 0.0240479 6.53516 0.359834 6.53516 0.774048V3.27405C6.53516 3.70084 6.45109 4.12346 6.28777 4.51777C6.12444 4.91208 5.88505 5.27035 5.58326 5.57214C5.28146 5.87394 4.92319 6.11333 4.52888 6.27666C4.4489 6.30979 4.36775 6.33965 4.28565 6.36622V13.0001C4.28565 13.5523 3.83793 14.0001 3.28565 14.0001C2.73336 14.0001 2.28565 13.5523 2.28565 13.0001V6.36654C1.80046 6.20971 1.35433 5.93942 0.987059 5.57214C0.377566 4.96265 0.0351562 4.136 0.0351562 3.27405V0.774048C0.0351562 0.359834 0.370942 0.0240479 0.785156 0.0240479ZM10.8354 0.0240479C9.06357 0.0240479 7.89432 1.75089 7.89432 3.51291C7.89432 4.91717 8.63695 6.29907 9.83539 6.80236V13.0001C9.83539 13.5524 10.2831 14.0001 10.8354 14.0001C11.3877 14.0001 11.8354 13.5524 11.8354 13.0001V6.80238C13.0339 6.29911 13.7765 4.91719 13.7765 3.51291C13.7765 1.75089 12.6073 0.0240479 10.8354 0.0240479Z" fill="black"/>
</g>
<defs>
<clipPath id="clip0_1068_187158">
<rect width="14" height="14" fill="white"/>
</clipPath>
</defs>
</svg>
