<svg width="14" height="14" viewBox="0 0 14 14" fill="none" xmlns="http://www.w3.org/2000/svg">
<g clip-path="url(#clip0_1068_187170)">
<path fill-rule="evenodd" clip-rule="evenodd" d="M9.47406 2.4055C9.4371 1.07057 8.34334 -0.000244141 6.99949 -0.000244141C5.65563 -0.000244141 4.56187 1.07057 4.52491 2.4055C3.35744 2.60471 2.46875 3.62141 2.46875 4.84566C2.46875 6.21286 3.57708 7.3212 4.94429 7.3212C5.80036 7.3212 6.55493 6.88667 6.99948 6.22613C7.44404 6.88667 8.19862 7.3212 9.05468 7.3212C10.4219 7.3212 11.5302 6.21286 11.5302 4.84566C11.5302 3.62141 10.6415 2.60471 9.47406 2.4055ZM6.02875 13.3575L3.93307 8.43084C4.25462 8.52135 4.59379 8.56977 4.94428 8.56977C5.70429 8.56977 6.41088 8.34174 6.99948 7.95154C7.58808 8.34174 8.29467 8.56977 9.05468 8.56977C9.403 8.56977 9.74015 8.52195 10.06 8.43251L7.94997 13.3582C7.87171 13.5474 7.73929 13.7093 7.56927 13.8236C7.39786 13.9388 7.19602 14.0003 6.9895 14.0003C6.78298 14.0003 6.58114 13.9388 6.40973 13.8236C6.23951 13.7092 6.10697 13.547 6.02875 13.3575Z" fill="black"/>
</g>
<defs>
<clipPath id="clip0_1068_187170">
<rect width="14" height="14" fill="white"/>
</clipPath>
</defs>
</svg>
