<svg width="14" height="14" viewBox="0 0 14 14" fill="none" xmlns="http://www.w3.org/2000/svg">
<path fill-rule="evenodd" clip-rule="evenodd" d="M2.70508 1.44875C2.70508 0.648625 3.3537 0 4.15382 0H9.84629C10.6465 0 11.2951 0.648625 11.2951 1.44875V8.08996C11.2951 8.89008 10.6465 9.53871 9.84629 9.53871H4.15382C3.3537 9.53871 2.70508 8.89008 2.70508 8.08996V1.44875ZM8.14166 12.8584V10.8583H5.85852V12.8584C5.85852 13.1612 5.97879 13.4516 6.19288 13.6656C6.40696 13.8797 6.69732 14 7.00009 14C7.30285 14 7.59321 13.8797 7.8073 13.6656C8.02138 13.4516 8.14166 13.1612 8.14166 12.8584ZM5.34585 2.375C5.69103 2.375 5.97085 2.65482 5.97085 3V6.5C5.97085 6.84518 5.69103 7.125 5.34585 7.125C5.00068 7.125 4.72085 6.84518 4.72085 6.5V3C4.72085 2.65482 5.00068 2.375 5.34585 2.375ZM9.27927 3C9.27927 2.65482 8.99944 2.375 8.65427 2.375C8.30909 2.375 8.02927 2.65482 8.02927 3V6.5C8.02927 6.84518 8.30909 7.125 8.65427 7.125C8.99944 7.125 9.27927 6.84518 9.27927 6.5V3Z" fill="black"/>
</svg>
