<svg width="14" height="14" viewBox="0 0 14 14" fill="none" xmlns="http://www.w3.org/2000/svg">
<g clip-path="url(#clip0_1068_187152)">
<path fill-rule="evenodd" clip-rule="evenodd" d="M11.3261 0.591063C11.8501 0.62185 12.3424 0.835638 12.7542 1.24747C13.1658 1.65905 13.3796 2.15107 13.4106 2.67469C13.441 3.18844 13.2942 3.70083 13.0424 4.17262C12.9326 4.37837 12.9073 4.60303 12.9651 4.79483C13.562 6.77608 13.3257 9.3325 11.3292 11.329C9.33197 13.3263 6.77427 13.562 4.79267 12.9641C4.60086 12.9062 4.37612 12.9315 4.17027 13.0413C3.69861 13.2928 3.18641 13.4393 2.67286 13.4088C2.14945 13.3777 1.65766 13.1639 1.24624 12.7525C0.834251 12.3405 0.620463 11.8479 0.589806 11.3237C0.559729 10.8095 0.707088 10.2967 0.959527 9.82455C1.06939 9.61907 1.09494 9.39458 1.03736 9.20282C0.442655 7.22242 0.680525 4.66914 2.67498 2.67468C4.67026 0.679393 7.22483 0.442158 9.20558 1.0378C9.39735 1.09546 9.62191 1.06998 9.8275 0.960145C10.2994 0.70798 10.8121 0.560857 11.3261 0.591063ZM5.05374 4.89382C6.0316 3.91596 7.27107 3.79401 8.25997 4.09138C8.65664 4.21067 9.07489 3.9858 9.19418 3.58914C9.31346 3.19247 9.0886 2.77421 8.69193 2.65493C7.2732 2.2283 5.4294 2.39684 3.99308 3.83316C3.213 4.61324 2.80035 5.52423 2.66262 6.42742C2.60018 6.83689 2.8815 7.21946 3.29098 7.28191C3.70046 7.34435 4.08303 7.06302 4.14548 6.65354C4.23721 6.05203 4.50981 5.43775 5.05374 4.89382Z" fill="black"/>
</g>
<defs>
<clipPath id="clip0_1068_187152">
<rect width="14" height="14" fill="white"/>
</clipPath>
</defs>
</svg>
