<svg width="14" height="14" viewBox="0 0 14 14" fill="none" xmlns="http://www.w3.org/2000/svg">
<path fill-rule="evenodd" clip-rule="evenodd" d="M0 3C0 2.44772 0.447715 2 1 2H13C13.5523 2 14 2.44772 14 3V11C14 11.5523 13.5523 12 13 12H1C0.447715 12 0 11.5523 0 11V3ZM2.54627 4.08752H8.95369C9.27539 4.08752 9.53618 4.34832 9.53618 4.67002V9.32996C9.53618 9.65166 9.27539 9.91245 8.95369 9.91245H2.54627C2.22457 9.91245 1.96378 9.65166 1.96378 9.32996V4.67002C1.96378 4.34832 2.22457 4.08752 2.54627 4.08752ZM10.6921 4.83624C10.6921 4.49106 10.9719 4.21124 11.3171 4.21124H12.3635C12.7087 4.21124 12.9885 4.49106 12.9885 4.83624C12.9885 5.18142 12.7087 5.46124 12.3635 5.46124H11.3171C10.9719 5.46124 10.6921 5.18142 10.6921 4.83624ZM11.3171 6.375C10.9719 6.375 10.6921 6.65482 10.6921 7C10.6921 7.34518 10.9719 7.625 11.3171 7.625H12.3635C12.7087 7.625 12.9885 7.34518 12.9885 7C12.9885 6.65482 12.7087 6.375 12.3635 6.375H11.3171Z" fill="black"/>
</svg>
