<svg width="14" height="14" viewBox="0 0 14 14" fill="none" xmlns="http://www.w3.org/2000/svg">
<path fill-rule="evenodd" clip-rule="evenodd" d="M9.72111 0.066513C10.1158 0.192104 10.334 0.613895 10.2084 1.00861L9.69839 2.6115C10.5997 3.32525 11.1994 4.40343 11.2747 5.62349H11.9996C12.4138 5.62349 12.7496 5.95928 12.7496 6.37349C12.7496 6.78771 12.4138 7.12349 11.9996 7.12349H11.231L10.8582 12.3434C10.7928 13.2592 10.0308 13.9687 9.11264 13.9687H5.10756C4.18944 13.9687 3.42742 13.2592 3.36201 12.3434L2.98916 7.12349H2.2207C1.80649 7.12349 1.4707 6.78771 1.4707 6.37349C1.4707 5.95928 1.80649 5.62349 2.2207 5.62349H2.94553C3.08028 3.44063 4.89331 1.71193 7.1101 1.71193C7.54216 1.71193 7.95889 1.7776 8.35084 1.8995L8.77901 0.553805C8.9046 0.15909 9.3264 -0.0590781 9.72111 0.066513ZM4.45008 5.62349C4.58129 4.26996 5.72214 3.21193 7.1101 3.21193C8.49807 3.21193 9.63891 4.26996 9.77012 5.62349H4.45008ZM9.60617 8.8182L9.72722 7.12349H4.49298L4.61403 8.8182H9.60617Z" fill="black"/>
</svg>
