<svg width="14" height="14" viewBox="0 0 14 14" fill="none" xmlns="http://www.w3.org/2000/svg">
<g clip-path="url(#clip0_1068_187182)">
<path fill-rule="evenodd" clip-rule="evenodd" d="M11.4015 2.77345C11.2683 2.77551 11.136 2.79363 11.0073 2.8274C11.1074 2.59149 11.1594 2.33851 11.1606 2.08281C11.1406 1.51986 10.8981 0.986902 10.4849 0.597764C10.0716 0.208626 9.52041 -0.00585539 8.9489 0.000121651C8.55276 0.00116345 8.16433 0.108098 7.82498 0.309533C7.48563 0.510969 7.20808 0.79936 7.0219 1.14398C6.83571 0.79936 6.55816 0.510969 6.21881 0.309533C5.87947 0.108098 5.49103 0.00116345 5.09489 0.000121651C4.52716 -0.000221174 3.98149 0.216765 3.57296 0.605316C3.16443 0.993867 2.92498 1.52361 2.90511 2.08281C2.90626 2.33851 2.95834 2.59149 3.05839 2.8274C2.92264 2.79184 2.7828 2.7737 2.64234 2.77345C2.20676 2.77345 1.78903 2.94399 1.48103 3.24755C1.17303 3.55111 1 3.96282 1 4.39212C1 4.82142 1.17303 5.23313 1.48103 5.53669C1.78903 5.84025 2.20676 6 2.64234 6H11.3577C11.7932 6 12.211 5.82946 12.519 5.5259C12.827 5.22234 13 4.81063 13 4.38133C13 3.95203 12.827 3.54031 12.519 3.23675C12.211 2.93319 11.7932 2.76266 11.3577 2.76266L11.4015 2.77345ZM11.3577 7.25002H7.75V14H9.62448C10.3763 14 11.012 13.4435 11.1113 12.6983L11.8432 7.20932C11.6837 7.23625 11.5213 7.25002 11.3577 7.25002ZM2.64234 7.25002C2.47994 7.25002 2.31751 7.23689 2.15698 7.21056L2.88867 12.6983C2.98803 13.4435 3.62371 14 4.37551 14H6.25V7.25002H2.64234Z" fill="black"/>
</g>
<defs>
<clipPath id="clip0_1068_187182">
<rect width="14" height="14" fill="white"/>
</clipPath>
</defs>
</svg>
