<svg width="14" height="14" viewBox="0 0 14 14" fill="none" xmlns="http://www.w3.org/2000/svg">
<g clip-path="url(#clip0_1068_187149)">
<path fill-rule="evenodd" clip-rule="evenodd" d="M2.24786 0.548575C2.09295 0.474803 1.91103 0.485616 1.76594 0.577219C1.62086 0.668822 1.53288 0.82842 1.53288 1V4.01935C1.53288 4.17892 1.45342 4.37022 1.29278 4.56679C0.807653 5.16042 0.125 6.36153 0.125 8.38267C0.125 10.2246 0.990169 11.533 2.30411 12.3575C3.59159 13.1654 5.28935 13.5 7 13.5C8.71065 13.5 10.4084 13.1654 11.6959 12.3575C13.0098 11.533 13.875 10.2246 13.875 8.38267C13.875 6.36153 13.1923 5.16042 12.7072 4.56679C12.5466 4.37022 12.4671 4.17892 12.4671 4.01935V1C12.4671 0.82842 12.3791 0.668822 12.2341 0.577219C12.089 0.485616 11.9071 0.474803 11.7521 0.548575L8.75856 1.97417L8.72859 1.96763C8.60424 1.94061 8.43151 1.90455 8.23797 1.86842C7.86293 1.7984 7.36784 1.71986 7 1.71986C6.63216 1.71986 6.13707 1.7984 5.76203 1.86842C5.56849 1.90455 5.39576 1.94061 5.27141 1.96763L5.24144 1.97417L2.24786 0.548575ZM9.9375 8.96875C9.9375 10.3125 8.62234 11.125 7 11.125C5.37766 11.125 4.0625 10.375 4.0625 8.96875C4.0625 7.5625 5.37766 6.8125 7 6.8125C8.62234 6.8125 9.9375 7.625 9.9375 8.96875ZM4.1875 6.25C3.84232 6.25 3.5625 5.97018 3.5625 5.625C3.5625 5.27982 3.84232 5 4.1875 5C4.53268 5 4.8125 5.27982 4.8125 5.625C4.8125 5.97018 4.53268 6.25 4.1875 6.25ZM9.8125 6.25C10.1577 6.25 10.4375 5.97018 10.4375 5.625C10.4375 5.27982 10.1577 5 9.8125 5C9.46732 5 9.1875 5.27982 9.1875 5.625C9.1875 5.97018 9.46732 6.25 9.8125 6.25ZM8 9.71875C8.34518 9.71875 8.625 9.43893 8.625 9.09375C8.625 8.74857 8.34518 8.46875 8 8.46875C7.65482 8.46875 7.375 8.74857 7.375 9.09375C7.375 9.43893 7.65482 9.71875 8 9.71875ZM5.375 9.09375C5.375 8.74857 5.65482 8.46875 6 8.46875C6.34518 8.46875 6.625 8.74857 6.625 9.09375C6.625 9.43893 6.34518 9.71875 6 9.71875C5.65482 9.71875 5.375 9.43893 5.375 9.09375Z" fill="black"/>
</g>
<defs>
<clipPath id="clip0_1068_187149">
<rect width="14" height="14" fill="white"/>
</clipPath>
</defs>
</svg>
