<svg width="14" height="14" viewBox="0 0 14 14" fill="none" xmlns="http://www.w3.org/2000/svg">
<path fill-rule="evenodd" clip-rule="evenodd" d="M3.5 0C2.68181 0 2 0.651871 2 1.47862V5.37564C2.00948 5.37522 2.01901 5.375 2.02859 5.375H11.9714C11.981 5.375 11.9905 5.37522 12 5.37564V1.47862C12 0.651871 11.3182 0 10.5 0H3.5ZM2 11.2648V6.62436C2.00948 6.62478 2.01901 6.625 2.02859 6.625H11.9714C11.981 6.625 11.9905 6.62478 12 6.62436V11.2648C12 12.0057 11.4525 12.6061 10.75 12.7229V13.2435C10.75 13.6577 10.4142 13.9935 10 13.9935C9.58579 13.9935 9.25 13.6577 9.25 13.2435V12.7435H4.75V13.2435C4.75 13.6577 4.41421 13.9935 4 13.9935C3.58579 13.9935 3.25 13.6577 3.25 13.2435V12.7229C2.54749 12.6061 2 12.0057 2 11.2648ZM5.04126 2.60928C5.04126 2.26411 4.76144 1.98428 4.41626 1.98428C4.07108 1.98428 3.79126 2.26411 3.79126 2.60928V3.10928C3.79126 3.45446 4.07108 3.73428 4.41626 3.73428C4.76144 3.73428 5.04126 3.45446 5.04126 3.10928V2.60928Z" fill="black"/>
</svg>
