<svg width="14" height="14" viewBox="0 0 14 14" fill="none" xmlns="http://www.w3.org/2000/svg">
<g clip-path="url(#clip0_1068_187201)">
<path fill-rule="evenodd" clip-rule="evenodd" d="M7 0.103271C7.41421 0.103271 7.75 0.439057 7.75 0.853271V1.89354C9.33074 2.06384 10.815 2.76876 11.9497 3.90352C13.2625 5.21628 14 6.99676 14 8.85327C14 9.2511 13.842 9.63263 13.5607 9.91393C13.2794 10.1953 12.8978 10.3533 12.5 10.3533H1.5C1.10217 10.3533 0.720644 10.1953 0.43934 9.91393C0.158035 9.63263 0 9.2511 0 8.85327C0 6.99676 0.737498 5.21628 2.05025 3.90352C3.18501 2.76877 4.66926 2.06384 6.25 1.89354V0.853271C6.25 0.439057 6.58579 0.103271 7 0.103271ZM0.78064 11.75C0.366426 11.75 0.0306396 12.0858 0.0306396 12.5C0.0306396 12.9142 0.366426 13.25 0.78064 13.25H13.2193C13.6335 13.25 13.9693 12.9142 13.9693 12.5C13.9693 12.0858 13.6335 11.75 13.2193 11.75H0.78064Z" fill="black"/>
</g>
<defs>
<clipPath id="clip0_1068_187201">
<rect width="14" height="14" fill="white"/>
</clipPath>
</defs>
</svg>
