<svg width="14" height="14" viewBox="0 0 14 14" fill="none" xmlns="http://www.w3.org/2000/svg">
<g clip-path="url(#clip0_1068_187189)">
<path fill-rule="evenodd" clip-rule="evenodd" d="M2.34743 1.78125C1.93118 1.78125 1.59375 2.11868 1.59375 2.53493C1.59375 2.95117 1.93118 3.2886 2.34743 3.2886H3.34985V3.28674H8.59028C8.63147 3.34571 8.68594 3.39651 8.75203 3.43418C8.75567 3.43768 8.76104 3.4431 8.76811 3.45091C8.7943 3.47982 8.83093 3.52723 8.87504 3.59655C8.96305 3.73484 9.06351 3.93296 9.15833 4.17948C9.34812 4.67293 9.5 5.32037 9.5 5.99999C9.5 6.6796 9.34812 7.32705 9.15833 7.8205C9.06351 8.06701 8.96305 8.26514 8.87504 8.40343C8.83093 8.47275 8.7943 8.52016 8.76811 8.54907C8.76104 8.55688 8.75567 8.5623 8.75203 8.5658C8.65564 8.62073 8.58397 8.70362 8.54216 8.799H7.34985C5.14071 8.799 3.34985 7.00814 3.34985 4.799V4.7886H2.34743C1.10276 4.7886 0.09375 3.7796 0.09375 2.53493C0.09375 1.29025 1.10276 0.28125 2.34743 0.28125H6.85846C7.27267 0.28125 7.60846 0.617036 7.60846 1.03125C7.60846 1.44546 7.27267 1.78125 6.85846 1.78125H2.34743ZM10.0917 3.8205C10.0333 3.66864 9.97084 3.52604 9.90619 3.39538C11.4933 3.73125 12.8032 4.81817 13.4465 6.26676C13.0214 8.34204 11.5588 9.4776 10.6533 9.89989C10.448 9.49418 10.1089 9.16771 9.6939 8.97859C9.70224 8.96594 9.71051 8.95317 9.71871 8.9403C9.84945 8.73484 9.97815 8.47463 10.0917 8.17948C10.3186 7.5896 10.5 6.82037 10.5 5.99999C10.5 5.1796 10.3186 4.41038 10.0917 3.8205ZM10.8661 10.8973C11.7313 10.5465 13.0623 9.65025 13.8703 8.06644C13.8738 8.14352 13.8756 8.22105 13.8756 8.299C13.8756 10.7248 12.1524 13.132 9.86332 13.6904V13.0607C9.86332 12.8921 9.84816 12.727 9.81914 12.5667C10.4183 12.2412 10.833 11.619 10.8661 10.8973ZM8.8463 12.8153C8.85752 12.8955 8.86332 12.9774 8.86332 13.0607V13.8125H7.86332H6.19011C5.72875 13.8125 5.35474 13.4385 5.35474 12.9771C5.35474 12.0544 6.10276 11.3064 7.02549 11.3064H7.10903C7.99365 11.3064 8.72535 11.9612 8.8459 12.8125L8.8463 12.8153ZM7.35963 5.5423C7.35963 5.95753 7.02302 6.29414 6.6078 6.29414C6.19257 6.29414 5.85596 5.95753 5.85596 5.5423C5.85596 5.12708 6.19257 4.79047 6.6078 4.79047C7.02302 4.79047 7.35963 5.12708 7.35963 5.5423Z" fill="black"/>
</g>
<defs>
<clipPath id="clip0_1068_187189">
<rect width="14" height="14" fill="white"/>
</clipPath>
</defs>
</svg>
