<svg width="14" height="14" viewBox="0 0 14 14" fill="none" xmlns="http://www.w3.org/2000/svg">
<g clip-path="url(#clip0_1068_187198)">
<path fill-rule="evenodd" clip-rule="evenodd" d="M5 0.0452881C4.58579 0.0452881 4.25 0.381074 4.25 0.795288C4.25 1.2095 4.58579 1.54529 5 1.54529C5.11935 1.54529 5.43537 1.66457 5.76737 2.01592C5.93117 2.18926 6.0543 2.37313 6.13519 2.54781C5.14084 2.6611 4.22354 2.98091 3.50015 3.55963C2.55377 4.31674 2 5.46888 2 7.00006C2 8.86594 2.6648 10.5934 3.59747 11.8592C4.51301 13.1017 5.76832 14.0001 7 14.0001C8.23168 14.0001 9.48699 13.1017 10.4025 11.8592C11.3352 10.5934 12 8.86594 12 7.00006C12 5.46888 11.4462 4.31674 10.4998 3.55963C9.77646 2.98091 8.85916 2.6611 7.86481 2.54781C7.9457 2.37313 8.06883 2.18926 8.23263 2.01592C8.56463 1.66457 8.88065 1.54529 9 1.54529C9.41421 1.54529 9.75 1.2095 9.75 0.795288C9.75 0.381074 9.41421 0.0452881 9 0.0452881C8.28602 0.0452881 7.60204 0.499245 7.14237 0.985704C7.09422 1.03666 7.04663 1.08995 7 1.14538C6.95337 1.08995 6.90578 1.03666 6.85763 0.985704C6.39796 0.499245 5.71398 0.0452881 5 0.0452881ZM5.5 6.75006C5.5 7.16427 5.16421 7.50006 4.75 7.50006C4.33579 7.50006 4 7.16427 4 6.75006C4 6.33585 4.33579 6.00006 4.75 6.00006C5.16421 6.00006 5.5 6.33585 5.5 6.75006ZM6.5 9.80817C6.5 10.2224 6.16421 10.5582 5.75 10.5582C5.33579 10.5582 5 10.2224 5 9.80817C5 9.39395 5.33579 9.05817 5.75 9.05817C6.16421 9.05817 6.5 9.39395 6.5 9.80817ZM8.25 10.5582C8.66421 10.5582 9 10.2224 9 9.80817C9 9.39395 8.66421 9.05817 8.25 9.05817C7.83579 9.05817 7.5 9.39395 7.5 9.80817C7.5 10.2224 7.83579 10.5582 8.25 10.5582ZM7.75 6.75006C7.75 7.16427 7.41421 7.50006 7 7.50006C6.58579 7.50006 6.25 7.16427 6.25 6.75006C6.25 6.33585 6.58579 6.00006 7 6.00006C7.41421 6.00006 7.75 6.33585 7.75 6.75006ZM9.25 7.50006C9.66421 7.50006 10 7.16427 10 6.75006C10 6.33585 9.66421 6.00006 9.25 6.00006C8.83579 6.00006 8.5 6.33585 8.5 6.75006C8.5 7.16427 8.83579 7.50006 9.25 7.50006Z" fill="black"/>
</g>
<defs>
<clipPath id="clip0_1068_187198">
<rect width="14" height="14" fill="white"/>
</clipPath>
</defs>
</svg>
