<svg width="14" height="14" viewBox="0 0 14 14" fill="none" xmlns="http://www.w3.org/2000/svg">
<g clip-path="url(#clip0_1068_187164)">
<path fill-rule="evenodd" clip-rule="evenodd" d="M3.2626 0.769409C3.2626 0.355196 2.92682 0.0194092 2.5126 0.0194092C2.09839 0.0194092 1.7626 0.355196 1.7626 0.769409V1.5C1.7626 1.91422 2.09839 2.25 2.5126 2.25C2.92682 2.25 3.2626 1.91422 3.2626 1.5V0.769409ZM10.7237 7.23V4.73H11.2237C11.5552 4.73 11.8732 4.8617 12.1076 5.09612C12.342 5.33054 12.4737 5.64848 12.4737 5.98C12.4737 6.31152 12.342 6.62946 12.1076 6.86388C11.8732 7.0983 11.5552 7.23 11.2237 7.23H10.7237ZM10.7237 8.73001L11.2237 8.73C11.9531 8.73 12.6525 8.44027 13.1682 7.92454C13.684 7.40882 13.9737 6.70935 13.9737 5.98C13.9737 5.25065 13.684 4.55118 13.1682 4.03546C12.6525 3.51973 11.9531 3.23 11.2237 3.23H9.22376L9.21966 3.23001H1.72376C1.45854 3.23001 1.20418 3.33537 1.01665 3.5229C0.829111 3.71044 0.723755 3.96479 0.723755 4.23001V8.73001C0.723755 9.39305 0.987147 10.0289 1.45599 10.4978C1.92483 10.9666 2.56071 11.23 3.22376 11.23H8.22376C8.8868 11.23 9.52268 10.9666 9.99152 10.4978C10.4603 10.0289 10.7237 9.39305 10.7237 8.73001ZM0.777343 12.48C0.36313 12.48 0.0273438 12.8158 0.0273438 13.23C0.0273438 13.6442 0.36313 13.98 0.777343 13.98H13.2237C13.6379 13.98 13.9737 13.6442 13.9737 13.23C13.9737 12.8158 13.6379 12.48 13.2237 12.48H0.777343ZM8.4885 0.0194092C8.90271 0.0194092 9.2385 0.355196 9.2385 0.769409V1.5C9.2385 1.91422 8.90271 2.25 8.4885 2.25C8.07428 2.25 7.7385 1.91422 7.7385 1.5V0.769409C7.7385 0.355196 8.07428 0.0194092 8.4885 0.0194092ZM6.25055 0.769409C6.25055 0.355196 5.91476 0.0194092 5.50055 0.0194092C5.08634 0.0194092 4.75055 0.355196 4.75055 0.769409V1.5C4.75055 1.91422 5.08634 2.25 5.50055 2.25C5.91476 2.25 6.25055 1.91422 6.25055 1.5V0.769409Z" fill="black"/>
</g>
<defs>
<clipPath id="clip0_1068_187164">
<rect width="14" height="14" fill="white"/>
</clipPath>
</defs>
</svg>
