<svg width="14" height="14" viewBox="0 0 14 14" fill="none" xmlns="http://www.w3.org/2000/svg">
<g clip-path="url(#clip0_1068_187185)">
<path d="M9.5 4.5C9.5 4.1717 9.43534 3.84661 9.3097 3.54329C9.18406 3.23998 8.99991 2.96438 8.76777 2.73223C8.53562 2.50009 8.26002 2.31594 7.95671 2.1903C7.65339 2.06466 7.3283 2 7 2H2.5C1.97529 2 1.46389 2.16509 1.03822 2.47189C0.612561 2.7787 0.294218 3.21165 0.128292 3.70943C-0.0376349 4.20721 -0.0427342 4.74458 0.113716 5.24542C0.270167 5.74626 0.580235 6.18518 1 6.5V11.5C1 11.7652 1.10536 12.0196 1.29289 12.2071C1.48043 12.3946 1.73478 12.5 2 12.5H7.5C7.76522 12.5 8.01957 12.3946 8.20711 12.2071C8.39464 12.0196 8.5 11.7652 8.5 11.5V6.5C8.81107 6.26767 9.0635 5.96583 9.23713 5.61856C9.41076 5.2713 9.50078 4.88825 9.5 4.5Z" fill="black"/>
<path fill-rule="evenodd" clip-rule="evenodd" d="M10.6953 2.96927C10.8963 3.45457 10.9998 3.9717 10.9998 4.49699C11.001 5.11912 10.8568 5.73293 10.5785 6.28938C10.5439 6.35869 10.5073 6.42687 10.4688 6.49385H12.9998C13.0025 6.49385 13.0052 6.49387 13.0079 6.4939C13.3152 6.2624 13.5648 5.9628 13.7369 5.61856C13.9105 5.2713 14.0006 4.88825 13.9998 4.5C13.9998 4.1717 13.9351 3.84661 13.8095 3.54329C13.6838 3.23998 13.4997 2.96438 13.2675 2.73223C13.0354 2.50009 12.7598 2.31594 12.4565 2.1903C12.1532 2.06466 11.8281 2 11.4998 2H10.1223C10.3576 2.29388 10.5507 2.6201 10.6953 2.96927ZM12.9998 7.74385H9.99973V11.5C9.99973 11.8475 9.92738 12.1876 9.79102 12.5H11.9998C12.265 12.5 12.5193 12.3946 12.7069 12.2071C12.8944 12.0196 12.9998 11.7652 12.9998 11.5V7.74385Z" fill="black"/>
</g>
<defs>
<clipPath id="clip0_1068_187185">
<rect width="14" height="14" fill="white"/>
</clipPath>
</defs>
</svg>
