<svg width="14" height="14" viewBox="0 0 14 14" fill="none" xmlns="http://www.w3.org/2000/svg">
<g clip-path="url(#clip0_1068_187176)">
<path fill-rule="evenodd" clip-rule="evenodd" d="M1.17482 0.277457C1.31712 0.118019 1.52067 0.0268555 1.73438 0.0268555H12.266C12.4799 0.0268555 12.6837 0.118215 12.826 0.277949C12.9683 0.437683 13.0356 0.650587 13.011 0.863101L12.4657 5.57367L12.4654 5.57643L11.7664 11.6148C11.7003 12.1856 11.4518 12.7175 11.0612 13.1332C11.0055 13.1926 10.9468 13.2496 10.8853 13.304C10.4248 13.7115 9.83863 13.9463 9.22681 13.9711C9.18602 13.9727 9.14512 13.9734 9.10413 13.9732H4.87703C4.30321 13.9764 3.74595 13.7944 3.28657 13.4577C3.22094 13.4096 3.15731 13.3583 3.09592 13.304C2.63485 12.8959 2.33027 12.3417 2.23178 11.7365C2.22521 11.6961 2.21956 11.6556 2.21484 11.6148L2.21469 11.6135L1.52643 5.57512L0.989204 0.861791C0.965003 0.649463 1.03252 0.436894 1.17482 0.277457ZM11.4241 1.52686L11.0522 4.74019H2.94097L2.57472 1.52686H11.4241Z" fill="black"/>
</g>
<defs>
<clipPath id="clip0_1068_187176">
<rect width="14" height="14" fill="white"/>
</clipPath>
</defs>
</svg>
