<svg width="14" height="14" viewBox="0 0 14 14" fill="none" xmlns="http://www.w3.org/2000/svg">
<path fill-rule="evenodd" clip-rule="evenodd" d="M3.89673 1.52783C3.85207 1.52756 3.80889 1.54385 3.77557 1.57351C3.74288 1.6026 3.7219 1.64254 3.71646 1.68589C3.65875 2.27016 3.61621 2.99054 3.59065 3.56952H10.4094C10.3838 2.99052 10.3413 2.2701 10.2836 1.68582C10.2781 1.6425 10.2571 1.60258 10.2245 1.57351C10.1911 1.54384 10.148 1.52756 10.1033 1.52783L10.0988 1.52786L3.90128 1.52785L3.89673 1.52783ZM3.90323 0.0278492C3.48872 0.0259755 3.08805 0.177366 2.77833 0.453018C2.46797 0.72923 2.27094 1.11061 2.22524 1.52356L2.22435 1.53208C2.11955 2.58965 2.0625 4.05669 2.0625 4.50007C2.0625 5.92846 2.61685 7.07618 3.55566 7.85322C4.29667 8.46655 5.23729 8.81722 6.25 8.93097V12.4064H5C4.58579 12.4064 4.25 12.7422 4.25 13.1564C4.25 13.5706 4.58579 13.9064 5 13.9064H9C9.41421 13.9064 9.75 13.5706 9.75 13.1564C9.75 12.7422 9.41421 12.4064 9 12.4064H7.75V8.93098C8.76273 8.81723 9.70336 8.46656 10.4444 7.85322C11.3832 7.07618 11.9375 5.92845 11.9375 4.50007C11.9375 4.05669 11.8805 2.58965 11.7757 1.53208L11.7748 1.52356C11.7291 1.11061 11.5321 0.72923 11.2217 0.453018C10.912 0.177381 10.5114 0.0259753 10.0968 0.0278492H10.0988V0.777849L10.0942 0.027863L10.0968 0.0278492H3.90323Z" fill="black"/>
</svg>
