<svg width="14" height="14" viewBox="0 0 14 14" fill="none" xmlns="http://www.w3.org/2000/svg">
<path fill-rule="evenodd" clip-rule="evenodd" d="M12.3522 4.36782L13.6904 7.10757H10.5664V3.52612H11.0044C11.5776 3.52612 12.1007 3.85278 12.3522 4.36782ZM8.15754 2.5C8.62431 2.5 9.04129 2.71321 9.3164 3.04755V7.73257C9.3164 8.07775 9.59622 8.35757 9.9414 8.35757H13.7954V10.439C13.7954 11.2675 13.1238 11.939 12.2954 11.939H12.1288C12.1295 11.9592 12.1298 11.9794 12.1298 11.9997C12.1298 13.0468 11.2809 13.8957 10.2338 13.8957C9.22904 13.8957 8.4068 13.114 8.342 12.1256H5.78878C5.72398 13.114 4.90174 13.8957 3.89693 13.8957C2.89213 13.8957 2.06988 13.114 2.00509 12.1256H1.70117C0.872746 12.1256 0.201172 11.454 0.201172 10.6256V4C0.201172 3.17157 0.872745 2.5 1.70117 2.5H8.15754ZM4.92968 4.75C5.27486 4.75 5.55468 5.02982 5.55468 5.375V6.375H6.55468C6.89986 6.375 7.17968 6.65482 7.17968 7C7.17968 7.34518 6.89986 7.625 6.55468 7.625H5.55468V8.625C5.55468 8.97018 5.27486 9.25 4.92968 9.25C4.58451 9.25 4.30468 8.97018 4.30468 8.625V7.625H3.30468C2.95951 7.625 2.67968 7.34518 2.67968 7C2.67968 6.65482 2.95951 6.375 3.30468 6.375H4.30468V5.375C4.30468 5.02982 4.58451 4.75 4.92968 4.75Z" fill="black"/>
</svg>
