<svg width="14" height="14" viewBox="0 0 14 14" fill="none" xmlns="http://www.w3.org/2000/svg">
<g clip-path="url(#clip0_1068_189837)">
<path fill-rule="evenodd" clip-rule="evenodd" d="M6.51926 0.43428C6.34489 0.0585551 5.89896 -0.10468 5.52323 0.0696859C5.14751 0.244051 4.98427 0.689988 5.15864 1.06571L5.45773 1.71021C5.22835 1.89342 4.9967 2.11839 4.77091 2.37293L4.20204 1.84245C3.8991 1.55996 3.42452 1.57653 3.14202 1.87947C2.85953 2.18241 2.87611 2.65699 3.17904 2.93948L3.87509 3.58855C3.73407 3.81683 3.5985 4.05708 3.47128 4.30693L2.72413 3.98809C2.34316 3.82551 1.90252 4.00256 1.73995 4.38353C1.57737 4.76451 1.75441 5.20514 2.13539 5.36772L2.89618 5.69238L2.88043 5.74166C2.78845 6.03239 2.71105 6.3314 2.65217 6.63525L1.84859 6.53521C1.43755 6.48404 1.06285 6.77577 1.01168 7.18681C0.96051 7.59785 1.25224 7.97255 1.66328 8.02372L2.5286 8.13145C2.53883 8.41203 2.56941 8.69202 2.62325 8.96888L1.95135 9.26977C1.57331 9.43907 1.40409 9.88277 1.57339 10.2608C1.74268 10.6388 2.18638 10.8081 2.56442 10.6388L3.13664 10.3825C3.35164 10.7669 3.62957 11.1344 3.98007 11.4767L3.49986 12.0531C3.23473 12.3714 3.27778 12.8443 3.59602 13.1094C3.91426 13.3746 4.38718 13.3315 4.65231 13.0133L5.18347 12.3757C5.62115 12.6239 6.06016 12.7968 6.49183 12.9029L6.49226 13.2511C6.49277 13.6653 6.82898 14.0007 7.24319 14.0002C7.6574 13.9997 7.99277 13.6635 7.99226 13.2492L7.99197 13.0104C8.55684 12.9512 9.08682 12.7792 9.55784 12.5171L10.1755 13.1813C10.4575 13.4846 10.9321 13.5019 11.2354 13.2198C11.5388 12.9378 11.556 12.4632 11.274 12.1599L10.7119 11.5554C10.9489 11.2665 11.1435 10.9459 11.2878 10.6034L12.1426 10.718C12.5532 10.773 12.9306 10.4848 12.9856 10.0743C13.0407 9.66373 12.7525 9.2863 12.3419 9.23127L11.5786 9.12894C11.5743 8.76719 11.5161 8.39783 11.3973 8.02922L11.9836 7.77949C12.3647 7.61716 12.542 7.17664 12.3797 6.79556C12.2174 6.41448 11.7768 6.23714 11.3958 6.39947L10.6842 6.70258C10.6451 6.65223 10.6046 6.6021 10.5627 6.55222C10.4322 6.36018 10.3896 6.14113 10.4065 5.84828C10.4127 5.74107 10.4256 5.63467 10.4429 5.52458H11.3393C11.7535 5.52458 12.0893 5.1888 12.0893 4.77458C12.0893 4.36037 11.7535 4.02458 11.3393 4.02458H10.6706C10.6781 3.80626 10.6664 3.57899 10.6216 3.34763C10.619 3.33421 10.6163 3.32079 10.6135 3.30739L11.3362 2.82548C11.6808 2.59568 11.7739 2.13002 11.5441 1.7854C11.3143 1.44077 10.8487 1.34768 10.504 1.57748L9.89312 1.98481C9.85121 1.94113 9.80732 1.89772 9.7614 1.85458C9.6646 1.76365 9.53868 1.66401 9.38761 1.56595L9.65057 1.15276C9.87296 0.80331 9.76996 0.339741 9.42051 0.11735C9.07106 -0.105042 8.60749 -0.00204167 8.3851 0.347407L7.9489 1.03282C7.59918 0.985775 7.21805 0.990288 6.81674 1.07531L6.51926 0.43428ZM8.75207 9.27557C8.75207 9.95406 8.20205 10.5041 7.52356 10.5041C6.84506 10.5041 6.29504 9.95406 6.29504 9.27557C6.29504 8.59708 6.84506 8.04706 7.52356 8.04706C8.20205 8.04706 8.75207 8.59708 8.75207 9.27557ZM7.30188 5.53046C7.85686 5.53046 8.30676 5.08055 8.30676 4.52557C8.30676 3.97059 7.85686 3.52069 7.30188 3.52069C6.74689 3.52069 6.29699 3.97059 6.29699 4.52557C6.29699 5.08055 6.74689 5.53046 7.30188 5.53046ZM4.41418 7.00412C4.41418 6.58989 4.74998 6.25409 5.16421 6.25409C5.57861 6.25409 5.91418 6.59006 5.91418 7.00412C5.91418 7.41819 5.57861 7.75415 5.16421 7.75415C4.74998 7.75415 4.41418 7.41835 4.41418 7.00412Z" fill="black"/>
</g>
<defs>
<clipPath id="clip0_1068_189837">
<rect width="14" height="14" fill="white"/>
</clipPath>
</defs>
</svg>
