<svg width="14" height="14" viewBox="0 0 14 14" fill="none" xmlns="http://www.w3.org/2000/svg">
<g clip-path="url(#clip0_1068_189795)">
<path fill-rule="evenodd" clip-rule="evenodd" d="M4.1091 0.0452881C3.03121 0.0452881 1.99747 0.473478 1.23529 1.23566C0.473112 1.99784 0.0449219 3.03158 0.0449219 4.10947C0.0449219 5.18736 0.473112 6.2211 1.23529 6.98329L1.59845 7.34644C1.62199 7.37607 1.64731 7.40448 1.67433 7.43151L6.56801 12.3251C6.5954 12.3525 6.62399 12.378 6.6536 12.4016L7.01623 12.7642C7.77841 13.5264 8.81215 13.9546 9.89004 13.9546C10.968 13.9546 12.0017 13.5264 12.7639 12.7642C13.5261 12.002 13.9543 10.9683 13.9543 9.89041C13.9543 8.81252 13.5261 7.77878 12.7639 7.0166L12.4006 6.65327C12.3771 6.62371 12.3518 6.59536 12.3248 6.56839L7.43111 1.67472C7.40378 1.64739 7.37526 1.62197 7.34572 1.59846L6.98292 1.23566C6.22073 0.473478 5.18699 0.0452881 4.1091 0.0452881ZM3.87503 6.81352L6.81315 3.8754L10.1242 7.18638L7.18602 10.1245L3.87503 6.81352Z" fill="black"/>
</g>
<defs>
<clipPath id="clip0_1068_189795">
<rect width="14" height="14" fill="white"/>
</clipPath>
</defs>
</svg>
