<svg width="14" height="14" viewBox="0 0 14 14" fill="none" xmlns="http://www.w3.org/2000/svg">
<path fill-rule="evenodd" clip-rule="evenodd" d="M6.91945 0.591671L6.62325 0.199537L6.62143 0.20092L6.61782 0.203665L6.60538 0.21321C6.59479 0.221366 6.57968 0.233094 6.56035 0.248309C6.52168 0.278736 6.46609 0.323132 6.39599 0.380818C6.25584 0.496156 6.05744 0.664842 5.8202 0.881465C5.34634 1.31415 4.71427 1.94104 4.08117 2.71889C2.82538 4.26178 1.51367 6.46227 1.51367 8.9556C1.51367 10.6111 2.20609 11.8651 3.24698 12.6942C4.27456 13.5128 5.61706 13.9 6.92025 13.9C8.22343 13.9 9.56594 13.5128 10.5936 12.6942C11.6344 11.8651 12.3269 10.6111 12.3269 8.9556C12.3269 6.46227 11.0152 4.26178 9.75933 2.71889C9.12622 1.94104 8.49415 1.31415 8.02029 0.881465C7.78305 0.664842 7.58466 0.496156 7.4445 0.380818C7.37441 0.323132 7.31882 0.278736 7.28015 0.248309C7.26081 0.233094 7.2457 0.221366 7.23512 0.21321L7.22267 0.203665L7.21907 0.20092L7.21724 0.199537C7.0415 0.0667892 6.799 0.0667904 6.62325 0.199537C6.62334 0.19949 6.62382 0.200135 6.66054 0.248788C6.69762 0.297911 6.77163 0.395973 6.91945 0.591671ZM5.90562 5.4488C5.90562 5.23526 6.07872 5.06216 6.29226 5.06216H7.54882C7.76235 5.06216 7.93545 5.23526 7.93545 5.4488V6.98645H9.4731C9.68664 6.98645 9.85974 7.15955 9.85974 7.37308V8.62964C9.85974 8.84318 9.68664 9.01628 9.4731 9.01628H7.93545L7.9354 10.5539C7.9354 10.7675 7.7623 10.9406 7.54877 10.9406H6.29221C6.07867 10.9406 5.90557 10.7675 5.90557 10.5539V9.01628H4.36792C4.15439 9.01628 3.98129 8.84318 3.98129 8.62964V7.37308C3.98129 7.15955 4.15439 6.98645 4.36792 6.98645H5.90562V5.4488Z" fill="black"/>
</svg>
