<svg width="14" height="14" viewBox="0 0 14 14" fill="none" xmlns="http://www.w3.org/2000/svg">
<g clip-path="url(#clip0_1068_189758)">
<path fill-rule="evenodd" clip-rule="evenodd" d="M6.99998 0.464425L7.3774 0.19379C7.29018 0.0721457 7.14967 0 6.99998 0C6.8503 0 6.70979 0.0721457 6.62256 0.19379C6.6226 0.193735 6.62256 0.19379 6.99998 0.464425ZM6.99998 0.464425L6.62256 0.19379L6.6208 0.196244L6.6164 0.202414L6.59999 0.225531C6.58579 0.245603 6.56521 0.274843 6.53914 0.312237C6.48703 0.387004 6.41296 0.494491 6.32421 0.626578C6.14701 0.890334 5.91001 1.25417 5.67229 1.65263C5.43549 2.04955 5.19311 2.48895 5.00848 2.90241C4.83179 3.29809 4.67786 3.73402 4.67786 4.10149C4.67786 4.73209 4.91804 5.34052 5.35128 5.79202C5.78515 6.24418 6.37778 6.50195 6.99998 6.50195C7.62218 6.50195 8.21482 6.24418 8.64868 5.79202C9.08192 5.34052 9.32211 4.73209 9.32211 4.10149C9.32211 3.73402 9.16817 3.29809 8.99148 2.90241C8.80686 2.48895 8.56447 2.04955 8.32767 1.65263C8.08996 1.25417 7.85295 0.890334 7.67575 0.626578C7.58701 0.494491 7.51293 0.387004 7.46082 0.312237C7.43476 0.274843 7.41417 0.245603 7.39997 0.225531L7.38356 0.202414L7.37916 0.196244L7.3774 0.19379C7.37736 0.193735 7.3774 0.19379 6.99998 0.464425ZM0 5.11186V9.83784C0 10.3683 0.210607 10.8769 0.58568 11.2519L2.7772 13.4435V13.9998H6.10985V11.1262C6.10985 10.537 5.87577 9.97188 5.45911 9.55522L4.02286 8.11897L4.01904 8.11517C3.70472 7.85456 3.2378 7.8715 2.94332 8.16598C2.63087 8.47843 2.63087 8.98501 2.94332 9.29746L3.86262 10.2168C4.05788 10.412 4.05788 10.7286 3.86262 10.9239C3.66736 11.1191 3.35077 11.1191 3.15551 10.9239L2.23622 10.0046C1.53809 9.30645 1.53327 8.17756 2.22176 7.47349V5.11186C2.22176 4.49834 1.72441 4.00098 1.11088 4.00098C0.497359 4.00098 0 4.49834 0 5.11186ZM14 9.83784V5.11186C14 4.49834 13.5026 4.00098 12.8891 4.00098C12.2756 4.00098 11.7782 4.49834 11.7782 5.11186V7.47349C12.4667 8.17756 12.4619 9.30645 11.7638 10.0046L10.8445 10.9239C10.6492 11.1191 10.3326 11.1191 10.1374 10.9239C9.94212 10.7286 9.94212 10.412 10.1374 10.2168L11.0567 9.29746C11.3691 8.98501 11.3691 8.47843 11.0567 8.16598C10.7622 7.8715 10.2953 7.85456 9.98096 8.11517L9.97714 8.11897L8.54089 9.55522C8.12423 9.97188 7.89015 10.537 7.89015 11.1262V13.9998H11.2228V13.4435L13.4143 11.2519C13.7894 10.8769 14 10.3683 14 9.83784Z" fill="black"/>
</g>
<defs>
<clipPath id="clip0_1068_189758">
<rect width="14" height="14" fill="white"/>
</clipPath>
</defs>
</svg>
