<svg width="14" height="14" viewBox="0 0 14 14" fill="none" xmlns="http://www.w3.org/2000/svg">
<g clip-path="url(#clip0_1068_189749)">
<path fill-rule="evenodd" clip-rule="evenodd" d="M2.43254 7.80583V7.67592C3.37678 7.37494 4.97922 7.2295 7.00101 7.999C9.00227 8.7607 10.5962 8.50805 11.5459 8.109C11.4325 8.91262 10.874 9.59621 10.0879 9.85827L9.17565 10.1624C8.88117 10.2605 8.68254 10.5361 8.68254 10.8465V11.3273C8.68254 11.4601 8.57492 11.5677 8.44216 11.5677H7.02399C7.01617 11.5674 7.00833 11.5673 7.00045 11.5673C6.99258 11.5673 6.98473 11.5674 6.97692 11.5677H5.55754C5.42478 11.5677 5.31716 11.4601 5.31716 11.3273V10.8465C5.31716 10.5361 5.11853 10.2605 4.82405 10.1624L3.91186 9.85827C3.02843 9.56379 2.43254 8.73705 2.43254 7.80583ZM6.2793 13.01H5.55754C4.64131 13.01 3.89611 12.2777 3.8753 11.3664L3.45576 11.2266C1.98337 10.7358 0.990234 9.35786 0.990234 7.80583V3.63494C0.990234 1.64353 2.60459 0.0291748 4.59601 0.0291748H9.4037C11.3951 0.0291748 13.0095 1.64353 13.0095 3.63494V7.80583C13.0095 9.35786 12.0164 10.7358 10.544 11.2266L10.1244 11.3664C10.1036 12.2777 9.3584 13.01 8.44216 13.01H7.72161V13.25C7.72161 13.6483 7.39874 13.9711 7.00045 13.9711C6.60217 13.9711 6.2793 13.6483 6.2793 13.25V13.01ZM7.00206 2.83334L7.40839 2.54197C7.31449 2.41101 7.16321 2.33334 7.00206 2.33334C6.84091 2.33334 6.68964 2.41101 6.59573 2.54197L7.00206 2.83334ZM7.00206 2.83334C6.59573 2.54197 6.59577 2.54192 6.59573 2.54197L6.59465 2.54347L6.59233 2.54673L6.58407 2.55836L6.55428 2.60082C6.52895 2.63716 6.49315 2.6891 6.45037 2.75278C6.3651 2.87971 6.25061 3.05543 6.13535 3.24862C6.02109 3.44015 5.9008 3.6576 5.80754 3.86646C5.72282 4.05618 5.62743 4.30857 5.62743 4.54572C5.62743 4.91357 5.76745 5.27029 6.02282 5.53644C6.27888 5.80329 6.63067 5.95724 7.00206 5.95724C7.37346 5.95724 7.72525 5.80329 7.9813 5.53644C8.23667 5.27029 8.3767 4.91357 8.3767 4.54572C8.3767 4.30857 8.2813 4.05618 8.19658 3.86646C8.10332 3.6576 7.98304 3.44015 7.86877 3.24862C7.75352 3.05543 7.63903 2.87971 7.55375 2.75278C7.51097 2.6891 7.47517 2.63716 7.44985 2.60082L7.42005 2.55836L7.4118 2.54673L7.40947 2.54347L7.40839 2.54197C7.40835 2.54192 7.40839 2.54197 7.00206 2.83334Z" fill="black"/>
</g>
<defs>
<clipPath id="clip0_1068_189749">
<rect width="14" height="14" fill="white"/>
</clipPath>
</defs>
</svg>
