<svg width="14" height="14" viewBox="0 0 14 14" fill="none" xmlns="http://www.w3.org/2000/svg">
<path fill-rule="evenodd" clip-rule="evenodd" d="M6.8829 0.00211959C7.94903 -0.0186911 9.00145 0.245001 9.93182 0.766049C10.8622 1.2871 11.6369 2.04668 12.1762 2.9666C12.7154 3.88651 12.9998 4.93353 13 5.99986V9.99994C13 10.3977 12.842 10.7793 12.5607 11.0606C12.2794 11.3419 11.8978 11.4999 11.5 11.4999H10V13.4999C10 13.7761 9.77614 13.9999 9.5 13.9999H4.5C4.22386 13.9999 4 13.7761 4 13.4999V11.1971C3.1689 10.7173 2.46361 10.0442 1.94501 9.23317C1.37058 8.33478 1.04594 7.29954 1.00453 6.23401C0.963111 5.16848 1.20641 4.11117 1.70938 3.17091C2.21235 2.23064 2.95681 1.44141 3.86613 0.88445C4.77545 0.327491 5.81677 0.0229303 6.8829 0.00211959ZM3.55955 7.20966C2.95928 5.52934 3.62507 3.60846 5.22532 2.68455C6.80521 1.77241 8.77124 2.13493 9.93255 3.45304C10.2267 3.78693 10.1583 4.28539 9.82813 4.58366C8.58172 5.70947 6.53015 7.15343 4.51516 7.68722C4.11691 7.79272 3.69815 7.59762 3.55955 7.20966Z" fill="black"/>
</svg>
