<svg width="14" height="14" viewBox="0 0 14 14" fill="none" xmlns="http://www.w3.org/2000/svg">
<g clip-path="url(#clip0_1068_189740)">
<path fill-rule="evenodd" clip-rule="evenodd" d="M4.3817 0.82373C5.17994 0.82373 5.89476 1.18095 6.375 1.74425V6.30725C6.35817 6.51232 6.24167 6.93954 5.97421 7.32957C5.70976 7.71519 5.33987 8.00754 4.83125 8.06431C4.4882 8.1026 4.24114 8.41173 4.27943 8.75478C4.31772 9.09783 4.62685 9.34489 4.9699 9.3066C5.54184 9.24276 6.00658 9.01788 6.375 8.72219V12.3916C5.82694 13.1002 4.9684 13.5564 4.00331 13.5564C2.49886 13.5564 1.25336 12.4477 1.03924 11.0028C1.15327 10.652 1.33903 10.349 1.51695 10.2085C1.78786 9.99459 1.83407 9.60157 1.62016 9.33067C1.40626 9.05976 1.01323 9.01355 0.742325 9.22746C0.650146 9.30024 0.563842 9.38254 0.483473 9.47216C0.177677 8.80158 0 7.96879 0 7.23401C0 6.25959 0.312464 5.30283 0.821827 4.5981C0.932208 4.81126 1.06415 4.99862 1.20568 5.15984C1.57457 5.58011 2.03531 5.85232 2.39451 5.93422C2.73106 6.01094 3.06608 5.80032 3.1428 5.46378C3.21953 5.12723 3.00891 4.79221 2.67236 4.71549C2.61517 4.70245 2.37401 4.59602 2.1451 4.33524C1.96105 4.12556 1.8018 3.83431 1.76343 3.4448L1.76342 3.442C1.76342 1.99597 2.93566 0.82373 4.3817 0.82373ZM9.99672 13.5564C9.03161 13.5564 8.17306 13.1001 7.625 12.3916V6.54847C7.88125 6.73377 8.15292 6.8858 8.41676 6.99712C8.73479 7.13131 9.10138 6.98228 9.23557 6.66426C9.36976 6.34623 9.22073 5.97964 8.9027 5.84545C8.35048 5.61244 7.84059 5.16031 7.66215 4.7442C7.65121 4.7187 7.63878 4.6943 7.625 4.67105V1.74429C8.10524 1.18096 8.82007 0.82373 9.61833 0.82373C11.0644 0.82373 12.2366 1.99597 12.2366 3.442C12.2366 3.5379 12.2314 3.6326 12.2214 3.72583L12.2235 3.727C12.1604 4.13687 11.9932 4.51485 11.8137 4.69187C11.5679 4.93423 11.5651 5.32995 11.8075 5.57574C12.0498 5.82153 12.4456 5.82431 12.6914 5.58196C12.9331 5.34355 13.1174 5.03149 13.2485 4.69875C13.7161 5.39248 14 6.30523 14 7.23401C14 8.32338 13.6095 9.62818 12.9899 10.3004L12.9672 10.299C12.8392 10.2898 12.6748 10.2584 12.491 10.1893C12.1284 10.0528 11.6897 9.76898 11.3076 9.21421C11.1118 8.92993 10.7226 8.8582 10.4384 9.05399C10.1541 9.24978 10.0824 9.63896 10.2781 9.92323C10.8088 10.6937 11.4556 11.1352 12.0507 11.3591C12.316 11.459 12.582 11.5191 12.8287 11.5417C12.4222 12.7144 11.3078 13.5564 9.99672 13.5564Z" fill="black"/>
</g>
<defs>
<clipPath id="clip0_1068_189740">
<rect width="14" height="14" fill="white"/>
</clipPath>
</defs>
</svg>
