<svg width="14" height="14" viewBox="0 0 14 14" fill="none" xmlns="http://www.w3.org/2000/svg">
<g clip-path="url(#clip0_1068_189773)">
<path fill-rule="evenodd" clip-rule="evenodd" d="M5.65662 1.19542C5.86416 0.608231 6.42412 0.186035 7.0843 0.186035H7.70003C8.52345 0.186035 9.19096 0.853548 9.19096 1.67697C9.19096 2.26931 8.8403 2.80547 8.29762 3.0429L6.97849 3.62002C6.92138 3.645 6.87628 3.68867 6.84909 3.74201H8.56596C8.91114 3.74201 9.19096 4.02183 9.19096 4.36701C9.19096 4.71219 8.91114 4.99201 8.56596 4.99201H6.19531C5.85013 4.99201 5.57031 4.71219 5.57031 4.36701V3.86188C5.57031 3.26037 5.92639 2.71591 6.47747 2.47482L7.7966 1.8977C7.88429 1.85933 7.94096 1.77269 7.94096 1.67697C7.94096 1.5439 7.83309 1.43604 7.70003 1.43604H7.0843C6.97034 1.43604 6.87171 1.5086 6.83517 1.61198C6.72014 1.93742 6.36306 2.108 6.03762 1.99297C5.71217 1.87794 5.54159 1.52087 5.65662 1.19542ZM11.7599 0.469079C11.9173 0.289209 12.1446 0.186035 12.3836 0.186035C12.8414 0.186035 13.2125 0.557118 13.2125 1.01487V2.85384C13.5426 2.87067 13.8051 3.14368 13.8051 3.47802C13.8051 3.81235 13.5426 4.08537 13.2125 4.1022V4.367C13.2125 4.71218 12.9326 4.992 12.5875 4.992C12.2423 4.992 11.9625 4.71218 11.9625 4.367V4.10302H10.4322C9.96805 4.10302 9.59179 3.72676 9.59179 3.26262C9.59179 3.05905 9.66568 2.86241 9.79973 2.70921L11.7599 0.469079ZM11.3349 2.85302L11.9625 2.13578V2.85302H11.3349ZM8.9145 13.7987C8.30142 13.8642 7.68438 13.7179 7.16598 13.3841C4.5772 11.6404 2.34971 9.4129 0.605984 6.82412C0.278441 6.30027 0.140465 5.67992 0.21508 5.06662C0.289695 4.45332 0.572389 3.88416 1.01598 3.45412L1.39598 3.07412C1.56635 2.90557 1.79633 2.81104 2.03598 2.81104C2.27563 2.81104 2.50561 2.90557 2.67598 3.07412L4.21598 4.67412C4.38391 4.84279 4.47819 5.07111 4.47819 5.30912C4.47819 5.54713 4.38391 5.77545 4.21598 5.94412C4.04743 6.11449 3.9529 6.34447 3.9529 6.58412C3.9529 6.82377 4.04743 7.05375 4.21598 7.22412L6.76598 9.77412C6.93635 9.94267 7.16633 10.0372 7.40598 10.0372C7.64563 10.0372 7.87561 9.94267 8.04598 9.77412C8.21465 9.60619 8.44297 9.51191 8.68098 9.51191C8.91899 9.51191 9.14731 9.60619 9.31598 9.77412L10.916 11.3641C11.0845 11.5345 11.1791 11.7645 11.1791 12.0041C11.1791 12.2438 11.0845 12.4738 10.916 12.6441L10.536 13.0241C10.0998 13.4599 9.52759 13.7333 8.9145 13.7987Z" fill="black"/>
</g>
<defs>
<clipPath id="clip0_1068_189773">
<rect width="14" height="14" fill="white"/>
</clipPath>
</defs>
</svg>
