<svg width="14" height="14" viewBox="0 0 14 14" fill="none" xmlns="http://www.w3.org/2000/svg">
<path fill-rule="evenodd" clip-rule="evenodd" d="M4.5 1C4.5 0.447716 4.94772 0 5.5 0H8.5C9.05229 0 9.5 0.447715 9.5 1V1.5C9.5 2.05229 9.05229 2.5 8.5 2.5H5.5C4.94772 2.5 4.5 2.05229 4.5 1.5V1ZM10.75 1H11.25C12.0784 1 12.75 1.67157 12.75 2.5V12.5C12.75 13.3284 12.0784 14 11.25 14H2.75C1.92157 14 1.25 13.3284 1.25 12.5V2.5C1.25 1.67157 1.92157 1 2.75 1H3.24997V1.5C3.24997 2.74264 4.25733 3.75 5.49997 3.75H8.49997C9.74261 3.75 10.75 2.74264 10.75 1.5V1ZM5.97021 5.94812C5.97021 5.73145 6.14586 5.5558 6.36253 5.5558H7.63757C7.85424 5.5558 8.02989 5.73145 8.02989 5.94812V7.50839H9.59015C9.80683 7.50839 9.98247 7.68403 9.98247 7.90071V9.17575C9.98247 9.39242 9.80683 9.56807 9.59015 9.56807H8.02989L8.02984 11.1283C8.02984 11.345 7.85419 11.5206 7.63752 11.5206H6.36248C6.14581 11.5206 5.97016 11.345 5.97016 11.1283V9.56807H4.4099C4.19323 9.56807 4.01758 9.39242 4.01758 9.17575V7.90071C4.01758 7.68403 4.19323 7.50839 4.4099 7.50839H5.97021V5.94812Z" fill="black"/>
</svg>
