<svg width="14" height="14" viewBox="0 0 14 14" fill="none" xmlns="http://www.w3.org/2000/svg">
<g clip-path="url(#clip0_1068_189737)">
<path fill-rule="evenodd" clip-rule="evenodd" d="M0.529419 3.03026C1.09964 1.75198 2.35981 0.371338 4.45458 0.371338C7.42039 0.371338 9.09014 2.5537 9.09014 4.73086C9.09014 6.8242 7.78725 8.15693 6.85299 8.843C6.26713 9.27322 5.88732 9.61203 5.88732 10.1265C5.88732 11.4043 4.84345 12.2955 3.74191 12.5396C2.60237 12.7921 1.25939 12.3994 0.555867 11.0126C0.413741 10.7325 0.371094 10.4348 0.371094 10.172V3.82215C0.371094 3.56798 0.411962 3.29357 0.529419 3.03026ZM3.36318 4.41445C3.5439 3.86707 3.92631 3.44218 4.4736 3.44218C5.31816 3.44218 5.81502 4.10357 5.81502 4.86168C5.81502 5.3313 5.70529 5.60404 5.58042 5.78553C5.44709 5.9793 5.25947 6.12485 5.00047 6.29033C4.96033 6.31597 4.91548 6.34368 4.86736 6.3734C4.64791 6.50896 4.36032 6.68659 4.1402 6.90326C3.82576 7.21276 3.60892 7.62421 3.60892 8.19023C3.60892 8.42262 3.54813 8.54636 3.50181 8.60655C3.45565 8.66653 3.39761 8.69881 3.33305 8.71068C3.19425 8.73619 3.01575 8.66774 2.93218 8.4707C2.79741 8.15292 2.43055 8.00456 2.11277 8.13933C1.79499 8.2741 1.64663 8.64097 1.7814 8.95875C2.09966 9.70919 2.85973 10.0687 3.55903 9.94008C3.91353 9.87492 4.24943 9.68468 4.49245 9.36887C4.7353 9.05329 4.85892 8.64796 4.85892 8.19023C4.85892 7.99074 4.91784 7.89177 5.01705 7.79412C5.12784 7.68507 5.26052 7.60235 5.46296 7.47614C5.52582 7.43695 5.59572 7.39336 5.67346 7.3437C5.96599 7.1568 6.32989 6.90148 6.61021 6.49408C6.89898 6.07439 7.06502 5.54564 7.06502 4.86168C7.06502 3.5878 6.17103 2.19218 4.4736 2.19218C3.13446 2.19218 2.4304 3.25265 2.1762 4.02255C2.06798 4.35032 2.24596 4.70376 2.57374 4.81198C2.90151 4.92021 3.25496 4.74222 3.36318 4.41445ZM12.8785 8.69805C13.2928 8.69805 13.6285 9.03384 13.6285 9.44805C13.6285 11.757 11.7568 13.6288 9.44782 13.6288C9.03361 13.6288 8.69782 13.293 8.69782 12.8788C8.69782 12.4646 9.03361 12.1288 9.44782 12.1288C10.9284 12.1288 12.1285 10.9286 12.1285 9.44805C12.1285 9.03384 12.4643 8.69805 12.8785 8.69805ZM11.1851 8.55701C11.1851 8.14279 10.8493 7.80701 10.4351 7.80701C10.0209 7.80701 9.68507 8.14279 9.68507 8.55701C9.68507 9.16173 9.19485 9.65196 8.59012 9.65196C8.17591 9.65196 7.84012 9.98774 7.84012 10.402C7.84012 10.8162 8.17591 11.152 8.59012 11.152C10.0233 11.152 11.1851 9.99016 11.1851 8.55701Z" fill="black"/>
</g>
<defs>
<clipPath id="clip0_1068_189737">
<rect width="14" height="14" fill="white"/>
</clipPath>
</defs>
</svg>
