<svg width="14" height="14" viewBox="0 0 14 14" fill="none" xmlns="http://www.w3.org/2000/svg">
<path fill-rule="evenodd" clip-rule="evenodd" d="M4.35201 1.26778C4.74775 1.14546 5.16772 1.3671 5.29005 1.76284L5.69749 3.08096C6.10508 3.00526 6.53897 2.96311 6.99975 2.96311C7.46035 2.96311 7.8941 3.00523 8.30156 3.08088L8.70897 1.76284C8.8313 1.3671 9.25127 1.14546 9.64701 1.26778C10.0427 1.39011 10.2644 1.81008 10.1421 2.20582L9.73664 3.51744C10.5164 3.85414 11.1628 4.30855 11.6827 4.77811L12.6679 3.79289C12.9608 3.49999 13.4357 3.49999 13.7286 3.79289C14.0215 4.08578 14.0215 4.56065 13.7286 4.85355L12.6963 5.88585C12.8439 6.08088 12.9686 6.26401 13.0714 6.42656C13.1954 6.62258 13.2894 6.79169 13.3546 6.91974C13.387 6.98324 13.4141 7.0402 13.4349 7.08794C13.4449 7.11092 13.4563 7.13818 13.4667 7.16644C13.4716 7.17983 13.4794 7.20196 13.4871 7.22861C13.4909 7.24184 13.4968 7.26346 13.5022 7.29022C13.5061 7.30945 13.5175 7.36734 13.5175 7.4421C13.5175 7.51687 13.5061 7.57475 13.5022 7.59398C13.4968 7.62074 13.4909 7.64236 13.4871 7.6556C13.4794 7.68225 13.4716 7.70437 13.4667 7.71776C13.4563 7.74602 13.4449 7.77329 13.4349 7.79626C13.4141 7.844 13.387 7.90097 13.3546 7.96447C13.2894 8.09251 13.1954 8.26162 13.0714 8.45765C12.8239 8.84904 12.4492 9.35973 11.9341 9.8686C10.9001 10.8899 9.27872 11.9211 6.99975 11.9211C4.72077 11.9211 3.09939 10.8899 2.06542 9.8686C1.55027 9.35973 1.1756 8.84904 0.928046 8.45765C0.80406 8.26162 0.710051 8.09251 0.644838 7.96447C0.612497 7.90097 0.585421 7.844 0.564602 7.79626C0.554584 7.77329 0.543198 7.74602 0.532831 7.71776C0.52792 7.70437 0.520084 7.68225 0.512418 7.6556C0.508611 7.64236 0.50273 7.62074 0.497288 7.59398C0.493378 7.57475 0.481934 7.51687 0.481934 7.4421C0.481934 7.36734 0.493378 7.30945 0.497288 7.29022C0.50273 7.26346 0.508611 7.24184 0.512418 7.22861C0.520084 7.20196 0.52792 7.17983 0.532831 7.16644C0.543198 7.13818 0.554584 7.11092 0.564602 7.08794C0.585421 7.0402 0.612497 6.98324 0.644838 6.91973C0.710051 6.79169 0.80406 6.62258 0.928046 6.42656C1.03081 6.26408 1.15548 6.08104 1.30302 5.88611L0.270451 4.85355C-0.022442 4.56065 -0.022442 4.08578 0.270451 3.79289C0.563345 3.49999 1.03822 3.49999 1.33111 3.79289L2.31656 4.77834C2.8364 4.30878 3.48272 3.85435 4.26244 3.51762L3.85695 2.20582C3.73462 1.81008 3.95627 1.39011 4.35201 1.26778ZM6.52654 9.50575C7.66641 9.76677 8.80205 9.05431 9.06306 7.91444C9.32408 6.77457 8.61162 5.63893 7.47175 5.37792C6.33188 5.11691 5.19624 5.82936 4.93523 6.96923C4.67422 8.1091 5.38667 9.24474 6.52654 9.50575Z" fill="black"/>
</svg>
