<svg width="14" height="14" viewBox="0 0 14 14" fill="none" xmlns="http://www.w3.org/2000/svg">
<path fill-rule="evenodd" clip-rule="evenodd" d="M0.0292969 5.83696C0.0292969 4.47184 1.07578 3.27783 2.47089 3.27783H3.65002H10.3484H11.5275C12.9226 3.27783 13.9691 4.47184 13.9691 5.83696C13.9691 6.38968 13.7985 6.92863 13.4813 7.37221C13.3255 7.59005 13.1354 7.74635 13.0022 7.85055L11.1641 9.28851C8.72622 11.1957 5.30358 11.2004 2.86047 9.29992L1.00152 7.85386C0.865675 7.74818 0.671738 7.5895 0.513706 7.36743C0.198698 6.92477 0.0292969 6.38771 0.0292969 5.83696ZM2.47089 4.77783C1.99752 4.77783 1.5293 5.20377 1.5293 5.83696C1.5293 6.08217 1.60513 6.31405 1.73585 6.49773C1.76094 6.533 1.80907 6.58164 1.92252 6.6699L3.26606 7.71503V4.77783H2.47089ZM12.0779 6.66912L10.7324 7.72177V4.77783H11.5275C12.0009 4.77783 12.4691 5.20377 12.4691 5.83696C12.4691 6.08306 12.3927 6.31571 12.2611 6.4997C12.2364 6.5343 12.1891 6.5821 12.0779 6.66912ZM6.30774 5.50787C5.96256 5.50787 5.68274 5.7877 5.68274 6.13287C5.68274 6.47805 5.96256 6.75787 6.30774 6.75787H7.69075C8.03593 6.75787 8.31575 6.47805 8.31575 6.13287C8.31575 5.7877 8.03593 5.50787 7.69075 5.50787H6.30774Z" fill="black"/>
</svg>
