<svg width="14" height="14" viewBox="0 0 14 14" fill="none" xmlns="http://www.w3.org/2000/svg">
<path fill-rule="evenodd" clip-rule="evenodd" d="M4.68427 2.42245C4.68427 1.14383 5.72079 0.1073 6.99941 0.1073C8.27804 0.1073 9.31456 1.14383 9.31456 2.42245C9.31456 3.70107 8.27804 4.7376 6.99941 4.7376C5.72079 4.7376 4.68427 3.70107 4.68427 2.42245ZM2.44581 6.21445C2.91701 5.76724 3.54186 5.51792 4.19149 5.51792C4.84113 5.51792 5.46598 5.76724 5.93718 6.21445L5.94665 6.22344L6.99937 7.2764L8.05222 6.22356L8.06145 6.21433C8.53264 5.76712 9.15762 5.51792 9.80725 5.51792C10.4569 5.51792 11.0817 5.76724 11.5529 6.21445C11.7869 6.43665 11.9734 6.70425 12.1007 7.00075C12.228 7.29725 12.2937 7.61657 12.2937 7.93925C12.2937 8.26194 12.228 8.58125 12.1007 8.87776C11.9738 9.17332 11.7882 9.44007 11.5553 9.66186L7.34786 13.7513C7.15382 13.9399 6.84493 13.9399 6.65088 13.7513L2.44349 9.66185C2.21054 9.44006 2.02499 9.17332 1.89807 8.87776C1.77074 8.58125 1.70508 8.26194 1.70508 7.93925C1.70508 7.61657 1.77074 7.29726 1.89807 7.00075C2.02539 6.70425 2.21182 6.43665 2.44581 6.21445Z" fill="black"/>
</svg>
