<svg width="14" height="14" viewBox="0 0 14 14" fill="none" xmlns="http://www.w3.org/2000/svg">
<path fill-rule="evenodd" clip-rule="evenodd" d="M6.99196 2.60647C6.02649 1.64462 5.0192 1.16763 4.0518 1.09623C2.95741 1.01546 1.99196 1.46021 1.29575 2.16224C-0.0728108 3.54224 -0.490384 6.03708 1.21852 7.75383C1.22337 7.7587 1.22832 7.76347 1.23336 7.76813L6.65181 12.7802C6.84345 12.9575 7.13921 12.9575 7.33085 12.7802L12.7493 7.76813L12.7609 7.75704C14.495 6.04652 14.0756 3.55162 12.7014 2.17166C12.0027 1.47002 11.0341 1.02512 9.93761 1.10377C8.96801 1.17333 7.95835 1.64743 6.99196 2.60647ZM6.6511 4.58781C6.5557 4.3665 6.34157 4.21975 6.10075 4.21065C5.85992 4.20155 5.63532 4.33172 5.5235 4.5452L4.66772 6.17896H3.51464C3.16947 6.17896 2.88964 6.45878 2.88964 6.80396C2.88964 7.14913 3.16947 7.42896 3.51464 7.42896H5.04589C5.27839 7.42896 5.49166 7.29991 5.59954 7.09396L6.02229 6.2869L7.06569 8.7076C7.15225 8.90842 7.33747 9.04939 7.55409 9.07932C7.77071 9.10926 7.98722 9.0238 8.125 8.85398L9.28115 7.42896H10.4834C10.8285 7.42896 11.1084 7.14913 11.1084 6.80396C11.1084 6.45878 10.8285 6.17896 10.4834 6.17896H8.98339C8.79503 6.17896 8.61672 6.26391 8.49804 6.41018L7.80487 7.26456L6.6511 4.58781Z" fill="black"/>
</svg>
