<svg width="14" height="14" viewBox="0 0 14 14" fill="none" xmlns="http://www.w3.org/2000/svg">
<g clip-path="url(#clip0_1068_189746)">
<path fill-rule="evenodd" clip-rule="evenodd" d="M6.25005 1.5C3.62667 1.5 1.5 3.62667 1.5 6.25005C1.5 8.87342 3.62667 11.0001 6.25005 11.0001C8.87342 11.0001 11.0001 8.87342 11.0001 6.25005C11.0001 3.62667 8.87342 1.5 6.25005 1.5ZM0 6.25005C0 2.79824 2.79824 0 6.25005 0C9.70185 0 12.5001 2.79824 12.5001 6.25005C12.5001 7.61502 12.0625 8.87779 11.32 9.90575L13.7073 12.2931C14.0979 12.6836 14.0979 13.3168 13.7073 13.7073C13.3168 14.0978 12.6836 14.0978 12.2931 13.7073L9.90582 11.32C8.87785 12.0625 7.61505 12.5001 6.25005 12.5001C2.79824 12.5001 0 9.70185 0 6.25005ZM5.96187 4.52749C5.86033 4.32337 5.65572 4.19074 5.42794 4.18138C5.20016 4.17202 4.98535 4.28742 4.86741 4.48252L4.10148 5.74955H3.0459C2.70072 5.74955 2.4209 6.02937 2.4209 6.37455C2.4209 6.71973 2.70072 6.99955 3.0459 6.99955H4.45398C4.67278 6.99955 4.87565 6.88513 4.98884 6.69788L5.34902 6.10207L6.27951 7.97261C6.3707 8.15594 6.54591 8.28297 6.7485 8.31265C6.95109 8.34233 7.15538 8.27089 7.29532 8.12142L8.34576 6.99955H9.4541C9.79928 6.99955 10.0791 6.71973 10.0791 6.37455C10.0791 6.02937 9.79928 5.74955 9.4541 5.74955H8.07476C7.90187 5.74955 7.7367 5.82117 7.61853 5.94737L6.9979 6.61021L5.96187 4.52749Z" fill="black"/>
</g>
<defs>
<clipPath id="clip0_1068_189746">
<rect width="14" height="14" fill="white"/>
</clipPath>
</defs>
</svg>
