<svg width="14" height="14" viewBox="0 0 14 14" fill="none" xmlns="http://www.w3.org/2000/svg">
<g clip-path="url(#clip0_1068_189783)">
<path fill-rule="evenodd" clip-rule="evenodd" d="M0 1C0 0.447716 0.447715 0 1 0H13C13.5523 0 14 0.447715 14 1V13C14 13.5523 13.5523 14 13 14H1C0.447716 14 0 13.5523 0 13V1ZM5.625 4.5C5.625 4.15482 5.34518 3.875 5 3.875C4.65482 3.875 4.375 4.15482 4.375 4.5V7V9.5C4.375 9.84518 4.65482 10.125 5 10.125C5.34518 10.125 5.625 9.84518 5.625 9.5V7.625H8.375V9.5C8.375 9.84518 8.65482 10.125 9 10.125C9.34518 10.125 9.625 9.84518 9.625 9.5V7V4.5C9.625 4.15482 9.34518 3.875 9 3.875C8.65482 3.875 8.375 4.15482 8.375 4.5V6.375H5.625V4.5Z" fill="black"/>
</g>
<defs>
<clipPath id="clip0_1068_189783">
<rect width="14" height="14" fill="white"/>
</clipPath>
</defs>
</svg>
