<svg width="14" height="14" viewBox="0 0 14 14" fill="none" xmlns="http://www.w3.org/2000/svg">
<g clip-path="url(#clip0_1068_189731)">
<path fill-rule="evenodd" clip-rule="evenodd" d="M0 7C0 3.13401 3.13401 0 7 0C10.866 0 14 3.13401 14 7C14 10.866 10.866 14 7 14C3.13401 14 0 10.866 0 7ZM5.625 4.5C5.625 4.15482 5.34518 3.875 5 3.875C4.65482 3.875 4.375 4.15482 4.375 4.5V7V9.5C4.375 9.84518 4.65482 10.125 5 10.125C5.34518 10.125 5.625 9.84518 5.625 9.5V7.625H8.375V9.5C8.375 9.84518 8.65482 10.125 9 10.125C9.34518 10.125 9.625 9.84518 9.625 9.5V7V4.5C9.625 4.15482 9.34518 3.875 9 3.875C8.65482 3.875 8.375 4.15482 8.375 4.5V6.375H5.625V4.5Z" fill="black"/>
</g>
<defs>
<clipPath id="clip0_1068_189731">
<rect width="14" height="14" fill="white"/>
</clipPath>
</defs>
</svg>
