<svg width="14" height="14" viewBox="0 0 14 14" fill="none" xmlns="http://www.w3.org/2000/svg">
<path fill-rule="evenodd" clip-rule="evenodd" d="M7.90625 1.53125C7.90625 1.25511 8.13011 1.03125 8.40625 1.03125H10.0312C10.3074 1.03125 10.5312 1.25511 10.5312 1.53125V2.93753H11.9375C12.2136 2.93753 12.4375 3.16138 12.4375 3.43753V5.06253C12.4375 5.33867 12.2136 5.56253 11.9375 5.56253H10.5312V6.96875C10.5312 7.24489 10.3074 7.46875 10.0312 7.46875H8.40625C8.13011 7.46875 7.90625 7.24489 7.90625 6.96875V5.56253H6.5C6.22386 5.56253 6 5.33867 6 5.06253V3.43753C6 3.16138 6.22386 2.93753 6.5 2.93753H7.90625V1.53125ZM1.84315 7H0V11L1.82843 12.8284C2.57857 13.5786 3.59599 14 4.65685 14H10.5C11.3284 14 12 13.3284 12 12.5C12 11.6716 11.3284 11 10.5 11H7.72314C7.62662 11.3265 7.44953 11.6342 7.19188 11.8918C6.36791 12.7158 5.03199 12.7158 4.20802 11.8918L2.75801 10.4418C2.51393 10.1977 2.51393 9.80201 2.75801 9.55794C3.00209 9.31386 3.39782 9.31386 3.64189 9.55794L5.09191 11.0079C5.42772 11.3438 5.97218 11.3438 6.308 11.0079C6.60999 10.706 6.64041 10.2352 6.39924 9.89924L4.67157 8.17157C3.92143 7.42143 2.90401 7 1.84315 7Z" fill="black"/>
</svg>
