<svg width="14" height="14" viewBox="0 0 14 14" fill="none" xmlns="http://www.w3.org/2000/svg">
<g clip-path="url(#clip0_1068_189743)">
<path fill-rule="evenodd" clip-rule="evenodd" d="M4.99895 0C4.52458 0 4.03951 0.15342 3.65601 0.469027C3.26701 0.789168 2.99841 1.26994 2.99841 1.82341V3.36588H1.5C0.690789 3.36588 0 4.0009 0 4.82631V12.5098C0 13.3352 0.690789 13.9702 1.5 13.9702H12.5C13.3092 13.9702 14 13.3352 14 12.5098V4.82631C14 4.0009 13.3092 3.36588 12.5 3.36588H11.0016V1.82341C11.0016 1.26994 10.733 0.789168 10.344 0.469027C9.96051 0.15342 9.47544 0 9.00108 0H4.99895ZM9.00161 3.36588V2H4.99895L4.99841 3.36588H9.00161ZM4.375 8.66805C4.375 8.32287 4.65482 8.04305 5 8.04305H6.375V6.66805C6.375 6.32287 6.65482 6.04305 7 6.04305C7.34518 6.04305 7.625 6.32287 7.625 6.66805V8.04305H9C9.34518 8.04305 9.625 8.32287 9.625 8.66805C9.625 9.01323 9.34518 9.29305 9 9.29305H7.625V10.668C7.625 11.0132 7.34518 11.293 7 11.293C6.65482 11.293 6.375 11.0132 6.375 10.668V9.29305H5C4.65482 9.29305 4.375 9.01323 4.375 8.66805Z" fill="black"/>
</g>
<defs>
<clipPath id="clip0_1068_189743">
<rect width="14" height="14" fill="white"/>
</clipPath>
</defs>
</svg>
