<svg width="14" height="14" viewBox="0 0 14 14" fill="none" xmlns="http://www.w3.org/2000/svg">
<g clip-path="url(#clip0_1068_189786)">
<path fill-rule="evenodd" clip-rule="evenodd" d="M5.04771 0.756836C5.04771 0.480693 5.27157 0.256836 5.54771 0.256836H8.45313C8.72927 0.256836 8.95313 0.480694 8.95313 0.756836V3.61784L11.4309 2.18734C11.67 2.04927 11.9758 2.13121 12.1139 2.37035L13.5666 4.88652C13.7047 5.12567 13.6227 5.43146 13.3836 5.56953L10.9059 7.00004L13.3835 8.43053C13.6227 8.5686 13.7046 8.8744 13.5666 9.11355L12.1138 11.6297C11.9758 11.8689 11.67 11.9508 11.4308 11.8127L8.95313 10.3822V13.2432C8.95313 13.5194 8.72927 13.7432 8.45313 13.7432H5.54771C5.27157 13.7432 5.04771 13.5194 5.04771 13.2432V10.3822L2.57001 11.8127C2.33086 11.9508 2.02507 11.8689 1.88699 11.6297L0.434281 9.11355C0.29621 8.8744 0.378147 8.5686 0.617293 8.43053L3.09499 7.00004L0.617271 5.56953C0.378124 5.43146 0.296187 5.12567 0.434258 4.88652L1.88697 2.37035C2.02504 2.13121 2.33084 2.04927 2.56998 2.18734L5.04771 3.61785V0.756836Z" fill="black"/>
</g>
<defs>
<clipPath id="clip0_1068_189786">
<rect width="14" height="14" fill="white"/>
</clipPath>
</defs>
</svg>
