<svg width="14" height="14" viewBox="0 0 14 14" fill="none" xmlns="http://www.w3.org/2000/svg">
<path fill-rule="evenodd" clip-rule="evenodd" d="M8.4167 0.362249C7.96493 0.190308 7.48311 0.112157 7.00055 0.132317C6.518 0.112157 6.03617 0.190308 5.58441 0.362249C5.11454 0.541081 4.68784 0.817323 4.33234 1.17282C3.97684 1.52832 3.7006 1.95502 3.52177 2.42489C3.34644 2.88556 3.26863 3.3775 3.29315 3.86958C3.30064 5.00813 3.7549 6.18739 4.33038 7.24972C4.73184 7.99082 5.2185 8.72216 5.72619 9.40645C5.1101 10.1419 4.50936 10.7861 4.04232 11.2653C3.775 11.5395 3.55287 11.7583 3.3986 11.9075L3.16323 12.1315C2.75763 12.5062 2.73249 13.1387 3.10711 13.5444C3.48178 13.9502 4.11444 13.9754 4.5202 13.6007L4.52095 13.6C4.84756 13.2963 5.16323 12.9806 5.47449 12.6613C5.9012 12.2235 6.437 11.6519 7.00056 10.9958C7.56411 11.6519 8.09991 12.2235 8.52662 12.6613C9.07723 13.2262 10.0316 14.4784 10.894 13.5444C11.2686 13.1387 11.2432 12.5059 10.8376 12.1312L10.8354 12.1292L10.8344 12.1283C10.5364 11.8468 10.2449 11.5588 9.95879 11.2653C9.49175 10.7861 8.89101 10.1419 8.27492 9.40645C8.78261 8.72215 9.26927 7.99082 9.67073 7.24972C10.2462 6.18739 10.7005 5.00813 10.708 3.86958C10.7325 3.3775 10.6547 2.88556 10.4793 2.42489C10.3005 1.95502 10.0243 1.52832 9.66877 1.17282C9.31327 0.817323 8.88656 0.541081 8.4167 0.362249ZM7.00055 7.75481C7.33808 7.27303 7.64938 6.78222 7.91218 6.2971C8.43181 5.33786 8.70806 4.49777 8.70806 3.84103C8.70806 2.70933 7.91218 2.13185 6.94253 2.13185C5.97288 2.13185 5.29305 2.91462 5.29305 3.84103C5.29305 4.49777 5.5693 5.33786 6.08893 6.2971C6.35173 6.78222 6.66303 7.27303 7.00055 7.75481Z" fill="black"/>
</svg>
