<svg width="14" height="14" viewBox="0 0 14 14" fill="none" xmlns="http://www.w3.org/2000/svg">
<g clip-path="url(#clip0_1068_189804)">
<path fill-rule="evenodd" clip-rule="evenodd" d="M6.25005 1.5C3.62667 1.5 1.5 3.62667 1.5 6.25004C1.5 8.87342 3.62667 11.0001 6.25005 11.0001C8.87342 11.0001 11.0001 8.87342 11.0001 6.25004C11.0001 3.62667 8.87342 1.5 6.25005 1.5ZM0 6.25004C0 2.79824 2.79824 0 6.25005 0C9.70185 0 12.5001 2.79824 12.5001 6.25004C12.5001 7.61502 12.0625 8.8778 11.32 9.90576L13.7073 12.2931C14.0978 12.6836 14.0978 13.3168 13.7073 13.7073C13.3168 14.0978 12.6836 14.0978 12.2931 13.7073L9.9058 11.32C8.87783 12.0625 7.61504 12.5001 6.25005 12.5001C2.79824 12.5001 0 9.70185 0 6.25004ZM5.4375 3.03125C5.16136 3.03125 4.9375 3.25511 4.9375 3.53125V4.93752H3.53125C3.25511 4.93752 3.03125 5.16138 3.03125 5.43752V7.06252C3.03125 7.33867 3.25511 7.56252 3.53125 7.56252H4.9375V8.96875C4.9375 9.24489 5.16136 9.46875 5.4375 9.46875H7.0625C7.33864 9.46875 7.5625 9.24489 7.5625 8.96875V7.56252H8.96875C9.24489 7.56252 9.46875 7.33867 9.46875 7.06252V5.43752C9.46875 5.16138 9.24489 4.93752 8.96875 4.93752H7.5625V3.53125C7.5625 3.25511 7.33864 3.03125 7.0625 3.03125H5.4375Z" fill="black"/>
</g>
<defs>
<clipPath id="clip0_1068_189804">
<rect width="14" height="14" fill="white"/>
</clipPath>
</defs>
</svg>
