<svg width="14" height="14" viewBox="0 0 14 14" fill="none" xmlns="http://www.w3.org/2000/svg">
<path fill-rule="evenodd" clip-rule="evenodd" d="M1.43934 0.43934C1.72064 0.158035 2.10218 0 2.5 0H8.5C8.63261 0 8.75979 0.0526784 8.85355 0.146447L12.8536 4.14645C12.9473 4.24021 13 4.36739 13 4.5V12.5C13 12.8978 12.842 13.2794 12.5607 13.5607C12.2794 13.842 11.8978 14 11.5 14H2.5C2.10217 14 1.72064 13.842 1.43934 13.5607C1.15804 13.2794 1 12.8978 1 12.5V1.5C1 1.10218 1.15804 0.720644 1.43934 0.43934ZM5.97021 5.42748C5.97021 5.2108 6.14586 5.03516 6.36253 5.03516H7.63757C7.85424 5.03516 8.02989 5.2108 8.02989 5.42748V6.98774H9.59015C9.80683 6.98774 9.98247 7.16339 9.98247 7.38006V8.6551C9.98247 8.87177 9.80683 9.04742 9.59015 9.04742H8.02989L8.02984 10.6077C8.02984 10.8244 7.85419 11 7.63752 11H6.36248C6.14581 11 5.97016 10.8244 5.97016 10.6077V9.04742H4.4099C4.19323 9.04742 4.01758 8.87177 4.01758 8.6551V7.38006C4.01758 7.16339 4.19323 6.98774 4.4099 6.98774H5.97021V5.42748Z" fill="black"/>
</svg>
