<svg width="14" height="14" viewBox="0 0 14 14" fill="none" xmlns="http://www.w3.org/2000/svg">
<g clip-path="url(#clip0_1068_189734)">
<path fill-rule="evenodd" clip-rule="evenodd" d="M5 0C4.72386 0 4.5 0.223858 4.5 0.5V4.5H0.5C0.223858 4.5 0 4.72386 0 5V9C0 9.27614 0.223858 9.5 0.5 9.5H4.5V13.5C4.5 13.7761 4.72386 14 5 14H9C9.27614 14 9.5 13.7761 9.5 13.5V9.5H13.5C13.7761 9.5 14 9.27614 14 9V5C14 4.72386 13.7761 4.5 13.5 4.5H9.5V0.5C9.5 0.223858 9.27614 0 9 0H5Z" fill="black"/>
</g>
<defs>
<clipPath id="clip0_1068_189734">
<rect width="14" height="14" fill="white"/>
</clipPath>
</defs>
</svg>
