<svg width="14" height="14" viewBox="0 0 14 14" fill="none" xmlns="http://www.w3.org/2000/svg">
<g clip-path="url(#clip0_1068_189792)">
<path fill-rule="evenodd" clip-rule="evenodd" d="M3.97473 0.0175781H4.97473C5.25087 0.0175781 5.47473 0.241436 5.47473 0.517578V2.26758H3.47473V0.517578C3.47473 0.241436 3.69858 0.0175781 3.97473 0.0175781ZM3.22473 3.23877C2.94858 3.23877 2.72473 3.46263 2.72473 3.73877V7.23877C2.72473 7.81184 3.19287 8.2745 3.76591 8.26775L5.2248 8.25056C5.77894 8.24402 6.22473 7.79295 6.22473 7.23877V5.79166H7.74762C9.52636 5.79166 10.9683 7.23362 10.9683 9.01236V9.73242H5.97424H1.97424C1.56003 9.73242 1.22424 10.0682 1.22424 10.4824C1.22424 10.8966 1.56003 11.2324 1.97424 11.2324H5.02539C5.02539 11.4776 4.91721 11.8129 4.72074 12.1389C4.48959 12.362 4.23128 12.4824 3.97424 12.4824H1.02539C0.611178 12.4824 0.275391 12.8182 0.275391 13.2324C0.275391 13.6466 0.611178 13.9824 1.02539 13.9824H3.97424H4.02539H12.9742C13.3884 13.9824 13.7242 13.6466 13.7242 13.2324V10.7329L13.7251 9.04068C13.7251 5.83637 11.1275 3.23877 7.92325 3.23877H5.75598C5.74564 3.23813 5.73522 3.23877 5.72473 3.23877H3.22473Z" fill="black"/>
</g>
<defs>
<clipPath id="clip0_1068_189792">
<rect width="14" height="14" fill="white"/>
</clipPath>
</defs>
</svg>
