<svg width="14" height="14" viewBox="0 0 14 14" fill="none" xmlns="http://www.w3.org/2000/svg">
<path fill-rule="evenodd" clip-rule="evenodd" d="M9.21042 1.36695H4.75098C4.42442 1.35475 4.10268 1.44953 3.83477 1.63706C3.56945 1.82279 3.37153 2.08928 3.2703 2.39651L2.53769 4.21184C5.48297 3.73356 8.50339 3.73276 11.449 4.20944L10.6901 2.39331C10.5885 2.08743 10.3911 1.82214 10.1267 1.63706C9.85872 1.44953 9.53698 1.35475 9.21042 1.36695ZM13.4937 5.90794C13.7705 5.97801 13.9265 6.26886 13.8379 6.54023L12.0721 11.9446C11.9378 12.3558 11.5542 12.634 11.1216 12.634H2.87984C2.44722 12.634 2.06365 12.3558 1.92929 11.9446L0.163555 6.54023C0.0748941 6.26886 0.230964 5.97801 0.507712 5.90794C4.74913 4.83406 9.25227 4.83406 13.4937 5.90794ZM5.5007 8.24195C5.15552 8.24195 4.8757 8.52178 4.8757 8.86695C4.8757 9.21213 5.15552 9.49195 5.5007 9.49195H6.3757V10.367C6.3757 10.7121 6.65552 10.992 7.0007 10.992C7.34588 10.992 7.6257 10.7121 7.6257 10.367V9.49195H8.5007C8.84588 9.49195 9.1257 9.21213 9.1257 8.86695C9.1257 8.52178 8.84588 8.24195 8.5007 8.24195H7.6257V7.36695C7.6257 7.02178 7.34588 6.74195 7.0007 6.74195C6.65552 6.74195 6.3757 7.02178 6.3757 7.36695V8.24195H5.5007Z" fill="black"/>
</svg>
