<svg width="14" height="14" viewBox="0 0 14 14" fill="none" xmlns="http://www.w3.org/2000/svg">
<g clip-path="url(#clip0_1068_189776)">
<path fill-rule="evenodd" clip-rule="evenodd" d="M8 3C8 4.65685 6.65685 6 5 6C3.34315 6 2 4.65685 2 3C2 1.34315 3.34315 0 5 0C6.65685 0 8 1.34315 8 3ZM9.40622 6.5C9.13008 6.5 8.90622 6.72386 8.90622 7V8.90628H7C6.72386 8.90628 6.5 9.13013 6.5 9.40628V11.0313C6.5 11.3074 6.72386 11.5313 7 11.5313H8.90622V13.5C8.90622 13.7761 9.13008 14 9.40622 14H11.0312C11.3074 14 11.5312 13.7761 11.5312 13.5V11.5313H13.5C13.7761 11.5313 14 11.3074 14 11.0313V9.40628C14 9.13013 13.7761 8.90628 13.5 8.90628H11.5312V7C11.5312 6.72386 11.3074 6.5 11.0312 6.5H9.40622ZM5 7C5.90166 7 6.74758 7.23867 7.47803 7.65628H7C6.0335 7.65628 5.25 8.43978 5.25 9.40628V11.0313C5.25 11.6468 5.56773 12.188 6.04812 12.5H0.5C0.223858 12.5 0 12.2761 0 12C0 9.23858 2.23858 7 5 7Z" fill="black"/>
</g>
<defs>
<clipPath id="clip0_1068_189776">
<rect width="14" height="14" fill="white"/>
</clipPath>
</defs>
</svg>
