<svg width="14" height="14" viewBox="0 0 14 14" fill="none" xmlns="http://www.w3.org/2000/svg">
<g clip-path="url(#clip0_1068_189779)">
<path fill-rule="evenodd" clip-rule="evenodd" d="M1.54688 12.2491V3.31506H12.4545V12.2491C12.4545 12.362 12.363 12.4536 12.2501 12.4536H1.75131C1.6384 12.4536 1.54688 12.362 1.54688 12.2491ZM0.046875 1.75033C0.046875 0.809 0.809976 0.0458984 1.75131 0.0458984H12.2501C13.1914 0.0458984 13.9545 0.809 13.9545 1.75033V12.2491C13.9545 13.1904 13.1914 13.9536 12.2501 13.9536H1.75131C0.809976 13.9536 0.046875 13.1904 0.046875 12.2491V1.75033Z" fill="black"/>
<path d="M6.36254 5.03949C6.14587 5.03949 5.97022 5.21514 5.97022 5.43181V6.99207H4.40991C4.19323 6.99207 4.01758 7.16772 4.01758 7.38439V8.65943C4.01758 8.8761 4.19323 9.05175 4.40991 9.05175H5.97017V10.612C5.97017 10.8287 6.14581 11.0043 6.36249 11.0043H7.63753C7.8542 11.0043 8.02985 10.8287 8.02985 10.612L8.0299 9.05175H9.59016C9.80683 9.05175 9.98248 8.8761 9.98248 8.65943V7.38439C9.98248 7.16772 9.80683 6.99207 9.59016 6.99207H8.0299V5.43181C8.0299 5.21514 7.85425 5.03949 7.63758 5.03949H6.36254Z" fill="black"/>
</g>
<defs>
<clipPath id="clip0_1068_189779">
<rect width="14" height="14" fill="white"/>
</clipPath>
</defs>
</svg>
