<svg width="14" height="14" viewBox="0 0 14 14" fill="none" xmlns="http://www.w3.org/2000/svg">
<g clip-path="url(#clip0_1068_189801)">
<path fill-rule="evenodd" clip-rule="evenodd" d="M1.45679 0.251953C0.652229 0.251953 0 0.904182 0 1.70875V9.29517C0 10.0997 0.65223 10.752 1.45679 10.752H5.48375L4.9483 12.248H4C3.58579 12.248 3.25 12.5838 3.25 12.998C3.25 13.4123 3.58579 13.748 4 13.748H10C10.4142 13.748 10.75 13.4123 10.75 12.998C10.75 12.5838 10.4142 12.248 10 12.248H9.05258L8.51713 10.752H12.5432C13.3478 10.752 14 10.0997 14 9.29517V1.70875C14 0.904183 13.3478 0.251953 12.5432 0.251953H1.45679ZM5.98779 2.91185C5.98779 2.69518 6.16344 2.51953 6.38011 2.51953H7.65515C7.87182 2.51953 8.04747 2.69518 8.04747 2.91185V4.47211H9.60773C9.8244 4.47211 10.0001 4.64776 10.0001 4.86443V6.13947C10.0001 6.35615 9.8244 6.53179 9.60773 6.53179H8.04747L8.04742 8.09205C8.04742 8.30873 7.87177 8.48438 7.6551 8.48438H6.38006C6.16339 8.48438 5.98774 8.30873 5.98774 8.09205V6.53179H4.42748C4.2108 6.53179 4.03516 6.35615 4.03516 6.13947V4.86443C4.03516 4.64776 4.2108 4.47211 4.42748 4.47211H5.98779V2.91185Z" fill="black"/>
</g>
<defs>
<clipPath id="clip0_1068_189801">
<rect width="14" height="14" fill="white"/>
</clipPath>
</defs>
</svg>
