<svg width="14" height="14" viewBox="0 0 14 14" fill="none" xmlns="http://www.w3.org/2000/svg">
<g clip-path="url(#clip0_1068_189767)">
<path fill-rule="evenodd" clip-rule="evenodd" d="M8.87868 0.592728C8.87868 0.320588 9.09929 0.0999756 9.37143 0.0999756H10.9729C11.2451 0.0999756 11.4657 0.320588 11.4657 0.592728V2.47137H13.4059C13.678 2.47137 13.8986 2.69198 13.8986 2.96412V4.56557C13.8986 4.83771 13.678 5.05832 13.4059 5.05832H11.4657V6.9985C11.4657 7.27064 11.2451 7.49126 10.9729 7.49126H9.37143C9.09929 7.49126 8.87868 7.27064 8.87868 6.9985V5.05832H7.00009C6.72795 5.05832 6.50734 4.83771 6.50734 4.56557V2.96412C6.50734 2.69198 6.72795 2.47137 7.00009 2.47137H8.87868V0.592728ZM8.69436 13.8849C8.09016 13.9495 7.48207 13.8053 6.97119 13.4763C4.41993 11.7579 2.22473 9.56265 0.506281 7.0114C0.183486 6.49514 0.0475095 5.88379 0.121044 5.27938C0.194577 4.67496 0.473173 4.11405 0.910337 3.69025L1.28483 3.31576C1.45273 3.14965 1.67937 3.05649 1.91555 3.05649C2.15173 3.05649 2.37837 3.14965 2.54627 3.31576L4.06395 4.89256C4.22945 5.05879 4.32236 5.2838 4.32236 5.51836C4.32236 5.75292 4.22945 5.97793 4.06395 6.14415C3.89785 6.31205 3.80468 6.5387 3.80468 6.77488C3.80468 7.01106 3.89785 7.2377 4.06395 7.4056L6.57699 9.91863C6.74488 10.0847 6.97153 10.1779 7.20771 10.1779C7.44389 10.1779 7.67053 10.0847 7.83843 9.91863C8.00465 9.75314 8.22966 9.66022 8.46422 9.66022C8.69879 9.66022 8.9238 9.75314 9.09002 9.91863L10.6669 11.4856C10.833 11.6535 10.9261 11.8801 10.9261 12.1163C10.9261 12.3525 10.833 12.5791 10.6669 12.747L10.2924 13.1215C9.86247 13.551 9.29856 13.8204 8.69436 13.8849Z" fill="black"/>
</g>
<defs>
<clipPath id="clip0_1068_189767">
<rect width="14" height="14" fill="white"/>
</clipPath>
</defs>
</svg>
