<svg width="14" height="14" viewBox="0 0 14 14" fill="none" xmlns="http://www.w3.org/2000/svg">
<g clip-path="url(#clip0_1068_189825)">
<path fill-rule="evenodd" clip-rule="evenodd" d="M0 7C0 3.13401 3.13401 0 7 0C10.866 0 14 3.13401 14 7C14 10.866 10.866 14 7 14C3.13401 14 0 10.866 0 7ZM8.83333 6.50033C9.75381 6.50033 10.5 5.75413 10.5 4.83366C10.5 3.91318 9.75381 3.16699 8.83333 3.16699C8.16158 3.16699 7.58265 3.56441 7.31883 4.13695C7.1482 4.0496 6.95485 4.00033 6.75 4.00033C6.05964 4.00033 5.5 4.55997 5.5 5.25033C5.5 5.94068 6.05964 6.50033 6.75 6.50033C7.13206 6.50033 7.47409 6.32892 7.70337 6.05881C8.00039 6.33289 8.39731 6.50033 8.83333 6.50033ZM3.76236 8.69561C3.67343 8.69831 3.59671 8.72529 3.57598 8.73533C3.26529 8.88571 2.89151 8.75576 2.74112 8.44506C2.59073 8.13437 2.72069 7.76059 3.03138 7.6102C3.198 7.52955 3.44654 7.4546 3.72453 7.44619C4.00923 7.43757 4.36804 7.49874 4.68956 7.74639C5.01107 7.99405 5.1618 8.32537 5.22613 8.60284C5.28894 8.87377 5.27991 9.13321 5.24445 9.31489C5.24004 9.33749 5.23353 9.41856 5.25362 9.50522C5.2722 9.58535 5.30284 9.62872 5.33528 9.65371C5.36773 9.6787 5.41748 9.69726 5.49969 9.69477C5.58862 9.69207 5.66534 9.66508 5.68607 9.65505C5.99676 9.50466 6.37054 9.63462 6.52093 9.94531C6.67132 10.256 6.54136 10.6298 6.23067 10.7802C6.06405 10.8608 5.81551 10.9358 5.53752 10.9442C5.25282 10.9528 4.894 10.8916 4.57249 10.644C4.25098 10.3963 4.10025 10.065 4.03592 9.78754C3.97311 9.51661 3.98214 9.25717 4.01759 9.07549C4.022 9.05289 4.02852 8.97182 4.00842 8.88515C3.98985 8.80503 3.95921 8.76166 3.92677 8.73667C3.89432 8.71168 3.84457 8.69312 3.76236 8.69561ZM8.00003 7.49023C7.51677 7.49023 7.125 7.882 7.125 8.36527C7.125 8.84853 7.51677 9.2403 8.00003 9.2403C8.48351 9.2403 8.875 8.84833 8.875 8.36527C8.875 7.88221 8.48351 7.49023 8.00003 7.49023ZM2.66443 5.08353C2.66443 4.60026 3.05619 4.2085 3.53946 4.2085C4.02294 4.2085 4.41443 4.60047 4.41443 5.08353C4.41443 5.56659 4.02294 5.95856 3.53946 5.95856C3.05619 5.95856 2.66443 5.56679 2.66443 5.08353ZM10.25 8.95508C9.76677 8.95508 9.375 9.34684 9.375 9.83011C9.375 10.3134 9.76677 10.7051 10.25 10.7051C10.7335 10.7051 11.125 10.3132 11.125 9.83011C11.125 9.34705 10.7335 8.95508 10.25 8.95508Z" fill="black"/>
</g>
<defs>
<clipPath id="clip0_1068_189825">
<rect width="14" height="14" fill="white"/>
</clipPath>
</defs>
</svg>
