<svg width="14" height="14" viewBox="0 0 14 14" fill="none" xmlns="http://www.w3.org/2000/svg">
<g clip-path="url(#clip0_1068_189807)">
<path fill-rule="evenodd" clip-rule="evenodd" d="M10.1019 1.0715L8.13403 4.15595H11.2166L12.301 2.48776C12.7 1.874 12.5176 1.05231 11.8963 0.665063C11.2879 0.285791 10.4875 0.467072 10.1019 1.0715ZM1.06615 8.84725L0.775923 6.26775C0.709222 5.67493 1.17308 5.15594 1.76965 5.15594H12.2284C12.825 5.15594 13.2889 5.67493 13.2222 6.26775L12.9319 8.84725C12.7817 10.1822 11.9857 11.3022 10.8767 11.9097C11.0332 12.2166 11.1432 12.5528 11.1967 12.9097C11.2706 13.4032 10.8883 13.8469 10.3894 13.8469H3.60861C3.10962 13.8469 2.7274 13.4032 2.80131 12.9097C2.85477 12.5528 2.96474 12.2166 3.12131 11.9097C2.01232 11.3021 1.21635 10.1822 1.06615 8.84725ZM7.62402 7.57238C7.62402 7.2272 7.3442 6.94738 6.99902 6.94738C6.65384 6.94738 6.37402 7.2272 6.37402 7.57238V8.87646H5.07031C4.72513 8.87646 4.44531 9.15628 4.44531 9.50146C4.44531 9.84663 4.72513 10.1265 5.07031 10.1265H6.37402V11.4305C6.37402 11.7757 6.65384 12.0555 6.99902 12.0555C7.3442 12.0555 7.62402 11.7757 7.62402 11.4305V10.1265H8.92844C9.27362 10.1265 9.55344 9.84663 9.55344 9.50146C9.55344 9.15628 9.27362 8.87646 8.92844 8.87646H7.62402V7.57238Z" fill="black"/>
</g>
<defs>
<clipPath id="clip0_1068_189807">
<rect width="14" height="14" fill="white"/>
</clipPath>
</defs>
</svg>
