<svg width="14" height="14" viewBox="0 0 14 14" fill="none" xmlns="http://www.w3.org/2000/svg">
<path fill-rule="evenodd" clip-rule="evenodd" d="M1.92383 0.25H7.23152C9.04769 0.25 10.5199 1.7223 10.5199 3.53846C10.5199 5.35463 9.04769 6.82692 7.23152 6.82692H6.58972L8.96408 9.05289L11.5473 6.46967C11.8402 6.17678 12.315 6.17678 12.6079 6.46967C12.9008 6.76256 12.9008 7.23744 12.6079 7.53033L10.0589 10.0793L12.5907 12.4528C12.8928 12.7361 12.9081 13.2108 12.6249 13.5129C12.3416 13.8151 11.8669 13.8304 11.5647 13.5471L8.99775 11.1405L6.60796 13.5303C6.31507 13.8232 5.8402 13.8232 5.5473 13.5303C5.25441 13.2374 5.25441 12.7626 5.5473 12.4697L7.90287 10.1141L4.39655 6.82692H2.67383V12.0769C2.67383 12.4911 2.33804 12.8269 1.92383 12.8269C1.50961 12.8269 1.17383 12.4911 1.17383 12.0769V6.07692V1C1.17383 0.585786 1.50961 0.25 1.92383 0.25ZM7.23152 5.32692H4.6989H4.68762H2.67383V1.75H7.23152C8.21926 1.75 9.01998 2.55072 9.01998 3.53846C9.01998 4.5262 8.21926 5.32692 7.23152 5.32692Z" fill="black"/>
</svg>
