<svg width="14" height="14" viewBox="0 0 14 14" fill="none" xmlns="http://www.w3.org/2000/svg">
<g clip-path="url(#clip0_1068_189810)">
<path fill-rule="evenodd" clip-rule="evenodd" d="M0.1875 1.59375C0.1875 0.765323 0.859073 0.09375 1.6875 0.09375H12.2812C13.1097 0.09375 13.7812 0.765323 13.7812 1.59375V12.1875C13.7812 13.0159 13.1097 13.6875 12.2812 13.6875H1.6875C0.859073 13.6875 0.1875 13.0159 0.1875 12.1875V1.59375ZM5.6875 4.0625C5.6875 3.78636 5.91136 3.5625 6.1875 3.5625H7.8125C8.08864 3.5625 8.3125 3.78636 8.3125 4.0625V5.46878H9.71875C9.99489 5.46878 10.2188 5.69263 10.2188 5.96878V7.59378C10.2188 7.86992 9.99489 8.09378 9.71875 8.09378H8.3125V9.5C8.3125 9.77614 8.08864 10 7.8125 10H6.1875C5.91136 10 5.6875 9.77614 5.6875 9.5V8.09378H4.28125C4.00511 8.09378 3.78125 7.86992 3.78125 7.59378V5.96878C3.78125 5.69263 4.00511 5.46878 4.28125 5.46878H5.6875V4.0625Z" fill="black"/>
</g>
<defs>
<clipPath id="clip0_1068_189810">
<rect width="14" height="14" fill="white"/>
</clipPath>
</defs>
</svg>
