<svg width="14" height="14" viewBox="0 0 14 14" fill="none" xmlns="http://www.w3.org/2000/svg">
<path fill-rule="evenodd" clip-rule="evenodd" d="M0 5.77847C0 4.82052 0.776572 4.04395 1.73452 4.04395H2.58824C3.13709 4.04395 3.63097 4.28352 3.96918 4.66141C4.12824 4.83911 4.25392 5.04836 4.33555 5.2793C4.47358 5.66984 4.26889 6.09833 3.87835 6.23637C3.48781 6.3744 3.05932 6.16971 2.92129 5.77917C2.90607 5.73613 2.88233 5.69624 2.85148 5.66178C2.78578 5.58837 2.69269 5.54395 2.58824 5.54395H1.73452C1.605 5.54395 1.5 5.64894 1.5 5.77847C1.5 5.88868 1.57674 5.98401 1.6844 6.00757L2.9842 6.2919C3.83512 6.47804 4.44118 7.23185 4.44118 8.10236C4.44118 9.12535 3.61194 9.95571 2.58824 9.95571H1.85294C1.04499 9.95571 0.359642 9.43902 0.10563 8.72035C-0.0324054 8.32981 0.172288 7.90132 0.562825 7.76329C0.953362 7.62525 1.38185 7.82994 1.51989 8.22048C1.5687 8.35857 1.70044 8.45571 1.85294 8.45571H2.58824C2.7828 8.45571 2.94118 8.29765 2.94118 8.10236C2.94118 7.93623 2.82543 7.79263 2.66366 7.75725L1.36386 7.47292C0.567569 7.29873 0 6.59359 0 5.77847ZM9.55859 5.77847C9.55859 4.82052 10.3352 4.04395 11.2931 4.04395H12.1468C12.6957 4.04395 13.1896 4.28352 13.5278 4.66141C13.6868 4.83911 13.8125 5.04836 13.8941 5.2793C14.0322 5.66984 13.8275 6.09833 13.4369 6.23637C13.0464 6.3744 12.6179 6.16971 12.4799 5.77917C12.4647 5.73613 12.4409 5.69624 12.4101 5.66178C12.3444 5.58837 12.2513 5.54395 12.1468 5.54395H11.2931C11.1636 5.54395 11.0586 5.64894 11.0586 5.77847C11.0586 5.88868 11.1353 5.98401 11.243 6.00757L12.5428 6.2919C13.3937 6.47804 13.9998 7.23185 13.9998 8.10236C13.9998 9.12535 13.1705 9.95571 12.1468 9.95571H11.4115C10.6036 9.95571 9.91824 9.43902 9.66422 8.72035C9.52619 8.32981 9.73088 7.90132 10.1214 7.76329C10.512 7.62525 10.9404 7.82994 11.0785 8.22048C11.1273 8.35857 11.259 8.45571 11.4115 8.45571H12.1468C12.3414 8.45571 12.4998 8.29765 12.4998 8.10236C12.4998 7.93623 12.384 7.79263 12.2223 7.75725L10.9225 7.47292C10.1262 7.29873 9.55859 6.59359 9.55859 5.77847ZM6.2793 5.89689C6.2793 5.70196 6.43731 5.54395 6.63224 5.54395H7.36753C7.56246 5.54395 7.72047 5.70196 7.72047 5.89689V8.10277C7.72047 8.29769 7.56246 8.45571 7.36753 8.45571H6.63224C6.43731 8.45571 6.2793 8.29769 6.2793 8.10277V5.89689ZM6.63224 4.04395C5.60889 4.04395 4.7793 4.87354 4.7793 5.89689V8.10277C4.7793 9.12611 5.60889 9.95571 6.63224 9.95571H7.36753C8.39088 9.95571 9.22047 9.12611 9.22047 8.10277V5.89689C9.22047 4.87354 8.39088 4.04395 7.36753 4.04395H6.63224Z" fill="black"/>
</svg>
