<svg width="14" height="14" viewBox="0 0 14 14" fill="none" xmlns="http://www.w3.org/2000/svg">
<g clip-path="url(#clip0_1068_189789)">
<path fill-rule="evenodd" clip-rule="evenodd" d="M0.0507812 1.40625C0.0507812 0.992036 0.386567 0.65625 0.800781 0.65625H1.89453C2.30874 0.65625 2.64453 0.992036 2.64453 1.40625C2.64453 1.82046 2.30874 2.15625 1.89453 2.15625H1.55078V5C1.55078 6.36345 2.65607 7.46875 4.01953 7.46875C5.38298 7.46875 6.48828 6.36345 6.48828 5V2.15625H6.14453C5.73031 2.15625 5.39453 1.82046 5.39453 1.40625C5.39453 0.992036 5.73031 0.65625 6.14453 0.65625H7.23828C7.65249 0.65625 7.98828 0.992036 7.98828 1.40625V5C7.98828 6.91342 6.63421 8.51058 4.83203 8.88551V9.45776C4.83203 11.0862 6.15211 12.4062 7.78051 12.4062C9.40892 12.4062 10.729 11.0862 10.729 9.45776V6.78177C9.50191 6.39768 8.75777 5.1275 9.04966 3.85282C9.35635 2.51345 10.6907 1.6763 12.0301 1.983C13.3695 2.28969 14.2066 3.62409 13.8999 4.96346C13.6963 5.85284 13.0395 6.52077 12.229 6.7794V9.45776C12.229 11.9146 10.2373 13.9062 7.78051 13.9062C5.32368 13.9062 3.33203 11.9146 3.33203 9.45776V8.90942C1.46783 8.58385 0.0507812 6.95741 0.0507812 5V1.40625Z" fill="black"/>
</g>
<defs>
<clipPath id="clip0_1068_189789">
<rect width="14" height="14" fill="white"/>
</clipPath>
</defs>
</svg>
