<svg width="14" height="14" viewBox="0 0 14 14" fill="none" xmlns="http://www.w3.org/2000/svg">
<g clip-path="url(#clip0_1068_189819)">
<path fill-rule="evenodd" clip-rule="evenodd" d="M9.46889 0.393235C9.85941 0.00271073 10.4926 0.00271073 10.8831 0.393235L13.606 3.11615C13.9966 3.50667 13.9966 4.13984 13.606 4.53036C13.2155 4.92089 12.5824 4.92089 12.1918 4.53036L11.5375 3.876L10.2288 5.18471L12.6984 7.65434C13.0889 8.04487 13.0889 8.67803 12.6984 9.06855C12.3079 9.45908 11.6747 9.45908 11.2842 9.06855L10.2833 8.06769L6.91156 11.507L6.90828 11.5103C6.69325 11.7256 6.43789 11.8964 6.15682 12.0129C5.87575 12.1294 5.57447 12.1894 5.27021 12.1894C4.96594 12.1894 4.66466 12.1294 4.38359 12.0129C4.1617 11.9209 3.95583 11.7951 3.77318 11.6403L1.80672 13.6067C1.41619 13.9973 0.783027 13.9973 0.392503 13.6067C0.00197831 13.2162 0.00197831 12.5831 0.392503 12.1925L2.35897 10.2261C2.20415 10.0434 2.07835 9.83755 1.98636 9.61565C1.86985 9.33458 1.80988 9.0333 1.80988 8.72904C1.80988 8.42478 1.86985 8.1235 1.98636 7.84243C2.10288 7.56136 2.27365 7.30601 2.48892 7.09098L2.49223 7.08767L5.93156 3.71596L4.93068 2.71509C4.54016 2.32456 4.54016 1.6914 4.93068 1.30087C5.32121 0.910347 5.95437 0.910347 6.3449 1.30087L8.81452 3.7705L10.1233 2.46179L9.46889 1.80745C9.07837 1.41692 9.07837 0.783759 9.46889 0.393235Z" fill="black"/>
</g>
<defs>
<clipPath id="clip0_1068_189819">
<rect width="14" height="14" fill="white"/>
</clipPath>
</defs>
</svg>
