<svg width="14" height="14" viewBox="0 0 14 14" fill="none" xmlns="http://www.w3.org/2000/svg">
<g clip-path="url(#clip0_1068_189816)">
<path fill-rule="evenodd" clip-rule="evenodd" d="M5.01576 5.21894L2.89882 7.33587C2.3996 7.83509 2.11914 8.51219 2.11914 9.21819C2.11914 9.9242 2.3996 10.6013 2.89882 11.1005C3.39805 11.5997 4.07514 11.8802 4.78115 11.8802C5.48716 11.8802 6.16425 11.5997 6.66347 11.1005L8.7804 8.98358L5.01576 5.21894ZM9.21758 0.119751C7.98114 0.119751 6.79534 0.610925 5.92105 1.48522L1.48461 5.92166C0.610315 6.79595 0.119141 7.98175 0.119141 9.21819C0.119141 10.4546 0.610315 11.6404 1.48461 12.5147C2.35891 13.389 3.54471 13.8802 4.78115 13.8802C6.01759 13.8802 7.20339 13.389 8.07768 12.5147L12.5141 8.07829C13.3884 7.204 13.8796 6.0182 13.8796 4.78176C13.8796 3.54532 13.3884 2.35952 12.5141 1.48522C11.6398 0.610925 10.454 0.119751 9.21758 0.119751Z" fill="black"/>
</g>
<defs>
<clipPath id="clip0_1068_189816">
<rect width="14" height="14" fill="white"/>
</clipPath>
</defs>
</svg>
