<svg width="14" height="14" viewBox="0 0 14 14" fill="none" xmlns="http://www.w3.org/2000/svg">
<path fill-rule="evenodd" clip-rule="evenodd" d="M6.08076 2.41147C4.12162 1.27624 1.24515 1.59143 0.885816 4.86132C0.525333 8.14172 2.37268 11.6122 3.36172 12.9412C3.58674 13.2435 3.95007 13.388 4.32697 13.388C4.94473 13.388 5.49616 13.0006 5.70567 12.4195L6.05592 11.4479C6.19888 11.0514 6.57773 10.7871 6.99925 10.7871C7.42077 10.7871 7.79962 11.0514 7.94258 11.4479L8.29282 12.4195C8.50233 13.0006 9.05377 13.388 9.67153 13.388C10.0485 13.388 10.4118 13.2435 10.6368 12.9412C11.6258 11.6122 13.4732 8.14172 13.1127 4.86132C12.7534 1.59143 9.87687 1.27624 7.91773 2.41147C7.30194 2.76829 6.69655 2.76829 6.08076 2.41147ZM8.45103 4.10966C8.77532 3.99141 9.13408 4.15843 9.25233 4.48272C9.37058 4.80702 9.20355 5.16577 8.87926 5.28402C8.16389 5.54488 7.55895 5.69375 6.94539 5.69222C6.32775 5.69069 5.75438 5.53697 5.10233 5.27757C4.7816 5.14997 4.62503 4.78653 4.75263 4.46581C4.88023 4.14508 5.24367 3.98851 5.56439 4.11611C6.14101 4.3455 6.54944 4.44124 6.94849 4.44223C7.35162 4.44323 7.79824 4.3477 8.45103 4.10966Z" fill="black"/>
</svg>
