<svg width="14" height="14" viewBox="0 0 14 14" fill="none" xmlns="http://www.w3.org/2000/svg">
<g clip-path="url(#clip0_1068_189822)">
<path fill-rule="evenodd" clip-rule="evenodd" d="M7 1.48018C5.7462 1.48018 4.59004 1.8982 3.66329 2.60249L5.11224 4.05145C5.45524 3.83148 5.83914 3.66973 6.25 3.58013V2.71875C6.25 2.30454 6.58579 1.96875 7 1.96875C7.41421 1.96875 7.75 2.30454 7.75 2.71875V3.58046C8.16068 3.67022 8.54441 3.83207 8.88723 4.0521L9.49701 3.44232C9.78991 3.14942 10.2648 3.14942 10.5577 3.44232C10.8506 3.73521 10.8506 4.21008 10.5577 4.50298L9.94772 5.11293C10.1676 5.45574 10.3293 5.8394 10.4189 6.25H11.2812C11.6955 6.25 12.0312 6.58579 12.0312 7C12.0312 7.41421 11.6955 7.75 11.2812 7.75H10.4189C10.3293 8.16056 10.1676 8.54419 9.94774 8.88697L11.3975 10.3367C12.1018 9.40998 12.5198 8.25381 12.5198 7C12.5198 3.95149 10.0485 1.48018 7 1.48018ZM4.05139 5.11192L4.04824 5.11684L8.88236 9.95095L8.88726 9.94781L10.3369 11.3974C9.41007 12.1018 8.25386 12.5198 7 12.5198C3.95149 12.5198 1.48018 10.0485 1.48018 7C1.48018 5.74613 1.89825 4.58991 2.60261 3.66313L4.05139 5.11192ZM0 7C0 3.13401 3.13401 0 7 0C10.866 0 14 3.13401 14 7C14 10.866 10.866 14 7 14C3.13401 14 0 10.866 0 7ZM2.71875 6.25H3.41364L7.75 10.5864V11.2812C7.75 11.6955 7.41421 12.0312 7 12.0312C6.58579 12.0312 6.25 11.6955 6.25 11.2812V10.4198C5.83913 10.3302 5.45522 10.1684 5.11221 9.94846L4.50299 10.5577C4.21009 10.8506 3.73522 10.8506 3.44233 10.5577C3.14943 10.2648 3.14943 9.78992 3.44233 9.49702L4.05137 8.88798C3.83121 8.54494 3.66929 8.16096 3.57957 7.75H2.71875C2.30454 7.75 1.96875 7.41421 1.96875 7C1.96875 6.58579 2.30454 6.25 2.71875 6.25Z" fill="black"/>
</g>
<defs>
<clipPath id="clip0_1068_189822">
<rect width="14" height="14" fill="white"/>
</clipPath>
</defs>
</svg>
