<svg width="14" height="14" viewBox="0 0 14 14" fill="none" xmlns="http://www.w3.org/2000/svg">
<g clip-path="url(#clip0_1068_189840)">
<path fill-rule="evenodd" clip-rule="evenodd" d="M4.5 1C4.5 0.447715 4.05228 0 3.5 0C2.94772 0 2.5 0.447715 2.5 1V2H1.5C0.671573 2 0 2.67157 0 3.5V12.5C0 13.3284 0.671573 14 1.5 14H12.5C13.3284 14 14 13.3284 14 12.5V3.5C14 2.67157 13.3284 2 12.5 2H11.5001V1C11.5001 0.447715 11.0524 0 10.5001 0C9.94781 0 9.50009 0.447715 9.50009 1V2H4.5V1ZM5.97021 5.42784C5.97021 5.21117 6.14586 5.03552 6.36253 5.03552H7.63757C7.85424 5.03552 8.02989 5.21117 8.02989 5.42784V6.9881H9.59015C9.80683 6.9881 9.98247 7.16375 9.98247 7.38042V8.65546C9.98247 8.87214 9.80683 9.04778 9.59015 9.04778H8.02989L8.02984 10.608C8.02984 10.8247 7.85419 11.0004 7.63752 11.0004H6.36248C6.14581 11.0004 5.97016 10.8247 5.97016 10.608V9.04778H4.4099C4.19323 9.04778 4.01758 8.87214 4.01758 8.65546V7.38042C4.01758 7.16375 4.19323 6.9881 4.4099 6.9881H5.97021V5.42784Z" fill="black"/>
</g>
<defs>
<clipPath id="clip0_1068_189840">
<rect width="14" height="14" fill="white"/>
</clipPath>
</defs>
</svg>
