<svg width="14" height="14" viewBox="0 0 14 14" fill="none" xmlns="http://www.w3.org/2000/svg">
<g clip-path="url(#clip0_1068_189828)">
<path fill-rule="evenodd" clip-rule="evenodd" d="M0.832031 0.0822754C0.417818 0.0822754 0.0820312 0.418062 0.0820312 0.832275C0.0820312 1.24649 0.417818 1.58228 0.832031 1.58228H2.58919L3.52511 6.26969C1.59129 6.46547 0.0820312 8.09842 0.0820312 10.0839C0.0820312 12.2013 1.79852 13.9178 3.91591 13.9178C5.69196 13.9178 7.18595 12.7101 7.62147 11.0711H10.3749C10.2136 11.3502 10.1213 11.6741 10.1213 12.0196C10.1213 13.0679 10.9711 13.9178 12.0194 13.9178C13.0677 13.9178 13.9175 13.0679 13.9175 12.0196C13.9175 11.1168 13.2872 10.3612 12.4426 10.1688L12.4304 10.124L12.4262 10.1091L11.3193 6.04854C11.2079 5.44036 10.8871 4.88983 10.4118 4.49299C9.92751 4.08862 9.3148 3.8705 8.68405 3.87781H4.57714L3.93973 0.685424C3.86971 0.334745 3.56184 0.0822754 3.20424 0.0822754H0.832031ZM10.7248 9.57111H7.71578C7.67523 9.2677 7.59919 8.97553 7.49198 8.6989H10.487L10.7248 9.57111ZM10.0781 7.1989H6.44094C6.051 6.85733 5.5912 6.59355 5.08578 6.43178C5.08375 6.41728 5.08129 6.40275 5.07839 6.38821L4.87664 5.37782L8.68876 5.37788L8.69902 5.37774C8.97329 5.37398 9.23984 5.46857 9.45039 5.64438C9.66093 5.82019 9.80156 6.06558 9.84679 6.33612C9.85093 6.3609 9.85632 6.38546 9.86292 6.40969L10.0781 7.1989Z" fill="black"/>
</g>
<defs>
<clipPath id="clip0_1068_189828">
<rect width="14" height="14" fill="white"/>
</clipPath>
</defs>
</svg>
