<svg width="14" height="14" viewBox="0 0 14 14" fill="none" xmlns="http://www.w3.org/2000/svg">
<path fill-rule="evenodd" clip-rule="evenodd" d="M6.26224 0.112626C6.4714 0.177588 6.61393 0.371111 6.61393 0.590125V4.20471H8.99414C9.17982 4.20471 9.35021 4.3076 9.43665 4.47193C9.5231 4.63626 9.51136 4.83496 9.40616 4.98797L4.88012 11.5713C4.75604 11.7518 4.52895 11.8305 4.31979 11.7655C4.11064 11.7006 3.9681 11.5071 3.9681 11.288V7.67346H1.58789C1.40221 7.67346 1.23182 7.57056 1.14538 7.40623C1.05894 7.2419 1.07068 7.0432 1.17587 6.89019L5.70191 0.306861C5.82599 0.126384 6.05308 0.047664 6.26224 0.112626ZM10.5254 6.49634C11.1468 6.49634 11.6985 6.89398 11.895 7.48351L13.0652 10.9942C13.0688 11.004 13.0721 11.0139 13.0752 11.0239L13.7369 13.0092C13.8679 13.4021 13.6555 13.8269 13.2626 13.9579C12.8696 14.0888 12.4449 13.8765 12.3139 13.4835L11.8182 11.9963H9.23262L8.7369 13.4835C8.60591 13.8765 8.18118 14.0888 7.78822 13.9579C7.39526 13.8269 7.18289 13.4021 7.31388 13.0092L7.97457 11.0271C7.97827 11.0149 7.98228 11.0029 7.98658 10.9911L9.15576 7.48351C9.35227 6.89398 9.90397 6.49634 10.5254 6.49634ZM10.5254 8.11805L11.3182 10.4963H9.73262L10.5254 8.11805Z" fill="black"/>
</svg>
