<svg width="14" height="14" viewBox="0 0 14 14" fill="none" xmlns="http://www.w3.org/2000/svg">
<g clip-path="url(#clip0_1068_187652)">
<path fill-rule="evenodd" clip-rule="evenodd" d="M0.219669 0.218938C-0.0732231 0.511831 -0.0732231 0.986705 0.219669 1.2796L0.397768 1.4577C0.415456 1.4719 0.432551 1.48721 0.44896 1.50362L12.7768 13.8315C13.0714 14.0727 13.5067 14.0558 13.7817 13.7809C14.0745 13.488 14.0745 13.0131 13.7817 12.7203L12.9526 11.8912C13.046 11.8439 13.1323 11.7818 13.2077 11.7063C13.3952 11.5188 13.5006 11.2644 13.5006 10.9992V4.99927C13.5006 4.73405 13.3952 4.4797 13.2077 4.29216C13.0202 4.10463 12.7658 3.99927 12.5006 3.99927H10.5006L9.00062 1.99927H5.00062L4.16921 3.10782L1.28033 0.218938C0.987436 -0.0739558 0.512562 -0.0739558 0.219669 0.218938ZM9.17684 11.9992L1.2177 4.04012C1.05889 4.08697 0.91271 4.17297 0.793518 4.29216C0.605981 4.4797 0.500624 4.73405 0.500624 4.99927V10.9992C0.500624 11.2644 0.605981 11.5188 0.793518 11.7063C0.981054 11.8939 1.23541 11.9992 1.50062 11.9992H9.17684ZM9.26625 7.48364C9.26625 7.70296 9.23509 7.91499 9.17695 8.11556L6.3687 5.30732C6.56927 5.24918 6.78131 5.21802 7.00062 5.21802C8.25189 5.21802 9.26625 6.23237 9.26625 7.48364Z" fill="black"/>
</g>
<defs>
<clipPath id="clip0_1068_187652">
<rect width="14" height="14" fill="white"/>
</clipPath>
</defs>
</svg>
