<svg width="14" height="14" viewBox="0 0 14 14" fill="none" xmlns="http://www.w3.org/2000/svg">
<g clip-path="url(#clip0_1068_187634)">
<path fill-rule="evenodd" clip-rule="evenodd" d="M0 1.5C0 0.671573 0.671573 0 1.5 0H12.5C13.3284 0 14 0.671573 14 1.5V12.5C14 13.3284 13.3284 14 12.5 14H1.5C0.671573 14 0 13.3284 0 12.5V1.5ZM10.8244 6.23173C10.8244 5.94193 10.7093 5.664 10.5044 5.45908C10.2995 5.25416 10.0215 5.13904 9.73172 5.13904H9.18537L8.09268 3.5H5.9073L4.81461 5.13904H4.26826C3.97846 5.13904 3.70053 5.25416 3.49561 5.45908C3.29069 5.664 3.17557 5.94193 3.17557 6.23173V8.96346C3.17557 9.25326 3.29069 9.53119 3.49561 9.73611C3.70053 9.94103 3.97846 10.0562 4.26826 10.0562H9.73172C10.0215 10.0562 10.2995 9.94103 10.5044 9.73611C10.7093 9.53119 10.8244 9.25326 10.8244 8.96346V6.23173ZM5.80881 7.4693C5.80881 6.81141 6.34214 6.27808 7.00003 6.27808C7.65793 6.27808 8.19126 6.81141 8.19126 7.4693C8.19126 8.1272 7.65793 8.66053 7.00003 8.66053C6.34214 8.66053 5.80881 8.1272 5.80881 7.4693Z" fill="black"/>
</g>
<defs>
<clipPath id="clip0_1068_187634">
<rect width="14" height="14" fill="white"/>
</clipPath>
</defs>
</svg>
