<svg width="14" height="14" viewBox="0 0 14 14" fill="none" xmlns="http://www.w3.org/2000/svg">
<path fill-rule="evenodd" clip-rule="evenodd" d="M4.6 1.7C4.69443 1.5741 4.84262 1.5 5 1.5H9C9.15738 1.5 9.30557 1.5741 9.4 1.7L10.75 3.5H12.5C12.8978 3.5 13.2794 3.65804 13.5607 3.93934C13.842 4.22064 14 4.60217 14 5V11C14 11.3978 13.842 11.7794 13.5607 12.0607C13.2794 12.342 12.8978 12.5 12.5 12.5H1.5C1.10217 12.5 0.720644 12.342 0.43934 12.0607C0.158035 11.7794 0 11.3978 0 11V5C0 4.60218 0.158035 4.22064 0.43934 3.93934C0.720644 3.65804 1.10217 3.5 1.5 3.5H3.25L4.6 1.7ZM9.46132 7.71132C9.46132 9.07068 8.35934 10.1726 6.99999 10.1726C5.64064 10.1726 4.53867 9.07068 4.53867 7.71132C4.53867 6.35197 5.64064 5.25 6.99999 5.25C8.35934 5.25 9.46132 6.35197 9.46132 7.71132Z" fill="black"/>
</svg>
