<svg width="14" height="14" viewBox="0 0 14 14" fill="none" xmlns="http://www.w3.org/2000/svg">
<path d="M13.9497 10.7988C13.9517 10.7551 13.9505 10.7157 13.9496 10.6911L13.9489 10.6712C13.9483 10.6559 13.9481 10.6489 13.9481 10.6407V3.40548L13.9484 3.38847C13.9498 3.33354 13.9536 3.18363 13.9214 3.04896C13.7945 2.51985 13.2608 2.21126 12.7554 2.30971C12.645 2.33121 12.538 2.37824 12.495 2.39712L12.4821 2.40277C10.7479 3.13674 8.88369 3.51514 6.99995 3.51514C5.10476 3.51514 3.22935 3.13213 1.48625 2.38936L1.47781 2.38572C1.44522 2.37162 1.36992 2.33904 1.28855 2.31933C0.73824 2.186 0.132987 2.54715 0.058935 3.15808C0.050335 3.22903 0.051347 3.30608 0.0517294 3.3352L0.051825 3.34452L0.0518247 10.5843L0.0515407 10.6001C0.0504104 10.6495 0.047386 10.7816 0.0714545 10.9001C0.187212 11.47 0.760999 11.7694 1.27835 11.6218C1.36508 11.5971 1.48122 11.544 1.50965 11.531L1.5159 11.5281C3.25325 10.8016 5.11914 10.4312 7.00293 10.4393C8.8937 10.4474 10.7632 10.8367 12.4996 11.5836C12.5022 11.5848 12.5979 11.6291 12.6537 11.6494C13.2417 11.8635 13.9189 11.4742 13.9497 10.7988Z" fill="black"/>
</svg>
