<svg width="14" height="14" viewBox="0 0 14 14" fill="none" xmlns="http://www.w3.org/2000/svg">
<path d="M10.8267 0.0511284C10.7827 0.0491319 10.7429 0.0503549 10.7182 0.0512168L10.6981 0.0519341C10.6827 0.052496 10.6757 0.0527542 10.6674 0.0527542H3.37815L3.36101 0.0524144C3.30568 0.051015 3.15465 0.0471957 3.01897 0.0794806C2.48591 0.20632 2.17501 0.739996 2.2742 1.24543C2.29586 1.3558 2.34324 1.46283 2.36226 1.50579L2.36796 1.51877C3.10741 3.25292 3.48863 5.11714 3.48863 7.00088C3.48863 8.89606 3.10276 10.7715 2.35444 12.5146L2.35078 12.5231C2.33657 12.5557 2.30375 12.6309 2.28389 12.7123C2.14957 13.2626 2.51342 13.8679 3.12891 13.9419C3.20038 13.9505 3.27801 13.9495 3.30734 13.9491L3.31673 13.949H10.6106L10.6265 13.9493C10.6763 13.9505 10.8094 13.9535 10.9288 13.9294C11.5029 13.8137 11.8046 13.2399 11.6558 12.7225C11.6309 12.6358 11.5774 12.5196 11.5643 12.4912L11.5615 12.485C10.8295 10.7476 10.4563 8.88168 10.4645 6.99789C10.4727 5.10713 10.8649 3.23768 11.6173 1.50122C11.6185 1.49862 11.6632 1.40293 11.6836 1.34718C11.8994 0.759127 11.5071 0.0819584 10.8267 0.0511284Z" fill="black"/>
</svg>
