<svg width="14" height="14" viewBox="0 0 14 14" fill="none" xmlns="http://www.w3.org/2000/svg">
<g clip-path="url(#clip0_1068_187631)">
<path fill-rule="evenodd" clip-rule="evenodd" d="M12.3208 2.39096C10.6245 1.74636 8.81627 1.44295 7 1.49962C5.18373 1.44295 3.37549 1.74636 1.6792 2.39095C1.32408 2.5259 1.03482 2.79793 0.882145 3.15057C0.358128 4.36093 0.058942 5.65787 0.000489593 6.97775C-0.000163198 6.99249 -0.000163198 7.00725 0.000489593 7.02199C0.058942 8.34188 0.358128 9.63881 0.882145 10.8492C1.03482 11.2018 1.32408 11.4739 1.6792 11.6088C3.37549 12.2534 5.18373 12.5568 7 12.5001C8.81627 12.5568 10.6245 12.2534 12.3208 11.6088C12.6759 11.4739 12.9652 11.2018 13.1179 10.8492C13.6419 9.63881 13.9411 8.34188 13.9995 7.02199C14.0002 7.00725 14.0002 6.99249 13.9995 6.97775C13.9411 5.65787 13.6419 4.36094 13.1179 3.15057C12.9652 2.79793 12.6759 2.5259 12.3208 2.39096Z" fill="black"/>
</g>
<defs>
<clipPath id="clip0_1068_187631">
<rect width="14" height="14" fill="white"/>
</clipPath>
</defs>
</svg>
