<svg width="14" height="14" viewBox="0 0 14 14" fill="none" xmlns="http://www.w3.org/2000/svg">
<g clip-path="url(#clip0_1068_187625)">
<path fill-rule="evenodd" clip-rule="evenodd" d="M1.8 0C1.32261 0 0.864773 0.189642 0.527208 0.527208C0.189642 0.864773 0 1.32261 0 1.8V12.2C0 12.6774 0.189643 13.1352 0.527208 13.4728C0.864773 13.8104 1.32261 14 1.8 14H5.51425C5.42294 13.7907 5.38946 13.5576 5.42213 13.3257L5.53402 12.5312H1.975C1.84074 12.5312 1.71197 12.4779 1.61703 12.383C1.52209 12.288 1.46875 12.1593 1.46875 12.025V7.00381C1.56767 7.00128 1.6669 7 1.76643 7C3.6414 7 5.41068 7.45251 6.97102 8.25428C7.16497 8.39532 7.43259 8.59654 7.7292 8.82946L10.7751 5.77709C11.0094 5.54226 11.3275 5.41021 11.6592 5.41003C11.991 5.40986 12.3092 5.54157 12.5438 5.77615L14 7.23236V1.8C14 1.32261 13.8104 0.864773 13.4728 0.527208C13.1352 0.189643 12.6774 0 12.2 0H1.8ZM10.4688 3.58984C10.4688 4.41827 9.79718 5.08984 8.96875 5.08984C8.14032 5.08984 7.46875 4.41827 7.46875 3.58984C7.46875 2.76142 8.14032 2.08984 8.96875 2.08984L8.99138 2.09001L9.01367 2.08984C9.81729 2.08984 10.4688 2.7413 10.4688 3.54492L10.4686 3.56721L10.4688 3.58984ZM6.79662 12.5312L6.65991 13.5L8.79016 13.2102L13.5002 8.50016L11.6602 6.66016L6.96016 11.3702L6.79662 12.5312Z" fill="black"/>
</g>
<defs>
<clipPath id="clip0_1068_187625">
<rect width="14" height="14" fill="white"/>
</clipPath>
</defs>
</svg>
