<svg width="14" height="14" viewBox="0 0 14 14" fill="none" xmlns="http://www.w3.org/2000/svg">
<g clip-path="url(#clip0_1068_187670)">
<path fill-rule="evenodd" clip-rule="evenodd" d="M0 6C0 2.96243 2.46243 0.5 5.5 0.5C8.53757 0.5 11 2.96243 11 6C11 6.06114 10.999 6.12205 10.997 6.18271C10.999 6.20488 11 6.22732 11 6.25V11.25C11 11.6642 11.3358 12 11.75 12C12.1642 12 12.5 11.6642 12.5 11.25C12.5 10.8358 12.8358 10.5 13.25 10.5C13.6642 10.5 14 10.8358 14 11.25C14 12.4926 12.9926 13.5 11.75 13.5C10.5074 13.5 9.5 12.4926 9.5 11.25V9.77494C8.49723 10.8371 7.07603 11.5 5.5 11.5C2.46243 11.5 0 9.03757 0 6ZM6.375 3.5C6.375 3.98325 5.98325 4.375 5.5 4.375C5.01675 4.375 4.625 3.98325 4.625 3.5C4.625 3.01675 5.01675 2.625 5.5 2.625C5.98325 2.625 6.375 3.01675 6.375 3.5ZM3.19531 6.88281C3.67856 6.88281 4.07031 6.49106 4.07031 6.00781C4.07031 5.52456 3.67856 5.13281 3.19531 5.13281C2.71206 5.13281 2.32031 5.52456 2.32031 6.00781C2.32031 6.49106 2.71206 6.88281 3.19531 6.88281ZM8.67969 6.00781C8.67969 6.49106 8.28794 6.88281 7.80469 6.88281C7.32144 6.88281 6.92969 6.49106 6.92969 6.00781C6.92969 5.52456 7.32144 5.13281 7.80469 5.13281C8.28794 5.13281 8.67969 5.52456 8.67969 6.00781ZM5.5 9.24219C5.98325 9.24219 6.375 8.85044 6.375 8.36719C6.375 7.88394 5.98325 7.49219 5.5 7.49219C5.01675 7.49219 4.625 7.88394 4.625 8.36719C4.625 8.85044 5.01675 9.24219 5.5 9.24219Z" fill="black"/>
</g>
<defs>
<clipPath id="clip0_1068_187670">
<rect width="14" height="14" fill="white"/>
</clipPath>
</defs>
</svg>
