<svg width="14" height="14" viewBox="0 0 14 14" fill="none" xmlns="http://www.w3.org/2000/svg">
<g clip-path="url(#clip0_1068_187664)">
<path fill-rule="evenodd" clip-rule="evenodd" d="M1.17465 6.08061L3.46933 5.46575C3.47168 5.45076 3.47459 5.43574 3.47808 5.42073L4.24731 2.10604L5.61544 1.73945L5.61239 1.7533L4.83582 5.0996L7.70943 4.32962L7.71217 4.31758L8.50859 0.964229L9.88059 0.596602L9.87834 0.606419L9.08139 3.96201L12.9692 2.92028L12.4402 0.946019C12.2972 0.412553 11.7489 0.0959702 11.2154 0.238912L1.35275 2.88161C0.819292 3.02455 0.502709 3.57289 0.645651 4.10635L1.17465 6.08061ZM1.17602 6.08063H13.3866V12.7954C13.3866 13.3476 12.9389 13.7954 12.3866 13.7954H2.17602C1.62374 13.7954 1.17602 13.3476 1.17602 12.7954V6.08063ZM3.35009 11.0838C3.35009 10.7387 3.62992 10.4588 3.97509 10.4588H5.3396C5.68478 10.4588 5.9646 10.7387 5.9646 11.0838C5.9646 11.429 5.68478 11.7088 5.3396 11.7088H3.97509C3.62992 11.7088 3.35009 11.429 3.35009 11.0838Z" fill="black"/>
</g>
<defs>
<clipPath id="clip0_1068_187664">
<rect width="14" height="14" fill="white"/>
</clipPath>
</defs>
</svg>
