<svg width="14" height="14" viewBox="0 0 14 14" fill="none" xmlns="http://www.w3.org/2000/svg">
<g clip-path="url(#clip0_1068_187676)">
<path fill-rule="evenodd" clip-rule="evenodd" d="M8.5 0.500037C8.5 0.281023 8.35747 0.0875006 8.14831 0.0225383C7.93915 -0.042424 7.71206 0.0362961 7.58798 0.216773L2.08798 8.21677C1.98279 8.36978 1.97105 8.56848 2.05749 8.73281C2.14393 8.89714 2.31432 9.00004 2.5 9.00004H5.5V13.5001C5.5 13.7191 5.64254 13.9126 5.85169 13.9776C6.06085 14.0425 6.28794 13.9638 6.41202 13.7833L11.912 5.7833C12.0172 5.63029 12.029 5.43159 11.9425 5.26726C11.8561 5.10293 11.6857 5.00004 11.5 5.00004H8.5V0.500037Z" fill="black"/>
</g>
<defs>
<clipPath id="clip0_1068_187676">
<rect width="14" height="14" fill="white"/>
</clipPath>
</defs>
</svg>
