<svg width="14" height="14" viewBox="0 0 14 14" fill="none" xmlns="http://www.w3.org/2000/svg">
<path d="M3.08096 5.28083L4.28705 0.873963C4.406 0.439326 4.80095 0.137939 5.25157 0.137939H7.19196C7.85133 0.137939 8.33021 0.764917 8.15672 1.40106L7.4896 3.84718H9.31525C10.0047 3.84718 10.4873 4.5284 10.2587 5.1788L8.77097 9.41104H10.1294C10.5959 9.41104 10.8082 9.99342 10.4512 10.2937L6.60705 13.5267C6.3895 13.7096 6.06339 13.6747 5.88958 13.4497L3.39135 10.2167C3.13739 9.8881 3.37165 9.41104 3.78699 9.41104H5.29777L6.14078 6.54481H4.04548C3.38574 6.54481 2.9068 5.91717 3.08096 5.28083Z" fill="black"/>
</svg>
