<svg width="14" height="14" viewBox="0 0 14 14" fill="none" xmlns="http://www.w3.org/2000/svg">
<g clip-path="url(#clip0_1068_187688)">
<path fill-rule="evenodd" clip-rule="evenodd" d="M4.27188 0C4.07112 0 3.88983 0.120076 3.8115 0.304925L1.5615 5.61493L1.55939 5.61999C1.49715 5.77149 1.47307 5.93596 1.48928 6.09894C1.50548 6.26192 1.56147 6.41843 1.65232 6.55471C1.74317 6.69098 1.86611 6.80286 2.01032 6.8805C2.15453 6.95815 2.31561 6.99918 2.47939 6.99999L2.48188 7H4.60902L2.79112 13.3626C2.72921 13.5793 2.81989 13.8106 3.01255 13.9275C3.2052 14.0444 3.45224 14.0179 3.6158 13.8629L12.2058 5.72293L12.2088 5.72005C12.3515 5.58254 12.4501 5.40572 12.4922 5.21205C12.5342 5.01838 12.5177 4.81659 12.4449 4.63229C12.372 4.448 12.246 4.2895 12.0829 4.17693C11.9198 4.06436 11.7269 4.0028 11.5288 4.00005L11.5219 4H8.5809L10.2191 0.723607C10.2966 0.568613 10.2883 0.384543 10.1972 0.237134C10.1061 0.0897262 9.94517 0 9.77188 0H4.27188Z" fill="black"/>
</g>
<defs>
<clipPath id="clip0_1068_187688">
<rect width="14" height="14" fill="white"/>
</clipPath>
</defs>
</svg>
