<svg width="14" height="14" viewBox="0 0 14 14" fill="none" xmlns="http://www.w3.org/2000/svg">
<g clip-path="url(#clip0_1068_187685)">
<path fill-rule="evenodd" clip-rule="evenodd" d="M8.50002 0.500037C8.50002 0.281023 8.35748 0.0875006 8.14832 0.0225383C7.93916 -0.042424 7.71207 0.0362961 7.588 0.216773L5.017 3.9564L1.28033 0.219731C0.987437 -0.0731623 0.512563 -0.0731623 0.21967 0.219731C-0.0732233 0.512624 -0.0732233 0.987498 0.21967 1.28039L12.7197 13.7804C13.0126 14.0733 13.4874 14.0733 13.7803 13.7804C14.0732 13.4875 14.0732 13.0127 13.7803 12.7198L9.84724 8.78664L11.912 5.7833C12.0172 5.63029 12.029 5.43159 11.9425 5.26726C11.8561 5.10293 11.6857 5.00004 11.5 5.00004H8.50002V0.500037ZM2.088 8.21677L3.43511 6.25733L8.26535 11.0876L6.41204 13.7833C6.28796 13.9638 6.06087 14.0425 5.85171 13.9776C5.64255 13.9126 5.50002 13.7191 5.50002 13.5001V9.00004H2.50002C2.31434 9.00004 2.14395 8.89714 2.05751 8.73281C1.97106 8.56848 1.9828 8.36978 2.088 8.21677Z" fill="black"/>
</g>
<defs>
<clipPath id="clip0_1068_187685">
<rect width="14" height="14" fill="white"/>
</clipPath>
</defs>
</svg>
