<svg width="14" height="14" viewBox="0 0 14 14" fill="none" xmlns="http://www.w3.org/2000/svg">
<g clip-path="url(#clip0_1068_187649)">
<path fill-rule="evenodd" clip-rule="evenodd" d="M14 12.5C14 13.3284 13.3284 14 12.5 14H1.5C0.671573 14 0 13.3284 0 12.5V1.5C0 0.671573 0.671573 0 1.5 0H12.5C13.3284 0 14 0.671573 14 1.5V12.5ZM9.12132 7.2192C9.68393 6.65659 10 5.89353 10 5.09788V2.90788C10.0002 2.8229 9.97868 2.73929 9.93757 2.66493C9.89645 2.59057 9.83706 2.52791 9.765 2.48288C9.69295 2.43784 9.6106 2.41191 9.52574 2.40754C9.44088 2.40316 9.35631 2.42049 9.28 2.45788L7 3.59788L4.72 2.45788C4.6437 2.42049 4.55912 2.40316 4.47426 2.40754C4.3894 2.41191 4.30706 2.43784 4.235 2.48288C4.16294 2.52791 4.10355 2.59057 4.06244 2.66493C4.02132 2.73929 3.99983 2.8229 4 2.90788V5.09788C4 5.89353 4.31607 6.65659 4.87868 7.2192C5.2916 7.63212 5.81249 7.91223 6.375 8.03206V10.0842L4.94194 8.65118C4.69786 8.4071 4.30214 8.4071 4.05806 8.65118C3.81398 8.89526 3.81398 9.29099 4.05806 9.53507L6.55806 12.0351C6.61798 12.095 6.68704 12.1402 6.76076 12.1707C6.83278 12.2006 6.91159 12.2174 6.99423 12.2181H7H7.00577C7.16379 12.2166 7.32137 12.1556 7.44194 12.0351L9.94194 9.53507C10.186 9.29099 10.186 8.89526 9.94194 8.65118C9.69786 8.4071 9.30214 8.4071 9.05806 8.65118L7.625 10.0842V8.03206C8.18751 7.91224 8.7084 7.63212 9.12132 7.2192Z" fill="black"/>
</g>
<defs>
<clipPath id="clip0_1068_187649">
<rect width="14" height="14" fill="white"/>
</clipPath>
</defs>
</svg>
