<svg width="14" height="14" viewBox="0 0 14 14" fill="none" xmlns="http://www.w3.org/2000/svg">
<g clip-path="url(#clip0_1068_187682)">
<path fill-rule="evenodd" clip-rule="evenodd" d="M0.542363 1.49671C0.86212 1.17695 1.2958 0.997314 1.74801 0.997314H2.70305C3.11726 0.997314 3.45305 1.3331 3.45305 1.74731C3.45305 2.16153 3.11726 2.49731 2.70305 2.49731H1.74801C1.69363 2.49731 1.64147 2.51892 1.60302 2.55737C1.56457 2.59582 1.54297 2.64797 1.54297 2.70235V3.6574C1.54297 4.07161 1.20718 4.4074 0.792968 4.4074C0.378755 4.4074 0.0429688 4.07161 0.0429688 3.6574V2.70235C0.0429688 2.25015 0.222606 1.81647 0.542363 1.49671ZM10.5484 1.74731C10.5484 1.3331 10.8842 0.997314 11.2984 0.997314H12.2534C12.7056 0.997314 13.1393 1.17695 13.4591 1.49671C13.7788 1.81647 13.9585 2.25015 13.9585 2.70235V3.6574C13.9585 4.07161 13.6227 4.4074 13.2085 4.4074C12.7942 4.4074 12.4585 4.07161 12.4585 3.6574V2.70235C12.4585 2.64797 12.4368 2.59582 12.3984 2.55737C12.3599 2.51892 12.3078 2.49731 12.2534 2.49731H11.2984C10.8842 2.49731 10.5484 2.16153 10.5484 1.74731ZM13.9585 10.3427C13.9585 9.92847 13.6227 9.59268 13.2085 9.59268C12.7942 9.59268 12.4585 9.92847 12.4585 10.3427V11.2977C12.4585 11.3521 12.4368 11.4042 12.3984 11.4427C12.3599 11.4811 12.3078 11.5027 12.2534 11.5027H11.2984C10.8842 11.5027 10.5484 11.8385 10.5484 12.2527C10.5484 12.6669 10.8842 13.0027 11.2984 13.0027H12.2534C12.7056 13.0027 13.1393 12.8231 13.4591 12.5033C13.7788 12.1836 13.9585 11.7499 13.9585 11.2977V10.3427ZM0.792968 9.59268C1.20718 9.59268 1.54297 9.92847 1.54297 10.3427V11.2977C1.54297 11.3521 1.56457 11.4042 1.60302 11.4427C1.64147 11.4811 1.69363 11.5027 1.74801 11.5027H2.70305C3.11726 11.5027 3.45305 11.8385 3.45305 12.2527C3.45305 12.6669 3.11726 13.0027 2.70305 13.0027H1.74801C1.2958 13.0027 0.86212 12.8231 0.542363 12.5033C0.222606 12.1836 0.0429688 11.7499 0.0429688 11.2977V10.3427C0.0429688 9.92847 0.378755 9.59268 0.792968 9.59268ZM6.0007 3.00004C6.0007 2.44775 6.44841 2.00004 7.0007 2.00004C7.55298 2.00004 8.0007 2.44775 8.0007 3.00004C8.0007 3.55232 7.55298 4.00004 7.0007 4.00004C6.44841 4.00004 6.0007 3.55232 6.0007 3.00004ZM3.0007 6.00004C2.44841 6.00004 2.0007 6.44775 2.0007 7.00004C2.0007 7.55232 2.44841 8.00004 3.0007 8.00004C3.55298 8.00004 4.0007 7.55232 4.0007 7.00004C4.0007 6.44775 3.55298 6.00004 3.0007 6.00004ZM7.0007 6.00004C6.44841 6.00004 6.0007 6.44775 6.0007 7.00004C6.0007 7.55232 6.44841 8.00004 7.0007 8.00004C7.55298 8.00004 8.0007 7.55232 8.0007 7.00004C8.0007 6.44775 7.55298 6.00004 7.0007 6.00004ZM10.0007 7.00004C10.0007 6.44775 10.4484 6.00004 11.0007 6.00004C11.553 6.00004 12.0007 6.44775 12.0007 7.00004C12.0007 7.55232 11.553 8.00004 11.0007 8.00004C10.4484 8.00004 10.0007 7.55232 10.0007 7.00004ZM7.0007 10C6.44841 10 6.0007 10.4477 6.0007 11C6.0007 11.5523 6.44841 12 7.0007 12C7.55298 12 8.0007 11.5523 8.0007 11C8.0007 10.4477 7.55298 10 7.0007 10Z" fill="black"/>
</g>
<defs>
<clipPath id="clip0_1068_187682">
<rect width="14" height="14" fill="white"/>
</clipPath>
</defs>
</svg>
