<svg width="14" height="14" viewBox="0 0 14 14" fill="none" xmlns="http://www.w3.org/2000/svg">
<path fill-rule="evenodd" clip-rule="evenodd" d="M12.5 12.5C13.3284 12.5 14 11.8284 14 11V3C14 2.17157 13.3284 1.5 12.5 1.5H1.5C0.671573 1.5 0 2.17157 0 3V11C0 11.8284 0.671573 12.5 1.5 12.5H12.5ZM7.00504 5.46153C7.68239 5.45874 8.23063 4.90878 8.23063 4.23077C8.23063 3.55104 7.6796 3 6.99986 3C6.32013 3 5.76909 3.55104 5.76909 4.23077C5.76909 4.90883 6.3174 5.45881 6.99482 5.46153C6.42547 5.46291 5.87973 5.68968 5.47704 6.09238C5.07311 6.4963 4.84619 7.04414 4.84619 7.61538V8.53846H5.76927L6.07696 11H7.92312L8.23081 8.53846H9.15389V7.61538C9.15389 7.04414 8.92697 6.4963 8.52304 6.09238C8.1203 5.68963 7.57447 5.46285 7.00504 5.46153Z" fill="black"/>
</svg>
