<svg width="14" height="14" viewBox="0 0 14 14" fill="none" xmlns="http://www.w3.org/2000/svg">
<g clip-path="url(#clip0_1068_187661)">
<path fill-rule="evenodd" clip-rule="evenodd" d="M14 12.5C14 13.3284 13.3284 14 12.5 14H1.5C0.671573 14 0 13.3284 0 12.5V1.5C0 0.671573 0.671573 0 1.5 0H12.5C13.3284 0 14 0.671573 14 1.5V12.5ZM3.75 2C2.7835 2 2 2.7835 2 3.75C2 4.7165 2.7835 5.5 3.75 5.5C4.7165 5.5 5.5 4.7165 5.5 3.75C5.5 2.7835 4.7165 2 3.75 2ZM8.40099 6.59901L2.5 12.5H12.5V8.5L9.68934 6.49238C9.29155 6.20825 8.74665 6.25335 8.40099 6.59901Z" fill="black"/>
</g>
<defs>
<clipPath id="clip0_1068_187661">
<rect width="14" height="14" fill="white"/>
</clipPath>
</defs>
</svg>
