<svg width="14" height="14" viewBox="0 0 14 14" fill="none" xmlns="http://www.w3.org/2000/svg">
<g clip-path="url(#clip0_1068_187694)">
<path fill-rule="evenodd" clip-rule="evenodd" d="M13.8425 2.65283C13.8425 2.38761 13.7372 2.13326 13.5496 1.94572C13.3621 1.75819 13.1077 1.65283 12.8425 1.65283H12.3425L11.3425 0.152832H9.3425L8.3425 1.65283H7.8425C7.57729 1.65283 7.32293 1.75819 7.1354 1.94572C6.94786 2.13326 6.8425 2.38761 6.8425 2.65283V5.15283C6.8425 5.41805 6.94786 5.6724 7.1354 5.85994C7.32293 6.04747 7.57729 6.15283 7.8425 6.15283H12.8425C13.1077 6.15283 13.3621 6.04747 13.5496 5.85994C13.7372 5.6724 13.8425 5.41805 13.8425 5.15283V2.65283ZM9.3425 3.65283C9.3425 3.10055 9.79022 2.65283 10.3425 2.65283C10.8948 2.65283 11.3425 3.10055 11.3425 3.65283C11.3425 4.20511 10.8948 4.65283 10.3425 4.65283C9.79022 4.65283 9.3425 4.20511 9.3425 3.65283ZM2.98667 4.75209C2.98667 4.61402 3.0986 4.50209 3.23667 4.50209H4.8425C5.25672 4.50209 5.5925 4.1663 5.5925 3.75209C5.5925 3.33787 5.25672 3.00209 4.8425 3.00209H3.23667C2.27017 3.00209 1.48667 3.78559 1.48667 4.75209V9.65283C1.48667 9.66298 1.48687 9.67308 1.48727 9.68314L0.323233 11.764L0.315469 11.7784C0.202931 11.9961 0.148967 12.239 0.159495 12.4839C0.170023 12.7288 0.244622 12.9662 0.37517 13.1734C0.50566 13.3806 0.687382 13.5503 0.901953 13.6677C1.11646 13.7851 1.3573 13.8467 1.60173 13.8474H1.6032H11.0819H11.0833C11.3278 13.8467 11.5686 13.7851 11.7831 13.6677C11.9977 13.5503 12.1794 13.3806 12.3099 13.1734C12.4404 12.9662 12.515 12.7288 12.5256 12.4839C12.5361 12.239 12.4821 11.9961 12.3696 11.7784L12.3618 11.764L11.1978 9.68314C11.1982 9.67309 11.1984 9.66298 11.1984 9.65283V8.15283C11.1984 7.73862 10.8626 7.40283 10.4484 7.40283C10.0342 7.40283 9.69838 7.73862 9.69838 8.15283V8.90283H2.98667V4.75209Z" fill="black"/>
</g>
<defs>
<clipPath id="clip0_1068_187694">
<rect width="14" height="14" fill="white"/>
</clipPath>
</defs>
</svg>
