<svg width="14" height="14" viewBox="0 0 14 14" fill="none" xmlns="http://www.w3.org/2000/svg">
<g clip-path="url(#clip0_1068_187655)">
<path fill-rule="evenodd" clip-rule="evenodd" d="M1.75 1.5C1.61193 1.5 1.5 1.61193 1.5 1.75V12.2388C1.50165 12.2429 1.50486 12.2499 1.51076 12.26C1.52996 12.2927 1.56669 12.3382 1.62329 12.3864C1.67937 12.4343 1.73851 12.4707 1.78463 12.4924C1.79111 12.4954 1.79688 12.4979 1.80187 12.5H8.25C8.38807 12.5 8.5 12.3881 8.5 12.25V8.25C8.5 7.83579 8.83579 7.5 9.25 7.5C9.66421 7.5 10 7.83579 10 8.25V12.25C10 13.2165 9.2165 14 8.25 14H1.75C1.51778 14 1.30218 13.9229 1.14782 13.8505C0.978094 13.7709 0.806129 13.6609 0.649999 13.5278C0.361255 13.2816 0 12.8419 0 12.25V1.75C0 0.783502 0.783502 0 1.75 0H5C5.41421 0 5.75 0.335786 5.75 0.75C5.75 1.16421 5.41421 1.5 5 1.5H1.75ZM13.7071 1.79289C13.8946 1.98043 14 2.23478 14 2.5V5C14 5.26522 13.8946 5.51957 13.7071 5.70711C13.5196 5.89464 13.2652 6 13 6H8C7.73478 6 7.48043 5.89464 7.29289 5.70711C7.10536 5.51957 7 5.26522 7 5V2.5C7 2.23478 7.10536 1.98043 7.29289 1.79289C7.48043 1.60536 7.73478 1.5 8 1.5H8.5L9.5 0H11.5L12.5 1.5H13C13.2652 1.5 13.5196 1.60536 13.7071 1.79289ZM10.5 2.5C9.94772 2.5 9.5 2.94772 9.5 3.5C9.5 4.05228 9.94772 4.5 10.5 4.5C11.0523 4.5 11.5 4.05228 11.5 3.5C11.5 2.94772 11.0523 2.5 10.5 2.5ZM4.5 9.75C4.08579 9.75 3.75 10.0858 3.75 10.5C3.75 10.9142 4.08579 11.25 4.5 11.25H5.5C5.91421 11.25 6.25 10.9142 6.25 10.5C6.25 10.0858 5.91421 9.75 5.5 9.75H4.5Z" fill="black"/>
</g>
<defs>
<clipPath id="clip0_1068_187655">
<rect width="14" height="14" fill="white"/>
</clipPath>
</defs>
</svg>
