<svg width="14" height="14" viewBox="0 0 14 14" fill="none" xmlns="http://www.w3.org/2000/svg">
<path fill-rule="evenodd" clip-rule="evenodd" d="M11 0C11.8284 0 12.5 0.671573 12.5 1.5V12.5C12.5 13.3284 11.8284 14 11 14H3C2.17157 14 1.5 13.3284 1.5 12.5V1.5C1.5 0.671572 2.17157 0 3 0H11ZM10.3186 4.53125C10.3186 5.35968 9.64703 6.03125 8.8186 6.03125C7.99018 6.03125 7.3186 5.35968 7.3186 4.53125C7.3186 3.70282 7.99018 3.03125 8.8186 3.03125C9.64703 3.03125 10.3186 3.70282 10.3186 4.53125ZM3.06294 8.21982C4.18418 8.19727 5.27148 8.53033 6.13087 9.15008C7.35418 10.0323 7.92567 11.5251 8.02937 13H3C2.72386 13 2.5 12.7761 2.5 12.5V8.2453C2.6831 8.22797 2.86727 8.21949 3.0517 8.21992L3.06294 8.21982ZM9.89667 9.56422C9.276 9.56302 8.6606 9.64485 8.07104 9.80551C8.67646 10.7832 8.96452 11.9222 9.03133 13H10.9999C11.2761 13 11.4999 12.7761 11.4999 12.5V9.75343C10.9788 9.62779 10.44 9.56395 9.89789 9.56422H9.89667Z" fill="black"/>
</svg>
