<svg width="14" height="14" viewBox="0 0 14 14" fill="none" xmlns="http://www.w3.org/2000/svg">
<path fill-rule="evenodd" clip-rule="evenodd" d="M14 11C14 11.8284 13.3284 12.5 12.5 12.5H1.5C0.671573 12.5 0 11.8284 0 11V3C0 2.17157 0.671573 1.5 1.5 1.5H12.5C13.3284 1.5 14 2.17157 14 3V11ZM10.9688 4.9669C10.9688 5.77709 10.3121 6.43387 9.50188 6.43387C8.6917 6.43387 8.03491 5.77709 8.03491 4.9669C8.03491 4.15672 8.6917 3.49994 9.50188 3.49994C10.3121 3.49994 10.9688 4.15672 10.9688 4.9669ZM1.95792 6.71378C3.52173 6.67842 5.04724 7.19983 6.26225 8.18497C7.31905 9.04183 8.08114 10.201 8.45163 11.5H1.5C1.22386 11.5 1 11.2761 1 11V6.77458C1.31324 6.73335 1.62903 6.71307 1.94527 6.71391L1.95792 6.71378ZM9.48612 11.5H12.5001C12.7763 11.5 13.0001 11.2761 13.0001 11V9.30899C12.368 9.13014 11.7136 9.03938 11.0555 9.03975H11.0542C10.2341 9.03797 9.42097 9.17598 8.64941 9.44669C9.02518 10.0831 9.30818 10.7744 9.48612 11.5Z" fill="black"/>
</svg>
