<svg width="14" height="14" viewBox="0 0 14 14" fill="none" xmlns="http://www.w3.org/2000/svg">
<g clip-path="url(#clip0_1068_187679)">
<path fill-rule="evenodd" clip-rule="evenodd" d="M6.35993 5.45838C6.35993 6.032 5.89492 6.49701 5.32131 6.49701H1.1773C0.603682 6.49701 0.138672 6.032 0.138672 5.45838V1.03863C0.138672 0.465011 0.603681 0 1.1773 0H5.32131C5.89492 0 6.35993 0.465009 6.35993 1.03863V5.45838ZM1.61122 1.48564H4.88742V4.00405H1.61122V1.48564ZM6.35993 12.9599C6.35993 13.5335 5.89492 13.9985 5.32131 13.9985H1.1773C0.603682 13.9985 0.138672 13.5335 0.138672 12.9599V8.54012C0.138672 7.96651 0.603681 7.5015 1.1773 7.5015H5.32131C5.89492 7.5015 6.35993 7.9665 6.35993 8.54012V12.9599ZM1.61122 8.98714H4.88742V11.5055H1.61122V8.98714ZM12.8212 13.9985C13.3948 13.9985 13.8598 13.5335 13.8598 12.9599V8.54012C13.8598 7.9665 13.3948 7.5015 12.8212 7.5015H8.67718C8.10356 7.5015 7.63855 7.96651 7.63855 8.54012V12.9599C7.63855 13.5335 8.10356 13.9985 8.67718 13.9985H12.8212ZM12.3873 8.98714H9.11109V11.5055H12.3873V8.98714ZM13.8598 5.45838C13.8598 6.032 13.3948 6.49701 12.8212 6.49701H8.67718C8.10356 6.49701 7.63855 6.032 7.63855 5.45838V1.03863C7.63855 0.465011 8.10356 0 8.67718 0H12.8212C13.3948 0 13.8598 0.465009 13.8598 1.03863V5.45838ZM9.11109 1.48564H12.3873V4.00405H9.11109V1.48564Z" fill="black"/>
</g>
<defs>
<clipPath id="clip0_1068_187679">
<rect width="14" height="14" fill="white"/>
</clipPath>
</defs>
</svg>
