<svg width="14" height="14" viewBox="0 0 14 14" fill="none" xmlns="http://www.w3.org/2000/svg">
<g clip-path="url(#clip0_1068_188396)">
<path fill-rule="evenodd" clip-rule="evenodd" d="M4.40459 11.1725H3.47218C3.27855 11.1725 3.10233 11.0607 3.01983 10.8855C2.93733 10.7104 2.96339 10.5033 3.08671 10.354L4.22632 8.97468C3.27676 8.77819 2.44248 8.24429 1.81252 7.5586C1.01456 6.69005 0.503906 5.53512 0.503906 4.40357C0.503906 2.13402 2.54616 0.125 5.02187 0.125C7.49756 0.125 9.54004 2.13399 9.54004 4.40357C9.54004 5.53514 9.02933 6.69007 8.23131 7.55862C7.60722 8.23787 6.78262 8.76817 5.8441 8.96907L6.9609 10.3594C7.08138 10.5094 7.10513 10.7152 7.02196 10.8886C6.9388 11.0621 6.76348 11.1725 6.57109 11.1725H5.6393C5.64192 11.1891 5.64389 11.2059 5.64519 11.223C5.68723 11.7741 5.83365 12.1073 5.99078 12.3078C6.14406 12.5035 6.34102 12.6162 6.57236 12.6704C7.07271 12.7876 7.70044 12.6168 8.07821 12.374C8.92763 11.8279 9.67154 11.4599 10.4776 11.257C11.2838 11.0542 12.1108 11.0269 13.112 11.1056C13.4561 11.1326 13.7132 11.4335 13.6861 11.7776C13.6591 12.1217 13.3582 12.3788 13.0141 12.3517C12.088 12.2789 11.4093 12.3115 10.7827 12.4692C10.156 12.627 9.54011 12.9202 8.75416 13.4255C8.16509 13.8041 7.19343 14.0997 6.28726 13.8875C5.81533 13.7769 5.35725 13.526 5.00686 13.0788C4.66034 12.6366 4.45448 12.0479 4.39881 11.318C4.39503 11.2684 4.39715 11.2196 4.40459 11.1725Z" fill="black"/>
</g>
<defs>
<clipPath id="clip0_1068_188396">
<rect width="14" height="14" fill="white"/>
</clipPath>
</defs>
</svg>
