<svg width="14" height="14" viewBox="0 0 14 14" fill="none" xmlns="http://www.w3.org/2000/svg">
<g clip-path="url(#clip0_1068_188399)">
<path fill-rule="evenodd" clip-rule="evenodd" d="M10.4634 0.026123C10.16 0.026123 9.88658 0.208855 9.77049 0.48911C9.65441 0.769366 9.71858 1.09195 9.93307 1.30645L10.7955 2.16898L9.14244 3.82213C7.441 2.37395 5.23573 1.5 2.82634 1.5C2.08273 1.5 1.35768 1.58338 0.660371 1.74161C0.256426 1.83327 0.00326875 2.23504 0.0949292 2.63898C0.186589 3.04293 0.588356 3.29608 0.992301 3.20442C1.26526 3.14249 1.5435 3.09406 1.8263 3.05992V10.6162H0.826437C0.523091 10.6162 0.249613 10.7989 0.133528 11.0792L0.132701 11.0812C0.113442 11.1279 0.0987692 11.1771 0.0892458 11.228C0.0789566 11.2829 0.0749121 11.3383 0.076911 11.3933C0.0840387 11.5979 0.173103 11.7816 0.312299 11.9127L2.13628 13.7367C2.27312 13.8827 2.46769 13.9739 2.68357 13.9739C3.09778 13.9739 3.43357 13.6381 3.43357 13.2239V12.25H11.0164C10.9822 12.5328 10.9338 12.8111 10.8719 13.084C10.7802 13.488 11.0334 13.8897 11.4373 13.9814C11.8413 14.0731 12.243 13.8199 12.3347 13.416C12.4929 12.7187 12.5763 11.9936 12.5763 11.25C12.5763 8.81455 11.6833 6.58766 10.207 4.87888L11.8562 3.22964L12.7187 4.09217C12.9332 4.30667 13.2558 4.37084 13.5361 4.25475C13.8163 4.13866 13.9991 3.86519 13.9991 3.56184V0.776123C13.9991 0.669572 13.9769 0.568211 13.9368 0.47642C13.9045 0.402193 13.8596 0.332128 13.8021 0.269468C13.7877 0.25375 13.7726 0.238648 13.7569 0.224206C13.6919 0.164279 13.6188 0.117949 13.5414 0.0852173C13.4515 0.0471671 13.3528 0.026123 13.2491 0.026123H10.4634ZM8.0777 4.88687C6.77113 3.80736 5.12647 3.12251 3.3263 3.0149V9.63828L8.0777 4.88687ZM9.143 5.94289C10.2493 7.25827 10.9522 8.92415 11.0614 10.75H4.33589L9.143 5.94289Z" fill="black"/>
</g>
<defs>
<clipPath id="clip0_1068_188399">
<rect width="14" height="14" fill="white"/>
</clipPath>
</defs>
</svg>
