<svg width="14" height="14" viewBox="0 0 14 14" fill="none" xmlns="http://www.w3.org/2000/svg">
<g clip-path="url(#clip0_1068_188438)">
<path fill-rule="evenodd" clip-rule="evenodd" d="M2.67562 0.019165C2.37986 0.019165 2.08905 0.0945525 1.83063 0.238113C1.56749 0.372252 1.34538 0.575009 1.18786 0.825043C1.02807 1.07867 0.940861 1.37125 0.935696 1.67097L0.935621 1.67958V12.3396L0.935696 12.3482C0.940861 12.6479 1.02807 12.9405 1.18786 13.1941C1.34538 13.4442 1.56749 13.6469 1.83063 13.7811C2.08905 13.9246 2.37986 14 2.67562 14C2.97557 14 3.27043 13.9225 3.53158 13.7749C3.53733 13.7717 3.54301 13.7683 3.54862 13.7648L12.1784 8.42735C12.4401 8.29546 12.661 8.09453 12.8172 7.84605C12.9783 7.58946 13.0639 7.2926 13.0639 6.98958C13.0639 6.68657 12.9783 6.3897 12.8172 6.13312C12.6609 5.88438 12.4396 5.68328 12.1776 5.5514L3.5472 0.253465C3.54205 0.250305 3.53684 0.247238 3.53158 0.244266C3.27043 0.0967073 2.97557 0.019165 2.67562 0.019165Z" fill="black"/>
</g>
<defs>
<clipPath id="clip0_1068_188438">
<rect width="14" height="14" fill="white"/>
</clipPath>
</defs>
</svg>
