<svg width="14" height="14" viewBox="0 0 14 14" fill="none" xmlns="http://www.w3.org/2000/svg">
<path fill-rule="evenodd" clip-rule="evenodd" d="M1 2.23425C0.447715 2.23425 0 2.68197 0 3.23425V10.7658C0 11.3181 0.447715 11.7658 1 11.7658C1.55228 11.7658 2 11.3181 2 10.7658V8.78177L6.23291 11.5753C6.76889 11.9016 7.50363 11.4886 7.5033 10.8505L7.50329 10.8479V8.12616L12.7296 11.5753C13.2655 11.9016 14 11.4888 14 10.851V10.8479V3.12765C13.9933 2.85506 13.8514 2.62576 13.6498 2.4801C13.3883 2.2911 13.0265 2.24292 12.7296 2.42368L7.50329 5.89371V3.12765C7.4966 2.85506 7.35465 2.62576 7.15312 2.4801C6.89161 2.2911 6.52978 2.24292 6.23291 2.42368L2 5.23413V3.23425C2 2.68197 1.55229 2.23425 1 2.23425Z" fill="black"/>
</svg>
