<svg width="14" height="14" viewBox="0 0 14 14" fill="none" xmlns="http://www.w3.org/2000/svg">
<g clip-path="url(#clip0_1068_188426)">
<path fill-rule="evenodd" clip-rule="evenodd" d="M8 1C8 0.447715 7.55228 0 7 0C6.44772 0 6 0.447715 6 1V6.07692C6 6.62921 6.44772 7.07692 7 7.07692C7.55228 7.07692 8 6.62921 8 6.07692V1ZM3.92308 3.05886C4.3584 2.71899 4.43579 2.09057 4.09592 1.65525C3.75605 1.21992 3.12763 1.14254 2.69231 1.4824C1.54339 2.37939 0.703135 3.61265 0.288786 5.01012C-0.125563 6.40758 -0.0933355 7.89953 0.38097 9.27781C0.855276 10.6561 1.748 11.8519 2.93458 12.6984C4.12116 13.545 5.5424 14 7 14C8.4576 14 9.87884 13.545 11.0654 12.6984C12.252 11.8519 13.1447 10.6561 13.619 9.27781C14.0933 7.89954 14.1256 6.40758 13.7112 5.01012C13.2969 3.61265 12.4566 2.37939 11.3077 1.4824C10.8724 1.14254 10.2439 1.21992 9.90408 1.65525C9.56421 2.09057 9.6416 2.71899 10.0769 3.05886C10.8976 3.69956 11.4978 4.58046 11.7937 5.57865C12.0897 6.57684 12.0667 7.64252 11.7279 8.627C11.3891 9.61148 10.7514 10.4656 9.90387 11.0703C9.05632 11.675 8.04114 12 7 12C5.95886 12 4.94368 11.675 4.09613 11.0703C3.24857 10.4656 2.61091 9.61148 2.27212 8.627C1.93333 7.64252 1.91031 6.57684 2.20628 5.57865C2.50224 4.58046 3.10242 3.69956 3.92308 3.05886Z" fill="black"/>
</g>
<defs>
<clipPath id="clip0_1068_188426">
<rect width="14" height="14" fill="white"/>
</clipPath>
</defs>
</svg>
