<svg width="14" height="14" viewBox="0 0 14 14" fill="none" xmlns="http://www.w3.org/2000/svg">
<path fill-rule="evenodd" clip-rule="evenodd" d="M13 2.23425C13.5523 2.23425 14 2.68197 14 3.23425V10.7658C14 11.3181 13.5523 11.7658 13 11.7658C12.4477 11.7658 12 11.3181 12 10.7658V8.78177L7.76709 11.5753C7.23111 11.9016 6.49637 11.4886 6.4967 10.8505L6.49671 10.8479V8.12616L1.27038 11.5753C0.73453 11.9016 8.5553e-07 11.4888 0 10.851L5.83568e-06 10.8479V3.12765C0.00669641 2.85506 0.148642 2.62576 0.350178 2.4801C0.611682 2.2911 0.973516 2.24292 1.27038 2.42368L6.49671 5.89371V3.12765C6.5034 2.85506 6.64535 2.62576 6.84688 2.4801C7.10839 2.2911 7.47022 2.24292 7.76709 2.42368L12 5.23413V3.23425C12 2.68197 12.4477 2.23425 13 2.23425Z" fill="black"/>
</svg>
