<svg width="14" height="14" viewBox="0 0 14 14" fill="none" xmlns="http://www.w3.org/2000/svg">
<path fill-rule="evenodd" clip-rule="evenodd" d="M7.50329 5.89365L12.7296 2.42362C13.0265 2.24286 13.3883 2.29104 13.6498 2.48004C13.8514 2.6257 13.9933 2.855 14 3.12759V10.8478V10.8509C14 11.4887 13.2655 11.9015 12.7296 11.5752L7.50329 8.1261V10.8478L7.5033 10.8505C7.50363 11.4885 6.76889 11.9016 6.23291 11.5752L0.366072 7.70339C-0.122024 7.3868 -0.122024 6.63551 0.366072 6.31892L6.23291 2.42362C6.52978 2.24286 6.89161 2.29104 7.15312 2.48004C7.35465 2.6257 7.4966 2.855 7.50329 3.12759V5.89365Z" fill="black"/>
</svg>
