<svg width="14" height="14" viewBox="0 0 14 14" fill="none" xmlns="http://www.w3.org/2000/svg">
<g clip-path="url(#clip0_1068_188405)">
<path fill-rule="evenodd" clip-rule="evenodd" d="M9.51212 6.056L1.6931 0.656892C1.29745 0.406346 0.815218 0.473133 0.466699 0.735097C0.198102 0.936989 0.00892463 1.25481 7.77749e-06 1.63264V12.3333L0 12.3376C9.62732e-07 13.2216 0.978943 13.7938 1.6931 13.3415L9.51212 7.97496C10.1626 7.53614 10.1626 6.49482 9.51212 6.056ZM13.7499 1.74216C13.7499 1.18987 13.3022 0.742157 12.7499 0.742157C12.1977 0.742157 11.7499 1.18987 11.7499 1.74216V12.2578C11.7499 12.8101 12.1977 13.2578 12.7499 13.2578C13.3022 13.2578 13.7499 12.8101 13.7499 12.2578V1.74216Z" fill="black"/>
</g>
<defs>
<clipPath id="clip0_1068_188405">
<rect width="14" height="14" fill="white"/>
</clipPath>
</defs>
</svg>
