<svg width="14" height="14" viewBox="0 0 14 14" fill="none" xmlns="http://www.w3.org/2000/svg">
<g clip-path="url(#clip0_1068_188414)">
<path fill-rule="evenodd" clip-rule="evenodd" d="M4.23782 6.056L12.0568 0.656892C12.4524 0.406346 12.9347 0.473133 13.2832 0.735097C13.5518 0.936989 13.741 1.25481 13.7499 1.63264V12.3333V12.3376C13.7499 13.2216 12.771 13.7938 12.0568 13.3415L4.23782 7.97496C3.58731 7.53614 3.58731 6.49482 4.23782 6.056ZM0 1.74216C0 1.18987 0.447715 0.742157 0.999999 0.742157C1.55229 0.742157 2 1.18987 2 1.74216V12.2578C2 12.8101 1.55229 13.2578 0.999999 13.2578C0.447715 13.2578 -9.53699e-07 12.8101 0 12.2578V1.74216Z" fill="black"/>
</g>
<defs>
<clipPath id="clip0_1068_188414">
<rect width="14" height="14" fill="white"/>
</clipPath>
</defs>
</svg>
