<svg width="14" height="14" viewBox="0 0 14 14" fill="none" xmlns="http://www.w3.org/2000/svg">
<path fill-rule="evenodd" clip-rule="evenodd" d="M6.49671 5.89365L1.27038 2.42362C0.973516 2.24286 0.611682 2.29104 0.350178 2.48004C0.148642 2.6257 0.00669641 2.855 5.83568e-06 3.12759V10.8478L0 10.8509C8.5553e-07 11.4887 0.73453 11.9015 1.27038 11.5752L6.49671 8.1261V10.8478L6.4967 10.8505C6.49637 11.4885 7.23111 11.9016 7.76709 11.5752L13.6339 7.70339C14.122 7.3868 14.122 6.63551 13.6339 6.31892L7.76709 2.42362C7.47022 2.24286 7.10839 2.29104 6.84688 2.48004C6.64535 2.6257 6.5034 2.855 6.49671 3.12759V5.89365Z" fill="black"/>
</svg>
