<svg width="14" height="14" viewBox="0 0 14 14" fill="none" xmlns="http://www.w3.org/2000/svg">
<g clip-path="url(#clip0_1068_188471)">
<path fill-rule="evenodd" clip-rule="evenodd" d="M0 3.5C0 1.567 1.567 0 3.5 0C5.433 0 7 1.567 7 3.5C7 5.433 5.433 7 3.5 7C1.567 7 0 5.433 0 3.5ZM10.5 2C9.11929 2 8 3.11929 8 4.5C8 5.88071 9.11929 7 10.5 7C11.8807 7 13 5.88071 13 4.5C13 3.11929 11.8807 2 10.5 2ZM1.91187 9.60888C1.91187 8.71874 2.63347 7.99713 3.52361 7.99713H9.63824C10.5284 7.99713 11.25 8.71874 11.25 9.60888V12.3883C11.25 13.2784 10.5284 14 9.63824 14H3.52361C2.63347 14 1.91187 13.2784 1.91187 12.3883V9.60888ZM13.8781 9.74854C13.8781 9.33432 13.5424 8.99854 13.1281 8.99854C12.7139 8.99854 12.3781 9.33432 12.3781 9.74854V12.2485C12.3781 12.6627 12.7139 12.9985 13.1281 12.9985C13.5424 12.9985 13.8781 12.6627 13.8781 12.2485V9.74854Z" fill="black"/>
</g>
<defs>
<clipPath id="clip0_1068_188471">
<rect width="14" height="14" fill="white"/>
</clipPath>
</defs>
</svg>
