<svg width="14" height="14" viewBox="0 0 14 14" fill="none" xmlns="http://www.w3.org/2000/svg">
<g clip-path="url(#clip0_1068_188423)">
<path fill-rule="evenodd" clip-rule="evenodd" d="M7.56069 0.329923C7.30485 0.261407 7.0419 0.41322 6.97332 0.669039L4.63898 9.37652C4.57037 9.63243 4.72225 9.89549 4.97818 9.96403L11.0616 11.5933C11.3175 11.6618 11.5804 11.51 11.649 11.2542L13.9834 2.54668C14.052 2.29077 13.9001 2.02771 13.6442 1.95917L7.56069 0.329923ZM3.43161 9.05281L5.028 3.09802L0.355681 4.34933C0.0997529 4.41787 -0.0521275 4.68094 0.0164784 4.93685L2.35083 13.6443C2.41941 13.9001 2.68236 14.052 2.93819 13.9834L9.02169 12.3542C9.02963 12.3521 9.03748 12.3498 9.04521 12.3473L4.65481 11.1715C3.73191 10.9243 3.18421 9.97565 3.43161 9.05281Z" fill="black"/>
</g>
<defs>
<clipPath id="clip0_1068_188423">
<rect width="14" height="14" fill="white"/>
</clipPath>
</defs>
</svg>
