<svg width="14" height="14" viewBox="0 0 14 14" fill="none" xmlns="http://www.w3.org/2000/svg">
<path fill-rule="evenodd" clip-rule="evenodd" d="M4.3556 3.14052C4.3556 1.68018 5.53944 0.496338 6.99977 0.496338C8.46011 0.496338 9.64395 1.68018 9.64395 3.14052C9.64395 3.65219 9.49862 4.12991 9.24698 4.53467H9.57279C9.987 4.53467 10.3228 4.87045 10.3228 5.28467C10.3228 5.69888 9.987 6.03467 9.57279 6.03467H8.88574C8.99234 6.78303 9.15067 7.69683 9.35485 8.57608C9.43107 8.90433 9.51312 9.22529 9.6005 9.5293H4.3988C4.4862 9.22528 4.56825 8.9043 4.64447 8.57603C4.84863 7.69678 5.00695 6.78301 5.11355 6.03467H4.42676C4.01255 6.03467 3.67676 5.69888 3.67676 5.28467C3.67676 4.87045 4.01255 4.53467 4.42676 4.53467H4.75257C4.50093 4.12991 4.3556 3.65219 4.3556 3.14052ZM3.90392 10.7793C3.43519 10.8142 2.97641 11.083 2.79252 11.5488L2.18142 13.0967C2.12064 13.2507 2.13999 13.4247 2.23309 13.5616C2.32619 13.6984 2.48098 13.7803 2.64649 13.7803H11.353C11.5185 13.7803 11.6733 13.6984 11.7664 13.5616C11.8595 13.4247 11.8789 13.2507 11.8181 13.0967L11.207 11.5488C11.0231 11.083 10.5643 10.8142 10.0956 10.7793H3.90392Z" fill="black"/>
</svg>
