<svg width="14" height="14" viewBox="0 0 14 14" fill="none" xmlns="http://www.w3.org/2000/svg">
<path fill-rule="evenodd" clip-rule="evenodd" d="M3.08767 4.15946C2.66911 4.86954 2.80861 5.77618 3.42126 6.3276C3.88601 6.74589 4.53126 6.87547 5.10979 6.68985C6.00299 6.05907 6.90487 5.11042 7.2945 3.82626C7.37467 3.56202 7.65388 3.4128 7.91813 3.49297C8.18238 3.57315 8.3316 3.85236 8.25142 4.11661C7.79652 5.61586 6.78418 6.70158 5.80885 7.41855C5.68176 7.53664 5.53967 7.65805 5.38097 7.78225C4.89835 8.15993 4.26243 8.67592 3.78598 9.22575C3.65778 9.37368 3.62771 9.58282 3.70902 9.76089C3.79034 9.93895 3.96809 10.0532 4.16384 10.0532H10.6784C10.9231 10.0532 11.1318 9.87616 11.1717 9.63479C11.6684 6.63232 11.5452 4.70812 11.1001 3.39066C10.646 2.04633 9.87406 1.38919 9.24332 0.898611C8.62154 0.414997 7.60758 0.162264 6.70143 0.058792C5.79261 -0.0449854 4.8251 -0.0167517 4.25132 0.186613C4.11999 0.233163 4.01403 0.33241 3.959 0.460428C3.90397 0.588447 3.90486 0.733621 3.96145 0.860956L4.42165 1.89639L3.08767 4.15946ZM1.71965 12.0939C1.92519 11.5051 2.48104 11.1094 3.10627 11.1094H10.9558C11.5851 11.1094 12.1441 11.5102 12.3464 12.1054L12.7969 13.3269C12.8535 13.4803 12.8315 13.6517 12.738 13.7858C12.6445 13.92 12.4913 13.9999 12.3278 13.9999H1.67188C1.50448 13.9999 1.34819 13.9161 1.25551 13.7767C1.16282 13.6373 1.14605 13.4608 1.21083 13.3064L1.71965 12.0939Z" fill="black"/>
</svg>
