<svg width="14" height="14" viewBox="0 0 14 14" fill="none" xmlns="http://www.w3.org/2000/svg">
<path fill-rule="evenodd" clip-rule="evenodd" d="M7.30054 0.542236C7.30054 0.266094 7.07669 0.0422363 6.80054 0.0422363C6.5244 0.0422363 6.30054 0.266094 6.30054 0.542236V0.780029H6.06299C5.78685 0.780029 5.56299 1.00389 5.56299 1.28003C5.56299 1.55617 5.78685 1.78003 6.06299 1.78003H6.30054V2.34686C5.52011 2.51516 4.86754 3.06899 4.66345 3.81836H4.4783C4.11743 3.81836 3.78695 3.97205 3.57264 4.22931C3.35474 4.49088 3.26026 4.86259 3.40188 5.23019L4.40552 7.83527C4.4244 7.88426 4.45043 7.92901 4.48216 7.96853L4.26483 9.5293H9.23466L9.02942 8.05532C9.10281 8.00022 9.16123 7.92482 9.19573 7.83527L10.1994 5.23019C10.341 4.86259 10.2466 4.49088 10.0287 4.22931C9.81431 3.97205 9.48382 3.81836 9.12295 3.81836H8.93739C8.73332 3.06906 8.08087 2.51528 7.30054 2.34691V1.78003H7.53792C7.81406 1.78003 8.03792 1.55617 8.03792 1.28003C8.03792 1.00389 7.81406 0.780029 7.53792 0.780029H7.30054V0.542236ZM9.89638 10.7793H3.70466C3.23594 10.8143 2.77718 11.083 2.5933 11.5488L1.9822 13.0967C1.92142 13.2507 1.94077 13.4247 2.03387 13.5616C2.12697 13.6984 2.28176 13.7803 2.44727 13.7803H11.1538C11.3193 13.7803 11.4741 13.6984 11.5672 13.5616C11.6603 13.4247 11.6797 13.2507 11.6189 13.0967L11.0078 11.5488C10.8239 11.083 10.3651 10.8143 9.89638 10.7793Z" fill="black"/>
</svg>
