<svg width="14" height="14" viewBox="0 0 14 14" fill="none" xmlns="http://www.w3.org/2000/svg">
<path fill-rule="evenodd" clip-rule="evenodd" d="M5.91211 1.19388C5.91211 0.592229 6.39984 0.104492 7.0015 0.104492C7.60319 0.104492 8.09085 0.592268 8.09085 1.19388C8.09085 1.51329 7.95339 1.80061 7.73439 1.99988C7.93502 2.12616 8.17571 2.29414 8.41795 2.50245C8.47354 2.55026 8.52994 2.60084 8.58652 2.65418L7.48492 3.78867C7.24446 4.03631 7.25028 4.432 7.49792 4.67246C7.74556 4.91292 8.14125 4.9071 8.38171 4.65946L9.36194 3.64997C9.555 4.01724 9.68313 4.43969 9.68313 4.91475C9.68313 5.46864 9.52935 5.94387 9.22401 6.31674C9.06526 6.51061 8.8751 6.66517 8.66473 6.78627C8.66815 6.79652 8.67144 6.80682 8.67462 6.81719C8.83702 7.34689 9.07819 8.1402 9.28119 8.83518C9.3537 9.08342 9.42174 9.3205 9.47976 9.5293H4.52194C4.57996 9.3205 4.648 9.08342 4.72051 8.83518C4.92351 8.1402 5.16468 7.34689 5.32708 6.81719C5.33024 6.80686 5.33353 6.79659 5.33692 6.78638C5.12652 6.66529 4.93631 6.51071 4.77752 6.31683C4.47214 5.94395 4.31833 5.46869 4.31833 4.91475C4.31833 3.82169 4.99668 3.00711 5.58352 2.50245C5.82611 2.29383 6.06716 2.12566 6.26797 1.99932C6.04932 1.80008 5.91211 1.513 5.91211 1.19388ZM3.90582 10.7793C3.43711 10.8143 2.97835 11.083 2.79447 11.5488L2.18337 13.0967C2.12259 13.2507 2.14194 13.4247 2.23504 13.5616C2.32814 13.6984 2.48292 13.7803 2.64844 13.7803H11.3549C11.5204 13.7803 11.6752 13.6984 11.7683 13.5616C11.8614 13.4247 11.8808 13.2507 11.82 13.0967L11.2089 11.5488C11.025 11.083 10.5662 10.8143 10.0975 10.7793H3.90582Z" fill="black"/>
</svg>
