<svg width="14" height="14" viewBox="0 0 14 14" fill="none" xmlns="http://www.w3.org/2000/svg">
<path fill-rule="evenodd" clip-rule="evenodd" d="M0 7.00003C0 4.15971 2.30254 1.85718 5.14286 1.85718C6.75715 1.85718 8.19762 2.60136 9.13983 3.76358C9.35062 3.73112 9.56634 3.71432 9.78571 3.71432C12.1132 3.71432 14 5.60112 14 7.92861C14 10.2561 12.1132 12.1429 9.78571 12.1429H5.14286C2.30254 12.1429 0 9.84036 0 7.00003ZM4.80309 6.39026C4.80309 6.04508 4.52327 5.76526 4.17809 5.76526C3.83291 5.76526 3.55309 6.04508 3.55309 6.39026V7.23079H2.71255C2.36738 7.23079 2.08755 7.51061 2.08755 7.85579C2.08755 8.20097 2.36738 8.48079 2.71255 8.48079H3.55309V9.32133C3.55309 9.6665 3.83291 9.94633 4.17809 9.94633C4.52327 9.94633 4.80309 9.6665 4.80309 9.32133V8.48079H5.64362C5.9888 8.48079 6.26862 8.20097 6.26862 7.85579C6.26862 7.51061 5.9888 7.23079 5.64362 7.23079H4.80309V6.39026ZM9.35135 7.82446C9.35135 8.23868 9.01556 8.57446 8.60135 8.57446C8.18714 8.57446 7.85135 8.23868 7.85135 7.82446C7.85135 7.41025 8.18714 7.07446 8.60135 7.07446C9.01556 7.07446 9.35135 7.41025 9.35135 7.82446ZM11.4354 8.57446C11.8496 8.57446 12.1854 8.23868 12.1854 7.82446C12.1854 7.41025 11.8496 7.07446 11.4354 7.07446C11.0212 7.07446 10.6854 7.41025 10.6854 7.82446C10.6854 8.23868 11.0212 8.57446 11.4354 8.57446ZM10.0184 7.15747C9.60416 7.15747 9.26837 6.82168 9.26837 6.40747C9.26837 5.99326 9.60416 5.65747 10.0184 5.65747C10.4326 5.65747 10.7684 5.99326 10.7684 6.40747C10.7684 6.82168 10.4326 7.15747 10.0184 7.15747ZM9.26837 9.24146C9.26837 9.65567 9.60416 9.99146 10.0184 9.99146C10.4326 9.99146 10.7684 9.65567 10.7684 9.24146C10.7684 8.82724 10.4326 8.49146 10.0184 8.49146C9.60416 8.49146 9.26837 8.82724 9.26837 9.24146Z" fill="black"/>
</svg>
