<svg width="14" height="14" viewBox="0 0 14 14" fill="none" xmlns="http://www.w3.org/2000/svg">
<g clip-path="url(#clip0_1068_188435)">
<path fill-rule="evenodd" clip-rule="evenodd" d="M7 0.25C5.32342 0.25 3.96429 1.60914 3.96429 3.28571C3.96429 3.84539 4.11603 4.47239 4.37638 5.05705C4.00545 4.95132 3.63314 4.89286 3.28571 4.89286C1.60914 4.89286 0.25 6.25199 0.25 7.92857C0.25 9.60515 1.60914 10.9643 3.28571 10.9643C3.90809 10.9643 4.6143 10.7766 5.25338 10.4599L4.64723 13.4503C4.63233 13.5239 4.65122 13.6002 4.69871 13.6582C4.74619 13.7163 4.81723 13.75 4.89225 13.75H9.10775C9.18276 13.75 9.25381 13.7163 9.30129 13.6582C9.34877 13.6002 9.36767 13.5239 9.35277 13.4503L8.74662 10.4599C9.3857 10.7766 10.0919 10.9643 10.7143 10.9643C12.3909 10.9643 13.75 9.60515 13.75 7.92857C13.75 6.25199 12.3909 4.89286 10.7143 4.89286C10.3669 4.89286 9.99455 4.95132 9.62362 5.05706C9.88397 4.47239 10.0357 3.84539 10.0357 3.28571C10.0357 1.60914 8.67658 0.25 7 0.25Z" fill="black"/>
</g>
<defs>
<clipPath id="clip0_1068_188435">
<rect width="14" height="14" fill="white"/>
</clipPath>
</defs>
</svg>
