<svg width="14" height="14" viewBox="0 0 14 14" fill="none" xmlns="http://www.w3.org/2000/svg">
<g clip-path="url(#clip0_1068_188459)">
<path fill-rule="evenodd" clip-rule="evenodd" d="M0.25 1.25C0.25 0.697715 0.697715 0.25 1.25 0.25H7.68667C8.23895 0.25 8.68667 0.697715 8.68667 1.25V4.06335H6.31335C5.07071 4.06335 4.06335 5.07071 4.06335 6.31335V8.68667H1.25C0.697715 8.68667 0.25 8.23895 0.25 7.68667V1.25ZM2.80146 3.74869C2.78947 3.74926 2.77741 3.74954 2.76528 3.74954C2.20577 3.74954 1.7522 3.29597 1.7522 2.73647L1.75222 2.72985L1.7522 2.72327C1.7522 2.17098 2.19991 1.72327 2.7522 1.72327L2.76587 1.72314C3.32538 1.72314 3.77895 2.17671 3.77895 2.73622C3.77895 3.28382 3.34449 3.72994 2.80146 3.74869ZM6.31335 5.31335C5.76107 5.31335 5.31335 5.76107 5.31335 6.31335V12.75C5.31335 13.3023 5.76107 13.75 6.31335 13.75H12.75C13.3023 13.75 13.75 13.3023 13.75 12.75V6.31335C13.75 5.76107 13.3023 5.31335 12.75 5.31335H6.31335ZM10.8815 8.97156C11.4338 8.97156 11.8815 8.52384 11.8815 7.97156C11.8815 7.41927 11.4338 6.97156 10.8815 6.97156C10.3292 6.97156 9.88147 7.41927 9.88147 7.97156C9.88147 8.52384 10.3292 8.97156 10.8815 8.97156ZM9.18182 11.0918C9.18182 11.6441 8.73411 12.0918 8.18182 12.0918C7.62954 12.0918 7.18182 11.6441 7.18182 11.0918C7.18182 10.5395 7.62954 10.0918 8.18182 10.0918C8.73411 10.0918 9.18182 10.5395 9.18182 11.0918Z" fill="black"/>
</g>
<defs>
<clipPath id="clip0_1068_188459">
<rect width="14" height="14" fill="white"/>
</clipPath>
</defs>
</svg>
