<svg width="14" height="14" viewBox="0 0 14 14" fill="none" xmlns="http://www.w3.org/2000/svg">
<g clip-path="url(#clip0_1068_188486)">
<path fill-rule="evenodd" clip-rule="evenodd" d="M2.5 0C1.11929 0 0 1.11929 0 2.5V11.5C0 12.8807 1.11929 14 2.5 14H11.5C12.8807 14 14 12.8807 14 11.5V2.5C14 1.11929 12.8807 0 11.5 0H2.5ZM5.41196 9.78813C5.41196 10.4509 4.8747 10.9881 4.21196 10.9881C3.54922 10.9881 3.01196 10.4509 3.01196 9.78813C3.01196 9.12539 3.54922 8.58813 4.21196 8.58813C4.8747 8.58813 5.41196 9.12539 5.41196 9.78813ZM9.78804 5.41196C10.4508 5.41196 10.988 4.8747 10.988 4.21196C10.988 3.54922 10.4508 3.01196 9.78804 3.01196C9.1253 3.01196 8.58804 3.54922 8.58804 4.21196C8.58804 4.8747 9.1253 5.41196 9.78804 5.41196Z" fill="black"/>
</g>
<defs>
<clipPath id="clip0_1068_188486">
<rect width="14" height="14" fill="white"/>
</clipPath>
</defs>
</svg>
