<svg width="14" height="14" viewBox="0 0 14 14" fill="none" xmlns="http://www.w3.org/2000/svg">
<g clip-path="url(#clip0_1068_188465)">
<path fill-rule="evenodd" clip-rule="evenodd" d="M2.5 0C1.11929 0 0 1.11929 0 2.5V11.5C0 12.8807 1.11929 14 2.5 14H11.5C12.8807 14 14 12.8807 14 11.5V2.5C14 1.11929 12.8807 0 11.5 0H2.5ZM10.9859 4.21196C10.9859 4.8747 10.4487 5.41196 9.78594 5.41196C9.1232 5.41196 8.58594 4.8747 8.58594 4.21196C8.58594 3.54922 9.1232 3.01196 9.78594 3.01196C10.4487 3.01196 10.9859 3.54922 10.9859 4.21196ZM9.78594 10.9881C10.4487 10.9881 10.9859 10.4509 10.9859 9.78813C10.9859 9.12539 10.4487 8.58813 9.78594 8.58813C9.1232 8.58813 8.58594 9.12539 8.58594 9.78813C8.58594 10.4509 9.1232 10.9881 9.78594 10.9881ZM5.4141 4.21196C5.4141 4.8747 4.87684 5.41196 4.2141 5.41196C3.55136 5.41196 3.0141 4.8747 3.0141 4.21196C3.0141 3.54922 3.55136 3.01196 4.2141 3.01196C4.87684 3.01196 5.4141 3.54922 5.4141 4.21196ZM4.2141 10.9881C4.87684 10.9881 5.4141 10.4509 5.4141 9.78813C5.4141 9.12539 4.87684 8.58813 4.2141 8.58813C3.55136 8.58813 3.0141 9.12539 3.0141 9.78813C3.0141 10.4509 3.55136 10.9881 4.2141 10.9881Z" fill="black"/>
</g>
<defs>
<clipPath id="clip0_1068_188465">
<rect width="14" height="14" fill="white"/>
</clipPath>
</defs>
</svg>
