<svg width="14" height="14" viewBox="0 0 14 14" fill="none" xmlns="http://www.w3.org/2000/svg">
<g clip-path="url(#clip0_1068_188456)">
<path fill-rule="evenodd" clip-rule="evenodd" d="M2.5 0C1.11929 0 0 1.11929 0 2.5V11.5C0 12.8807 1.11929 14 2.5 14H11.5C12.8807 14 14 12.8807 14 11.5V2.5C14 1.11929 12.8807 0 11.5 0H2.5ZM5.23545 3.57085C5.23545 4.23359 4.69819 4.77085 4.03545 4.77085C3.37271 4.77085 2.83545 4.23359 2.83545 3.57085C2.83545 2.90811 3.37271 2.37085 4.03545 2.37085C4.69819 2.37085 5.23545 2.90811 5.23545 3.57085ZM4.03545 11.6295C4.69819 11.6295 5.23545 11.0922 5.23545 10.4295C5.23545 9.76675 4.69819 9.22949 4.03545 9.22949C3.37271 9.22949 2.83545 9.76675 2.83545 10.4295C2.83545 11.0922 3.37271 11.6295 4.03545 11.6295ZM5.23545 7.00029C5.23545 7.66303 4.69819 8.20029 4.03545 8.20029C3.37271 8.20029 2.83545 7.66303 2.83545 7.00029C2.83545 6.33755 3.37271 5.80029 4.03545 5.80029C4.69819 5.80029 5.23545 6.33755 5.23545 7.00029ZM9.96453 4.77085C10.6273 4.77085 11.1645 4.23359 11.1645 3.57085C11.1645 2.90811 10.6273 2.37085 9.96453 2.37085C9.30178 2.37085 8.76453 2.90811 8.76453 3.57085C8.76453 4.23359 9.30178 4.77085 9.96453 4.77085ZM11.1645 10.4295C11.1645 11.0922 10.6273 11.6295 9.96453 11.6295C9.30178 11.6295 8.76453 11.0922 8.76453 10.4295C8.76453 9.76675 9.30178 9.22949 9.96453 9.22949C10.6273 9.22949 11.1645 9.76675 11.1645 10.4295ZM9.96453 8.20029C10.6273 8.20029 11.1645 7.66303 11.1645 7.00029C11.1645 6.33755 10.6273 5.80029 9.96453 5.80029C9.30178 5.80029 8.76453 6.33755 8.76453 7.00029C8.76453 7.66303 9.30178 8.20029 9.96453 8.20029Z" fill="black"/>
</g>
<defs>
<clipPath id="clip0_1068_188456">
<rect width="14" height="14" fill="white"/>
</clipPath>
</defs>
</svg>
