<svg width="14" height="14" viewBox="0 0 14 14" fill="none" xmlns="http://www.w3.org/2000/svg">
<g clip-path="url(#clip0_1068_188492)">
<path fill-rule="evenodd" clip-rule="evenodd" d="M0 2.5C0 1.11929 1.11929 0 2.5 0H11.5C12.8807 0 14 1.11929 14 2.5V11.5C14 12.8807 12.8807 14 11.5 14H2.5C1.11929 14 0 12.8807 0 11.5V2.5ZM9.78594 5.41196C10.4487 5.41196 10.9859 4.8747 10.9859 4.21196C10.9859 3.54922 10.4487 3.01196 9.78594 3.01196C9.1232 3.01196 8.58594 3.54922 8.58594 4.21196C8.58594 4.8747 9.1232 5.41196 9.78594 5.41196ZM10.9859 9.78813C10.9859 10.4509 10.4487 10.9881 9.78594 10.9881C9.1232 10.9881 8.58594 10.4509 8.58594 9.78813C8.58594 9.12539 9.1232 8.58813 9.78594 8.58813C10.4487 8.58813 10.9859 9.12539 10.9859 9.78813ZM6.99999 8.20212C7.66273 8.20212 8.19999 7.66487 8.19999 7.00212C8.19999 6.33938 7.66273 5.80212 6.99999 5.80212C6.33725 5.80212 5.79999 6.33938 5.79999 7.00212C5.79999 7.66487 6.33725 8.20212 6.99999 8.20212ZM5.4141 4.21196C5.4141 4.8747 4.87684 5.41196 4.2141 5.41196C3.55136 5.41196 3.0141 4.8747 3.0141 4.21196C3.0141 3.54922 3.55136 3.01196 4.2141 3.01196C4.87684 3.01196 5.4141 3.54922 5.4141 4.21196ZM4.2141 10.9881C4.87684 10.9881 5.4141 10.4509 5.4141 9.78813C5.4141 9.12539 4.87684 8.58813 4.2141 8.58813C3.55136 8.58813 3.0141 9.12539 3.0141 9.78813C3.0141 10.4509 3.55136 10.9881 4.2141 10.9881Z" fill="black"/>
</g>
<defs>
<clipPath id="clip0_1068_188492">
<rect width="14" height="14" fill="white"/>
</clipPath>
</defs>
</svg>
