<svg width="14" height="14" viewBox="0 0 14 14" fill="none" xmlns="http://www.w3.org/2000/svg">
<g clip-path="url(#clip0_1068_188447)">
<path fill-rule="evenodd" clip-rule="evenodd" d="M0 2.5C0 1.11929 1.11929 0 2.5 0H11.5C12.8807 0 14 1.11929 14 2.5V11.5C14 12.8807 12.8807 14 11.5 14H2.5C1.11929 14 0 12.8807 0 11.5V2.5ZM6.99999 8.20005C7.66273 8.20005 8.19999 7.66279 8.19999 7.00005C8.19999 6.33731 7.66273 5.80005 6.99999 5.80005C6.33725 5.80005 5.79999 6.33731 5.79999 7.00005C5.79999 7.66279 6.33725 8.20005 6.99999 8.20005Z" fill="black"/>
</g>
<defs>
<clipPath id="clip0_1068_188447">
<rect width="14" height="14" fill="white"/>
</clipPath>
</defs>
</svg>
