<svg width="14" height="14" viewBox="0 0 14 14" fill="none" xmlns="http://www.w3.org/2000/svg">
<g clip-path="url(#clip0_1068_188462)">
<path fill-rule="evenodd" clip-rule="evenodd" d="M13.4595 0.707023C12.9458 0.366597 12.3402 0.182683 11.7174 0.183597C10.8831 0.183597 10.083 0.515006 9.49313 1.10492C8.90321 1.69483 8.5718 2.49492 8.5718 3.32919V12.5458C8.5718 12.8934 8.70989 13.2267 8.95569 13.4725C9.20149 13.7183 9.53486 13.8564 9.88247 13.8564C10.2301 13.8564 10.5634 13.7183 10.8092 13.4725C11.055 13.2267 11.1931 12.8934 11.1931 12.5458V6.47478C11.3675 6.49075 11.543 6.49075 11.7174 6.47478C12.3402 6.47569 12.9458 6.29178 13.4595 5.95135C13.6973 5.79379 13.8144 5.51475 13.8144 5.2295V1.42887C13.8144 1.14363 13.6973 0.864588 13.4595 0.707023ZM0.538494 0.707054C1.05223 0.366628 1.65779 0.182714 2.28065 0.183628C3.11491 0.183628 3.915 0.515037 4.50492 1.10495C5.09483 1.69486 5.42624 2.49495 5.42624 3.32922V12.5458C5.42624 12.8934 5.28815 13.2268 5.04235 13.4726C4.79656 13.7184 4.46319 13.8565 4.11558 13.8565C3.76797 13.8565 3.4346 13.7184 3.1888 13.4726C2.943 13.2268 2.80491 12.8934 2.80491 12.5458V6.47481C2.63053 6.49078 2.45504 6.49078 2.28065 6.47481C1.65779 6.47572 1.05223 6.29181 0.538494 5.95138C0.300713 5.79382 0.183594 5.51478 0.183594 5.22953V1.4289C0.183594 1.14366 0.300713 0.864618 0.538494 0.707054Z" fill="black"/>
</g>
<defs>
<clipPath id="clip0_1068_188462">
<rect width="14" height="14" fill="white"/>
</clipPath>
</defs>
</svg>
