<svg width="14" height="14" viewBox="0 0 14 14" fill="none" xmlns="http://www.w3.org/2000/svg">
<g clip-path="url(#clip0_1068_188511)">
<path fill-rule="evenodd" clip-rule="evenodd" d="M2.04791 0C1.26218 0 0.722656 0.696666 0.722656 1.42857V9.67611C0.722656 10.1872 0.979004 10.6866 1.43369 10.9424L6.75431 13.9358C6.90653 14.0214 7.09241 14.0214 7.24463 13.9358L12.5652 10.9424C13.0199 10.6866 13.2763 10.1872 13.2763 9.67611V1.42857C13.2763 0.696666 12.7367 0 11.951 0H2.04791ZM4.98306 2.7074C4.98306 2.36222 5.26288 2.0824 5.60806 2.0824H8.39378C8.73895 2.0824 9.01878 2.36222 9.01878 2.7074C9.01878 3.05258 8.73895 3.3324 8.39378 3.3324H6.23306V4.40383H8.39378C8.73895 4.40383 9.01878 4.68365 9.01878 5.02883C9.01878 5.374 8.73895 5.65383 8.39378 5.65383H6.23306V6.72525H8.39378C8.73895 6.72525 9.01878 7.00508 9.01878 7.35025C9.01878 7.69543 8.73895 7.97525 8.39378 7.97525H5.60806C5.26288 7.97525 4.98306 7.69543 4.98306 7.35025V5.02883V2.7074ZM5.44526 9.68778C5.14318 9.52076 4.7629 9.63025 4.59589 9.93233C4.42887 10.2344 4.53836 10.6147 4.84044 10.7817L6.69758 11.8085C6.88577 11.9126 7.11422 11.9126 7.30241 11.8085L9.15955 10.7817C9.46163 10.6147 9.57112 10.2344 9.4041 9.93233C9.23708 9.63025 8.8568 9.52076 8.55472 9.68778L6.99999 10.5474L5.44526 9.68778Z" fill="black"/>
</g>
<defs>
<clipPath id="clip0_1068_188511">
<rect width="14" height="14" fill="white"/>
</clipPath>
</defs>
</svg>
