<svg width="14" height="14" viewBox="0 0 14 14" fill="none" xmlns="http://www.w3.org/2000/svg">
<g clip-path="url(#clip0_1068_188477)">
<path fill-rule="evenodd" clip-rule="evenodd" d="M3.46869 2.25617V2.28024V3.53087C3.46869 3.57658 3.47216 3.62147 3.47886 3.6653C3.48172 3.68401 3.48516 3.70252 3.48918 3.72082C3.51387 3.83342 3.56007 3.93797 3.62324 4.02995C3.78234 4.26165 4.04912 4.4136 4.35142 4.4136H5.09953L8.90053 4.41356L9.64778 4.4136C9.95008 4.4136 10.2169 4.26165 10.376 4.02995C10.4735 3.88798 10.5305 3.71607 10.5305 3.53083V1.28716C10.5305 1.27556 10.5297 1.26421 10.5283 1.25314C10.526 1.23616 10.5221 1.21985 10.5167 1.20434C10.4693 1.06818 10.3086 0.993639 10.1687 1.06359L9.72149 1.28719L9.30203 1.49692L9.28051 1.50768L8.76503 1.76542L7.17635 0.176739C7.07872 0.0791076 6.92043 0.0791081 6.8228 0.176739L5.23412 1.76542L4.71869 1.5077L4.69717 1.49694L4.2777 1.2872L3.83049 1.06359C3.66427 0.980481 3.46869 1.10135 3.46869 1.2872V1.78719V2.25617ZM2.2795 4.03862C1.82041 4.09089 1.39448 4.37765 1.21428 4.84641C0.865812 5.75293 0.558986 6.9731 0.341987 8.11499C0.126011 9.2515 -0.0102728 10.3592 0.000606675 11.0381C0.0128946 11.8049 0.130229 12.5157 0.510743 13.0397C0.918876 13.6018 1.5528 13.8516 2.35701 13.8516C2.43469 13.8516 2.5113 13.8335 2.58076 13.7987C3.18548 13.4961 3.69874 12.9153 4.1277 12.3838C4.25711 12.2234 4.37931 12.0672 4.4966 11.9172C4.74635 11.5978 4.9739 11.3068 5.20106 11.0658H8.7906C8.99576 11.2971 9.20292 11.5768 9.43147 11.8854C9.54801 12.0427 9.67015 12.2077 9.80039 12.3775C10.2094 12.9108 10.7077 13.5026 11.2996 13.7987C11.369 13.8335 11.4456 13.8516 11.5233 13.8516C12.3257 13.8516 12.9777 13.604 13.4149 13.0587C13.8331 12.5372 13.9868 11.8246 13.9994 11.0381C14.0102 10.3644 13.8761 9.26866 13.6631 8.142C13.4491 7.00973 13.1464 5.79825 12.8022 4.88972C12.6193 4.40697 12.188 4.10852 11.7185 4.04344C11.489 4.97374 10.649 5.6636 9.64778 5.6636H4.35142C3.34851 5.6636 2.50729 4.97136 2.2795 4.03862ZM5.60836 8.61213C5.60836 9.33382 5.02331 9.91887 4.30162 9.91887C3.57992 9.91887 2.99487 9.33382 2.99487 8.61213C2.99487 7.89043 3.57992 7.30538 4.30162 7.30538C5.02331 7.30538 5.60836 7.89043 5.60836 8.61213ZM9.69841 9.91887C10.4201 9.91887 11.0052 9.33382 11.0052 8.61213C11.0052 7.89043 10.4201 7.30538 9.69841 7.30538C8.97671 7.30538 8.39166 7.89043 8.39166 8.61213C8.39166 9.33382 8.97671 9.91887 9.69841 9.91887Z" fill="black"/>
</g>
<defs>
<clipPath id="clip0_1068_188477">
<rect width="14" height="14" fill="white"/>
</clipPath>
</defs>
</svg>
