<svg width="14" height="14" viewBox="0 0 14 14" fill="none" xmlns="http://www.w3.org/2000/svg">
<g clip-path="url(#clip0_1068_188535)">
<path fill-rule="evenodd" clip-rule="evenodd" d="M8.33344 1.47237C8.25278 1.39219 8.19073 1.29628 8.15395 1.19495C8.11716 1.09362 8.10705 0.990701 8.12469 0.897247C8.1375 0.800868 8.17789 0.716342 8.24154 0.65269C8.30519 0.589038 8.38971 0.548651 8.48609 0.535837L13.0873 0.106967C13.1763 0.0979022 13.2719 0.112657 13.365 0.149869C13.4582 0.187081 13.546 0.245552 13.6203 0.319883C13.6946 0.394215 13.7531 0.482013 13.7903 0.575174C13.8275 0.668335 13.8423 0.763857 13.8332 0.852923L13.417 5.46673C13.4042 5.56311 13.3638 5.64764 13.3001 5.71129C13.2365 5.77494 13.152 5.81533 13.0556 5.82814C12.9646 5.84534 12.8646 5.83625 12.7658 5.80179C12.667 5.76734 12.5729 5.70876 12.4931 5.63202L8.33344 1.47237ZM7.27864 8.58501L7.10778 8.75697C6.57631 9.29187 6.57479 10.155 7.10437 10.6918L7.53312 11.1264C7.77556 11.3721 7.77288 11.7678 7.52716 12.0102C7.28145 12.2526 6.88573 12.25 6.6433 12.0043L6.21455 11.5697C5.61567 10.9627 5.37257 10.137 5.48476 9.35252L1.2935 13.5438C1.04942 13.7879 0.653699 13.7879 0.409621 13.5438C0.165543 13.2997 0.165543 12.904 0.409621 12.6599L5.88152 7.188L4.5407 5.84708C4.3265 5.63288 4.35047 5.27893 4.59158 5.09555L7.77111 2.67743L11.275 6.18131L8.85686 9.36083C8.67348 9.60195 8.31954 9.62591 8.10534 9.41171L7.27864 8.58501ZM9.58179 10.1358C9.82587 9.89171 10.2216 9.89171 10.4657 10.1358L10.917 10.5871C11.161 10.8311 11.161 11.2269 10.917 11.4709C10.6729 11.715 10.2772 11.715 10.0331 11.4709L9.58179 11.0197C9.33772 10.7756 9.33772 10.3799 9.58179 10.1358ZM12.3824 10.1358C12.6265 9.89171 13.0222 9.89171 13.2663 10.1358C13.5104 10.3799 13.5104 10.7756 13.2663 11.0197L12.815 11.4709C12.5709 11.715 12.1752 11.715 11.9311 11.4709C11.687 11.2269 11.687 10.8311 11.9311 10.5871L12.3824 10.1358ZM9.58179 13.5438C9.82587 13.7879 10.2216 13.7879 10.4657 13.5438L10.917 13.0925C11.161 12.8484 11.161 12.4527 10.917 12.2086C10.6729 11.9645 10.2772 11.9645 10.0331 12.2086L9.58179 12.6599C9.33772 12.904 9.33772 13.2997 9.58179 13.5438ZM12.3824 13.5438C12.6265 13.7879 13.0222 13.7879 13.2663 13.5438C13.5104 13.2997 13.5104 12.904 13.2663 12.6599L12.815 12.2086C12.5709 11.9645 12.1752 11.9645 11.9311 12.2086C11.687 12.4527 11.687 12.8484 11.9311 13.0925L12.3824 13.5438Z" fill="black"/>
</g>
<defs>
<clipPath id="clip0_1068_188535">
<rect width="14" height="14" fill="white"/>
</clipPath>
</defs>
</svg>
