<svg width="14" height="14" viewBox="0 0 14 14" fill="none" xmlns="http://www.w3.org/2000/svg">
<path fill-rule="evenodd" clip-rule="evenodd" d="M11.557 14C12.1093 14 12.557 13.5523 12.557 13V1C12.557 0.447715 12.1093 0 11.557 0H2.44141C1.88912 0 1.44141 0.447715 1.44141 1V13C1.44141 13.5523 1.88912 14 2.44141 14H11.557ZM9.41148 7.60837C9.96376 7.60837 10.4115 7.16065 10.4115 6.60837V2.92622C10.4115 2.37394 9.96376 1.92622 9.41148 1.92622H4.5879C4.03562 1.92622 3.5879 2.37394 3.5879 2.92622V6.60837C3.5879 7.16065 4.03562 7.60837 4.5879 7.60837H9.41148ZM4.2738 11.5444C4.2738 11.8896 4.55363 12.1694 4.8988 12.1694C5.24398 12.1694 5.5238 11.8896 5.5238 11.5444V11.2097H5.85885C6.20402 11.2097 6.48385 10.9299 6.48385 10.5847C6.48385 10.2395 6.20402 9.95972 5.85885 9.95972H5.5238V9.62492C5.5238 9.27974 5.24398 8.99992 4.8988 8.99992C4.55363 8.99992 4.2738 9.27974 4.2738 9.62492V9.95972H3.93933C3.59415 9.95972 3.31433 10.2395 3.31433 10.5847C3.31433 10.9299 3.59415 11.2097 3.93933 11.2097H4.2738V11.5444ZM9.49939 11.4708C10.0517 11.4708 10.4994 11.0231 10.4994 10.4708C10.4994 9.9185 10.0517 9.47079 9.49939 9.47079C8.94711 9.47079 8.49939 9.9185 8.49939 10.4708C8.49939 11.0231 8.94711 11.4708 9.49939 11.4708Z" fill="black"/>
</svg>
