<svg width="14" height="14" viewBox="0 0 14 14" fill="none" xmlns="http://www.w3.org/2000/svg">
<g clip-path="url(#clip0_1068_188514)">
<path fill-rule="evenodd" clip-rule="evenodd" d="M9.72361 0.0528087C9.52139 -0.0482977 9.27649 -0.00113446 9.1263 0.16784L5.1263 4.66784C4.99548 4.815 4.96322 5.02523 5.04388 5.20485C5.12454 5.38447 5.3031 5.50002 5.5 5.50002C6.63086 5.50002 8.0256 5.95797 9.16968 6.83444C9.83659 7.34535 10.4065 7.98874 10.79 8.75275H13.9337C13.6909 5.65253 12.8169 3.57404 11.916 2.22267C11.3872 1.42948 10.854 0.894155 10.4451 0.553412C10.2277 0.372281 9.99707 0.198044 9.7464 0.0646304L9.72361 0.0528087ZM1.5 10H8.42761C8.44695 10.0018 8.46655 10.0027 8.48636 10.0027H13.9949C13.9983 10.166 14 10.3318 14 10.5V12.5C14 12.8978 13.842 13.2794 13.5607 13.5607C13.2794 13.842 12.8978 14 12.5 14H1.5C1.10217 14 0.720644 13.842 0.43934 13.5607C0.158035 13.2794 0 12.8978 0 12.5V11.5C0 11.1022 0.158035 10.7207 0.43934 10.4394C0.720644 10.1581 1.10217 10 1.5 10ZM0.986328 7.25C0.572115 7.25 0.236328 7.58579 0.236328 8C0.236328 8.41421 0.572114 8.75 0.986328 8.75H6.49998C6.91419 8.75 7.24998 8.41421 7.24998 8C7.24998 7.58579 6.91419 7.25 6.49998 7.25H0.986328Z" fill="black"/>
</g>
<defs>
<clipPath id="clip0_1068_188514">
<rect width="14" height="14" fill="white"/>
</clipPath>
</defs>
</svg>
