<svg width="14" height="14" viewBox="0 0 14 14" fill="none" xmlns="http://www.w3.org/2000/svg">
<g clip-path="url(#clip0_1068_188480)">
<path fill-rule="evenodd" clip-rule="evenodd" d="M12.7818 0.230301C12.5975 0.194095 12.4074 0.200659 12.2261 0.249486L12.2206 0.251L4.58713 2.36927C4.32906 2.43956 4.10098 2.59225 3.93765 2.80414C3.77359 3.01697 3.68393 3.27776 3.68242 3.54648L3.68241 3.55069V3.76768V5.50551V9.0391C3.38266 8.91031 3.05239 8.83899 2.70546 8.83899C1.33748 8.83899 0.228516 9.94796 0.228516 11.3159C0.228516 12.6839 1.33748 13.7929 2.70546 13.7929C4.07344 13.7929 5.18241 12.6839 5.18241 11.3159L5.18239 11.306L5.18241 11.3008V6.07558L12.2724 4.10613V6.56986C11.9727 6.44107 11.6424 6.36975 11.2955 6.36975C9.92748 6.36975 8.81851 7.47872 8.81851 8.8467C8.81851 10.2147 9.92748 11.3236 11.2955 11.3236C12.6129 11.3236 13.6901 10.2951 13.7679 8.99728C13.7709 8.97015 13.7724 8.94258 13.7724 8.91466V8.85103V8.8467V8.84237V3.1194V1.43182V1.42972V1.40247C13.7724 1.36396 13.7695 1.32582 13.7637 1.28833C13.747 1.14891 13.7064 1.01303 13.6434 0.886749C13.5596 0.7187 13.4383 0.572131 13.2889 0.458326C13.1396 0.344518 12.9661 0.266508 12.7818 0.230301Z" fill="black"/>
</g>
<defs>
<clipPath id="clip0_1068_188480">
<rect width="14" height="14" fill="white"/>
</clipPath>
</defs>
</svg>
