<svg width="14" height="14" viewBox="0 0 14 14" fill="none" xmlns="http://www.w3.org/2000/svg">
<g clip-path="url(#clip0_1068_188498)">
<path fill-rule="evenodd" clip-rule="evenodd" d="M0.21967 1.28033C-0.0732233 0.987437 -0.0732233 0.512563 0.21967 0.21967C0.512563 -0.0732233 0.987437 -0.0732233 1.28033 0.21967L5.39917 4.33851V1.18457C5.39917 0.632286 5.84689 0.18457 6.39917 0.18457C7.2385 0.18457 8.07093 0.339712 8.84945 0.642465C9.62803 0.945243 10.3394 1.39053 10.9414 1.95577C11.5436 2.52113 12.0249 3.19576 12.3546 3.94291C12.6843 4.69025 12.8549 5.49367 12.8549 6.30672C12.8549 6.85901 12.4072 7.30672 11.8549 7.30672C11.3027 7.30672 10.8549 6.85901 10.8549 6.30672C10.8549 5.77447 10.7434 5.24577 10.5247 4.75021C10.306 4.25447 9.98357 3.79977 9.57252 3.41386C9.16134 3.02782 8.66983 2.71852 8.12456 2.50648C7.8895 2.41506 7.64679 2.34265 7.39917 2.28983V6.33851L13.7803 12.7197C14.0732 13.0126 14.0732 13.4874 13.7803 13.7803C13.4874 14.0732 13.0126 14.0732 12.7197 13.7803L0.21967 1.28033ZM4.22217 7.51868C4.40345 7.51868 4.58115 7.53403 4.75404 7.56351L7.31905 10.1285C7.34853 10.3014 7.36389 10.4791 7.36389 10.6604C7.36389 12.3955 5.95729 13.8021 4.22217 13.8021C2.48704 13.8021 1.08044 12.3955 1.08044 10.6604C1.08044 8.92527 2.48704 7.51868 4.22217 7.51868Z" fill="black"/>
</g>
<defs>
<clipPath id="clip0_1068_188498">
<rect width="14" height="14" fill="white"/>
</clipPath>
</defs>
</svg>
