<svg width="14" height="14" viewBox="0 0 14 14" fill="none" xmlns="http://www.w3.org/2000/svg">
<path fill-rule="evenodd" clip-rule="evenodd" d="M6.44412 0.126343C5.89184 0.126343 5.44412 0.574058 5.44412 1.12634V7.71515C5.07505 7.56623 4.6718 7.48425 4.24939 7.48425C2.48501 7.48425 1.05469 8.91457 1.05469 10.679C1.05469 12.4433 2.48501 13.8737 4.24939 13.8737C6.01378 13.8737 7.4441 12.4433 7.4441 10.679C7.4441 10.6732 7.44408 10.6675 7.44405 10.6618C7.4441 10.6577 7.44412 10.6537 7.44412 10.6496V2.23056C7.69757 2.28406 7.94596 2.35789 8.18644 2.45141C8.73707 2.66554 9.23346 2.9779 9.64874 3.36779C10.0639 3.75756 10.3896 4.21684 10.6106 4.71762C10.8314 5.21821 10.9441 5.75232 10.9441 6.29002C10.9441 6.8423 11.3918 7.29002 11.9441 7.29002C12.4964 7.29002 12.9441 6.8423 12.9441 6.29002C12.9441 5.47152 12.7723 4.66269 12.4404 3.91031C12.1085 3.15812 11.624 2.47892 11.0177 1.9097C10.4115 1.34061 9.69527 0.892263 8.91132 0.587398C8.12744 0.282559 7.28926 0.126343 6.44412 0.126343Z" fill="black"/>
</svg>
