<svg width="14" height="14" viewBox="0 0 14 14" fill="none" xmlns="http://www.w3.org/2000/svg">
<g clip-path="url(#clip0_1068_188523)">
<path fill-rule="evenodd" clip-rule="evenodd" d="M0.21967 1.28033C-0.0732233 0.987437 -0.0732233 0.512563 0.21967 0.21967C0.512563 -0.0732233 0.987437 -0.0732233 1.28033 0.21967L3.89853 2.83787C4.05725 2.65103 4.26902 2.51612 4.50637 2.45147L12.0832 0.348935C12.263 0.300505 12.4516 0.293995 12.6344 0.329907C12.8171 0.365818 12.9892 0.443194 13.1374 0.556076C13.2855 0.668955 13.4058 0.814331 13.4889 0.981012C13.5721 1.14769 13.6158 1.33123 13.6169 1.51748V1.52165V8.70246C13.6209 8.75984 13.6229 8.81776 13.6229 8.87616C13.6229 9.87278 13.031 10.7311 12.1795 11.1188L13.7803 12.7197C14.0732 13.0126 14.0732 13.4874 13.7803 13.7803C13.4874 14.0732 13.0126 14.0732 12.7197 13.7803L0.21967 1.28033ZM8.91737 7.85671C9.30506 7.00522 10.1634 6.41327 11.16 6.41327C11.5041 6.41327 11.8317 6.48382 12.1291 6.61124V4.15295L6.73148 5.67082L8.91737 7.85671ZM3.60901 9.06037V6.2429L5.0968 7.7307V11.1506C5.10085 11.2083 5.10291 11.2666 5.10291 11.3253C5.10291 12.6855 4.00023 13.7882 2.64002 13.7882C1.2798 13.7882 0.177124 12.6855 0.177124 11.3253C0.177124 9.9651 1.2798 8.86243 2.64002 8.86243C2.98405 8.86243 3.3116 8.93297 3.60901 9.06037Z" fill="black"/>
</g>
<defs>
<clipPath id="clip0_1068_188523">
<rect width="14" height="14" fill="white"/>
</clipPath>
</defs>
</svg>
