<svg width="14" height="14" viewBox="0 0 14 14" fill="none" xmlns="http://www.w3.org/2000/svg">
<g clip-path="url(#clip0_1068_188508)">
<path fill-rule="evenodd" clip-rule="evenodd" d="M7.75 0.851074C7.75 0.436861 7.41421 0.101074 7 0.101074C6.58579 0.101074 6.25 0.436861 6.25 0.851074V13.149C6.25 13.5632 6.58579 13.899 7 13.899C7.41421 13.899 7.75 13.5632 7.75 13.149V0.851074ZM4 2.46606C4.41421 2.46606 4.75 2.80185 4.75 3.21606V10.784C4.75 11.1983 4.41421 11.534 4 11.534C3.58579 11.534 3.25 11.1983 3.25 10.784V3.21606C3.25 2.80185 3.58579 2.46606 4 2.46606ZM1 4.83105C1.41421 4.83105 1.75 5.16684 1.75 5.58105V8.41905C1.75 8.83326 1.41421 9.16905 1 9.16905C0.585786 9.16905 0.25 8.83326 0.25 8.41905V5.58105C0.25 5.16684 0.585786 4.83105 1 4.83105ZM10 2.46606C10.4142 2.46606 10.75 2.80185 10.75 3.21606V10.784C10.75 11.1983 10.4142 11.534 10 11.534C9.58579 11.534 9.25 11.1983 9.25 10.784V3.21606C9.25 2.80185 9.58579 2.46606 10 2.46606ZM13.75 5.58105C13.75 5.16684 13.4142 4.83105 13 4.83105C12.5858 4.83105 12.25 5.16684 12.25 5.58105V8.41905C12.25 8.83326 12.5858 9.16905 13 9.16905C13.4142 9.16905 13.75 8.83326 13.75 8.41905V5.58105Z" fill="black"/>
</g>
<defs>
<clipPath id="clip0_1068_188508">
<rect width="14" height="14" fill="white"/>
</clipPath>
</defs>
</svg>
