<svg width="14" height="14" viewBox="0 0 14 14" fill="none" xmlns="http://www.w3.org/2000/svg">
<g clip-path="url(#clip0_1068_188504)">
<path fill-rule="evenodd" clip-rule="evenodd" d="M10.4147 14C12.3477 14 13.9147 12.433 13.9147 10.5V3.50049C13.9147 1.56749 12.3477 0.000488281 10.4147 0.000488281H8.24219C7.96604 0.000488281 7.74219 0.224346 7.74219 0.500488V13.5C7.74219 13.7762 7.96604 14 8.24219 14H10.4147ZM10.687 10.0882C11.5284 10.0882 12.2105 9.40614 12.2105 8.56477C12.2105 7.72341 11.5284 7.04135 10.687 7.04135C9.84563 7.04135 9.16357 7.72341 9.16357 8.56477C9.16357 9.40614 9.84563 10.0882 10.687 10.0882Z" fill="black"/>
<path fill-rule="evenodd" clip-rule="evenodd" d="M3.52735 0.000488281C1.59435 0.000488281 0.0273438 1.56749 0.0273438 3.50049V10.5C0.0273438 12.433 1.59435 14 3.52735 14H5.69987C5.97601 14 6.19987 13.7762 6.19987 13.5V0.500489C6.19987 0.224346 5.97601 0.000488281 5.69987 0.000488281H3.52735ZM3.25505 3.14685C2.41369 3.14685 1.73163 3.82891 1.73163 4.67027C1.73163 5.51164 2.41369 6.1937 3.25505 6.1937C4.09641 6.1937 4.77847 5.51164 4.77847 4.67027C4.77847 3.82891 4.09641 3.14685 3.25505 3.14685Z" fill="black"/>
</g>
<defs>
<clipPath id="clip0_1068_188504">
<rect width="14" height="14" fill="white"/>
</clipPath>
</defs>
</svg>
