<svg width="14" height="14" viewBox="0 0 14 14" fill="none" xmlns="http://www.w3.org/2000/svg">
<g clip-path="url(#clip0_1068_188529)">
<path fill-rule="evenodd" clip-rule="evenodd" d="M5 6C6.65685 6 8 4.65685 8 3C8 1.34315 6.65685 0 5 0C3.34315 0 2 1.34315 2 3C2 4.65685 3.34315 6 5 6ZM10.8521 12.0945L10.9546 12.4019C11.1323 12.9354 11.6315 13.2953 12.1937 13.2953C12.9722 13.2953 13.5778 12.6184 13.4919 11.8445L13.2901 10.0283C13.155 8.81215 12.1274 7.89209 10.9041 7.89209H7.99121C6.76791 7.89209 5.74024 8.81215 5.60515 10.0283L5.40341 11.8445C5.31744 12.6184 5.92309 13.2953 6.70158 13.2953C7.26379 13.2953 7.76292 12.9354 7.94071 12.4019L8.04313 12.0945C8.1626 11.736 8.49803 11.4942 8.87584 11.4942H10.0194C10.3972 11.4942 10.7327 11.736 10.8521 12.0945ZM4.36281 9.8903C4.49479 8.7022 5.18715 7.69977 6.15887 7.13498C5.78694 7.04672 5.39893 7 5 7C2.23858 7 0 9.23858 0 12C0 12.2761 0.223858 12.5 0.5 12.5H4.19606C4.1444 12.2461 4.13076 11.9793 4.16107 11.7065L4.36281 9.8903Z" fill="black"/>
</g>
<defs>
<clipPath id="clip0_1068_188529">
<rect width="14" height="14" fill="white"/>
</clipPath>
</defs>
</svg>
