<svg width="14" height="14" viewBox="0 0 14 14" fill="none" xmlns="http://www.w3.org/2000/svg">
<path fill-rule="evenodd" clip-rule="evenodd" d="M0.375 7C0.375 3.34111 3.34111 0.375 7 0.375C9.38452 0.375 11.4743 1.6351 12.6405 3.52334C12.7102 3.63624 12.7322 3.77222 12.7016 3.90134C12.671 4.03045 12.5903 4.14212 12.4774 4.21173L7.95302 7L12.4774 9.78827C12.5903 9.85788 12.671 9.96955 12.7016 10.0987C12.7322 10.2278 12.7102 10.3638 12.6405 10.4767C11.4743 12.3649 9.38452 13.625 7 13.625C3.34111 13.625 0.375 10.6589 0.375 7ZM6 5C6.55228 5 7 4.55228 7 4C7 3.44772 6.55228 3 6 3C5.44772 3 5 3.44772 5 4C5 4.55228 5.44772 5 6 5Z" fill="black"/>
</svg>
