<svg width="14" height="14" viewBox="0 0 14 14" fill="none" xmlns="http://www.w3.org/2000/svg">
<g clip-path="url(#clip0_1068_188520)">
<path fill-rule="evenodd" clip-rule="evenodd" d="M6.87539 0.201461C7.26677 0.337089 7.4741 0.764312 7.33847 1.15569C7.05033 1.98719 7.08783 2.88733 7.44573 3.69655C7.61327 4.07537 7.442 4.51828 7.06318 4.68582C6.68437 4.85337 6.24145 4.6821 6.07391 4.30328C5.56308 3.14828 5.50832 1.85587 5.92116 0.664541C6.05679 0.273161 6.48402 0.0658332 6.87539 0.201461ZM4.52288 2.8832C4.57992 2.47294 4.29357 2.09411 3.8833 2.03707C3.47303 1.98004 3.09421 2.26638 3.03717 2.67665C2.94143 3.36527 3.10071 4.06514 3.48503 4.64451C3.71399 4.98969 4.17943 5.08389 4.5246 4.85493C4.86978 4.62596 4.96399 4.16052 4.73502 3.81535C4.55298 3.54091 4.47753 3.20939 4.52288 2.8832ZM10.4076 4.29013C10.1343 4.21981 9.84767 4.21964 9.57428 4.28962C9.30089 4.35961 9.04959 4.49749 8.84369 4.69047L8.83206 4.70173L4.92076 8.61303L4.91582 8.61805C4.72089 8.81854 4.57954 9.06486 4.50477 9.33432C4.43001 9.60377 4.42424 9.88771 4.48799 10.16C4.55174 10.4322 4.68297 10.6841 4.86958 10.8924C5.05515 11.0994 5.28955 11.2568 5.55142 11.3501L11.7834 13.6731L11.791 13.6759C12.0786 13.7778 12.3889 13.7974 12.687 13.7325C12.9851 13.6676 13.2592 13.5208 13.4784 13.3086C13.6976 13.0964 13.8532 12.8272 13.9277 12.5314C14.0022 12.2355 13.9926 11.9248 13.9001 11.634C13.8977 11.6265 13.8951 11.6191 13.8924 11.6117L11.5806 5.38484C11.4928 5.12071 11.3406 4.88253 11.1377 4.69187C10.932 4.49863 10.6809 4.36045 10.4076 4.29013ZM3.27909 7.90993C2.96374 7.83832 2.63304 7.88588 2.35065 8.04347C1.98894 8.24532 1.53209 8.11573 1.33025 7.75402C1.1284 7.39232 1.25799 6.93547 1.61969 6.73362C2.22543 6.39559 2.9348 6.29356 3.61125 6.44716C4.01518 6.53889 4.26827 6.94069 4.17655 7.34462C4.08483 7.74855 3.68303 8.00165 3.27909 7.90993ZM1.06446 3.4999C0.512168 3.4999 0.0644531 3.94761 0.0644531 4.4999C0.0644531 5.05218 0.512168 5.4999 1.06446 5.4999C1.61674 5.4999 2.06446 5.05218 2.06446 4.4999C2.06446 3.94761 1.61674 3.4999 1.06446 3.4999Z" fill="black"/>
</g>
<defs>
<clipPath id="clip0_1068_188520">
<rect width="14" height="14" fill="white"/>
</clipPath>
</defs>
</svg>
