<svg width="14" height="14" viewBox="0 0 14 14" fill="none" xmlns="http://www.w3.org/2000/svg">
<g clip-path="url(#clip0_1068_188538)">
<path fill-rule="evenodd" clip-rule="evenodd" d="M5.18345 0.75018C5.52332 0.742095 5.85595 0.849709 6.12675 1.05551C6.39945 1.26277 6.59301 1.55711 6.67524 1.8896L6.89039 2.75018H12.5C12.8978 2.75018 13.2794 2.90822 13.5607 3.18952C13.842 3.47082 14 3.85236 14 4.25018V7.22548C13.919 7.13966 13.8344 7.05683 13.7465 6.97722C12.8568 6.17158 11.689 5.74856 10.5079 5.74856C9.97744 5.74856 9.46873 5.95927 9.09366 6.33434C8.71859 6.70942 8.50787 7.21813 8.50787 7.74856V9.60121C7.42483 10.0297 6.65875 11.0862 6.65875 12.3217C6.65875 12.6462 6.71162 12.9585 6.80922 13.2502H1.5C1.10217 13.2502 0.720644 13.0921 0.43934 12.8108C0.158035 12.5295 0 12.148 0 11.7502V2.25018C0 1.85236 0.158035 1.47082 0.43934 1.18952C0.720644 0.908216 1.10218 0.75018 1.5 0.75018H5.18345ZM9.97754 7.21823C10.1182 7.07758 10.309 6.99856 10.5079 6.99856C11.3953 6.99856 12.2595 7.31708 12.9075 7.90381C13.5579 8.49277 13.9395 9.30846 13.9395 10.1768C13.9395 10.591 13.6038 10.9268 13.1895 10.9268C12.7753 10.9268 12.4395 10.591 12.4395 10.1768C12.4395 9.75706 12.2561 9.33751 11.9007 9.01571C11.7185 8.85077 11.4996 8.71975 11.2579 8.63085V12.3125V12.3217C11.2579 13.2465 10.5082 13.9962 9.58336 13.9962C8.65853 13.9962 7.90881 13.2465 7.90881 12.3217C7.90881 11.3969 8.65853 10.6471 9.58336 10.6471C9.64229 10.6471 9.70051 10.6502 9.75787 10.6561V7.74856C9.75787 7.54965 9.83689 7.35888 9.97754 7.21823Z" fill="black"/>
</g>
<defs>
<clipPath id="clip0_1068_188538">
<rect width="14" height="14" fill="white"/>
</clipPath>
</defs>
</svg>
