<svg width="14" height="14" viewBox="0 0 14 14" fill="none" xmlns="http://www.w3.org/2000/svg">
<g clip-path="url(#clip0_1068_188526)">
<path fill-rule="evenodd" clip-rule="evenodd" d="M1.49093 0.029541C0.676143 0.029541 0.015625 0.690059 0.015625 1.50485V9.79496C0.015625 10.6098 0.676143 11.2703 1.49093 11.2703H9.78104C10.5959 11.2703 11.2564 10.6098 11.2564 9.79496V1.50485C11.2564 0.690059 10.5959 0.029541 9.78104 0.029541H1.49093ZM3.78674 7.68954V3.61027C3.78709 3.54202 3.80549 3.47508 3.84005 3.41622C3.87462 3.35737 3.92413 3.3087 3.98356 3.27515C4.043 3.24159 4.11025 3.22435 4.1785 3.22516C4.24675 3.22598 4.31357 3.24482 4.37219 3.27978L7.866 5.30997C7.92483 5.34396 7.97367 5.39283 8.00763 5.45167C8.04159 5.51051 8.05947 5.57725 8.05947 5.64519C8.05947 5.71312 8.04159 5.77986 8.00763 5.8387C7.97367 5.89755 7.92483 5.94641 7.866 5.9804L4.37219 8.02004C4.31357 8.055 4.24675 8.07384 4.1785 8.07465C4.11025 8.07546 4.043 8.05822 3.98356 8.02467C3.92413 7.99111 3.87462 7.94244 3.84005 7.88359C3.80549 7.82474 3.78709 7.75779 3.78674 7.68954ZM13.9861 3.52954C13.9861 3.11533 13.6503 2.77954 13.2361 2.77954C12.8219 2.77954 12.4861 3.11533 12.4861 3.52954V12.2779C12.4861 12.3368 12.4627 12.3933 12.421 12.4349C12.3794 12.4766 12.3229 12.4999 12.264 12.4999H3.51562C3.10141 12.4999 2.76562 12.8357 2.76562 13.2499C2.76562 13.6642 3.10141 13.9999 3.51562 13.9999H12.264C12.7207 13.9999 13.1588 13.8185 13.4817 13.4956C13.8046 13.1726 13.9861 12.7346 13.9861 12.2779V3.52954Z" fill="black"/>
</g>
<defs>
<clipPath id="clip0_1068_188526">
<rect width="14" height="14" fill="white"/>
</clipPath>
</defs>
</svg>
