<svg width="14" height="14" viewBox="0 0 14 14" fill="none" xmlns="http://www.w3.org/2000/svg">
<g clip-path="url(#clip0_1068_188544)">
<path fill-rule="evenodd" clip-rule="evenodd" d="M0.03125 1.92371C0.03125 1.37142 0.478965 0.923706 1.03125 0.923706H9.74198C10.2942 0.923706 10.742 1.37142 10.742 1.92371V3.03802H4.2583C3.01566 3.03802 2.0083 4.04538 2.0083 5.28802V9.712H1.03125C0.478966 9.712 0.03125 9.26429 0.03125 8.712V1.92371ZM3.2583 5.28802C3.2583 4.73574 3.70601 4.28802 4.2583 4.28802H12.969C13.5213 4.28802 13.969 4.73574 13.969 5.28802V12.0763C13.969 12.6286 13.5213 13.0763 12.969 13.0763H4.2583C3.70602 13.0763 3.2583 12.6286 3.2583 12.0763V5.28802ZM6.93164 6.88082C6.93164 6.4881 7.36361 6.24868 7.69664 6.45682L10.5787 8.25813C10.892 8.45397 10.892 8.9103 10.5787 9.10613L7.69664 10.9074C7.36361 11.1156 6.93164 10.8762 6.93164 10.4834V6.88082Z" fill="black"/>
</g>
<defs>
<clipPath id="clip0_1068_188544">
<rect width="14" height="14" fill="white"/>
</clipPath>
</defs>
</svg>
