<svg width="14" height="14" viewBox="0 0 14 14" fill="none" xmlns="http://www.w3.org/2000/svg">
<g clip-path="url(#clip0_1068_188541)">
<path fill-rule="evenodd" clip-rule="evenodd" d="M0 1.47531C0 0.660518 0.660518 0 1.47531 0H9.76542C10.5802 0 11.2407 0.660518 11.2407 1.47531V9.76542C11.2407 10.5802 10.5802 11.2407 9.76542 11.2407H1.47531C0.660518 11.2407 0 10.5802 0 9.76542V1.47531ZM2.40582 7.60507C2.40582 6.63534 3.19194 5.84923 4.16166 5.84923C4.24853 5.84923 4.33393 5.85554 4.41742 5.86772V2.62981C4.41742 2.43089 4.49644 2.24013 4.63709 2.09948C4.77774 1.95882 4.96851 1.87981 5.16742 1.87981C6.11739 1.87981 7.0416 2.22083 7.7338 2.8476C8.42846 3.4766 8.8349 4.34661 8.8349 5.27153C8.8349 5.68575 8.49911 6.02153 8.0849 6.02153C7.67069 6.02153 7.3349 5.68575 7.3349 5.27153C7.3349 4.7952 7.12659 4.32134 6.72699 3.9595C6.50017 3.75413 6.22312 3.59599 5.91742 3.49715V7.58733L5.91751 7.60507C5.91751 8.57479 5.13139 9.36091 4.16166 9.36091C3.19194 9.36091 2.40582 8.57479 2.40582 7.60507ZM13.9704 3.5C13.9704 3.08579 13.6346 2.75 13.2204 2.75C12.8062 2.75 12.4704 3.08579 12.4704 3.5V12.2484C12.4704 12.3073 12.447 12.3637 12.4054 12.4054C12.3637 12.447 12.3073 12.4704 12.2484 12.4704H3.5C3.08579 12.4704 2.75 12.8062 2.75 13.2204C2.75 13.6346 3.08579 13.9704 3.5 13.9704H12.2484C12.7051 13.9704 13.1431 13.789 13.466 13.466C13.789 13.1431 13.9704 12.7051 13.9704 12.2484V3.5Z" fill="black"/>
</g>
<defs>
<clipPath id="clip0_1068_188541">
<rect width="14" height="14" fill="white"/>
</clipPath>
</defs>
</svg>
