<svg width="14" height="14" viewBox="0 0 14 14" fill="none" xmlns="http://www.w3.org/2000/svg">
<g clip-path="url(#clip0_1068_188532)">
<path fill-rule="evenodd" clip-rule="evenodd" d="M0 1.5C0 0.671573 0.671573 0 1.5 0H12.5C13.3284 0 14 0.671573 14 1.5V12.5C14 13.3284 13.3284 14 12.5 14H1.5C0.671573 14 0 13.3284 0 12.5V1.5ZM4.95392 4.6464V9.49361C4.95434 9.57471 4.9762 9.65426 5.01727 9.72419C5.05834 9.79413 5.11717 9.85196 5.1878 9.89183C5.25842 9.9317 5.33833 9.95219 5.41943 9.95122C5.50053 9.95025 5.57993 9.92787 5.64958 9.88633L9.80113 7.46272C9.87103 7.42233 9.92906 7.36426 9.96942 7.29435C10.0098 7.22443 10.031 7.14512 10.031 7.0644C10.031 6.98367 10.0098 6.90437 9.96942 6.83445C9.92906 6.76453 9.87103 6.70646 9.80113 6.66607L5.64958 4.25369C5.57993 4.21215 5.50053 4.18976 5.41943 4.18879C5.33833 4.18783 5.25842 4.20832 5.1878 4.24818C5.11717 4.28805 5.05834 4.34589 5.01727 4.41582C4.9762 4.48575 4.95434 4.5653 4.95392 4.6464Z" fill="black"/>
</g>
<defs>
<clipPath id="clip0_1068_188532">
<rect width="14" height="14" fill="white"/>
</clipPath>
</defs>
</svg>
