<svg width="14" height="14" viewBox="0 0 14 14" fill="none" xmlns="http://www.w3.org/2000/svg">
<g clip-path="url(#clip0_1068_188547)">
<path fill-rule="evenodd" clip-rule="evenodd" d="M6.45841 0.0890586C6.23034 0.0161806 5.98117 0.0565788 5.78781 0.197786C5.59445 0.338994 5.48013 0.564038 5.48013 0.803473V5.70961C5.48013 5.73479 5.48138 5.75974 5.48384 5.7844C5.48138 5.80912 5.48012 5.8342 5.48012 5.85958V13.2146C5.48012 13.6288 5.81591 13.9646 6.23012 13.9646C6.64434 13.9646 6.98012 13.6288 6.98012 13.2146V5.85958C6.98012 5.83921 6.97931 5.81903 6.97772 5.79908V2.85522C6.97772 2.51005 7.25754 2.23022 7.60272 2.23022C7.9479 2.23022 8.22772 2.51005 8.22772 2.85522V7.12277L9.60358 7.55468C9.61243 7.55746 9.62132 7.56007 9.63027 7.56252C10.5648 7.81822 11.4052 7.65099 12.0048 7.08954C12.5717 6.55866 12.8054 5.7842 12.8113 5.04298C12.8232 3.57133 11.935 1.80563 10.0504 1.23684L6.45841 0.0890586ZM4.23256 7.84576L1.69365 8.99604C0.942139 9.28789 0.367252 9.74552 0.14176 10.3841C-0.0940307 11.0519 0.128212 11.6959 0.5128 12.1586C1.25563 13.0524 2.74196 13.5099 4.23256 13.0374V11.4222L3.76933 11.6107C2.78823 11.9178 1.96906 11.564 1.66637 11.1999C1.52502 11.0298 1.54042 10.9282 1.55618 10.8836C1.58003 10.816 1.70603 10.5971 2.25134 10.3886C2.2654 10.3833 2.27931 10.3775 2.29302 10.3713L4.23256 9.49253V7.84576ZM12.2497 12.5862L8.22772 13.8673V12.293L11.7823 11.1608C12.33 10.9643 12.4314 10.755 12.4458 10.7106C12.4558 10.6801 12.4755 10.5695 12.3092 10.377C11.9605 9.97336 11.1017 9.63091 10.1976 9.9491L8.22772 10.6685V9.07164L9.68689 8.53872L9.69408 8.53609C11.1669 8.01515 12.6812 8.513 13.4444 9.3965C13.8343 9.84787 14.0945 10.4929 13.872 11.1754C13.6541 11.8438 13.0513 12.3024 12.2727 12.5784C12.2651 12.5811 12.2574 12.5837 12.2497 12.5862Z" fill="black"/>
</g>
<defs>
<clipPath id="clip0_1068_188547">
<rect width="14" height="14" fill="white"/>
</clipPath>
</defs>
</svg>
