<svg width="14" height="14" viewBox="0 0 14 14" fill="none" xmlns="http://www.w3.org/2000/svg">
<g clip-path="url(#clip0_1068_188550)">
<path fill-rule="evenodd" clip-rule="evenodd" d="M13.362 1.49833C13.7591 1.3804 13.9854 0.962909 13.8674 0.565838C13.7495 0.168768 13.332 -0.0575197 12.9349 0.0604113L1.31644 3.51113C0.5746 3.60165 0 4.23373 0 5.00001V5.875H14V5.00001C14 4.17159 13.3284 3.50001 12.5 3.50001H6.62238L13.362 1.49833ZM14 7.125H0V12.5C0 13.3284 0.671573 14 1.5 14H12.5C13.3284 14 14 13.3284 14 12.5V7.125ZM4.33768 12.3309C5.34888 12.3309 6.16862 11.5112 6.16862 10.5C6.16862 9.48881 5.34888 8.66907 4.33768 8.66907C3.32648 8.66907 2.50674 9.48881 2.50674 10.5C2.50674 11.5112 3.32648 12.3309 4.33768 12.3309ZM9.5 8.80676C9.15482 8.80676 8.875 9.08659 8.875 9.43176C8.875 9.77694 9.15482 10.0568 9.5 10.0568H11C11.3452 10.0568 11.625 9.77694 11.625 9.43176C11.625 9.08659 11.3452 8.80676 11 8.80676H9.5ZM8.875 11.9318C8.875 11.5866 9.15482 11.3068 9.5 11.3068H11C11.3452 11.3068 11.625 11.5866 11.625 11.9318C11.625 12.2769 11.3452 12.5568 11 12.5568H9.5C9.15482 12.5568 8.875 12.2769 8.875 11.9318Z" fill="black"/>
</g>
<defs>
<clipPath id="clip0_1068_188550">
<rect width="14" height="14" fill="white"/>
</clipPath>
</defs>
</svg>
