<svg width="14" height="14" viewBox="0 0 14 14" fill="none" xmlns="http://www.w3.org/2000/svg">
<g clip-path="url(#clip0_1068_188565)">
<path fill-rule="evenodd" clip-rule="evenodd" d="M1.43935 0.43934C1.72065 0.158035 2.10219 0 2.50001 0H12.5C12.8978 0 13.2794 0.158035 13.5607 0.43934C13.842 0.720644 14 1.10217 14 1.5V11.5C14 11.8978 13.842 12.2794 13.5607 12.5607C13.2794 12.842 12.8978 13 12.5 13H4.56156L0.621278 13.9851C0.444236 14.0293 0.257142 13.9736 0.133149 13.8397C0.00915603 13.7058 -0.0320399 13.515 0.0256687 13.3419L1.00001 10.4189V1.5C1.00001 1.10218 1.15805 0.720644 1.43935 0.43934ZM9.32794 6.27018C9.32794 5.69758 9.79213 5.2334 10.3647 5.2334C10.9373 5.2334 11.4015 5.69758 11.4015 6.27018C11.4015 6.84279 10.9373 7.30697 10.3647 7.30697C9.79213 7.30697 9.32794 6.84279 9.32794 6.27018ZM10.3647 3.9834C9.10177 3.9834 8.07794 5.00723 8.07794 6.27018C8.07794 6.64343 8.16736 6.99579 8.32595 7.30701H6.86423C7.02282 6.99579 7.11224 6.64343 7.11224 6.27018C7.11224 5.00723 6.08841 3.9834 4.82545 3.9834C3.56249 3.9834 2.53867 5.00723 2.53867 6.27018C2.53867 7.53056 3.55831 8.55278 4.81771 8.55696C4.82028 8.55699 4.82286 8.55701 4.82544 8.55701H10.3647C10.3674 8.55701 10.37 8.55699 10.3727 8.55696C11.632 8.55266 12.6515 7.53048 12.6515 6.27018C12.6515 5.00723 11.6277 3.9834 10.3647 3.9834ZM4.82545 5.2334C4.25285 5.2334 3.78867 5.69758 3.78867 6.27018C3.78867 6.84279 4.25285 7.30697 4.82545 7.30697C5.39805 7.30697 5.86224 6.84279 5.86224 6.27018C5.86224 5.69758 5.39805 5.2334 4.82545 5.2334Z" fill="black"/>
</g>
<defs>
<clipPath id="clip0_1068_188565">
<rect width="14" height="14" fill="white"/>
</clipPath>
</defs>
</svg>
