<svg width="14" height="14" viewBox="0 0 14 14" fill="none" xmlns="http://www.w3.org/2000/svg">
<g clip-path="url(#clip0_1068_188553)">
<path fill-rule="evenodd" clip-rule="evenodd" d="M6.99834 0.0463878C8.04479 0.0457933 9.07788 0.281389 10.0206 0.735616C10.9634 1.18986 11.7915 1.85105 12.4432 2.66988C13.0948 3.48871 13.5533 4.44407 13.7843 5.46474C14.0154 6.48542 14.013 7.54508 13.7776 8.56473C13.5421 9.58439 13.0795 10.5377 12.4242 11.3537C11.769 12.1697 10.938 12.8273 9.99326 13.2774C9.04851 13.7275 8.01436 13.9586 6.96787 13.9534C5.97696 13.9485 4.9992 13.7319 4.09988 13.3188L0.633897 13.9455C0.456812 13.9776 0.27618 13.9119 0.160927 13.7737C0.0456747 13.6355 0.0135827 13.4461 0.076897 13.2776L1.07113 10.6324C0.460779 9.63611 0.110557 8.50074 0.0548176 7.3309C-0.00504526 6.07452 0.276993 4.82543 0.870894 3.71667C1.4648 2.60791 2.34832 1.681 3.42736 1.03467C4.50635 0.388357 5.74059 0.0468069 6.99834 0.0463878ZM8.78135 7.04994C8.78135 6.47734 9.24554 6.01315 9.81814 6.01315C10.3908 6.01315 10.855 6.47734 10.855 7.04994C10.855 7.62254 10.3908 8.08673 9.81814 8.08673C9.24554 8.08673 8.78135 7.62254 8.78135 7.04994ZM9.81814 4.76315C8.55518 4.76315 7.53135 5.78698 7.53135 7.04994C7.53135 7.42318 7.62077 7.77554 7.77936 8.08676H6.31764C6.47623 7.77554 6.56565 7.42318 6.56565 7.04994C6.56565 5.78698 5.54182 4.76315 4.27886 4.76315C3.01591 4.76315 1.99208 5.78698 1.99208 7.04994C1.99208 8.31027 3.01165 9.33246 4.27097 9.33671C4.2736 9.33675 4.27622 9.33676 4.27885 9.33676H9.81814C9.82077 9.33676 9.82339 9.33675 9.82601 9.33671C11.0854 9.33247 12.105 8.31027 12.105 7.04994C12.105 5.78698 11.0811 4.76315 9.81814 4.76315ZM4.27886 6.01315C3.70626 6.01315 3.24208 6.47734 3.24208 7.04994C3.24208 7.62254 3.70626 8.08673 4.27886 8.08673C4.85147 8.08673 5.31565 7.62254 5.31565 7.04994C5.31565 6.47734 4.85147 6.01315 4.27886 6.01315Z" fill="black"/>
</g>
<defs>
<clipPath id="clip0_1068_188553">
<rect width="14" height="14" fill="white"/>
</clipPath>
</defs>
</svg>
