<svg width="14" height="14" viewBox="0 0 14 14" fill="none" xmlns="http://www.w3.org/2000/svg">
<g clip-path="url(#clip0_1068_188568)">
<path fill-rule="evenodd" clip-rule="evenodd" d="M5.29271 0.190674C5.0305 0.190674 4.87692 0.360927 4.81707 0.443971C4.75378 0.531787 4.71553 0.627992 4.69211 0.694194C4.64944 0.81481 4.61183 0.969486 4.57877 1.10551L4.56673 1.15491C4.48201 1.50122 4.40022 1.78221 4.28295 1.94066C4.24633 1.99014 4.16593 2.06107 4.02213 2.14609C3.88367 2.22795 3.72079 2.30327 3.54974 2.37729C3.50948 2.39471 3.46692 2.4128 3.42359 2.43121C3.29921 2.48407 3.16852 2.53961 3.06818 2.5896C3.00038 2.62337 2.91356 2.67018 2.8376 2.73064C2.78991 2.76859 2.59625 2.9253 2.59625 3.1994C2.59625 3.47351 2.78991 3.63022 2.8376 3.66817C2.91356 3.72862 3.00038 3.77543 3.06818 3.80921C3.16853 3.8592 3.2992 3.91473 3.42359 3.9676C3.46682 3.98597 3.50956 4.00414 3.54974 4.02152C3.72079 4.09553 3.88367 4.17085 4.02213 4.25271C4.16593 4.33773 4.24633 4.40867 4.28295 4.45815C4.40022 4.61659 4.48201 4.89759 4.56673 5.2439L4.57877 5.2933C4.61183 5.42931 4.64944 5.58401 4.69211 5.70461C4.71553 5.77081 4.75378 5.86702 4.81707 5.95483C4.87692 6.03788 5.0305 6.20813 5.29271 6.20813C5.55491 6.20813 5.7085 6.03788 5.76835 5.95483C5.83164 5.86702 5.86988 5.77081 5.8933 5.70461C5.93598 5.584 5.97358 5.42932 6.00664 5.2933L6.01868 5.24389C6.1034 4.89758 6.18519 4.61659 6.30246 4.45814C6.33908 4.40866 6.41948 4.33773 6.56329 4.2527C6.70174 4.17084 6.86462 4.09552 7.03567 4.02151C7.07593 4.00409 7.1185 3.986 7.16183 3.96758C7.28622 3.91472 7.41688 3.85919 7.51723 3.8092C7.58503 3.77542 7.67185 3.72861 7.74781 3.66816C7.79549 3.63021 7.98916 3.47351 7.98916 3.1994C7.98916 2.92528 7.79549 2.76858 7.74781 2.73063C7.67185 2.67018 7.58503 2.62337 7.51723 2.58959C7.41688 2.5396 7.28622 2.48407 7.16183 2.43121C7.11863 2.41284 7.07582 2.39466 7.03567 2.37728C6.86462 2.30327 6.70174 2.22795 6.56329 2.14609C6.41948 2.06106 6.33908 1.99013 6.30246 1.94065C6.18519 1.78221 6.1034 1.50121 6.01868 1.1549L6.00664 1.1055C5.97358 0.969482 5.93598 0.814807 5.8933 0.694192C5.86988 0.62799 5.83163 0.531785 5.76834 0.44397C5.70849 0.360925 5.55491 0.190674 5.29271 0.190674ZM5.71076 7.40767C6.34461 7.2519 6.85349 6.74916 7.00072 6.08918L7.00044 6.09048L7.00494 6.07142C7.00955 6.05228 7.01719 6.02123 7.02769 5.98116C7.04898 5.89984 7.08039 5.7875 7.12005 5.66529C7.16047 5.54074 7.20413 5.4225 7.24755 5.32422C7.26157 5.29248 7.2736 5.26735 7.28327 5.24811L7.29748 5.23824C7.37824 5.18295 7.49122 5.11788 7.62471 5.05061C7.75411 4.98539 7.87862 4.93018 7.97166 4.89112C8.01733 4.87195 8.05333 4.85755 8.07596 4.84866L8.09843 4.83992C8.51353 4.68576 8.84408 4.38515 9.04033 4.00962L12.4573 3.06144L12.4628 3.0599C12.6283 3.01533 12.8018 3.00936 12.97 3.04241C13.1382 3.07546 13.2966 3.14667 13.4329 3.25055C13.5693 3.35443 13.68 3.48821 13.7565 3.64161C13.8136 3.75602 13.8505 3.87907 13.8659 4.00534C13.8714 4.04195 13.8742 4.07917 13.8742 4.11673V4.13741L13.8743 4.13951L13.8742 5.4486V9.94413C13.8742 9.97115 13.8728 9.99784 13.87 10.0241C13.8016 11.1163 12.894 11.981 11.7845 11.981C10.6305 11.981 9.69489 11.0454 9.69489 9.89136C9.69489 8.73729 10.6305 7.80173 11.7845 7.80173C11.9893 7.80173 12.1872 7.83118 12.3742 7.88609V6.43533L7.21076 7.86962V11.7902L7.21082 11.8068C7.21082 12.9609 6.27526 13.8965 5.12119 13.8965C3.96712 13.8965 3.03156 12.9609 3.03156 11.8068C3.03156 10.6528 3.96712 9.71719 5.12119 9.71719C5.32592 9.71719 5.52378 9.74664 5.71076 9.80152V7.40767ZM1.96216 5.89917C2.37637 5.89917 2.71216 6.23496 2.71216 6.64917V7.03323H3.09625C3.51047 7.03323 3.84625 7.36902 3.84625 7.78323C3.84625 8.19745 3.51047 8.53323 3.09625 8.53323H2.71216V8.9173C2.71216 9.33151 2.37637 9.6673 1.96216 9.6673C1.54795 9.6673 1.21216 9.33151 1.21216 8.9173V8.53323H0.828125C0.413912 8.53323 0.078125 8.19745 0.078125 7.78323C0.078125 7.36902 0.413912 7.03323 0.828125 7.03323H1.21216V6.64917C1.21216 6.23496 1.54795 5.89917 1.96216 5.89917Z" fill="black"/>
</g>
<defs>
<clipPath id="clip0_1068_188568">
<rect width="14" height="14" fill="white"/>
</clipPath>
</defs>
</svg>
