<svg width="14" height="14" viewBox="0 0 14 14" fill="none" xmlns="http://www.w3.org/2000/svg">
<g clip-path="url(#clip0_1068_188559)">
<path fill-rule="evenodd" clip-rule="evenodd" d="M8.43599 0.814097C7.62787 0.0619677 6.37624 0.0619677 5.56812 0.814097L1.32089 4.76704L1.32004 4.76783C-0.0563724 6.06085 -0.000730813 8.03805 0.896292 9.39564C1.34761 10.0787 2.01931 10.6198 2.84801 10.8477C3.55429 11.0419 4.35828 11.0041 5.21386 10.6539L4.64703 13.4503C4.63213 13.5239 4.65103 13.6002 4.69851 13.6582C4.74599 13.7163 4.81704 13.75 4.89205 13.75H9.10755C9.18256 13.75 9.25361 13.7163 9.30109 13.6582C9.34857 13.6002 9.36747 13.5239 9.35257 13.4503L8.78499 10.6502C9.63968 11 10.4431 11.0374 11.149 10.843C11.9774 10.6149 12.6492 10.0738 13.101 9.39102C13.9988 8.03416 14.0575 6.05803 12.684 4.76783L12.6832 4.76704L8.43599 0.814097Z" fill="black"/>
</g>
<defs>
<clipPath id="clip0_1068_188559">
<rect width="14" height="14" fill="white"/>
</clipPath>
</defs>
</svg>
