<svg width="14" height="14" viewBox="0 0 14 14" fill="none" xmlns="http://www.w3.org/2000/svg">
<path fill-rule="evenodd" clip-rule="evenodd" d="M3 0C2.17157 0 1.5 0.671573 1.5 1.5V12.5C1.5 13.3284 2.17157 14 3 14H11C11.8284 14 12.5 13.3284 12.5 12.5V1.5C12.5 0.671573 11.8284 0 11 0H3ZM5.83142 3.05562C5.83142 2.41026 6.35459 1.88708 6.99996 1.88708C7.64532 1.88708 8.16849 2.41026 8.16849 3.05562C8.16849 3.70098 7.64532 4.22416 6.99996 4.22416C6.35459 4.22416 5.83142 3.70098 5.83142 3.05562ZM10.2907 9.00001C10.2907 10.8174 8.81741 12.2908 6.99998 12.2908C5.18255 12.2908 3.70923 10.8174 3.70923 9.00001C3.70923 7.18258 5.18255 5.70926 6.99998 5.70926C8.81741 5.70926 10.2907 7.18258 10.2907 9.00001ZM5.84186 9.00001C5.84186 8.36038 6.36038 7.84186 7.00001 7.84186C7.63964 7.84186 8.15816 8.36038 8.15816 9.00001C8.15816 9.63964 7.63964 10.1582 7.00001 10.1582C6.36038 10.1582 5.84186 9.63964 5.84186 9.00001Z" fill="black"/>
</svg>
