<svg width="14" height="14" viewBox="0 0 14 14" fill="none" xmlns="http://www.w3.org/2000/svg">
<g clip-path="url(#clip0_1068_188598)">
<path fill-rule="evenodd" clip-rule="evenodd" d="M2.52526 0.112586C2.19094 0.026935 1.84008 0.029829 1.50722 0.120983C1.17437 0.212137 0.870981 0.388408 0.626948 0.632441C0.382915 0.876474 0.206644 1.17986 0.11549 1.51271C0.0243359 1.84557 0.0214419 2.19643 0.107093 2.53075C0.192744 2.86507 0.363987 3.17132 0.603961 3.41934C0.696512 3.515 0.798056 3.60072 0.906895 3.67549C0.375299 4.64888 0.0828835 5.73715 0.0567507 6.84989C0.0313348 7.93209 0.262163 9.00801 0.728623 9.98294C-0.0708017 10.682 -0.173943 11.9409 0.519188 12.7588C1.25276 13.6245 2.57967 13.647 3.38112 12.9274C4.46705 13.5942 5.71901 13.9495 6.9992 13.9495C8.27883 13.9495 9.53025 13.5945 10.6158 12.9283C11.4494 13.684 12.831 13.6073 13.5456 12.6554C14.1749 11.8171 14.0157 10.6456 13.2686 9.98534C13.4958 9.51114 13.6674 9.01348 13.7807 8.50233C13.9794 7.60562 13.9948 6.66222 13.83 5.76092C13.6968 5.03231 13.4479 4.32809 13.0915 3.67549C13.2003 3.60072 13.3019 3.515 13.3944 3.41934C13.6344 3.17132 13.8057 2.86507 13.8913 2.53075C13.977 2.19643 13.9741 1.84557 13.8829 1.51271C13.7918 1.17986 13.6155 0.876475 13.3714 0.632441C13.1274 0.388408 12.824 0.212137 12.4912 0.120983C12.1583 0.029829 11.8075 0.026935 11.4731 0.112586C11.1388 0.198237 10.8326 0.36948 10.5845 0.609454C10.489 0.701855 10.4034 0.803219 10.3288 0.911858C9.31063 0.354543 8.16593 0.0602197 6.9992 0.0602197C5.83248 0.0602197 4.68778 0.354543 3.66963 0.911856C3.59495 0.803218 3.50935 0.701854 3.41385 0.609454C3.16583 0.36948 2.85958 0.198237 2.52526 0.112586ZM6.9992 11.0426C9.22926 11.0426 11.0371 9.23475 11.0371 7.00469C11.0371 4.77463 9.22926 2.96681 6.9992 2.96681C4.76914 2.96681 2.96132 4.77463 2.96132 7.00469C2.96132 9.23475 4.76914 11.0426 6.9992 11.0426ZM5.44892 7.00471C5.44892 6.14851 6.14301 5.45442 6.99921 5.45442C7.85541 5.45442 8.5495 6.14851 8.5495 7.00471C8.5495 7.86091 7.85541 8.555 6.99921 8.555C6.14301 8.555 5.44892 7.86091 5.44892 7.00471Z" fill="black"/>
</g>
<defs>
<clipPath id="clip0_1068_188598">
<rect width="14" height="14" fill="white"/>
</clipPath>
</defs>
</svg>
