<svg width="14" height="14" viewBox="0 0 14 14" fill="none" xmlns="http://www.w3.org/2000/svg">
<g clip-path="url(#clip0_1068_188562)">
<path fill-rule="evenodd" clip-rule="evenodd" d="M10.2477 0.512405C12.0738 0.407303 13.6394 1.80243 13.7445 3.62852C13.8418 5.32044 12.6515 6.78846 11.0235 7.07885L8.51071 9.82158C8.57677 10.0361 8.6182 10.2617 8.63164 10.4953C8.72161 12.0584 7.52741 13.3984 5.96432 13.4884C4.80489 13.5551 3.76826 12.9154 3.27338 11.9425L4.69719 12.4162C5.60192 12.7173 6.58372 12.2557 6.9291 11.3669C7.26123 10.5122 6.89325 9.54479 6.07706 9.12689L4.33184 8.23332C4.71531 8.00051 5.15981 7.8555 5.63853 7.82795L5.65541 7.82703L7.19206 4.47821C7.16122 4.32552 7.14082 4.1689 7.13162 4.00912C7.02652 2.18304 8.42165 0.617507 10.2477 0.512405ZM10.5403 5.03653C11.2677 4.99466 11.8235 4.37097 11.7817 3.6435C11.7398 2.91602 11.1161 2.36022 10.3886 2.40209C9.66115 2.44396 9.10535 3.06764 9.14722 3.79512C9.1891 4.5226 9.81278 5.0784 10.5403 5.03653ZM0 7.42188L0.0107426 9.69652L5.18578 11.4183C5.48946 11.5193 5.819 11.3644 5.93493 11.0661C6.04641 10.7792 5.9229 10.4545 5.64894 10.3142L0 7.42188Z" fill="black"/>
</g>
<defs>
<clipPath id="clip0_1068_188562">
<rect width="14" height="14" fill="white"/>
</clipPath>
</defs>
</svg>
