<svg width="14" height="14" viewBox="0 0 14 14" fill="none" xmlns="http://www.w3.org/2000/svg">
<path fill-rule="evenodd" clip-rule="evenodd" d="M0 3C0 2.17157 0.671573 1.5 1.5 1.5H12.5C13.3284 1.5 14 2.17157 14 3V11C14 11.8284 13.3284 12.5 12.5 12.5H1.5C0.671573 12.5 0 11.8284 0 11V3ZM9.50001 9.5H4.50001L3.9 11H10.1L9.50001 9.5ZM2 5.75C2 4.7835 2.7835 4 3.75 4H10.25C11.2165 4 12 4.7835 12 5.75C12 6.7165 11.2165 7.5 10.25 7.5H3.75C2.7835 7.5 2 6.7165 2 5.75ZM3.75 5C3.33579 5 3 5.33579 3 5.75C3 6.16421 3.33579 6.5 3.75 6.5H4.66466C4.87255 6.31604 5.00255 6.0481 5.00255 5.74995C5.00255 5.45185 4.8726 5.18396 4.66478 5H3.75ZM8.14283 6.5H5.85717C5.95088 6.26842 6.00255 6.01523 6.00255 5.74995C6.00255 5.4847 5.95089 5.23155 5.85721 5H8.14279C8.04911 5.23155 7.99745 5.4847 7.99745 5.74995C7.99745 6.01523 8.04912 6.26842 8.14283 6.5ZM9.33534 6.5H10.25C10.6642 6.5 11 6.16421 11 5.75C11 5.33579 10.6642 5 10.25 5H9.33522C9.1274 5.18396 8.99745 5.45185 8.99745 5.74995C8.99745 6.0481 9.12745 6.31604 9.33534 6.5Z" fill="black"/>
</svg>
