<svg width="14" height="14" viewBox="0 0 14 14" fill="none" xmlns="http://www.w3.org/2000/svg">
<path fill-rule="evenodd" clip-rule="evenodd" d="M9 3.0054C9.02347 1.81466 7.69756 1.09936 6.71551 1.77885L6.71258 1.78089L2.84193 4.50004H1.5C0.679191 4.50004 0 5.17923 0 6.00004V8.00004C0 8.82085 0.679191 9.50004 1.5 9.50004H2.83897L6.6182 12.216L6.62551 12.2212C7.59689 12.8933 8.97354 12.1973 8.99988 11.0111L9 11V3.0054ZM10.8125 6.25C10.3983 6.25 10.0625 6.58579 10.0625 7C10.0625 7.41421 10.3983 7.75 10.8125 7.75H13.1887C13.6029 7.75 13.9387 7.41421 13.9387 7C13.9387 6.58579 13.6029 6.25 13.1887 6.25H10.8125Z" fill="black"/>
</svg>
