<svg width="14" height="14" viewBox="0 0 14 14" fill="none" xmlns="http://www.w3.org/2000/svg">
<g clip-path="url(#clip0_1068_188571)">
<path fill-rule="evenodd" clip-rule="evenodd" d="M0.21967 1.28033C-0.0732233 0.987437 -0.0732233 0.512563 0.21967 0.21967C0.512563 -0.0732233 0.987437 -0.0732233 1.28033 0.21967L5.14617 4.08551L8.71258 1.58009L8.7155 1.57804C9.69755 0.898548 11.0235 1.61385 11 2.8046V9.93934L13.7803 12.7197C14.0732 13.0126 14.0732 13.4874 13.7803 13.7803C13.4874 14.0732 13.0126 14.0732 12.7197 13.7803L10.66 11.7206C10.6584 11.7226 10.6567 11.7245 10.6551 11.7265L3.24929 4.32064C3.25233 4.32011 3.25538 4.3196 3.25843 4.31909L0.21967 1.28033ZM2.20646 5.04558L9.44364 12.2828C9.16418 12.2792 8.88084 12.1971 8.62551 12.0204L8.61816 12.0153L4.83897 9.29924H3.5C2.67919 9.29924 2 8.62004 2 7.79924V5.79924C2 5.52565 2.07546 5.2678 2.20646 5.04558Z" fill="black"/>
</g>
<defs>
<clipPath id="clip0_1068_188571">
<rect width="14" height="14" fill="white"/>
</clipPath>
</defs>
</svg>
