<svg width="14" height="14" viewBox="0 0 14 14" fill="none" xmlns="http://www.w3.org/2000/svg">
<path fill-rule="evenodd" clip-rule="evenodd" d="M9 3.0054C9.02347 1.81466 7.69756 1.09936 6.71551 1.77885L6.71258 1.78089L2.84193 4.50004H1.5C0.679191 4.50004 0 5.17923 0 6.00004V8.00004C0 8.82085 0.679191 9.50004 1.5 9.50004H2.83897L6.6182 12.216L6.62551 12.2212C7.59689 12.8933 8.97354 12.1973 8.99988 11.0111L9 11V3.0054ZM13.7803 5.09467C14.0732 5.38756 14.0732 5.86244 13.7803 6.15533L12.9357 7L13.7803 7.84467C14.0732 8.13756 14.0732 8.61244 13.7803 8.90533C13.4874 9.19822 13.0126 9.19822 12.7197 8.90533L11.875 8.06066L11.0303 8.90533C10.7374 9.19822 10.2626 9.19822 9.96967 8.90533C9.67678 8.61244 9.67678 8.13756 9.96967 7.84467L10.8143 7L9.96967 6.15533C9.67678 5.86244 9.67678 5.38756 9.96967 5.09467C10.2626 4.80178 10.7374 4.80178 11.0303 5.09467L11.875 5.93934L12.7197 5.09467C13.0126 4.80178 13.4874 4.80178 13.7803 5.09467Z" fill="black"/>
</svg>
