<svg width="14" height="14" viewBox="0 0 14 14" fill="none" xmlns="http://www.w3.org/2000/svg">
<path fill-rule="evenodd" clip-rule="evenodd" d="M9 3.0054C9.02347 1.81466 7.69756 1.09936 6.71551 1.77885L6.71258 1.78089L2.84193 4.50004H1.5C0.679191 4.50004 0 5.17923 0 6.00004V8.00004C0 8.82085 0.679191 9.50004 1.5 9.50004H2.83897L6.6182 12.216L6.62551 12.2212C7.59689 12.8933 8.97354 12.1973 8.99988 11.0111L9 11V3.0054ZM11.4136 5.02197C11.1496 4.7028 10.6768 4.65807 10.3577 4.92208C10.0385 5.18609 9.99377 5.65885 10.2578 5.97803C10.4864 6.25438 10.6036 6.60609 10.5865 6.96433C10.5854 6.9881 10.5854 7.0119 10.5865 7.03567C10.6036 7.39391 10.4864 7.74562 10.2578 8.02197C9.99377 8.34115 10.0385 8.81391 10.3577 9.07792C10.6768 9.34193 11.1496 9.2972 11.4136 8.97803C11.8727 8.42298 12.1118 7.71904 12.0863 7C12.1118 6.28096 11.8727 5.57702 11.4136 5.02197Z" fill="black"/>
</svg>
