<svg width="14" height="14" viewBox="0 0 14 14" fill="none" xmlns="http://www.w3.org/2000/svg">
<path fill-rule="evenodd" clip-rule="evenodd" d="M9 3.0054C9.02347 1.81466 7.69756 1.09936 6.71551 1.77885L6.71258 1.78089L2.84193 4.50004H1.5C0.679191 4.50004 0 5.17923 0 6.00004V8.00004C0 8.82085 0.679191 9.50004 1.5 9.50004H2.83897L6.6182 12.216L6.62551 12.2212C7.59689 12.8933 8.97354 12.1973 8.99988 11.0111L9 11V3.0054ZM11.7411 3.41317C12.0603 3.14916 12.5331 3.19389 12.7971 3.51306C13.6263 4.51555 13.9722 5.72023 13.9722 7.00001C13.9722 8.27979 13.6263 9.48447 12.7971 10.487C12.5331 10.8061 12.0603 10.8509 11.7411 10.5869C11.422 10.3228 11.3773 9.85008 11.6413 9.5309C12.2068 8.84724 12.4722 8.0015 12.4722 7.00001C12.4722 5.99852 12.2068 5.15279 11.6413 4.46912C11.3773 4.14994 11.422 3.67718 11.7411 3.41317ZM10.2003 5.28823C10.5755 5.11267 11.0219 5.27447 11.1975 5.64964C11.3935 6.06855 11.4894 6.53105 11.4728 6.99997C11.4894 7.4689 11.3935 7.93139 11.1975 8.35031C11.0219 8.72548 10.5755 8.88728 10.2003 8.71172C9.82513 8.53615 9.66332 8.08969 9.83889 7.71453C9.93737 7.50408 9.98425 7.27127 9.97303 7.03565C9.97189 7.01188 9.97189 6.98807 9.97303 6.9643C9.98425 6.72868 9.93737 6.49587 9.83889 6.28542C9.66332 5.91025 9.82513 5.4638 10.2003 5.28823Z" fill="black"/>
</svg>
