<svg width="14" height="14" viewBox="0 0 14 14" fill="none" xmlns="http://www.w3.org/2000/svg">
<g clip-path="url(#clip0_1068_188586)">
<path fill-rule="evenodd" clip-rule="evenodd" d="M5.14284 0.928711C4.89068 0.928711 4.67798 1.11648 4.64671 1.36669L4.39324 3.39441H9.60673L9.35327 1.36669C9.32199 1.11648 9.10929 0.928711 8.85713 0.928711H5.14284ZM9.82885 4.64294C9.8146 4.64392 9.80022 4.64441 9.78572 4.64441H4.21429C4.1998 4.64441 4.18542 4.64392 4.17116 4.64294H2.35714C1.05731 4.64294 0 5.69281 0 6.9923V10.6559C0 12.1925 1.44118 13.2948 2.9146 13.0326C4.1626 12.8106 5.69521 12.5999 7 12.5999C8.30479 12.5999 9.8374 12.8106 11.0854 13.0326C12.5588 13.2948 14 12.1925 14 10.6559V6.9923C14 5.69281 12.9427 4.64294 11.6429 4.64294H9.82885ZM3.58929 7.92871C3.58929 7.58353 3.86912 7.30371 4.21429 7.30371H9.78572C10.1309 7.30371 10.4107 7.58353 10.4107 7.92871C10.4107 8.27389 10.1309 8.55371 9.78572 8.55371H4.21429C3.86912 8.55371 3.58929 8.27389 3.58929 7.92871Z" fill="black"/>
</g>
<defs>
<clipPath id="clip0_1068_188586">
<rect width="14" height="14" fill="white"/>
</clipPath>
</defs>
</svg>
