<svg width="14" height="14" viewBox="0 0 14 14" fill="none" xmlns="http://www.w3.org/2000/svg">
<g clip-path="url(#clip0_1068_188601)">
<path fill-rule="evenodd" clip-rule="evenodd" d="M6.0713 0C3.08998 0 0.610541 2.14883 0.0973047 4.98218H4.80574C5.09987 3.3718 6.51008 2.15112 8.2054 2.15112H10.7075C9.59424 0.835938 7.93059 0 6.0713 0ZM2.78558 11.1777C1.15254 10.1249 0.0559309 8.30853 0.00195312 6.23218H4.80575C5.09991 7.84252 6.51011 9.06316 8.2054 9.06316H12.1427V10.25C12.1427 11.039 11.5032 11.6786 10.7142 11.6786H9.35701V13.5C9.35701 13.7761 9.13315 14 8.85701 14H3.28558C3.00944 14 2.78558 13.7761 2.78558 13.5V11.1777ZM12.1306 7.81316H12.4999C12.5344 7.81316 12.5685 7.81141 12.6021 7.808C13.1064 7.75679 13.4999 7.33093 13.4999 6.81316V4.40112C13.4999 3.84884 13.0522 3.40112 12.4999 3.40112H11.4223H9.94631V7.81316H12.1306ZM8.69631 7.81316V3.40112H8.2054C6.98705 3.40112 5.99938 4.38879 5.99938 5.60714C5.99938 6.82549 6.98705 7.81316 8.2054 7.81316H8.69631Z" fill="black"/>
</g>
<defs>
<clipPath id="clip0_1068_188601">
<rect width="14" height="14" fill="white"/>
</clipPath>
</defs>
</svg>
