<svg width="14" height="14" viewBox="0 0 14 14" fill="none" xmlns="http://www.w3.org/2000/svg">
<g clip-path="url(#clip0_1068_188595)">
<path fill-rule="evenodd" clip-rule="evenodd" d="M14 7C14 8.66365 13.4196 10.1918 12.4503 11.3929C11.9179 9.19066 10.5014 7.03451 8.76757 5.31462C8.52121 5.07024 8.26671 4.83295 8.00545 4.60408C9.50895 3.53306 11.1044 2.832 12.5118 2.68443C13.4441 3.8735 14 5.37184 14 7ZM11.4532 1.59895C10.2431 0.600066 8.69165 0 7 0C5.3084 0 3.75694 0.600032 2.54686 1.59887C4.03973 1.94549 5.58613 2.73569 7.00023 3.79047C8.41422 2.73578 9.96049 1.94562 11.4532 1.59895ZM5.99501 4.60408C4.49135 3.53295 2.89575 2.83186 1.48822 2.68438C0.555884 3.87347 0 5.37182 0 7C0 8.66386 0.580509 10.1921 1.55004 11.3933C2.08233 9.19094 3.49892 7.03462 5.23289 5.31462C5.47925 5.07024 5.73375 4.83295 5.99501 4.60408ZM7.00023 5.3875C6.69687 5.64516 6.40033 5.91724 6.11319 6.20206C4.2479 8.05234 2.89074 10.3296 2.62205 12.4623C3.8209 13.4244 5.34324 14 7 14C8.65696 14 10.1794 13.4243 11.3784 12.462C11.1096 10.3294 9.75246 8.05224 7.88727 6.20206C7.60013 5.91724 7.30359 5.64516 7.00023 5.3875Z" fill="black"/>
</g>
<defs>
<clipPath id="clip0_1068_188595">
<rect width="14" height="14" fill="white"/>
</clipPath>
</defs>
</svg>
