<svg width="14" height="14" viewBox="0 0 14 14" fill="none" xmlns="http://www.w3.org/2000/svg">
<g clip-path="url(#clip0_1068_187509)">
<path fill-rule="evenodd" clip-rule="evenodd" d="M1.07692 0H4.84615C5.44092 0 5.92308 0.482155 5.92308 1.07692V4.84615C5.92308 5.44092 5.44092 5.92308 4.84615 5.92308H1.07692C0.482155 5.92308 0 5.44092 0 4.84615V1.07692C0 0.482155 0.482155 0 1.07692 0ZM9.15383 8.0769H12.9231C13.5178 8.0769 14 8.55906 14 9.15383V12.9231C14 13.5178 13.5178 14 12.9231 14H9.15383C8.55906 14 8.0769 13.5178 8.0769 12.9231V9.15383C8.0769 8.55906 8.55906 8.0769 9.15383 8.0769ZM4.84615 8.0769H1.07692C0.482155 8.0769 0 8.55906 0 9.15383V12.9231C0 13.5178 0.482155 14 1.07692 14H4.84615C5.44092 14 5.92308 13.5178 5.92308 12.9231V9.15383C5.92308 8.55906 5.44092 8.0769 4.84615 8.0769ZM10.7607 0C11.175 0 11.5107 0.335786 11.5107 0.75V2.48273H13.2432C13.6575 2.48273 13.9932 2.81851 13.9932 3.23273C13.9932 3.64694 13.6575 3.98273 13.2432 3.98273H11.5107V5.71542C11.5107 6.12963 11.175 6.46542 10.7607 6.46542C10.3465 6.46542 10.0107 6.12963 10.0107 5.71542V3.98273H8.27783C7.86362 3.98273 7.52783 3.64694 7.52783 3.23273C7.52783 2.81851 7.86362 2.48273 8.27783 2.48273H10.0107V0.75C10.0107 0.335786 10.3465 0 10.7607 0Z" fill="black"/>
</g>
<defs>
<clipPath id="clip0_1068_187509">
<rect width="14" height="14" fill="white"/>
</clipPath>
</defs>
</svg>
