<svg width="14" height="14" viewBox="0 0 14 14" fill="none" xmlns="http://www.w3.org/2000/svg">
<path fill-rule="evenodd" clip-rule="evenodd" d="M10.4754 2.89321C10.0981 2.48992 9.46525 2.46887 9.06196 2.8462C8.65867 3.22353 8.63763 3.85634 9.01496 4.25963L11.579 7.00002L9.01496 9.7404C8.63763 10.1437 8.65867 10.7765 9.06196 11.1538C9.46525 11.5312 10.0981 11.5101 10.4754 11.1068L13.6786 7.68323C14.0383 7.29877 14.0383 6.70126 13.6786 6.31681L10.4754 2.89321ZM4.9842 4.25966C5.36153 3.85637 5.34048 3.22356 4.93719 2.84623C4.5339 2.4689 3.90109 2.48995 3.52376 2.89324L0.320561 6.31684C-0.0391453 6.70129 -0.0391453 7.2988 0.320561 7.68326L3.52376 11.1069C3.90109 11.5101 4.5339 11.5312 4.93719 11.1539C5.34048 10.7765 5.36153 10.1437 4.9842 9.74044L2.42023 7.00005L4.9842 4.25966Z" fill="black"/>
</svg>
