<svg width="14" height="14" viewBox="0 0 14 14" fill="none" xmlns="http://www.w3.org/2000/svg">
<g clip-path="url(#clip0_1068_187485)">
<path fill-rule="evenodd" clip-rule="evenodd" d="M12.4428 8.22355V3.36011H4.39001V4.5539C4.39001 4.96811 4.05423 5.3039 3.64001 5.3039C3.2258 5.3039 2.89001 4.96811 2.89001 4.5539V1.73415C2.89001 0.792825 3.6531 0.0297284 4.59443 0.0297189L12.2383 0.029541C13.1797 0.029541 13.9428 0.792642 13.9428 1.73398V8.22355C13.9428 9.16489 13.1797 9.92799 12.2383 9.92799H11.4625C11.0483 9.92799 10.7125 9.5922 10.7125 9.17799C10.7125 8.76377 11.0483 8.42799 11.4625 8.42799H12.2383C12.3512 8.42799 12.4428 8.33646 12.4428 8.22355ZM1.60547 9.82742V12.2328C1.60547 12.3457 1.69699 12.4373 1.80989 12.4373L7.85585 12.4371C7.96876 12.4371 8.06031 12.3456 8.06031 12.2327V9.82742H1.60547ZM7.85585 6.49686L1.8099 6.49703C0.868579 6.49705 0.105469 7.26014 0.105469 8.20147V12.2328C0.105469 13.1742 0.86857 13.9373 1.8099 13.9373L7.85587 13.9371C8.79719 13.9371 9.56031 13.174 9.56031 12.2327V8.20129C9.56031 7.25996 8.79719 6.49686 7.85585 6.49686Z" fill="black"/>
</g>
<defs>
<clipPath id="clip0_1068_187485">
<rect width="14" height="14" fill="white"/>
</clipPath>
</defs>
</svg>
