<svg width="14" height="14" viewBox="0 0 14 14" fill="none" xmlns="http://www.w3.org/2000/svg">
<g clip-path="url(#clip0_1068_187518)">
<path fill-rule="evenodd" clip-rule="evenodd" d="M1.54102 12.2545V3.33386H4.8179V7.47767C4.8179 7.89188 5.15368 8.22767 5.5679 8.22767H9.8186C9.87698 8.24226 9.93808 8.25 10.001 8.25C10.0639 8.25 10.125 8.24226 10.1834 8.22767H12.4609V12.2545C12.4609 12.309 12.4393 12.3613 12.4008 12.3998C12.3623 12.4383 12.31 12.4599 12.2555 12.4599H1.74639C1.69193 12.4599 1.63969 12.4383 1.60117 12.3998C1.56266 12.3613 1.54102 12.309 1.54102 12.2545ZM10.751 6.72767H13.2109C13.6251 6.72767 13.9609 7.06346 13.9609 7.47767V12.2545C13.9609 12.7068 13.7813 13.1406 13.4614 13.4604C13.1416 13.7803 12.7078 13.9599 12.2555 13.9599H1.74639C1.2941 13.9599 0.860329 13.7803 0.540509 13.4604C0.220689 13.1406 0.0410156 12.7068 0.0410156 12.2545V1.74541C0.0410156 1.29312 0.220689 0.859352 0.540509 0.539532C0.860329 0.219712 1.2941 0.0400391 1.74639 0.0400391H5.5679C5.98211 0.0400391 6.3179 0.375825 6.3179 0.790039V1.83386H9.25098V0.790039C9.25098 0.375826 9.58677 0.0400391 10.001 0.0400391C10.4152 0.0400391 10.751 0.375825 10.751 0.790039V1.83386H13.211C13.6252 1.83386 13.961 2.16965 13.961 2.58386C13.961 2.99808 13.6252 3.33386 13.211 3.33386H10.751V6.72767ZM9.25098 6.72767V3.33386H6.3179V6.72767H9.25098Z" fill="black"/>
</g>
<defs>
<clipPath id="clip0_1068_187518">
<rect width="14" height="14" fill="white"/>
</clipPath>
</defs>
</svg>
