<svg width="14" height="14" viewBox="0 0 14 14" fill="none" xmlns="http://www.w3.org/2000/svg">
<g clip-path="url(#clip0_1068_187479)">
<path fill-rule="evenodd" clip-rule="evenodd" d="M1.54687 3.31527V12.2494C1.54687 12.3623 1.6384 12.4538 1.75131 12.4538H12.2501C12.363 12.4538 12.4545 12.3623 12.4545 12.2494V3.31527H1.54687ZM1.75131 0.0461426C0.809976 0.0461426 0.046875 0.809244 0.046875 1.75058V12.2494C0.046875 13.1907 0.809976 13.9538 1.75131 13.9538H12.2501C13.1914 13.9538 13.9545 13.1907 13.9545 12.2494V1.75058C13.9545 0.809244 13.1914 0.0461426 12.2501 0.0461426H1.75131ZM7.00081 3.99994C9.07098 3.99994 10.7492 5.67814 10.7492 7.74831C10.7492 8.73437 10.351 9.70261 9.65305 10.4006C8.95511 11.0985 7.98686 11.4967 7.00081 11.4967C4.93064 11.4967 3.25244 9.81848 3.25244 7.74831C3.25244 6.76231 3.65062 5.79396 4.34854 5.09604C5.04646 4.39812 6.0148 3.99994 7.00081 3.99994ZM7.00081 5.49994C8.24255 5.49994 9.24918 6.50657 9.24918 7.74831C9.24918 8.09521 9.17062 8.42377 9.03031 8.71715L6.03197 5.71881C6.32535 5.5785 6.6539 5.49994 7.00081 5.49994ZM4.97131 6.77947L7.96965 9.77781C7.67626 9.91812 7.34771 9.99668 7.00081 9.99668C5.75907 9.99668 4.75244 8.99005 4.75244 7.74831C4.75244 7.40141 4.831 7.07285 4.97131 6.77947Z" fill="black"/>
</g>
<defs>
<clipPath id="clip0_1068_187479">
<rect width="14" height="14" fill="white"/>
</clipPath>
</defs>
</svg>
