<svg width="14" height="14" viewBox="0 0 14 14" fill="none" xmlns="http://www.w3.org/2000/svg">
<g clip-path="url(#clip0_1068_187473)">
<path fill-rule="evenodd" clip-rule="evenodd" d="M1.54687 12.2494V3.3153H12.4545V12.2494C12.4545 12.3623 12.363 12.4538 12.2501 12.4538H1.75131C1.6384 12.4538 1.54687 12.3623 1.54687 12.2494ZM1.75131 0.0461426C0.809976 0.0461426 0.046875 0.809244 0.046875 1.75058V12.2494C0.046875 13.1907 0.809976 13.9538 1.75131 13.9538H12.2501C13.1914 13.9538 13.9545 13.1907 13.9545 12.2494V1.75058C13.9545 0.809244 13.1914 0.0461426 12.2501 0.0461426H1.75131ZM4.87903 7.06177C4.46481 7.06177 4.12903 7.39755 4.12903 7.81177C4.12903 8.22598 4.46481 8.56177 4.87903 8.56177H9.1224C9.53661 8.56177 9.8724 8.22598 9.8724 7.81177C9.8724 7.39755 9.53661 7.06177 9.1224 7.06177H4.87903Z" fill="black"/>
</g>
<defs>
<clipPath id="clip0_1068_187473">
<rect width="14" height="14" fill="white"/>
</clipPath>
</defs>
</svg>
