<svg width="14" height="14" viewBox="0 0 14 14" fill="none" xmlns="http://www.w3.org/2000/svg">
<g clip-path="url(#clip0_1068_187524)">
<path fill-rule="evenodd" clip-rule="evenodd" d="M1.54687 12.2494V3.3153H12.4545V12.2494C12.4545 12.3623 12.363 12.4538 12.2501 12.4538H1.75131C1.6384 12.4538 1.54687 12.3623 1.54687 12.2494ZM1.75131 0.0461426C0.809976 0.0461426 0.046875 0.809244 0.046875 1.75058V12.2494C0.046875 13.1907 0.809976 13.9538 1.75131 13.9538H12.2501C13.1914 13.9538 13.9545 13.1907 13.9545 12.2494V1.75058C13.9545 0.809244 13.1914 0.0461426 12.2501 0.0461426H1.75131ZM6.78966 4.55551C7.18151 4.68976 7.39033 5.11626 7.25607 5.50811L7.12876 5.8797H8.26825L8.56215 5.02192C8.69641 4.63007 9.12291 4.42125 9.51476 4.55551C9.90661 4.68976 10.1154 5.11626 9.98117 5.50811L9.85386 5.8797H10.1799C10.5941 5.8797 10.9299 6.21549 10.9299 6.6297C10.9299 7.04391 10.5941 7.3797 10.1799 7.3797H9.33991L8.92018 8.60474H9.72584C10.14 8.60474 10.4758 8.94052 10.4758 9.35474C10.4758 9.76895 10.14 10.1047 9.72584 10.1047H8.40624L8.16446 10.8104C8.0302 11.2022 7.60371 11.4111 7.21186 11.2768C6.82 11.1425 6.61119 10.716 6.74544 10.3242L6.82064 10.1047H5.68114L5.43937 10.8104C5.30511 11.2022 4.87861 11.4111 4.48676 11.2768C4.09491 11.1425 3.88609 10.716 4.02035 10.3242L4.09554 10.1047H3.82153C3.40732 10.1047 3.07153 9.76895 3.07153 9.35474C3.07153 8.94052 3.40732 8.60474 3.82153 8.60474H4.60948L5.02921 7.3797H4.27563C3.86142 7.3797 3.52563 7.04391 3.52563 6.6297C3.52563 6.21549 3.86142 5.8797 4.27563 5.8797H5.54316L5.83706 5.02192C5.97132 4.63007 6.39781 4.42125 6.78966 4.55551ZM7.75431 7.3797L7.33458 8.60474H6.19508L6.61482 7.3797H7.75431Z" fill="black"/>
</g>
<defs>
<clipPath id="clip0_1068_187524">
<rect width="14" height="14" fill="white"/>
</clipPath>
</defs>
</svg>
