<svg width="14" height="14" viewBox="0 0 14 14" fill="none" xmlns="http://www.w3.org/2000/svg">
<g clip-path="url(#clip0_1068_187476)">
<path fill-rule="evenodd" clip-rule="evenodd" d="M1.54687 2.81527V12.2494C1.54687 12.3623 1.6384 12.4538 1.75131 12.4538H12.2501C12.363 12.4538 12.4545 12.3623 12.4545 12.2494V2.81527H1.54687ZM1.75131 0.0461426C0.809976 0.0461426 0.046875 0.809244 0.046875 1.75058V12.2494C0.046875 13.1907 0.809976 13.9538 1.75131 13.9538H12.2501C13.1914 13.9538 13.9545 13.1907 13.9545 12.2494V1.75058C13.9545 0.809244 13.1914 0.0461426 12.2501 0.0461426H1.75131ZM3.75073 7.74994C3.75073 7.33573 4.08652 6.99994 4.50073 6.99994H6.25073V5.24994C6.25073 4.83573 6.58652 4.49994 7.00073 4.49994C7.41494 4.49994 7.75073 4.83573 7.75073 5.24994V6.99994H9.50073C9.91494 6.99994 10.2507 7.33573 10.2507 7.74994C10.2507 8.16415 9.91494 8.49994 9.50073 8.49994H7.75073V10.2499C7.75073 10.6642 7.41494 10.9999 7.00073 10.9999C6.58652 10.9999 6.25073 10.6642 6.25073 10.2499V8.49994H4.50073C4.08652 8.49994 3.75073 8.16415 3.75073 7.74994Z" fill="black"/>
</g>
<defs>
<clipPath id="clip0_1068_187476">
<rect width="14" height="14" fill="white"/>
</clipPath>
</defs>
</svg>
