<svg width="14" height="14" viewBox="0 0 14 14" fill="none" xmlns="http://www.w3.org/2000/svg">
<g clip-path="url(#clip0_1068_187500)">
<path fill-rule="evenodd" clip-rule="evenodd" d="M1.54687 12.2494V3.31527H12.4545V12.2494C12.4545 12.3623 12.363 12.4538 12.2501 12.4538H1.75131C1.6384 12.4538 1.54687 12.3623 1.54687 12.2494ZM1.75131 0.0461426C0.809976 0.0461426 0.046875 0.809244 0.046875 1.75058V12.2494C0.046875 13.1907 0.809976 13.9538 1.75131 13.9538H12.2501C13.1914 13.9538 13.9545 13.1907 13.9545 12.2494V1.75058C13.9545 0.809244 13.1914 0.0461426 12.2501 0.0461426H1.75131ZM4.4704 5.30048C4.76329 5.00759 5.23817 5.00759 5.53106 5.30048L7.00073 6.77015L8.4704 5.30048C8.76329 5.00759 9.23817 5.00759 9.53106 5.30048C9.82395 5.59337 9.82395 6.06825 9.53106 6.36114L8.06139 7.83081L9.53106 9.30048C9.82395 9.59337 9.82395 10.0682 9.53106 10.3611C9.23817 10.654 8.76329 10.654 8.4704 10.3611L7.00073 8.89147L5.53106 10.3611C5.23817 10.654 4.76329 10.654 4.4704 10.3611C4.17751 10.0682 4.17751 9.59337 4.4704 9.30048L5.94007 7.83081L4.4704 6.36114C4.17751 6.06825 4.17751 5.59337 4.4704 5.30048Z" fill="black"/>
</g>
<defs>
<clipPath id="clip0_1068_187500">
<rect width="14" height="14" fill="white"/>
</clipPath>
</defs>
</svg>
