<svg width="14" height="14" viewBox="0 0 14 14" fill="none" xmlns="http://www.w3.org/2000/svg">
<g clip-path="url(#clip0_1068_187488)">
<path fill-rule="evenodd" clip-rule="evenodd" d="M1.54687 3.31527V12.2494C1.54687 12.3623 1.6384 12.4538 1.75131 12.4538H12.2501C12.363 12.4538 12.4545 12.3623 12.4545 12.2494V3.31527H1.54687ZM1.75131 0.0461426C0.809976 0.0461426 0.046875 0.809244 0.046875 1.75058V12.2494C0.046875 13.1907 0.809976 13.9538 1.75131 13.9538H12.2501C13.1914 13.9538 13.9545 13.1907 13.9545 12.2494V1.75058C13.9545 0.809244 13.1914 0.0461426 12.2501 0.0461426H1.75131ZM7.00073 5.74994C6.51748 5.74994 6.12573 6.14169 6.12573 6.62494V7.12494H7.87573V6.62494C7.87573 6.14169 7.48398 5.74994 7.00073 5.74994ZM4.87573 6.62494V7.34427C4.64711 7.52753 4.50073 7.80914 4.50073 8.12494V10.1249C4.50073 10.6772 4.94845 11.1249 5.50073 11.1249H8.50073C9.05301 11.1249 9.50073 10.6772 9.50073 10.1249V8.12494C9.50073 7.80914 9.35435 7.52753 9.12573 7.34427V6.62494C9.12573 5.45133 8.17433 4.49994 7.00073 4.49994C5.82713 4.49994 4.87573 5.45133 4.87573 6.62494Z" fill="black"/>
</g>
<defs>
<clipPath id="clip0_1068_187488">
<rect width="14" height="14" fill="white"/>
</clipPath>
</defs>
</svg>
