<svg width="14" height="14" viewBox="0 0 14 14" fill="none" xmlns="http://www.w3.org/2000/svg">
<g clip-path="url(#clip0_1068_187482)">
<path fill-rule="evenodd" clip-rule="evenodd" d="M1.59375 7C1.59375 5.77754 1.99949 4.64984 2.68366 3.74423L4.53289 5.59346L4.53256 5.59548L8.73603 9.79895L8.73723 9.7978L10.2558 11.3163C9.35016 12.0005 8.22246 12.4062 7 12.4062C4.01421 12.4062 1.59375 9.98579 1.59375 7ZM7.59747 10.4282L3.44183 6.27253C3.11616 6.35427 2.875 6.64897 2.875 7C2.875 7.41421 3.21079 7.75 3.625 7.75H4.5V8C4.5 8.13848 4.51126 8.27434 4.53291 8.40669L3.57709 9.36251C3.2842 9.65541 3.2842 10.1303 3.57709 10.4232C3.86999 10.7161 4.34486 10.7161 4.63775 10.4232L5.26296 9.79797C5.71273 10.2326 6.32514 10.5 7 10.5C7.20592 10.5 7.40602 10.4751 7.59747 10.4282ZM5.26287 4.20212L3.74433 2.68358C4.64992 1.99946 5.77758 1.59375 7 1.59375C9.98579 1.59375 12.4062 4.01421 12.4062 7C12.4062 8.22242 12.0005 9.35008 11.3164 10.2557L9.46714 8.40639C9.48876 8.27413 9.5 8.13838 9.5 8V7.75H10.3749C10.7891 7.75 11.1249 7.41421 11.1249 7C11.1249 6.58579 10.7891 6.25 10.3749 6.25H9.5V6C9.5 5.86157 9.48875 5.72576 9.46711 5.59345L10.4231 4.63748C10.716 4.34458 10.716 3.86971 10.4231 3.57682C10.1302 3.28392 9.65532 3.28392 9.36242 3.57682L8.73713 4.20211C8.28734 3.76743 7.6749 3.5 7 3.5C6.3251 3.5 5.71265 3.76744 5.26287 4.20212ZM13.9062 7C13.9062 8.90298 13.1366 10.6262 11.8916 11.8753L11.8836 11.8835L11.8754 11.8915C10.6263 13.1365 8.90303 13.9062 7 13.9062C3.18578 13.9062 0.09375 10.8142 0.09375 7C0.09375 3.18578 3.18578 0.09375 7 0.09375C10.8142 0.09375 13.9062 3.18578 13.9062 7Z" fill="black"/>
</g>
<defs>
<clipPath id="clip0_1068_187482">
<rect width="14" height="14" fill="white"/>
</clipPath>
</defs>
</svg>
