<svg width="14" height="14" viewBox="0 0 14 14" fill="none" xmlns="http://www.w3.org/2000/svg">
<g clip-path="url(#clip0_1068_187554)">
<path fill-rule="evenodd" clip-rule="evenodd" d="M5.19908 -6.37362e-05C5.53895 -0.00814938 5.87158 0.0994653 6.14237 0.305269C6.41529 0.51269 6.60894 0.807334 6.69106 1.14015L6.69344 1.14978L6.88531 1.99994H12.4856C12.8834 1.99994 13.265 2.15797 13.5463 2.43928C13.8276 2.72058 13.9856 3.10211 13.9856 3.49994V5.68781C13.2894 5.16479 12.3201 5.15119 11.6072 5.67246C10.9747 5.32552 10.2596 5.13892 9.52521 5.13892C8.79083 5.13892 8.07569 5.32552 7.44318 5.67246C6.62822 5.07654 5.47809 5.17966 4.78406 5.94378C4.10615 6.69016 4.09772 7.80919 4.72332 8.56348C4.16734 8.91872 3.79871 9.54134 3.79871 10.2501C3.79871 10.9588 4.16733 11.5814 4.72331 11.9366C4.58086 12.1084 4.47128 12.2991 4.39499 12.4999H1.51562C1.1178 12.4999 0.736269 12.3419 0.454964 12.0606C0.17366 11.7793 0.015625 11.3978 0.015625 10.9999V1.49994C0.015625 1.10211 0.17366 0.720581 0.454964 0.439276C0.736269 0.157972 1.1178 -6.37362e-05 1.51562 -6.37362e-05H5.19908ZM5.70934 6.78423C5.98784 6.47761 6.46216 6.45481 6.76878 6.7333L7.54987 7.44275C8.0779 6.92771 8.78667 6.63893 9.52521 6.63893C10.2637 6.63893 10.9725 6.92771 11.5005 7.44274L12.2816 6.7333C12.5882 6.45481 13.0625 6.47761 13.341 6.78423C13.6195 7.09084 13.5967 7.56517 13.2901 7.84366L12.2674 8.77253C12.3246 8.99799 12.3542 9.23145 12.3542 9.46797V9.50006H13.2517C13.6659 9.50006 14.0017 9.83585 14.0017 10.2501C14.0017 10.6643 13.6659 11.0001 13.2517 11.0001H12.3543V11.0321C12.3543 11.2687 12.3246 11.5021 12.2674 11.7276L13.2901 12.6565C13.5967 12.935 13.6195 13.4093 13.341 13.7159C13.0625 14.0225 12.5882 14.0453 12.2816 13.7668L11.5005 13.0574C10.9725 13.5724 10.2637 13.8612 9.52522 13.8612C8.78668 13.8612 8.07792 13.5724 7.54989 13.0574L6.76878 13.7668C6.46216 14.0453 5.98784 14.0225 5.70934 13.7159C5.43085 13.4093 5.45365 12.935 5.76027 12.6565L6.78298 11.7276C6.7258 11.5021 6.69618 11.2687 6.69618 11.0321V11.0001H5.79871C5.38449 11.0001 5.04871 10.6643 5.04871 10.2501C5.04871 9.83585 5.38449 9.50006 5.79871 9.50006H6.69617V9.46797C6.69617 9.23146 6.72578 8.998 6.78296 8.77255L5.76027 7.84366C5.45365 7.56517 5.43085 7.09084 5.70934 6.78423Z" fill="black"/>
</g>
<defs>
<clipPath id="clip0_1068_187554">
<rect width="14" height="14" fill="white"/>
</clipPath>
</defs>
</svg>
