<svg width="14" height="14" viewBox="0 0 14 14" fill="none" xmlns="http://www.w3.org/2000/svg">
<g clip-path="url(#clip0_1068_187491)">
<path fill-rule="evenodd" clip-rule="evenodd" d="M0 1.5365C0 0.71569 0.679191 0.036499 1.5 0.036499H12.5C13.3208 0.036499 14 0.71569 14 1.5365V4.4565C13.9966 8.5825 11.3897 12.3786 7.54 13.863C7.36625 13.93 7.18311 13.9635 7 13.9635C6.81689 13.9635 6.63375 13.93 6.46 13.863C2.61027 12.3786 0.00341609 8.58291 0 4.45691V1.5365ZM4.82762 4.71162C4.80008 4.85111 4.78564 4.99531 4.78564 5.14288V5.19635C4.74542 5.24988 4.7136 5.31008 4.69213 5.375H4C3.65482 5.375 3.375 5.65482 3.375 6C3.375 6.34518 3.65482 6.625 4 6.625H4.78564V6.85716C4.78564 7.00472 4.80008 7.14892 4.82761 7.28841L3.98653 8.1295C3.74245 8.37357 3.74245 8.7693 3.98653 9.01338C4.2306 9.25746 4.62633 9.25746 4.87041 9.01338L5.4476 8.43619C5.8472 8.82908 6.39526 9.07145 6.99993 9.07145C7.60463 9.07145 8.15271 8.82906 8.55231 8.43614L9.12956 9.01338C9.37363 9.25746 9.76936 9.25746 10.0134 9.01338C10.2575 8.7693 10.2575 8.37357 10.0134 8.1295L9.17226 7.28832C9.19979 7.14886 9.21422 7.00469 9.21422 6.85716V6.625H10.0001C10.3452 6.625 10.6251 6.34518 10.6251 6C10.6251 5.65482 10.3452 5.375 10.0001 5.375H9.30773C9.28626 5.31008 9.25444 5.24988 9.21422 5.19635V5.14287C9.21422 4.99534 9.19979 4.85117 9.17226 4.71171L10.0134 3.87053C10.2575 3.62645 10.2575 3.23072 10.0134 2.98665C9.76936 2.74257 9.37363 2.74257 9.12956 2.98665L8.55231 3.56389C8.1527 3.17098 7.60462 2.92859 6.99993 2.92859C6.39526 2.92859 5.84721 3.17096 5.4476 3.56384L4.87041 2.98665C4.62633 2.74257 4.2306 2.74257 3.98653 2.98665C3.74245 3.23072 3.74245 3.62645 3.98653 3.87053L4.82762 4.71162Z" fill="black"/>
</g>
<defs>
<clipPath id="clip0_1068_187491">
<rect width="14" height="14" fill="white"/>
</clipPath>
</defs>
</svg>
