<svg width="14" height="14" viewBox="0 0 14 14" fill="none" xmlns="http://www.w3.org/2000/svg">
<g clip-path="url(#clip0_1068_187497)">
<path fill-rule="evenodd" clip-rule="evenodd" d="M1.54687 12.2494V3.31527H12.4545V4.17067C12.4545 4.58488 12.7903 4.92067 13.2045 4.92067C13.6187 4.92067 13.9545 4.58488 13.9545 4.17067V1.75058C13.9545 0.809243 13.1914 0.0461426 12.2501 0.0461426H1.75131C0.809976 0.0461426 0.046875 0.809244 0.046875 1.75058V12.2494C0.046875 13.1907 0.809975 13.9538 1.75131 13.9538H3.99681C4.41102 13.9538 4.74681 13.618 4.74681 13.2038C4.74681 12.7896 4.41102 12.4538 3.99681 12.4538H1.75131C1.6384 12.4538 1.54687 12.3623 1.54687 12.2494ZM5.66222 6.78819C5.94072 6.48158 6.41504 6.45878 6.72166 6.73727L7.50275 7.44671C8.03078 6.93168 8.73954 6.6429 9.47809 6.6429C10.2166 6.6429 10.9254 6.93168 11.4534 7.4467L12.2345 6.73727C12.5411 6.45878 13.0154 6.48158 13.2939 6.78819C13.5724 7.09481 13.5496 7.56914 13.243 7.84763L12.2203 8.7765C12.2775 9.00195 12.3071 9.23542 12.3071 9.47194V9.50403H13.2045C13.6187 9.50403 13.9545 9.83982 13.9545 10.254C13.9545 10.6682 13.6187 11.004 13.2045 11.004H12.3071V11.0361C12.3071 11.2726 12.2775 11.5061 12.2203 11.7316L13.243 12.6604C13.5496 12.9389 13.5724 13.4132 13.2939 13.7199C13.0154 14.0265 12.5411 14.0493 12.2345 13.7708L11.4534 13.0614C10.9254 13.5764 10.2166 13.8651 9.4781 13.8651C8.73956 13.8651 8.0308 13.5764 7.50277 13.0613L6.72166 13.7708C6.41504 14.0493 5.94072 14.0265 5.66222 13.7199C5.38373 13.4132 5.40653 12.9389 5.71315 12.6604L6.73586 11.7315C6.67868 11.5061 6.64906 11.2726 6.64906 11.0361V11.004H5.75158C5.33737 11.004 5.00158 10.6682 5.00158 10.254C5.00158 9.83982 5.33737 9.50403 5.75158 9.50403H6.64905V9.47194C6.64905 9.23543 6.67866 9.00196 6.73584 8.77652L5.71315 7.84763C5.40653 7.56914 5.38373 7.09481 5.66222 6.78819Z" fill="black"/>
</g>
<defs>
<clipPath id="clip0_1068_187497">
<rect width="14" height="14" fill="white"/>
</clipPath>
</defs>
</svg>
