<svg width="14" height="14" viewBox="0 0 14 14" fill="none" xmlns="http://www.w3.org/2000/svg">
<g clip-path="url(#clip0_1068_187521)">
<path fill-rule="evenodd" clip-rule="evenodd" d="M1.5 0C1.10218 0 0.720644 0.158035 0.43934 0.43934C0.158035 0.720644 0 1.10218 0 1.5V10.5C0 10.8978 0.158036 11.2794 0.43934 11.5607C0.720644 11.842 1.10218 12 1.5 12H4.66391C4.67928 11.98 4.69507 11.9602 4.71129 11.9406C4.15531 11.5854 3.78669 10.9628 3.78669 10.254C3.78669 9.54533 4.15531 8.92272 4.71129 8.56748C4.08568 7.81319 4.09411 6.69416 4.77202 5.94779C5.46606 5.18366 6.61619 5.08054 7.43115 5.67646C8.06366 5.32952 8.77881 5.14291 9.51319 5.14291C10.0254 5.14291 10.5281 5.23366 11 5.40625V3.5C11 3.36739 10.9474 3.24021 10.8536 3.14645L7.85356 0.146447C7.75979 0.0526784 7.63261 0 7.5 0H1.5ZM5.69733 6.78823C5.97582 6.48161 6.45014 6.45881 6.75676 6.7373L7.53785 7.44675C8.06588 6.93172 8.77465 6.64293 9.51319 6.64293C10.2518 6.64293 10.9605 6.93171 11.4886 7.44674L12.2696 6.7373C12.5763 6.45881 13.0506 6.48161 13.3291 6.78823C13.6076 7.09485 13.5848 7.56917 13.2781 7.84767L12.2555 8.77654C12.3127 9.00199 12.3423 9.23545 12.3423 9.47197V9.50406H13.2397C13.6539 9.50406 13.9897 9.83985 13.9897 10.2541C13.9897 10.6683 13.6539 11.0041 13.2397 11.0041H12.3423V11.0361C12.3423 11.2727 12.3127 11.5061 12.2555 11.7316L13.2781 12.6605C13.5848 12.939 13.6076 13.4133 13.3291 13.7199C13.0506 14.0265 12.5763 14.0493 12.2696 13.7708L11.4886 13.0614C10.9605 13.5764 10.2518 13.8652 9.5132 13.8652C8.77466 13.8652 8.0659 13.5764 7.53787 13.0614L6.75676 13.7708C6.45014 14.0493 5.97582 14.0265 5.69733 13.7199C5.41883 13.4133 5.44163 12.939 5.74825 12.6605L6.77096 11.7316C6.71378 11.5061 6.68416 11.2727 6.68416 11.0361V11.0041H5.78669C5.37247 11.0041 5.03669 10.6683 5.03669 10.2541C5.03669 9.83985 5.37247 9.50406 5.78669 9.50406H6.68415V9.47198C6.68415 9.23546 6.71376 9.002 6.77094 8.77655L5.74825 7.84767C5.44163 7.56917 5.41883 7.09485 5.69733 6.78823Z" fill="black"/>
</g>
<defs>
<clipPath id="clip0_1068_187521">
<rect width="14" height="14" fill="white"/>
</clipPath>
</defs>
</svg>
