<svg width="14" height="14" viewBox="0 0 14 14" fill="none" xmlns="http://www.w3.org/2000/svg">
<g clip-path="url(#clip0_1068_187494)">
<path fill-rule="evenodd" clip-rule="evenodd" d="M10.1351 1.71069C10.1352 1.29648 9.79954 0.960583 9.38533 0.960449C8.97112 0.960316 8.63522 1.29599 8.63509 1.71021C8.635 1.99831 8.55875 2.28128 8.41408 2.53043C8.30426 2.71957 8.15797 2.88412 7.98442 3.01494C7.66616 2.95222 7.33718 2.91934 7.00053 2.91934C6.66389 2.91934 6.33493 2.95222 6.01668 3.01493C5.84314 2.88412 5.69685 2.71957 5.58703 2.53043C5.44237 2.28128 5.36612 1.99831 5.36603 1.71021C5.3659 1.29599 5.03 0.960316 4.61579 0.960449C4.20157 0.960583 3.8659 1.29648 3.86603 1.71069C3.86621 2.26319 4.01242 2.80584 4.28985 3.28363C4.35063 3.38832 4.41724 3.48907 4.48925 3.58548C4.01177 3.85896 3.58313 4.20803 3.21964 4.61637C2.99325 4.44884 2.74935 4.30489 2.49163 4.1873C1.96024 3.94484 1.38269 3.82019 0.7986 3.82189C0.384388 3.82309 0.0495797 4.15985 0.0507845 4.57406C0.0519893 4.98828 0.388751 5.32308 0.802963 5.32188C1.17073 5.32081 1.53439 5.3993 1.86897 5.55196C2.05806 5.63824 2.23534 5.74705 2.39712 5.87563C2.21281 6.27824 2.07978 6.70922 2.00635 7.16022H0.800781C0.386568 7.16022 0.0507814 7.496 0.0507814 7.91022C0.0507814 8.32443 0.386568 8.66022 0.800781 8.66022H1.98576C2.04799 9.123 2.17278 9.56597 2.35133 9.98031C2.20208 10.0935 2.04038 10.1902 1.86897 10.2684C1.53439 10.4211 1.17073 10.4996 0.802963 10.4985C0.388751 10.4973 0.0519893 10.8321 0.0507845 11.2463C0.0495797 11.6605 0.384388 11.9973 0.7986 11.9985C1.38269 12.0002 1.96024 11.8756 2.49163 11.6331C2.72148 11.5282 2.94034 11.4024 3.14558 11.2575C4.07374 12.348 5.45635 13.0397 7.00053 13.0397C8.5447 13.0397 9.92732 12.348 10.8555 11.2575C11.0607 11.4024 11.2796 11.5282 11.5094 11.6331C12.0408 11.8756 12.6184 12.0002 13.2025 11.9985C13.6167 11.9973 13.9515 11.6605 13.9503 11.2463C13.9491 10.8321 13.6123 10.4973 13.1981 10.4985C12.8303 10.4996 12.4667 10.4211 12.1321 10.2684C11.9607 10.1902 11.799 10.0935 11.6497 9.9803C11.8283 9.56596 11.953 9.123 12.0153 8.66022H13.2003C13.6145 8.66022 13.9503 8.32443 13.9503 7.91022C13.9503 7.496 13.6145 7.16022 13.2003 7.16022H11.9947C11.9213 6.70923 11.7882 6.27825 11.6039 5.87564C11.7657 5.74705 11.943 5.63824 12.1321 5.55196C12.4667 5.3993 12.8303 5.32081 13.1981 5.32188C13.6123 5.32308 13.9491 4.98828 13.9503 4.57406C13.9515 4.15985 13.6167 3.82309 13.2025 3.82189C12.6184 3.82019 12.0408 3.94484 11.5094 4.1873C11.2517 4.30489 11.0078 4.44885 10.7814 4.61638C10.4179 4.20805 9.98931 3.85899 9.51184 3.58551C9.58386 3.48909 9.65048 3.38833 9.71127 3.28363C9.9887 2.80584 10.1349 2.2632 10.1351 1.71069ZM7.00053 4.41934C8.42425 4.41934 9.65277 5.25505 10.2223 6.46268H3.77873C4.34828 5.25505 5.57681 4.41934 7.00053 4.41934Z" fill="black"/>
</g>
<defs>
<clipPath id="clip0_1068_187494">
<rect width="14" height="14" fill="white"/>
</clipPath>
</defs>
</svg>
