<svg width="14" height="14" viewBox="0 0 14 14" fill="none" xmlns="http://www.w3.org/2000/svg">
<g clip-path="url(#clip0_1068_187530)">
<path fill-rule="evenodd" clip-rule="evenodd" d="M7.88381 0.0461506C6.89196 -0.0740743 5.88886 0.149364 5.04181 0.679205C4.25349 1.17231 3.64467 1.90305 3.30135 2.76333C2.87262 2.81063 2.45508 2.93273 2.06781 3.12448C1.63324 3.33964 1.24531 3.6383 0.92616 4.00339C0.281611 4.74072 -0.0436335 5.7039 0.0219743 6.68103C0.087582 7.65817 0.538668 8.56922 1.276 9.21377C1.65665 9.54652 2.0975 9.79417 2.56938 9.94688C2.94227 7.83768 4.78428 6.2356 7.00049 6.2356C7.83809 6.2356 8.62328 6.46516 9.29511 6.86401C9.9511 6.6166 10.7016 6.72872 11.261 7.18275C11.9244 7.72127 12.1725 8.62183 11.8783 9.42412L11.6719 9.98686C12.1297 9.85166 12.5555 9.6156 12.9162 9.29154C13.5042 8.76317 13.878 8.03754 13.9669 7.25205C14.0558 6.46655 13.8536 5.67572 13.3985 5.02931C12.9811 4.43631 12.3775 4.0026 11.6866 3.79503C11.5613 2.87174 11.1436 2.0108 10.4923 1.33987C9.79633 0.622997 8.87567 0.166376 7.88381 0.0461506ZM7.00049 8.9856C6.03399 8.9856 5.25049 9.7691 5.25049 10.7356C5.25049 11.7021 6.03399 12.4856 7.00049 12.4856C7.4329 12.4856 7.82698 12.3297 8.13251 12.0702C8.44821 11.8021 8.92152 11.8406 9.18968 12.1563C9.45783 12.472 9.41929 12.9453 9.10359 13.2135C8.53712 13.6946 7.80182 13.9856 7.00049 13.9856C5.20556 13.9856 3.75049 12.5305 3.75049 10.7356C3.75049 8.94067 5.20556 7.4856 7.00049 7.4856C7.85183 7.4856 8.62627 7.81271 9.20547 8.34805L9.60299 8.0996C9.87473 7.92976 10.2244 7.95133 10.4732 8.15328C10.722 8.35522 10.815 8.69293 10.7047 8.99379L10.1592 10.4813C10.1492 10.5102 10.1374 10.5383 10.124 10.5656C10.0883 10.6386 10.0417 10.7039 9.98673 10.76C9.90183 10.847 9.79509 10.9142 9.67282 10.9519C9.61676 10.9694 9.55835 10.9803 9.49868 10.9841C9.43313 10.9884 9.36852 10.984 9.30616 10.9718L7.87306 10.7247C7.56657 10.6718 7.32449 10.4353 7.26455 10.1301C7.20461 9.82495 7.33925 9.51443 7.60299 9.3496L7.84144 9.20057C7.59177 9.06353 7.30512 8.9856 7.00049 8.9856Z" fill="black"/>
</g>
<defs>
<clipPath id="clip0_1068_187530">
<rect width="14" height="14" fill="white"/>
</clipPath>
</defs>
</svg>
