<svg width="14" height="14" viewBox="0 0 14 14" fill="none" xmlns="http://www.w3.org/2000/svg">
<g clip-path="url(#clip0_1068_187515)">
<path fill-rule="evenodd" clip-rule="evenodd" d="M7.88381 0.0461506C6.89196 -0.0740743 5.88886 0.149364 5.04181 0.679205C4.25349 1.17231 3.64467 1.90305 3.30135 2.76333C2.87262 2.81063 2.45508 2.93273 2.06781 3.12448C1.63324 3.33964 1.24531 3.6383 0.92616 4.00339C0.281612 4.74072 -0.0436335 5.7039 0.0219743 6.68103C0.0875819 7.65817 0.538668 8.56922 1.276 9.21377C1.58948 9.4878 1.94378 9.70411 2.32261 9.85721C2.60684 8.64124 3.6979 7.7356 5.00049 7.7356C5.33803 7.7356 5.66218 7.79683 5.96176 7.90865L6.36178 7.70864C6.69704 6.5682 7.75153 5.7356 9.00049 5.7356C10.5193 5.7356 11.7505 6.96681 11.7505 8.4856C11.7505 9.08125 11.5611 9.63267 11.2393 10.0829C11.8602 9.98918 12.4441 9.71576 12.9162 9.29154C13.5042 8.76317 13.878 8.03754 13.9669 7.25205C14.0558 6.46655 13.8536 5.67572 13.3985 5.02931C12.9811 4.43631 12.3775 4.0026 11.6866 3.79503C11.5613 2.87174 11.1436 2.0108 10.4923 1.33987C9.79633 0.622997 8.87567 0.166376 7.88381 0.0461506ZM9.00049 6.9856C8.17206 6.9856 7.50049 7.65717 7.50049 8.4856C7.50049 8.5026 7.50077 8.51954 7.50133 8.5364L5.94066 9.31674C5.68346 9.10959 5.35645 8.9856 5.00049 8.9856C4.17206 8.9856 3.50049 9.65717 3.50049 10.4856C3.50049 11.314 4.17206 11.9856 5.00049 11.9856C5.35645 11.9856 5.68346 11.8616 5.94066 11.6545L7.50133 12.4348C7.50077 12.4517 7.50049 12.4686 7.50049 12.4856C7.50049 13.314 8.17206 13.9856 9.00049 13.9856C9.82892 13.9856 10.5005 13.314 10.5005 12.4856C10.5005 11.6572 9.82892 10.9856 9.00049 10.9856C8.64453 10.9856 8.31752 11.1096 8.06032 11.3167L6.49965 10.5364C6.50021 10.5195 6.50049 10.5026 6.50049 10.4856C6.50049 10.4686 6.50021 10.4517 6.49965 10.4348L8.06032 9.65445C8.31752 9.8616 8.64453 9.9856 9.00049 9.9856C9.82892 9.9856 10.5005 9.31402 10.5005 8.4856C10.5005 7.65717 9.82892 6.9856 9.00049 6.9856Z" fill="black"/>
</g>
<defs>
<clipPath id="clip0_1068_187515">
<rect width="14" height="14" fill="white"/>
</clipPath>
</defs>
</svg>
