<svg width="14" height="14" viewBox="0 0 14 14" fill="none" xmlns="http://www.w3.org/2000/svg">
<path fill-rule="evenodd" clip-rule="evenodd" d="M6.98004 0.0693359C5.6592 0.0693359 4.35565 0.379558 3.14762 0.976877C2.77631 1.16047 2.62414 1.6103 2.80774 1.98161C2.99133 2.35291 3.44116 2.50508 3.81247 2.32149C4.81971 1.82345 5.89634 1.56934 6.98004 1.56934C8.06375 1.56934 9.14038 1.82345 10.1477 2.32149C10.519 2.50508 10.9688 2.35291 11.1524 1.98161C11.336 1.6103 11.1838 1.16047 10.8125 0.976877C9.60443 0.379558 8.30089 0.0693359 6.98004 0.0693359ZM9.07763 2.8179C7.73314 2.2471 6.26703 2.2471 4.92255 2.8179C4.54127 2.97977 4.36341 3.42008 4.52528 3.80135C4.68715 4.18263 5.12745 4.36049 5.50873 4.19862C6.47861 3.78686 7.52156 3.78686 8.49144 4.19862C8.87272 4.36049 9.31303 4.18263 9.47489 3.80135C9.63676 3.42008 9.4589 2.97977 9.07763 2.8179ZM5.30866 5.8809C6.03731 5.42512 6.9002 5.23291 7.75342 5.33633C8.60664 5.43975 9.39862 5.83255 9.99728 6.44922C10.5459 7.01425 10.9017 7.73595 11.0175 8.51125C11.5961 8.69654 12.1008 9.06585 12.4528 9.56585C12.8471 10.126 13.0223 10.8113 12.9453 11.492C12.8682 12.1727 12.5443 12.8016 12.0347 13.2595C11.5252 13.7173 10.8654 13.9725 10.1804 13.9766H10.1774H4.42196C3.58416 14.0282 2.75949 13.7474 2.12717 13.1947C1.49046 12.6381 1.10093 11.8514 1.04428 11.0076C0.987622 10.1638 1.26848 9.33206 1.82507 8.69535C2.10066 8.38008 2.43565 8.12219 2.81092 7.93638C3.1312 7.77781 3.47546 7.67439 3.82921 7.63005C4.12752 6.90896 4.6439 6.29671 5.30866 5.8809Z" fill="black"/>
</svg>
