<svg width="14" height="14" viewBox="0 0 14 14" fill="none" xmlns="http://www.w3.org/2000/svg">
<g clip-path="url(#clip0_1068_187536)">
<path fill-rule="evenodd" clip-rule="evenodd" d="M5.04181 0.747564C5.88886 0.217723 6.89196 -0.00571489 7.88381 0.11451C8.87567 0.234735 9.79633 0.691356 10.4923 1.40823C11.1436 2.07916 11.5613 2.9401 11.6866 3.86339C12.3775 4.07096 12.9811 4.50466 13.3985 5.09767C13.8536 5.74408 14.0558 6.53491 13.9669 7.32041C13.878 8.1059 13.5042 8.83153 12.9162 9.3599C12.6147 9.6308 12.2677 9.8402 11.8945 9.98059C11.7179 7.43167 9.59428 5.41875 7.0005 5.41875C4.45599 5.41875 2.36394 7.35591 2.11866 9.8359C1.81639 9.69197 1.53253 9.50637 1.276 9.28213C0.538668 8.63758 0.087582 7.72653 0.0219743 6.74939C-0.0436335 5.77225 0.281611 4.80908 0.92616 4.07175C1.24531 3.70666 1.63324 3.408 2.06781 3.19284C2.45508 3.00109 2.87262 2.87899 3.30135 2.83169C3.64467 1.97141 4.25349 1.24066 5.04181 0.747564ZM7.00052 8.19757C8.17525 8.19757 9.12757 9.14988 9.12757 10.3246C9.12757 10.6375 9.06002 10.9346 8.93871 11.2021L6.12304 8.38643C6.39056 8.26512 6.68765 8.19757 7.00052 8.19757ZM4.4839 7.7127C4.46681 7.72699 4.45021 7.74216 4.43416 7.75821C4.41811 7.77426 4.40294 7.79085 4.38866 7.80794C3.76005 8.46016 3.37347 9.34724 3.37347 10.3246C3.37347 12.3278 4.99735 13.9517 7.00052 13.9517C7.97767 13.9517 8.86458 13.5653 9.51676 12.9369C9.53401 12.9225 9.55076 12.9072 9.56695 12.891C9.58315 12.8748 9.59845 12.8581 9.61286 12.8408C10.2412 12.1886 10.6276 11.3017 10.6276 10.3246C10.6276 8.32146 9.00368 6.69757 7.00052 6.69757C6.02317 6.69757 5.13612 7.08413 4.4839 7.7127ZM7.87807 12.2628C7.61052 12.3841 7.31341 12.4517 7.00052 12.4517C5.82578 12.4517 4.87347 11.4994 4.87347 10.3246C4.87347 10.0117 4.94103 9.71461 5.06236 9.44707L7.87807 12.2628Z" fill="black"/>
</g>
<defs>
<clipPath id="clip0_1068_187536">
<rect width="14" height="14" fill="white"/>
</clipPath>
</defs>
</svg>
