<svg width="14" height="14" viewBox="0 0 14 14" fill="none" xmlns="http://www.w3.org/2000/svg">
<g clip-path="url(#clip0_1068_187563)">
<path fill-rule="evenodd" clip-rule="evenodd" d="M7.88381 0.11451C6.89196 -0.00571489 5.88886 0.217723 5.04181 0.747564C4.25349 1.24066 3.64467 1.97141 3.30135 2.83169C2.87262 2.87899 2.45508 3.00109 2.06781 3.19284C1.63324 3.408 1.24531 3.70666 0.92616 4.07175C0.281611 4.80908 -0.0436335 5.77225 0.0219743 6.74939C0.087582 7.72653 0.538668 8.63758 1.276 9.28213C1.37819 9.37146 1.48472 9.45466 1.59503 9.53153C1.48937 8.91359 1.67505 8.25554 2.15207 7.77852L4.15207 5.77852C4.72407 5.20652 5.5843 5.03541 6.33165 5.34497C6.58837 5.45131 6.81439 5.60716 7.00053 5.79876C7.36392 5.42496 7.87219 5.19273 8.43469 5.19273C9.53926 5.19273 10.4347 6.08816 10.4347 7.19273V9.19273C10.9465 9.19273 11.4584 9.388 11.8489 9.77852C11.901 9.8306 11.9496 9.88485 11.9947 9.94096C12.3299 9.80196 12.6419 9.60638 12.9162 9.3599C13.5042 8.83153 13.878 8.1059 13.9669 7.32041C14.0558 6.53491 13.8536 5.74408 13.3985 5.09767C12.9811 4.50466 12.3775 4.07096 11.6866 3.86339C11.5613 2.9401 11.1436 2.07916 10.4923 1.40823C9.79633 0.691356 8.87567 0.234735 7.88381 0.11451ZM5.8533 6.49982C6.13355 6.61591 6.31629 6.88939 6.31629 7.19273V13.1927C6.31629 13.6069 5.9805 13.9427 5.56629 13.9427C5.15207 13.9427 4.81629 13.6069 4.81629 13.1927V9.00339L4.09662 9.72306C3.80372 10.016 3.32885 10.016 3.03596 9.72306C2.74306 9.43017 2.74306 8.9553 3.03596 8.6624L5.03596 6.6624C5.25045 6.44791 5.57304 6.38374 5.8533 6.49982ZM9.18469 7.19273C9.18469 6.77852 8.84891 6.44273 8.43469 6.44273C8.02048 6.44273 7.68469 6.77852 7.68469 7.19273V13.1927C7.68469 13.4961 7.86743 13.7696 8.14768 13.8856C8.42794 14.0017 8.75053 13.9376 8.96502 13.7231L10.965 11.7231C11.2579 11.4302 11.2579 10.9553 10.965 10.6624C10.6721 10.3695 10.1973 10.3695 9.90436 10.6624L9.18469 11.3821V7.19273Z" fill="black"/>
</g>
<defs>
<clipPath id="clip0_1068_187563">
<rect width="14" height="14" fill="white"/>
</clipPath>
</defs>
</svg>
