<svg width="14" height="14" viewBox="0 0 14 14" fill="none" xmlns="http://www.w3.org/2000/svg">
<g clip-path="url(#clip0_1068_187527)">
<path fill-rule="evenodd" clip-rule="evenodd" d="M7.88381 0.11451C6.89196 -0.00571489 5.88886 0.217723 5.04181 0.747564C4.25349 1.24066 3.64467 1.97141 3.30135 2.83169C2.87262 2.87899 2.45508 3.00109 2.06781 3.19284C1.63324 3.408 1.24531 3.70666 0.92616 4.07175C0.281611 4.80908 -0.0436335 5.77225 0.0219743 6.74939C0.087582 7.72653 0.538668 8.63758 1.276 9.28213C1.59149 9.55791 1.94832 9.77524 2.3299 9.92851C2.35227 9.8946 2.37579 9.86116 2.40049 9.82823C3.06323 8.94457 4.31683 8.76549 5.20049 9.42823L5.72828 9.82407L8.50567 6.6995C9.23951 5.87394 10.5037 5.79957 11.3292 6.53341C12.1548 7.26725 12.2292 8.53139 11.4953 9.35696L10.7571 10.1874H10.7734H10.7764C11.5669 10.1827 12.3282 9.88827 12.9162 9.3599C13.5042 8.83153 13.878 8.1059 13.9669 7.32041C14.0558 6.53491 13.8536 5.74408 13.3985 5.09767C12.9811 4.50466 12.3775 4.07096 11.6866 3.86339C11.5613 2.9401 11.1436 2.07916 10.4923 1.40823C9.79633 0.691356 8.87567 0.234735 7.88381 0.11451ZM10.5611 8.5265C10.8362 8.21691 10.8084 7.74286 10.4988 7.46767C10.1892 7.19248 9.71512 7.22037 9.43993 7.52996L5.89841 11.5142L4.45049 10.4282C4.11912 10.1797 3.64902 10.2469 3.40049 10.5782C3.15196 10.9096 3.21912 11.3797 3.55049 11.6282L5.55049 13.1282C5.86254 13.3623 6.3019 13.318 6.56105 13.0265L10.5611 8.5265Z" fill="black"/>
</g>
<defs>
<clipPath id="clip0_1068_187527">
<rect width="14" height="14" fill="white"/>
</clipPath>
</defs>
</svg>
