<svg width="14" height="14" viewBox="0 0 14 14" fill="none" xmlns="http://www.w3.org/2000/svg">
<g clip-path="url(#clip0_1068_187545)">
<path fill-rule="evenodd" clip-rule="evenodd" d="M7.88381 0.0461506C6.89196 -0.0740743 5.88886 0.149364 5.04181 0.679205C4.25349 1.17231 3.64467 1.90305 3.30135 2.76333C2.87262 2.81063 2.45508 2.93273 2.06781 3.12448C1.63324 3.33964 1.24531 3.6383 0.92616 4.00339C0.281612 4.74072 -0.0436335 5.7039 0.0219743 6.68103C0.0875819 7.65817 0.538668 8.56922 1.276 9.21377C2.00897 9.8545 2.96512 10.1797 3.93631 10.1191H5.00049V7.13959C5.00049 6.03502 5.89592 5.13959 7.00049 5.13959C8.10506 5.13959 9.00049 6.03502 9.00049 7.13959V10.1191H10.7734H10.7764C11.5669 10.1143 12.3282 9.81991 12.9162 9.29154C13.5042 8.76317 13.878 8.03754 13.9669 7.25205C14.0558 6.46655 13.8536 5.67572 13.3985 5.02931C12.9811 4.43631 12.3775 4.0026 11.6866 3.79503C11.5613 2.87174 11.1436 2.0108 10.4923 1.33987C9.79633 0.622997 8.87567 0.166376 7.88381 0.0461506ZM7.00049 6.38959C7.4147 6.38959 7.75049 6.72537 7.75049 7.13959V10.6396C7.75049 11.0538 7.4147 11.3896 7.00049 11.3896C6.58628 11.3896 6.25049 11.0538 6.25049 10.6396V7.13959C6.25049 6.72537 6.58628 6.38959 7.00049 6.38959ZM8.00049 12.9856C8.00049 13.5379 7.55277 13.9856 7.00049 13.9856C6.44821 13.9856 6.00049 13.5379 6.00049 12.9856C6.00049 12.4333 6.44821 11.9856 7.00049 11.9856C7.55277 11.9856 8.00049 12.4333 8.00049 12.9856Z" fill="black"/>
</g>
<defs>
<clipPath id="clip0_1068_187545">
<rect width="14" height="14" fill="white"/>
</clipPath>
</defs>
</svg>
