<svg width="14" height="14" viewBox="0 0 14 14" fill="none" xmlns="http://www.w3.org/2000/svg">
<g clip-path="url(#clip0_1068_187539)">
<path fill-rule="evenodd" clip-rule="evenodd" d="M1.51562 6.35936C1.51562 3.68424 3.68423 1.51562 6.35935 1.51562C9.03447 1.51562 11.2031 3.68424 11.2031 6.35936C11.2031 9.03448 9.03447 11.2031 6.35935 11.2031C3.68423 11.2031 1.51562 9.03448 1.51562 6.35936ZM6.35935 0.015625C2.85581 0.015625 0.015625 2.85581 0.015625 6.35936C0.015625 9.8629 2.85581 12.7031 6.35935 12.7031C7.75028 12.7031 9.03665 12.2554 10.0823 11.4963L12.2774 13.6915C12.6679 14.082 13.3011 14.082 13.6916 13.6915C14.0822 13.3009 14.0822 12.6678 13.6916 12.2773L11.4965 10.0821C12.2555 9.03654 12.7031 7.75022 12.7031 6.35936C12.7031 2.85581 9.8629 0.015625 6.35935 0.015625ZM5.61383 4.04243C5.85791 4.28651 5.85791 4.68224 5.61383 4.92632L4.05577 6.48438L5.61383 8.04243C5.85791 8.28651 5.85791 8.68224 5.61383 8.92632C5.36975 9.17039 4.97402 9.17039 4.72995 8.92632L2.72995 6.92632C2.48587 6.68224 2.48587 6.28651 2.72995 6.04243L4.72995 4.04243C4.97402 3.79836 5.36975 3.79836 5.61383 4.04243ZM8.11383 4.04243C7.86975 3.79836 7.47402 3.79836 7.22995 4.04243C6.98587 4.28651 6.98587 4.68224 7.22995 4.92632L8.788 6.48438L7.22995 8.04243C6.98587 8.28651 6.98587 8.68224 7.22995 8.92632C7.47402 9.17039 7.86975 9.17039 8.11383 8.92632L10.1139 6.92632C10.358 6.68224 10.358 6.28651 10.1139 6.04243L8.11383 4.04243Z" fill="black"/>
</g>
<defs>
<clipPath id="clip0_1068_187539">
<rect width="14" height="14" fill="white"/>
</clipPath>
</defs>
</svg>
