<svg width="14" height="14" viewBox="0 0 14 14" fill="none" xmlns="http://www.w3.org/2000/svg">
<g clip-path="url(#clip0_1068_187566)">
<path fill-rule="evenodd" clip-rule="evenodd" d="M2 2.5V9.00001H6.39734V2.5H2ZM12 7.41268L10.4073 6.04C10.1614 5.83589 9.85192 5.72417 9.53234 5.72417C9.21277 5.72417 8.90325 5.83589 8.65734 6.04L7.77734 6.75C7.74487 6.76623 7.71691 6.79025 7.69597 6.81992C7.67504 6.84958 7.66176 6.88396 7.65734 6.92V9L12 9.00001V7.41268ZM0 1.95679C0 1.15223 0.652229 0.5 1.45679 0.5H12.5432C13.3478 0.5 14 1.15223 14 1.95679V9.54321C14 10.3478 13.3478 11 12.5432 11H8.51694L9.05214 12.4954H9.99998C10.4142 12.4954 10.75 12.8312 10.75 13.2454C10.75 13.6596 10.4142 13.9954 9.99998 13.9954H3.99998C3.58577 13.9954 3.24998 13.6596 3.24998 13.2454C3.24998 12.8312 3.58577 12.4954 3.99998 12.4954H4.94786L5.48306 11H1.45679C0.65223 11 0 10.3478 0 9.54321V1.95679ZM4.77648 3.87012H3.02648C2.8594 3.87012 2.69916 3.93649 2.58101 4.05464C2.46286 4.17279 2.39648 4.33303 2.39648 4.50012C2.39648 4.6672 2.46286 4.82745 2.58101 4.94559C2.69916 5.06374 2.8594 5.13012 3.02648 5.13012H4.77648C4.94357 5.13012 5.10381 5.06374 5.22196 4.94559C5.34011 4.82745 5.40648 4.6672 5.40648 4.50012C5.40648 4.33303 5.34011 4.17279 5.22196 4.05464C5.10381 3.93649 4.94357 3.87012 4.77648 3.87012ZM3.02648 6.37012H4.02648C4.19357 6.37012 4.35381 6.43649 4.47196 6.55464C4.59011 6.67279 4.65648 6.83303 4.65648 7.00012C4.65648 7.1672 4.59011 7.32745 4.47196 7.44559C4.35381 7.56374 4.19357 7.63012 4.02648 7.63012H3.02648C2.8594 7.63012 2.69916 7.56374 2.58101 7.44559C2.46286 7.32745 2.39648 7.1672 2.39648 7.00012C2.39648 6.83303 2.46286 6.67279 2.58101 6.55464C2.69916 6.43649 2.8594 6.37012 3.02648 6.37012Z" fill="black"/>
</g>
<defs>
<clipPath id="clip0_1068_187566">
<rect width="14" height="14" fill="white"/>
</clipPath>
</defs>
</svg>
