<svg width="14" height="14" viewBox="0 0 14 14" fill="none" xmlns="http://www.w3.org/2000/svg">
<g clip-path="url(#clip0_1068_187548)">
<path fill-rule="evenodd" clip-rule="evenodd" d="M0.119878 0.175185C0.214873 0.064014 0.353774 0 0.500004 0H13.5C13.6462 0 13.7851 0.064014 13.8801 0.175185C13.9751 0.286356 14.0167 0.433541 13.9939 0.577981L12.4939 10.078C12.4727 10.2121 12.3979 10.3318 12.2867 10.4096L7.28674 13.9096C7.11457 14.0301 6.88543 14.0301 6.71327 13.9096L1.71327 10.4096C1.60207 10.3318 1.52729 10.2121 1.50612 10.078L0.00612213 0.577981C-0.0166842 0.433541 0.0248832 0.286356 0.119878 0.175185ZM4.20038 2.46289C3.8552 2.46289 3.57538 2.74271 3.57538 3.08789C3.57538 3.43307 3.8552 3.71289 4.20038 3.71289H7.62034L4.98897 5.3575C4.75253 5.50527 4.64258 5.79179 4.71944 6.0598C4.79631 6.32781 5.0414 6.5125 5.32022 6.5125H8.61467V8.3746L6.99999 9.58562L5.1353 8.1871C4.85916 7.98 4.46741 8.03596 4.2603 8.3121C4.05319 8.58825 4.10916 8.98 4.3853 9.1871L6.62499 10.8669C6.84721 11.0335 7.15276 11.0335 7.37499 10.8669L9.61467 9.1871C9.77205 9.06907 9.86467 8.88383 9.86467 8.6871V5.8875C9.86467 5.54232 9.58485 5.2625 9.23967 5.2625H7.49947L10.1308 3.61789C10.3673 3.47012 10.4772 3.1836 10.4004 2.91559C10.3235 2.64758 10.0784 2.46289 9.79959 2.46289H4.20038Z" fill="black"/>
</g>
<defs>
<clipPath id="clip0_1068_187548">
<rect width="14" height="14" fill="white"/>
</clipPath>
</defs>
</svg>
