<svg width="14" height="14" viewBox="0 0 14 14" fill="none" xmlns="http://www.w3.org/2000/svg">
<path fill-rule="evenodd" clip-rule="evenodd" d="M5.59149 0.375C4.625 0.375 3.84149 1.1585 3.84149 2.125V4.89484C3.84149 5.32075 3.62464 5.71734 3.26608 5.94719L2.46244 6.46234C2.2473 6.60025 2.11719 6.83821 2.11719 7.09375C2.11719 7.34929 2.2473 7.58725 2.46244 7.72516L3.26608 8.24031C3.62464 8.47016 3.84149 8.86676 3.84149 9.29266V12.0625C3.84149 13.029 4.625 13.8125 5.59149 13.8125H5.97737C6.39159 13.8125 6.72737 13.4767 6.72737 13.0625C6.72737 12.6483 6.39159 12.3125 5.97737 12.3125H5.59149C5.45342 12.3125 5.34149 12.2006 5.34149 12.0625V9.29266C5.34149 8.42394 4.9314 7.61064 4.24298 7.09375C4.9314 6.57686 5.34149 5.76356 5.34149 4.89484V2.125C5.34149 1.98693 5.45342 1.875 5.59149 1.875H5.97737C6.39159 1.875 6.72737 1.53921 6.72737 1.125C6.72737 0.710786 6.39159 0.375 5.97737 0.375H5.59149ZM8.75226 0.375C9.71876 0.375 10.5023 1.1585 10.5023 2.125V4.89484C10.5023 5.32075 10.7191 5.71734 11.0777 5.94719L11.8813 6.46234C12.0965 6.60025 12.2266 6.83821 12.2266 7.09375C12.2266 7.34929 12.0965 7.58725 11.8813 7.72516L11.0777 8.24031C10.7191 8.47016 10.5023 8.86676 10.5023 9.29266V12.0625C10.5023 13.029 9.71876 13.8125 8.75226 13.8125H8.36638C7.95217 13.8125 7.61638 13.4767 7.61638 13.0625C7.61638 12.6483 7.95217 12.3125 8.36638 12.3125H8.75226C8.89033 12.3125 9.00226 12.2006 9.00226 12.0625V9.29266C9.00226 8.42394 9.41235 7.61064 10.1008 7.09375C9.41235 6.57686 9.00226 5.76356 9.00226 4.89484V2.125C9.00226 1.98693 8.89033 1.875 8.75226 1.875H8.36638C7.95217 1.875 7.61638 1.53921 7.61638 1.125C7.61638 0.710786 7.95217 0.375 8.36638 0.375H8.75226Z" fill="black"/>
</svg>
