<svg width="14" height="14" viewBox="0 0 14 14" fill="none" xmlns="http://www.w3.org/2000/svg">
<path fill-rule="evenodd" clip-rule="evenodd" d="M1.43934 0.43934C1.72064 0.158035 2.10218 0 2.5 0H8.5C8.63261 0 8.75979 0.0526784 8.85355 0.146447L12.8536 4.14645C12.9473 4.24021 13 4.36739 13 4.5V12.5C13 12.8978 12.842 13.2794 12.5607 13.5607C12.2794 13.842 11.8978 14 11.5 14H2.5C2.10217 14 1.72064 13.842 1.43934 13.5607C1.15804 13.2794 1 12.8978 1 12.5V1.5C1 1.10218 1.15804 0.720644 1.43934 0.43934ZM6.03033 5.96967C6.32322 6.26256 6.32322 6.73744 6.03033 7.03033L4.56066 8.5L6.03033 9.96967C6.32322 10.2626 6.32322 10.7374 6.03033 11.0303C5.73744 11.3232 5.26256 11.3232 4.96967 11.0303L2.96967 9.03033C2.67678 8.73744 2.67678 8.26256 2.96967 7.96967L4.96967 5.96967C5.26256 5.67678 5.73744 5.67678 6.03033 5.96967ZM7.96967 7.03033C7.67678 6.73744 7.67678 6.26256 7.96967 5.96967C8.26256 5.67678 8.73744 5.67678 9.03033 5.96967L11.0303 7.96967C11.3232 8.26256 11.3232 8.73744 11.0303 9.03033L9.03033 11.0303C8.73744 11.3232 8.26256 11.3232 7.96967 11.0303C7.67678 10.7374 7.67678 10.2626 7.96967 9.96967L9.43934 8.5L7.96967 7.03033Z" fill="black"/>
</svg>
