<svg width="14" height="14" viewBox="0 0 14 14" fill="none" xmlns="http://www.w3.org/2000/svg">
<g clip-path="url(#clip0_1068_187575)">
<path fill-rule="evenodd" clip-rule="evenodd" d="M2.54412 1.21767C2.66125 0.515006 3.2692 0 3.98156 0H10.0178C10.7301 0 11.3381 0.515036 11.4552 1.21773L12.1678 5.49368H13.2219C13.6361 5.49368 13.9719 5.82947 13.9719 6.24368C13.9719 6.65789 13.6361 6.99368 13.2219 6.99368H0.777344C0.36313 6.99368 0.0273438 6.65789 0.0273438 6.24368C0.0273438 5.82947 0.36313 5.49368 0.777344 5.49368H1.83137L2.54412 1.21767ZM8.74963 10.8995C8.74963 10.0708 9.42142 9.39898 10.2501 9.39898C11.0788 9.39898 11.7506 10.0708 11.7506 10.8995C11.7506 11.7282 11.0788 12.4 10.2501 12.4C9.42142 12.4 8.74963 11.7282 8.74963 10.8995ZM10.2501 7.89898C9.1871 7.89898 8.25319 8.45178 7.72019 9.28558C7.50422 9.19559 7.2621 9.14889 6.99819 9.14889C6.73493 9.14889 6.49335 9.19536 6.27779 9.28492C5.7447 8.45156 4.81106 7.89912 3.74838 7.89912C2.09127 7.89912 0.747925 9.24247 0.747925 10.8996C0.747925 12.5567 2.09127 13.9 3.74838 13.9C5.40549 13.9 6.74884 12.5567 6.74884 10.8996V10.8975C6.74969 10.8894 6.75103 10.8789 6.75311 10.8664C6.76055 10.8217 6.77405 10.7736 6.79357 10.7346C6.81162 10.6985 6.82692 10.6852 6.83581 10.6793C6.84098 10.6759 6.88107 10.6489 6.99819 10.6489C7.11532 10.6489 7.15519 10.6757 7.16036 10.6791C7.16926 10.685 7.18476 10.6985 7.20282 10.7346C7.22233 10.7736 7.23583 10.8217 7.24328 10.8664C7.24671 10.887 7.24813 10.9025 7.24866 10.9099L7.24881 10.9122C7.24899 10.9225 7.24936 10.9326 7.24994 10.9427C7.27308 12.5799 8.60744 13.9 10.2501 13.9C11.9072 13.9 13.2506 12.5566 13.2506 10.8995C13.2506 9.24235 11.9072 7.89898 10.2501 7.89898ZM3.74838 9.39912C4.56449 9.39912 5.22842 10.0507 5.24838 10.862L5.24834 10.8632L5.2478 10.8845L5.2477 10.8928L5.24768 10.8963V10.898L5.24884 10.8988L5.24768 10.8995C5.24768 10.911 5.24794 10.9225 5.24846 10.934C5.23018 11.7468 4.56557 12.4 3.74838 12.4C2.9197 12.4 2.24792 11.7283 2.24792 10.8996C2.24792 10.0709 2.9197 9.39912 3.74838 9.39912Z" fill="black"/>
</g>
<defs>
<clipPath id="clip0_1068_187575">
<rect width="14" height="14" fill="white"/>
</clipPath>
</defs>
</svg>
