<svg width="14" height="14" viewBox="0 0 14 14" fill="none" xmlns="http://www.w3.org/2000/svg">
<path fill-rule="evenodd" clip-rule="evenodd" d="M7.15786 1.81787C6.25751 1.81787 5.38445 2.12702 4.68473 2.69361C4.09293 3.17281 3.65546 3.81158 3.42131 4.53002C3.39777 4.531 3.37423 4.5322 3.3507 4.53362C2.92978 4.51219 2.50869 4.57491 2.1121 4.71823C1.70524 4.86527 1.33277 5.09404 1.01765 5.39045C0.702514 5.68685 0.451392 6.04463 0.279738 6.44174C0.108084 6.83885 0.0195312 7.26689 0.0195312 7.69952C0.0195312 8.13214 0.108084 8.56018 0.279738 8.95729C0.451392 9.35441 0.702514 9.71218 1.01765 10.0086C1.33277 10.305 1.70524 10.5338 2.1121 10.6808C2.51397 10.826 2.94099 10.8885 3.36751 10.8645H3.92055V8.16979C3.92055 6.79527 5.43247 5.95731 6.59805 6.68579L10.1176 8.8855C10.8263 9.32845 11.077 10.1522 10.8697 10.8645H10.9728C10.983 10.8645 10.9932 10.8642 11.0034 10.8636C11.8091 10.8142 12.5656 10.4594 13.1186 9.87141C13.6716 9.28345 13.9795 8.50668 13.9795 7.69952C13.9795 6.89235 13.6716 6.11558 13.1186 5.52763C12.5659 4.94005 11.81 4.58527 11.0049 4.53555C10.9681 4.53308 10.9312 4.53113 10.8943 4.5297C10.6601 3.81139 10.2227 3.17274 9.63099 2.69361C8.93127 2.12702 8.05821 1.81787 7.15786 1.81787ZM9.67996 10.4704C9.68168 10.462 9.68318 10.4535 9.68446 10.4449C9.71244 10.2585 9.63598 10.0586 9.45508 9.94553L5.93555 7.74582C5.60253 7.53768 5.17055 7.77711 5.17055 8.16982V12.5692C5.17055 12.962 5.60253 13.2014 5.93555 12.9932L9.45508 10.7935C9.57924 10.7159 9.6542 10.5974 9.67996 10.4704Z" fill="black"/>
</svg>
