<svg width="14" height="14" viewBox="0 0 14 14" fill="none" xmlns="http://www.w3.org/2000/svg">
<g clip-path="url(#clip0_1068_187605)">
<path fill-rule="evenodd" clip-rule="evenodd" d="M14 7C14 10.866 10.866 14 7 14C3.13401 14 0 10.866 0 7C0 3.13401 3.13401 0 7 0C10.866 0 14 3.13401 14 7ZM3.74292 4.375C4.08448 4.375 4.39427 4.57533 4.53442 4.8868L4.99991 5.9214L5.46558 4.88672C5.60574 4.57529 5.91552 4.375 6.25704 4.375C6.73639 4.375 7.12498 4.76359 7.12498 5.24293V9C7.12498 9.34518 6.84515 9.625 6.49998 9.625C6.1548 9.625 5.87498 9.34518 5.87498 9V7.0228L5.85187 7.07414C5.70098 7.40939 5.36751 7.625 4.99987 7.625C4.63218 7.625 4.29868 7.40935 4.14782 7.07404L4.125 7.02332V9C4.125 9.34518 3.84518 9.625 3.5 9.625C3.15482 9.625 2.875 9.34518 2.875 9V5.24292C2.875 4.76358 3.26358 4.375 3.74292 4.375ZM10.125 5C10.125 4.65482 9.84518 4.375 9.5 4.375C9.15482 4.375 8.875 4.65482 8.875 5V7.5H8.5C8.29777 7.5 8.11545 7.62182 8.03806 7.80866C7.96067 7.9955 8.00345 8.21055 8.14645 8.35355L9.14645 9.35355C9.24022 9.44732 9.36739 9.5 9.5 9.5C9.63261 9.5 9.75978 9.44732 9.85355 9.35355L10.8536 8.35355C10.9966 8.21055 11.0393 7.9955 10.9619 7.80866C10.8845 7.62182 10.7022 7.5 10.5 7.5H10.125V5Z" fill="black"/>
</g>
<defs>
<clipPath id="clip0_1068_187605">
<rect width="14" height="14" fill="white"/>
</clipPath>
</defs>
</svg>
