<svg width="14" height="14" viewBox="0 0 14 14" fill="none" xmlns="http://www.w3.org/2000/svg">
<path fill-rule="evenodd" clip-rule="evenodd" d="M2.5 0C2.10218 0 1.72064 0.158035 1.43934 0.43934C1.15804 0.720644 1 1.10218 1 1.5V12.5C1 12.8978 1.15804 13.2794 1.43934 13.5607C1.72064 13.842 2.10217 14 2.5 14H11.5C11.8978 14 12.2794 13.842 12.5607 13.5607C12.842 13.2794 13 12.8978 13 12.5V5.5C13 5.36739 12.9473 5.24021 12.8536 5.14645L7.85355 0.146447C7.75979 0.0526784 7.63261 0 7.5 0H2.5ZM3.74292 5.875C4.08448 5.875 4.39427 6.07533 4.53442 6.3868L4.99991 7.4214L5.46558 6.38672C5.60574 6.07529 5.91552 5.875 6.25704 5.875C6.73639 5.875 7.12498 6.26359 7.12498 6.74293V10.5C7.12498 10.8452 6.84515 11.125 6.49998 11.125C6.1548 11.125 5.87498 10.8452 5.87498 10.5V8.5228L5.85187 8.57414C5.70098 8.90939 5.36751 9.125 4.99987 9.125C4.63218 9.125 4.29868 8.90935 4.14782 8.57404L4.125 8.52332V10.5C4.125 10.8452 3.84518 11.125 3.5 11.125C3.15482 11.125 2.875 10.8452 2.875 10.5V6.74292C2.875 6.26358 3.26358 5.875 3.74292 5.875ZM10.125 6.5C10.125 6.15482 9.84518 5.875 9.5 5.875C9.15482 5.875 8.875 6.15482 8.875 6.5V8.99988H8.5C8.29777 8.99988 8.11545 9.1217 8.03806 9.30854C7.96067 9.49537 8.00345 9.71043 8.14645 9.85343L9.14645 10.8534C9.24022 10.9472 9.36739 10.9999 9.5 10.9999C9.63261 10.9999 9.75978 10.9472 9.85355 10.8534L10.8536 9.85343C10.9966 9.71043 11.0393 9.49537 10.9619 9.30854C10.8845 9.1217 10.7022 8.99988 10.5 8.99988H10.125V6.5Z" fill="black"/>
</svg>
