<svg width="14" height="14" viewBox="0 0 14 14" fill="none" xmlns="http://www.w3.org/2000/svg">
<g clip-path="url(#clip0_1068_187596)">
<path fill-rule="evenodd" clip-rule="evenodd" d="M7.01916 0.25C6.85824 0.25 6.69914 0.284013 6.55228 0.349809C6.41063 0.413276 6.28345 0.504933 6.17849 0.619125L5.04523 1.74619C4.92513 1.49978 4.76296 1.2735 4.5637 1.0784C4.10172 0.617519 3.47577 0.358645 2.82313 0.358645C2.16951 0.358645 1.54265 0.618295 1.08047 1.08047C0.618295 1.54265 0.358645 2.16951 0.358645 2.82313C0.358645 3.47577 0.617519 4.10172 1.0784 4.5637C1.2711 4.76051 1.49421 4.92113 1.7371 5.04078L0.621448 6.13804C0.506175 6.24341 0.413705 6.37135 0.349809 6.51396C0.284013 6.66082 0.25 6.81992 0.25 6.98084C0.25 7.14176 0.284013 7.30086 0.349809 7.44772C0.413381 7.58961 0.505238 7.71697 0.619696 7.82203L2.08637 9.28871C2.20078 9.40312 2.36347 9.45509 2.52301 9.42821C2.68256 9.40132 2.81923 9.2989 2.88982 9.15332C2.96374 9.00088 3.06156 8.86126 3.17958 8.73973C3.45566 8.46266 3.83033 8.30629 4.22153 8.30495C4.61353 8.30361 4.99001 8.45804 5.26814 8.73428C5.54627 9.01051 5.70328 9.38593 5.70463 9.77792C5.70596 10.1685 5.55262 10.5438 5.2782 10.8216C5.15696 10.9391 5.01776 11.0365 4.86584 11.1102C4.72184 11.18 4.61996 11.3145 4.5918 11.4721C4.56364 11.6296 4.6126 11.7911 4.7235 11.9065L6.13582 13.3761C6.24161 13.4925 6.37035 13.5858 6.51396 13.6502C6.66082 13.716 6.81992 13.75 6.98084 13.75C7.14176 13.75 7.30086 13.716 7.44772 13.6502C7.58937 13.5867 7.71653 13.4951 7.8215 13.3809L8.95759 12.251C9.0226 12.3847 9.09985 12.5127 9.18872 12.6335C9.47002 13.0158 9.85576 13.3088 10.2996 13.4771C10.7434 13.6454 11.2263 13.6819 11.6904 13.5823C12.1545 13.4827 12.5799 13.2512 12.9155 12.9155C13.2512 12.5799 13.4827 12.1545 13.5823 11.6904C13.6819 11.2263 13.6454 10.7434 13.4771 10.2996C13.3088 9.85576 13.0158 9.47002 12.6335 9.18872C12.5155 9.10186 12.3904 9.0261 12.2601 8.96202L13.3786 7.86196C13.4938 7.75659 13.5863 7.62865 13.6502 7.48604C13.716 7.33918 13.75 7.18008 13.75 7.01916C13.75 6.85824 13.716 6.69914 13.6502 6.55228C13.5864 6.40983 13.494 6.28203 13.3789 6.17672L11.8922 4.70902C11.7774 4.59575 11.6151 4.54476 11.4562 4.57206C11.2973 4.59937 11.1614 4.70162 11.091 4.84668C11.019 4.99528 10.9242 5.13171 10.8101 5.25106C10.5314 5.49936 10.1686 5.63274 9.79506 5.62388C9.41648 5.61489 9.05589 5.46049 8.78812 5.19272C8.52035 4.92495 8.36595 4.56436 8.35696 4.18577C8.3481 3.81222 8.48148 3.44945 8.72978 3.17072C8.84913 3.05666 8.98556 2.96188 9.13416 2.88982C9.27816 2.81999 9.38003 2.68545 9.4082 2.52791C9.43636 2.37036 9.3874 2.20886 9.2765 2.09347L7.86419 0.623895C7.75839 0.507483 7.62966 0.414157 7.48604 0.349809C7.33918 0.284013 7.18008 0.25 7.01916 0.25Z" fill="black"/>
</g>
<defs>
<clipPath id="clip0_1068_187596">
<rect width="14" height="14" fill="white"/>
</clipPath>
</defs>
</svg>
