<svg width="14" height="14" viewBox="0 0 14 14" fill="none" xmlns="http://www.w3.org/2000/svg">
<g clip-path="url(#clip0_1068_187581)">
<path fill-rule="evenodd" clip-rule="evenodd" d="M4.88 0C4.32772 0 3.88 0.447715 3.88 1V5.25C3.88 5.80228 4.32772 6.25 4.88 6.25H9.13C9.68229 6.25 10.13 5.80228 10.13 5.25V1C10.13 0.447715 9.68229 0 9.13 0H4.88ZM1 7.75C0.447715 7.75 0 8.19771 0 8.75V13C0 13.5523 0.447715 14 1 14H5.25C5.80228 14 6.25 13.5523 6.25 13V8.75C6.25 8.19771 5.80228 7.75 5.25 7.75H1ZM7.75 8.75C7.75 8.19771 8.19771 7.75 8.75 7.75H13C13.5523 7.75 14 8.19771 14 8.75V13C14 13.5523 13.5523 14 13 14H8.75C8.19771 14 7.75 13.5523 7.75 13V8.75Z" fill="black"/>
</g>
<defs>
<clipPath id="clip0_1068_187581">
<rect width="14" height="14" fill="white"/>
</clipPath>
</defs>
</svg>
