<svg width="14" height="14" viewBox="0 0 14 14" fill="none" xmlns="http://www.w3.org/2000/svg">
<g clip-path="url(#clip0_1068_187587)">
<path fill-rule="evenodd" clip-rule="evenodd" d="M1.5 0H6.375V1.15807C6.25322 1.13634 6.12789 1.125 6 1.125C4.8264 1.125 3.875 2.07639 3.875 3.25C3.875 4.4236 4.8264 5.375 6 5.375C6.12789 5.375 6.25322 5.36366 6.375 5.34193V6.375H4.36805C4.12155 6.375 3.89807 6.51989 3.79747 6.74494C3.69687 6.96999 3.73795 7.23314 3.90234 7.41682C4.04127 7.57204 4.125 7.7755 4.125 8C4.125 8.48325 3.73325 8.875 3.25 8.875C2.76675 8.875 2.375 8.48325 2.375 8C2.375 7.7755 2.45873 7.57204 2.59766 7.41682C2.76206 7.23314 2.80313 6.96999 2.70253 6.74494C2.60193 6.51989 2.37845 6.375 2.13195 6.375H0V1.5C0 0.671573 0.671573 0 1.5 0ZM0 7.625V12.5C0 13.3284 0.671573 14 1.5 14H6.375V11.8681C6.375 11.6215 6.51989 11.3981 6.74494 11.2975C6.96999 11.1969 7.23314 11.2379 7.41682 11.4023C7.57204 11.5413 7.7755 11.625 8 11.625C8.48325 11.625 8.875 11.2332 8.875 10.75C8.875 10.2668 8.48325 9.875 8 9.875C7.7755 9.875 7.57204 9.95873 7.41682 10.0977C7.23314 10.2621 6.96999 10.3031 6.74494 10.2025C6.51989 10.1019 6.375 9.87845 6.375 9.63195V7.625H5.34193C5.36366 7.74678 5.375 7.87211 5.375 8C5.375 9.1736 4.42361 10.125 3.25 10.125C2.07639 10.125 1.125 9.1736 1.125 8C1.125 7.87211 1.13634 7.74678 1.15807 7.625H0ZM7.625 7.625V8.65807C7.74678 8.63634 7.87211 8.625 8 8.625C9.1736 8.625 10.125 9.5764 10.125 10.75C10.125 11.9236 9.1736 12.875 8 12.875C7.87211 12.875 7.74678 12.8637 7.625 12.8419V14H12.5C13.3284 14 14 13.3284 14 12.5V7.625H11.8681C11.6215 7.625 11.3981 7.48011 11.2975 7.25506C11.1969 7.03001 11.2379 6.76686 11.4023 6.58318C11.5413 6.42796 11.625 6.2245 11.625 6C11.625 5.51675 11.2332 5.125 10.75 5.125C10.2668 5.125 9.875 5.51675 9.875 6C9.875 6.2245 9.95873 6.42796 10.0977 6.58318C10.2621 6.76686 10.3031 7.03001 10.2025 7.25506C10.1019 7.48011 9.87845 7.625 9.63195 7.625H7.625ZM14 6.375V1.5C14 0.671573 13.3284 0 12.5 0H7.625V2.13195C7.625 2.37845 7.48011 2.60193 7.25506 2.70253C7.03001 2.80313 6.76686 2.76206 6.58318 2.59766C6.42796 2.45873 6.2245 2.375 6 2.375C5.51675 2.375 5.125 2.76675 5.125 3.25C5.125 3.73325 5.51675 4.125 6 4.125C6.2245 4.125 6.42796 4.04127 6.58318 3.90234C6.76686 3.73795 7.03001 3.69687 7.25506 3.79747C7.48011 3.89807 7.625 4.12155 7.625 4.36805V6.375H8.65807C8.63634 6.25322 8.625 6.12789 8.625 6C8.625 4.8264 9.5764 3.875 10.75 3.875C11.9236 3.875 12.875 4.82639 12.875 6C12.875 6.12789 12.8637 6.25322 12.8419 6.375H14Z" fill="black"/>
</g>
<defs>
<clipPath id="clip0_1068_187587">
<rect width="14" height="14" fill="white"/>
</clipPath>
</defs>
</svg>
