<svg width="14" height="14" viewBox="0 0 14 14" fill="none" xmlns="http://www.w3.org/2000/svg">
<g clip-path="url(#clip0_1068_187578)">
<path fill-rule="evenodd" clip-rule="evenodd" d="M1.5 0C0.671573 0 0 0.671573 0 1.5V12.5C0 13.3284 0.671573 14 1.5 14H12.5C13.3284 14 14 13.3284 14 12.5V1.5C14 0.671573 13.3284 0 12.5 0H1.5ZM2.95728 9.9591C2.95728 9.36064 3.44242 8.8755 4.04087 8.8755C4.63933 8.8755 5.12447 9.36064 5.12447 9.9591C5.12447 10.5576 4.63933 11.0427 4.04087 11.0427C3.44242 11.0427 2.95728 10.5576 2.95728 9.9591ZM3.41587 6.45751C3.41587 6.11233 3.6957 5.83251 4.04087 5.83251C5.13531 5.83251 6.18493 6.26727 6.95881 7.04116C7.7327 7.81504 8.16746 8.86466 8.16746 9.9591C8.16746 10.3043 7.88764 10.5841 7.54246 10.5841C7.19729 10.5841 6.91746 10.3043 6.91746 9.9591C6.91746 9.19618 6.6144 8.4645 6.07493 7.92504C5.53546 7.38557 4.80379 7.08251 4.04087 7.08251C3.6957 7.08251 3.41587 6.80268 3.41587 6.45751ZM4.04087 2.83228C3.6957 2.83228 3.41587 3.11211 3.41587 3.45728C3.41587 3.80246 3.6957 4.08228 4.04087 4.08228C5.5995 4.08228 7.09429 4.70145 8.19641 5.80356C9.29852 6.90568 9.91768 8.40047 9.91768 9.9591C9.91768 10.3043 10.1975 10.5841 10.5427 10.5841C10.8879 10.5841 11.1677 10.3043 11.1677 9.9591C11.1677 8.06895 10.4168 6.25622 9.08029 4.91968C7.74375 3.58314 5.93102 2.83228 4.04087 2.83228Z" fill="black"/>
</g>
<defs>
<clipPath id="clip0_1068_187578">
<rect width="14" height="14" fill="white"/>
</clipPath>
</defs>
</svg>
