<svg width="20" height="20" viewBox="0 0 20 20" fill="none" xmlns="http://www.w3.org/2000/svg">
<path d="M3.04375 10.2437C2.98542 10.0866 2.98542 9.91372 3.04375 9.75656C3.61191 8.37893 4.57633 7.20102 5.81475 6.37216C7.05317 5.54331 8.50981 5.10083 10 5.10083C11.4902 5.10083 12.9468 5.54331 14.1852 6.37216C15.4237 7.20102 16.3881 8.37893 16.9562 9.75656C17.0146 9.91372 17.0146 10.0866 16.9562 10.2437C16.3881 11.6214 15.4237 12.7993 14.1852 13.6281C12.9468 14.457 11.4902 14.8995 10 14.8995C8.50981 14.8995 7.05317 14.457 5.81475 13.6281C4.57633 12.7993 3.61191 11.6214 3.04375 10.2437Z" stroke="#21232A" stroke-linecap="round" stroke-linejoin="round"/>
<path d="M10 12.1C11.1597 12.1 12.0999 11.1599 12.0999 10.0002C12.0999 8.84041 11.1597 7.90026 10 7.90026C8.84026 7.90026 7.90011 8.84041 7.90011 10.0002C7.90011 11.1599 8.84026 12.1 10 12.1Z" stroke="#21232A" stroke-linecap="round" stroke-linejoin="round"/>
</svg>
