<svg width="20" height="20" viewBox="0 0 20 20" fill="none" xmlns="http://www.w3.org/2000/svg">
<path d="M9.97294 13.8714C9.80435 13.8714 9.64266 13.8045 9.52344 13.6853C9.40423 13.566 9.33725 13.4043 9.33725 13.2358C9.33725 13.0672 9.40423 12.9055 9.52344 12.7863C9.64266 12.667 9.80435 12.6001 9.97294 12.6001C10.1415 12.6001 10.3032 12.667 10.4224 12.7863C10.5417 12.9055 10.6086 13.0672 10.6086 13.2358C10.6086 13.4043 10.5417 13.566 10.4224 13.6853C10.3032 13.8045 10.1415 13.8714 9.97294 13.8714ZM8.25444 8.86425C8.19161 8.8638 8.12958 8.85006 8.07243 8.82393C8.01529 8.79781 7.96431 8.75988 7.92287 8.71265C7.88142 8.66542 7.85044 8.60995 7.83196 8.5499C7.81348 8.48984 7.80791 8.42655 7.81563 8.36419C7.8445 8.117 7.89044 7.91488 7.95344 7.75782C8.06024 7.4975 8.22638 7.26573 8.43863 7.081C8.65412 6.88624 8.90661 6.73686 9.18107 6.64176C9.45925 6.54639 9.75149 6.49847 10.0456 6.50001C10.6581 6.50001 11.1678 6.68025 11.5755 7.04119C11.9833 7.40082 12.1876 7.88119 12.1876 8.48057C12.1876 8.75007 12.1351 8.99419 12.0301 9.21294C11.9259 9.43213 11.7037 9.70513 11.3638 10.0315C11.0229 10.3583 10.7981 10.5906 10.6865 10.7289C10.5709 10.8757 10.4853 11.0438 10.4345 11.2237C10.4039 11.3248 10.382 11.4442 10.3702 11.5816C10.3492 11.8134 10.1628 11.9972 9.93007 11.9972C9.86815 11.9968 9.807 11.9835 9.75051 11.9582C9.69402 11.9329 9.64343 11.896 9.60197 11.85C9.56052 11.8041 9.5291 11.7499 9.50974 11.6911C9.49037 11.6323 9.48348 11.5701 9.4895 11.5085C9.50481 11.3493 9.528 11.2106 9.56038 11.0924C9.62031 10.8671 9.71132 10.6703 9.83294 10.5018C9.95413 10.3329 10.1729 10.0853 10.4892 9.7585C10.8059 9.43213 11.0098 9.19413 11.1017 9.04669C11.1918 8.89838 11.2868 8.65732 11.2868 8.36419C11.2868 8.07107 11.1323 7.83263 10.9245 7.60688C10.7154 7.38113 10.4122 7.26782 10.0145 7.26782C9.23838 7.26782 8.79825 7.66725 8.695 8.46613C8.66569 8.691 8.48282 8.86425 8.25619 8.86425H8.25444Z" fill="#1F2329"/>
<circle cx="10" cy="10" r="6.5" stroke="#1F2329"/>
</svg>
