<svg width="20" height="20" viewBox="0 0 20 20" fill="none" xmlns="http://www.w3.org/2000/svg">
<path d="M8.03338 4.65784C8.37931 3.78072 9.62067 3.78072 9.9666 4.65785L11.0386 7.37598C11.1442 7.64377 11.3562 7.85575 11.624 7.96136L14.3422 9.03338C15.2193 9.37931 15.2193 10.6207 14.3422 10.9666L11.624 12.0386C11.3562 12.1442 11.1442 12.3562 11.0386 12.624L9.9666 15.3422C9.62066 16.2193 8.37931 16.2193 8.03338 15.3422L6.96136 12.624C6.85574 12.3562 6.64377 12.1442 6.37598 12.0386L3.65784 10.9666C2.78072 10.6207 2.78072 9.37931 3.65785 9.03338L6.37598 7.96136C6.64377 7.85574 6.85575 7.64377 6.96136 7.37598L8.03338 4.65784Z" stroke="url(#paint0_linear_12729_12921)"/>
<path d="M14.7235 14.1853C14.826 13.9382 15.1768 13.9382 15.2792 14.1853L15.412 14.5076C15.6152 14.9979 16.0056 15.3874 16.496 15.5906L16.8163 15.7234C17.0631 15.826 17.0624 16.1758 16.8153 16.2781L16.4931 16.4119C16.0022 16.6151 15.6122 17.0051 15.4091 17.4959L15.2772 17.8142C15.1749 18.0615 14.8249 18.0615 14.7226 17.8142L14.5897 17.4929C14.3866 17.0018 13.996 16.6112 13.5048 16.408L13.1854 16.2761C12.9382 16.1738 12.9382 15.8238 13.1854 15.7214L13.5077 15.5877C13.998 15.3846 14.3874 14.9948 14.5907 14.5046L14.7235 14.1853ZM14.7235 2.18531C14.826 1.93825 15.1768 1.93821 15.2792 2.18531L15.412 2.50757C15.6152 2.99793 16.0056 3.38737 16.496 3.59058L16.8163 3.7234C17.0631 3.82603 17.0624 4.1758 16.8153 4.27808L16.4931 4.41187C16.0022 4.61512 15.6122 5.00506 15.4091 5.49586L15.2772 5.81422C15.1749 6.0615 14.8249 6.06147 14.7226 5.81422L14.5897 5.49293C14.3866 5.00175 13.996 4.61121 13.5048 4.40797L13.1854 4.27613C12.9382 4.17381 12.9382 3.82384 13.1854 3.72144L13.5077 3.58765C13.998 3.38457 14.3874 2.99482 14.5907 2.50465L14.7235 2.18531Z" fill="url(#paint1_linear_12729_12921)"/>
<defs>
<linearGradient id="paint0_linear_12729_12921" x1="5" y1="17" x2="18.5897" y2="10.1016" gradientUnits="userSpaceOnUse">
<stop stop-color="#8032FF"/>
<stop offset="1" stop-color="#FB3DFF"/>
</linearGradient>
<linearGradient id="paint1_linear_12729_12921" x1="10" y1="19" x2="16.9581" y2="19.0194" gradientUnits="userSpaceOnUse">
<stop stop-color="#8032FF"/>
<stop offset="1" stop-color="#FB3DFF"/>
</linearGradient>
</defs>
</svg>
