<svg width="20" height="20" viewBox="0 0 20 20" fill="none" xmlns="http://www.w3.org/2000/svg">
<path d="M11.6 14.0002C11.6 15.5466 12.8536 16.8002 14.4 16.8002C15.9464 16.8002 17.2 15.5466 17.2 14.0002C17.2 12.4538 15.9464 11.2002 14.4 11.2002C12.8536 11.2002 11.6 12.4538 11.6 14.0002ZM11.6 14.0002L11.0733 13.7368C10.3977 13.399 9.60232 13.399 8.92672 13.7368L8.4 14.0002M2 8.8002H18M3.6 8.8002L4.09104 6.83603C4.52758 5.08988 4.74585 4.21681 5.39687 3.7085C6.0479 3.2002 6.94784 3.2002 8.74776 3.2002H11.2522C13.0522 3.2002 13.9521 3.2002 14.6031 3.7085C15.2542 4.21681 15.4724 5.08988 15.909 6.83603L16.4 8.8002M8.4 14.0002C8.4 15.5466 7.1464 16.8002 5.6 16.8002C4.0536 16.8002 2.8 15.5466 2.8 14.0002C2.8 12.4538 4.0536 11.2002 5.6 11.2002C7.1464 11.2002 8.4 12.4538 8.4 14.0002Z" stroke="#6F748C" stroke-width="1.25" stroke-linecap="round"/>
</svg>
