<svg width="20" height="20" viewBox="0 0 20 20" fill="none" xmlns="http://www.w3.org/2000/svg">
<path d="M10 4C12.8284 4 14.2424 4.00026 15.1211 4.87891C15.9998 5.75761 16 7.17156 16 10C16 12.8284 15.9998 14.2424 15.1211 15.1211C14.2425 15.9998 12.8284 16 10 16C7.17156 16 5.75761 15.9998 4.87891 15.1211C4.00026 14.2425 4 12.8284 4 10C4 7.17153 4.00026 5.75761 4.87891 4.87891C5.75761 4.00026 7.17153 4 10 4ZM10 10.5C8.34314 10.5 7 11.1716 7 12C7 12.8284 7 13.5 10 13.5C13 13.5 13 12.8284 13 12C13 11.1716 11.6569 10.5 10 10.5ZM10 6.5C9.6287 6.5 9.27232 6.64761 9.00977 6.91016C8.74734 7.17269 8.59961 7.52918 8.59961 7.90039C8.59971 8.27141 8.74749 8.62722 9.00977 8.88965C9.27232 9.1522 9.6287 9.2998 10 9.2998C10.3713 9.2998 10.7277 9.1522 10.9902 8.88965C11.2525 8.62722 11.4003 8.27141 11.4004 7.90039C11.4004 7.52918 11.2527 7.17269 10.9902 6.91016C10.7277 6.64761 10.3713 6.5 10 6.5Z" fill="#B5BBD3"/>
</svg>
