<svg width="45" height="44" viewBox="0 0 45 44" fill="none" xmlns="http://www.w3.org/2000/svg">
<path d="M29.1316 17.2632C32.271 17.2632 34.8158 14.7182 34.8158 11.5789C34.8158 8.43965 32.271 5.89474 29.1316 5.89474M34.8158 26.7368C38.1395 27.4657 40.5 29.3116 40.5 31.4737C40.5 33.4239 38.5793 35.1171 35.7632 35.965M10.1842 11.5789C10.1842 13.589 10.9827 15.5167 12.404 16.9381C13.8254 18.3594 15.7531 19.1579 17.7632 19.1579C19.7732 19.1579 21.701 18.3594 23.1223 16.9381C24.5436 15.5167 25.3421 13.589 25.3421 11.5789C25.3421 9.56889 24.5436 7.64115 23.1223 6.21982C21.701 4.79849 19.7732 4 17.7632 4C15.7531 4 13.8254 4.79849 12.404 6.21982C10.9827 7.64115 10.1842 9.56889 10.1842 11.5789ZM4.5 32.4211C4.5 34.4311 5.89736 36.3589 8.38469 37.7802C10.872 39.2015 14.2455 40 17.7632 40C21.2808 40 24.6543 39.2015 27.1416 37.7802C29.629 36.3589 31.0263 34.4311 31.0263 32.4211C31.0263 30.411 29.629 28.4833 27.1416 27.0619C24.6543 25.6406 21.2808 24.8421 17.7632 24.8421C14.2455 24.8421 10.872 25.6406 8.38469 27.0619C5.89736 28.4833 4.5 30.411 4.5 32.4211Z" stroke="#B5BBD3" stroke-width="2" stroke-linecap="round"/>
</svg>
