<svg width="20" height="21" viewBox="0 0 20 21" fill="none" xmlns="http://www.w3.org/2000/svg">
<path d="M8.00721 6.35755C8.89385 4.76697 9.33716 3.97168 9.99999 3.97168C10.6628 3.97168 11.1061 4.76696 11.9928 6.35754L12.2221 6.76904C12.4741 7.22104 12.6001 7.44704 12.7966 7.59615C12.993 7.74527 13.2376 7.80062 13.7269 7.91132L14.1723 8.01211C15.8941 8.40168 16.755 8.59646 16.9598 9.2551C17.1646 9.91371 16.5777 10.6001 15.4039 11.9726L15.1003 12.3277C14.7667 12.7178 14.5999 12.9128 14.5249 13.1541C14.4499 13.3954 14.4751 13.6556 14.5255 14.176L14.5714 14.6498C14.7489 16.4811 14.8376 17.3968 14.3014 17.8038C13.7651 18.2109 12.9591 17.8398 11.347 17.0975L10.9299 16.9055C10.4719 16.6945 10.2428 16.5891 9.99999 16.5891C9.75716 16.5891 9.52812 16.6945 9.07004 16.9055L8.65298 17.0975C7.04087 17.8398 6.23482 18.2109 5.6986 17.8038C5.16238 17.3968 5.25111 16.4811 5.42858 14.6498L5.47448 14.176C5.52492 13.6556 5.55013 13.3954 5.4751 13.1541C5.40007 12.9128 5.2333 12.7178 4.89974 12.3277L4.59607 11.9726C3.42228 10.6001 2.83538 9.91371 3.0402 9.2551C3.24502 8.59646 4.1059 8.40168 5.82768 8.01211L6.27312 7.91132C6.76239 7.80062 7.00703 7.74527 7.20345 7.59615C7.39988 7.44704 7.52587 7.22104 7.77782 6.76904L8.00721 6.35755Z" fill="#FFBA00"/>
</svg>
