<svg width="20" height="20" viewBox="0 0 20 20" fill="none" xmlns="http://www.w3.org/2000/svg">
<g id="Icon / Hide / M">
<path id="Vector" d="M11.6674 11.7265C11.2147 12.1636 10.6085 12.4055 9.97928 12.4001C9.35004 12.3946 8.74812 12.1422 8.30317 11.6973C7.85821 11.2523 7.60582 10.6504 7.60035 10.0211C7.59488 9.3919 7.83677 8.78568 8.27393 8.33306M8.9867 4.46126C10.8501 4.23919 12.735 4.6331 14.3535 5.58284C15.972 6.53257 17.2353 7.98594 17.9502 9.72099C18.0169 9.90059 18.0169 10.0982 17.9502 10.2778C17.6563 10.9905 17.2677 11.6605 16.7951 12.2697M14.3832 14.3992C13.3221 15.0277 12.1381 15.4207 10.9117 15.5514C9.68527 15.6821 8.44508 15.5475 7.27529 15.1566C6.10549 14.7658 5.03345 14.1279 4.13191 13.2862C3.23037 12.4445 2.52042 11.4188 2.05025 10.2786C1.98358 10.099 1.98358 9.90139 2.05025 9.72179C2.75952 8.00176 4.00749 6.55815 5.60687 5.6076M2.00065 2.00058L17.9998 17.9998" stroke="#6F748C" stroke-width="1.25" stroke-linecap="round" stroke-linejoin="round"/>
</g>
</svg>
