<svg width="20" height="20" viewBox="0 0 20 20" fill="none" xmlns="http://www.w3.org/2000/svg">
<path d="M6.21774 7.20737L7.57868 8.44458C8.73647 9.49711 9.31539 10.0234 10.0001 10.0234C10.6847 10.0234 11.2637 9.49711 12.4214 8.44458L13.7824 7.20737M3 10C3 7.17157 3 5.75736 3.8201 4.87868C4.64021 4 5.96013 4 8.6 4H11.4C14.0398 4 15.3598 4 16.1799 4.87868C17 5.75736 17 7.17157 17 10C17 12.8284 17 14.2427 16.1799 15.1213C15.3598 16 14.0398 16 11.4 16H8.6C5.96013 16 4.64021 16 3.8201 15.1213C3 14.2427 3 12.8284 3 10Z" stroke="#21232A" stroke-linecap="round"/>
</svg>
