<svg width="24" height="20" viewBox="0 0 24 20" fill="none" xmlns="http://www.w3.org/2000/svg">
<path d="M13.569 11.0018C13.0008 10.9193 12.3989 10.875 11.7759 10.875C8.3098 10.875 5.5 12.2461 5.5 13.9375C5.5 15.6289 5.5 17 11.7759 17C13.5991 17 14.8926 16.8843 15.8103 16.6786M14.9138 13.0625H18.5M16.7069 14.8125V11.3125M8.77902 5.8C8.77902 6.54261 9.08128 7.2548 9.61932 7.7799C10.1574 8.305 10.8871 8.6 11.648 8.6C12.4089 8.6 13.1386 8.305 13.6766 7.7799C14.2147 7.2548 14.5169 6.54261 14.5169 5.8C14.5169 5.05739 14.2147 4.3452 13.6766 3.8201C13.1386 3.295 12.4089 3 11.648 3C10.8871 3 10.1574 3.295 9.61932 3.8201C9.08128 4.3452 8.77902 5.05739 8.77902 5.8Z" stroke="#21232A" stroke-linecap="round" stroke-linejoin="round"/>
</svg>
