<svg width="20" height="20" viewBox="0 0 20 20" fill="none" xmlns="http://www.w3.org/2000/svg">
<path d="M5.78409 9.99998C5.78409 10.7732 5.16085 11.4 4.39205 11.4C3.62324 11.4 3 10.7732 3 9.99998C3 9.22678 3.62324 8.59998 4.39205 8.59998C5.16085 8.59998 5.78409 9.22678 5.78409 9.99998Z" fill="#B5BBD3"/>
<path d="M11.3725 9.99998C11.3725 10.7732 10.7492 11.4 9.98042 11.4C9.21161 11.4 8.58837 10.7732 8.58837 9.99998C8.58837 9.22678 9.21161 8.59998 9.98042 8.59998C10.7492 8.59998 11.3725 9.22678 11.3725 9.99998Z" fill="#B5BBD3"/>
<path d="M17 9.99998C17 10.7732 16.3768 11.4 15.608 11.4C14.8391 11.4 14.2159 10.7732 14.2159 9.99998C14.2159 9.22678 14.8391 8.59998 15.608 8.59998C16.3768 8.59998 17 9.22678 17 9.99998Z" fill="#B5BBD3"/>
</svg>
