<svg width="21" height="20" viewBox="0 0 21 20" fill="none" xmlns="http://www.w3.org/2000/svg">
<path d="M11.902 11.0018C11.3338 10.9193 10.7319 10.875 10.1089 10.875C6.64281 10.875 3.83301 12.2461 3.83301 13.9375C3.83301 15.6289 3.83301 17 10.1089 17C11.9321 17 13.2256 16.8843 14.1434 16.6786M13.2468 13.0625H16.833M15.0399 14.8125V11.3125M7.11203 5.8C7.11203 6.54261 7.41429 7.2548 7.95233 7.7799C8.49036 8.305 9.22009 8.6 9.98099 8.6C10.7419 8.6 11.4716 8.305 12.0097 7.7799C12.5477 7.2548 12.85 6.54261 12.85 5.8C12.85 5.05739 12.5477 4.3452 12.0097 3.8201C11.4716 3.295 10.7419 3 9.98099 3C9.22009 3 8.49036 3.295 7.95233 3.8201C7.41429 4.3452 7.11203 5.05739 7.11203 5.8Z" stroke="#21232A" stroke-linecap="round" stroke-linejoin="round"/>
</svg>
