<svg width="20" height="20" viewBox="0 0 20 20" fill="none" xmlns="http://www.w3.org/2000/svg">
<path d="M6.85028 14.9001C7.3088 16.1235 8.546 17.0001 10.0003 17.0001C11.4545 17.0001 12.6918 16.1235 13.1503 14.9001M14.7246 8.3967V7.90348C14.7246 5.19536 12.6094 3 10.0002 3C7.39099 3 5.2758 5.19536 5.2758 7.90348V8.3967C5.2758 8.98864 5.107 9.56726 4.79066 10.0598L4.01545 11.2667C3.30737 12.369 3.84793 13.8674 5.07945 14.216C8.30111 15.128 11.6993 15.128 14.9209 14.216C16.1525 13.8674 16.693 12.369 15.9849 11.2667L15.2097 10.0598C14.8934 9.56726 14.7246 8.98864 14.7246 8.3967Z" stroke="#21232A" stroke-linecap="round"/>
</svg>
