<svg width="21" height="20" viewBox="0 0 21 20" fill="none" xmlns="http://www.w3.org/2000/svg">
<path d="M17.5 5.1845C14.91 4.92049 12.3044 4.78448 9.70667 4.78448C8.16667 4.78448 6.62667 4.86449 5.08667 5.02449L3.5 5.1845M7.77799 4.37609L7.9491 3.32805C8.07355 2.56802 8.16688 2 9.48133 2H11.5191C12.8335 2 12.9347 2.60002 13.0513 3.33605L13.2224 4.37609M15.8274 7.71143L15.3219 15.7677C15.2363 17.0238 15.1663 17.9998 12.9963 17.9998H8.003C5.833 17.9998 5.763 17.0238 5.67745 15.7677L5.17189 7.71143M9.20114 13.6001H11.7911M8.55555 10.4004H12.4444" stroke="#6F748C" stroke-width="1.25" stroke-linecap="round" stroke-linejoin="round"/>
</svg>
