<svg width="21" height="20" viewBox="0 0 21 20" fill="none" xmlns="http://www.w3.org/2000/svg">
<path d="M10.333 4C13.1614 4 14.5755 4.00026 15.4541 4.87891C16.3328 5.75761 16.333 7.17156 16.333 10C16.333 12.8284 16.3328 14.2424 15.4541 15.1211C14.5755 15.9998 13.1614 16 10.333 16C7.50457 16 6.09062 15.9998 5.21191 15.1211C4.33326 14.2425 4.33301 12.8284 4.33301 10C4.33301 7.17153 4.33326 5.75761 5.21191 4.87891C6.09062 4.00026 7.50454 4 10.333 4Z" fill="#B5BBD3"/>
<path d="M8.27365 12.3156L12.6486 7.94064M13.833 10C13.833 11.933 12.266 13.5 10.333 13.5C8.40001 13.5 6.83301 11.933 6.83301 10C6.83301 8.067 8.40001 6.5 10.333 6.5C12.266 6.5 13.833 8.067 13.833 10Z" stroke="white"/>
</svg>
