<svg width="20" height="20" viewBox="0 0 20 20" fill="none" xmlns="http://www.w3.org/2000/svg">
<path d="M6.9092 6.4H6.4092H6.9092ZM9.4546 8.8V9.3V8.8ZM9.56806 16.5C9.8442 16.5 10.0681 16.2761 10.0681 16C10.0681 15.7239 9.8442 15.5 9.56806 15.5V16.5ZM11.0895 11.3539C11.3629 11.3922 11.6157 11.2016 11.6541 10.9282C11.6925 10.6547 11.5019 10.4019 11.2284 10.3636L11.0895 11.3539ZM15 14C15 14.2761 15.2239 14.5 15.5 14.5C15.7761 14.5 16 14.2761 16 14H15ZM12 14C12 14.2761 12.2239 14.5 12.5 14.5C12.7761 14.5 13 14.2761 13 14H12ZM16.4239 16.3827L15.9619 16.1913L16.4239 16.3827ZM16.4239 14.6173L15.9619 14.8087L16.4239 14.6173ZM6.9092 6.4H6.4092C6.4092 7.17893 6.73765 7.91957 7.31172 8.46085L7.65473 8.09706L7.99774 7.73326C7.61711 7.37437 7.4092 6.8941 7.4092 6.4H6.9092ZM7.65473 8.09706L7.31172 8.46085C7.8848 9.00119 8.65609 9.3 9.4546 9.3V8.8V8.3C8.90295 8.3 8.37938 8.0931 7.99774 7.73326L7.65473 8.09706ZM9.4546 8.8V9.3C10.2531 9.3 11.0244 9.00119 11.5975 8.46085L11.2545 8.09706L10.9115 7.73326C10.5298 8.0931 10.0063 8.3 9.4546 8.3V8.8ZM11.2545 8.09706L11.5975 8.46085C12.1716 7.91957 12.5 7.17893 12.5 6.4H12H11.5C11.5 6.8941 11.2921 7.37437 10.9115 7.73326L11.2545 8.09706ZM12 6.4H12.5C12.5 5.62107 12.1716 4.88043 11.5975 4.33915L11.2545 4.70294L10.9115 5.06673C11.2921 5.42563 11.5 5.9059 11.5 6.4H12ZM11.2545 4.70294L11.5975 4.33915C11.0244 3.79881 10.2531 3.5 9.4546 3.5V4V4.5C10.0063 4.5 10.5298 4.7069 10.9115 5.06673L11.2545 4.70294ZM9.4546 4V3.5C8.65609 3.5 7.8848 3.79881 7.31172 4.33915L7.65473 4.70294L7.99774 5.06673C8.37938 4.7069 8.90295 4.5 9.4546 4.5V4ZM7.65473 4.70294L7.31172 4.33915C6.73765 4.88043 6.4092 5.62107 6.4092 6.4H6.9092H7.4092C7.4092 5.9059 7.61711 5.42563 7.99774 5.06673L7.65473 4.70294ZM9.56806 16V15.5C8.19033 15.5 7.17717 15.4271 6.43265 15.3008C5.6837 15.1737 5.24162 14.9982 4.97787 14.8182C4.52432 14.5086 4.5 14.1291 4.5 13.375H4H3.5C3.5 14.0707 3.47568 15.0036 4.41414 15.6441C4.8464 15.9392 5.44834 16.1481 6.2654 16.2867C7.0869 16.426 8.16175 16.5 9.56806 16.5V16ZM4 13.375H4.5C4.5 12.9571 4.87794 12.4266 5.84406 11.9711C6.77127 11.534 8.08734 11.25 9.56806 11.25V10.75V10.25C7.97362 10.25 6.50567 10.5536 5.41763 11.0666C4.36851 11.5612 3.5 12.3432 3.5 13.375H4ZM9.56806 10.75V11.25C10.0981 11.25 10.6089 11.2864 11.0895 11.3539L11.1589 10.8587L11.2284 10.3636C10.7008 10.2895 10.1436 10.25 9.56806 10.25V10.75ZM15.5 12.5H15V14H15.5H16V12.5H15.5ZM12.5 14H13V12.5H12.5H12V14H12.5ZM14 11V11.5C14.5523 11.5 15 11.9477 15 12.5H15.5H16C16 11.3954 15.1046 10.5 14 10.5V11ZM14 11V10.5C12.8954 10.5 12 11.3954 12 12.5H12.5H13C13 11.9477 13.4477 11.5 14 11.5V11ZM13 14V14.5H15V14V13.5H13V14ZM15 17V16.5H13V17V17.5H15V17ZM13 17V16.5C12.7602 16.5 12.6054 16.4997 12.4869 16.4916C12.3729 16.4839 12.3295 16.4706 12.3087 16.4619L12.1173 16.9239L11.926 17.3858C12.0889 17.4533 12.2539 17.4781 12.4188 17.4893C12.5792 17.5003 12.7739 17.5 13 17.5V17ZM11.5 15.5H11C11 15.7261 10.9997 15.9208 11.0107 16.0812C11.0219 16.2461 11.0467 16.4111 11.1142 16.574L11.5761 16.3827L12.0381 16.1913C12.0294 16.1705 12.0161 16.1271 12.0084 16.0131C12.0003 15.8946 12 15.7398 12 15.5H11.5ZM12.1173 16.9239L12.3087 16.4619C12.1861 16.4112 12.0888 16.3139 12.0381 16.1913L11.5761 16.3827L11.1142 16.574C11.2664 16.9416 11.5584 17.2336 11.926 17.3858L12.1173 16.9239ZM16.5 15.5H16C16 15.7398 15.9997 15.8946 15.9916 16.0131C15.9839 16.1271 15.9706 16.1705 15.9619 16.1913L16.4239 16.3827L16.8858 16.574C16.9533 16.4111 16.9781 16.2461 16.9893 16.0812C17.0003 15.9208 17 15.7261 17 15.5H16.5ZM15 17V17.5C15.2261 17.5 15.4208 17.5003 15.5812 17.4893C15.7461 17.4781 15.9111 17.4533 16.074 17.3858L15.8827 16.9239L15.6913 16.4619C15.6705 16.4706 15.6271 16.4839 15.5131 16.4916C15.3946 16.4997 15.2398 16.5 15 16.5V17ZM16.4239 16.3827L15.9619 16.1913C15.9112 16.3139 15.8139 16.4112 15.6913 16.4619L15.8827 16.9239L16.074 17.3858C16.4416 17.2336 16.7336 16.9416 16.8858 16.574L16.4239 16.3827ZM15 14V14.5C15.2398 14.5 15.3946 14.5003 15.5131 14.5084C15.6271 14.5161 15.6705 14.5294 15.6913 14.5381L15.8827 14.0761L16.074 13.6142C15.9111 13.5467 15.7461 13.5219 15.5812 13.5107C15.4208 13.4997 15.2261 13.5 15 13.5V14ZM16.5 15.5H17C17 15.2739 17.0003 15.0792 16.9893 14.9188C16.9781 14.7539 16.9533 14.5889 16.8858 14.426L16.4239 14.6173L15.9619 14.8087C15.9706 14.8295 15.9839 14.8729 15.9916 14.9869C15.9997 15.1054 16 15.2602 16 15.5H16.5ZM15.8827 14.0761L15.6913 14.5381C15.8139 14.5888 15.9112 14.6861 15.9619 14.8087L16.4239 14.6173L16.8858 14.426C16.7336 14.0584 16.4416 13.7664 16.074 13.6142L15.8827 14.0761ZM13 14V13.5C12.7739 13.5 12.5792 13.4997 12.4188 13.5107C12.2539 13.5219 12.0889 13.5467 11.926 13.6142L12.1173 14.0761L12.3087 14.5381C12.3295 14.5294 12.3729 14.5161 12.4869 14.5084C12.6054 14.5003 12.7602 14.5 13 14.5V14ZM11.5 15.5H12C12 15.2602 12.0003 15.1054 12.0084 14.9869C12.0161 14.8729 12.0294 14.8295 12.0381 14.8087L11.5761 14.6173L11.1142 14.426C11.0467 14.5889 11.0219 14.7539 11.0107 14.9188C10.9997 15.0792 11 15.2739 11 15.5H11.5ZM12.1173 14.0761L11.926 13.6142C11.5584 13.7664 11.2664 14.0584 11.1142 14.426L11.5761 14.6173L12.0381 14.8087C12.0888 14.6861 12.1861 14.5888 12.3087 14.5381L12.1173 14.0761Z" fill="#B5BBD3"/>
</svg>
