<svg width="21" height="21" viewBox="0 0 21 21" fill="none" xmlns="http://www.w3.org/2000/svg">
<path d="M7.27053 7.22812H6.77053H7.27053ZM9.81593 9.62812V10.1281V9.62812ZM9.92939 17.3281C10.2055 17.3281 10.4294 17.1043 10.4294 16.8281C10.4294 16.552 10.2055 16.3281 9.92939 16.3281V17.3281ZM11.4508 12.182C11.7243 12.2203 11.977 12.0298 12.0154 11.7563C12.0538 11.4828 11.8632 11.23 11.5897 11.1917L11.4508 12.182ZM15.3613 14.8281C15.3613 15.1043 15.5852 15.3281 15.8613 15.3281C16.1375 15.3281 16.3613 15.1043 16.3613 14.8281H15.3613ZM12.3613 14.8281C12.3613 15.1043 12.5852 15.3281 12.8613 15.3281C13.1375 15.3281 13.3613 15.1043 13.3613 14.8281H12.3613ZM16.7852 17.2108L16.3233 17.0195L16.7852 17.2108ZM16.7852 15.4454L16.3233 15.6368L16.7852 15.4454ZM7.27053 7.22812H6.77053C6.77053 8.00706 7.09898 8.74769 7.67305 9.28897L8.01606 8.92518L8.35907 8.56139C7.97844 8.2025 7.77053 7.72223 7.77053 7.22812H7.27053ZM8.01606 8.92518L7.67305 9.28897C8.24613 9.82931 9.01742 10.1281 9.81593 10.1281V9.62812V9.12812C9.26428 9.12812 8.74071 8.92123 8.35907 8.56139L8.01606 8.92518ZM9.81593 9.62812V10.1281C10.6144 10.1281 11.3857 9.82931 11.9588 9.28897L11.6158 8.92518L11.2728 8.56139C10.8912 8.92123 10.3676 9.12812 9.81593 9.12812V9.62812ZM11.6158 8.92518L11.9588 9.28897C12.5329 8.74769 12.8613 8.00706 12.8613 7.22812H12.3613H11.8613C11.8613 7.72223 11.6534 8.2025 11.2728 8.56139L11.6158 8.92518ZM12.3613 7.22812H12.8613C12.8613 6.44919 12.5329 5.70856 11.9588 5.16728L11.6158 5.53107L11.2728 5.89486C11.6534 6.25375 11.8613 6.73402 11.8613 7.22812H12.3613ZM11.6158 5.53107L11.9588 5.16728C11.3857 4.62694 10.6144 4.32812 9.81593 4.32812V4.82812V5.32812C10.3676 5.32812 10.8912 5.53502 11.2728 5.89486L11.6158 5.53107ZM9.81593 4.82812V4.32812C9.01742 4.32812 8.24613 4.62694 7.67305 5.16728L8.01606 5.53107L8.35907 5.89486C8.74071 5.53502 9.26428 5.32812 9.81593 5.32812V4.82812ZM8.01606 5.53107L7.67305 5.16728C7.09898 5.70856 6.77053 6.44919 6.77053 7.22812H7.27053H7.77053C7.77053 6.73402 7.97844 6.25375 8.35907 5.89486L8.01606 5.53107ZM9.92939 16.8281V16.3281C8.55166 16.3281 7.5385 16.2552 6.79398 16.1289C6.04502 16.0018 5.60295 15.8263 5.3392 15.6463C4.88565 15.3368 4.86133 14.9572 4.86133 14.2031H4.36133H3.86133C3.86133 14.8988 3.83701 15.8318 4.77547 16.4723C5.20773 16.7673 5.80967 16.9762 6.62673 17.1148C7.44822 17.2542 8.52308 17.3281 9.92939 17.3281V16.8281ZM4.36133 14.2031H4.86133C4.86133 13.7852 5.23927 13.2547 6.20539 12.7992C7.13259 12.3621 8.44867 12.0781 9.92939 12.0781V11.5781V11.0781C8.33495 11.0781 6.86699 11.3818 5.77896 11.8947C4.72984 12.3893 3.86133 13.1713 3.86133 14.2031H4.36133ZM9.92939 11.5781V12.0781C10.4595 12.0781 10.9702 12.1146 11.4508 12.182L11.5203 11.6868L11.5897 11.1917C11.0621 11.1177 10.5049 11.0781 9.92939 11.0781V11.5781ZM15.8613 13.3281H15.3613V14.8281H15.8613H16.3613V13.3281H15.8613ZM12.8613 14.8281H13.3613V13.3281H12.8613H12.3613V14.8281H12.8613ZM14.3613 11.8281V12.3281C14.9136 12.3281 15.3613 12.7758 15.3613 13.3281H15.8613H16.3613C16.3613 12.2236 15.4659 11.3281 14.3613 11.3281V11.8281ZM14.3613 11.8281V11.3281C13.2568 11.3281 12.3613 12.2236 12.3613 13.3281H12.8613H13.3613C13.3613 12.7758 13.809 12.3281 14.3613 12.3281V11.8281ZM13.3613 14.8281V15.3281H15.3613V14.8281V14.3281H13.3613V14.8281ZM15.3613 17.8281V17.3281H13.3613V17.8281V18.3281H15.3613V17.8281ZM13.3613 17.8281V17.3281C13.1215 17.3281 12.9667 17.3279 12.8482 17.3198C12.7342 17.312 12.6908 17.2987 12.67 17.2901L12.4786 17.752L12.2873 18.2139C12.4503 18.2814 12.6152 18.3062 12.7801 18.3175C12.9406 18.3284 13.1352 18.3281 13.3613 18.3281V17.8281ZM11.8613 16.3281H11.3613C11.3613 16.5543 11.3611 16.7489 11.372 16.9093C11.3833 17.0742 11.408 17.2392 11.4755 17.4021L11.9374 17.2108L12.3994 17.0195C12.3908 16.9987 12.3775 16.9552 12.3697 16.8412C12.3616 16.7228 12.3613 16.5679 12.3613 16.3281H11.8613ZM12.4786 17.752L12.67 17.2901C12.5475 17.2393 12.4501 17.142 12.3994 17.0195L11.9374 17.2108L11.4755 17.4021C11.6277 17.7697 11.9198 18.0617 12.2873 18.2139L12.4786 17.752ZM16.8613 16.3281H16.3613C16.3613 16.5679 16.3611 16.7228 16.353 16.8412C16.3452 16.9552 16.3319 16.9987 16.3233 17.0195L16.7852 17.2108L17.2471 17.4021C17.3146 17.2392 17.3394 17.0742 17.3507 16.9093C17.3616 16.7489 17.3613 16.5543 17.3613 16.3281H16.8613ZM15.3613 17.8281V18.3281C15.5875 18.3281 15.7821 18.3284 15.9425 18.3175C16.1074 18.3062 16.2724 18.2814 16.4354 18.2139L16.244 17.752L16.0527 17.2901C16.0319 17.2987 15.9884 17.312 15.8744 17.3198C15.756 17.3279 15.6011 17.3281 15.3613 17.3281V17.8281ZM16.7852 17.2108L16.3233 17.0195C16.2725 17.142 16.1752 17.2393 16.0527 17.2901L16.244 17.752L16.4354 18.2139C16.8029 18.0617 17.0949 17.7697 17.2471 17.4021L16.7852 17.2108ZM15.3613 14.8281V15.3281C15.6011 15.3281 15.756 15.3284 15.8744 15.3365C15.9884 15.3443 16.0319 15.3576 16.0527 15.3662L16.244 14.9042L16.4354 14.4423C16.2724 14.3748 16.1074 14.3501 15.9425 14.3388C15.7821 14.3279 15.5875 14.3281 15.3613 14.3281V14.8281ZM16.8613 16.3281H17.3613C17.3613 16.102 17.3616 15.9074 17.3507 15.7469C17.3394 15.582 17.3146 15.4171 17.2471 15.2541L16.7852 15.4454L16.3233 15.6368C16.3319 15.6576 16.3452 15.701 16.353 15.815C16.3611 15.9335 16.3613 16.0883 16.3613 16.3281H16.8613ZM16.244 14.9042L16.0527 15.3662C16.1752 15.4169 16.2725 15.5143 16.3233 15.6368L16.7852 15.4454L17.2471 15.2541C17.0949 14.8866 16.8029 14.5945 16.4354 14.4423L16.244 14.9042ZM13.3613 14.8281V14.3281C13.1352 14.3281 12.9406 14.3279 12.7801 14.3388C12.6152 14.3501 12.4503 14.3748 12.2873 14.4423L12.4786 14.9042L12.67 15.3662C12.6908 15.3576 12.7342 15.3443 12.8482 15.3365C12.9667 15.3284 13.1215 15.3281 13.3613 15.3281V14.8281ZM11.8613 16.3281H12.3613C12.3613 16.0883 12.3616 15.9335 12.3697 15.815C12.3775 15.701 12.3908 15.6576 12.3994 15.6368L11.9374 15.4454L11.4755 15.2541C11.408 15.4171 11.3833 15.582 11.372 15.7469C11.3611 15.9074 11.3613 16.102 11.3613 16.3281H11.8613ZM12.4786 14.9042L12.2873 14.4423C11.9198 14.5945 11.6277 14.8866 11.4755 15.2541L11.9374 15.4454L12.3994 15.6368C12.4501 15.5143 12.5475 15.4169 12.67 15.3662L12.4786 14.9042Z" fill="#6F748C"/>
</svg>
