<svg width="21" height="20" viewBox="0 0 21 20" fill="none" xmlns="http://www.w3.org/2000/svg">
<path d="M11.7917 11.5106C11.3957 11.8931 10.8653 12.1048 10.3147 12.1C9.76408 12.0952 9.2374 11.8744 8.84806 11.485C8.45873 11.0957 8.23788 10.569 8.2331 10.0184C8.22831 9.46783 8.43997 8.93739 8.82248 8.54135M9.44615 5.15352C11.0766 4.95921 12.7259 5.30388 14.1421 6.1349C15.5583 6.96592 16.6636 8.23762 17.2893 9.75579C17.3476 9.91294 17.3476 10.0858 17.2893 10.243C17.032 10.8666 16.6921 11.4529 16.2785 11.9859M14.1681 13.8492C13.2396 14.3992 12.2036 14.743 11.1305 14.8574C10.0574 14.9718 8.97224 14.854 7.94867 14.512C6.9251 14.17 5.98706 13.6118 5.19822 12.8754C4.40937 12.1389 3.78817 11.2414 3.37676 10.2437C3.31842 10.0865 3.31842 9.91364 3.37676 9.75649C3.99737 8.25146 5.08934 6.9883 6.4888 6.15657M3.33336 3.00043L17.3327 16.9997" stroke="white" stroke-linecap="round" stroke-linejoin="round"/>
</svg>
