<svg width="21" height="20" viewBox="0 0 21 20" fill="none" xmlns="http://www.w3.org/2000/svg">
<path d="M14.1795 8.40914C15.2339 8.40914 16.0886 7.69686 16.0886 6.81823C16.0886 5.93959 15.2339 5.22732 14.1795 5.22732M6.54315 8.40914C5.48879 8.40914 4.63406 7.69686 4.63406 6.81823C4.63406 5.93959 5.48879 5.22732 6.54315 5.22732M15.4522 14.7728C16.5685 14.528 17.3613 13.908 17.3613 13.1819C17.3613 12.4557 16.5685 11.8358 15.4522 11.591M5.27042 14.7728C4.15408 14.528 3.36133 13.908 3.36133 13.1819C3.36133 12.4557 4.15408 11.8358 5.27042 11.591M7.81587 6.50004C7.81587 7.17514 8.08405 7.82259 8.56142 8.29995C9.03879 8.77732 9.68623 9.0455 10.3613 9.0455C11.0364 9.0455 11.6839 8.77732 12.1612 8.29995C12.6386 7.82259 12.9068 7.17514 12.9068 6.50004C12.9068 5.82495 12.6386 5.1775 12.1612 4.70014C11.6839 4.22277 11.0364 3.95459 10.3613 3.95459C9.68623 3.95459 9.03879 4.22277 8.56142 4.70014C8.08405 5.1775 7.81587 5.82495 7.81587 6.50004ZM6.54315 13.5C6.54315 14.1751 6.94542 14.8226 7.66147 15.3C8.37751 15.7773 9.34868 16.0455 10.3613 16.0455C11.374 16.0455 12.3451 15.7773 13.0612 15.3C13.7772 14.8226 14.1795 14.1751 14.1795 13.5C14.1795 12.8249 13.7772 12.1775 13.0612 11.7001C12.3451 11.2228 11.374 10.9546 10.3613 10.9546C9.34868 10.9546 8.37751 11.2228 7.66147 11.7001C6.94542 12.1775 6.54315 12.8249 6.54315 13.5Z" stroke="#6F748C" stroke-linecap="round"/>
</svg>
