<svg width="20" height="21" viewBox="0 0 20 21" fill="none" xmlns="http://www.w3.org/2000/svg">
<path d="M15.8553 16.8427C16.0516 17.0369 16.3681 17.0353 16.5624 16.839C16.7566 16.6428 16.755 16.3262 16.5588 16.1319L15.8553 16.8427ZM15.2946 9.9746H14.7946C14.7946 12.7242 12.5413 14.9619 9.75082 14.9619V15.4619V15.9619C13.0839 15.9619 15.7946 13.2861 15.7946 9.9746H15.2946ZM9.75082 15.4619V14.9619C6.96037 14.9619 4.70703 12.7242 4.70703 9.9746H4.20703H3.70703C3.70703 13.2861 6.41777 15.9619 9.75082 15.9619V15.4619ZM4.20703 9.9746H4.70703C4.70703 7.22501 6.96037 4.9873 9.75082 4.9873V4.4873V3.9873C6.41777 3.9873 3.70703 6.66309 3.70703 9.9746H4.20703ZM9.75082 4.4873V4.9873C12.5413 4.9873 14.7946 7.22501 14.7946 9.9746H15.2946H15.7946C15.7946 6.66309 13.0839 3.9873 9.75082 3.9873V4.4873ZM13.2303 13.5409L12.8785 13.8963L15.8553 16.8427L16.207 16.4873L16.5588 16.1319L13.582 13.1855L13.2303 13.5409Z" fill="#6F748C"/>
</svg>
