<svg width="20" height="20" viewBox="0 0 20 20" fill="none" xmlns="http://www.w3.org/2000/svg">
<path d="M9.64645 9.80593C9.45118 10.0012 9.45118 10.3178 9.64645 10.513C9.84171 10.7083 10.1583 10.7083 10.3536 10.513L9.64645 9.80593ZM16.5 3.65948H17C17 3.38334 16.7761 3.15948 16.5 3.15948V3.65948ZM12.6406 3.15948C12.3644 3.15948 12.1406 3.38334 12.1406 3.65948C12.1406 3.93563 12.3644 4.15948 12.6406 4.15948V3.15948ZM16 7.51886C16 7.795 16.2239 8.01886 16.5 8.01886C16.7761 8.01886 17 7.795 17 7.51886H16ZM17 10C17 9.72386 16.7761 9.5 16.5 9.5C16.2238 9.5 16 9.72386 16 10H17ZM15.5481 15.5481L15.1945 15.1945L15.1945 15.1945L15.5481 15.5481ZM4.4519 15.5481L4.80546 15.1945L4.80545 15.1945L4.4519 15.5481ZM4.4519 4.45191L4.80546 4.80546L4.80546 4.80546L4.4519 4.45191ZM9.99999 4C10.2761 4 10.5 3.77614 10.5 3.5C10.5 3.22386 10.2761 3 9.99999 3V4ZM10 10.1595L10.3536 10.513L16.8536 4.01304L16.5 3.65948L16.1464 3.30593L9.64645 9.80593L10 10.1595ZM16.5 3.65948V3.15948H12.6406V3.65948V4.15948H16.5V3.65948ZM16.5 3.65948H16V7.51886H16.5H17V3.65948H16.5ZM16.5 10H16C16 11.5462 15.9989 12.6555 15.8855 13.4995C15.7739 14.3291 15.5621 14.827 15.1945 15.1945L15.5481 15.5481L15.9016 15.9016C16.486 15.3173 16.7501 14.5732 16.8765 13.6328C17.001 12.7067 17 11.5179 17 10H16.5ZM15.5481 15.5481L15.1945 15.1945C14.827 15.5621 14.3291 15.7739 13.4995 15.8855C12.6555 15.9989 11.5462 16 9.99999 16V16.5V17C11.5179 17 12.7067 17.0011 13.6327 16.8766C14.5732 16.7501 15.3173 16.486 15.9016 15.9016L15.5481 15.5481ZM9.99999 16.5V16C8.45379 16 7.34444 15.9989 6.50049 15.8855C5.67092 15.7739 5.17303 15.5621 4.80546 15.1945L4.4519 15.5481L4.09835 15.9016C4.68268 16.486 5.42677 16.7501 6.36724 16.8766C7.29332 17.0011 8.48206 17 9.99999 17V16.5ZM4.4519 15.5481L4.80545 15.1945C4.43789 14.827 4.22606 14.3291 4.11453 13.4995C4.00106 12.6555 4 11.5462 4 10H3.5H3C3 11.5179 2.99894 12.7067 3.12345 13.6328C3.24989 14.5732 3.51401 15.3173 4.09836 15.9016L4.4519 15.5481ZM3.5 10H4C4 8.4538 4.00106 7.34445 4.11453 6.50049C4.22606 5.67091 4.43789 5.17302 4.80546 4.80546L4.4519 4.45191L4.09835 4.09835C3.51401 4.68269 3.24989 5.42678 3.12345 6.36724C2.99894 7.29332 3 8.48207 3 10H3.5ZM4.4519 4.45191L4.80546 4.80546C5.17302 4.43789 5.67091 4.22606 6.50049 4.11453C7.34444 4.00106 8.45379 4 9.99999 4V3.5V3C8.48206 3 7.29332 2.99894 6.36724 3.12345C5.42677 3.24989 4.68268 3.51402 4.09835 4.09835L4.4519 4.45191Z" fill="#6F748C"/>
</svg>
