<svg width="20" height="20" viewBox="0 0 20 20" fill="none" xmlns="http://www.w3.org/2000/svg">
<path d="M10 2C14.4183 2 18 5.58172 18 10C18 14.4183 14.4183 18 10 18C5.58172 18 2 14.4183 2 10C2 5.58172 5.58172 2 10 2ZM12.8232 7.17676C12.5872 6.94067 12.204 6.94092 11.9678 7.17676L10 9.14453L8.03223 7.17676C7.79598 6.94091 7.41285 6.94067 7.17676 7.17676C6.94067 7.41285 6.94092 7.79598 7.17676 8.03223L9.14453 10L7.17676 11.9678C6.94091 12.204 6.94067 12.5872 7.17676 12.8232C7.41285 13.0593 7.79598 13.0591 8.03223 12.8232L10 10.8555L11.9678 12.8232C12.204 13.0591 12.5872 13.0593 12.8232 12.8232C13.0593 12.5872 13.0591 12.204 12.8232 11.9678L10.8555 10L12.8232 8.03223C13.0591 7.79598 13.0593 7.41285 12.8232 7.17676Z" fill="#B5BBD3"/>
</svg>
