<svg width="28" height="28" viewBox="0 0 28 28" fill="none" xmlns="http://www.w3.org/2000/svg">
<path d="M13.6464 13.8059C13.4512 14.0012 13.4512 14.3178 13.6464 14.513C13.8417 14.7083 14.1583 14.7083 14.3536 14.513L13.6464 13.8059ZM20.5 7.65948H21C21 7.38334 20.7761 7.15948 20.5 7.15948V7.65948ZM16.6406 7.15948C16.3644 7.15948 16.1406 7.38334 16.1406 7.65948C16.1406 7.93563 16.3644 8.15948 16.6406 8.15948V7.15948ZM20 11.5189C20 11.795 20.2239 12.0189 20.5 12.0189C20.7761 12.0189 21 11.795 21 11.5189H20ZM21 14C21 13.7239 20.7761 13.5 20.5 13.5C20.2238 13.5 20 13.7239 20 14H21ZM19.5481 19.5481L19.1945 19.1945L19.1945 19.1945L19.5481 19.5481ZM8.4519 19.5481L8.80546 19.1945L8.80545 19.1945L8.4519 19.5481ZM8.4519 8.45191L8.80546 8.80546L8.80546 8.80546L8.4519 8.45191ZM14 8C14.2761 8 14.5 7.77614 14.5 7.5C14.5 7.22386 14.2761 7 14 7V8ZM14 14.1595L14.3536 14.513L20.8536 8.01304L20.5 7.65948L20.1464 7.30593L13.6464 13.8059L14 14.1595ZM20.5 7.65948V7.15948H16.6406V7.65948V8.15948H20.5V7.65948ZM20.5 7.65948H20V11.5189H20.5H21V7.65948H20.5ZM20.5 14H20C20 15.5462 19.9989 16.6555 19.8855 17.4995C19.7739 18.3291 19.5621 18.827 19.1945 19.1945L19.5481 19.5481L19.9016 19.9016C20.486 19.3173 20.7501 18.5732 20.8765 17.6328C21.001 16.7067 21 15.5179 21 14H20.5ZM19.5481 19.5481L19.1945 19.1945C18.827 19.5621 18.3291 19.7739 17.4995 19.8855C16.6555 19.9989 15.5462 20 14 20V20.5V21C15.5179 21 16.7067 21.0011 17.6327 20.8766C18.5732 20.7501 19.3173 20.486 19.9016 19.9016L19.5481 19.5481ZM14 20.5V20C12.4538 20 11.3444 19.9989 10.5005 19.8855C9.67092 19.7739 9.17303 19.5621 8.80546 19.1945L8.4519 19.5481L8.09835 19.9016C8.68268 20.486 9.42677 20.7501 10.3672 20.8766C11.2933 21.0011 12.4821 21 14 21V20.5ZM8.4519 19.5481L8.80545 19.1945C8.43789 18.827 8.22606 18.3291 8.11453 17.4995C8.00106 16.6555 8 15.5462 8 14H7.5H7C7 15.5179 6.99894 16.7067 7.12345 17.6328C7.24989 18.5732 7.51401 19.3173 8.09836 19.9016L8.4519 19.5481ZM7.5 14H8C8 12.4538 8.00106 11.3444 8.11453 10.5005C8.22606 9.67091 8.43789 9.17302 8.80546 8.80546L8.4519 8.45191L8.09835 8.09835C7.51401 8.68269 7.24989 9.42678 7.12345 10.3672C6.99894 11.2933 7 12.4821 7 14H7.5ZM8.4519 8.45191L8.80546 8.80546C9.17302 8.43789 9.67091 8.22606 10.5005 8.11453C11.3444 8.00106 12.4538 8 14 8V7.5V7C12.4821 7 11.2933 6.99894 10.3672 7.12345C9.42677 7.24989 8.68268 7.51402 8.09835 8.09835L8.4519 8.45191Z" fill="#6F748C"/>
</svg>
