<svg width="20" height="20" viewBox="0 0 20 20" fill="none" xmlns="http://www.w3.org/2000/svg">
<path d="M18.0581 18.942C18.3022 19.186 18.698 19.186 18.942 18.9419C19.186 18.6978 19.186 18.302 18.9419 18.058L18.0581 18.942ZM16.8266 9.66138L16.2016 9.66138C16.2016 13.2712 13.2745 16.1978 9.6633 16.1978V16.8228V17.4478C13.9645 17.4478 17.4516 13.9618 17.4516 9.66138H16.8266ZM9.6633 16.8228V16.1978C6.05214 16.1978 3.125 13.2712 3.125 9.66138H2.5L1.875 9.66138C1.875 13.9618 5.3621 17.4478 9.6633 17.4478V16.8228ZM2.5 9.66138H3.125C3.125 6.0516 6.05214 3.125 9.6633 3.125V2.5V1.875C5.3621 1.875 1.875 5.36093 1.875 9.66138L2.5 9.66138ZM9.6633 2.5V3.125C13.2745 3.125 16.2016 6.0516 16.2016 9.66138L16.8266 9.66138H17.4516C17.4516 5.36093 13.9645 1.875 9.6633 1.875V2.5ZM14.4067 14.4078L13.9648 14.8498L18.0581 18.942L18.5 18.5L18.9419 18.058L14.8486 13.9658L14.4067 14.4078Z" fill="#6F748C"/>
</svg>
