<svg width="20" height="20" viewBox="0 0 20 20" fill="none" xmlns="http://www.w3.org/2000/svg">
<path d="M7 7.25C7 7.66421 6.66421 8 6.25 8C5.83579 8 5.5 7.66421 5.5 7.25C5.5 6.83579 5.83579 6.5 6.25 6.5C6.66421 6.5 7 6.83579 7 7.25Z" fill="#21232A"/>
<path d="M9.5 7.25C9.5 7.66421 9.16422 8 8.75 8C8.33577 8 8 7.66421 8 7.25C8 6.83579 8.33577 6.5 8.75 6.5C9.16422 6.5 9.5 6.83579 9.5 7.25Z" fill="#21232A"/>
<path d="M12 7.25C12 7.66421 11.6642 8 11.25 8C10.8358 8 10.5 7.66421 10.5 7.25C10.5 6.83579 10.8358 6.5 11.25 6.5C11.6642 6.5 12 6.83579 12 7.25Z" fill="#21232A"/>
<path d="M14.5 7.25C14.5 7.66421 14.1642 8 13.75 8C13.3358 8 13 7.66421 13 7.25C13 6.83579 13.3358 6.5 13.75 6.5C14.1642 6.5 14.5 6.83579 14.5 7.25Z" fill="#21232A"/>
<path d="M7 9.75C7 10.1642 6.66421 10.5 6.25 10.5C5.83579 10.5 5.5 10.1642 5.5 9.75C5.5 9.33579 5.83579 9 6.25 9C6.66421 9 7 9.33579 7 9.75Z" fill="#21232A"/>
<path d="M9.5 9.75C9.5 10.1642 9.16422 10.5 8.75 10.5C8.33577 10.5 8 10.1642 8 9.75C8 9.33579 8.33577 9 8.75 9C9.16422 9 9.5 9.33579 9.5 9.75Z" fill="#21232A"/>
<path d="M12 9.75C12 10.1642 11.6642 10.5 11.25 10.5C10.8358 10.5 10.5 10.1642 10.5 9.75C10.5 9.33579 10.8358 9 11.25 9C11.6642 9 12 9.33579 12 9.75Z" fill="#21232A"/>
<path d="M14.5 9.75C14.5 10.1642 14.1642 10.5 13.75 10.5C13.3358 10.5 13 10.1642 13 9.75C13 9.33579 13.3358 9 13.75 9C14.1642 9 14.5 9.33579 14.5 9.75Z" fill="#21232A"/>
<path d="M7 13H13M3 9.21429C3 6.99195 3 5.88078 3.61508 5.19039C4.23015 4.5 5.2201 4.5 7.2 4.5H12.8C14.7799 4.5 15.7698 4.5 16.3849 5.19039C17 5.88078 17 6.99195 17 9.21429V10.7857C17 13.008 17 14.1192 16.3849 14.8096C15.7698 15.5 14.7799 15.5 12.8 15.5H7.2C5.2201 15.5 4.23015 15.5 3.61508 14.8096C3 14.1192 3 13.008 3 10.7857V9.21429Z" stroke="#21232A" stroke-linecap="round"/>
</svg>
