<svg width="20" height="20" viewBox="0 0 20 20" fill="none" xmlns="http://www.w3.org/2000/svg">
<path d="M7.2 5.8C7.2 6.54261 7.495 7.2548 8.0201 7.7799C8.5452 8.305 9.25739 8.6 10 8.6C10.7426 8.6 11.4548 8.305 11.9799 7.7799C12.505 7.2548 12.8 6.54261 12.8 5.8C12.8 5.05739 12.505 4.3452 11.9799 3.8201C11.4548 3.295 10.7426 3 10 3C9.25739 3 8.5452 3.295 8.0201 3.8201C7.495 4.3452 7.2 5.05739 7.2 5.8Z" stroke="#21232A"/>
<path d="M16 14C16 15.6569 16 17 10 17C4 17 4 15.6569 4 14C4 12.3431 6.68629 11 10 11C13.3137 11 16 12.3431 16 14Z" stroke="#21232A"/>
</svg>
