<svg width="20" height="20" viewBox="0 0 20 20" fill="none" xmlns="http://www.w3.org/2000/svg">
<path d="M12.5789 8.15789C13.7998 8.15789 14.7895 7.16821 14.7895 5.94737C14.7895 4.72653 13.7998 3.73684 12.5789 3.73684M14.7895 11.8421C16.082 12.1256 17 12.8434 17 13.6842C17 14.4426 16.2531 15.1011 15.1579 15.4308M5.21053 5.94737C5.21053 6.72906 5.52105 7.47873 6.07379 8.03147C6.62653 8.58421 7.3762 8.89474 8.15789 8.89474C8.93959 8.89474 9.68926 8.58421 10.242 8.03147C10.7947 7.47873 11.1053 6.72906 11.1053 5.94737C11.1053 5.16568 10.7947 4.416 10.242 3.86326C9.68926 3.31053 8.93959 3 8.15789 3C7.3762 3 6.62653 3.31053 6.07379 3.86326C5.52105 4.416 5.21053 5.16568 5.21053 5.94737ZM3 14.0526C3 14.8343 3.54342 15.584 4.51071 16.1367C5.47801 16.6895 6.78994 17 8.15789 17C9.52585 17 10.8378 16.6895 11.8051 16.1367C12.7724 15.584 13.3158 14.8343 13.3158 14.0526C13.3158 13.2709 12.7724 12.5213 11.8051 11.9685C10.8378 11.4158 9.52585 11.1053 8.15789 11.1053C6.78994 11.1053 5.47801 11.4158 4.51071 11.9685C3.54342 12.5213 3 13.2709 3 14.0526Z" stroke="#21232A" stroke-linecap="round"/>
</svg>
