<svg width="20" height="20" viewBox="0 0 20 20" fill="none" xmlns="http://www.w3.org/2000/svg">
<path d="M7 11.5C6.72386 11.5 6.5 11.7239 6.5 12C6.5 12.2761 6.72386 12.5 7 12.5V11.5ZM13 12.5C13.2761 12.5 13.5 12.2761 13.5 12C13.5 11.7239 13.2761 11.5 13 11.5V12.5ZM7 13.5C6.72386 13.5 6.5 13.7239 6.5 14C6.5 14.2761 6.72386 14.5 7 14.5V13.5ZM10 14.5C10.2761 14.5 10.5 14.2761 10.5 14C10.5 13.7239 10.2761 13.5 10 13.5V14.5ZM15.4142 5.58468L15.7678 5.23114L15.7678 5.23114L15.4142 5.58468ZM15.4142 16.4141L15.0607 16.0606L15.0606 16.0606L15.4142 16.4141ZM4.58579 16.4141L4.93936 16.0606L4.93934 16.0606L4.58579 16.4141ZM4.58579 5.58468L4.23222 5.23115L4.23222 5.23115L4.58579 5.58468ZM7 12.5H13V11.5H7V12.5ZM7 14.5H10V13.5H7V14.5ZM12.6639 5.49999C13.3929 5.50405 13.9096 5.52299 14.3017 5.59503C14.6796 5.66444 14.8983 5.7759 15.0606 5.93822L15.7678 5.23114C15.4178 4.88116 14.9878 4.70432 14.4824 4.61148C13.9914 4.52128 13.3905 4.50402 12.6695 4.50001L12.6639 5.49999ZM15.0606 5.93822C15.2452 6.12276 15.3655 6.38185 15.4312 6.87109C15.4989 7.37471 15.5 8.04219 15.5 8.99922H16.5C16.5 8.07046 16.5011 7.32359 16.4223 6.73785C16.3416 6.13774 16.169 5.63245 15.7678 5.23114L15.0606 5.93822ZM15.5 8.99922V12.9996H16.5V8.99922H15.5ZM15.5 12.9996C15.5 13.9566 15.4989 14.6241 15.4312 15.1278C15.3655 15.617 15.2452 15.8761 15.0607 16.0606L15.7678 16.7677C16.169 16.3664 16.3416 15.8611 16.4223 15.261C16.5011 14.6752 16.5 13.9284 16.5 12.9996H15.5ZM15.0606 16.0606C14.8761 16.2451 14.6171 16.3655 14.1279 16.4312C13.6243 16.4989 12.9569 16.5 12 16.5V17.5C12.9287 17.5 13.6755 17.5011 14.2612 17.4223C14.8612 17.3416 15.3665 17.169 15.7678 16.7677L15.0606 16.0606ZM12 16.5H8V17.5H12V16.5ZM8 16.5C7.04305 16.5 6.37565 16.4989 5.87209 16.4312C5.38292 16.3655 5.12387 16.2451 4.93936 16.0606L4.23221 16.7677C4.63349 17.169 5.13874 17.3416 5.73882 17.4223C6.32452 17.5011 7.07133 17.5 8 17.5V16.5ZM4.93934 16.0606C4.75484 15.8761 4.63454 15.617 4.56877 15.1278C4.50106 14.6241 4.5 13.9566 4.5 12.9996H3.5C3.5 13.9284 3.49894 14.6752 3.57768 15.261C3.65836 15.8611 3.83094 16.3664 4.23223 16.7677L4.93934 16.0606ZM4.5 12.9996V8.99922H3.5V12.9996H4.5ZM4.5 8.99922C4.5 8.04219 4.50106 7.37471 4.56877 6.87109C4.63454 6.38184 4.75484 6.12275 4.93936 5.93822L4.23222 5.23115C3.83095 5.63246 3.65836 6.13774 3.57768 6.73786C3.49894 7.32359 3.5 8.07046 3.5 8.99922H4.5ZM4.93936 5.93822C5.10166 5.7759 5.32037 5.66444 5.69824 5.59503C6.0904 5.52299 6.60712 5.50405 7.33612 5.49999L7.33055 4.50001C6.60953 4.50402 6.0086 4.52128 5.51756 4.61148C5.01222 4.70432 4.58217 4.88116 4.23222 5.23115L4.93936 5.93822ZM7.5 4.125C7.5 3.77982 7.77982 3.5 8.125 3.5V2.5C7.22754 2.5 6.5 3.22754 6.5 4.125H7.5ZM8.125 3.5H11.875V2.5H8.125V3.5ZM11.875 3.5C12.2202 3.5 12.5 3.77983 12.5 4.125H13.5C13.5 3.22753 12.7724 2.5 11.875 2.5V3.5ZM12.5 4.125V4.875H13.5V4.125H12.5ZM12.5 4.875C12.5 5.22017 12.2202 5.5 11.875 5.5V6.5C12.7724 6.5 13.5 5.77247 13.5 4.875H12.5ZM11.875 5.5H8.125V6.5H11.875V5.5ZM8.125 5.5C7.77982 5.5 7.5 5.22018 7.5 4.875H6.5C6.5 5.77246 7.22754 6.5 8.125 6.5V5.5ZM7.5 4.875V4.125H6.5V4.875H7.5Z" fill="#21232A"/>
</svg>
