<svg width="20" height="20" viewBox="0 0 20 20" fill="none" xmlns="http://www.w3.org/2000/svg">
<path d="M11.6667 7.95621C12.0837 7.81314 12.5325 7.73529 13 7.73529C13.4583 7.73529 13.8985 7.81009 14.3086 7.9478M14.3086 7.9478C15.8751 8.47391 17 9.91826 17 11.6176C17 13.7618 15.2091 15.5 13 15.5H6C4.34315 15.5 3 14.1964 3 12.5882C3 10.9801 4.34315 9.67646 6 9.67646C6.19888 9.67646 6.39325 9.69523 6.58131 9.73112M14.3086 7.9478C14.086 6.00818 12.3911 4.5 10.3333 4.5C8.1242 4.5 6.33333 6.23819 6.33333 8.38235C6.33333 8.85662 6.42094 9.31099 6.58131 9.73112M6.58131 9.73112C6.97641 9.8064 7.3437 9.95696 7.66667 10.1668" stroke="#21232A" stroke-linecap="round"/>
</svg>
