<svg width="21" height="20" viewBox="0 0 21 20" fill="none" xmlns="http://www.w3.org/2000/svg">
<path d="M12.3051 5.72222L8.41623 8.44444M12.3051 14.2778L8.41623 11.5556M8.41623 10C8.41623 11.0739 7.54567 11.9444 6.47179 11.9444C5.3979 11.9444 4.52734 11.0739 4.52734 10C4.52734 8.92612 5.3979 8.05556 6.47179 8.05556C7.54567 8.05556 8.41623 8.92612 8.41623 10ZM16.194 15.0556C16.194 16.1294 15.3234 17 14.2496 17C13.1757 17 12.3051 16.1294 12.3051 15.0556C12.3051 13.9817 13.1757 13.1111 14.2496 13.1111C15.3234 13.1111 16.194 13.9817 16.194 15.0556ZM16.194 4.94444C16.194 6.01833 15.3234 6.88889 14.2496 6.88889C13.1757 6.88889 12.3051 6.01833 12.3051 4.94444C12.3051 3.87056 13.1757 3 14.2496 3C15.3234 3 16.194 3.87056 16.194 4.94444Z" stroke="#6F748C" stroke-linecap="round"/>
</svg>
