<svg width="20" height="21" viewBox="0 0 20 21" fill="none" xmlns="http://www.w3.org/2000/svg">
<path d="M4.86927 6.05421C4.86927 6.89169 5.20196 7.69488 5.79415 8.28706C6.38634 8.87925 7.18952 9.21194 8.027 9.21194C8.86448 9.21194 9.66766 8.87925 10.2599 8.28706C10.852 7.69488 11.1847 6.89169 11.1847 6.05421C11.1847 5.21673 10.852 4.41355 10.2599 3.82136C9.66766 3.22917 8.86448 2.89648 8.027 2.89648C7.18952 2.89648 6.38634 3.22917 5.79415 3.82136C5.20196 4.41355 4.86927 5.21673 4.86927 6.05421Z" fill="#6F748C"/>
<path d="M2.50098 14.7388C2.50098 15.1534 2.64391 15.5641 2.92162 15.9472C3.19933 16.3303 3.60637 16.6784 4.11951 16.9716C4.63265 17.2648 5.24183 17.4974 5.91228 17.6561C6.58273 17.8148 7.30131 17.8965 8.027 17.8965C8.75269 17.8965 9.47127 17.8148 10.1417 17.6561C10.8122 17.4974 11.4214 17.2648 11.9345 16.9716C12.4476 16.6784 12.8547 16.3303 13.1324 15.9472C13.4101 15.5641 13.553 15.1534 13.553 14.7388C13.553 14.3241 13.4101 13.9135 13.1324 13.5303C12.8547 13.1472 12.4476 12.7991 11.9345 12.5059C11.4214 12.2127 10.8122 11.9801 10.1417 11.8214C9.47127 11.6627 8.75269 11.581 8.027 11.581C7.30131 11.581 6.58273 11.6627 5.91228 11.8214C5.24183 11.9801 4.63265 12.2127 4.11951 12.5059C3.60637 12.7991 3.19933 13.1472 2.92162 13.5303C2.64391 13.9135 2.50098 14.3241 2.50098 14.7388Z" fill="#6F748C"/>
<path d="M17.4991 14.7385C17.4991 16.0465 15.8922 17.1068 13.9302 17.1068C14.5082 16.475 14.9057 15.682 14.9057 14.7396C14.9057 13.7962 14.5073 13.0024 13.9282 12.3702C15.8901 12.3702 17.4991 13.4305 17.4991 14.7385Z" fill="#6F748C"/>
<path d="M15.1308 6.05499C15.1308 7.36296 14.0705 8.42328 12.7625 8.42328C12.4773 8.42328 12.2039 8.37286 11.9506 8.28046C12.3241 7.62357 12.5374 6.86375 12.5374 6.0541C12.5374 5.24505 12.3244 4.48575 11.9514 3.82921C12.2044 3.73699 12.4776 3.68669 12.7625 3.68669C14.0705 3.68669 15.1308 4.74701 15.1308 6.05499Z" fill="#6F748C"/>
</svg>
