<svg width="20" height="20" viewBox="0 0 20 20" fill="none" xmlns="http://www.w3.org/2000/svg">
<path d="M2.05025 10.2786C1.98358 10.099 1.98358 9.90141 2.05025 9.72181C2.69957 8.14737 3.80177 6.80119 5.2171 5.85392C6.63243 4.90666 8.29717 4.40097 10.0002 4.40097C11.7033 4.40097 13.3681 4.90666 14.7834 5.85392C16.1987 6.80119 17.3009 8.14737 17.9502 9.72181C18.0169 9.90141 18.0169 10.099 17.9502 10.2786C17.3009 11.853 16.1987 13.1992 14.7834 14.1465C13.3681 15.0937 11.7033 15.5994 10.0002 15.5994C8.29717 15.5994 6.63243 15.0937 5.2171 14.1465C3.80177 13.1992 2.69957 11.853 2.05025 10.2786Z" stroke="#6F748C" stroke-width="1.25" stroke-linecap="round" stroke-linejoin="round"/>
<path d="M10.0002 12.4001C11.3257 12.4001 12.4001 11.3256 12.4001 10.0002C12.4001 8.67478 11.3257 7.60032 10.0002 7.60032C8.67483 7.60032 7.60036 8.67478 7.60036 10.0002C7.60036 11.3256 8.67483 12.4001 10.0002 12.4001Z" stroke="#6F748C" stroke-width="1.25" stroke-linecap="round" stroke-linejoin="round"/>
</svg>
