<svg width="21" height="20" viewBox="0 0 21 20" fill="none" xmlns="http://www.w3.org/2000/svg">
<path d="M8.40014 10C8.40014 10.557 8.62139 11.0911 9.01522 11.4849C9.40905 11.8788 9.94319 12.1 10.5001 12.1C11.0571 12.1 11.5912 11.8788 11.9851 11.4849C12.3789 11.0911 12.6001 10.557 12.6001 10C12.6001 9.44305 12.3789 8.9089 11.9851 8.51508C11.5912 8.12125 11.0571 7.9 10.5001 7.9C9.94319 7.9 9.40905 8.12125 9.01522 8.51508C8.62139 8.9089 8.40014 9.44305 8.40014 10Z" stroke="#6F748C"/>
<path d="M11.7359 3.10657C11.4786 3 11.1525 3 10.5001 3C9.84781 3 9.52169 3 9.26437 3.10657C8.92134 3.24866 8.6488 3.52121 8.50671 3.86424C8.44184 4.02084 8.41645 4.20295 8.40652 4.46859C8.39193 4.85898 8.19173 5.22032 7.8534 5.41565C7.51509 5.61097 7.10206 5.60368 6.75668 5.42113C6.52166 5.29691 6.35125 5.22783 6.1832 5.20571C5.81507 5.15725 5.44277 5.257 5.1482 5.48304C4.92726 5.65257 4.76418 5.93503 4.43803 6.49995C4.11187 7.06488 3.94879 7.34734 3.91244 7.62344C3.86398 7.99156 3.96373 8.36386 4.18977 8.65845C4.29294 8.79292 4.43793 8.9059 4.66298 9.0473C4.9938 9.2552 5.20667 9.60933 5.20665 10C5.20663 10.3907 4.99377 10.7447 4.66297 10.9526C4.4379 11.094 4.29288 11.2071 4.1897 11.3416C3.96366 11.6361 3.86391 12.0084 3.91237 12.3765C3.94872 12.6526 4.1118 12.9351 4.43796 13.5C4.76412 14.0649 4.9272 14.3474 5.14813 14.5169C5.4427 14.7429 5.815 14.8427 6.18313 14.7942C6.35117 14.7721 6.52157 14.703 6.75657 14.5788C7.10197 14.3963 7.51504 14.389 7.85337 14.5843C8.19171 14.7797 8.39193 15.141 8.40652 15.5315C8.41646 15.7971 8.44184 15.9792 8.50671 16.1358C8.6488 16.4788 8.92134 16.7514 9.26437 16.8935C9.52169 17 9.84781 17 10.5001 17C11.1525 17 11.4786 17 11.7359 16.8935C12.0789 16.7514 12.3515 16.4788 12.4935 16.1358C12.5584 15.9792 12.5838 15.7971 12.5938 15.5314C12.6083 15.141 12.8085 14.7797 13.1468 14.5843C13.4852 14.3889 13.8982 14.3963 14.2437 14.5788C14.4787 14.703 14.649 14.772 14.817 14.7942C15.1852 14.8427 15.5575 14.7429 15.8521 14.5169C16.073 14.3474 16.2361 14.0649 16.5622 13.4999C16.8884 12.935 17.0515 12.6526 17.0878 12.3765C17.1363 12.0084 17.0365 11.636 16.8105 11.3415C16.7073 11.207 16.5623 11.094 16.3372 10.9526C16.0065 10.7447 15.7936 10.3906 15.7936 9.99993C15.7936 9.60926 16.0065 9.25527 16.3372 9.04744C16.5624 8.90597 16.7074 8.79299 16.8106 8.65845C17.0366 8.36391 17.1364 7.99161 17.0879 7.62348C17.0516 7.34739 16.8885 7.06492 16.5623 6.5C16.2362 5.93508 16.0731 5.65262 15.8521 5.48309C15.5576 5.25705 15.1852 5.1573 14.8171 5.20576C14.6491 5.22788 14.4787 5.29695 14.2437 5.42116C13.8983 5.60371 13.4852 5.61101 13.1469 5.41567C12.8085 5.22034 12.6083 4.85896 12.5938 4.46856C12.5838 4.20294 12.5584 4.02083 12.4935 3.86424C12.3515 3.52121 12.0789 3.24866 11.7359 3.10657Z" stroke="#6F748C"/>
</svg>
