<svg width="20" height="20" viewBox="0 0 20 20" fill="none" xmlns="http://www.w3.org/2000/svg">
<path d="M2.1875 10C2.1875 6.31715 2.1875 4.47573 3.33162 3.33162C4.47573 2.1875 6.31715 2.1875 10 2.1875C13.6828 2.1875 15.5243 2.1875 16.6684 3.33162C17.8125 4.47573 17.8125 6.31715 17.8125 10C17.8125 13.6828 17.8125 15.5243 16.6684 16.6684C15.5243 17.8125 13.6828 17.8125 10 17.8125C6.31715 17.8125 4.47573 17.8125 3.33162 16.6684C2.1875 15.5243 2.1875 13.6828 2.1875 10Z" stroke="black" stroke-width="1.25"/>
<path d="M11.5625 6.875C11.5625 7.2894 11.7271 7.68683 12.0201 7.97985C12.3132 8.27288 12.7106 8.4375 13.125 8.4375C13.5394 8.4375 13.9368 8.27288 14.2299 7.97985C14.5229 7.68683 14.6875 7.2894 14.6875 6.875C14.6875 6.4606 14.5229 6.06317 14.2299 5.77015C13.9368 5.47712 13.5394 5.3125 13.125 5.3125C12.7106 5.3125 12.3132 5.47712 12.0201 5.77015C11.7271 6.06317 11.5625 6.4606 11.5625 6.875Z" stroke="black" stroke-width="1.25"/>
<path d="M2.1875 10.3907L3.55593 9.19334C4.26786 8.57045 5.34084 8.60616 6.00976 9.27506L9.36109 12.6264C9.89797 13.1633 10.7431 13.2365 11.3644 12.7999L11.5973 12.6362C12.4912 12.008 13.7007 12.0808 14.5129 12.8117L17.0312 15.0782" stroke="black" stroke-width="1.25" stroke-linecap="round"/>
</svg>
