<svg width="20" height="16" viewBox="0 0 20 16" fill="none" xmlns="http://www.w3.org/2000/svg">
<path d="M4.55279 12.7764C4.42929 13.0234 4.5294 13.3237 4.77639 13.4472C5.02338 13.5707 5.32372 13.4706 5.44721 13.2236L4.55279 12.7764ZM10 3L10.4472 2.77639C10.3625 2.607 10.1894 2.5 10 2.5C9.81061 2.5 9.63748 2.607 9.55279 2.77639L10 3ZM14.5528 13.2236C14.6763 13.4706 14.9766 13.5707 15.2236 13.4472C15.4706 13.3237 15.5707 13.0234 15.4472 12.7764L14.5528 13.2236ZM5.44721 13.2236L7.11388 9.89027L6.21945 9.44306L4.55279 12.7764L5.44721 13.2236ZM7.11388 9.89027L10.4472 3.22361L9.55279 2.77639L6.21945 9.44306L7.11388 9.89027ZM9.55279 3.22361L12.8861 9.89027L13.7805 9.44306L10.4472 2.77639L9.55279 3.22361ZM12.8861 9.89027L14.5528 13.2236L15.4472 12.7764L13.7805 9.44306L12.8861 9.89027ZM6.66667 10.1667H13.3333V9.16667H6.66667V10.1667Z" fill="#1F2329"/>
</svg>
