<svg width="20" height="20" viewBox="0 0 20 20" fill="none" xmlns="http://www.w3.org/2000/svg">
<path d="M4.55364 2.82613L5.01065 2.63676L4.55364 2.82613C4.85837 3.56156 5.44271 4.14587 6.17817 4.45062L6.30047 4.5013L6.17547 4.55305C5.43925 4.85782 4.85435 5.44268 4.5496 6.17887L5.01158 6.37011L4.5496 6.17887L4.49997 6.29877L4.4491 6.17577C4.1444 5.43898 3.55912 4.85364 2.82235 4.54879L2.70125 4.49869L2.82624 4.44692C3.56159 4.14236 4.14595 3.55834 4.45086 2.82318L4.50166 2.70069L4.55364 2.82613Z" fill="#1F2329" stroke="#1F2329"/>
<path d="M11.0234 5.71096C11.2876 7.34532 12.6641 8.59477 14.3725 8.76058M11.8628 4.85217L4.64726 12.1683C4.45676 12.3637 4.2724 12.7487 4.23553 13.0151L4.00815 14.9337C3.92827 15.6265 4.44447 16.1003 5.15731 15.9818L7.13608 15.6562C7.41262 15.6088 7.79977 15.4134 7.99027 15.212L15.2058 7.89587C16.0784 7.00763 16.4717 5.99504 15.1136 4.75742C13.7617 3.53165 12.7354 3.96393 11.8628 4.85217Z" stroke="#1F2329" stroke-miterlimit="10" stroke-linecap="round" stroke-linejoin="round"/>
</svg>
