<svg width="20" height="20" viewBox="0 0 20 20" fill="none" xmlns="http://www.w3.org/2000/svg">
<path d="M10.4708 14C10.2878 14 10.1123 13.9273 9.98294 13.7979C9.85356 13.6686 9.78088 13.4931 9.78088 13.3101C9.78088 13.1271 9.85356 12.9517 9.98294 12.8223C10.1123 12.6929 10.2878 12.6202 10.4708 12.6202C10.6537 12.6202 10.8292 12.6929 10.9586 12.8223C11.088 12.9517 11.1607 13.1271 11.1607 13.3101C11.1607 13.4931 11.088 13.6686 10.9586 13.7979C10.8292 13.9273 10.6537 14 10.4708 14ZM8.60574 8.56588C8.53755 8.56539 8.47023 8.55047 8.40821 8.52212C8.34619 8.49376 8.29088 8.4526 8.2459 8.40134C8.20092 8.35009 8.1673 8.28989 8.14724 8.22471C8.12718 8.15954 8.12114 8.09085 8.12951 8.02318C8.16085 7.75491 8.21071 7.53555 8.27908 7.3651C8.39498 7.08258 8.57529 6.83106 8.80563 6.63058C9.0395 6.41921 9.31352 6.25709 9.61137 6.15388C9.91328 6.05038 10.2304 5.99837 10.5496 6.00004C11.2143 6.00004 11.7675 6.19566 12.21 6.58737C12.6525 6.97766 12.8742 7.49899 12.8742 8.14947C12.8742 8.44195 12.8172 8.70689 12.7033 8.94429C12.5903 9.18217 12.3491 9.47845 11.9802 9.83265C11.6103 10.1873 11.3662 10.4394 11.2452 10.5895C11.1197 10.7489 11.0268 10.9313 10.9717 11.1265C10.9384 11.2362 10.9147 11.3658 10.9019 11.5149C10.8791 11.7665 10.6768 11.9659 10.4242 11.9659C10.357 11.9655 10.2907 11.9511 10.2294 11.9236C10.1681 11.8961 10.1132 11.8562 10.0682 11.8062C10.0232 11.7563 9.98909 11.6976 9.96807 11.6338C9.94705 11.57 9.93957 11.5025 9.94611 11.4356C9.96273 11.2628 9.98789 11.1122 10.023 10.984C10.0881 10.7395 10.1868 10.5259 10.3188 10.3431C10.4504 10.1598 10.6878 9.89105 11.031 9.53637C11.3748 9.18217 11.5961 8.92388 11.6958 8.76387C11.7936 8.60291 11.8966 8.34129 11.8966 8.02318C11.8966 7.70506 11.729 7.44629 11.5035 7.20129C11.2765 6.95629 10.9475 6.83332 10.5159 6.83332C9.67357 6.83332 9.19592 7.26681 9.08387 8.1338C9.05206 8.37785 8.85359 8.56588 8.60764 8.56588H8.60574Z" fill="#21232A"/>
<circle cx="10.5" cy="10.5" r="7.5" stroke="#21232A"/>
</svg>
