<svg width="20" height="20" viewBox="0 0 20 20" fill="none" xmlns="http://www.w3.org/2000/svg">
<path d="M8.03338 4.65784C8.37931 3.78072 9.62067 3.78072 9.9666 4.65785L11.0386 7.37598C11.1442 7.64377 11.3562 7.85575 11.624 7.96136L14.3422 9.03338C15.2193 9.37931 15.2193 10.6207 14.3422 10.9666L11.624 12.0386C11.3562 12.1442 11.1442 12.3562 11.0386 12.624L9.9666 15.3422C9.62066 16.2193 8.37931 16.2193 8.03338 15.3422L6.96136 12.624C6.85574 12.3562 6.64377 12.1442 6.37598 12.0386L3.65784 10.9666C2.78072 10.6207 2.78072 9.37931 3.65785 9.03338L6.37598 7.96136C6.64377 7.85574 6.85575 7.64377 6.96136 7.37598L8.03338 4.65784Z" stroke="#1F2329"/>
<path fill-rule="evenodd" clip-rule="evenodd" d="M15.2788 2.18536C15.1765 1.93826 14.8264 1.9382 14.7239 2.18526L14.5912 2.5053C14.3879 2.99548 13.9983 3.3849 13.5079 3.58798L13.1854 3.72156C12.9382 3.82396 12.9382 4.17415 13.1855 4.27647L13.5049 4.40864C13.9962 4.61192 14.3865 5.00222 14.5896 5.49348L14.7224 5.81445C14.8247 6.0618 15.1751 6.06186 15.2774 5.81455L15.4093 5.49609C15.6125 5.00523 16.0025 4.61524 16.4934 4.41202L16.8158 4.27854C17.063 4.1762 17.0631 3.8261 16.8159 3.72367L16.4957 3.59096C16.0053 3.38775 15.6156 2.99814 15.4124 2.50778L15.2788 2.18536ZM15.2788 14.1854C15.1765 13.9383 14.8264 13.9382 14.7239 14.1853L14.5912 14.5053C14.3879 14.9955 13.9983 15.3849 13.5079 15.588L13.1854 15.7216C12.9382 15.824 12.9382 16.1742 13.1855 16.2765L13.5049 16.4086C13.9962 16.6119 14.3865 17.0022 14.5896 17.4935L14.7224 17.8145C14.8247 18.0618 15.1751 18.0619 15.2774 17.8145L15.4093 17.4961C15.6125 17.0052 16.0025 16.6152 16.4934 16.412L16.8158 16.2785C17.063 16.1762 17.0631 15.8261 16.8159 15.7237L16.4957 15.591C16.0053 15.3878 15.6156 14.9981 15.4124 14.5078L15.2788 14.1854Z" fill="#1F2329"/>
</svg>
