<svg width="20" height="21" viewBox="0 0 20 21" fill="none" xmlns="http://www.w3.org/2000/svg">
<path d="M11.569 11.5619C11.0008 11.4794 10.3989 11.4351 9.77586 11.4351C6.3098 11.4351 3.5 12.8062 3.5 14.4976C3.5 16.1889 3.5 17.5601 9.77586 17.5601C11.5991 17.5601 12.8926 17.4443 13.8103 17.2387M12.9138 13.6226H16.5M14.7069 15.3726V11.8726M6.77902 6.36006C6.77902 7.10266 7.08128 7.81486 7.61932 8.33996C8.15735 8.86506 8.88709 9.16006 9.64798 9.16006C10.4089 9.16006 11.1386 8.86506 11.6766 8.33996C12.2147 7.81486 12.5169 7.10266 12.5169 6.36006C12.5169 5.61745 12.2147 4.90526 11.6766 4.38016C11.1386 3.85506 10.4089 3.56006 9.64798 3.56006C8.88709 3.56006 8.15735 3.85506 7.61932 4.38016C7.08128 4.90526 6.77902 5.61745 6.77902 6.36006Z" stroke="#21232A" stroke-linecap="round" stroke-linejoin="round"/>
</svg>
