<svg width="20" height="20" viewBox="0 0 20 20" fill="none" xmlns="http://www.w3.org/2000/svg">
<path d="M17.3846 16H13.4097V14.7131C13.4097 14.0316 13.7743 13.4087 14.3514 13.104L16.5392 11.9487C17.0325 11.6882 17.3846 11.1851 17.3846 10.6027C17.3846 10.2043 17.354 9.81347 17.2951 9.4327C17.193 8.77344 16.6632 8.2959 16.0326 8.24256C15.7294 8.2169 15.4227 8.20382 15.1132 8.20382C14.5343 8.20382 13.9654 8.24958 13.4097 8.33785M2.61539 4V9.99754M2.61539 9.99754V15.995M2.61539 9.99754L10.5654 9.9981M10.5654 9.9981V4.00058M10.5654 9.9981V15.9956" stroke="#1F2329" stroke-linecap="round" stroke-linejoin="round"/>
</svg>
