<svg width="20" height="20" viewBox="0 0 20 20" fill="none" xmlns="http://www.w3.org/2000/svg">
<path d="M6.35082 5.90976L6.70217 6.2655L6.70217 6.2655L6.35082 5.90976ZM5.5625 8.03125C5.5625 8.30739 5.78636 8.53125 6.0625 8.53125C6.33864 8.53125 6.5625 8.30739 6.5625 8.03125H5.5625ZM13.6492 5.90976L13.2978 6.2655L13.2978 6.26551L13.6492 5.90976ZM13.4375 8.03125C13.4375 8.30739 13.6614 8.53125 13.9375 8.53125C14.2136 8.53125 14.4375 8.30739 14.4375 8.03125H13.4375ZM7.75 13.875C7.47386 13.875 7.25 14.0989 7.25 14.375C7.25 14.6511 7.47386 14.875 7.75 14.875V13.875ZM12.25 14.875C12.5261 14.875 12.75 14.6511 12.75 14.375C12.75 14.0989 12.5261 13.875 12.25 13.875V14.875ZM10 5.125H8.03125V6.125H10V5.125ZM8.03125 5.125C7.58118 5.125 7.19393 5.12396 6.88531 5.16495C6.56293 5.20775 6.25224 5.30436 5.99946 5.55402L6.70217 6.2655C6.73771 6.2304 6.8032 6.18463 7.01694 6.15624C7.24443 6.12604 7.55325 6.125 8.03125 6.125V5.125ZM5.99947 5.55401C5.74583 5.80452 5.64685 6.11387 5.60311 6.43521C5.56141 6.74152 5.5625 7.12544 5.5625 7.56944H6.5625C6.5625 7.09683 6.56359 6.79328 6.59397 6.57009C6.62231 6.36193 6.66749 6.29975 6.70217 6.2655L5.99947 5.55401ZM5.5625 7.56944V8.03125H6.5625V7.56944H5.5625ZM10 6.125H11.9688V5.125H10V6.125ZM11.9688 6.125C12.4467 6.125 12.7556 6.12604 12.9831 6.15624C13.1968 6.18463 13.2623 6.2304 13.2978 6.2655L14.0005 5.55401C13.7477 5.30436 13.4371 5.20775 13.1147 5.16495C12.8061 5.12396 12.4188 5.125 11.9688 5.125V6.125ZM13.2978 6.26551C13.3325 6.29976 13.3777 6.36193 13.406 6.57009C13.4364 6.79328 13.4375 7.09683 13.4375 7.56944H14.4375C14.4375 7.12544 14.4386 6.74152 14.3969 6.43521C14.3531 6.11387 14.2542 5.80451 14.0005 5.55401L13.2978 6.26551ZM13.4375 7.56944V8.03125H14.4375V7.56944H13.4375ZM9.5 5.625V14.375H10.5V5.625H9.5ZM7.75 14.875H12.25V13.875H7.75V14.875ZM4.75 3.5H15.25V2.5H4.75V3.5ZM16.5 4.75V15.25H17.5V4.75H16.5ZM15.25 16.5H4.75V17.5H15.25V16.5ZM3.5 15.25V4.75H2.5V15.25H3.5ZM4.75 16.5C4.05964 16.5 3.5 15.9404 3.5 15.25H2.5C2.5 16.4926 3.50736 17.5 4.75 17.5V16.5ZM16.5 15.25C16.5 15.9404 15.9404 16.5 15.25 16.5V17.5C16.4926 17.5 17.5 16.4926 17.5 15.25H16.5ZM15.25 3.5C15.9404 3.5 16.5 4.05964 16.5 4.75H17.5C17.5 3.50736 16.4926 2.5 15.25 2.5V3.5ZM4.75 2.5C3.50736 2.5 2.5 3.50736 2.5 4.75H3.5C3.5 4.05964 4.05964 3.5 4.75 3.5V2.5Z" fill="#1F2329"/>
</svg>
