<svg width="20" height="20" viewBox="0 0 20 20" fill="none" xmlns="http://www.w3.org/2000/svg">
<path d="M7.29961 5V9.99978M7.29961 9.99978V14.9995M7.29961 9.99978L13.761 10.0002M13.761 10.0002V5.00049M13.761 10.0002V15M18.5174 12C18.8211 12.4547 19 13.0125 19 13.6154C19 13.8221 18.979 14.0235 18.9391 14.2172C18.8511 14.6451 18.4849 14.9209 18.0796 14.961C17.8182 14.9868 17.5534 15 17.2857 15C16.8487 15 16.4194 14.9648 16 14.8969M18.5174 12C18.8211 11.5454 19 10.9875 19 10.3846C19 10.1779 18.979 9.97659 18.9391 9.78287C18.8511 9.35488 18.4849 9.07916 18.0796 9.03907C17.8182 9.01322 17.5534 9 17.2857 9C16.8487 9 16.4194 9.03522 16 9.10315M18.5174 12H16.8571M1 12.5L4 10L1 7.5V12.5Z" stroke="#1F2329" stroke-linecap="round" stroke-linejoin="round"/>
</svg>
