<svg width="20" height="20" viewBox="0 0 20 20" fill="none" xmlns="http://www.w3.org/2000/svg">
<path d="M7.29961 5V9.99978M7.29961 9.99978V14.9995M7.29961 9.99978L13.761 10.0002M13.761 10.0002V5.00049M13.761 10.0002V15M19 15H16V14.0096C16 13.4851 16.2751 13.0057 16.7107 12.7712L18.3619 11.8821C18.7342 11.6816 19 11.2944 19 10.8462C19 10.5396 18.9769 10.2388 18.9324 9.94576C18.8554 9.43839 18.4555 9.07087 17.9796 9.02981C17.7507 9.01007 17.5193 9 17.2857 9C16.8487 9 16.4194 9.03522 16 9.10315M1 12.5L4 10L1 7.5V12.5Z" stroke="#1F2329" stroke-linecap="round" stroke-linejoin="round"/>
</svg>
