<svg width="20" height="20" viewBox="0 0 20 20" fill="none" xmlns="http://www.w3.org/2000/svg">
<path d="M16.7452 12.1019C17.1476 12.6927 17.3846 13.4176 17.3846 14.2009C17.3846 14.4694 17.3568 14.7311 17.304 14.9828C17.1873 15.5389 16.7022 15.8972 16.1651 15.9493C15.8188 15.9829 15.4679 16 15.1133 16C14.5343 16 13.9654 15.9543 13.4098 15.866M16.7452 12.1019C17.1476 11.5112 17.3846 10.7863 17.3846 10.003C17.3846 9.73439 17.3568 9.47276 17.304 9.22105C17.1873 8.66494 16.7022 8.30667 16.1651 8.25459C15.8188 8.22099 15.4679 8.20382 15.1133 8.20382C14.5343 8.20382 13.9654 8.24958 13.4098 8.33785M16.7452 12.1019H14.5454M2.61539 4V9.99754M2.61539 9.99754V15.995M2.61539 9.99754L10.5652 9.9981M10.5652 9.9981V4.00058M10.5652 9.9981V15.9956" stroke="#1F2329" stroke-linecap="round" stroke-linejoin="round"/>
</svg>
