<svg width="20" height="20" viewBox="0 0 20 20" fill="none" xmlns="http://www.w3.org/2000/svg">
<path d="M4.02513 4.02513L4.37868 4.37868L4.37868 4.37868L4.02513 4.02513ZM15.9749 4.02513L15.6213 4.37867L15.6213 4.37869L15.9749 4.02513ZM15.9749 15.9749L15.6213 15.6213L15.6213 15.6213L15.9749 15.9749ZM4.02513 15.9749L4.37869 15.6213L4.37867 15.6213L4.02513 15.9749ZM7.90355 9.99645C7.70829 9.80118 7.39171 9.80118 7.19645 9.99645C7.00118 10.1917 7.00118 10.5083 7.19645 10.7036L7.90355 9.99645ZM8.95 11.75L8.59645 12.1036C8.79171 12.2988 9.10829 12.2988 9.30355 12.1036L8.95 11.75ZM12.8036 8.60355C12.9988 8.40829 12.9988 8.09171 12.8036 7.89645C12.6083 7.70118 12.2917 7.70118 12.0964 7.89645L12.8036 8.60355ZM3.5 10C3.5 8.33595 3.50106 7.13821 3.62368 6.22617C3.74437 5.32852 3.9745 4.78286 4.37868 4.37868L3.67158 3.67157C3.05063 4.29252 2.7682 5.08438 2.6326 6.09292C2.49894 7.08708 2.5 8.36422 2.5 10H3.5ZM4.37868 4.37868C4.78286 3.9745 5.32852 3.74437 6.22617 3.62368C7.13821 3.50106 8.33595 3.5 10 3.5V2.5C8.36422 2.5 7.08708 2.49894 6.09292 2.6326C5.08438 2.7682 4.29252 3.05063 3.67157 3.67158L4.37868 4.37868ZM10 3.5C11.664 3.5 12.8618 3.50106 13.7738 3.62368C14.6715 3.74437 15.2171 3.9745 15.6213 4.37867L16.3284 3.67158C15.7075 3.05063 14.9156 2.76819 13.9071 2.6326C12.9129 2.49894 11.6358 2.5 10 2.5V3.5ZM15.6213 4.37869C16.0255 4.78286 16.2556 5.32852 16.3763 6.22617C16.4989 7.13821 16.5 8.33595 16.5 10H17.5C17.5 8.36422 17.5011 7.08708 17.3674 6.09292C17.2318 5.08438 16.9494 4.29252 16.3284 3.67157L15.6213 4.37869ZM16.5 10C16.5 11.664 16.4989 12.8618 16.3763 13.7738C16.2556 14.6715 16.0255 15.2171 15.6213 15.6213L16.3284 16.3284C16.9494 15.7075 17.2318 14.9156 17.3674 13.9071C17.5011 12.9129 17.5 11.6358 17.5 10H16.5ZM15.6213 15.6213C15.2171 16.0255 14.6715 16.2556 13.7738 16.3763C12.8618 16.4989 11.664 16.5 10 16.5V17.5C11.6358 17.5 12.9129 17.5011 13.9071 17.3674C14.9156 17.2318 15.7075 16.9494 16.3284 16.3284L15.6213 15.6213ZM10 16.5C8.33595 16.5 7.13821 16.4989 6.22617 16.3763C5.32852 16.2556 4.78286 16.0255 4.37869 15.6213L3.67157 16.3284C4.29252 16.9494 5.08438 17.2318 6.09292 17.3674C7.08708 17.5011 8.36422 17.5 10 17.5V16.5ZM4.37867 15.6213C3.9745 15.2171 3.74437 14.6715 3.62368 13.7738C3.50106 12.8618 3.5 11.664 3.5 10H2.5C2.5 11.6358 2.49894 12.9129 2.6326 13.9071C2.76819 14.9156 3.05063 15.7075 3.67158 16.3284L4.37867 15.6213ZM7.19645 10.7036L8.59645 12.1036L9.30355 11.3964L7.90355 9.99645L7.19645 10.7036ZM9.30355 12.1036L12.8036 8.60355L12.0964 7.89645L8.59645 11.3964L9.30355 12.1036Z" fill="#1F2329"/>
</svg>
