<svg width="20" height="20" viewBox="0 0 20 20" fill="none" xmlns="http://www.w3.org/2000/svg">
<path d="M6.00065 16C5.81176 16 5.65343 15.9361 5.52565 15.8083C5.39787 15.6806 5.33398 15.5222 5.33398 15.3333C5.33398 15.1444 5.39787 14.9861 5.52565 14.8583C5.65343 14.7306 5.81176 14.6667 6.00065 14.6667H14.0007C14.1895 14.6667 14.3479 14.7306 14.4757 14.8583C14.6034 14.9861 14.6673 15.1444 14.6673 15.3333C14.6673 15.5222 14.6034 15.6806 14.4757 15.8083C14.3479 15.9361 14.1895 16 14.0007 16H6.00065ZM6.46732 13.6667C6.1451 13.6667 5.85898 13.5611 5.60898 13.35C5.35898 13.1389 5.20621 12.8722 5.15065 12.55L4.48398 8.31667C4.46176 8.31667 4.43676 8.31944 4.40898 8.325C4.38121 8.33056 4.35621 8.33333 4.33398 8.33333C4.05621 8.33333 3.8201 8.23611 3.62565 8.04167C3.43121 7.84722 3.33398 7.61111 3.33398 7.33333C3.33398 7.05556 3.43121 6.81944 3.62565 6.625C3.8201 6.43056 4.05621 6.33333 4.33398 6.33333C4.61176 6.33333 4.84787 6.43056 5.04232 6.625C5.23676 6.81944 5.33398 7.05556 5.33398 7.33333C5.33398 7.41111 5.32565 7.48333 5.30898 7.55C5.29232 7.61667 5.27287 7.67778 5.25065 7.73333L7.33398 8.66667L9.41732 5.81667C9.29509 5.72778 9.1951 5.61111 9.11732 5.46667C9.03954 5.32222 9.00065 5.16667 9.00065 5C9.00065 4.72222 9.09787 4.48611 9.29232 4.29167C9.48676 4.09722 9.72287 4 10.0007 4C10.2784 4 10.5145 4.09722 10.709 4.29167C10.9034 4.48611 11.0007 4.72222 11.0007 5C11.0007 5.16667 10.9618 5.32222 10.884 5.46667C10.8062 5.61111 10.7062 5.72778 10.584 5.81667L12.6673 8.66667L14.7507 7.73333C14.7284 7.67778 14.709 7.61667 14.6923 7.55C14.6757 7.48333 14.6673 7.41111 14.6673 7.33333C14.6673 7.05556 14.7645 6.81944 14.959 6.625C15.1534 6.43056 15.3895 6.33333 15.6673 6.33333C15.9451 6.33333 16.1812 6.43056 16.3757 6.625C16.5701 6.81944 16.6673 7.05556 16.6673 7.33333C16.6673 7.61111 16.5701 7.84722 16.3757 8.04167C16.1812 8.23611 15.9451 8.33333 15.6673 8.33333C15.6451 8.33333 15.6201 8.33056 15.5923 8.325C15.5645 8.31944 15.5395 8.31667 15.5173 8.31667L14.8507 12.55C14.7951 12.8722 14.6423 13.1389 14.3923 13.35C14.1423 13.5611 13.8562 13.6667 13.534 13.6667H6.46732Z" fill="url(#paint0_linear_2885_26951)"/>
<defs>
<linearGradient id="paint0_linear_2885_26951" x1="5.00049" y1="15.6667" x2="17.1119" y2="10.3104" gradientUnits="userSpaceOnUse">
<stop stop-color="#8032FF"/>
<stop offset="0.765" stop-color="#FB3DFF"/>
</linearGradient>
</defs>
</svg>
