<svg id="emoji" viewBox="0 0 72 72" xmlns="http://www.w3.org/2000/svg">
  <g id="color">
    <path fill="#9B9B9A" stroke="none" d="M53.2127,6.2105l-6.25,6c0,0-5.875-3.125-12-3.125s-10.75,3-10.75,3l-6.75-6l-3.25-0.375l-3,3.75l-1.5,7.5 c0,0-0.125,9.75,2.5,11.625s-2,13.25-2,13.25l3.375,6.75l8,5.625l2.75,1.875c0,0,3.3331,7.5833,10.9944,5.5959 c0,0,5.7556,3.4875,10.3806-5.4709l2.5-1.5l6.375-3.625l6-8.125c0,0-3.25-10.75-2.5-14.25s2.875-9.5,2.625-11.25s-2-8.625-2-8.625 S56.8377,4.0855,53.2127,6.2105z"/>
    <path fill="#3F3F3F" stroke="none" d="M12.421,45.5021c0,0,4.0833-10.25,10.1667-10l7.5833-0.4167l2.25,3.1667c0,0,0.9857,5.682-0.6702,9.5016 c-0.3188,0.7354,0.2502,1.5299,1.0442,1.4201c1.1109-0.1535,2.5407-0.2071,4.1332,0.0797c0.7536,0.1357,1.3819-0.5736,1.13-1.2966 c-0.6854-1.9673-1.4463-5.4314-0.5539-9.7882l2.75-2.9167l3.75,0.1667l3.5,0.5833c0,0,9.5-2,9.9167,10.25l2.6667-3.9167l-2.5-12.25 l1-2.5833l2-7.5l-1.0833-8.9167l-2.75-5.1667L52.671,6.0021l-4.4167,5.1667l-1.6667,0.6667l-5.25-1.8333l-9.25-0.6667 l-8.4167,2.8333l-6-6.8333l-3.5833-0.1667l-3.5,5.6667l-0.8333,6.9167l1.25,6.9167l1.5833,3.6667l-0.75,6.8333l-2,6.5 L12.421,45.5021z"/>
    <path fill="#3F3F3F" stroke="none" d="M29.489,53.0348c0,0,4.4375-2.5625,11.1875,0.125l0.0625,0.8125l-2.25,1.5l-0.9375,1.625 c0,0-1.3125,1.25-2,1c-0.6875-0.25-3-1.125-3-1.125l-0.75-1.5625l-2.625-1.4375l0.0625-0.875"/>
    <path fill="#9B9B9A" stroke="none" d="M55.2752,8.7105c0,0,5.25,8.5625,0.75,17.5c0,0-4.4375-6.5-7.9375-6.375 C48.0877,19.8355,55.1502,15.5855,55.2752,8.7105z"/>
    <path fill="#9B9B9A" stroke="none" d="M14.7227,8.7105c0,0-5.25,8.5625-0.75,17.5c0,0,4.4375-6.5,7.9375-6.375 C21.9102,19.8355,14.8477,15.5855,14.7227,8.7105z"/>
    <path fill="#9B9B9A" stroke="none" d="M29.1765,62.0759c0.1166,2.4426,0.8751,4.2037,2.6761,4.858h6.5847 c2.1107-0.7139,2.5376-2.4764,2.3018-4.6519L29.1765,62.0759"/>
  </g>
  <g id="hair"/>
  <g id="skin"/>
  <g id="skin-shadow"/>
  <g id="line">
    <circle cx="26.2495" cy="40.2751" r="2" fill="#000000" stroke="none"/>
    <circle cx="44.2944" cy="40.5106" r="2" fill="#000000" stroke="none"/>
    <path fill="none" stroke="#000000" stroke-linecap="round" stroke-linejoin="round" stroke-miterlimit="10" stroke-width="2" d="M29.3116,53.9749l2.375,1.3959c0,0,0.4899,2.9667,3.2712,2.748v3.5625c0,0-3.4688,1.7604-6.3438-0.5312 c-2.2371-1.7832-3.5938-4.6875-3.5938-4.6875"/>
    <path fill="none" stroke="#000000" stroke-linecap="round" stroke-linejoin="round" stroke-miterlimit="10" stroke-width="2" d="M21.739,53.3376c-3.8308-1.0774-6.3025-3.0804-7.8464-5.5039L9.871,42.3259c2.7739-7.0508,2.5763-14.1342,2.5763-14.1342 c-4.7083-8.6667-1.625-17.4583-1.625-17.4583c2.5417-8.2917,6.7917-5.0417,6.7917-5.0417c3.0417,5.1667,9.875,8.9167,9.875,8.9167"/>
    <path fill="none" stroke="#000000" stroke-linecap="round" stroke-linejoin="round" stroke-miterlimit="10" stroke-width="2" d="M15.614,9.2126c0,0,0.375,7.5,7.3125,10.375c0,0-6.6983,1.679-7.7816,6.3457"/>
    <path fill="none" stroke="#000000" stroke-linecap="round" stroke-linejoin="round" stroke-miterlimit="10" stroke-width="2" d="M54.8556,9.2126c0,0-0.375,7.5-7.3125,10.375c0,0,6.6983,1.679,7.7816,6.3457"/>
    <path fill="none" stroke="#000000" stroke-linecap="round" stroke-linejoin="round" stroke-miterlimit="10" stroke-width="2" d="M30.9474,40.5106c0,0,2.711-4.3812-1.25-5.6689c-2.7917-0.9075-6.2083,1.0584-6.2083,1.0584"/>
    <path fill="none" stroke="#000000" stroke-linecap="round" stroke-linejoin="round" stroke-miterlimit="10" stroke-width="2" d="M35.3321,61.6813c0,0,3.4688,1.7604,6.3438-0.5312c2.2371-1.7832,3.5938-4.6875,3.5938-4.6875"/>
    <path fill="none" stroke="#000000" stroke-linecap="round" stroke-linejoin="round" stroke-miterlimit="10" stroke-width="2" d="M40.6873,53.9749l-2.7917,1.3959c0,0-0.1566,2.9667-2.9378,2.748"/>
    <path fill="none" stroke="#000000" stroke-linecap="round" stroke-linejoin="round" stroke-miterlimit="10" stroke-width="2" d="M42.8008,14.9502c0,0,6.8333-3.75,9.875-8.9167c0,0,4.25-3.25,6.7917,5.0417c0,0,3.0833,8.7917-1.625,17.4583 c0,0-0.0675,7.3188,2.6299,13.7929l-4.6974,6.7357c-1.5598,2.0223-3.8715,3.6742-7.2242,4.6172"/>
    <path fill="none" stroke="#000000" stroke-linecap="round" stroke-linejoin="round" stroke-miterlimit="10" stroke-width="2" d="M39.3425,40.8524c0,0-2.7109-4.3812,1.25-5.6689c2.7917-0.9075,6.2083,1.0584,6.2083,1.0584"/>
    <path fill="none" stroke="#000000" stroke-linecap="round" stroke-linejoin="round" stroke-miterlimit="10" stroke-width="2" d="M24.6882,11.4515c0,0,7.9524-5.5773,21.3522,0"/>
    <path fill="none" stroke="#000000" stroke-linecap="round" stroke-linejoin="round" stroke-miterlimit="10" stroke-width="2" d="M31.3533,65.8686c2.7191,1.4858,5.2903,1.3535,7.75,0"/>
  </g>
</svg>
