<svg id="emoji" viewBox="0 0 72 72" xmlns="http://www.w3.org/2000/svg">
  <g id="color">
    <path fill="#e27022" d="M50.63,15.6a1.2,1.2,0,0,1-1.73,1.18c-1.08-.56-2.98-1.24-3.92-.35a.3039.3039,0,0,1-.07.05c-1.52-2.09-4.21-3.79-8.91-3.79a3.7944,3.7944,0,0,1,3.56-4.24,8.4848,8.4848,0,0,0,4.73-2.06,5.0935,5.0935,0,0,1,.65,3.96l.49.01C49.15,10.36,50.4,13.41,50.63,15.6Z"/>
    <path fill="#b1cc33" d="M36.0022,42.0333c-15.2776,0-10.5548-6.0794-10.5548-12.7628,0-3.5808-.3769-3.4016-.3769-5.9038s.6328-10.681,10.9317-10.681,10.9317,8.1789,10.9317,10.681-.3769,2.323-.3769,5.9038C46.557,35.9539,51.28,42.0333,36.0022,42.0333Z"/>
    <path fill="#b1cc33" d="M46.9339,23.3667c2.137-2.8369,5.3093-2.0623,8.8-4.36-.548,3.5228-1.6172,12.3056-8.9959,12.787Z"/>
    <path fill="#b1cc33" d="M25.2622,31.7941c-7.3787-.4814-8.4479-9.2642-8.9959-12.787,3.49,2.2973,6.6628,1.5227,8.8,4.36Z"/>
    <path fill="#b1cc33" d="M17.0625,57.8177s-2-13,10-13c3.1918,2.1279,5.9264,3.5984,9,3.5922h-.125c3.0736.0062,5.8081-1.4643,9-3.5922,12,0,10,13,10,13l.0076,1H17.0361Z"/>
    <path fill="#5c9e31" d="M36,58.8164c8.1262-10.7061,8.3828-14.831,8.3828-14.831a1.0008,1.0008,0,0,1,.5547-.168c3.6563,0,6.4844,1.1357,8.4072,3.3769C56.8984,51.3369,55.9668,57.7,55.9258,57.97a.9991.9991,0,0,1-.9863.8467Z"/>
    <path fill="#a57939" d="M44.9635,57.8182A47.8735,47.8735,0,0,1,51.43,50.9394c4.4058-3.4682,6.7662-3.56,10.948-8.9061,2.0629-2.6374,2.6374-7.2817,0-9.3447S56.024,31.4452,53.5,34.5164c-4.681,5.6962-3.8249,8.713-6.1991,13.1933A102.5608,102.5608,0,0,1,40.4972,57.816v1h4.4654Z"/>
    <path fill="#fff" d="M31.0551,31.4981h0a2.6068,2.6068,0,0,1,2.6068,2.6068v.651a0,0,0,0,1,0,0H31.0551a0,0,0,0,1,0,0V31.4981A0,0,0,0,1,31.0551,31.4981Z"/>
    <path transform="translate(79.3987 66.254) rotate(180)" fill="#fff" d="M38.3959,31.4981h2.6068a0,0,0,0,1,0,0v.651a2.6068,2.6068,0,0,1-2.6068,2.6068h0a0,0,0,0,1,0,0V31.4981A0,0,0,0,1,38.3959,31.4981Z"/>
  </g>
  <g id="line">
    <path fill="none" stroke="#000" stroke-linecap="round" stroke-linejoin="round" stroke-width="2" d="M54.7288,52.4471a16.7057,16.7057,0,0,1,.2087,5.3706"/>
    <path fill="none" stroke="#000" stroke-linecap="round" stroke-linejoin="round" stroke-width="2" d="M17.0625,57.8177s-2-13,10-13c3.1918,2.1279,5.9264,3.5984,9,3.5922h-.125c3.0736.0062,5.8081-1.4643,9-3.5922"/>
    <path fill="none" stroke="#000" stroke-linecap="round" stroke-linejoin="round" stroke-width="2" d="M44.287,12.09a5.0267,5.0267,0,0,0,0-5.7006,8.4359,8.4359,0,0,1-4.7251,2.0561,3.7937,3.7937,0,0,0-3.56,4.24"/>
    <path fill="none" stroke="#000" stroke-linecap="round" stroke-linejoin="round" stroke-width="2" d="M46.9339,23.3667c2.137-2.8369,5.3093-2.0623,8.8-4.36-.548,3.5228-1.6172,12.3056-8.9959,12.787"/>
    <path fill="none" stroke="#000" stroke-linecap="round" stroke-linejoin="round" stroke-width="2" d="M25.2622,31.7941c-7.3787-.4814-8.4479-9.2642-8.9959-12.787,3.49,2.2973,6.6628,1.5227,8.8,4.36"/>
    <path fill="none" stroke="#000" stroke-linecap="round" stroke-linejoin="round" stroke-width="2" d="M36.0022,42.0333c-15.2776,0-10.5548-6.0794-10.5548-12.7628,0-3.5808-.3769-3.4016-.3769-5.9038s.6328-10.681,10.9317-10.681,10.9317,8.1789,10.9317,10.681-.3769,2.323-.3769,5.9038C46.557,35.9539,51.28,42.0333,36.0022,42.0333Z"/>
    <path d="M42.0023,26.4993a2,2,0,1,1-2-2,2,2,0,0,1,2,2"/>
    <path d="M34.0023,26.4993a2,2,0,1,1-2-2,2,2,0,0,1,2,2"/>
    <path fill="none" stroke="#000" stroke-linecap="round" stroke-linejoin="round" stroke-width="2" d="M38.039,23.0265a5.4257,5.4257,0,0,1,5.0488-1.2713"/>
    <path fill="none" stroke="#000" stroke-linecap="round" stroke-linejoin="round" stroke-width="2" d="M28.97,21.7552a5.4256,5.4256,0,0,1,5.0488,1.2713"/>
    <path fill="none" stroke="#000" stroke-linecap="round" stroke-linejoin="round" stroke-width="2" d="M44.9635,57.8182A47.8735,47.8735,0,0,1,51.43,50.9394c4.4058-3.4682,6.7662-3.56,10.948-8.9061,2.0629-2.6374,2.6374-7.2817,0-9.3447S56.024,31.4452,53.5,34.5164c-4.681,5.6962-3.8249,8.713-6.1991,13.1933A102.5608,102.5608,0,0,1,40.4972,57.816"/>
    <line x1="50.3728" x2="53.5159" y1="36.0726" y2="37.974" fill="none" stroke="#000" stroke-linecap="round" stroke-linejoin="round" stroke-width="2"/>
    <line x1="56.4724" x2="58.3992" y1="45.2117" y2="48.3395" fill="none" stroke="#000" stroke-linecap="round" stroke-linejoin="round" stroke-width="2"/>
    <line x1="59.3606" x2="59.0523" y1="29.4325" y2="33.0931" fill="none" stroke="#000" stroke-linecap="round" stroke-linejoin="round" stroke-width="2"/>
    <line x1="31.0551" x2="31.0551" y1="32.4956" y2="35.2715" fill="none" stroke="#000" stroke-linecap="round" stroke-linejoin="round" stroke-width="2"/>
    <line x1="42.2494" x2="29.8085" y1="35.2715" y2="35.2715" fill="none" stroke="#000" stroke-linecap="round" stroke-linejoin="round" stroke-width="2"/>
    <line x1="41.0027" x2="41.0027" y1="32.4956" y2="35.2715" fill="none" stroke="#000" stroke-linecap="round" stroke-linejoin="round" stroke-width="2"/>
    <path fill="none" stroke="#000" stroke-linecap="round" stroke-linejoin="round" stroke-width="2" d="M47.2467,15.1081a9.3183,9.3183,0,0,1,2.754,1.1523s0-5.21-4.4936-5.21"/>
  </g>
</svg>
