<svg width="14" height="14" viewBox="0 0 14 14" fill="none" xmlns="http://www.w3.org/2000/svg">
<g clip-path="url(#clip0_1068_189668)">
<path fill-rule="evenodd" clip-rule="evenodd" d="M0 1.5C0 0.671573 0.671573 0 1.5 0H12.5C13.3284 0 14 0.671573 14 1.5V12.5C14 13.3284 13.3284 14 12.5 14H1.5C0.671573 14 0 13.3284 0 12.5V1.5ZM3.5 9.875C3.15482 9.875 2.875 10.1548 2.875 10.5C2.875 10.8452 3.15482 11.125 3.5 11.125H10.5C10.8452 11.125 11.125 10.8452 11.125 10.5C11.125 10.1548 10.8452 9.875 10.5 9.875H3.5ZM5.75958 2.93145C5.98218 3.03309 6.125 3.25529 6.125 3.5V7.83429C6.125 8.17946 5.84518 8.45929 5.5 8.45929C5.15482 8.45929 4.875 8.17946 4.875 7.83429V4.86892L3.90938 5.70598C3.64856 5.93207 3.25383 5.90392 3.02774 5.6431C2.80164 5.38228 2.82979 4.98755 3.09062 4.76145L5.09062 3.02774C5.27553 2.86745 5.53697 2.82982 5.75958 2.93145ZM8.90938 3.02774C8.72447 2.86745 8.46303 2.82982 8.24042 2.93145C8.01782 3.03309 7.875 3.25529 7.875 3.5V7.83429C7.875 8.17946 8.15482 8.45929 8.5 8.45929C8.84518 8.45929 9.125 8.17946 9.125 7.83429V4.86892L10.0906 5.70598C10.3514 5.93207 10.7462 5.90392 10.9723 5.6431C11.1984 5.38228 11.1702 4.98755 10.9094 4.76145L8.90938 3.02774Z" fill="black"/>
</g>
<defs>
<clipPath id="clip0_1068_189668">
<rect width="14" height="14" fill="white"/>
</clipPath>
</defs>
</svg>
