<svg width="14" height="14" viewBox="0 0 14 14" fill="none" xmlns="http://www.w3.org/2000/svg">
<path fill-rule="evenodd" clip-rule="evenodd" d="M0.5 2C0.223858 2 0 2.22386 0 2.5C0 2.77614 0.223858 3 0.5 3H0.525391H0.550781H0.576172H0.601562H0.626953H0.652344H0.677734H0.703125H0.728516H0.75V11H0.728516H0.703125H0.677734H0.652344H0.626953H0.601562H0.576172H0.550781H0.525391H0.5C0.223858 11 0 11.2239 0 11.5C0 11.7761 0.223858 12 0.5 12H0.525391H0.550781H0.576172H0.601562H0.626953H0.652344H0.677734H0.703125H0.728516H0.753906H0.779297H0.804688H0.830078H0.855469H0.880859H0.90625H0.931641H0.957031H0.982422H1.00781H1.0332H1.05859H1.08398H1.10938H1.13477H1.16016H1.18555H1.21094H1.23633H1.25H1.26172H1.28711H1.3125H1.33789H1.36328H1.38867H1.41406H1.43945H1.46484H1.49023H1.51562H1.54102H1.56641H1.5918H1.61719H1.64258H1.66797H1.69336H1.71875H1.74414H1.76953H1.79492H1.82031H1.8457H1.87109H1.89648H1.92188H1.94727H1.97266H1.99805H2.02344H2.04883H2.07422H2.09961H2.125H2.15039H2.17578H2.20117H2.22656H2.25195H2.27734H2.30273H2.32812H2.35352H2.37891H2.4043H2.42969H2.45508H2.48047H2.50586H2.53125H2.55664H2.58203H2.60742H2.63281H2.6582H2.68359H2.70898H2.73438H2.75977H2.78516H2.81055H2.83594H2.86133H2.88672H2.91211H2.9375H2.96289H2.98828H3.01367H3.03906H3.06445H3.08984H3.11523H3.14062H3.16602H3.19141H3.2168H3.24219H3.26758H3.29297H3.31836H3.34375H3.36914H3.39453H3.41992H3.44531H3.4707H3.49609H3.52148H3.54688H3.57227H3.59766H3.62305H3.64844H3.67383H3.69922H3.72461H3.75H3.77539H3.80078H3.82617H3.85156H3.87695H3.90234H3.92773H3.95313H3.97852H4.00391H4.0293H4.05469H4.08008H4.10547H4.13086H4.15625H4.18164H4.20703H4.23242H4.25781H4.2832H4.30859H4.33398H4.35938H4.38477H4.41016H4.43555H4.46094H4.48633H4.51172H4.53711H4.5625H4.58789H4.61328H4.63867H4.66406H4.68945H4.71484H4.74023H4.76562H4.79102H4.81641H4.8418H4.86719H4.89258H4.91797H4.94336H4.96875H4.99414H5.01953H5.04492H5.07031H5.0957H5.12109H5.14648H5.17188H5.19727H5.22266H5.24805H5.27344H5.29883H5.32422H5.34961H5.375H5.40039H5.42578H5.45117H5.47656H5.50195H5.52734H5.55273H5.57812H5.60352H5.62891H5.6543H5.67969H5.70508H5.73047H5.75586H5.78125H5.80664H5.83203H5.85742H5.88281H5.9082H5.93359H5.95898H5.98438H6.00977H6.03516H6.06055H6.08594H6.11133H6.13672H6.16211H6.1875H6.21289H6.23828H6.26367H6.28906H6.31445H6.33984H6.36523H6.39062H6.41602H6.44141H6.4668H6.49219H6.51758H6.54297H6.56836H6.59375H6.61914H6.64453H6.66992H6.69531H6.7207H6.74609H6.77148H6.79688H6.82227H6.84766H6.87305H6.89844H6.92383H6.94922H6.97461H7H7.02539H7.05078H7.07617H7.10156H7.12695H7.15234H7.17773H7.20313H7.22852H7.25391H7.2793H7.30469H7.33008H7.35547H7.38086H7.40625H7.43164H7.45703H7.48242H7.50781H7.5332H7.55859H7.58398H7.60938H7.63477H7.66016H7.68555H7.71094H7.73633H7.76172H7.78711H7.8125H7.83789H7.86328H7.88867H7.91406H7.93945H7.96484H7.99023H8.01562H8.04102H8.06641H8.0918H8.11719H8.14258H8.16797H8.19336H8.21875H8.24414H8.26953H8.29492H8.32031H8.3457H8.37109H8.39648H8.42188H8.44727H8.47266H8.49805H8.52344H8.54883H8.57422H8.59961H8.625H8.65039H8.67578H8.70117H8.72656H8.75195H8.77734H8.80273H8.82812H8.85352H8.87891H8.9043H8.92969H8.95508H8.98047H9.00586H9.03125H9.05664H9.08203H9.10742H9.13281H9.1582H9.18359H9.20898H9.23438H9.25977H9.28516H9.31055H9.33594H9.36133H9.38672H9.41211H9.4375H9.46289H9.48828H9.51367H9.53906H9.56445H9.58984H9.61523H9.64062H9.66602H9.69141H9.7168H9.74219H9.76758H9.79297H9.81836H9.84375H9.86914H9.89453H9.91992H9.94531H9.9707H9.99609H10.0215H10.0469H10.0723H10.0977H10.123H10.1484H10.1738H10.1992H10.2246H10.25H10.2754H10.3008H10.3262H10.3516H10.377H10.4023H10.4277H10.4531H10.4785H10.5039H10.5293H10.5547H10.5801H10.6055H10.6309H10.6562H10.6816H10.707H10.7324H10.7578H10.7832H10.8086H10.834H10.8594H10.8848H10.9102H10.9355H10.9609H10.9863H11.0117H11.0371H11.0625H11.0879H11.1133H11.1387H11.1641H11.1895H11.2148H11.2402H11.2656H11.291H11.3164H11.3418H11.3672H11.3926H11.418H11.4434H11.4688H11.4941H11.5195H11.5449H11.5703H11.5957H11.6211H11.6465H11.6719H11.6973H11.7227H11.748H11.7734H11.7988H11.8242H11.8496H11.875H11.9004H11.9258H11.9512H11.9766H12.002H12.0273H12.0527H12.0781H12.1035H12.1289H12.1543H12.1797H12.2051H12.2305H12.2559H12.2812H12.3066H12.332H12.3574H12.3828H12.4082H12.4336H12.459H12.4844H12.5098H12.5352H12.5605H12.5859H12.6113H12.6367H12.6621H12.6875H12.7129H12.7383H12.75H12.7637H12.7891H12.8145H12.8398H12.8652H12.8906H12.916H12.9414H12.9668H12.9922H13.0176H13.043H13.0684H13.0938H13.1191H13.1445H13.1699H13.1953H13.2207H13.2461H13.2715H13.2969H13.3223H13.3477H13.373H13.3984H13.4238H13.4492H13.4746H13.5C13.7761 12 14 11.7761 14 11.5C14 11.2239 13.7761 11 13.5 11H13.4746H13.4492H13.4238H13.3984H13.373H13.3477H13.3223H13.2969H13.2715H13.25V3H13.2715H13.2969H13.3223H13.3477H13.373H13.3984H13.4238H13.4492H13.4746H13.5C13.7761 3 14 2.77614 14 2.5C14 2.22386 13.7761 2 13.5 2H13.4746H13.4492H13.4238H13.3984H13.373H13.3477H13.3223H13.2969H13.2715H13.2461H13.2207H13.1953H13.1699H13.1445H13.1191H13.0938H13.0684H13.043H13.0176H12.9922H12.9668H12.9414H12.916H12.8906H12.8652H12.8398H12.8145H12.7891H12.7637H12.75H12.7383H12.7275H12.7129H12.7051H12.6875H12.6826H12.6621H12.6602H12.6377H12.6367H12.6152H12.6113H12.5928H12.5859H12.5703H12.5605H12.5479H12.5352H12.5254H12.5098H12.5029H12.4844H12.4805H12.459H12.4355H12.4336H12.4131H12.4082H12.3906H12.3828H12.3682H12.3574H12.3457H12.332H12.3232H12.3066H12.3008H12.2812H12.2783H12.2559H12.2334H12.2305H12.2109H12.2051H12.1885H12.1797H12.166H12.1543H12.1436H12.1289H12.1211H12.1035H12.0986H12.0781H12.0762H12.0537H12.0527H12.0312H12.0273H12.0088H12.002H11.9863H11.9766H11.9639H11.9512H11.9414H11.9258H11.9189H11.9004H11.8965H11.875H11.874H11.8516H11.8496H11.8291H11.8242H11.8066H11.7988H11.7842H11.7734H11.7617H11.748H11.7393H11.7227H11.7168H11.6973H11.6943H11.6719H11.6494H11.6465H11.627H11.6211H11.6045H11.5957H11.582H11.5703H11.5596H11.5449H11.5371H11.5195H11.5146H11.4941H11.4922H11.4697H11.4473H11.4434H11.4248H11.418H11.4023H11.3926H11.3799H11.3672H11.3574H11.3418H11.335H11.3164H11.3125H11.291H11.29H11.2676H11.2656H11.2451H11.2402H11.2227H11.2148H11.2002H11.1895H11.1777H11.1641H11.1553H11.1387H11.1328H11.1133H11.1104H11.0879H11.0654H11.0625H11.043H11.0371H11.0205H11.0117H10.998H10.9863H10.9756H10.9609H10.9531H10.9355H10.9307H10.9102H10.9082H10.8857H10.8633H10.8594H10.8408H10.834H10.8184H10.8086H10.7959H10.7832H10.7734H10.7578H10.751H10.7324H10.7285H10.707H10.6836H10.6816H10.6611H10.6562H10.6387H10.6309H10.6162H10.6055H10.5938H10.5801H10.5713H10.5547H10.5488H10.5293H10.5264H10.5039H10.4814H10.4785H10.459H10.4531H10.4365H10.4277H10.4141H10.4023H10.3916H10.377H10.3691H10.3516H10.3467H10.3262H10.3242H10.3018H10.2793H10.2754H10.2568H10.25H10.2344H10.2246H10.2119H10.1992H10.1895H10.1738H10.167H10.1484H10.1445H10.123H10.0996H10.0977H10.0771H10.0723H10.0547H10.0469H10.0322H10.0215H10.0098H9.99609H9.9873H9.9707H9.96484H9.94531H9.94238H9.91992H9.89746H9.89453H9.875H9.86914H9.85254H9.84375H9.83008H9.81836H9.80762H9.79297H9.78516H9.76758H9.7627H9.74219H9.74023H9.71777H9.69531H9.69141H9.67285H9.66602H9.65039H9.64062H9.62793H9.61523H9.60547H9.58984H9.58301H9.56445H9.56055H9.53906H9.51562H9.51367H9.49316H9.48828H9.4707H9.46289H9.44824H9.4375H9.42578H9.41211H9.40332H9.38672H9.38086H9.36133H9.3584H9.33594H9.31348H9.31055H9.29102H9.28516H9.26855H9.25977H9.24609H9.23438H9.22363H9.20898H9.20117H9.18359H9.17871H9.1582H9.15625H9.13379H9.11133H9.10742H9.08887H9.08203H9.06641H9.05664H9.04395H9.03125H9.02148H9.00586H8.99902H8.98047H8.97656H8.95508H8.93164H8.92969H8.90918H8.9043H8.88672H8.87891H8.86426H8.85352H8.8418H8.82812H8.81934H8.80273H8.79688H8.77734H8.77441H8.75195H8.72949H8.72656H8.70703H8.70117H8.68457H8.67578H8.66211H8.65039H8.63965H8.625H8.61719H8.59961H8.59473H8.57422H8.57227H8.5498H8.52734H8.52344H8.50488H8.49805H8.48242H8.47266H8.45996H8.44727H8.4375H8.42188H8.41504H8.39648H8.39258H8.37109H8.34766H8.3457H8.3252H8.32031H8.30273H8.29492H8.28027H8.26953H8.25781H8.24414H8.23535H8.21875H8.21289H8.19336H8.19043H8.16797H8.14551H8.14258H8.12305H8.11719H8.10059H8.0918H8.07812H8.06641H8.05566H8.04102H8.0332H8.01562H8.01074H7.99023H7.98828H7.96582H7.94336H7.93945H7.9209H7.91406H7.89844H7.88867H7.87598H7.86328H7.85352H7.83789H7.83105H7.8125H7.80859H7.78711H7.76367H7.76172H7.74121H7.73633H7.71875H7.71094H7.69629H7.68555H7.67383H7.66016H7.65137H7.63477H7.62891H7.60938H7.60645H7.58398H7.56152H7.55859H7.53906H7.5332H7.5166H7.50781H7.49414H7.48242H7.47168H7.45703H7.44922H7.43164H7.42676H7.40625H7.4043H7.38184H7.35938H7.35547H7.33691H7.33008H7.31445H7.30469H7.29199H7.2793H7.26953H7.25391H7.24707H7.22852H7.22461H7.20313H7.17969H7.17773H7.15723H7.15234H7.13477H7.12695H7.1123H7.10156H7.08984H7.07617H7.06738H7.05078H7.04492H7.02539H7.02246H7H6.97754H6.97461H6.95508H6.94922H6.93262H6.92383H6.91016H6.89844H6.8877H6.87305H6.86523H6.84766H6.84277H6.82227H6.82031H6.79785H6.77539H6.77148H6.75293H6.74609H6.73047H6.7207H6.70801H6.69531H6.68555H6.66992H6.66309H6.64453H6.64062H6.61914H6.5957H6.59375H6.57324H6.56836H6.55078H6.54297H6.52832H6.51758H6.50586H6.49219H6.4834H6.4668H6.46094H6.44141H6.43848H6.41602H6.39355H6.39062H6.37109H6.36523H6.34863H6.33984H6.32617H6.31445H6.30371H6.28906H6.28125H6.26367H6.25879H6.23828H6.23633H6.21387H6.19141H6.1875H6.16895H6.16211H6.14648H6.13672H6.12402H6.11133H6.10156H6.08594H6.0791H6.06055H6.05664H6.03516H6.01172H6.00977H5.98926H5.98438H5.9668H5.95898H5.94434H5.93359H5.92188H5.9082H5.89941H5.88281H5.87695H5.85742H5.85449H5.83203H5.80957H5.80664H5.78711H5.78125H5.76465H5.75586H5.74219H5.73047H5.71973H5.70508H5.69727H5.67969H5.6748H5.6543H5.65234H5.62988H5.60742H5.60352H5.58496H5.57812H5.5625H5.55273H5.54004H5.52734H5.51758H5.50195H5.49512H5.47656H5.47266H5.45117H5.42773H5.42578H5.40527H5.40039H5.38281H5.375H5.36035H5.34961H5.33789H5.32422H5.31543H5.29883H5.29297H5.27344H5.27051H5.24805H5.22559H5.22266H5.20312H5.19727H5.18066H5.17188H5.1582H5.14648H5.13574H5.12109H5.11328H5.0957H5.09082H5.07031H5.06836H5.0459H5.02344H5.01953H5.00098H4.99414H4.97852H4.96875H4.95605H4.94336H4.93359H4.91797H4.91113H4.89258H4.88867H4.86719H4.84375H4.8418H4.82129H4.81641H4.79883H4.79102H4.77637H4.76562H4.75391H4.74023H4.73145H4.71484H4.70898H4.68945H4.68652H4.66406H4.6416H4.63867H4.61914H4.61328H4.59668H4.58789H4.57422H4.5625H4.55176H4.53711H4.5293H4.51172H4.50684H4.48633H4.48438H4.46191H4.43945H4.43555H4.41699H4.41016H4.39453H4.38477H4.37207H4.35938H4.34961H4.33398H4.32715H4.30859H4.30469H4.2832H4.25977H4.25781H4.2373H4.23242H4.21484H4.20703H4.19238H4.18164H4.16992H4.15625H4.14746H4.13086H4.125H4.10547H4.10254H4.08008H4.05762H4.05469H4.03516H4.0293H4.0127H4.00391H3.99023H3.97852H3.96777H3.95313H3.94531H3.92773H3.92285H3.90234H3.90039H3.87793H3.85547H3.85156H3.83301H3.82617H3.81055H3.80078H3.78809H3.77539H3.76562H3.75H3.74316H3.72461H3.7207H3.69922H3.67578H3.67383H3.65332H3.64844H3.63086H3.62305H3.6084H3.59766H3.58594H3.57227H3.56348H3.54688H3.54102H3.52148H3.51855H3.49609H3.47363H3.4707H3.45117H3.44531H3.42871H3.41992H3.40625H3.39453H3.38379H3.36914H3.36133H3.34375H3.33887H3.31836H3.31641H3.29395H3.27148H3.26758H3.24902H3.24219H3.22656H3.2168H3.2041H3.19141H3.18164H3.16602H3.15918H3.14062H3.13672H3.11523H3.0918H3.08984H3.06934H3.06445H3.04688H3.03906H3.02441H3.01367H3.00195H2.98828H2.97949H2.96289H2.95703H2.9375H2.93457H2.91211H2.88965H2.88672H2.86719H2.86133H2.84473H2.83594H2.82227H2.81055H2.7998H2.78516H2.77734H2.75977H2.75488H2.73438H2.73242H2.70996H2.6875H2.68359H2.66504H2.6582H2.64258H2.63281H2.62012H2.60742H2.59766H2.58203H2.5752H2.55664H2.55273H2.53125H2.50781H2.50586H2.48535H2.48047H2.46289H2.45508H2.44043H2.42969H2.41797H2.4043H2.39551H2.37891H2.37305H2.35352H2.35059H2.32812H2.30566H2.30273H2.2832H2.27734H2.26074H2.25195H2.23828H2.22656H2.21582H2.20117H2.19336H2.17578H2.1709H2.15039H2.14844H2.12598H2.10352H2.09961H2.08105H2.07422H2.05859H2.04883H2.03613H2.02344H2.01367H1.99805H1.99121H1.97266H1.96875H1.94727H1.92383H1.92188H1.90137H1.89648H1.87891H1.87109H1.85645H1.8457H1.83398H1.82031H1.81152H1.79492H1.78906H1.76953H1.7666H1.74414H1.72168H1.71875H1.69922H1.69336H1.67676H1.66797H1.6543H1.64258H1.63184H1.61719H1.60938H1.5918H1.58691H1.56641H1.56445H1.54199H1.51953H1.51562H1.49707H1.49023H1.47461H1.46484H1.45215H1.43945H1.42969H1.41406H1.40723H1.38867H1.38477H1.36328H1.33984H1.33789H1.31738H1.3125H1.29492H1.28711H1.27246H1.26172H1.25H1.23633H1.21094H1.18555H1.16016H1.13477H1.10938H1.08398H1.05859H1.0332H1.00781H0.982422H0.957031H0.931641H0.90625H0.880859H0.855469H0.830078H0.804688H0.779297H0.753906H0.728516H0.703125H0.677734H0.652344H0.626953H0.601562H0.576172H0.550781H0.525391H0.5ZM4.625 5C4.625 4.65482 4.34518 4.375 4 4.375C3.65482 4.375 3.375 4.65482 3.375 5V9C3.375 9.34518 3.65482 9.625 4 9.625C4.34518 9.625 4.625 9.34518 4.625 9V5ZM7 4.375C7.34518 4.375 7.625 4.65482 7.625 5V9C7.625 9.34518 7.34518 9.625 7 9.625C6.65482 9.625 6.375 9.34518 6.375 9V5C6.375 4.65482 6.65482 4.375 7 4.375ZM10.625 5C10.625 4.65482 10.3452 4.375 10 4.375C9.65482 4.375 9.375 4.65482 9.375 5V9C9.375 9.34518 9.65482 9.625 10 9.625C10.3452 9.625 10.625 9.34518 10.625 9V5Z" fill="black"/>
</svg>
