<svg width="14" height="14" viewBox="0 0 14 14" fill="none" xmlns="http://www.w3.org/2000/svg">
<path fill-rule="evenodd" clip-rule="evenodd" d="M6.04795 2.01602e-05H3.25375C2.68517 -0.00342907 2.19128 0.436134 2.12875 1.00127L1.9375 4.5C1.9375 7.08834 3.67257 8.60093 5.99997 8.93112V11.9758H4.16513C3.61285 11.9758 3.16513 12.4235 3.16513 12.9758C3.16513 13.5281 3.61285 13.9758 4.16513 13.9758H6.99718H6.99997H7.00276H9.83481C10.3871 13.9758 10.8348 13.5281 10.8348 12.9758C10.8348 12.4235 10.3871 11.9758 9.83481 11.9758H7.99997V8.93112C10.3274 8.60094 12.0625 7.08835 12.0625 4.5L11.8712 1.00127C11.8087 0.436134 11.3148 -0.00342907 10.7462 2.01602e-05H7.53439L7.52546 0.014303L6.31771 1.89004L7.91116 3.2821C8.13539 3.47798 8.1903 3.80484 8.04241 4.06324L7.04241 5.81046C6.87095 6.11004 6.48909 6.2139 6.18951 6.04244C5.88993 5.87098 5.78607 5.48912 5.95753 5.18954L6.70323 3.88665L5.08878 2.47625C4.85527 2.27226 4.80662 1.92791 4.97448 1.66721L6.04795 2.01602e-05Z" fill="black"/>
</svg>
