<svg width="14" height="14" viewBox="0 0 14 14" fill="none" xmlns="http://www.w3.org/2000/svg">
<g clip-path="url(#clip0_1068_189674)">
<path fill-rule="evenodd" clip-rule="evenodd" d="M3.47819 0.660628C4.60113 0.14381 5.81103 0 6.98519 0C8.15625 0 9.37796 0.135443 10.5079 0.652877C11.6207 1.16243 12.5888 1.94142 13.3247 2.91937C13.3318 2.92891 13.3387 2.9387 13.3452 2.94872C13.4465 3.10556 13.5003 3.2883 13.5003 3.475C13.5003 3.65367 13.451 3.82871 13.358 3.98089C13.2744 4.13324 13.1525 4.26132 13.0042 4.35234C12.8661 4.43707 12.7098 4.48683 12.5487 4.49773L10.336 7.39312C10.502 7.62991 10.5995 7.91834 10.5995 8.22953V12.5417C10.5995 13.3471 9.94667 14 9.14129 14H4.82908C4.0237 14 3.37081 13.3471 3.37081 12.5417V8.22953C3.37081 7.91833 3.46829 7.6299 3.63438 7.39311L1.42051 4.49626C1.25969 4.48022 1.105 4.42542 0.969777 4.33637C0.83292 4.24624 0.720414 4.12394 0.642021 3.98032C0.549223 3.82827 0.5 3.65345 0.5 3.475C0.5 3.2883 0.553882 3.10556 0.655179 2.94872C0.661685 2.93865 0.668552 2.92881 0.675766 2.91923C1.40858 1.94603 2.37152 1.16996 3.47819 0.660628ZM8.92337 6.77126L10.6591 4.5H7.73519V6.77126H8.92337ZM6.23519 6.77126H5.04702L3.31125 4.5H6.23519V6.77126ZM6.94052 11.927C6.94052 11.5819 7.22034 11.302 7.56552 11.302H8.56552C8.9107 11.302 9.19052 11.5819 9.19052 11.927C9.19052 12.2722 8.9107 12.552 8.56552 12.552H7.56552C7.22034 12.552 6.94052 12.2722 6.94052 11.927Z" fill="black"/>
</g>
<defs>
<clipPath id="clip0_1068_189674">
<rect width="14" height="14" fill="white"/>
</clipPath>
</defs>
</svg>
