<svg width="14" height="14" viewBox="0 0 14 14" fill="none" xmlns="http://www.w3.org/2000/svg">
<g clip-path="url(#clip0_1068_189677)">
<path fill-rule="evenodd" clip-rule="evenodd" d="M6.375 0H3.48923C2.70622 0.0201258 1.96368 0.493815 1.61538 1.19538L0 4.30769V4.32443H6.375V0ZM0 12.9231V5.57443H14V12.9231C14 13.2087 13.8865 13.4826 13.6846 13.6846C13.4826 13.8865 13.2087 14 12.9231 14H1.07692C0.791305 14 0.517386 13.8865 0.315423 13.6846C0.113461 13.4826 0 13.2087 0 12.9231ZM14 4.30769V4.32443H7.625V0H10.5108C11.3122 0.00042526 12.0818 0.477696 12.4385 1.19538L14 4.30769ZM6.37451 7.70483C6.37451 7.35966 6.65434 7.07983 6.99951 7.07983C7.34469 7.07983 7.62451 7.35966 7.62451 7.70483V9.70832H8.47303C8.68582 9.70832 8.87765 9.8365 8.95908 10.0331C9.04051 10.2297 8.9955 10.456 8.84504 10.6064L7.37178 12.0797C7.16633 12.2851 6.83322 12.2851 6.62777 12.0797L5.15451 10.6064C5.00405 10.456 4.95904 10.2297 5.04047 10.0331C5.1219 9.8365 5.31373 9.70832 5.52652 9.70832H6.37451V7.70483Z" fill="black"/>
</g>
<defs>
<clipPath id="clip0_1068_189677">
<rect width="14" height="14" fill="white"/>
</clipPath>
</defs>
</svg>
