<svg width="14" height="14" viewBox="0 0 14 14" fill="none" xmlns="http://www.w3.org/2000/svg">
<g clip-path="url(#clip0_1068_189689)">
<path fill-rule="evenodd" clip-rule="evenodd" d="M6.375 0H3.48923C2.70622 0.0201258 1.96368 0.493815 1.61538 1.19538L0 4.30769V4.32443H6.375V0ZM0 12.9231V5.57443H14V12.9231C14 13.2087 13.8865 13.4826 13.6846 13.6846C13.4826 13.8865 13.2087 14 12.9231 14H1.07692C0.791305 14 0.517386 13.8865 0.315423 13.6846C0.113461 13.4826 0 13.2087 0 12.9231ZM14 4.30769V4.32443H7.625V0H10.5108C11.3122 0.00042526 12.0818 0.477696 12.4385 1.19538L14 4.30769ZM6.37452 11.8461C6.37452 12.1913 6.65434 12.4711 6.99952 12.4711C7.3447 12.4711 7.62452 12.1913 7.62452 11.8461V9.84326H8.47375C8.68664 9.84326 8.87857 9.71502 8.96004 9.51833C9.04151 9.32164 8.99648 9.09525 8.84594 8.94471L7.37197 7.47074C7.16641 7.26518 6.83314 7.26518 6.62758 7.47074L5.15361 8.94471C5.00307 9.09525 4.95804 9.32164 5.03951 9.51833C5.12098 9.71502 5.31291 9.84326 5.5258 9.84326H6.37452V11.8461Z" fill="black"/>
</g>
<defs>
<clipPath id="clip0_1068_189689">
<rect width="14" height="14" fill="white"/>
</clipPath>
</defs>
</svg>
