<svg width="14" height="14" viewBox="0 0 14 14" fill="none" xmlns="http://www.w3.org/2000/svg">
<g clip-path="url(#clip0_1068_189680)">
<path fill-rule="evenodd" clip-rule="evenodd" d="M6.375 0H3.48923C2.70622 0.0201258 1.96368 0.493815 1.61538 1.19538L0 4.30769V4.32443H6.375V0ZM0 12.9231V5.57443H14V12.9231C14 13.2087 13.8865 13.4826 13.6846 13.6846C13.4826 13.8865 13.2087 14 12.9231 14H1.07692C0.791305 14 0.517386 13.8865 0.315423 13.6846C0.113461 13.4826 0 13.2087 0 12.9231ZM14 4.30769V4.32443H7.625V0H10.5108C11.3122 0.00042526 12.0818 0.477696 12.4385 1.19538L14 4.30769ZM9.43748 8.63616C9.64443 8.3599 9.58824 7.96818 9.31198 7.76123C9.03571 7.55429 8.644 7.61048 8.43705 7.88674L6.48805 10.4886L5.43725 9.70142C5.16098 9.49447 4.76927 9.55066 4.56232 9.82693C4.35537 10.1032 4.41157 10.4949 4.68783 10.7019L6.23885 11.8637C6.37151 11.9631 6.53822 12.0057 6.70231 11.9822C6.86639 11.9586 7.0144 11.8709 7.11378 11.7382L9.43748 8.63616Z" fill="black"/>
</g>
<defs>
<clipPath id="clip0_1068_189680">
<rect width="14" height="14" fill="white"/>
</clipPath>
</defs>
</svg>
