<svg width="14" height="14" viewBox="0 0 14 14" fill="none" xmlns="http://www.w3.org/2000/svg">
<g clip-path="url(#clip0_1068_189704)">
<path fill-rule="evenodd" clip-rule="evenodd" d="M10.2471 5.22583H11.5C12.163 5.22583 12.7989 5.48922 13.2678 5.95806C13.7366 6.4269 14 7.06279 14 7.72583V11.7258C14 12.0019 13.7761 12.2258 13.5 12.2258H12.0563C12.0372 13.2089 11.2342 14 10.2466 14C9.25886 14 8.45594 13.2089 8.43682 12.2258H4.99965C4.98053 13.2089 4.17761 14 3.18991 14C2.20222 14 1.3993 13.2089 1.38018 12.2258H0.5C0.223858 12.2258 0 12.0019 0 11.7258V4.72583C0 4.328 0.158036 3.94647 0.439341 3.66517C0.720645 3.38386 1.10217 3.22583 1.5 3.22583H7.5C7.89782 3.22583 8.27936 3.38386 8.56066 3.66517C8.81979 3.9243 8.97432 4.26847 8.99707 4.63208V8.41464C8.99707 8.75981 9.27689 9.03964 9.62207 9.03964C9.96725 9.03964 10.2471 8.75981 10.2471 8.41464V5.22583Z" fill="black"/>
</g>
<defs>
<clipPath id="clip0_1068_189704">
<rect width="14" height="14" fill="white"/>
</clipPath>
</defs>
</svg>
