<svg width="14" height="14" viewBox="0 0 14 14" fill="none" xmlns="http://www.w3.org/2000/svg">
<g clip-path="url(#clip0_1068_189692)">
<path fill-rule="evenodd" clip-rule="evenodd" d="M6.375 0H3.48923C2.70622 0.0201258 1.96368 0.493815 1.61538 1.19538L0 4.30769V4.32443H6.375V0ZM0 12.9231V5.57443H14V12.9231C14 13.2087 13.8865 13.4826 13.6846 13.6846C13.4826 13.8865 13.2087 14 12.9231 14H1.07692C0.791305 14 0.517386 13.8865 0.315423 13.6846C0.113461 13.4826 0 13.2087 0 12.9231ZM14 4.30769V4.32443H7.625V0H10.5108C11.3122 0.00042526 12.0818 0.477696 12.4385 1.19538L14 4.30769ZM7 6.5C7.41421 6.5 7.75 6.83579 7.75 7.25V9H9.5C9.91421 9 10.25 9.33579 10.25 9.75C10.25 10.1642 9.91421 10.5 9.5 10.5H7.75V12.25C7.75 12.6642 7.41421 13 7 13C6.58579 13 6.25 12.6642 6.25 12.25V10.5H4.5C4.08579 10.5 3.75 10.1642 3.75 9.75C3.75 9.33579 4.08579 9 4.5 9H6.25V7.25C6.25 6.83579 6.58579 6.5 7 6.5Z" fill="black"/>
</g>
<defs>
<clipPath id="clip0_1068_189692">
<rect width="14" height="14" fill="white"/>
</clipPath>
</defs>
</svg>
