<svg width="14" height="14" viewBox="0 0 14 14" fill="none" xmlns="http://www.w3.org/2000/svg">
<path fill-rule="evenodd" clip-rule="evenodd" d="M13.6903 7.21167L12.3522 4.47195C12.1007 3.9569 11.5776 3.63025 11.0044 3.63025H10.5664V7.21167H13.6903ZM9.3164 3.15167C9.04129 2.81733 8.62431 2.60413 8.15754 2.60413H1.70117C0.872745 2.60413 0.201172 3.2757 0.201172 4.10413V10.7297C0.201172 11.5581 0.872746 12.2297 1.70117 12.2297H2.00509C2.06988 13.2181 2.89213 13.9998 3.89693 13.9998C4.90174 13.9998 5.72398 13.2181 5.78878 12.2297H8.342C8.4068 13.2181 9.22904 13.9998 10.2338 13.9998C11.2809 13.9998 12.1298 13.1509 12.1298 12.1038C12.1298 12.0835 12.1295 12.0633 12.1288 12.0431H12.2954C13.1238 12.0431 13.7954 11.3716 13.7954 10.5431V8.46167H9.9414C9.59622 8.46167 9.3164 8.18185 9.3164 7.83667V3.15167Z" fill="black"/>
</svg>
