<svg width="14" height="14" viewBox="0 0 14 14" fill="none" xmlns="http://www.w3.org/2000/svg">
<path fill-rule="evenodd" clip-rule="evenodd" d="M4 6.5H1C0.447715 6.5 0 6.05228 0 5.5V2.5C0 1.94772 0.447715 1.5 1 1.5H4C4.55228 1.5 5 1.94772 5 2.5V5.5C5 6.05228 4.55228 6.5 4 6.5ZM8 2.25C7.58579 2.25 7.25 2.58579 7.25 3C7.25 3.41421 7.58579 3.75 8 3.75H8.75V8V10.711C9.20097 10.2698 9.81819 9.99788 10.4989 9.99788C11.8802 9.99788 13 11.1176 13 12.4989C13 12.556 12.9981 12.6126 12.9943 12.6687C13.6206 12.4491 14 11.8057 14 11C14 9.07327 12.4195 7.37855 10.25 7.25697V6.29933C10.4706 6.42695 10.7268 6.5 11 6.5H12C12.2761 6.5 12.5 6.27614 12.5 6V4C12.5 3.72386 12.2761 3.5 12 3.5H11C10.7268 3.5 10.4706 3.57305 10.25 3.70067V3C10.25 2.58579 9.91421 2.25 9.5 2.25H8ZM8.01031 12.75C8.00208 12.6674 7.99787 12.5837 7.99787 12.4989C7.99787 12.044 8.11931 11.6175 8.33155 11.25H8.25C7.83579 11.25 7.5 10.9142 7.5 10.5V10C7.5 8.48122 6.26878 7.25 4.75 7.25H2.75C1.23122 7.25 0 8.48122 0 10V12C0 12.4142 0.335786 12.75 0.75 12.75H1.01031C1.00208 12.6674 0.997864 12.5837 0.997864 12.4989C0.997864 11.1176 2.11763 9.99788 3.49892 9.99788C4.88022 9.99788 5.99998 11.1176 5.99998 12.4989C5.99998 12.5837 5.99577 12.6674 5.98754 12.75H8.01031ZM1.99788 12.4989C1.99788 13.328 2.66993 14 3.49894 14C4.32795 14 5 13.328 5 12.4989C5 11.6699 4.32795 10.9979 3.49894 10.9979C2.66993 10.9979 1.99788 11.6699 1.99788 12.4989ZM8.99789 12.4989C8.99789 13.3279 9.66993 14 10.4989 14C11.328 14 12 13.3279 12 12.4989C12 11.6699 11.328 10.9979 10.4989 10.9979C9.66993 10.9979 8.99789 11.6699 8.99789 12.4989Z" fill="black"/>
</svg>
