<svg width="14" height="14" viewBox="0 0 14 14" fill="none" xmlns="http://www.w3.org/2000/svg">
<g clip-path="url(#clip0_1068_189686)">
<path fill-rule="evenodd" clip-rule="evenodd" d="M0 6.77642C0 6.499 0.115244 6.23405 0.318182 6.0449L6.6746 0.120371C6.86185 -0.040124 7.13815 -0.0401238 7.3254 0.120372L13.6818 6.0449C13.8848 6.23405 14 6.499 14 6.77642V12.5C14 13.3284 13.3284 14 12.5 14H1.5C0.671573 14 0 13.3284 0 12.5V6.77642ZM6.77056 8.74977L6.74957 8.74949H5.50255V5.74944H8.50288V8.74949H7.25L7.22901 8.74977H6.77056ZM4.74626 12.7495L4.76725 12.7498H5.2257L5.24669 12.7495H6.49957V9.74949H3.49924V12.7495H4.74626ZM8.76801 12.7498L8.74702 12.7495H7.5V9.74949H10.5003V12.7495H9.24745L9.22646 12.7498H8.76801Z" fill="black"/>
</g>
<defs>
<clipPath id="clip0_1068_189686">
<rect width="14" height="14" fill="white"/>
</clipPath>
</defs>
</svg>
