<svg width="14" height="14" viewBox="0 0 14 14" fill="none" xmlns="http://www.w3.org/2000/svg">
<g clip-path="url(#clip0_1068_186038)">
<path fill-rule="evenodd" clip-rule="evenodd" d="M11.5 0.75C11.5 0.335786 11.1642 0 10.75 0C10.3358 0 10 0.335786 10 0.75V2.5H8.25C7.83579 2.5 7.5 2.83579 7.5 3.25C7.5 3.66421 7.83579 4 8.25 4H10V5.75C10 6.16421 10.3358 6.5 10.75 6.5C11.1642 6.5 11.5 6.16421 11.5 5.75V4H13.25C13.6642 4 14 3.66421 14 3.25C14 2.83579 13.6642 2.5 13.25 2.5H11.5V0.75ZM5.99999 1.5C6.36863 1.5 6.73325 1.54188 7.08643 1.6231C6.57997 1.98596 6.24997 2.57944 6.24997 3.25C6.24997 4.35457 7.1454 5.25 8.24997 5.25H8.74997V5.75C8.74997 6.79474 9.55103 7.65239 10.5724 7.74223V9.57495C10.5724 9.80868 10.6716 10.0405 10.8609 10.217C11.0797 10.4212 11.2521 10.5 11.5 10.5C11.7761 10.5 12 10.7239 12 11C12 11.2761 11.7761 11.5 11.5 11.5H0.5C0.223858 11.5 0 11.2761 0 11C0 10.7239 0.223858 10.5 0.5 10.5C0.747931 10.5 0.920308 10.4212 1.13911 10.217C1.32834 10.0405 1.42753 9.80868 1.42753 9.57495V5.80013C1.42753 4.64806 1.9183 3.5508 2.7792 2.74747C3.63894 1.94522 4.79803 1.5 5.99999 1.5ZM4.24991 13.25C4.24991 12.8358 4.58569 12.5 4.99991 12.5H6.99991C7.41412 12.5 7.74991 12.8358 7.74991 13.25C7.74991 13.6642 7.41412 14 6.99991 14H4.99991C4.58569 14 4.24991 13.6642 4.24991 13.25Z" fill="black"/>
</g>
<defs>
<clipPath id="clip0_1068_186038">
<rect width="14" height="14" fill="white"/>
</clipPath>
</defs>
</svg>
