<svg width="14" height="14" viewBox="0 0 14 14" fill="none" xmlns="http://www.w3.org/2000/svg">
<g clip-path="url(#clip0_1068_185996)">
<path fill-rule="evenodd" clip-rule="evenodd" d="M4.25 0C3.83579 0 3.5 0.335786 3.5 0.75C3.5 1.16421 3.83579 1.5 4.25 1.5H11.75C12.1642 1.5 12.5 1.83579 12.5 2.25V9.75C12.5 10.1642 12.8358 10.5 13.25 10.5C13.6642 10.5 14 10.1642 14 9.75V2.25C14 1.00736 12.9926 0 11.75 0H4.25ZM9.5 3C10.3284 3 11 3.67157 11 4.5V12.5C11 13.3284 10.3284 14 9.5 14H1.5C0.671573 14 0 13.3284 0 12.5V4.5C0 3.67157 0.671573 3 1.5 3H9.5ZM2.25 8.5C2.25 8.08579 2.58579 7.75 3 7.75H4.75V6C4.75 5.58579 5.08579 5.25 5.5 5.25C5.91421 5.25 6.25 5.58579 6.25 6V7.75H8C8.41421 7.75 8.75 8.08579 8.75 8.5C8.75 8.91421 8.41421 9.25 8 9.25H6.25V11C6.25 11.4142 5.91421 11.75 5.5 11.75C5.08579 11.75 4.75 11.4142 4.75 11V9.25H3C2.58579 9.25 2.25 8.91421 2.25 8.5Z" fill="black"/>
</g>
<defs>
<clipPath id="clip0_1068_185996">
<rect width="14" height="14" fill="white"/>
</clipPath>
</defs>
</svg>
