<svg width="14" height="14" viewBox="0 0 14 14" fill="none" xmlns="http://www.w3.org/2000/svg">
<g clip-path="url(#clip0_1068_186044)">
<path fill-rule="evenodd" clip-rule="evenodd" d="M3.60263 1.41208C3.96821 1.21734 4.1067 0.763104 3.91195 0.397527C3.7172 0.0319506 3.26297 -0.106534 2.89739 0.0882128C1.86539 0.637971 0.944513 1.37468 0.181627 2.26083C-0.0886191 2.57474 -0.0532215 3.04829 0.26069 3.31853C0.574601 3.58878 1.04815 3.55338 1.3184 3.23947C1.96006 2.49413 2.73462 1.87449 3.60263 1.41208ZM7.00001 14.0001C10.3137 14.0001 13 11.3139 13 8.00015C13 4.68644 10.3137 2.00015 7.00001 2.00015C3.6863 2.00015 1.00001 4.68644 1.00001 8.00015C1.00001 11.3139 3.6863 14.0001 7.00001 14.0001ZM10.0881 0.397527C10.2828 0.0319506 10.7371 -0.106534 11.1026 0.0882128C12.1346 0.637971 13.0555 1.37468 13.8184 2.26083C14.0886 2.57474 14.0532 3.04829 13.7393 3.31853C13.4254 3.58878 12.9519 3.55338 12.6816 3.23947C12.04 2.49413 11.2654 1.87449 10.3974 1.41208C10.0318 1.21734 9.89333 0.763104 10.0881 0.397527ZM7.625 5C7.625 4.65482 7.34518 4.375 7 4.375C6.65482 4.375 6.375 4.65482 6.375 5V8C6.375 8.34518 6.65482 8.625 7 8.625H9.5C9.84518 8.625 10.125 8.34518 10.125 8C10.125 7.65482 9.84518 7.375 9.5 7.375H7.625V5Z" fill="black"/>
</g>
<defs>
<clipPath id="clip0_1068_186044">
<rect width="14" height="14" fill="white"/>
</clipPath>
</defs>
</svg>
