<svg width="14" height="14" viewBox="0 0 14 14" fill="none" xmlns="http://www.w3.org/2000/svg">
<g clip-path="url(#clip0_1068_186005)">
<path fill-rule="evenodd" clip-rule="evenodd" d="M0 1C0 0.585786 0.335786 0.25 0.75 0.25H13.25C13.6642 0.25 14 0.585786 14 1C14 1.41421 13.6642 1.75 13.25 1.75H0.75C0.335786 1.75 0 1.41421 0 1ZM1.25 4C1.25 3.58579 1.58579 3.25 2 3.25H12C12.4142 3.25 12.75 3.58579 12.75 4C12.75 4.41421 12.4142 4.75 12 4.75H2C1.58579 4.75 1.25 4.41421 1.25 4ZM3.5 6.25C3.08579 6.25 2.75 6.58579 2.75 7C2.75 7.41421 3.08579 7.75 3.5 7.75H10.5C10.9142 7.75 11.25 7.41421 11.25 7C11.25 6.58579 10.9142 6.25 10.5 6.25H3.5ZM1.25 10C1.25 9.58579 1.58579 9.25 2 9.25H12C12.4142 9.25 12.75 9.58579 12.75 10C12.75 10.4142 12.4142 10.75 12 10.75H2C1.58579 10.75 1.25 10.4142 1.25 10ZM0.75 12.25C0.335786 12.25 0 12.5858 0 13C0 13.4142 0.335786 13.75 0.75 13.75H13.25C13.6642 13.75 14 13.4142 14 13C14 12.5858 13.6642 12.25 13.25 12.25H0.75Z" fill="black"/>
</g>
<defs>
<clipPath id="clip0_1068_186005">
<rect width="14" height="14" fill="white"/>
</clipPath>
</defs>
</svg>
