<svg width="14" height="14" viewBox="0 0 14 14" fill="none" xmlns="http://www.w3.org/2000/svg">
<g clip-path="url(#clip0_1068_186041)">
<path fill-rule="evenodd" clip-rule="evenodd" d="M1.5 0C0.671573 0 0 0.671573 0 1.5V9.5C0 10.3284 0.671573 11 1.5 11H9.5C10.3284 11 11 10.3284 11 9.5V1.5C11 0.671573 10.3284 0 9.5 0H1.5ZM14 4.25C14 3.83579 13.6642 3.5 13.25 3.5C12.8358 3.5 12.5 3.83579 12.5 4.25V11.75C12.5 12.1642 12.1642 12.5 11.75 12.5H4.25C3.83579 12.5 3.5 12.8358 3.5 13.25C3.5 13.6642 3.83579 14 4.25 14H11.75C12.9926 14 14 12.9926 14 11.75V4.25Z" fill="black"/>
</g>
<defs>
<clipPath id="clip0_1068_186041">
<rect width="14" height="14" fill="white"/>
</clipPath>
</defs>
</svg>
