<svg width="14" height="14" viewBox="0 0 14 14" fill="none" xmlns="http://www.w3.org/2000/svg">
<g clip-path="url(#clip0_1068_186002)">
<path fill-rule="evenodd" clip-rule="evenodd" d="M2.25 0C1.00736 0 0 1.00736 0 2.25V9.75C0 10.1642 0.335786 10.5 0.75 10.5C1.16421 10.5 1.5 10.1642 1.5 9.75V2.25C1.5 1.83579 1.83579 1.5 2.25 1.5H9.75C10.1642 1.5 10.5 1.16421 10.5 0.75C10.5 0.335786 10.1642 0 9.75 0H2.25ZM4.5 3C3.67157 3 3 3.67157 3 4.5V12.5C3 13.3284 3.67157 14 4.5 14H12.5C13.3284 14 14 13.3284 14 12.5V4.5C14 3.67157 13.3284 3 12.5 3H4.5Z" fill="black"/>
</g>
<defs>
<clipPath id="clip0_1068_186002">
<rect width="14" height="14" fill="white"/>
</clipPath>
</defs>
</svg>
