<svg width="14" height="14" viewBox="0 0 14 14" fill="none" xmlns="http://www.w3.org/2000/svg">
<g clip-path="url(#clip0_1068_186035)">
<path fill-rule="evenodd" clip-rule="evenodd" d="M0 1C0 0.585786 0.335786 0.25 0.75 0.25H13.25C13.6642 0.25 14 0.585786 14 1C14 1.41421 13.6642 1.75 13.25 1.75H0.75C0.335786 1.75 0 1.41421 0 1ZM3.25 3.25C2.83579 3.25 2.5 3.58579 2.5 4C2.5 4.41421 2.83579 4.75 3.25 4.75H13.25C13.6642 4.75 14 4.41421 14 4C14 3.58579 13.6642 3.25 13.25 3.25H3.25ZM5.5 7C5.5 6.58579 5.83579 6.25 6.25 6.25H13.25C13.6642 6.25 14 6.58579 14 7C14 7.41421 13.6642 7.75 13.25 7.75H6.25C5.83579 7.75 5.5 7.41421 5.5 7ZM2.5 10C2.5 9.58579 2.83579 9.25 3.25 9.25H13.25C13.6642 9.25 14 9.58579 14 10C14 10.4142 13.6642 10.75 13.25 10.75H3.25C2.83579 10.75 2.5 10.4142 2.5 10ZM0.75 12.25C0.335786 12.25 0 12.5858 0 13C0 13.4142 0.335786 13.75 0.75 13.75H13.25C13.6642 13.75 14 13.4142 14 13C14 12.5858 13.6642 12.25 13.25 12.25H0.75Z" fill="black"/>
</g>
<defs>
<clipPath id="clip0_1068_186035">
<rect width="14" height="14" fill="white"/>
</clipPath>
</defs>
</svg>
