<svg width="14" height="14" viewBox="0 0 14 14" fill="none" xmlns="http://www.w3.org/2000/svg">
<g clip-path="url(#clip0_1068_186020)">
<path fill-rule="evenodd" clip-rule="evenodd" d="M0 1C0 0.585786 0.335786 0.25 0.75 0.25H13.25C13.6642 0.25 14 0.585786 14 1C14 1.41421 13.6642 1.75 13.25 1.75H0.75C0.335786 1.75 0 1.41421 0 1ZM0.75 3.25C0.335786 3.25 0 3.58579 0 4C0 4.41421 0.335786 4.75 0.75 4.75H10.75C11.1642 4.75 11.5 4.41421 11.5 4C11.5 3.58579 11.1642 3.25 10.75 3.25H0.75ZM0 7C0 6.58579 0.335786 6.25 0.75 6.25H7.75C8.16421 6.25 8.5 6.58579 8.5 7C8.5 7.41421 8.16421 7.75 7.75 7.75H0.75C0.335786 7.75 0 7.41421 0 7ZM0 10C0 9.58579 0.335786 9.25 0.75 9.25H10.75C11.1642 9.25 11.5 9.58579 11.5 10C11.5 10.4142 11.1642 10.75 10.75 10.75H0.75C0.335786 10.75 0 10.4142 0 10ZM0.75 12.25C0.335786 12.25 0 12.5858 0 13C0 13.4142 0.335786 13.75 0.75 13.75H13.25C13.6642 13.75 14 13.4142 14 13C14 12.5858 13.6642 12.25 13.25 12.25H0.75Z" fill="black"/>
</g>
<defs>
<clipPath id="clip0_1068_186020">
<rect width="14" height="14" fill="white"/>
</clipPath>
</defs>
</svg>
