<svg width="14" height="14" viewBox="0 0 14 14" fill="none" xmlns="http://www.w3.org/2000/svg">
<g clip-path="url(#clip0_1068_186017)">
<path fill-rule="evenodd" clip-rule="evenodd" d="M4.19316 1.75841C3.96022 1.91611 3.69457 2.22763 3.69457 2.99401C3.69457 3.19847 3.80156 3.54957 4.11666 4.06287C4.32602 4.4039 4.60296 4.77799 4.93569 5.17707C4.98917 5.12972 5.06 5.06612 5.14293 4.98951C5.33756 4.80971 5.59458 4.56218 5.84928 4.28748C6.1069 4.00962 6.34657 3.72059 6.5173 3.45721C6.60227 3.32612 6.66143 3.21464 6.69772 3.12498C6.7325 3.03902 6.736 2.99822 6.73634 2.9943C6.73634 2.9941 6.73637 2.99396 6.73634 2.9943C6.73634 2.41455 6.54857 2.06711 6.31985 1.85872C6.0797 1.63993 5.71192 1.5 5.23531 1.5C4.87302 1.5 4.4784 1.5653 4.19316 1.75841ZM5.9418 6.28971C6.00063 6.2375 6.07511 6.17047 6.16078 6.09132C6.37382 5.89451 6.66036 5.61888 6.94923 5.30733C7.23516 4.99894 7.53905 4.63864 7.776 4.27309C7.99465 3.93577 8.23637 3.4756 8.23637 2.9941C8.23637 2.05992 7.91747 1.2851 7.33007 0.749924C6.7541 0.225151 5.99634 0 5.23531 0C4.75163 0 4.00087 0.077164 3.35224 0.51629C2.6513 0.990826 2.19457 1.80131 2.19457 2.99401C2.19457 3.61941 2.47876 4.2619 2.83832 4.84762C3.09784 5.27037 3.4265 5.7107 3.79981 6.15708L1.95366 7.74828C0.518221 8.98549 0.304718 11.1308 1.46816 12.6267C2.75532 14.2816 5.18728 14.47 6.714 13.0331L8.86776 11.006C9.42993 11.4826 9.97035 11.9313 10.4595 12.3359C10.5638 12.4221 10.6655 12.5062 10.7645 12.5881C11.2731 13.0084 11.7096 13.3691 12.0448 13.6564C12.3592 13.926 12.8327 13.8896 13.1023 13.5751C13.3719 13.2606 13.3354 12.7871 13.0209 12.5176C12.6745 12.2206 12.225 11.8492 11.7169 11.4292C11.6185 11.3479 11.518 11.2648 11.4156 11.1801C10.9656 10.8078 10.4756 10.4011 9.9671 9.97135L10.9831 9.01517C11.2847 8.73128 11.2991 8.25663 11.0152 7.955C10.7313 7.65337 10.2566 7.63898 9.95499 7.92287L8.82219 8.98904C7.81257 8.10784 6.80195 7.18043 5.9418 6.28971ZM4.80464 7.27128L2.93296 8.88449C2.10282 9.59999 1.97935 10.8407 2.65219 11.7057C3.39657 12.6628 4.80302 12.7718 5.68595 11.9408L7.7247 10.022C6.71451 9.13697 5.68851 8.19183 4.80464 7.27128Z" fill="black"/>
</g>
<defs>
<clipPath id="clip0_1068_186017">
<rect width="14" height="14" fill="white"/>
</clipPath>
</defs>
</svg>
