<svg width="14" height="14" viewBox="0 0 14 14" fill="none" xmlns="http://www.w3.org/2000/svg">
<g clip-path="url(#clip0_1068_186014)">
<path fill-rule="evenodd" clip-rule="evenodd" d="M0 2C0 1.17157 0.671573 0.5 1.5 0.5H12.5C13.3284 0.5 14 1.17157 14 2V3.5C14 4.32843 13.3284 5 12.5 5H1.5C0.671573 5 0 4.32843 0 3.5V2ZM13 6.25H1V12C1 12.8284 1.67157 13.5 2.5 13.5H11.5C12.3284 13.5 13 12.8284 13 12V6.25ZM5.5 7.875C5.15482 7.875 4.875 8.15482 4.875 8.5C4.875 8.84518 5.15482 9.125 5.5 9.125H8.5C8.84518 9.125 9.125 8.84518 9.125 8.5C9.125 8.15482 8.84518 7.875 8.5 7.875H5.5Z" fill="black"/>
</g>
<defs>
<clipPath id="clip0_1068_186014">
<rect width="14" height="14" fill="white"/>
</clipPath>
</defs>
</svg>
