<svg width="14" height="14" viewBox="0 0 14 14" fill="none" xmlns="http://www.w3.org/2000/svg">
<g clip-path="url(#clip0_1068_186125)">
<path fill-rule="evenodd" clip-rule="evenodd" d="M7.96154 1.5H6.03847C5.62425 1.5 5.28847 1.16421 5.28847 0.75C5.28847 0.335787 5.62425 9.53674e-07 6.03847 0H7.96154C8.37576 0 8.71154 0.335786 8.71154 0.75C8.71154 1.16421 8.37576 1.5 7.96154 1.5ZM5.28847 13.25C5.28847 12.8358 5.62425 12.5 6.03847 12.5H7.96154C8.37576 12.5 8.71154 12.8358 8.71154 13.25C8.71154 13.6642 8.37576 14 7.96154 14H6.03847C5.62425 14 5.28847 13.6642 5.28847 13.25ZM10.9316 1.57569C10.5321 1.46621 10.297 1.05362 10.4065 0.654132C10.5159 0.254647 10.9285 0.0195494 11.328 0.129025C12.5224 0.456354 13.4696 1.37563 13.8362 2.55272C13.9594 2.94819 13.7387 3.36864 13.3432 3.49182C12.9477 3.615 12.5273 3.39427 12.4041 2.99879C12.1891 2.30847 11.6313 1.76743 10.9316 1.57569ZM3.06865 1.57563C3.46813 1.46615 3.70323 1.05355 3.59375 0.654071C3.48428 0.254586 3.07168 0.0194883 2.6722 0.128964C1.47776 0.456293 0.530616 1.37557 0.163982 2.55266C0.0408022 2.94813 0.26154 3.36858 0.657014 3.49176C1.05249 3.61494 1.47294 3.39421 1.59612 2.99873C1.81113 2.30841 2.36895 1.76737 3.06865 1.57563ZM1.5 6.03845C1.5 5.62424 1.16421 5.28845 0.75 5.28845C0.335786 5.28845 -1.56e-07 5.62424 0 6.03845L5.85002e-07 7.96153C7.40002e-07 8.37574 0.335787 8.71153 0.75 8.71153C1.16421 8.71153 1.5 8.37574 1.5 7.96153V6.03845ZM13.2502 5.28845C12.836 5.28845 12.5002 5.62424 12.5002 6.03845V7.96153C12.5002 8.37574 12.836 8.71153 13.2502 8.71153C13.6644 8.71153 14.0002 8.37574 14.0002 7.96153V6.03845C14.0002 5.62424 13.6644 5.28845 13.2502 5.28845ZM1.59612 11.0013C1.47294 10.6059 1.05249 10.3851 0.657014 10.5083C0.26154 10.6315 0.0408021 11.0519 0.163982 11.4474C0.530615 12.6245 1.47776 13.5438 2.6722 13.8711C3.07168 13.9806 3.48428 13.7455 3.59375 13.346C3.70323 12.9465 3.46813 12.5339 3.06865 12.4244C2.36895 12.2327 1.81113 11.6916 1.59612 11.0013ZM13.3432 10.5083C12.9477 10.3851 12.5273 10.6059 12.4041 11.0013C12.1891 11.6916 11.6313 12.2327 10.9316 12.4244C10.5321 12.5339 10.297 12.9465 10.4065 13.346C10.5159 13.7455 10.9285 13.9806 11.328 13.8711C12.5224 13.5438 13.4696 12.6245 13.8362 11.4474C13.9594 11.0519 13.7387 10.6315 13.3432 10.5083ZM7.75012 10C7.75012 10.4142 7.41433 10.75 7.00012 10.75C6.58591 10.75 6.25012 10.4142 6.25012 10V6.5H5.00012C4.79789 6.5 4.61557 6.37818 4.53818 6.19134C4.46079 6.0045 4.50357 5.78945 4.64657 5.64645L6.64657 3.64645C6.74033 3.55268 6.86751 3.5 7.00012 3.5C7.13273 3.5 7.2599 3.55268 7.35367 3.64645L9.35367 5.64645C9.49667 5.78944 9.53945 6.0045 9.46206 6.19134C9.38467 6.37818 9.20235 6.5 9.00012 6.5H7.75012V10Z" fill="black"/>
</g>
<defs>
<clipPath id="clip0_1068_186125">
<rect width="14" height="14" fill="white"/>
</clipPath>
</defs>
</svg>
