<svg width="14" height="14" viewBox="0 0 14 14" fill="none" xmlns="http://www.w3.org/2000/svg">
<g clip-path="url(#clip0_1068_186071)">
<path fill-rule="evenodd" clip-rule="evenodd" d="M12.9998 7.45058e-08H9.5C9.29777 7.45058e-08 9.11545 0.121821 9.03806 0.308658C8.96067 0.495495 9.00345 0.710554 9.14645 0.853553L10.4393 2.14645L0.292893 12.2929C-0.097631 12.6834 -0.097631 13.3166 0.292893 13.7071C0.683417 14.0976 1.31658 14.0976 1.70711 13.7071L11.8536 3.56066L13.1464 4.85355C13.2894 4.99655 13.5045 5.03933 13.6913 4.96194C13.8782 4.88455 14 4.70223 14 4.5V1.00069V0.999307V0.5C14 0.223858 13.7761 7.45058e-08 13.5 7.45058e-08H12.9998ZM0.292893 0.292893C0.683417 -0.097631 1.31658 -0.097631 1.70711 0.292893L5.20711 3.79289C5.59763 4.18342 5.59763 4.81658 5.20711 5.20711C4.81658 5.59763 4.18342 5.59763 3.79289 5.20711L0.292893 1.70711C-0.097631 1.31658 -0.097631 0.683417 0.292893 0.292893ZM14 9.5C14 9.29777 13.8782 9.11545 13.6913 9.03806C13.5045 8.96067 13.2894 9.00345 13.1464 9.14645L11.8536 10.4393L10.2071 8.79289C9.81658 8.40237 9.18342 8.40237 8.79289 8.79289C8.40237 9.18342 8.40237 9.81658 8.79289 10.2071L10.4393 11.8536L9.14645 13.1464C9.00345 13.2894 8.96067 13.5045 9.03806 13.6913C9.11545 13.8782 9.29777 14 9.5 14H12.9993C12.9998 14 13.0002 14 13.0007 14H13.5C13.7761 14 14 13.7761 14 13.5V13.0007C14 13.0002 14 12.9998 14 12.9993V9.5Z" fill="black"/>
</g>
<defs>
<clipPath id="clip0_1068_186071">
<rect width="14" height="14" fill="white"/>
</clipPath>
</defs>
</svg>
