<svg width="14" height="14" viewBox="0 0 14 14" fill="none" xmlns="http://www.w3.org/2000/svg">
<g clip-path="url(#clip0_1068_186065)">
<path d="M13.7609 7.54873C13.901 7.40849 13.9796 7.21839 13.9796 7.02019C13.9796 6.82199 13.901 6.63189 13.7609 6.49165L11.7664 4.49716C11.6648 4.40022 11.538 4.33385 11.4004 4.30563C11.2628 4.27741 11.1201 4.28849 10.9886 4.3376C10.8447 4.38692 10.7195 4.4795 10.6303 4.60268C10.541 4.72585 10.492 4.8736 10.4899 5.0257V6.02294C10.4899 6.08907 10.4637 6.15248 10.4169 6.19923C10.3702 6.24599 10.3068 6.27226 10.2406 6.27226H7.99683C7.93071 6.27226 7.86729 6.24599 7.82054 6.19923C7.77378 6.15248 7.74752 6.08907 7.74752 6.02294V3.77914C7.74752 3.71302 7.77378 3.64961 7.82054 3.60285C7.86729 3.5561 7.93071 3.52983 7.99683 3.52983H8.99407C9.14617 3.52777 9.29392 3.47876 9.41709 3.3895C9.54027 3.30025 9.63285 3.17511 9.68217 3.03121C9.73968 2.89445 9.75521 2.74368 9.7268 2.59806C9.69839 2.45245 9.62731 2.31858 9.52261 2.21347L7.52812 0.21898C7.38789 0.0789163 7.19779 0.000244141 6.99958 0.000244141C6.80138 0.000244141 6.61128 0.0789163 6.47104 0.21898L4.47655 2.21347C4.37185 2.31858 4.30078 2.45245 4.27237 2.59806C4.24396 2.74368 4.25949 2.89445 4.31699 3.03121C4.36632 3.17511 4.4589 3.30025 4.58207 3.3895C4.70525 3.47876 4.85299 3.52777 5.00509 3.52983H6.00234C6.06846 3.52983 6.13187 3.5561 6.17863 3.60285C6.22538 3.64961 6.25165 3.71302 6.25165 3.77914V6.02294C6.25165 6.08907 6.22538 6.15248 6.17863 6.19923C6.13187 6.24599 6.06846 6.27226 6.00234 6.27226H3.75854C3.69242 6.27226 3.629 6.24599 3.58225 6.19923C3.53549 6.15248 3.50923 6.08907 3.50923 6.02294V5.0257C3.5091 4.87787 3.46516 4.73339 3.38297 4.61051C3.30077 4.48764 3.18401 4.39187 3.04743 4.33532C2.91084 4.27876 2.76056 4.26395 2.61556 4.29276C2.47056 4.32156 2.33735 4.39269 2.23275 4.49716L0.238267 6.49165C0.0982034 6.63189 0.0195312 6.82199 0.0195312 7.02019C0.0195312 7.21839 0.0982034 7.40849 0.238267 7.54873L2.23275 9.54322C2.37408 9.68172 2.56343 9.76031 2.76129 9.76261C2.84722 9.75717 2.93156 9.73692 3.0106 9.70278C3.1545 9.65346 3.27964 9.56087 3.3689 9.4377C3.45815 9.31453 3.50717 9.16678 3.50923 9.01468V8.01743C3.50923 7.95131 3.53549 7.8879 3.58225 7.84114C3.629 7.79439 3.69242 7.76812 3.75854 7.76812H6.00234C6.06846 7.76812 6.13187 7.79439 6.17863 7.84114C6.22538 7.8879 6.25165 7.95131 6.25165 8.01743V10.2612C6.25165 10.3273 6.22538 10.3907 6.17863 10.4375C6.13187 10.4842 6.06846 10.5105 6.00234 10.5105H5.00509C4.8577 10.5095 4.71339 10.5527 4.59075 10.6344C4.46811 10.7162 4.37276 10.8328 4.31699 10.9692C4.25949 11.106 4.24396 11.2568 4.27237 11.4024C4.30078 11.548 4.37185 11.6819 4.47655 11.787L6.47104 13.7815C6.61128 13.9215 6.80138 14.0002 6.99958 14.0002C7.19779 14.0002 7.38789 13.9215 7.52812 13.7815L9.52261 11.787C9.61955 11.6854 9.68592 11.5585 9.71414 11.421C9.74236 11.2834 9.73128 11.1407 9.68217 11.0091C9.63285 10.8652 9.54027 10.7401 9.41709 10.6508C9.29392 10.5616 9.14617 10.5126 8.99407 10.5105H7.99683C7.93071 10.5105 7.86729 10.4842 7.82054 10.4375C7.77378 10.3907 7.74752 10.3273 7.74752 10.2612V8.01743C7.74752 7.95131 7.77378 7.8879 7.82054 7.84114C7.86729 7.79439 7.93071 7.76812 7.99683 7.76812H10.2406C10.3068 7.76812 10.3702 7.79439 10.4169 7.84114C10.4637 7.8879 10.4899 7.95131 10.4899 8.01743V9.01468C10.4889 9.16207 10.5321 9.30638 10.6139 9.42902C10.6956 9.55166 10.8122 9.64701 10.9487 9.70278C11.0401 9.74174 11.1385 9.76209 11.2379 9.76261C11.4357 9.76031 11.6251 9.68172 11.7664 9.54322L13.7609 7.54873Z" fill="black"/>
</g>
<defs>
<clipPath id="clip0_1068_186065">
<rect width="14" height="14" fill="white"/>
</clipPath>
</defs>
</svg>
