<svg width="14" height="14" viewBox="0 0 14 14" fill="none" xmlns="http://www.w3.org/2000/svg">
<g clip-path="url(#clip0_1068_186047)">
<path fill-rule="evenodd" clip-rule="evenodd" d="M13.5 0H13.0002H9.5C9.29777 0 9.11545 0.121821 9.03806 0.308658C8.96067 0.495495 9.00345 0.710554 9.14645 0.853553L10.4393 2.14645L8.79289 3.79289C8.40237 4.18342 8.40237 4.81658 8.79289 5.20711C9.18342 5.59763 9.81658 5.59763 10.2071 5.20711L11.8536 3.56066L13.1464 4.85355C13.2894 4.99655 13.5045 5.03933 13.6913 4.96194C13.8782 4.88455 14 4.70223 14 4.5V1.00069V0.999307V0.5C14 0.223858 13.7761 0 13.5 0ZM7.45058e-08 0.999827V0.5C7.45058e-08 0.223858 0.223858 0 0.5 0H0.999827H4.5C4.70223 0 4.88455 0.121821 4.96194 0.308658C5.03933 0.495495 4.99655 0.710554 4.85355 0.853553L3.56066 2.14645L13.7071 12.2929C14.0976 12.6834 14.0976 13.3166 13.7071 13.7071C13.3166 14.0976 12.6834 14.0976 12.2929 13.7071L2.14645 3.56066L0.853553 4.85355C0.710554 4.99655 0.495495 5.03933 0.308658 4.96194C0.121821 4.88455 7.45058e-08 4.70223 7.45058e-08 4.5V0.999827ZM5.20711 10.2071C5.59763 9.81658 5.59763 9.18342 5.20711 8.79289C4.81658 8.40237 4.18342 8.40237 3.79289 8.79289L0.292893 12.2929C-0.097631 12.6834 -0.097631 13.3166 0.292893 13.7071C0.683417 14.0976 1.31658 14.0976 1.70711 13.7071L5.20711 10.2071Z" fill="black"/>
</g>
<defs>
<clipPath id="clip0_1068_186047">
<rect width="14" height="14" fill="white"/>
</clipPath>
</defs>
</svg>
