<svg width="14" height="14" viewBox="0 0 14 14" fill="none" xmlns="http://www.w3.org/2000/svg">
<g clip-path="url(#clip0_1068_186113)">
<path fill-rule="evenodd" clip-rule="evenodd" d="M8.00001 0C7.44773 0 7.00001 0.447715 7.00001 1C7.00001 1.55228 7.44773 2 8.00001 2H9.50001C9.77615 2 10 2.22386 10 2.5V8.5H8.50001C8.29778 8.5 8.11546 8.62182 8.03807 8.80866C7.96068 8.9955 8.00346 9.21055 8.14646 9.35355L10.6464 11.8536C10.8417 12.0488 11.1583 12.0488 11.3536 11.8536L13.8536 9.35355C13.9966 9.21055 14.0393 8.9955 13.9619 8.80866C13.8845 8.62182 13.7022 8.5 13.5 8.5H12V2.5C12 1.11929 10.8807 0 9.50001 0H8.00001ZM3.35356 2.14645C3.1583 1.95118 2.84172 1.95118 2.64646 2.14645L0.146462 4.64645C0.0034622 4.78945 -0.0393156 5.0045 0.0380748 5.19134C0.115466 5.37818 0.297784 5.5 0.500015 5.5H2.00001V11.5C2.00001 12.8807 3.1193 14 4.50001 14H6.00001C6.55229 14 7.00001 13.5523 7.00001 13C7.00001 12.4477 6.55229 12 6.00001 12H4.50001C4.22387 12 4.00001 11.7761 4.00001 11.5V5.5H5.50001C5.70224 5.5 5.88456 5.37818 5.96195 5.19134C6.03934 5.0045 5.99656 4.78945 5.85356 4.64645L3.35356 2.14645Z" fill="black"/>
</g>
<defs>
<clipPath id="clip0_1068_186113">
<rect width="14" height="14" fill="white"/>
</clipPath>
</defs>
</svg>
