<svg width="14" height="14" viewBox="0 0 14 14" fill="none" xmlns="http://www.w3.org/2000/svg">
<g clip-path="url(#clip0_1068_186116)">
<path fill-rule="evenodd" clip-rule="evenodd" d="M8 0C8.40446 0 8.7691 0.243642 8.92388 0.617317C9.07866 0.990991 8.9931 1.42111 8.70711 1.70711L7.40602 3.00819L13.7062 9.29197C14.0972 9.68199 14.098 10.3152 13.708 10.7062C13.318 11.0972 12.6848 11.098 12.2938 10.708L3.27819 1.71584C2.88716 1.32582 2.88633 0.692659 3.27635 0.301627C3.36057 0.217182 3.45614 0.150935 3.55815 0.102892C3.6929 0.0364926 3.84347 0 4 0H8ZM6.58579 11L0.292893 4.70711C-0.0976311 4.31658 -0.0976311 3.68342 0.292893 3.29289C0.683417 2.90237 1.31658 2.90237 1.70711 3.29289L8.70711 10.2929L10.7071 12.2929C10.8852 12.471 10.9821 12.6995 10.9977 12.9325C11.0022 12.9978 11.0002 13.0636 10.9917 13.1292C10.9673 13.3175 10.8893 13.5001 10.7578 13.6525C10.7316 13.683 10.7036 13.7118 10.674 13.7387C10.4961 13.9014 10.2735 13.9881 10.048 13.9989C10.032 13.9996 10.016 14 10 14H6C5.59554 14 5.2309 13.7564 5.07612 13.3827C4.92134 13.009 5.0069 12.5789 5.29289 12.2929L6.58579 11Z" fill="black"/>
</g>
<defs>
<clipPath id="clip0_1068_186116">
<rect width="14" height="14" fill="white"/>
</clipPath>
</defs>
</svg>
