<svg width="14" height="14" viewBox="0 0 14 14" fill="none" xmlns="http://www.w3.org/2000/svg">
<g clip-path="url(#clip0_1068_186074)">
<path fill-rule="evenodd" clip-rule="evenodd" d="M10.0576 0.227196C10.2135 0.0990563 10.4088 0.0171427 10.6226 0.00242137C10.6615 -0.000295498 10.7005 -0.00071814 10.7393 0.00111357C10.9526 0.010982 11.1485 0.0877073 11.3065 0.210821C11.3389 0.236024 11.3699 0.263405 11.3994 0.292922L13.7071 2.60062C13.9931 2.88661 14.0787 3.31673 13.9239 3.69041C13.7691 4.06408 13.4045 4.30772 13 4.30772H11.6923V11.1538C11.6923 11.9087 11.3924 12.6326 10.8587 13.1664C10.3249 13.7001 9.60102 14 8.84617 14C8.09132 14 7.36739 13.7001 6.83363 13.1664C6.29988 12.6326 6.00002 11.9087 6.00002 11.1538V2.84618C6.00002 2.62177 5.91087 2.40655 5.75218 2.24786C5.5935 2.08918 5.37828 2.00003 5.15386 2.00003C4.92945 2.00003 4.71423 2.08918 4.55554 2.24786C4.39686 2.40655 4.30771 2.62177 4.30771 2.84618V10.687L4.30772 10.6924V13.0001C4.30772 13.2208 4.23514 13.4297 4.10846 13.5991C3.95256 13.8071 3.71748 13.9524 3.44792 13.9902C3.36554 14.0019 3.28252 14.0032 3.20078 13.9944C3.03355 13.9766 2.87863 13.9176 2.74638 13.8277C2.69471 13.7927 2.64586 13.7524 2.60062 13.7072L0.292922 11.3995C0.00692439 11.1135 -0.0786313 10.6834 0.0761497 10.3097C0.23093 9.93605 0.595567 9.69241 1.00003 9.69241H2.30771V2.84618C2.30771 2.09134 2.60757 1.36741 3.14133 0.833648C3.67508 0.299891 4.39901 2.92152e-05 5.15386 2.92152e-05C5.90871 2.92152e-05 6.63264 0.299891 7.1664 0.833648C7.70015 1.36741 8.00002 2.09134 8.00002 2.84618V11.1538C8.00002 11.3783 8.08916 11.5935 8.24785 11.7522C8.40653 11.9109 8.62176 12 8.84617 12C9.07058 12 9.2858 11.9109 9.44449 11.7522C9.60318 11.5935 9.69232 11.3783 9.69232 11.1538V1.00003C9.69232 0.733268 9.79678 0.490903 9.96701 0.311604C9.99536 0.281718 10.0256 0.253515 10.0576 0.227196Z" fill="black"/>
</g>
<defs>
<clipPath id="clip0_1068_186074">
<rect width="14" height="14" fill="white"/>
</clipPath>
</defs>
</svg>
