<svg width="14" height="14" viewBox="0 0 14 14" fill="none" xmlns="http://www.w3.org/2000/svg">
<path fill-rule="evenodd" clip-rule="evenodd" d="M8.64824 1.00247C8.64824 0.699116 8.83097 0.425639 9.11122 0.309553C9.39148 0.193468 9.71407 0.257635 9.92857 0.472133L12.3276 2.87116C12.6205 3.16405 12.6205 3.63892 12.3276 3.93181L9.92857 6.33084C9.71407 6.54534 9.39148 6.60951 9.11122 6.49342C8.83097 6.37734 8.64824 6.10386 8.64824 5.80051V4.40139H6.99922C4.90161 4.40139 3.20117 6.10184 3.20117 8.19944C3.20117 10.297 4.90161 11.9975 6.99922 11.9975C9.09682 11.9975 10.7973 10.297 10.7973 8.19944C10.7973 7.64715 11.245 7.19944 11.7973 7.19944C12.3496 7.19944 12.7973 7.64715 12.7973 8.19944C12.7973 11.4016 10.2014 13.9975 6.99922 13.9975C3.79704 13.9975 1.20117 11.4016 1.20117 8.19944C1.20117 4.99727 3.79704 2.40139 6.99922 2.40139H8.64824V1.00247Z" fill="black"/>
</svg>
