<svg width="14" height="14" viewBox="0 0 14 14" fill="none" xmlns="http://www.w3.org/2000/svg">
<g clip-path="url(#clip0_1068_186068)">
<path fill-rule="evenodd" clip-rule="evenodd" d="M0 0.999827V4.5C0 4.70223 0.121821 4.88455 0.308658 4.96194C0.495495 5.03933 0.710554 4.99655 0.853553 4.85355L2.14645 3.56066L4.29289 5.70711C4.68342 6.09763 5.31658 6.09763 5.70711 5.70711C6.09763 5.31658 6.09763 4.68342 5.70711 4.29289L3.56066 2.14645L4.85355 0.853553C4.99655 0.710554 5.03933 0.495495 4.96194 0.308658C4.88455 0.121821 4.70223 0 4.5 0H1.00017H0.5C0.223858 0 0 0.223858 0 0.5V0.999827ZM5.70711 9.70711C6.09763 9.31658 6.09763 8.68342 5.70711 8.29289C5.31658 7.90237 4.68342 7.90237 4.29289 8.29289L2.14645 10.4393L0.853553 9.14645C0.710554 9.00345 0.495495 8.96067 0.308658 9.03806C0.121821 9.11545 0 9.29777 0 9.5V12.9998V13.5C0 13.7761 0.223858 14 0.5 14H0.999307H1.00069H4.5C4.70223 14 4.88455 13.8782 4.96194 13.6913C5.03933 13.5045 4.99655 13.2894 4.85355 13.1464L3.56066 11.8536L5.70711 9.70711ZM8.29289 8.29289C8.68342 7.90237 9.31658 7.90237 9.70711 8.29289L11.8536 10.4393L13.1464 9.14645C13.2894 9.00345 13.5045 8.96067 13.6913 9.03806C13.8782 9.11545 14 9.29777 14 9.5V12.9993V13.0007V13.5C14 13.7761 13.7761 14 13.5 14H13.0007H12.9993H9.5C9.29777 14 9.11545 13.8782 9.03806 13.6913C8.96067 13.5045 9.00345 13.2894 9.14645 13.1464L10.4393 11.8536L8.29289 9.70711C7.90237 9.31658 7.90237 8.68342 8.29289 8.29289ZM9.5 0C9.29777 0 9.11545 0.121821 9.03806 0.308658C8.96067 0.495495 9.00345 0.710554 9.14645 0.853553L10.4393 2.14645L8.29289 4.29289C7.90237 4.68342 7.90237 5.31658 8.29289 5.70711C8.68342 6.09763 9.31658 6.09763 9.70711 5.70711L11.8536 3.56066L13.1464 4.85355C13.2894 4.99655 13.5045 5.03933 13.6913 4.96194C13.8782 4.88455 14 4.70223 14 4.5V1.00069V0.999307V0.5C14 0.223858 13.7761 0 13.5 0H13.0002H9.5Z" fill="black"/>
</g>
<defs>
<clipPath id="clip0_1068_186068">
<rect width="14" height="14" fill="white"/>
</clipPath>
</defs>
</svg>
