<svg width="14" height="14" viewBox="0 0 14 14" fill="none" xmlns="http://www.w3.org/2000/svg">
<g clip-path="url(#clip0_1068_186080)">
<path fill-rule="evenodd" clip-rule="evenodd" d="M4 5.54285V4.24995H3C2.44771 4.24995 2 4.69767 2 5.24995V8.74995C2 9.30224 2.44772 9.74995 3 9.74995H4C4.55228 9.74995 5 10.1976 5 10.7499C5 11.3022 4.55228 11.7499 4 11.7499H3C1.34315 11.7499 2.25414e-07 10.4068 1.5299e-07 8.74995L0 5.24995C-7.2423e-08 3.5931 1.34314 2.24995 3 2.24995H4V0.957058C4 0.511606 4.53857 0.288521 4.85355 0.603503L7.14645 2.8964C7.34171 3.09166 7.34171 3.40824 7.14645 3.60351L4.85355 5.8964C4.53857 6.21138 4 5.9883 4 5.54285ZM10 11.7499V13.0428C10 13.4882 9.46143 13.7113 9.14645 13.3964L6.85355 11.1035C6.65829 10.9082 6.65829 10.5916 6.85355 10.3963L9.14645 8.10351C9.46143 7.78852 10 8.01161 10 8.45706V9.74995H11C11.5523 9.74995 12 9.30224 12 8.74995V5.24995C12 4.69767 11.5523 4.24995 11 4.24995H10C9.44771 4.24995 9 3.80224 9 3.24995C9 2.69767 9.44771 2.24995 10 2.24995H11C12.6569 2.24995 14 3.5931 14 5.24995V8.74995C14 10.4068 12.6569 11.7499 11 11.7499H10Z" fill="black"/>
</g>
<defs>
<clipPath id="clip0_1068_186080">
<rect width="14" height="14" fill="white"/>
</clipPath>
</defs>
</svg>
