<svg width="14" height="14" viewBox="0 0 14 14" fill="none" xmlns="http://www.w3.org/2000/svg">
<path fill-rule="evenodd" clip-rule="evenodd" d="M11.1089 3.15529C11.1089 2.85195 10.9261 2.57847 10.6459 2.46238C10.3656 2.3463 10.043 2.41046 9.82855 2.62496L7.91542 4.53809C7.78516 4.66537 7.70107 4.83969 7.69063 5.03359C7.68852 5.07188 7.68934 5.11043 7.69316 5.14889C7.70525 5.27175 7.74697 5.3859 7.8111 5.4841C7.92395 5.65693 8.10619 5.78035 8.31827 5.81482C8.35793 5.82131 8.39845 5.82466 8.43951 5.82466H10.3556L10.3733 5.82508C10.3922 5.82558 10.4206 5.82644 10.4561 5.82787C10.5275 5.83074 10.6258 5.83581 10.7334 5.84449C10.9764 5.86411 11.1709 5.89552 11.2496 5.92376C11.5117 6.01793 11.7497 6.16889 11.9467 6.36583C12.1436 6.56278 12.2946 6.80083 12.3888 7.06295C12.4829 7.32507 12.518 7.60477 12.4914 7.88202C12.4868 7.92965 12.4868 7.97761 12.4914 8.02523C12.518 8.30248 12.4829 8.58218 12.3888 8.8443C12.2946 9.10642 12.1436 9.34448 11.9467 9.54142C11.7497 9.73836 11.5117 9.88932 11.2496 9.98349C10.9874 10.0776 10.7077 10.1127 10.4305 10.0861C10.4067 10.0838 10.3828 10.0827 10.3589 10.0827C9.98941 10.0827 9.58499 9.88362 9.09364 9.399C8.60278 8.91486 8.13224 8.25454 7.61202 7.52011L7.58952 7.48835C7.09609 6.7917 6.5544 6.02688 5.95968 5.4403C5.36417 4.85296 4.61091 4.33803 3.6778 4.32484C3.19186 4.28329 2.70254 4.34711 2.2433 4.51209C1.77305 4.68103 1.34597 4.95185 0.992654 5.30517C0.639333 5.65849 0.368509 6.08557 0.199575 6.55582C0.0387444 7.0035 -0.0259484 7.47978 0.00938044 7.95363C-0.0259484 8.42748 0.0387444 8.90375 0.199575 9.35144C0.368509 9.82169 0.639333 10.2487 0.992654 10.6021C1.34597 10.9554 1.77305 11.2262 2.2433 11.3951C2.70446 11.5608 3.19596 11.6245 3.6839 11.5819C4.37657 11.5628 5.04204 11.3064 5.56866 10.8551C5.88318 10.5856 5.91966 10.1121 5.65013 9.79763C5.38061 9.48311 4.90714 9.44663 4.59261 9.71616C4.32341 9.94684 3.98223 10.0765 3.62777 10.0828C3.60831 10.0831 3.58887 10.0842 3.5695 10.0861C3.29225 10.1127 3.01255 10.0776 2.75043 9.98349C2.48831 9.88932 2.25026 9.73836 2.05331 9.54142C1.85637 9.34448 1.70541 9.10642 1.61124 8.8443C1.51708 8.58218 1.48204 8.30248 1.50863 8.02523C1.5132 7.97761 1.5132 7.92965 1.50863 7.88202C1.48204 7.60477 1.51708 7.32507 1.61124 7.06295C1.70541 6.80083 1.85637 6.56278 2.05331 6.36583C2.25026 6.16889 2.48831 6.01793 2.75043 5.92376C3.01255 5.8296 3.29225 5.79456 3.5695 5.82115C3.5933 5.82343 3.6172 5.82458 3.64111 5.82458C4.01059 5.82458 4.41501 6.02363 4.90636 6.50825C5.39722 6.99239 5.86776 7.65271 6.38798 8.38714L6.41048 8.41891C6.90391 9.11556 7.4456 9.88037 8.04032 10.4669C8.63583 11.0543 9.38909 11.5692 10.3222 11.5824C10.8081 11.6239 11.2975 11.5601 11.7567 11.3951C12.227 11.2262 12.654 10.9554 13.0073 10.6021C13.3607 10.2487 13.6315 9.82169 13.8004 9.35144C13.9613 8.90375 14.0259 8.42748 13.9906 7.95363C14.0259 7.47978 13.9613 7.0035 13.8004 6.55582C13.6315 6.08557 13.3607 5.65849 13.0073 5.30517C12.654 4.95185 12.227 4.68103 11.7567 4.51209C11.5584 4.44086 11.3173 4.3996 11.1089 4.37456V3.15529Z" fill="black"/>
</svg>
