<svg width="14" height="14" viewBox="0 0 14 14" fill="none" xmlns="http://www.w3.org/2000/svg">
<g clip-path="url(#clip0_1068_186032)">
<path fill-rule="evenodd" clip-rule="evenodd" d="M4.80774 1.51514C4.01107 1.51514 3.36525 2.16096 3.36525 2.95763V8.57001H4.61525C4.81748 8.57001 4.9998 8.69183 5.07719 8.87867C5.15458 9.0655 5.1118 9.28056 4.9688 9.42356L3.36525 11.0271V11.0422H3.3502L2.9688 11.4236C2.87504 11.5173 2.74786 11.57 2.61525 11.57C2.48264 11.57 2.35547 11.5173 2.2617 11.4236L1.8803 11.0422H1.86525V11.0271L0.261696 9.42356C0.118697 9.28056 0.0759187 9.0655 0.153309 8.87867C0.2307 8.69183 0.413018 8.57001 0.615249 8.57001H1.86525V2.95763C1.86525 1.33254 3.18265 0.0151367 4.80774 0.0151367C6.43283 0.0151367 7.75023 1.33254 7.75023 2.95763L7.7502 11.0422C7.7502 11.8388 8.39602 12.4846 9.19269 12.4846C9.98935 12.4846 10.6351 11.8388 10.6351 11.0422V5.36762H9.38521C9.18298 5.36762 9.00066 5.2458 8.92327 5.05896C8.84588 4.87212 8.88866 4.65706 9.03165 4.51406L11.0316 2.51406C11.1254 2.42029 11.2526 2.36762 11.3852 2.36762C11.5178 2.36762 11.645 2.42029 11.7387 2.51406L13.7387 4.51406C13.8817 4.65706 13.9245 4.87212 13.8471 5.05896C13.7697 5.2458 13.5874 5.36762 13.3852 5.36762H12.1351V11.0422C12.1351 12.6672 10.8178 13.9846 9.19269 13.9846C7.5676 13.9846 6.2502 12.6672 6.2502 11.0422L6.25023 2.95763C6.25023 2.16096 5.6044 1.51514 4.80774 1.51514Z" fill="black"/>
</g>
<defs>
<clipPath id="clip0_1068_186032">
<rect width="14" height="14" fill="white"/>
</clipPath>
</defs>
</svg>
