<svg width="14" height="14" viewBox="0 0 14 14" fill="none" xmlns="http://www.w3.org/2000/svg">
<g clip-path="url(#clip0_1068_186050)">
<path fill-rule="evenodd" clip-rule="evenodd" d="M13.7071 1.70711L3.56066 11.8536L4.85355 13.1464C4.99655 13.2894 5.03933 13.5045 4.96194 13.6913C4.88455 13.8782 4.70223 14 4.5 14H1.00069H0.999307H0.5C0.223858 14 0 13.7761 0 13.5V13.0002V9.5C0 9.29777 0.121821 9.11545 0.308658 9.03806C0.495495 8.96067 0.710554 9.00345 0.853553 9.14645L2.14645 10.4393L12.2929 0.292893C12.6834 -0.097631 13.3166 -0.097631 13.7071 0.292893C14.0976 0.683417 14.0976 1.31658 13.7071 1.70711ZM8.79289 8.79289C9.18342 8.40237 9.81658 8.40237 10.2071 8.79289L13.7071 12.2929C14.0976 12.6834 14.0976 13.3166 13.7071 13.7071C13.3166 14.0976 12.6834 14.0976 12.2929 13.7071L8.79289 10.2071C8.40237 9.81658 8.40237 9.18342 8.79289 8.79289ZM0 0.999827V4.5C0 4.70223 0.121821 4.88455 0.308658 4.96194C0.495495 5.03933 0.710554 4.99655 0.853553 4.85355L2.14645 3.56066L3.79289 5.20711C4.18342 5.59763 4.81658 5.59763 5.20711 5.20711C5.59763 4.81658 5.59763 4.18342 5.20711 3.79289L3.56066 2.14645L4.85355 0.853553C4.99655 0.710554 5.03933 0.495495 4.96194 0.308658C4.88455 0.121821 4.70223 7.45058e-08 4.5 7.45058e-08H1.00017H0.5C0.223858 7.45058e-08 0 0.223858 0 0.5V0.999827Z" fill="black"/>
</g>
<defs>
<clipPath id="clip0_1068_186050">
<rect width="14" height="14" fill="white"/>
</clipPath>
</defs>
</svg>
