<svg width="14" height="14" viewBox="0 0 14 14" fill="none" xmlns="http://www.w3.org/2000/svg">
<path fill-rule="evenodd" clip-rule="evenodd" d="M3 0C2.44772 0 2 0.447715 2 1C2 1.55228 2.44772 2 3 2H5.5C6.60457 2 7.5 2.89543 7.5 4V10H5.49997C5.29774 10 5.11542 10.1218 5.03803 10.3087C4.96064 10.4955 5.00342 10.7106 5.14642 10.8536L8.14642 13.8536C8.24018 13.9473 8.36736 14 8.49997 14C8.63258 14 8.75976 13.9473 8.85352 13.8536L11.8535 10.8536C11.9965 10.7106 12.0393 10.4955 11.9619 10.3087C11.8845 10.1218 11.7022 10 11.5 10H9.5V4C9.5 1.79086 7.70914 0 5.5 0H3Z" fill="black"/>
</svg>
