<svg width="14" height="14" viewBox="0 0 14 14" fill="none" xmlns="http://www.w3.org/2000/svg">
<g clip-path="url(#clip0_1068_186104)">
<path fill-rule="evenodd" clip-rule="evenodd" d="M0.292893 0.292893C0.683417 -0.097631 1.31658 -0.097631 1.70711 0.292893L3.10355 1.68934L4.14645 0.646447C4.28945 0.503448 4.5045 0.46067 4.69134 0.53806C4.87818 0.615451 5 0.797769 5 1V4.5C5 4.77614 4.77614 5 4.5 5H1C0.797769 5 0.615451 4.87818 0.53806 4.69134C0.46067 4.5045 0.503448 4.28945 0.646447 4.14645L1.68934 3.10355L0.292893 1.70711C-0.097631 1.31658 -0.097631 0.683417 0.292893 0.292893ZM9.30866 0.53806C9.4955 0.46067 9.71055 0.503448 9.85355 0.646447L10.8965 1.68935L12.2929 0.292893C12.6834 -0.097631 13.3166 -0.097631 13.7071 0.292893C14.0976 0.683417 14.0976 1.31658 13.7071 1.70711L12.3107 3.10356L13.3536 4.14645C13.4966 4.28945 13.5393 4.5045 13.4619 4.69134C13.3845 4.87818 13.2022 5 13 5H9.5C9.22386 5 9 4.77614 9 4.5V1C9 0.797769 9.12182 0.615451 9.30866 0.53806ZM1 9C0.797769 9 0.615451 9.12182 0.53806 9.30866C0.46067 9.4955 0.503448 9.71055 0.646447 9.85355L1.68941 10.8965L0.292893 12.293C-0.097631 12.6836 -0.097631 13.3167 0.292893 13.7072C0.683417 14.0978 1.31658 14.0978 1.70711 13.7072L3.10362 12.3107L4.14645 13.3536C4.28945 13.4966 4.5045 13.5393 4.69134 13.4619C4.87818 13.3845 5 13.2022 5 13V9.5C5 9.22386 4.77614 9 4.5 9H1ZM9 9.5C9 9.22386 9.22386 9 9.5 9H13C13.2022 9 13.3845 9.12182 13.4619 9.30866C13.5393 9.4955 13.4966 9.71055 13.3536 9.85355L12.3106 10.8965L13.7071 12.293C14.0976 12.6836 14.0976 13.3167 13.7071 13.7072C13.3166 14.0978 12.6834 14.0978 12.2929 13.7072L10.8964 12.3107L9.85355 13.3536C9.71055 13.4966 9.4955 13.5393 9.30866 13.4619C9.12182 13.3845 9 13.2022 9 13V9.5Z" fill="black"/>
</g>
<defs>
<clipPath id="clip0_1068_186104">
<rect width="14" height="14" fill="white"/>
</clipPath>
</defs>
</svg>
