<svg width="14" height="14" viewBox="0 0 14 14" fill="none" xmlns="http://www.w3.org/2000/svg">
<g clip-path="url(#clip0_1068_186128)">
<path fill-rule="evenodd" clip-rule="evenodd" d="M6.23256 3C5.88675 3.5978 5.2404 4 4.50012 4C3.75984 4 3.1135 3.5978 2.76769 3H1C0.447715 3 0 2.55228 0 2C0 1.44772 0.447715 1 1 1H2.76769C3.1135 0.402199 3.75984 0 4.50012 0C5.2404 0 5.88675 0.402199 6.23256 1H10.75C12.5449 1 14 2.45507 14 4.25C14 6.04493 12.5449 7.5 10.75 7.5H10.2326C9.88686 8.09807 9.24036 8.50049 8.49988 8.50049C7.75939 8.50049 7.1129 8.09807 6.76716 7.5H3.5C2.67157 7.5 2 8.17157 2 9C2 9.82843 2.67157 10.5 3.5 10.5H3.76797C4.11385 9.90247 4.76004 9.50049 5.50012 9.50049C6.2402 9.50049 6.8864 9.90247 7.23228 10.5H11V9.49951C11 9.29728 11.1218 9.11496 11.3087 9.03757C11.4955 8.96018 11.7106 9.00296 11.8536 9.14596L13.8536 11.146C14.0488 11.3412 14.0488 11.6578 13.8536 11.8531L11.8536 13.8531C11.7106 13.9961 11.4955 14.0388 11.3087 13.9615C11.1218 13.8841 11 13.7017 11 13.4995V12.5H7.23284C6.8871 13.0981 6.24061 13.5005 5.50012 13.5005C4.75964 13.5005 4.11314 13.0981 3.7674 12.5H3.5C1.567 12.5 0 10.933 0 9C0 7.067 1.567 5.5 3.5 5.5H6.76772C7.1136 4.90247 7.7598 4.50049 8.49988 4.50049C9.23996 4.50049 9.88615 4.90247 10.232 5.5H10.75C11.4404 5.5 12 4.94036 12 4.25C12 3.55964 11.4404 3 10.75 3H6.23256Z" fill="black"/>
</g>
<defs>
<clipPath id="clip0_1068_186128">
<rect width="14" height="14" fill="white"/>
</clipPath>
</defs>
</svg>
