<svg width="14" height="14" viewBox="0 0 14 14" fill="none" xmlns="http://www.w3.org/2000/svg">
<g clip-path="url(#clip0_1068_186086)">
<path fill-rule="evenodd" clip-rule="evenodd" d="M8.45803 4H9.75093V3C9.75093 2.44772 9.30321 2 8.75093 2H5.25093C4.69864 2 4.25093 2.44772 4.25093 3V4C4.25093 4.55228 3.80321 5 3.25093 5C2.69864 5 2.25093 4.55228 2.25093 4V3C2.25093 1.34315 3.59407 0 5.25093 0H8.75093C10.4078 0 11.7509 1.34315 11.7509 3V4H13.0438C13.4892 4 13.7123 4.53857 13.3973 4.85355L11.1044 7.14645C10.9092 7.34171 10.5926 7.34171 10.3973 7.14645L8.10448 4.85355C7.7895 4.53857 8.01258 4 8.45803 4ZM2.25093 10H0.958035C0.512582 10 0.289498 9.46143 0.60448 9.14645L2.89737 6.85355C3.09264 6.65829 3.40922 6.65829 3.60448 6.85355L5.89737 9.14645C6.21236 9.46143 5.98927 10 5.54382 10H4.25093V11C4.25093 11.5523 4.69864 12 5.25093 12H8.75093C9.30321 12 9.75093 11.5523 9.75093 11V10C9.75093 9.44771 10.1986 9 10.7509 9C11.3032 9 11.7509 9.44771 11.7509 10V11C11.7509 12.6569 10.4078 14 8.75093 14H5.25093C3.59407 14 2.25093 12.6569 2.25093 11V10Z" fill="black"/>
</g>
<defs>
<clipPath id="clip0_1068_186086">
<rect width="14" height="14" fill="white"/>
</clipPath>
</defs>
</svg>
