<svg width="14" height="14" viewBox="0 0 14 14" fill="none" xmlns="http://www.w3.org/2000/svg">
<path fill-rule="evenodd" clip-rule="evenodd" d="M6.50002 4C6.50002 2.89543 7.39545 2 8.50002 2H11C11.5523 2 12 1.55228 12 1C12 0.447715 11.5523 0 11 0H8.50002C6.29088 0 4.50002 1.79086 4.50002 4V10H2.50002C2.29778 10 2.11547 10.1218 2.03808 10.3087C1.96068 10.4955 2.00346 10.7106 2.14646 10.8536L5.14646 13.8536C5.24023 13.9473 5.36741 14 5.50002 14C5.63262 14 5.7598 13.9473 5.85357 13.8536L8.85357 10.8536C8.99657 10.7106 9.03935 10.4955 8.96196 10.3087C8.88456 10.1218 8.70225 10 8.50002 10H6.50001L6.50002 4Z" fill="black"/>
</svg>
