<svg width="14" height="14" viewBox="0 0 14 14" fill="none" xmlns="http://www.w3.org/2000/svg">
<g clip-path="url(#clip0_1068_186062)">
<path fill-rule="evenodd" clip-rule="evenodd" d="M7.96154 12.5H6.03847C5.62425 12.5 5.28847 12.8358 5.28847 13.25C5.28847 13.6642 5.62425 14 6.03847 14H7.96154C8.37576 14 8.71154 13.6642 8.71154 13.25C8.71154 12.8358 8.37576 12.5 7.96154 12.5ZM5.28847 0.75C5.28847 1.16421 5.62425 1.5 6.03847 1.5H7.96154C8.37576 1.5 8.71154 1.16421 8.71154 0.75C8.71154 0.335787 8.37576 0 7.96154 0H6.03847C5.62425 0 5.28847 0.335787 5.28847 0.75ZM10.9316 12.4243C10.5321 12.5338 10.297 12.9464 10.4065 13.3459C10.5159 13.7454 10.9285 13.9805 11.328 13.871C12.5224 13.5436 13.4696 12.6244 13.8362 11.4473C13.9594 11.0518 13.7387 10.6314 13.3432 10.5082C12.9477 10.385 12.5273 10.6057 12.4041 11.0012C12.1891 11.6915 11.6313 12.2326 10.9316 12.4243ZM3.06865 12.4244C3.46813 12.5339 3.70323 12.9464 3.59375 13.3459C3.48428 13.7454 3.07168 13.9805 2.6722 13.871C1.47776 13.5437 0.530616 12.6244 0.163982 11.4473C0.0408022 11.0519 0.26154 10.6314 0.657014 10.5082C1.05249 10.3851 1.47294 10.6058 1.59612 11.0013C1.81113 11.6916 2.36895 12.2326 3.06865 12.4244ZM1.5 7.96155C1.5 8.37576 1.16421 8.71155 0.75 8.71155C0.335786 8.71155 -1.56e-07 8.37576 0 7.96155L5.85002e-07 6.03847C7.40002e-07 5.62426 0.335787 5.28847 0.75 5.28847C1.16421 5.28847 1.5 5.62426 1.5 6.03847V7.96155ZM13.2502 8.71155C12.836 8.71155 12.5002 8.37576 12.5002 7.96155V6.03847C12.5002 5.62426 12.836 5.28847 13.2502 5.28847C13.6644 5.28847 14.0002 5.62426 14.0002 6.03847V7.96155C14.0002 8.37576 13.6644 8.71155 13.2502 8.71155ZM1.59612 2.99867C1.47294 3.39415 1.05249 3.61488 0.657014 3.4917C0.26154 3.36852 0.0408021 2.94807 0.163982 2.5526C0.530615 1.37551 1.47776 0.456232 2.6722 0.128903C3.07168 0.0194265 3.48428 0.254524 3.59375 0.654009C3.70323 1.05349 3.46813 1.46609 3.06865 1.57556C2.36895 1.76731 1.81113 2.30835 1.59612 2.99867ZM13.3432 3.4917C12.9477 3.61488 12.5273 3.39415 12.4041 2.99867C12.1891 2.30835 11.6313 1.76731 10.9316 1.57556C10.5321 1.46609 10.297 1.05349 10.4065 0.654009C10.5159 0.254524 10.9285 0.0194265 11.328 0.128903C12.5224 0.456232 13.4696 1.37551 13.8362 2.5526C13.9594 2.94807 13.7387 3.36852 13.3432 3.4917ZM7.75012 4C7.75012 3.58579 7.41433 3.25 7.00012 3.25C6.58591 3.25 6.25012 3.58579 6.25012 4V7.5H5.00012C4.79789 7.5 4.61557 7.62182 4.53818 7.80866C4.46079 7.9955 4.50357 8.21055 4.64657 8.35355L6.64657 10.3536C6.74033 10.4473 6.86751 10.5 7.00012 10.5C7.13273 10.5 7.2599 10.4473 7.35367 10.3536L9.35367 8.35355C9.49667 8.21056 9.53945 7.9955 9.46206 7.80866C9.38467 7.62182 9.20235 7.5 9.00012 7.5H7.75012V4Z" fill="black"/>
</g>
<defs>
<clipPath id="clip0_1068_186062">
<rect width="14" height="14" fill="white"/>
</clipPath>
</defs>
</svg>
