<svg width="14" height="14" viewBox="0 0 14 14" fill="none" xmlns="http://www.w3.org/2000/svg">
<g clip-path="url(#clip0_1068_186098)">
<path fill-rule="evenodd" clip-rule="evenodd" d="M1.70711 0.292893C1.31658 -0.097631 0.683417 -0.097631 0.292893 0.292893C-0.097631 0.683417 -0.097631 1.31658 0.292893 1.70711L2.43934 3.85355L1.14645 5.14645C1.00345 5.28945 0.96067 5.5045 1.03806 5.69134C1.11545 5.87818 1.29777 6 1.5 6H5.5C5.77614 6 6 5.77614 6 5.5V1.5C6 1.29777 5.87818 1.11545 5.69134 1.03806C5.5045 0.96067 5.28945 1.00345 5.14645 1.14645L3.85355 2.43934L1.70711 0.292893ZM12.8536 8.85355L11.5607 10.1464L13.7071 12.2929C14.0976 12.6834 14.0976 13.3166 13.7071 13.7071C13.3166 14.0976 12.6834 14.0976 12.2929 13.7071L10.1464 11.5607L8.85355 12.8536C8.71055 12.9966 8.4955 13.0393 8.30866 12.9619C8.12182 12.8845 8 12.7022 8 12.5V8.5C8 8.22386 8.22386 8 8.5 8H12.5C12.7022 8 12.8845 8.12182 12.9619 8.30866C13.0393 8.4955 12.9966 8.71055 12.8536 8.85355Z" fill="black"/>
</g>
<defs>
<clipPath id="clip0_1068_186098">
<rect width="14" height="14" fill="white"/>
</clipPath>
</defs>
</svg>
