<svg width="14" height="14" viewBox="0 0 14 14" fill="none" xmlns="http://www.w3.org/2000/svg">
<path fill-rule="evenodd" clip-rule="evenodd" d="M5.35019 1.00247C5.35019 0.699116 5.16746 0.425639 4.8872 0.309553C4.60694 0.193468 4.28436 0.257635 4.06986 0.472133L1.67084 2.87116C1.37794 3.16405 1.37794 3.63892 1.67084 3.93181L4.06986 6.33084C4.28436 6.54534 4.60694 6.60951 4.8872 6.49342C5.16746 6.37734 5.35019 6.10386 5.35019 5.80051V4.40139H6.99921C9.09681 4.40139 10.7973 6.10184 10.7973 8.19944C10.7973 10.297 9.09681 11.9975 6.99921 11.9975C4.90161 11.9975 3.20117 10.297 3.20117 8.19944C3.20117 7.64715 2.75345 7.19944 2.20117 7.19944C1.64888 7.19944 1.20117 7.64715 1.20117 8.19944C1.20117 11.4016 3.79704 13.9975 6.99921 13.9975C10.2014 13.9975 12.7973 11.4016 12.7973 8.19944C12.7973 4.99727 10.2014 2.40139 6.99921 2.40139H5.35019V1.00247Z" fill="black"/>
</svg>
