<svg width="14" height="14" viewBox="0 0 14 14" fill="none" xmlns="http://www.w3.org/2000/svg">
<g clip-path="url(#clip0_1068_186089)">
<path fill-rule="evenodd" clip-rule="evenodd" d="M13.7071 1.70711C14.0976 1.31658 14.0976 0.683417 13.7071 0.292893C13.3166 -0.097631 12.6834 -0.097631 12.2929 0.292893L10.1464 2.43934L8.85355 1.14645C8.71055 1.00345 8.4955 0.96067 8.30866 1.03806C8.12182 1.11545 8 1.29777 8 1.5V5.5C8 5.77614 8.22386 6 8.5 6H12.5C12.7022 6 12.8845 5.87818 12.9619 5.69134C13.0393 5.5045 12.9966 5.28945 12.8536 5.14645L11.5607 3.85355L13.7071 1.70711ZM5.14645 12.8536L3.85355 11.5607L1.70711 13.7071C1.31658 14.0976 0.683417 14.0976 0.292893 13.7071C-0.097631 13.3166 -0.097631 12.6834 0.292893 12.2929L2.43934 10.1464L1.14645 8.85355C1.00345 8.71055 0.96067 8.4955 1.03806 8.30866C1.11545 8.12182 1.29777 8 1.5 8H5.5C5.77614 8 6 8.22386 6 8.5V12.5C6 12.7022 5.87818 12.8845 5.69134 12.9619C5.5045 13.0393 5.28945 12.9966 5.14645 12.8536Z" fill="black"/>
</g>
<defs>
<clipPath id="clip0_1068_186089">
<rect width="14" height="14" fill="white"/>
</clipPath>
</defs>
</svg>
