<svg width="14" height="14" viewBox="0 0 14 14" fill="none" xmlns="http://www.w3.org/2000/svg">
<g clip-path="url(#clip0_1068_186110)">
<path fill-rule="evenodd" clip-rule="evenodd" d="M10.9977 1.06752C10.9821 1.30049 10.8852 1.52903 10.7071 1.70711L8.70711 3.70711L1.70711 10.7071C1.31658 11.0976 0.683417 11.0976 0.292893 10.7071C-0.097631 10.3166 -0.097631 9.68342 0.292893 9.29289L6.58579 3L5.29289 1.70711C5.0069 1.42111 4.92134 0.990991 5.07612 0.617317C5.2309 0.243642 5.59554 0 6 0H9.99983C10.2544 0 10.4934 0.096541 10.674 0.261286M10.7558 0.345134C10.8249 0.424874 10.8821 0.516348 10.9239 0.617317C10.958 0.699788 10.9805 0.785008 10.9917 0.870822C10.9672 0.68158 10.8885 0.498008 10.7558 0.345134ZM7.41421 11L13.7071 4.70711C14.0976 4.31658 14.0976 3.68342 13.7071 3.29289C13.3166 2.90237 12.6834 2.90237 12.2929 3.29289L5.29289 10.2929L3.29289 12.2929C3.11481 12.471 3.01794 12.6995 3.00227 12.9325C2.99784 12.9978 2.99979 13.0636 3.00833 13.1292C3.03272 13.3175 3.11067 13.5001 3.24219 13.6525C3.26843 13.683 3.29641 13.7118 3.32595 13.7387C3.50395 13.9014 3.72651 13.9881 3.95203 13.9989C3.96801 13.9996 3.984 14 4 14H8C8.40446 14 8.7691 13.7564 8.92388 13.3827C9.07866 13.009 8.9931 12.5789 8.70711 12.2929L7.41421 11Z" fill="black"/>
</g>
<defs>
<clipPath id="clip0_1068_186110">
<rect width="14" height="14" fill="white"/>
</clipPath>
</defs>
</svg>
