<svg width="14" height="14" viewBox="0 0 14 14" fill="none" xmlns="http://www.w3.org/2000/svg">
<g clip-path="url(#clip0_1068_186023)">
<path fill-rule="evenodd" clip-rule="evenodd" d="M1.70711 0.292893C1.31658 -0.097631 0.683417 -0.097631 0.292893 0.292893C-0.097631 0.683417 -0.097631 1.31658 0.292893 1.70711L10.4393 11.8536L9.14645 13.1464C9.00345 13.2894 8.96067 13.5045 9.03806 13.6913C9.11545 13.8782 9.29777 14 9.5 14H12.9993H13.0007H13.5C13.7761 14 14 13.7761 14 13.5V13.0007V12.9993V9.5C14 9.29777 13.8782 9.11545 13.6913 9.03806C13.5045 8.96067 13.2894 9.00345 13.1464 9.14645L11.8536 10.4393L1.70711 0.292893ZM0.308658 9.03806C0.495495 8.96067 0.710554 9.00345 0.853553 9.14645L2.14645 10.4393L3.79289 8.79289C4.18342 8.40237 4.81658 8.40237 5.20711 8.79289C5.59763 9.18342 5.59763 9.81658 5.20711 10.2071L3.56066 11.8536L4.85355 13.1464C4.99655 13.2894 5.03933 13.5045 4.96194 13.6913C4.88455 13.8782 4.70223 14 4.5 14H1.00069H0.999307H0.5C0.223858 14 7.45058e-08 13.7761 7.45058e-08 13.5V13.0002V9.5C7.45058e-08 9.29777 0.121821 9.11545 0.308658 9.03806ZM13.7071 1.70711C14.0976 1.31658 14.0976 0.683417 13.7071 0.292893C13.3166 -0.097631 12.6834 -0.097631 12.2929 0.292893L8.79289 3.79289C8.40237 4.18342 8.40237 4.81658 8.79289 5.20711C9.18342 5.59763 9.81658 5.59763 10.2071 5.20711L13.7071 1.70711Z" fill="black"/>
</g>
<defs>
<clipPath id="clip0_1068_186023">
<rect width="14" height="14" fill="white"/>
</clipPath>
</defs>
</svg>
