<svg width="14" height="14" viewBox="0 0 14 14" fill="none" xmlns="http://www.w3.org/2000/svg">
<g clip-path="url(#clip0_1068_186083)">
<path fill-rule="evenodd" clip-rule="evenodd" d="M9.35355 0.146462C9.21055 0.0034622 8.9955 -0.0393156 8.80866 0.0380748C8.62182 0.115466 8.5 0.297784 8.5 0.500015V2.00001H2.5C1.11929 2.00001 0 3.1193 0 4.50001V6.00001C0 6.55229 0.447715 7.00001 1 7.00001C1.55228 7.00001 2 6.55229 2 6.00001V4.50001C2 4.22387 2.22386 4.00001 2.5 4.00001H8.5V5.50001C8.5 5.70224 8.62182 5.88456 8.80866 5.96195C8.9955 6.03934 9.21055 5.99656 9.35355 5.85356L11.8536 3.35356C12.0488 3.1583 12.0488 2.84172 11.8536 2.64646L9.35355 0.146462ZM5.19134 8.03807C5.37818 8.11546 5.5 8.29778 5.5 8.50001V10H11.5C11.7761 10 12 9.77615 12 9.50001V8.00001C12 7.44773 12.4477 7.00001 13 7.00001C13.5523 7.00001 14 7.44773 14 8.00001V9.50001C14 10.8807 12.8807 12 11.5 12H5.5V13.5C5.5 13.7022 5.37818 13.8845 5.19134 13.9619C5.0045 14.0393 4.78945 13.9966 4.64645 13.8536L2.14645 11.3536C1.95118 11.1583 1.95118 10.8417 2.14645 10.6464L4.64645 8.14646C4.78945 8.00346 5.0045 7.96068 5.19134 8.03807Z" fill="black"/>
</g>
<defs>
<clipPath id="clip0_1068_186083">
<rect width="14" height="14" fill="white"/>
</clipPath>
</defs>
</svg>
