<svg width="14" height="14" viewBox="0 0 14 14" fill="none" xmlns="http://www.w3.org/2000/svg">
<g clip-path="url(#clip0_1068_186122)">
<path fill-rule="evenodd" clip-rule="evenodd" d="M3.75002 0C4.30231 0 4.75002 0.447715 4.75002 1V10H6.25002C6.55337 10 6.82685 10.1827 6.94293 10.463C7.05902 10.7432 6.99485 11.0658 6.78035 11.2803L4.28035 13.7803C3.98746 14.0732 3.51259 14.0732 3.21969 13.7803L0.719692 11.2803C0.505193 11.0658 0.441027 10.7432 0.557112 10.463C0.673198 10.1827 0.946675 10 1.25002 10H2.75002V1C2.75002 0.447715 3.19774 0 3.75002 0ZM11.9168 0.75C11.9168 0.335786 11.581 0 11.1668 0C10.7526 0 10.4168 0.335786 10.4168 0.75C10.4168 1.02614 10.1929 1.25 9.91679 1.25H9.50012C9.08591 1.25 8.75012 1.58579 8.75012 2C8.75012 2.41421 9.08591 2.75 9.50012 2.75H9.91679C10.0894 2.75 10.257 2.72812 10.4168 2.68699V5H9.50012C9.08591 5 8.75012 5.33579 8.75012 5.75C8.75012 6.16421 9.08591 6.5 9.50012 6.5H12.8335C13.2477 6.5 13.5835 6.16421 13.5835 5.75C13.5835 5.33579 13.2477 5 12.8335 5H11.9168V0.75ZM11.0784 10.0938H10.4221C10.0511 10.0938 9.75025 9.79295 9.75025 9.42189C9.75025 9.05083 10.0511 8.75002 10.4221 8.75002L11.0783 8.75001C11.4478 8.75001 11.7475 9.04812 11.7502 9.4169V9.42687C11.7475 9.79564 11.4478 10.0938 11.0784 10.0938ZM11.0783 7.25001C12.1888 7.25 13.1047 8.08343 13.2345 9.15891C13.2448 9.20849 13.2502 9.25986 13.2502 9.3125V9.41292V9.42189V9.43085V11.9375C13.2502 13.0766 12.3268 14 11.1877 14H10.3127C9.41352 14 8.65055 13.425 8.36778 12.6249C8.22974 12.2344 8.43444 11.8059 8.82497 11.6679C9.21551 11.5298 9.644 11.7345 9.78204 12.1251C9.85961 12.3445 10.069 12.5 10.3127 12.5H11.1877C11.4984 12.5 11.7502 12.2482 11.7502 11.9375V11.4878C11.5386 11.5566 11.3128 11.5938 11.0784 11.5938H10.4221C9.22263 11.5938 8.25025 10.6214 8.25025 9.42188C8.25025 8.2224 9.22262 7.25002 10.4221 7.25002L11.0783 7.25001Z" fill="black"/>
</g>
<defs>
<clipPath id="clip0_1068_186122">
<rect width="14" height="14" fill="white"/>
</clipPath>
</defs>
</svg>
