<svg width="14" height="14" viewBox="0 0 14 14" fill="none" xmlns="http://www.w3.org/2000/svg">
<g clip-path="url(#clip0_1068_186140)">
<path fill-rule="evenodd" clip-rule="evenodd" d="M14 7C14 10.866 10.866 14 7 14C3.13401 14 0 10.866 0 7C0 3.13401 3.13401 0 7 0C10.866 0 14 3.13401 14 7ZM8.5002 3.5001C8.5002 4.32858 7.82858 5.0002 7.0001 5.0002C6.17162 5.0002 5.5 4.32858 5.5 3.5001C5.5 2.67162 6.17162 2 7.0001 2C7.82858 2 8.5002 2.67162 8.5002 3.5001ZM8.13826 11.6597L8.44463 9.20877H9.16667C9.36611 9.20877 9.52778 9.04709 9.52778 8.84766V8.12542C9.52778 6.72936 8.39597 5.59766 6.99992 5.59766C5.60386 5.59766 4.47223 6.72936 4.47223 8.12542V8.84766C4.47223 9.04709 4.6339 9.20877 4.83334 9.20877H5.55539L5.86175 11.6597C5.89303 11.9099 6.10573 12.0977 6.35789 12.0977H7.64212C7.89429 12.0977 8.10699 11.9099 8.13826 11.6597Z" fill="black"/>
</g>
<defs>
<clipPath id="clip0_1068_186140">
<rect width="14" height="14" fill="white"/>
</clipPath>
</defs>
</svg>
