<svg width="14" height="14" viewBox="0 0 14 14" fill="none" xmlns="http://www.w3.org/2000/svg">
<g clip-path="url(#clip0_1068_186146)">
<path fill-rule="evenodd" clip-rule="evenodd" d="M14 3.74837C14 4.75883 13.6002 5.67591 12.9501 6.35002C12.9356 6.36741 12.9202 6.38429 12.9038 6.40061C12.8875 6.41693 12.8706 6.43234 12.8532 6.44685C12.1791 7.09692 11.2621 7.49674 10.2516 7.49674C8.18144 7.49674 6.50323 5.81854 6.50323 3.74837C6.50323 2.73813 6.90289 1.82123 7.55272 1.14716C7.56733 1.12961 7.58287 1.11257 7.59933 1.0961C7.6158 1.07964 7.63283 1.0641 7.65038 1.04949C8.32446 0.399657 9.24136 0 10.2516 0C12.3218 0 14 1.6782 14 3.74837ZM10.2516 1.5C11.4933 1.5 12.5 2.50663 12.5 3.74837C12.5 4.09528 12.4214 4.42383 12.2811 4.71722L9.28276 1.71887C9.57615 1.57857 9.9047 1.5 10.2516 1.5ZM8.2221 2.77954L11.2204 5.77787C10.9271 5.91818 10.5985 5.99674 10.2516 5.99674C9.00986 5.99674 8.00323 4.99011 8.00323 3.74837C8.00323 3.40147 8.0818 3.07292 8.2221 2.77954ZM10.2516 8.74684C10.3594 8.74684 10.4663 8.74342 10.5724 8.73668V9.57504C10.5724 9.80878 10.6716 10.0406 10.8609 10.2171C11.0797 10.4213 11.2521 10.5001 11.5 10.5001C11.7761 10.5001 12 10.724 12 11.0001C12 11.2762 11.7761 11.5001 11.5 11.5001H0.5C0.223858 11.5001 0 11.2762 0 11.0001C0 10.724 0.223858 10.5001 0.5 10.5001C0.747931 10.5001 0.920308 10.4213 1.13911 10.2171C1.32834 10.0406 1.42753 9.80878 1.42753 9.57504V5.80023C1.42753 4.64816 1.9183 3.5509 2.7792 2.74756C3.58736 1.99345 4.66004 1.5548 5.78419 1.50488C5.44474 2.17966 5.25323 2.94216 5.25323 3.74847C5.25323 6.50899 7.49108 8.74684 10.2516 8.74684ZM4.24991 13.2501C4.24991 12.8359 4.58569 12.5001 4.99991 12.5001H6.99991C7.41412 12.5001 7.74991 12.8359 7.74991 13.2501C7.74991 13.6643 7.41412 14.0001 6.99991 14.0001H4.99991C4.58569 14.0001 4.24991 13.6643 4.24991 13.2501Z" fill="black"/>
</g>
<defs>
<clipPath id="clip0_1068_186146">
<rect width="14" height="14" fill="white"/>
</clipPath>
</defs>
</svg>
