<svg width="14" height="14" viewBox="0 0 14 14" fill="none" xmlns="http://www.w3.org/2000/svg">
<g clip-path="url(#clip0_1068_186149)">
<path fill-rule="evenodd" clip-rule="evenodd" d="M10.5431 2.41015C12.0402 3.60096 13 5.4384 13 7.5C13 11.0899 10.0899 14 6.5 14C2.91015 14 0 11.0899 0 7.5C0 3.91015 2.91015 1 6.5 1C7.48943 1 8.42723 1.22107 9.26669 1.61652C9.96024 0.613562 11.1087 0 12.3508 0H13.25C13.6642 0 14 0.335786 14 0.75C14 1.16421 13.6642 1.5 13.25 1.5H12.3508C11.6305 1.5 10.9627 1.84385 10.5431 2.41015ZM6.49998 5.125C5.87009 5.125 5.26602 5.37521 4.82062 5.8206C4.37522 6.266 4.125 6.87009 4.125 7.49998C4.125 7.84516 3.84518 8.12498 3.5 8.12498C3.15482 8.12498 2.875 7.84516 2.875 7.49998C2.875 6.53857 3.25692 5.61654 3.93674 4.93672C4.61656 4.2569 5.53858 3.875 6.49998 3.875C6.84516 3.875 7.12498 4.15482 7.12498 4.5C7.12498 4.84518 6.84516 5.125 6.49998 5.125Z" fill="black"/>
</g>
<defs>
<clipPath id="clip0_1068_186149">
<rect width="14" height="14" fill="white"/>
</clipPath>
</defs>
</svg>
