<svg width="14" height="14" viewBox="0 0 14 14" fill="none" xmlns="http://www.w3.org/2000/svg">
<g clip-path="url(#clip0_1068_186155)">
<path d="M4 0C3.60218 0 3.22064 0.158035 2.93934 0.43934C2.65804 0.720644 2.5 1.10218 2.5 1.5V13.5C2.5 13.7022 2.62182 13.8845 2.80866 13.9619C2.9955 14.0393 3.21055 13.9966 3.35355 13.8536L7 10.2071L10.6464 13.8536C10.7894 13.9966 11.0045 14.0393 11.1913 13.9619C11.3782 13.8845 11.5 13.7022 11.5 13.5V1.5C11.5 1.10217 11.342 0.720644 11.0607 0.43934C10.7794 0.158035 10.3978 0 10 0H4Z" fill="black"/>
</g>
<defs>
<clipPath id="clip0_1068_186155">
<rect width="14" height="14" fill="white"/>
</clipPath>
</defs>
</svg>
