<svg width="14" height="14" viewBox="0 0 14 14" fill="none" xmlns="http://www.w3.org/2000/svg">
<g clip-path="url(#clip0_1068_186137)">
<path fill-rule="evenodd" clip-rule="evenodd" d="M7 0.25C3.27208 0.25 0.25 3.27208 0.25 7C0.25 10.7279 3.27208 13.75 7 13.75C10.7279 13.75 13.75 10.7279 13.75 7C13.75 3.27208 10.7279 0.25 7 0.25ZM3.74271 5.61094C3.818 4.34464 4.88013 3.875 5.5 3.875C5.84518 3.875 6.125 4.15482 6.125 4.5C6.125 4.84518 5.84518 5.125 5.5 5.125C5.44364 5.125 5.31051 5.15479 5.19483 5.24672C5.09919 5.32273 5.0046 5.44819 4.99051 5.68513C4.96748 6.07244 4.8653 6.59232 4.5482 7C4.8653 7.40768 4.96748 7.92756 4.99051 8.31487C5.0046 8.55181 5.09919 8.67727 5.19483 8.75328C5.31051 8.84521 5.44364 8.875 5.5 8.875C5.84518 8.875 6.125 9.15482 6.125 9.5C6.125 9.84518 5.84518 10.125 5.5 10.125C4.88013 10.125 3.818 9.65536 3.74271 8.38906C3.71665 7.95068 3.57688 7.73721 3.44476 7.67115L3.22049 7.55902C3.00875 7.45315 2.875 7.23673 2.875 7C2.875 6.76327 3.00875 6.54685 3.22049 6.44098L3.44476 6.32885C3.57688 6.26279 3.71665 6.04932 3.74271 5.61094ZM8.5 3.875C9.11987 3.875 10.182 4.34464 10.2573 5.61094C10.2833 6.04932 10.4231 6.26279 10.5552 6.32885L10.7795 6.44098C10.9912 6.54685 11.125 6.76327 11.125 7C11.125 7.23673 10.9912 7.45315 10.7795 7.55902L10.5552 7.67115C10.4231 7.73721 10.2833 7.95068 10.2573 8.38906C10.182 9.65536 9.11987 10.125 8.5 10.125C8.15482 10.125 7.875 9.84518 7.875 9.5C7.875 9.15482 8.15482 8.875 8.5 8.875C8.55636 8.875 8.68949 8.84521 8.80517 8.75328C8.90081 8.67727 8.9954 8.55181 9.00949 8.31487C9.03252 7.92756 9.1347 7.40768 9.4518 7C9.1347 6.59232 9.03252 6.07244 9.00949 5.68513C8.9954 5.44819 8.90081 5.32273 8.80517 5.24672C8.68949 5.15479 8.55636 5.125 8.5 5.125C8.15482 5.125 7.875 4.84518 7.875 4.5C7.875 4.15482 8.15482 3.875 8.5 3.875Z" fill="black"/>
</g>
<defs>
<clipPath id="clip0_1068_186137">
<rect width="14" height="14" fill="white"/>
</clipPath>
</defs>
</svg>
