<svg width="14" height="14" viewBox="0 0 14 14" fill="none" xmlns="http://www.w3.org/2000/svg">
<g clip-path="url(#clip0_1068_186119)">
<path fill-rule="evenodd" clip-rule="evenodd" d="M7 0C7.41421 0 7.75 0.335786 7.75 0.75V1.75C7.75 2.16421 7.41421 2.5 7 2.5C6.58579 2.5 6.25 2.16421 6.25 1.75V0.75C6.25 0.335786 6.58579 0 7 0ZM7 11.5C7.41421 11.5 7.75 11.8358 7.75 12.25V13.25C7.75 13.6642 7.41421 14 7 14C6.58579 14 6.25 13.6642 6.25 13.25V12.25C6.25 11.8358 6.58579 11.5 7 11.5ZM12.25 6.25C11.8358 6.25 11.5 6.58579 11.5 7C11.5 7.41421 11.8358 7.75 12.25 7.75H13.25C13.6642 7.75 14 7.41421 14 7C14 6.58579 13.6642 6.25 13.25 6.25H12.25ZM0 7C0 6.58579 0.335786 6.25 0.75 6.25H1.75C2.16421 6.25 2.5 6.58579 2.5 7C2.5 7.41421 2.16421 7.75 1.75 7.75H0.75C0.335786 7.75 0 7.41421 0 7ZM3.1109 2.05024C2.818 1.75734 2.34313 1.75734 2.05024 2.05024C1.75734 2.34313 1.75734 2.818 2.05024 3.1109L2.9109 3.97156C3.20379 4.26445 3.67866 4.26445 3.97156 3.97156C4.26445 3.67866 4.26445 3.20379 3.97156 2.9109L3.1109 2.05024ZM10.0284 10.0283C10.3213 9.73537 10.7962 9.73537 11.0891 10.0283L11.9498 10.8889C12.2427 11.1818 12.2427 11.6567 11.9498 11.9496C11.6569 12.2425 11.182 12.2425 10.8891 11.9496L10.0284 11.0889C9.73555 10.796 9.73555 10.3212 10.0284 10.0283ZM11.9498 3.1109C12.2427 2.818 12.2427 2.34313 11.9498 2.05024C11.6569 1.75734 11.182 1.75734 10.8891 2.05024L10.0284 2.9109C9.73555 3.20379 9.73555 3.67866 10.0284 3.97156C10.3213 4.26445 10.7962 4.26445 11.0891 3.97156L11.9498 3.1109ZM3.97156 10.0283C4.26445 10.3212 4.26445 10.796 3.97156 11.0889L3.1109 11.9496C2.818 12.2425 2.34313 12.2425 2.05024 11.9496C1.75734 11.6567 1.75734 11.1818 2.05024 10.8889L2.9109 10.0283C3.20379 9.73537 3.67866 9.73537 3.97156 10.0283ZM6.50186 10.2121C4.94341 9.97235 3.75 8.62554 3.75 7C3.75 5.37446 4.94341 4.02765 6.50186 3.78794C6.77479 3.74596 7 3.97386 7 4.25V9.75C7 10.0261 6.77479 10.254 6.50186 10.2121Z" fill="black"/>
</g>
<defs>
<clipPath id="clip0_1068_186119">
<rect width="14" height="14" fill="white"/>
</clipPath>
</defs>
</svg>
