<svg width="14" height="14" viewBox="0 0 14 14" fill="none" xmlns="http://www.w3.org/2000/svg">
<g clip-path="url(#clip0_1068_186179)">
<path fill-rule="evenodd" clip-rule="evenodd" d="M7 0C7.41421 0 7.75 0.335786 7.75 0.75V1.75C7.75 2.16421 7.41421 2.5 7 2.5C6.58579 2.5 6.25 2.16421 6.25 1.75V0.75C6.25 0.335786 6.58579 0 7 0ZM8 7C8 7.55228 7.55228 8 7 8C6.44772 8 6 7.55228 6 7C6 6.44772 6.44772 6 7 6C7.55228 6 8 6.44772 8 7ZM7.75 12.25C7.75 11.8358 7.41421 11.5 7 11.5C6.58579 11.5 6.25 11.8358 6.25 12.25V13.25C6.25 13.6642 6.58579 14 7 14C7.41421 14 7.75 13.6642 7.75 13.25V12.25ZM11.5 7C11.5 6.58579 11.8358 6.25 12.25 6.25H13.25C13.6642 6.25 14 6.58579 14 7C14 7.41421 13.6642 7.75 13.25 7.75H12.25C11.8358 7.75 11.5 7.41421 11.5 7ZM0.75 6.25C0.335786 6.25 0 6.58579 0 7C0 7.41421 0.335786 7.75 0.75 7.75H1.75C2.16421 7.75 2.5 7.41421 2.5 7C2.5 6.58579 2.16421 6.25 1.75 6.25H0.75ZM2.05024 2.05024C2.34313 1.75734 2.818 1.75734 3.1109 2.05024L3.97156 2.9109C4.26445 3.20379 4.26445 3.67866 3.97156 3.97156C3.67866 4.26445 3.20379 4.26445 2.9109 3.97156L2.05024 3.1109C1.75734 2.818 1.75734 2.34313 2.05024 2.05024ZM11.0891 10.0283C10.7962 9.73537 10.3213 9.73537 10.0284 10.0283C9.73555 10.3212 9.73555 10.796 10.0284 11.0889L10.8891 11.9496C11.182 12.2425 11.6569 12.2425 11.9498 11.9496C12.2427 11.6567 12.2427 11.1818 11.9498 10.8889L11.0891 10.0283ZM11.9498 2.05024C12.2427 2.34313 12.2427 2.818 11.9498 3.1109L11.0891 3.97156C10.7962 4.26445 10.3213 4.26445 10.0284 3.97156C9.73555 3.67866 9.73555 3.20379 10.0284 2.9109L10.8891 2.05024C11.182 1.75734 11.6569 1.75734 11.9498 2.05024ZM3.97156 11.0889C4.26445 10.796 4.26445 10.3212 3.97156 10.0283C3.67866 9.73537 3.20379 9.73537 2.9109 10.0283L2.05024 10.8889C1.75734 11.1818 1.75734 11.6567 2.05024 11.9496C2.34313 12.2425 2.818 12.2425 3.1109 11.9496L3.97156 11.0889Z" fill="black"/>
</g>
<defs>
<clipPath id="clip0_1068_186179">
<rect width="14" height="14" fill="white"/>
</clipPath>
</defs>
</svg>
