<svg width="14" height="14" viewBox="0 0 14 14" fill="none" xmlns="http://www.w3.org/2000/svg">
<g clip-path="url(#clip0_1068_186134)">
<path fill-rule="evenodd" clip-rule="evenodd" d="M7.62711 2.73494C8.60703 1.75504 10.1958 1.75503 11.1757 2.73494C12.1556 3.71486 12.1556 5.30362 11.1757 6.28354L9.2578 8.20153L8.19062 7.13435L9.15133 6.17364C9.54185 5.78311 9.54185 5.14995 9.15133 4.75943C8.76081 4.3689 8.12764 4.3689 7.73712 4.75943L6.77641 5.72014L5.70921 4.65293L7.62711 2.73494ZM4.295 3.23872L6.21288 1.32074C7.97384 -0.440234 10.8289 -0.440243 12.5899 1.32073C14.3509 3.08169 14.3509 5.93677 12.5899 7.69774L10.672 9.61575L13.686 12.6297C13.9767 12.9204 13.9767 13.3918 13.686 13.6825C13.3953 13.9732 12.9239 13.9732 12.6332 13.6825L0.224853 1.27413C-0.0658613 0.983409 -0.0658613 0.512067 0.224853 0.221352C0.515569 -0.0693624 0.98691 -0.0693624 1.27763 0.221352L4.295 3.23872ZM2.73495 6.21289C3.12547 6.60341 3.12547 7.23658 2.73494 7.6271C1.75503 8.60702 1.75502 10.1958 2.73494 11.1757C3.71486 12.1556 5.30363 12.1556 6.28354 11.1757C6.67407 10.7852 7.30723 10.7852 7.69776 11.1757C8.08828 11.5662 8.08828 12.1994 7.69776 12.5899C5.93679 14.3509 3.0817 14.3509 1.32073 12.5899C-0.440242 10.8289 -0.440241 7.97386 1.32073 6.21289C1.71126 5.82237 2.34442 5.82237 2.73495 6.21289Z" fill="black"/>
</g>
<defs>
<clipPath id="clip0_1068_186134">
<rect width="14" height="14" fill="white"/>
</clipPath>
</defs>
</svg>
