<svg width="14" height="14" viewBox="0 0 14 14" fill="none" xmlns="http://www.w3.org/2000/svg">
<path fill-rule="evenodd" clip-rule="evenodd" d="M2 2.49951C2 3.0518 1.55228 3.49951 1 3.49951C0.447715 3.49951 0 3.0518 0 2.49951C0 1.94723 0.447715 1.49951 1 1.49951C1.55228 1.49951 2 1.94723 2 2.49951ZM1 8C1.55228 8 2 7.55228 2 7C2 6.44772 1.55228 6 1 6C0.447715 6 0 6.44772 0 7C0 7.55228 0.447715 8 1 8ZM1 12.5005C1.55228 12.5005 2 12.0528 2 11.5005C2 10.9482 1.55228 10.5005 1 10.5005C0.447715 10.5005 0 10.9482 0 11.5005C0 12.0528 0.447715 12.5005 1 12.5005ZM4.75 1.75C4.33579 1.75 4 2.08579 4 2.5C4 2.91421 4.33579 3.25 4.75 3.25H13.25C13.6642 3.25 14 2.91421 14 2.5C14 2.08579 13.6642 1.75 13.25 1.75H4.75ZM4 7C4 6.58579 4.33579 6.25 4.75 6.25H13.25C13.6642 6.25 14 6.58579 14 7C14 7.41421 13.6642 7.75 13.25 7.75H4.75C4.33579 7.75 4 7.41421 4 7ZM4.75 10.75C4.33579 10.75 4 11.0858 4 11.5C4 11.9142 4.33579 12.25 4.75 12.25H13.25C13.6642 12.25 14 11.9142 14 11.5C14 11.0858 13.6642 10.75 13.25 10.75H4.75Z" fill="black"/>
</svg>
