<svg width="14" height="14" viewBox="0 0 14 14" fill="none" xmlns="http://www.w3.org/2000/svg">
<g clip-path="url(#clip0_1068_186143)">
<path fill-rule="evenodd" clip-rule="evenodd" d="M3.5 0C4.05228 0 4.5 0.447715 4.5 1V2H9.50009V1C9.50009 0.447715 9.94781 0 10.5001 0C11.0524 0 11.5001 0.447715 11.5001 1V2H12.5C13.3284 2 14 2.67157 14 3.5V12.5C14 13.3284 13.3284 14 12.5 14H1.5C0.671573 14 0 13.3284 0 12.5V3.5C0 2.67157 0.671573 2 1.5 2H2.5V1C2.5 0.447715 2.94772 0 3.5 0ZM3.75 8.00012C3.75 7.58591 4.08579 7.25012 4.5 7.25012H6.25V5.50012C6.25 5.08591 6.58579 4.75012 7 4.75012C7.41421 4.75012 7.75 5.08591 7.75 5.50012V7.25012H9.5C9.91421 7.25012 10.25 7.58591 10.25 8.00012C10.25 8.41434 9.91421 8.75012 9.5 8.75012H7.75V10.5001C7.75 10.9143 7.41421 11.2501 7 11.2501C6.58579 11.2501 6.25 10.9143 6.25 10.5001V8.75012H4.5C4.08579 8.75012 3.75 8.41434 3.75 8.00012Z" fill="black"/>
</g>
<defs>
<clipPath id="clip0_1068_186143">
<rect width="14" height="14" fill="white"/>
</clipPath>
</defs>
</svg>
