<svg width="14" height="14" viewBox="0 0 14 14" fill="none" xmlns="http://www.w3.org/2000/svg">
<g clip-path="url(#clip0_1068_186158)">
<path fill-rule="evenodd" clip-rule="evenodd" d="M3.5 0C4.05228 0 4.5 0.447715 4.5 1V2H9.50012V1C9.50012 0.447715 9.94784 0 10.5001 0C11.0524 0 11.5001 0.447715 11.5001 1V2H12.5C13.3284 2 14 2.67157 14 3.5V12.5C14 13.3284 13.3284 14 12.5 14H1.5C0.671573 14 0 13.3284 0 12.5V3.5C0 2.67157 0.671573 2 1.5 2H2.5V1C2.5 0.447715 2.94772 0 3.5 0ZM8.56274 5.07322C8.51583 5.02631 8.45218 4.99996 8.38583 5C8.31948 5.00004 8.25587 5.02644 8.209 5.07341L4.08619 9.20499C4.04793 9.24333 4.02316 9.29307 4.0156 9.34671L3.75244 11.2151C3.74152 11.2927 3.76757 11.3709 3.82282 11.4264C3.87806 11.4819 3.95613 11.5083 4.03373 11.4977L5.90215 11.2433C5.9563 11.236 6.00655 11.211 6.0452 11.1724L10.1768 7.04081C10.2744 6.94318 10.2744 6.78489 10.1768 6.68726L8.56274 5.07322Z" fill="black"/>
</g>
<defs>
<clipPath id="clip0_1068_186158">
<rect width="14" height="14" fill="white"/>
</clipPath>
</defs>
</svg>
