<svg width="14" height="14" viewBox="0 0 14 14" fill="none" xmlns="http://www.w3.org/2000/svg">
<g clip-path="url(#clip0_1068_186173)">
<path fill-rule="evenodd" clip-rule="evenodd" d="M4.5 1C4.5 0.447715 4.05228 0 3.5 0C2.94772 0 2.5 0.447715 2.5 1V2H1.5C0.671573 2 0 2.67157 0 3.5V12.5C0 13.3284 0.671573 14 1.5 14H12.5C13.3284 14 14 13.3284 14 12.5V3.5C14 2.67157 13.3284 2 12.5 2H11.5001V1C11.5001 0.447715 11.0524 0 10.5001 0C9.94784 0 9.50012 0.447715 9.50012 1V2H4.5V1ZM6.98874 5.12509C7.08214 5.1233 7.17419 5.14767 7.25447 5.19545C7.33475 5.24324 7.40005 5.31253 7.44301 5.3955L7.44486 5.39915L8.18922 6.89652L8.19216 6.89713L9.84113 7.1475C9.93426 7.16021 10.022 7.19888 10.0942 7.25912C10.1672 7.32002 10.2213 7.40045 10.2503 7.491C10.2793 7.58155 10.2819 7.67848 10.2578 7.77045C10.2338 7.86191 10.1845 7.9447 10.1155 8.00927L8.95504 9.11208C8.96367 9.13224 8.96961 9.15347 8.9727 9.17523L9.20515 10.811C9.2226 10.9029 9.21396 10.9979 9.18011 11.0853C9.1451 11.1756 9.08464 11.2539 9.00605 11.3105C8.92746 11.3672 8.83412 11.3998 8.73735 11.4045C8.6426 11.4091 8.54854 11.3866 8.46611 11.3398L7.01026 10.5691C7.00575 10.5676 7.00101 10.5668 6.99623 10.5668C6.99145 10.5668 6.98672 10.5676 6.98221 10.5691L5.52635 11.3398C5.44392 11.3866 5.34986 11.4091 5.25512 11.4045C5.15834 11.3998 5.06501 11.3672 4.98642 11.3105C4.90783 11.2539 4.84736 11.1756 4.81236 11.0853C4.77805 10.9968 4.76964 10.9004 4.78802 10.8073L5.06397 9.16888C5.06546 9.16006 5.06742 9.15132 5.06984 9.14271L3.87547 7.99917L3.87045 7.99422C3.80587 7.92881 3.76055 7.84689 3.73945 7.75743C3.71835 7.66797 3.72228 7.57443 3.75081 7.48705C3.77934 7.39968 3.83137 7.32184 3.9012 7.26208C3.97103 7.20231 4.05596 7.16292 4.14669 7.14822L4.15042 7.14764L5.80295 6.90539L5.80415 6.90334L6.54659 5.40984C6.58638 5.32656 6.64843 5.25587 6.72591 5.20562C6.80429 5.15478 6.89533 5.12689 6.98874 5.12509Z" fill="black"/>
</g>
<defs>
<clipPath id="clip0_1068_186173">
<rect width="14" height="14" fill="white"/>
</clipPath>
</defs>
</svg>
