<svg width="14" height="14" viewBox="0 0 14 14" fill="none" xmlns="http://www.w3.org/2000/svg">
<g clip-path="url(#clip0_1068_186161)">
<path fill-rule="evenodd" clip-rule="evenodd" d="M3.5 0C4.05228 0 4.5 0.447715 4.5 1V2H9.50009V1C9.50009 0.447715 9.94781 0 10.5001 0C11.0524 0 11.5001 0.447715 11.5001 1V2H12.5C13.3284 2 14 2.67157 14 3.5V12.5C14 13.3284 13.3284 14 12.5 14H1.5C0.671573 14 0 13.3284 0 12.5V3.5C0 2.67157 0.671573 2 1.5 2H2.5V1C2.5 0.447715 2.94772 0 3.5 0ZM3.28613 8.1814C3.28613 7.76718 3.62192 7.4314 4.03613 7.4314H7.42954V6.27241C7.42954 6.01962 7.58181 5.79172 7.81536 5.69498C8.0489 5.59825 8.31773 5.65172 8.49648 5.83047L10.4056 7.73961C10.6497 7.98369 10.6497 8.37942 10.4056 8.6235L8.49648 10.5326C8.31773 10.7114 8.0489 10.7649 7.81536 10.6681C7.58181 10.5714 7.42953 10.3435 7.42953 10.0907V8.9314H4.03613C3.62192 8.9314 3.28613 8.59561 3.28613 8.1814Z" fill="black"/>
</g>
<defs>
<clipPath id="clip0_1068_186161">
<rect width="14" height="14" fill="white"/>
</clipPath>
</defs>
</svg>
