<svg width="14" height="14" viewBox="0 0 14 14" fill="none" xmlns="http://www.w3.org/2000/svg">
<g clip-path="url(#clip0_1068_186176)">
<path fill-rule="evenodd" clip-rule="evenodd" d="M1.5 2.25C1.5 1.83579 1.83579 1.5 2.25 1.5C2.66421 1.5 3 1.83579 3 2.25C3 2.66421 2.66421 3 2.25 3C1.83579 3 1.5 2.66421 1.5 2.25ZM2.25 0C1.00736 0 0 1.00736 0 2.25C0 3.49264 1.00736 4.5 2.25 4.5C3.49264 4.5 4.5 3.49264 4.5 2.25C4.5 1.00736 3.49264 0 2.25 0ZM7.99979 4C7.99979 2.89543 8.89522 2 9.99979 2C10.9335 2 11.8027 2.61393 12.0569 3.33325C12.241 3.85396 12.8123 4.12689 13.333 3.94284C13.8537 3.75879 14.1267 3.18747 13.9426 2.66675C13.3732 1.05568 11.6785 0 9.99979 0C7.79065 0 5.99979 1.79086 5.99979 4V10C5.99979 12.2091 7.79065 14 9.99979 14C11.6785 14 13.3732 12.9443 13.9426 11.3332C14.1267 10.8125 13.8537 10.2412 13.333 10.0572C12.8123 9.87311 12.241 10.146 12.0569 10.6668C11.8027 11.3861 10.9335 12 9.99979 12C8.89522 12 7.99979 11.1046 7.99979 10V4Z" fill="black"/>
</g>
<defs>
<clipPath id="clip0_1068_186176">
<rect width="14" height="14" fill="white"/>
</clipPath>
</defs>
</svg>
