<svg width="14" height="14" viewBox="0 0 14 14" fill="none" xmlns="http://www.w3.org/2000/svg">
<g clip-path="url(#clip0_1068_186170)">
<path fill-rule="evenodd" clip-rule="evenodd" d="M13.6371 1.19841C14.0628 1.55023 14.1228 2.18055 13.7709 2.60628L5.7309 12.3355L5.72848 12.3384C5.5456 12.558 5.31608 12.7341 5.05661 12.8538C4.79713 12.9736 4.51423 13.034 4.22848 13.0307C3.93805 13.0271 3.65131 12.9577 3.39152 12.8278C3.1326 12.6984 2.90626 12.5121 2.72937 12.283C2.72877 12.2822 2.72818 12.2815 2.72758 12.2807L0.210694 9.04474C-0.128376 8.6088 -0.049842 7.98052 0.386105 7.64145C0.822053 7.30238 1.45033 7.38092 1.7894 7.81686L4.25297 10.9843L12.2292 1.33225C12.581 0.906522 13.2114 0.846601 13.6371 1.19841Z" fill="black"/>
</g>
<defs>
<clipPath id="clip0_1068_186170">
<rect width="14" height="14" fill="white"/>
</clipPath>
</defs>
</svg>
