<svg width="14" height="14" viewBox="0 0 14 14" fill="none" xmlns="http://www.w3.org/2000/svg">
<g clip-path="url(#clip0_1068_186167)">
<path fill-rule="evenodd" clip-rule="evenodd" d="M3.5 0C1.567 0 0 1.567 0 3.5V10.5C0 12.433 1.567 14 3.5 14H10.5C12.433 14 14 12.433 14 10.5V3.5C14 1.567 12.433 0 10.5 0H3.5ZM10.5028 5.21852C10.7615 4.89507 10.7091 4.42311 10.3856 4.16435C10.0622 3.90559 9.59022 3.95803 9.33146 4.28148L5.78557 8.71384L4.36711 7.65C4.03574 7.40147 3.56564 7.46863 3.31711 7.8C3.06859 8.13137 3.13574 8.60147 3.46711 8.85L5.46711 10.35C5.79119 10.5931 6.24971 10.5348 6.50277 10.2185L10.5028 5.21852Z" fill="black"/>
</g>
<defs>
<clipPath id="clip0_1068_186167">
<rect width="14" height="14" fill="white"/>
</clipPath>
</defs>
</svg>
