<svg width="14" height="14" viewBox="0 0 14 14" fill="none" xmlns="http://www.w3.org/2000/svg">
<path fill-rule="evenodd" clip-rule="evenodd" d="M5.5 0C4.94772 0 4.5 0.447716 4.5 1V1.5C4.5 2.05229 4.94772 2.5 5.5 2.5H8.5C9.05229 2.5 9.5 2.05229 9.5 1.5V1C9.5 0.447715 9.05229 0 8.5 0H5.5ZM3.24997 1H2.75C1.92157 1 1.25 1.67157 1.25 2.5V12.5C1.25 13.3284 1.92157 14 2.75 14H11.25C12.0784 14 12.75 13.3284 12.75 12.5V2.5C12.75 1.67157 12.0784 1 11.25 1H10.75V1.5C10.75 2.74264 9.74261 3.75 8.49997 3.75H5.49997C4.25733 3.75 3.24997 2.74264 3.24997 1.5V1ZM9.95 5.9C10.2814 6.14853 10.3485 6.61863 10.1 6.95L7.1 10.95C6.86117 11.2684 6.41517 11.3448 6.08397 11.124L4.58397 10.124C4.23933 9.89427 4.1462 9.42862 4.37596 9.08397C4.60573 8.73933 5.07138 8.6462 5.41603 8.87596L6.32569 9.48241L8.9 6.05C9.14853 5.71863 9.61863 5.65147 9.95 5.9Z" fill="black"/>
</svg>
