<svg width="14" height="14" viewBox="0 0 14 14" fill="none" xmlns="http://www.w3.org/2000/svg">
<path fill-rule="evenodd" clip-rule="evenodd" d="M5.5 0C4.94772 0 4.5 0.447716 4.5 1V1.5C4.5 2.05229 4.94772 2.5 5.5 2.5H8.5C9.05229 2.5 9.5 2.05229 9.5 1.5V1C9.5 0.447715 9.05229 0 8.5 0H5.5ZM2.75 1H3.24997V1.5C3.24997 2.74264 4.25733 3.75 5.49997 3.75H8.49997C9.74261 3.75 10.75 2.74264 10.75 1.5V1H11.25C12.0784 1 12.75 1.67157 12.75 2.5V12.5C12.75 13.3284 12.0784 14 11.25 14H2.75C1.92157 14 1.25 13.3284 1.25 12.5V2.5C1.25 1.67157 1.92157 1 2.75 1ZM7.74997 6.00098C7.74997 5.58676 7.41418 5.25098 6.99997 5.25098C6.58576 5.25098 6.24997 5.58676 6.24997 6.00098V7.75098H4.49997C4.08576 7.75098 3.74997 8.08676 3.74997 8.50098C3.74997 8.91519 4.08576 9.25098 4.49997 9.25098H6.24997V11.001C6.24997 11.4152 6.58576 11.751 6.99997 11.751C7.41418 11.751 7.74997 11.4152 7.74997 11.001V9.25098H9.49997C9.91418 9.25098 10.25 8.91519 10.25 8.50098C10.25 8.08676 9.91418 7.75098 9.49997 7.75098H7.74997V6.00098Z" fill="black"/>
</svg>
