<svg width="14" height="14" viewBox="0 0 14 14" fill="none" xmlns="http://www.w3.org/2000/svg">
<path fill-rule="evenodd" clip-rule="evenodd" d="M5.5 0C4.94772 0 4.5 0.447716 4.5 1V1.5C4.5 2.05229 4.94772 2.5 5.5 2.5H8.5C9.05229 2.5 9.5 2.05229 9.5 1.5V1C9.5 0.447715 9.05229 0 8.5 0H5.5ZM3.24997 1H2.75C1.92157 1 1.25 1.67157 1.25 2.5V12.5C1.25 13.3284 1.92157 14 2.75 14H11.25C12.0784 14 12.75 13.3284 12.75 12.5V2.5C12.75 1.67157 12.0784 1 11.25 1H10.75V1.5C10.75 2.74264 9.74261 3.75 8.49997 3.75H5.49997C4.25733 3.75 3.24997 2.74264 3.24997 1.5V1ZM3.74997 8.5C3.74997 8.08579 4.08576 7.75 4.49997 7.75H9.49997C9.91418 7.75 10.25 8.08579 10.25 8.5C10.25 8.91421 9.91418 9.25 9.49997 9.25H4.49997C4.08576 9.25 3.74997 8.91421 3.74997 8.5Z" fill="black"/>
</svg>
