<svg width="14" height="14" viewBox="0 0 14 14" fill="none" xmlns="http://www.w3.org/2000/svg">
<g clip-path="url(#clip0_1068_186205)">
<path fill-rule="evenodd" clip-rule="evenodd" d="M6.91342 2.3806C5.99979 2.00217 4.99446 1.90315 4.02455 2.09608C3.05465 2.289 2.16373 2.76521 1.46447 3.46447C0.765206 4.16373 0.289002 5.05465 0.0960758 6.02455C-0.0968503 6.99446 0.00216636 7.99979 0.380605 8.91342C0.759043 9.82705 1.39991 10.6079 2.22215 11.1574C3.0444 11.7068 4.0111 12 5 12H11C11.7957 12 12.5587 11.6839 13.1213 11.1213C13.6839 10.5587 14 9.79565 14 9C14 8.20435 13.6839 7.44129 13.1213 6.87868C12.5587 6.31607 11.7957 6 11 6C10.634 6.00049 10.2729 6.0677 9.93494 6.196C9.82041 5.49306 9.55648 4.81949 9.15735 4.22215C8.60794 3.3999 7.82705 2.75904 6.91342 2.3806Z" fill="black"/>
</g>
<defs>
<clipPath id="clip0_1068_186205">
<rect width="14" height="14" fill="white"/>
</clipPath>
</defs>
</svg>
