<svg width="14" height="14" viewBox="0 0 14 14" fill="none" xmlns="http://www.w3.org/2000/svg">
<g clip-path="url(#clip0_1068_186229)">
<path fill-rule="evenodd" clip-rule="evenodd" d="M5.5562 0.689231L5.09312 1.88462L3.49927 2.78923L2.2285 2.59538C2.01691 2.56666 1.80155 2.6015 1.60979 2.69546C1.41804 2.78942 1.25854 2.93826 1.15158 3.12308L0.720814 3.87692C0.610431 4.06468 0.559574 4.2815 0.574955 4.49876C0.590336 4.71602 0.671233 4.92351 0.806968 5.09385L1.61466 6.09538V7.90462L0.828506 8.90615C0.692771 9.07649 0.611875 9.28398 0.596494 9.50124C0.581112 9.7185 0.631969 9.93532 0.742352 10.1231L1.17312 10.8769C1.28008 11.0617 1.43958 11.2106 1.63133 11.3045C1.82308 11.3985 2.03844 11.4333 2.25004 11.4046L3.52081 11.2108L5.09312 12.1154L5.5562 13.3108C5.63429 13.5132 5.77169 13.6873 5.9504 13.8102C6.12911 13.9332 6.3408 13.9994 6.55773 14H7.46235C7.67929 13.9994 7.89097 13.9332 8.06968 13.8102C8.24839 13.6873 8.38579 13.5132 8.46389 13.3108L8.92696 12.1154L10.4993 11.2108L11.7701 11.4046C11.9817 11.4333 12.197 11.3985 12.3888 11.3045C12.5805 11.2106 12.74 11.0617 12.847 10.8769L13.2778 10.1231C13.3881 9.93532 13.439 9.7185 13.4236 9.50124C13.4082 9.28398 13.3273 9.07649 13.1916 8.90615L12.3839 7.90462V6.09538L13.1701 5.09385C13.3058 4.92351 13.3867 4.71602 13.4021 4.49876C13.4175 4.2815 13.3666 4.06468 13.2562 3.87692L12.8254 3.12308C12.7185 2.93826 12.559 2.78942 12.3672 2.69546C12.1755 2.6015 11.9601 2.56666 11.7485 2.59538L10.4778 2.78923L8.90543 1.88462L8.44235 0.689231C8.36425 0.486838 8.22685 0.31275 8.04814 0.189767C7.86943 0.0667842 7.65775 0.00064083 7.44081 0H6.55773C6.3408 0.00064083 6.12911 0.0667842 5.9504 0.189767C5.77169 0.31275 5.63429 0.486838 5.5562 0.689231ZM6.99928 9.25C8.24192 9.25 9.24928 8.24264 9.24928 7C9.24928 5.75736 8.24192 4.75 6.99928 4.75C5.75664 4.75 4.74928 5.75736 4.74928 7C4.74928 8.24264 5.75664 9.25 6.99928 9.25Z" fill="black"/>
</g>
<defs>
<clipPath id="clip0_1068_186229">
<rect width="14" height="14" fill="white"/>
</clipPath>
</defs>
</svg>
