<svg width="14" height="14" viewBox="0 0 14 14" fill="none" xmlns="http://www.w3.org/2000/svg">
<g clip-path="url(#clip0_1068_186199)">
<path fill-rule="evenodd" clip-rule="evenodd" d="M3.97352 4.06315C4.44759 2.85522 5.62392 2 7 2C8.37608 2 9.55241 2.85522 10.0265 4.06315C9.77381 4.02161 9.51443 4 9.25 4C8.43593 4 7.6697 4.20479 7 4.56565C6.3303 4.20479 5.56407 4 4.75 4C4.48557 4 4.22619 4.02161 3.97352 4.06315ZM2.28263 4.6903C2.5596 2.33072 4.566 0.5 7 0.5C9.43399 0.5 11.4404 2.33072 11.7174 4.6903C13.0861 5.52393 14 7.03024 14 8.75C14 11.3734 11.8734 13.5 9.25 13.5C8.43593 13.5 7.6697 13.2952 7 12.9343C6.3303 13.2952 5.56407 13.5 4.75 13.5C2.12665 13.5 0 11.3734 0 8.75C0 7.03024 0.913945 5.52393 2.28263 4.6903ZM10.2257 5.64902C9.91774 5.5522 9.58997 5.5 9.25 5.5C8.93149 5.5 8.62367 5.54582 8.3328 5.63123C8.79831 6.16555 9.14625 6.805 9.33631 7.50924C9.81491 7.01442 10.1377 6.36801 10.2257 5.64902ZM9.46737 9.3097C10.4944 8.68415 11.2654 7.67983 11.5863 6.49077C12.1519 7.07558 12.5 7.87214 12.5 8.75C12.5 10.5449 11.0449 12 9.25 12C8.93149 12 8.62367 11.9542 8.3328 11.8688C8.94443 11.1667 9.3531 10.2832 9.46737 9.3097ZM7.97575 8.35098C7.88253 7.58958 7.526 6.90956 7 6.40479C6.474 6.90956 6.11747 7.58958 6.02425 8.35098C6.33226 8.4478 6.66003 8.5 7 8.5C7.33997 8.5 7.66774 8.4478 7.97575 8.35098ZM6.22353 9.93685C6.47619 9.97839 6.73557 10 7 10C7.26443 10 7.52381 9.97839 7.77648 9.93685C7.60325 10.3782 7.33625 10.7725 7 11.0952C6.66375 10.7725 6.39675 10.3782 6.22353 9.93685ZM4.53263 9.3097C4.6469 10.2832 5.05557 11.1667 5.66721 11.8688C5.37633 11.9542 5.06851 12 4.75 12C2.95507 12 1.5 10.5449 1.5 8.75C1.5 7.87214 1.84805 7.07557 2.41369 6.49076C2.73459 7.67982 3.50558 8.68415 4.53263 9.3097ZM4.66369 7.50924C4.18509 7.01442 3.86227 6.36801 3.77425 5.64902C4.08226 5.5522 4.41003 5.5 4.75 5.5C5.06851 5.5 5.37633 5.54582 5.66721 5.63123C5.20169 6.16555 4.85375 6.80499 4.66369 7.50924Z" fill="black"/>
</g>
<defs>
<clipPath id="clip0_1068_186199">
<rect width="14" height="14" fill="white"/>
</clipPath>
</defs>
</svg>
