<svg width="14" height="14" viewBox="0 0 14 14" fill="none" xmlns="http://www.w3.org/2000/svg">
<g clip-path="url(#clip0_1068_186277)">
<path fill-rule="evenodd" clip-rule="evenodd" d="M1.5 0H4.5C4.89782 0 5.27936 0.158035 5.56066 0.43934C5.84196 0.720644 6 1.10217 6 1.5V3.37451H0V1.5C0 1.10218 0.158035 0.720644 0.43934 0.43934C0.720644 0.158035 1.10218 0 1.5 0ZM0 4.62451V7.875H6V4.62451H0ZM0 11V9.125H6V11C6 11.7956 5.68393 12.5587 5.12132 13.1213C4.55871 13.6839 3.79565 14 3 14C2.60603 14 2.21593 13.9224 1.85195 13.7716C1.48797 13.6209 1.15726 13.3999 0.87868 13.1213C0.31607 12.5587 0 11.7956 0 11ZM7.25 10.9925L12.3388 5.90366C12.6201 5.62236 12.7782 5.24082 12.7782 4.843C12.7782 4.44518 12.6201 4.06364 12.3388 3.78234L10.2175 1.66102C9.93621 1.37971 9.55468 1.22168 9.15686 1.22168C8.75903 1.22168 8.3775 1.37971 8.09619 1.66102L7.25 2.50721V10.9925ZM6.0105 14H12.5C12.8978 14 13.2793 13.842 13.5606 13.5607C13.842 13.2794 14 12.8978 14 12.5V9.5C14 9.10218 13.842 8.72064 13.5606 8.43934C13.2793 8.15804 12.8978 8 12.5 8H12.0105L6.0105 14Z" fill="black"/>
</g>
<defs>
<clipPath id="clip0_1068_186277">
<rect width="14" height="14" fill="white"/>
</clipPath>
</defs>
</svg>
