<svg width="14" height="14" viewBox="0 0 14 14" fill="none" xmlns="http://www.w3.org/2000/svg">
<g clip-path="url(#clip0_1068_186202)">
<path fill-rule="evenodd" clip-rule="evenodd" d="M12.7786 1.22145C11.1798 -0.388969 8.50853 -0.388595 6.91019 1.22257L6.09671 2.03605L5.03033 0.969669C4.73744 0.676776 4.26256 0.676776 3.96967 0.969669C3.67678 1.26256 3.67678 1.73744 3.96967 2.03033L11.9697 10.0303C12.2626 10.3232 12.7374 10.3232 13.0303 10.0303C13.3232 9.73744 13.3232 9.26256 13.0303 8.96967L11.964 7.90336L12.7775 7.08986C14.3887 5.49153 14.389 2.82027 12.7786 1.22145ZM1.58216 10.1556L0.328922 11.4088C0.118249 11.6208 0 11.9074 0 12.2063C0 12.5051 0.118249 12.7918 0.328922 13.0037L0.996282 13.6711C1.20821 13.8817 1.4949 14 1.79372 14C2.09255 14 2.37923 13.8817 2.59116 13.6711L3.8444 12.4178C5.14736 13.1097 6.79492 12.8623 7.83725 11.8183L9.93216 9.72344L4.27656 4.06787L2.18165 6.16278C1.13764 7.2051 0.890274 8.85266 1.58216 10.1556Z" fill="black"/>
</g>
<defs>
<clipPath id="clip0_1068_186202">
<rect width="14" height="14" fill="white"/>
</clipPath>
</defs>
</svg>
