<svg width="14" height="14" viewBox="0 0 14 14" fill="none" xmlns="http://www.w3.org/2000/svg">
<path fill-rule="evenodd" clip-rule="evenodd" d="M7.66097 0.643017C7.50444 0.3389 7.21072 0.119693 6.853 0.119629C6.49527 0.119565 6.20147 0.338684 6.04485 0.64278L1.63807 9.19936C1.87429 9.05967 2.13279 8.93391 2.40672 8.82169C3.57589 8.34274 5.14794 8.06091 6.85223 8.06091C8.55653 8.06091 10.1286 8.34274 11.2978 8.82169C11.5709 8.93359 11.8287 9.05896 12.0644 9.19818L7.66097 0.643017ZM1.52539 11.1241C1.52539 11.0091 1.57966 10.8403 1.80294 10.624C2.02808 10.4059 2.38656 10.1808 2.88057 9.9784C3.86554 9.5749 5.26942 9.31091 6.85223 9.31091C8.43505 9.31091 9.83892 9.5749 10.8239 9.9784C11.3179 10.1808 11.6764 10.4059 11.9016 10.624C12.1248 10.8403 12.1791 11.0091 12.1791 11.1241C12.1791 11.2391 12.1248 11.408 11.9016 11.6242C11.6764 11.8423 11.3179 12.0674 10.8239 12.2698C9.83892 12.6733 8.43505 12.9373 6.85223 12.9373C5.26942 12.9373 3.86554 12.6733 2.88057 12.2698C2.38656 12.0674 2.02808 11.8423 1.80294 11.6242C1.57966 11.408 1.52539 11.2391 1.52539 11.1241Z" fill="black"/>
</svg>
