<svg width="14" height="14" viewBox="0 0 14 14" fill="none" xmlns="http://www.w3.org/2000/svg">
<path fill-rule="evenodd" clip-rule="evenodd" d="M1.43934 0.43934C1.72064 0.158035 2.10218 0 2.5 0H8.5C8.63261 0 8.75979 0.0526784 8.85355 0.146447L12.8536 4.14645C12.9473 4.24021 13 4.36739 13 4.5V12.5C13 12.8978 12.842 13.2794 12.5607 13.5607C12.2794 13.842 11.8978 14 11.5 14H2.5C2.10217 14 1.72064 13.842 1.43934 13.5607C1.15804 13.2794 1 12.8978 1 12.5V1.5C1 1.10218 1.15804 0.720644 1.43934 0.43934ZM6.0758 3.36709C6.15553 3.70541 6.18509 4.15568 6.1845 4.64157C6.87275 5.74121 7.99955 7.11147 8.94068 7.97163C9.37587 7.94242 9.79843 7.95233 10.1307 8.04191C10.3267 8.09474 10.5961 8.20227 10.7776 8.44897C10.9926 8.74125 10.9805 9.07719 10.877 9.34462C10.7727 9.61437 10.5618 9.84362 10.2448 9.92894C9.97075 10.0027 9.70813 9.9428 9.51655 9.87285C9.2001 9.75731 8.86122 9.53284 8.53202 9.26847C7.5209 9.40005 6.26438 9.72525 5.34428 10.0948C5.2136 10.4593 5.05526 10.7994 4.85925 11.0433C4.73702 11.1954 4.54256 11.3831 4.26188 11.4517C3.93928 11.5306 3.65076 11.4194 3.44326 11.2454C3.23778 11.0732 3.06438 10.8049 3.08961 10.4599C3.11175 10.157 3.28039 9.92976 3.41842 9.7866C3.64086 9.55588 3.96914 9.35409 4.32287 9.18045C4.65448 7.99775 4.89092 6.27615 4.92908 4.97998C4.70653 4.5954 4.52436 4.21921 4.42955 3.89229C4.37692 3.71081 4.33434 3.48931 4.36382 3.26716C4.39676 3.01883 4.5301 2.73565 4.83918 2.58296C4.97423 2.51625 5.15279 2.47115 5.35196 2.51056C5.54955 2.54965 5.69417 2.65745 5.78965 2.76258C5.95923 2.94928 6.03469 3.19265 6.0758 3.36709ZM6.05838 6.6341C6.47581 7.17578 6.93523 7.71615 7.39019 8.19605C6.83968 8.30974 6.27197 8.45787 5.74214 8.62667C5.87483 7.9947 5.9825 7.30548 6.05838 6.6341Z" fill="black"/>
</svg>
