<svg width="14" height="14" viewBox="0 0 14 14" fill="none" xmlns="http://www.w3.org/2000/svg">
<g clip-path="url(#clip0_1068_186182)">
<path fill-rule="evenodd" clip-rule="evenodd" d="M1.42417 0.269439C1.56667 0.0986972 1.77759 0 1.99998 0H6.99999C7.22238 0 7.4333 0.0986972 7.5758 0.269439C7.7183 0.440182 7.77767 0.665359 7.73789 0.884164L7.71407 1.01516C8.4411 1.11905 9 1.74425 9 2.5V3.25H7.25C5.59315 3.25 4.25 4.59315 4.25 6.25V11H1.5C0.671573 11 0 10.3284 0 9.5V2.5C0 1.74426 0.55889 1.11906 1.2859 1.01516L1.26208 0.884164C1.2223 0.665359 1.28167 0.440182 1.42417 0.269439ZM2.89864 1.5L3.01395 2.13416C3.07879 2.49078 3.38938 2.75 3.75185 2.75H5.24812C5.61059 2.75 5.92118 2.49078 5.98602 2.13416L6.10133 1.5H2.89864Z" fill="black"/>
<path fill-rule="evenodd" clip-rule="evenodd" d="M7.25 4.5C6.2835 4.5 5.5 5.2835 5.5 6.25V12.25C5.5 13.2165 6.2835 14 7.25 14H12.25C13.2165 14 14 13.2165 14 12.25V6.25C14 5.2835 13.2165 4.5 12.25 4.5H7.25ZM7.875 8C7.875 7.65482 8.15482 7.375 8.5 7.375H11C11.3452 7.375 11.625 7.65482 11.625 8C11.625 8.34518 11.3452 8.625 11 8.625H8.5C8.15482 8.625 7.875 8.34518 7.875 8ZM8.5 9.875C8.15482 9.875 7.875 10.1548 7.875 10.5C7.875 10.8452 8.15482 11.125 8.5 11.125H11C11.3452 11.125 11.625 10.8452 11.625 10.5C11.625 10.1548 11.3452 9.875 11 9.875H8.5Z" fill="black"/>
</g>
<defs>
<clipPath id="clip0_1068_186182">
<rect width="14" height="14" fill="white"/>
</clipPath>
</defs>
</svg>
