<svg width="14" height="14" viewBox="0 0 14 14" fill="none" xmlns="http://www.w3.org/2000/svg">
<g clip-path="url(#clip0_1068_186220)">
<path fill-rule="evenodd" clip-rule="evenodd" d="M4.5 1C4.5 0.447715 4.05228 0 3.5 0C2.94772 0 2.5 0.447715 2.5 1V2.5H1C0.447715 2.5 0 2.94772 0 3.5C0 4.05228 0.447715 4.5 1 4.5H2.5V9C2.5 10.3807 3.61929 11.5 5 11.5H9.5V13C9.5 13.5523 9.94771 14 10.5 14C11.0523 14 11.5 13.5523 11.5 13V11.5H13C13.5523 11.5 14 11.0523 14 10.5C14 9.94771 13.5523 9.5 13 9.5H10.5H5C4.72386 9.5 4.5 9.27614 4.5 9V3.5V1ZM6 3.5C6 2.94772 6.44772 2.5 7 2.5H9C10.3807 2.5 11.5 3.61929 11.5 5V7C11.5 7.55228 11.0523 8 10.5 8C9.94772 8 9.5 7.55228 9.5 7V5C9.5 4.72386 9.27614 4.5 9 4.5H7C6.44772 4.5 6 4.05228 6 3.5Z" fill="black"/>
</g>
<defs>
<clipPath id="clip0_1068_186220">
<rect width="14" height="14" fill="white"/>
</clipPath>
</defs>
</svg>
