<svg width="14" height="14" viewBox="0 0 14 14" fill="none" xmlns="http://www.w3.org/2000/svg">
<path fill-rule="evenodd" clip-rule="evenodd" d="M7.40962 1.71327C7.31605 1.57961 7.16316 1.5 7 1.5C6.83684 1.5 6.68395 1.57961 6.59038 1.71327L3.43215 6.22504L0.853553 3.64645C0.710554 3.50345 0.495495 3.46067 0.308658 3.53806C0.121821 3.61545 0 3.79777 0 4V10.5C0 11.0304 0.210714 11.5391 0.585786 11.9142C0.960859 12.2893 1.46957 12.5 2 12.5H12C12.5304 12.5 13.0391 12.2893 13.4142 11.9142C13.7893 11.5391 14 11.0304 14 10.5V4C14 3.79777 13.8782 3.61545 13.6913 3.53806C13.5045 3.46067 13.2894 3.50345 13.1464 3.64645L10.5679 6.22504L7.40962 1.71327Z" fill="black"/>
</svg>
