<svg width="14" height="14" viewBox="0 0 14 14" fill="none" xmlns="http://www.w3.org/2000/svg">
<g clip-path="url(#clip0_1068_186223)">
<path fill-rule="evenodd" clip-rule="evenodd" d="M6.98656 1.50051C6.56826 1.49301 6.15261 1.56812 5.76339 1.72154C5.37418 1.87496 5.01907 2.10367 4.7184 2.39457C4.41773 2.68547 4.17741 3.03283 4.01122 3.41677C3.84574 3.79906 3.757 4.21012 3.75 4.6266V5V7.25063V9C3.75 9.55228 3.30228 10 2.75 10H1.5C0.671573 10 0 9.32843 0 8.5V6.5C0 5.67157 0.671573 5 1.5 5H2.25V4.62063V4.6093C2.2593 3.99368 2.39007 3.38593 2.63465 2.8209C2.87923 2.25587 3.23291 1.74465 3.6754 1.31654C4.11789 0.888422 4.64052 0.551829 5.21332 0.326043C5.78195 0.101901 6.38894 -0.00866919 7 0.000530311C7.61106 -0.00866919 8.21805 0.101901 8.78668 0.326043C9.35948 0.551829 9.88211 0.888422 10.3246 1.31654C10.7671 1.74465 11.1208 2.25587 11.3653 2.8209C11.6099 3.38593 11.7406 3.99368 11.7499 4.6093L11.7501 4.62063L11.75 5H12.5C13.3284 5 14 5.67157 14 6.5V8.5C14 9.32843 13.3284 10 12.5 10H11.75V10.5C11.75 11.2293 11.4603 11.9288 10.9445 12.4445C10.5022 12.8868 9.92479 13.1629 9.30926 13.2326C9.05247 13.6905 8.56238 14 8 14H6.5C5.67157 14 5 13.3284 5 12.5C5 11.6716 5.67157 11 6.5 11H8C8.54196 11 9.01679 11.2874 9.28038 11.7182C9.50711 11.666 9.71673 11.551 9.88388 11.3839C10.1183 11.1495 10.25 10.8315 10.25 10.5V4.62661C10.243 4.21013 10.1543 3.79906 9.98878 3.41677C9.82259 3.03283 9.58227 2.68547 9.2816 2.39457C8.98093 2.10367 8.62582 1.87496 8.23661 1.72154C7.84739 1.56812 7.43174 1.49301 7.01344 1.50051C7.00448 1.50067 6.99552 1.50067 6.98656 1.50051Z" fill="black"/>
</g>
<defs>
<clipPath id="clip0_1068_186223">
<rect width="14" height="14" fill="white"/>
</clipPath>
</defs>
</svg>
