<svg width="14" height="14" viewBox="0 0 14 14" fill="none" xmlns="http://www.w3.org/2000/svg">
<g clip-path="url(#clip0_1068_186226)">
<path fill-rule="evenodd" clip-rule="evenodd" d="M3 0C1.34315 0 0 1.34315 0 3C0 4.2215 0.730026 5.27248 1.77758 5.74047L3.89248 7L1.77758 8.25953C0.730027 8.72751 0 9.7785 0 11C0 12.6569 1.34315 14 3 14C4.65685 14 6 12.6569 6 11C6 9.88349 5.39007 8.90943 4.48522 8.39285L5.35823 7.87293L6.65359 8.64438C7.00947 8.85633 7.46979 8.73964 7.68173 8.38376C7.89368 8.02788 7.77699 7.56756 7.42111 7.35562L6.82399 7L13.6338 2.94443C13.9896 2.73248 14.1063 2.27217 13.8944 1.91629C13.6824 1.56041 13.2221 1.44372 12.8662 1.65567L5.35823 6.12707L4.48522 5.60715C5.39007 5.09057 6 4.11651 6 3C6 1.34315 4.65685 0 3 0ZM2.4544 4.39769C2.62349 4.46374 2.80751 4.5 3 4.5C3.82843 4.5 4.5 3.82843 4.5 3C4.5 2.17157 3.82843 1.5 3 1.5C2.17157 1.5 1.5 2.17157 1.5 3C1.5 3.54458 1.79021 4.02138 2.22441 4.28418C2.27899 4.30134 2.33246 4.32507 2.38376 4.35562L2.4544 4.39769ZM1.5 11C1.5 10.4554 1.79021 9.97862 2.22441 9.71582C2.27899 9.69866 2.33246 9.67493 2.38376 9.64438L2.45439 9.60232C2.62349 9.53626 2.80751 9.5 3 9.5C3.82843 9.5 4.5 10.1716 4.5 11C4.5 11.8284 3.82843 12.5 3 12.5C2.17157 12.5 1.5 11.8284 1.5 11ZM7.5 9.75C7.08579 9.75 6.75 10.0858 6.75 10.5C6.75 10.9142 7.08579 11.25 7.5 11.25H9C9.41421 11.25 9.75 10.9142 9.75 10.5C9.75 10.0858 9.41421 9.75 9 9.75H7.5ZM11 10.5C11 10.0858 11.3358 9.75 11.75 9.75H13.25C13.6642 9.75 14 10.0858 14 10.5C14 10.9142 13.6642 11.25 13.25 11.25H11.75C11.3358 11.25 11 10.9142 11 10.5Z" fill="black"/>
</g>
<defs>
<clipPath id="clip0_1068_186226">
<rect width="14" height="14" fill="white"/>
</clipPath>
</defs>
</svg>
