<svg width="14" height="14" viewBox="0 0 14 14" fill="none" xmlns="http://www.w3.org/2000/svg">
<g clip-path="url(#clip0_1068_186235)">
<path fill-rule="evenodd" clip-rule="evenodd" d="M1 0C0.447715 0 0 0.447715 0 1V7C0 7.55229 0.447715 8 1 8H5C5.55229 8 6 7.55229 6 7V1C6 0.447715 5.55229 0 5 0H1ZM8 1C8 0.447715 8.44771 0 9 0H13C13.5523 0 14 0.447715 14 1V3.01C14 3.56228 13.5523 4.01 13 4.01H9C8.44771 4.01 8 3.56228 8 3.01V1ZM8 7C8 6.44772 8.44771 6 9 6H13C13.5523 6 14 6.44772 14 7V13C14 13.5523 13.5523 14 13 14H9C8.44772 14 8 13.5523 8 13V7ZM0 10.99C0 10.4377 0.447715 9.98999 1 9.98999H5C5.55229 9.98999 6 10.4377 6 10.99V13C6 13.5523 5.55229 14 5 14H1C0.447715 14 0 13.5523 0 13V10.99Z" fill="black"/>
</g>
<defs>
<clipPath id="clip0_1068_186235">
<rect width="14" height="14" fill="white"/>
</clipPath>
</defs>
</svg>
