<svg width="14" height="14" viewBox="0 0 14 14" fill="none" xmlns="http://www.w3.org/2000/svg">
<g clip-path="url(#clip0_1068_186247)">
<path fill-rule="evenodd" clip-rule="evenodd" d="M11.0784 2.84375H10.4221C10.0511 2.84375 9.75025 2.54294 9.75025 2.17188C9.75025 1.80081 10.0511 1.50001 10.4221 1.50001L11.0783 1.5C11.4478 1.5 11.7476 1.79819 11.7502 2.16702V2.17672C11.7476 2.54556 11.4478 2.84374 11.0784 2.84375ZM11.0783 0C12.1888 -8.77481e-06 13.1047 0.833409 13.2345 1.90889C13.2448 1.95847 13.2502 2.00985 13.2502 2.06249V2.16314V2.17188V2.1806V4.68749C13.2502 5.82658 12.3268 6.74999 11.1877 6.74999H10.3127C9.41352 6.74999 8.65055 6.17498 8.36777 5.37492C8.22974 4.98439 8.43443 4.55589 8.82497 4.41786C9.21551 4.27982 9.644 4.48452 9.78204 4.87506C9.85961 5.09454 10.069 5.24999 10.3127 5.24999H11.1877C11.4984 5.24999 11.7502 4.99815 11.7502 4.68749V4.23783C11.5386 4.30658 11.3128 4.34374 11.0784 4.34375H10.4221C9.22263 4.34375 8.25024 3.37137 8.25025 2.17187C8.25025 0.972389 9.22262 1.46881e-05 10.4221 5.07519e-06L11.0783 0ZM11.9168 8.24999C11.9168 7.83578 11.581 7.49999 11.1668 7.49999C10.7526 7.49999 10.4168 7.83578 10.4168 8.24999C10.4168 8.52613 10.1929 8.74999 9.91679 8.74999H9.50012C9.08591 8.74999 8.75012 9.08578 8.75012 9.49999C8.75012 9.9142 9.08591 10.25 9.50012 10.25H9.91679C10.0894 10.25 10.257 10.2281 10.4168 10.187V12.5H9.50012C9.08591 12.5 8.75012 12.8358 8.75012 13.25C8.75012 13.6642 9.08591 14 9.50012 14H12.8335C13.2477 14 13.5835 13.6642 13.5835 13.25C13.5835 12.8358 13.2477 12.5 12.8335 12.5H11.9168V8.24999ZM3.75002 0C4.30231 0 4.75002 0.447715 4.75002 1V10H6.25002C6.55337 10 6.82685 10.1827 6.94293 10.463C7.05902 10.7432 6.99485 11.0658 6.78035 11.2803L4.28035 13.7803C3.98746 14.0732 3.51259 14.0732 3.21969 13.7803L0.719692 11.2803C0.505193 11.0658 0.441027 10.7432 0.557112 10.463C0.673198 10.1827 0.946675 10 1.25002 10H2.75002V1C2.75002 0.447715 3.19774 0 3.75002 0Z" fill="black"/>
</g>
<defs>
<clipPath id="clip0_1068_186247">
<rect width="14" height="14" fill="white"/>
</clipPath>
</defs>
</svg>
