<svg width="14" height="14" viewBox="0 0 14 14" fill="none" xmlns="http://www.w3.org/2000/svg">
<g clip-path="url(#clip0_1068_186271)">
<path fill-rule="evenodd" clip-rule="evenodd" d="M1.28033 0.21967C0.987437 -0.0732233 0.512563 -0.0732233 0.21967 0.21967C-0.0732233 0.512563 -0.0732233 0.987437 0.21967 1.28033L12.7197 13.7803C13.0126 14.0732 13.4874 14.0732 13.7803 13.7803C14.0732 13.4874 14.0732 13.0126 13.7803 12.7197L10.5328 9.47217L12.1847 7.94213L12.1942 7.9331C13.7892 6.37605 13.412 4.10771 12.1628 2.85393C11.5272 2.216 10.644 1.81042 9.64346 1.88038C8.77009 1.94144 7.86473 2.36031 7.00001 3.20061C6.1353 2.36031 5.22993 1.94144 4.35657 1.88038C3.91324 1.84938 3.49293 1.91175 3.10699 2.04633L1.28033 0.21967ZM1.80584 7.9331C0.59068 6.74687 0.520242 5.14781 1.10797 3.89904L8.54185 11.3163L8.02009 11.7996C7.73274 12.0666 7.36512 12.2004 6.99956 12.2007C6.63401 12.2004 6.26728 12.0666 5.97993 11.7996L1.80584 7.9331Z" fill="black"/>
</g>
<defs>
<clipPath id="clip0_1068_186271">
<rect width="14" height="14" fill="white"/>
</clipPath>
</defs>
</svg>
