<svg width="14" height="14" viewBox="0 0 14 14" fill="none" xmlns="http://www.w3.org/2000/svg">
<g clip-path="url(#clip0_1068_186241)">
<path fill-rule="evenodd" clip-rule="evenodd" d="M0.297795 1.35846C0.00490166 1.06556 0.00490166 0.590689 0.297795 0.297795C0.590688 0.0049018 1.06557 0.0049018 1.35846 0.297795L3.0795 2.01884C3.21079 1.84741 3.35389 1.68388 3.50825 1.52951C4.43443 0.60333 5.6906 0.0830078 7.00041 0.0830078C8.31023 0.0830078 9.5664 0.60333 10.4925 1.52951C11.4187 2.45569 11.939 3.71185 11.939 5.02167V9.43076C11.939 9.7396 12.0617 10.0358 12.2801 10.2542C12.528 10.502 12.7227 10.5953 12.995 10.5953C13.2711 10.5953 13.495 10.8191 13.495 11.0953C13.495 11.3714 13.2711 11.5953 12.995 11.5953H12.6559L13.703 12.6424C13.9959 12.9353 13.9959 13.4102 13.703 13.7031C13.4102 13.996 12.9353 13.996 12.6424 13.7031L0.297795 1.35846ZM2.0636 4.88668L8.77217 11.5953H1.00586C0.729714 11.5953 0.505857 11.3714 0.505857 11.0953C0.505857 10.8191 0.729714 10.5953 1.00586 10.5953C1.27816 10.5953 1.47283 10.5021 1.72068 10.2542C1.93907 10.0358 2.06176 9.7396 2.06176 9.43076V5.02167C2.06176 4.9766 2.06237 4.9316 2.0636 4.88668ZM5.25134 13.1819C5.25134 12.7677 5.58713 12.4319 6.00134 12.4319H7.99953C8.41375 12.4319 8.74953 12.7677 8.74953 13.1819C8.74953 13.5961 8.41375 13.9319 7.99953 13.9319H6.00134C5.58713 13.9319 5.25134 13.5961 5.25134 13.1819Z" fill="black"/>
</g>
<defs>
<clipPath id="clip0_1068_186241">
<rect width="14" height="14" fill="white"/>
</clipPath>
</defs>
</svg>
