<svg width="14" height="14" viewBox="0 0 14 14" fill="none" xmlns="http://www.w3.org/2000/svg">
<g clip-path="url(#clip0_1068_186259)">
<path fill-rule="evenodd" clip-rule="evenodd" d="M0.25 7C0.25 3.27208 3.27208 0.25 7 0.25C10.7279 0.25 13.75 3.27208 13.75 7C13.75 10.7279 10.7279 13.75 7 13.75C3.27208 13.75 0.25 10.7279 0.25 7ZM4.04358 6.38062C3.6984 6.38062 3.41858 6.66044 3.41858 7.00562C3.41858 7.35079 3.6984 7.63062 4.04358 7.63062H10.0208C10.3659 7.63062 10.6458 7.35079 10.6458 7.00562C10.6458 6.66044 10.3659 6.38062 10.0208 6.38062H4.04358ZM7 5.01099C6.51675 5.01099 6.125 4.61924 6.125 4.13599C6.125 3.65274 6.51675 3.26099 7 3.26099C7.48325 3.26099 7.87501 3.65274 7.87501 4.13599C7.87501 4.61924 7.48325 5.01099 7 5.01099ZM7 10.7502C6.51675 10.7502 6.125 10.3585 6.125 9.87524C6.125 9.392 6.51675 9.00024 7 9.00024C7.48325 9.00024 7.87501 9.392 7.87501 9.87524C7.87501 10.3585 7.48325 10.7502 7 10.7502Z" fill="black"/>
</g>
<defs>
<clipPath id="clip0_1068_186259">
<rect width="14" height="14" fill="white"/>
</clipPath>
</defs>
</svg>
