<svg width="14" height="14" viewBox="0 0 14 14" fill="none" xmlns="http://www.w3.org/2000/svg">
<g clip-path="url(#clip0_1068_186256)">
<path fill-rule="evenodd" clip-rule="evenodd" d="M6.375 0H3.38261C2.83785 0 2.33592 0.295338 2.07137 0.771536L0.347222 3.875H6.375V0ZM0 12.5V5.125H7H14V12.5C14 13.3284 13.3284 14 12.5 14H1.5C0.671573 14 0 13.3284 0 12.5ZM13.6528 3.875H7.625V0H10.6174C11.1621 0 11.6641 0.295338 11.9286 0.771536L13.6528 3.875ZM4.35356 10.3537L6.64646 12.6466C6.84172 12.8418 7.1583 12.8418 7.35356 12.6466L9.64646 10.3537C9.96144 10.0387 9.73836 9.50012 9.2929 9.50012H8.00001V7.50012C8.00001 6.94784 7.5523 6.50012 7.00001 6.50012C6.44773 6.50012 6.00001 6.94784 6.00001 7.50012V9.50012H4.70712C4.26167 9.50012 4.03858 10.0387 4.35356 10.3537Z" fill="black"/>
</g>
<defs>
<clipPath id="clip0_1068_186256">
<rect width="14" height="14" fill="white"/>
</clipPath>
</defs>
</svg>
