<svg width="14" height="14" viewBox="0 0 14 14" fill="none" xmlns="http://www.w3.org/2000/svg">
<g clip-path="url(#clip0_1068_186274)">
<path fill-rule="evenodd" clip-rule="evenodd" d="M9.64542 5.0609L7.35252 7.3538C7.15726 7.54906 6.84068 7.54906 6.64542 7.3538L4.35252 5.0609C4.03754 4.74592 4.26063 4.20735 4.70608 4.20735H5.99897V1.00049C5.99897 0.448204 6.44669 0.000488281 6.99897 0.000488281C7.55126 0.000488281 7.99897 0.448204 7.99897 1.00049V4.20735H9.29186C9.73732 4.20735 9.9604 4.74592 9.64542 5.0609ZM2.06054 2.91016H2.99804C3.55033 2.91016 3.99804 2.46244 3.99804 1.91016C3.99804 1.35787 3.55033 0.910156 2.99804 0.910156H1.51734C0.712776 0.910156 0.0605469 1.56239 0.0605469 2.36695V9.67567C0.0605469 10.4802 0.712776 11.1325 1.51734 11.1325H5.43453L4.94684 12.4951H3.99902C3.58481 12.4951 3.24902 12.8309 3.24902 13.2451C3.24902 13.6593 3.58481 13.9951 3.99902 13.9951H9.99902C10.4132 13.9951 10.749 13.6593 10.749 13.2451C10.749 12.8309 10.4132 12.4951 9.99902 12.4951H9.05111L8.56342 11.1325H12.4804C13.285 11.1325 13.9372 10.4802 13.9372 9.67567V2.36695C13.9372 1.56239 13.285 0.910156 12.4804 0.910156H10.998C10.4457 0.910156 9.99804 1.35787 9.99804 1.91016C9.99804 2.46244 10.4457 2.91016 10.998 2.91016H11.9372V9.13246H2.06054V2.91016Z" fill="black"/>
</g>
<defs>
<clipPath id="clip0_1068_186274">
<rect width="14" height="14" fill="white"/>
</clipPath>
</defs>
</svg>
