<svg width="14" height="14" viewBox="0 0 14 14" fill="none" xmlns="http://www.w3.org/2000/svg">
<path fill-rule="evenodd" clip-rule="evenodd" d="M1.43934 0.43934C1.72064 0.158035 2.10218 0 2.5 0H8.5C8.63261 0 8.75979 0.0526784 8.85355 0.146447L12.8536 4.14645C12.9473 4.24021 13 4.36739 13 4.5V12.5C13 12.8978 12.842 13.2794 12.5607 13.5607C12.2794 13.842 11.8978 14 11.5 14H2.5C2.10217 14 1.72064 13.842 1.43934 13.5607C1.15804 13.2794 1 12.8978 1 12.5V1.5C1 1.10218 1.15804 0.720644 1.43934 0.43934ZM7.18695 10.9419L7.29089 10.838C7.40736 10.762 7.507 10.6623 7.58303 10.5459L9.43695 8.69194C9.6157 8.51319 9.66917 8.24437 9.57244 8.01082C9.4757 7.77728 9.2478 7.625 8.99501 7.625H7.74502V4C7.74502 3.44772 7.2973 3 6.74502 3C6.19273 3 5.74502 3.44772 5.74502 4V7.625H4.49501C4.24222 7.625 4.01432 7.77728 3.91759 8.01082C3.82085 8.24437 3.87432 8.51319 4.05307 8.69194L5.90703 10.5459C5.98304 10.6623 6.08267 10.762 6.19911 10.838L6.30307 10.9419C6.42028 11.0592 6.57925 11.125 6.74501 11.125C6.91077 11.125 7.06974 11.0592 7.18695 10.9419Z" fill="black"/>
</svg>
