<svg width="14" height="14" viewBox="0 0 14 14" fill="none" xmlns="http://www.w3.org/2000/svg">
<g clip-path="url(#clip0_1068_186262)">
<path fill-rule="evenodd" clip-rule="evenodd" d="M7 14C10.866 14 14 10.866 14 7C14 3.13401 10.866 0 7 0C3.13401 0 0 3.13401 0 7C0 10.866 3.13401 14 7 14ZM10.1464 8.31042L7.3535 11.1033C7.15824 11.2986 6.84166 11.2986 6.6464 11.1033L3.8535 8.31042C3.53852 7.99543 3.76161 7.45686 4.20706 7.45686H5.99995V3.75C5.99995 3.19772 6.44767 2.75 6.99995 2.75C7.55224 2.75 7.99995 3.19772 7.99995 3.75V7.45686H9.79284C10.2383 7.45686 10.4614 7.99543 10.1464 8.31042Z" fill="black"/>
</g>
<defs>
<clipPath id="clip0_1068_186262">
<rect width="14" height="14" fill="white"/>
</clipPath>
</defs>
</svg>
