<svg width="14" height="14" viewBox="0 0 14 14" fill="none" xmlns="http://www.w3.org/2000/svg">
<path fill-rule="evenodd" clip-rule="evenodd" d="M5.5 0C4.94772 0 4.5 0.447716 4.5 1V1.5C4.5 2.05229 4.94772 2.5 5.5 2.5H8.5C9.05229 2.5 9.5 2.05229 9.5 1.5V1C9.5 0.447715 9.05229 0 8.5 0H5.5ZM2.75 1H3.25V1.5C3.25 2.74264 4.25736 3.75 5.5 3.75H8.5C9.74264 3.75 10.75 2.74264 10.75 1.5V1H11.25C12.0784 1 12.75 1.67157 12.75 2.5V12.5C12.75 13.3284 12.0784 14 11.25 14H2.75C1.92157 14 1.25 13.3284 1.25 12.5V2.5C1.25 1.67157 1.92157 1 2.75 1Z" fill="black"/>
</svg>
