<svg width="14" height="14" viewBox="0 0 14 14" fill="none" xmlns="http://www.w3.org/2000/svg">
<g clip-path="url(#clip0_1068_186295)">
<path fill-rule="evenodd" clip-rule="evenodd" d="M7 2H2.5C2.22386 2 2 2.22386 2 2.5V11.5C2 11.7761 2.22386 12 2.5 12H11.5C11.7761 12 12 11.7761 12 11.5V7C12 6.44771 12.4477 6 13 6C13.5523 6 14 6.44771 14 7V11.5C14 12.8807 12.8807 14 11.5 14H2.5C1.11929 14 9.07513e-07 12.8807 7.86803e-07 11.5L0 2.5C-1.20706e-07 1.11929 1.11929 1.08236e-06 2.5 9.61653e-07L7 5.68251e-07C7.55228 5.19968e-07 8 0.447716 8 1C8 1.55228 7.55228 2 7 2ZM9.53806 0.308658C9.61545 0.121821 9.79777 3.23662e-07 10 3.05982e-07L13.5 0C13.7761 -2.414e-08 14 0.223857 14 0.499999V4C14 4.20223 13.8782 4.38455 13.6913 4.46194C13.5045 4.53933 13.2894 4.49655 13.1464 4.35355L12.1036 3.31066L7.70711 7.70711C7.31658 8.09763 6.68342 8.09763 6.29289 7.70711C5.90237 7.31658 5.90237 6.68342 6.29289 6.29289L10.6893 1.89645L9.64645 0.853553C9.50345 0.710554 9.46067 0.495495 9.53806 0.308658Z" fill="black"/>
</g>
<defs>
<clipPath id="clip0_1068_186295">
<rect width="14" height="14" fill="white"/>
</clipPath>
</defs>
</svg>
