<svg width="14" height="14" viewBox="0 0 14 14" fill="none" xmlns="http://www.w3.org/2000/svg">
<g clip-path="url(#clip0_1068_186283)">
<path fill-rule="evenodd" clip-rule="evenodd" d="M1.5 1.75C1.5 1.61193 1.61193 1.5 1.75 1.5H2.25C2.66421 1.5 3 1.16421 3 0.75C3 0.335786 2.66421 0 2.25 0H1.75C0.783502 0 0 0.783502 0 1.75V2.25C0 2.66421 0.335786 3 0.75 3C1.16421 3 1.5 2.66421 1.5 2.25V1.75ZM11 0.75C11 0.335786 11.3358 0 11.75 0H12.25C13.2165 0 14 0.783502 14 1.75V2.25C14 2.66421 13.6642 3 13.25 3C12.8358 3 12.5 2.66421 12.5 2.25V1.75C12.5 1.61193 12.3881 1.5 12.25 1.5H11.75C11.3358 1.5 11 1.16421 11 0.75ZM3.49997 4.99951C3.49997 4.17108 4.17154 3.49951 4.99997 3.49951H8.99997C9.8284 3.49951 10.5 4.17108 10.5 4.99951V8.99951C10.5 9.82794 9.8284 10.4995 8.99997 10.4995H4.99997C4.17154 10.4995 3.49997 9.82794 3.49997 8.99951V4.99951ZM13.25 11C13.6642 11 14 11.3358 14 11.75V12.25C14 13.2165 13.2165 14 12.25 14H11.75C11.3358 14 11 13.6642 11 13.25C11 12.8358 11.3358 12.5 11.75 12.5H12.25C12.3881 12.5 12.5 12.3881 12.5 12.25V11.75C12.5 11.3358 12.8358 11 13.25 11ZM1.50012 11.75C1.50012 11.3358 1.16434 11 0.750122 11C0.335909 11 0.00012207 11.3358 0.00012207 11.75V12.25C0.00012207 13.2165 0.783624 14 1.75012 14H2.25012C2.66434 14 3.00012 13.6642 3.00012 13.25C3.00012 12.8358 2.66434 12.5 2.25012 12.5H1.75012C1.61205 12.5 1.50012 12.3881 1.50012 12.25V11.75ZM5.25 13.25C5.25 12.8358 5.58579 12.5 6 12.5H8C8.41421 12.5 8.75 12.8358 8.75 13.25C8.75 13.6642 8.41421 14 8 14H6C5.58579 14 5.25 13.6642 5.25 13.25ZM6 0C5.58579 0 5.25 0.335786 5.25 0.75C5.25 1.16421 5.58579 1.5 6 1.5H8C8.41421 1.5 8.75 1.16421 8.75 0.75C8.75 0.335786 8.41421 0 8 0H6ZM0.75 5.25C1.16421 5.25 1.5 5.58579 1.5 6V8C1.5 8.41421 1.16421 8.75 0.75 8.75C0.335786 8.75 0 8.41421 0 8V6C0 5.58579 0.335786 5.25 0.75 5.25ZM14 6C14 5.58579 13.6642 5.25 13.25 5.25C12.8358 5.25 12.5 5.58579 12.5 6V8C12.5 8.41421 12.8358 8.75 13.25 8.75C13.6642 8.75 14 8.41421 14 8V6Z" fill="black"/>
</g>
<defs>
<clipPath id="clip0_1068_186283">
<rect width="14" height="14" fill="white"/>
</clipPath>
</defs>
</svg>
