<svg width="14" height="14" viewBox="0 0 14 14" fill="none" xmlns="http://www.w3.org/2000/svg">
<g clip-path="url(#clip0_1068_186280)">
<path fill-rule="evenodd" clip-rule="evenodd" d="M7.00098 0C7.41519 0 7.75098 0.335786 7.75098 0.75V13.25C7.75098 13.6642 7.41519 14 7.00098 14C6.58677 14 6.25098 13.6642 6.25098 13.25V0.75C6.25098 0.335786 6.58677 0 7.00098 0ZM3.67235 3.40818C3.85918 3.48557 3.98101 3.66789 3.98101 3.87012V10.1301C3.98101 10.3323 3.85918 10.5147 3.67235 10.5921C3.48551 10.6694 3.27045 10.6267 3.12745 10.4837L0.260457 7.61668C0.178842 7.53732 0.113781 7.44252 0.0690662 7.33779C0.0234939 7.23105 0 7.11618 0 7.00012C0 6.88405 0.0234939 6.76919 0.0690662 6.66244C0.113781 6.55771 0.178842 6.46292 0.260457 6.38356L3.12745 3.51656C3.27045 3.37356 3.48551 3.33079 3.67235 3.40818ZM10.3297 3.40818C10.5165 3.33079 10.7316 3.37356 10.8746 3.51656L13.7416 6.38356C13.8232 6.46292 13.8882 6.55771 13.933 6.66244C13.9785 6.76919 14.002 6.88405 14.002 7.00012C14.002 7.11618 13.9785 7.23105 13.933 7.33779C13.8882 7.44252 13.8232 7.53732 13.7416 7.61668L10.8746 10.4837C10.7316 10.6267 10.5165 10.6694 10.3297 10.5921C10.1428 10.5147 10.021 10.3323 10.021 10.1301V3.87012C10.021 3.66789 10.1428 3.48557 10.3297 3.40818Z" fill="black"/>
</g>
<defs>
<clipPath id="clip0_1068_186280">
<rect width="14" height="14" fill="white"/>
</clipPath>
</defs>
</svg>
