<svg width="14" height="14" viewBox="0 0 14 14" fill="none" xmlns="http://www.w3.org/2000/svg">
<g clip-path="url(#clip0_1068_186286)">
<path fill-rule="evenodd" clip-rule="evenodd" d="M12.0786 0.078125C12.6309 0.078125 13.0786 0.52584 13.0786 1.07813V8.93738C13.0786 9.48966 12.6309 9.93738 12.0786 9.93738C11.5263 9.93738 11.0786 9.48966 11.0786 8.93738V1.07813C11.0786 0.52584 11.5263 0.078125 12.0786 0.078125ZM5.15407 3.38351C3.66382 3.38351 2.46094 4.5871 2.46094 6.0654V6.07664V12.9689C2.46094 13.5212 2.01322 13.9689 1.46094 13.9689C0.908652 13.9689 0.460938 13.5212 0.460938 12.9689V6.07664V6.0654V2.38351C0.460938 1.83122 0.908652 1.38351 1.46094 1.38351C1.96383 1.38351 2.38001 1.75472 2.45044 2.23808C3.21506 1.69962 4.14794 1.38351 5.15407 1.38351C7.74314 1.38351 9.8472 3.47679 9.8472 6.0654V12.9689C9.8472 13.5212 9.39948 13.9689 8.8472 13.9689C8.29491 13.9689 7.8472 13.5212 7.8472 12.9689V6.0654C7.8472 4.5871 6.64432 3.38351 5.15407 3.38351ZM10.617 12.4611C10.617 11.6539 11.2714 10.9995 12.0786 10.9995C12.8858 10.9995 13.5402 11.6539 13.5402 12.4611C13.5402 13.2684 12.8858 13.9228 12.0786 13.9228C11.2714 13.9228 10.617 13.2684 10.617 12.4611Z" fill="black"/>
</g>
<defs>
<clipPath id="clip0_1068_186286">
<rect width="14" height="14" fill="white"/>
</clipPath>
</defs>
</svg>
