<svg width="14" height="14" viewBox="0 0 14 14" fill="none" xmlns="http://www.w3.org/2000/svg">
<g clip-path="url(#clip0_1068_186292)">
<path fill-rule="evenodd" clip-rule="evenodd" d="M2.25 1.5C1.83579 1.5 1.5 1.83579 1.5 2.25C1.5 2.66421 1.83579 3 2.25 3C2.66421 3 3 2.66421 3 2.25C3 1.83579 2.66421 1.5 2.25 1.5ZM0 2.25C0 1.00736 1.00736 0 2.25 0C3.49264 0 4.5 1.00736 4.5 2.25C4.5 3.49264 3.49264 4.5 2.25 4.5C1.00736 4.5 0 3.49264 0 2.25ZM6.00003 1C6.00003 0.447715 6.44775 0 7.00003 0H13C13.5523 0 14 0.447715 14 1C14 1.55228 13.5523 2 13 2H8.00003V5.5H12C12.5523 5.5 13 5.94772 13 6.5C13 7.05228 12.5523 7.5 12 7.5H8.00003V13C8.00003 13.5523 7.55231 14 7.00003 14C6.44775 14 6.00003 13.5523 6.00003 13V1Z" fill="black"/>
</g>
<defs>
<clipPath id="clip0_1068_186292">
<rect width="14" height="14" fill="white"/>
</clipPath>
</defs>
</svg>
