<svg width="14" height="14" viewBox="0 0 14 14" fill="none" xmlns="http://www.w3.org/2000/svg">
<g clip-path="url(#clip0_1068_186298)">
<path fill-rule="evenodd" clip-rule="evenodd" d="M7 2.75C7.41421 2.75 7.75 3.08579 7.75 3.5V7.07536L9.88587 8.35688C10.2411 8.56999 10.3562 9.03069 10.1431 9.38587C9.93001 9.74106 9.46931 9.85623 9.11413 9.64312L6.61413 8.14312C6.38822 8.00758 6.25 7.76345 6.25 7.5V3.5C6.25 3.08579 6.58579 2.75 7 2.75Z" fill="black"/>
<path fill-rule="evenodd" clip-rule="evenodd" d="M1.5 7C1.5 3.96243 3.96243 1.5 7 1.5C8.75084 1.5 10.3115 2.31796 11.3193 3.59456L10.3536 4.56034C10.0386 4.87533 10.2617 5.4139 10.7071 5.4139H13.5C13.7761 5.4139 14 5.19004 14 4.9139V2.121C14 1.67555 13.4614 1.45247 13.1464 1.76745L12.3856 2.52829C11.1022 0.984301 9.16644 0 7 0C3.13401 0 0 3.13401 0 7C0 10.866 3.13401 14 7 14C10.311 14 13.0834 11.702 13.8127 8.61473C13.9079 8.21161 13.6583 7.80762 13.2552 7.7124C12.8521 7.61717 12.4481 7.86677 12.3528 8.26989C11.7799 10.6955 9.59975 12.5 7 12.5C3.96243 12.5 1.5 10.0376 1.5 7Z" fill="black"/>
</g>
<defs>
<clipPath id="clip0_1068_186298">
<rect width="14" height="14" fill="white"/>
</clipPath>
</defs>
</svg>
