<svg width="14" height="14" viewBox="0 0 14 14" fill="none" xmlns="http://www.w3.org/2000/svg">
<g clip-path="url(#clip0_1068_186308)">
<path fill-rule="evenodd" clip-rule="evenodd" d="M3.5 0C3.10218 0 2.72064 0.158035 2.43934 0.43934C2.15804 0.720644 2 1.10218 2 1.5V8.24951H5.75003C6.8546 8.24951 7.75003 9.14494 7.75003 10.2495C7.75003 11.3541 6.8546 12.2495 5.75003 12.2495H2V12.5C2 12.8978 2.15804 13.2794 2.43934 13.5607C2.72064 13.842 3.10217 14 3.5 14H12.5C12.8978 14 13.2794 13.842 13.5607 13.5607C13.842 13.2794 14 12.8978 14 12.5V4.5C14 4.36739 13.9473 4.24021 13.8536 4.14645L9.85355 0.146447C9.75978 0.0526784 9.63261 0 9.5 0H3.5ZM6.5 10.2495C6.5 9.8353 6.16421 9.49951 5.75 9.49951H0.75C0.335786 9.49951 0 9.8353 0 10.2495C0 10.6637 0.335786 10.9995 0.75 10.9995H5.75C6.16421 10.9995 6.5 10.6637 6.5 10.2495Z" fill="black"/>
</g>
<defs>
<clipPath id="clip0_1068_186308">
<rect width="14" height="14" fill="white"/>
</clipPath>
</defs>
</svg>
