<svg width="14" height="14" viewBox="0 0 14 14" fill="none" xmlns="http://www.w3.org/2000/svg">
<g clip-path="url(#clip0_1068_186305)">
<path fill-rule="evenodd" clip-rule="evenodd" d="M3.5 0C3.10218 0 2.72064 0.158035 2.43934 0.43934C2.15804 0.720644 2 1.10218 2 1.5V6.68868C2.3424 6.41419 2.77704 6.25 3.25003 6.25C4.3546 6.25 5.25003 7.14543 5.25003 8.25V8.75H5.75003C6.8546 8.75 7.75003 9.64543 7.75003 10.75C7.75003 11.8546 6.8546 12.75 5.75003 12.75H5.25003V13.25C5.25003 13.5152 5.1984 13.7684 5.10465 14H12.5C12.8978 14 13.2794 13.842 13.5607 13.5607C13.842 13.2794 14 12.8978 14 12.5V4.5C14 4.36739 13.9473 4.24021 13.8536 4.14645L9.85355 0.146447C9.75978 0.0526784 9.63261 0 9.5 0H3.5ZM4 8.25C4 7.83579 3.66421 7.5 3.25 7.5C2.83579 7.5 2.5 7.83579 2.5 8.25V10H0.75C0.335786 10 0 10.3358 0 10.75C0 11.1642 0.335786 11.5 0.75 11.5H2.5V13.25C2.5 13.6642 2.83579 14 3.25 14C3.66421 14 4 13.6642 4 13.25V11.5H5.75C6.16421 11.5 6.5 11.1642 6.5 10.75C6.5 10.3358 6.16421 10 5.75 10H4V8.25Z" fill="black"/>
</g>
<defs>
<clipPath id="clip0_1068_186305">
<rect width="14" height="14" fill="white"/>
</clipPath>
</defs>
</svg>
