<svg width="14" height="14" viewBox="0 0 14 14" fill="none" xmlns="http://www.w3.org/2000/svg">
<g clip-path="url(#clip0_1068_186302)">
<path fill-rule="evenodd" clip-rule="evenodd" d="M3.5 0C3.10218 0 2.72064 0.158035 2.43934 0.43934C2.15804 0.720644 2 1.10218 2 1.5V7.44851C2.05675 7.49406 2.1116 7.54315 2.16424 7.5958L2.87003 8.30158L3.57582 7.5958C4.35687 6.81475 5.62319 6.81475 6.40424 7.5958C7.18529 8.37684 7.18529 9.64318 6.40424 10.4242L5.69846 11.13L6.40424 11.8358C6.98932 12.4209 7.13612 13.2783 6.84464 14H12.5C12.8978 14 13.2794 13.842 13.5607 13.5607C13.842 13.2794 14 12.8978 14 12.5V4.5C14 4.36739 13.9473 4.24021 13.8536 4.14645L9.85355 0.146447C9.75978 0.0526784 9.63261 0 9.5 0H3.5ZM5.52033 8.47968C5.81322 8.77257 5.81322 9.24745 5.52033 9.54034L3.93066 11.13L5.52033 12.7197C5.81322 13.0126 5.81322 13.4874 5.52033 13.7803C5.22744 14.0732 4.75256 14.0732 4.45967 13.7803L2.87 12.1907L1.28033 13.7803C0.987437 14.0732 0.512563 14.0732 0.21967 13.7803C-0.0732233 13.4874 -0.0732233 13.0126 0.21967 12.7197L1.80934 11.13L0.21967 9.54034C-0.0732233 9.24745 -0.0732233 8.77257 0.21967 8.47968C0.512563 8.18679 0.987437 8.18679 1.28033 8.47968L2.87 10.0693L4.45967 8.47968C4.75256 8.18679 5.22744 8.18679 5.52033 8.47968Z" fill="black"/>
</g>
<defs>
<clipPath id="clip0_1068_186302">
<rect width="14" height="14" fill="white"/>
</clipPath>
</defs>
</svg>
