<svg width="14" height="14" viewBox="0 0 14 14" fill="none" xmlns="http://www.w3.org/2000/svg">
<g clip-path="url(#clip0_1068_186314)">
<path fill-rule="evenodd" clip-rule="evenodd" d="M1.75 6.75C1.75 3.8505 4.10051 1.5 7 1.5C9.8995 1.5 12.25 3.85051 12.25 6.75V8.75C12.25 9.16421 12.5858 9.5 13 9.5C13.4142 9.5 13.75 9.16421 13.75 8.75V6.75C13.75 3.02208 10.7279 0 7 0C3.27208 0 0.25 3.02208 0.25 6.75V13.25C0.25 13.6642 0.585786 14 1 14C1.41421 14 1.75 13.6642 1.75 13.25V6.75ZM4.75 11.75C4.75 11.3358 4.41421 11 4 11C3.58579 11 3.25 11.3358 3.25 11.75V13.25C3.25 13.6642 3.58579 14 4 14C4.41421 14 4.75 13.6642 4.75 13.25V11.75ZM7 5C5.75736 5 4.75 6.00736 4.75 7.25V8.75C4.75 9.16421 4.41421 9.5 4 9.5C3.58579 9.5 3.25 9.16421 3.25 8.75V7.25C3.25 5.17893 4.92893 3.5 7 3.5C9.07107 3.5 10.75 5.17893 10.75 7.25V13.25C10.75 13.6642 10.4142 14 10 14C9.58579 14 9.25 13.6642 9.25 13.25V7.25C9.25 6.00736 8.24264 5 7 5ZM13.75 11.75C13.75 11.3358 13.4142 11 13 11C12.5858 11 12.25 11.3358 12.25 11.75V13.25C12.25 13.6642 12.5858 14 13 14C13.4142 14 13.75 13.6642 13.75 13.25V11.75ZM7 11.5C7.41421 11.5 7.75 11.8358 7.75 12.25V13.25C7.75 13.6642 7.41421 14 7 14C6.58579 14 6.25 13.6642 6.25 13.25V12.25C6.25 11.8358 6.58579 11.5 7 11.5ZM7.75 7.75C7.75 7.33579 7.41421 7 7 7C6.58579 7 6.25 7.33579 6.25 7.75V9.25C6.25 9.66421 6.58579 10 7 10C7.41421 10 7.75 9.66421 7.75 9.25V7.75Z" fill="black"/>
</g>
<defs>
<clipPath id="clip0_1068_186314">
<rect width="14" height="14" fill="white"/>
</clipPath>
</defs>
</svg>
