<svg width="14" height="14" viewBox="0 0 14 14" fill="none" xmlns="http://www.w3.org/2000/svg">
<g clip-path="url(#clip0_1068_186317)">
<path fill-rule="evenodd" clip-rule="evenodd" d="M5.54009 0.192192C6.79841 -0.144958 8.12846 -0.0347868 9.30661 0.493239C9.6846 0.662645 9.85369 1.10639 9.68429 1.48438C9.51488 1.86237 9.07113 2.03146 8.69314 1.86205C7.82831 1.47446 6.85196 1.3936 5.92831 1.64109C4.86762 1.92528 3.96327 2.61918 3.41418 3.57014C3.21508 3.91401 3.06732 4.28583 2.97631 4.67203C2.88131 5.0752 2.47745 5.32501 2.07428 5.23001C1.67111 5.135 1.4213 4.73115 1.5163 4.32798C1.64096 3.79898 1.84271 3.29077 2.11538 2.81974C2.8634 1.52445 4.09527 0.579308 5.54009 0.192192ZM11.6133 2.39514C11.375 2.05636 10.9072 1.97492 10.5684 2.21324C10.2296 2.45156 10.1482 2.9194 10.3865 3.25818C10.8749 3.95254 11.1405 4.78399 11.1404 5.64063V8.35979C11.1404 8.90353 11.0333 9.44195 10.8252 9.9443C10.6171 10.4466 10.3122 10.9031 9.92766 11.2876C9.54317 11.6721 9.08673 11.977 8.58438 12.1851C8.08203 12.3932 7.54361 12.5003 6.99988 12.5003C6.58567 12.5003 6.24988 12.8361 6.24988 13.2503C6.24988 13.6645 6.58567 14.0003 6.99988 14.0003C7.74059 14.0003 8.47407 13.8544 9.15841 13.5709C9.84274 13.2875 10.4646 12.872 10.9883 12.3482C11.5121 11.8245 11.9276 11.2027 12.211 10.5183C12.4945 9.83398 12.6404 9.10052 12.6404 8.35979V5.64071C12.6405 4.4737 12.2787 3.34104 11.6133 2.39514ZM2.85938 6.72608C2.85938 6.31186 2.52359 5.97608 2.10938 5.97608C1.69516 5.97608 1.35938 6.31186 1.35938 6.72608V8.35925C1.35905 9.46954 1.68641 10.5555 2.30043 11.4805C2.77028 12.1884 3.39198 12.7781 4.11648 13.209C4.47248 13.4207 4.93273 13.3038 5.14448 12.9478C5.35622 12.5918 5.23928 12.1315 4.88328 11.9198C4.35143 11.6035 3.89507 11.1706 3.55018 10.651C3.0994 9.9719 2.8591 9.17485 2.85938 8.35976V6.72608ZM6.84761 4.29114C7.03231 4.27563 7.21876 4.2903 7.39957 4.33501C7.64728 4.39626 7.87808 4.51233 8.07495 4.67465C8.27183 4.83698 8.42978 5.04143 8.53712 5.27292C8.64446 5.50442 8.69847 5.75705 8.69518 6.0122L8.69512 6.02188V7C8.69512 7.41422 9.0309 7.75 9.44512 7.75C9.85933 7.75 10.1951 7.41422 10.1951 7V6.02641C10.2005 5.54854 10.099 5.0755 9.89793 4.64191C9.69615 4.20676 9.39927 3.82245 9.02919 3.51731C8.65911 3.21218 8.22526 2.994 7.75961 2.87886C7.41973 2.79482 7.06925 2.76725 6.72208 2.7964C6.30933 2.83106 6.00282 3.19377 6.03748 3.60653C6.07214 4.01929 6.43485 4.3258 6.84761 4.29114ZM5.04255 4.35276C5.42401 4.51419 5.60238 4.95429 5.44096 5.33575C5.34971 5.55136 5.30333 5.78329 5.30462 6.01741L5.30465 6.02156L5.30463 7.97776V7.98974C5.29912 8.33507 5.39912 8.67384 5.59142 8.96072C5.78372 9.2476 6.05907 9.4689 6.3806 9.59501C6.70213 9.72111 7.05449 9.746 7.39055 9.66634C7.72661 9.58669 8.03033 9.40629 8.26105 9.14929C8.53777 8.84106 9.01196 8.81551 9.32018 9.09222C9.62841 9.36893 9.65395 9.84312 9.37724 10.1513C8.94238 10.6357 8.36993 10.9758 7.73652 11.1259C7.1031 11.276 6.43894 11.2291 5.83291 10.9914C5.22689 10.7538 4.70792 10.3366 4.34546 9.79593C3.98418 9.25697 3.79558 8.62085 3.80463 7.97218V6.0235C3.80252 5.5865 3.88924 5.15363 4.05956 4.75117C4.22098 4.36971 4.66108 4.19133 5.04255 4.35276ZM7.74988 6.1294C7.74988 5.71518 7.41408 5.3794 6.99988 5.3794C6.58567 5.3794 6.24988 5.71518 6.24988 6.1294V7.76283C6.24988 8.17704 6.58567 8.51283 6.99988 8.51283C7.41408 8.51283 7.74988 8.17704 7.74988 7.76283V6.1294Z" fill="black"/>
</g>
<defs>
<clipPath id="clip0_1068_186317">
<rect width="14" height="14" fill="white"/>
</clipPath>
</defs>
</svg>
