<svg width="14" height="14" viewBox="0 0 14 14" fill="none" xmlns="http://www.w3.org/2000/svg">
<g clip-path="url(#clip0_1068_186320)">
<path fill-rule="evenodd" clip-rule="evenodd" d="M4.87896 3.66699H2.13885V2.37006C2.13885 1.6134 2.75225 1 3.50891 1C4.26442 1 4.87709 1.61152 4.87896 2.36659V3.66699ZM8.36356 4.8385C8.05041 4.14764 7.3549 3.66699 6.5468 3.66699H5.87897V2.37006L5.87896 2.3655V1.37006C5.87896 0.613396 6.49236 0 7.24902 0C8.00568 0 8.61908 0.613396 8.61908 1.37006V4.04146C8.61908 4.33851 8.52449 4.61378 8.36356 4.8385ZM6.61174 4.91979C6.99206 4.95268 7.29051 5.27182 7.29051 5.66099C7.29051 5.98871 7.07607 6.27784 6.76244 6.37296L4.65472 7.01218C4.35829 7.10209 4.17243 7.39556 4.21787 7.70197C4.26332 8.00838 4.52635 8.23528 4.83611 8.23528C5.19288 8.23528 5.64824 8.41335 6.01631 8.74903C6.37806 9.07895 6.59337 9.5028 6.58391 9.94431C6.57651 10.2894 6.85027 10.5752 7.19537 10.5826C7.54047 10.5899 7.82622 10.3162 7.83362 9.97109C7.85255 9.08792 7.42071 8.33806 6.85862 7.82544C6.80972 7.78085 6.75936 7.73759 6.70767 7.69579L7.12523 7.56915C7.83772 7.35307 8.35924 6.76335 8.50159 6.05372C8.73868 5.90584 8.9478 5.7172 9.11911 5.49755C9.55282 6.0538 10.2293 6.41152 10.9893 6.41152C11.8164 6.41152 12.5445 5.98784 12.9685 5.34566C13.0153 5.57658 13.0391 5.81235 13.0391 6.04951V7.08375C13.0391 9.89018 10.7004 10.8257 10.7004 10.8257V13.5C10.7004 13.7761 10.4766 14 10.2004 14L3.79379 13.9997C3.51766 13.9997 3.29381 13.7758 3.29381 13.4997V11.0697C1.89466 10.5841 0.955016 8.64777 0.955078 7.32775C0.955131 6.18681 1.21162 4.99454 2.47844 4.99454L6.61174 4.91979ZM10.9893 1.06641C10.2326 1.06641 9.6192 1.6798 9.6192 2.43646V4.04146C9.6192 4.79812 10.2326 5.41152 10.9893 5.41152C11.7459 5.41152 12.3593 4.79812 12.3593 4.04146V2.43646C12.3593 1.6798 11.7459 1.06641 10.9893 1.06641Z" fill="black"/>
</g>
<defs>
<clipPath id="clip0_1068_186320">
<rect width="14" height="14" fill="white"/>
</clipPath>
</defs>
</svg>
