<svg width="14" height="14" viewBox="0 0 14 14" fill="none" xmlns="http://www.w3.org/2000/svg">
<g clip-path="url(#clip0_1068_186323)">
<path fill-rule="evenodd" clip-rule="evenodd" d="M0 10.5C0 12.433 1.567 14 3.5 14H10.5C12.433 14 14 12.433 14 10.5V3.5C14 1.567 12.433 0 10.5 0H3.5C1.567 0 0 1.567 0 3.5V10.5ZM6.25 6V8H5C4.79777 8 4.61545 8.12182 4.53806 8.30866C4.46067 8.49549 4.50345 8.71055 4.64645 8.85355L6.64645 10.8536C6.74021 10.9473 6.86739 11 7 11C7.13261 11 7.25979 10.9473 7.35355 10.8536L9.35355 8.85355C9.49655 8.71055 9.53933 8.49549 9.46194 8.30866C9.38455 8.12182 9.20223 8 9 8H7.75V6H9C9.20223 6 9.38455 5.87818 9.46194 5.69134C9.53933 5.5045 9.49655 5.28945 9.35355 5.14645L7.35355 3.14645C7.25979 3.05268 7.13261 3 7 3C6.86739 3 6.74021 3.05268 6.64645 3.14645L4.64645 5.14645C4.50345 5.28945 4.46067 5.50451 4.53806 5.69134C4.61545 5.87818 4.79777 6 5 6H6.25Z" fill="black"/>
</g>
<defs>
<clipPath id="clip0_1068_186323">
<rect width="14" height="14" fill="white"/>
</clipPath>
</defs>
</svg>
