<svg width="14" height="14" viewBox="0 0 14 14" fill="none" xmlns="http://www.w3.org/2000/svg">
<g clip-path="url(#clip0_1068_186326)">
<path fill-rule="evenodd" clip-rule="evenodd" d="M2.85338 0.853554L6.64628 4.64645C6.84154 4.84171 7.15812 4.84171 7.35338 4.64645L11.1463 0.853553C11.4613 0.53857 11.2382 0 10.7927 0H3.20694C2.76148 0 2.5384 0.538571 2.85338 0.853554ZM2.85338 13.1464L6.64628 9.35348C6.84154 9.15822 7.15812 9.15822 7.35338 9.35348L11.1463 13.1464C11.4613 13.4614 11.2382 13.9999 10.7927 13.9999H3.20694C2.76148 13.9999 2.5384 13.4614 2.85338 13.1464ZM1.75 7.75H0.75C0.335787 7.75 0 7.41421 0 7C0 6.58579 0.335786 6.25 0.75 6.25H1.75C2.16422 6.25 2.5 6.58579 2.5 7C2.5 7.41421 2.16422 7.75 1.75 7.75ZM4.58325 7.75H5.58325C5.99747 7.75 6.33325 7.41421 6.33325 7C6.33325 6.58579 5.99747 6.25 5.58325 6.25H4.58325C4.16904 6.25 3.83325 6.58579 3.83325 7C3.83325 7.41421 4.16904 7.75 4.58325 7.75ZM9.41651 7.75H8.41651C8.00229 7.75 7.66651 7.41421 7.66651 7C7.66651 6.58579 8.00229 6.25 8.41651 6.25H9.41651C9.83072 6.25 10.1665 6.58579 10.1665 7C10.1665 7.41421 9.83072 7.75 9.41651 7.75ZM12.2498 7.75H13.2498C13.664 7.75 13.9998 7.41421 13.9998 7C13.9998 6.58579 13.664 6.25 13.2498 6.25H12.2498C11.8356 6.25 11.4998 6.58579 11.4998 7C11.4998 7.41421 11.8356 7.75 12.2498 7.75Z" fill="black"/>
</g>
<defs>
<clipPath id="clip0_1068_186326">
<rect width="14" height="14" fill="white"/>
</clipPath>
</defs>
</svg>
