<svg width="14" height="14" viewBox="0 0 14 14" fill="none" xmlns="http://www.w3.org/2000/svg">
<g clip-path="url(#clip0_1068_186329)">
<path fill-rule="evenodd" clip-rule="evenodd" d="M8.6102 0.182565C7.55052 -0.060855 6.44945 -0.060855 5.38977 0.182565C4.98607 0.2753 4.73398 0.677739 4.82672 1.08144C4.91945 1.48514 5.32189 1.73722 5.72559 1.64449C6.56427 1.45184 7.43571 1.45184 8.27438 1.64449C8.67808 1.73722 9.08052 1.48514 9.17326 1.08144C9.26599 0.677739 9.0139 0.2753 8.6102 0.182565ZM3.58815 1.71487C3.85174 2.03439 3.8064 2.50709 3.48688 2.77068C3.15906 3.04111 2.86466 3.34967 2.60991 3.68982L2.60571 3.69542C2.34908 4.03147 2.13485 4.39787 1.9679 4.78635C1.80435 5.1669 1.36327 5.34283 0.98271 5.17928C0.602151 5.01573 0.426229 4.57465 0.589776 4.19409C0.804947 3.69341 1.0809 3.2211 1.4114 2.78782C1.73715 2.35334 2.11344 1.95917 2.53234 1.6136C2.85186 1.35001 3.32456 1.39535 3.58815 1.71487ZM11.5666 1.62411C11.2529 1.35363 10.7793 1.38869 10.5089 1.70241C10.2384 2.01612 10.2735 2.4897 10.5872 2.76017C10.9032 3.0326 11.1862 3.34107 11.4304 3.67931L11.4424 3.6954C11.699 4.03145 11.9132 4.39787 12.0801 4.78635C12.2437 5.1669 12.6848 5.34283 13.0653 5.17928C13.4459 5.01573 13.6218 4.57465 13.4583 4.19409C13.244 3.6954 12.9694 3.22487 12.6406 2.79301C12.3292 2.36306 11.9687 1.97079 11.5666 1.62411ZM0.21967 6.46967C0.360322 6.32902 0.551088 6.25 0.75 6.25H13.25C13.4489 6.25 13.6397 6.32902 13.7803 6.46967C13.921 6.61032 14 6.80109 14 7C14 8.85651 13.2625 10.637 11.9497 11.9497C10.637 13.2625 8.85651 14 7 14C5.14348 14 3.36301 13.2625 2.05025 11.9497C0.737498 10.637 0 8.85652 0 7C0 6.80109 0.0790176 6.61032 0.21967 6.46967Z" fill="black"/>
</g>
<defs>
<clipPath id="clip0_1068_186329">
<rect width="14" height="14" fill="white"/>
</clipPath>
</defs>
</svg>
