<svg width="14" height="14" viewBox="0 0 14 14" fill="none" xmlns="http://www.w3.org/2000/svg">
<g clip-path="url(#clip0_1068_186332)">
<path fill-rule="evenodd" clip-rule="evenodd" d="M11.75 0C11.3358 0 11 0.335786 11 0.75C11 1.16421 11.3358 1.5 11.75 1.5H12.25C12.3881 1.5 12.5 1.61193 12.5 1.75V2.25C12.5 2.66421 12.8358 3 13.25 3C13.6642 3 14 2.66421 14 2.25V1.75C14 0.783502 13.2165 0 12.25 0H11.75ZM14 7V5.5C14 5.08579 13.6642 4.75 13.25 4.75C12.8358 4.75 12.5 5.08579 12.5 5.5V6.25H1.5V5.5C1.5 5.08579 1.16421 4.75 0.75 4.75C0.335786 4.75 0 5.08579 0 5.5V7V7.9999V12.25C0 13.2165 0.783502 14 1.75 14H12.25C13.2165 14 14 13.2165 14 12.25V8.00012V7ZM1.75012 1.5C1.61205 1.5 1.50012 1.61193 1.50012 1.75V2.25C1.50012 2.66421 1.16434 3 0.750122 3C0.335909 3 0.00012207 2.66421 0.00012207 2.25V1.75C0.00012207 0.783502 0.783624 0 1.75012 0H2.25012C2.66434 0 3.00012 0.335786 3.00012 0.75C3.00012 1.16421 2.66434 1.5 2.25012 1.5H1.75012ZM6 0C5.58579 0 5.25 0.335786 5.25 0.75C5.25 1.16421 5.58579 1.5 6 1.5H8C8.41421 1.5 8.75 1.16421 8.75 0.75C8.75 0.335786 8.41421 0 8 0H6Z" fill="black"/>
</g>
<defs>
<clipPath id="clip0_1068_186332">
<rect width="14" height="14" fill="white"/>
</clipPath>
</defs>
</svg>
