<svg width="14" height="14" viewBox="0 0 14 14" fill="none" xmlns="http://www.w3.org/2000/svg">
<g clip-path="url(#clip0_1068_186338)">
<path fill-rule="evenodd" clip-rule="evenodd" d="M5.18345 0.499936C5.52332 0.491851 5.85595 0.599465 6.12675 0.805269C6.39945 1.01253 6.5932 1.30766 6.67544 1.64015L6.89039 2.49994H12.5C12.8978 2.49994 13.2794 2.65797 13.5607 2.93928C13.842 3.22058 14 3.60211 14 3.99994V11.9999C14 12.3978 13.842 12.7793 13.5607 13.0606C13.2794 13.3419 12.8978 13.4999 12.5 13.4999H1.5C1.10217 13.4999 0.720644 13.3419 0.43934 13.0606C0.158035 12.7793 0 12.3978 0 11.9999V1.99994C0 1.60211 0.158035 1.22058 0.43934 0.939276C0.720644 0.657971 1.10218 0.499936 1.5 0.499936H5.18345ZM9.6 6.45C9.84853 6.11863 9.78137 5.64853 9.45 5.4C9.11863 5.15147 8.64853 5.21863 8.4 5.55L5.82569 8.98241L4.91603 8.37596C4.57138 8.1462 4.10573 8.23933 3.87596 8.58397C3.6462 8.92862 3.73933 9.39427 4.08397 9.62404L5.58397 10.624C5.91517 10.8448 6.36117 10.7684 6.6 10.45L9.6 6.45Z" fill="black"/>
</g>
<defs>
<clipPath id="clip0_1068_186338">
<rect width="14" height="14" fill="white"/>
</clipPath>
</defs>
</svg>
