<svg width="14" height="14" viewBox="0 0 14 14" fill="none" xmlns="http://www.w3.org/2000/svg">
<path fill-rule="evenodd" clip-rule="evenodd" d="M4.6 1.2C4.69443 1.0741 4.84262 1 5 1H9C9.15738 1 9.30557 1.0741 9.4 1.2L10.75 3H12.5C12.8978 3 13.2794 3.15804 13.5607 3.43934C13.842 3.72064 14 4.10217 14 4.5V11.5C14 11.8978 13.842 12.2794 13.5607 12.5607C13.2794 12.842 12.8978 13 12.5 13H1.5C1.10217 13 0.720644 12.842 0.43934 12.5607C0.158035 12.2794 0 11.8978 0 11.5V4.5C0 4.10218 0.158035 3.72064 0.43934 3.43934C0.720644 3.15804 1.10217 3 1.5 3H3.25L4.6 1.2ZM4.75 7C5.16421 7 5.5 6.66421 5.5 6.25C5.5 5.83579 5.16421 5.5 4.75 5.5C4.33579 5.5 4 5.83579 4 6.25C4 6.66421 4.33579 7 4.75 7ZM5.0009 8.41924C4.7589 8.1731 4.36319 8.16975 4.11705 8.41176C3.87092 8.65376 3.86757 9.04947 4.10957 9.29561C4.70409 9.90027 5.70626 10.411 6.99842 10.411C8.29058 10.411 9.29275 9.90027 9.88727 9.29561C10.1293 9.04947 10.1259 8.65376 9.87979 8.41176C9.63365 8.16975 9.23794 8.1731 8.99593 8.41924C8.63777 8.78352 7.95732 9.16099 6.99842 9.16099C6.03951 9.16099 5.35907 8.78352 5.0009 8.41924ZM10.0001 6.25C10.0001 6.66421 9.66434 7 9.25012 7C8.83591 7 8.50012 6.66421 8.50012 6.25C8.50012 5.83579 8.83591 5.5 9.25012 5.5C9.66434 5.5 10.0001 5.83579 10.0001 6.25Z" fill="black"/>
</svg>
