<svg width="14" height="14" viewBox="0 0 14 14" fill="none" xmlns="http://www.w3.org/2000/svg">
<path fill-rule="evenodd" clip-rule="evenodd" d="M11.4375 2.15625C12.8182 2.15625 13.9375 3.27554 13.9375 4.65625V8.9449C13.9375 10.3256 12.8182 11.4449 11.4375 11.4449H2.5625C1.18179 11.4449 0.0625 10.3256 0.0625 8.9449V4.65625C0.0625 3.27554 1.18179 2.15625 2.5625 2.15625H11.4375ZM7.80595 9.15258C8.08209 9.15258 8.30595 8.92872 8.30595 8.65258C8.30595 8.37644 8.08209 8.15258 7.80595 8.15258H7.37992V5.44855H7.80595C8.08209 5.44855 8.30595 5.2247 8.30595 4.94855C8.30595 4.67241 8.08209 4.44855 7.80595 4.44855H6.88042H5.95394C5.67779 4.44855 5.45394 4.67241 5.45394 4.94855C5.45394 5.2247 5.67779 5.44855 5.95394 5.44855H6.37992V8.15258H5.95394C5.67779 8.15258 5.45394 8.37644 5.45394 8.65258C5.45394 8.92872 5.67779 9.15258 5.95394 9.15258H6.87992H7.80595ZM2.26907 5.87455C2.26907 5.63928 2.4598 5.44855 2.69508 5.44855H3.31242C3.49712 5.44855 3.65559 5.56638 3.71431 5.73251C3.80633 5.99287 4.092 6.12933 4.35235 6.03731C4.61271 5.94529 4.74918 5.65963 4.65715 5.39927C4.46163 4.84608 3.93409 4.44855 3.31242 4.44855H2.69508C1.90752 4.44855 1.26907 5.08699 1.26907 5.87455V7.72657C1.26907 8.51413 1.90752 9.15257 2.69508 9.15257H3.31242C4.09998 9.15257 4.73842 8.51413 4.73842 7.72657V7.10923C4.73842 6.83309 4.51457 6.60923 4.23842 6.60923H3.31242C3.03627 6.60923 2.81242 6.83309 2.81242 7.10923C2.81242 7.38538 3.03627 7.60923 3.31242 7.60923H3.73842V7.72657C3.73842 7.96184 3.54769 8.15257 3.31242 8.15257H2.69508C2.4598 8.15257 2.26907 7.96184 2.26907 7.72657V5.87455ZM9.26159 4.94855C9.26159 4.67241 9.48545 4.44855 9.76159 4.44855H12.2309C12.5071 4.44855 12.7309 4.67241 12.7309 4.94855C12.7309 5.22469 12.5071 5.44855 12.2309 5.44855H10.2616V6.1462H11.9223C12.1984 6.1462 12.4223 6.37006 12.4223 6.6462C12.4223 6.92234 12.1984 7.1462 11.9223 7.1462H10.2616V8.65257C10.2616 8.92871 10.0377 9.15257 9.76159 9.15257C9.48545 9.15257 9.26159 8.92871 9.26159 8.65257V4.94855Z" fill="black"/>
</svg>
