<svg width="14" height="14" viewBox="0 0 14 14" fill="none" xmlns="http://www.w3.org/2000/svg">
<g clip-path="url(#clip0_1068_186350)">
<path fill-rule="evenodd" clip-rule="evenodd" d="M9.03033 0.21967C8.73744 -0.0732233 8.26256 -0.0732233 7.96967 0.21967C7.67678 0.512563 7.67678 0.987437 7.96967 1.28033L8.68934 2H6.5C6.22386 2 6 2.22386 6 2.5V7.5C6 7.77614 6.22386 8 6.5 8H9.375V3.5C9.375 3.15482 9.65482 2.875 10 2.875C10.3452 2.875 10.625 3.15482 10.625 3.5V8H13.5C13.7761 8 14 7.77614 14 7.5V2.5C14 2.22386 13.7761 2 13.5 2H11.3107L12.0303 1.28033C12.3232 0.987437 12.3232 0.512563 12.0303 0.21967C11.7374 -0.0732233 11.2626 -0.0732233 10.9697 0.21967L10 1.18934L9.03033 0.21967ZM1.84315 7H0V11L1.82843 12.8284C2.57857 13.5786 3.59599 14 4.65685 14H10.5C11.3284 14 12 13.3284 12 12.5C12 11.6716 11.3284 11 10.5 11H7.72328C7.6268 11.3266 7.44966 11.6345 7.19188 11.8923C6.36791 12.7163 5.03199 12.7163 4.20802 11.8923L2.75801 10.4423C2.51393 10.1982 2.51393 9.8025 2.75801 9.55842C3.00209 9.31435 3.39782 9.31435 3.64189 9.55842L5.09191 11.0084C5.42772 11.3443 5.97218 11.3443 6.308 11.0084C6.61051 10.7059 6.64051 10.2341 6.39799 9.89799L4.67157 8.17157C3.92143 7.42143 2.90401 7 1.84315 7Z" fill="black"/>
</g>
<defs>
<clipPath id="clip0_1068_186350">
<rect width="14" height="14" fill="white"/>
</clipPath>
</defs>
</svg>
