<svg width="14" height="14" viewBox="0 0 14 14" fill="none" xmlns="http://www.w3.org/2000/svg">
<g clip-path="url(#clip0_1068_186353)">
<path fill-rule="evenodd" clip-rule="evenodd" d="M9.61536 1C9.61536 0.585786 9.95114 0.25 10.3654 0.25H11.3269C12.0358 0.25 12.7157 0.531627 13.217 1.03293C13.7183 1.53422 14 2.21413 14 2.92308V8.99189V9V11.8846C14 12.3385 13.8197 12.7739 13.4987 13.0949C13.1777 13.4158 12.7424 13.5962 12.2885 13.5962H9.40386C8.94993 13.5962 8.5146 13.4158 8.19362 13.0949C7.87264 12.7739 7.69232 12.3385 7.69232 11.8846V9.75H6.30769V11.8846C6.30769 12.3385 6.12737 12.7739 5.80639 13.0949C5.48542 13.4158 5.05008 13.5962 4.59615 13.5962H1.71154C1.25761 13.5962 0.822273 13.4158 0.501298 13.0949C0.180322 12.7739 0 12.3385 0 11.8846V9V2.92308C0 2.21413 0.281627 1.53423 0.782926 1.03293C1.28423 0.531627 1.96413 0.25 2.67308 0.25H3.63462C4.04883 0.25 4.38462 0.585786 4.38462 1C4.38462 1.41421 4.04883 1.75 3.63462 1.75H2.67308C2.36196 1.75 2.06358 1.87359 1.84359 2.09359C1.62359 2.31358 1.5 2.61196 1.5 2.92308V8.25H5.55768H8.44229H12.5V2.92308C12.5 2.61196 12.3764 2.31358 12.1564 2.09359C11.9364 1.87359 11.638 1.75 11.3269 1.75H10.3654C9.95114 1.75 9.61536 1.41421 9.61536 1ZM1.5 9.75V11.8846C1.5 11.9407 1.52229 11.9945 1.56196 12.0342C1.60163 12.0739 1.65544 12.0962 1.71154 12.0962H4.59615C4.65226 12.0962 4.70606 12.0739 4.74573 12.0342C4.78541 11.9945 4.80769 11.9407 4.80769 11.8846V9.75H1.5ZM9.19232 9.75V11.8846C9.19232 11.9407 9.21461 11.9945 9.25428 12.0342C9.29395 12.0739 9.34776 12.0962 9.40386 12.0962H12.2885C12.3446 12.0962 12.3984 12.0739 12.4381 12.0342C12.4777 11.9945 12.5 11.9407 12.5 11.8846V9.75H9.19232Z" fill="black"/>
</g>
<defs>
<clipPath id="clip0_1068_186353">
<rect width="14" height="14" fill="white"/>
</clipPath>
</defs>
</svg>
