<svg width="14" height="14" viewBox="0 0 14 14" fill="none" xmlns="http://www.w3.org/2000/svg">
<path fill-rule="evenodd" clip-rule="evenodd" d="M7.51788 0.49955C7.51776 0.366513 7.46462 0.23901 7.37023 0.145256C7.27585 0.0515026 7.14799 -0.000769254 7.01495 8.55773e-06C6.81506 0.00117728 6.61974 0.0599287 6.45237 0.169229C6.28683 0.277342 6.15557 0.43038 6.07392 0.610361L4.48593 3.96613C4.48339 3.97148 4.48095 3.97688 4.47861 3.98232C4.47724 3.98551 4.47507 3.98828 4.4723 3.99037C4.46954 3.99246 4.46628 3.9938 4.46284 3.99425L4.45658 3.99511L0.916578 4.50511L0.908459 4.50635C0.708138 4.53857 0.520947 4.62658 0.368332 4.76028C0.215716 4.89398 0.103849 5.06796 0.0455477 5.2623C-0.0127542 5.45664 -0.0151327 5.66347 0.0386846 5.8591C0.0910609 6.04949 0.194602 6.22178 0.337919 6.35731L2.88959 8.97875L2.89219 8.98141C2.90103 8.99036 2.90764 9.00127 2.91147 9.01325C2.91515 9.02474 2.91618 9.03692 2.91449 9.04885L2.27563 12.7423L2.27537 12.7438C2.24131 12.9365 2.26126 13.1349 2.33303 13.317C2.40499 13.4995 2.52621 13.6585 2.68319 13.7762C2.84017 13.894 3.02675 13.9658 3.22215 13.9838C3.41755 14.0018 3.6141 13.9651 3.78992 13.878C3.79557 13.8752 3.80118 13.8723 3.80673 13.8693L7.0046 12.1304C7.01666 12.124 7.03062 12.1202 7.04426 12.1197C7.31406 12.1109 7.52812 11.8895 7.52788 11.6196L7.51788 0.49955Z" fill="black"/>
</svg>
