<svg width="14" height="14" viewBox="0 0 14 14" fill="none" xmlns="http://www.w3.org/2000/svg">
<g clip-path="url(#clip0_1068_186362)">
<path fill-rule="evenodd" clip-rule="evenodd" d="M3.79486 2.5093C3.79901 0.924769 5.25822 -0.256977 6.80988 0.0696891L6.82326 0.0725055L11.3794 1.16275C12.5326 1.40895 13.3573 2.42781 13.3573 3.60762V6.62416C13.3573 8.25423 12.9778 9.86193 12.2488 11.3199L11.8573 12.1029V13.4849C11.8573 13.761 11.6335 13.9849 11.3573 13.9849H4.35737C4.08123 13.9849 3.85737 13.761 3.85737 13.4849V12.2252L2.11391 10.8304C1.6546 10.4629 1.33956 9.9453 1.2242 9.36852L0.69334 6.71422C0.456992 5.53248 1.09737 4.35032 2.21632 3.90274L2.23856 3.89384L2.26156 3.88711L2.54486 3.80419V6.07855C2.54487 6.42373 2.82469 6.70355 3.16987 6.70355C3.51504 6.70355 3.79487 6.42373 3.79487 6.07855L3.79486 2.5093Z" fill="black"/>
</g>
<defs>
<clipPath id="clip0_1068_186362">
<rect width="14" height="14" fill="white"/>
</clipPath>
</defs>
</svg>
