<svg width="14" height="14" viewBox="0 0 14 14" fill="none" xmlns="http://www.w3.org/2000/svg">
<g clip-path="url(#clip0_1068_186371)">
<path fill-rule="evenodd" clip-rule="evenodd" d="M1.75 1.25C1.75 0.835786 1.41421 0.5 1 0.5C0.585786 0.5 0.25 0.835786 0.25 1.25V6.52083V12.75C0.25 13.1642 0.585786 13.5 1 13.5C1.41421 13.5 1.75 13.1642 1.75 12.75V7.27083H6V12.75C6 13.1642 6.33579 13.5 6.75 13.5C7.16421 13.5 7.5 13.1642 7.5 12.75V6.52083V1.25C7.5 0.835786 7.16421 0.5 6.75 0.5C6.33579 0.5 6 0.835786 6 1.25V5.77083H1.75V1.25ZM11.562 6.69502L10.8989 6.69503C9.99803 6.69504 9.24051 7.3004 9.00726 8.12506C8.89452 8.52364 9.12624 8.93814 9.52482 9.05087C9.9234 9.16361 10.3379 8.93189 10.4506 8.53331C10.506 8.33744 10.6868 8.19503 10.8989 8.19503L11.562 8.19502C11.8192 8.19502 12.0277 8.40353 12.0277 8.66074C12.0277 8.91796 11.8192 9.12647 11.562 9.12647H11.2305C10.8162 9.12647 10.4805 9.46225 10.4805 9.87647C10.4805 10.2907 10.8162 10.6265 11.2305 10.6265H11.562H11.6725C11.9908 10.6265 12.2488 10.8845 12.2488 11.2027V11.4238C12.2488 11.742 11.9908 12 11.6725 12H10.7884C10.5386 12 10.3242 11.8407 10.2447 11.6159C10.1067 11.2254 9.67821 11.0207 9.28767 11.1587C8.89713 11.2967 8.69243 11.7252 8.83047 12.1158C9.11513 12.9212 9.88319 13.5 10.7884 13.5H11.6725C12.8192 13.5 13.7488 12.5704 13.7488 11.4238V11.2027C13.7488 10.6502 13.5329 10.148 13.181 9.77601C13.3997 9.45914 13.5277 9.0749 13.5277 8.66074C13.5277 7.5751 12.6476 6.69501 11.562 6.69502Z" fill="black"/>
</g>
<defs>
<clipPath id="clip0_1068_186371">
<rect width="14" height="14" fill="white"/>
</clipPath>
</defs>
</svg>
