<svg width="14" height="14" viewBox="0 0 14 14" fill="none" xmlns="http://www.w3.org/2000/svg">
<g clip-path="url(#clip0_1068_186365)">
<path fill-rule="evenodd" clip-rule="evenodd" d="M1.75 1.25C1.75 0.835786 1.41421 0.5 1 0.5C0.585786 0.5 0.25 0.835786 0.25 1.25V6.52083V12.75C0.25 13.1642 0.585786 13.5 1 13.5C1.41421 13.5 1.75 13.1642 1.75 12.75V7.27083H6V12.75C6 13.1642 6.33579 13.5 6.75 13.5C7.16421 13.5 7.5 13.1642 7.5 12.75V6.52083V1.25C7.5 0.835786 7.16421 0.5 6.75 0.5C6.33579 0.5 6 0.835786 6 1.25V5.77083H1.75V1.25ZM12.1445 7.44502C12.1445 7.03081 11.8087 6.69502 11.3945 6.69502C10.9803 6.69502 10.6445 7.03081 10.6445 7.44502C10.6445 7.73434 10.41 7.96888 10.1207 7.96888H9.69604C9.28183 7.96888 8.94604 8.30466 8.94604 8.71888C8.94604 9.13309 9.28183 9.46888 9.69604 9.46888H10.1207C10.3017 9.46888 10.4772 9.4451 10.6443 9.40049V12H9.69619C9.28197 12 8.94619 12.3358 8.94619 12.75C8.94619 13.1642 9.28197 13.5 9.69619 13.5H13.0931C13.5073 13.5 13.8431 13.1642 13.8431 12.75C13.8431 12.3358 13.5073 12 13.0931 12H12.1443V7.65458C12.1443 7.62836 12.1429 7.60245 12.1403 7.57693C12.1431 7.53332 12.1445 7.48934 12.1445 7.44502Z" fill="black"/>
</g>
<defs>
<clipPath id="clip0_1068_186365">
<rect width="14" height="14" fill="white"/>
</clipPath>
</defs>
</svg>
