<svg width="14" height="14" viewBox="0 0 14 14" fill="none" xmlns="http://www.w3.org/2000/svg">
<g clip-path="url(#clip0_1068_186368)">
<path fill-rule="evenodd" clip-rule="evenodd" d="M1.75 1.25C1.75 0.835786 1.41421 0.5 1 0.5C0.585786 0.5 0.25 0.835786 0.25 1.25V6.52083V12.75C0.25 13.1642 0.585786 13.5 1 13.5C1.41421 13.5 1.75 13.1642 1.75 12.75V7.27083H6V12.75C6 13.1642 6.33579 13.5 6.75 13.5C7.16421 13.5 7.5 13.1642 7.5 12.75V6.52083V1.25C7.5 0.835786 7.16421 0.5 6.75 0.5C6.33579 0.5 6 0.835786 6 1.25V5.77083H1.75V1.25ZM10.8537 6.69502C9.95386 6.69502 9.23003 7.30603 8.96917 8.09328C8.83888 8.48647 9.05201 8.91083 9.4452 9.04112C9.83839 9.17141 10.2627 8.95828 10.393 8.56509C10.4735 8.32212 10.6708 8.19502 10.8537 8.19502H11.7149C11.9247 8.19502 12.176 8.39128 12.176 8.73686C12.176 8.97921 12.0418 9.1667 11.8831 9.24075L10.0382 10.1017C9.30348 10.4446 8.86035 11.1986 8.86035 11.9964V12.75C8.86035 13.1642 9.19614 13.5 9.61035 13.5H12.926C13.3402 13.5 13.676 13.1642 13.676 12.75C13.676 12.3358 13.3402 12 12.926 12H10.3604V11.9964C10.3604 11.7404 10.5021 11.5405 10.6725 11.461L12.5175 10.6C13.2404 10.2626 13.676 9.521 13.676 8.73686C13.676 7.65552 12.8428 6.69502 11.7149 6.69502H10.8537Z" fill="black"/>
</g>
<defs>
<clipPath id="clip0_1068_186368">
<rect width="14" height="14" fill="white"/>
</clipPath>
</defs>
</svg>
