<svg width="14" height="14" viewBox="0 0 14 14" fill="none" xmlns="http://www.w3.org/2000/svg">
<g clip-path="url(#clip0_1068_186374)">
<path fill-rule="evenodd" clip-rule="evenodd" d="M4.0241 1.08512C5.00463 1.15617 6.02634 1.63415 7.00438 2.60152C7.98217 1.63442 9.00299 1.15735 9.9826 1.08788C11.0882 1.00947 12.0656 1.45632 12.7728 2.16133C14.1631 3.54747 14.5997 6.05569 12.8745 7.78093C12.8687 7.78675 12.8627 7.79243 12.8566 7.79795L7.34004 12.7949C7.14953 12.9674 6.85922 12.9674 6.66871 12.7949L1.15213 7.79795C1.14603 7.79243 1.14007 7.78675 1.13425 7.78093C-0.599975 6.0467 -0.165703 3.53819 1.22919 2.15313C1.93808 1.44923 2.91747 1.00494 4.0241 1.08512Z" fill="black"/>
</g>
<defs>
<clipPath id="clip0_1068_186374">
<rect width="14" height="14" fill="white"/>
</clipPath>
</defs>
</svg>
