<svg width="14" height="14" viewBox="0 0 14 14" fill="none" xmlns="http://www.w3.org/2000/svg">
<g clip-path="url(#clip0_1068_186377)">
<path fill-rule="evenodd" clip-rule="evenodd" d="M6.99834 0.0463878C8.04479 0.0457933 9.07788 0.281389 10.0206 0.735616C10.9634 1.18986 11.7915 1.85105 12.4431 2.66988C13.0948 3.48871 13.5532 4.44407 13.7843 5.46474C14.0153 6.48542 14.013 7.54508 13.7775 8.56473C13.542 9.58439 13.0794 10.5377 12.4242 11.3537C11.769 12.1697 10.938 12.8272 9.99326 13.2774C9.04851 13.7275 8.01436 13.9586 6.96787 13.9534C5.97696 13.9485 4.9992 13.7319 4.09988 13.3188L0.633897 13.9455C0.456812 13.9775 0.27618 13.9119 0.160928 13.7737C0.0456747 13.6355 0.0135827 13.446 0.076897 13.2776L1.07113 10.6324C0.460779 9.63611 0.110558 8.50074 0.0548176 7.3309C-0.00504529 6.07452 0.276994 4.82543 0.870894 3.71667C1.4648 2.60791 2.34832 1.681 3.42736 1.03467C4.50635 0.388357 5.74059 0.0468069 6.99834 0.0463878ZM6.61953 4.4449C6.80137 4.36958 7.00147 4.34987 7.19451 4.38827C7.38755 4.42667 7.56488 4.52145 7.70405 4.66062C7.84323 4.7998 7.93801 4.97712 7.97641 5.17017C8.01481 5.36321 7.9951 5.56331 7.91978 5.74515C7.84446 5.92699 7.7169 6.08242 7.55325 6.19177C7.38959 6.30112 7.19719 6.35949 7.00036 6.35949C6.65518 6.35949 6.37536 6.63931 6.37536 6.98449V8.0646C6.37536 8.40978 6.65518 8.6896 7.00036 8.6896C7.34554 8.6896 7.62536 8.40978 7.62536 8.0646V7.52074C7.84525 7.45701 8.05529 7.35968 8.24771 7.23111C8.61693 6.9844 8.9047 6.63376 9.07463 6.22351C9.24456 5.81325 9.28902 5.36183 9.20239 4.9263C9.11576 4.49078 8.90193 4.09073 8.58794 3.77674C8.27394 3.46275 7.87389 3.24892 7.43837 3.16228C7.00285 3.07565 6.55142 3.12012 6.14117 3.29005C5.73092 3.45998 5.38027 3.74775 5.13357 4.11697C4.88687 4.48618 4.75519 4.92026 4.75519 5.36432C4.75519 5.70949 5.03501 5.98932 5.38019 5.98932C5.72537 5.98932 6.00519 5.70949 6.00519 5.36432C6.00519 5.16749 6.06356 4.97508 6.17291 4.81143C6.28226 4.64777 6.43768 4.52022 6.61953 4.4449ZM7.00039 11.3898C6.50702 11.3887 6.1074 10.9884 6.1074 10.4948C6.1074 10.0005 6.50812 9.59983 7.00243 9.59983C7.0031 9.59983 7.00378 9.59983 7.00445 9.59983C7.49782 9.60093 7.89744 10.0012 7.89744 10.4948C7.89744 10.9891 7.49672 11.3898 7.00241 11.3898C7.00174 11.3898 7.00106 11.3898 7.00039 11.3898Z" fill="black"/>
</g>
<defs>
<clipPath id="clip0_1068_186377">
<rect width="14" height="14" fill="white"/>
</clipPath>
</defs>
</svg>
