<svg width="14" height="14" viewBox="0 0 14 14" fill="none" xmlns="http://www.w3.org/2000/svg">
<g clip-path="url(#clip0_1068_186380)">
<path fill-rule="evenodd" clip-rule="evenodd" d="M14 7C14 10.866 10.866 14 7 14C3.13401 14 0 10.866 0 7C0 3.13401 3.13401 0 7 0C10.866 0 14 3.13401 14 7ZM5.75 5.25C5.75 4.55964 6.30964 4 7 4C7.69036 4 8.25 4.55964 8.25 5.25C8.25 5.94036 7.69036 6.5 7 6.5C6.58579 6.5 6.25 6.83579 6.25 7.25V7.89648C6.25 8.3107 6.58579 8.64648 7 8.64648C7.41421 8.64648 7.75 8.3107 7.75 7.89648C8.90425 7.57002 9.75 6.50878 9.75 5.25C9.75 3.73122 8.51878 2.5 7 2.5C5.48122 2.5 4.25 3.73122 4.25 5.25C4.25 5.66421 4.58579 6 5 6C5.41421 6 5.75 5.66421 5.75 5.25ZM8 10.5C8 11.0523 7.55229 11.5 7 11.5C6.44771 11.5 6 11.0523 6 10.5C6 9.94771 6.44771 9.5 7 9.5C7.55229 9.5 8 9.94771 8 10.5Z" fill="black"/>
</g>
<defs>
<clipPath id="clip0_1068_186380">
<rect width="14" height="14" fill="white"/>
</clipPath>
</defs>
</svg>
