<svg width="14" height="14" viewBox="0 0 14 14" fill="none" xmlns="http://www.w3.org/2000/svg">
<path fill-rule="evenodd" clip-rule="evenodd" d="M1.25 1.25C1.25 0.559644 1.80964 0 2.5 0H4.5C5.19036 0 5.75 0.559644 5.75 1.25V3.25C5.75 3.94036 5.19036 4.5 4.5 4.5H4.25V5.99998C4.8953 5.516 5.68394 5.25 6.5 5.25H8.5V5C8.5 4.30964 9.05964 3.75 9.75 3.75H11.75C12.4404 3.75 13 4.30964 13 5V7C13 7.69036 12.4404 8.25 11.75 8.25H9.75C9.05964 8.25 8.5 7.69036 8.5 7V6.75H6.5C5.90326 6.75 5.33097 6.98705 4.90901 7.40901C4.48705 7.83097 4.25 8.40326 4.25 9V9.5H4.5C5.19036 9.5 5.75 10.0596 5.75 10.75V12.75C5.75 13.4404 5.19036 14 4.5 14H2.5C1.80964 14 1.25 13.4404 1.25 12.75V10.75C1.25 10.0596 1.80964 9.5 2.5 9.5H2.75V9V4.5H2.5C1.80964 4.5 1.25 3.94036 1.25 3.25V1.25Z" fill="black"/>
</svg>
