<svg width="14" height="14" viewBox="0 0 14 14" fill="none" xmlns="http://www.w3.org/2000/svg">
<g clip-path="url(#clip0_1068_186389)">
<path fill-rule="evenodd" clip-rule="evenodd" d="M8.69131 0.0380748C8.87815 0.115466 8.99997 0.297784 8.99997 0.500015V1.75001H9.75C11.2688 1.75001 12.5 2.98123 12.5 4.50001V9.50001C13.3284 9.50001 14 10.1716 14 11V12.5C14 13.3284 13.3284 14 12.5 14H11C10.1716 14 9.5 13.3284 9.5 12.5V11C9.5 10.1716 10.1716 9.50001 11 9.50001V4.50001C11 3.80965 10.4404 3.25001 9.75 3.25001H8.99997V4.50001C8.99997 4.70224 8.87815 4.88456 8.69131 4.96195C8.50447 5.03934 8.28942 4.99656 8.14642 4.85356L6.14642 2.85356C5.95115 2.6583 5.95115 2.34172 6.14642 2.14646L8.14642 0.146462C8.28942 0.0034622 8.50447 -0.0393156 8.69131 0.0380748ZM1.5 9.50001V4.50001C0.671573 4.50001 0 3.82844 0 3.00001V1.50001C0 0.671588 0.671573 1.45805e-05 1.5 1.45805e-05H3C3.82843 1.45805e-05 4.5 0.671588 4.5 1.50001V3.00001C4.5 3.82844 3.82843 4.50001 3 4.50001V9.50001C3.82843 9.50001 4.5 10.1716 4.5 11V12.5C4.5 13.3284 3.82843 14 3 14H1.5C0.671573 14 0 13.3284 0 12.5V11C0 10.1716 0.671573 9.50001 1.5 9.50001Z" fill="black"/>
</g>
<defs>
<clipPath id="clip0_1068_186389">
<rect width="14" height="14" fill="white"/>
</clipPath>
</defs>
</svg>
