<svg width="14" height="14" viewBox="0 0 14 14" fill="none" xmlns="http://www.w3.org/2000/svg">
<g clip-path="url(#clip0_1068_186398)">
<path fill-rule="evenodd" clip-rule="evenodd" d="M4.25 1V4.5C4.25 5.05228 4.69772 5.5 5.25 5.5H6.25V6.75H3C2.0335 6.75 1.25 7.5335 1.25 8.5V10H1C0.447715 10 0 10.4477 0 11V13C0 13.5523 0.447715 14 1 14H3C3.55228 14 4 13.5523 4 13V11C4 10.4477 3.55228 10 3 10H2.75V8.5C2.75 8.36193 2.86193 8.25 3 8.25H6.25V10H6C5.44772 10 5 10.4477 5 11V13C5 13.5523 5.44772 14 6 14H8C8.55228 14 9 13.5523 9 13V11C9 10.4477 8.55228 10 8 10H7.75V8.25H11C11.1381 8.25 11.25 8.36193 11.25 8.5V10H11C10.4477 10 10 10.4477 10 11V13C10 13.5523 10.4477 14 11 14H13C13.5523 14 14 13.5523 14 13V11C14 10.4477 13.5523 10 13 10H12.75V8.5C12.75 7.5335 11.9665 6.75 11 6.75H7.75V5.5H8.75C9.30228 5.5 9.75 5.05228 9.75 4.5V1C9.75 0.447715 9.30228 0 8.75 0H5.25C4.69772 0 4.25 0.447715 4.25 1Z" fill="black"/>
</g>
<defs>
<clipPath id="clip0_1068_186398">
<rect width="14" height="14" fill="white"/>
</clipPath>
</defs>
</svg>
