<svg width="14" height="14" viewBox="0 0 14 14" fill="none" xmlns="http://www.w3.org/2000/svg">
<g clip-path="url(#clip0_1068_186395)">
<path fill-rule="evenodd" clip-rule="evenodd" d="M10.5 0H13C13.5523 0 14 0.447715 14 1V3.5C14 4.05228 13.5523 4.5 13 4.5H12.0821L11.1833 7.01676C11.648 7.10284 12 7.51031 12 8V10.5C12 11.0523 11.5523 11.5 11 11.5H8.5C7.94772 11.5 7.5 11.0523 7.5 10.5V8.69541L5.62635 6.99209C5.58497 6.99731 5.5428 7 5.5 7H4.23131L3.69167 9.51835C4.15226 9.60776 4.5 10.0133 4.5 10.5V13C4.5 13.5523 4.05228 14 3.5 14H1C0.447715 14 0 13.5523 0 13V10.5C0 9.94771 0.447715 9.5 1 9.5H2.16155L2.70663 6.95628C2.2975 6.83091 2 6.4502 2 6V3.5C2 2.94772 2.44772 2.5 3 2.5H5.5C6.05228 2.5 6.5 2.94772 6.5 3.5V5.75913L8.00743 7.12953C8.15283 7.04707 8.32092 7 8.5 7H9.59646L10.4893 4.49994C9.94196 4.49423 9.5 4.04873 9.5 3.5V1C9.5 0.447715 9.94772 0 10.5 0Z" fill="black"/>
</g>
<defs>
<clipPath id="clip0_1068_186395">
<rect width="14" height="14" fill="white"/>
</clipPath>
</defs>
</svg>
