<svg width="14" height="14" viewBox="0 0 14 14" fill="none" xmlns="http://www.w3.org/2000/svg">
<path fill-rule="evenodd" clip-rule="evenodd" d="M1.75 1.5C1.75 0.671573 2.42157 0 3.25 0H4.75C5.57843 0 6.25 0.671573 6.25 1.5V3C6.25 3.82843 5.57843 4.5 4.75 4.5C4.75 5.09674 4.98705 5.66903 5.40901 6.09099C5.83097 6.51295 6.40326 6.75 7 6.75H8C8 5.92157 8.67157 5.25 9.5 5.25H11C11.8284 5.25 12.5 5.92157 12.5 6.75V8.25C12.5 9.07843 11.8284 9.75 11 9.75H9.5C8.67157 9.75 8 9.07843 8 8.25H7C6.18394 8.25 5.3953 7.984 4.75 7.50002V9.5C5.57843 9.5 6.25 10.1716 6.25 11V12.5C6.25 13.3284 5.57843 14 4.75 14H3.25C2.42157 14 1.75 13.3284 1.75 12.5V11C1.75 10.1716 2.42157 9.5 3.25 9.5V4.5C2.42157 4.5 1.75 3.82843 1.75 3V1.5Z" fill="black"/>
</svg>
