<svg width="14" height="14" viewBox="0 0 14 14" fill="none" xmlns="http://www.w3.org/2000/svg">
<g clip-path="url(#clip0_1068_186383)">
<path fill-rule="evenodd" clip-rule="evenodd" d="M6.5 0.5C5.67157 0.5 5 1.17157 5 2V3C5 3.74325 5.54057 4.36024 6.25 4.47926V6.25H3C2.0335 6.25 1.25 7.0335 1.25 8V9.52074C0.540572 9.63976 0 10.2568 0 11V12C0 12.8284 0.671573 13.5 1.5 13.5H2.5C3.32843 13.5 4 12.8284 4 12V11C4 10.2568 3.45943 9.63976 2.75 9.52074V8C2.75 7.86193 2.86193 7.75 3 7.75H6.25V9.52074C5.54057 9.63976 5 10.2568 5 11V12C5 12.8284 5.67157 13.5 6.5 13.5H7.5C8.32843 13.5 9 12.8284 9 12V11C9 10.2568 8.45943 9.63976 7.75 9.52074V7.75H11C11.1381 7.75 11.25 7.86193 11.25 8V9.52074C10.5406 9.63976 10 10.2568 10 11V12C10 12.8284 10.6716 13.5 11.5 13.5H12.5C13.3284 13.5 14 12.8284 14 12V11C14 10.2568 13.4594 9.63976 12.75 9.52074V8C12.75 7.0335 11.9665 6.25 11 6.25H7.75V4.47926C8.45943 4.36024 9 3.74325 9 3V2C9 1.17157 8.32843 0.5 7.5 0.5H6.5Z" fill="black"/>
</g>
<defs>
<clipPath id="clip0_1068_186383">
<rect width="14" height="14" fill="white"/>
</clipPath>
</defs>
</svg>
