<svg width="14" height="14" viewBox="0 0 14 14" fill="none" xmlns="http://www.w3.org/2000/svg">
<g clip-path="url(#clip0_1068_186410)">
<path fill-rule="evenodd" clip-rule="evenodd" d="M7 0.5L7.40024 0.20032C7.30583 0.0742289 7.15752 0 7 0C6.84248 0 6.69417 0.0742289 6.59976 0.20032L7 0.5ZM11.7175 10.6568C11.9028 10.1294 12 9.5697 12 9C12 8.26038 11.6759 7.33231 11.2508 6.41179C10.8169 5.47212 10.2427 4.46809 9.6749 3.5527C9.10606 2.63561 8.53804 1.79848 8.11267 1.19113C7.89982 0.887228 7.72229 0.640307 7.59774 0.469031C7.53545 0.383381 7.48638 0.316613 7.45274 0.271058L7.4141 0.218916L7.40397 0.205316L7.40129 0.201729L7.40024 0.20032C7.40018 0.200236 7.40024 0.20032 7 0.5C6.59976 0.20032 6.59982 0.200236 6.59976 0.20032L6.59871 0.201729L6.59603 0.205316L6.5859 0.218916L6.54726 0.271058C6.51362 0.316613 6.46455 0.383381 6.40226 0.469031C6.27771 0.640307 6.10018 0.887228 5.88733 1.19113C5.48957 1.75905 4.96708 2.52789 4.43582 3.37516L1.28033 0.21967C0.987437 -0.0732233 0.512563 -0.0732233 0.21967 0.21967C-0.0732233 0.512563 -0.0732233 0.987437 0.21967 1.28033L12.7197 13.7803C13.0126 14.0732 13.4874 14.0732 13.7803 13.7803C14.0732 13.4874 14.0732 13.0126 13.7803 12.7197L11.7175 10.6568ZM3.02749 5.83695L10.1076 12.917C9.22802 13.6149 8.13387 14 7 14C5.67392 14 4.40215 13.4732 3.46447 12.5355C2.52678 11.5979 2 10.3261 2 9C2 8.26038 2.32411 7.33231 2.74919 6.41179C2.83665 6.22237 2.92982 6.03034 3.02749 5.83695Z" fill="black"/>
</g>
<defs>
<clipPath id="clip0_1068_186410">
<rect width="14" height="14" fill="white"/>
</clipPath>
</defs>
</svg>
