<svg width="14" height="14" viewBox="0 0 14 14" fill="none" xmlns="http://www.w3.org/2000/svg">
<g clip-path="url(#clip0_1068_186413)">
<path fill-rule="evenodd" clip-rule="evenodd" d="M7 0C3.13401 0 0 3.13401 0 7C0 10.866 3.13401 14 7 14C10.866 14 14 10.866 14 7C14 3.13401 10.866 0 7 0ZM5.39583 9.62498C5.95962 9.62498 6.41667 9.16794 6.41667 8.60415C6.41667 8.04036 5.95962 7.58331 5.39583 7.58331C4.83204 7.58331 4.375 8.04036 4.375 8.60415C4.375 9.16794 4.83204 9.62498 5.39583 9.62498ZM7.58333 8.60415C7.58333 9.16794 8.04038 9.62498 8.60417 9.62498C9.16796 9.62498 9.625 9.16794 9.625 8.60415C9.625 8.04036 9.16796 7.58331 8.60417 7.58331C8.04038 7.58331 7.58333 8.04036 7.58333 8.60415ZM8.60417 4.37502C8.04038 4.37502 7.58333 4.83206 7.58333 5.39585C7.58333 5.95964 8.04038 6.41669 8.60417 6.41669C9.16796 6.41669 9.625 5.95964 9.625 5.39585C9.625 4.83206 9.16796 4.37502 8.60417 4.37502ZM6.41667 5.39585C6.41667 4.83206 5.95962 4.37502 5.39583 4.37502C4.83204 4.37502 4.375 4.83206 4.375 5.39585C4.375 5.95964 4.83204 6.41669 5.39583 6.41669C5.95962 6.41669 6.41667 5.95964 6.41667 5.39585ZM5.54166 3.41296C5.18697 3.41296 4.89944 3.12543 4.89944 2.77074C4.89944 2.41605 5.18697 2.12861 5.54166 2.12861C5.89635 2.12861 6.18388 2.41605 6.18388 2.77074C6.18388 3.12543 5.89635 3.41296 5.54166 3.41296ZM4.89944 11.2291C4.89944 11.5838 5.18697 11.8713 5.54166 11.8713C5.89635 11.8713 6.18388 11.5838 6.18388 11.2291C6.18388 10.8744 5.89635 10.587 5.54166 10.587C5.18697 10.587 4.89944 10.8744 4.89944 11.2291ZM2.77085 6.18384C2.41616 6.18384 2.12863 5.89631 2.12863 5.54162C2.12863 5.18693 2.41616 4.89948 2.77085 4.89948C3.12554 4.89948 3.41307 5.18693 3.41307 5.54162C3.41307 5.89631 3.12554 6.18384 2.77085 6.18384ZM10.587 5.54162C10.587 5.89631 10.8745 6.18384 11.2292 6.18384C11.5839 6.18384 11.8714 5.89631 11.8714 5.54162C11.8714 5.18693 11.5839 4.89948 11.2292 4.89948C10.8745 4.89948 10.587 5.18693 10.587 5.54162ZM2.77085 9.10052C2.41616 9.10052 2.12863 8.81299 2.12863 8.4583C2.12863 8.10361 2.41616 7.81617 2.77085 7.81617C3.12554 7.81617 3.41307 8.10361 3.41307 8.4583C3.41307 8.81299 3.12554 9.10052 2.77085 9.10052ZM7.81611 2.77074C7.81611 3.12543 8.10364 3.41296 8.45833 3.41296C8.81302 3.41296 9.10056 3.12543 9.10056 2.77074C9.10056 2.41605 8.81302 2.12861 8.45833 2.12861C8.10364 2.12861 7.81611 2.41605 7.81611 2.77074ZM11.2292 9.10052C10.8745 9.10052 10.587 8.81299 10.587 8.4583C10.587 8.10361 10.8745 7.81617 11.2292 7.81617C11.5839 7.81617 11.8714 8.10361 11.8714 8.4583C11.8714 8.81299 11.5839 9.10052 11.2292 9.10052ZM7.81611 11.2291C7.81611 11.5838 8.10364 11.8713 8.45833 11.8713C8.81302 11.8713 9.10056 11.5838 9.10056 11.2291C9.10056 10.8744 8.81302 10.587 8.45833 10.587C8.10364 10.587 7.81611 10.8744 7.81611 11.2291Z" fill="black"/>
</g>
<defs>
<clipPath id="clip0_1068_186413">
<rect width="14" height="14" fill="white"/>
</clipPath>
</defs>
</svg>
