<svg width="14" height="14" viewBox="0 0 14 14" fill="none" xmlns="http://www.w3.org/2000/svg">
<g clip-path="url(#clip0_1068_186416)">
<path fill-rule="evenodd" clip-rule="evenodd" d="M6.99933 0.75L6.46912 0.219549C6.76198 -0.073183 7.23667 -0.073183 7.52954 0.219549L6.99933 0.75ZM6.99933 12.5C6.16179 12.5 4.92721 12.1722 4.203 11.5207C3.45432 10.8472 3.00077 9.9068 2.93952 8.90259C2.94443 8.22927 3.19057 7.4249 3.61501 6.5552C4.03875 5.68692 4.61154 4.81102 5.19696 4.02107C5.78066 3.23343 6.36613 2.54565 6.80638 2.05425C6.87444 1.97829 6.93894 1.90711 6.99933 1.8411V12.5ZM6.99933 0.75C7.52954 0.219549 7.52941 0.219421 7.52954 0.219549L7.53114 0.221157L7.53449 0.224518L7.5463 0.236428L7.58963 0.280513C7.62698 0.318715 7.68089 0.374318 7.74899 0.445789C7.88514 0.588684 8.07829 0.795286 8.30947 1.05332C8.77106 1.56853 9.38807 2.29301 10.0068 3.12797C10.6239 3.96062 11.2536 4.91765 11.7317 5.89732C12.2048 6.86674 12.5592 7.91785 12.5592 8.92308C12.5592 8.93693 12.5588 8.95079 12.5581 8.96462C12.4799 10.3727 11.8474 11.6926 10.7989 12.6359C9.72055 13.6059 8.08574 14 6.99933 14C5.91291 14 4.2781 13.6059 3.19981 12.6359C2.15122 11.6926 1.51871 10.3727 1.4406 8.96462C1.43983 8.95079 1.43945 8.93693 1.43945 8.92308C1.43945 7.91785 1.79387 6.86674 2.26697 5.89732C2.74508 4.91765 3.37476 3.96062 3.99182 3.12797C4.61058 2.29301 5.22759 1.56853 5.68918 1.05332C5.92036 0.795286 6.11351 0.588684 6.24967 0.445789C6.31776 0.374318 6.37167 0.318715 6.40902 0.280513L6.45235 0.236428L6.46416 0.224518L6.46751 0.221157L6.46912 0.219549C6.46925 0.219421 6.46912 0.219549 6.99933 0.75Z" fill="black"/>
</g>
<defs>
<clipPath id="clip0_1068_186416">
<rect width="14" height="14" fill="white"/>
</clipPath>
</defs>
</svg>
