<svg width="14" height="14" viewBox="0 0 14 14" fill="none" xmlns="http://www.w3.org/2000/svg">
<path fill-rule="evenodd" clip-rule="evenodd" d="M4 1.75C3.58579 1.75 3.25 2.08579 3.25 2.5C3.25 2.91421 3.58579 3.25 4 3.25H4.25V10.75H4C3.58579 10.75 3.25 11.0858 3.25 11.5C3.25 11.9142 3.58579 12.25 4 12.25H5H6C6.41421 12.25 6.75 11.9142 6.75 11.5C6.75 11.0858 6.41421 10.75 6 10.75H5.75V3.25H6C6.41421 3.25 6.75 2.91421 6.75 2.5C6.75 2.08579 6.41421 1.75 6 1.75H5H4ZM3 4.50049H1C0.447715 4.50049 0 4.9482 0 5.50049V8.50049C0 9.05277 0.447716 9.50049 1 9.50049H3V4.50049ZM7 9.50049H13C13.5523 9.50049 14 9.05277 14 8.50049V5.50049C14 4.9482 13.5523 4.50049 13 4.50049H7V9.50049Z" fill="black"/>
</svg>
