<svg width="14" height="14" viewBox="0 0 14 14" fill="none" xmlns="http://www.w3.org/2000/svg">
<g clip-path="url(#clip0_1068_186425)">
<path fill-rule="evenodd" clip-rule="evenodd" d="M8.25 0.25C7.83579 0.25 7.5 0.585786 7.5 1C7.5 1.41421 7.83579 1.75 8.25 1.75H13.25C13.6642 1.75 14 1.41421 14 1C14 0.585786 13.6642 0.25 13.25 0.25H8.25ZM0 1.49951C0 0.947227 0.447715 0.499512 1 0.499512H5C5.55228 0.499512 6 0.947227 6 1.49951V5.5C6 6.05228 5.55228 6.5 5 6.5H1C0.447715 6.5 0 6.05228 0 5.5V1.49951ZM0 8.49951C0 7.94723 0.447715 7.49951 1 7.49951H5C5.55228 7.49951 6 7.94723 6 8.49951V12.5C6 13.0523 5.55228 13.5 5 13.5H1C0.447715 13.5 0 13.0523 0 12.5V8.49951ZM7.5 4C7.5 3.58579 7.83579 3.25 8.25 3.25H13.25C13.6642 3.25 14 3.58579 14 4C14 4.41421 13.6642 4.75 13.25 4.75H8.25C7.83579 4.75 7.5 4.41421 7.5 4ZM8.25 6.25C7.83579 6.25 7.5 6.58579 7.5 7C7.5 7.41421 7.83579 7.75 8.25 7.75H13.25C13.6642 7.75 14 7.41421 14 7C14 6.58579 13.6642 6.25 13.25 6.25H8.25ZM7.5 10C7.5 9.58579 7.83579 9.25 8.25 9.25H13.25C13.6642 9.25 14 9.58579 14 10C14 10.4142 13.6642 10.75 13.25 10.75H8.25C7.83579 10.75 7.5 10.4142 7.5 10ZM8.25 12.25C7.83579 12.25 7.5 12.5858 7.5 13C7.5 13.4142 7.83579 13.75 8.25 13.75H13.25C13.6642 13.75 14 13.4142 14 13C14 12.5858 13.6642 12.25 13.25 12.25H8.25Z" fill="black"/>
</g>
<defs>
<clipPath id="clip0_1068_186425">
<rect width="14" height="14" fill="white"/>
</clipPath>
</defs>
</svg>
