<svg width="14" height="14" viewBox="0 0 14 14" fill="none" xmlns="http://www.w3.org/2000/svg">
<g clip-path="url(#clip0_1068_186428)">
<path fill-rule="evenodd" clip-rule="evenodd" d="M9.25 0.25C8.83579 0.25 8.5 0.585786 8.5 1C8.5 1.41421 8.83579 1.75 9.25 1.75H13.25C13.6642 1.75 14 1.41421 14 1C14 0.585786 13.6642 0.25 13.25 0.25H9.25ZM1 0.499512C0.447715 0.499512 0 0.947227 0 1.49951V6.49951C0 7.0518 0.447715 7.49951 1 7.49951H6C6.55228 7.49951 7 7.0518 7 6.49951V1.49951C7 0.947227 6.55228 0.499512 6 0.499512H1ZM8.5 4C8.5 3.58579 8.83579 3.25 9.25 3.25H13.25C13.6642 3.25 14 3.58579 14 4C14 4.41421 13.6642 4.75 13.25 4.75H9.25C8.83579 4.75 8.5 4.41421 8.5 4ZM9.25 6.25C8.83579 6.25 8.5 6.58579 8.5 7C8.5 7.41421 8.83579 7.75 9.25 7.75H13.25C13.6642 7.75 14 7.41421 14 7C14 6.58579 13.6642 6.25 13.25 6.25H9.25ZM0 10C0 9.58579 0.335786 9.25 0.75 9.25H13.25C13.6642 9.25 14 9.58579 14 10C14 10.4142 13.6642 10.75 13.25 10.75H0.75C0.335786 10.75 0 10.4142 0 10ZM0.75 12.25C0.335786 12.25 0 12.5858 0 13C0 13.4142 0.335786 13.75 0.75 13.75H13.25C13.6642 13.75 14 13.4142 14 13C14 12.5858 13.6642 12.25 13.25 12.25H0.75Z" fill="black"/>
</g>
<defs>
<clipPath id="clip0_1068_186428">
<rect width="14" height="14" fill="white"/>
</clipPath>
</defs>
</svg>
