<svg width="14" height="14" viewBox="0 0 14 14" fill="none" xmlns="http://www.w3.org/2000/svg">
<g clip-path="url(#clip0_1068_186431)">
<path fill-rule="evenodd" clip-rule="evenodd" d="M0.75 0.25C0.335786 0.25 0 0.585786 0 1C0 1.41421 0.335786 1.75 0.75 1.75H4.75C5.16421 1.75 5.5 1.41421 5.5 1C5.5 0.585786 5.16421 0.25 4.75 0.25H0.75ZM8 0.499512C7.44772 0.499512 7 0.947227 7 1.49951V6.49951C7 7.0518 7.44772 7.49951 8 7.49951H13C13.5523 7.49951 14 7.0518 14 6.49951V1.49951C14 0.947227 13.5523 0.499512 13 0.499512H8ZM0 4C0 3.58579 0.335786 3.25 0.75 3.25H4.75C5.16421 3.25 5.5 3.58579 5.5 4C5.5 4.41421 5.16421 4.75 4.75 4.75H0.75C0.335786 4.75 0 4.41421 0 4ZM0.75 6.25C0.335786 6.25 0 6.58579 0 7C0 7.41421 0.335786 7.75 0.75 7.75H4.75C5.16421 7.75 5.5 7.41421 5.5 7C5.5 6.58579 5.16421 6.25 4.75 6.25H0.75ZM0 10C0 9.58579 0.335786 9.25 0.75 9.25H13.25C13.6642 9.25 14 9.58579 14 10C14 10.4142 13.6642 10.75 13.25 10.75H0.75C0.335786 10.75 0 10.4142 0 10ZM0.75 12.25C0.335786 12.25 0 12.5858 0 13C0 13.4142 0.335786 13.75 0.75 13.75H13.25C13.6642 13.75 14 13.4142 14 13C14 12.5858 13.6642 12.25 13.25 12.25H0.75Z" fill="black"/>
</g>
<defs>
<clipPath id="clip0_1068_186431">
<rect width="14" height="14" fill="white"/>
</clipPath>
</defs>
</svg>
