<svg width="14" height="14" viewBox="0 0 14 14" fill="none" xmlns="http://www.w3.org/2000/svg">
<g clip-path="url(#clip0_1068_186437)">
<path fill-rule="evenodd" clip-rule="evenodd" d="M1.61492 3.54048C2.10127 3.27879 2.70768 3.4609 2.96937 3.94725C3.1652 4.31117 3.42056 4.64709 3.72493 4.94317C3.75122 4.96564 3.77657 4.98967 3.80084 5.01525C4.60698 5.76234 5.73386 6.2376 7.00053 6.2376C8.26312 6.2376 9.38681 5.7654 10.1924 5.02248C10.2211 4.99166 10.2513 4.96303 10.2828 4.93662C10.5843 4.64214 10.8373 4.30849 11.0317 3.94725C11.2934 3.4609 11.8998 3.27879 12.3861 3.54048C12.8725 3.80218 13.0546 4.40859 12.7929 4.89494C12.6617 5.13871 12.5139 5.37261 12.3509 5.59541L13.6423 6.67774C14.0656 7.03249 14.1212 7.66321 13.7664 8.0865C13.4117 8.50979 12.781 8.56535 12.3577 8.21061L10.918 7.0041C10.562 7.25726 10.1777 7.47626 9.77092 7.65652L10.3877 9.2098C10.5915 9.7231 10.3406 10.3044 9.82731 10.5082C9.31401 10.712 8.73267 10.4611 8.52886 9.94789L7.83013 8.1882C7.55811 8.22082 7.28119 8.2376 7.00053 8.2376C6.71841 8.2376 6.44006 8.22064 6.16666 8.18769L5.46774 9.94789C5.26392 10.4611 4.68258 10.712 4.16928 10.5082C3.65598 10.3044 3.4051 9.7231 3.60891 9.2098L4.22635 7.65484C3.82074 7.4748 3.43756 7.25624 3.08244 7.00371L1.64234 8.21061C1.21905 8.56535 0.588336 8.50979 0.23359 8.0865C-0.121155 7.66321 -0.0655896 7.03249 0.3577 6.67774L1.64979 5.59488C1.48693 5.37223 1.33923 5.13852 1.20816 4.89494C0.946463 4.40859 1.12858 3.80218 1.61492 3.54048Z" fill="black"/>
</g>
<defs>
<clipPath id="clip0_1068_186437">
<rect width="14" height="14" fill="white"/>
</clipPath>
</defs>
</svg>
