<svg width="14" height="14" viewBox="0 0 14 14" fill="none" xmlns="http://www.w3.org/2000/svg">
<g clip-path="url(#clip0_1068_186434)">
<path fill-rule="evenodd" clip-rule="evenodd" d="M0.264592 1.32428C-0.0283014 1.03138 -0.0283014 0.556508 0.264592 0.263615C0.557486 -0.0292779 1.03236 -0.0292779 1.32525 0.263615L3.95386 2.89222C4.8617 2.39338 5.89384 2.04019 7.00094 2.04019C8.53293 2.04019 9.92137 2.71648 11.0356 3.51919C12.1538 4.32481 13.039 5.28882 13.5749 5.9365L13.5794 5.94198C13.8187 6.23977 13.9447 6.61713 13.9447 7.00004C13.9447 7.38295 13.8187 7.76032 13.5794 8.0581L13.5749 8.06359C13.0863 8.65413 12.3072 9.50766 11.326 10.2643L13.7374 12.6756C14.0303 12.9685 14.0303 13.4434 13.7374 13.7363C13.4445 14.0292 12.9696 14.0292 12.6767 13.7363L0.264592 1.32428ZM9.01808 7.95645C9.15579 7.66655 9.23285 7.34226 9.23285 6.99996C9.23285 5.76732 8.23359 4.76806 7.00094 4.76806C6.65865 4.76806 6.33435 4.84511 6.04445 4.98282L9.01808 7.95645ZM0.427028 5.9365C0.746476 5.55041 1.19006 5.05192 1.73312 4.54159L8.83714 11.6456C8.25652 11.8417 7.64127 11.9599 7.00094 11.9599C5.46896 11.9599 4.08052 11.2836 2.96635 10.4809C1.84815 9.67528 0.962921 8.71127 0.427028 8.06359L0.422554 8.0581C0.183239 7.76032 0.057235 7.38295 0.057235 7.00004C0.057235 6.61713 0.183239 6.23977 0.422554 5.94198L0.427028 5.9365Z" fill="black"/>
</g>
<defs>
<clipPath id="clip0_1068_186434">
<rect width="14" height="14" fill="white"/>
</clipPath>
</defs>
</svg>
