<svg width="14" height="14" viewBox="0 0 14 14" fill="none" xmlns="http://www.w3.org/2000/svg">
<g clip-path="url(#clip0_1068_186440)">
<path fill-rule="evenodd" clip-rule="evenodd" d="M0 1C0 0.585786 0.335786 0.25 0.75 0.25H13.25C13.6642 0.25 14 0.585786 14 1C14 1.41421 13.6642 1.75 13.25 1.75H0.75C0.335786 1.75 0 1.41421 0 1ZM3.50003 5.00049C3.50003 4.17206 4.1716 3.50049 5.00003 3.50049H9.00003C9.82846 3.50049 10.5 4.17206 10.5 5.00049V9.00049C10.5 9.82891 9.82846 10.5005 9.00003 10.5005H5.00003C4.1716 10.5005 3.50003 9.82892 3.50003 9.00049V5.00049ZM0.75 12.25C0.335786 12.25 0 12.5858 0 13C0 13.4142 0.335786 13.75 0.75 13.75H13.25C13.6642 13.75 14 13.4142 14 13C14 12.5858 13.6642 12.25 13.25 12.25H0.75Z" fill="black"/>
</g>
<defs>
<clipPath id="clip0_1068_186440">
<rect width="14" height="14" fill="white"/>
</clipPath>
</defs>
</svg>
