<svg width="14" height="14" viewBox="0 0 14 14" fill="none" xmlns="http://www.w3.org/2000/svg">
<path fill-rule="evenodd" clip-rule="evenodd" d="M10.2929 1.29289C10.6834 0.90237 11.3166 0.90237 11.7071 1.29289L13.7071 3.29289C14.0976 3.68342 14.0976 4.31658 13.7071 4.70711C13.3166 5.09763 12.6834 5.09763 12.2929 4.70711L11 3.41421L9.91422 4.50001L11.2071 5.79289C11.5976 6.18342 11.5976 6.81658 11.2071 7.20711C10.8166 7.59763 10.1834 7.59763 9.79289 7.20711L8.50001 5.91422L7.44619 6.96804C7.79807 7.56355 8 8.2582 8 9C8 11.2091 6.20914 13 4 13C1.79086 13 0 11.2091 0 9C0 6.79086 1.79086 5 4 5C4.74181 5 5.43646 5.20193 6.03198 5.55383L7.78929 3.79651L7.79289 3.79289L7.79651 3.78929L10.2929 1.29289ZM2 9C2 7.89543 2.89543 7 4 7C5.10457 7 6 7.89543 6 9C6 10.1046 5.10457 11 4 11C2.89543 11 2 10.1046 2 9Z" fill="black"/>
</svg>
