<svg width="14" height="14" viewBox="0 0 14 14" fill="none" xmlns="http://www.w3.org/2000/svg">
<g clip-path="url(#clip0_1068_186449)">
<path fill-rule="evenodd" clip-rule="evenodd" d="M1.47469 1.87066C2.58067 0.785351 4.34703 0 7 0C9.65297 0 11.4193 0.785351 12.5253 1.87066C13.6165 2.94151 14 4.24304 14 5.16592C14 6.0888 13.6165 7.39034 12.5253 8.46118C11.4193 9.5465 9.65297 10.3318 7 10.3318C6.97894 10.3318 6.95793 10.3318 6.93698 10.3317C7.56342 11.1323 8.01808 11.9847 8.01508 13.247C8.0141 13.6612 7.67752 13.9962 7.2633 13.9952C6.84909 13.9942 6.5141 13.6576 6.51508 13.2434C6.51642 12.6791 6.397 12.2552 6.14608 11.8233C6.0587 12.0806 5.91982 12.3469 5.71269 12.5909C5.27089 13.1111 4.57845 13.4587 3.62308 13.4587C2.66771 13.4587 1.97527 13.1111 1.53348 12.5909C1.11583 12.099 0.975677 11.5161 0.975677 11.0999C0.975677 10.6838 1.11583 10.1008 1.53348 9.60901C1.71576 9.39436 1.94072 9.2091 2.20921 9.06553C1.93744 8.87828 1.69318 8.67558 1.47469 8.46118C0.383463 7.39034 0 6.0888 0 5.16592C0 4.24304 0.383463 2.94151 1.47469 1.87066ZM2.52531 2.94128C1.74154 3.7104 1.5 4.61683 1.5 5.16592C1.5 5.71502 1.74154 6.62144 2.52531 7.39057C3.29433 8.14522 4.65297 8.83185 7 8.83185C9.34703 8.83185 10.7057 8.14522 11.4747 7.39057C12.2585 6.62144 12.5 5.71502 12.5 5.16592C12.5 4.61683 12.2585 3.7104 11.4747 2.94128C10.7057 2.18662 9.34703 1.5 7 1.5C4.65297 1.5 3.29433 2.18662 2.52531 2.94128ZM2.67684 10.58C2.52527 10.7584 2.47568 10.9799 2.47568 11.0999C2.47568 11.22 2.52527 11.4414 2.67684 11.6199C2.80427 11.77 3.06053 11.9587 3.62308 11.9587C4.18564 11.9587 4.4419 11.77 4.56933 11.6199C4.7209 11.4414 4.77049 11.22 4.77049 11.0999C4.77049 10.9799 4.7209 10.7584 4.56933 10.58C4.4419 10.4299 4.18564 10.2412 3.62308 10.2412C3.06053 10.2412 2.80427 10.4299 2.67684 10.58Z" fill="black"/>
</g>
<defs>
<clipPath id="clip0_1068_186449">
<rect width="14" height="14" fill="white"/>
</clipPath>
</defs>
</svg>
