<svg width="14" height="14" viewBox="0 0 14 14" fill="none" xmlns="http://www.w3.org/2000/svg">
<g clip-path="url(#clip0_1068_186452)">
<path fill-rule="evenodd" clip-rule="evenodd" d="M7.00017 0.00231934C6.76995 0.00231934 6.54219 0.0496367 6.33102 0.141334L0.618733 2.80687L0.605006 2.81353C0.429806 2.9019 0.282573 3.03716 0.179703 3.20426C0.076834 3.37136 0.0223665 3.56374 0.0223665 3.75996C0.0223665 3.95619 0.076834 4.14856 0.179703 4.31566C0.282572 4.48276 0.429805 4.61802 0.605006 4.70639L0.620041 4.71366L6.31998 7.35379L6.33102 7.35859C6.54219 7.45028 6.76995 7.4976 7.00017 7.4976C7.23039 7.4976 7.45823 7.45045 7.6694 7.35875L13.3816 4.69305L13.3954 4.68639C13.5706 4.59802 13.7178 4.46276 13.8207 4.29566C13.9235 4.12856 13.978 3.93619 13.978 3.73996C13.978 3.54374 13.9235 3.35136 13.8207 3.18426C13.7178 3.01716 13.5706 2.8819 13.3954 2.79353L13.3803 2.78626L7.68037 0.14613L7.66933 0.141334C7.45816 0.0496367 7.23039 0.00231934 7.00017 0.00231934ZM13.9314 6.89616C14.1047 7.27238 13.9402 7.71785 13.564 7.89116L7.69859 10.5931L7.69604 10.5943C7.47306 10.696 7.23084 10.7486 6.98575 10.7486C6.74067 10.7486 6.49845 10.696 6.27547 10.5942L6.27164 10.5925L0.435105 7.89057C0.0592151 7.71656 -0.104439 7.27077 0.0695721 6.89489C0.243584 6.519 0.689366 6.35534 1.06525 6.52935L6.8992 9.23008C6.92642 9.24228 6.95591 9.24859 6.98575 9.24859C7.01574 9.24859 7.04539 9.24222 7.07272 9.22989L12.9364 6.52876C13.3126 6.35546 13.7581 6.51995 13.9314 6.89616ZM13.564 11.1412C13.9402 10.9679 14.1047 10.5224 13.9314 10.1462C13.7581 9.76995 13.3126 9.60546 12.9364 9.77876L7.07354 12.4795C7.04621 12.4918 7.01574 12.4986 6.98575 12.4986C6.95591 12.4986 6.92642 12.4923 6.8992 12.4801L1.06525 9.77935C0.689366 9.60534 0.243583 9.769 0.0695721 10.1449C-0.104439 10.5208 0.0592152 10.9666 0.435105 11.1406L6.27164 13.8425L6.27547 13.8442C6.49845 13.946 6.74067 13.9986 6.98575 13.9986C7.23084 13.9986 7.47306 13.946 7.69604 13.8443L7.69859 13.8431L13.564 11.1412Z" fill="black"/>
</g>
<defs>
<clipPath id="clip0_1068_186452">
<rect width="14" height="14" fill="white"/>
</clipPath>
</defs>
</svg>
