<svg width="14" height="14" viewBox="0 0 14 14" fill="none" xmlns="http://www.w3.org/2000/svg">
<path fill-rule="evenodd" clip-rule="evenodd" d="M6.5 1C5.67157 1 5 1.67157 5 2.5V6.5C5 7.32843 5.67157 8 6.5 8H12.5C13.3284 8 14 7.32843 14 6.5V2.5C14 1.67157 13.3284 1 12.5 1H6.5ZM3.25015 3.00085C3.66437 3.00085 4.00015 3.33664 4.00015 3.75085V8.75085C4.00015 8.88893 4.11208 9.00085 4.25015 9.00085H11.2502C11.6644 9.00085 12.0002 9.33664 12.0002 9.75085C12.0002 10.1651 11.6644 10.5009 11.2502 10.5009H4.25015C3.28365 10.5009 2.50015 9.71735 2.50015 8.75085V3.75085C2.50015 3.33664 2.83594 3.00085 3.25015 3.00085ZM0.75 5.50024C1.16421 5.50024 1.5 5.83603 1.5 6.25024V11.2502C1.5 11.3883 1.61193 11.5002 1.75 11.5002H8.75C9.16421 11.5002 9.5 11.836 9.5 12.2502C9.5 12.6645 9.16421 13.0002 8.75 13.0002H1.75C0.783502 13.0002 0 12.2167 0 11.2502V6.25024C0 5.83603 0.335786 5.50024 0.75 5.50024Z" fill="black"/>
</svg>
