<svg width="14" height="14" viewBox="0 0 14 14" fill="none" xmlns="http://www.w3.org/2000/svg">
<path fill-rule="evenodd" clip-rule="evenodd" d="M9.5 9.33109C10.9945 8.46657 12 6.85071 12 5C12 2.23858 9.76142 0 7 0C4.23858 0 2 2.23858 2 5C2 6.85071 3.0055 8.46657 4.5 9.33109V10.5C4.5 11.0523 4.94772 11.5 5.5 11.5H8.5C9.05228 11.5 9.5 11.0523 9.5 10.5V9.33109ZM4.5 13.25C4.5 12.8358 4.83579 12.5 5.25 12.5H8.75C9.16421 12.5 9.5 12.8358 9.5 13.25C9.5 13.6642 9.16421 14 8.75 14H5.25C4.83579 14 4.5 13.6642 4.5 13.25Z" fill="black"/>
</svg>
