<svg width="14" height="14" viewBox="0 0 14 14" fill="none" xmlns="http://www.w3.org/2000/svg">
<g clip-path="url(#clip0_1068_186473)">
<path fill-rule="evenodd" clip-rule="evenodd" d="M4.41034 12.9615C4.74631 13.1216 5.11378 13.2047 5.48596 13.2047H10.832C12.0637 13.2047 13.1118 12.3077 13.302 11.0909L13.9279 7.08756C14.1175 5.87456 13.1796 4.77864 11.9519 4.77864H8.66816V2.42102C8.66816 1.52342 7.94051 0.795776 7.04291 0.795776C6.45461 0.795776 5.91223 1.11369 5.62482 1.62701L3.54748 5.33708C3.42211 5.56098 3.35628 5.81329 3.35628 6.0699V11.5124C3.35628 12.0907 3.6888 12.6176 4.21091 12.8664L4.41034 12.9615ZM1.04323 5.52032C0.778981 5.52032 0.525554 5.62529 0.338701 5.81214C0.151848 5.999 0.046875 6.25242 0.046875 6.51667L0.0468755 11.6293C0.0468755 11.8936 0.151848 12.147 0.338701 12.3339C0.525553 12.5207 0.77898 12.6257 1.04323 12.6257L1.5398 12.6255C1.81586 12.6254 2.03958 12.4015 2.03958 12.1255V6.02011C2.03958 5.88746 1.98687 5.76025 1.89306 5.66648C1.79924 5.5727 1.67201 5.52005 1.53937 5.52011L1.04323 5.52032Z" fill="black"/>
</g>
<defs>
<clipPath id="clip0_1068_186473">
<rect width="14" height="14" fill="white"/>
</clipPath>
</defs>
</svg>
