<svg width="14" height="14" viewBox="0 0 14 14" fill="none" xmlns="http://www.w3.org/2000/svg">
<g clip-path="url(#clip0_1068_186476)">
<path fill-rule="evenodd" clip-rule="evenodd" d="M7.6715 2.7426L6.70715 3.70707C6.31665 4.09761 5.68348 4.09765 5.29293 3.70715C4.90239 3.31665 4.90235 2.68348 5.29285 2.29293L6.25721 1.32847C8.02845 -0.44277 10.9002 -0.44281 12.6715 1.32843C14.4427 3.09965 14.4427 5.97136 12.6715 7.7426L11.7071 8.70707C11.3166 9.09761 10.6835 9.09765 10.2929 8.70715C9.90239 8.31664 9.90235 7.68348 10.2929 7.29293L11.2572 6.32847C12.2474 5.33828 12.2474 3.73283 11.2572 2.74264C10.2671 1.75247 8.66169 1.75245 7.6715 2.7426ZM3.70696 5.29285C4.0975 5.68335 4.09754 6.31652 3.70704 6.70707L2.74268 7.67153C1.75249 8.66172 1.75245 10.2672 2.74264 11.2574C3.73282 12.2475 5.33819 12.2475 6.32839 11.2574L7.29274 10.2929C7.68324 9.90239 8.31641 9.90235 8.70696 10.2929C9.0975 10.6834 9.09754 11.3165 8.70704 11.7071L7.74268 12.6715C5.97144 14.4427 3.09966 14.4428 1.32843 12.6716C-0.442797 10.9003 -0.44281 8.02864 1.32839 6.2574L2.29274 5.29293C2.68324 4.90239 3.31641 4.90235 3.70696 5.29285ZM9.20711 6.20711C9.59763 5.81658 9.59763 5.18342 9.20711 4.79289C8.81658 4.40237 8.18342 4.40237 7.79289 4.79289L4.79289 7.79289C4.40237 8.18342 4.40237 8.81658 4.79289 9.20711C5.18342 9.59763 5.81658 9.59763 6.20711 9.20711L9.20711 6.20711Z" fill="black"/>
</g>
<defs>
<clipPath id="clip0_1068_186476">
<rect width="14" height="14" fill="white"/>
</clipPath>
</defs>
</svg>
