<svg width="14" height="14" viewBox="0 0 14 14" fill="none" xmlns="http://www.w3.org/2000/svg">
<g clip-path="url(#clip0_1068_186479)">
<path fill-rule="evenodd" clip-rule="evenodd" d="M8.09003 0.0844444C7.6808 0.0204002 7.29713 0.300231 7.23309 0.709463C7.16904 1.1187 7.44887 1.50236 7.85811 1.56641C10.4879 1.97797 12.5 4.25469 12.5 6.99996C12.5 10.0375 10.0375 12.5 6.99997 12.5C4.6786 12.5 2.69136 11.0616 1.88441 9.02466C1.73185 8.63956 1.29599 8.45106 0.910896 8.60362C0.525801 8.75618 0.337297 9.19204 0.489859 9.57713C1.5157 12.1665 4.04281 14 6.99997 14C10.866 14 14 10.866 14 6.99996C14 3.50439 11.4385 0.608473 8.09003 0.0844444ZM6.16381 0.661431C6.26706 1.06257 6.02557 1.47146 5.62443 1.5747C5.37182 1.63972 5.12624 1.72225 4.88902 1.82094C4.50659 1.98005 4.06758 1.79901 3.90847 1.41657C3.74936 1.03413 3.9304 0.595125 4.31284 0.436017C4.61525 0.310202 4.92841 0.204957 5.25054 0.122047C5.65168 0.0188006 6.06057 0.260291 6.16381 0.661431ZM3.18519 1.89415C3.4737 2.19136 3.46666 2.66618 3.16945 2.9547C2.79826 3.31504 2.47784 3.72709 2.21985 4.17896C2.01447 4.53868 1.55638 4.66379 1.19667 4.45842C0.836952 4.25304 0.711835 3.79495 0.91721 3.43523C1.24561 2.86004 1.65306 2.33621 2.12465 1.87841C2.42185 1.5899 2.89667 1.59695 3.18519 1.89415ZM0.916166 5.27863C1.32633 5.33644 1.61196 5.7158 1.55415 6.12596C1.51849 6.37895 1.5 6.63783 1.5 6.90145C1.5 7.31566 1.16421 7.65145 0.75 7.65145C0.335786 7.65145 0 7.31566 0 6.90145C0 6.56758 0.0234281 6.23875 0.0688322 5.91661C0.126642 5.50645 0.506007 5.22082 0.916166 5.27863ZM4.5 8.88191V5.11797C4.5 4.37459 5.28231 3.8911 5.94721 4.22355L9.71115 6.10551C10.4482 6.47404 10.4482 7.52584 9.71114 7.89437L5.94721 9.77633C5.28231 10.1088 4.5 9.62529 4.5 8.88191Z" fill="black"/>
</g>
<defs>
<clipPath id="clip0_1068_186479">
<rect width="14" height="14" fill="white"/>
</clipPath>
</defs>
</svg>
