<svg width="14" height="14" viewBox="0 0 14 14" fill="none" xmlns="http://www.w3.org/2000/svg">
<g clip-path="url(#clip0_1068_186482)">
<path fill-rule="evenodd" clip-rule="evenodd" d="M1.5 7C1.5 3.96243 3.96243 1.5 7 1.5C8.75084 1.5 10.3115 2.31796 11.3193 3.59456L10.3536 4.56034C10.0386 4.87533 10.2617 5.4139 10.7071 5.4139H13.5C13.7761 5.4139 14 5.19004 14 4.9139V2.121C14 1.67555 13.4614 1.45247 13.1464 1.76745L12.3856 2.52829C11.1022 0.984301 9.16644 0 7 0C3.13401 0 0 3.13401 0 7C0 10.866 3.13401 14 7 14C10.311 14 13.0834 11.702 13.8127 8.61473C13.9079 8.21161 13.6583 7.80762 13.2552 7.7124C12.8521 7.61717 12.4481 7.86677 12.3528 8.26989C11.7799 10.6955 9.59975 12.5 7 12.5C3.96243 12.5 1.5 10.0376 1.5 7Z" fill="black"/>
<path fill-rule="evenodd" clip-rule="evenodd" d="M6.125 5.8125C6.125 5.32925 6.51675 4.9375 7 4.9375C7.48325 4.9375 7.875 5.32925 7.875 5.8125V6.3125H6.125V5.8125ZM4.875 6.53183V5.8125C4.875 4.63889 5.82639 3.6875 7 3.6875C8.17361 3.6875 9.125 4.6389 9.125 5.8125V6.53183C9.35362 6.71509 9.5 6.9967 9.5 7.3125V9.3125C9.5 9.86478 9.05228 10.3125 8.5 10.3125H5.5C4.94772 10.3125 4.5 9.86478 4.5 9.3125V7.3125C4.5 6.9967 4.64638 6.71509 4.875 6.53183Z" fill="black"/>
</g>
<defs>
<clipPath id="clip0_1068_186482">
<rect width="14" height="14" fill="white"/>
</clipPath>
</defs>
</svg>
