<svg width="14" height="14" viewBox="0 0 14 14" fill="none" xmlns="http://www.w3.org/2000/svg">
<g clip-path="url(#clip0_1068_186486)">
<path fill-rule="evenodd" clip-rule="evenodd" d="M0 1.5C0 0.671573 0.671573 0 1.5 0H8.5C9.32843 0 10 0.671573 10 1.5V4.74998H9.48437C9.39557 4.04357 8.9348 3.42953 8.26537 3.15224C7.51802 2.84268 6.65778 3.01379 6.08579 3.58578L4.08579 5.58578C3.30474 6.36683 3.30474 7.63316 4.08579 8.41421L6.08579 10.4142C6.65778 10.9862 7.51802 11.1573 8.26537 10.8478C8.93481 10.5705 9.39559 9.9564 9.48437 9.24998H10V12.5C10 13.3284 9.32843 14 8.5 14H1.5C0.671573 14 0 13.3284 0 12.5V1.5ZM7.78701 4.30711C8.06727 4.4232 8.25 4.69668 8.25 5.00002V6.00002H13C13.5523 6.00002 14 6.44774 14 7.00002C14 7.55231 13.5523 8.00002 13 8.00002H8.25V9.00002C8.25 9.30337 8.06727 9.57685 7.78701 9.69293C7.50676 9.80902 7.18417 9.74485 6.96967 9.53035L4.96967 7.53035C4.67678 7.23746 4.67678 6.76258 4.96967 6.46969L6.96967 4.46969C7.18417 4.25519 7.50676 4.19103 7.78701 4.30711Z" fill="black"/>
</g>
<defs>
<clipPath id="clip0_1068_186486">
<rect width="14" height="14" fill="white"/>
</clipPath>
</defs>
</svg>
