<svg width="14" height="14" viewBox="0 0 14 14" fill="none" xmlns="http://www.w3.org/2000/svg">
<g clip-path="url(#clip0_1068_186489)">
<path fill-rule="evenodd" clip-rule="evenodd" d="M0 1.5C0 0.671573 0.671573 0 1.5 0H8.5C9.32843 0 10 0.671573 10 1.5V3.43863C9.59736 3.76102 9.33093 4.23053 9.26563 4.74998H5.75C4.50736 4.74998 3.5 5.75733 3.5 6.99998C3.5 8.24262 4.50736 9.24998 5.75 9.24998H9.26563C9.33091 9.76944 9.59735 10.239 10 10.5614V12.5C10 13.3284 9.32843 14 8.5 14H1.5C0.671573 14 0 13.3284 0 12.5V1.5ZM10.963 4.30711C10.6827 4.4232 10.5 4.69668 10.5 5.00002V6.00002H5.75C5.19772 6.00002 4.75 6.44774 4.75 7.00002C4.75 7.55231 5.19772 8.00002 5.75 8.00002H10.5V9.00002C10.5 9.30337 10.6827 9.57685 10.963 9.69293C11.2432 9.80902 11.5658 9.74485 11.7803 9.53035L13.7803 7.53035C14.0732 7.23746 14.0732 6.76258 13.7803 6.46969L11.7803 4.46969C11.5658 4.25519 11.2432 4.19103 10.963 4.30711Z" fill="black"/>
</g>
<defs>
<clipPath id="clip0_1068_186489">
<rect width="14" height="14" fill="white"/>
</clipPath>
</defs>
</svg>
