<svg width="14" height="14" viewBox="0 0 14 14" fill="none" xmlns="http://www.w3.org/2000/svg">
<path fill-rule="evenodd" clip-rule="evenodd" d="M3.56296 4.88361C3.2841 4.85707 3.00286 4.89207 2.73946 4.98598C2.47609 5.07989 2.23734 5.23028 2.04015 5.426C1.84297 5.6217 1.69221 5.85786 1.59827 6.11739C1.57041 6.19439 1.539 6.3867 1.51934 6.62841C1.49866 6.88266 1.49866 7.11734 1.51934 7.37159C1.539 7.61331 1.57041 7.80561 1.59827 7.88261C1.69221 8.14214 1.84297 8.3783 2.04015 8.574C2.23734 8.76972 2.47609 8.92011 2.73946 9.01402C3.00286 9.10793 3.2841 9.14293 3.56296 9.11639C3.58658 9.11414 3.6103 9.11301 3.63404 9.11301C4.00691 9.11301 4.41304 8.91372 4.90476 8.43237C5.2964 8.04899 5.67512 7.55448 6.07646 7C5.67512 6.44552 5.2964 5.95101 4.90476 5.56763C4.41304 5.08628 4.00691 4.88699 3.63404 4.88699C3.6103 4.88699 3.58658 4.88586 3.56296 4.88361ZM6.99942 8.27712C6.67054 8.71529 6.32245 9.14365 5.95406 9.50427C5.35677 10.089 4.60288 10.5998 3.67045 10.6128C3.18454 10.654 2.69516 10.5907 2.2357 10.4269C1.76529 10.2592 1.33762 9.99012 0.983484 9.63864C0.629332 9.28714 0.357494 8.86188 0.187825 8.39313C0.0838904 8.10598 0.0434832 7.72935 0.0242764 7.49317C0.010964 7.32947 -0.000303008 7.16441 6.21798e-06 6.99999C0.000315499 6.83555 0.0109553 6.67063 0.0242764 6.50683C0.0434832 6.27065 0.0838904 5.89402 0.187825 5.60687C0.357494 5.13812 0.629332 4.71286 0.983484 4.36136C1.33762 4.00988 1.76529 3.74083 2.2357 3.57311C2.69516 3.40928 3.18454 3.34598 3.67045 3.38724C4.60288 3.40024 5.35677 3.91104 5.95406 4.49573C6.32245 4.85635 6.67054 5.28471 6.99942 5.72288C7.3283 5.28471 7.67639 4.85635 8.04478 4.49573C8.64207 3.91104 9.39596 3.40024 10.3284 3.38724C10.8143 3.34598 11.3037 3.40928 11.7631 3.57311C12.2335 3.74083 12.6612 4.00988 13.0153 4.36136C13.3695 4.71286 13.6413 5.13812 13.811 5.60687C13.9149 5.89402 13.9553 6.27065 13.9745 6.50683C13.9879 6.67057 13.9988 6.83557 13.9991 6.99997C13.9993 7.16437 13.9879 7.3295 13.9745 7.49317C13.9553 7.72935 13.9149 8.10598 13.811 8.39313C13.6413 8.86188 13.3695 9.28714 13.0153 9.63864C12.6612 9.99012 12.2335 10.2592 11.7631 10.4269C11.3037 10.5907 10.8143 10.654 10.3284 10.6128C9.39596 10.5998 8.64207 10.089 8.04478 9.50427C7.67639 9.14365 7.3283 8.71529 6.99942 8.27712ZM12.4795 7.37159C12.4598 7.61331 12.4284 7.80561 12.4005 7.88261C12.3066 8.14214 12.1558 8.3783 11.9587 8.574C11.7615 8.76972 11.5227 8.92011 11.2594 9.01402C10.996 9.10793 10.7147 9.14293 10.4359 9.11639C10.4122 9.11414 10.3885 9.11301 10.3648 9.11301C9.99193 9.11301 9.5858 8.91372 9.09408 8.43237C8.70244 8.04899 8.32372 7.55448 7.92238 7C8.32372 6.44552 8.70244 5.95101 9.09408 5.56763C9.5858 5.08628 9.99193 4.88699 10.3648 4.88699C10.3885 4.88699 10.4122 4.88586 10.4359 4.88361C10.7147 4.85707 10.996 4.89207 11.2594 4.98598C11.5227 5.07989 11.7615 5.23028 11.9587 5.426C12.1558 5.6217 12.3066 5.85786 12.4005 6.11739C12.4284 6.19439 12.4598 6.3867 12.4795 6.62841C12.5002 6.88266 12.5002 7.11734 12.4795 7.37159Z" fill="black"/>
</svg>
