<svg width="14" height="14" viewBox="0 0 14 14" fill="none" xmlns="http://www.w3.org/2000/svg">
<g clip-path="url(#clip0_1068_186495)">
<path fill-rule="evenodd" clip-rule="evenodd" d="M12.3499 3.82378L13.1899 1.34378C13.2149 1.27266 13.2193 1.19592 13.2025 1.12241C13.1858 1.0489 13.1487 0.981616 13.0954 0.92831C13.0421 0.875003 12.9748 0.837845 12.9013 0.82112C12.8278 0.804395 12.751 0.808784 12.6799 0.83378L10.1999 1.67378C10.1387 1.69533 10.0732 1.70203 10.0089 1.69334C9.94455 1.68465 9.8832 1.66081 9.82989 1.62378L7.72989 0.05378C7.67028 0.0192874 7.60277 0.000770998 7.5339 2.35619e-05C7.46504 -0.000723874 7.39714 0.016323 7.33679 0.0495137C7.27645 0.0827043 7.22569 0.130914 7.18945 0.189475C7.1532 0.248036 7.13268 0.314965 7.12989 0.38378V3.00378C7.128 3.06799 7.11175 3.13096 7.08234 3.18807C7.05292 3.24518 7.01108 3.29497 6.95989 3.33378L4.81989 4.84378C4.7585 4.8866 4.71036 4.94579 4.68094 5.01461C4.65152 5.08343 4.642 5.15912 4.65346 5.23309C4.66492 5.30705 4.6969 5.37631 4.74577 5.43301C4.79463 5.4897 4.85843 5.53154 4.92989 5.55378L7.42989 6.33378C7.49169 6.35158 7.54796 6.38477 7.59343 6.43024C7.63891 6.47571 7.67209 6.53198 7.68989 6.59378L8.46989 9.09378C8.49213 9.16525 8.53397 9.22904 8.59066 9.2779C8.64736 9.32677 8.71662 9.35875 8.79058 9.37021C8.86455 9.38167 8.94024 9.37215 9.00906 9.34273C9.07788 9.3133 9.13707 9.26517 9.17989 9.20378L10.6399 7.10378C10.6787 7.05259 10.7285 7.01075 10.7856 6.98134C10.8427 6.95192 10.9057 6.93567 10.9699 6.93378H13.5899C13.665 6.93568 13.7392 6.91637 13.8038 6.87807C13.8685 6.83977 13.9211 6.78402 13.9555 6.71722C13.99 6.65042 14.0049 6.57527 13.9986 6.50038C13.9923 6.42549 13.965 6.35389 13.9199 6.29378L12.3499 4.19378C12.3209 4.13642 12.3058 4.07305 12.3058 4.00878C12.3058 3.94451 12.3209 3.88114 12.3499 3.82378ZM0.292893 12.2929L5.53407 7.05176L6.63002 7.39369L6.9607 8.45356L1.70711 13.7072C1.31658 14.0977 0.683417 14.0977 0.292893 13.7072C-0.097631 13.3166 -0.097631 12.6835 0.292893 12.2929Z" fill="black"/>
</g>
<defs>
<clipPath id="clip0_1068_186495">
<rect width="14" height="14" fill="white"/>
</clipPath>
</defs>
</svg>
