<svg width="14" height="14" viewBox="0 0 14 14" fill="none" xmlns="http://www.w3.org/2000/svg">
<g clip-path="url(#clip0_1068_186498)">
<path fill-rule="evenodd" clip-rule="evenodd" d="M14 7C14 10.866 10.866 14 7 14C3.13401 14 0 10.866 0 7C0 3.13401 3.13401 0 7 0C10.866 0 14 3.13401 14 7ZM6.5 4.625C5.46447 4.625 4.625 5.46447 4.625 6.5C4.625 7.53553 5.46447 8.375 6.5 8.375C7.53553 8.375 8.375 7.53553 8.375 6.5C8.375 5.46447 7.53553 4.625 6.5 4.625ZM3.375 6.5C3.375 4.77411 4.77411 3.375 6.5 3.375C8.22589 3.375 9.625 4.77411 9.625 6.5C9.625 7.13693 9.43445 7.72935 9.10725 8.22337L10.4419 9.55806C10.686 9.80214 10.686 10.1979 10.4419 10.4419C10.1979 10.686 9.80214 10.686 9.55806 10.4419L8.22337 9.10725C7.72935 9.43445 7.13693 9.625 6.5 9.625C4.77411 9.625 3.375 8.22589 3.375 6.5Z" fill="black"/>
</g>
<defs>
<clipPath id="clip0_1068_186498">
<rect width="14" height="14" fill="white"/>
</clipPath>
</defs>
</svg>
