<svg width="14" height="14" viewBox="0 0 14 14" fill="none" xmlns="http://www.w3.org/2000/svg">
<g clip-path="url(#clip0_1068_186501)">
<path fill-rule="evenodd" clip-rule="evenodd" d="M2 6C2 3.79086 3.79086 2 6 2C8.20914 2 10 3.79086 10 6C10 8.20914 8.20914 10 6 10C3.79086 10 2 8.20914 2 6ZM6 0C2.68629 0 0 2.68629 0 6C0 9.31371 2.68629 12 6 12C7.29578 12 8.49562 11.5892 9.47642 10.8908L12.2929 13.7073C12.6834 14.0978 13.3166 14.0978 13.7071 13.7073C14.0976 13.3168 14.0976 12.6836 13.7071 12.2931L10.8907 9.47665C11.5892 8.49581 12 7.29588 12 6C12 2.68629 9.31371 0 6 0Z" fill="black"/>
</g>
<defs>
<clipPath id="clip0_1068_186501">
<rect width="14" height="14" fill="white"/>
</clipPath>
</defs>
</svg>
