<svg width="14" height="14" viewBox="0 0 14 14" fill="none" xmlns="http://www.w3.org/2000/svg">
<path fill-rule="evenodd" clip-rule="evenodd" d="M12 10.75H11.75V12.5H12C12.4142 12.5 12.75 12.8358 12.75 13.25C12.75 13.6642 12.4142 14 12 14H11H3.625C2.31332 14 1.25 12.9367 1.25 11.625V2.25C1.25 1.00736 2.25736 0 3.5 0H10.5C11.7426 0 12.75 1.00736 12.75 2.25V10C12.75 10.4142 12.4142 10.75 12 10.75ZM3.625 10.75H10.25V12.5H3.625C3.14175 12.5 2.75 12.1082 2.75 11.625C2.75 11.1418 3.14175 10.75 3.625 10.75ZM7.1707 2.8287C7.00097 2.79494 6.82504 2.81227 6.66515 2.8785C6.50527 2.94472 6.36861 3.05687 6.27246 3.20077C6.17632 3.34466 6.125 3.51383 6.125 3.68689C6.125 4.03207 5.84518 4.31189 5.5 4.31189C5.15482 4.31189 4.875 4.03207 4.875 3.68689C4.875 3.2666 4.99963 2.85576 5.23313 2.5063C5.46663 2.15685 5.7985 1.88448 6.1868 1.72365C6.57509 1.56281 7.00236 1.52073 7.41457 1.60272C7.82678 1.68472 8.20542 1.8871 8.5026 2.18429C8.79979 2.48147 9.00218 2.86011 9.08417 3.27232C9.16616 3.68453 9.12408 4.1118 8.96324 4.50009C8.80241 4.88839 8.53004 5.22027 8.18059 5.45376C8.00802 5.56907 7.82048 5.65782 7.62423 5.71814C7.60795 6.0488 7.3347 6.31189 7 6.31189C6.65482 6.31189 6.375 6.03207 6.375 5.68689V5.18689C6.375 4.84171 6.65482 4.56189 7 4.56189C7.17306 4.56189 7.34223 4.51057 7.48612 4.41443C7.63002 4.31828 7.74217 4.18162 7.80839 4.02174C7.87462 3.86185 7.89195 3.68592 7.85819 3.51619C7.82443 3.34645 7.74109 3.19054 7.61872 3.06817C7.49635 2.9458 7.34044 2.86247 7.1707 2.8287ZM7 8.88371C6.51675 8.88371 6.125 8.49196 6.125 8.00871C6.125 7.52546 6.51675 7.13371 7 7.13371C7.48325 7.13371 7.875 7.52546 7.875 8.00871C7.875 8.49196 7.48325 8.88371 7 8.88371Z" fill="black"/>
</svg>
