<svg width="14" height="14" viewBox="0 0 14 14" fill="none" xmlns="http://www.w3.org/2000/svg">
<g clip-path="url(#clip0_1068_186507)">
<path fill-rule="evenodd" clip-rule="evenodd" d="M5.25 3.49994L11.9563 0.794702C12.9396 0.412306 14 1.13767 14 2.19271V10.4188C14 11.4426 12.997 12.1656 12.0257 11.8418L5.25 9.49994V3.49994ZM3 3.5H4V9V9.5V10.5C4 11.0523 4.44772 11.5 5 11.5H5.5C6.05228 11.5 6.5 11.9477 6.5 12.5C6.5 13.0523 6.05228 13.5 5.5 13.5H5C3.34315 13.5 2 12.1569 2 10.5V9.32929C0.834808 8.91746 0 7.80622 0 6.5C0 4.84315 1.34315 3.5 3 3.5Z" fill="black"/>
</g>
<defs>
<clipPath id="clip0_1068_186507">
<rect width="14" height="14" fill="white"/>
</clipPath>
</defs>
</svg>
