<svg width="14" height="14" viewBox="0 0 14 14" fill="none" xmlns="http://www.w3.org/2000/svg">
<g clip-path="url(#clip0_1068_186510)">
<path fill-rule="evenodd" clip-rule="evenodd" d="M0 2.5C0 1.11929 1.11929 0 2.5 0H11.5C12.8807 0 14 1.11929 14 2.5V11.5C14 12.8807 12.8807 14 11.5 14H7C6.44772 14 6 13.5523 6 13C6 12.4477 6.44772 12 7 12H11.5C11.7761 12 12 11.7761 12 11.5V2.5C12 2.22386 11.7761 2 11.5 2H2.5C2.22386 2 2 2.22386 2 2.5V7C2 7.55228 1.55228 8 1 8C0.447715 8 0 7.55228 0 7V2.5ZM4.46194 13.6913C4.38455 13.8782 4.20223 14 4 14H0.5C0.223857 14 0 13.7761 0 13.5V10C0 9.79777 0.121821 9.61545 0.308659 9.53806C0.495496 9.46067 0.710555 9.50345 0.853553 9.64645L1.89645 10.6893L6.29289 6.29289C6.68342 5.90237 7.31658 5.90237 7.70711 6.29289C8.09763 6.68342 8.09763 7.31658 7.70711 7.70711L3.31066 12.1036L4.35355 13.1464C4.49655 13.2894 4.53933 13.5045 4.46194 13.6913Z" fill="black"/>
</g>
<defs>
<clipPath id="clip0_1068_186510">
<rect width="14" height="14" fill="white"/>
</clipPath>
</defs>
</svg>
