<svg width="14" height="14" viewBox="0 0 14 14" fill="none" xmlns="http://www.w3.org/2000/svg">
<g clip-path="url(#clip0_1068_186513)">
<path fill-rule="evenodd" clip-rule="evenodd" d="M10.8432 1.24906C11.0491 1.0431 11.0956 0.757043 11.035 0.527976C10.9707 0.284913 10.7444 0.00432106 10.3606 0.0187206C9.53081 0.0498497 8.70882 0.381748 8.0741 1.0138C7.41058 1.64165 7.03948 2.3451 6.92084 3.05248C7.07967 3.10378 7.23678 3.16155 7.39178 3.22576C8.53382 3.6988 9.50994 4.49988 10.1967 5.52769C10.4545 5.91352 10.6672 6.3248 10.8323 6.75344C10.8873 6.75123 10.943 6.75008 10.9982 6.75H11C11.1438 6.75 11.2868 6.75729 11.4286 6.77165C11.9315 6.60569 12.431 6.31334 12.9 5.87039L12.9103 5.86041C13.5457 5.22499 13.8794 4.40076 13.9106 3.56872C13.925 3.1849 13.6444 2.95857 13.4013 2.89429C13.1723 2.83371 12.8862 2.88019 12.6802 3.08615C12.1729 3.59345 11.3505 3.59345 10.8432 3.08615C10.3359 2.57885 10.3359 1.75636 10.8432 1.24906ZM4.02455 4.09608C4.99446 3.90315 5.99979 4.00217 6.91342 4.3806C7.82705 4.75904 8.60794 5.3999 9.15735 6.22215C9.55648 6.81949 9.82041 7.49306 9.93494 8.196C10.2729 8.0677 10.6333 8.00049 10.9993 8C11.795 8 12.5587 8.31607 13.1213 8.87868C13.6839 9.44129 14 10.2044 14 11C14 11.7957 13.6839 12.5587 13.1213 13.1213C12.5587 13.6839 11.7957 14 11 14H5C4.0111 14 3.0444 13.7068 2.22215 13.1574C1.39991 12.6079 0.759043 11.827 0.380605 10.9134C0.00216636 9.99979 -0.0968502 8.99446 0.0960758 8.02455C0.289002 7.05465 0.765206 6.16373 1.46447 5.46447C2.16373 4.76521 3.05465 4.289 4.02455 4.09608Z" fill="black"/>
</g>
<defs>
<clipPath id="clip0_1068_186513">
<rect width="14" height="14" fill="white"/>
</clipPath>
</defs>
</svg>
