<svg width="14" height="14" viewBox="0 0 14 14" fill="none" xmlns="http://www.w3.org/2000/svg">
<g clip-path="url(#clip0_1068_186516)">
<path fill-rule="evenodd" clip-rule="evenodd" d="M10 0C9.17157 0 8.5 0.671573 8.5 1.5V12.5C8.5 13.3284 9.17157 14 10 14H12.5C13.3284 14 14 13.3284 14 12.5V1.5C14 0.671573 13.3284 0 12.5 0H10ZM3.5 4.5C3.5 4.29777 3.37818 4.11545 3.19134 4.03806C3.0045 3.96067 2.78945 4.00345 2.64645 4.14645L0.146447 6.64645C-0.0488156 6.84171 -0.0488156 7.15829 0.146447 7.35355L2.64645 9.85355C2.78945 9.99655 3.0045 10.0393 3.19134 9.96194C3.37818 9.88455 3.5 9.70223 3.5 9.5V8H6.5C7.05228 8 7.5 7.55228 7.5 7C7.5 6.44772 7.05228 6 6.5 6H3.5V4.5Z" fill="black"/>
</g>
<defs>
<clipPath id="clip0_1068_186516">
<rect width="14" height="14" fill="white"/>
</clipPath>
</defs>
</svg>
