<svg width="14" height="14" viewBox="0 0 14 14" fill="none" xmlns="http://www.w3.org/2000/svg">
<g clip-path="url(#clip0_1068_186519)">
<path fill-rule="evenodd" clip-rule="evenodd" d="M1.5 0C0.671573 0 0 0.671573 0 1.5V12.5C0 13.3284 0.671573 14 1.5 14H4C4.82843 14 5.5 13.3284 5.5 12.5V1.5C5.5 0.671573 4.82843 0 4 0H1.5ZM7.49976 6C6.94748 6 6.49976 6.44772 6.49976 7C6.49976 7.55228 6.94748 8 7.49976 8H10.4998V9.5C10.4998 9.70223 10.6216 9.88455 10.8085 9.96194C10.9953 10.0393 11.2104 9.99655 11.3534 9.85355L13.8534 7.35355C14.0486 7.15829 14.0486 6.84171 13.8534 6.64645L11.3534 4.14645C11.2104 4.00345 10.9953 3.96067 10.8085 4.03806C10.6216 4.11545 10.4998 4.29777 10.4998 4.5V6H7.49976Z" fill="black"/>
</g>
<defs>
<clipPath id="clip0_1068_186519">
<rect width="14" height="14" fill="white"/>
</clipPath>
</defs>
</svg>
