<svg width="14" height="14" viewBox="0 0 14 14" fill="none" xmlns="http://www.w3.org/2000/svg">
<path fill-rule="evenodd" clip-rule="evenodd" d="M4.50009 0C4.08588 0 3.75009 0.335786 3.75009 0.75C3.75009 1.16421 4.08588 1.5 4.50009 1.5H11.0001C11.1382 1.5 11.2501 1.61193 11.2501 1.75V11.25C11.2501 11.6642 11.5859 12 12.0001 12C12.4143 12 12.7501 11.6642 12.7501 11.25V1.75C12.7501 0.783502 11.9666 0 11.0001 0H4.50009ZM1.5 4C1.5 3.17157 2.17157 2.5 3 2.5H8.5C9.32843 2.5 10 3.17157 10 4V12.5C10 13.3284 9.32843 14 8.5 14H3C2.17157 14 1.5 13.3284 1.5 12.5V4ZM3.12469 5C3.12469 4.65482 3.40452 4.375 3.74969 4.375H7.74969C8.09487 4.375 8.37469 4.65482 8.37469 5C8.37469 5.34518 8.09487 5.625 7.74969 5.625H3.74969C3.40452 5.625 3.12469 5.34518 3.12469 5ZM3.75018 6.875C3.405 6.875 3.12518 7.15482 3.12518 7.5C3.12518 7.84518 3.405 8.125 3.75018 8.125H7.75018C8.09536 8.125 8.37518 7.84518 8.37518 7.5C8.37518 7.15482 8.09536 6.875 7.75018 6.875H3.75018ZM3.12442 10C3.12442 9.65482 3.40425 9.375 3.74942 9.375H5.74942C6.0946 9.375 6.37442 9.65482 6.37442 10C6.37442 10.3452 6.0946 10.625 5.74942 10.625H3.74942C3.40425 10.625 3.12442 10.3452 3.12442 10Z" fill="black"/>
</svg>
