<svg width="14" height="14" viewBox="0 0 14 14" fill="none" xmlns="http://www.w3.org/2000/svg">
<g clip-path="url(#clip0_1068_186525)">
<path fill-rule="evenodd" clip-rule="evenodd" d="M5.18345 0.25018C5.52332 0.242095 5.85595 0.349709 6.12675 0.555513C6.39945 0.76277 6.59301 1.05711 6.67524 1.38961L6.89039 2.25018H12.5C12.8978 2.25018 13.2794 2.40822 13.5607 2.68952C13.842 2.97083 14 3.35236 14 3.75018V12.2501C14 12.648 13.842 13.0295 13.5607 13.3108C13.2794 13.5921 12.8978 13.7501 12.5 13.7501H1.5C1.10217 13.7501 0.720644 13.5921 0.43934 13.3108C0.158035 13.0295 0 12.648 0 12.2501V1.75018C0 1.35236 0.158035 0.970825 0.43934 0.68952C0.720644 0.408216 1.10218 0.25018 1.5 0.25018H5.18345ZM9.47928 4.47982C9.33408 4.45128 9.18426 4.45646 9.04137 4.49493L9.03583 4.49645L5.56425 5.45981C5.36132 5.51533 5.182 5.63552 5.05351 5.8022C4.92423 5.96992 4.85357 6.17543 4.85238 6.38719L4.85237 6.39155L4.85286 8.74866C4.84112 8.74839 4.82936 8.74826 4.81756 8.74826C3.96948 8.74826 3.28198 9.43576 3.28198 10.2838C3.28198 11.1319 3.96948 11.8194 4.81756 11.8194C5.66543 11.8194 6.35281 11.1322 6.35314 10.2844L6.35317 10.2768L6.35249 6.99119L8.7601 6.32242L8.76038 7.62508C8.74892 7.62482 8.73743 7.6247 8.72592 7.6247C7.87784 7.6247 7.19034 8.3122 7.19034 9.16027C7.19034 10.0083 7.87784 10.6958 8.72592 10.6958C9.57399 10.6958 10.2615 10.0083 10.2615 9.16027C10.2615 9.14353 10.2612 9.12684 10.2607 9.11022L10.2599 5.42738V5.42334C10.2591 5.27536 10.2243 5.12954 10.1582 4.99712C10.0922 4.86469 9.99663 4.74919 9.87892 4.65951C9.76121 4.56982 9.62449 4.50835 9.47928 4.47982Z" fill="black"/>
</g>
<defs>
<clipPath id="clip0_1068_186525">
<rect width="14" height="14" fill="white"/>
</clipPath>
</defs>
</svg>
