<svg width="14" height="14" viewBox="0 0 14 14" fill="none" xmlns="http://www.w3.org/2000/svg">
<g clip-path="url(#clip0_1068_186531)">
<path d="M6.12675 0.805269C5.85595 0.599465 5.52332 0.491851 5.18345 0.499936H1.5C1.10218 0.499936 0.720644 0.657971 0.43934 0.939276C0.158035 1.22058 0 1.60211 0 1.99994V11.9999C0 12.3978 0.158035 12.7793 0.43934 13.0606C0.720644 13.3419 1.10217 13.4999 1.5 13.4999H12.5C12.8978 13.4999 13.2794 13.3419 13.5607 13.0606C13.842 12.7793 14 12.3978 14 11.9999V3.99994C14 3.60211 13.842 3.22058 13.5607 2.93928C13.2794 2.65797 12.8978 2.49994 12.5 2.49994H6.89039L6.67544 1.64015C6.5932 1.30766 6.39945 1.01253 6.12675 0.805269Z" fill="black"/>
</g>
<defs>
<clipPath id="clip0_1068_186531">
<rect width="14" height="14" fill="white"/>
</clipPath>
</defs>
</svg>
