<svg width="14" height="14" viewBox="0 0 14 14" fill="none" xmlns="http://www.w3.org/2000/svg">
<g clip-path="url(#clip0_1068_186537)">
<path fill-rule="evenodd" clip-rule="evenodd" d="M10.7049 0.119723C11.1911 0.381561 11.3731 0.988023 11.1112 1.47429L10.0204 3.50019H13C13.5523 3.50019 14 3.94791 14 4.50019C14 5.05247 13.5523 5.50019 13 5.50019H8.94344L7.32806 8.50019H13C13.5523 8.50019 14 8.9479 14 9.50019C14 10.0525 13.5523 10.5002 13 10.5002H6.25114L4.6497 13.4743C4.38786 13.9606 3.7814 14.1425 3.29513 13.8807C2.80886 13.6188 2.62692 13.0124 2.88875 12.5261L3.97962 10.5002H1C0.447715 10.5002 0 10.0525 0 9.50019C0 8.9479 0.447715 8.50019 1 8.50019H5.05655L6.67193 5.50019H1C0.447715 5.50019 0 5.05247 0 4.50019C0 3.94791 0.447715 3.50019 1 3.50019H7.74886L9.35029 0.526094C9.61213 0.0398232 10.2186 -0.142115 10.7049 0.119723Z" fill="black"/>
</g>
<defs>
<clipPath id="clip0_1068_186537">
<rect width="14" height="14" fill="white"/>
</clipPath>
</defs>
</svg>
