<svg width="14" height="14" viewBox="0 0 14 14" fill="none" xmlns="http://www.w3.org/2000/svg">
<path fill-rule="evenodd" clip-rule="evenodd" d="M4.93814 2.04042L4.82193 2.39874C4.47203 2.96968 4.09843 3.61448 3.7519 4.28642C3.28853 5.18491 2.82921 6.21403 2.56603 7.22328C2.04195 5.25638 2.08293 2.69806 2.16257 1.2645C2.19853 0.617204 2.69583 0.103741 3.33787 0.0138496C4.1207 -0.0957546 4.84147 0.457358 4.93814 1.24189V2.04042ZM10.115 9.98204C10.2983 9.93973 10.475 9.85588 10.6307 9.72903C11.1747 9.28585 11.2163 8.27691 10.7731 7.73292C9.98688 6.76787 8.82608 6.28776 7.67117 6.33144C7.53132 6.34555 7.38652 6.36859 7.24397 6.39893C6.93216 6.4653 6.6857 6.55486 6.56385 6.62086C6.26034 6.78526 5.88102 6.67249 5.71662 6.36898C5.55222 6.06547 5.66499 5.68615 5.9685 5.52174C6.2338 5.37804 6.6068 5.25655 6.98374 5.17632C7.36447 5.09528 7.80369 5.04466 8.21102 5.0737L9.18853 3.0435C9.50455 2.31895 9.16557 1.47602 8.43591 1.172C7.83748 0.92265 7.14808 1.11158 6.78773 1.6505C5.79665 3.13264 3.70969 6.40275 3.59618 8.61567C3.4814 10.8534 3.53511 12.7065 3.57182 13.5343C3.58348 13.7972 3.80067 13.9999 4.06384 13.9999H8.80914C8.90654 13.9999 9.00371 13.9866 9.09584 13.955C9.50994 13.8129 9.90641 13.5965 10.2657 13.3039C10.8049 12.8646 11.1947 12.3052 11.4246 11.6949C11.672 11.0383 11.3402 10.3055 10.6836 10.0581C10.4959 9.98745 10.302 9.96406 10.115 9.98204ZM6.97854 11.1188C6.53536 10.5748 6.61708 9.77452 7.16107 9.33134C7.70507 8.88816 8.50533 8.96988 8.94851 9.51388C9.22738 9.85618 9.64763 10.0154 10.0565 9.97608C9.65596 10.0685 9.30774 10.3531 9.15199 10.7666C9.07605 10.9682 8.94788 11.1531 8.76597 11.3013C8.22198 11.7445 7.42172 11.6628 6.97854 11.1188Z" fill="black"/>
</svg>
