<svg width="14" height="14" viewBox="0 0 14 14" fill="none" xmlns="http://www.w3.org/2000/svg">
<path fill-rule="evenodd" clip-rule="evenodd" d="M3.25391 4.36099C3.25391 2.78091 4.53482 1.5 6.1149 1.5C7.69499 1.5 8.97589 2.78091 8.97589 4.36099C8.97589 4.58593 8.95008 4.80389 8.90157 5.01244C8.80772 5.41588 9.0587 5.81902 9.46214 5.91286C9.86559 6.00671 10.2687 5.75573 10.3625 5.35229C10.4368 5.03311 10.4759 4.70114 10.4759 4.36099C10.4759 1.95248 8.52341 0 6.1149 0C3.70639 0 1.75391 1.95248 1.75391 4.36099C1.75391 4.70114 1.793 5.03311 1.86724 5.35229C1.96109 5.75573 2.36422 6.00671 2.76766 5.91286C3.17111 5.81902 3.42208 5.41588 3.32824 5.01244C3.27973 4.80389 3.25391 4.58593 3.25391 4.36099ZM4.8836 9.69608V4.25939C4.8836 3.56385 5.44745 3 6.14299 3C6.83853 3 7.40237 3.56385 7.40237 4.25938V8.3363H9.86612C11.2871 8.33631 12.4391 9.48828 12.4391 10.9093V13C12.4391 13.5523 11.9914 14 11.4391 14H4.83169C4.50254 14 4.19446 13.838 4.00787 13.5669L3.24388 12.4565C2.54089 11.4348 3.12099 10.0278 4.33976 9.79843L4.8836 9.69608Z" fill="black"/>
</svg>
