<svg width="14" height="14" viewBox="0 0 14 14" fill="none" xmlns="http://www.w3.org/2000/svg">
<g clip-path="url(#clip0_1068_186549)">
<path fill-rule="evenodd" clip-rule="evenodd" d="M1.5 4.19579C1.5 2.70694 2.70694 1.5 4.19579 1.5C4.65025 1.5 5.07637 1.61185 5.45029 1.8089C5.81674 2.00201 6.27035 1.86149 6.46345 1.49504C6.65656 1.12859 6.51604 0.674987 6.14959 0.48188C5.56528 0.173963 4.89974 0 4.19579 0C1.87852 0 0 1.87852 0 4.19579C0 4.52301 0.0376017 4.8424 0.109039 5.1495C0.202884 5.55295 0.606016 5.80392 1.00946 5.71008C1.4129 5.61623 1.66388 5.2131 1.57003 4.80966C1.52433 4.61318 1.5 4.4078 1.5 4.19579ZM10.5 7C12.433 7 14 5.433 14 3.5C14 1.567 12.433 0 10.5 0C8.567 0 7 1.567 7 3.5C7 5.433 8.567 7 10.5 7ZM11.9419 2.94194C12.186 2.69786 12.186 2.30214 11.9419 2.05806C11.6979 1.81398 11.3021 1.81398 11.0581 2.05806L10.0581 3.05806C9.81398 3.30214 9.81398 3.69786 10.0581 3.94194C10.3021 4.18602 10.6979 4.18602 10.9419 3.94194L11.9419 2.94194ZM3.13338 4.25939V9.69608L2.58954 9.79843C1.37077 10.0278 0.790666 11.4348 1.49366 12.4565L2.25765 13.5669C2.44424 13.838 2.75232 14 3.08147 14H9.68891C10.2412 14 10.6889 13.5523 10.6889 13V10.9093C10.6889 9.48828 9.53693 8.33631 8.1159 8.3363H5.65215V4.25938C5.65215 3.56385 5.08831 3 4.39277 3C3.69723 3 3.13338 3.56385 3.13338 4.25939Z" fill="black"/>
</g>
<defs>
<clipPath id="clip0_1068_186549">
<rect width="14" height="14" fill="white"/>
</clipPath>
</defs>
</svg>
