<svg width="14" height="14" viewBox="0 0 14 14" fill="none" xmlns="http://www.w3.org/2000/svg">
<g clip-path="url(#clip0_1068_186543)">
<path fill-rule="evenodd" clip-rule="evenodd" d="M2.5 0.500015C2.5 0.297783 2.37818 0.115465 2.19134 0.0380748C2.0045 -0.0393156 1.78945 0.00346221 1.64645 0.146461L0.146447 1.64646C-0.0488156 1.84172 -0.0488156 2.15831 0.146447 2.35357L1.64645 3.85357C1.78945 3.99657 2.0045 4.03934 2.19134 3.96195C2.37818 3.88456 2.5 3.70225 2.5 3.50001V2.5H3.5C3.77614 2.5 4 2.27614 4 2C4 1.72386 3.77614 1.5 3.5 1.5H2.5V0.500015ZM4.9066 3.7985L5.85428 9.65907L5.33375 9.84692C4.16722 10.2679 3.81916 11.7495 4.67623 12.6459L5.67567 13.6911C5.86433 13.8884 6.12545 14 6.39843 14H12.8801C13.477 14 13.941 13.4804 13.8737 12.8873L13.5066 9.65065C13.2797 8.24784 11.9586 7.29453 10.5558 7.52137L8.12369 7.91466L7.39307 3.39643C7.28204 2.70981 6.63541 2.2432 5.94879 2.35423C5.26217 2.46526 4.79557 3.11188 4.9066 3.7985ZM10.3087 0.0380748C10.4955 -0.0393156 10.7106 0.00346221 10.8536 0.146461L12.3536 1.64646C12.5488 1.84172 12.5488 2.15831 12.3536 2.35357L10.8536 3.85357C10.7106 3.99657 10.4955 4.03934 10.3087 3.96195C10.1218 3.88456 10 3.70225 10 3.50001V2.50001H9C8.72386 2.50001 8.5 2.27616 8.5 2.00001C8.5 1.72387 8.72386 1.50001 9 1.50001H10V0.500015C10 0.297783 10.1218 0.115465 10.3087 0.0380748Z" fill="black"/>
</g>
<defs>
<clipPath id="clip0_1068_186543">
<rect width="14" height="14" fill="white"/>
</clipPath>
</defs>
</svg>
