<svg width="14" height="14" viewBox="0 0 14 14" fill="none" xmlns="http://www.w3.org/2000/svg">
<g clip-path="url(#clip0_1068_186546)">
<path fill-rule="evenodd" clip-rule="evenodd" d="M2.35356 0.146447C2.2598 0.0526784 2.13262 0 2.00001 0C1.8674 0 1.74022 0.0526784 1.64646 0.146447L0.146462 1.64645C0.00346218 1.78945 -0.0393156 2.0045 0.0380748 2.19134C0.115466 2.37818 0.297784 2.5 0.500015 2.5H1.25001V4.5H0.500015C0.297784 4.5 0.115466 4.62182 0.0380748 4.80866C-0.0393156 4.9955 0.00346218 5.21055 0.146462 5.35355L1.64646 6.85355C1.74022 6.94732 1.8674 7 2.00001 7C2.13262 7 2.2598 6.94732 2.35356 6.85355L3.85356 5.35355C3.99656 5.21055 4.03934 4.9955 3.96195 4.80866C3.88456 4.62182 3.70224 4.5 3.50001 4.5H2.75001V2.5H3.50001C3.70224 2.5 3.88456 2.37818 3.96195 2.19134C4.03934 2.0045 3.99656 1.78945 3.85356 1.64645L2.35356 0.146447ZM5.94446 9.69608V3.75938C5.94446 3.06384 6.50831 2.5 7.20385 2.5C7.89938 2.5 8.46323 3.06384 8.46323 3.75938V8.3363H10.927C12.348 8.33631 13.5 9.48828 13.5 10.9093V13C13.5 13.5523 13.0523 14 12.5 14H5.89255C5.56339 14 5.25531 13.838 5.06873 13.5669L4.30473 12.4565C3.60174 11.4348 4.18185 10.0278 5.40062 9.79843L5.94446 9.69608Z" fill="black"/>
</g>
<defs>
<clipPath id="clip0_1068_186546">
<rect width="14" height="14" fill="white"/>
</clipPath>
</defs>
</svg>
