<svg width="14" height="14" viewBox="0 0 14 14" fill="none" xmlns="http://www.w3.org/2000/svg">
<g clip-path="url(#clip0_1068_186555)">
<path fill-rule="evenodd" clip-rule="evenodd" d="M6.375 1.65273C5.38611 1.09884 3.53626 0.42131 1.49642 0.179297C0.673762 0.0816939 0 0.759606 0 1.58803V9.58803C0 10.4165 0.677027 11.0766 1.49213 11.2246C3.33255 11.5588 4.86332 12.4413 5.8401 13.139C6.00374 13.2559 6.18487 13.3444 6.375 13.4046V1.65273ZM7.625 13.4048C7.81487 13.3447 7.99576 13.2563 8.15919 13.1396C9.13594 12.4418 10.667 11.559 12.5079 11.2248C13.323 11.0768 14 10.4166 14 9.58817V1.58818C14 0.759749 13.3262 0.0818364 12.5036 0.179439C10.4637 0.421452 8.61389 1.09889 7.625 1.65275V13.4048Z" fill="black"/>
</g>
<defs>
<clipPath id="clip0_1068_186555">
<rect width="14" height="14" fill="white"/>
</clipPath>
</defs>
</svg>
