<svg width="14" height="14" viewBox="0 0 14 14" fill="none" xmlns="http://www.w3.org/2000/svg">
<path fill-rule="evenodd" clip-rule="evenodd" d="M7 0C7.41421 0 7.75 0.335786 7.75 0.75V1.55135C8.93166 1.71399 10.0361 2.25788 10.8891 3.11091C11.9205 4.14236 12.5 5.54131 12.5 7C12.5 7.13261 12.4473 7.25979 12.3536 7.35355C12.2598 7.44732 12.1326 7.5 12 7.5H7.75V11.75C7.75 12.1642 8.08579 12.5 8.5 12.5C8.91421 12.5 9.25 12.1642 9.25 11.75C9.25 11.3358 9.58579 11 10 11C10.4142 11 10.75 11.3358 10.75 11.75C10.75 12.9926 9.74264 14 8.5 14C7.25736 14 6.25 12.9926 6.25 11.75V7.5H2C1.86739 7.5 1.74021 7.44732 1.64645 7.35355C1.55268 7.25979 1.5 7.13261 1.5 7C1.5 5.54131 2.07946 4.14236 3.11091 3.11091C3.96395 2.25788 5.06834 1.71399 6.25 1.55135V0.75C6.25 0.335786 6.58579 0 7 0Z" fill="black"/>
</svg>
