<svg width="14" height="14" viewBox="0 0 14 14" fill="none" xmlns="http://www.w3.org/2000/svg">
<path fill-rule="evenodd" clip-rule="evenodd" d="M6.99997 2C5.8954 2 4.99997 2.89543 4.99997 4V5H8.99997V4C8.99997 2.89543 8.10454 2 6.99997 2ZM2.99997 4V5C2.17156 5.00002 1.5 5.67158 1.5 6.5V12.5C1.5 13.3284 2.17157 14 3 14H11C11.8285 14 12.5 13.3284 12.5 12.5V6.5C12.5 5.67157 11.8285 5 11 5V4C11 1.79086 9.20911 0 6.99997 0C4.79083 0 2.99997 1.79086 2.99997 4ZM7 10.75C7.69036 10.75 8.25 10.1904 8.25 9.5C8.25 8.80964 7.69036 8.25 7 8.25C6.30964 8.25 5.75 8.80964 5.75 9.5C5.75 10.1904 6.30964 10.75 7 10.75Z" fill="black"/>
</svg>
