<svg width="14" height="14" viewBox="0 0 14 14" fill="none" xmlns="http://www.w3.org/2000/svg">
<g clip-path="url(#clip0_1068_186570)">
<path fill-rule="evenodd" clip-rule="evenodd" d="M13.4106 0.59369C13.2141 0.396859 12.9796 0.242735 12.7216 0.14084C12.4637 0.0389446 12.1878 -0.00855877 11.9109 0.00126425C11.6342 0.00884546 11.362 0.0734788 11.111 0.191179C10.86 0.308879 10.6357 0.47715 10.4517 0.685618L5.13269 6.6382C5.60427 6.84591 6.03345 7.13981 6.39797 7.50523C6.79645 7.90468 7.10929 8.38119 7.31737 8.90564C7.32808 8.93263 7.3385 8.95973 7.34864 8.98692L13.3194 3.57624C13.525 3.39198 13.6912 3.16745 13.808 2.91633C13.9247 2.66522 13.9895 2.39278 13.9983 2.11561C14.0095 1.83482 13.9631 1.55474 13.8619 1.29287C13.7608 1.031 13.6072 0.792981 13.4106 0.59369ZM5.39191 12.5989L5.40996 12.5808C3.99565 13.9859 1.68776 14.5184 0.166681 13.3884C-0.0502408 13.2272 -0.0452245 12.9162 0.122684 12.7045C0.856989 11.7785 0.788576 11.0732 0.725171 10.4196C0.663372 9.78249 0.60633 9.19443 1.30191 8.49886C1.56529 8.20546 1.88574 7.96886 2.24366 7.8035C2.60159 7.63814 2.98947 7.54751 3.38361 7.53714C3.77775 7.52676 4.16986 7.59687 4.53599 7.74317C4.90211 7.88947 5.23456 8.10889 5.51302 8.38803C5.79147 8.66716 6.01008 9.00015 6.15549 9.36663C6.30089 9.73311 6.37004 10.1254 6.35871 10.5195C6.34737 10.9136 6.25579 11.3013 6.08956 11.6588C5.92333 12.0163 5.68594 12.3362 5.39191 12.5989Z" fill="black"/>
</g>
<defs>
<clipPath id="clip0_1068_186570">
<rect width="14" height="14" fill="white"/>
</clipPath>
</defs>
</svg>
