<svg width="14" height="14" viewBox="0 0 14 14" fill="none" xmlns="http://www.w3.org/2000/svg">
<g clip-path="url(#clip0_1068_186573)">
<path fill-rule="evenodd" clip-rule="evenodd" d="M11.8503 5.86139C12.0703 6.08155 12.0443 6.44567 11.7952 6.63231L4.89561 11.8016C4.70047 11.9449 4.4608 12.0144 4.21927 11.9975C3.97774 11.9807 3.75003 11.8786 3.57668 11.7095L0.294677 8.42643C0.122998 8.2524 0.0193237 8.0226 0.0024427 7.77868C-0.0144383 7.53476 0.0565909 7.29287 0.202658 7.09683L5.37012 0.204566C5.55678 -0.0443971 5.92059 -0.0702614 6.14057 0.149793L11.8503 5.86139ZM11.9515 10.2978C11.4872 10.9945 11 11.8936 11 12.5153C11 13.6288 11.75 14 12.5 14C13.25 14 14 13.6288 14 12.5153C14 11.8936 13.5128 10.9945 13.0485 10.2978C12.7839 9.90072 12.2161 9.90072 11.9515 10.2978Z" fill="black"/>
</g>
<defs>
<clipPath id="clip0_1068_186573">
<rect width="14" height="14" fill="white"/>
</clipPath>
</defs>
</svg>
