<svg width="14" height="14" viewBox="0 0 14 14" fill="none" xmlns="http://www.w3.org/2000/svg">
<g clip-path="url(#clip0_1068_186576)">
<path fill-rule="evenodd" clip-rule="evenodd" d="M4.34906 0.577145C5.52631 0.0669898 6.82112 -0.109798 8.09203 0.0660954C9.36295 0.241989 10.5611 0.763799 11.5556 1.57451C12.5498 2.3851 13.3023 3.45332 13.7306 4.6625C14 5.42021 13.8801 6.28804 13.4156 6.94442C12.951 7.6006 12.1728 8.002 11.3688 8H9.49947H9.49808C9.14101 7.99901 8.7953 8.12544 8.5231 8.35655C8.25091 8.58766 8.07008 8.90828 8.01314 9.26079C7.95619 9.61329 8.02687 9.97455 8.21245 10.2796C8.39804 10.5847 8.68636 10.8135 9.02558 10.925C9.03164 10.927 9.03766 10.9291 9.04364 10.9313C9.59371 11.1357 9.97846 11.6332 10.0155 12.217C10.0962 12.8877 9.65858 13.5577 9.00527 13.7412C8.39487 13.9146 7.7632 14.0017 7.12865 14C5.84583 13.9993 4.58785 13.6461 3.49213 12.979C1.27863 11.6313 -0.0296009 9.1028 0.149038 6.51747C0.327676 3.93215 1.97124 1.60757 4.34906 0.577145ZM4.49945 7C5.32788 7 5.99945 6.32843 5.99945 5.5C5.99945 4.67157 5.32788 4 4.49945 4C3.67102 4 2.99945 4.67157 2.99945 5.5C2.99945 6.32843 3.67102 7 4.49945 7ZM10.4994 4.00049C10.4994 4.82892 9.82776 5.50049 8.99933 5.50049C8.1709 5.50049 7.49933 4.82892 7.49933 4.00049C7.49933 3.17206 8.1709 2.50049 8.99933 2.50049C9.82776 2.50049 10.4994 3.17206 10.4994 4.00049ZM4.49933 10.4995C5.05161 10.4995 5.49933 10.0518 5.49933 9.49951C5.49933 8.94723 5.05161 8.49951 4.49933 8.49951C3.94704 8.49951 3.49933 8.94723 3.49933 9.49951C3.49933 10.0518 3.94704 10.4995 4.49933 10.4995Z" fill="black"/>
</g>
<defs>
<clipPath id="clip0_1068_186576">
<rect width="14" height="14" fill="white"/>
</clipPath>
</defs>
</svg>
