<svg width="14" height="14" viewBox="0 0 14 14" fill="none" xmlns="http://www.w3.org/2000/svg">
<g clip-path="url(#clip0_1068_186567)">
<path fill-rule="evenodd" clip-rule="evenodd" d="M12.7071 5.29192C12.5196 5.10438 12.2652 4.99902 12 4.99902H10C9.73481 4.99902 9.48045 4.89367 9.29292 4.70613C9.10538 4.51859 9.00002 4.26424 9.00002 3.99902V1.99902C9.00002 1.46859 8.78931 0.959883 8.41424 0.58481C8.03917 0.209737 7.53046 -0.000976562 7.00002 -0.000976562C6.46959 -0.000976562 5.96088 0.209737 5.58581 0.58481C5.21074 0.959883 5.00003 1.46859 5.00003 1.99902V3.99902C5.00003 4.26424 4.89467 4.51859 4.70713 4.70613C4.5196 4.89367 4.26524 4.99902 4.00003 4.99902H2C1.73478 4.99902 1.48043 5.10438 1.29289 5.29192C1.10536 5.47945 1 5.73381 1 5.99902V7.99951C1 8.27565 1.22386 8.49951 1.5 8.49951H12.5C12.7761 8.49951 13 8.27565 13 7.99951V5.99902C13 5.73381 12.8946 5.47945 12.7071 5.29192ZM1.00938 12.9343L1.5 9.5H12.5L12.9906 12.9343C12.9969 12.9781 13 13.0222 13 13.0664C13 13.582 12.582 14 12.0664 14H9.25V12C9.25 11.5858 8.91421 11.25 8.5 11.25C8.08579 11.25 7.75 11.5858 7.75 12V14H1.93365C1.41801 14 1 13.582 1 13.0664C1 13.0222 1.00314 12.9781 1.00938 12.9343Z" fill="black"/>
</g>
<defs>
<clipPath id="clip0_1068_186567">
<rect width="14" height="14" fill="white"/>
</clipPath>
</defs>
</svg>
