<svg width="14" height="14" viewBox="0 0 14 14" fill="none" xmlns="http://www.w3.org/2000/svg">
<g clip-path="url(#clip0_1068_186579)">
<path fill-rule="evenodd" clip-rule="evenodd" d="M9.3825 1.5C9.2287 1.5 9.07643 1.53045 8.93445 1.5896C8.79248 1.64875 8.66363 1.73542 8.55532 1.84462L8.55398 1.84596L2.48509 7.934C2.17796 8.24673 2.00586 8.66755 2.00586 9.10593C2.00586 9.545 2.17851 9.96647 2.48656 10.2793L4.19125 12.0128C4.34249 12.1669 4.52347 12.2898 4.72256 12.3734C4.92166 12.457 5.13541 12.5 5.35133 12.5C5.56725 12.5 5.781 12.457 5.98009 12.3734C6.17919 12.2898 6.35962 12.1674 6.51086 12.0133L6.51359 12.0105L12.2108 6.2654C12.5025 5.97128 12.9774 5.9693 13.2715 6.26096C13.5656 6.55263 13.5676 7.0275 13.2759 7.32161L7.58143 13.064C7.58095 13.0645 7.58047 13.065 7.57999 13.0654C7.28941 13.3611 6.94289 13.5961 6.56061 13.7565C6.1777 13.9172 5.7666 14 5.35133 14C4.93606 14 4.52495 13.9172 4.14204 13.7565C3.75918 13.5958 3.41218 13.3604 3.12133 13.0641C3.1213 13.0641 3.12137 13.0641 3.12133 13.0641L1.41768 11.3317C0.833363 10.7382 0.505859 9.93878 0.505859 9.10593C0.505859 8.27307 0.833363 7.47362 1.41768 6.88014L1.42094 6.87682L7.49032 0.788317C7.49058 0.788054 7.49084 0.787792 7.4911 0.787529C7.73869 0.538109 8.03317 0.340119 8.35759 0.204961C8.68235 0.0696598 9.03069 0 9.3825 0C9.73432 0 10.0826 0.0696596 10.4074 0.204961C10.7316 0.340052 11.026 0.537911 11.2735 0.787154C11.2739 0.787542 11.2743 0.787929 11.2747 0.788317L11.9502 1.46381C11.9505 1.4642 11.9509 1.46458 11.9513 1.46497C12.2006 1.71248 12.3984 2.00682 12.5335 2.33108C12.6688 2.65584 12.7385 3.00418 12.7385 3.35599C12.7385 3.70781 12.6688 4.05615 12.5335 4.38091C12.3985 4.70496 12.2008 4.99914 11.9518 5.24655C11.9512 5.2471 11.9507 5.24764 11.9502 5.24818L6.57325 10.6443C6.57297 10.6445 6.5727 10.6448 6.57243 10.6451C6.41386 10.8047 6.2253 10.9315 6.01758 11.018C5.8095 11.1047 5.58632 11.1493 5.3609 11.1493C5.13549 11.1493 4.91231 11.1047 4.70423 11.018C4.49615 10.9313 4.3073 10.8043 4.14856 10.6443L4.14329 10.6389L3.81225 10.2984C3.65481 10.1408 3.5297 9.95392 3.44401 9.74824C3.35733 9.54016 3.31269 9.31698 3.31269 9.09156C3.31269 8.86615 3.35732 8.64297 3.44401 8.43489C3.53069 8.22684 3.6577 8.038 3.81772 7.87928C3.8177 7.8793 3.81774 7.87926 3.81772 7.87928L7.42757 4.29812C7.72163 4.0064 8.1965 4.0083 8.48822 4.30236C8.77994 4.59642 8.77805 5.07129 8.48399 5.36301L4.87414 8.94416C4.85469 8.96346 4.83919 8.98647 4.82865 9.01175C4.81812 9.03704 4.81269 9.06417 4.81269 9.09156C4.81269 9.11896 4.81812 9.14608 4.82865 9.17137C4.83919 9.19666 4.85463 9.21961 4.87408 9.23891L4.88376 9.24851L5.21525 9.58964C5.23418 9.6083 5.25654 9.62316 5.28109 9.63339C5.30638 9.64392 5.33351 9.64935 5.3609 9.64935C5.3883 9.64935 5.41542 9.64392 5.44071 9.63339C5.466 9.62285 5.48895 9.60741 5.50825 9.58796L5.50947 9.58673L10.8907 4.18629L10.8938 4.18318C11.003 4.07487 11.0897 3.94601 11.1489 3.80404C11.208 3.66207 11.2385 3.5098 11.2385 3.35599C11.2385 3.20219 11.208 3.04991 11.1489 2.90794C11.0897 2.76597 11.003 2.63712 10.8938 2.52881L10.8917 2.52664L10.2118 1.8468L10.2097 1.84462C10.1014 1.73542 9.97253 1.64875 9.83056 1.5896C9.68858 1.53045 9.5363 1.5 9.3825 1.5Z" fill="black"/>
</g>
<defs>
<clipPath id="clip0_1068_186579">
<rect width="14" height="14" fill="white"/>
</clipPath>
</defs>
</svg>
