<svg width="14" height="14" viewBox="0 0 14 14" fill="none" xmlns="http://www.w3.org/2000/svg">
<g clip-path="url(#clip0_1068_186582)">
<path fill-rule="evenodd" clip-rule="evenodd" d="M4.78646 0C2.14297 0 0 2.14297 0 4.78646C0 7.42995 2.14297 9.57292 4.78646 9.57292H5.72916V13.25C5.72916 13.6642 6.06494 14 6.47916 14C6.89337 14 7.22916 13.6642 7.22916 13.25V8.82683C7.22916 8.82553 7.22917 8.82422 7.22917 8.82292V1.5H9.375V13.25C9.375 13.6642 9.71079 14 10.125 14C10.5392 14 10.875 13.6642 10.875 13.25V1.5H13.25C13.6642 1.5 14 1.16421 14 0.75C14 0.335786 13.6642 0 13.25 0H10.125H6.47917H4.78646Z" fill="black"/>
</g>
<defs>
<clipPath id="clip0_1068_186582">
<rect width="14" height="14" fill="white"/>
</clipPath>
</defs>
</svg>
