<svg width="14" height="14" viewBox="0 0 14 14" fill="none" xmlns="http://www.w3.org/2000/svg">
<g clip-path="url(#clip0_1068_186591)">
<path fill-rule="evenodd" clip-rule="evenodd" d="M1.27747 2.27747C1.13737 2.41756 0.948107 2.49741 0.75 2.5C0.551893 2.49741 0.362629 2.41756 0.222534 2.27747C0.0824394 2.13737 0.00258996 1.94811 0 1.75C0.0026251 1.28668 0.187842 0.843085 0.515464 0.515464C0.843085 0.187842 1.28668 0.0026251 1.75 0C1.94891 0 2.13968 0.079018 2.28033 0.21967C2.42098 0.360323 2.5 0.551088 2.5 0.75C2.5 0.948912 2.42098 1.13968 2.28033 1.28033C2.13968 1.42098 1.94891 1.5 1.75 1.5C1.6837 1.5 1.62011 1.52634 1.57322 1.57322C1.52634 1.62011 1.5 1.6837 1.5 1.75C1.49741 1.94811 1.41756 2.13737 1.27747 2.27747ZM12.25 5C12.3163 5 12.3799 5.02634 12.4268 5.07322C12.4737 5.12011 12.5 5.1837 12.5 5.25C12.5 5.44891 12.579 5.63968 12.7197 5.78033C12.8603 5.92098 13.0511 6 13.25 6C13.4489 6 13.6397 5.92098 13.7803 5.78033C13.921 5.63968 14 5.44891 14 5.25C13.9974 4.78668 13.8122 4.34309 13.4845 4.01546C13.1569 3.68784 12.7133 3.50262 12.25 3.5C12.0511 3.5 11.8603 3.57902 11.7197 3.71967C11.579 3.86032 11.5 4.05109 11.5 4.25C11.5 4.44891 11.579 4.63968 11.7197 4.78033C11.8603 4.92098 12.0511 5 12.25 5ZM13.25 11.5C13.0519 11.5026 12.8626 11.5824 12.7225 11.7225C12.5824 11.8626 12.5026 12.0519 12.5 12.25C12.5 12.3163 12.4737 12.3799 12.4268 12.4268C12.3799 12.4737 12.3163 12.5 12.25 12.5C12.0511 12.5 11.8603 12.579 11.7197 12.7197C11.579 12.8603 11.5 13.0511 11.5 13.25C11.5 13.4489 11.579 13.6397 11.7197 13.7803C11.8603 13.921 12.0511 14 12.25 14C12.7133 13.9974 13.1569 13.8122 13.4845 13.4845C13.8122 13.1569 13.9974 12.7133 14 12.25C13.9974 12.0519 13.9176 11.8626 13.7775 11.7225C13.6374 11.5824 13.4481 11.5026 13.25 11.5ZM5.07322 12.4268C5.12011 12.4737 5.1837 12.5 5.25 12.5C5.44891 12.5 5.63968 12.579 5.78033 12.7197C5.92098 12.8603 6 13.0511 6 13.25C6 13.4489 5.92098 13.6397 5.78033 13.7803C5.63968 13.921 5.44891 14 5.25 14C4.78668 13.9974 4.34309 13.8122 4.01546 13.4845C3.68784 13.1569 3.50262 12.7133 3.5 12.25C3.5 12.0511 3.57902 11.8603 3.71967 11.7197C3.86032 11.579 4.05109 11.5 4.25 11.5C4.44891 11.5 4.63968 11.579 4.78033 11.7197C4.92098 11.8603 5 12.0511 5 12.25C5 12.3163 5.02634 12.3799 5.07322 12.4268ZM8 12.5C7.80109 12.5 7.61032 12.579 7.46967 12.7197C7.32902 12.8603 7.25 13.0511 7.25 13.25C7.25 13.4489 7.32902 13.6397 7.46967 13.7803C7.61032 13.921 7.80109 14 8 14H9.5C9.69891 14 9.88968 13.921 10.0303 13.7803C10.171 13.6397 10.25 13.4489 10.25 13.25C10.25 13.0511 10.171 12.8603 10.0303 12.7197C9.88968 12.579 9.69891 12.5 9.5 12.5H8ZM12.7225 7.47253C12.8626 7.33244 13.0519 7.25259 13.25 7.25C13.4481 7.25259 13.6374 7.33244 13.7775 7.47253C13.9176 7.61263 13.9974 7.80189 14 8V9.5C14 9.69891 13.921 9.88968 13.7803 10.0303C13.6397 10.171 13.4489 10.25 13.25 10.25C13.0511 10.25 12.8603 10.171 12.7197 10.0303C12.579 9.88968 12.5 9.69891 12.5 9.5V8C12.5026 7.80189 12.5824 7.61263 12.7225 7.47253ZM1.75 9C1.6837 9 1.62011 8.97366 1.57322 8.92678C1.52634 8.87989 1.5 8.8163 1.5 8.75C1.5 8.55109 1.42098 8.36032 1.28033 8.21967C1.13968 8.07902 0.948912 8 0.75 8C0.551088 8 0.360323 8.07902 0.21967 8.21967C0.079018 8.36032 0 8.55109 0 8.75C0.0026251 9.21332 0.187842 9.65691 0.515464 9.98454C0.843085 10.3122 1.28668 10.4974 1.75 10.5C1.94891 10.5 2.13968 10.421 2.28033 10.2803C2.42098 10.1397 2.5 9.94891 2.5 9.75C2.5 9.55109 2.42098 9.36032 2.28033 9.21967C2.13968 9.07902 1.94891 9 1.75 9ZM8.75 1.5C8.8163 1.5 8.87989 1.52634 8.92678 1.57322C8.97366 1.62011 9 1.6837 9 1.75C9 1.94891 9.07902 2.13968 9.21967 2.28033C9.36032 2.42098 9.55109 2.5 9.75 2.5C9.94891 2.5 10.1397 2.42098 10.2803 2.28033C10.421 2.13968 10.5 1.94891 10.5 1.75C10.4974 1.28668 10.3122 0.843085 9.98454 0.515464C9.65691 0.187842 9.21332 0.0026251 8.75 0C8.55109 0 8.36032 0.079018 8.21967 0.21967C8.07902 0.360323 8 0.551088 8 0.75C8 0.948912 8.07902 1.13968 8.21967 1.28033C8.36032 1.42098 8.55109 1.5 8.75 1.5ZM6 1.5H4.5C4.30109 1.5 4.11032 1.42098 3.96967 1.28033C3.82902 1.13968 3.75 0.948912 3.75 0.75C3.75 0.551088 3.82902 0.360323 3.96967 0.21967C4.11032 0.079018 4.30109 0 4.5 0H6C6.19891 0 6.38968 0.079018 6.53033 0.21967C6.67098 0.360323 6.75 0.551088 6.75 0.75C6.75 0.948912 6.67098 1.13968 6.53033 1.28033C6.38968 1.42098 6.19891 1.5 6 1.5ZM0.75 6.75C0.948107 6.74741 1.13737 6.66756 1.27747 6.52747C1.41756 6.38737 1.49741 6.19811 1.5 6V4.5C1.5 4.30109 1.42098 4.11032 1.28033 3.96967C1.13968 3.82902 0.948912 3.75 0.75 3.75C0.551088 3.75 0.360323 3.82902 0.21967 3.96967C0.079018 4.11032 0 4.30109 0 4.5V6C0.00258996 6.19811 0.0824394 6.38737 0.222534 6.52747C0.362629 6.66756 0.551893 6.74741 0.75 6.75ZM5.25 4.25C4.69772 4.25 4.25 4.69772 4.25 5.25V9.25C4.25 9.52614 4.47386 9.75 4.75 9.75H8.75C9.30228 9.75 9.75 9.30228 9.75 8.75V4.75C9.75 4.47386 9.52614 4.25 9.25 4.25H5.25Z" fill="black"/>
</g>
<defs>
<clipPath id="clip0_1068_186591">
<rect width="14" height="14" fill="white"/>
</clipPath>
</defs>
</svg>
