<svg width="14" height="14" viewBox="0 0 14 14" fill="none" xmlns="http://www.w3.org/2000/svg">
<g clip-path="url(#clip0_1068_186585)">
<path fill-rule="evenodd" clip-rule="evenodd" d="M8.5 0H1.5C0.671573 0 0 0.671573 0 1.5V8.5C0 9.32843 0.671573 10 1.5 10H2.752V5.37014C2.752 3.92039 3.92725 2.74514 5.377 2.74514H10V1.5C10 0.671573 9.32843 0 8.5 0ZM10 3.99514V4H10.0135V8.63186C10.0135 9.39125 9.39786 10.0069 8.63847 10.0069H4.002V5.37014C4.002 4.61075 4.6176 3.99514 5.377 3.99514H10ZM11.2635 4H12.5C13.3284 4 14 4.67157 14 5.5V12.5C14 13.3284 13.3284 14 12.5 14H5.5C4.67157 14 4 13.3284 4 12.5V11.2569H8.63847C10.0882 11.2569 11.2635 10.0816 11.2635 8.63186V4Z" fill="black"/>
</g>
<defs>
<clipPath id="clip0_1068_186585">
<rect width="14" height="14" fill="white"/>
</clipPath>
</defs>
</svg>
