<svg width="14" height="14" viewBox="0 0 14 14" fill="none" xmlns="http://www.w3.org/2000/svg">
<g clip-path="url(#clip0_1068_186594)">
<path fill-rule="evenodd" clip-rule="evenodd" d="M8.5 0H1.5C0.671573 0 0 0.671573 0 1.5V8.5C0 9.32843 0.671573 10 1.5 10H2.75387V6.5C2.75387 6.15482 3.03369 5.875 3.37887 5.875C3.72405 5.875 4.00387 6.15482 4.00387 6.5V10.75C4.00387 10.7736 4.00256 10.797 4 10.8199V12.5C4 13.3284 4.67157 14 5.5 14H12.5C13.3284 14 14 13.3284 14 12.5V5.5C14 4.67157 13.3284 4 12.5 4H10V1.5C10 0.671573 9.32843 0 8.5 0Z" fill="black"/>
</g>
<defs>
<clipPath id="clip0_1068_186594">
<rect width="14" height="14" fill="white"/>
</clipPath>
</defs>
</svg>
