<svg width="14" height="14" viewBox="0 0 14 14" fill="none" xmlns="http://www.w3.org/2000/svg">
<g clip-path="url(#clip0_1068_186600)">
<path fill-rule="evenodd" clip-rule="evenodd" d="M8.5 0H1.5C0.671573 0 0 0.671573 0 1.5V8.5C0 9.32843 0.671573 10 1.5 10H2.75V5.5C2.75 3.98122 3.98122 2.75 5.5 2.75H10V1.5C10 0.671573 9.32843 0 8.5 0ZM5.5 4H12.5C13.3284 4 14 4.67157 14 5.5V12.5C14 13.3284 13.3284 14 12.5 14H5.5C4.67157 14 4 13.3284 4 12.5V5.5C4 4.67157 4.67157 4 5.5 4Z" fill="black"/>
</g>
<defs>
<clipPath id="clip0_1068_186600">
<rect width="14" height="14" fill="white"/>
</clipPath>
</defs>
</svg>
