<svg width="14" height="14" viewBox="0 0 14 14" fill="none" xmlns="http://www.w3.org/2000/svg">
<g clip-path="url(#clip0_1068_186597)">
<path fill-rule="evenodd" clip-rule="evenodd" d="M1.5 0H8.5C9.32843 0 10 0.671573 10 1.5V4C10 4.55228 9.55229 5 9 5H5.5C5.22386 5 5 5.22386 5 5.5V9C5 9.55229 4.55228 10 4 10H1.5C0.671573 10 0 9.32843 0 8.5V1.5C0 0.671573 0.671573 0 1.5 0ZM12.4268 5.07322C12.3799 5.02634 12.3163 5 12.25 5C12.0511 5 11.8603 4.92098 11.7197 4.78033C11.579 4.63968 11.5 4.44891 11.5 4.25C11.5 4.05109 11.579 3.86032 11.7197 3.71967C11.8603 3.57902 12.0511 3.5 12.25 3.5C12.7133 3.50262 13.1569 3.68784 13.4845 4.01546C13.8122 4.34309 13.9974 4.78668 14 5.25C14 5.44891 13.921 5.63968 13.7803 5.78033C13.6397 5.92098 13.4489 6 13.25 6C13.0511 6 12.8603 5.92098 12.7197 5.78033C12.579 5.63968 12.5 5.44891 12.5 5.25C12.5 5.1837 12.4737 5.12011 12.4268 5.07322ZM12.7225 11.7225C12.8626 11.5824 13.0519 11.5026 13.25 11.5C13.4481 11.5026 13.6374 11.5824 13.7775 11.7225C13.9176 11.8626 13.9974 12.0519 14 12.25C13.9974 12.7133 13.8122 13.1569 13.4845 13.4845C13.1569 13.8122 12.7133 13.9974 12.25 14C12.0511 14 11.8603 13.921 11.7197 13.7803C11.579 13.6397 11.5 13.4489 11.5 13.25C11.5 13.0511 11.579 12.8603 11.7197 12.7197C11.8603 12.579 12.0511 12.5 12.25 12.5C12.3163 12.5 12.3799 12.4737 12.4268 12.4268C12.4737 12.3799 12.5 12.3163 12.5 12.25C12.5026 12.0519 12.5824 11.8626 12.7225 11.7225ZM5.25 12.5C5.1837 12.5 5.12011 12.4737 5.07322 12.4268C5.02634 12.3799 5 12.3163 5 12.25C5 12.0511 4.92098 11.8603 4.78033 11.7197C4.63968 11.579 4.44891 11.5 4.25 11.5C4.05109 11.5 3.86032 11.579 3.71967 11.7197C3.57902 11.8603 3.5 12.0511 3.5 12.25C3.50262 12.7133 3.68784 13.1569 4.01546 13.4845C4.34309 13.8122 4.78668 13.9974 5.25 14C5.44891 14 5.63968 13.921 5.78033 13.7803C5.92098 13.6397 6 13.4489 6 13.25C6 13.0511 5.92098 12.8603 5.78033 12.7197C5.63968 12.579 5.44891 12.5 5.25 12.5ZM8 12.5H9.5C9.69891 12.5 9.88968 12.579 10.0303 12.7197C10.171 12.8603 10.25 13.0511 10.25 13.25C10.25 13.4489 10.171 13.6397 10.0303 13.7803C9.88968 13.921 9.69891 14 9.5 14H8C7.80109 14 7.61032 13.921 7.46967 13.7803C7.32902 13.6397 7.25 13.4489 7.25 13.25C7.25 13.0511 7.32902 12.8603 7.46967 12.7197C7.61032 12.579 7.80109 12.5 8 12.5ZM13.25 7.25C13.0519 7.25259 12.8626 7.33244 12.7225 7.47253C12.5824 7.61263 12.5026 7.80189 12.5 8V9.5C12.5 9.69891 12.579 9.88968 12.7197 10.0303C12.8603 10.171 13.0511 10.25 13.25 10.25C13.4489 10.25 13.6397 10.171 13.7803 10.0303C13.921 9.88968 14 9.69891 14 9.5V8C13.9974 7.80189 13.9176 7.61263 13.7775 7.47253C13.6374 7.33244 13.4481 7.25259 13.25 7.25Z" fill="black"/>
</g>
<defs>
<clipPath id="clip0_1068_186597">
<rect width="14" height="14" fill="white"/>
</clipPath>
</defs>
</svg>
