<svg width="14" height="14" viewBox="0 0 14 14" fill="none" xmlns="http://www.w3.org/2000/svg">
<g clip-path="url(#clip0_1068_186606)">
<path fill-rule="evenodd" clip-rule="evenodd" d="M12.5578 9.27347C12.894 7.22265 10.6671 6.38084 8.20245 5.9032L8.51905 1.32174C8.56844 0.606994 8.00197 1.1173e-05 7.28552 1.52765e-10C6.65808 -9.78351e-06 6.1301 0.469918 6.05735 1.09313L5.54363 5.41663L4.41197 1.30646C4.21245 0.581807 3.45935 0.135898 2.72812 0.309448C1.99806 0.482716 1.56439 1.20834 1.75766 1.93322L2.99842 6.58691L6.77916 6.58692C7.73078 6.58692 8.50222 7.35836 8.50222 8.30997C8.50222 9.10683 7.95581 9.79974 7.18091 9.98554L7.06926 10.0123C7.45293 10.4024 7.74988 10.9444 7.77633 11.6359C7.78952 11.9808 7.5206 12.2712 7.17567 12.2843C6.83075 12.2975 6.54043 12.0286 6.52724 11.6837C6.51101 11.2593 6.28871 10.9417 5.98391 10.723C5.64857 10.4824 5.32151 10.4363 5.23424 10.4506C4.90235 10.505 4.58695 10.287 4.52051 9.95727C4.45408 9.62759 4.66043 9.30445 4.98747 9.22603L6.88946 8.76999C7.1022 8.71898 7.25222 8.52875 7.25222 8.30997C7.25222 8.04871 7.04042 7.83692 6.77916 7.83692L3.29617 7.83691C2.35425 7.85316 1.48402 8.5155 1.42323 9.45714C1.34702 10.6374 1.53298 12.0132 2.62992 12.9684C2.97739 13.271 3.3013 13.5557 3.52064 13.749C3.70398 13.9106 3.93974 14 4.18414 14H10.26C10.521 14 10.775 13.9008 10.9476 13.7049C12.1056 12.3903 12.3301 10.8332 12.491 9.71756C12.5137 9.5601 12.5351 9.41143 12.5578 9.27347Z" fill="black"/>
</g>
<defs>
<clipPath id="clip0_1068_186606">
<rect width="14" height="14" fill="white"/>
</clipPath>
</defs>
</svg>
