<svg width="14" height="14" viewBox="0 0 14 14" fill="none" xmlns="http://www.w3.org/2000/svg">
<g clip-path="url(#clip0_1068_186615)">
<path fill-rule="evenodd" clip-rule="evenodd" d="M8.60989 2.65973C8.38252 2.46253 7.79205 2.29455 7.00735 2.78877C4.4994 4.36832 2.31435 7.219 1.57482 8.25244C1.33377 8.58929 0.86529 8.66695 0.528441 8.4259C0.191591 8.18485 0.113931 7.71637 0.354981 7.37952C1.1049 6.33156 3.43302 3.26723 6.20796 1.51952C7.4092 0.762962 8.74944 0.795176 9.59271 1.52657C10.0145 1.89237 10.2776 2.4165 10.2814 3.01284C10.2852 3.60408 10.0351 4.18988 9.57923 4.71111C8.15225 6.3426 6.26687 8.55596 5.47511 9.63646C5.37143 9.77795 5.3637 9.88544 5.37282 9.94846C5.3829 10.0181 5.4205 10.0835 5.48398 10.131C5.54448 10.1762 5.64142 10.214 5.78162 10.1977C5.92284 10.1813 6.14248 10.1042 6.40988 9.85907C6.63649 9.65129 6.8716 9.42983 7.11313 9.20233C7.85774 8.50099 8.66336 7.74217 9.46899 7.14937C10.3071 6.53269 11.2867 6.3616 12.0303 6.81618C12.4012 7.04289 12.6619 7.40556 12.7526 7.84039C12.8423 8.2703 12.7567 8.71837 12.5402 9.1296C12.3076 9.57154 12.1063 9.89095 11.9251 10.1764L11.9108 10.199C11.7364 10.4738 11.5867 10.7099 11.4257 11.018C11.3529 11.1574 11.3547 11.3123 11.4021 11.433C11.4256 11.4929 11.4487 11.5217 11.4616 11.5342C11.5538 11.5407 11.6341 11.5181 11.761 11.4196C11.939 11.2814 12.1382 11.046 12.4375 10.6544C12.689 10.3254 13.1597 10.2625 13.4888 10.5141C13.8179 10.7656 13.8807 11.2363 13.6292 11.5654C13.3446 11.9377 13.0356 12.3291 12.6807 12.6045C12.2888 12.9088 11.8144 13.0935 11.2372 13.0185C10.6039 12.9362 10.1891 12.4478 10.0059 11.9813C9.81381 11.4922 9.80499 10.8809 10.0962 10.3235C10.2868 9.95855 10.4662 9.67597 10.6371 9.40674C10.6442 9.39543 10.6514 9.38415 10.6586 9.37288C10.8353 9.09434 11.0097 8.81692 11.2128 8.431C11.2979 8.26937 11.2903 8.1756 11.2843 8.14675C11.2793 8.12283 11.2706 8.10982 11.2479 8.09598C11.2046 8.06948 10.9012 7.95784 10.358 8.35755C9.63243 8.89143 8.9251 9.5574 8.19796 10.242C7.94283 10.4822 7.68525 10.7247 7.4236 10.9646C6.50037 11.8111 5.37638 11.9237 4.58549 11.3321C3.81484 10.7556 3.60371 9.65256 4.26518 8.74986C5.10213 7.60767 7.03227 5.34468 8.45018 3.72358C8.72147 3.4134 8.78239 3.16926 8.78146 3.02233C8.78056 2.88049 8.72344 2.75822 8.60989 2.65973Z" fill="black"/>
</g>
<defs>
<clipPath id="clip0_1068_186615">
<rect width="14" height="14" fill="white"/>
</clipPath>
</defs>
</svg>
