<svg width="14" height="14" viewBox="0 0 14 14" fill="none" xmlns="http://www.w3.org/2000/svg">
<g clip-path="url(#clip0_1068_186609)">
<path fill-rule="evenodd" clip-rule="evenodd" d="M7.5 1.99951C7.5 1.46908 7.71071 0.960371 8.08579 0.585298C8.46086 0.210225 8.96957 -0.000488281 9.5 -0.000488281C10.0304 -0.000488281 10.5391 0.210225 10.9142 0.585298C11.2893 0.960371 11.5 1.46908 11.5 1.99951V2.34863H12.25C12.7141 2.34863 13.1592 2.53301 13.4874 2.8612C13.8156 3.18938 14 3.6345 14 4.09863V8.09863C14 8.51285 13.6642 8.84863 13.25 8.84863C12.8358 8.84863 12.5 8.51285 12.5 8.09863V4.09863C12.5 4.03233 12.4737 3.96874 12.4268 3.92186C12.3799 3.87497 12.3163 3.84863 12.25 3.84863H11.5V3.875H7.5V1.99951ZM7.5 11V5.125H11.5V11C11.5 11.2652 11.3946 11.5196 11.2071 11.7071C11.0196 11.8946 10.7652 12 10.5 12H10.25V13.25C10.25 13.6642 9.91421 14 9.5 14C9.08579 14 8.75 13.6642 8.75 13.25V12H8.5C8.23478 12 7.98043 11.8946 7.79289 11.7071C7.60536 11.5196 7.5 11.2652 7.5 11ZM4.76777 0.732233C5.23661 1.20107 5.5 1.83696 5.5 2.5V3.875H0.5V2.5C0.5 1.83696 0.763392 1.20107 1.23223 0.732233C1.70107 0.263392 2.33696 -2.61934e-10 3 -2.61934e-10C3.66304 -2.61934e-10 4.29893 0.263392 4.76777 0.732233ZM0.5 11.1001V5.125H5.5V11.1001C5.5 11.2171 5.45899 11.3303 5.38411 11.4202L3.38411 13.8202C3.18421 14.0601 2.81579 14.0601 2.61589 13.8202L0.615889 11.4202C0.541008 11.3303 0.5 11.2171 0.5 11.1001Z" fill="black"/>
</g>
<defs>
<clipPath id="clip0_1068_186609">
<rect width="14" height="14" fill="white"/>
</clipPath>
</defs>
</svg>
