<svg width="14" height="14" viewBox="0 0 14 14" fill="none" xmlns="http://www.w3.org/2000/svg">
<g clip-path="url(#clip0_1068_186621)">
<path fill-rule="evenodd" clip-rule="evenodd" d="M8.30847 0.922483L6.7503 3.00002C6.79729 3.03527 6.84204 3.07402 6.88415 3.11612L10.8842 7.11612C10.9263 7.15825 10.9651 7.20303 11.0003 7.25004L13.0779 5.69188C13.5647 5.32675 13.6153 4.61508 13.185 4.18478L9.81557 0.815376C9.38525 0.385067 8.6736 0.435644 8.30847 0.922483ZM1.38128 5.25366L0.166016 12.9504L3.11642 9.99998L2.80834 9.69191C2.56426 9.44783 2.56426 9.0521 2.80834 8.80802C3.05242 8.56394 3.44815 8.56394 3.69222 8.80802L5.19222 10.308C5.4363 10.5521 5.4363 10.9478 5.19222 11.1919C4.94815 11.436 4.55242 11.436 4.30834 11.1919L4.0003 10.8839L1.0499 13.8343L8.74662 12.619C9.19168 12.5487 9.53478 12.1895 9.58454 11.7417L10.0003 8L6.00028 4L2.25861 4.41574C1.81079 4.4655 1.45156 4.8086 1.38128 5.25366Z" fill="black"/>
</g>
<defs>
<clipPath id="clip0_1068_186621">
<rect width="14" height="14" fill="white"/>
</clipPath>
</defs>
</svg>
