<svg width="14" height="14" viewBox="0 0 14 14" fill="none" xmlns="http://www.w3.org/2000/svg">
<g clip-path="url(#clip0_1068_186612)">
<path d="M10.715 -0.000976562C10.5152 -0.000976562 10.3174 0.0389464 10.1332 0.116448C9.95019 0.193468 9.78428 0.306058 9.64512 0.447676L1.40732 8.64549C1.34616 8.70635 1.30179 8.782 1.27853 8.86508L0.0185299 13.3651C-0.0301752 13.539 0.0187291 13.7257 0.146458 13.8535C0.274188 13.9812 0.46088 14.0301 0.634827 13.9814L5.13483 12.7214C5.21791 12.6981 5.29356 12.6537 5.35442 12.5926L13.5521 4.3549L13.5535 4.35355C13.6934 4.21438 13.8045 4.04896 13.8804 3.86676C13.9566 3.68398 13.9958 3.48792 13.9958 3.2899C13.9958 3.09188 13.9566 2.89582 13.8804 2.71303C13.8045 2.53083 13.6934 2.3654 13.5535 2.22624L13.5521 2.2249L11.7859 0.448721C11.6466 0.306611 11.4803 0.193657 11.2968 0.116448C11.1126 0.0389464 10.9148 -0.000976562 10.715 -0.000976562Z" fill="black"/>
</g>
<defs>
<clipPath id="clip0_1068_186612">
<rect width="14" height="14" fill="white"/>
</clipPath>
</defs>
</svg>
