<svg width="14" height="14" viewBox="0 0 14 14" fill="none" xmlns="http://www.w3.org/2000/svg">
<g clip-path="url(#clip0_1068_186627)">
<path fill-rule="evenodd" clip-rule="evenodd" d="M0.25 7C0.25 3.27208 3.27208 0.25 7 0.25C10.7279 0.25 13.75 3.27208 13.75 7C13.75 10.7279 10.7279 13.75 7 13.75C3.27208 13.75 0.25 10.7279 0.25 7ZM10.6187 3.91246C10.5704 3.57069 10.2541 3.33281 9.91237 3.38116L9.90929 3.3816L9.90027 3.38287L9.86513 3.38786L9.73124 3.40688C9.61555 3.42334 9.44947 3.44703 9.24776 3.47596C8.84438 3.5338 8.29826 3.61263 7.7276 3.69649C6.59888 3.86236 5.33853 4.05303 4.92662 4.13782C4.00276 4.32797 3.5236 5.10445 3.39558 5.59091C3.30773 5.92472 3.50713 6.26655 3.84094 6.35439C4.17475 6.44224 4.51658 6.24284 4.60442 5.90903C4.62231 5.84107 4.68054 5.71215 4.78872 5.59284C4.89146 5.47952 5.02053 5.39469 5.17862 5.36215C5.22776 5.35204 5.29204 5.33998 5.36928 5.32627C5.35873 5.88249 5.32928 6.5505 5.24758 7.21578C5.12132 8.24398 4.88396 9.13052 4.50647 9.61666C4.29477 9.88929 4.34417 10.2819 4.6168 10.4936C4.88944 10.7053 5.28207 10.6559 5.49377 10.3833C6.09711 9.6063 6.35974 8.41475 6.48827 7.36814C6.5884 6.55273 6.61534 5.7427 6.62252 5.12544C7.01683 5.06529 7.44961 5.00081 7.875 4.93825V9.4736C7.875 9.67945 7.93964 9.95876 8.1369 10.1991C8.35526 10.4651 8.68864 10.6249 9.09999 10.6249C9.89006 10.6249 10.3819 10.0657 10.543 9.78311C10.7139 9.48322 10.6094 9.10155 10.3095 8.93062C10.0096 8.75969 9.62792 8.86422 9.45699 9.1641C9.45662 9.16471 9.45366 9.16962 9.44745 9.17812C9.44061 9.18749 9.43116 9.1994 9.41912 9.21285C9.39462 9.2402 9.36351 9.26929 9.32762 9.2951C9.26366 9.34109 9.19666 9.36876 9.125 9.374V4.75644C9.23168 4.74108 9.33223 4.72663 9.42519 4.7133C9.62641 4.68445 9.79204 4.66082 9.90734 4.64441L10.0407 4.62547L10.0756 4.62052L10.0845 4.61926L10.0867 4.61894C10.0867 4.61894 10.0874 4.61884 9.99991 4L10.0867 4.61894C10.4285 4.57059 10.6671 4.25424 10.6187 3.91246Z" fill="black"/>
</g>
<defs>
<clipPath id="clip0_1068_186627">
<rect width="14" height="14" fill="white"/>
</clipPath>
</defs>
</svg>
