<svg width="14" height="14" viewBox="0 0 14 14" fill="none" xmlns="http://www.w3.org/2000/svg">
<g clip-path="url(#clip0_1068_186624)">
<path fill-rule="evenodd" clip-rule="evenodd" d="M6.17586 0.812719C5.9128 0.612798 5.58969 0.508234 5.25954 0.516032H1.73289C1.34633 0.516032 0.975617 0.669589 0.702283 0.942923C0.428949 1.21626 0.275391 1.58698 0.275391 1.97353V12.0273C0.275391 12.4138 0.428949 12.7846 0.702283 13.0579C0.975617 13.3312 1.34633 13.4848 1.73289 13.4848H12.2654C12.6519 13.4848 13.0226 13.3312 13.296 13.0579C13.5693 12.7846 13.7229 12.4138 13.7229 12.0273V3.88853C13.7229 3.50198 13.5693 3.13126 13.296 2.85792C13.0226 2.58459 12.6519 2.43103 12.2654 2.43103H6.91078L6.709 1.62394C6.62909 1.30088 6.44083 1.0141 6.17586 0.812719ZM9.85937 7.56641C9.03094 7.56641 8.35937 6.89483 8.35937 6.06641C8.35937 5.23798 9.03094 4.56641 9.85937 4.56641C10.6878 4.56641 11.3594 5.23798 11.3594 6.06641C11.3594 6.89483 10.6878 7.56641 9.85937 7.56641ZM5.56113 7.21459L11.0272 12.2348H1.73289C1.67786 12.2348 1.62508 12.2129 1.58616 12.174C1.54725 12.1351 1.52539 12.0823 1.52539 12.0273V9.52975L4.80854 7.21459C4.91419 7.1283 5.04734 7.08105 5.18483 7.08105C5.32233 7.08105 5.45548 7.1283 5.56113 7.21459Z" fill="black"/>
</g>
<defs>
<clipPath id="clip0_1068_186624">
<rect width="14" height="14" fill="white"/>
</clipPath>
</defs>
</svg>
