<svg width="14" height="14" viewBox="0 0 14 14" fill="none" xmlns="http://www.w3.org/2000/svg">
<g clip-path="url(#clip0_1068_186630)">
<path fill-rule="evenodd" clip-rule="evenodd" d="M7 0C7.41422 0 7.75 0.335786 7.75 0.75V3H10.2498H10.6692C10.6382 2.8351 10.5959 2.65948 10.5385 2.48717C10.3212 1.83516 10.0018 1.5 9.5 1.5C9.39782 1.5 9.30041 1.47957 9.21163 1.44256L8.75 0.75C8.75 0.335786 9.08579 0 9.5 0C10.9982 0 11.6789 1.16484 11.9615 2.01283C12.0796 2.36715 12.1485 2.71465 12.1891 3H13C13.1498 3 13.2917 3.06716 13.3867 3.18301C13.4816 3.29885 13.5197 3.45117 13.4903 3.59806L12.4903 8.59806C12.4436 8.83177 12.2383 9 12 9H9.5V12.5H10C10.4142 12.5 10.75 12.8358 10.75 13.25C10.75 13.6642 10.4142 14 10 14H4C3.58579 14 3.25 13.6642 3.25 13.25C3.25 12.8358 3.58579 12.5 4 12.5H4.5V9H2C1.76166 9 1.55646 8.83177 1.50971 8.59806L0.509714 3.59806C0.480336 3.45117 0.518364 3.29885 0.613333 3.18301C0.708303 3.06716 0.850208 3 1 3H1.81096C1.85153 2.71465 1.92038 2.36715 2.03849 2.01283C2.32115 1.16484 3.00181 0 4.5 0C4.91422 0 5.25 0.335786 5.25 0.75C5.25 1.16421 4.91422 1.5 4.5 1.5C3.9982 1.5 3.67885 1.83516 3.46152 2.48717C3.40408 2.65948 3.36178 2.8351 3.3308 3H6.25V0.75C6.25 0.335786 6.58579 0 7 0ZM9.21163 1.44256C8.94055 1.32955 8.75 1.06203 8.75 0.75L9.21163 1.44256Z" fill="black"/>
</g>
<defs>
<clipPath id="clip0_1068_186630">
<rect width="14" height="14" fill="white"/>
</clipPath>
</defs>
</svg>
