<svg width="14" height="14" viewBox="0 0 14 14" fill="none" xmlns="http://www.w3.org/2000/svg">
<g clip-path="url(#clip0_1068_186633)">
<path fill-rule="evenodd" clip-rule="evenodd" d="M4.91421 0C4.51639 0 4.13486 0.158035 3.85355 0.43934L0.43934 3.85355C0.158035 4.13486 0 4.51639 0 4.91421V9.08579C0 9.48361 0.158035 9.86514 0.43934 10.1464L3.85355 13.5607C4.13486 13.842 4.51639 14 4.91421 14H9.08579C9.48361 14 9.86514 13.842 10.1464 13.5607L13.5607 10.1464C13.842 9.86514 14 9.48361 14 9.08579V4.91421C14 4.51639 13.842 4.13486 13.5607 3.85355L10.1464 0.43934C9.86514 0.158035 9.48361 0 9.08579 0H4.91421Z" fill="black"/>
</g>
<defs>
<clipPath id="clip0_1068_186633">
<rect width="14" height="14" fill="white"/>
</clipPath>
</defs>
</svg>
