<svg width="14" height="14" viewBox="0 0 14 14" fill="none" xmlns="http://www.w3.org/2000/svg">
<g clip-path="url(#clip0_1068_186636)">
<path fill-rule="evenodd" clip-rule="evenodd" d="M7.75 0.75C7.75 0.335786 7.41421 0 7 0C6.58579 0 6.25 0.335786 6.25 0.75V1.75C6.25 2.16421 6.58579 2.5 7 2.5C7.41421 2.5 7.75 2.16421 7.75 1.75V0.75ZM0.5 14.0004H2.81947C4.89982 14.0004 6.63289 12.4057 6.80565 10.3326L6.91695 8.99694C6.95807 8.50358 6.60332 8.07482 6.12734 8.0091L6.12476 8.00884C5.55028 7.94994 5.03151 8.35441 4.94854 8.92591L4.78803 10.0315C4.74835 10.3048 4.49465 10.4942 4.22138 10.4545C3.9481 10.4148 3.75873 10.1611 3.7984 9.88785L3.95891 8.78224C4.10788 7.75612 4.98552 7.00927 6 7.00312V5.24455C6 4.50219 5.3982 3.90039 4.65584 3.90039C3.99124 3.90039 3.42641 4.38609 3.32685 5.04319L2.62882 9.6502C2.55475 10.1391 2.13454 10.5004 1.6401 10.5004H0.5C0.223858 10.5004 0 10.7242 0 11.0004V13.5004C0 13.7765 0.223858 14.0004 0.5 14.0004ZM13.5 14.0004H11.1806C9.10021 14.0004 7.36714 12.4057 7.19438 10.3326L7.08308 8.99694C7.04181 8.50172 7.3994 8.07158 7.87809 8.00837C8.45144 7.95108 8.96865 8.35517 9.05148 8.92573L9.21199 10.0313C9.25167 10.3046 9.50536 10.494 9.77864 10.4543C10.0519 10.4146 10.2413 10.1609 10.2016 9.88767L10.0411 8.78206C9.89214 7.75594 9.01451 7.0091 8.00003 7.00293V5.24455C8.00003 4.50219 8.60183 3.90039 9.34419 3.90039C10.0088 3.90039 10.5736 4.38609 10.6732 5.04319L11.3712 9.6502C11.4453 10.1391 11.8655 10.5004 12.3599 10.5004H13.5C13.7762 10.5004 14 10.7242 14 11.0004V13.5004C14 13.7765 13.7762 14.0004 13.5 14.0004ZM11.5303 0.71967C11.8232 1.01256 11.8232 1.48744 11.5303 1.78033L10.5303 2.78033C10.2374 3.07322 9.76256 3.07322 9.46967 2.78033C9.17678 2.48744 9.17678 2.01256 9.46967 1.71967L10.4697 0.71967C10.7626 0.426777 11.2374 0.426777 11.5303 0.71967ZM3.53033 0.71967C3.23744 0.426777 2.76256 0.426777 2.46967 0.71967C2.17678 1.01256 2.17678 1.48744 2.46967 1.78033L3.46967 2.78033C3.76256 3.07322 4.23744 3.07322 4.53033 2.78033C4.82322 2.48744 4.82322 2.01256 4.53033 1.71967L3.53033 0.71967Z" fill="black"/>
</g>
<defs>
<clipPath id="clip0_1068_186636">
<rect width="14" height="14" fill="white"/>
</clipPath>
</defs>
</svg>
