<svg width="14" height="14" viewBox="0 0 14 14" fill="none" xmlns="http://www.w3.org/2000/svg">
<g clip-path="url(#clip0_1068_186639)">
<path fill-rule="evenodd" clip-rule="evenodd" d="M0 1.5C0 0.671573 0.671573 0 1.5 0H12.5C13.3284 0 14 0.671573 14 1.5V2.875H0V1.5ZM0 4.125H14V9.5C14 10.3284 13.3284 11 12.5 11H10.3107L12.0303 12.7197C12.3232 13.0126 12.3232 13.4874 12.0303 13.7803C11.7374 14.0732 11.2626 14.0732 10.9697 13.7803L8.18934 11H7.75V13.25C7.75 13.6642 7.41421 14 7 14C6.58579 14 6.25 13.6642 6.25 13.25V11H5.81066L3.03033 13.7803C2.73744 14.0732 2.26256 14.0732 1.96967 13.7803C1.67678 13.4874 1.67678 13.0126 1.96967 12.7197L3.68934 11H1.5C0.671573 11 0 10.3284 0 9.5V4.125Z" fill="black"/>
</g>
<defs>
<clipPath id="clip0_1068_186639">
<rect width="14" height="14" fill="white"/>
</clipPath>
</defs>
</svg>
