<svg width="14" height="14" viewBox="0 0 14 14" fill="none" xmlns="http://www.w3.org/2000/svg">
<g clip-path="url(#clip0_1068_186645)">
<path fill-rule="evenodd" clip-rule="evenodd" d="M1.48991 3.87669C1.42182 3.46811 1.0354 3.1921 0.626818 3.2602C0.21824 3.32829 -0.0577747 3.71471 0.0103216 4.12329L0.510321 7.12329C0.578418 7.53187 0.964838 7.80788 1.37342 7.73979C1.782 7.67169 2.05801 7.28527 1.98991 6.87669L1.48991 3.87669ZM3.98991 3.87669C3.92182 3.46811 3.5354 3.1921 3.12682 3.2602C2.71824 3.32829 2.44223 3.71471 2.51032 4.12329L3.01032 7.12329C3.07842 7.53187 3.46484 7.80788 3.87342 7.73979C4.282 7.67169 4.55801 7.28527 4.48991 6.87669L3.98991 3.87669ZM11.1234 6.2602C11.532 6.32829 11.808 6.71471 11.7399 7.12329L11.2399 10.1233C11.1718 10.5319 10.7854 10.8079 10.3768 10.7398C9.96824 10.6717 9.69223 10.2853 9.76032 9.87669L10.2603 6.87669C10.3284 6.46811 10.7148 6.1921 11.1234 6.2602ZM13.9899 7.12329C14.058 6.71471 13.782 6.32829 13.3734 6.2602C12.9648 6.1921 12.5784 6.46811 12.5103 6.87669L12.0103 9.87669C11.9422 10.2853 12.2182 10.6717 12.6268 10.7398C13.0354 10.8079 13.4218 10.5319 13.4899 10.1233L13.9899 7.12329Z" fill="black"/>
</g>
<defs>
<clipPath id="clip0_1068_186645">
<rect width="14" height="14" fill="white"/>
</clipPath>
</defs>
</svg>
