<svg width="14" height="14" viewBox="0 0 14 14" fill="none" xmlns="http://www.w3.org/2000/svg">
<g clip-path="url(#clip0_1068_186648)">
<path fill-rule="evenodd" clip-rule="evenodd" d="M5.27143 2.06201C5.56402 1.76882 5.56353 1.29395 5.27034 1.00135C4.97715 0.708761 4.50227 0.709248 4.20968 1.00244C3.65915 1.5541 3.28448 2.25657 3.13302 3.02108C2.98156 3.78559 3.06011 4.57784 3.35873 5.29774C3.36718 5.31811 3.37579 5.33839 3.38457 5.35859C3.36308 5.36105 3.3416 5.36369 3.32013 5.36651C2.54736 5.46789 1.82198 5.79606 1.23565 6.30954C0.649319 6.82302 0.228346 7.49878 0.0259236 8.25142C-0.0816558 8.65142 0.155397 9.0629 0.555397 9.17048C0.955396 9.27806 1.36687 9.041 1.47445 8.641C1.59985 8.17473 1.86065 7.75609 2.22389 7.43798C2.42871 7.25861 2.66092 7.11574 2.91033 7.01398C2.89348 7.16525 2.88483 7.31899 2.88483 7.47476C2.88483 9.14271 3.87711 10.5789 5.30355 11.2252C5.09741 11.3807 4.86682 11.5033 4.61975 11.5874C4.16265 11.743 3.6697 11.7595 3.20319 11.635C2.80298 11.5282 2.39197 11.7661 2.28516 12.1663C2.17835 12.5665 2.4162 12.9775 2.81641 13.0843C3.56944 13.2853 4.36515 13.2585 5.10299 13.0074C5.84083 12.7564 6.48768 12.2922 6.96183 11.6736C6.97476 11.6568 6.98754 11.6398 7.00017 11.6227C7.01281 11.6398 7.0256 11.6568 7.03852 11.6736C7.51267 12.2922 8.15952 12.7564 8.89736 13.0074C9.6352 13.2585 10.4309 13.2853 11.184 13.0843C11.5842 12.9775 11.822 12.5665 11.7152 12.1663C11.6084 11.7661 11.1974 11.5282 10.7972 11.635C10.3307 11.7595 9.8377 11.743 9.3806 11.5874C9.13354 11.5033 8.90296 11.3807 8.69683 11.2253C10.1233 10.5789 11.1156 9.14273 11.1156 7.47476C11.1156 7.319 11.107 7.16527 11.0901 7.01401C11.3395 7.11577 11.5717 7.25863 11.7765 7.43798C12.1397 7.75609 12.4005 8.17473 12.5259 8.641C12.6335 9.041 13.045 9.27806 13.445 9.17048C13.845 9.0629 14.082 8.65142 13.9745 8.25142C13.772 7.49878 13.3511 6.82302 12.7647 6.30954C12.1784 5.79606 11.453 5.46789 10.6802 5.36651C10.6588 5.36369 10.6373 5.36105 10.6158 5.35859C10.6246 5.33839 10.6332 5.31811 10.6416 5.29774C10.9403 4.57784 11.0188 3.78559 10.8673 3.02108C10.7159 2.25657 10.3412 1.5541 9.79066 1.00244C9.49807 0.709248 9.02319 0.708761 8.73 1.00135C8.43681 1.29395 8.43632 1.76882 8.72891 2.06201C9.06997 2.40377 9.30208 2.83896 9.39592 3.31258C9.45041 3.58764 9.45684 3.86849 9.41643 4.14299C8.73792 3.65008 7.90301 3.35938 7.00021 3.35938C6.09738 3.35938 5.26244 3.6501 4.58392 4.14304C4.5435 3.86852 4.54993 3.58766 4.60443 3.31258C4.69826 2.83896 4.93037 2.40377 5.27143 2.06201ZM8.53538 5.68669C8.60314 5.63192 8.66778 5.57368 8.72908 5.51225C8.26816 5.1059 7.66298 4.85938 7.00021 4.85938C6.33743 4.85938 5.73222 5.10592 5.2713 5.51229C5.33258 5.5737 5.39721 5.63193 5.46495 5.68668C5.50264 5.70382 5.5401 5.72157 5.57732 5.73993C5.76877 5.8344 5.95139 5.94383 6.12364 6.06681C6.40195 6.17382 6.69895 6.22952 7.00017 6.22952C7.3014 6.22952 7.59841 6.17382 7.87672 6.0668C8.04897 5.94382 8.23158 5.8344 8.42303 5.73993C8.46024 5.72157 8.4977 5.70383 8.53538 5.68669ZM6.24424 8.88732C6.19725 8.59536 6.09739 8.31282 5.948 8.05409C5.79725 7.793 5.60028 7.56346 5.36817 7.37586C5.17513 7.28807 4.98867 7.18448 4.81078 7.06568C4.77661 7.04287 4.74284 7.01954 4.70948 6.99572C4.62305 6.96249 4.53498 6.93427 4.44571 6.91113C4.40584 7.09266 4.38483 7.28126 4.38483 7.47476C4.38483 8.63189 5.13629 9.61351 6.17783 9.95823C6.20597 9.86159 6.22818 9.76309 6.24424 9.66329C6.23992 9.61967 6.23633 9.57592 6.23347 9.53207C6.21938 9.31627 6.22314 9.10066 6.24424 8.88732ZM9.29084 6.99574C9.3773 6.96249 9.4654 6.93426 9.55471 6.91112C9.59458 7.09265 9.6156 7.28125 9.6156 7.47476C9.6156 8.63192 8.8641 9.61356 7.82253 9.95825C7.79438 9.86161 7.77217 9.76311 7.75611 9.66331C7.76043 9.61968 7.76402 9.57593 7.76688 9.53207C7.78097 9.31627 7.77721 9.10066 7.75611 8.88732C7.8031 8.59536 7.90296 8.31282 8.05235 8.05409C8.2031 7.79299 8.40008 7.56345 8.63219 7.37585C8.82522 7.28807 9.01167 7.18448 9.18956 7.06568C9.22372 7.04287 9.25748 7.01955 9.29084 6.99574Z" fill="black"/>
</g>
<defs>
<clipPath id="clip0_1068_186648">
<rect width="14" height="14" fill="white"/>
</clipPath>
</defs>
</svg>
