<svg width="14" height="14" viewBox="0 0 14 14" fill="none" xmlns="http://www.w3.org/2000/svg">
<g clip-path="url(#clip0_1068_186651)">
<path fill-rule="evenodd" clip-rule="evenodd" d="M3.68245 0.20795C4.44979 -0.0413341 5.27223 -0.0670495 6.05364 0.13381C6.83506 0.33467 7.54315 0.753805 8.09516 1.34222C8.48612 1.75898 8.78735 2.24845 8.98334 2.78019C9.37736 2.59819 9.80841 2.50147 10.248 2.5H10.2497C11.0453 2.5 11.8084 2.81607 12.371 3.37868C12.9336 3.94129 13.2497 4.70435 13.2497 5.5C13.2497 6.29565 12.9336 7.05871 12.371 7.62132C11.8084 8.18393 11.0453 8.5 10.2497 8.5H5.00022C4.19359 8.50077 3.40286 8.27199 2.72142 7.84036C2.03983 7.40863 1.49521 6.79182 1.15123 6.06201C0.807236 5.3322 0.67809 4.51955 0.778884 3.71906C0.879677 2.91856 1.20625 2.1633 1.72042 1.54154C2.23459 0.919788 2.91511 0.457234 3.68245 0.20795ZM5.22055 10.5854C5.40579 10.2149 5.25562 9.76442 4.88514 9.57918C4.51465 9.39394 4.06415 9.54411 3.8789 9.91459L3.3789 10.9146C3.19366 11.2851 3.34383 11.7356 3.71432 11.9208C4.0848 12.1061 4.5353 11.9559 4.72055 11.5854L5.22055 10.5854ZM9.78504 9.57918C10.1555 9.76442 10.3057 10.2149 10.1205 10.5854L9.62045 11.5854C9.43521 11.9559 8.9847 12.1061 8.61422 11.9208C8.24373 11.7356 8.09356 11.2851 8.27881 10.9146L8.77881 9.91459C8.96405 9.54411 9.41455 9.39394 9.78504 9.57918ZM7.1705 12.5854C7.35574 12.2149 7.20557 11.7644 6.83509 11.5792C6.4646 11.3939 6.0141 11.5441 5.82886 11.9146L5.32886 12.9146C5.14361 13.2851 5.29378 13.7356 5.66427 13.9208C6.03475 14.1061 6.48526 13.9559 6.6705 13.5854L7.1705 12.5854ZM1.93518 11.5792C2.30567 11.7644 2.45584 12.2149 2.27059 12.5854L1.77059 13.5854C1.58535 13.9559 1.13485 14.1061 0.764363 13.9208C0.393879 13.7356 0.243711 13.2851 0.428953 12.9146L0.928953 11.9146C1.1142 11.5441 1.5647 11.3939 1.93518 11.5792ZM12.0704 12.5854C12.2557 12.2149 12.1055 11.7644 11.735 11.5792C11.3645 11.3939 10.914 11.5441 10.7288 11.9146L10.2288 12.9146C10.0435 13.2851 10.1937 13.7356 10.5642 13.9208C10.9347 14.1061 11.3852 13.9559 11.5704 13.5854L12.0704 12.5854Z" fill="black"/>
</g>
<defs>
<clipPath id="clip0_1068_186651">
<rect width="14" height="14" fill="white"/>
</clipPath>
</defs>
</svg>
