<svg width="14" height="14" viewBox="0 0 14 14" fill="none" xmlns="http://www.w3.org/2000/svg">
<path fill-rule="evenodd" clip-rule="evenodd" d="M1.69452 9.75484C1.50992 11.2375 1.65467 13.0607 3.5671 13.9248C3.68271 13.9771 3.80925 14 3.93611 14H10.3299C10.5951 14 10.8495 13.8946 11.037 13.7071L11.1273 13.6168C12.0025 12.7417 12.4941 11.5547 12.4941 10.317V3.79167C12.4941 2.98625 11.8412 2.33333 11.0358 2.33333C10.2304 2.33333 9.57741 2.98625 9.57741 3.79167V6.04167C7.83717 5.26024 7.4076 5.1825 5.49408 5.45833V1.45833C5.49408 0.652918 4.84116 0 4.03575 0C3.23033 0 2.57741 0.652918 2.57741 1.45833V7.2124H6.14964C7.1223 7.2124 7.9079 8.00636 7.89761 8.97897C7.89068 9.63415 7.52008 10.2176 6.95803 10.5106C7.21453 10.846 7.3889 11.2828 7.4092 11.8135C7.42239 12.1584 7.15347 12.4488 6.80854 12.4619C6.46362 12.4751 6.17331 12.2062 6.16011 11.8613C6.14575 11.4858 5.98905 11.2568 5.81986 11.1214C5.62514 10.9655 5.4351 10.9461 5.3857 10.9542C5.05527 11.0083 4.74088 10.7924 4.67274 10.4646C4.6046 10.1368 4.80691 9.81347 5.13155 9.73145L6.27165 9.44337C6.49088 9.38798 6.64529 9.19185 6.64768 8.96574C6.65062 8.68862 6.42678 8.4624 6.14964 8.4624H2.55218C2.09582 8.74068 1.76393 9.1974 1.69452 9.75484Z" fill="black"/>
</svg>
