<svg width="14" height="14" viewBox="0 0 14 14" fill="none" xmlns="http://www.w3.org/2000/svg">
<g clip-path="url(#clip0_1068_186663)">
<path fill-rule="evenodd" clip-rule="evenodd" d="M10.7803 4.28033C11.0732 3.98744 11.0732 3.51256 10.7803 3.21967C10.4874 2.92678 10.0126 2.92678 9.7197 3.21967L5.18128 7.75809C5.17737 7.76183 5.17349 7.76563 5.16965 7.76947C5.1658 7.77332 5.162 7.7772 5.15826 7.7811L0.219692 12.7197C0.00519332 12.9342 -0.0589735 13.2568 0.0571122 13.537C0.173198 13.8173 0.446675 14 0.750022 14H13.25C13.6642 14 14 13.6642 14 13.25C14 12.8358 13.6642 12.5 13.25 12.5H8.46391C8.31509 10.968 7.71301 9.51424 6.73504 8.32564L10.7803 4.28033ZM5.66817 9.39252L2.56069 12.5H6.95514C6.81821 11.3662 6.37294 10.2911 5.66817 9.39252Z" fill="black"/>
</g>
<defs>
<clipPath id="clip0_1068_186663">
<rect width="14" height="14" fill="white"/>
</clipPath>
</defs>
</svg>
