<svg width="14" height="14" viewBox="0 0 14 14" fill="none" xmlns="http://www.w3.org/2000/svg">
<g clip-path="url(#clip0_1068_186669)">
<path fill-rule="evenodd" clip-rule="evenodd" d="M5.35355 0.146447C5.25979 0.0526784 5.13261 0 5 0C4.86739 0 4.74022 0.0526784 4.64645 0.146447C3.42551 1.36738 2.73959 3.02333 2.73959 4.75C2.73959 6.47667 3.42551 8.13262 4.64645 9.35355C5.86739 10.5745 7.52333 11.2604 9.25 11.2604C10.9767 11.2604 12.6326 10.5745 13.8536 9.35355C14.0488 9.15829 14.0488 8.84171 13.8536 8.64645L10.3107 5.10355L11.7071 3.70711C12.0976 3.31658 12.0976 2.68342 11.7071 2.29289C11.3166 1.90237 10.6834 1.90237 10.2929 2.29289L8.89645 3.68934L5.35355 0.146447ZM2.7632 9.00977C3.05146 9.44873 3.38562 9.86046 3.76256 10.2374C4.66096 11.1358 5.75694 11.7912 6.94837 12.1612L7.3069 13.3563C7.40314 13.6771 7.16292 14 6.82798 14H0.389699C0.174474 14 0 13.8255 0 13.6103C0 13.5382 0.0200118 13.4675 0.0578084 13.406L2.7632 9.00977Z" fill="black"/>
</g>
<defs>
<clipPath id="clip0_1068_186669">
<rect width="14" height="14" fill="white"/>
</clipPath>
</defs>
</svg>
