<svg width="14" height="14" viewBox="0 0 14 14" fill="none" xmlns="http://www.w3.org/2000/svg">
<g clip-path="url(#clip0_1068_186672)">
<path fill-rule="evenodd" clip-rule="evenodd" d="M9.75 0.75C9.75 0.335786 10.0858 0 10.5 0H12.25C13.2165 0 14 0.783502 14 1.75V3.5C14 3.91421 13.6642 4.25 13.25 4.25C12.8358 4.25 12.5 3.91421 12.5 3.5V1.75C12.5 1.61193 12.3881 1.5 12.25 1.5H10.5C10.0858 1.5 9.75 1.16421 9.75 0.75ZM0 7C0 6.58579 0.335786 6.25 0.75 6.25H13.25C13.6642 6.25 14 6.58579 14 7C14 7.41421 13.6642 7.75 13.25 7.75H0.75C0.335786 7.75 0 7.41421 0 7ZM1.5 1.75C1.5 1.61193 1.61193 1.5 1.75 1.5H3.5C3.91421 1.5 4.25 1.16421 4.25 0.75C4.25 0.335786 3.91421 0 3.5 0H1.75C0.783502 0 0 0.783502 0 1.75V3.5C0 3.91421 0.335786 4.25 0.75 4.25C1.16421 4.25 1.5 3.91421 1.5 3.5V1.75ZM13.25 9.75C13.6642 9.75 14 10.0858 14 10.5V12.25C14 13.2165 13.2165 14 12.25 14H10.5C10.0858 14 9.75 13.6642 9.75 13.25C9.75 12.8358 10.0858 12.5 10.5 12.5H12.25C12.3881 12.5 12.5 12.3881 12.5 12.25V10.5C12.5 10.0858 12.8358 9.75 13.25 9.75ZM1.50012 10.5C1.50012 10.0858 1.16434 9.75 0.750122 9.75C0.335909 9.75 0.00012207 10.0858 0.00012207 10.5V12.2499C0.00012207 13.2164 0.783624 13.9999 1.75012 13.9999H3.5C3.91421 13.9999 4.25 13.6641 4.25 13.2499C4.25 12.8357 3.91421 12.4999 3.5 12.4999H1.75012C1.61205 12.4999 1.50012 12.388 1.50012 12.2499V10.5Z" fill="black"/>
</g>
<defs>
<clipPath id="clip0_1068_186672">
<rect width="14" height="14" fill="white"/>
</clipPath>
</defs>
</svg>
