<svg width="14" height="14" viewBox="0 0 14 14" fill="none" xmlns="http://www.w3.org/2000/svg">
<g clip-path="url(#clip0_1068_186675)">
<path fill-rule="evenodd" clip-rule="evenodd" d="M1.75 1.5C1.6837 1.5 1.62011 1.52634 1.57322 1.57322C1.52634 1.62011 1.5 1.6837 1.5 1.75V3.25C1.5 3.66421 1.16421 4 0.75 4C0.335786 4 0 3.66421 0 3.25V1.75C0 1.28587 0.184375 0.840752 0.512563 0.512563C0.840752 0.184375 1.28587 0 1.75 0H3.25C3.66421 0 4 0.335786 4 0.75C4 1.16421 3.66421 1.5 3.25 1.5H1.75ZM13.25 10C13.6642 10 14 10.3358 14 10.75V12.25C14 12.7141 13.8156 13.1592 13.4874 13.4874C13.1592 13.8156 12.7141 14 12.25 14H10.75C10.3358 14 10 13.6642 10 13.25C10 12.8358 10.3358 12.5 10.75 12.5H12.25C12.3163 12.5 12.3799 12.4737 12.4268 12.4268C12.4737 12.3799 12.5 12.3163 12.5 12.25V10.75C12.5 10.3358 12.8358 10 13.25 10ZM1.5 10.75C1.5 10.3358 1.16421 10 0.75 10C0.335786 10 0 10.3358 0 10.75V12.25C0 12.7141 0.184375 13.1592 0.512563 13.4874C0.840752 13.8156 1.28587 14 1.75 14H3.25C3.66421 14 4 13.6642 4 13.25C4 12.8358 3.66421 12.5 3.25 12.5H1.75C1.6837 12.5 1.62011 12.4737 1.57322 12.4268C1.52634 12.3799 1.5 12.3163 1.5 12.25V10.75ZM10 0.75C10 0.335786 10.3358 0 10.75 0H12.25C12.7141 0 13.1592 0.184375 13.4874 0.512563C13.8156 0.840752 14 1.28587 14 1.75V3.25C14 3.66421 13.6642 4 13.25 4C12.8358 4 12.5 3.66421 12.5 3.25V1.75C12.5 1.6837 12.4737 1.62011 12.4268 1.57322C12.3799 1.52634 12.3163 1.5 12.25 1.5H10.75C10.3358 1.5 10 1.16421 10 0.75ZM6.25 4C5.00736 4 4 5.00736 4 6.25C4 7.49264 5.00736 8.5 6.25 8.5C7.49264 8.5 8.5 7.49264 8.5 6.25C8.5 5.00736 7.49264 4 6.25 4ZM2.5 6.25C2.5 4.17893 4.17893 2.5 6.25 2.5C8.32107 2.5 10 4.17893 10 6.25C10 7.01431 9.77134 7.72522 9.3787 8.31804L11.0303 9.96967C11.3232 10.2626 11.3232 10.7374 11.0303 11.0303C10.7374 11.3232 10.2626 11.3232 9.96967 11.0303L8.31804 9.3787C7.72522 9.77134 7.01431 10 6.25 10C4.17893 10 2.5 8.32107 2.5 6.25Z" fill="black"/>
</g>
<defs>
<clipPath id="clip0_1068_186675">
<rect width="14" height="14" fill="white"/>
</clipPath>
</defs>
</svg>
