<svg width="14" height="14" viewBox="0 0 14 14" fill="none" xmlns="http://www.w3.org/2000/svg">
<g clip-path="url(#clip0_1068_186678)">
<path fill-rule="evenodd" clip-rule="evenodd" d="M5.73844 0.113512C6.14819 0.0388823 6.56988 0 7 0C7.43012 0 7.85181 0.0388823 8.26156 0.113512C8.66907 0.187733 8.93925 0.578253 8.86503 0.985763C8.79081 1.39327 8.40029 1.66346 7.99278 1.58923C7.6713 1.53068 7.33956 1.5 7 1.5C6.66044 1.5 6.3287 1.53068 6.00722 1.58923C5.59971 1.66346 5.20919 1.39327 5.13497 0.985763C5.06075 0.578253 5.33093 0.187733 5.73844 0.113512ZM4.0662 1.42925C4.3018 1.76994 4.21661 2.23711 3.87592 2.4727C3.32782 2.85174 2.85174 3.32782 2.4727 3.87592C2.23711 4.21661 1.76994 4.3018 1.42925 4.0662C1.08857 3.8306 1.00338 3.36343 1.23897 3.02274C1.72088 2.32589 2.32589 1.72088 3.02275 1.23897C3.36343 1.00338 3.8306 1.08857 4.0662 1.42925ZM9.9338 1.42925C10.1694 1.08857 10.6366 1.00338 10.9773 1.23897C11.6741 1.72088 12.2791 2.32589 12.761 3.02275C12.9966 3.36343 12.9114 3.8306 12.5707 4.0662C12.2301 4.3018 11.7629 4.21661 11.5273 3.87592C11.1483 3.32782 10.6722 2.85174 10.1241 2.4727C9.78339 2.23711 9.6982 1.76994 9.9338 1.42925ZM0.985763 5.13497C1.39327 5.20919 1.66346 5.59971 1.58923 6.00722C1.53068 6.3287 1.5 6.66044 1.5 7C1.5 7.33956 1.53068 7.6713 1.58923 7.99278C1.66346 8.40029 1.39327 8.79081 0.985763 8.86503C0.578253 8.93925 0.187733 8.66907 0.113512 8.26156C0.0388823 7.85181 0 7.43012 0 7C0 6.56988 0.0388823 6.14819 0.113512 5.73844C0.187733 5.33093 0.578253 5.06074 0.985763 5.13497ZM13.0142 5.13497C13.4217 5.06075 13.8123 5.33093 13.8865 5.73844C13.9611 6.14819 14 6.56988 14 7C14 7.43012 13.9611 7.85181 13.8865 8.26156C13.8123 8.66907 13.4217 8.93925 13.0142 8.86503C12.6067 8.79081 12.3365 8.40029 12.4108 7.99278C12.4693 7.6713 12.5 7.33956 12.5 7C12.5 6.66044 12.4693 6.3287 12.4108 6.00722C12.3365 5.59971 12.6067 5.20919 13.0142 5.13497ZM1.42925 9.9338C1.76994 9.6982 2.23711 9.78339 2.4727 10.1241C2.85174 10.6722 3.32782 11.1483 3.87592 11.5273C4.21661 11.7629 4.3018 12.2301 4.0662 12.5707C3.8306 12.9114 3.36343 12.9966 3.02274 12.761C2.32589 12.2791 1.72088 11.6741 1.23897 10.9773C1.00338 10.6366 1.08857 10.1694 1.42925 9.9338ZM12.5707 9.9338C12.9114 10.1694 12.9966 10.6366 12.761 10.9773C12.2791 11.6741 11.6741 12.2791 10.9773 12.761C10.6366 12.9966 10.1694 12.9114 9.9338 12.5707C9.6982 12.2301 9.78339 11.7629 10.1241 11.5273C10.6722 11.1483 11.1483 10.6722 11.5273 10.1241C11.7629 9.78339 12.2301 9.6982 12.5707 9.9338ZM5.13497 13.0142C5.20919 12.6067 5.59971 12.3365 6.00722 12.4108C6.3287 12.4693 6.66044 12.5 7 12.5C7.33956 12.5 7.6713 12.4693 7.99278 12.4108C8.40029 12.3365 8.79081 12.6067 8.86503 13.0142C8.93925 13.4217 8.66907 13.8123 8.26156 13.8865C7.85181 13.9611 7.43012 14 7 14C6.56988 14 6.14819 13.9611 5.73844 13.8865C5.33093 13.8123 5.06074 13.4217 5.13497 13.0142Z" fill="black"/>
</g>
<defs>
<clipPath id="clip0_1068_186678">
<rect width="14" height="14" fill="white"/>
</clipPath>
</defs>
</svg>
