<svg width="14" height="14" viewBox="0 0 14 14" fill="none" xmlns="http://www.w3.org/2000/svg">
<g clip-path="url(#clip0_1068_186681)">
<path fill-rule="evenodd" clip-rule="evenodd" d="M11.25 5.5C12.7688 5.5 14 4.26878 14 2.75C14 1.23122 12.7688 0 11.25 0C9.73122 0 8.5 1.23122 8.5 2.75C8.5 2.79373 8.50102 2.83722 8.50304 2.88045L4.50255 4.88069C4.02671 4.48675 3.416 4.25 2.75 4.25C1.23122 4.25 0 5.48122 0 7C0 8.51878 1.23122 9.75 2.75 9.75C3.416 9.75 4.02671 9.51325 4.50255 9.11931L8.50304 11.1196C8.50102 11.1628 8.5 11.2063 8.5 11.25C8.5 12.7688 9.73122 14 11.25 14C12.7688 14 14 12.7688 14 11.25C14 9.73122 12.7688 8.5 11.25 8.5C10.4977 8.5 9.81588 8.80212 9.31936 9.29165L5.47537 7.36965C5.49161 7.24875 5.5 7.12535 5.5 7C5.5 6.87465 5.49161 6.75125 5.47537 6.63035L9.31936 4.70835C9.81588 5.19788 10.4977 5.5 11.25 5.5Z" fill="black"/>
</g>
<defs>
<clipPath id="clip0_1068_186681">
<rect width="14" height="14" fill="white"/>
</clipPath>
</defs>
</svg>
