<svg width="14" height="14" viewBox="0 0 14 14" fill="none" xmlns="http://www.w3.org/2000/svg">
<g clip-path="url(#clip0_1068_186690)">
<path fill-rule="evenodd" clip-rule="evenodd" d="M0 1.49925C0 0.67848 0.67943 -0.000244141 1.5 -0.000244141H12.5C13.3206 -0.000244141 14 0.678481 14 1.49925V4.35334C14 8.48875 11.4901 12.3594 7.58873 13.8809C7.41772 13.9476 7.21478 14.0013 6.99302 14.0002C6.77602 13.9992 6.57792 13.9459 6.41127 13.8809C2.50995 12.3594 0 8.48875 0 4.35334V1.49925ZM10.5606 4.50828C10.8358 4.1987 10.8079 3.72464 10.4983 3.44945C10.1887 3.17426 9.71469 3.20215 9.4395 3.51174L5.89798 7.49595L4.45006 6.41001C4.11869 6.16148 3.64859 6.22864 3.40006 6.56001C3.15153 6.89138 3.21869 7.36148 3.55006 7.61001L5.55006 9.11001C5.86211 9.34405 6.30147 9.29982 6.56062 9.00828L10.5606 4.50828Z" fill="black"/>
</g>
<defs>
<clipPath id="clip0_1068_186690">
<rect width="14" height="14" fill="white"/>
</clipPath>
</defs>
</svg>
