<svg width="14" height="14" viewBox="0 0 14 14" fill="none" xmlns="http://www.w3.org/2000/svg">
<g clip-path="url(#clip0_1068_186693)">
<path fill-rule="evenodd" clip-rule="evenodd" d="M14 4.92744C14 9.05364 11.3089 12.6973 7.36513 13.9108C7.12721 13.984 6.87279 13.984 6.63487 13.9108C2.69114 12.6973 0 9.05364 0 4.92744V1.5C0 0.671573 0.671573 0 1.5 0H12.5C13.3284 0 14 0.671572 14 1.5V4.92744ZM5.60041 2.9082C5.60041 2.63206 5.82426 2.4082 6.10041 2.4082H7.89932C8.17546 2.4082 8.39932 2.63206 8.39932 2.9082V4.60712H10.0982C10.3744 4.60712 10.5982 4.83098 10.5982 5.10712V6.90604C10.5982 7.18218 10.3744 7.40604 10.0982 7.40604H8.39932V9.10495C8.39932 9.38109 8.17546 9.60495 7.89932 9.60495H6.10041C5.82426 9.60495 5.60041 9.38109 5.60041 9.10495V7.40604H3.90149C3.62535 7.40604 3.40149 7.18218 3.40149 6.90604V5.10712C3.40149 4.83098 3.62535 4.60712 3.90149 4.60712H5.60041V2.9082Z" fill="black"/>
</g>
<defs>
<clipPath id="clip0_1068_186693">
<rect width="14" height="14" fill="white"/>
</clipPath>
</defs>
</svg>
