<svg width="14" height="14" viewBox="0 0 14 14" fill="none" xmlns="http://www.w3.org/2000/svg">
<g clip-path="url(#clip0_1068_186687)">
<path fill-rule="evenodd" clip-rule="evenodd" d="M7.41215 0.216928C7.32078 0.0838935 7.17082 0.00314213 7.00946 8.96825e-05C6.8481 -0.00296276 6.69518 0.0720591 6.59885 0.201543C5.9697 1.04718 5.12412 1.70747 4.15119 2.11285C3.17826 2.51824 2.11401 2.65371 1.07055 2.505C0.927079 2.48456 0.781798 2.52736 0.672336 2.62233C0.562874 2.7173 0.5 2.85508 0.5 3V5.78V5.78113C0.503853 7.48661 1.02066 9.1515 1.98325 10.5594C2.94583 11.9673 4.30968 13.053 5.8975 13.6755L6.4884 13.9059L6.49447 13.9082C6.82041 14.0304 7.17959 14.0304 7.50553 13.9082L7.5116 13.9059L8.1016 13.6759C9.68942 13.0534 11.0542 11.9673 12.0168 10.5594C12.9793 9.1515 13.4961 7.48661 13.5 5.78113V5.78V3C13.5 2.86157 13.4426 2.72934 13.3415 2.63479C13.2404 2.54025 13.1046 2.49185 12.9665 2.50112C10.4174 2.67233 8.53886 1.85741 7.41215 0.216928Z" fill="black"/>
</g>
<defs>
<clipPath id="clip0_1068_186687">
<rect width="14" height="14" fill="white"/>
</clipPath>
</defs>
</svg>
