<svg width="14" height="14" viewBox="0 0 14 14" fill="none" xmlns="http://www.w3.org/2000/svg">
<g clip-path="url(#clip0_1068_186696)">
<path fill-rule="evenodd" clip-rule="evenodd" d="M1.5 0.75C1.5 0.335786 1.16421 0 0.75 0C0.335786 0 0 0.335786 0 0.75V13.25C0 13.6642 0.335786 14 0.75 14C1.16421 14 1.5 13.6642 1.5 13.25V0.75ZM14 0.75C14 0.335786 13.6642 0 13.25 0C12.8358 0 12.5 0.335786 12.5 0.75V13.25C12.5 13.6642 12.8358 14 13.25 14C13.6642 14 14 13.6642 14 13.25V0.75ZM11.1913 4.03806C11.3782 4.11545 11.5 4.29777 11.5 4.5V9.5C11.5 9.70223 11.3782 9.88455 11.1913 9.96194C11.0045 10.0393 10.7894 9.99655 10.6464 9.85355L8.14645 7.35355C7.95118 7.15829 7.95118 6.84171 8.14645 6.64645L10.6464 4.14645C10.7894 4.00345 11.0045 3.96067 11.1913 4.03806ZM2.80866 4.03806C2.9955 3.96067 3.21055 4.00345 3.35355 4.14645L5.85355 6.64645C6.04882 6.84171 6.04882 7.15829 5.85355 7.35355L3.35355 9.85355C3.21055 9.99655 2.9955 10.0393 2.80866 9.96194C2.62182 9.88455 2.5 9.70223 2.5 9.5V4.5C2.5 4.29777 2.62182 4.11545 2.80866 4.03806Z" fill="black"/>
</g>
<defs>
<clipPath id="clip0_1068_186696">
<rect width="14" height="14" fill="white"/>
</clipPath>
</defs>
</svg>
