<svg width="14" height="14" viewBox="0 0 14 14" fill="none" xmlns="http://www.w3.org/2000/svg">
<path fill-rule="evenodd" clip-rule="evenodd" d="M11.8536 1.64646C11.7106 1.50346 11.4955 1.46068 11.3087 1.53807C11.1218 1.61546 11 1.79778 11 2.00001V3.00001H8.5C7.94772 3.00001 7.5 3.44772 7.5 4.00001C7.5 4.55229 7.94772 5.00001 8.5 5.00001H11V6.00001C11 6.20224 11.1218 6.38456 11.3087 6.46195C11.4955 6.53934 11.7106 6.49656 11.8536 6.35356L13.8536 4.35356C14.0488 4.1583 14.0488 3.84172 13.8536 3.64646L11.8536 1.64646ZM0 4.00001C0 3.44772 0.447715 3.00001 1 3.00001H4.25C4.58435 3.00001 4.89658 3.16711 5.08205 3.44531L8.78518 9.00001H11V8.00001C11 7.79778 11.1218 7.61546 11.3087 7.53807C11.4955 7.46068 11.7106 7.50346 11.8536 7.64646L13.8536 9.64646C14.0488 9.84172 14.0488 10.1583 13.8536 10.3536L11.8536 12.3536C11.7106 12.4966 11.4955 12.5393 11.3087 12.4619C11.1218 12.3845 11 12.2022 11 12V11H8.25C7.91565 11 7.60342 10.8329 7.41795 10.5547L3.71482 5.00001H1C0.447715 5.00001 0 4.55229 0 4.00001ZM0 10C0 9.44772 0.447715 9.00001 1 9.00001H4C4.55228 9.00001 5 9.44772 5 10C5 10.5523 4.55228 11 4 11H1C0.447715 11 0 10.5523 0 10Z" fill="black"/>
</svg>
