<svg width="14" height="14" viewBox="0 0 14 14" fill="none" xmlns="http://www.w3.org/2000/svg">
<g clip-path="url(#clip0_1068_186702)">
<path fill-rule="evenodd" clip-rule="evenodd" d="M0.418958 2.2676C-0.365571 1.48031 0.184646 0.12561 1.30624 0.12561H13.2063C13.6175 0.12561 13.9508 0.458913 13.9508 0.870063C13.9508 1.28121 13.6175 1.61451 13.2063 1.61451H1.87011L6.71319 6.4746C7.00268 6.76511 7.00268 7.23505 6.71319 7.52557L1.87011 12.3856H13.2063C13.6175 12.3856 13.9508 12.7189 13.9508 13.1301C13.9508 13.5412 13.6175 13.8745 13.2063 13.8745H1.30624C0.184647 13.8745 -0.365571 12.5198 0.418958 11.7325L5.13488 7.00008L0.418958 2.2676Z" fill="black"/>
</g>
<defs>
<clipPath id="clip0_1068_186702">
<rect width="14" height="14" fill="white"/>
</clipPath>
</defs>
</svg>
