<svg width="14" height="14" viewBox="0 0 14 14" fill="none" xmlns="http://www.w3.org/2000/svg">
<g clip-path="url(#clip0_1068_186705)">
<path fill-rule="evenodd" clip-rule="evenodd" d="M11.2501 10.2351C12.3315 9.14996 13 7.65305 13 6C13 2.68629 10.3137 0 7 0C3.68629 0 1 2.68629 1 6C1 7.65305 1.66849 9.14996 2.74988 10.2351V13.0001C2.74988 13.5524 3.19759 14.0001 3.74988 14.0001C4.30216 14.0001 4.74988 13.5524 4.74988 13.0001V12.084H6V13.0001C6 13.5524 6.44772 14.0001 7 14.0001C7.55228 14.0001 8 13.5524 8 13.0001V12.084H9.25012V13.0001C9.25012 13.5524 9.69784 14.0001 10.2501 14.0001C10.8024 14.0001 11.2501 13.5524 11.2501 13.0001V10.2351ZM4.74988 8.58398C5.44023 8.58398 5.99988 8.02434 5.99988 7.33398C5.99988 6.64363 5.44023 6.08398 4.74988 6.08398C4.05952 6.08398 3.49988 6.64363 3.49988 7.33398C3.49988 8.02434 4.05952 8.58398 4.74988 8.58398ZM10.5001 7.33398C10.5001 8.02434 9.94048 8.58398 9.25012 8.58398C8.55977 8.58398 8.00012 8.02434 8.00012 7.33398C8.00012 6.64363 8.55977 6.08398 9.25012 6.08398C9.94048 6.08398 10.5001 6.64363 10.5001 7.33398Z" fill="black"/>
</g>
<defs>
<clipPath id="clip0_1068_186705">
<rect width="14" height="14" fill="white"/>
</clipPath>
</defs>
</svg>
