<svg width="14" height="14" viewBox="0 0 14 14" fill="none" xmlns="http://www.w3.org/2000/svg">
<path fill-rule="evenodd" clip-rule="evenodd" d="M10.9742 0.595072C10.8454 0.345996 10.5884 0.189575 10.308 0.189575H7.82525C7.41104 0.189575 7.07525 0.525362 7.07525 0.939575C7.07525 1.35379 7.41104 1.68958 7.82525 1.68958H8.85765L7.05806 4.23017C6.89598 4.45899 6.87508 4.75911 7.00389 5.00819C7.13269 5.25727 7.38967 5.41369 7.67008 5.41369H10.4631C10.8773 5.41369 11.2131 5.0779 11.2131 4.66369C11.2131 4.24947 10.8773 3.91369 10.4631 3.91369H9.12042L10.92 1.37309C11.0821 1.14427 11.103 0.844147 10.9742 0.595072ZM5.9057 4.05808C5.7769 3.80901 5.51991 3.65259 5.2395 3.65259H2.58762C2.17341 3.65259 1.83762 3.98837 1.83762 4.40259C1.83762 4.8168 2.17341 5.15259 2.58762 5.15259H3.78916L1.80986 7.94689C1.64778 8.17571 1.62688 8.47583 1.75568 8.72491C1.88449 8.97398 2.14147 9.1304 2.42188 9.1304H5.40524C5.81946 9.1304 6.15524 8.79462 6.15524 8.3804C6.15524 7.96619 5.81946 7.6304 5.40524 7.6304H3.87222L5.85152 4.8361C6.0136 4.60728 6.0345 4.30716 5.9057 4.05808ZM12.0144 6.9624C12.2948 6.9624 12.5517 7.11882 12.6805 7.3679C12.8094 7.61697 12.7885 7.9171 12.6264 8.14592L9.62681 12.3806H12.2401C12.6543 12.3806 12.9901 12.7164 12.9901 13.1306C12.9901 13.5448 12.6543 13.8806 12.2401 13.8806H8.17647C7.89606 13.8806 7.63908 13.7242 7.51027 13.4751C7.38147 13.2261 7.40237 12.9259 7.56445 12.6971L10.564 8.4624H8.40223C7.98802 8.4624 7.65223 8.12662 7.65223 7.7124C7.65223 7.29819 7.98802 6.9624 8.40223 6.9624H12.0144Z" fill="black"/>
</svg>
