<svg width="14" height="14" viewBox="0 0 14 14" fill="none" xmlns="http://www.w3.org/2000/svg">
<g clip-path="url(#clip0_1068_186711)">
<path fill-rule="evenodd" clip-rule="evenodd" d="M5.53033 0.21967C5.23744 -0.0732233 4.76256 -0.0732233 4.46967 0.21967C4.17678 0.512563 4.17678 0.987437 4.46967 1.28033L6.25 3.06066V6.25H3.06066L1.28033 4.46967C0.987437 4.17678 0.512563 4.17678 0.21967 4.46967C-0.0732233 4.76256 -0.0732233 5.23744 0.21967 5.53033L1.68934 7L0.21967 8.46967C-0.0732233 8.76256 -0.0732233 9.23744 0.21967 9.53033C0.512563 9.82322 0.987437 9.82322 1.28033 9.53033L3.06066 7.75H6.25V10.9393L4.46967 12.7197C4.17678 13.0126 4.17678 13.4874 4.46967 13.7803C4.76256 14.0732 5.23744 14.0732 5.53033 13.7803L7 12.3107L8.46967 13.7803C8.76256 14.0732 9.23744 14.0732 9.53033 13.7803C9.82322 13.4874 9.82322 13.0126 9.53033 12.7197L7.75 10.9393V7.75H10.9393L12.7197 9.53033C13.0126 9.82322 13.4874 9.82322 13.7803 9.53033C14.0732 9.23744 14.0732 8.76256 13.7803 8.46967L12.3107 7L13.7803 5.53033C14.0732 5.23744 14.0732 4.76256 13.7803 4.46967C13.4874 4.17678 13.0126 4.17678 12.7197 4.46967L10.9393 6.25H7.75V3.06066L9.53033 1.28033C9.82322 0.987437 9.82322 0.512563 9.53033 0.21967C9.23744 -0.0732233 8.76256 -0.0732233 8.46967 0.21967L7 1.68934L5.53033 0.21967ZM2.96967 2.96967C3.26256 2.67678 3.73744 2.67678 4.03033 2.96967L5.03033 3.96967C5.32322 4.26256 5.32322 4.73744 5.03033 5.03033C4.73744 5.32322 4.26256 5.32322 3.96967 5.03033L2.96967 4.03033C2.67678 3.73744 2.67678 3.26256 2.96967 2.96967ZM5.03033 10.0303C5.32322 9.73744 5.32322 9.26256 5.03033 8.96967C4.73744 8.67678 4.26256 8.67678 3.96967 8.96967L2.96967 9.96967C2.67678 10.2626 2.67678 10.7374 2.96967 11.0303C3.26256 11.3232 3.73744 11.3232 4.03033 11.0303L5.03033 10.0303ZM11.0303 2.96967C11.3232 3.26256 11.3232 3.73744 11.0303 4.03033L10.0303 5.03033C9.73744 5.32322 9.26256 5.32322 8.96967 5.03033C8.67678 4.73744 8.67678 4.26256 8.96967 3.96967L9.96967 2.96967C10.2626 2.67678 10.7374 2.67678 11.0303 2.96967ZM10.0303 8.96967C9.73744 8.67678 9.26256 8.67678 8.96967 8.96967C8.67678 9.26256 8.67678 9.73744 8.96967 10.0303L9.96967 11.0303C10.2626 11.3232 10.7374 11.3232 11.0303 11.0303C11.3232 10.7374 11.3232 10.2626 11.0303 9.96967L10.0303 8.96967Z" fill="black"/>
</g>
<defs>
<clipPath id="clip0_1068_186711">
<rect width="14" height="14" fill="white"/>
</clipPath>
</defs>
</svg>
