<svg width="14" height="14" viewBox="0 0 14 14" fill="none" xmlns="http://www.w3.org/2000/svg">
<g clip-path="url(#clip0_1068_186714)">
<path fill-rule="evenodd" clip-rule="evenodd" d="M0 0.75C0 0.335786 0.335786 0 0.75 0H7.25C7.66421 0 8 0.335786 8 0.75C8 1.16421 7.66421 1.5 7.25 1.5H0.75C0.335786 1.5 0 1.16421 0 0.75ZM3.25 3C2.83579 3 2.5 3.33579 2.5 3.75C2.5 4.16421 2.83579 4.5 3.25 4.5H7.25C7.66421 4.5 8 4.16421 8 3.75C8 3.33579 7.66421 3 7.25 3H3.25ZM5.25 6C4.83579 6 4.5 6.33579 4.5 6.75C4.5 7.16421 4.83579 7.5 5.25 7.5H7.25C7.66421 7.5 8 7.16421 8 6.75C8 6.33579 7.66421 6 7.25 6H5.25ZM10.75 0C11.3023 0 11.75 0.447715 11.75 1V10H13.25C13.5533 10 13.8268 10.1827 13.9429 10.463C14.059 10.7432 13.9948 11.0658 13.7803 11.2803L11.2803 13.7803C10.9874 14.0732 10.5126 14.0732 10.2197 13.7803L7.71967 11.2803C7.50517 11.0658 7.44101 10.7432 7.55709 10.463C7.67318 10.1827 7.94666 10 8.25 10H9.75V1C9.75 0.447715 10.1977 0 10.75 0Z" fill="black"/>
</g>
<defs>
<clipPath id="clip0_1068_186714">
<rect width="14" height="14" fill="white"/>
</clipPath>
</defs>
</svg>
