<svg width="14" height="14" viewBox="0 0 14 14" fill="none" xmlns="http://www.w3.org/2000/svg">
<g clip-path="url(#clip0_1068_186717)">
<path fill-rule="evenodd" clip-rule="evenodd" d="M5.91917 1.94641C3.47853 1.94641 1.5 3.92494 1.5 6.36558V6.99998C1.5 9.79099 3.76256 12.0536 6.55358 12.0536H7C10.0376 12.0536 12.5 9.59112 12.5 6.55355V6.10712C12.5 5.69291 12.8358 5.35712 13.25 5.35712C13.6642 5.35712 14 5.69291 14 6.10712V6.55355C14 10.4196 10.866 13.5536 7 13.5536H6.55358C2.93414 13.5536 0 10.6195 0 6.99998V6.36558C0 3.09651 2.6501 0.446411 5.91917 0.446411C8.90276 0.446411 11.3214 2.86508 11.3214 5.84866V6.27882C11.3214 8.81721 9.26366 10.875 6.72527 10.875H6.55357C4.41347 10.875 2.67857 9.14008 2.67857 6.99998V6.55355C2.67857 4.66 4.2136 3.12498 6.10714 3.12498C7.50758 3.12498 8.64286 4.26026 8.64286 5.66069V5.91579C8.64286 7.17534 7.62179 8.19641 6.36225 8.19641H6.10714C5.69293 8.19641 5.35714 7.86062 5.35714 7.44641C5.35714 7.03219 5.69293 6.69641 6.10714 6.69641H6.36225C6.79337 6.69641 7.14286 6.34691 7.14286 5.91579V5.66069C7.14286 5.08868 6.67915 4.62498 6.10714 4.62498C5.04202 4.62498 4.17857 5.48843 4.17857 6.55355V6.99998C4.17857 8.31166 5.2419 9.37498 6.55357 9.37498H6.72527C8.43523 9.37498 9.82143 7.98878 9.82143 6.27882V5.84866C9.82143 3.69351 8.07433 1.94641 5.91917 1.94641Z" fill="black"/>
</g>
<defs>
<clipPath id="clip0_1068_186717">
<rect width="14" height="14" fill="white"/>
</clipPath>
</defs>
</svg>
