<svg width="14" height="14" viewBox="0 0 14 14" fill="none" xmlns="http://www.w3.org/2000/svg">
<g clip-path="url(#clip0_1068_186720)">
<path fill-rule="evenodd" clip-rule="evenodd" d="M0 0.5V0.999827V4.5C0 4.70223 0.121821 4.88455 0.308658 4.96194C0.495495 5.03933 0.710554 4.99655 0.853553 4.85355L2.14645 3.56066L6 7.41421V12.9952C6 13.5475 6.44772 13.9952 7 13.9952C7.55228 13.9952 8 13.5475 8 12.9952V7.41421L11.8536 3.56066L13.1464 4.85355C13.2894 4.99655 13.5045 5.03933 13.6913 4.96194C13.8782 4.88455 14 4.70223 14 4.5V1.00069V0.999307V0.5C14 0.223858 13.7761 0 13.5 0H13.0002H9.5C9.29777 0 9.11545 0.121821 9.03806 0.308658C8.96067 0.495495 9.00345 0.710554 9.14645 0.853553L10.4393 2.14645L7 5.58579L3.56066 2.14645L4.85355 0.853553C4.99655 0.710554 5.03933 0.495495 4.96194 0.308658C4.88455 0.121821 4.70223 0 4.5 0H1.00017H0.5C0.223858 0 0 0.223858 0 0.5Z" fill="black"/>
</g>
<defs>
<clipPath id="clip0_1068_186720">
<rect width="14" height="14" fill="white"/>
</clipPath>
</defs>
</svg>
