<svg width="14" height="14" viewBox="0 0 14 14" fill="none" xmlns="http://www.w3.org/2000/svg">
<g clip-path="url(#clip0_1068_186723)">
<path fill-rule="evenodd" clip-rule="evenodd" d="M13.9854 0.603058C14.0667 1.00922 13.8033 1.40434 13.3971 1.48558L8.39709 2.48558C7.99092 2.56681 7.5958 2.3034 7.51456 1.89723C7.43333 1.49106 7.69674 1.09594 8.10291 1.0147L13.1029 0.0147091C13.5091 -0.0665249 13.9042 0.196888 13.9854 0.603058ZM4.25 3.25063H4.5C4.91421 3.25063 5.25 2.91484 5.25 2.50063C5.25 2.08641 4.91421 1.75063 4.5 1.75063H3.5H2.5C2.08579 1.75063 1.75 2.08641 1.75 2.50063C1.75 2.91484 2.08579 3.25063 2.5 3.25063H2.75V4.50014H1.5C0.671573 4.50014 0 5.17171 0 6.00014V12.5001C0 13.3285 0.671573 14.0001 1.5 14.0001H5.5C6.32843 14.0001 7 13.3285 7 12.5001V6.00014C7 5.17171 6.32843 4.50014 5.5 4.50014H4.25V3.25063ZM8.39709 3.0147C7.99092 2.93347 7.5958 3.19688 7.51456 3.60305C7.43333 4.00922 7.69674 4.40434 8.10291 4.48558L13.1029 5.48558C13.5091 5.56681 13.9042 5.3034 13.9854 4.89723C14.0667 4.49106 13.8033 4.09594 13.3971 4.0147L8.39709 3.0147Z" fill="black"/>
</g>
<defs>
<clipPath id="clip0_1068_186723">
<rect width="14" height="14" fill="white"/>
</clipPath>
</defs>
</svg>
