<svg width="14" height="14" viewBox="0 0 14 14" fill="none" xmlns="http://www.w3.org/2000/svg">
<g clip-path="url(#clip0_1068_186726)">
<path fill-rule="evenodd" clip-rule="evenodd" d="M7 0.25C3.27208 0.25 0.25 3.27208 0.25 7C0.25 10.7279 3.27208 13.75 7 13.75C10.7279 13.75 13.75 10.7279 13.75 7C13.75 3.27208 10.7279 0.25 7 0.25ZM5 5.125C4.79289 5.125 4.625 5.29289 4.625 5.5V8.5C4.625 8.70711 4.79289 8.875 5 8.875H5.5C5.84518 8.875 6.125 9.15482 6.125 9.5C6.125 9.84518 5.84518 10.125 5.5 10.125H5C4.10254 10.125 3.375 9.39746 3.375 8.5V5.5C3.375 4.60254 4.10254 3.875 5 3.875H5.5C5.84518 3.875 6.125 4.15482 6.125 4.5C6.125 4.84518 5.84518 5.125 5.5 5.125H5ZM9.375 5.5C9.375 5.29289 9.20711 5.125 9 5.125H8.5C8.15482 5.125 7.875 4.84518 7.875 4.5C7.875 4.15482 8.15482 3.875 8.5 3.875H9C9.89746 3.875 10.625 4.60254 10.625 5.5V8.5C10.625 9.39746 9.89746 10.125 9 10.125H8.5C8.15482 10.125 7.875 9.84518 7.875 9.5C7.875 9.15482 8.15482 8.875 8.5 8.875H9C9.20711 8.875 9.375 8.70711 9.375 8.5V5.5Z" fill="black"/>
</g>
<defs>
<clipPath id="clip0_1068_186726">
<rect width="14" height="14" fill="white"/>
</clipPath>
</defs>
</svg>
