<svg width="14" height="14" viewBox="0 0 14 14" fill="none" xmlns="http://www.w3.org/2000/svg">
<g clip-path="url(#clip0_1068_186732)">
<path fill-rule="evenodd" clip-rule="evenodd" d="M0 1.5C0 0.671573 0.671573 0 1.5 0H12.5C13.3284 0 14 0.671573 14 1.5V12.5C14 13.3284 13.3284 14 12.5 14H1.5C0.671573 14 0 13.3284 0 12.5V1.5ZM11.5001 6.99951C11.5001 9.48479 9.4854 11.4995 7.00012 11.4995C4.51484 11.4995 2.50012 9.48479 2.50012 6.99951C2.50012 4.51423 4.51484 2.49951 7.00012 2.49951C9.4854 2.49951 11.5001 4.51423 11.5001 6.99951ZM7.625 5C7.625 4.65482 7.34518 4.375 7 4.375C6.65482 4.375 6.375 4.65482 6.375 5V7C6.375 7.34518 6.65482 7.625 7 7.625H9C9.34518 7.625 9.625 7.34518 9.625 7C9.625 6.65482 9.34518 6.375 9 6.375H7.625V5Z" fill="black"/>
</g>
<defs>
<clipPath id="clip0_1068_186732">
<rect width="14" height="14" fill="white"/>
</clipPath>
</defs>
</svg>
