<svg width="14" height="14" viewBox="0 0 14 14" fill="none" xmlns="http://www.w3.org/2000/svg">
<g clip-path="url(#clip0_1068_186738)">
<path fill-rule="evenodd" clip-rule="evenodd" d="M7.00015 0.276855C6.80172 0.276855 6.60743 0.333623 6.44022 0.440458C6.27514 0.545928 6.14325 0.695846 6.05967 0.872901L4.47211 4.07799C4.46899 4.08429 4.466 4.09065 4.46315 4.09708C4.46244 4.09867 4.46132 4.10006 4.45991 4.10109C4.4585 4.10212 4.45685 4.10277 4.45511 4.10296C4.44902 4.10363 4.44294 4.10442 4.43688 4.10532L0.941302 4.62318C0.748098 4.64197 0.563858 4.71447 0.409543 4.83267C0.249871 4.95498 0.129089 5.12096 0.0618284 5.31051C-0.00543176 5.50006 -0.0162849 5.70505 0.0305842 5.90065C0.0772718 6.09548 0.179241 6.27267 0.324207 6.41092L2.88298 8.87974L2.88881 8.88527C2.89246 8.88869 2.89521 8.89296 2.89679 8.89771C2.89837 8.90245 2.89874 8.90752 2.89786 8.91244L2.8973 8.91571L2.28756 12.4841C2.25406 12.6775 2.27527 12.8773 2.34908 13.0591C2.42299 13.2413 2.54655 13.399 2.70568 13.5144C2.86482 13.6297 3.05314 13.6981 3.24922 13.7117C3.44491 13.7253 3.64049 13.6838 3.81379 13.592L3.81484 13.5914L6.96432 11.9269C6.97561 11.922 6.98782 11.9194 7.00017 11.9194C7.01252 11.9194 7.02472 11.922 7.03602 11.9269L10.1855 13.5914C10.3589 13.6835 10.5553 13.7254 10.7511 13.7117C10.9472 13.6981 11.1355 13.6297 11.2947 13.5144C11.4538 13.399 11.5774 13.2413 11.6513 13.0591C11.7251 12.8773 11.7464 12.6785 11.713 12.4852L11.7128 12.4841L11.1031 8.9157L11.1025 8.91244C11.1016 8.90752 11.102 8.90245 11.1036 8.89771C11.1051 8.89297 11.1079 8.88869 11.1115 8.88527L11.1174 8.87974L13.6762 6.41089C13.8211 6.27264 13.9231 6.09547 13.9698 5.90065C14.0166 5.70505 14.0058 5.50006 13.9385 5.31051C13.8713 5.12096 13.7505 4.95498 13.5908 4.83267C13.4365 4.71447 13.2523 4.64197 13.0591 4.62318L9.56343 4.10532C9.55737 4.10442 9.55129 4.10363 9.5452 4.10296C9.54346 4.10277 9.5418 4.10212 9.54039 4.10109C9.53898 4.10006 9.53787 4.09867 9.53716 4.09708C9.53431 4.09065 9.53132 4.08429 9.5282 4.07799L7.94063 0.872887C7.85705 0.695839 7.72516 0.545925 7.56009 0.440458C7.39287 0.333623 7.19858 0.276855 7.00015 0.276855Z" fill="black"/>
</g>
<defs>
<clipPath id="clip0_1068_186738">
<rect width="14" height="14" fill="white"/>
</clipPath>
</defs>
</svg>
