<svg width="14" height="14" viewBox="0 0 14 14" fill="none" xmlns="http://www.w3.org/2000/svg">
<g clip-path="url(#clip0_1068_186759)">
<path fill-rule="evenodd" clip-rule="evenodd" d="M11.0007 5.9986C12.6572 5.9986 14 4.65576 14 2.9993C14 1.34283 12.6572 0 11.0007 0C9.34424 0 8.0014 1.34283 8.0014 2.9993C8.0014 4.65576 9.34424 5.9986 11.0007 5.9986ZM1.31802 6.31808C2.16193 5.47416 3.30653 5.00006 4.5 5.00006C5.62532 4.99424 6.71106 5.41499 7.53861 6.17759C8.36615 6.9402 8.87403 7.98801 8.96 9.11006C8.96589 9.15081 8.98174 9.18947 9.00617 9.22262C9.03059 9.25577 9.06282 9.28237 9.1 9.30006C9.13527 9.31931 9.17481 9.32941 9.215 9.32941C9.25519 9.32941 9.29473 9.31931 9.33 9.30006C9.68885 9.10398 10.0911 9.00085 10.5 9.00006C11.163 9.00006 11.7989 9.26345 12.2678 9.73229C12.7366 10.2011 13 10.837 13 11.5001C13 12.1631 12.7366 12.799 12.2678 13.2678C11.7989 13.7367 11.163 14.0001 10.5 14.0001H4.5C3.30653 14.0001 2.16193 13.526 1.31802 12.682C0.474106 11.8381 0 10.6935 0 9.50006C0 8.30659 0.474106 7.16199 1.31802 6.31808Z" fill="black"/>
</g>
<defs>
<clipPath id="clip0_1068_186759">
<rect width="14" height="14" fill="white"/>
</clipPath>
</defs>
</svg>
