<svg width="14" height="14" viewBox="0 0 14 14" fill="none" xmlns="http://www.w3.org/2000/svg">
<g clip-path="url(#clip0_1068_186762)">
<path fill-rule="evenodd" clip-rule="evenodd" d="M10.9287 0.757273L10.6069 1.29369C12.4949 2.48953 13.75 4.59761 13.75 7.00005C13.75 8.59423 13.1974 10.0588 12.2739 11.2132L13.7803 12.7196C14.0732 13.0125 14.0732 13.4874 13.7803 13.7803C13.4874 14.0732 13.0126 14.0732 12.7197 13.7803L0.21967 1.28033C-0.0732233 0.987437 -0.0732233 0.512564 0.21967 0.21967C0.512563 -0.0732232 0.987437 -0.0732232 1.28033 0.21967L2.78686 1.7262C3.21429 1.38429 3.68414 1.09332 4.18715 0.862457C4.56361 0.689676 5.00885 0.854788 5.18163 1.23124C5.35442 1.6077 5.1893 2.05295 4.81285 2.22573C4.47265 2.38187 4.15208 2.57323 3.8558 2.79514L11.2049 10.1442C11.8615 9.26749 12.25 8.1789 12.25 7.00005C12.25 5.14572 11.2886 3.51473 9.83492 2.58032L9.42875 3.25727C9.3247 3.43068 9.12644 3.52434 8.92641 3.49458C8.72638 3.46481 8.56398 3.31748 8.51493 3.12129L8.01493 1.12129C7.94795 0.853395 8.11084 0.581928 8.37873 0.514953L10.3787 0.014953C10.5749 -0.0340952 10.7813 0.0398699 10.9017 0.202359C11.0221 0.364848 11.0328 0.583861 10.9287 0.757273ZM9.04074 11.8628L10.1495 12.9716C10.039 13.0299 9.9268 13.0853 9.81285 13.1376C9.43639 13.3104 8.99115 13.1453 8.81836 12.7688C8.66997 12.4455 8.77082 12.0714 9.04074 11.8628ZM2.1542 4.97632L1.02837 3.8505C0.531484 4.79058 0.25 5.8623 0.25 7.00005C0.25 9.40248 1.50506 11.5105 3.39308 12.7064L3.07125 13.2427C2.96721 13.4162 2.97786 13.6352 3.09826 13.7977C3.21865 13.9601 3.42507 14.0341 3.62127 13.9851L5.62127 13.4851C5.88916 13.4181 6.05204 13.1466 5.98507 12.8787L5.48507 10.8787C5.43602 10.6825 5.27362 10.5352 5.07359 10.5054C4.87356 10.4757 4.6753 10.5693 4.57125 10.7427L4.16506 11.4197C2.71138 10.4853 1.75 8.85436 1.75 7.00005C1.75 6.28295 1.89378 5.59925 2.1542 4.97632Z" fill="black"/>
</g>
<defs>
<clipPath id="clip0_1068_186762">
<rect width="14" height="14" fill="white"/>
</clipPath>
</defs>
</svg>
