<svg width="14" height="14" viewBox="0 0 14 14" fill="none" xmlns="http://www.w3.org/2000/svg">
<g clip-path="url(#clip0_1068_186765)">
<path fill-rule="evenodd" clip-rule="evenodd" d="M7.00004 1.75C5.14555 1.75 3.51443 2.71181 2.58028 4.16506L3.25727 4.57125C3.43068 4.6753 3.52434 4.87356 3.49458 5.07359C3.46481 5.27362 3.31748 5.43602 3.12129 5.48507L1.12129 5.98507C0.853395 6.05205 0.581928 5.88916 0.514953 5.62127L0.0149529 3.62127C-0.0340954 3.42507 0.0398698 3.21865 0.202359 3.09826C0.364848 2.97787 0.583861 2.96721 0.757272 3.07125L1.29372 3.39312C2.48983 1.50463 4.59778 0.25 7.00004 0.25C9.72537 0.25 12.0719 1.86511 13.1376 4.18715C13.3104 4.56361 13.1453 5.00885 12.7688 5.18164C12.3924 5.35442 11.9471 5.1893 11.7743 4.81285C10.9441 3.00383 9.1177 1.75 7.00004 1.75ZM7.75002 3.5C7.75002 3.08579 7.41424 2.75 7.00002 2.75C6.58581 2.75 6.25002 3.08579 6.25002 3.5V7.5C6.25002 7.91421 6.58581 8.25 7.00002 8.25C7.41424 8.25 7.75002 7.91421 7.75002 7.5V3.5ZM7.00002 11C7.55231 11 8.00002 10.5523 8.00002 10C8.00002 9.44771 7.55231 9 7.00002 9C6.44774 9 6.00002 9.44771 6.00002 10C6.00002 10.5523 6.44774 11 7.00002 11ZM11.4198 9.83496L10.7427 9.42875C10.5693 9.3247 10.4757 9.12644 10.5054 8.92641C10.5352 8.72638 10.6825 8.56398 10.8787 8.51493L12.8787 8.01493C13.1466 7.94795 13.4181 8.11083 13.4851 8.37873L13.9851 10.3787C14.0341 10.5749 13.9601 10.7813 13.7977 10.9017C13.6352 11.0221 13.4162 11.0328 13.2427 10.9287L12.7063 10.6069C11.5102 12.4954 9.40231 13.75 7.00005 13.75C4.27472 13.75 1.92819 12.1349 0.862457 9.81285C0.689676 9.43639 0.854787 8.99115 1.23124 8.81837C1.6077 8.64558 2.05295 8.8107 2.22573 9.18715C3.056 10.9962 4.88239 12.25 7.00005 12.25C8.85453 12.25 10.4856 11.2882 11.4198 9.83496Z" fill="black"/>
</g>
<defs>
<clipPath id="clip0_1068_186765">
<rect width="14" height="14" fill="white"/>
</clipPath>
</defs>
</svg>
