<svg width="14" height="14" viewBox="0 0 14 14" fill="none" xmlns="http://www.w3.org/2000/svg">
<g clip-path="url(#clip0_1068_186768)">
<path fill-rule="evenodd" clip-rule="evenodd" d="M2.4395 0.43934C2.7208 0.158035 3.10233 0 3.50016 0H5.50016C5.89798 0 6.27951 0.158035 6.56082 0.43934C6.65432 0.532847 6.73421 0.637427 6.7992 0.75H8.00015C10.6236 0.75 12.7502 2.87665 12.7502 5.5V12.5H13.2502C13.6644 12.5 14.0002 12.8358 14.0002 13.25C14.0002 13.6642 13.6644 14 13.2502 14H7.25015C6.83594 14 6.50015 13.6642 6.50015 13.25C6.50015 12.8358 6.83594 12.5 7.25015 12.5H11.2502V5.5C11.2502 3.70507 9.79508 2.25 8.00015 2.25H7.00016V2.72243C7.57869 3.10893 8.06089 3.62516 8.40741 4.23157C8.80273 4.92337 9.00727 5.70773 9.00014 6.50448C8.99768 6.77886 8.77455 7 8.50016 7H0.500161C0.225765 7 0.00263659 6.77886 0.000180343 6.50448C-0.00695204 5.70773 0.197592 4.92337 0.592906 4.23157C0.939425 3.62516 1.42163 3.10893 2.00016 2.72243V1.5C2.00016 1.10218 2.15819 0.720644 2.4395 0.43934Z" fill="black"/>
</g>
<defs>
<clipPath id="clip0_1068_186768">
<rect width="14" height="14" fill="white"/>
</clipPath>
</defs>
</svg>
