<svg width="14" height="14" viewBox="0 0 14 14" fill="none" xmlns="http://www.w3.org/2000/svg">
<g clip-path="url(#clip0_1068_186771)">
<path fill-rule="evenodd" clip-rule="evenodd" d="M8.7707 0.00270316C8.64294 -0.00790113 8.51442 0.0101918 8.39456 0.0556581C8.27681 0.100318 8.17035 0.17028 8.08265 0.26057L0.365567 7.97766C0.131483 8.21203 0 8.52974 0 8.86099C0 9.19224 0.131702 9.51017 0.365786 9.74454L4.256 13.6348C4.49038 13.8688 4.80809 14.0003 5.13934 14.0003C5.47059 14.0003 5.78851 13.8686 6.02289 13.6345L13.7398 5.91768C13.8301 5.82998 13.9 5.72351 13.9447 5.60577C13.9902 5.4859 14.0082 5.35739 13.9976 5.22963C13.9967 5.218 13.9953 5.2064 13.9935 5.19486L13.4065 1.38441C13.3887 1.18107 13.2998 0.990089 13.1551 0.845293C13.0103 0.700498 12.8193 0.611648 12.6159 0.593807L8.80546 0.00681874C8.79392 0.00504145 8.78233 0.00366876 8.7707 0.00270316ZM9.99935 5.00122C9.44706 5.00122 8.99935 4.55351 8.99935 4.00122C8.99935 3.44894 9.44706 3.00122 9.99935 3.00122C10.5517 3.00122 10.9994 3.44894 10.9994 4.00122C10.9994 4.55351 10.5517 5.00122 9.99935 5.00122Z" fill="black"/>
</g>
<defs>
<clipPath id="clip0_1068_186771">
<rect width="14" height="14" fill="white"/>
</clipPath>
</defs>
</svg>
