<svg width="14" height="14" viewBox="0 0 14 14" fill="none" xmlns="http://www.w3.org/2000/svg">
<g clip-path="url(#clip0_1068_186774)">
<path fill-rule="evenodd" clip-rule="evenodd" d="M1 0C0.723851 0 0.499991 0.223867 0.5 0.500015L0.500091 3.50002C0.5001 3.77615 0.723955 4 1.0001 4H4.00022C4.27637 4 4.50023 3.77613 4.50022 3.49998L4.50019 2.75H9.50008V3.43934L3.43942 9.5H1.00008C0.723934 9.5 0.500076 9.72386 0.500076 10V13C0.500076 13.2761 0.723934 13.5 1.00008 13.5H4.00008C4.27622 13.5 4.50008 13.2761 4.50008 13V12.25H10.5001V13.5C10.5001 13.7022 10.6219 13.8845 10.8088 13.9619C10.9956 14.0393 11.2107 13.9966 11.3537 13.8536L13.3537 11.8536C13.5489 11.6583 13.5489 11.3417 13.3537 11.1464L11.3537 9.14645C11.2107 9.00345 10.9956 8.96067 10.8088 9.03806C10.6219 9.11545 10.5001 9.29777 10.5001 9.5V10.75H4.50008V10.5607L11.0608 4H13.0001C13.2762 4 13.5001 3.77614 13.5001 3.5V0.5C13.5001 0.223858 13.2762 0 13.0001 0H10.0001C9.72394 0 9.50008 0.223858 9.50008 0.5V1.25H4.50015L4.50013 0.499985C4.50012 0.223848 4.27626 0 4.00013 0H1Z" fill="black"/>
</g>
<defs>
<clipPath id="clip0_1068_186774">
<rect width="14" height="14" fill="white"/>
</clipPath>
</defs>
</svg>
