<svg width="14" height="14" viewBox="0 0 14 14" fill="none" xmlns="http://www.w3.org/2000/svg">
<g clip-path="url(#clip0_1068_186777)">
<path fill-rule="evenodd" clip-rule="evenodd" d="M1.5 0C0.671573 0 0 0.671573 0 1.5V12.5C0 13.3284 0.671573 14 1.5 14H12.5C13.3284 14 14 13.3284 14 12.5V1.5C14 0.671573 13.3284 0 12.5 0H1.5ZM6.77028 4.04057C6.80324 3.94169 6.89577 3.875 7 3.875C7.10423 3.875 7.19676 3.94169 7.22972 4.04057L8.42453 7.625H5.57547L6.77028 4.04057ZM8.41557 3.64528C8.21247 3.03598 7.64226 2.625 7 2.625C6.35774 2.625 5.78753 3.03598 5.58443 3.64528L4.12002 8.03852C4.11676 8.04759 4.1137 8.05677 4.11085 8.06603L3.28207 10.5524C3.17292 10.8798 3.34989 11.2338 3.67736 11.3429C4.00482 11.4521 4.35877 11.2751 4.46793 10.9476L5.15881 8.875H8.84119L9.53207 10.9476C9.64123 11.2751 9.99518 11.4521 10.3226 11.3429C10.6501 11.2338 10.8271 10.8798 10.7179 10.5524L9.88916 8.06605C9.8863 8.05677 9.88324 8.04759 9.87997 8.0385L8.41557 3.64528Z" fill="black"/>
</g>
<defs>
<clipPath id="clip0_1068_186777">
<rect width="14" height="14" fill="white"/>
</clipPath>
</defs>
</svg>
