<svg width="14" height="14" viewBox="0 0 14 14" fill="none" xmlns="http://www.w3.org/2000/svg">
<g clip-path="url(#clip0_1068_186780)">
<path fill-rule="evenodd" clip-rule="evenodd" d="M2.5 1.50049C2.39046 1.50049 2.25 1.60193 2.25 1.79211V2.83374C2.25 3.24795 1.91421 3.58374 1.5 3.58374C1.08579 3.58374 0.75 3.24795 0.75 2.83374V1.79211C0.75 0.831746 1.50497 0.000488281 2.5 0.000488281H7H11.5C12.495 0.000488281 13.25 0.831746 13.25 1.79211V2.83374C13.25 3.24795 12.9142 3.58374 12.5 3.58374C12.0858 3.58374 11.75 3.24795 11.75 2.83374V1.79211C11.75 1.60193 11.6095 1.50049 11.5 1.50049H7.75V12.4995H9.5C9.91421 12.4995 10.25 12.8353 10.25 13.2495C10.25 13.6637 9.91421 13.9995 9.5 13.9995H7.02662C7.01778 13.9998 7.00891 14 7 14C6.99109 14 6.98222 13.9998 6.97338 13.9995H4.5C4.08579 13.9995 3.75 13.6637 3.75 13.2495C3.75 12.8353 4.08579 12.4995 4.5 12.4995H6.25V1.50049H2.5Z" fill="black"/>
</g>
<defs>
<clipPath id="clip0_1068_186780">
<rect width="14" height="14" fill="white"/>
</clipPath>
</defs>
</svg>
