<svg width="14" height="14" viewBox="0 0 14 14" fill="none" xmlns="http://www.w3.org/2000/svg">
<path fill-rule="evenodd" clip-rule="evenodd" d="M4.75 2.25C4.75 1.00736 5.75736 0 7 0C8.24264 0 9.25 1.00736 9.25 2.25V7.81902C10.0132 8.46023 10.5 9.42311 10.5 10.5C10.5 12.433 8.933 14 7 14C5.067 14 3.5 12.433 3.5 10.5C3.5 9.42311 3.98681 8.46023 4.75 7.81902V2.25ZM7 1.5C6.58579 1.5 6.25 1.83579 6.25 2.25V8.19473C6.25 8.44821 6.12196 8.68454 5.90963 8.82299C5.3604 9.18109 5 9.79866 5 10.5C5 11.6046 5.89543 12.5 7 12.5C8.10457 12.5 9 11.6046 9 10.5C9 9.79866 8.6396 9.18109 8.09037 8.82299C7.87804 8.68454 7.75 8.44821 7.75 8.19473V2.25C7.75 1.83579 7.41421 1.5 7 1.5Z" fill="black"/>
</svg>
