<svg width="14" height="14" viewBox="0 0 14 14" fill="none" xmlns="http://www.w3.org/2000/svg">
<g clip-path="url(#clip0_1068_186786)">
<path fill-rule="evenodd" clip-rule="evenodd" d="M5.4946 0.12579C5.63241 0.0434684 5.78994 0 5.95047 0C6.1005 0 6.24792 0.03797 6.37907 0.110143C10.3657 1.96234 12.6231 5.80838 12.4837 9.02393C12.4243 10.3754 11.9404 11.6258 11.003 12.5393C10.0656 13.4528 8.71882 13.9869 7.01367 13.9902C6.32873 14.0324 5.64217 13.9383 4.99377 13.7132C4.34023 13.4864 3.73865 13.1312 3.22445 12.6684C2.71025 12.2056 2.2938 11.6446 1.99963 11.0185C1.70545 10.3924 1.53948 9.71374 1.51149 9.02251L1.51119 9.01505C1.49077 8.21521 1.6899 7.42507 2.08686 6.73039C2.48381 6.03571 3.06349 5.46305 3.76294 5.07458C3.88585 5.00632 4.03181 4.99295 4.16507 5.03776C4.29833 5.08257 4.40656 5.18141 4.46326 5.31006C4.70699 5.86315 5.04833 6.36628 5.46965 6.79597C5.96403 6.15101 6.19148 5.31769 6.18476 4.40211C6.17675 3.31148 5.83415 2.14324 5.26068 1.14849C5.1668 0.991797 5.13251 0.806401 5.16429 0.626323C5.19658 0.443333 5.29486 0.278536 5.4405 0.163139C5.4577 0.149516 5.47577 0.13704 5.4946 0.12579Z" fill="black"/>
</g>
<defs>
<clipPath id="clip0_1068_186786">
<rect width="14" height="14" fill="white"/>
</clipPath>
</defs>
</svg>
