<svg width="14" height="14" viewBox="0 0 14 14" fill="none" xmlns="http://www.w3.org/2000/svg">
<path fill-rule="evenodd" clip-rule="evenodd" d="M6.92275 2.48469C7.42811 1.88153 8.18451 1.5 9.03076 1.5C10.5487 1.5 11.7792 2.73054 11.7792 4.2485C11.7792 4.46464 11.7544 4.67404 11.7078 4.87436C11.614 5.27781 11.8649 5.68094 12.2684 5.77478C12.6718 5.86863 13.075 5.61765 13.1688 5.21421C13.2411 4.90325 13.2792 4.57985 13.2792 4.2485C13.2792 1.90212 11.3771 0 9.03076 0C7.8772 0 6.83066 0.460438 6.06581 1.20569C5.93546 1.19363 5.80356 1.18748 5.67037 1.18748C3.32399 1.18748 1.42188 3.0896 1.42188 5.43598C1.42188 5.76733 1.45995 6.09073 1.53228 6.40169C1.62613 6.80513 2.02927 7.05611 2.43271 6.96226C2.83615 6.86842 3.08713 6.46528 2.99329 6.06184C2.94669 5.86151 2.92187 5.65212 2.92187 5.43598C2.92187 3.91802 4.15242 2.68748 5.67037 2.68748C5.85343 2.68748 6.03158 2.70527 6.20344 2.73899C6.47163 2.79162 6.74723 2.69419 6.92275 2.48469ZM4.74803 10.1891L4.18138 5.84244C4.07943 5.06042 4.68829 4.36702 5.47692 4.36702C6.11326 4.36702 6.65703 4.82546 6.76464 5.45262L7.3374 8.79124L7.34017 8.78346L7.95272 4.11594C8.03651 3.47743 8.5807 3 9.22468 3C9.99949 3 10.5974 3.68158 10.4966 4.4498L9.92792 8.78346H10.3987C11.5771 8.78346 12.5324 9.73877 12.5324 10.9172V12.9836C12.5324 13.5351 12.086 13.9825 11.5345 13.9836L4.25934 13.9989C3.92947 13.9996 3.62048 13.8376 3.43347 13.5658L3.01352 12.9556C2.31383 11.9389 2.8911 10.5386 4.104 10.3103L4.74803 10.1891Z" fill="black"/>
</svg>
