<svg width="14" height="14" viewBox="0 0 14 14" fill="none" xmlns="http://www.w3.org/2000/svg">
<g clip-path="url(#clip0_1068_186792)">
<path fill-rule="evenodd" clip-rule="evenodd" d="M2.69134 0.0380749C2.87818 0.115465 3 0.297783 3 0.500015V1.50001H4C4.27614 1.50001 4.5 1.72387 4.5 2.00001C4.5 2.27616 4.27614 2.50001 4 2.50001H3V3.50001C3 3.70225 2.87818 3.88456 2.69134 3.96195C2.5045 4.03934 2.28944 3.99657 2.14645 3.85357L0.646446 2.35357C0.451184 2.15831 0.451184 1.84172 0.646446 1.64646L2.14645 0.146461C2.28944 0.0034622 2.5045 -0.0393156 2.69134 0.0380749ZM12.3533 0.146461C12.2103 0.0034622 11.9953 -0.0393156 11.8084 0.0380749C11.6216 0.115465 11.4998 0.297783 11.4998 0.500015V1.50001H10.4998C10.2236 1.50001 9.99975 1.72387 9.99975 2.00001C9.99975 2.27616 10.2236 2.50001 10.4998 2.50001H11.4998V3.50001C11.4998 3.70225 11.6216 3.88456 11.8084 3.96195C11.9953 4.03934 12.2103 3.99657 12.3533 3.85357L13.8533 2.35357C14.0486 2.15831 14.0486 1.84172 13.8533 1.64646L12.3533 0.146461ZM5.42045 10.0622L3.52403 6.11024C3.18284 5.39923 3.54457 4.5503 4.29372 4.30389C4.89819 4.10507 5.55798 4.37065 5.85615 4.9328L7.4434 7.9253L7.4436 7.91705L6.56711 3.29182C6.44721 2.65909 6.81498 2.03553 7.42672 1.83432C8.16273 1.59223 8.94374 2.05285 9.088 2.81411L9.90179 7.1085L10.349 6.96139C11.3467 6.63324 12.4131 7.08125 12.8939 7.975C13.013 8.19633 13.0636 8.44606 13.1054 8.69388L13.8034 12.8334C13.9063 13.4435 13.4361 13.9997 12.8174 13.9997H5.98334C5.76465 13.9997 5.55199 13.928 5.37794 13.7956L4.63716 13.2322C3.65484 12.485 3.76567 10.9744 4.84653 10.3786L5.42045 10.0622Z" fill="black"/>
</g>
<defs>
<clipPath id="clip0_1068_186792">
<rect width="14" height="14" fill="white"/>
</clipPath>
</defs>
</svg>
