<svg width="14" height="14" viewBox="0 0 14 14" fill="none" xmlns="http://www.w3.org/2000/svg">
<g clip-path="url(#clip0_1068_186798)">
<path fill-rule="evenodd" clip-rule="evenodd" d="M4.75 0.75C4.75 0.335786 4.41421 0 4 0C3.58579 0 3.25 0.335786 3.25 0.75V7.5C3.25 9.57107 4.92893 11.25 7 11.25C9.07107 11.25 10.75 9.57107 10.75 7.5V0.75C10.75 0.335786 10.4142 0 10 0C9.58579 0 9.25 0.335786 9.25 0.75V7.5C9.25 8.74264 8.24264 9.75 7 9.75C5.75736 9.75 4.75 8.74264 4.75 7.5V0.75ZM0.75 12.5C0.335786 12.5 0 12.8358 0 13.25C0 13.6642 0.335786 14 0.75 14H13.25C13.6642 14 14 13.6642 14 13.25C14 12.8358 13.6642 12.5 13.25 12.5H0.75Z" fill="black"/>
</g>
<defs>
<clipPath id="clip0_1068_186798">
<rect width="14" height="14" fill="white"/>
</clipPath>
</defs>
</svg>
