<svg width="14" height="14" viewBox="0 0 14 14" fill="none" xmlns="http://www.w3.org/2000/svg">
<g clip-path="url(#clip0_1068_186801)">
<path fill-rule="evenodd" clip-rule="evenodd" d="M6.375 0H3.38261C2.83785 0 2.33592 0.295338 2.07137 0.771536L0.347222 3.875H6.375V0ZM0 12.5V5.125H7H14V12.5C14 13.3284 13.3284 14 12.5 14H1.5C0.671573 14 0 13.3284 0 12.5ZM13.6528 3.875H7.625V0H10.6174C11.1621 0 11.6641 0.295338 11.9286 0.771536L13.6528 3.875ZM4.35356 8.93946L6.64646 6.64657C6.84172 6.45131 7.1583 6.45131 7.35356 6.64657L9.64646 8.93946C9.96144 9.25445 9.73836 9.79302 9.2929 9.79302H8.00001V11.793C8.00001 12.3453 7.5523 12.793 7.00001 12.793C6.44773 12.793 6.00001 12.3453 6.00001 11.793V9.79302H4.70712C4.26167 9.79302 4.03858 9.25444 4.35356 8.93946Z" fill="black"/>
</g>
<defs>
<clipPath id="clip0_1068_186801">
<rect width="14" height="14" fill="white"/>
</clipPath>
</defs>
</svg>
