<svg width="14" height="14" viewBox="0 0 14 14" fill="none" xmlns="http://www.w3.org/2000/svg">
<g clip-path="url(#clip0_1068_186804)">
<path fill-rule="evenodd" clip-rule="evenodd" d="M7 14C10.866 14 14 10.866 14 7C14 3.13401 10.866 0 7 0C3.13401 0 0 3.13401 0 7C0 10.866 3.13401 14 7 14ZM10.1464 5.68934L7.3535 2.89645C7.15824 2.70118 6.84166 2.70118 6.6464 2.89645L3.8535 5.68934C3.53852 6.00432 3.76161 6.54289 4.20706 6.54289H5.99995V10.2498C5.99995 10.802 6.44767 11.2498 6.99995 11.2498C7.55224 11.2498 7.99995 10.802 7.99995 10.2498V6.54289H9.79284C10.2383 6.54289 10.4614 6.00432 10.1464 5.68934Z" fill="black"/>
</g>
<defs>
<clipPath id="clip0_1068_186804">
<rect width="14" height="14" fill="white"/>
</clipPath>
</defs>
</svg>
