<svg width="14" height="14" viewBox="0 0 14 14" fill="none" xmlns="http://www.w3.org/2000/svg">
<g clip-path="url(#clip0_1068_186807)">
<path fill-rule="evenodd" clip-rule="evenodd" d="M5.00086 4C4.71255 4 4.44977 3.83474 4.32488 3.57489C4.19999 3.31504 4.2351 3.00661 4.41521 2.78148L6.41521 0.281479C6.55753 0.103567 6.77302 0 7.00086 0C7.2287 0 7.44418 0.103567 7.58651 0.281479L9.58651 2.78148C9.76661 3.00661 9.80172 3.31504 9.67683 3.57489C9.55194 3.83474 9.28916 4 9.00086 4H8.00085V6.5C8.00085 7.05228 7.55313 7.5 7.00085 7.5C6.44856 7.5 6.00085 7.05228 6.00085 6.5V4H5.00086ZM2.0625 2.91016H2.30085C2.85313 2.91016 3.30085 2.46244 3.30085 1.91016C3.30085 1.35787 2.85313 0.910156 2.30085 0.910156H1.51929C0.714729 0.910156 0.0625 1.56239 0.0625 2.36695V9.67567C0.0625 10.4802 0.714729 11.1325 1.51929 11.1325H5.43645L4.94867 12.4954H4.00085C3.58664 12.4954 3.25085 12.8311 3.25085 13.2454C3.25085 13.6596 3.58664 13.9954 4.00085 13.9954H10.0009C10.4151 13.9954 10.7509 13.6596 10.7509 13.2454C10.7509 12.8311 10.4151 12.4954 10.0009 12.4954H9.05294L8.56516 11.1325H12.4824C13.287 11.1325 13.9392 10.4802 13.9392 9.67567V2.36695C13.9392 1.56239 13.287 0.910156 12.4824 0.910156H11.7009C11.1486 0.910156 10.7009 1.35787 10.7009 1.91016C10.7009 2.46244 11.1486 2.91016 11.7009 2.91016H11.9392V9.13246H2.0625V2.91016Z" fill="black"/>
</g>
<defs>
<clipPath id="clip0_1068_186807">
<rect width="14" height="14" fill="white"/>
</clipPath>
</defs>
</svg>
