<svg width="14" height="14" viewBox="0 0 14 14" fill="none" xmlns="http://www.w3.org/2000/svg">
<path fill-rule="evenodd" clip-rule="evenodd" d="M1.43934 0.43934C1.72064 0.158035 2.10218 0 2.5 0H8.5C8.63261 0 8.75979 0.0526784 8.85355 0.146447L12.8536 4.14645C12.9473 4.24021 13 4.36739 13 4.5V12.5C13 12.8978 12.842 13.2794 12.5607 13.5607C12.2794 13.842 11.8978 14 11.5 14H2.5C2.10217 14 1.72064 13.842 1.43934 13.5607C1.15804 13.2794 1 12.8978 1 12.5V1.5C1 1.10218 1.15804 0.720644 1.43934 0.43934ZM7.18695 3.43306L7.29089 3.53699C7.40736 3.61301 7.507 3.71266 7.58303 3.82913L9.43695 5.68306C9.6157 5.86181 9.66917 6.13063 9.57244 6.36418C9.4757 6.59772 9.2478 6.75 8.99501 6.75H7.74502V10.375C7.74502 10.9273 7.2973 11.375 6.74502 11.375C6.19273 11.375 5.74502 10.9273 5.74502 10.375V6.75H4.49501C4.24222 6.75 4.01432 6.59772 3.91759 6.36418C3.82085 6.13063 3.87432 5.86181 4.05307 5.68306L5.90703 3.82909C5.98304 3.71265 6.08267 3.61303 6.19911 3.53701L6.30307 3.43306C6.42028 3.31585 6.57925 3.25 6.74501 3.25C6.91077 3.25 7.06974 3.31585 7.18695 3.43306Z" fill="black"/>
</svg>
