<svg width="14" height="14" viewBox="0 0 14 14" fill="none" xmlns="http://www.w3.org/2000/svg">
<path fill-rule="evenodd" clip-rule="evenodd" d="M8 3C8 4.65685 6.65685 6 5 6C3.34315 6 2 4.65685 2 3C2 1.34315 3.34315 0 5 0C6.65685 0 8 1.34315 8 3ZM13.25 10C13.6642 10 14 10.3358 14 10.75C14 11.1642 13.6642 11.5 13.25 11.5H8.25C7.83579 11.5 7.5 11.1642 7.5 10.75C7.5 10.3358 7.83579 10 8.25 10H13.25ZM5 6.99997C2.23858 6.99997 0 9.23855 0 12C0 12.2761 0.223858 12.5 0.5 12.5H7.28094C6.66612 12.1588 6.25 11.503 6.25 10.75C6.25 9.64543 7.14543 8.75 8.25 8.75H8.79982C7.88278 7.67882 6.52067 6.99997 5 6.99997Z" fill="black"/>
</svg>
