<svg width="14" height="14" viewBox="0 0 14 14" fill="none" xmlns="http://www.w3.org/2000/svg">
<g clip-path="url(#clip0_1068_186813)">
<path fill-rule="evenodd" clip-rule="evenodd" d="M8 3C8 4.65685 6.65685 6 5 6C3.34315 6 2 4.65685 2 3C2 1.34315 3.34315 0 5 0C6.65685 0 8 1.34315 8 3ZM10.75 7.5C11.1642 7.5 11.5 7.83579 11.5 8.25V10H13.25C13.6642 10 14 10.3358 14 10.75C14 11.1642 13.6642 11.5 13.25 11.5H11.5V13.25C11.5 13.6642 11.1642 14 10.75 14C10.3358 14 10 13.6642 10 13.25V11.5H8.25C7.83579 11.5 7.5 11.1642 7.5 10.75C7.5 10.3358 7.83579 10 8.25 10H10V8.25C10 7.83579 10.3358 7.5 10.75 7.5ZM5 6.99997C6.49337 6.99997 7.83382 7.65466 8.75 8.69269V8.74999H8.25C7.14543 8.74999 6.25 9.64542 6.25 10.75C6.25 11.503 6.66612 12.1588 7.28095 12.5H0.5C0.223858 12.5 0 12.2761 0 12C0 9.23855 2.23858 6.99997 5 6.99997Z" fill="black"/>
</g>
<defs>
<clipPath id="clip0_1068_186813">
<rect width="14" height="14" fill="white"/>
</clipPath>
</defs>
</svg>
