<svg width="14" height="14" viewBox="0 0 14 14" fill="none" xmlns="http://www.w3.org/2000/svg">
<g clip-path="url(#clip0_1068_186825)">
<path fill-rule="evenodd" clip-rule="evenodd" d="M14 7C14 3.13401 10.866 0 7 0C3.13401 0 0 3.13401 0 7C0 8.35337 0.38407 9.61703 1.04916 10.6879C1.08435 10.7446 1.12035 10.8007 1.1571 10.8563C1.15707 10.8563 1.15713 10.8563 1.1571 10.8563C2.40981 12.7506 4.55894 14 7 14C10.866 14 14 10.866 14 7ZM7.00001 12.5C7.5499 12.5 8.08094 12.4193 8.58194 12.2691C8.14881 10.3053 6.82402 8.6875 4.57054 8.6875C3.6246 8.6875 2.80893 9.01327 2.12436 9.54761C3.04322 11.3025 4.88177 12.5 7.00001 12.5ZM9.59364 11.8513C10.602 11.3111 11.4223 10.4657 11.9312 9.43859C11.8846 9.40962 11.8373 9.38165 11.7893 9.35469C11.2294 9.04019 10.5981 8.875 9.9559 8.875C9.36797 8.875 8.78909 9.01347 8.26584 9.27822C8.3133 9.33051 8.3597 9.38383 8.40502 9.43816C8.98793 10.1369 9.37456 10.976 9.59364 11.8513ZM4.7291 3.24298C5.96908 3.24298 6.97428 4.24818 6.97428 5.48816C6.97428 6.72814 5.96908 7.73334 4.7291 7.73334C3.48913 7.73334 2.48392 6.72814 2.48392 5.48816C2.48392 4.24818 3.48913 3.24298 4.7291 3.24298ZM11.798 6.13992C11.798 5.11263 10.9652 4.27985 9.93795 4.27985C8.91066 4.27985 8.07788 5.11263 8.07788 6.13992C8.07788 7.16721 8.91066 7.99999 9.93795 7.99999C10.9652 7.99999 11.798 7.16721 11.798 6.13992Z" fill="black"/>
</g>
<defs>
<clipPath id="clip0_1068_186825">
<rect width="14" height="14" fill="white"/>
</clipPath>
</defs>
</svg>
