<svg width="14" height="14" viewBox="0 0 14 14" fill="none" xmlns="http://www.w3.org/2000/svg">
<g clip-path="url(#clip0_1068_186840)">
<path fill-rule="evenodd" clip-rule="evenodd" d="M7.00052 8C9.20966 8 11.0005 6.20914 11.0005 4L11.0003 3.95826C9.86216 3.92759 8.82623 3.48555 8.03652 2.77641C7.21755 3.51184 6.13378 3.96 4.9458 3.96C4.26179 3.96 3.61142 3.81127 3.02621 3.54414C3.00924 3.69374 3.00052 3.84585 3.00052 4C3.00052 6.20914 4.79138 8 7.00052 8ZM8.41083 1.73652C9.02106 2.42555 9.8878 2.87995 10.8614 2.95039C10.4003 1.25039 8.84645 0 7.00052 0C5.30238 0 3.85139 1.05819 3.27099 2.55113C3.77151 2.81222 4.34071 2.96 4.9458 2.96C6.02686 2.96 6.99696 2.48769 7.66221 1.73653C7.75711 1.62937 7.89338 1.56802 8.03652 1.56802C8.17966 1.56802 8.31593 1.62937 8.41083 1.73652ZM0.512537 13.3674C1.55285 10.8061 4.06583 9.00003 7.00063 9.00003C9.93544 9.00003 12.4484 10.8061 13.4887 13.3674C13.6146 13.6773 13.3747 14 13.0402 14H0.961006C0.62653 14 0.386672 13.6773 0.512537 13.3674Z" fill="black"/>
</g>
<defs>
<clipPath id="clip0_1068_186840">
<rect width="14" height="14" fill="white"/>
</clipPath>
</defs>
</svg>
