<svg width="14" height="14" viewBox="0 0 14 14" fill="none" xmlns="http://www.w3.org/2000/svg">
<g clip-path="url(#clip0_1068_186834)">
<path fill-rule="evenodd" clip-rule="evenodd" d="M0 1.75C0 0.783502 0.783501 0 1.75 0H12.25C13.2165 0 14 0.7835 14 1.75V5.00716C14 9.09284 11.3353 12.7008 7.43026 13.9023C7.14991 13.9886 6.85009 13.9886 6.56973 13.9023C2.66472 12.7008 0 9.09285 0 5.00716V1.75ZM7 6.5C8.24264 6.5 9.25 5.49264 9.25 4.25C9.25 3.00736 8.24264 2 7 2C5.75736 2 4.75 3.00736 4.75 4.25C4.75 5.49264 5.75736 6.5 7 6.5ZM11.1518 9.39262C10.1434 8.23306 8.65731 7.5 6.99996 7.5C5.34263 7.5 3.85651 8.23305 2.84814 9.39261C3.81992 10.8234 5.26334 11.9282 6.99998 12.4653C8.73661 11.9282 10.18 10.8234 11.1518 9.39262Z" fill="black"/>
</g>
<defs>
<clipPath id="clip0_1068_186834">
<rect width="14" height="14" fill="white"/>
</clipPath>
</defs>
</svg>
