<svg width="14" height="14" viewBox="0 0 14 14" fill="none" xmlns="http://www.w3.org/2000/svg">
<path fill-rule="evenodd" clip-rule="evenodd" d="M0 3C0 2.44772 0.447715 2 1 2H13C13.5523 2 14 2.44772 14 3V11C14 11.5523 13.5523 12 13 12H1C0.447716 12 0 11.5523 0 11V3ZM6 5.5C6 6.32843 5.32843 7 4.5 7C3.67157 7 3 6.32843 3 5.5C3 4.67157 3.67157 4 4.5 4C5.32843 4 6 4.67157 6 5.5ZM1.54665 9.3022C2.27806 8.50196 3.33039 8 4.49997 8C5.66954 8 6.72187 8.50196 7.45329 9.3022C7.71308 9.58645 7.48306 10 7.09797 10H1.90196C1.51687 10 1.28685 9.58645 1.54665 9.3022ZM8.87497 5.50003C8.87497 5.15485 9.15479 4.87503 9.49997 4.87503H11.5C11.8451 4.87503 12.125 5.15485 12.125 5.50003C12.125 5.84521 11.8451 6.12503 11.5 6.12503H9.49997C9.15479 6.12503 8.87497 5.84521 8.87497 5.50003ZM9.49997 7.87503C9.15479 7.87503 8.87497 8.15485 8.87497 8.50003C8.87497 8.84521 9.15479 9.12503 9.49997 9.12503H11.5C11.8451 9.12503 12.125 8.84521 12.125 8.50003C12.125 8.15485 11.8451 7.87503 11.5 7.87503H9.49997Z" fill="black"/>
</svg>
