<svg width="14" height="14" viewBox="0 0 14 14" fill="none" xmlns="http://www.w3.org/2000/svg">
<g clip-path="url(#clip0_1068_186846)">
<path fill-rule="evenodd" clip-rule="evenodd" d="M1.5 0C0.671574 3.621e-08 -3.6212e-08 0.671573 0 1.5L4.80825e-07 12.5C5.17037e-07 13.3284 0.671574 14 1.5 14H12.5C13.3284 14 14 13.3284 14 12.5V1.5C14 0.671573 13.3284 4.36636e-07 12.5 4.72848e-07L1.5 0ZM3.875 5.88497V11C3.875 11.3452 4.15482 11.625 4.5 11.625C4.84517 11.625 5.125 11.3452 5.125 11V5.88498C5.78284 5.63337 6.25 4.99618 6.25 4.24988C6.25 3.28338 5.4665 2.49988 4.5 2.49988C3.5335 2.49988 2.75 3.28338 2.75 4.24988C2.75 4.99618 3.21716 5.63337 3.875 5.88497ZM11.25 7.74991C11.25 8.49621 10.7828 9.1334 10.125 9.38501V11C10.125 11.3452 9.84517 11.625 9.5 11.625C9.15482 11.625 8.875 11.3452 8.875 11V9.385C8.21716 9.1334 7.75 8.49621 7.75 7.74991C7.75 7.00362 8.21716 6.36643 8.875 6.11482V3C8.875 2.65482 9.15482 2.375 9.5 2.375C9.84517 2.375 10.125 2.65482 10.125 3V6.11482C10.7828 6.36642 11.25 7.00361 11.25 7.74991Z" fill="black"/>
</g>
<defs>
<clipPath id="clip0_1068_186846">
<rect width="14" height="14" fill="white"/>
</clipPath>
</defs>
</svg>
