<svg width="14" height="14" viewBox="0 0 14 14" fill="none" xmlns="http://www.w3.org/2000/svg">
<path fill-rule="evenodd" clip-rule="evenodd" d="M4.6 1.2C4.69443 1.0741 4.84262 1 5 1H9C9.15738 1 9.30557 1.0741 9.4 1.2L10.75 3H12.5C12.8978 3 13.2794 3.15804 13.5607 3.43934C13.842 3.72064 14 4.10217 14 4.5V11.5C14 11.8978 13.842 12.2794 13.5607 12.5607C13.2794 12.842 12.8978 13 12.5 13H1.5C1.10217 13 0.720644 12.842 0.43934 12.5607C0.158035 12.2794 0 11.8978 0 11.5V4.5C0 4.10218 0.158035 3.72064 0.43934 3.43934C0.720644 3.15804 1.10217 3 1.5 3H3.25L4.6 1.2ZM10.2361 7.44443L10.1784 7.43641C10.1765 5.84151 8.98536 4.46158 7.36173 4.26358C6.80682 4.1959 6.26598 4.2747 5.77992 4.47023C5.45968 4.59906 5.30452 4.9631 5.43335 5.28334C5.56217 5.60357 5.92621 5.75874 6.24645 5.62991C6.54168 5.51114 6.87026 5.4629 7.2104 5.50438C8.13967 5.61771 8.83663 6.36584 8.91989 7.26141L8.75939 7.23909C8.50901 7.20427 8.26231 7.3237 8.13433 7.5417C8.00635 7.7597 8.02228 8.03332 8.17471 8.23499L8.81036 9.07599C9.0185 9.35136 9.41045 9.40587 9.68582 9.19773L10.5268 8.56208C10.7285 8.40965 10.8185 8.15076 10.7548 7.90611C10.6912 7.66147 10.4864 7.47925 10.2361 7.44443ZM5.1344 5.85256C4.92627 5.5772 4.53431 5.52269 4.25894 5.73082L3.41794 6.36648C3.21628 6.5189 3.12629 6.7778 3.18993 7.02245C3.25358 7.26709 3.45834 7.44931 3.70871 7.48412L3.76633 7.49214C3.7687 9.08663 4.95967 10.466 6.58298 10.664C7.13789 10.7317 7.67873 10.6529 8.16479 10.4573C8.48502 10.3285 8.64019 9.96448 8.51136 9.64424C8.38253 9.32401 8.01849 9.16884 7.69826 9.29767C7.40302 9.41644 7.07445 9.46468 6.7343 9.4232C5.80538 9.30991 5.10858 8.56229 5.0249 7.66715L5.18537 7.68947C5.43575 7.72429 5.68245 7.60485 5.81044 7.38686C5.93842 7.16886 5.92249 6.89523 5.77006 6.69357L5.1344 5.85256Z" fill="black"/>
</svg>
