<svg width="14" height="14" viewBox="0 0 14 14" fill="none" xmlns="http://www.w3.org/2000/svg">
<g clip-path="url(#clip0_1068_186870)">
<path fill-rule="evenodd" clip-rule="evenodd" d="M1.57322 1.57322C1.62011 1.52634 1.6837 1.5 1.75 1.5H3.25C3.66421 1.5 4 1.16421 4 0.75C4 0.335786 3.66421 0 3.25 0H1.75C1.28587 0 0.840752 0.184375 0.512563 0.512563C0.184375 0.840752 0 1.28587 0 1.75V3.25C0 3.66421 0.335786 4 0.75 4C1.16421 4 1.5 3.66421 1.5 3.25V1.75C1.5 1.6837 1.52634 1.62011 1.57322 1.57322ZM2.50012 4.375C2.8453 4.375 3.12512 4.65482 3.12512 5V9.5C3.12512 9.84518 2.8453 10.125 2.50012 10.125C2.15494 10.125 1.87512 9.84518 1.87512 9.5V5C1.87512 4.65482 2.15494 4.375 2.50012 4.375ZM4.75006 5.375C5.09524 5.375 5.37506 5.65482 5.37506 6V8.5C5.37506 8.84518 5.09524 9.125 4.75006 9.125C4.40488 9.125 4.12506 8.84518 4.12506 8.5V6C4.12506 5.65482 4.40488 5.375 4.75006 5.375ZM7.625 5C7.625 4.65482 7.34518 4.375 7 4.375C6.65482 4.375 6.375 4.65482 6.375 5V9.5C6.375 9.84518 6.65482 10.125 7 10.125C7.34518 10.125 7.625 9.84518 7.625 9.5V5ZM9.24994 5.375C9.59512 5.375 9.87494 5.65482 9.87494 6V6.00236V6.00473V6.00714V6.00956V6.01201V6.01449V6.01698V6.0195V6.02204V6.02461V6.02719V6.0298V6.03244V6.03509V6.03777V6.04047V6.0432V6.04594V6.04871V6.0515V6.05431V6.05714V6.06V6.06288V6.06578V6.0687V6.07164V6.0746V6.07759V6.08059V6.08362V6.08667V6.08974V6.09283V6.09594V6.09908V6.10223V6.1054V6.1086V6.11181V6.11505V6.1183V6.12158V6.12488V6.12819V6.13153V6.13489V6.13826V6.14166V6.14507V6.14851V6.15197V6.15544V6.15893V6.16245V6.16598V6.16953V6.1731V6.17669V6.1803V6.18393V6.18757V6.19124V6.19492V6.19862V6.20234V6.20608V6.20984V6.21361V6.21741V6.22122V6.22505V6.2289V6.23276V6.23664V6.24054V6.24446V6.24839V6.25235V6.25632V6.2603V6.26431V6.26833V6.27237V6.27642V6.28049V6.28458V6.28869V6.29281V6.29695V6.3011V6.30527V6.30946V6.31366V6.31788V6.32212V6.32637V6.33064V6.33492V6.33922V6.34353V6.34786V6.35221V6.35657V6.36095V6.36534V6.36974V6.37416V6.3786V6.38305V6.38752V6.392V6.39649V6.401V6.40553V6.41007V6.41462V6.41919V6.42377V6.42836V6.43297V6.4376V6.44223V6.44689V6.45155V6.45623V6.46092V6.46562V6.47034V6.47508V6.47982V6.48458V6.48935V6.49413V6.49893V6.50374V6.50856V6.5134V6.51825V6.52311V6.52798V6.53286V6.53776V6.54267V6.54759V6.55252V6.55747V6.56243V6.5674V6.57238V6.57737V6.58237V6.58739V6.59241V6.59745V6.6025V6.60756V6.61263V6.61771V6.6228V6.62791V6.63302V6.63814V6.64328V6.64843V6.65358V6.65875V6.66392V6.66911V6.67431V6.67951V6.68473V6.68996V6.69519V6.70044V6.70569V6.71096V6.71623V6.72152V6.72681V6.73211V6.73742V6.74274V6.74807V6.75341V6.75876V6.76411V6.76948V6.77485V6.78023V6.78562V6.79102V6.79642V6.80184V6.80726V6.81269V6.81812V6.82357V6.82902V6.83448V6.83995V6.84543V6.85091V6.8564V6.8619V6.8674V6.87292V6.87844V6.88396V6.88949V6.89503V6.90058V6.90613V6.91169V6.91726V6.92283V6.92841V6.93399V6.93958V6.94518V6.95078V6.95639V6.96201V6.96763V6.97325V6.97888V6.98452V6.99016V6.99581V7.00146V7.00712V7.01278V7.01845V7.02412V7.0298V7.03548V7.04117V7.04686V7.05256V7.05826V7.06396V7.06967V7.07539V7.0811V7.08682V7.09255V7.09828V7.10401V7.10975V7.11549V7.12123V7.12698V7.13273V7.13848V7.14424V7.15V7.15576V7.16153V7.1673V7.17307V7.17884V7.18462V7.1904V7.19618V7.20197V7.20776V7.21355V7.21934V7.22513V7.23093V7.23672V7.24252V7.24832V7.25413V7.25993V7.26574V7.27154V7.27735V7.28316V7.28897V7.29479V7.3006V7.30641V7.31223V7.31805V7.32386V7.32968V7.3355V7.34132V7.34714V7.35295V7.35877V7.36459V7.37041V7.37623V7.38205V7.38787V7.39369V7.39951V7.40533V7.41115V7.41696V7.42278V7.4286V7.43441V7.44022V7.44604V7.45185V7.45766V7.46347V7.46928V7.47509V7.48089V7.4867V7.4925V7.4983V7.5041V7.5099V7.51569V7.52148V7.52728V7.53306V7.53885V7.54464V7.55042V7.5562V7.56197V7.56775V7.57352V7.57929V7.58505V7.59082V7.59658V7.60233V7.60809V7.61384V7.61958V7.62533V7.63107V7.6368V7.64253V7.64826V7.65399V7.65971V7.66543V7.67114V7.67685V7.68255V7.68825V7.69394V7.69964V7.70532V7.711V7.71668V7.72235V7.72802V7.73368V7.73934V7.74499V7.75064V7.75628V7.76191V7.76754V7.77317V7.77879V7.7844V7.79001V7.79561V7.80121V7.8068V7.81238V7.81796V7.82353V7.82909V7.83465V7.8402V7.84575V7.85129V7.85682V7.86235V7.86786V7.87337V7.87888V7.88438V7.88986V7.89535V7.90082V7.90629V7.91175V7.9172V7.92265V7.92808V7.93351V7.93893V7.94434V7.94975V7.95514V7.96053V7.96591V7.97128V7.97665V7.982V7.98734V7.99268V7.99801V8.00333V8.00864V8.01394V8.01923V8.02451V8.02979V8.03505V8.0403V8.04555V8.05078V8.05601V8.06122V8.06643V8.07162V8.07681V8.08198V8.08715V8.0923V8.09744V8.10258V8.1077V8.11281V8.11792V8.12301V8.12809V8.13316V8.13821V8.14326V8.1483V8.15332V8.15833V8.16334V8.16833V8.17331V8.17827V8.18323V8.18817V8.1931V8.19802V8.20293V8.20782V8.21271V8.21758V8.22244V8.22728V8.23212V8.23694V8.24174V8.24654V8.25132V8.25609V8.26085V8.26559V8.27032V8.27504V8.27974V8.28443V8.28911V8.29377V8.29842V8.30305V8.30767V8.31228V8.31687V8.32145V8.32602V8.33057V8.33511V8.33963V8.34414V8.34863V8.35311V8.35757V8.36202V8.36646V8.37087V8.37528V8.37967V8.38404V8.3884V8.39274V8.39707V8.40138V8.40568V8.40996V8.41422V8.41847V8.42271V8.42692V8.43112V8.43531V8.43948V8.44363V8.44777V8.45189V8.45599V8.46007V8.46414V8.46819V8.47223V8.47625V8.48025V8.48424V8.4882V8.49215V8.49609V8.5C9.87494 8.84518 9.59512 9.125 9.24994 9.125C8.90476 9.125 8.62494 8.84518 8.62494 8.5V8.49609V8.49215V8.4882V8.48424V8.48025V8.47625V8.47223V8.46819V8.46414V8.46007V8.45599V8.45189V8.44777V8.44363V8.43948V8.43531V8.43112V8.42692V8.42271V8.41847V8.41422V8.40996V8.40568V8.40138V8.39707V8.39274V8.3884V8.38404V8.37967V8.37528V8.37087V8.36646V8.36202V8.35757V8.35311V8.34863V8.34414V8.33963V8.33511V8.33057V8.32602V8.32145V8.31687V8.31228V8.30767V8.30305V8.29842V8.29377V8.28911V8.28443V8.27974V8.27504V8.27032V8.26559V8.26085V8.25609V8.25132V8.24654V8.24174V8.23694V8.23212V8.22728V8.22244V8.21758V8.21271V8.20782V8.20293V8.19802V8.1931V8.18817V8.18323V8.17827V8.17331V8.16833V8.16334V8.15833V8.15332V8.1483V8.14326V8.13821V8.13316V8.12809V8.12301V8.11792V8.11281V8.1077V8.10258V8.09744V8.0923V8.08715V8.08198V8.07681V8.07162V8.06643V8.06122V8.05601V8.05078V8.04555V8.0403V8.03505V8.02979V8.02451V8.01923V8.01394V8.00864V8.00333V7.99801V7.99268V7.98734V7.982V7.97665V7.97128V7.96591V7.96053V7.95514V7.94975V7.94434V7.93893V7.93351V7.92808V7.92265V7.9172V7.91175V7.90629V7.90082V7.89535V7.88986V7.88438V7.87888V7.87337V7.86786V7.86235V7.85682V7.85129V7.84575V7.8402V7.83465V7.82909V7.82353V7.81796V7.81238V7.8068V7.80121V7.79561V7.79001V7.7844V7.77879V7.77317V7.76754V7.76191V7.75628V7.75064V7.74499V7.73934V7.73368V7.72802V7.72235V7.71668V7.711V7.70532V7.69964V7.69394V7.68825V7.68255V7.67685V7.67114V7.66543V7.65971V7.65399V7.64826V7.64253V7.6368V7.63107V7.62533V7.61958V7.61384V7.60809V7.60233V7.59658V7.59082V7.58505V7.57929V7.57352V7.56775V7.56197V7.5562V7.55042V7.54464V7.53885V7.53306V7.52728V7.52148V7.51569V7.5099V7.5041V7.4983V7.4925V7.4867V7.48089V7.47509V7.46928V7.46347V7.45766V7.45185V7.44604V7.44022V7.43441V7.4286V7.42278V7.41696V7.41115V7.40533V7.39951V7.39369V7.38787V7.38205V7.37623V7.37041V7.36459V7.35877V7.35295V7.34714V7.34132V7.3355V7.32968V7.32386V7.31805V7.31223V7.30641V7.3006V7.29479V7.28897V7.28316V7.27735V7.27154V7.26574V7.25993V7.25413V7.24832V7.24252V7.23672V7.23093V7.22513V7.21934V7.21355V7.20776V7.20197V7.19618V7.1904V7.18462V7.17884V7.17307V7.1673V7.16153V7.15576V7.15V7.14424V7.13848V7.13273V7.12698V7.12123V7.11549V7.10975V7.10401V7.09828V7.09255V7.08682V7.0811V7.07539V7.06967V7.06396V7.05826V7.05256V7.04686V7.04117V7.03548V7.0298V7.02412V7.01845V7.01278V7.00712V7.00146V6.99581V6.99016V6.98452V6.97888V6.97325V6.96763V6.96201V6.95639V6.95078V6.94518V6.93958V6.93399V6.92841V6.92283V6.91726V6.91169V6.90613V6.90058V6.89503V6.88949V6.88396V6.87844V6.87292V6.8674V6.8619V6.8564V6.85091V6.84543V6.83995V6.83448V6.82902V6.82357V6.81812V6.81269V6.80726V6.80184V6.79642V6.79102V6.78562V6.78023V6.77485V6.76948V6.76411V6.75876V6.75341V6.74807V6.74274V6.73742V6.73211V6.72681V6.72152V6.71623V6.71096V6.70569V6.70044V6.69519V6.68996V6.68473V6.67951V6.67431V6.66911V6.66392V6.65875V6.65358V6.64843V6.64328V6.63814V6.63302V6.62791V6.6228V6.61771V6.61263V6.60756V6.6025V6.59745V6.59241V6.58739V6.58237V6.57737V6.57238V6.5674V6.56243V6.55747V6.55252V6.54759V6.54267V6.53776V6.53286V6.52798V6.52311V6.51825V6.5134V6.50856V6.50374V6.49893V6.49413V6.48935V6.48458V6.47982V6.47508V6.47034V6.46562V6.46092V6.45623V6.45155V6.44689V6.44223V6.4376V6.43297V6.42836V6.42377V6.41919V6.41462V6.41007V6.40553V6.401V6.39649V6.392V6.38752V6.38305V6.3786V6.37416V6.36974V6.36534V6.36095V6.35657V6.35221V6.34786V6.34353V6.33922V6.33492V6.33064V6.32637V6.32212V6.31788V6.31366V6.30946V6.30527V6.3011V6.29695V6.29281V6.28869V6.28458V6.28049V6.27642V6.27237V6.26833V6.26431V6.2603V6.25632V6.25235V6.24839V6.24446V6.24054V6.23664V6.23276V6.2289V6.22505V6.22122V6.21741V6.21361V6.20984V6.20608V6.20234V6.19862V6.19492V6.19124V6.18757V6.18393V6.1803V6.17669V6.1731V6.16953V6.16598V6.16245V6.15893V6.15544V6.15197V6.14851V6.14507V6.14166V6.13826V6.13489V6.13153V6.12819V6.12488V6.12158V6.1183V6.11505V6.11181V6.1086V6.1054V6.10223V6.09908V6.09594V6.09283V6.08974V6.08667V6.08362V6.08059V6.07759V6.0746V6.07164V6.0687V6.06578V6.06288V6.06V6.05714V6.05431V6.0515V6.04871V6.04594V6.0432V6.04047V6.03777V6.03509V6.03244V6.0298V6.02719V6.02461V6.02204V6.0195V6.01698V6.01449V6.01201V6.00956V6.00714V6.00473V6.00236V6C8.62494 5.65482 8.90476 5.375 9.24994 5.375ZM12.1248 5C12.1248 4.65482 11.845 4.375 11.4998 4.375C11.1546 4.375 10.8748 4.65482 10.8748 5V9.5C10.8748 9.84518 11.1546 10.125 11.4998 10.125C11.845 10.125 12.1248 9.84518 12.1248 9.5V5ZM13.25 10C13.6642 10 14 10.3358 14 10.75V12.25C14 12.7141 13.8156 13.1592 13.4874 13.4874C13.1592 13.8156 12.7141 14 12.25 14H10.75C10.3358 14 10 13.6642 10 13.25C10 12.8358 10.3358 12.5 10.75 12.5H12.25C12.3163 12.5 12.3799 12.4737 12.4268 12.4268C12.4737 12.3799 12.5 12.3163 12.5 12.25V10.75C12.5 10.3358 12.8358 10 13.25 10ZM0.75 10C1.16421 10 1.5 10.3358 1.5 10.75V12.25C1.5 12.3163 1.52634 12.3799 1.57322 12.4268C1.62011 12.4737 1.6837 12.5 1.75 12.5H3.25C3.66421 12.5 4 12.8358 4 13.25C4 13.6642 3.66421 14 3.25 14H1.75C1.28587 14 0.840752 13.8156 0.512563 13.4874C0.184375 13.1592 0 12.7141 0 12.25V10.75C0 10.3358 0.335786 10 0.75 10ZM10.75 0C10.3358 0 10 0.335786 10 0.75C10 1.16421 10.3358 1.5 10.75 1.5H12.25C12.3163 1.5 12.3799 1.52634 12.4268 1.57322C12.4737 1.62011 12.5 1.6837 12.5 1.75V3.25C12.5 3.66421 12.8358 4 13.25 4C13.6642 4 14 3.66421 14 3.25V1.75C14 1.28587 13.8156 0.840752 13.4874 0.512563C13.1592 0.184375 12.7141 0 12.25 0H10.75Z" fill="black"/>
</g>
<defs>
<clipPath id="clip0_1068_186870">
<rect width="14" height="14" fill="white"/>
</clipPath>
</defs>
</svg>
