<svg width="14" height="14" viewBox="0 0 14 14" fill="none" xmlns="http://www.w3.org/2000/svg">
<path fill-rule="evenodd" clip-rule="evenodd" d="M9 0C7.14348 0 5.36301 0.737498 4.05025 2.05025C2.7375 3.36301 2 5.14348 2 7C2 8.85652 2.7375 10.637 4.05025 11.9497C5.36301 13.2625 7.14348 14 9 14H9.00352C9.91581 13.9936 10.8183 13.8109 11.6612 13.462C11.8367 13.3893 11.9559 13.2235 11.9688 13.034C11.9818 12.8445 11.8862 12.664 11.7221 12.5682C10.7476 11.9992 9.93806 11.1862 9.37309 10.2093C8.80855 9.23316 8.50768 8.12696 8.50001 6.99939C8.50482 5.87449 8.80148 4.77009 9.361 3.79417C9.92095 2.81752 10.725 2.00305 11.6943 1.43051C11.8574 1.33414 11.9521 1.15381 11.9388 0.964783C11.9254 0.775755 11.8063 0.610517 11.6313 0.538028C10.7984 0.193191 9.90726 0.0105887 9.00585 3.42727e-05L9 0Z" fill="black"/>
</svg>
