<svg width="14" height="14" viewBox="0 0 14 14" fill="none" xmlns="http://www.w3.org/2000/svg">
<g clip-path="url(#clip0_1068_186855)">
<path fill-rule="evenodd" clip-rule="evenodd" d="M6.21854 0.226033C6.45409 0.0820473 6.72481 0.00585938 7.00088 0.00585938C7.27695 0.00585938 7.54766 0.0820473 7.78321 0.226033C8.01876 0.370019 8.21 0.576216 8.33588 0.821919L8.33811 0.826281L13.8374 11.8249C13.9522 12.053 14.0073 12.3075 13.9966 12.5627C13.9859 12.8182 13.9101 13.0667 13.7763 13.2846C13.6425 13.5025 13.4553 13.6826 13.2323 13.8078C13.0094 13.933 12.7581 13.9991 12.5024 13.9999H12.5009H1.50088H1.49936C1.24367 13.9991 0.992418 13.933 0.769467 13.8078C0.546517 13.6826 0.359271 13.5025 0.225511 13.2846C0.0917531 13.0667 0.0159223 12.8182 0.00522075 12.5627C-0.0054683 12.3075 0.0491743 12.0538 0.163963 11.8257L5.66366 0.826292L5.66585 0.821908C5.79172 0.576205 5.983 0.370019 6.21854 0.226033ZM7.00085 4.125C7.41506 4.125 7.75085 4.46079 7.75085 4.875V8.125C7.75085 8.53921 7.41506 8.875 7.00085 8.875C6.58664 8.875 6.25085 8.53921 6.25085 8.125V4.875C6.25085 4.46079 6.58664 4.125 7.00085 4.125ZM8.00085 10.875C8.00085 11.4273 7.55313 11.875 7.00085 11.875C6.44857 11.875 6.00085 11.4273 6.00085 10.875C6.00085 10.3227 6.44857 9.875 7.00085 9.875C7.55313 9.875 8.00085 10.3227 8.00085 10.875Z" fill="black"/>
</g>
<defs>
<clipPath id="clip0_1068_186855">
<rect width="14" height="14" fill="white"/>
</clipPath>
</defs>
</svg>
