<svg width="14" height="14" viewBox="0 0 14 14" fill="none" xmlns="http://www.w3.org/2000/svg">
<g clip-path="url(#clip0_1068_186864)">
<path fill-rule="evenodd" clip-rule="evenodd" d="M3.85355 0.43934C4.13486 0.158035 4.51639 0 4.91421 0H9.08579C9.48361 0 9.86514 0.158035 10.1464 0.43934L13.5607 3.85355C13.842 4.13486 14 4.51639 14 4.91421V9.08579C14 9.48361 13.842 9.86514 13.5607 10.1464L10.1464 13.5607C9.86514 13.842 9.48361 14 9.08579 14H4.91421C4.51639 14 4.13486 13.842 3.85355 13.5607L0.43934 10.1464C0.158035 9.86514 0 9.48361 0 9.08579V4.91421C0 4.51639 0.158035 4.13486 0.43934 3.85355L3.85355 0.43934ZM7 3.125C7.41421 3.125 7.75 3.46079 7.75 3.875V7.125C7.75 7.53921 7.41421 7.875 7 7.875C6.58579 7.875 6.25 7.53921 6.25 7.125V3.875C6.25 3.46079 6.58579 3.125 7 3.125ZM8 9.875C8 10.4273 7.55228 10.875 7 10.875C6.44772 10.875 6 10.4273 6 9.875C6 9.32272 6.44772 8.875 7 8.875C7.55228 8.875 8 9.32272 8 9.875Z" fill="black"/>
</g>
<defs>
<clipPath id="clip0_1068_186864">
<rect width="14" height="14" fill="white"/>
</clipPath>
</defs>
</svg>
