<svg width="14" height="14" viewBox="0 0 14 14" fill="none" xmlns="http://www.w3.org/2000/svg">
<g clip-path="url(#clip0_1068_187254)">
<path fill-rule="evenodd" clip-rule="evenodd" d="M6.86322 0.0144043C7.27743 0.0144043 7.61322 0.350191 7.61322 0.764404V1.41673C7.61322 1.83095 7.27743 2.16673 6.86322 2.16673C6.449 2.16673 6.11322 1.83095 6.11322 1.41673V0.764404C6.11322 0.350191 6.449 0.0144043 6.86322 0.0144043ZM11.1506 6.86193C11.1506 9.23054 9.23048 11.1507 6.86187 11.1507C4.49326 11.1507 2.57312 9.23054 2.57312 6.86193C2.57312 4.49332 4.49326 2.57318 6.86187 2.57318C9.23048 2.57318 11.1506 4.49332 11.1506 6.86193ZM7.61322 12.3063C7.61322 11.8921 7.27743 11.5563 6.86322 11.5563C6.449 11.5563 6.11322 11.8921 6.11322 12.3063V12.9586C6.11322 13.3728 6.449 13.7086 6.86322 13.7086C7.27743 13.7086 7.61322 13.3728 7.61322 12.9586V12.3063ZM0.015625 6.862C0.015625 6.44779 0.351412 6.112 0.765626 6.112H1.41795C1.83217 6.112 2.16795 6.44779 2.16795 6.862C2.16795 7.27621 1.83217 7.612 1.41795 7.612H0.765626C0.351412 7.612 0.015625 7.27621 0.015625 6.862ZM12.3075 6.112C11.8933 6.112 11.5575 6.44779 11.5575 6.862C11.5575 7.27621 11.8933 7.612 12.3075 7.612H12.9598C13.374 7.612 13.7098 7.27621 13.7098 6.862C13.7098 6.44779 13.374 6.112 12.9598 6.112H12.3075ZM11.7474 1.97626C12.0403 2.26916 12.0403 2.74403 11.7474 3.03692L11.3134 3.47087C11.0205 3.76376 10.5457 3.76376 10.2528 3.47087C9.95985 3.17798 9.95985 2.7031 10.2528 2.41021L10.6867 1.97626C10.9796 1.68337 11.4545 1.68337 11.7474 1.97626ZM3.47209 11.3122C3.76498 11.0193 3.76498 10.5445 3.47209 10.2516C3.1792 9.95867 2.70432 9.95867 2.41143 10.2516L1.97748 10.6855C1.68459 10.9784 1.68459 11.4533 1.97748 11.7462C2.27037 12.0391 2.74525 12.0391 3.03814 11.7462L3.47209 11.3122ZM1.97748 1.97626C2.27037 1.68337 2.74525 1.68337 3.03814 1.97626L3.47209 2.41021C3.76498 2.7031 3.76498 3.17798 3.47209 3.47087C3.1792 3.76376 2.70432 3.76376 2.41143 3.47087L1.97748 3.03692C1.68459 2.74403 1.68459 2.26916 1.97748 1.97626ZM11.3134 10.2516C11.0205 9.95867 10.5457 9.95867 10.2528 10.2516C9.95985 10.5445 9.95985 11.0193 10.2528 11.3122L10.6867 11.7462C10.9796 12.0391 11.4545 12.0391 11.7474 11.7462C12.0403 11.4533 12.0403 10.9784 11.7474 10.6855L11.3134 10.2516ZM6.86358 3.54614C7.20876 3.54614 7.48858 3.82596 7.48858 4.17114V5.93749C7.48858 6.28267 7.20876 6.56249 6.86358 6.56249C6.51841 6.56249 6.23858 6.28267 6.23858 5.93749V4.17114C6.23858 3.82596 6.5184 3.54614 6.86358 3.54614ZM5.36945 5.73557C5.57673 5.45955 5.52101 5.06777 5.24499 4.86049C4.96898 4.65321 4.57719 4.70894 4.36991 4.98495C3.97897 5.50555 3.74707 6.15356 3.74707 6.85393C3.74707 8.57419 5.14161 9.96873 6.86187 9.96873C8.58213 9.96873 9.97668 8.57419 9.97668 6.85393C9.97668 6.15356 9.74478 5.50555 9.35383 4.98495C9.14655 4.70894 8.75477 4.65321 8.47875 4.86049C8.20274 5.06777 8.14701 5.45955 8.35429 5.73557C8.58828 6.04715 8.72668 6.43347 8.72668 6.85393C8.72668 7.88383 7.89178 8.71873 6.86187 8.71873C5.83197 8.71873 4.99707 7.88383 4.99707 6.85393C4.99707 6.43347 5.13547 6.04715 5.36945 5.73557Z" fill="black"/>
</g>
<defs>
<clipPath id="clip0_1068_187254">
<rect width="14" height="14" fill="white"/>
</clipPath>
</defs>
</svg>
