<svg width="14" height="14" viewBox="0 0 14 14" fill="none" xmlns="http://www.w3.org/2000/svg">
<g clip-path="url(#clip0_1068_187221)">
<path fill-rule="evenodd" clip-rule="evenodd" d="M7 0C5.1517 0 3.41338 0.361019 2.12226 1.24052C0.803257 2.13901 0 3.54704 0 5.5C0 7.41911 0.782881 9.5233 2.02095 11.1492C3.2556 12.7705 5.01161 14 7 14C8.98839 14 10.7444 12.7705 11.979 11.1492C13.2171 9.5233 14 7.41911 14 5.5C14 3.54704 13.1967 2.13901 11.8777 1.24052C10.5866 0.361019 8.8483 0 7 0ZM2.52082 4.16893C2.95839 4.07473 3.41066 4.07159 3.84949 4.15971C4.28832 4.24784 4.70431 4.42534 5.07158 4.68118C5.09585 4.69808 5.11692 4.71915 5.13383 4.74342C5.38966 5.11069 5.56716 5.52668 5.65529 5.96551C5.74341 6.40434 5.74027 6.85661 5.64607 7.29418C5.62539 7.39024 5.55035 7.46528 5.45429 7.48596C5.01672 7.58016 4.56445 7.5833 4.12562 7.49518C3.68679 7.40705 3.2708 7.22955 2.90353 6.97372C2.87926 6.95681 2.85819 6.93574 2.84129 6.91147C2.58545 6.5442 2.40795 6.12821 2.31983 5.68938C2.2317 5.25055 2.23484 4.79828 2.32904 4.36071C2.34973 4.26465 2.42476 4.18961 2.52082 4.16893ZM10.1505 4.15971C10.5894 4.07159 11.0416 4.07473 11.4792 4.16893C11.5753 4.18961 11.6503 4.26465 11.671 4.36071C11.7652 4.79828 11.7683 5.25055 11.6802 5.68938C11.5921 6.12821 11.4146 6.5442 11.1587 6.91147C11.1418 6.93574 11.1208 6.95681 11.0965 6.97372C10.7292 7.22955 10.3132 7.40705 9.87439 7.49518C9.43556 7.5833 8.98329 7.58016 8.54573 7.48596C8.44967 7.46528 8.37463 7.39024 8.35395 7.29418C8.25974 6.85661 8.2566 6.40434 8.34473 5.96551C8.43285 5.52668 8.61036 5.11069 8.86619 4.74342C8.88309 4.71915 8.90417 4.69808 8.92843 4.68118C9.2957 4.42534 9.7117 4.24784 10.1505 4.15971Z" fill="black"/>
</g>
<defs>
<clipPath id="clip0_1068_187221">
<rect width="14" height="14" fill="white"/>
</clipPath>
</defs>
</svg>
