<svg width="14" height="14" viewBox="0 0 14 14" fill="none" xmlns="http://www.w3.org/2000/svg">
<g clip-path="url(#clip0_1068_187239)">
<path d="M11.8462 2.15385C11.8462 1.58261 11.6192 1.03477 11.2153 0.630847C10.8114 0.226922 10.2635 0 9.69231 0C9.12107 0 8.57323 0.226922 8.16931 0.630847C7.76538 1.03477 7.53846 1.58261 7.53846 2.15385C7.54087 2.72416 7.76937 3.27024 8.17385 3.67231L3.67231 8.17385C3.27024 7.76937 2.72416 7.54087 2.15385 7.53846C1.58261 7.53846 1.03477 7.76538 0.630847 8.16931C0.226922 8.57323 0 9.12107 0 9.69231C0 10.2635 0.226922 10.8114 0.630847 11.2153C1.03477 11.6192 1.58261 11.8462 2.15385 11.8462C2.15385 12.4174 2.38077 12.9652 2.78469 13.3692C3.18862 13.7731 3.73646 14 4.30769 14C4.87893 14 5.42677 13.7731 5.83069 13.3692C6.23462 12.9652 6.46154 12.4174 6.46154 11.8462C6.45913 11.2758 6.23063 10.7298 5.82615 10.3277L10.3277 5.82615C10.7298 6.23063 11.2758 6.45913 11.8462 6.46154C12.4174 6.46154 12.9652 6.23462 13.3692 5.83069C13.7731 5.42677 14 4.87893 14 4.30769C14 3.73646 13.7731 3.18862 13.3692 2.78469C12.9652 2.38077 12.4174 2.15385 11.8462 2.15385Z" fill="black"/>
</g>
<defs>
<clipPath id="clip0_1068_187239">
<rect width="14" height="14" fill="white"/>
</clipPath>
</defs>
</svg>
