<svg width="14" height="14" viewBox="0 0 14 14" fill="none" xmlns="http://www.w3.org/2000/svg">
<g clip-path="url(#clip0_1068_187236)">
<path fill-rule="evenodd" clip-rule="evenodd" d="M1.77703 0.0526343C1.94659 -0.032 2.14943 -0.0134972 2.30088 0.10042L6.21786 3.04666C6.47457 3.01584 6.7357 3 7.00032 3C7.26494 3 7.52606 3.01584 7.78275 3.04666L11.6997 0.10042C11.8512 -0.0134972 12.054 -0.032 12.2236 0.0526343C12.3931 0.137269 12.5003 0.310492 12.5003 0.500003V6.17651V6.1822V8.75H13.2487C13.6629 8.75 13.9987 9.08579 13.9987 9.5C13.9987 9.91421 13.6629 10.25 13.2487 10.25H12.4381C12.3549 10.7459 12.1906 11.2142 11.9593 11.641L13.3357 12.3292C13.7062 12.5144 13.8564 12.9649 13.6711 13.3354C13.4859 13.7059 13.0354 13.8561 12.6649 13.6708L11.0115 12.8441C10.214 13.5626 9.15825 14 8.00031 14H6.00032C4.84239 14 3.78661 13.5626 2.98915 12.8441L1.33573 13.6708C0.965245 13.8561 0.51474 13.7059 0.329498 13.3354C0.144256 12.9649 0.294424 12.5144 0.664908 12.3292L2.0413 11.641C1.81002 11.2142 1.64573 10.7459 1.56254 10.25H0.751953C0.337739 10.25 0.00195312 9.91421 0.00195312 9.5C0.00195312 9.08579 0.337739 8.75 0.751953 8.75H1.50032V6.18221V0.500003C1.50032 0.310492 1.60746 0.137269 1.77703 0.0526343ZM9.1243 7.75C9.53852 7.75 9.8743 7.41421 9.8743 7C9.8743 6.58579 9.53852 6.25 9.1243 6.25C8.71009 6.25 8.3743 6.58579 8.3743 7C8.3743 7.41421 8.71009 7.75 9.1243 7.75ZM4.87431 7.75031C5.28852 7.75031 5.62431 7.41452 5.62431 7.00031C5.62431 6.58609 5.28852 6.25031 4.87431 6.25031C4.4601 6.25031 4.12431 6.58609 4.12431 7.00031C4.12431 7.41452 4.4601 7.75031 4.87431 7.75031ZM5.77178 9.35512C5.83563 9.14424 6.02999 9.00002 6.25032 9.00002H7.75032C7.97065 9.00002 8.16502 9.14424 8.22887 9.35512C8.29272 9.566 8.21099 9.79382 8.02767 9.91604L7.27767 10.416C7.10971 10.528 6.89092 10.528 6.72297 10.416L5.97297 9.91604C5.78964 9.79382 5.70793 9.566 5.77178 9.35512Z" fill="black"/>
</g>
<defs>
<clipPath id="clip0_1068_187236">
<rect width="14" height="14" fill="white"/>
</clipPath>
</defs>
</svg>
