<svg width="14" height="14" viewBox="0 0 14 14" fill="none" xmlns="http://www.w3.org/2000/svg">
<path fill-rule="evenodd" clip-rule="evenodd" d="M4.4563 0.00500488C4.04209 0.00500488 3.7063 0.340791 3.7063 0.755004C3.7063 1.16922 4.04209 1.50501 4.4563 1.50501H5.00001V4.41235C4.0344 4.83375 3.22346 5.55103 2.68729 6.46502C2.0905 7.48238 1.87256 8.67795 2.07202 9.84045C2.27147 11.003 2.87546 12.0575 3.77724 12.8178C4.67902 13.578 5.82053 13.995 7.00001 13.995C8.17949 13.995 9.321 13.578 10.2227 12.8178C11.1245 12.0575 11.7285 11.003 11.928 9.84045C12.1274 8.67795 11.9095 7.48238 11.3127 6.46502C10.7765 5.55103 9.96562 4.83375 9.00001 4.41235V1.50501H9.54365C9.95786 1.50501 10.2936 1.16922 10.2936 0.755004C10.2936 0.340791 9.95786 0.00500488 9.54365 0.00500488H4.4563Z" fill="black"/>
</svg>
