<svg width="14" height="14" viewBox="0 0 14 14" fill="none" xmlns="http://www.w3.org/2000/svg">
<path fill-rule="evenodd" clip-rule="evenodd" d="M2.19749 2.02196C2.06578 0.968282 2.88737 0.0375977 3.94925 0.0375977H9.77198C10.8339 0.0375977 11.6555 0.968282 11.5238 2.02196L10.7622 8.11434C10.6518 8.99779 9.90076 9.66076 9.01043 9.66076H7.49706V10.9651H8.21021C8.51356 10.9651 8.78704 11.1478 8.90312 11.4281C9.01921 11.7083 8.95504 12.0309 8.74054 12.2454L7.27954 13.7064C7.27216 13.7139 7.26463 13.7211 7.25696 13.7283C7.19406 13.7866 7.12359 13.8322 7.04887 13.8651C6.95652 13.9057 6.85443 13.9282 6.74706 13.9282C6.63646 13.9282 6.53144 13.9043 6.43692 13.8613C6.37192 13.8318 6.31026 13.7926 6.25416 13.7435C6.24 13.7312 6.2263 13.7183 6.2131 13.7049L4.7536 12.2454C4.5391 12.0309 4.47493 11.7083 4.59102 11.4281C4.7071 11.1478 4.98058 10.9651 5.28393 10.9651H5.99706V9.66076H4.7108C3.82047 9.66076 3.06947 8.99779 2.95904 8.11434L2.19749 2.02196ZM5.35032 5.21982C5.00851 5.29084 4.61151 5.33027 4.12001 5.30877L3.68591 1.83591C3.66611 1.67751 3.78962 1.5376 3.94925 1.5376H9.77198C9.93161 1.5376 10.0552 1.67751 10.0354 1.83591L9.74646 4.14683C9.15119 4.11271 8.65109 4.15363 8.20612 4.24263C7.59965 4.36392 7.1151 4.5716 6.6768 4.75945L6.66346 4.76517C6.22613 4.9526 5.8339 5.11934 5.35032 5.21982Z" fill="black"/>
</svg>
