<svg width="14" height="14" viewBox="0 0 14 14" fill="none" xmlns="http://www.w3.org/2000/svg">
<g clip-path="url(#clip0_1068_187212)">
<path fill-rule="evenodd" clip-rule="evenodd" d="M8.77828 0.217624C9.0723 0.509383 9.07413 0.984253 8.78238 1.27828L6.10602 3.97541C6.01485 4.04424 5.95593 4.15352 5.95593 4.27656C5.95593 4.48484 6.12478 4.65369 6.33306 4.65369C6.43826 4.65369 6.53339 4.61062 6.6018 4.54115L6.60293 4.54228L10.9255 0.21967C11.2184 -0.0732233 11.6933 -0.0732233 11.9862 0.21967C12.2791 0.512563 12.2791 0.987437 11.9862 1.28033L7.69802 5.56851C7.56412 5.65567 7.47559 5.80667 7.47559 5.97836C7.47559 6.24824 7.69437 6.46703 7.96426 6.46703C8.11824 6.46703 8.25559 6.39581 8.34516 6.28451L8.34661 6.28596L11.6823 2.95023C11.9752 2.65734 12.4501 2.65734 12.743 2.95023C13.0359 3.24312 13.0359 3.718 12.743 4.01089L9.40727 7.34662C9.33404 7.42101 9.28918 7.52342 9.28918 7.63605C9.28918 7.86366 9.4737 8.04817 9.70131 8.04817C9.82647 8.04817 9.9386 7.99238 10.0142 7.90431L12.7217 5.21762C13.0157 4.92586 13.4906 4.9277 13.7824 5.22172C14.0741 5.51575 14.0723 5.99062 13.7783 6.28238L10.5186 9.51692L10.5157 9.51982L7.2552 12.7552L7.25409 12.7563C5.59427 14.4149 2.90415 14.4146 1.2448 12.7552C1.08928 12.5997 0.948333 12.4351 0.821958 12.2632C0.611232 11.9765 0.441024 11.6693 0.311334 11.3496C-0.311064 9.81515 -0.000269413 7.99073 1.24372 6.74587L1.2448 6.74479L4.48019 3.4843L7.71762 0.221724C8.00938 -0.0722994 8.48425 -0.0741348 8.77828 0.217624ZM6.36397 9.75001C6.36397 10.9175 5.41752 11.864 4.25001 11.864C3.0825 11.864 2.13605 10.9175 2.13605 9.75001C2.13605 8.5825 3.0825 7.63605 4.25001 7.63605C5.41752 7.63605 6.36397 8.5825 6.36397 9.75001Z" fill="black"/>
</g>
<defs>
<clipPath id="clip0_1068_187212">
<rect width="14" height="14" fill="white"/>
</clipPath>
</defs>
</svg>
