<svg width="14" height="14" viewBox="0 0 14 14" fill="none" xmlns="http://www.w3.org/2000/svg">
<g clip-path="url(#clip0_1068_187230)">
<path fill-rule="evenodd" clip-rule="evenodd" d="M10.3264 0.279772C10.4334 0.1082 10.6333 0.0180095 10.8328 0.051256L13.4043 0.479838C13.5351 0.501638 13.6518 0.574508 13.7289 0.682416C13.806 0.790323 13.837 0.92443 13.8152 1.05524L13.3867 3.62672C13.3534 3.8262 13.2033 3.98601 13.0063 4.03164C12.8092 4.07726 12.6041 3.99971 12.4866 3.83514L11.7931 2.86431L8.21889 5.14919C7.90365 5.35071 7.48811 5.28907 7.24494 5.00473L5.2522 2.67457L1.52455 4.58981C1.15612 4.77911 0.703995 4.6339 0.514699 4.26547C0.325403 3.89704 0.470619 3.44491 0.839048 3.25562L5.09408 1.06941C5.4032 0.910585 5.78094 0.984932 6.00682 1.24906L7.9608 3.53388L10.9201 1.64209L10.3437 0.835072C10.2261 0.67051 10.2193 0.451344 10.3264 0.279772ZM3.78104 5.19029L0.878725 6.84876C0.645044 6.98229 0.500829 7.2308 0.500829 7.49994V13.2499C0.500829 13.6641 0.836616 13.9999 1.25083 13.9999H3.78104V5.19029ZM5.03104 13.9999H8.69846V7.1876L7.05 8.01183L5.40201 5.12784C5.31486 4.97532 5.18227 4.86502 5.03104 4.80422V13.9999ZM12.7508 13.9999H9.94846V6.5626L12.4154 5.32912C12.6479 5.21287 12.924 5.2253 13.1451 5.36195C13.3662 5.49861 13.5008 5.74001 13.5008 5.99994V13.2499C13.5008 13.6641 13.165 13.9999 12.7508 13.9999Z" fill="black"/>
</g>
<defs>
<clipPath id="clip0_1068_187230">
<rect width="14" height="14" fill="white"/>
</clipPath>
</defs>
</svg>
