<svg width="14" height="14" viewBox="0 0 14 14" fill="none" xmlns="http://www.w3.org/2000/svg">
<g clip-path="url(#clip0_1068_187218)">
<path fill-rule="evenodd" clip-rule="evenodd" d="M10.5622 1.0652C10.7057 0.676641 10.5071 0.245321 10.1185 0.101824C9.72993 -0.041674 9.29861 0.156992 9.15511 0.545555C8.70181 1.773 8.72968 3.1265 9.23311 4.33425L9.2339 4.33613C9.52175 5.02141 9.59991 5.77666 9.45849 6.50637C9.36551 6.98618 9.18033 7.44077 8.91571 7.84601L6.13784 5.06813C6.54629 4.80374 7.00353 4.61838 7.48586 4.52457C7.89246 4.44549 8.15796 4.05177 8.07887 3.64517C7.99979 3.23858 7.60607 2.97308 7.19948 3.05216C6.16744 3.25289 5.21794 3.75466 4.47065 4.49423L4.46456 4.50032C3.73428 5.23985 3.2391 6.17889 3.04136 7.19924C2.93239 7.76153 2.91643 8.33467 2.9912 8.8964C2.17547 8.78449 1.33767 8.86948 0.550251 9.15371C0.160642 9.29434 -0.0411913 9.72419 0.0994429 10.1138C0.240077 10.5034 0.669924 10.7053 1.05953 10.5646C1.8399 10.283 2.69016 10.2777 3.46961 10.5444C3.72263 11.3225 3.71218 12.1659 3.43436 12.942C3.29477 13.332 3.49774 13.7613 3.88772 13.9009C4.2777 14.0405 4.70701 13.8376 4.84661 13.4476C5.28819 12.214 5.24877 10.8594 4.73626 9.65354C4.45001 8.96829 4.37267 8.21372 4.51396 7.48462C4.60866 6.99601 4.79871 6.53347 5.07075 6.12236L7.85747 8.90908C7.44019 9.18547 6.97072 9.37886 6.47469 9.47568C6.06815 9.55503 5.80291 9.94892 5.88225 10.3555C5.9616 10.762 6.3555 11.0273 6.76204 10.9479C7.79878 10.7456 8.7521 10.24 9.50116 9.49517L9.50526 9.49105C10.237 8.7521 10.7332 7.81273 10.9311 6.79175C11.0395 6.23217 11.0557 5.66185 10.9818 5.10279C11.8059 5.21735 12.6524 5.13273 13.448 4.84677C13.8378 4.70668 14.0402 4.27711 13.9001 3.8873C13.76 3.4975 13.3304 3.29508 12.9406 3.43518C12.1526 3.7184 11.2944 3.72365 10.507 3.45507C10.2599 2.67742 10.2775 1.83631 10.5622 1.0652Z" fill="black"/>
</g>
<defs>
<clipPath id="clip0_1068_187218">
<rect width="14" height="14" fill="white"/>
</clipPath>
</defs>
</svg>
