<svg width="14" height="14" viewBox="0 0 14 14" fill="none" xmlns="http://www.w3.org/2000/svg">
<g clip-path="url(#clip0_1068_187233)">
<path fill-rule="evenodd" clip-rule="evenodd" d="M4.82227 1.11219C5.39989 0.534582 6.1833 0.210083 7.00016 0.210083C7.81703 0.210083 8.60044 0.534582 9.17805 1.11219C9.73272 1.66686 10.054 2.4113 10.0787 3.19291C10.8227 2.97846 11.622 3.05284 12.3152 3.40376C13.0409 3.77106 13.5911 4.41129 13.8452 5.1839L13.3702 5.34008L13.8456 5.1851C13.9702 5.56751 14.018 5.97081 13.9862 6.37178C13.9544 6.77274 13.8436 7.16346 13.6602 7.52142C13.4767 7.87939 13.2243 8.19754 12.9174 8.45755C12.6412 8.69161 12.3257 8.8744 11.986 8.99766C12.1866 9.2961 12.3329 9.62806 12.4177 9.97821C12.5124 10.3695 12.5285 10.7756 12.4651 11.1731C12.4016 11.5706 12.2598 11.9515 12.048 12.2938C11.8363 12.6357 11.559 12.9322 11.232 13.1661C10.5726 13.6423 9.75193 13.8392 8.9482 13.7142C8.18044 13.5947 7.48725 13.1907 7.00517 12.5848C6.52308 13.1907 5.82989 13.5947 5.06212 13.7142C4.2584 13.8392 3.43781 13.6423 2.77837 13.1662C2.45136 12.9322 2.174 12.6357 1.96237 12.2938C1.75052 11.9515 1.60875 11.5706 1.54529 11.1731C1.48182 10.7756 1.49793 10.3695 1.59267 9.97821C1.67724 9.62898 1.82298 9.29785 2.0228 9.00002C1.67968 8.87442 1.36153 8.68831 1.08358 8.45024C0.77824 8.1887 0.5274 7.86958 0.345386 7.5111C0.163371 7.15262 0.0537472 6.7618 0.022772 6.36095C-0.00820325 5.96011 0.0400774 5.55709 0.164857 5.1749C0.289637 4.79271 0.488472 4.43884 0.75001 4.1335C1.01155 3.82816 1.33066 3.57732 1.68914 3.3953C2.04762 3.21329 2.43844 3.10366 2.83929 3.07269C3.20418 3.04449 3.57088 3.08197 3.92202 3.18305C3.94905 2.40504 4.26994 1.66453 4.82227 1.11219ZM9.20519 7.26008C9.20519 8.46974 8.21799 9.45036 7.00021 9.45036C5.78243 9.45036 4.79522 8.46974 4.79522 7.26008C4.79522 6.05042 5.78243 5.06979 7.00021 5.06979C8.21799 5.06979 9.20519 6.05042 9.20519 7.26008Z" fill="black"/>
</g>
<defs>
<clipPath id="clip0_1068_187233">
<rect width="14" height="14" fill="white"/>
</clipPath>
</defs>
</svg>
