<svg width="14" height="14" viewBox="0 0 14 14" fill="none" xmlns="http://www.w3.org/2000/svg">
<path fill-rule="evenodd" clip-rule="evenodd" d="M12.5556 2.34997C13.3041 2.86398 13.8725 3.62848 13.8725 4.64996C13.8725 6.14823 12.9737 7.41067 11.7247 8.26522C10.471 9.12302 8.79239 9.63001 7.01238 9.63001H7.01121L7.00014 9.63004C5.54762 9.63004 4.37012 8.45254 4.37012 7.00002C4.37012 6.76026 4.4022 6.52801 4.4623 6.3073C3.97362 6.48507 3.52996 6.71081 3.14713 6.97275C2.16356 7.64572 1.65235 8.49831 1.65235 9.35005C1.65235 9.73859 1.84774 10.0904 2.31834 10.4135C2.80386 10.747 3.5222 10.9991 4.37055 11.1359C5.20987 11.2713 6.12314 11.2851 6.95834 11.1832C7.80382 11.0801 8.51225 10.8655 8.97656 10.5869C9.33175 10.3738 9.79245 10.489 10.0056 10.8442C10.2187 11.1994 10.1035 11.6601 9.74831 11.8732C9.03761 12.2996 8.10102 12.555 7.13992 12.6722C6.16854 12.7907 5.11367 12.7751 4.13171 12.6168C3.15879 12.4598 2.20275 12.1538 1.46918 11.65C0.720708 11.136 0.152344 10.3715 0.152344 9.35005C0.152344 7.85177 1.05115 6.58934 2.3001 5.73479C3.5476 4.88123 5.2158 4.37502 6.986 4.37003C6.99071 4.37001 6.99542 4.36999 7.00014 4.36999L7.00532 4.37C7.00768 4.37 7.01005 4.36999 7.01241 4.36999C7.01711 4.36999 7.02179 4.37004 7.02647 4.37012C8.46686 4.38425 9.63016 5.55628 9.63016 7.00002C9.63016 7.24332 9.59712 7.47891 9.53528 7.70254C10.0347 7.52329 10.4878 7.29406 10.8777 7.02726C11.8613 6.35429 12.3725 5.5017 12.3725 4.64996C12.3725 4.26141 12.1771 3.90965 11.7065 3.58647C11.221 3.25304 10.5026 3.00094 9.65424 2.86411C8.81493 2.72874 7.90165 2.71491 7.06645 2.81677C6.22097 2.91987 5.51254 3.13448 5.04823 3.41307C4.69304 3.62618 4.23235 3.511 4.01924 3.15582C3.80613 2.80063 3.9213 2.33994 4.27648 2.12683C4.98719 1.70041 5.92377 1.44501 6.88487 1.3278C7.85625 1.20933 8.91113 1.22487 9.89308 1.38325C10.866 1.54017 11.8221 1.8462 12.5556 2.34997ZM6.99196 5.87002C6.99582 5.87001 6.99968 5.87 7.00353 5.87C7.62607 5.87183 8.13016 6.37705 8.13016 7.00002C8.13016 7.62411 7.62423 8.13004 7.00014 8.13004C6.37605 8.13004 5.87012 7.62411 5.87012 7.00002C5.87012 6.37865 6.37163 5.87442 6.99196 5.87002Z" fill="black"/>
</svg>
