<svg width="14" height="14" viewBox="0 0 14 14" fill="none" xmlns="http://www.w3.org/2000/svg">
<g clip-path="url(#clip0_1068_187227)">
<path fill-rule="evenodd" clip-rule="evenodd" d="M7.55707 0.198018C7.19835 -0.00908844 6.73965 0.113818 6.53255 0.472537C6.32544 0.831257 6.44835 1.28995 6.80707 1.49706C8.05631 2.21831 8.69582 3.47473 8.72478 4.84392C7.01067 2.66323 4.05647 1.57533 1.38763 3.11618C1.02891 3.32328 0.906009 3.78198 1.11311 4.1407C1.32022 4.49942 1.77891 4.62232 2.13763 4.41522C3.38865 3.69294 4.79873 3.76855 6.00008 4.43067C3.26104 4.83111 0.830078 6.84049 0.830078 9.91816C0.830078 10.3324 1.16586 10.6682 1.58008 10.6682C1.99429 10.6682 2.33008 10.3324 2.33008 9.91816C2.33008 8.484 3.09939 7.30529 4.26936 6.5939C3.25357 9.16366 3.78098 12.2657 6.44182 13.802C6.80054 14.0091 7.25924 13.8862 7.46634 13.5275C7.67345 13.1687 7.55054 12.71 7.19182 12.5029C5.94972 11.7858 5.31359 10.5301 5.28256 9.16107C7.00012 11.3258 9.95039 12.4202 12.6113 10.8839C12.97 10.6768 13.0929 10.2181 12.8858 9.85936C12.6787 9.50064 12.22 9.37773 11.8613 9.58484C10.621 10.3009 9.21765 10.2252 8.01766 9.57018C10.7576 9.17138 13.1689 7.15848 13.1689 4.08185C13.1689 3.66764 12.8331 3.33185 12.4189 3.33185C12.0047 3.33185 11.6689 3.66764 11.6689 4.08185C11.6689 5.52434 10.9006 6.70637 9.72937 7.41605C10.7608 4.84124 10.2259 1.73887 7.55707 0.198018ZM6.9995 8.00133C7.55252 8.00133 8.00084 7.55301 8.00084 6.99999C8.00084 6.44697 7.55252 5.99866 6.9995 5.99866C6.44648 5.99866 5.99817 6.44697 5.99817 6.99999C5.99817 7.55301 6.44648 8.00133 6.9995 8.00133Z" fill="black"/>
</g>
<defs>
<clipPath id="clip0_1068_187227">
<rect width="14" height="14" fill="white"/>
</clipPath>
</defs>
</svg>
