<svg width="14" height="14" viewBox="0 0 14 14" fill="none" xmlns="http://www.w3.org/2000/svg">
<path fill-rule="evenodd" clip-rule="evenodd" d="M8.33423 0.764404C8.33423 0.350191 8.67002 0.0144043 9.08423 0.0144043H11.756C12.1703 0.0144043 12.5066 0.350191 12.5066 0.764404V3.43679C12.5066 3.85101 12.1709 4.18679 11.7566 4.18679C11.3424 4.18679 11.0066 3.85101 11.0066 3.43679V2.57388L9.61568 3.96421C10.0271 4.57742 10.267 5.31526 10.267 6.10914C10.267 7.98167 8.93197 9.54239 7.16181 9.89141V10.7038H8.1935C8.60771 10.7038 8.9435 11.0396 8.9435 11.4538C8.9435 11.8681 8.60771 12.2038 8.1935 12.2038H7.16181V13.2354C7.16181 13.6497 6.82602 13.9854 6.41181 13.9854C5.99759 13.9854 5.66181 13.6497 5.66181 13.2354V12.2038H4.63031C4.2161 12.2038 3.88031 11.8681 3.88031 11.4538C3.88031 11.0396 4.2161 10.7038 4.63031 10.7038H5.66181V9.89141C3.89166 9.54238 2.55664 7.98166 2.55664 6.10914C2.55664 3.97999 4.28266 2.25397 6.41182 2.25397C7.2048 2.25397 7.94187 2.49339 8.55468 2.90389L9.94477 1.51441H9.08423C8.67002 1.51441 8.33423 1.17862 8.33423 0.764404ZM4.44678 4.96213C4.44678 4.61695 4.7266 4.33713 5.07178 4.33713H7.75196C8.09714 4.33713 8.37696 4.61695 8.37696 4.96213C8.37696 5.30731 8.09714 5.58713 7.75196 5.58713H5.07178C4.7266 5.58713 4.44678 5.30731 4.44678 4.96213ZM5.07178 6.63118C4.7266 6.63118 4.44678 6.91101 4.44678 7.25618C4.44678 7.60136 4.7266 7.88118 5.07178 7.88118H7.75196C8.09714 7.88118 8.37696 7.60136 8.37696 7.25618C8.37696 6.91101 8.09714 6.63118 7.75196 6.63118H5.07178Z" fill="black"/>
</svg>
