<svg width="14" height="14" viewBox="0 0 14 14" fill="none" xmlns="http://www.w3.org/2000/svg">
<path fill-rule="evenodd" clip-rule="evenodd" d="M9.50968 1.37401C9.37731 1.14522 9.13425 1.00301 8.86995 0.999693C8.60564 0.996373 8.35909 1.13243 8.221 1.35782L4.27969 7.79091L2.90424 5.71094C2.76537 5.50095 2.53041 5.37463 2.27865 5.37463H0.759765C0.345552 5.37463 0.00976562 5.71042 0.00976562 6.12463C0.00976562 6.53885 0.345552 6.87463 0.759765 6.87463H1.87546L3.67826 9.60083C3.81966 9.81466 4.06049 9.94145 4.31682 9.93702C4.57314 9.93259 4.80944 9.79754 4.94336 9.57894L8.84211 3.21533L10.2365 5.62525C10.444 5.98378 10.9028 6.10624 11.2613 5.89879C11.6198 5.69134 11.7423 5.23253 11.5348 4.87401L9.50968 1.37401ZM10.3281 8.3386C9.87463 7.93844 9.39092 7.72142 8.90582 7.68203C8.28556 7.63167 7.73835 7.87858 7.34746 8.26364C6.58787 9.01192 6.33536 10.3949 7.30559 11.3599C7.31091 11.3652 7.31635 11.3704 7.3219 11.3754L9.98442 13.7952C10.1751 13.9685 10.4663 13.9685 10.6569 13.7952L13.3195 11.3754L13.3301 11.3655C14.3076 10.4236 14.0653 9.04796 13.3128 8.29957C12.9253 7.9141 12.3812 7.66485 11.7613 7.70724C11.2765 7.74039 10.7893 7.94839 10.3281 8.3386Z" fill="black"/>
</svg>
