<svg width="14" height="14" viewBox="0 0 14 14" fill="none" xmlns="http://www.w3.org/2000/svg">
<g clip-path="url(#clip0_1068_187248)">
<path fill-rule="evenodd" clip-rule="evenodd" d="M7.20782 0.478305C7.07618 0.418364 6.92504 0.418364 6.79341 0.478305L4.1714 1.67224L6.99873 2.95968L9.82794 1.67139L7.20782 0.478305ZM3.69976 5.60974V2.55627L6.49873 3.8308V7.20598L3.99255 6.06478C3.81422 5.98358 3.69976 5.80569 3.69976 5.60974ZM7.49873 12.3221V8.9818L10.1514 10.1897V13.565L7.64531 12.4238C7.58974 12.3985 7.54037 12.3638 7.49873 12.3221ZM11.1514 13.5667V10.1897L13.9542 8.91351V11.9687C13.9542 12.1647 13.8397 12.3426 13.6614 12.4238L11.1514 13.5667ZM6.49873 8.98174V12.3257C6.45787 12.3658 6.40975 12.3992 6.35579 12.4238L3.84585 13.5667V10.1897L6.49873 8.98174ZM2.84585 10.1897V13.565L0.339669 12.4238C0.161336 12.3426 0.046875 12.1647 0.046875 11.9687V8.91522L2.84585 10.1897ZM7.49873 7.20769V3.8308L10.3014 2.55456V5.60974C10.3014 5.80569 10.187 5.98358 10.0086 6.06478L7.49873 7.20769ZM10.4461 6.83728C10.5777 6.77734 10.7289 6.77734 10.8605 6.83728L13.4806 8.03035L10.6514 9.31862L7.82419 8.0312L10.4461 6.83728ZM3.14052 6.83728C3.27216 6.77734 3.4233 6.77734 3.55494 6.83728L6.17503 8.03035L3.34585 9.31862L0.518552 8.0312L3.14052 6.83728Z" fill="black"/>
</g>
<defs>
<clipPath id="clip0_1068_187248">
<rect width="14" height="14" fill="white"/>
</clipPath>
</defs>
</svg>
