<svg width="14" height="14" viewBox="0 0 14 14" fill="none" xmlns="http://www.w3.org/2000/svg">
<g clip-path="url(#clip0_1068_187251)">
<path fill-rule="evenodd" clip-rule="evenodd" d="M3.15685 0.0915544C2.93313 0.0107834 2.69371 -0.0174812 2.45714 0.00906586C2.21332 0.0364279 1.97944 0.121241 1.77478 0.256565C1.57011 0.39189 1.40049 0.573871 1.27992 0.787564C1.16095 0.99842 1.09312 1.23418 1.08182 1.47593C0.99584 2.60687 0.932317 4.36216 1.13404 6.17938C1.33474 7.98734 1.80438 9.92045 2.83206 11.3525C3.89721 12.8962 5.41784 13.582 6.83178 13.8496C8.23632 14.1153 9.56414 13.9755 10.3205 13.8457C10.5303 13.8138 10.733 13.7474 10.9204 13.6497C9.79127 10.6278 7.67209 7.30438 4.53828 4.41689C4.28443 4.18299 4.26825 3.78759 4.50215 3.53374C4.73605 3.27989 5.13144 3.26372 5.38529 3.49762C8.45694 6.32783 10.6125 9.57288 11.8581 12.6165C12.2291 11.9317 12.6929 10.9003 12.8963 9.71063C13.1372 8.30156 13.0152 6.64642 11.9189 5.10219C10.9063 3.67137 9.22616 2.57497 7.57745 1.76616C5.92605 0.956028 4.24696 0.406238 3.15685 0.0915544Z" fill="black"/>
</g>
<defs>
<clipPath id="clip0_1068_187251">
<rect width="14" height="14" fill="white"/>
</clipPath>
</defs>
</svg>
