<svg width="14" height="14" viewBox="0 0 14 14" fill="none" xmlns="http://www.w3.org/2000/svg">
<path fill-rule="evenodd" clip-rule="evenodd" d="M6.03033 1.96967C5.73744 1.67678 5.26256 1.67678 4.96967 1.96967C4.67678 2.26256 4.67678 2.73744 4.96967 3.03033L5.93934 4H4.14636C4.29814 4.20783 4.42591 4.42362 4.53048 4.63114C4.99749 5.55785 5.25 6.75072 5.25 8C5.25 8.29576 5.23585 8.58835 5.20805 8.875H7C7.34518 8.875 7.625 9.15482 7.625 9.5C7.625 9.84518 7.34518 10.125 7 10.125H4.99005C4.87377 10.574 4.71974 10.9933 4.53048 11.3689C4.42591 11.5764 4.29814 11.7922 4.14636 12H11.5C12.3091 12 12.944 11.4306 13.3483 10.7229C13.7608 10.0012 14 9.03739 14 8C14 7.87381 13.9965 7.74871 13.9895 7.625H8.5C8.15482 7.625 7.875 7.34518 7.875 7C7.875 6.65482 8.15482 6.375 8.5 6.375H13.7917C13.6825 5.97069 13.5327 5.5997 13.3483 5.27706C12.944 4.56941 12.3091 4 11.5 4H8.05904C8.04981 3.98969 8.04024 3.97958 8.03033 3.96967L6.03033 1.96967ZM2 11.9688C3.10457 11.9688 4 10.1919 4 8C4 5.80812 3.10457 4.03125 2 4.03125C0.895431 4.03125 0 5.80812 0 8C0 10.1919 0.895431 11.9688 2 11.9688Z" fill="black"/>
</svg>
