<svg width="14" height="14" viewBox="0 0 14 14" fill="none" xmlns="http://www.w3.org/2000/svg">
<path fill-rule="evenodd" clip-rule="evenodd" d="M3.16481 4.46169C4.11216 4.46169 4.88015 3.69371 4.88015 2.74635C4.88015 1.79899 4.11216 1.03101 3.16481 1.03101C2.21745 1.03101 1.44946 1.79899 1.44946 2.74635C1.44946 3.69371 2.21745 4.46169 3.16481 4.46169ZM10.837 4.46169C11.7843 4.46169 12.5523 3.69371 12.5523 2.74635C12.5523 1.79899 11.7843 1.03101 10.837 1.03101C9.88957 1.03101 9.12158 1.79899 9.12158 2.74635C9.12158 3.69371 9.88957 4.46169 10.837 4.46169ZM10.837 4.81936C10.1207 4.81936 9.46154 5.06445 8.93899 5.47534C9.5681 6.0191 9.9662 6.82291 9.9662 7.71971C9.9662 7.95107 9.9397 8.17625 9.88958 8.39237H13.41C13.6861 8.39237 13.91 8.16852 13.91 7.89237C13.91 6.1952 12.5342 4.81936 10.837 4.81936ZM3.16481 4.81936C3.88112 4.81936 4.54019 5.06445 5.06273 5.47533C4.43362 6.01909 4.03552 6.82291 4.03552 7.71971C4.03552 7.95107 4.06202 8.17625 4.11214 8.39237H0.591797C0.315655 8.39237 0.0917969 8.16852 0.0917969 7.89237C0.0917969 6.1952 1.46763 4.81936 3.16481 4.81936ZM7.00086 9.43505C7.94822 9.43505 8.7162 8.66706 8.7162 7.71971C8.7162 6.77235 7.94822 6.00436 7.00086 6.00436C6.0535 6.00436 5.28552 6.77235 5.28552 7.71971C5.28552 8.66706 6.0535 9.43505 7.00086 9.43505ZM3.92785 12.8658C3.92785 11.1686 5.30369 9.79273 7.00086 9.79273C8.69804 9.79273 10.0739 11.1686 10.0739 12.8658C10.0739 13.1419 9.85003 13.3658 9.57388 13.3658H4.42785C4.15171 13.3658 3.92785 13.1419 3.92785 12.8658Z" fill="black"/>
</svg>
