<svg width="14" height="14" viewBox="0 0 14 14" fill="none" xmlns="http://www.w3.org/2000/svg">
<g clip-path="url(#clip0_1068_187302)">
<path fill-rule="evenodd" clip-rule="evenodd" d="M7.00001 0C4.51474 0 2.5 2.01472 2.5 4.5C2.5 5.8441 3.08991 7.05104 4.02331 7.87487C4.35989 8.17194 4.5507 8.5341 4.57275 8.89877C4.59421 9.25375 4.4604 9.68667 4.00062 10.1464C3.44301 10.7041 2.65165 10.9027 2.02349 10.7688C1.71449 10.7029 1.46209 10.5609 1.28877 10.362C1.11931 10.1675 1 9.88996 1 9.5C1 9.22386 0.776142 9 0.5 9C0.223858 9 0 9.22386 0 9.5V10.3281C0 11.1721 0.298741 11.9464 0.79625 12.5508C0.89824 12.5769 0.994923 12.6292 1.07568 12.7075L1.07929 12.7107C1.08628 12.7168 1.1012 12.7295 1.12402 12.7466C1.16975 12.7809 1.24639 12.8326 1.35373 12.8863C1.56636 12.9926 1.90485 13.1094 2.375 13.1094C3.88043 13.1094 4.89999 11.8692 5.33798 10.7689C5.46564 10.4482 5.8291 10.2917 6.14981 10.4193C6.47051 10.547 6.62701 10.9104 6.49936 11.2311C6.15841 12.0877 5.4513 13.1868 4.34997 13.8281H9.65003C8.54869 13.1868 7.84157 12.0877 7.50063 11.2311C7.37298 10.9104 7.52948 10.5469 7.85018 10.4193C8.17089 10.2916 8.53436 10.4481 8.66201 10.7688C9.09999 11.8692 10.1196 13.1094 11.625 13.1094C12.0951 13.1094 12.4336 12.9926 12.6463 12.8863C12.7536 12.8326 12.8302 12.7809 12.876 12.7466C12.8988 12.7295 12.9137 12.7168 12.9207 12.7107L12.9243 12.7075C13.0051 12.6292 13.1018 12.5769 13.2038 12.5508C13.7013 11.9464 14 11.1721 14 10.3281V9.5C14 9.22386 13.7762 9 13.5 9C13.2239 9 13 9.22386 13 9.5C13 9.88996 12.8807 10.1675 12.7112 10.362C12.5379 10.5609 12.2855 10.7029 11.9765 10.7688C11.3484 10.9027 10.557 10.7041 9.99939 10.1464C9.53961 9.68667 9.40581 9.25375 9.42727 8.89877C9.44931 8.5341 9.64013 8.17194 9.97671 7.87487C10.9101 7.05104 11.5 5.8441 11.5 4.5C11.5 2.01472 9.4853 0 7.00001 0ZM6.03604 5.25001C6.03604 5.68416 5.6841 6.0361 5.24995 6.0361C4.81581 6.0361 4.46387 5.68416 4.46387 5.25001C4.46387 4.81587 4.81581 4.46393 5.24995 4.46393C5.6841 4.46393 6.03604 4.81587 6.03604 5.25001ZM8.74995 6.0361C9.1841 6.0361 9.53604 5.68416 9.53604 5.25001C9.53604 4.81587 9.1841 4.46393 8.74995 4.46393C8.31581 4.46393 7.96387 4.81587 7.96387 5.25001C7.96387 5.68416 8.31581 6.0361 8.74995 6.0361Z" fill="black"/>
</g>
<defs>
<clipPath id="clip0_1068_187302">
<rect width="14" height="14" fill="white"/>
</clipPath>
</defs>
</svg>
