<svg width="14" height="14" viewBox="0 0 14 14" fill="none" xmlns="http://www.w3.org/2000/svg">
<g clip-path="url(#clip0_1068_187281)">
<path fill-rule="evenodd" clip-rule="evenodd" d="M12.3683 0.0111646C12.7695 0.0230098 13.1986 0.141782 13.5286 0.475697C14.0357 0.984724 14.0469 1.70273 13.9308 2.2934C13.8092 2.91276 13.5098 3.61448 13.1011 4.34351C12.8833 4.73198 12.6281 5.13951 12.3395 5.56013C12.4961 6.14714 12.5549 6.75815 12.5115 7.3684C12.446 8.28777 12.1506 9.17594 11.6523 9.95132C11.154 10.7267 10.4688 11.3644 9.65975 11.8058C8.44214 12.4702 6.99102 12.6476 5.64869 12.306C5.20305 12.614 4.77092 12.8844 4.35955 13.1128C3.62658 13.5197 2.92072 13.815 2.29809 13.9329C1.70412 14.0455 0.984992 14.0294 0.477803 13.5222C0.143989 13.1884 0.0235375 12.7543 0.0109258 12.3458C-0.0015355 11.9423 0.087348 11.5091 0.231342 11.0768C0.501743 10.2651 1.01231 9.32269 1.69234 8.33512C1.54823 7.76924 1.49401 7.17963 1.53606 6.58791C1.62991 5.26731 2.19698 4.02488 3.13314 3.08872C4.0693 2.15256 5.31173 1.58549 6.63234 1.49164C7.23123 1.44908 7.82798 1.50514 8.40014 1.65321C9.38533 0.99899 10.325 0.494059 11.1302 0.22696C11.5495 0.0878837 11.9726 -0.000517708 12.3683 0.0111646ZM10.0529 2.38818C10.1443 2.44854 10.2341 2.51176 10.3222 2.5778L10.3251 2.58L10.7764 2.92362C10.017 4.2085 8.8018 5.7527 7.28571 7.28662C5.79576 8.7941 4.27869 9.99472 3.00406 10.7514L2.63313 10.2918C2.62941 10.2872 2.62578 10.2825 2.62223 10.2778C2.54952 10.1808 2.48024 10.0818 2.41444 9.98085C2.05654 10.5769 1.80177 11.1087 1.65446 11.5509C1.54205 11.8883 1.50516 12.1357 1.51021 12.2995C1.5133 12.3994 1.53037 12.4444 1.53843 12.4599C1.56129 12.4721 1.68028 12.5233 2.01894 12.4592C2.42021 12.3831 2.96712 12.1701 3.63147 11.8013C3.99564 11.5991 4.38351 11.3567 4.78795 11.0775C5.87653 10.3048 7.04061 9.31281 8.17475 8.16532C9.30956 7.01716 10.2978 5.84753 11.0704 4.75835C11.3481 4.35629 11.5901 3.9713 11.7926 3.61006C12.1645 2.94659 12.3807 2.40277 12.459 2.00425C12.5245 1.67083 12.475 1.55472 12.4634 1.53301C12.4487 1.52621 12.4087 1.51301 12.324 1.51051C12.1689 1.50593 11.9313 1.5416 11.6025 1.65067C11.1675 1.79496 10.6433 2.04365 10.0529 2.38818Z" fill="black"/>
</g>
<defs>
<clipPath id="clip0_1068_187281">
<rect width="14" height="14" fill="white"/>
</clipPath>
</defs>
</svg>
