<svg width="14" height="14" viewBox="0 0 14 14" fill="none" xmlns="http://www.w3.org/2000/svg">
<g clip-path="url(#clip0_1068_187278)">
<path fill-rule="evenodd" clip-rule="evenodd" d="M3.24904 0.067545C3.40319 -0.021916 3.59332 -0.022551 3.74807 0.0658784L7 1.92412L10.2519 0.0658784C10.4067 -0.022551 10.5968 -0.021916 10.751 0.067545C10.9051 0.157006 11 0.321765 11 0.5V4C11 5.95279 9.60065 7.57875 7.75 7.9298V11.0156C8.29971 10.3928 9.10398 10 10 10H12C12.2761 10 12.5 10.2239 12.5 10.5V11C12.5 12.6569 11.1569 14 9.5 14H7H4.5C2.84315 14 1.5 12.6569 1.5 11V10.5C1.5 10.2239 1.72386 10 2 10H4C4.89602 10 5.70029 10.3928 6.25 11.0156V7.9298C4.39935 7.57875 3 5.95279 3 4V0.5C3 0.321765 3.09488 0.157006 3.24904 0.067545Z" fill="black"/>
</g>
<defs>
<clipPath id="clip0_1068_187278">
<rect width="14" height="14" fill="white"/>
</clipPath>
</defs>
</svg>
