<svg width="14" height="14" viewBox="0 0 14 14" fill="none" xmlns="http://www.w3.org/2000/svg">
<g clip-path="url(#clip0_1068_187293)">
<path fill-rule="evenodd" clip-rule="evenodd" d="M3.09498 0.577313L9.00513 0.573653V2.87686L3.09597 2.88052C2.82883 2.88068 2.56867 2.79526 2.35362 2.63678L1.39508 1.93037C1.33114 1.88325 1.2934 1.80855 1.2934 1.72912C1.2934 1.64969 1.33114 1.57499 1.39508 1.52787L2.35417 0.821052C2.5688 0.662882 2.82837 0.577478 3.09498 0.577313ZM11.4386 2.87535L10.2551 2.87608V0.572879L11.4383 0.572146L11.4424 0.572144C12.0763 0.582116 12.5609 1.14647 12.5609 1.72375C12.5609 2.30103 12.0763 2.86535 11.4424 2.87532L11.4386 2.87535ZM5.50738 5.18459C5.84272 5.31908 6.12829 5.46606 6.37427 5.61196V13.9999C6.05399 13.7665 5.67613 13.5178 5.13514 13.3008C4.39991 13.006 3.33983 12.7627 1.72266 12.7627C1.59005 12.7627 1.46287 12.71 1.3691 12.6163C1.27533 12.5225 1.22266 12.3953 1.22266 12.2627V5.07461C1.22266 4.79847 1.44651 4.57461 1.72266 4.57461C3.44212 4.57461 4.63242 4.83367 5.50738 5.18459ZM8.8637 13.3008C8.32253 13.5179 7.94461 13.7666 7.62427 14.0001V5.61214C7.87032 5.46619 8.15598 5.31914 8.49146 5.18459C9.36642 4.83367 10.5567 4.57461 12.2762 4.57461C12.5523 4.57461 12.7762 4.79847 12.7762 5.07461V12.2627C12.7762 12.3953 12.7235 12.5225 12.6297 12.6163C12.5359 12.71 12.4088 12.7627 12.2762 12.7627C10.659 12.7627 9.59893 13.006 8.8637 13.3008Z" fill="black"/>
</g>
<defs>
<clipPath id="clip0_1068_187293">
<rect width="14" height="14" fill="white"/>
</clipPath>
</defs>
</svg>
