<svg width="14" height="14" viewBox="0 0 14 14" fill="none" xmlns="http://www.w3.org/2000/svg">
<path fill-rule="evenodd" clip-rule="evenodd" d="M7.0001 4.63171C5.54501 4.63171 4.14951 5.20975 3.12061 6.23865C2.0917 7.26756 1.51367 8.66305 1.51367 10.1181C1.51367 10.5323 1.17788 10.8681 0.763672 10.8681C0.349458 10.8681 0.0136719 10.5323 0.0136719 10.1181C0.0136719 8.26523 0.74974 6.4882 2.05995 5.17799C3.37016 3.86778 5.14718 3.13171 7.0001 3.13171C8.85302 3.13171 10.63 3.86778 11.9402 5.17799C13.2504 6.4882 13.9865 8.26523 13.9865 10.1181C13.9865 10.5323 13.6507 10.8681 13.2365 10.8681C12.8223 10.8681 12.4865 10.5323 12.4865 10.1181C12.4865 8.66305 11.9085 7.26756 10.8796 6.23865C9.85069 5.20975 8.45519 4.63171 7.0001 4.63171ZM7.00014 7.09029C6.1971 7.09029 5.42696 7.40929 4.85913 7.97713C4.29129 8.54496 3.97229 9.31511 3.97229 10.1181C3.97229 10.5323 3.6365 10.8681 3.22229 10.8681C2.80807 10.8681 2.47229 10.5323 2.47229 10.1181C2.47229 8.91728 2.94933 7.7656 3.79847 6.91647C4.6476 6.06733 5.79928 5.59029 7.00014 5.59029C8.201 5.59029 9.35268 6.06733 10.2018 6.91647C11.0509 7.7656 11.528 8.91728 11.528 10.1181C11.528 10.5323 11.1922 10.8681 10.778 10.8681C10.3638 10.8681 10.028 10.5323 10.028 10.1181C10.028 9.31511 9.70899 8.54496 9.14116 7.97713C8.57332 7.40929 7.80318 7.09029 7.00014 7.09029ZM6.59741 9.71543C6.70422 9.60862 6.84908 9.54862 7.00012 9.54862C7.15117 9.54862 7.29603 9.60862 7.40284 9.71543C7.50964 9.82224 7.56964 9.9671 7.56964 10.1181C7.56964 10.5323 7.90543 10.8681 8.31964 10.8681C8.73386 10.8681 9.06964 10.5323 9.06964 10.1181C9.06964 9.56927 8.85161 9.04288 8.4635 8.65477C8.07538 8.26666 7.54899 8.04862 7.00012 8.04862C6.45125 8.04862 5.92486 8.26666 5.53675 8.65477C5.14864 9.04288 4.9306 9.56927 4.9306 10.1181C4.9306 10.5323 5.26639 10.8681 5.6806 10.8681C6.09481 10.8681 6.4306 10.5323 6.4306 10.1181C6.4306 9.9671 6.4906 9.82224 6.59741 9.71543Z" fill="black"/>
</svg>
