<svg width="14" height="14" viewBox="0 0 14 14" fill="none" xmlns="http://www.w3.org/2000/svg">
<g clip-path="url(#clip0_1068_187275)">
<path fill-rule="evenodd" clip-rule="evenodd" d="M5.62533 1.3093C6.6064 -0.335963 8.96231 -0.410343 10.0452 1.16975L10.6391 2.03623L11.4584 1.63139C11.6899 1.51705 11.9678 1.55675 12.158 1.73132C12.3481 1.90589 12.4114 2.17941 12.3172 2.41975L11.1666 5.35619C11.0501 5.65363 10.728 5.81531 10.4198 5.73103L7.33482 4.88728C7.08443 4.8188 6.90244 4.60269 6.87757 4.34431C6.85271 4.08593 6.99012 3.83907 7.22284 3.72408L7.9089 3.38513L7.34764 2.50416C7.21375 2.294 6.91593 2.27046 6.75069 2.45696L5.62808 3.72398C5.41419 3.96539 5.05174 4.00439 4.79138 3.81402C4.53103 3.62365 4.45829 3.26643 4.62348 2.98941L5.62533 1.3093ZM3.77488 4.66759C4.09075 4.61981 4.3918 4.81792 4.47289 5.12692L5.28468 8.22047C5.35056 8.47155 5.2544 8.73721 5.04307 8.88794C4.83174 9.03867 4.54924 9.04309 4.3333 8.89904L3.69673 8.47437L3.21441 9.4009C3.09934 9.62193 3.22787 9.89162 3.47201 9.94148L5.13058 10.2802C5.44659 10.3447 5.66159 10.6391 5.6269 10.9598C5.59222 11.2804 5.31922 11.522 4.99672 11.5175L3.04078 11.4899C1.12541 11.4629 -0.116963 9.45981 0.709984 7.73194L1.16346 6.78443L0.403189 6.27725C0.188448 6.134 0.0838705 5.87346 0.139971 5.62149C0.196073 5.36952 0.401308 5.17797 0.656543 5.13936L3.77488 4.66759ZM7.16201 11.2201C6.9627 10.9705 6.98374 10.6107 7.2108 10.386L9.48399 8.13617C9.66849 7.95357 9.94664 7.90402 10.1829 8.01167C10.4191 8.11932 10.5641 8.36177 10.5473 8.6208L10.4979 9.38445L11.5415 9.33888C11.7904 9.32801 11.9597 9.08186 11.8808 8.8455L11.3448 7.23979C11.2427 6.93385 11.3902 6.60045 11.6852 6.47016C11.9802 6.33988 12.326 6.4555 12.4833 6.73706L13.4374 8.44475C14.3717 10.117 13.2581 12.1945 11.3483 12.3422L10.301 12.4233L10.2419 13.3353C10.2252 13.5929 10.0518 13.8137 9.80557 13.8911C9.55931 13.9685 9.2908 13.8865 9.12974 13.6848L7.16201 11.2201Z" fill="black"/>
</g>
<defs>
<clipPath id="clip0_1068_187275">
<rect width="14" height="14" fill="white"/>
</clipPath>
</defs>
</svg>
