<svg width="14" height="14" viewBox="0 0 14 14" fill="none" xmlns="http://www.w3.org/2000/svg">
<g clip-path="url(#clip0_1068_187296)">
<path fill-rule="evenodd" clip-rule="evenodd" d="M4.42294 2.9494C4.50033 3.13624 4.68265 3.25806 4.88488 3.25806H9.05799C9.26022 3.25806 9.44254 3.13624 9.51993 2.9494C9.59732 2.76257 9.55454 2.54751 9.41154 2.40451L7.32499 0.317955C7.12973 0.122693 6.81314 0.122693 6.61788 0.317955L4.53133 2.40451C4.38833 2.54751 4.34555 2.76257 4.42294 2.9494ZM5.62988 4.7655C5.21566 4.7655 4.87988 5.10129 4.87988 5.5155C4.87988 5.92972 5.21566 6.2655 5.62988 6.2655H8.31314C8.72735 6.2655 9.06314 5.92972 9.06314 5.5155C9.06314 5.10129 8.72735 4.7655 8.31314 4.7655H5.62988ZM5.62988 7.55554C5.21566 7.55554 4.87988 7.89133 4.87988 8.30554C4.87988 8.71976 5.21566 9.05554 5.62988 9.05554H8.31314C8.72735 9.05554 9.06314 8.71976 9.06314 8.30554C9.06314 7.89133 8.72735 7.55554 8.31314 7.55554H5.62988ZM9.51992 10.8718C9.44253 10.6849 9.26021 10.5631 9.05798 10.5631H4.88487C4.68264 10.5631 4.50033 10.6849 4.42294 10.8718C4.34554 11.0586 4.38832 11.2737 4.53132 11.4167L6.61787 13.5032C6.81314 13.6985 7.12972 13.6985 7.32498 13.5032L9.41153 11.4167C9.55453 11.2737 9.59731 11.0586 9.51992 10.8718ZM10.9326 4.3621C10.7458 4.43949 10.624 4.6218 10.624 4.82404V8.99714C10.624 9.19937 10.7458 9.38169 10.9326 9.45908C11.1195 9.53647 11.3345 9.49369 11.4775 9.35069L13.5641 7.26414C13.7594 7.06888 13.7594 6.7523 13.5641 6.55703L11.4775 4.47048C11.3345 4.32748 11.1195 4.28471 10.9326 4.3621ZM3.01031 9.45907C3.19715 9.38168 3.31897 9.19936 3.31897 8.99713V4.82403C3.31897 4.6218 3.19715 4.43948 3.01031 4.36209C2.82348 4.2847 2.60842 4.32747 2.46542 4.47047L0.378868 6.55703C0.183606 6.75229 0.183606 7.06887 0.378868 7.26413L2.46542 9.35069C2.60842 9.49368 2.82347 9.53646 3.01031 9.45907Z" fill="black"/>
</g>
<defs>
<clipPath id="clip0_1068_187296">
<rect width="14" height="14" fill="white"/>
</clipPath>
</defs>
</svg>
