<svg width="14" height="14" viewBox="0 0 14 14" fill="none" xmlns="http://www.w3.org/2000/svg">
<path fill-rule="evenodd" clip-rule="evenodd" d="M6.99305 3.35343C7.90475 2.75885 8.90351 2.32251 9.94716 2.05668C9.74582 1.50912 9.395 1.0262 8.93157 0.664589C8.37964 0.233914 7.69963 0 6.99955 0C6.29947 0 5.61946 0.233914 5.06753 0.664589C4.60207 1.02779 4.25021 1.51336 4.0493 2.06389C4.88708 2.28211 5.83406 2.64256 6.79916 3.23203C6.86376 3.27149 6.9284 3.31195 6.99305 3.35343ZM1.80784 3.06084C1.76466 3.10588 1.72852 3.18064 1.72852 3.27752V6.14278C1.72852 7.54075 2.28387 8.88148 3.27239 9.87C4.08239 10.68 5.12888 11.1992 6.24958 11.3602V13.1733C6.24958 13.5875 6.58537 13.9233 6.99958 13.9233C7.41379 13.9233 7.74958 13.5875 7.74958 13.1733V11.3603C8.82327 11.2059 9.82884 10.723 10.6236 9.97043C9.41903 6.96924 7.73579 5.26884 6.1476 4.29879C4.48556 3.28364 2.8852 3.04305 1.96016 3.00049C1.89649 2.99757 1.8475 3.01946 1.80784 3.06084ZM11.5127 8.86615C12.0045 8.05105 12.2707 7.11064 12.2707 6.14278V3.33662C12.2707 3.11902 12.1112 3.00469 11.9794 3.01086C10.607 3.07508 9.26923 3.46678 8.07872 4.15321C9.34298 5.2148 10.5538 6.7263 11.5127 8.86615Z" fill="black"/>
</svg>
