<svg width="14" height="14" viewBox="0 0 14 14" fill="none" xmlns="http://www.w3.org/2000/svg">
<path fill-rule="evenodd" clip-rule="evenodd" d="M4.15991 3.58842C3.94925 3.53078 3.72749 3.5 3.49854 3.5C2.11782 3.5 0.998531 4.61929 0.998531 6C0.998531 6.22017 1.027 6.4337 1.08044 6.63709L4.12266 8.92247C4.39864 9.1298 4.4543 9.52159 4.24698 9.79757C4.03965 10.0736 3.64786 10.1292 3.37188 9.92189L0.639293 7.86911C0.36156 8.60584 0.703811 9.4408 1.41651 9.88623L3.99854 11.5L3.99853 12.5C3.99853 13.0523 4.44625 13.5 4.99853 13.5H8.99853C9.55082 13.5 9.99853 13.0523 9.99853 12.5L9.99854 11.5L12.5806 9.88623C13.2928 9.44112 13.6351 8.60702 13.3584 7.87068L10.6279 9.92189C10.3519 10.1292 9.96009 10.0736 9.75277 9.79757C9.54545 9.52159 9.60111 9.1298 9.87709 8.92247L12.916 6.6396C12.9699 6.43545 12.9986 6.22108 12.9986 6C12.9986 4.61929 11.8793 3.5 10.4986 3.5C10.2713 3.5 10.0511 3.53034 9.84171 3.58718C9.83957 3.60023 9.837 3.6133 9.834 3.62637L9.10984 6.78051C9.0326 7.11693 8.69726 7.32704 8.36083 7.2498C8.02441 7.17256 7.8143 6.83722 7.89154 6.50079L8.6157 3.34666C8.63122 3.27904 8.65718 3.21653 8.69147 3.16042C8.24615 2.7504 7.65159 2.5 6.99854 2.5C6.34684 2.5 5.75339 2.74936 5.30838 3.15787C5.34345 3.21463 5.36996 3.27801 5.38572 3.34666L6.10988 6.50079C6.18712 6.83722 5.97701 7.17256 5.64058 7.2498C5.30416 7.32704 4.96882 7.11693 4.89158 6.78051L4.16742 3.62637C4.16451 3.61371 4.16201 3.60106 4.15991 3.58842Z" fill="black"/>
</svg>
