<svg width="14" height="14" viewBox="0 0 14 14" fill="none" xmlns="http://www.w3.org/2000/svg">
<g clip-path="url(#clip0_1068_187287)">
<path fill-rule="evenodd" clip-rule="evenodd" d="M11.866 1.5625H11.1951V7.73018C12.5548 8.06589 13.563 9.2938 13.563 10.7572V13.125C13.563 13.5392 13.2272 13.875 12.813 13.875C12.3988 13.875 12.063 13.5392 12.063 13.125V10.7572C12.063 10.1343 11.711 9.59369 11.1951 9.32333V13.125C11.1951 13.5392 10.8593 13.875 10.4451 13.875C10.0309 13.875 9.69507 13.5392 9.69507 13.125V9.32344C9.17928 9.59385 8.82739 10.1344 8.82739 10.7572V13.125C8.82739 13.5392 8.49161 13.875 8.07739 13.875C7.66318 13.875 7.32739 13.5392 7.32739 13.125V10.7572C7.32739 9.29389 8.33549 8.06603 9.69507 7.73023V1.5625H9.02466C8.61045 1.5625 8.27466 1.22671 8.27466 0.8125C8.27466 0.398286 8.61045 0.0625 9.02466 0.0625H10.4451H11.866C12.2802 0.0625 12.616 0.398286 12.616 0.8125C12.616 1.22671 12.2802 1.5625 11.866 1.5625ZM1.52363 2.04115C1.81598 1.01794 2.7512 0.3125 3.81536 0.3125C4.87951 0.3125 5.81474 1.01794 6.10708 2.04115L6.88261 4.75551C7.33096 6.32472 6.18103 7.88691 4.56519 7.94087V12.375H5.23612C5.65034 12.375 5.98612 12.7108 5.98612 13.125C5.98612 13.5392 5.65034 13.875 5.23612 13.875H3.82059H3.81519H3.80978H2.39478C1.98056 13.875 1.64478 13.5392 1.64478 13.125C1.64478 12.7108 1.98056 12.375 2.39478 12.375H3.06519V7.94086C1.44952 7.88669 0.299785 6.32461 0.748102 4.75551L1.52363 2.04115Z" fill="black"/>
</g>
<defs>
<clipPath id="clip0_1068_187287">
<rect width="14" height="14" fill="white"/>
</clipPath>
</defs>
</svg>
