<svg width="14" height="14" viewBox="0 0 14 14" fill="none" xmlns="http://www.w3.org/2000/svg">
<path fill-rule="evenodd" clip-rule="evenodd" d="M9.7579 5.61052C10.5689 6.04292 11.6136 5.96733 12.3434 5.33202C13.096 4.74381 13.4417 2.80374 13.5647 1.9015C13.6006 1.63838 13.4157 1.40352 13.1515 1.3766C12.2439 1.28414 10.2713 1.16324 9.52709 1.75172C8.63579 2.38376 8.34356 3.57399 8.76401 4.53732C8.70831 4.56946 8.65586 4.60935 8.60822 4.65699C7.96867 5.29654 7.41443 6.28979 7.01184 7.26153C6.75287 6.89796 6.42662 6.57409 6.03749 6.25323C6.28845 5.37497 5.97871 4.37196 5.20534 3.82355C4.48958 3.25759 2.59956 3.36981 1.71463 3.45904C1.4504 3.48568 1.26504 3.72108 1.3012 3.98417C1.42209 4.86367 1.75688 6.72168 2.48062 7.28736C3.23641 7.94523 4.34112 7.98275 5.14404 7.46127C5.60407 7.84933 5.85065 8.16158 6.00016 8.49806C6.06019 8.63316 6.10911 8.78228 6.14724 8.95497C6.42297 8.94114 6.7072 8.93384 7 8.93384C7.34544 8.93384 7.67894 8.94401 8.00063 8.96306C8.10529 8.60175 8.23901 8.21865 8.39713 7.83684C8.76869 6.93968 9.2318 6.15472 9.66888 5.71765C9.70238 5.68414 9.73206 5.64825 9.7579 5.61052ZM14 12.3376C14 12.3376 12.0693 10.4069 7.75086 10.2014C7.50815 10.1899 7.25788 10.1838 7 10.1838C6.74249 10.1838 6.49259 10.1899 6.2502 10.2014C1.93103 10.4066 0 12.3376 0 12.3376V13.9194H14V12.3376Z" fill="black"/>
</svg>
