<svg width="14" height="14" viewBox="0 0 14 14" fill="none" xmlns="http://www.w3.org/2000/svg">
<g clip-path="url(#clip0_1068_187284)">
<path fill-rule="evenodd" clip-rule="evenodd" d="M12.1695 0.604919C12.1219 0.474066 12.0218 0.369032 11.8933 0.315114C11.7649 0.261195 11.6198 0.263278 11.493 0.320861L3.87105 3.78192C3.63316 3.88995 3.51854 4.16291 3.608 4.40839L3.72274 4.72323C3.75092 4.76487 3.77449 4.8106 3.79248 4.85997L4.78637 7.58717C4.80436 7.63654 4.81574 7.68672 4.82096 7.73671L4.92701 8.02769C5.01647 8.27316 5.27984 8.40838 5.53145 8.33801L6.80269 7.98248L4.8842 12.6906C4.7279 13.0742 4.91215 13.5119 5.29574 13.6682C5.67932 13.8245 6.117 13.6402 6.2733 13.2567L7.95551 9.12837L9.63772 13.2567C9.79402 13.6402 10.2317 13.8245 10.6153 13.6682C10.9989 13.5119 11.1831 13.0742 11.0268 12.6906L8.87246 7.40362L13.5931 6.08338C13.7272 6.04587 13.8396 5.95412 13.9032 5.83022C13.9669 5.70633 13.9759 5.56151 13.9282 5.43066L12.1695 0.604919ZM3.64434 8.08909C3.63212 8.06548 3.62127 8.04082 3.61193 8.01518L2.70345 5.52234L1.5238 5.95225L1.49783 5.88101C1.35601 5.49184 0.925543 5.29132 0.536368 5.43315C0.147193 5.57498 -0.0533205 6.00545 0.0885089 6.39462L1.0824 9.12182C1.22422 9.51099 1.65469 9.71151 2.04386 9.56968C2.43304 9.42785 2.63355 8.99739 2.49172 8.60821L2.45985 8.52076L3.64434 8.08909Z" fill="black"/>
</g>
<defs>
<clipPath id="clip0_1068_187284">
<rect width="14" height="14" fill="white"/>
</clipPath>
</defs>
</svg>
