<svg width="14" height="14" viewBox="0 0 14 14" fill="none" xmlns="http://www.w3.org/2000/svg">
<g clip-path="url(#clip0_1068_187305)">
<path fill-rule="evenodd" clip-rule="evenodd" d="M2.22452 10.9818C2.52599 10.9802 2.79912 11.1592 2.9179 11.4363C3.05257 11.7505 3.28281 12.0143 3.57593 12.1901C4.12176 12.5176 5.10699 12.5176 5.65283 12.1901C5.94594 12.0143 6.17618 11.7505 6.31085 11.4363C6.42905 11.1606 6.70019 10.9818 7.00019 10.9818C7.3002 10.9818 7.57134 11.1606 7.68953 11.4363C7.8242 11.7505 8.05445 12.0143 8.34756 12.1901C8.89339 12.5176 9.87863 12.5176 10.4244 12.1901C10.7175 12.0143 10.9478 11.7505 11.0824 11.4363C11.2012 11.1592 11.4744 10.9802 11.7758 10.9818C12.0773 10.9834 12.3485 11.1654 12.4643 11.4438C12.5494 11.6485 12.6791 11.8317 12.8439 11.98C13.0087 12.1283 13.2045 12.2381 13.417 12.3013C13.8141 12.4193 14.0402 12.8369 13.9222 13.2339C13.8041 13.6309 13.3866 13.8571 12.9895 13.739C12.5634 13.6123 12.1709 13.3923 11.8405 13.0949C11.8175 13.0742 11.7948 13.0532 11.7725 13.0318C11.5993 13.2009 11.4061 13.3504 11.1962 13.4764C10.651 13.8035 10.0194 13.9563 9.38601 13.9154C8.75254 13.9563 8.12102 13.8035 7.57582 13.4764C7.36612 13.3505 7.17317 13.2013 7.00019 13.0324C6.82722 13.2013 6.63426 13.3505 6.42457 13.4764C5.87937 13.8035 5.24785 13.9563 4.61438 13.9154C3.9809 13.9563 3.34938 13.8035 2.80418 13.4764C2.59422 13.3504 2.40104 13.201 2.22789 13.0318C2.20556 13.0532 2.18289 13.0742 2.15987 13.0949C1.82945 13.3923 1.43693 13.6123 1.01083 13.739C0.613797 13.8571 0.196234 13.6309 0.0781787 13.2339C-0.039877 12.8369 0.186279 12.4193 0.583313 12.3013C0.79584 12.2381 0.99162 12.1283 1.15642 11.98C1.32123 11.8317 1.45092 11.6485 1.53608 11.4438C1.65186 11.1654 1.92305 10.9834 2.22452 10.9818Z" fill="black"/>
<path fill-rule="evenodd" clip-rule="evenodd" d="M8.5 0C5.38965 0 4.20175 2.24813 4.0068 3.4178C3.97711 3.59595 4.0458 3.77626 4.18649 3.8895C4.32718 4.00274 4.51801 4.03131 4.6857 3.96424C5.24821 3.73923 5.68376 3.69996 6.01516 3.7581C6.34056 3.81519 6.60238 3.97229 6.81585 4.20948C7.26104 4.70414 7.5 5.55939 7.5 6.5C7.5 7.67561 6.27471 9 4.5 9C3.64252 9 2.77852 8.54711 2.45956 7.80301C2.38038 7.61828 2.19828 7.49892 1.99731 7.50001C1.79633 7.50109 1.61553 7.6224 1.53835 7.80797C1.32798 8.31371 0.882515 8.71463 0.357494 8.87074C0.145416 8.9338 0 9.12875 0 9.35V11.1856C0.0730207 11.1539 0.148712 11.1264 0.226887 11.1031C0.261436 11.0928 0.293266 11.075 0.32006 11.0509C0.346854 11.0268 0.367939 10.997 0.381782 10.9637C0.690534 10.2214 1.41372 9.73617 2.21763 9.73184C3.02154 9.72751 3.74991 10.205 4.06664 10.9439C4.0978 11.0165 4.15107 11.0776 4.21888 11.1183C4.22081 11.1193 4.25614 11.1382 4.33449 11.1563C4.41246 11.1742 4.50915 11.1858 4.61422 11.1858C4.71929 11.1858 4.81598 11.1742 4.89395 11.1563C4.9723 11.1382 5.00754 11.1193 5.00947 11.1183C5.07729 11.0776 5.13064 11.0165 5.1618 10.9439C5.47699 10.2085 6.20003 9.73181 7.00004 9.73181C7.80004 9.73181 8.52309 10.2085 8.83827 10.9439C8.86943 11.0165 8.92271 11.0776 8.99052 11.1183C8.99244 11.1193 9.02776 11.1382 9.10612 11.1563C9.1841 11.1742 9.28078 11.1858 9.38585 11.1858C9.49093 11.1858 9.58761 11.1742 9.66558 11.1563C9.74395 11.1382 9.77919 11.1193 9.78111 11.1183C9.84893 11.0776 9.90227 11.0165 9.93343 10.9439C10.2502 10.2049 10.9785 9.72751 11.7824 9.73184C12.5864 9.73617 13.3095 10.2214 13.6183 10.9637C13.6321 10.997 13.6532 11.0268 13.68 11.0509C13.7068 11.075 13.7386 11.0928 13.7732 11.1031C13.8513 11.1263 13.927 11.1539 14 11.1855V3.5C14 3.42238 13.9819 3.34582 13.9472 3.27639C13.3953 2.17262 11.553 0 8.5 0ZM13.8654 13.3726C13.8884 13.3292 13.9075 13.2828 13.9221 13.2339C14.0401 12.8369 13.814 12.4193 13.4169 12.3013C13.2044 12.2381 13.0086 12.1283 12.8438 11.98C12.679 11.8317 12.5493 11.6485 12.4642 11.4438C12.3484 11.1654 12.0772 10.9834 11.7757 10.9818C11.4742 10.9802 11.2011 11.1592 11.0823 11.4363C10.9477 11.7505 10.7174 12.0143 10.4243 12.1901C9.87847 12.5176 8.89324 12.5176 8.3474 12.1901C8.05429 12.0143 7.82405 11.7505 7.68938 11.4363C7.57118 11.1606 7.30004 10.9818 7.00004 10.9818C6.70003 10.9818 6.42889 11.1606 6.3107 11.4363C6.17603 11.7505 5.94578 12.0143 5.65267 12.1901C5.10684 12.5176 4.1216 12.5176 3.57577 12.1901C3.28266 12.0143 3.05241 11.7505 2.91774 11.4363C2.79897 11.1592 2.52583 10.9802 2.22436 10.9818C1.92289 10.9834 1.6517 11.1654 1.53592 11.4438C1.45077 11.6485 1.32107 11.8317 1.15627 11.98C0.99146 12.1283 0.795679 12.2381 0.583152 12.3013C0.186119 12.4193 -0.0400375 12.8369 0.0780183 13.2339C0.170196 13.5439 0.444968 13.7497 0.749992 13.7689C0.816883 13.7731 0.885229 13.7683 0.953422 13.7537C0.972517 13.7496 0.991599 13.7447 1.01063 13.739C1.18956 13.6858 1.36256 13.6162 1.52754 13.5312C1.75544 13.4139 1.96804 13.2674 2.15971 13.0949C2.18273 13.0742 2.2054 13.0532 2.22773 13.0318C2.40088 13.201 2.59406 13.3504 2.80403 13.4764C2.83549 13.4952 2.86723 13.5135 2.89925 13.5312C3.16382 13.6766 3.45589 13.7839 3.76062 13.8532C4.03949 13.9126 4.32665 13.934 4.61422 13.9154C4.90138 13.9339 5.18815 13.9127 5.46665 13.8534C5.77177 13.7842 6.06392 13.6768 6.32881 13.5312C6.36083 13.5135 6.39295 13.4952 6.42441 13.4764C6.63411 13.3505 6.82706 13.2013 7.00004 13.0324C7.17302 13.2013 7.36597 13.3505 7.57566 13.4764C7.60712 13.4952 7.63887 13.5135 7.67089 13.5312C7.93547 13.6766 8.22755 13.7839 8.53228 13.8532C8.81114 13.9126 9.0983 13.934 9.38585 13.9154C9.67301 13.9339 9.95976 13.9127 10.2382 13.8534C10.5434 13.7842 10.8355 13.6768 11.1004 13.5312C11.1324 13.5135 11.1646 13.4952 11.196 13.4764C11.406 13.3504 11.5992 13.201 11.7723 13.0318C11.7947 13.0532 11.8173 13.0742 11.8404 13.0949C12.1708 13.3923 12.5633 13.6123 12.9894 13.739C13.0111 13.7455 13.0329 13.751 13.0548 13.7554C13.1592 13.7766 13.2638 13.7748 13.3629 13.7531C13.5744 13.7068 13.7607 13.5697 13.8654 13.3726Z" fill="black"/>
</g>
<defs>
<clipPath id="clip0_1068_187305">
<rect width="14" height="14" fill="white"/>
</clipPath>
</defs>
</svg>
