<svg width="14" height="14" viewBox="0 0 14 14" fill="none" xmlns="http://www.w3.org/2000/svg">
<g clip-path="url(#clip0_1068_187315)">
<path fill-rule="evenodd" clip-rule="evenodd" d="M6.96 0.0196533C6.00363 0.0196533 5.07891 0.362311 4.35347 0.98551C3.73184 1.51954 3.29179 2.22928 3.08786 3.01635C2.3114 3.10841 1.58361 3.45866 1.02513 4.01714C0.368749 4.67352 0 5.56376 0 6.49202C0 7.42027 0.368749 8.31051 1.02513 8.96689C1.68092 9.62268 2.57016 9.99136 3.49753 9.99201H5.92001V12.9805C5.92001 13.5328 6.36773 13.9805 6.92001 13.9805C7.4723 13.9805 7.92001 13.5328 7.92001 12.9805V9.99201H10.5025C11.4298 9.99136 12.3191 9.62269 12.9749 8.96689C13.6313 8.31051 14 7.42027 14 6.49202C14 5.56376 13.6313 4.67352 12.9749 4.01714C12.3967 3.43897 11.6371 3.08397 10.8299 3.00758C10.6249 2.22401 10.1859 1.51755 9.56653 0.98551C8.84109 0.362311 7.91637 0.0196533 6.96 0.0196533Z" fill="black"/>
</g>
<defs>
<clipPath id="clip0_1068_187315">
<rect width="14" height="14" fill="white"/>
</clipPath>
</defs>
</svg>
