<svg width="14" height="14" viewBox="0 0 14 14" fill="none" xmlns="http://www.w3.org/2000/svg">
<g clip-path="url(#clip0_1068_187318)">
<path fill-rule="evenodd" clip-rule="evenodd" d="M6.99806 0.0463867C6.06253 0.0463867 5.23364 0.499991 4.71826 1.19802C4.41801 1.06007 4.08388 0.983073 3.73232 0.983073C2.42684 0.983073 1.36853 2.04138 1.36853 3.34686C1.36853 4.65236 2.42687 5.71066 3.73235 5.71066H4.71994V4.51865C4.71994 4.17347 4.99976 3.89365 5.34494 3.89365C5.69012 3.89365 5.96994 4.17347 5.96994 4.51865V7.36187H8.02601V4.51865C8.02601 4.17347 8.30584 3.89365 8.65101 3.89365C8.99619 3.89365 9.27601 4.17347 9.27601 4.51865V5.71066H10.2637C11.5692 5.71066 12.6275 4.65236 12.6275 3.34686C12.6275 2.04138 11.5692 0.983073 10.2638 0.983073C9.91223 0.983073 9.5781 1.06007 9.27785 1.19802C8.76247 0.499991 7.93358 0.0463867 6.99806 0.0463867ZM4.19057 8.98613C4.19057 8.70999 4.41443 8.48613 4.69057 8.48613H9.30869C9.58484 8.48613 9.80869 8.70999 9.80869 8.98613C9.80869 9.90304 10.4209 10.7721 11.2812 11.5145C12.1267 12.2443 13.1154 12.7665 13.6497 12.9934C13.8685 13.0863 13.9916 13.3204 13.9442 13.5533C13.8968 13.7863 13.692 13.9536 13.4543 13.9536H0.544972C0.307271 13.9536 0.102428 13.7863 0.0550177 13.5533C0.00760782 13.3204 0.130738 13.0863 0.349527 12.9934C0.883841 12.7665 1.8725 12.2443 2.71808 11.5145C3.5783 10.7721 4.19057 9.90304 4.19057 8.98613Z" fill="black"/>
</g>
<defs>
<clipPath id="clip0_1068_187318">
<rect width="14" height="14" fill="white"/>
</clipPath>
</defs>
</svg>
