<svg width="14" height="14" viewBox="0 0 14 14" fill="none" xmlns="http://www.w3.org/2000/svg">
<path fill-rule="evenodd" clip-rule="evenodd" d="M6.5 4.53125C6.5 3.70282 5.82843 3.03125 5 3.03125H3.0625C2.23407 3.03125 1.5625 3.70282 1.5625 4.53125V5H6.03125H6.5V4.53125ZM3.53677 9.605C3.23229 10.8947 3 12.2774 3 13.5C3 13.7761 3.22386 14 3.5 14H10.5C10.7761 14 11 13.7761 11 13.5C11 12.0736 10.6838 10.4292 10.3056 8.96875H9C8.4372 8.96875 7.91783 8.78278 7.5 8.46893V11.4375C7.5 11.7136 7.27614 11.9375 7 11.9375H6.03125C4.70683 11.9375 3.62295 10.9076 3.53677 9.605ZM9.46875 3.5C9.46875 4.32843 8.79718 5 7.96875 5H7.5V4.53125V0.0625H7.96875C8.79718 0.0625 9.46875 0.734073 9.46875 1.5625V3.5ZM6.5 6H6.03125C5.20282 6 4.53125 6.67157 4.53125 7.5V9.4375C4.53125 10.2659 5.20282 10.9375 6.03125 10.9375H6.5V6.46875V6ZM9 7.96875C8.17157 7.96875 7.5 7.29718 7.5 6.46875V6H7.96875H12.4375V6.46875C12.4375 7.29718 11.7659 7.96875 10.9375 7.96875H9Z" fill="black"/>
</svg>
