<svg width="14" height="14" viewBox="0 0 14 14" fill="none" xmlns="http://www.w3.org/2000/svg">
<g clip-path="url(#clip0_1068_187321)">
<path fill-rule="evenodd" clip-rule="evenodd" d="M11.2525 1.28712C11.4893 0.947272 11.4057 0.479804 11.0659 0.242996C10.7261 0.00618945 10.2586 0.0897192 10.0218 0.429565C9.66697 0.93874 9.62716 1.46845 9.73007 1.94105C9.81891 2.34902 10.0206 2.73438 10.1687 3.01725L10.1868 3.05198C10.3592 3.38179 10.4658 3.59681 10.5073 3.78731C10.5384 3.93013 10.5246 4.01584 10.4506 4.12209C10.2138 4.46193 10.2973 4.9294 10.6372 5.16621C10.977 5.40302 11.4445 5.31949 11.6813 4.97965C12.0361 4.47048 12.0759 3.94076 11.973 3.46817C11.8842 3.0602 11.6825 2.67483 11.5344 2.39196L11.5162 2.35723C11.3439 2.02742 11.2372 1.8124 11.1957 1.6219C11.1646 1.47907 11.1784 1.39336 11.2525 1.28712ZM0.496094 7.53986C0.496094 7.26372 0.719952 7.03986 0.996094 7.03986H13.0035C13.2796 7.03986 13.5035 7.26372 13.5035 7.53986C13.5035 9.83527 12.0974 11.8032 10.0728 12.8009V13.4629C10.0728 13.7391 9.84895 13.9629 9.57281 13.9629H9.5714H9.57031H9.56892H9.56722H9.56522H9.5641H9.56291H9.56165H9.56031H9.5589H9.55741H9.55585H9.55421H9.5525H9.55072H9.54887H9.54694H9.54494H9.54287H9.54072H9.53851H9.53622H9.53386H9.53143H9.52893H9.52636H9.52371H9.521H9.51822H9.51537H9.51244H9.50945H9.50639H9.50326H9.50006H9.4968H9.49346H9.49006H9.48659H9.48305H9.47945H9.47578H9.47204H9.46823H9.46436H9.46042H9.45642H9.45235H9.44821H9.44401H9.43975H9.43542H9.43103H9.42657H9.42204H9.41746H9.41281H9.4081H9.40332H9.39848H9.39358H9.38861H9.38359H9.3785H9.37335H9.36814H9.36287H9.35753H9.35214H9.34668H9.34117H9.33559H9.32996H9.32426H9.31851H9.31269H9.30682H9.30089H9.2949H9.28885H9.28274H9.27658H9.27036H9.26408H9.25774H9.25135H9.2449H9.23839H9.23183H9.22521H9.21854H9.21181H9.20502H9.19818H9.19129H9.18434H9.17733H9.17028H9.16316H9.156H9.14878H9.14151H9.13418H9.1268H9.11937H9.11189H9.10436H9.09677H9.08913H9.08144H9.0737H9.06591H9.05807H9.05017H9.04223H9.03424H9.02619H9.0181H9.00996H9.00177H8.99353H8.98524H8.97691H8.96852H8.96009H8.95161H8.94308H8.9345H8.92588H8.91721H8.9085H8.89974H8.89093H8.88207H8.87317H8.86423H8.85524H8.84621H8.83713H8.828H8.81883H8.80962H8.80037H8.79107H8.78172H8.77234H8.76291H8.75344H8.74392H8.73437H8.72477H8.71513H8.70545H8.69572H8.68596H8.67616H8.66631H8.65643H8.6465H8.63654H8.62653H8.61649H8.6064H8.59628H8.58612H8.57592H8.56568H8.55541H8.54509H8.53474H8.52435H8.51393H8.50346H8.49297H8.48243H8.47186H8.46125H8.45061H8.43993H8.42921H8.41846H8.40768H8.39686H8.38601H8.37512H8.3642H8.35324H8.34225H8.33123H8.32018H8.30909H8.29797H8.28682H8.27564H8.26442H8.25317H8.24189H8.23058H8.21924H8.20787H8.19647H8.18504H8.17357H8.16208H8.15056H8.13901H8.12743H8.11582H8.10418H8.09252H8.08083H8.0691H8.05735H8.04558H8.03377H8.02194H8.01008H7.9982H7.98629H7.97435H7.96239H7.9504H7.93839H7.92635H7.91429H7.9022H7.89009H7.87795H7.86579H7.8536H7.84139H7.82916H7.81691H7.80463H7.79233H7.78001H7.76766H7.7553H7.74291H7.7305H7.71807H7.70561H7.69314H7.68065H7.66813H7.6556H7.64305H7.63047H7.61788H7.60527H7.59264H7.57999H7.56732H7.55463H7.54193H7.52921H7.51647H7.50371H7.49094H7.47815H7.46534H7.45252H7.43968H7.42682H7.41395H7.40106H7.38816H7.37524H7.36231H7.34936H7.3364H7.32342H7.31043H7.29743H7.28441H7.27139H7.25834H7.24529H7.23222H7.21914H7.20605H7.19294H7.17983H7.1667H7.15356H7.14041H7.12726H7.11409H7.10091H7.08771H7.07452H7.06131H7.04809H7.03486H7.02162H7.00838H6.99512H6.98186H6.96859H6.95532H6.94203H6.92874H6.91544H6.90214H6.88882H6.87551H6.86218H6.84885H6.83552H6.82217H6.80883H6.79548H6.78212H6.76876H6.7554H6.74203H6.72866H6.71528H6.7019H6.68852H6.67513H6.66175H6.64836H6.63496H6.62157H6.60817H6.59478H6.58138H6.56798H6.55458H6.54118H6.52778H6.51438H6.50098H6.48757H6.47417H6.46078H6.44738H6.43398H6.42059H6.40719H6.3938H6.38041H6.36702H6.35364H6.34026H6.32688H6.31351H6.30014H6.28677H6.27341H6.26005H6.24669H6.23334H6.22H6.20666H6.19332H6.18H6.16667H6.15336H6.14005H6.12675H6.11345H6.10016H6.08688H6.0736H6.06034H6.04708H6.03383H6.02058H6.00735H5.99413H5.98091H5.9677H5.95451H5.94132H5.92814H5.91498H5.90182H5.88868H5.87554H5.86242H5.84931H5.83621H5.82312H5.81004H5.79698H5.78393H5.77089H5.75787H5.74485H5.73186H5.71887H5.7059H5.69294H5.68H5.66707H5.65416H5.64126H5.62838H5.61551H5.60266H5.58983H5.57701H5.56421H5.55142H5.53865H5.5259H5.51317H5.50045H5.48776H5.47507H5.46241H5.44977H5.43715H5.42454H5.41195H5.39939H5.38684H5.37431H5.36181H5.34932H5.33685H5.32441H5.31198H5.29958H5.2872H5.27484H5.2625H5.25019H5.2379H5.22563H5.21338H5.20115H5.18895H5.17678H5.16462H5.15249H5.14039H5.12831H5.11625H5.10422H5.09222H5.08024H5.06829H5.05636H5.04446H5.03258H5.02073H5.00891H4.99711H4.98535H4.97361H4.96189H4.95021H4.93855H4.92693H4.91533H4.90376H4.89222H4.8807H4.86922H4.85777H4.84635H4.83496H4.82359H4.81226H4.80096H4.7897H4.77846H4.76725H4.75608H4.74494H4.73383H4.72275H4.71171H4.7007H4.68972H4.67878H4.66787H4.65699H4.64615H4.63534H4.62457H4.61383H4.60313H4.59246H4.58183H4.57124H4.56068H4.55015H4.53966H4.52921H4.5188H4.50842H4.49809H4.48778H4.47752H4.4673H4.45711H4.44696H4.43685H4.42678C4.15064 13.9629 3.92678 13.7391 3.92678 13.4629V12.8009C1.90224 11.8032 0.496094 9.83527 0.496094 7.53986ZM7.19968 0.242996C7.53952 0.479804 7.62305 0.947272 7.38625 1.28712C7.31221 1.39336 7.29841 1.47907 7.32952 1.6219C7.371 1.8124 7.47766 2.02742 7.65002 2.35723L7.66818 2.39195C7.81623 2.67482 8.01793 3.06019 8.10676 3.46817C8.20967 3.94076 8.16986 4.47048 7.81506 4.97965C7.57825 5.31949 7.11078 5.40302 6.77093 5.16621C6.43109 4.9294 6.34756 4.46193 6.58437 4.12209C6.65841 4.01584 6.67221 3.93013 6.64111 3.78731C6.59963 3.59681 6.49297 3.38179 6.32061 3.05198L6.30244 3.01725C6.15439 2.73438 5.9527 2.34902 5.86386 1.94105C5.76095 1.46845 5.80076 0.93874 6.15555 0.429565C6.39236 0.0897192 6.85983 0.00618945 7.19968 0.242996ZM3.53346 1.28712C3.77027 0.947272 3.68674 0.479804 3.34689 0.242996C3.00705 0.00618945 2.53958 0.0897192 2.30277 0.429565C1.94797 0.93874 1.90817 1.46845 2.01108 1.94105C2.09991 2.34902 2.30161 2.73438 2.44966 3.01725L2.46783 3.05198C2.64019 3.38179 2.74684 3.59681 2.78832 3.78731C2.81942 3.93013 2.80562 4.01584 2.73159 4.12209C2.49478 4.46193 2.57831 4.9294 2.91815 5.16621C3.258 5.40302 3.72547 5.31949 3.96228 4.97965C4.31708 4.47048 4.35689 3.94076 4.25398 3.46817C4.16515 3.06019 3.96345 2.67482 3.8154 2.39195L3.79723 2.35723C3.62487 2.02742 3.51821 1.8124 3.47673 1.6219C3.44563 1.47907 3.45943 1.39336 3.53346 1.28712Z" fill="black"/>
</g>
<defs>
<clipPath id="clip0_1068_187321">
<rect width="14" height="14" fill="white"/>
</clipPath>
</defs>
</svg>
