<svg width="16" height="16" viewBox="0 0 16 16" fill="none" xmlns="http://www.w3.org/2000/svg">
<path d="M7.67531 3.59998H9.05531V12H7.67531V8.36398H4.07531V12H2.69531V3.59998H4.07531V7.04398H7.67531V3.59998Z" fill="#333333"/>
<path d="M10.1104 12V11.176L12.0224 9.20798C12.449 8.75998 12.6624 8.38664 12.6624 8.08798C12.6624 7.86931 12.593 7.69331 12.4544 7.55998C12.321 7.42664 12.1477 7.35998 11.9344 7.35998C11.513 7.35998 11.201 7.57864 10.9984 8.01598L10.0704 7.47198C10.2464 7.08798 10.4997 6.79464 10.8304 6.59198C11.161 6.38931 11.5237 6.28798 11.9184 6.28798C12.425 6.28798 12.8597 6.44798 13.2224 6.76798C13.585 7.08264 13.7664 7.50931 13.7664 8.04798C13.7664 8.62931 13.4597 9.22664 12.8464 9.83998L11.7504 10.936H13.8544V12H10.1104Z" fill="#333333"/>
</svg>
