<svg width="14" height="14" viewBox="0 0 14 14" fill="none" xmlns="http://www.w3.org/2000/svg">
<g clip-path="url(#clip0_1068_186890)">
<path fill-rule="evenodd" clip-rule="evenodd" d="M11.9786 0.299805C11.5222 0.299805 11.0845 0.481101 10.7618 0.803811L10.7608 0.804843L8.32409 3.27001L3.18518 0.894479C2.97406 0.793005 2.74443 0.73572 2.51037 0.726145C2.27561 0.716542 2.04136 0.755141 1.82209 0.839561C1.60282 0.92398 1.40317 1.05243 1.23546 1.21699C1.07069 1.37865 0.940182 1.5718 0.851664 1.7849C0.655443 2.16345 0.608576 2.6021 0.720663 3.0138C0.833834 3.42949 1.10061 3.7867 1.46706 4.01323L5.25799 6.34755L4.07496 7.53059H1.87851C1.87159 7.53059 1.86467 7.53087 1.85777 7.53145C1.43279 7.56683 1.03663 7.76065 0.74787 8.07446C0.459105 8.38826 0.298828 8.79914 0.298828 9.22559C0.298828 9.65204 0.459105 10.0629 0.74787 10.3767C1.03663 10.6905 1.43279 10.8843 1.85777 10.9197C1.86467 10.9203 1.87159 10.9206 1.87851 10.9206H3.07851V12.1206C3.07851 12.1275 3.0788 12.1344 3.07937 12.1413C3.11476 12.5663 3.30857 12.9624 3.62238 13.2512C3.93619 13.54 4.34706 13.7002 4.77351 13.7002C5.19996 13.7002 5.61084 13.54 5.92464 13.2512C6.23845 12.9624 6.43227 12.5663 6.46765 12.1413C6.46822 12.1344 6.46851 12.1275 6.46851 12.1206V9.92414L7.65154 8.74111L9.98563 12.5316C10.2121 12.8981 10.5697 13.1652 10.9853 13.2784C11.3973 13.3906 11.8363 13.3436 12.2151 13.147C12.4224 13.0592 12.6103 12.9313 12.7682 12.7707C12.9287 12.6073 13.0547 12.4134 13.1388 12.2004C13.2229 11.9873 13.2634 11.7596 13.2578 11.5306C13.2523 11.3017 13.2007 11.0762 13.1063 10.8675L13.1059 10.8665L10.7287 5.67547L13.1943 3.23839L13.1953 3.23736C13.518 2.91465 13.6993 2.47697 13.6993 2.02059C13.6993 1.56421 13.518 1.12652 13.1953 0.803811C12.8726 0.481101 12.4349 0.299805 11.9786 0.299805Z" fill="black"/>
</g>
<defs>
<clipPath id="clip0_1068_186890">
<rect width="14" height="14" fill="white"/>
</clipPath>
</defs>
</svg>
