<svg width="14" height="14" viewBox="0 0 14 14" fill="none" xmlns="http://www.w3.org/2000/svg">
<g clip-path="url(#clip0_1068_186893)">
<path fill-rule="evenodd" clip-rule="evenodd" d="M0.443091 0.439181C0.724294 0.157978 1.10568 0 1.50337 0H12.4974C12.8951 0 13.2765 0.157978 13.5577 0.439181C13.8389 0.720384 13.9969 1.10178 13.9969 1.49946V4.49783C13.998 6.53422 13.3815 8.52307 12.2286 10.2017C11.0757 11.8803 9.44043 13.1698 7.5394 13.8998C7.19235 14.0335 6.808 14.0334 6.46098 13.8996C4.55995 13.1697 2.92504 11.8803 1.77218 10.2017C0.619307 8.52307 0.0027376 6.53422 0.00390791 4.49783V1.49946C0.00390791 1.10178 0.161888 0.720384 0.443091 0.439181ZM9.95154 3.80754C9.63823 3.69665 9.30466 3.65474 8.97366 3.68467C8.64508 3.71439 8.32673 3.8142 8.04004 3.97735L4.94069 5.52702L4.46835 4.79586C4.41131 4.67881 4.31308 4.58651 4.19206 4.53699C4.06623 4.48552 3.92555 4.4843 3.79899 4.53339L2.97231 4.81447C2.84726 4.86056 2.74414 4.95208 2.68339 5.0707C2.62263 5.18931 2.6087 5.32644 2.64437 5.45486L2.64726 5.46528L3.39329 7.76063C3.464 7.96054 3.61092 8.12437 3.80191 8.2165C3.99219 8.30828 4.21092 8.32144 4.41078 8.2532L6.20209 7.67015L5.80314 8.98073C5.80051 8.98938 5.79834 8.99816 5.79666 9.00704C5.77866 9.10214 5.78581 9.2003 5.8174 9.29179C5.84899 9.38328 5.90393 9.46493 5.97677 9.52867C6.04961 9.59241 6.13783 9.63601 6.23271 9.65518C6.32758 9.67434 6.42581 9.6684 6.51768 9.63794L6.52533 9.6354L7.71439 9.19802C7.79966 9.17009 7.8768 9.12163 7.93898 9.05685C8.00059 8.99269 8.04559 8.91451 8.07017 8.82912L8.7705 6.77847L8.86199 6.75032L10.8018 6.18065C10.9037 6.1493 10.9985 6.09816 11.0807 6.03018C11.1628 5.9622 11.2308 5.8787 11.2807 5.78445C11.3306 5.69019 11.3614 5.58703 11.3715 5.48086C11.3815 5.37469 11.3705 5.26758 11.3391 5.16565C11.3374 5.15997 11.3354 5.15436 11.3333 5.14882C11.2131 4.83894 11.0275 4.55867 10.789 4.32718C10.5505 4.09569 10.2649 3.91843 9.95154 3.80754Z" fill="black"/>
</g>
<defs>
<clipPath id="clip0_1068_186893">
<rect width="14" height="14" fill="white"/>
</clipPath>
</defs>
</svg>
