<svg width="14" height="14" viewBox="0 0 14 14" fill="none" xmlns="http://www.w3.org/2000/svg">
<g clip-path="url(#clip0_1068_186916)">
<path fill-rule="evenodd" clip-rule="evenodd" d="M10.2127 2.53752C8.91903 1.6074 7.23449 1.24494 5.57696 1.68908C2.78152 2.43811 1.06874 5.21231 1.5948 8.0098C1.67134 8.41688 1.4034 8.80893 0.996318 8.88548C0.58924 8.96203 0.197182 8.69408 0.120633 8.28701C-0.549251 4.72465 1.62993 1.19377 5.18873 0.240189C7.38469 -0.348217 9.61568 0.176234 11.2842 1.46596L11.8965 0.853736C12.2114 0.538754 12.75 0.761838 12.75 1.20729V3.50018C12.75 3.77633 12.5262 4.00018 12.25 4.00018H9.95712C9.51167 4.00018 9.28858 3.46161 9.60357 3.14663L10.2127 2.53752ZM13.0041 5.11487C13.4111 5.03832 13.8032 5.30626 13.8797 5.71334C14.5496 9.2757 12.3705 12.8066 8.81165 13.7602C6.61562 14.3486 4.38455 13.8241 2.71598 12.5343L2.10362 13.1466C1.78863 13.4616 1.25006 13.2385 1.25006 12.7931V10.5002C1.25006 10.224 1.47392 10.0002 1.75006 10.0002H4.04296C4.48841 10.0002 4.71149 10.5387 4.39651 10.8537L3.78752 11.4627C5.08119 12.3929 6.76582 12.7554 8.42342 12.3113C11.2189 11.5622 12.9316 8.78804 12.4056 5.99055C12.329 5.58347 12.597 5.19142 13.0041 5.11487ZM3.95566 6.05191L3.24568 6.41712C3.18908 6.44807 3.1462 6.49918 3.12554 6.56029C3.10488 6.6214 3.10796 6.68804 3.13416 6.74699L4.11454 8.71829C4.17711 8.83635 4.2838 8.9249 4.41136 8.96466C4.53893 9.00441 4.67704 8.99214 4.7956 8.93052L6.40216 8.08144L6.52372 8.02518L6.27469 9.69393C6.27276 9.7426 6.28357 9.79093 6.30605 9.83414C6.32854 9.87735 6.36192 9.91393 6.40288 9.94028C6.44385 9.96662 6.49099 9.98181 6.53963 9.98434C6.58827 9.98687 6.63673 9.97666 6.68021 9.9547L7.90948 9.3426C7.9507 9.32264 7.98621 9.2926 8.01272 9.25527C8.03924 9.21794 8.05591 9.17452 8.06119 9.12903L8.44166 7.05868L8.62719 6.97L10.3044 6.19472C10.3653 6.16561 10.4199 6.12479 10.465 6.07458C10.5102 6.02438 10.545 5.96578 10.5674 5.90212C10.5899 5.83846 10.5997 5.771 10.5961 5.70358C10.5925 5.63617 10.5756 5.57012 10.5465 5.50921C10.4125 5.27361 10.2291 5.06974 10.009 4.91155C9.78893 4.75335 9.53725 4.64456 9.27122 4.59262C9.00518 4.54068 8.73107 4.54681 8.46762 4.6106C8.20417 4.67438 7.95761 4.79431 7.7448 4.96219L4.97589 6.90157L4.30464 6.13766C4.26921 6.08061 4.21285 6.03968 4.14763 6.02366C4.08241 6.00763 4.0135 6.01777 3.95566 6.05191Z" fill="black"/>
</g>
<defs>
<clipPath id="clip0_1068_186916">
<rect width="14" height="14" fill="white"/>
</clipPath>
</defs>
</svg>
