<svg width="14" height="14" viewBox="0 0 14 14" fill="none" xmlns="http://www.w3.org/2000/svg">
<path fill-rule="evenodd" clip-rule="evenodd" d="M2.5631 2.19703C2.73885 2.19629 2.90964 2.2553 3.04744 2.3644C3.1846 2.47298 3.28097 2.62475 3.32092 2.79501L3.32027 2.79244L3.07802 2.85421L3.32164 2.79809L3.32092 2.79501L3.80813 4.70562L8.93409 3.68043C9.54022 3.56156 10.1651 3.57771 10.7643 3.72775C11.3635 3.87778 11.9223 4.15801 12.4009 4.5485C12.8794 4.93898 13.2661 5.43013 13.5333 5.98701C13.8006 6.54389 13.9418 7.15282 13.947 7.77048V7.77258C13.947 8.12307 13.8078 8.45921 13.5599 8.70705C13.3121 8.95489 12.976 9.09412 12.6255 9.09412H8.0483L7.05037 10.6709L7.04954 10.6722C6.83332 11.0092 6.53599 11.2865 6.1848 11.4789C5.8336 11.6712 5.43934 11.7723 5.03894 11.773H3.86024H3.85827C3.7239 11.7719 3.59205 11.7364 3.47532 11.6698C3.35858 11.6033 3.26086 11.5079 3.1915 11.3928C3.12214 11.2778 3.08344 11.1468 3.07911 11.0125C3.0748 10.8787 3.10477 10.7459 3.16616 10.627L3.16567 10.6279L3.38877 10.7407L3.16679 10.6257L3.92513 9.12627H1.37427C1.02378 9.12627 0.687641 8.98703 0.439804 8.7392C0.191968 8.49136 0.0527344 8.15522 0.0527344 7.80473V2.9828C0.0527344 2.7744 0.135521 2.57454 0.282881 2.42718C0.430242 2.27981 0.630104 2.19703 0.838504 2.19703H2.5631Z" fill="black"/>
</svg>
