<svg width="14" height="14" viewBox="0 0 14 14" fill="none" xmlns="http://www.w3.org/2000/svg">
<g clip-path="url(#clip0_1068_186905)">
<path fill-rule="evenodd" clip-rule="evenodd" d="M6.25 2.28394C6.25 1.86972 6.58579 1.53394 7 1.53394C7.41421 1.53394 7.75 1.86972 7.75 2.28394C7.75 2.69815 7.41421 3.03394 7 3.03394C6.58579 3.03394 6.25 2.69815 6.25 2.28394ZM9.25 2.28394C9.25 3.2636 8.62389 4.09703 7.75 4.40591V5.27764H8.5C8.91421 5.27764 9.25 5.61343 9.25 6.02764C9.25 6.44186 8.91421 6.77764 8.5 6.77764H7.75V12.3898C8.73188 12.2328 9.64671 11.7702 10.3588 11.0581C11.0708 10.3461 11.5334 9.43124 11.6904 8.44937H11C10.5858 8.44937 10.25 8.11358 10.25 7.69937C10.25 7.28515 10.5858 6.94937 11 6.94937H12.5C12.6989 6.94937 12.8897 7.02838 13.0303 7.16904C13.171 7.30969 13.25 7.50045 13.25 7.69937C13.25 9.35697 12.5915 10.9467 11.4194 12.1188C10.2473 13.2909 8.6576 13.9494 7 13.9494C5.3424 13.9494 3.75269 13.2909 2.58058 12.1188C1.40848 10.9467 0.75 9.35697 0.75 7.69937C0.75 7.50045 0.829018 7.30969 0.96967 7.16904C1.11032 7.02838 1.30109 6.94937 1.5 6.94937H3C3.41421 6.94937 3.75 7.28515 3.75 7.69937C3.75 8.11358 3.41421 8.44937 3 8.44937H2.30956C2.46656 9.43124 2.9292 10.3461 3.64124 11.0581C4.35329 11.7702 5.26812 12.2328 6.25 12.3898V6.77764H5.5C5.08579 6.77764 4.75 6.44186 4.75 6.02764C4.75 5.61343 5.08579 5.27764 5.5 5.27764H6.25V4.40591C5.37611 4.09703 4.75 3.2636 4.75 2.28394C4.75 1.0413 5.75736 0.0339355 7 0.0339355C8.24264 0.0339355 9.25 1.0413 9.25 2.28394Z" fill="black"/>
</g>
<defs>
<clipPath id="clip0_1068_186905">
<rect width="14" height="14" fill="white"/>
</clipPath>
</defs>
</svg>
