<svg width="14" height="14" viewBox="0 0 14 14" fill="none" xmlns="http://www.w3.org/2000/svg">
<g clip-path="url(#clip0_1068_186919)">
<path fill-rule="evenodd" clip-rule="evenodd" d="M7 2.25C6.53587 2.25 6.09075 2.43437 5.76256 2.76256C5.5552 2.96993 5.40525 3.22397 5.32295 3.5H8.67705C8.59475 3.22397 8.4448 2.96993 8.23744 2.76256C7.90925 2.43437 7.46413 2.25 7 2.25ZM4.7019 1.7019C4.21669 2.18711 3.90075 2.80995 3.79207 3.47866C3.79454 3.50122 3.79581 3.52414 3.79581 3.54736V13.9526C3.79581 13.9686 3.79521 13.9844 3.79404 14H10.206C10.2048 13.9844 10.2042 13.9686 10.2042 13.9526V3.54736C10.2042 3.52414 10.2055 3.50123 10.2079 3.47866C10.0993 2.80995 9.78331 2.18711 9.2981 1.7019C8.6886 1.09241 7.86195 0.75 7 0.75C6.13805 0.75 5.3114 1.09241 4.7019 1.7019ZM11.4524 3.5C11.4536 3.51563 11.4542 3.53143 11.4542 3.54736V13.9526C11.4542 13.9686 11.4536 13.9844 11.4524 14H11.5C12.8807 14 14 12.8807 14 11.5V6C14 4.61929 12.8807 3.5 11.5 3.5H11.4524ZM2.5 3.5H2.54757C2.5464 3.51563 2.54581 3.53143 2.54581 3.54736V13.9526C2.54581 13.9686 2.5464 13.9844 2.54757 14H2.5C1.11929 14 0 12.8807 0 11.5V6C0 4.61929 1.11929 3.5 2.5 3.5Z" fill="black"/>
</g>
<defs>
<clipPath id="clip0_1068_186919">
<rect width="14" height="14" fill="white"/>
</clipPath>
</defs>
</svg>
