<svg width="14" height="14" viewBox="0 0 14 14" fill="none" xmlns="http://www.w3.org/2000/svg">
<g clip-path="url(#clip0_1068_186922)">
<path fill-rule="evenodd" clip-rule="evenodd" d="M7.33928 3.29116C7.32105 3.29598 7.30286 3.30104 7.28472 3.30633C6.78234 3.4528 6.34673 3.76979 6.05284 4.20277C5.82021 4.54549 5.3538 4.63474 5.01108 4.40211C4.66836 4.16948 4.57911 3.70307 4.81174 3.36035C5.30155 2.63873 6.02757 2.1104 6.86487 1.86629C7.07167 1.80599 7.28207 1.76397 7.49374 1.74007C7.11806 1.5331 6.68034 1.46411 6.25719 1.54743C5.85078 1.62745 5.45645 1.36287 5.37642 0.956457C5.29639 0.550047 5.56098 0.155714 5.96739 0.0756883C6.80406 -0.0890592 7.67206 0.0734436 8.39246 0.529703C8.84648 0.817246 9.22007 1.20765 9.48652 1.66402C9.99029 1.4757 10.5344 1.4035 11.0776 1.45842C11.9334 1.54493 12.7281 1.94089 13.3125 2.57195C13.594 2.87585 13.5758 3.35037 13.2719 3.63183C12.968 3.91328 12.4934 3.89507 12.212 3.59117C11.8759 3.22827 11.4189 3.00056 10.9268 2.95081L10.9214 2.95027C11.0572 3.09748 11.1803 3.25772 11.2886 3.42953C11.7449 4.15395 11.9019 5.02739 11.7263 5.86538C11.6414 6.27079 11.2438 6.53057 10.8384 6.44561C10.433 6.36066 10.1732 5.96314 10.2582 5.55773C10.354 5.10065 10.2684 4.62422 10.0194 4.22909C9.82057 3.91338 9.52985 3.66931 9.18963 3.52735C8.7627 3.81914 8.40343 4.29691 8.13053 4.95781C7.85873 5.61606 7.69026 6.41698 7.62676 7.29006C8.17406 7.42854 8.70498 7.65641 9.20636 7.96783C9.981 8.44898 10.6665 9.11771 11.2303 9.92836C10.9081 10.0148 10.5572 10.2005 10.3227 10.5715C10.2359 10.7087 10.147 10.8209 10.0601 10.91C9.68396 11.2952 9.02069 11.2952 8.64452 10.91C8.57049 10.8341 8.49484 10.7414 8.4202 10.6303C8.03306 10.0541 7.36458 9.92899 6.96828 9.92899C6.57197 9.92899 5.90349 10.0541 5.51636 10.6303C5.44171 10.7414 5.36606 10.8341 5.29203 10.91C4.91587 11.2952 4.25259 11.2952 3.87642 10.91C3.78951 10.8209 3.70057 10.7087 3.61379 10.5715C3.24275 9.98446 2.58037 9.86142 2.20124 9.86132C1.99572 9.86127 1.71044 9.89709 1.4326 10.0204C2.00811 9.16825 2.71591 8.46706 3.51967 7.96783C4.33222 7.46313 5.22236 7.17789 6.13403 7.13689C6.20886 6.15856 6.4032 5.21085 6.74408 4.38532C6.90464 3.99648 7.10153 3.62631 7.33928 3.29116ZM2.88949 11.4898C2.77072 11.2127 2.49758 11.0337 2.19611 11.0353C1.89465 11.0369 1.62345 11.2189 1.50767 11.4973C1.42261 11.7018 1.29306 11.8847 1.12844 12.0329C0.963821 12.181 0.768259 12.2907 0.555969 12.3538C0.158935 12.4719 -0.0672208 12.8894 0.050835 13.2864C0.168891 13.6835 0.586454 13.9096 0.983487 13.7916C1.40935 13.665 1.80165 13.445 2.13189 13.1478C2.15476 13.1272 2.17729 13.1063 2.19948 13.0851C2.37243 13.254 2.56537 13.4032 2.77506 13.529C3.82193 14.1572 5.34647 14.1572 6.39334 13.529C6.60276 13.4034 6.79547 13.2544 6.96825 13.0857C7.14103 13.2544 7.33374 13.4034 7.54316 13.529C8.59003 14.1572 10.1145 14.1572 11.1614 13.529C11.3711 13.4032 11.564 13.254 11.737 13.0851C11.7592 13.1063 11.7817 13.1272 11.8046 13.1478C12.1348 13.445 12.5271 13.665 12.953 13.7916C13.35 13.9096 13.7676 13.6835 13.8856 13.2864C14.0037 12.8894 13.7775 12.4719 13.3805 12.3538C13.1682 12.2907 12.9726 12.181 12.808 12.0329C12.6434 11.8847 12.5138 11.7018 12.4288 11.4973C12.313 11.2189 12.0418 11.0369 11.7403 11.0353C11.4389 11.0337 11.1657 11.2127 11.047 11.4898C10.9124 11.8037 10.6824 12.0671 10.3896 12.2428C9.81784 12.5859 8.88675 12.5859 8.3149 12.2428C8.02211 12.0671 7.79211 11.8037 7.65759 11.4898C7.53939 11.2141 7.26825 11.0353 6.96825 11.0353C6.66824 11.0353 6.3971 11.2141 6.27891 11.4898C6.14438 11.8037 5.91439 12.0671 5.62159 12.2428C5.04975 12.5859 4.11865 12.5859 3.54681 12.2428C3.25401 12.0671 3.02402 11.8037 2.88949 11.4898Z" fill="black"/>
</g>
<defs>
<clipPath id="clip0_1068_186922">
<rect width="14" height="14" fill="white"/>
</clipPath>
</defs>
</svg>
