<svg width="14" height="14" viewBox="0 0 14 14" fill="none" xmlns="http://www.w3.org/2000/svg">
<path fill-rule="evenodd" clip-rule="evenodd" d="M7.98481 4.14616C8.10138 3.97643 8.29408 3.875 8.5 3.875H11C11.3452 3.875 11.625 4.15482 11.625 4.5C11.625 4.84518 11.3452 5.125 11 5.125H9.41002L10.5759 8.15643C10.7155 8.13562 10.8572 8.125 11 8.125C11.7625 8.125 12.4938 8.4279 13.0329 8.96707C13.5721 9.50624 13.875 10.2375 13.875 11C13.875 11.7625 13.5721 12.4938 13.0329 13.0329C12.4938 13.5721 11.7625 13.875 11 13.875C10.2375 13.875 9.50623 13.5721 8.96707 13.0329C8.4279 12.4938 8.125 11.7625 8.125 11C8.125 10.591 8.21214 10.191 8.37615 9.82483L7.49121 10.8867C7.44552 10.9448 7.38868 10.9957 7.32156 11.0359C7.2397 11.085 7.15112 11.1132 7.06204 11.1221L5.8621 11.2721C5.79913 11.9347 5.50759 12.5583 5.03293 13.0329C4.49376 13.5721 3.7625 13.875 3 13.875C2.2375 13.875 1.50623 13.5721 0.967067 13.0329C0.427901 12.4938 0.125 11.7625 0.125 11C0.125 10.2375 0.427901 9.50624 0.967067 8.96707C1.50623 8.4279 2.2375 8.125 3 8.125C3.23606 8.125 3.46914 8.15404 3.69444 8.21012L4.24074 7.11602L3.64613 6.125H3C2.65482 6.125 2.375 5.84518 2.375 5.5C2.375 5.15482 2.65482 4.875 3 4.875H3.98855C3.99579 4.87487 4.00304 4.87487 4.01027 4.875H5.5C5.84518 4.875 6.125 5.15482 6.125 5.5C6.125 5.84518 5.84518 6.125 5.5 6.125H5.10387L5.48476 6.75983L5.49268 6.77301L7.08317 9.42383L8.89017 7.25551L7.91666 4.72436C7.84274 4.53217 7.86823 4.3159 7.98481 4.14616ZM10.4166 11.2244L9.87819 9.82435C9.86901 9.8331 9.85994 9.84197 9.85095 9.85095C9.5462 10.1557 9.375 10.569 9.375 11C9.375 11.431 9.5462 11.8443 9.85095 12.149C10.1557 12.4538 10.569 12.625 11 12.625C11.431 12.625 11.8443 12.4538 12.149 12.149C12.4538 11.8443 12.625 11.431 12.625 11C12.625 10.569 12.4538 10.1557 12.149 9.85095C11.8549 9.5568 11.4596 9.38706 11.0449 9.37562L11.5833 10.7756C11.7072 11.0978 11.5465 11.4594 11.2244 11.5833C10.9022 11.7073 10.5406 11.5465 10.4166 11.2244ZM9.404 8.59146L9.40927 8.60516C9.39647 8.61366 9.38373 8.62227 9.37106 8.63098L9.404 8.59146ZM5.00331 8.38696L4.5643 9.26617L4.08053 10.2351L5.15476 10.1008L5.97041 9.9988L5.00331 8.38696ZM4.56594 11.4341L3.07753 11.6202C2.84887 11.6488 2.62304 11.5492 2.48989 11.3611C2.35674 11.173 2.33789 10.927 2.44083 10.7208L3.11091 9.37879C3.07411 9.37627 3.03712 9.375 3 9.375C2.56902 9.375 2.1557 9.5462 1.85095 9.85095C1.5462 10.1557 1.375 10.569 1.375 11C1.375 11.431 1.5462 11.8443 1.85095 12.149C2.1557 12.4538 2.56902 12.625 3 12.625C3.43097 12.625 3.8443 12.4538 4.14905 12.149C4.34913 11.949 4.49165 11.7021 4.56594 11.4341Z" fill="black"/>
</svg>
