<svg width="14" height="14" viewBox="0 0 14 14" fill="none" xmlns="http://www.w3.org/2000/svg">
<g clip-path="url(#clip0_1068_186913)">
<path fill-rule="evenodd" clip-rule="evenodd" d="M5.8346 4.07702C5.12525 4.07702 4.55021 4.65206 4.55021 5.36141V10.3289H3.92561C2.70211 10.3289 1.87198 11.5731 2.34174 12.7028L2.88113 14H10.886V10.9137C10.886 9.49269 9.73399 8.34071 8.31296 8.34071H7.11899V5.36141C7.11899 4.65206 6.54395 4.07702 5.8346 4.07702ZM5.79513 0.583496C6.31794 0.583496 6.74176 1.00732 6.74176 1.53013C6.74176 2.05294 6.31794 2.47675 5.79513 2.47675C5.27233 2.47675 4.84851 2.05294 4.84851 1.53013C4.84851 1.00732 5.27233 0.583496 5.79513 0.583496ZM9.46786 3.91016C9.99067 3.91016 10.4145 4.33398 10.4145 4.85679C10.4145 5.3796 9.99067 5.80341 9.46786 5.80341C8.94506 5.80341 8.52124 5.3796 8.52124 4.85679C8.52124 4.33398 8.94506 3.91016 9.46786 3.91016ZM12.1554 3.91016C12.6782 3.91016 13.102 4.33398 13.102 4.85679C13.102 5.3796 12.6782 5.80341 12.1554 5.80341C11.6325 5.80341 11.2087 5.3796 11.2087 4.85679C11.2087 4.33398 11.6325 3.91016 12.1554 3.91016ZM1.84506 5.80341C1.32225 5.80341 0.898438 5.3796 0.898438 4.85679C0.898438 4.33398 1.32225 3.91016 1.84506 3.91016C2.36787 3.91016 2.79169 4.33398 2.79169 4.85679C2.79169 5.3796 2.36787 5.80341 1.84506 5.80341ZM1.84506 9.1131C1.32225 9.1131 0.898438 8.68929 0.898438 8.16647C0.898438 7.64366 1.32225 7.21985 1.84506 7.21985C2.36787 7.21985 2.79169 7.64366 2.79169 8.16647C2.79169 8.68929 2.36787 9.1131 1.84506 9.1131ZM1.84506 0.583496C2.36787 0.583496 2.79169 1.00732 2.79169 1.53013C2.79169 2.05294 2.36787 2.47675 1.84506 2.47675C1.32225 2.47675 0.898438 2.05294 0.898438 1.53013C0.898438 1.00732 1.32225 0.583496 1.84506 0.583496ZM12.1554 0.583496C12.6782 0.583496 13.102 1.00732 13.102 1.53013C13.102 2.05294 12.6782 2.47675 12.1554 2.47675C11.6325 2.47675 11.2087 2.05294 11.2087 1.53013C11.2087 1.00732 11.6325 0.583496 12.1554 0.583496Z" fill="black"/>
</g>
<defs>
<clipPath id="clip0_1068_186913">
<rect width="14" height="14" fill="white"/>
</clipPath>
</defs>
</svg>
