<svg width="14" height="14" viewBox="0 0 14 14" fill="none" xmlns="http://www.w3.org/2000/svg">
<g clip-path="url(#clip0_1068_186934)">
<path fill-rule="evenodd" clip-rule="evenodd" d="M2.49609 1.74604C2.49609 1.63267 2.58799 1.54077 2.70136 1.54077H11.2988C11.4122 1.54077 11.5041 1.63267 11.5041 1.74604V6.00001H2.49609V1.74604ZM13.0041 10.8211C13.0041 11.6229 12.4507 12.2954 11.7051 12.4776V12.9912C11.7051 13.5434 11.2574 13.9912 10.7051 13.9912C10.1528 13.9912 9.70508 13.5434 9.70508 12.9912V12.5264H4.29504V12.9912C4.29504 13.5434 3.84733 13.9912 3.29504 13.9912C2.74276 13.9912 2.29504 13.5434 2.29504 12.9912V12.4776C1.54942 12.2954 0.996094 11.6229 0.996094 10.8211V1.74604C0.996094 0.804246 1.75957 0.0407715 2.70136 0.0407715H11.2988C12.2406 0.0407715 13.0041 0.804246 13.0041 1.74604V10.8211ZM4.00006 10C4.55234 10 5.00006 9.55228 5.00006 9C5.00006 8.44772 4.55234 8 4.00006 8C3.44778 8 3.00006 8.44772 3.00006 9C3.00006 9.55228 3.44778 10 4.00006 10ZM10.0001 10C10.5524 10 11.0001 9.55228 11.0001 9C11.0001 8.44772 10.5524 8 10.0001 8C9.44778 8 9.00006 8.44772 9.00006 9C9.00006 9.55228 9.44778 10 10.0001 10Z" fill="black"/>
</g>
<defs>
<clipPath id="clip0_1068_186934">
<rect width="14" height="14" fill="white"/>
</clipPath>
</defs>
</svg>
