<svg width="14" height="14" viewBox="0 0 14 14" fill="none" xmlns="http://www.w3.org/2000/svg">
<g clip-path="url(#clip0_1068_186940)">
<path fill-rule="evenodd" clip-rule="evenodd" d="M4.66844 0.130659C5.01512 -0.0960186 5.47992 0.00126553 5.7066 0.347949L6.99934 2.32509L8.29209 0.347949C8.51876 0.00126553 8.98357 -0.0960186 9.33025 0.130659C9.67694 0.357337 9.77422 0.82214 9.54754 1.16883L7.89543 3.69558L13.8686 12.831C14.0193 13.0615 14.0315 13.3561 13.9005 13.5983C13.7695 13.8405 13.5162 13.9914 13.2408 13.9914H7.99933V10.9722C7.99933 10.4199 7.55161 9.97222 6.99933 9.97222C6.44705 9.97222 5.99933 10.4199 5.99933 10.9722V13.9914H0.757814C0.482418 13.9914 0.229174 13.8405 0.0981438 13.5983C-0.0328864 13.3561 -0.0206238 13.0615 0.130087 12.831L6.10325 3.69558L4.45115 1.16883C4.22447 0.82214 4.32175 0.357337 4.66844 0.130659Z" fill="black"/>
</g>
<defs>
<clipPath id="clip0_1068_186940">
<rect width="14" height="14" fill="white"/>
</clipPath>
</defs>
</svg>
