<svg width="14" height="14" viewBox="0 0 14 14" fill="none" xmlns="http://www.w3.org/2000/svg">
<path fill-rule="evenodd" clip-rule="evenodd" d="M5.5115 3.91703C6.59315 3.91703 7.47001 3.04018 7.47001 1.95852C7.47001 0.876858 6.59315 0 5.5115 0C4.42984 0 3.55297 0.876858 3.55297 1.95852C3.55297 3.04018 4.42984 3.91703 5.5115 3.91703ZM9.61788 9.27144C9.59693 9.03339 9.77292 8.82343 10.011 8.80248C10.2047 8.78543 10.386 8.89975 10.4542 9.08191L11.8654 12.8545C12.0105 13.2425 12.4427 13.4393 12.8307 13.2942C13.2186 13.1491 13.4155 12.7169 13.2703 12.329L11.8591 8.55637C11.5547 7.7427 10.7449 7.2321 9.87947 7.30826C8.81618 7.40184 8.03008 8.33966 8.12365 9.40295L8.1801 10.0443C8.21641 10.4569 8.58035 10.7619 8.99297 10.7256C9.40559 10.6893 9.71063 10.3254 9.67432 9.91275L9.61788 9.27144ZM4.16633 4.55082C4.50094 4.46785 4.85471 4.56308 5.10244 4.80283C5.78562 5.46397 6.54501 5.96309 7.76053 5.83514C8.30978 5.77732 8.80191 6.17571 8.85972 6.72496C8.91754 7.27421 8.51916 7.76633 7.9699 7.82415C6.69372 7.95849 5.70119 7.64636 4.91692 7.18126L4.75092 7.68954L6.2713 8.78391C6.65953 9.06337 6.93475 9.47272 7.04703 9.93772L7.63118 12.357C7.76081 12.8939 7.43068 13.4342 6.89382 13.5638C6.35696 13.6934 5.81667 13.3633 5.68705 12.8264L5.10289 10.4071L4.09933 9.68476L3.04851 12.9024C2.87706 13.4274 2.31248 13.714 1.78748 13.5425C1.26248 13.3711 0.975882 12.8065 1.14733 12.2815L3.45642 5.21098C3.56344 4.88327 3.83172 4.6338 4.16633 4.55082Z" fill="black"/>
</svg>
