<svg width="14" height="14" viewBox="0 0 14 14" fill="none" xmlns="http://www.w3.org/2000/svg">
<g clip-path="url(#clip0_1068_186928)">
<path fill-rule="evenodd" clip-rule="evenodd" d="M7.05877 0.015625C7.47299 0.015625 7.80877 0.351411 7.80877 0.765625V1.46812C9.79842 1.82238 11.309 3.56101 11.309 5.65245V5.72979L7.61693 3.62002C7.27107 3.42239 6.84648 3.42239 6.50062 3.62002L2.80841 5.72986V5.65245C2.80841 3.56097 4.31907 1.82231 6.30877 1.4681V0.765625C6.30877 0.351411 6.64456 0.015625 7.05877 0.015625ZM0.856201 9.33098H1.20257V12.4788H1.10156C0.687349 12.4788 0.351562 12.8146 0.351562 13.2288C0.351562 13.643 0.687349 13.9788 1.10156 13.9788H13.016C13.4302 13.9788 13.766 13.643 13.766 13.2288C13.766 12.8146 13.4302 12.4788 13.016 12.4788H12.9148V9.33098H13.2613C13.488 9.33098 13.6864 9.17844 13.7446 8.95932C13.8028 8.7402 13.7062 8.50935 13.5094 8.39686L7.30685 4.85253C7.15313 4.76469 6.96442 4.76469 6.81071 4.85253L0.608131 8.39686C0.411286 8.50935 0.31476 8.7402 0.372951 8.95932C0.431141 9.17844 0.629485 9.33098 0.856201 9.33098ZM2.70257 12.4788V9.33098H3.75567V12.4788H2.70257ZM5.25567 12.4788V9.33098H6.30871V12.4788H5.25567ZM7.80871 12.4788V9.33098H8.86181V12.4788H7.80871ZM10.3618 12.4788V9.33098H11.4148V12.4788H10.3618Z" fill="black"/>
</g>
<defs>
<clipPath id="clip0_1068_186928">
<rect width="14" height="14" fill="white"/>
</clipPath>
</defs>
</svg>
