<svg width="14" height="14" viewBox="0 0 14 14" fill="none" xmlns="http://www.w3.org/2000/svg">
<path d="M10.4991 13.2526C9.67009 13.2526 8.99805 12.5805 8.99805 11.7515C8.99805 10.9225 9.67009 10.2505 10.4991 10.2505C11.3282 10.2505 12.0002 10.9225 12.0002 11.7515C12.0002 12.5805 11.3282 13.2526 10.4991 13.2526Z" fill="black"/>
<path d="M3.49911 13.2526C2.6701 13.2526 1.99805 12.5805 1.99805 11.7515C1.99805 10.9225 2.6701 10.2505 3.49911 10.2505C4.32812 10.2505 5.00017 10.9225 5.00017 11.7515C5.00017 12.5805 4.32812 13.2526 3.49911 13.2526Z" fill="black"/>
<path fill-rule="evenodd" clip-rule="evenodd" d="M7 1.25C6.58579 1.25 6.25 1.58579 6.25 2V3.50002H4.78172C4.45951 3.48629 4.14131 3.57678 3.87441 3.75827C3.60355 3.94245 3.40043 4.21023 3.29606 4.5207L3.29545 4.52252L2.63913 6.50002H1.5C1.10217 6.50002 0.720644 6.65805 0.43934 6.93936C0.158035 7.22066 0 7.60219 0 8.00002V10C0 10.3978 0.158035 10.7794 0.43934 11.0607C0.603999 11.2253 0.802997 11.3478 1.0195 11.421C1.18121 10.1959 2.22965 9.25037 3.49892 9.25037C4.79537 9.25037 5.86142 10.2368 5.98751 11.5H8.01035C8.13644 10.2368 9.20249 9.25037 10.4989 9.25037C11.7684 9.25037 12.817 10.1962 12.9784 11.4217C13.1957 11.3485 13.3955 11.2259 13.5607 11.0607C13.842 10.7794 14 10.3978 14 10V8.00002C14 7.60219 13.842 7.22066 13.5607 6.93936C13.2794 6.65805 12.8978 6.50002 12.5 6.50002H10.8684L10.2575 4.53182L10.2541 4.52065C10.1498 4.21017 9.94644 3.94245 9.67559 3.75827C9.40869 3.57678 9.09049 3.48629 8.76828 3.50002H7.75V2C7.75 1.58579 7.41421 1.25 7 1.25Z" fill="black"/>
</svg>
