<svg width="14" height="14" viewBox="0 0 14 14" fill="none" xmlns="http://www.w3.org/2000/svg">
<path fill-rule="evenodd" clip-rule="evenodd" d="M1.5 2C1.5 1.72386 1.72386 1.5 2 1.5H5C5.27614 1.5 5.5 1.72386 5.5 2V3.5H8.5V2C8.5 1.72386 8.72386 1.5 9 1.5H12C12.2761 1.5 12.5 1.72386 12.5 2V3.5C13.3284 3.5 14 4.17157 14 5V12.5C14 13.3284 13.3284 14 12.5 14H1.5C0.671573 14 0 13.3284 0 12.5V5C0 4.17157 0.671573 3.5 1.5 3.5V2ZM7.94638 6.61962C8.16201 6.35008 8.11831 5.95678 7.84877 5.74114C7.57923 5.52551 7.18592 5.56921 6.97029 5.83875L5.13696 8.13042C4.98687 8.31803 4.95761 8.57506 5.06169 8.7916C5.16576 9.00814 5.38475 9.14585 5.625 9.14585H7.20718L6.02164 10.9242C5.83016 11.2114 5.90777 11.5994 6.19498 11.7909C6.48218 11.9824 6.87023 11.9047 7.0617 11.6175L8.89503 8.86754C9.02289 8.67576 9.03481 8.42917 8.92605 8.22594C8.81728 8.02272 8.6055 7.89585 8.375 7.89585H6.92539L7.94638 6.61962Z" fill="black"/>
</svg>
