<svg width="14" height="14" viewBox="0 0 14 14" fill="none" xmlns="http://www.w3.org/2000/svg">
<g clip-path="url(#clip0_1068_186899)">
<path fill-rule="evenodd" clip-rule="evenodd" d="M6.99976 0.0505371C6.80084 0.0505371 6.61007 0.12956 6.46942 0.27022C6.32876 0.41088 6.24975 0.601655 6.24976 0.800574L6.24987 3.1054L2.96317 5.26984C2.77871 5.39131 2.69581 5.61941 2.75921 5.83097L2.75984 5.83304H11.4039L11.4045 5.83097C11.4679 5.61941 11.385 5.39131 11.2006 5.26984L7.74987 2.99743L7.7498 1.55054H8.37094C8.78515 1.55054 9.12094 1.21475 9.12094 0.800537C9.12094 0.386324 8.78515 0.0505371 8.37094 0.0505371H6.99976ZM13.2418 8.55914H13.0461V12.4936H13.2418C13.656 12.4936 13.9918 12.8294 13.9918 13.2436C13.9918 13.6578 13.656 13.9936 13.2418 13.9936H0.921875C0.507662 13.9936 0.171875 13.6578 0.171875 13.2436C0.171875 12.8294 0.507662 12.4936 0.921875 12.4936H1.11774V8.55914H0.921875C0.507662 8.55914 0.171875 8.22336 0.171875 7.80914C0.171875 7.39493 0.507662 7.05914 0.921875 7.05914H13.2418C13.656 7.05914 13.9918 7.39493 13.9918 7.80914C13.9918 8.22336 13.656 8.55914 13.2418 8.55914ZM11.1356 8.55914H9.88556V12.4936H11.1356V8.55914ZM4.11396 8.55914H2.86396V12.4936H4.11396V8.55914ZM7.95679 12.4936V10.3832C7.95679 9.86913 7.54005 9.45239 7.02597 9.45239C6.5119 9.45239 6.09516 9.86913 6.09516 10.3832V12.4936H7.95679Z" fill="black"/>
</g>
<defs>
<clipPath id="clip0_1068_186899">
<rect width="14" height="14" fill="white"/>
</clipPath>
</defs>
</svg>
