<svg width="14" height="14" viewBox="0 0 14 14" fill="none" xmlns="http://www.w3.org/2000/svg">
<path fill-rule="evenodd" clip-rule="evenodd" d="M11.2945 1.06524C12.2028 0.810179 13.04 1.64747 12.785 2.55569L10.6927 10.0055C10.5788 10.4113 10.2617 10.7284 9.8559 10.8424L2.40603 12.9346C1.49781 13.1897 0.660518 12.3524 0.915585 11.4441L3.00782 3.99433C3.12178 3.58855 3.43889 3.27145 3.84467 3.15749L11.2945 1.06524ZM8.48761 5.51204C7.66585 4.69029 6.33353 4.69029 5.51177 5.51204C4.69002 6.3338 4.69002 7.66612 5.51177 8.48788C6.33353 9.30963 7.66585 9.30963 8.48761 8.48788C9.30936 7.66612 9.30936 6.3338 8.48761 5.51204Z" fill="black"/>
</svg>
