<svg width="14" height="14" viewBox="0 0 14 14" fill="none" xmlns="http://www.w3.org/2000/svg">
<path fill-rule="evenodd" clip-rule="evenodd" d="M10.6893 2.03072C10.6893 3.15226 9.78011 4.06144 8.65857 4.06144C7.53704 4.06144 6.62785 3.15226 6.62785 2.03072C6.62785 0.909185 7.53704 0 8.65857 0C9.78011 0 10.6893 0.909185 10.6893 2.03072ZM11.1715 5.90257C11.838 6.56903 12.2124 7.47294 12.2124 8.41546V9.4385C12.2124 9.71464 11.9885 9.9385 11.7124 9.9385H10.6893L10.2364 13.562C10.2051 13.8122 9.99242 13.9999 9.74026 13.9999H7.57696C7.32479 13.9999 7.11209 13.8122 7.08082 13.562L6.6437 10.065V8.77678C7.17303 8.47585 7.53005 7.90681 7.53005 7.25439C7.53005 6.52334 7.08178 5.89699 6.44512 5.6352C7.07108 5.13683 7.85066 4.86169 8.65861 4.86169C9.60112 4.86169 10.505 5.23611 11.1715 5.90257ZM1.17578 7.25439C1.17578 6.90922 1.4556 6.62939 1.80078 6.62939H2.68859H4.90629H5.79263C6.13781 6.62939 6.41763 6.90922 6.41763 7.25439C6.41763 7.59957 6.13781 7.87939 5.79263 7.87939H5.53129V10.1021C5.53129 10.8444 5.06486 11.4777 4.40911 11.725V12.7437H4.46147C4.80665 12.7437 5.08647 13.0235 5.08647 13.3687C5.08647 13.7138 4.80665 13.9937 4.46147 13.9937H3.13085C2.78568 13.9937 2.50585 13.7138 2.50585 13.3687C2.50585 13.0235 2.78568 12.7437 3.13085 12.7437H3.15911V11.7147C2.51742 11.4604 2.06359 10.8343 2.06359 10.1021V7.87939H1.80078C1.4556 7.87939 1.17578 7.59957 1.17578 7.25439ZM3.31359 7.87939V10.1021C3.31359 10.3693 3.53022 10.5859 3.79744 10.5859C4.06466 10.5859 4.28129 10.3693 4.28129 10.1021V7.87939H3.31359Z" fill="black"/>
</svg>
