<svg width="14" height="14" viewBox="0 0 14 14" fill="none" xmlns="http://www.w3.org/2000/svg">
<g clip-path="url(#clip0_1068_186943)">
<path fill-rule="evenodd" clip-rule="evenodd" d="M6.21855 0.226033C6.4541 0.0820473 6.72481 0.00585938 7.00088 0.00585938C7.27695 0.00585938 7.54767 0.0820473 7.78321 0.226033C8.01876 0.370019 8.21 0.576216 8.33588 0.821919L8.33812 0.826281L13.8374 11.8249C13.9522 12.0531 14.0072 12.3075 13.9965 12.5627C13.9858 12.8182 13.91 13.0667 13.7762 13.2846C13.6425 13.5025 13.4552 13.6826 13.2323 13.8078C13.0093 13.933 12.7581 13.9991 12.5024 13.9999H12.5009H1.50088H1.49937C1.24367 13.9991 0.992417 13.933 0.769467 13.8078C0.546516 13.6826 0.35927 13.5025 0.225512 13.2846C0.091753 13.0667 0.0159223 12.8182 0.00522075 12.5627C-0.0054683 12.3075 0.0491743 12.0538 0.163964 11.8257L5.66586 0.821908C5.79174 0.576205 5.983 0.370019 6.21855 0.226033ZM7.90893 5.87812C8.15335 5.54371 8.08041 5.07447 7.746 4.83005C7.41159 4.58562 6.94235 4.65857 6.69793 4.99297L4.67575 7.75957C4.5091 7.98758 4.48465 8.28987 4.61251 8.54169C4.74036 8.7935 4.99883 8.95215 5.28125 8.95215H7.24129L6.0908 10.5262C5.84637 10.8606 5.91931 11.3298 6.25372 11.5742C6.58813 11.8187 7.05737 11.7457 7.30179 11.4113L9.32397 8.64472C9.49062 8.41672 9.51507 8.11443 9.38721 7.86261C9.25936 7.6108 9.00089 7.45215 8.71847 7.45215H6.75843L7.90893 5.87812Z" fill="black"/>
</g>
<defs>
<clipPath id="clip0_1068_186943">
<rect width="14" height="14" fill="white"/>
</clipPath>
</defs>
</svg>
