<svg width="14" height="14" viewBox="0 0 14 14" fill="none" xmlns="http://www.w3.org/2000/svg">
<g clip-path="url(#clip0_1068_186964)">
<path fill-rule="evenodd" clip-rule="evenodd" d="M1.50195 6.99993C1.50195 3.96362 3.96337 1.5022 6.99968 1.5022C7.7833 1.5022 8.52864 1.66615 9.20323 1.96161V2.23807C9.20323 2.68362 9.02625 3.11092 8.71119 3.42597C8.39614 3.74102 7.96884 3.91802 7.52329 3.91802C7.29792 3.91789 7.07484 3.96312 6.86731 4.05099C6.65979 4.13887 6.47206 4.26761 6.31532 4.42953C6.15857 4.59146 6.03602 4.78327 5.95493 4.99354C5.87385 5.20382 5.8359 5.42826 5.84335 5.6535V7.04188C5.84335 7.2625 5.79989 7.48095 5.71547 7.68477C5.63104 7.88859 5.50731 8.07379 5.35131 8.22978C5.1953 8.38578 5.01012 8.50953 4.80629 8.59395C4.60247 8.67838 4.38402 8.72183 4.1634 8.72183H2.46957H1.77699C1.59852 8.18019 1.50195 7.60134 1.50195 6.99993ZM9.71375 11.7821C10.897 11.1091 11.806 10.0097 12.2318 8.69305L12.0958 8.59334C11.6574 8.36677 11.1723 8.24549 10.6788 8.23911H8.80647C8.42286 8.27394 8.06614 8.45095 7.8064 8.73537C7.54664 9.01978 7.40261 9.39105 7.40261 9.77623C7.40261 10.1614 7.54664 10.5326 7.8064 10.817C8.06614 11.1015 8.42286 11.2785 8.80647 11.3133C8.95041 11.3116 9.09325 11.3385 9.22672 11.3925C9.36018 11.4464 9.48162 11.5263 9.58399 11.6275C9.63206 11.675 9.67548 11.7268 9.71375 11.7821ZM6.99968 0.00219727C3.13494 0.00219727 0.00195312 3.13519 0.00195312 6.99993C0.00195312 10.8646 3.13494 13.9976 6.99968 13.9976C10.8644 13.9976 13.9974 10.8646 13.9974 6.99993C13.9974 3.13519 10.8644 0.00219727 6.99968 0.00219727Z" fill="black"/>
</g>
<defs>
<clipPath id="clip0_1068_186964">
<rect width="14" height="14" fill="white"/>
</clipPath>
</defs>
</svg>
