<svg width="14" height="14" viewBox="0 0 14 14" fill="none" xmlns="http://www.w3.org/2000/svg">
<g clip-path="url(#clip0_1068_186952)">
<path fill-rule="evenodd" clip-rule="evenodd" d="M12.6995 1.16256L13.7711 1.52692C13.8461 1.55714 13.909 1.61145 13.9497 1.68129C13.9905 1.75114 14.0068 1.83256 13.9962 1.91272L13.0317 4.88121C12.9685 5.0598 12.8373 5.20619 12.6667 5.28848C12.4961 5.37078 12.2999 5.38232 12.1208 5.32059L9.38809 4.43111H9.20591L9.48454 5.77068C9.49522 5.83774 9.4885 5.90641 9.46503 5.97012C9.44156 6.03383 9.40212 6.09045 9.35049 6.13455C9.29887 6.17865 9.23678 6.20875 9.17018 6.22197C9.10358 6.23519 9.03471 6.23109 8.97015 6.21006L7.70559 5.80283C7.64364 5.78342 7.58759 5.74869 7.54263 5.70186C7.49767 5.65503 7.46526 5.59761 7.44839 5.53492L6.92328 3.73453L6.64465 3.63809L3.84763 2.73789C3.74798 2.71281 3.65477 2.66693 3.57411 2.60328C3.49345 2.53962 3.42716 2.45963 3.37959 2.36855C3.33203 2.27747 3.30426 2.17736 3.29812 2.07479C3.29198 1.97222 3.30759 1.86951 3.34395 1.7734C3.47585 1.40293 3.688 1.0662 3.96522 0.78729C4.24245 0.508381 4.57789 0.294192 4.94755 0.160049C5.31721 0.0259061 5.71195 -0.0248749 6.10353 0.0113394C6.49511 0.0475537 6.87384 0.169868 7.21263 0.369531L11.4992 2.51285L12.2815 1.30187C12.3264 1.23621 12.3916 1.18705 12.4671 1.16189C12.5425 1.13674 12.6242 1.13697 12.6995 1.16256ZM0.00976562 8.32049C0.00976562 6.28347 1.08606 4.49783 2.70099 3.50123C2.73295 3.53002 2.76589 3.55781 2.79975 3.58454C3.00559 3.74697 3.24152 3.86677 3.49377 3.93715L4.61188 4.297C2.82678 4.76461 1.50977 6.38875 1.50977 8.32049C1.50977 8.79415 1.58895 9.2493 1.73479 9.67345H2.10931H3.44018C3.61352 9.67345 3.78516 9.63931 3.94531 9.57298C4.10546 9.50665 4.25097 9.40942 4.37354 9.28685C4.49611 9.16428 4.59334 9.01876 4.65967 8.85862C4.726 8.69847 4.76015 8.52683 4.76015 8.35349V7.26261C4.75429 7.08563 4.78411 6.90929 4.84782 6.74407C4.91152 6.57886 5.00782 6.42815 5.13098 6.30092C5.25414 6.17369 5.40164 6.07254 5.5647 6.00349C5.72775 5.93445 5.90304 5.89891 6.08011 5.89901C6.13697 5.89901 6.19346 5.89534 6.24925 5.88813C6.32274 6.14286 6.45709 6.37606 6.6409 6.56752C6.82999 6.7645 7.06536 6.91098 7.32552 6.99365L8.58297 7.39859L8.58561 7.39944C8.85292 7.48603 9.13797 7.50277 9.41361 7.44804C9.69015 7.39313 9.94797 7.26814 10.1623 7.08501C10.3767 6.90189 10.5405 6.66679 10.6379 6.40223C10.6654 6.32756 10.6874 6.25125 10.7038 6.17391L10.9368 6.24976C11.1891 6.89109 11.3277 7.58961 11.3277 8.32049C11.3277 11.4459 8.79408 13.9795 5.66873 13.9795C2.54337 13.9795 0.00976562 11.4459 0.00976562 8.32049ZM6.00453 12.4661C7.33865 12.3595 8.49527 11.6233 9.17717 10.5548L9.07768 10.4819C8.73324 10.3038 8.35206 10.2085 7.96437 10.2035H6.4932C6.1918 10.2309 5.91152 10.37 5.70743 10.5935C5.50333 10.8169 5.39017 11.1086 5.39017 11.4113C5.39017 11.7139 5.50333 12.0056 5.70743 12.2291C5.79412 12.324 5.89456 12.4037 6.00453 12.4661Z" fill="black"/>
</g>
<defs>
<clipPath id="clip0_1068_186952">
<rect width="14" height="14" fill="white"/>
</clipPath>
</defs>
</svg>
