<svg width="14" height="14" viewBox="0 0 14 14" fill="none" xmlns="http://www.w3.org/2000/svg">
<g clip-path="url(#clip0_1068_186961)">
<path fill-rule="evenodd" clip-rule="evenodd" d="M4.71429 1.4851C4.71429 0.701307 5.34968 0.065918 6.13347 0.065918H12.5677C13.3515 0.065918 13.9869 0.701307 13.9869 1.4851V12.5152C13.9869 13.299 13.3515 13.9344 12.5677 13.9344H7.66557C7.74331 13.7209 7.78571 13.4905 7.78571 13.2501V11.4322C7.78571 11.3493 7.78228 11.2668 7.77551 11.1848C7.94979 11.2162 8.12765 11.2323 8.30718 11.2323H9.67856C10.7831 11.2323 11.6785 10.3368 11.6785 9.23227C11.6785 8.3224 11.0709 7.55445 10.2394 7.312C10.8021 6.7864 11.154 6.03778 11.154 5.20698C11.154 3.61656 9.86466 2.32727 8.27424 2.32727C6.98386 2.32727 5.8917 3.17599 5.52555 4.34566C5.26778 4.23628 4.99478 4.16301 4.71429 4.12906V1.4851ZM6.64453 5.20698C6.64453 4.30691 7.37418 3.57727 8.27424 3.57727C9.1743 3.57727 9.90395 4.30691 9.90395 5.20698C9.90395 6.10704 9.1743 6.83669 8.27424 6.83669C7.37418 6.83669 6.64453 6.10704 6.64453 5.20698ZM6.72667 6.82781L6.72912 6.83027L8.21956 8.32071C8.243 8.34415 8.27479 8.35732 8.30795 8.35732L9.67933 8.3573C10.1626 8.35729 10.5543 8.74903 10.5543 9.23228C10.5543 9.71553 10.1626 10.1073 9.67936 10.1073H8.30797C7.81068 10.1073 7.33376 9.90978 6.98212 9.55814L6.10795 8.68397L5.39852 9.3934L6.11153 10.1064C6.46316 10.458 6.6607 10.9349 6.6607 11.4322V12.9999C6.6607 13.4831 6.26895 13.8749 5.7857 13.8749C5.30245 13.8749 4.9107 13.4831 4.9107 12.9999V11.4322C4.9107 11.3991 4.89753 11.3673 4.87409 11.3438L4.14883 10.6186C3.82459 10.8647 3.42686 11.0001 3.01517 11.0001H1C0.516751 11.0001 0.125 10.6083 0.125 10.1251C0.125 9.64185 0.516751 9.2501 1 9.2501H3.01517C3.04832 9.2501 3.08011 9.23693 3.10356 9.21349L4.87051 7.44654L4.44291 7.01893C4.41947 6.99549 4.38767 6.98232 4.35452 6.98232L2.53647 6.9823C2.05323 6.98229 1.66148 6.59054 1.66149 6.10729C1.66149 5.62404 2.05325 5.23229 2.5365 5.2323L4.35454 5.23232C4.85181 5.23233 5.32872 5.42987 5.68034 5.78149L6.72421 6.82536L6.72667 6.82781Z" fill="black"/>
</g>
<defs>
<clipPath id="clip0_1068_186961">
<rect width="14" height="14" fill="white"/>
</clipPath>
</defs>
</svg>
