<svg width="14" height="14" viewBox="0 0 14 14" fill="none" xmlns="http://www.w3.org/2000/svg">
<g clip-path="url(#clip0_1068_186949)">
<path fill-rule="evenodd" clip-rule="evenodd" d="M12.7575 0.170243C13.3886 0.0124558 14 0.489814 14 1.14039V3.85961C14 4.51018 13.3886 4.98754 12.7575 4.82975L9.75747 4.07975C9.31728 3.96971 9.00701 3.5774 9.00012 3.125H6.125V4.05564C7.75979 4.35033 9 5.78033 9 7.5V12.5C9 13.3284 8.32843 14 7.5 14H3.5C2.67157 14 2 13.3284 2 12.5V7.5C2 5.78033 3.24021 4.35033 4.875 4.05564V3.125H2.65625C1.89686 3.125 1.28125 3.74061 1.28125 4.5V6.5C1.28125 6.84518 1.00143 7.125 0.65625 7.125C0.311072 7.125 0.03125 6.84518 0.03125 6.5V4.5C0.03125 3.05025 1.2065 1.875 2.65625 1.875H5.5H9.00012C9.00701 1.4226 9.31728 1.03029 9.75746 0.920243L12.7575 0.170243ZM6 8H8V11H6C5.44772 11 5 10.5523 5 10V9C5 8.44772 5.44772 8 6 8Z" fill="black"/>
</g>
<defs>
<clipPath id="clip0_1068_186949">
<rect width="14" height="14" fill="white"/>
</clipPath>
</defs>
</svg>
