<svg width="14" height="14" viewBox="0 0 14 14" fill="none" xmlns="http://www.w3.org/2000/svg">
<g clip-path="url(#clip0_1068_186955)">
<path fill-rule="evenodd" clip-rule="evenodd" d="M5.50965 0.75C5.50965 0.335786 5.17386 0 4.75965 0C3.50042 0 2.29276 0.500227 1.40235 1.39064C0.511946 2.28105 0.0117188 3.4887 0.0117188 4.74793C0.0117188 5.16215 0.347506 5.49793 0.761719 5.49793C1.17593 5.49793 1.51171 5.16215 1.51171 4.74793C1.51171 3.88653 1.85392 3.0604 2.46302 2.4513C3.07212 1.84219 3.89824 1.5 4.75965 1.5C5.17386 1.5 5.50965 1.16421 5.50965 0.75ZM8.48855 0.75C8.48855 0.335786 8.82433 0 9.23855 0C10.4978 0 11.7054 0.500227 12.5958 1.39064C13.4862 2.28105 13.9865 3.4887 13.9865 4.74793C13.9865 5.16215 13.6507 5.49793 13.2365 5.49793C12.8222 5.49793 12.4865 5.16215 12.4865 4.74793C12.4865 3.88653 12.1443 3.0604 11.5352 2.4513C10.9261 1.84219 10.0999 1.5 9.23855 1.5C8.82433 1.5 8.48855 1.16421 8.48855 0.75ZM6.48892 3.31959C6.17576 3.18539 5.85688 3.27524 5.65711 3.46702C5.47295 3.64381 5.32913 3.9886 5.52559 4.32225C5.83425 4.8609 6.04005 5.45226 6.13252 6.06616C6.2457 6.83737 6.15016 7.6236 5.77851 8.23064C5.57729 8.01725 5.41396 7.82599 5.29961 7.60954C5.22545 7.46499 5.06183 7.27181 4.79236 7.20746C4.48807 7.1348 4.20776 7.26027 3.99189 7.46772C3.21892 8.11282 2.72715 9.11019 2.82312 10.1575C2.87524 12.3983 4.84698 13.9743 6.93685 14C9.0871 14.0264 11.0396 12.4258 11.0573 10.1325V10.1287C11.0573 8.78315 10.6526 7.46882 9.89606 6.35634C9.07475 5.04826 7.90057 3.99871 6.50886 3.32866L6.49899 3.32391L6.48892 3.31959ZM9.23855 2.49871C8.82433 2.49871 8.48855 2.83449 8.48855 3.24871C8.48855 3.66292 8.82433 3.99871 9.23855 3.99871C9.43746 3.99871 9.62821 4.07772 9.76888 4.21838C9.90952 4.35903 9.98855 4.54979 9.98855 4.74871C9.98855 5.16292 10.3243 5.49871 10.7385 5.49871C11.1527 5.49871 11.4885 5.16292 11.4885 4.74871C11.4885 4.15197 11.2515 3.57967 10.8295 3.15772C10.4076 2.73576 9.83528 2.49871 9.23855 2.49871ZM3.16908 3.1576C3.46198 2.86471 3.93684 2.86471 4.22974 3.1576C4.52263 3.4505 4.52263 3.92537 4.22974 4.21826C4.08909 4.35892 4.01008 4.54968 4.01008 4.74859C4.01008 5.16281 3.67429 5.49859 3.26008 5.49859C2.84585 5.49859 2.51008 5.16281 2.51008 4.74859C2.51008 4.15186 2.74712 3.57956 3.16908 3.1576Z" fill="black"/>
</g>
<defs>
<clipPath id="clip0_1068_186955">
<rect width="14" height="14" fill="white"/>
</clipPath>
</defs>
</svg>
