<svg width="14" height="14" viewBox="0 0 14 14" fill="none" xmlns="http://www.w3.org/2000/svg">
<g clip-path="url(#clip0_1068_186937)">
<path fill-rule="evenodd" clip-rule="evenodd" d="M13.7232 0.858595C13.9673 1.10267 13.9673 1.4984 13.7232 1.74248L12.9303 2.53534V4.70437C12.9303 4.99117 12.7351 5.24115 12.4569 5.31071L10.9784 5.68035V6.66832C10.9784 6.86216 11.1355 7.01929 11.3293 7.01929C12.7525 7.01929 13.9062 8.17301 13.9062 9.59621C13.9062 11.0194 12.7525 12.1732 11.3293 12.1732H8.90144V12.5001C8.90144 13.3285 8.22987 14.0001 7.40144 14.0001H1.59375C0.765323 14.0001 0.09375 13.3285 0.09375 12.5001V3.78851C0.09375 2.4078 1.21304 1.28851 2.59375 1.28851H6.40144C7.78215 1.28851 8.90144 2.4078 8.90144 3.78851V10.9232H11.3293C12.0622 10.9232 12.6562 10.3291 12.6562 9.59621C12.6562 8.86337 12.0622 8.26929 11.3293 8.26929C10.4451 8.26929 9.72835 7.55251 9.72835 6.66832V5.20336C9.72821 5.19569 9.72821 5.18804 9.72835 5.18041V4.22842C9.72835 4.06266 9.7942 3.90369 9.91141 3.78648L12.8393 0.858595C13.0834 0.614518 13.4791 0.614518 13.7232 0.858595ZM1.09375 7.14429V4.88092H7.90144V7.14429H1.09375ZM5.96155 9.4592C6.30673 9.4592 6.58655 9.73902 6.58655 10.0842V11.0602C6.58655 11.4054 6.30673 11.6852 5.96155 11.6852C5.61637 11.6852 5.33655 11.4054 5.33655 11.0602V10.0842C5.33655 9.73902 5.61637 9.4592 5.96155 9.4592Z" fill="black"/>
</g>
<defs>
<clipPath id="clip0_1068_186937">
<rect width="14" height="14" fill="white"/>
</clipPath>
</defs>
</svg>
