<svg width="14" height="14" viewBox="0 0 14 14" fill="none" xmlns="http://www.w3.org/2000/svg">
<g clip-path="url(#clip0_1068_186946)">
<path fill-rule="evenodd" clip-rule="evenodd" d="M12.2947 0.509012C11.9811 0.238458 11.5075 0.273389 11.2369 0.587034C10.9664 0.900679 11.0013 1.37427 11.3149 1.64483C11.6369 1.92259 11.8746 2.30812 12.014 2.79514C12.128 3.19337 12.5432 3.42379 12.9415 3.3098C13.3397 3.19582 13.5701 2.78059 13.4561 2.38237C13.2491 1.65894 12.8706 1.00576 12.2947 0.509012ZM4.14313 4.43674C4.53652 3.36725 5.46541 2.28249 7.02272 2.28249C8.16586 2.28249 8.90492 2.68065 9.36801 3.21418C9.8462 3.7651 10.0913 4.53255 10.0913 5.3511C10.0913 5.90079 9.78627 6.57317 9.28839 7.26887C8.80612 7.94272 8.21865 8.53469 7.81958 8.90436C7.42426 9.27056 7.14865 9.73495 6.99372 10.2251C6.89621 10.5337 6.75443 10.9064 6.56887 11.2297C6.37427 11.5687 6.18338 11.7619 6.02959 11.8371C5.46229 12.1142 5.13434 12.1528 4.71212 12.0112C4.31941 11.8795 3.89427 12.0911 3.76255 12.4838C3.63083 12.8765 3.84241 13.3016 4.23512 13.4333C5.15265 13.7411 5.9018 13.5689 6.68798 13.1849C7.24075 12.9148 7.61897 12.4134 7.86979 11.9764C8.12965 11.5237 8.30963 11.039 8.42399 10.6772C8.50814 10.4109 8.65226 10.1777 8.83894 10.0047C9.27451 9.60127 9.94307 8.93147 10.5082 8.14185C11.0576 7.37407 11.5913 6.3813 11.5913 5.3511C11.5913 4.25168 11.2637 3.10983 10.5008 2.23094C9.72285 1.33465 8.55261 0.782483 7.02272 0.782483C4.61269 0.782483 3.25663 2.50172 2.73535 3.91892C2.59235 4.30766 2.79158 4.73873 3.18032 4.88172C3.56907 5.02471 4.00014 4.82549 4.14313 4.43674ZM2.73129 8.0881C3.02419 7.7952 3.49906 7.7952 3.79196 8.0881L4.25246 8.5486C4.54535 8.84149 4.54535 9.31637 4.25246 9.60925C3.95957 9.90214 3.48469 9.90214 3.1918 9.60925L2.73129 9.14876C2.4384 8.85585 2.4384 8.38099 2.73129 8.0881ZM1.63775 9.1534C1.34486 8.86051 0.869985 8.86051 0.577092 9.1534C0.284199 9.4463 0.284199 9.92117 0.577092 10.214L2.07048 11.7074C2.36337 12.0003 2.83825 12.0003 3.13114 11.7074C3.42403 11.4145 3.42403 10.9397 3.13114 10.6468L1.63775 9.1534ZM3.77994 5.93722C4.07283 5.64432 4.54771 5.64432 4.8406 5.93722L6.33399 7.43061C6.62688 7.7235 6.62688 8.19837 6.33399 8.49127C6.0411 8.78415 5.56622 8.78415 5.27333 8.49127L3.77994 6.99788C3.48705 6.70498 3.48705 6.23011 3.77994 5.93722ZM6.5355 4.8972C6.64708 4.84393 6.75116 4.82024 6.85651 4.82467C6.96034 4.82904 7.10821 4.86242 7.30683 4.98603C7.44477 5.07187 7.51663 5.1664 7.55879 5.25548C7.60403 5.35107 7.62646 5.46603 7.62506 5.59348C7.62051 6.00767 7.95259 6.34713 8.36677 6.35168C8.78096 6.35624 9.12042 6.02416 9.12497 5.60997C9.13184 4.98572 8.89894 4.21012 8.09942 3.71253C7.28053 3.20287 6.50881 3.24775 5.88923 3.54356C5.51544 3.72202 5.35709 4.16972 5.53555 4.54351C5.71401 4.9173 6.16171 5.07566 6.5355 4.8972Z" fill="black"/>
</g>
<defs>
<clipPath id="clip0_1068_186946">
<rect width="14" height="14" fill="white"/>
</clipPath>
</defs>
</svg>
