<svg width="14" height="14" viewBox="0 0 14 14" fill="none" xmlns="http://www.w3.org/2000/svg">
<g clip-path="url(#clip0_1068_186970)">
<path fill-rule="evenodd" clip-rule="evenodd" d="M0.21967 1.28033C-0.0732233 0.987437 -0.0732233 0.512563 0.21967 0.21967C0.512563 -0.0732233 0.987437 -0.0732233 1.28033 0.21967L3.81549 2.75483C4.51516 1.52743 5.8096 0.353516 7.82864 0.353516C9.39786 0.353516 10.5962 0.919667 11.3924 1.83699C12.1736 2.73693 12.5096 3.90687 12.5096 5.03451C12.5096 6.09336 11.958 7.11595 11.3893 7.90774C11.0332 8.40354 10.6378 8.85308 10.2824 9.22175L13.7803 12.7197C14.0732 13.0126 14.0732 13.4874 13.7803 13.7803C13.4874 14.0732 13.0126 14.0732 12.7197 13.7803L0.21967 1.28033ZM9.22154 8.16088C9.53263 7.83678 9.87105 7.45023 10.171 7.03267C10.6886 6.31207 11.0096 5.61081 11.0096 5.03451C11.0096 4.18774 10.7561 3.39219 10.2596 2.82023C9.77827 2.26566 9.01112 1.85352 7.82864 1.85352C6.31829 1.85352 5.3748 2.84259 4.92976 3.8691L9.22154 8.16088ZM7.38537 11.0887C7.4959 10.8949 7.59115 10.6847 7.6711 10.4807L8.80534 11.6149C8.76826 11.6876 8.72929 11.7601 8.68838 11.8318C8.43058 12.2839 8.04205 12.8017 7.47437 13.079C6.99709 13.3122 6.50975 13.483 5.97093 13.4947C5.42542 13.5066 4.90393 13.3543 4.3554 13.072C3.98711 12.8824 3.84222 12.4302 4.03179 12.0619C4.22136 11.6936 4.67359 11.5487 5.04188 11.7383C5.43895 11.9427 5.7115 12 5.93823 11.9951C6.17166 11.99 6.43478 11.9174 6.81597 11.7312C6.98183 11.6502 7.18292 11.4437 7.38537 11.0887ZM7.51421 4.45156C7.63837 4.39229 7.75655 4.36488 7.87745 4.36997C7.99682 4.37499 8.16169 4.41339 8.3787 4.54845C8.53295 4.64445 8.61539 4.75177 8.66401 4.85448C8.7157 4.96371 8.74047 5.09316 8.73892 5.23418C8.73437 5.64836 9.06644 5.98782 9.48063 5.99237C9.89482 5.99693 10.2343 5.66485 10.2388 5.25066C10.246 4.59929 10.0034 3.79285 9.17129 3.27495C8.31561 2.7424 7.51269 2.7901 6.86794 3.09792C6.49414 3.27639 6.33579 3.72408 6.51426 4.09788C6.69272 4.47168 7.14041 4.63002 7.51421 4.45156Z" fill="black"/>
</g>
<defs>
<clipPath id="clip0_1068_186970">
<rect width="14" height="14" fill="white"/>
</clipPath>
</defs>
</svg>
