<svg width="14" height="14" viewBox="0 0 14 14" fill="none" xmlns="http://www.w3.org/2000/svg">
<g clip-path="url(#clip0_1068_186982)">
<path fill-rule="evenodd" clip-rule="evenodd" d="M2.46289 1.2008C3.61824 0.359325 5.17199 0.00756836 6.8189 0.00756836C8.46581 0.00756836 10.0196 0.359325 11.1749 1.2008C12.3538 2.05943 13.063 3.3891 13.063 5.20286C13.063 6.79648 12.5176 8.51989 11.6201 9.94196C10.5993 8.14537 8.79236 7.37167 6.82144 7.37167C4.84888 7.37167 3.04067 8.14666 2.02039 9.94618C1.12134 8.52331 0.57486 6.79806 0.57486 5.20286C0.57486 3.3891 1.28398 2.05943 2.46289 1.2008ZM2.86234 11.0697C3.90825 12.2459 5.2765 13.0811 6.8189 13.0811C8.363 13.0811 9.73258 12.2441 10.779 11.0658C10.0794 9.36769 8.61996 8.62167 6.82144 8.62167C5.02164 8.62167 3.56129 9.36873 2.86234 11.0697ZM3.22562 4.24619C3.22562 3.54419 3.7947 2.97511 4.4967 2.97511H9.14487C9.84687 2.97511 10.416 3.54419 10.416 4.24619C10.416 4.94819 9.84687 5.51727 9.14487 5.51727H4.4967C3.7947 5.51727 3.22562 4.94819 3.22562 4.24619ZM2.45945 11.7472C2.73559 12.056 2.70916 12.5301 2.40042 12.8063L1.2793 13.809C0.970562 14.0851 0.496424 14.0587 0.220284 13.75C-0.0558567 13.4412 -0.0294305 12.9671 0.279308 12.691L1.40043 11.6882C1.70917 11.4121 2.18331 11.4385 2.45945 11.7472ZM11.5389 11.7472C11.2628 12.056 11.2892 12.5301 11.598 12.8063L12.7191 13.809C13.0278 14.0851 13.502 14.0587 13.7781 13.75C14.0542 13.4412 14.0278 12.9671 13.7191 12.691L12.598 11.6882C12.2892 11.4121 11.8151 11.4385 11.5389 11.7472Z" fill="black"/>
</g>
<defs>
<clipPath id="clip0_1068_186982">
<rect width="14" height="14" fill="white"/>
</clipPath>
</defs>
</svg>
