<svg width="14" height="14" viewBox="0 0 14 14" fill="none" xmlns="http://www.w3.org/2000/svg">
<path fill-rule="evenodd" clip-rule="evenodd" d="M7.31055 1.47708C7.62754 1.7437 7.66837 2.21681 7.40175 2.53381C7.06703 2.93176 6.98388 3.32746 7.02825 3.78112C7.07724 4.28201 7.27705 4.81867 7.52833 5.47592L7.54538 5.5205C7.77602 6.12345 8.0496 6.83862 8.12019 7.56038C8.19715 8.34724 8.03764 9.16322 7.40175 9.91923C7.13512 10.2362 6.66201 10.2771 6.34502 10.0104C6.02802 9.74381 5.98719 9.2707 6.25381 8.9537C6.58854 8.55575 6.67168 8.16005 6.62731 7.70639C6.57832 7.2055 6.37852 6.66885 6.12724 6.01159L6.11019 5.96701C5.87954 5.36407 5.60597 4.64889 5.53537 3.92713C5.45842 3.14027 5.61793 2.32429 6.25381 1.56828C6.52044 1.25128 6.99355 1.21045 7.31055 1.47708ZM4.50111 3.45699C4.76774 3.14 4.72691 2.66689 4.40991 2.40026C4.09292 2.13364 3.6198 2.17447 3.35318 2.49146C2.76036 3.19628 2.54339 3.89234 2.63799 4.58964C2.71976 5.19245 3.0329 5.71253 3.25713 6.08494L3.28425 6.13001C3.54428 6.56283 3.69373 6.83273 3.72992 7.09953C3.75665 7.29656 3.73097 7.58138 3.35318 8.03053C3.08656 8.34753 3.12739 8.82064 3.44438 9.08727C3.76137 9.35389 4.23449 9.31306 4.50111 8.99607C5.09394 8.29125 5.3109 7.59519 5.21631 6.89789C5.13453 6.29508 4.82139 5.775 4.59716 5.40259L4.57004 5.35752C4.31001 4.9247 4.16057 4.6548 4.12437 4.388C4.09764 4.19097 4.12333 3.90615 4.50111 3.45699ZM12.9118 6.887C12.6099 6.60338 12.1352 6.61819 11.8516 6.92008C11.568 7.22196 11.5828 7.69661 11.8847 7.98022C11.9892 8.0784 12.0827 8.18817 12.1632 8.30773C12.3373 8.5663 12.4452 8.86265 12.4782 9.17115C12.4623 9.67527 12.0593 10.2961 11.0499 10.837C10.0514 11.3721 8.6206 11.7264 6.99916 11.7264C5.37695 11.7264 3.94576 11.3742 2.94727 10.8412C1.93714 10.302 1.53526 9.68287 1.51999 9.17934C1.55179 8.8691 1.65933 8.57082 1.83376 8.31057C1.91466 8.18987 2.00878 8.07909 2.1141 7.9801C2.41592 7.69641 2.43061 7.22176 2.14693 6.91995C1.86324 6.61813 1.38859 6.60343 1.08677 6.88712C0.899495 7.06315 0.731918 7.26034 0.587753 7.47542C0.265685 7.95594 0.0710078 8.51008 0.0222077 9.08618C0.0204243 9.10724 0.0195312 9.12836 0.0195312 9.14949C0.0195312 10.4805 1.01647 11.5109 2.24092 12.1645C3.49708 12.835 5.1807 13.2264 6.99916 13.2264C8.8184 13.2264 10.5023 12.8323 11.7584 12.1592C12.9828 11.503 13.9787 10.4702 13.9787 9.13995C13.9787 9.11788 13.9778 9.09582 13.9758 9.07383C13.925 8.49987 13.7294 7.94824 13.4075 7.47002C13.264 7.25696 13.0976 7.06157 12.9118 6.887ZM10.5244 3.36388C10.7396 3.00995 10.6271 2.54859 10.2732 2.33339C9.91934 2.11819 9.45798 2.23066 9.24278 2.58458C8.81416 3.28951 8.68162 3.94102 8.74252 4.56202C8.79802 5.1279 9.01424 5.6252 9.18026 6.00701L9.19569 6.04253C9.37876 6.46405 9.5014 6.76118 9.53188 7.07191C9.55868 7.34524 9.51581 7.6746 9.24278 8.12365C9.02758 8.47758 9.14004 8.93894 9.49397 9.15414C9.84789 9.36934 10.3092 9.25687 10.5244 8.90295C10.953 8.19802 11.0856 7.54651 11.0247 6.92551C10.9692 6.35962 10.7529 5.86233 10.5869 5.48051L10.5715 5.445C10.3884 5.02348 10.2658 4.72635 10.2353 4.41562C10.2085 4.14229 10.2514 3.81293 10.5244 3.36388Z" fill="black"/>
</svg>
