<svg width="14" height="14" viewBox="0 0 14 14" fill="none" xmlns="http://www.w3.org/2000/svg">
<path fill-rule="evenodd" clip-rule="evenodd" d="M7.75 0.762451C7.75 0.348237 7.41421 0.0124512 7 0.0124512C6.58579 0.0124512 6.25 0.348237 6.25 0.762451V2.07678C5.33477 2.23148 4.48304 2.66686 3.81802 3.33187C2.97411 4.17579 2.5 5.32038 2.5 6.51385C2.5 6.79 2.72386 7.01385 3 7.01385H11C11.1326 7.01385 11.2598 6.96118 11.3536 6.86741C11.4473 6.77364 11.5 6.64646 11.5 6.51385C11.5 5.32038 11.0259 4.17579 10.182 3.33187C9.51696 2.66686 8.66523 2.23148 7.75 2.07678V0.762451ZM5 8.48761C5.41421 8.48761 5.75 8.8234 5.75 9.23761V10.2376C5.75 10.6518 5.41421 10.9876 5 10.9876C4.58579 10.9876 4.25 10.6518 4.25 10.2376V9.23761C4.25 8.8234 4.58579 8.48761 5 8.48761ZM4.25 12.2376C4.25 11.8234 3.91421 11.4876 3.5 11.4876C3.08579 11.4876 2.75 11.8234 2.75 12.2376V13.2376C2.75 13.6518 3.08579 13.9876 3.5 13.9876C3.91421 13.9876 4.25 13.6518 4.25 13.2376V12.2376ZM7 11.4876C7.41421 11.4876 7.75 11.8234 7.75 12.2376V13.2376C7.75 13.6518 7.41421 13.9876 7 13.9876C6.58579 13.9876 6.25 13.6518 6.25 13.2376V12.2376C6.25 11.8234 6.58579 11.4876 7 11.4876ZM11.25 12.2376C11.25 11.8234 10.9142 11.4876 10.5 11.4876C10.0858 11.4876 9.75 11.8234 9.75 12.2376V13.2376C9.75 13.6518 10.0858 13.9876 10.5 13.9876C10.9142 13.9876 11.25 13.6518 11.25 13.2376V12.2376ZM9 8.48761C9.41421 8.48761 9.75 8.8234 9.75 9.23761V10.2376C9.75 10.6518 9.41421 10.9876 9 10.9876C8.58579 10.9876 8.25 10.6518 8.25 10.2376V9.23761C8.25 8.8234 8.58579 8.48761 9 8.48761Z" fill="black"/>
</svg>
