<svg width="14" height="14" viewBox="0 0 14 14" fill="none" xmlns="http://www.w3.org/2000/svg">
<g clip-path="url(#clip0_1068_187060)">
<path fill-rule="evenodd" clip-rule="evenodd" d="M1.5 0C0.706 0 0 0.607332 0 1.4307V6.08419C0 6.90755 0.706 7.51488 1.5 7.51488H2.08224L2.08206 7.5V5.5C2.08206 5.0542 2.27253 4.63641 2.59534 4.33563C2.91666 4.03623 3.34359 3.875 3.78029 3.875H10.2197C10.6564 3.875 11.0833 4.03623 11.4046 4.33563C11.7274 4.63641 11.9179 5.0542 11.9179 5.5V7.5L11.9177 7.51488H12.5C13.294 7.51488 14 6.90755 14 6.08419V1.4307C14 0.607332 13.294 0 12.5 0H1.5ZM10.6681 7.51488H3.33189L3.33206 7.5V5.5C3.33206 5.41537 3.36774 5.32445 3.44747 5.25016C3.52869 5.17448 3.64772 5.125 3.78029 5.125H10.2197C10.3522 5.125 10.4713 5.17448 10.5525 5.25016C10.6322 5.32445 10.6679 5.41537 10.6679 5.5V7.5L10.6681 7.51488ZM4.75 9.74887C4.75 9.33466 4.41421 8.99887 4 8.99887C3.58579 8.99887 3.25 9.33466 3.25 9.74887V10.8489C3.25 11.2079 2.95899 11.4989 2.6 11.4989H2.5C2.08579 11.4989 1.75 11.8347 1.75 12.2489C1.75 12.6631 2.08579 12.9989 2.5 12.9989H2.6C3.78741 12.9989 4.75 12.0363 4.75 10.8489V9.74887ZM10 8.99887C9.58579 8.99887 9.25 9.33466 9.25 9.74887V10.8489C9.25 12.0363 10.2126 12.9989 11.4 12.9989H11.5C11.9142 12.9989 12.25 12.6631 12.25 12.2489C12.25 11.8347 11.9142 11.4989 11.5 11.4989H11.4C11.041 11.4989 10.75 11.2079 10.75 10.8489V9.74887C10.75 9.33466 10.4142 8.99887 10 8.99887ZM7.75 9.74887C7.75 9.33466 7.41421 8.99887 7 8.99887C6.58579 8.99887 6.25 9.33466 6.25 9.74887V13.2489C6.25 13.6631 6.58579 13.9989 7 13.9989C7.41421 13.9989 7.75 13.6631 7.75 13.2489V9.74887Z" fill="black"/>
</g>
<defs>
<clipPath id="clip0_1068_187060">
<rect width="14" height="14" fill="white"/>
</clipPath>
</defs>
</svg>
