<svg width="14" height="14" viewBox="0 0 14 14" fill="none" xmlns="http://www.w3.org/2000/svg">
<path fill-rule="evenodd" clip-rule="evenodd" d="M1 1.5C1 0.671573 1.67157 0 2.5 0H11.5C12.3284 0 13 0.671573 13 1.5V2.4812H1V1.5ZM1 3.7312V12.5C1 13.3284 1.67157 14 2.5 14H11.5C12.3284 14 13 13.3284 13 12.5V3.7312H1ZM3.39249 8.49998C3.39249 8.30052 3.40875 8.10448 3.44008 7.91325C3.44153 7.90337 3.44319 7.89355 3.44503 7.8838C3.47974 7.68243 3.53118 7.48648 3.59795 7.29755C4.09283 5.89742 5.42808 4.89249 6.99998 4.89249C8.99234 4.89249 10.6075 6.50762 10.6075 8.49998C10.6075 10.4923 8.99234 12.1075 6.99998 12.1075C5.00762 12.1075 3.39249 10.4923 3.39249 8.49998ZM4.50227 8.20047C4.54267 7.95962 4.75116 7.7832 4.99538 7.7832H5.34922C6.11387 7.7832 6.56218 7.96974 6.96521 8.13744L7.02536 8.16243C7.40231 8.31853 7.78282 8.46557 8.5362 8.46557H9.03295C9.18002 8.46557 9.31963 8.53032 9.41463 8.64258C9.50963 8.75485 9.55039 8.90325 9.52606 9.0483C9.32389 10.2533 8.27674 11.1715 7.01416 11.1715C5.60744 11.1715 4.46707 10.0311 4.46707 8.62438C4.46707 8.48031 4.47908 8.33866 4.50227 8.20047Z" fill="black"/>
</svg>
