<svg width="14" height="14" viewBox="0 0 14 14" fill="none" xmlns="http://www.w3.org/2000/svg">
<g clip-path="url(#clip0_1068_186967)">
<path fill-rule="evenodd" clip-rule="evenodd" d="M6.18961 0.255506C6.43738 0.118345 6.71594 0.0463867 6.99914 0.0463867C7.28234 0.0463867 7.5609 0.118345 7.80867 0.255506C8.05614 0.392502 8.2648 0.590057 8.4151 0.829667L8.41564 0.830537L10.2139 3.67632L12.488 3.95496C12.7857 3.98875 13.0686 4.10288 13.3064 4.28516C13.545 4.46803 13.7292 4.71255 13.839 4.99237C13.9489 5.27218 13.9803 5.57668 13.9299 5.87303C13.8795 6.16939 13.7492 6.44636 13.5529 6.6741L13.551 6.67633L11.6185 8.89274L12.2445 11.9766L12.2452 11.9804C12.3058 12.2908 12.2764 12.612 12.1607 12.9063C12.045 13.2007 11.8477 13.4558 11.592 13.6419L11.5861 13.6462C11.3285 13.8279 11.0249 13.9336 10.7101 13.9511C10.3955 13.9685 10.0823 13.8973 9.80631 13.7454L6.99914 12.2092L4.19252 13.7451C3.91649 13.897 3.60275 13.9685 3.28818 13.9511C2.97338 13.9336 2.66984 13.8279 2.41221 13.6462L2.40623 13.642C2.15051 13.4559 1.95322 13.2007 1.83751 12.9063C1.72179 12.612 1.69247 12.2908 1.753 11.9804L1.75374 11.9766L2.37972 8.89274L0.447223 6.67633L0.44529 6.67411C0.249069 6.44637 0.118732 6.16939 0.068316 5.87303C0.0178994 5.57668 0.049322 5.27218 0.159196 4.99237C0.269071 4.71255 0.453231 4.46803 0.691824 4.28516C0.929649 4.10288 1.21257 3.98875 1.51027 3.95496L3.78432 3.67632L5.58264 0.830537L5.58318 0.829668C5.73349 0.590057 5.94214 0.392502 6.18961 0.255506ZM7.62413 4.85865C7.62413 4.51347 7.34431 4.23365 6.99913 4.23365C6.65395 4.23365 6.37413 4.51347 6.37413 4.85865C6.37413 5.10563 6.17392 5.30585 5.92694 5.30585H5.56954C5.22436 5.30585 4.94454 5.58567 4.94454 5.93085C4.94454 6.27602 5.22436 6.55585 5.56954 6.55585H5.92694C6.08172 6.55585 6.23165 6.53513 6.37413 6.49631V8.52244H5.56954C5.22436 8.52244 4.94454 8.80226 4.94454 9.14744C4.94454 9.49262 5.22436 9.77244 5.56954 9.77244H8.42873C8.7739 9.77244 9.05373 9.49262 9.05373 9.14744C9.05373 8.80226 8.7739 8.52244 8.42873 8.52244H7.62413V4.85865Z" fill="black"/>
</g>
<defs>
<clipPath id="clip0_1068_186967">
<rect width="14" height="14" fill="white"/>
</clipPath>
</defs>
</svg>
