<svg width="14" height="14" viewBox="0 0 14 14" fill="none" xmlns="http://www.w3.org/2000/svg">
<g clip-path="url(#clip0_1068_186979)">
<path fill-rule="evenodd" clip-rule="evenodd" d="M0.046875 1.53924C0.046875 0.714762 0.71525 0.0463867 1.53973 0.0463867H12.4612C13.2857 0.0463867 13.9541 0.714762 13.9541 1.53924V5.85166L13.9505 5.85165H0.0504162L0.046875 5.85166V1.53924ZM0.046875 7.10164V12.4607C0.046875 13.2852 0.71525 13.9536 1.53973 13.9536H12.4612C13.2857 13.9536 13.9541 13.2852 13.9541 12.4607V7.10164L13.9505 7.10165H0.0504162L0.046875 7.10164ZM6.31464 3.54751V2.56894C6.31464 2.01665 5.86693 1.56894 5.31464 1.56894H2.62948C2.0772 1.56894 1.62948 2.01665 1.62948 2.56894V3.54751C1.62948 4.09979 2.0772 4.54751 2.62948 4.54751H5.31464C5.86693 4.54751 6.31464 4.09979 6.31464 3.54751ZM12.3714 2.56894V3.54751C12.3714 4.09979 11.9237 4.54751 11.3714 4.54751H8.68625C8.13396 4.54751 7.68625 4.09979 7.68625 3.54751V2.56894C7.68625 2.01665 8.13396 1.56894 8.68625 1.56894H11.3714C11.9237 1.56894 12.3714 2.01665 12.3714 2.56894Z" fill="black"/>
</g>
<defs>
<clipPath id="clip0_1068_186979">
<rect width="14" height="14" fill="white"/>
</clipPath>
</defs>
</svg>
