<svg width="14" height="14" viewBox="0 0 14 14" fill="none" xmlns="http://www.w3.org/2000/svg">
<g clip-path="url(#clip0_1068_186997)">
<path fill-rule="evenodd" clip-rule="evenodd" d="M6.09058 2.73516C7.09298 3.39469 7.75468 4.52976 7.75468 5.81938C7.75468 6.38032 7.62949 6.91202 7.40552 7.38806C8.08997 7.91623 8.9487 8.2309 9.88022 8.2309C12.119 8.2309 13.9339 6.416 13.9339 4.17722C13.9339 1.93843 12.119 0.123535 9.88022 0.123535C8.14931 0.123535 6.67193 1.20825 6.09058 2.73516ZM9.8812 3.80091C10.2264 3.80091 10.5062 4.08073 10.5062 4.42591V6.22126C10.5062 6.56644 10.2263 6.84626 9.88117 6.84625C9.53599 6.84625 9.25617 6.56642 9.25618 6.22124L9.2562 4.4259C9.2562 4.08072 9.53603 3.8009 9.8812 3.80091ZM9.14792 2.22064C9.14792 2.69229 9.53825 2.89923 9.81295 2.92923C9.83605 2.93181 9.85952 2.93314 9.8833 2.93314C10.1559 2.93314 10.6168 2.73319 10.6168 2.22068C10.6168 1.74903 10.2265 1.54209 9.95175 1.51209C9.92866 1.50951 9.90519 1.50818 9.8814 1.50818C9.6088 1.50818 9.14792 1.70813 9.14792 2.22064ZM4.06542 8.25864C5.41259 8.25864 6.50468 7.16654 6.50468 5.81938C6.50468 4.47222 5.41259 3.38013 4.06542 3.38013C2.71826 3.38013 1.62617 4.47222 1.62617 5.81938C1.62617 7.16654 2.71826 8.25864 4.06542 8.25864ZM0 13.1371C0 10.8918 1.82015 9.0717 4.06542 9.0717C6.08135 9.0717 7.75457 10.539 8.07536 12.4639H13.2322C13.6464 12.4639 13.9822 12.7997 13.9822 13.2139C13.9822 13.6281 13.6464 13.9639 13.2322 13.9639H0.769165C0.372598 13.9639 0.0479181 13.6561 0.0209735 13.2664C0.00737004 13.2258 0 13.1823 0 13.1371Z" fill="black"/>
</g>
<defs>
<clipPath id="clip0_1068_186997">
<rect width="14" height="14" fill="white"/>
</clipPath>
</defs>
</svg>
