<svg width="14" height="14" viewBox="0 0 14 14" fill="none" xmlns="http://www.w3.org/2000/svg">
<g clip-path="url(#clip0_1068_186991)">
<path fill-rule="evenodd" clip-rule="evenodd" d="M12.9179 1.62318C12.9179 2.51964 12.1912 3.24637 11.2947 3.24637C10.3983 3.24637 9.67153 2.51964 9.67153 1.62318C9.67153 0.726724 10.3983 0 11.2947 0C12.1912 0 12.9179 0.726724 12.9179 1.62318ZM13.942 6.66015C13.8673 6.99558 13.5679 7.24634 13.2099 7.24634H7.09765C6.68343 7.24634 6.34765 6.91055 6.34765 6.49634C6.34765 6.08212 6.68343 5.74634 7.09765 5.74634H8.69368C9.01765 4.61523 10.0595 3.78741 11.2947 3.78741C12.7888 3.78741 14 4.99862 14 6.49272C14 6.55593 13.9783 6.61409 13.942 6.66015ZM1.35853 3.324C1.35853 4.32435 2.16947 5.1353 3.16983 5.1353C4.17018 5.1353 4.98113 4.32435 4.98113 3.324C4.98113 2.32364 4.17018 1.5127 3.16983 1.5127C2.16947 1.5127 1.35853 2.32364 1.35853 3.324ZM0 9.0189C0 8.17822 0.333958 7.37198 0.928407 6.77753C1.52286 6.18308 2.3291 5.84912 3.16978 5.84912C4.01046 5.84912 4.8167 6.18308 5.41115 6.77753C6.0056 7.37198 6.33956 8.17822 6.33956 9.0189V9.87738C6.33956 10.1535 6.1157 10.3774 5.83956 10.3774H4.98108L4.583 13.562C4.55173 13.8122 4.33903 14 4.08687 14H2.25269C2.00053 14 1.78783 13.8122 1.75656 13.562L1.35848 10.3774H0.5C0.223857 10.3774 0 10.1535 0 9.87738V9.0189Z" fill="black"/>
</g>
<defs>
<clipPath id="clip0_1068_186991">
<rect width="14" height="14" fill="white"/>
</clipPath>
</defs>
</svg>
