<svg width="14" height="14" viewBox="0 0 14 14" fill="none" xmlns="http://www.w3.org/2000/svg">
<path fill-rule="evenodd" clip-rule="evenodd" d="M12.034 2.03625C11.5405 1.57031 10.8993 1.30493 10.2234 1.31369H4.53205C4.11784 1.31369 3.78205 1.64947 3.78205 2.06369C3.78205 2.4779 4.11784 2.81369 4.53205 2.81369H10.2287L10.2403 2.8136C10.5041 2.80951 10.7759 2.91135 11.0041 3.12685C11.2345 3.34444 11.4029 3.66341 11.4578 4.03416L11.549 4.65744H8.85025C6.90912 4.65927 5.01695 5.27113 3.44252 6.40654C1.86809 7.54195 0.69032 9.14347 0.0757026 10.9848C-0.0006487 11.2135 0.0376358 11.465 0.178591 11.6606C0.319545 11.8563 0.545976 11.9722 0.787115 11.9722H12.2422C12.4905 11.9722 12.7359 11.9185 12.9614 11.8146C13.1865 11.7109 13.3865 11.5599 13.5477 11.3717C13.7105 11.1825 13.8302 10.9601 13.8983 10.72C13.9666 10.4795 13.9816 10.227 13.9423 9.98009L13.9414 9.97422L13.1575 5.29063L12.9419 3.81648L12.9418 3.81534C12.8412 3.13546 12.5266 2.50144 12.034 2.03625Z" fill="black"/>
</svg>
