<svg width="14" height="14" viewBox="0 0 14 14" fill="none" xmlns="http://www.w3.org/2000/svg">
<path fill-rule="evenodd" clip-rule="evenodd" d="M3.5 0C4.05228 0 4.5 0.447715 4.5 1V2.21594H9.5V1C9.5 0.447715 9.94772 0 10.5 0C11.0523 0 11.5 0.447715 11.5 1V3.21594V7V10.784V13C11.5 13.5523 11.0523 14 10.5 14C9.94772 14 9.5 13.5523 9.5 13V11.784H4.5V13C4.5 13.5523 4.05228 14 3.5 14C2.94772 14 2.5 13.5523 2.5 13V10.784V7V3.21594V1C2.5 0.447715 2.94772 0 3.5 0ZM4.5 9.784H9.5V8H4.5V9.784ZM9.5 4.21594V6H4.5V4.21594H9.5Z" fill="black"/>
</svg>
