<svg width="14" height="14" viewBox="0 0 14 14" fill="none" xmlns="http://www.w3.org/2000/svg">
<g clip-path="url(#clip0_1068_186994)">
<path fill-rule="evenodd" clip-rule="evenodd" d="M3.55373 4.06144C4.67527 4.06144 5.58445 3.15226 5.58445 2.03072C5.58445 0.909185 4.67527 0 3.55373 0C2.4322 0 1.52301 0.909185 1.52301 2.03072C1.52301 3.15226 2.4322 4.06144 3.55373 4.06144ZM11.6014 3.09261C11.4061 2.89735 11.0895 2.89735 10.8943 3.09261L8.64214 5.34476C8.49914 5.48776 8.45637 5.70281 8.53376 5.88965C8.61115 6.07649 8.79347 6.19831 8.9957 6.19831H13.5C13.7022 6.19831 13.8845 6.07649 13.9619 5.88965C14.0393 5.70281 13.9965 5.48776 13.8535 5.34476L11.6014 3.09261ZM8.53376 9.11029C8.61115 8.92346 8.79347 8.80164 8.9957 8.80164H13.5C13.7022 8.80164 13.8845 8.92346 13.9619 9.11029C14.0393 9.29713 13.9965 9.51219 13.8535 9.65519L11.6014 11.9073C11.4061 12.1026 11.0895 12.1026 10.8943 11.9073L8.64214 9.65519C8.49914 9.51219 8.45637 9.29713 8.53376 9.11029ZM6.06665 5.90257C6.73311 6.56903 7.10752 7.47294 7.10752 8.41546V9.4385C7.10752 9.71464 6.88367 9.9385 6.60752 9.9385H5.58448L5.13155 13.562C5.10027 13.8122 4.88757 13.9999 4.63541 13.9999H2.47211C2.21995 13.9999 2.00725 13.8122 1.97597 13.562L1.52304 9.9385H0.5C0.223858 9.9385 0 9.71464 0 9.4385V8.41546C0 7.47294 0.374413 6.56903 1.04087 5.90257C1.70733 5.23611 2.61125 4.86169 3.55376 4.86169C4.49628 4.86169 5.40019 5.23611 6.06665 5.90257Z" fill="black"/>
</g>
<defs>
<clipPath id="clip0_1068_186994">
<rect width="14" height="14" fill="white"/>
</clipPath>
</defs>
</svg>
