<svg width="14" height="14" viewBox="0 0 14 14" fill="none" xmlns="http://www.w3.org/2000/svg">
<g clip-path="url(#clip0_1068_187006)">
<path fill-rule="evenodd" clip-rule="evenodd" d="M11.8539 0.146447C11.6586 -0.0488156 11.342 -0.0488156 11.1468 0.146447L9.14676 2.14645C9.00377 2.28945 8.96099 2.5045 9.03837 2.69134C9.11578 2.87818 9.29808 3 9.50031 3H13.5003C13.7025 3 13.8849 2.87818 13.9623 2.69134C14.0396 2.5045 13.9969 2.28945 13.8539 2.14645L11.8539 0.146447ZM9.50031 5C9.29808 5 9.11578 5.12182 9.03837 5.30866C8.96099 5.4955 9.00377 5.71055 9.14676 5.85355L11.1468 7.85355C11.342 8.04882 11.6586 8.04882 11.8539 7.85355L13.8539 5.85355C13.9969 5.71055 14.0396 5.4955 13.9623 5.30866C13.8849 5.12182 13.7025 5 13.5003 5H9.50031ZM4.35749 4.25916C4.35749 3.29745 5.1371 2.51782 6.09882 2.51782C7.06053 2.51782 7.84017 3.29745 7.84017 4.25916C7.84017 5.22088 7.06053 6.0005 6.09882 6.0005C5.1371 6.0005 4.35749 5.22088 4.35749 4.25916ZM7.10053 7.4856C7.10053 6.93331 6.65281 6.4856 6.10053 6.4856C5.54825 6.4856 5.10053 6.93331 5.10053 7.4856V9.96773C5.10053 10.52 5.54825 10.9677 6.10053 10.9677H7.99576V12.9463C7.99576 13.4986 8.44347 13.9463 8.99576 13.9463C9.54805 13.9463 9.99576 13.4986 9.99576 12.9463V10.9328C9.99576 10.4116 9.78872 9.91181 9.42021 9.54329C9.05167 9.17476 8.55186 8.96773 8.03069 8.96773H7.10053V7.4856ZM4.43864 7.3602C4.43886 7.77442 4.10325 8.11038 3.68904 8.1106C3.2958 8.1108 2.91017 8.2191 2.57432 8.42364C2.23846 8.62819 1.96528 8.92111 1.78465 9.27041C1.60401 9.61971 1.52286 10.0119 1.55007 10.4042C1.57727 10.7965 1.71179 11.1738 1.93891 11.4948C2.16603 11.8159 2.47703 12.0683 2.8379 12.2245C3.19878 12.3807 3.59566 12.4348 3.98517 12.3807C4.37467 12.3266 4.74182 12.1665 5.04648 11.9179C5.3674 11.656 5.83986 11.7038 6.10175 12.0248C6.36364 12.3457 6.31577 12.8181 5.99486 13.08C5.47716 13.5025 4.8533 13.7745 4.19144 13.8664C3.52958 13.9583 2.8552 13.8665 2.24198 13.6011C1.62877 13.3356 1.10033 12.9067 0.714388 12.3612C0.328455 11.8157 0.0998859 11.1746 0.0536572 10.508C0.00742864 9.84141 0.145319 9.17492 0.452262 8.58138C0.759204 7.98785 1.22339 7.4901 1.79409 7.14253C2.36479 6.79496 3.02004 6.61095 3.68825 6.6106C4.10246 6.61038 4.43843 6.94599 4.43864 7.3602Z" fill="black"/>
</g>
<defs>
<clipPath id="clip0_1068_187006">
<rect width="14" height="14" fill="white"/>
</clipPath>
</defs>
</svg>
