<svg width="14" height="14" viewBox="0 0 14 14" fill="none" xmlns="http://www.w3.org/2000/svg">
<g clip-path="url(#clip0_1068_187003)">
<path fill-rule="evenodd" clip-rule="evenodd" d="M7 0C3.13401 0 0 3.13401 0 7C0 10.866 3.13401 14 7 14C10.866 14 14 10.866 14 7C14 3.13401 10.866 0 7 0ZM9.61951 4.38052C9.75342 4.51443 9.80018 4.71252 9.7403 4.89218L7.89633 10.4241C7.83459 10.6093 7.67065 10.7417 7.47655 10.763C7.28245 10.7843 7.09371 10.6906 6.99325 10.5232L5.67459 8.32544L3.47682 7.00678C3.30938 6.90631 3.21575 6.71757 3.23706 6.52347C3.25836 6.32937 3.39071 6.16544 3.57596 6.10369L9.10784 4.25973C9.28751 4.19984 9.48559 4.2466 9.61951 4.38052Z" fill="black"/>
</g>
<defs>
<clipPath id="clip0_1068_187003">
<rect width="14" height="14" fill="white"/>
</clipPath>
</defs>
</svg>
