<svg width="14" height="14" viewBox="0 0 14 14" fill="none" xmlns="http://www.w3.org/2000/svg">
<g clip-path="url(#clip0_1068_187027)">
<path fill-rule="evenodd" clip-rule="evenodd" d="M7.00013 -0.000732422C9.62167 -0.000732422 11.8062 2.18383 11.8062 4.80537C11.8062 5.66096 11.5121 6.50475 11.1011 7.26925C10.6885 8.03673 10.1423 8.75332 9.59967 9.36339C9.056 9.97466 8.50667 10.4893 8.07866 10.8529C7.86488 11.0345 7.67776 11.1815 7.53349 11.2856C7.46226 11.337 7.3955 11.3822 7.33788 11.4168C7.30984 11.4336 7.27567 11.453 7.23934 11.4698C7.22125 11.4781 7.19523 11.4893 7.16418 11.4992C7.13976 11.507 7.07871 11.5253 7.00013 11.5253C6.92086 11.5253 6.85933 11.5067 6.83484 11.4988C6.80363 11.4887 6.7775 11.4774 6.75939 11.469C6.72298 11.452 6.68878 11.4325 6.66075 11.4155C6.60315 11.3806 6.53642 11.335 6.46522 11.2832C6.32105 11.1784 6.13401 11.0304 5.92034 10.8476C5.49255 10.4818 4.94347 9.9645 4.40006 9.35159C3.85773 8.73991 3.31181 8.02267 2.89933 7.25699C2.48862 6.49459 2.19403 5.65425 2.19403 4.80537C2.19403 2.18383 4.37859 -0.000732422 7.00013 -0.000732422ZM7.00013 6.24073C6.2074 6.24073 5.56476 5.5981 5.56476 4.80537C5.56476 4.01264 6.2074 3.37 7.00013 3.37C7.79286 3.37 8.43549 4.01264 8.43549 4.80537C8.43549 5.5981 7.79286 6.24073 7.00013 6.24073ZM10.0993 10.1564C10.2838 9.94899 10.4684 9.73169 10.6496 9.50594H11.0713H11.9927C12.1927 9.50594 12.3735 9.62514 12.4523 9.80898L13.95 13.3038C14.0162 13.4583 14.0004 13.6357 13.9079 13.776C13.8154 13.9163 13.6585 14.0007 13.4905 14.0007H0.509767C0.341696 14.0007 0.184868 13.9163 0.0923466 13.776C-0.000175104 13.6357 -0.0160118 13.4583 0.0501951 13.3038L1.54796 9.80898C1.62675 9.62514 1.80752 9.50594 2.00754 9.50594H2.92887H3.36287C3.53994 9.72642 3.7202 9.93892 3.90029 10.142C4.56182 10.8882 5.23036 11.5181 5.75083 11.9631C6.01085 12.1855 6.23751 12.3648 6.41111 12.491C6.497 12.5535 6.57588 12.6073 6.64264 12.6477C6.67525 12.6675 6.71328 12.6891 6.75272 12.7075C6.77236 12.7167 6.79979 12.7285 6.8321 12.7389C6.85771 12.7472 6.92013 12.766 7.00007 12.766C7.07934 12.766 7.14128 12.7475 7.1668 12.7394C7.19896 12.7291 7.22629 12.7174 7.24589 12.7083C7.28526 12.6901 7.32326 12.6687 7.35588 12.6491C7.42266 12.609 7.50155 12.5556 7.5875 12.4936C7.76119 12.3683 7.98795 12.1903 8.24807 11.9693C8.76874 11.527 9.43756 10.9004 10.0993 10.1564Z" fill="black"/>
</g>
<defs>
<clipPath id="clip0_1068_187027">
<rect width="14" height="14" fill="white"/>
</clipPath>
</defs>
</svg>
