<svg width="14" height="14" viewBox="0 0 14 14" fill="none" xmlns="http://www.w3.org/2000/svg">
<g clip-path="url(#clip0_1068_187021)">
<path fill-rule="evenodd" clip-rule="evenodd" d="M1.28033 0.21967C0.987437 -0.0732233 0.512563 -0.0732233 0.21967 0.21967C-0.0732233 0.512563 -0.0732233 0.987437 0.21967 1.28033L12.7197 13.7803C13.0126 14.0732 13.4874 14.0732 13.7803 13.7803C14.0732 13.4874 14.0732 13.0126 13.7803 12.7197L11.4017 10.3411C12.2626 9.14903 12.9374 7.692 12.9374 6.04722C12.9374 2.71895 10.2881 0.00439449 6.99994 0.00439449C5.36602 0.00439449 3.88985 0.67466 2.81809 1.75743L1.28033 0.21967ZM5.38407 4.32341L8.17872 7.11806C8.67655 6.75428 8.99994 6.166 8.99994 5.5022C8.99994 4.39763 8.10451 3.5022 6.99994 3.5022C6.33613 3.5022 5.74786 3.82559 5.38407 4.32341ZM1.06244 6.04722C1.06244 5.39431 1.16439 4.76502 1.35312 4.17521L9.55086 12.3729C8.84883 13.0043 8.19333 13.4781 7.76654 13.765C7.30048 14.0783 6.6994 14.0783 6.23334 13.765C5.54665 13.3034 4.26791 12.3581 3.15593 11.0508C2.04766 9.74788 1.06244 8.03461 1.06244 6.04722Z" fill="black"/>
</g>
<defs>
<clipPath id="clip0_1068_187021">
<rect width="14" height="14" fill="white"/>
</clipPath>
</defs>
</svg>
