<svg width="14" height="14" viewBox="0 0 14 14" fill="none" xmlns="http://www.w3.org/2000/svg">
<g clip-path="url(#clip0_1068_187033)">
<path fill-rule="evenodd" clip-rule="evenodd" d="M7.74994 0.765625C7.74994 0.351411 7.41415 0.015625 6.99994 0.015625C6.58573 0.015625 6.24994 0.351411 6.24994 0.765625V1.98904C4.05243 2.31515 2.31515 4.05243 1.98904 6.24994H0.765625C0.351411 6.24994 0.015625 6.58573 0.015625 6.99994C0.015625 7.41415 0.351411 7.74994 0.765625 7.74994H1.98903C2.31513 9.94747 4.05242 11.6847 6.24994 12.0108V13.2342C6.24994 13.6484 6.58573 13.9842 6.99994 13.9842C7.41415 13.9842 7.74994 13.6484 7.74994 13.2342V12.0108C9.94748 11.6847 11.6847 9.94748 12.0108 7.74994H13.2342C13.6484 7.74994 13.9842 7.41415 13.9842 6.99994C13.9842 6.58573 13.6484 6.24994 13.2342 6.24994H12.0108C11.6847 4.05242 9.94747 2.31513 7.74994 1.98903V0.765625ZM10.566 6.99392C10.5627 5.02722 8.96742 3.4339 6.99995 3.4339C5.03048 3.4339 3.4339 5.03048 3.4339 6.99995C3.4339 8.96742 5.02722 10.5627 6.99392 10.566L6.99994 10.5659L7.00596 10.566C8.97068 10.5627 10.5627 8.97067 10.566 7.00596L10.5659 6.99994L10.566 6.99392ZM5.77008 6.99996C5.77008 6.32072 6.32072 5.77008 6.99996 5.77008C7.6792 5.77008 8.22984 6.32072 8.22984 6.99996C8.22984 7.6792 7.6792 8.22984 6.99996 8.22984C6.32072 8.22984 5.77008 7.6792 5.77008 6.99996Z" fill="black"/>
</g>
<defs>
<clipPath id="clip0_1068_187033">
<rect width="14" height="14" fill="white"/>
</clipPath>
</defs>
</svg>
