<svg width="14" height="14" viewBox="0 0 14 14" fill="none" xmlns="http://www.w3.org/2000/svg">
<g clip-path="url(#clip0_1068_187039)">
<path fill-rule="evenodd" clip-rule="evenodd" d="M5.76256 2.26256C6.09075 1.93437 6.53587 1.75 7 1.75C7.46413 1.75 7.90925 1.93437 8.23744 2.26256C8.56563 2.59075 8.75 3.03587 8.75 3.5H5.25C5.25 3.03587 5.43437 2.59075 5.76256 2.26256ZM3.75 3.5C3.75 2.63805 4.09241 1.8114 4.7019 1.2019C5.3114 0.59241 6.13805 0.25 7 0.25C7.86195 0.25 8.6886 0.59241 9.2981 1.2019C9.90759 1.8114 10.25 2.63805 10.25 3.5H11.5C12.8807 3.5 14 4.61929 14 6V11.5C14 12.8807 12.8807 14 11.5 14H2.5C1.11929 14 0 12.8807 0 11.5V6C0 4.61929 1.11929 3.5 2.5 3.5H3.75ZM6.66515 6.56661C6.82504 6.50038 7.00097 6.48305 7.1707 6.51681C7.34044 6.55058 7.49635 6.63391 7.61872 6.75628C7.74109 6.87865 7.82443 7.03456 7.85819 7.2043C7.89195 7.37403 7.87462 7.54996 7.80839 7.70985C7.74217 7.86973 7.63002 8.00639 7.48612 8.10254C7.34223 8.19868 7.17306 8.25 7 8.25C6.65482 8.25 6.375 8.52982 6.375 8.875V9.875C6.375 10.2202 6.65482 10.5 7 10.5C7.34518 10.5 7.625 10.2202 7.625 9.875V9.40601C7.82097 9.3457 8.00825 9.25703 8.18059 9.14187C8.53004 8.90838 8.80241 8.5765 8.96324 8.1882C9.12408 7.79991 9.16616 7.37264 9.08417 6.96043C9.00218 6.54822 8.79979 6.16959 8.5026 5.8724C8.20542 5.57521 7.82678 5.37283 7.41457 5.29083C7.00236 5.20884 6.57509 5.25092 6.1868 5.41176C5.7985 5.57259 5.46663 5.84496 5.23313 6.19441C4.99963 6.54387 4.875 6.95472 4.875 7.375C4.875 7.72018 5.15482 8 5.5 8C5.84518 8 6.125 7.72018 6.125 7.375C6.125 7.20194 6.17632 7.03277 6.27246 6.88888C6.36861 6.74498 6.50527 6.63283 6.66515 6.56661ZM7.00195 12.875C6.58774 12.875 6.25195 12.5392 6.25195 12.125C6.25195 11.7108 6.58774 11.375 7.00195 11.375C7.41617 11.375 7.75195 11.7108 7.75195 12.125C7.75195 12.5392 7.41617 12.875 7.00195 12.875Z" fill="black"/>
</g>
<defs>
<clipPath id="clip0_1068_187039">
<rect width="14" height="14" fill="white"/>
</clipPath>
</defs>
</svg>
