<svg width="14" height="14" viewBox="0 0 14 14" fill="none" xmlns="http://www.w3.org/2000/svg">
<g clip-path="url(#clip0_1068_187000)">
<path fill-rule="evenodd" clip-rule="evenodd" d="M8 0.75C8 0.335786 8.33579 0 8.75 0H13.25C13.3517 0 13.4487 0.0202391 13.5371 0.0569091C13.6255 0.093509 13.7084 0.147763 13.7803 0.21967C13.8522 0.291577 13.9065 0.374453 13.9431 0.462912C13.9798 0.551342 14 0.648308 14 0.75V5.25C14 5.66421 13.6642 6 13.25 6C12.8358 6 12.5 5.66421 12.5 5.25V2.56066L9.0261 6.03456C9.63821 6.86422 10 7.88986 10 9C10 11.7614 7.76142 14 5 14C2.23858 14 0 11.7614 0 9C0 6.23858 2.23858 4 5 4C6.11014 4 7.13578 4.36179 7.96544 4.9739L11.4393 1.5H8.75C8.33579 1.5 8 1.16421 8 0.75ZM7.40624 6.45833C6.77901 5.86432 5.93205 5.5 5 5.5C3.067 5.5 1.5 7.067 1.5 9C1.5 10.933 3.067 12.5 5 12.5C6.933 12.5 8.5 10.933 8.5 9C8.5 8.06795 8.13568 7.22099 7.54167 6.59376C7.51667 6.57442 7.49261 6.55327 7.46967 6.53033C7.44673 6.50739 7.42558 6.48333 7.40624 6.45833Z" fill="black"/>
</g>
<defs>
<clipPath id="clip0_1068_187000">
<rect width="14" height="14" fill="white"/>
</clipPath>
</defs>
</svg>
