<svg width="14" height="14" viewBox="0 0 14 14" fill="none" xmlns="http://www.w3.org/2000/svg">
<g clip-path="url(#clip0_1068_187009)">
<path fill-rule="evenodd" clip-rule="evenodd" d="M0.21967 1.28033C-0.0732233 0.987437 -0.0732233 0.512563 0.21967 0.21967C0.512563 -0.0732233 0.987437 -0.0732233 1.28033 0.21967L5.18871 4.12805L12.1704 1.17426C12.584 0.999271 13.0007 1.41596 12.8257 1.82956L9.87191 8.81125L13.7803 12.7197C14.0732 13.0126 14.0732 13.4874 13.7803 13.7803C13.4874 14.0732 13.0126 14.0732 12.7197 13.7803L0.21967 1.28033ZM0.305194 6.19415L2.66008 5.19786L8.80211 11.3399L7.80581 13.6948C7.63952 14.0878 7.08897 14.1053 6.89811 13.7236L4.76541 9.45816C4.71703 9.36139 4.63857 9.28293 4.54181 9.23455L0.276408 7.10185C-0.105309 6.91099 -0.0878496 6.36044 0.305194 6.19415Z" fill="black"/>
</g>
<defs>
<clipPath id="clip0_1068_187009">
<rect width="14" height="14" fill="white"/>
</clipPath>
</defs>
</svg>
