<svg width="14" height="14" viewBox="0 0 14 14" fill="none" xmlns="http://www.w3.org/2000/svg">
<g clip-path="url(#clip0_1068_187018)">
<path fill-rule="evenodd" clip-rule="evenodd" d="M0 3.5C0 1.567 1.567 0 3.5 0H10.5C12.433 0 14 1.567 14 3.5V10.5C14 12.433 12.433 14 10.5 14H3.5C1.567 14 0 12.433 0 10.5V3.5ZM5.20905 3.11725C5.04328 3.11725 4.88431 3.1831 4.7671 3.30031C4.64989 3.41752 4.58405 3.57649 4.58405 3.74225V7.84145V10.7695C4.58405 11.1146 4.86387 11.3945 5.20905 11.3945C5.55422 11.3945 5.83405 11.1146 5.83405 10.7695V8.46645H8.39385C9.56745 8.46645 10.5188 7.51506 10.5188 6.34145V5.24225C10.5188 4.06864 9.56745 3.11725 8.39385 3.11725H5.20905ZM8.39385 7.21645H5.83405V4.36725H8.39385C8.8771 4.36725 9.26885 4.759 9.26885 5.24225V6.34145C9.26885 6.8247 8.8771 7.21645 8.39385 7.21645Z" fill="black"/>
</g>
<defs>
<clipPath id="clip0_1068_187018">
<rect width="14" height="14" fill="white"/>
</clipPath>
</defs>
</svg>
