<svg width="14" height="14" viewBox="0 0 14 14" fill="none" xmlns="http://www.w3.org/2000/svg">
<g clip-path="url(#clip0_1068_187024)">
<path fill-rule="evenodd" clip-rule="evenodd" d="M7.00073 0.0505371C6.80181 0.0505371 6.61104 0.12956 6.47039 0.27022C6.32973 0.41088 6.25072 0.601655 6.25073 0.800574L6.25084 2.97346L5.1403 5.08478C5.10255 5.15656 5.08282 5.23644 5.08282 5.31755L5.08283 8.0542H8.87195L8.87194 5.31754C8.87194 5.23644 8.85221 5.15656 8.81446 5.08478L7.75084 3.06265L7.75077 1.55054H8.37191C8.78612 1.55054 9.12191 1.21475 9.12191 0.800537C9.12191 0.386324 8.78612 0.0505371 8.37191 0.0505371H7.00073ZM9.66723 9.3042H4.28668V13.863C4.28668 13.8717 4.2865 13.8805 4.28614 13.8891H6.09888V12.498C6.09888 11.9999 6.50262 11.5962 7.00067 11.5962C7.49872 11.5962 7.90247 11.9999 7.90247 12.498V13.8891H9.66777C9.66751 13.8827 9.66734 13.8762 9.66727 13.8696C9.66725 13.8674 9.66723 13.8652 9.66723 13.863V9.3042ZM11.4017 13.8891H10.9167C10.9171 13.8805 10.9173 13.8717 10.9173 13.863V6.64539C10.9237 6.59657 10.9373 6.54885 10.9578 6.5038L11.9565 4.3054C12.0376 4.12685 12.2156 4.01221 12.4117 4.01221C12.6078 4.01221 12.7858 4.12685 12.867 4.3054L13.8657 6.5038C13.8952 6.56876 13.9105 6.63927 13.9105 6.71061V13.3892C13.9105 13.6654 13.6866 13.8892 13.4105 13.8892H11.413L11.4017 13.8891ZM3.03722 13.8891C3.03686 13.8805 3.03668 13.8717 3.03668 13.863V6.64941C3.03049 6.59919 3.01669 6.55009 2.99567 6.5038L1.99693 4.3054C1.91582 4.12685 1.73781 4.01221 1.5417 4.01221C1.3456 4.01221 1.16759 4.12685 1.08648 4.3054L0.0877434 6.5038C0.0582354 6.56876 0.0429688 6.63927 0.0429688 6.71061V13.3892C0.0429688 13.6654 0.266826 13.8892 0.542968 13.8892H2.54044L2.55173 13.8891H3.03722Z" fill="black"/>
</g>
<defs>
<clipPath id="clip0_1068_187024">
<rect width="14" height="14" fill="white"/>
</clipPath>
</defs>
</svg>
