<svg width="14" height="14" viewBox="0 0 14 14" fill="none" xmlns="http://www.w3.org/2000/svg">
<path fill-rule="evenodd" clip-rule="evenodd" d="M2.5 0C1.67157 0 1 0.671573 1 1.5V12.5C1 13.3284 1.67157 14 2.5 14H11.5C12.3284 14 13 13.3284 13 12.5V1.5C13 0.671573 12.3284 0 11.5 0H2.5ZM7.5 9.36361C8.97758 9.14584 10.1458 7.97759 10.3636 6.5H7.5V9.36361ZM6.5 9.36362C5.02239 9.14587 3.85412 7.97761 3.63636 6.5H6.5V9.36362ZM7.5 5.5H10.3636C10.1458 4.02241 8.97758 2.85416 7.5 2.63639V5.5ZM6.5 2.63638V5.5H3.63636C3.85412 4.02239 5.02239 2.85413 6.5 2.63638Z" fill="black"/>
</svg>
