<svg width="14" height="14" viewBox="0 0 14 14" fill="none" xmlns="http://www.w3.org/2000/svg">
<path fill-rule="evenodd" clip-rule="evenodd" d="M4.5 1.5C4.00467 1.5 3.61743 1.80115 3.37687 2.16199C3.13398 2.52632 3 3.00084 3 3.5C3 3.99916 3.13398 4.47368 3.37687 4.83801C3.61743 5.19885 4.00467 5.5 4.5 5.5C4.99533 5.5 5.38257 5.19885 5.62313 4.83801C5.86602 4.47368 6 3.99916 6 3.5C6 3.00084 5.86602 2.52632 5.62313 2.16199C5.38257 1.80115 4.99533 1.5 4.5 1.5ZM9.5 1.5C9.00467 1.5 8.61743 1.80115 8.37687 2.16199C8.13398 2.52632 8 3.00084 8 3.5C8 3.99916 8.13398 4.47368 8.37687 4.83801C8.61743 5.19885 9.00467 5.5 9.5 5.5C9.99533 5.5 10.3826 5.19885 10.6231 4.83801C10.866 4.47368 11 3.99916 11 3.5C11 3.00084 10.866 2.52632 10.6231 2.16199C10.3826 1.80115 9.99533 1.5 9.5 1.5ZM1.5 6C1.00467 6 0.617427 6.30115 0.376868 6.66199C0.133979 7.02632 0 7.50084 0 8C0 8.49916 0.133979 8.97368 0.376868 9.33801C0.617427 9.69885 1.00467 10 1.5 10C1.99533 10 2.38257 9.69885 2.62313 9.33801C2.86602 8.97368 3 8.49916 3 8C3 7.50084 2.86602 7.02632 2.62313 6.66199C2.38257 6.30115 1.99533 6 1.5 6ZM7 6C5.79915 6 4.91124 6.6437 4.34264 7.44257C3.7819 8.23042 3.5 9.20692 3.5 10C3.5 10.9241 4.05528 11.5665 4.73585 11.9524C5.40634 12.3327 6.24658 12.5 7 12.5C7.75342 12.5 8.59366 12.3327 9.26415 11.9524C9.94472 11.5665 10.5 10.9241 10.5 10C10.5 9.20692 10.2181 8.23042 9.65736 7.44257C9.08876 6.6437 8.20085 6 7 6ZM12.5 6C12.0047 6 11.6174 6.30115 11.3769 6.66199C11.134 7.02632 11 7.50084 11 8C11 8.49916 11.134 8.97368 11.3769 9.33801C11.6174 9.69885 12.0047 10 12.5 10C12.9953 10 13.3826 9.69885 13.6231 9.33801C13.866 8.97368 14 8.49916 14 8C14 7.50084 13.866 7.02632 13.6231 6.66199C13.3826 6.30115 12.9953 6 12.5 6Z" fill="black"/>
</svg>
