<svg width="14" height="14" viewBox="0 0 14 14" fill="none" xmlns="http://www.w3.org/2000/svg">
<path fill-rule="evenodd" clip-rule="evenodd" d="M8.17039 3.10766C8.53779 2.37285 9.28883 1.90869 10.1104 1.90869H10.8433C10.9814 1.90869 11.0933 2.02062 11.0933 2.15869V4.3772L13.8008 5.2797C13.9029 5.31373 13.9718 5.40926 13.9718 5.51687V6.47635C13.9718 7.67423 13.0007 8.64531 11.8028 8.64531H10.1339V8.64729C9.10921 8.43041 8.34939 7.85304 7.79796 7.17262C7.38336 6.66105 7.09548 6.10068 6.91474 5.61896L8.17039 3.10766ZM5.63646 5.74661H4.03403C3.21932 5.74661 2.42886 5.46933 1.79268 4.96039L0.445236 3.88243C0.370194 3.8224 0.267382 3.8107 0.180765 3.85233C0.0941489 3.89396 0.0390625 3.98155 0.0390625 4.07765V12.2332C0.0390625 13.1662 0.795352 13.9225 1.72828 13.9225C2.66121 13.9225 3.4175 13.1662 3.4175 12.2332V11.7535C3.4175 11.3617 3.73515 11.044 4.12698 11.044H6.04594C6.43778 11.044 6.75542 11.3617 6.75542 11.7535V12.2332C6.75542 13.1662 7.51171 13.9225 8.44464 13.9225C9.37757 13.9225 10.1339 13.1662 10.1339 12.2332V9.91837C8.64396 9.67937 7.56371 8.86891 6.82683 7.95965C6.23138 7.22491 5.84849 6.41338 5.63646 5.74661Z" fill="black"/>
</svg>
