<svg width="14" height="14" viewBox="0 0 14 14" fill="none" xmlns="http://www.w3.org/2000/svg">
<g clip-path="url(#clip0_1068_187102)">
<path fill-rule="evenodd" clip-rule="evenodd" d="M4.60535 1.52393C4.29618 1.52393 3.99968 1.64674 3.78106 1.86535C3.56245 2.08397 3.43964 2.38047 3.43964 2.68964C3.43964 3.10385 3.10385 3.43964 2.68964 3.43964C2.27542 3.43964 1.93964 3.10385 1.93964 2.68964C1.93964 1.98265 2.22049 1.30461 2.7204 0.804695C3.22032 0.304777 3.89836 0.0239258 4.60535 0.0239258C5.31234 0.0239258 5.99037 0.304777 6.49029 0.804695C6.99021 1.30461 7.27106 1.98265 7.27106 2.68964V3.85535H10.5604V2.68964C10.5604 2.38047 10.4375 2.08397 10.2189 1.86535C10.0003 1.64674 9.70382 1.52393 9.39465 1.52393C8.98044 1.52393 8.64465 1.18814 8.64465 0.773926C8.64465 0.359712 8.98044 0.0239258 9.39465 0.0239258C10.1016 0.0239258 10.7797 0.304777 11.2796 0.804695C11.7795 1.30461 12.0604 1.98265 12.0604 2.68964V8.69229C12.0604 9.10651 11.7246 9.44229 11.3104 9.44229C10.8962 9.44229 10.5604 9.10651 10.5604 8.69229V8.229H7.27106V8.82001C7.27106 9.23422 6.93527 9.57001 6.52106 9.57001C6.10685 9.57001 5.77106 9.23422 5.77106 8.82001V7.48071V7.479V7.47729V4.60706V4.60535V4.60364V2.68964C5.77106 2.38047 5.64824 2.08397 5.42963 1.86535C5.21102 1.64674 4.91451 1.52393 4.60535 1.52393ZM7.27106 6.729H10.5604V5.35535H7.27106V6.729ZM1.99731 10.8308C2.19828 10.8297 2.38038 10.9491 2.45956 11.1338C2.62435 11.5183 2.90609 11.841 3.26476 12.0562C3.95514 12.4704 5.04486 12.4704 5.73524 12.0562C6.09391 11.841 6.37565 11.5183 6.54044 11.1338C6.61924 10.95 6.8 10.8308 7 10.8308C7.2 10.8308 7.38076 10.95 7.45956 11.1338C7.62435 11.5183 7.90609 11.841 8.26476 12.0562C8.95514 12.4704 10.0449 12.4704 10.7352 12.0562C11.0939 11.841 11.3756 11.5183 11.5404 11.1338C11.6196 10.9491 11.8017 10.8297 12.0027 10.8308C12.2037 10.8319 12.3845 10.9532 12.4617 11.1388C12.5672 11.3925 12.7279 11.6195 12.9322 11.8034C13.1365 11.9872 13.3791 12.1232 13.6425 12.2015C13.8546 12.2646 14 12.4596 14 12.6808V13.5C14 13.7761 13.7761 14 13.5 14H0.5C0.223858 14 0 13.7761 0 13.5V12.6808C0 12.4596 0.145416 12.2646 0.357494 12.2015C0.620899 12.1232 0.863547 11.9872 1.06781 11.8034C1.27207 11.6195 1.43281 11.3925 1.53835 11.1388C1.61553 10.9532 1.79633 10.8319 1.99731 10.8308Z" fill="black"/>
</g>
<defs>
<clipPath id="clip0_1068_187102">
<rect width="14" height="14" fill="white"/>
</clipPath>
</defs>
</svg>
