<svg width="14" height="14" viewBox="0 0 14 14" fill="none" xmlns="http://www.w3.org/2000/svg">
<g clip-path="url(#clip0_1068_187045)">
<path fill-rule="evenodd" clip-rule="evenodd" d="M0.853553 0.146462C0.710554 0.0034622 0.495495 -0.0393156 0.308658 0.0380748C0.121821 0.115466 0 0.297784 0 0.500015V13.5C0 13.7761 0.223858 14 0.5 14H9C9.1498 14 9.2917 13.9328 9.38667 13.817C9.48164 13.7012 9.51967 13.5488 9.49029 13.4019L8.99029 10.9019C8.96934 10.7972 8.91539 10.7019 8.83634 10.63L3.46952 5.75112L2.99497 2.4293C2.97968 2.3222 2.93005 2.22295 2.85355 2.14646L0.853553 0.146462ZM8 5.00001C8 3.89544 8.89543 3.00001 10 3.00001C11.1046 3.00001 12 3.89544 12 5.00001C12 6.10458 11.1046 7.00001 10 7.00001C8.89543 7.00001 8 6.10458 8 5.00001ZM12 11C12 10.4477 12.4477 10 13 10C13.5523 10 14 10.4477 14 11C14 11.5523 13.5523 12 13 12C12.4477 12 12 11.5523 12 11ZM5 1.00001C5 0.44773 5.44772 1.45805e-05 6 1.45805e-05C6.55228 1.45805e-05 7 0.44773 7 1.00001C7 1.55229 6.55228 2.00001 6 2.00001C5.44772 2.00001 5 1.55229 5 1.00001Z" fill="black"/>
</g>
<defs>
<clipPath id="clip0_1068_187045">
<rect width="14" height="14" fill="white"/>
</clipPath>
</defs>
</svg>
