<svg width="14" height="14" viewBox="0 0 14 14" fill="none" xmlns="http://www.w3.org/2000/svg">
<g clip-path="url(#clip0_1068_187084)">
<path fill-rule="evenodd" clip-rule="evenodd" d="M5.75 7.00001H1.327C1.13299 7.00001 0.956494 6.88778 0.874204 6.71209C0.791914 6.5364 0.818687 6.32896 0.942888 6.17992L5.94289 0.179921C6.06104 0.0381391 6.24105 -0.0216865 6.4108 0.00700183C6.44005 0.00353519 6.46982 0.00175205 6.5 0.00175205C6.91421 0.00175203 7.25 0.337539 7.25 0.751752V9.00001H13.5C13.664 9.00001 13.8176 9.08043 13.911 9.21521C14.0044 9.35 14.0257 9.52202 13.9682 9.67557L12.9548 12.3778C12.5889 13.3536 11.6561 14 10.614 14H3.386C2.34389 14 1.41109 13.3536 1.04518 12.3778L0.0318383 9.67557C-0.0257423 9.52202 -0.00436765 9.35 0.0890401 9.21521C0.182448 9.08043 0.336013 9.00001 0.500003 9.00001H5.75V7.00001ZM9.38138 2.19558C9.25096 2.02566 9.02681 1.95769 8.82399 2.02656C8.62117 2.09542 8.48474 2.28582 8.48474 2.50001V6.50001C8.48474 6.77615 8.7086 7.00001 8.98474 7.00001H12.0549C12.2453 7.00001 12.4192 6.89188 12.5033 6.72112C12.5875 6.55036 12.5675 6.34661 12.4515 6.19558L9.38138 2.19558Z" fill="black"/>
</g>
<defs>
<clipPath id="clip0_1068_187084">
<rect width="14" height="14" fill="white"/>
</clipPath>
</defs>
</svg>
