<svg width="14" height="14" viewBox="0 0 14 14" fill="none" xmlns="http://www.w3.org/2000/svg">
<path fill-rule="evenodd" clip-rule="evenodd" d="M0.144531 3.52562C0.144531 2.55913 0.928033 1.77563 1.89453 1.77563H10.7151C11.6816 1.77563 12.4651 2.55913 12.4651 3.52563V6.20613H12.7159C13.4062 6.20613 13.9659 6.76577 13.9659 7.45613V10.8411C13.9659 11.4805 13.4859 12.0078 12.8665 12.0822C12.8724 12.0121 12.8754 11.9413 12.8754 11.8697C12.8754 10.4829 11.7512 9.3587 10.3644 9.3587C8.97761 9.3587 7.85339 10.4829 7.85339 11.8697C7.85339 11.9443 7.85665 12.0182 7.86302 12.0911H5.75626C5.76264 12.0182 5.76589 11.9443 5.76589 11.8697C5.76589 10.4829 4.64168 9.3587 3.25489 9.3587C1.91215 9.3587 0.815566 10.4127 0.74727 11.7384C0.37981 11.4438 0.144531 10.9911 0.144531 10.4835V3.52562ZM1.89527 4.24996C1.7572 4.24996 1.64527 4.36189 1.64527 4.49996V6.24996H3.65741V4.24996H1.89527ZM5.15741 4.24996V6.24996H7.39001V4.24996H5.15741ZM10.9651 6.24996H8.89001V4.24996H10.7151C10.8532 4.24996 10.9651 4.36189 10.9651 4.49996V6.24996ZM4.51589 11.8697C4.51589 12.5662 3.95132 13.1307 3.25489 13.1307C2.55846 13.1307 1.9939 12.5662 1.9939 11.8697C1.9939 11.1733 2.55846 10.6087 3.25489 10.6087C3.95132 10.6087 4.51589 11.1733 4.51589 11.8697ZM11.6254 11.8697C11.6254 12.5662 11.0608 13.1307 10.3644 13.1307C9.66796 13.1307 9.10339 12.5662 9.10339 11.8697C9.10339 11.1733 9.66796 10.6087 10.3644 10.6087C11.0608 10.6087 11.6254 11.1733 11.6254 11.8697Z" fill="black"/>
</svg>
