<svg width="14" height="14" viewBox="0 0 14 14" fill="none" xmlns="http://www.w3.org/2000/svg">
<path fill-rule="evenodd" clip-rule="evenodd" d="M2.5 0.00537109C2.08579 0.00537109 1.75 0.341157 1.75 0.755371C1.75 1.16958 2.08579 1.50537 2.5 1.50537H3.00781C3.0685 2.475 3.48057 3.39279 4.17157 4.0838C4.92172 4.83394 5.93913 5.25537 7 5.25537C8.06087 5.25537 9.07828 4.83394 9.82843 4.0838C10.5194 3.39279 10.9315 2.475 10.9922 1.50537H11.5C11.9142 1.50537 12.25 1.16958 12.25 0.755371C12.25 0.341157 11.9142 0.00537109 11.5 0.00537109H2.5ZM4.16563 7.70491C4.42438 7.38146 4.37194 6.90949 4.0485 6.65074C3.72505 6.39198 3.25308 6.44442 2.99432 6.76787C2.39072 7.52237 2.18064 8.25226 2.27364 8.97299C2.35542 9.6068 2.6703 10.1569 2.90309 10.5636L2.92879 10.6085C3.19412 11.0729 3.35847 11.3805 3.39864 11.6918C3.43064 11.9398 3.39072 12.2724 2.99432 12.7679C2.73557 13.0914 2.78801 13.5633 3.11145 13.8221C3.4349 14.0808 3.90687 14.0284 4.16563 13.7049C4.76923 12.9504 4.97931 12.2206 4.88631 11.4998C4.80453 10.866 4.48965 10.3159 4.25686 9.9092L4.23116 9.86428C3.96583 9.39996 3.80147 9.09233 3.76131 8.78103C3.72931 8.53302 3.76923 8.2004 4.16563 7.70491ZM7.58567 7.70491C7.84443 7.38146 7.79199 6.90949 7.46854 6.65074C7.14509 6.39198 6.67312 6.44442 6.41437 6.76787C5.81076 7.52237 5.60069 8.25226 5.69369 8.97299C5.77547 9.6068 6.09035 10.1569 6.32314 10.5636L6.34884 10.6085C6.61417 11.0729 6.77852 11.3805 6.81869 11.6918C6.85069 11.9398 6.81076 12.2724 6.41437 12.7679C6.15561 13.0914 6.20805 13.5633 6.5315 13.8221C6.85494 14.0808 7.32691 14.0284 7.58567 13.7049C8.18928 12.9504 8.39935 12.2206 8.30635 11.4998C8.22457 10.866 7.90969 10.3159 7.6769 9.9092L7.6512 9.86428C7.38587 9.39996 7.22152 9.09233 7.18135 8.78103C7.14935 8.53302 7.18928 8.2004 7.58567 7.70491ZM10.8885 6.65074C11.212 6.90949 11.2644 7.38146 11.0057 7.70491C10.6093 8.2004 10.5693 8.53302 10.6013 8.78103C10.6415 9.09233 10.8059 9.39996 11.0712 9.86428L11.0969 9.9092C11.3297 10.3159 11.6446 10.866 11.7263 11.4998C11.8193 12.2206 11.6093 12.9504 11.0057 13.7049C10.7469 14.0284 10.2749 14.0808 9.95148 13.8221C9.62803 13.5633 9.57559 13.0914 9.83435 12.7679C10.2307 12.2724 10.2707 11.9398 10.2387 11.6918C10.1985 11.3805 10.0341 11.0729 9.76882 10.6085L9.74312 10.5636C9.51033 10.1569 9.19545 9.6068 9.11367 8.97299C9.02067 8.25226 9.23074 7.52237 9.83435 6.76787C10.0931 6.44442 10.5651 6.39198 10.8885 6.65074Z" fill="black"/>
</svg>
