<svg width="14" height="14" viewBox="0 0 14 14" fill="none" xmlns="http://www.w3.org/2000/svg">
<g clip-path="url(#clip0_1068_187054)">
<path fill-rule="evenodd" clip-rule="evenodd" d="M12.3135 0.16823C12.0439 0.383861 12.0002 0.777169 12.2159 1.04671C12.6295 1.56378 12.6836 1.92951 12.6465 2.21692C12.6026 2.55705 12.424 2.88633 12.1612 3.34619L12.1384 3.38613C11.9039 3.79608 11.6001 4.32702 11.5215 4.93567C11.4336 5.61701 11.6295 6.31378 12.2159 7.04671C12.4315 7.31625 12.8248 7.35995 13.0943 7.14432C13.3639 6.92868 13.4076 6.53538 13.1919 6.26584C12.7783 5.74876 12.7242 5.38304 12.7613 5.09563C12.8051 4.75549 12.9838 4.42622 13.2466 3.96636L13.2694 3.92641C13.5039 3.51647 13.8077 2.98553 13.8863 2.37688C13.9742 1.69554 13.7783 0.998762 13.1919 0.265839C12.9763 -0.0037 12.583 -0.0474009 12.3135 0.16823ZM9.64354 0.16823C9.374 0.383861 9.3303 0.777169 9.54593 1.04671C9.9596 1.56378 10.0137 1.92951 9.97662 2.21692C9.93273 2.55705 9.7541 2.88633 9.49133 3.34619L9.46848 3.38613C9.23393 3.79608 8.93015 4.32702 8.85162 4.93567C8.7637 5.61701 8.9596 6.31378 9.54593 7.04671C9.76157 7.31625 10.1549 7.35995 10.4244 7.14432C10.694 6.92868 10.7377 6.53538 10.522 6.26584C10.1084 5.74876 10.0543 5.38304 10.0913 5.09563C10.1352 4.75549 10.3139 4.42622 10.5766 3.96636L10.5995 3.92641C10.834 3.51647 11.1378 2.98553 11.2163 2.37688C11.3043 1.69554 11.1084 0.998762 10.522 0.265839C10.3064 -0.0037 9.91308 -0.0474009 9.64354 0.16823ZM13.5 8.87502H11.625V13.875H13.5C13.7761 13.875 14 13.6511 14 13.375V9.37502C14 9.09888 13.7761 8.87502 13.5 8.87502ZM1.5 13.875H10.375V8.87502H1.5C0.671573 8.87502 0 9.5466 0 10.375V12.375C0 13.2034 0.671574 13.875 1.5 13.875Z" fill="black"/>
</g>
<defs>
<clipPath id="clip0_1068_187054">
<rect width="14" height="14" fill="white"/>
</clipPath>
</defs>
</svg>
