<svg width="14" height="14" viewBox="0 0 14 14" fill="none" xmlns="http://www.w3.org/2000/svg">
<g clip-path="url(#clip0_1068_187048)">
<path fill-rule="evenodd" clip-rule="evenodd" d="M13.1885 0.0620117C13.6027 0.0620117 13.9385 0.397798 13.9385 0.812012V10.332C13.9385 11.2883 13.5586 12.2055 12.8823 12.8818C12.2061 13.558 11.2889 13.938 10.3325 13.938H8.4285C7.47213 13.938 6.55494 13.558 5.87868 12.8818C5.20243 12.2055 4.82251 11.2883 4.82251 10.332C4.82251 9.91776 5.1583 9.58197 5.57251 9.58197C5.98673 9.58197 6.32251 9.91776 6.32251 10.332C6.32251 10.8905 6.54439 11.4262 6.93934 11.8211C7.33429 12.2161 7.86996 12.438 8.4285 12.438H10.3325C10.891 12.438 11.4267 12.2161 11.8217 11.8211C12.2166 11.4262 12.4385 10.8905 12.4385 10.332V0.812012C12.4385 0.397798 12.7743 0.0620117 13.1885 0.0620117ZM1.01661 2.83775C1.46745 2.38691 2.07892 2.13364 2.71649 2.13364H8.42847C9.06605 2.13364 9.67751 2.38691 10.1284 2.83775C10.5792 3.28859 10.8325 3.90005 10.8325 4.53763V6.44162C10.8325 7.0792 10.5792 7.69066 10.1284 8.1415C9.67751 8.59234 9.06605 8.84561 8.42847 8.84561H7.47648C7.30953 8.84561 7.1536 8.76229 7.06082 8.62351L5.94764 6.9585C5.90632 6.89717 5.8503 6.84648 5.78503 6.8117C5.7196 6.77685 5.64661 6.75861 5.57248 6.75861C5.49835 6.75861 5.42536 6.77685 5.35994 6.8117C5.29467 6.84648 5.23893 6.89675 5.19761 6.95808L4.08415 8.62351C3.99136 8.76229 3.83543 8.84561 3.66849 8.84561H2.71649C2.07892 8.84561 1.46745 8.59234 1.01661 8.1415C0.565777 7.69066 0.3125 7.0792 0.3125 6.44162V4.53763C0.3125 3.90005 0.565777 3.28859 1.01661 2.83775Z" fill="black"/>
</g>
<defs>
<clipPath id="clip0_1068_187048">
<rect width="14" height="14" fill="white"/>
</clipPath>
</defs>
</svg>
