<svg width="14" height="14" viewBox="0 0 14 14" fill="none" xmlns="http://www.w3.org/2000/svg">
<g clip-path="url(#clip0_1068_187072)">
<path fill-rule="evenodd" clip-rule="evenodd" d="M2.3148 5.25C3.02417 3.35167 4.85424 2 7 2C9.14576 2 10.9758 3.35167 11.6852 5.25H2.3148ZM2.00614 6.75C2.00206 6.83282 2 6.91617 2 7C2 9.50652 3.84437 11.5823 6.25 11.9441V9.14286L4.15625 6.75H2.00614ZM7.75 11.9441C10.1556 11.5823 12 9.50652 12 7C12 6.91617 11.9979 6.83282 11.9939 6.75H9.84375L7.75 9.14286V11.9441ZM7 0C3.13401 0 0 3.13401 0 7C0 10.866 3.13401 14 7 14C10.866 14 14 10.866 14 7C14 3.13401 10.866 0 7 0Z" fill="black"/>
</g>
<defs>
<clipPath id="clip0_1068_187072">
<rect width="14" height="14" fill="white"/>
</clipPath>
</defs>
</svg>
