<svg width="14" height="14" viewBox="0 0 14 14" fill="none" xmlns="http://www.w3.org/2000/svg">
<g clip-path="url(#clip0_1068_187057)">
<path fill-rule="evenodd" clip-rule="evenodd" d="M6.25 0H3.5C3.26718 0 3.06516 0.160705 3.01281 0.38757L0.0128089 13.3876C-0.0214535 13.536 0.0138552 13.692 0.108715 13.8113C0.203575 13.9305 0.347632 14 0.500005 14H6.25V11.8461C6.25 11.4319 6.58579 11.0961 7 11.0961C7.41421 11.0961 7.75 11.4319 7.75 11.8461V14H13.5C13.6524 14 13.7964 13.9305 13.8913 13.8113C13.9862 13.692 14.0215 13.536 13.9872 13.3876L10.9872 0.38757C10.9348 0.160705 10.7328 0 10.5 0H7.75V2.15385C7.75 2.56806 7.41421 2.90385 7 2.90385C6.58579 2.90385 6.25 2.56806 6.25 2.15385V0ZM7 5.17303C7.41421 5.17303 7.75 5.50882 7.75 5.92303V8.07688C7.75 8.49109 7.41421 8.82688 7 8.82688C6.58579 8.82688 6.25 8.49109 6.25 8.07688V5.92303C6.25 5.50882 6.58579 5.17303 7 5.17303Z" fill="black"/>
</g>
<defs>
<clipPath id="clip0_1068_187057">
<rect width="14" height="14" fill="white"/>
</clipPath>
</defs>
</svg>
