<svg width="14" height="14" viewBox="0 0 14 14" fill="none" xmlns="http://www.w3.org/2000/svg">
<g clip-path="url(#clip0_1068_187042)">
<path fill-rule="evenodd" clip-rule="evenodd" d="M7.74939 0.794434C7.74939 0.380221 7.4136 0.0444336 6.99939 0.0444336C6.95341 0.0444336 6.9084 0.0485708 6.86471 0.0564932H2.53767C2.47137 0.0564932 2.40778 0.0828324 2.3609 0.129716L0.377911 2.1127C0.28028 2.21034 0.28028 2.36863 0.377911 2.46626L2.3609 4.44924C2.40778 4.49613 2.47137 4.52247 2.53767 4.52247H6.24939V6.50121H2.53767C2.47137 6.50121 2.40778 6.52755 2.3609 6.57443L0.377911 8.55742C0.28028 8.65505 0.28028 8.81334 0.377911 8.91097L2.3609 10.8939C2.40778 10.9408 2.47137 10.9672 2.53767 10.9672H6.24939V13.2053C6.24939 13.6196 6.58517 13.9553 6.99939 13.9553C7.4136 13.9553 7.74939 13.6196 7.74939 13.2053V7.80657H11.4611C11.5274 7.80657 11.591 7.78023 11.6379 7.73334L13.6209 5.75036C13.7185 5.65273 13.7185 5.49444 13.6209 5.3968L11.6379 3.41382C11.591 3.36693 11.5274 3.34059 11.4611 3.34059H7.74939V0.794434Z" fill="black"/>
</g>
<defs>
<clipPath id="clip0_1068_187042">
<rect width="14" height="14" fill="white"/>
</clipPath>
</defs>
</svg>
