<svg width="14" height="14" viewBox="0 0 14 14" fill="none" xmlns="http://www.w3.org/2000/svg">
<path fill-rule="evenodd" clip-rule="evenodd" d="M11.5897 1.93422C11.1107 1.76496 10.6004 1.70234 10.0947 1.75073C9.59185 1.79884 9.10546 1.95554 8.66912 2.20996L3.71893 4.67546L2.89952 3.37661C2.89675 3.37223 2.89385 3.36793 2.89082 3.36373C2.8037 3.24298 2.68082 3.15267 2.53956 3.10558C2.39829 3.05849 2.2458 3.05701 2.10365 3.10134L2.10163 3.10197L0.732429 3.54172C0.561628 3.5961 0.418146 3.71499 0.333332 3.87292C0.248429 4.03101 0.228459 4.21597 0.277656 4.38854L0.279988 4.39672L1.44013 7.99668L1.44225 8.00327C1.49127 8.14211 1.56752 8.26977 1.66637 8.3789C1.76522 8.48802 1.88479 8.57638 2.01813 8.63885C2.15146 8.70131 2.29589 8.73662 2.443 8.74272C2.58823 8.74875 2.73321 8.72619 2.86971 8.67635L5.98727 7.66856L5.7535 8.80824C5.72601 8.93895 5.73472 9.07561 5.77905 9.20163C5.82348 9.32793 5.90179 9.43959 6.00542 9.52437C6.10904 9.60915 6.23399 9.66381 6.36659 9.68235C6.49491 9.70029 6.62561 9.68375 6.74529 9.63453L8.27206 9.13883C8.38712 9.10457 8.49146 9.04127 8.57502 8.95501C8.65853 8.86881 8.71845 8.76262 8.74907 8.64663L9.35093 6.58713L9.56504 6.51786L12.9538 5.41826C13.239 5.32926 13.4774 5.13092 13.6168 4.8666C13.7564 4.60176 13.7852 4.29234 13.6969 4.00627C13.6954 4.00135 13.6937 3.99648 13.6919 3.99167C13.5124 3.51638 13.2313 3.08602 12.8682 2.73065C12.5051 2.37528 12.0687 2.10347 11.5897 1.93422ZM12.9902 11.9881C13.5425 11.9881 13.9902 12.4358 13.9902 12.9881C13.9902 13.5404 13.5425 13.9881 12.9902 13.9881H1.00586C0.453574 13.9881 0.00585938 13.5404 0.00585938 12.9881C0.00585938 12.4358 0.453574 11.9881 1.00586 11.9881H12.9902Z" fill="black"/>
</svg>
