<svg width="14" height="14" viewBox="0 0 14 14" fill="none" xmlns="http://www.w3.org/2000/svg">
<g clip-path="url(#clip0_1068_187075)">
<path fill-rule="evenodd" clip-rule="evenodd" d="M9.06638 2.06616C9.06638 3.20727 8.14133 4.13233 7.00022 4.13233C5.85911 4.13233 4.93405 3.20727 4.93405 2.06616C4.93405 0.925053 5.85911 0 7.00022 0C8.14133 0 9.06638 0.925053 9.06638 2.06616ZM8.49769 13.5988L8.88904 11.6548H10.4101C10.6563 11.6548 10.8585 11.4547 10.8803 11.1992C10.8829 11.1689 10.8791 11.1389 10.8728 11.1091C10.8 10.7677 10.7343 10.4049 10.667 10.0329C10.2422 7.68633 9.75133 4.97473 7.00005 4.97473C4.24899 4.97473 3.75813 7.68622 3.33334 10.0327C3.266 10.4048 3.20031 10.7676 3.12753 11.1091C3.12118 11.1389 3.11737 11.1689 3.11996 11.1992C3.14174 11.4547 3.34395 11.6548 3.59018 11.6548H5.11122L5.50263 13.5988C5.54962 13.8322 5.75469 14.0001 5.99279 14.0001H7.0004H8.00753C8.24563 14.0001 8.4507 13.8322 8.49769 13.5988Z" fill="black"/>
</g>
<defs>
<clipPath id="clip0_1068_187075">
<rect width="14" height="14" fill="white"/>
</clipPath>
</defs>
</svg>
