<svg width="14" height="14" viewBox="0 0 14 14" fill="none" xmlns="http://www.w3.org/2000/svg">
<g clip-path="url(#clip0_1068_187096)">
<path fill-rule="evenodd" clip-rule="evenodd" d="M0.5 2.5C0.5 1.11929 1.61929 0 3 0C4.38071 0 5.5 1.11929 5.5 2.5C5.5 3.88071 4.38071 5 3 5C1.61929 5 0.5 3.88071 0.5 2.5ZM11 0C9.61929 0 8.5 1.11929 8.5 2.5C8.5 3.88071 9.61929 5 11 5C12.3807 5 13.5 3.88071 13.5 2.5C13.5 1.11929 12.3807 0 11 0ZM9.11395 7.35764C9.49748 6.64171 10.0978 6 11 6C11.9022 6 12.5025 6.64171 12.8861 7.35764C13.2748 8.08325 13.5203 9.01942 13.6797 9.9121C13.8406 10.8131 13.9203 11.7091 13.9601 12.3765C13.98 12.7111 13.99 12.9903 13.995 13.1865C13.9975 13.2846 13.9987 13.3621 13.9994 13.4154L13.9999 13.477L14 13.4935V13.498V13.4993C14 13.4995 14 13.5 13.5 13.5L14 13.4993C14 13.7754 13.7761 14 13.5 14H8.5C8.22386 14 8 13.7761 8 13.5H8.5C8 13.5 8 13.5002 8 13.5V13.498L8.00001 13.4935L8.00008 13.477L8.00065 13.4154C8.00128 13.3621 8.00254 13.2846 8.00504 13.1865C8.01005 12.9903 8.02003 12.7111 8.03995 12.3765C8.07968 11.7091 8.1594 10.8131 8.32029 9.9121C8.4797 9.01942 8.72523 8.08325 9.11395 7.35764ZM0 6.5C0 6.22386 0.223858 6 0.5 6H5.5C5.77614 6 6 6.22386 6 6.5H5.5C6 6.5 6 6.49986 6 6.5V6.50198L5.99999 6.50649L5.99992 6.52296L5.99935 6.58457C5.99872 6.63794 5.99746 6.71541 5.99495 6.81353C5.98995 7.0097 5.97997 7.28886 5.96005 7.62346C5.92032 8.29093 5.8406 9.18691 5.67971 10.0879C5.52031 10.9806 5.27477 11.9168 4.88605 12.6424C4.50252 13.3583 3.90224 14 3 14C2.09776 14 1.49748 13.3583 1.11395 12.6424C0.725229 11.9168 0.479695 10.9806 0.320286 10.0879C0.159397 9.18691 0.0796762 8.29093 0.0399459 7.62346C0.0200292 7.28886 0.0100497 7.0097 0.00504541 6.81353C0.00254232 6.71541 0.00128123 6.63794 0.000645787 6.58457L8.4579e-05 6.52296L1.15335e-05 6.50649L0 6.50198V6.5C0 6.49986 0 6.5 0.5 6.5H0Z" fill="black"/>
</g>
<defs>
<clipPath id="clip0_1068_187096">
<rect width="14" height="14" fill="white"/>
</clipPath>
</defs>
</svg>
