<svg width="14" height="14" viewBox="0 0 14 14" fill="none" xmlns="http://www.w3.org/2000/svg">
<path fill-rule="evenodd" clip-rule="evenodd" d="M9.02976 2.03072C9.02976 3.15226 8.12058 4.06144 6.99904 4.06144C5.8775 4.06144 4.96832 3.15226 4.96832 2.03072C4.96832 0.909185 5.8775 0 6.99904 0C8.12058 0 9.02976 0.909185 9.02976 2.03072ZM9.51196 5.90257C10.1784 6.56903 10.5529 7.47294 10.5529 8.41546V9.4385C10.5529 9.71464 10.329 9.9385 10.0529 9.9385H9.02979L8.57686 13.562C8.54558 13.8122 8.33288 13.9999 8.08072 13.9999H5.91742C5.66526 13.9999 5.45256 13.8122 5.42128 13.562L4.96835 9.9385H3.94531C3.66917 9.9385 3.44531 9.71464 3.44531 9.4385V8.41546C3.44531 7.47294 3.81972 6.56903 4.48618 5.90257C5.15264 5.23611 6.05655 4.86169 6.99907 4.86169C7.94159 4.86169 8.8455 5.23611 9.51196 5.90257Z" fill="black"/>
</svg>
