<svg width="14" height="14" viewBox="0 0 14 14" fill="none" xmlns="http://www.w3.org/2000/svg">
<g clip-path="url(#clip0_1068_187078)">
<path fill-rule="evenodd" clip-rule="evenodd" d="M4.71521 3.71393L5.37285 1.27128C5.4904 0.834663 5.8863 0.53125 6.33846 0.53125H7.66148C8.11364 0.53125 8.50954 0.834662 8.62709 1.27128L9.28473 3.71393H4.71521ZM4.37867 4.96393L3.43377 8.47357H10.5662L9.62127 4.96393H4.37867ZM2.44228 12.1562L3.09723 9.72357H10.9027L11.5577 12.1562H13.1875C13.6017 12.1562 13.9375 12.492 13.9375 12.9062C13.9375 13.3205 13.6017 13.6562 13.1875 13.6562H0.8125C0.398286 13.6562 0.0625 13.3205 0.0625 12.9062C0.0625 12.492 0.398286 12.1562 0.8125 12.1562H2.44228Z" fill="black"/>
</g>
<defs>
<clipPath id="clip0_1068_187078">
<rect width="14" height="14" fill="white"/>
</clipPath>
</defs>
</svg>
