<svg width="14" height="14" viewBox="0 0 14 14" fill="none" xmlns="http://www.w3.org/2000/svg">
<path fill-rule="evenodd" clip-rule="evenodd" d="M7.98157 0C6.87702 0 5.9816 0.895414 5.9816 1.99996C5.9816 3.10451 6.87702 3.99993 7.98157 3.99993C9.08612 3.99993 9.98153 3.10451 9.98153 1.99996C9.98153 0.895414 9.08612 0 7.98157 0ZM7.98157 5C8.53386 5 8.98157 5.44772 8.98157 6V8H10.5205C11.0458 8 11.5495 8.20867 11.921 8.5801C12.2924 8.95153 12.5011 9.45529 12.5011 9.98058V13C12.5011 13.5523 12.0533 14 11.5011 14C10.9488 14 10.5011 13.5523 10.5011 13V10H7.98157C7.42929 10 6.98157 9.55228 6.98157 9V6C6.98157 5.44772 7.42929 5 7.98157 5ZM5.53087 7.13348C5.94508 7.13306 6.28053 6.79694 6.28011 6.38272C6.27969 5.96851 5.94356 5.63307 5.52935 5.63348C4.77445 5.63425 4.03383 5.83933 3.38607 6.22698C2.7383 6.61463 2.20754 7.17039 1.85009 7.8353C1.49265 8.50022 1.32184 9.24948 1.3558 10.0036C1.38976 10.7578 1.62721 11.4886 2.04297 12.1187C2.45873 12.7488 3.03729 13.2546 3.71727 13.5825C4.39726 13.9104 5.15331 14.0481 5.90522 13.981C6.65714 13.9139 7.37687 13.6445 7.98808 13.2015C8.27598 12.9928 8.53475 12.7492 8.75905 12.4774C9.0227 12.1579 8.97745 11.6852 8.65798 11.4215C8.33851 11.1579 7.86579 11.2031 7.60214 11.5226C7.45829 11.6969 7.29234 11.8531 7.1077 11.987C6.71572 12.2711 6.25414 12.4439 5.77192 12.4869C5.28971 12.5299 4.80483 12.4416 4.36875 12.2314C3.93266 12.0211 3.56161 11.6967 3.29498 11.2926C3.02834 10.8885 2.87606 10.4198 2.85428 9.93614C2.8325 9.4525 2.94204 8.97198 3.17128 8.54556C3.40052 8.11914 3.74091 7.76272 4.15634 7.51411C4.57176 7.2655 5.04673 7.13397 5.53087 7.13348Z" fill="black"/>
</svg>
