<svg width="14" height="14" viewBox="0 0 14 14" fill="none" xmlns="http://www.w3.org/2000/svg">
<path fill-rule="evenodd" clip-rule="evenodd" d="M7 1.5C5.20507 1.5 3.75 2.95507 3.75 4.75C3.75 6.54493 5.20507 8 7 8C8.79493 8 10.25 6.54493 10.25 4.75C10.25 2.95507 8.79493 1.5 7 1.5ZM11.75 4.75C11.75 7.11815 10.017 9.08154 7.75 9.44112V10.75H8.5C8.91421 10.75 9.25 11.0858 9.25 11.5C9.25 11.9142 8.91421 12.25 8.5 12.25H7.75V13.25C7.75 13.6642 7.41421 14 7 14C6.58579 14 6.25 13.6642 6.25 13.25V12.25H5.5C5.08579 12.25 4.75 11.9142 4.75 11.5C4.75 11.0858 5.08579 10.75 5.5 10.75H6.25V9.44112C3.98301 9.08154 2.25 7.11815 2.25 4.75C2.25 2.12665 4.37665 0 7 0C9.62335 0 11.75 2.12665 11.75 4.75Z" fill="black"/>
</svg>
