<svg width="24" height="24" viewBox="0 0 24 24" fill="none" xmlns="http://www.w3.org/2000/svg">
    <path d="M11.9978 1.95316C9.2364 1.95316 6.9978 4.19176 6.9978 6.95315C6.9978 9.71455 9.2364 11.9532 11.9978 11.9532C14.7592 11.9532 16.9978 9.71455 16.9978 6.95315C16.9978 4.19176 14.7592 1.95316 11.9978 1.95316ZM11.9978 3.95316C13.6547 3.95316 14.9978 5.29625 14.9978 6.95315C14.9978 8.61005 13.6547 9.95315 11.9978 9.95315C10.3409 9.95315 8.9978 8.61005 8.9978 6.95315C8.9978 5.29625 10.3409 3.95316 11.9978 3.95316ZM8.4666 13.2657C5.8523 13.9802 3.9978 16.2534 3.9978 18.9532V20.9532C3.9978 21.5055 4.4455 21.9532 4.9978 21.9532H18.9978C19.5501 21.9532 19.9978 21.5055 19.9978 20.9532V18.9532C19.9978 16.2534 18.1433 13.9802 15.529 13.2657C15.3049 13.2044 15.0847 13.2327 14.8728 13.3282C13.9573 13.7408 12.9827 13.9532 11.9978 13.9532C11.0129 13.9532 10.0383 13.7408 9.1228 13.3282C8.9109 13.2327 8.6907 13.2044 8.4666 13.2657ZM8.8728 15.2657C9.8826 15.6476 10.9175 15.9532 11.9978 15.9532C13.0781 15.9532 14.113 15.6476 15.1228 15.2657C16.8262 15.7817 17.9978 17.2196 17.9978 18.9532V19.9532H5.9978V18.9532C5.9978 17.2196 7.1694 15.7817 8.8728 15.2657Z" fill="currentColor"/>
</svg>
