<svg width="16" height="16" viewBox="0 0 16 16" fill="none" xmlns="http://www.w3.org/2000/svg">
<path d="M7.62063 3.6001H9.00063V12.0001H7.62063V8.3641H4.02062V12.0001H2.64062V3.6001H4.02062V7.0441H7.62063V3.6001Z" fill="#333333"/>
<path d="M12.6637 8.6721C13.0424 8.7841 13.349 8.98143 13.5837 9.2641C13.8237 9.54143 13.9437 9.87743 13.9437 10.2721C13.9437 10.8481 13.749 11.2988 13.3597 11.6241C12.9757 11.9494 12.5037 12.1121 11.9437 12.1121C11.5064 12.1121 11.1144 12.0134 10.7677 11.8161C10.4264 11.6134 10.1784 11.3174 10.0237 10.9281L10.9677 10.3841C11.1064 10.8161 11.4317 11.0321 11.9437 11.0321C12.2264 11.0321 12.445 10.9654 12.5997 10.8321C12.7597 10.6934 12.8397 10.5068 12.8397 10.2721C12.8397 10.0428 12.7597 9.85876 12.5997 9.7201C12.445 9.58143 12.2264 9.5121 11.9437 9.5121H11.7037L11.2797 8.8721L12.3837 7.4321H10.1917V6.4001H13.7117V7.3121L12.6637 8.6721Z" fill="#333333"/>
</svg>
