<svg width="14" height="14" viewBox="0 0 14 14" fill="none" xmlns="http://www.w3.org/2000/svg">
<g clip-path="url(#clip0_1068_187329)">
<path fill-rule="evenodd" clip-rule="evenodd" d="M6.99834 0.0464489C7.52186 0.0461525 8.04203 0.104969 8.54922 0.220701C8.04571 0.855699 7.74501 1.65881 7.74501 2.53216C7.74501 4.58843 9.41195 6.25537 11.4682 6.25537C12.3421 6.25537 13.1457 5.95427 13.7809 5.45015L13.7843 5.4648C14.0153 6.48548 14.013 7.54514 13.7775 8.56479C13.542 9.58445 13.0794 10.5378 12.4242 11.3538C11.769 12.1698 10.938 12.8273 9.99325 13.2775C9.04851 13.7276 8.01435 13.9587 6.96787 13.9535C5.97696 13.9486 4.9992 13.732 4.09988 13.3189L0.633897 13.9456C0.456812 13.9776 0.27618 13.912 0.160928 13.7738C0.0456747 13.6356 0.0135827 13.4461 0.076897 13.2777L1.07113 10.6325C0.460779 9.63617 0.110558 8.5008 0.0548176 7.33096C-0.00504529 6.07458 0.276994 4.82549 0.870894 3.71673C1.4648 2.60797 2.34832 1.68106 3.42736 1.03473C4.50635 0.388419 5.74059 0.046869 6.99834 0.0464489ZM13.9504 2.53216C13.9504 3.90301 12.8391 5.0143 11.4682 5.0143C10.0974 5.0143 8.98608 3.90301 8.98608 2.53216C8.98608 1.16131 10.0974 0.0500185 11.4682 0.0500185C12.8391 0.0500185 13.9504 1.16131 13.9504 2.53216Z" fill="black"/>
</g>
<defs>
<clipPath id="clip0_1068_187329">
<rect width="14" height="14" fill="white"/>
</clipPath>
</defs>
</svg>
