<svg width="14" height="14" viewBox="0 0 14 14" fill="none" xmlns="http://www.w3.org/2000/svg">
<g clip-path="url(#clip0_1068_187347)">
<path fill-rule="evenodd" clip-rule="evenodd" d="M6.998 0.060487C8.04234 0.0598926 9.07335 0.295013 10.0142 0.748326C10.9551 1.20166 11.7815 1.86151 12.4318 2.67869C13.0822 3.49588 13.5397 4.44931 13.7703 5.46793C14.0009 6.48655 13.9985 7.54407 13.7635 8.56167C13.5285 9.57927 13.0668 10.5307 12.4129 11.345C11.759 12.1594 10.9297 12.8156 9.98688 13.2648C9.04404 13.7141 8.01197 13.9447 6.96759 13.9395C5.97879 13.9346 5.00311 13.7185 4.10569 13.3063L0.647569 13.9316C0.470484 13.9636 0.289852 13.898 0.174599 13.7598C0.0593466 13.6216 0.0272546 13.4321 0.0905689 13.2637L1.08246 10.6247C0.473507 9.63055 0.124088 8.49763 0.0684692 7.33032C0.00872697 6.07647 0.290197 4.8299 0.882902 3.72338C1.47561 2.61685 2.35735 1.69181 3.43421 1.04677C4.51104 0.401766 5.74278 0.0609042 6.998 0.060487ZM4.75 5.3125C5.16421 5.3125 5.5 4.97671 5.5 4.5625C5.5 4.14829 5.16421 3.8125 4.75 3.8125C4.33579 3.8125 4 4.14829 4 4.5625C4 4.97671 4.33579 5.3125 4.75 5.3125ZM9.96875 4.5625C9.96875 4.97671 9.63296 5.3125 9.21875 5.3125C8.80454 5.3125 8.46875 4.97671 8.46875 4.5625C8.46875 4.14829 8.80454 3.8125 9.21875 3.8125C9.63296 3.8125 9.96875 4.14829 9.96875 4.5625ZM10.5 7.5C10.5 9.433 8.933 11 7 11C5.067 11 3.5 9.433 3.5 7.5H10.5Z" fill="black"/>
</g>
<defs>
<clipPath id="clip0_1068_187347">
<rect width="14" height="14" fill="white"/>
</clipPath>
</defs>
</svg>
