<svg width="14" height="14" viewBox="0 0 14 14" fill="none" xmlns="http://www.w3.org/2000/svg">
<g clip-path="url(#clip0_1068_187387)">
<path fill-rule="evenodd" clip-rule="evenodd" d="M1.43935 0.43934C1.72065 0.158035 2.10219 0 2.50001 0H12.5C12.8978 0 13.2794 0.158035 13.5607 0.43934C13.842 0.720644 14 1.10217 14 1.5V11.5C14 11.8978 13.842 12.2794 13.5607 12.5607C13.2794 12.842 12.8978 13 12.5 13H4.56156L0.621278 13.9851C0.444236 14.0293 0.257142 13.9736 0.133149 13.8397C0.00915603 13.7058 -0.0320399 13.515 0.0256687 13.3419L1.00001 10.4189V1.5C1.00001 1.10218 1.15805 0.720644 1.43935 0.43934ZM7.13206 3.62913C7.31603 3.55293 7.51847 3.53299 7.71378 3.57184C7.90909 3.61069 8.08849 3.70658 8.22929 3.84738C8.3701 3.98819 8.46599 4.16759 8.50484 4.3629C8.54369 4.5582 8.52375 4.76064 8.44755 4.94462C8.37134 5.12859 8.24229 5.28584 8.07672 5.39647C7.91115 5.5071 7.71649 5.56615 7.51736 5.56615C7.17218 5.56615 6.89236 5.84597 6.89236 6.19115V7.27903C6.89236 7.62421 7.17218 7.90403 7.51736 7.90403C7.86254 7.90403 8.14236 7.62421 8.14236 7.27903V6.72788C8.36457 6.66384 8.57682 6.56568 8.77118 6.4358C9.14232 6.18782 9.43158 5.83535 9.6024 5.42297C9.77321 5.01059 9.8179 4.55682 9.73082 4.11903C9.64374 3.68125 9.4288 3.27912 9.11318 2.9635C8.79755 2.64788 8.39542 2.43294 7.95764 2.34586C7.51986 2.25877 7.06609 2.30347 6.65371 2.47428C6.24132 2.6451 5.88886 2.93436 5.64087 3.30549C5.39289 3.67663 5.26053 4.11296 5.26053 4.55932C5.26053 4.9045 5.54035 5.18432 5.88553 5.18432C6.23071 5.18432 6.51053 4.9045 6.51053 4.55932C6.51053 4.36019 6.56958 4.16553 6.68021 3.99996C6.79084 3.83438 6.94809 3.70534 7.13206 3.62913ZM7.5174 10.6237C7.02295 10.6226 6.62247 10.2215 6.62247 9.72678C6.62247 9.23139 7.02406 8.8298 7.51944 8.8298L7.52146 8.82981C8.01591 8.83091 8.41639 9.23207 8.41639 9.72678C8.41639 10.2222 8.01481 10.6237 7.51942 10.6237H7.5174Z" fill="black"/>
</g>
<defs>
<clipPath id="clip0_1068_187387">
<rect width="14" height="14" fill="white"/>
</clipPath>
</defs>
</svg>
