<svg width="14" height="14" viewBox="0 0 14 14" fill="none" xmlns="http://www.w3.org/2000/svg">
<g clip-path="url(#clip0_1068_187390)">
<path fill-rule="evenodd" clip-rule="evenodd" d="M1.43935 0.43934C1.72065 0.158035 2.10219 0 2.50001 0H12.5C12.8978 0 13.2794 0.158035 13.5607 0.43934C13.842 0.720644 14 1.10217 14 1.5V11.5C14 11.8978 13.842 12.2794 13.5607 12.5607C13.2794 12.842 12.8978 13 12.5 13H4.56156L0.621278 13.9851C0.444236 14.0293 0.257142 13.9736 0.133149 13.8397C0.00915603 13.7058 -0.0320399 13.515 0.0256687 13.3419L1.00001 10.4189V1.5C1.00001 1.10218 1.15805 0.720644 1.43935 0.43934ZM8.19324 2.79523C8.19324 2.45005 7.91342 2.17023 7.56824 2.17023C7.22306 2.17023 6.94324 2.45005 6.94324 2.79523V6.45386C6.94324 6.79904 7.22306 7.07886 7.56824 7.07886C7.91342 7.07886 8.19324 6.79904 8.19324 6.45386V2.79523ZM6.57056 9.58116C6.57056 9.03015 7.01724 8.58347 7.56825 8.58347C8.11926 8.58347 8.56594 9.03015 8.56594 9.58116C8.56594 10.1322 8.11926 10.5788 7.56825 10.5788C7.01724 10.5788 6.57056 10.1322 6.57056 9.58116Z" fill="black"/>
</g>
<defs>
<clipPath id="clip0_1068_187390">
<rect width="14" height="14" fill="white"/>
</clipPath>
</defs>
</svg>
