<svg width="14" height="14" viewBox="0 0 14 14" fill="none" xmlns="http://www.w3.org/2000/svg">
<g clip-path="url(#clip0_1068_187332)">
<path fill-rule="evenodd" clip-rule="evenodd" d="M6.998 0.060487C8.04234 0.0598926 9.07335 0.295013 10.0142 0.748326C10.9551 1.20166 11.7815 1.86151 12.4318 2.67869C13.0822 3.49588 13.5397 4.44931 13.7703 5.46793C14.0009 6.48655 13.9985 7.54407 13.7635 8.56167C13.5285 9.57927 13.0668 10.5307 12.4129 11.345C11.759 12.1594 10.9297 12.8156 9.98688 13.2648C9.04404 13.7141 8.01197 13.9447 6.96759 13.9395C5.97879 13.9346 5.00311 13.7185 4.10569 13.3063L0.647569 13.9316C0.470484 13.9636 0.289852 13.898 0.174599 13.7598C0.0593466 13.6216 0.0272546 13.4321 0.0905689 13.2637L1.08246 10.6247C0.473507 9.63055 0.124088 8.49763 0.0684692 7.33032C0.00872697 6.07647 0.290197 4.8299 0.882902 3.72338C1.47561 2.61685 2.35735 1.69181 3.43421 1.04677C4.51104 0.401766 5.74278 0.0609042 6.998 0.060487ZM4.30215 7.83272C4.20976 7.50014 3.86526 7.30542 3.53267 7.3978C3.20009 7.49019 3.00537 7.83469 3.09775 8.16728C3.69245 10.3082 6.04302 11.5923 8.16723 11.0022C8.18285 10.9979 8.1983 10.9929 8.21354 10.9874C9.48093 10.5265 10.5433 9.48313 10.9029 8.16445C10.9938 7.83143 10.7974 7.48785 10.4644 7.39702C10.1314 7.3062 9.7878 7.50254 9.69697 7.83555C9.4586 8.7096 8.73111 9.46101 7.80939 9.80415C6.33958 10.1981 4.70532 9.28415 4.30215 7.83272ZM5.4375 4.96875C5.4375 5.38296 5.10171 5.71875 4.6875 5.71875C4.27329 5.71875 3.9375 5.38296 3.9375 4.96875C3.9375 4.55454 4.27329 4.21875 4.6875 4.21875C5.10171 4.21875 5.4375 4.55454 5.4375 4.96875ZM9.3125 5.71875C9.72671 5.71875 10.0625 5.38296 10.0625 4.96875C10.0625 4.55454 9.72671 4.21875 9.3125 4.21875C8.89829 4.21875 8.5625 4.55454 8.5625 4.96875C8.5625 5.38296 8.89829 5.71875 9.3125 5.71875Z" fill="black"/>
</g>
<defs>
<clipPath id="clip0_1068_187332">
<rect width="14" height="14" fill="white"/>
</clipPath>
</defs>
</svg>
