<svg width="14" height="14" viewBox="0 0 14 14" fill="none" xmlns="http://www.w3.org/2000/svg">
<g clip-path="url(#clip0_1068_187353)">
<path fill-rule="evenodd" clip-rule="evenodd" d="M6.99834 0.0464489C8.04479 0.0458544 9.07788 0.28145 10.0206 0.735677C10.9634 1.18992 11.7915 1.85111 12.4431 2.66994C13.0948 3.48877 13.5532 4.44413 13.7843 5.4648C14.0153 6.48548 14.013 7.54514 13.7775 8.56479C13.542 9.58445 13.0794 10.5378 12.4242 11.3538C11.769 12.1698 10.938 12.8273 9.99326 13.2775C9.04851 13.7276 8.01435 13.9587 6.96787 13.9535C5.97696 13.9486 4.9992 13.732 4.09988 13.3189L0.633897 13.9456C0.456812 13.9776 0.27618 13.912 0.160928 13.7738C0.0456747 13.6356 0.0135827 13.4461 0.076897 13.2777L1.07113 10.6325C0.460779 9.63617 0.110558 8.5008 0.0548176 7.33096C-0.00504529 6.07458 0.276994 4.82549 0.870894 3.71673C1.4648 2.60797 2.34832 1.68106 3.42736 1.03473C4.50635 0.388418 5.74059 0.046868 6.99834 0.0464489ZM5.0004 7C5.0004 7.55228 4.55268 8 4.0004 8C3.44812 8 3.0004 7.55228 3.0004 7C3.0004 6.44772 3.44812 6 4.0004 6C4.55268 6 5.0004 6.44772 5.0004 7ZM7.0004 8C7.55268 8 8.0004 7.55228 8.0004 7C8.0004 6.44772 7.55268 6 7.0004 6C6.44812 6 6.0004 6.44772 6.0004 7C6.0004 7.55228 6.44812 8 7.0004 8ZM10.0004 8C10.5527 8 11.0004 7.55228 11.0004 7C11.0004 6.44772 10.5527 6 10.0004 6C9.44812 6 9.0004 6.44772 9.0004 7C9.0004 7.55228 9.44812 8 10.0004 8Z" fill="black"/>
</g>
<defs>
<clipPath id="clip0_1068_187353">
<rect width="14" height="14" fill="white"/>
</clipPath>
</defs>
</svg>
