<svg width="14" height="14" viewBox="0 0 14 14" fill="none" xmlns="http://www.w3.org/2000/svg">
<g clip-path="url(#clip0_1068_187338)">
<path fill-rule="evenodd" clip-rule="evenodd" d="M10.0206 0.735676C9.07788 0.281448 8.04479 0.0458533 6.99834 0.0464489C5.74059 0.0468668 4.50635 0.388417 3.42736 1.03472C2.34832 1.68106 1.4648 2.60797 0.870894 3.71673C0.276994 4.82549 -0.00504529 6.07458 0.0548176 7.33096C0.110558 8.5008 0.460779 9.63617 1.07113 10.6325L0.076897 13.2777C0.0135827 13.4461 0.0456747 13.6356 0.160928 13.7738C0.27618 13.912 0.456812 13.9776 0.633897 13.9456L4.09988 13.3189C4.9992 13.732 5.97696 13.9486 6.96787 13.9535C8.01435 13.9587 9.04851 13.7276 9.99326 13.2775C10.938 12.8273 11.769 12.1698 12.4242 11.3538C13.0794 10.5378 13.542 9.58445 13.7775 8.56479C14.013 7.54514 14.0153 6.48548 13.7843 5.4648C13.5532 4.44413 13.0948 3.48877 12.4431 2.66994C11.7915 1.85111 10.9634 1.18992 10.0206 0.735676Z" fill="black"/>
</g>
<defs>
<clipPath id="clip0_1068_187338">
<rect width="14" height="14" fill="white"/>
</clipPath>
</defs>
</svg>
