<svg width="14" height="14" viewBox="0 0 14 14" fill="none" xmlns="http://www.w3.org/2000/svg">
<g clip-path="url(#clip0_1068_187396)">
<path fill-rule="evenodd" clip-rule="evenodd" d="M9.87991 8.38781C9.69934 8.56915 9.46746 8.69069 9.2156 8.73603L6.2156 9.27603C5.81595 9.34796 5.40626 9.22128 5.11696 8.93632C4.82767 8.65136 4.69483 8.24362 4.76073 7.84293L5.26073 4.80293C5.30331 4.54407 5.42625 4.30516 5.61215 4.12004L9.74969 0H2.50001C2.10219 0 1.72065 0.158035 1.43935 0.43934C1.15805 0.720644 1.00001 1.10218 1.00001 1.5V10.4189L0.0256687 13.3419C-0.0320399 13.515 0.00915601 13.7058 0.133149 13.8397C0.257142 13.9736 0.444236 14.0293 0.621278 13.9851L4.56156 13H12.5C12.8978 13 13.2794 12.842 13.5607 12.5607C13.842 12.2794 14 11.8978 14 11.5V4.25021L9.87991 8.38781ZM12.3187 0.0769069C12.1969 0.0261382 12.0662 0 11.9342 0C11.8022 0 11.6714 0.0261382 11.5496 0.0769069C11.4277 0.127676 11.3171 0.20207 11.2241 0.295798L6.49416 5.0058L5.99414 8.0458L8.99414 7.5058L13.7041 2.7758C13.7978 2.68284 13.8723 2.57223 13.923 2.45037C13.9738 2.32852 14 2.19781 14 2.0658C14 1.93379 13.9738 1.80308 13.923 1.68122C13.8723 1.55936 13.7979 1.44876 13.7042 1.3558L12.6442 0.295798C12.5512 0.20207 12.4406 0.127676 12.3187 0.0769069Z" fill="black"/>
</g>
<defs>
<clipPath id="clip0_1068_187396">
<rect width="14" height="14" fill="white"/>
</clipPath>
</defs>
</svg>
