<svg width="14" height="14" viewBox="0 0 14 14" fill="none" xmlns="http://www.w3.org/2000/svg">
<g clip-path="url(#clip0_1068_187326)">
<path fill-rule="evenodd" clip-rule="evenodd" d="M2.50001 0C2.10219 0 1.72065 0.158035 1.43935 0.43934C1.15805 0.720644 1.00001 1.10218 1.00001 1.5V10.4189L0.0256687 13.3419C-0.0320399 13.515 0.00915603 13.7058 0.133149 13.8397C0.257142 13.9736 0.444236 14.0293 0.621278 13.9851L4.56156 13H12.5C12.8978 13 13.2794 12.842 13.5607 12.5607C13.842 12.2794 14 11.8978 14 11.5V1.5C14 1.10217 13.842 0.720644 13.5607 0.43934C13.2794 0.158035 12.8978 0 12.5 0H2.50001ZM5.33313 5.13983C5.09199 5.53672 4.95312 6.00261 4.95312 6.50095C4.95312 7.95069 6.12838 9.12595 7.57812 9.12595C8.07646 9.12595 8.54235 8.98708 8.93924 8.74594L5.33313 5.13983ZM4.7935 3.80623C4.11851 4.5036 3.70312 5.45376 3.70312 6.50095C3.70312 8.64105 5.43802 10.3759 7.57812 10.3759C8.62517 10.3759 9.57522 9.96067 10.2726 9.28584C10.2889 9.27248 10.3048 9.25817 10.3201 9.2429C10.3353 9.22763 10.3497 9.21177 10.363 9.19539C11.0378 8.49805 11.4531 7.54799 11.4531 6.50095C11.4531 4.36084 9.71823 2.62595 7.57812 2.62595C6.53094 2.62595 5.58077 3.04133 4.88341 3.71632C4.86713 3.72961 4.85137 3.74384 4.83619 3.75902C4.82102 3.77419 4.80679 3.78995 4.7935 3.80623ZM6.21701 4.25595L9.82312 7.86206C10.0643 7.46518 10.2031 6.99928 10.2031 6.50095C10.2031 5.0512 9.02787 3.87595 7.57812 3.87595C7.07979 3.87595 6.61389 4.01481 6.21701 4.25595Z" fill="black"/>
</g>
<defs>
<clipPath id="clip0_1068_187326">
<rect width="14" height="14" fill="white"/>
</clipPath>
</defs>
</svg>
