<svg width="14" height="14" viewBox="0 0 14 14" fill="none" xmlns="http://www.w3.org/2000/svg">
<g clip-path="url(#clip0_1068_187344)">
<path fill-rule="evenodd" clip-rule="evenodd" d="M5.5152 1.20238e-06C4.05249 1.20238e-06 2.64968 0.581065 1.61538 1.61536C0.581088 2.64966 2.7445e-05 4.05246 2.7445e-05 5.51518C-0.0034169 6.60078 0.31741 7.66267 0.921386 8.56475L0.184468 10.5368C0.103067 10.7546 0.289738 10.9782 0.51861 10.9371L3.1015 10.4724C3.35802 10.5974 3.62311 10.7021 3.89429 10.7857C3.79988 10.3723 3.75001 9.94197 3.75001 9.5C3.75001 6.32436 6.32437 3.75 9.50001 3.75C9.94382 3.75 10.3759 3.80028 10.7908 3.89546C10.5885 3.23678 10.2641 2.62064 9.83332 2.07968C9.31639 1.4305 8.65963 0.906342 7.91198 0.546259C7.16432 0.186176 6.34505 -0.000546718 5.5152 1.20238e-06ZM12.6822 6.31802C11.8382 5.47411 10.6936 5 9.50018 5C8.82308 4.99955 8.15461 5.15191 7.54457 5.44571C6.93454 5.73951 6.39867 6.16719 5.9769 6.69687C5.55512 7.22656 5.25831 7.84459 5.10859 8.50493C4.95887 9.16527 4.96008 9.85088 5.11216 10.5107C5.26423 11.1705 5.56323 11.7875 5.98689 12.3156C6.41055 12.8438 6.94794 13.2696 7.55901 13.5612C8.17009 13.8528 8.8391 14.0028 9.51619 14C10.1933 13.9971 10.861 13.8415 11.4696 13.5447L13.4816 13.9067C13.7105 13.9479 13.8971 13.7243 13.8157 13.5064L13.2484 11.9882C13.7412 11.2522 14.003 10.3858 14.0002 9.5C14.0002 8.30653 13.5261 7.16193 12.6822 6.31802Z" fill="black"/>
</g>
<defs>
<clipPath id="clip0_1068_187344">
<rect width="14" height="14" fill="white"/>
</clipPath>
</defs>
</svg>
