<svg width="14" height="14" viewBox="0 0 14 14" fill="none" xmlns="http://www.w3.org/2000/svg">
<g clip-path="url(#clip0_1068_187335)">
<path fill-rule="evenodd" clip-rule="evenodd" d="M3.01367 2.375C2.99475 2.375 2.9766 2.38252 2.96322 2.39589C2.94985 2.40927 2.94233 2.42742 2.94233 2.44634V5.17582L2.9972 5.12095C3.29009 4.82805 3.76497 4.82805 4.05786 5.12095C4.35075 5.41384 4.35075 5.88871 4.05786 6.18161L2.70914 7.53033C2.41624 7.82322 1.94137 7.82322 1.64848 7.53033L0.299748 6.18161C0.00685476 5.88871 0.00685482 5.41384 0.299748 5.12095C0.592641 4.82805 1.06752 4.82805 1.36041 5.12095L1.44233 5.20286V2.44634C1.44233 2.02959 1.60788 1.62992 1.90256 1.33523C2.19725 1.04055 2.59692 0.875 3.01367 0.875H11.0006C11.4173 0.875 11.817 1.04055 12.1117 1.33523C12.4064 1.62992 12.5719 2.02959 12.5719 2.44634V2.71116C12.5719 3.12537 12.2361 3.46116 11.8219 3.46116C11.4077 3.46116 11.0719 3.12537 11.0719 2.71116V2.44634C11.0719 2.42742 11.0644 2.40927 11.051 2.39589C11.0376 2.38252 11.0195 2.375 11.0006 2.375H3.01367ZM12.5719 6.73096L12.6408 6.79983C12.9337 7.09272 13.4086 7.09272 13.7014 6.79983C13.9943 6.50694 13.9943 6.03206 13.7014 5.73917L12.3527 4.39045C12.0598 4.09755 11.585 4.09755 11.2921 4.39045L9.94331 5.73917C9.65041 6.03206 9.65041 6.50694 9.94331 6.79983C10.2362 7.09272 10.7111 7.09272 11.004 6.79983L11.0719 6.73192V10.7323C11.0719 10.7512 11.0644 10.7694 11.051 10.7828C11.0376 10.7961 11.0195 10.8037 11.0006 10.8037H4.65634C4.59502 10.8037 4.53393 10.8112 4.47444 10.8261L2.51455 11.316L2.90384 10.1482C2.92933 10.0717 2.94233 9.9916 2.94233 9.91099V9.22387C2.94233 8.80966 2.60654 8.47387 2.19233 8.47387C1.77812 8.47387 1.44233 8.80966 1.44233 9.22387V9.78928L0.659475 12.1378C0.572912 12.3975 0.634706 12.6837 0.820695 12.8846C1.00669 13.0854 1.28733 13.169 1.55289 13.1026L4.74867 12.3037H11.0006C11.4173 12.3037 11.817 12.1381 12.1117 11.8434C12.4064 11.5487 12.5719 11.1491 12.5719 10.7323V6.73096Z" fill="black"/>
</g>
<defs>
<clipPath id="clip0_1068_187335">
<rect width="14" height="14" fill="white"/>
</clipPath>
</defs>
</svg>
