<svg width="14" height="14" viewBox="0 0 14 14" fill="none" xmlns="http://www.w3.org/2000/svg">
<g clip-path="url(#clip0_1068_187341)">
<path fill-rule="evenodd" clip-rule="evenodd" d="M14 7C14 3.13401 10.866 0 7 0C3.13401 0 0 3.13401 0 7C0 10.866 3.13401 14 7 14C10.866 14 14 10.866 14 7ZM10.4401 4.95151C10.4401 5.51651 9.98275 5.97469 9.41806 5.976L9.41563 5.97601C8.84981 5.97601 8.39113 5.51732 8.39113 4.95151C8.39113 4.3865 8.8485 3.92832 9.4132 3.92701L9.41562 3.927C9.98144 3.927 10.4401 4.38569 10.4401 4.95151ZM5.60889 4.95151C5.60889 5.51652 5.15151 5.9747 4.5868 5.976L4.58437 5.97601C4.01856 5.97601 3.55987 5.51732 3.55987 4.95151C3.55987 4.3865 4.01725 3.92831 4.58195 3.92701L4.58438 3.927C5.1502 3.927 5.60889 4.38569 5.60889 4.95151ZM4.18995 7.76046C4.10026 7.42714 3.75733 7.22965 3.42401 7.31935C3.09069 7.40904 2.8932 7.75197 2.9829 8.08529C3.45986 9.8577 5.07756 11.1631 7.00174 11.1631C8.92593 11.1631 10.5436 9.8577 11.0206 8.08529C11.1103 7.75197 10.9128 7.40904 10.5795 7.31935C10.2462 7.22965 9.90323 7.42714 9.81353 7.76046C9.47973 9.00087 8.34647 9.91306 7.00174 9.91306C5.65702 9.91306 4.52376 9.00087 4.18995 7.76046Z" fill="black"/>
</g>
<defs>
<clipPath id="clip0_1068_187341">
<rect width="14" height="14" fill="white"/>
</clipPath>
</defs>
</svg>
