<svg width="14" height="14" viewBox="0 0 14 14" fill="none" xmlns="http://www.w3.org/2000/svg">
<g clip-path="url(#clip0_1068_187362)">
<path fill-rule="evenodd" clip-rule="evenodd" d="M10.8907 0H1.57924C0.722152 0 0.0273438 0.694808 0.0273438 1.5519V1.62908L6.23492 4.73287L12.4426 1.62907V1.5519C12.4426 0.694808 11.7477 0 10.8907 0ZM12.4426 3.02661L6.51443 5.99066C6.33848 6.07864 6.13137 6.07864 5.95542 5.99066L0.0273438 3.02662V7.75949C0.0273438 8.61658 0.722152 9.31139 1.57924 9.31139H6.08877C6.20307 9.12812 6.34302 8.96255 6.50356 8.81963C6.59789 6.6942 8.35088 5 10.4996 5C11.2047 5 11.8673 5.18246 12.4426 5.50275V3.02661Z" fill="black"/>
<path fill-rule="evenodd" clip-rule="evenodd" d="M9.25 9C9.25 8.30964 9.80964 7.75 10.5 7.75C11.1904 7.75 11.75 8.30964 11.75 9V9.5H9.25V9ZM7.75 9.5315V9C7.75 7.48122 8.98122 6.25 10.5 6.25C12.0188 6.25 13.25 7.48122 13.25 9V9.5315C13.6813 9.64252 14 10.034 14 10.5V13C14 13.5523 13.5523 14 13 14H8C7.44772 14 7 13.5523 7 13V10.5C7 10.034 7.31869 9.64252 7.75 9.5315Z" fill="black"/>
</g>
<defs>
<clipPath id="clip0_1068_187362">
<rect width="14" height="14" fill="white"/>
</clipPath>
</defs>
</svg>
