<svg width="14" height="14" viewBox="0 0 14 14" fill="none" xmlns="http://www.w3.org/2000/svg">
<g clip-path="url(#clip0_1068_187384)">
<path fill-rule="evenodd" clip-rule="evenodd" d="M1.55971 0H10.8711C11.7282 0 12.423 0.694808 12.423 1.5519V1.62907L6.21539 4.73287L0.0078125 1.62908V1.5519C0.0078125 0.694808 0.702621 0 1.55971 0ZM6.4949 5.99066L12.423 3.02661V7.75949C12.423 7.80622 12.4209 7.85246 12.4169 7.89813L12.2161 7.3868C12.0817 7.04222 11.8465 6.74613 11.5413 6.53719C11.2352 6.32768 10.8729 6.21558 10.502 6.21558C10.1311 6.21558 9.76876 6.32768 9.46267 6.53719C9.15743 6.74613 8.92226 7.0422 8.78782 7.38676L8.45986 8.22203H7.60805C7.25469 8.21933 6.90778 8.31734 6.608 8.5047C6.30521 8.69395 6.06329 8.96634 5.91114 9.28936L5.90102 9.31139H1.55971C0.702621 9.31139 0.0078125 8.61658 0.0078125 7.75949V3.02662L5.93588 5.99066C6.11184 6.07864 6.31895 6.07864 6.4949 5.99066ZM10.1687 7.5687C10.0706 7.63588 9.99501 7.73116 9.95196 7.84203L9.31196 9.47203H7.60196C7.48487 9.47047 7.3698 9.50264 7.2705 9.5647C7.1712 9.62676 7.09186 9.7161 7.04196 9.82203C6.99964 9.93383 6.99228 10.0558 7.02085 10.1719C7.04942 10.288 7.11258 10.3927 7.20196 10.472L8.71196 11.832L8.07196 13.112C8.01402 13.2244 7.99439 13.3526 8.01606 13.4772C8.03772 13.6017 8.09949 13.7158 8.19196 13.802C8.2838 13.8893 8.40055 13.9459 8.52599 13.9638C8.65143 13.9817 8.77935 13.9601 8.89196 13.902L10.502 13.022L12.112 13.932C12.2246 13.9901 12.3525 14.0117 12.4779 13.9938C12.6034 13.9759 12.7201 13.9193 12.812 13.832C12.9045 13.7458 12.9662 13.6318 12.9879 13.5072C13.0095 13.3826 12.9899 13.2544 12.932 13.142L12.292 11.862L13.802 10.512C13.8914 10.4327 13.9545 10.328 13.9831 10.2119C14.0117 10.0958 14.0043 9.97383 13.962 9.86203C13.9181 9.74862 13.8414 9.65089 13.7416 9.5814C13.6418 9.51191 13.5236 9.47382 13.402 9.47203H11.692L11.052 7.84203C11.0089 7.73116 10.9334 7.63588 10.8352 7.5687C10.7371 7.50152 10.6209 7.46558 10.502 7.46558C10.383 7.46558 10.2669 7.50152 10.1687 7.5687Z" fill="black"/>
</g>
<defs>
<clipPath id="clip0_1068_187384">
<rect width="14" height="14" fill="white"/>
</clipPath>
</defs>
</svg>
