<svg width="14" height="14" viewBox="0 0 14 14" fill="none" xmlns="http://www.w3.org/2000/svg">
<g clip-path="url(#clip0_1068_187350)">
<path fill-rule="evenodd" clip-rule="evenodd" d="M1.57534 0H10.8867C11.7438 0 12.4386 0.694808 12.4386 1.5519V1.62907L6.23102 4.73287L0.0234375 1.62908V1.5519C0.0234375 0.694808 0.718246 0 1.57534 0ZM6.51053 5.99066L12.4386 3.02661V6.22931C11.8375 5.9475 11.1665 5.79004 10.4588 5.79004C8.27609 5.79004 6.44317 7.28766 5.93153 9.31139H1.57534C0.718246 9.31139 0.0234375 8.61658 0.0234375 7.75949V3.02662L5.95151 5.99066C6.12747 6.07864 6.33458 6.07864 6.51053 5.99066ZM10.4588 8.43188C11.5786 8.43188 12.4865 9.33971 12.4865 10.4596C12.4865 10.7445 12.4277 11.0157 12.3216 11.2617L9.65667 8.59673C9.90269 8.49065 10.1739 8.43188 10.4588 8.43188ZM13.9865 10.4596C13.9865 11.4099 13.6107 12.2725 12.9996 12.9068C12.9855 12.9236 12.9706 12.9399 12.9549 12.9556C12.9391 12.9714 12.9228 12.9863 12.9061 13.0003C12.2718 13.6114 11.4092 13.9873 10.4588 13.9873C8.51053 13.9873 6.93112 12.4079 6.93112 10.4596C6.93112 9.50964 7.30659 8.6474 7.91722 8.01316C7.93151 7.99608 7.94668 7.97949 7.96273 7.96344C7.97878 7.94739 7.99537 7.93222 8.01246 7.91793C8.64669 7.30733 9.50891 6.93188 10.4588 6.93188C12.4071 6.93188 13.9865 8.51129 13.9865 10.4596ZM8.596 9.65737L11.261 12.3224C11.015 12.4285 10.7437 12.4873 10.4588 12.4873C9.33895 12.4873 8.43112 11.5794 8.43112 10.4596C8.43112 10.1746 8.4899 9.90341 8.596 9.65737Z" fill="black"/>
</g>
<defs>
<clipPath id="clip0_1068_187350">
<rect width="14" height="14" fill="white"/>
</clipPath>
</defs>
</svg>
