<svg width="14" height="14" viewBox="0 0 14 14" fill="none" xmlns="http://www.w3.org/2000/svg">
<g clip-path="url(#clip0_1068_187393)">
<path fill-rule="evenodd" clip-rule="evenodd" d="M1.57924 0H10.8907C11.7477 0 12.4426 0.694808 12.4426 1.5519V1.62907L6.23492 4.73287L0.0273438 1.62908V1.5519C0.0273438 0.694808 0.722152 0 1.57924 0ZM6.51443 5.99066L12.4426 3.02661V6.81463C11.8942 6.73832 11.3169 6.83221 10.7774 7.1315C10.6302 7.21318 10.4904 7.30745 10.358 7.41329C10.2216 7.29969 10.0771 7.19857 9.92443 7.1111C9.22486 6.71014 8.456 6.65728 7.76655 6.88242C6.69405 7.23264 5.92622 8.19299 5.67882 9.31139H1.57924C0.722152 9.31139 0.0273438 8.61658 0.0273438 7.75949V3.02662L5.95542 5.99066C6.13137 6.07864 6.33848 6.07864 6.51443 5.99066ZM13.8434 10.1423C13.8434 8.19847 11.5134 6.89588 10.3434 9.49104C9.17332 6.84578 6.84332 8.14837 6.84332 10.0922C6.84332 12.6974 10.3434 14 10.3434 14C10.3434 14 13.8434 12.6974 13.8434 10.1423Z" fill="black"/>
</g>
<defs>
<clipPath id="clip0_1068_187393">
<rect width="14" height="14" fill="white"/>
</clipPath>
</defs>
</svg>
