<svg width="14" height="14" viewBox="0 0 14 14" fill="none" xmlns="http://www.w3.org/2000/svg">
<g clip-path="url(#clip0_1068_187375)">
<path fill-rule="evenodd" clip-rule="evenodd" d="M7.75 0.759277C7.75 0.345064 7.41421 0.00927734 7 0.00927734C6.58579 0.00927734 6.25 0.345064 6.25 0.759277V3.50928H4.5C4.19665 3.50928 3.92318 3.69201 3.80709 3.97226C3.691 4.25252 3.75517 4.57511 3.96967 4.78961L6.46967 7.28961C6.54158 7.36152 6.62445 7.41577 6.71291 7.45237C6.80134 7.48904 6.89831 7.50928 7 7.50928C7.10169 7.50928 7.19866 7.48904 7.28709 7.45237C7.37555 7.41577 7.45842 7.36152 7.53033 7.28961L10.0303 4.78961C10.2448 4.57511 10.309 4.25252 10.1929 3.97226C10.0768 3.69201 9.80335 3.50928 9.5 3.50928H7.75V0.759277ZM0.5 8.32983C0.367392 8.32983 0.240215 8.38251 0.146447 8.47628C0.0526784 8.57005 0 8.69723 0 8.82983V12.5C0 12.8979 0.158035 13.2794 0.43934 13.5607C0.720644 13.842 1.10217 14 1.5 14H12.5C12.8978 14 13.2794 13.842 13.5607 13.5607C13.842 13.2794 14 12.8979 14 12.5V8.82983C14 8.69723 13.9473 8.57005 13.8536 8.47628C13.7598 8.38251 13.6326 8.32983 13.5 8.32983H10.5267C10.1288 8.32983 9.7473 8.48787 9.46599 8.76917C9.18469 9.05048 9.02666 9.43201 9.02666 9.82983C9.02666 10.8041 8.05116 11.5618 6.99771 11.5547C5.97317 11.5478 5.02666 10.7865 5.02666 9.82983C5.02666 9.43201 4.86862 9.05048 4.58732 8.76917C4.30601 8.48787 3.92448 8.32983 3.52666 8.32983H0.5Z" fill="black"/>
</g>
<defs>
<clipPath id="clip0_1068_187375">
<rect width="14" height="14" fill="white"/>
</clipPath>
</defs>
</svg>
