<svg width="14" height="14" viewBox="0 0 14 14" fill="none" xmlns="http://www.w3.org/2000/svg">
<g clip-path="url(#clip0_1068_187378)">
<path fill-rule="evenodd" clip-rule="evenodd" d="M1.56557 0H10.877C11.7341 0 12.4289 0.694808 12.4289 1.5519V1.62907L6.22125 4.73287L0.0136719 1.62908V1.5519C0.0136719 0.694808 0.708481 0 1.56557 0ZM6.50076 5.99066L12.4289 3.02661V6.22021C11.7253 5.76456 10.8865 5.5 9.9859 5.5C7.73476 5.5 5.8697 7.15298 5.53825 9.31139H1.56557C0.708481 9.31139 0.0136719 8.61658 0.0136719 7.75949V3.02662L5.94174 5.99066C6.1177 6.07864 6.3248 6.07864 6.50076 5.99066ZM9.9859 8.25C9.0194 8.25 8.2359 9.0335 8.2359 10C8.2359 10.9665 9.0194 11.75 9.9859 11.75C10.9524 11.75 11.7359 10.9665 11.7359 10C11.7359 9.0335 10.9524 8.25 9.9859 8.25ZM6.7359 10C6.7359 8.20507 8.19098 6.75 9.9859 6.75C11.7808 6.75 13.2359 8.20507 13.2359 10C13.2359 10.6216 13.0614 11.2024 12.7588 11.6961L13.7803 12.7204C14.0727 13.0137 14.0721 13.4886 13.7788 13.7811C13.4855 14.0735 13.0106 14.0729 12.7181 13.7796L11.7019 12.7606C11.2039 13.0708 10.6158 13.25 9.9859 13.25C8.19098 13.25 6.7359 11.7949 6.7359 10Z" fill="black"/>
</g>
<defs>
<clipPath id="clip0_1068_187378">
<rect width="14" height="14" fill="white"/>
</clipPath>
</defs>
</svg>
