<svg width="14" height="14" viewBox="0 0 14 14" fill="none" xmlns="http://www.w3.org/2000/svg">
<path fill-rule="evenodd" clip-rule="evenodd" d="M8.01451 2.55337C8.01451 2.25002 7.83178 1.97654 7.55152 1.86046C7.27127 1.74437 6.94868 1.80854 6.73418 2.02304L4.00696 4.75026C3.71407 5.04315 3.71407 5.51802 4.00696 5.81092L6.73418 8.53813C6.94868 8.75263 7.27127 8.8168 7.55152 8.70071C7.83178 8.58463 8.01451 8.31115 8.01451 8.0078V6.03057H9.59529C10.3607 6.03057 11.0949 6.33466 11.6362 6.87595C12.1774 7.41723 12.4815 8.15137 12.4815 8.91686V10.735C12.4815 11.1492 12.8173 11.485 13.2315 11.485C13.6457 11.485 13.9815 11.1492 13.9815 10.735V8.91686C13.9815 7.75354 13.5194 6.63787 12.6968 5.81528C11.8742 4.9927 10.7586 4.53057 9.59529 4.53057H8.01451V2.55337ZM4.02708 3.0837C4.31997 2.7908 4.31997 2.31593 4.02708 2.02304C3.73419 1.73014 3.25931 1.73014 2.96642 2.02304L0.239201 4.75026C-0.0536921 5.04315 -0.0536921 5.51802 0.239201 5.81092L2.96642 8.53813C3.25931 8.83103 3.73419 8.83103 4.02708 8.53813C4.31997 8.24524 4.31997 7.77037 4.02708 7.47747L1.83019 5.28059L4.02708 3.0837Z" fill="black"/>
</svg>
