<svg width="14" height="14" viewBox="0 0 14 14" fill="none" xmlns="http://www.w3.org/2000/svg">
<g clip-path="url(#clip0_1068_187405)">
<path fill-rule="evenodd" clip-rule="evenodd" d="M13.8536 0.146461C13.9933 0.286181 14.0376 0.49508 13.9667 0.679504L8.96667 13.6795C8.89435 13.8675 8.71624 13.9938 8.51486 13.9998C8.31348 14.0058 8.12819 13.8903 8.04482 13.7069L5.95386 9.1068L9.03033 6.03033C9.32322 5.73744 9.32322 5.26256 9.03033 4.96967C8.73744 4.67678 8.26256 4.67678 7.96967 4.96967L4.89319 8.04615L0.2931 5.9552C0.109691 5.87183 -0.00576581 5.68653 0.000222247 5.48515C0.00621034 5.28378 0.132474 5.10566 0.320512 5.03334L13.3205 0.0333416C13.5049 -0.0375906 13.7138 0.00674078 13.8536 0.146461Z" fill="black"/>
</g>
<defs>
<clipPath id="clip0_1068_187405">
<rect width="14" height="14" fill="white"/>
</clipPath>
</defs>
</svg>
