<svg width="14" height="14" viewBox="0 0 14 14" fill="none" xmlns="http://www.w3.org/2000/svg">
<g clip-path="url(#clip0_1068_187356)">
<path fill-rule="evenodd" clip-rule="evenodd" d="M6.99973 0.0422363C7.41394 0.0422363 7.74973 0.378023 7.74973 0.792236V3.20007H8.9205C9.12273 3.20007 9.30505 3.32189 9.38244 3.50873C9.45983 3.69557 9.41704 3.91063 9.27404 4.05363L7.35329 5.97438C7.15803 6.16965 6.84145 6.16965 6.64619 5.97438L4.72543 4.05363C4.58243 3.91063 4.53965 3.69557 4.61704 3.50873C4.69444 3.32189 4.87675 3.20007 5.07898 3.20007H6.24973V0.792236C6.24973 0.378023 6.58552 0.0422363 6.99973 0.0422363ZM2.08539 4.17139H3.39364C3.47296 4.45517 3.62417 4.72013 3.84155 4.93751L5.76231 6.85827C6.44573 7.54168 7.55377 7.54168 8.23718 6.85827L10.1579 4.93751C10.3753 4.72013 10.5265 4.45517 10.6058 4.17139H11.914C12.8188 4.17139 13.5522 4.9048 13.5522 5.8095V5.95502L6.99972 9.77334L0.447266 5.95502V5.8095C0.447266 4.9048 1.18068 4.17139 2.08539 4.17139ZM0.447266 7.40177V12.362C0.447266 13.2667 1.18068 14.0001 2.08539 14.0001H11.914C12.8188 14.0001 13.5522 13.2667 13.5522 12.362V7.40177L7.3144 11.0367C7.11992 11.15 6.87953 11.15 6.68505 11.0367L0.447266 7.40177Z" fill="black"/>
</g>
<defs>
<clipPath id="clip0_1068_187356">
<rect width="14" height="14" fill="white"/>
</clipPath>
</defs>
</svg>
