<svg width="14" height="14" viewBox="0 0 14 14" fill="none" xmlns="http://www.w3.org/2000/svg">
<g clip-path="url(#clip0_1068_187381)">
<path fill-rule="evenodd" clip-rule="evenodd" d="M0 7C0 3.13401 3.13401 0 7 0C10.866 0 14 3.13401 14 7C14 10.866 10.866 14 7 14C3.13401 14 0 10.866 0 7ZM4.18995 10.7005C4.10026 11.0338 3.75733 11.2313 3.42401 11.1416C3.09069 11.0519 2.8932 10.709 2.9829 10.3756C3.45986 8.60323 5.07756 7.29787 7.00174 7.29787C8.92593 7.29787 10.5436 8.60323 11.0206 10.3756C11.1103 10.709 10.9128 11.0519 10.5795 11.1416C10.2462 11.2313 9.90323 11.0338 9.81353 10.7005C9.47973 9.46006 8.34647 8.54787 7.00174 8.54787C5.65702 8.54787 4.52376 9.46006 4.18995 10.7005ZM4.58194 5.976C4.01725 5.97469 3.55988 5.51651 3.55988 4.95151C3.55988 4.38569 4.01856 3.927 4.58438 3.927L4.5868 3.92701C5.1515 3.92832 5.60887 4.3865 5.60887 4.95151C5.60887 5.51732 5.15019 5.97601 4.58437 5.97601L4.58194 5.976ZM9.4132 5.976C8.84849 5.9747 8.39111 5.51652 8.39111 4.95151C8.39111 4.38569 8.8498 3.927 9.41562 3.927L9.41805 3.92701C9.98275 3.92831 10.4401 4.3865 10.4401 4.95151C10.4401 5.51732 9.98144 5.97601 9.41563 5.97601L9.4132 5.976Z" fill="black"/>
</g>
<defs>
<clipPath id="clip0_1068_187381">
<rect width="14" height="14" fill="white"/>
</clipPath>
</defs>
</svg>
