<svg width="14" height="14" viewBox="0 0 14 14" fill="none" xmlns="http://www.w3.org/2000/svg">
<g clip-path="url(#clip0_1068_187420)">
<path fill-rule="evenodd" clip-rule="evenodd" d="M11.8211 0.0977331C12.1094 -0.00751778 12.4216 -0.0287134 12.7216 0.0367172C13.0245 0.102803 13.3021 0.254481 13.5213 0.473719C13.7405 0.692957 13.8922 0.970537 13.9583 1.27346C14.0237 1.57338 14.0025 1.88566 13.8973 2.17389L10.3233 12.8859C10.2362 13.1493 10.0827 13.3867 9.87783 13.5739C9.67353 13.7606 9.42482 13.8917 9.15545 13.9549C8.88603 14.0206 8.60414 14.015 8.33747 13.9388C8.07104 13.8627 7.82899 13.7187 7.63502 13.5209L5.71768 11.6123L3.70362 12.6538C3.54657 12.735 3.3583 12.7272 3.20847 12.6333C3.05865 12.5395 2.96954 12.3734 2.97413 12.1967L3.0567 9.01294L10.1016 3.89553C10.3809 3.69267 10.4429 3.30182 10.24 3.02255C10.0371 2.74327 9.64631 2.68133 9.36703 2.88419L2.20256 8.0884L0.47285 6.35869C0.285527 6.1715 0.147441 5.94054 0.0713446 5.68688C-0.00421083 5.43503 -0.0164862 5.16847 0.0355632 4.91079C0.0876798 4.62928 0.213521 4.36658 0.400302 4.14951C0.588362 3.93095 0.831375 3.76658 1.10423 3.67339L1.1076 3.67224L11.8211 0.0977331Z" fill="black"/>
</g>
<defs>
<clipPath id="clip0_1068_187420">
<rect width="14" height="14" fill="white"/>
</clipPath>
</defs>
</svg>
