<svg width="14" height="14" viewBox="0 0 14 14" fill="none" xmlns="http://www.w3.org/2000/svg">
<g clip-path="url(#clip0_1068_187426)">
<path fill-rule="evenodd" clip-rule="evenodd" d="M7.0039 0.0299354L6.99739 0.0299273C5.96707 0.0331094 4.95027 0.264674 4.02017 0.707954C3.09007 1.15123 2.26982 1.7952 1.61844 2.59351C0.967076 3.39181 0.500788 4.3246 0.253148 5.32473C0.00550838 6.32485 -0.0173245 7.36744 0.186293 8.37745C0.389911 9.38746 0.814915 10.3398 1.43071 11.1658C2.04651 11.9919 2.83778 12.6711 3.74758 13.1547C4.65738 13.6383 5.66307 13.9141 6.69227 13.9624C7.72147 14.0107 8.74857 13.8302 9.69965 13.434C10.082 13.2747 10.2628 12.8355 10.1035 12.4532C9.9442 12.0708 9.50509 11.89 9.12274 12.0493C8.37634 12.3603 7.57028 12.502 6.76257 12.4641C5.95486 12.4262 5.1656 12.2097 4.45159 11.8302C3.73759 11.4507 3.1166 10.9176 2.63332 10.2693C2.15004 9.62103 1.8165 8.87366 1.65671 8.08101C1.49691 7.28836 1.51483 6.47014 1.70917 5.68525C1.90352 4.90036 2.26946 4.16831 2.78065 3.5418C3.29185 2.9153 3.93558 2.40992 4.66551 2.06203C5.39447 1.71461 6.19129 1.53291 6.99877 1.52993C7.96192 1.53588 8.90701 1.79209 9.74129 2.27347C10.5765 2.75539 11.2719 3.44638 11.7592 4.27851L11.7648 4.288C12.9636 6.26788 12.3754 7.80242 11.67 8.48687C11.2796 8.86568 10.96 8.90391 10.8624 8.88132C10.8376 8.87558 10.8118 8.86646 10.7773 8.81022C10.7333 8.73856 10.6683 8.57097 10.6683 8.24404V7.00002C10.6683 6.99783 10.6683 6.99564 10.6683 6.99345C10.6675 6.5151 10.5719 6.04164 10.387 5.60041C10.2013 5.15713 9.92924 4.75527 9.58659 4.41824C9.24395 4.08122 8.83764 3.81578 8.39136 3.63741C7.94507 3.45903 7.46774 3.37129 6.98719 3.3793C6.27375 3.3912 5.57973 3.61362 4.99228 4.01864C4.40483 4.42366 3.95015 4.99322 3.68533 5.6558C3.42051 6.31837 3.35736 7.04442 3.50381 7.74277C3.65026 8.44112 3.99978 9.08063 4.50848 9.58099C5.01718 10.0813 5.66238 10.4203 6.36305 10.5551C7.06373 10.69 7.78863 10.6149 8.44674 10.3392C8.84771 10.1712 9.21299 9.93326 9.52662 9.63864C9.76724 10.0068 10.1173 10.2486 10.5242 10.3427C11.3222 10.5273 12.1396 10.1212 12.7145 9.56341C13.939 8.37539 14.5948 6.06992 13.0508 3.51579C12.4321 2.46115 11.55 1.58533 10.4909 0.974229C9.43023 0.362208 8.2285 0.0367771 7.0039 0.0299354ZM7.01219 4.8791C7.29366 4.8744 7.57325 4.9258 7.83465 5.03027C8.09605 5.13475 8.33404 5.29023 8.53473 5.48763C8.73543 5.68504 8.89482 5.92042 9.0036 6.18006C9.11238 6.4397 9.16839 6.7184 9.16835 6.99991C9.16829 7.41785 9.04475 7.82646 8.81324 8.17441C8.58173 8.52237 8.25256 8.79417 7.86709 8.95568C7.48162 9.11718 7.05702 9.1612 6.64662 9.08219C6.23621 9.00318 5.8583 8.80467 5.56034 8.5116C5.26238 8.21852 5.05766 7.84394 4.97188 7.4349C4.8861 7.02586 4.92308 6.60059 5.0782 6.2125C5.23331 5.82441 5.49963 5.4908 5.84372 5.25357C6.1878 5.01634 6.59431 4.88606 7.01219 4.8791Z" fill="black"/>
</g>
<defs>
<clipPath id="clip0_1068_187426">
<rect width="14" height="14" fill="white"/>
</clipPath>
</defs>
</svg>
