<svg width="14" height="14" viewBox="0 0 14 14" fill="none" xmlns="http://www.w3.org/2000/svg">
<g clip-path="url(#clip0_1068_187441)">
<path fill-rule="evenodd" clip-rule="evenodd" d="M11.1782 0.0909043C11.585 0.169127 11.8513 0.562284 11.7731 0.969045L11.2598 3.63844H13.1732C13.5875 3.63844 13.9232 3.97423 13.9232 4.38844C13.9232 4.80266 13.5875 5.13844 13.1732 5.13844H10.9713L10.2553 8.86141H13.1732C13.5875 8.86141 13.9232 9.19719 13.9232 9.61141C13.9232 10.0256 13.5875 10.3614 13.1732 10.3614H9.96688L9.39904 13.3142C9.32082 13.7209 8.92766 13.9873 8.5209 13.909C8.11414 13.8308 7.84781 13.4377 7.92603 13.0309L8.43939 10.3614H4.74395L4.17611 13.3142C4.09789 13.7209 3.70473 13.9873 3.29797 13.909C2.89121 13.8308 2.62488 13.4377 2.7031 13.0309L3.21646 10.3614H0.828125C0.413912 10.3614 0.078125 10.0256 0.078125 9.61141C0.078125 9.19719 0.413912 8.86141 0.828125 8.86141H3.50492L4.22088 5.13844H0.828125C0.413912 5.13844 0.078125 4.80266 0.078125 4.38844C0.078125 3.97423 0.413912 3.63844 0.828125 3.63844H4.50934L5.07716 0.685774C5.15538 0.279013 5.54854 0.0126812 5.9553 0.0909043C6.36206 0.169127 6.62839 0.562284 6.55017 0.969045L6.03682 3.63844H9.73227L10.3001 0.685774C10.3783 0.279013 10.7715 0.0126812 11.1782 0.0909043ZM5.74836 5.13844L5.03241 8.86141H8.72785L9.44381 5.13844H5.74836Z" fill="black"/>
</g>
<defs>
<clipPath id="clip0_1068_187441">
<rect width="14" height="14" fill="white"/>
</clipPath>
</defs>
</svg>
