<svg width="14" height="14" viewBox="0 0 14 14" fill="none" xmlns="http://www.w3.org/2000/svg">
<g clip-path="url(#clip0_1068_187414)">
<path fill-rule="evenodd" clip-rule="evenodd" d="M7.0005 3.17032H1.13991C2.39005 1.26116 4.54792 0 7.00035 0C9.45278 0 11.6106 1.26116 12.8608 3.17032H7.0005ZM7.00069 6.33145C6.93134 6.47043 6.85521 6.60817 6.77182 6.74327C6.11025 7.81512 4.97526 8.73509 3.19632 8.73509C1.80853 8.73509 0.798167 8.17264 0.104079 7.39441C0.070563 7.35683 0.0378285 7.3188 0.00585938 7.28037C0.153023 11.0164 3.22826 14 7.00035 14C10.7721 14 13.8472 11.0168 13.9948 7.28124C13.963 7.31937 13.9305 7.35711 13.8973 7.39441C13.2032 8.17264 12.1928 8.73509 10.805 8.73509C9.02613 8.73509 7.89114 7.81512 7.22957 6.74327C7.14618 6.60817 7.07005 6.47043 7.00069 6.33145ZM9.4869 9.79447C9.27743 9.61453 8.96176 9.63846 8.78181 9.84792C8.70713 9.93485 8.62294 10.0156 8.53088 10.0884C8.37897 10.2086 8.2072 10.3062 8.02423 10.375C7.9298 10.3999 7.83392 10.4155 7.73761 10.4222C7.46214 10.4414 7.25439 10.6803 7.2736 10.9558C7.2928 11.2312 7.53168 11.439 7.80716 11.4198C7.97516 11.4081 8.14373 11.3797 8.31046 11.3334C8.32296 11.33 8.33531 11.326 8.34751 11.3216C8.63918 11.2155 8.91136 11.0626 9.15144 10.8726C9.29253 10.7609 9.42312 10.636 9.54034 10.4996C9.72029 10.2901 9.69636 9.97442 9.4869 9.79447ZM0.158907 4.51204C0.121026 4.55312 0.10799 4.59597 0.120367 4.65258C0.260489 5.29348 0.547467 6.01356 1.03696 6.5624C1.50985 7.09262 2.18816 7.48509 3.19632 7.48509C4.46103 7.48509 5.22833 6.86407 5.70812 6.08673C6.04565 5.53989 6.23208 4.92367 6.31739 4.42032H0.391745C0.284411 4.42032 0.202939 4.46429 0.158907 4.51204ZM8.29327 6.08673C7.95574 5.53989 7.76931 4.92367 7.68399 4.42032H13.6096C13.7169 4.42032 13.7984 4.46429 13.8424 4.51204C13.8803 4.55312 13.8934 4.59597 13.881 4.65258C13.7409 5.29348 13.4539 6.01356 12.9644 6.5624C12.4915 7.09262 11.8132 7.48509 10.805 7.48509C9.54036 7.48509 8.77306 6.86407 8.29327 6.08673Z" fill="black"/>
</g>
<defs>
<clipPath id="clip0_1068_187414">
<rect width="14" height="14" fill="white"/>
</clipPath>
</defs>
</svg>
