<svg width="14" height="14" viewBox="0 0 14 14" fill="none" xmlns="http://www.w3.org/2000/svg">
<g clip-path="url(#clip0_1068_187417)">
<path fill-rule="evenodd" clip-rule="evenodd" d="M14 7C14 3.13401 10.866 0 7 0C3.13401 0 0 3.13401 0 7C0 10.866 3.13401 14 7 14C10.866 14 14 10.866 14 7ZM4.99445 3.82648C4.80509 3.81719 4.58088 3.85307 4.37678 3.90704C4.16367 3.96338 3.92177 4.05282 3.69747 4.18233C3.47317 4.31183 3.27477 4.47659 3.11941 4.63298C2.97062 4.78276 2.82745 4.95898 2.74081 5.12762C2.58307 5.43465 2.7041 5.81142 3.01113 5.96916C3.31816 6.12689 3.69493 6.00586 3.85266 5.69883C3.85263 5.69888 3.85264 5.69887 3.85266 5.69883C3.85393 5.69665 3.86545 5.6767 3.89339 5.64079C3.92171 5.60439 3.9598 5.56065 4.00622 5.51393C4.10113 5.41838 4.21335 5.32786 4.32247 5.26486C4.43159 5.20186 4.5661 5.14994 4.6963 5.11551C4.75997 5.09868 4.81689 5.08755 4.86257 5.08123C4.90766 5.07498 4.93051 5.07498 4.93301 5.07498C4.93309 5.07498 4.93322 5.07498 4.93301 5.07498C5.27778 5.09189 5.57117 4.82611 5.58808 4.48135C5.60499 4.13659 5.33922 3.84339 4.99445 3.82648ZM4.66854 9.69417C4.57884 10.0275 4.23592 10.225 3.9026 10.1353C3.56928 10.0456 3.37179 9.70266 3.46148 9.36934C3.88143 7.80879 5.30569 6.65937 7 6.65937C8.69431 6.65937 10.1186 7.80879 10.5385 9.36934C10.6282 9.70266 10.4307 10.0456 10.0974 10.1353C9.76408 10.225 9.42115 10.0275 9.33146 9.69417C9.05467 8.66562 8.11485 7.90937 7 7.90937C5.88515 7.90937 4.94533 8.66562 4.66854 9.69417ZM9.13737 5.08123C9.09228 5.07498 9.06944 5.07498 9.06694 5.07498C9.06673 5.07498 9.06686 5.07498 9.06694 5.07498C8.72217 5.09189 8.42878 4.82611 8.41187 4.48135C8.39495 4.13659 8.66073 3.84339 9.00549 3.82648C9.19486 3.81719 9.41907 3.85307 9.62317 3.90704C9.83628 3.96338 10.0782 4.05282 10.3025 4.18233C10.5268 4.31183 10.7252 4.47659 10.8805 4.63298C11.0293 4.78276 11.1725 4.95898 11.2591 5.12762C11.4169 5.43465 11.2958 5.81142 10.9888 5.96916C10.6818 6.12689 10.305 6.00586 10.1473 5.69883C10.1473 5.6989 10.1474 5.69901 10.1473 5.69883C10.146 5.69667 10.1345 5.67671 10.1066 5.64079C10.0782 5.60439 10.0401 5.56065 9.99373 5.51393C9.89882 5.41838 9.78659 5.32786 9.67748 5.26486C9.56836 5.20186 9.43385 5.14994 9.30365 5.11551C9.23998 5.09868 9.18306 5.08755 9.13737 5.08123Z" fill="black"/>
</g>
<defs>
<clipPath id="clip0_1068_187417">
<rect width="14" height="14" fill="white"/>
</clipPath>
</defs>
</svg>
