<svg width="14" height="14" viewBox="0 0 14 14" fill="none" xmlns="http://www.w3.org/2000/svg">
<g clip-path="url(#clip0_1068_187447)">
<path fill-rule="evenodd" clip-rule="evenodd" d="M0 7C0 3.13401 3.13401 0 7 0C10.866 0 14 3.13401 14 7C14 10.866 10.866 14 7 14C3.13401 14 0 10.866 0 7ZM10.875 4.5C11.1511 4.29289 11.2071 3.90114 11 3.625C10.7929 3.34886 10.4011 3.29289 10.125 3.5L8.125 5C7.95171 5.12997 7.85807 5.34039 7.87753 5.55613C7.89698 5.77186 8.02675 5.96215 8.22049 6.05902L10.2205 7.05902C10.5292 7.21339 10.9046 7.08825 11.059 6.77951C11.2134 6.47077 11.0882 6.09535 10.7795 5.94098L9.68402 5.39324L10.875 4.5ZM3 3.625C3.20711 3.34886 3.59886 3.29289 3.875 3.5L5.875 5C6.04829 5.12997 6.14193 5.34039 6.12247 5.55613C6.10302 5.77186 5.97325 5.96215 5.77951 6.05902L3.77951 7.05902C3.47077 7.21339 3.09535 7.08825 2.94098 6.77951C2.78661 6.47077 2.91176 6.09535 3.22049 5.94098L4.31598 5.39324L3.125 4.5C2.84886 4.29289 2.79289 3.90114 3 3.625ZM5.03718 10.3195C4.8607 10.6161 4.47716 10.7136 4.18053 10.5372C3.88385 10.3608 3.78638 9.97722 3.96282 9.68054L4.5 10C3.96282 9.68054 3.96276 9.68064 3.96282 9.68054L3.96346 9.67947L3.96465 9.67747L3.96866 9.67078L3.98303 9.64702C3.99538 9.62672 4.01317 9.59768 4.03594 9.56114C4.08144 9.48811 4.14696 9.38485 4.22856 9.26136C4.39108 9.0154 4.6206 8.68437 4.88528 8.35058C5.14702 8.02049 5.4581 7.66859 5.78529 7.39349C6.0866 7.14016 6.51554 6.85278 6.99996 6.85275C7.48442 6.85273 7.91339 7.14011 8.2147 7.39344C8.5419 7.66853 8.85298 8.02044 9.11473 8.35054C9.37941 8.68435 9.60892 9.01539 9.77145 9.26135C9.85305 9.38484 9.91857 9.48812 9.96407 9.56114C9.98683 9.59769 10.0046 9.62673 10.017 9.64703L10.0313 9.67079L10.0354 9.67748L10.0365 9.67948L10.0371 9.68037C10.0371 9.68047 10.0372 9.68056 9.5 10L10.0371 9.68037C10.2135 9.97705 10.1161 10.3608 9.81946 10.5372C9.52284 10.7136 9.13941 10.6162 8.96293 10.3197L8.95999 10.3148L8.94885 10.2963C8.93873 10.2797 8.92332 10.2546 8.90312 10.2221C8.86268 10.1572 8.8032 10.0634 8.72855 9.95046C8.57858 9.72349 8.37059 9.42395 8.13527 9.12718C7.89702 8.82671 7.6456 8.54805 7.4103 8.35022C7.2932 8.25177 7.19326 8.1846 7.11305 8.14414C7.03905 8.10682 7.00356 8.10315 7.00003 8.10279C6.9965 8.10315 6.96099 8.10682 6.88698 8.14416C6.80676 8.18463 6.70681 8.25181 6.58971 8.35027C6.3544 8.5481 6.10298 8.82677 5.86472 9.12723C5.6294 9.424 5.42142 9.72352 5.27144 9.95049C5.19679 10.0635 5.13731 10.1572 5.09687 10.2221C5.07667 10.2546 5.06126 10.2797 5.05114 10.2964L5.04 10.3148L5.03718 10.3195Z" fill="black"/>
</g>
<defs>
<clipPath id="clip0_1068_187447">
<rect width="14" height="14" fill="white"/>
</clipPath>
</defs>
</svg>
