<svg width="14" height="14" viewBox="0 0 14 14" fill="none" xmlns="http://www.w3.org/2000/svg">
<g clip-path="url(#clip0_1068_187411)">
<path fill-rule="evenodd" clip-rule="evenodd" d="M14 7C14 3.13401 10.866 0 7 0C3.13401 0 0 3.13401 0 7C0 10.866 3.13401 14 7 14C10.866 14 14 10.866 14 7ZM8.25844 2.39914C8.20772 2.44069 8.06354 2.51658 7.80858 2.57986C7.56837 2.63948 7.28301 2.67469 7.00004 2.67469C6.71706 2.67469 6.4317 2.63948 6.19149 2.57986C5.93654 2.51658 5.79235 2.44069 5.74163 2.39914C5.47462 2.18038 5.08083 2.21948 4.86207 2.48649C4.64331 2.75349 4.68242 3.14728 4.94942 3.36604C5.20892 3.57866 5.56109 3.71132 5.89038 3.79305C6.23442 3.87844 6.62121 3.92469 7.00004 3.92469C7.37886 3.92469 7.76565 3.87844 8.10969 3.79305C8.43898 3.71132 8.79115 3.57866 9.05065 3.36604C9.31765 3.14728 9.35676 2.75349 9.138 2.48649C8.91924 2.21948 8.52545 2.18038 8.25844 2.39914ZM9.01441 9.2772C9.01441 8.13403 8.15022 7.13737 7.00132 7.13737C5.85241 7.13737 4.98822 8.13403 4.98822 9.2772C4.98822 10.4204 5.85241 11.417 7.00132 11.417C8.15022 11.417 9.01441 10.4204 9.01441 9.2772ZM9.41812 6.36611C9.98282 6.3648 10.4402 5.90662 10.4402 5.34161C10.4402 4.77579 9.9815 4.31711 9.41569 4.31711H9.41326C8.84856 4.31843 8.39119 4.77661 8.39119 5.34161C8.39119 5.90743 8.84988 6.36611 9.4157 6.36611H9.41812ZM4.58681 6.36611C5.15151 6.3648 5.60889 5.90662 5.60889 5.34161C5.60889 4.77579 5.15021 4.31711 4.58439 4.31711H4.58196C4.01725 4.31842 3.55987 4.7766 3.55987 5.34161C3.55987 5.90743 4.01856 6.36611 4.58438 6.36611H4.58681Z" fill="black"/>
</g>
<defs>
<clipPath id="clip0_1068_187411">
<rect width="14" height="14" fill="white"/>
</clipPath>
</defs>
</svg>
