<svg width="14" height="14" viewBox="0 0 14 14" fill="none" xmlns="http://www.w3.org/2000/svg">
<g clip-path="url(#clip0_1068_187438)">
<path fill-rule="evenodd" clip-rule="evenodd" d="M14 7C14 3.13401 10.866 0 7 0C3.13401 0 0 3.13401 0 7C0 10.866 3.13401 14 7 14C10.866 14 14 10.866 14 7ZM9.50896 8.83716C9.59866 8.50384 9.94158 8.30635 10.2749 8.39604C10.6082 8.48574 10.8057 8.82867 10.716 9.16199C10.275 10.8007 8.7794 12.0077 7.00027 12.0077C5.22115 12.0077 3.72552 10.8007 3.28453 9.16199C3.19483 8.82867 3.39233 8.48574 3.72565 8.39604C4.05897 8.30635 4.40189 8.50384 4.49159 8.83716C4.78941 9.94388 5.80061 10.7577 7.00027 10.7577C8.19994 10.7577 9.21113 9.94388 9.50896 8.83716ZM10.0535 3.89244C11.0457 2.67508 12.0932 3.54006 12.107 4.4725C12.107 5.86063 10.4461 7 10.0535 7C9.66091 7 8.00002 5.86063 8.00002 4.4725C8.0138 3.54006 9.06136 2.67508 10.0535 3.89244ZM1.89301 4.4725C1.90679 3.54006 2.95434 2.67508 3.94649 3.89244C4.93864 2.67508 5.98619 3.54006 5.99998 4.4725C5.99998 5.86063 4.33909 7 3.94649 7C3.55389 7 1.89301 5.86063 1.89301 4.4725Z" fill="black"/>
</g>
<defs>
<clipPath id="clip0_1068_187438">
<rect width="14" height="14" fill="white"/>
</clipPath>
</defs>
</svg>
