<svg width="14" height="14" viewBox="0 0 14 14" fill="none" xmlns="http://www.w3.org/2000/svg">
<g clip-path="url(#clip0_1068_187456)">
<path fill-rule="evenodd" clip-rule="evenodd" d="M0 7C0 3.13401 3.13401 0 7 0C10.866 0 14 3.13401 14 7C14 10.866 10.866 14 7 14C3.13401 14 0 10.866 0 7ZM7.44515 6.70296C7.10784 6.6297 6.775 6.84376 6.70174 7.18107C6.62848 7.51838 6.84254 7.85122 7.17985 7.92448L7.62642 8.02147C7.81693 8.06285 7.87513 8.30613 7.72397 8.42925L7.35531 8.7295C7.20958 8.84819 7.125 9.02616 7.125 9.21411C7.125 9.40206 7.20958 9.58003 7.35531 9.69872L7.72397 9.99897C7.87513 10.1221 7.81693 10.3654 7.62642 10.4068L7.17985 10.5037C6.84254 10.577 6.62848 10.9098 6.70174 11.2472C6.775 11.5845 7.10784 11.7985 7.44515 11.7253L7.89172 11.6283C9.01662 11.384 9.41762 10.035 8.70412 9.21411C9.41762 8.39324 9.01662 7.04426 7.89172 6.79995L7.44515 6.70296ZM11 3.625C11.2071 3.90114 11.1511 4.29289 10.875 4.5L9.68402 5.39324L10.7795 5.94098C11.0882 6.09535 11.2134 6.47077 11.059 6.77951C10.9046 7.08825 10.5292 7.21339 10.2205 7.05902L8.22049 6.05902C8.02675 5.96215 7.89698 5.77186 7.87753 5.55613C7.85807 5.34039 7.95171 5.12997 8.125 5L10.125 3.5C10.4011 3.29289 10.7929 3.34886 11 3.625ZM3.875 3.5C3.59886 3.29289 3.20711 3.34886 3 3.625C2.79289 3.90114 2.84886 4.29289 3.125 4.5L4.31598 5.39324L3.22049 5.94098C2.91176 6.09535 2.78661 6.47077 2.94098 6.77951C3.09535 7.08825 3.47077 7.21339 3.77951 7.05902L5.77951 6.05902C5.97325 5.96215 6.10302 5.77186 6.12247 5.55613C6.14193 5.34039 6.04829 5.12997 5.875 5L3.875 3.5Z" fill="black"/>
</g>
<defs>
<clipPath id="clip0_1068_187456">
<rect width="14" height="14" fill="white"/>
</clipPath>
</defs>
</svg>
