<svg width="14" height="14" viewBox="0 0 14 14" fill="none" xmlns="http://www.w3.org/2000/svg">
<g clip-path="url(#clip0_1068_187402)">
<path fill-rule="evenodd" clip-rule="evenodd" d="M7 0C3.13401 0 0 3.13401 0 7C0 10.866 3.13401 14 7 14C10.866 14 14 10.866 14 7C14 3.13401 10.866 0 7 0ZM3.34308 8.22259C3.34308 8.08452 3.45501 7.97259 3.59308 7.97259H10.3747C10.5128 7.97259 10.6247 8.08452 10.6247 8.22259C10.6247 8.7751 10.3552 9.55988 9.77337 10.2063C9.18322 10.8621 8.269 11.379 6.98389 11.379C5.69878 11.379 4.78456 10.8621 4.19441 10.2063C3.61259 9.55988 3.34308 8.7751 3.34308 8.22259ZM4.58194 5.976C4.01725 5.97469 3.55988 5.51651 3.55988 4.95151C3.55988 4.38569 4.01856 3.927 4.58438 3.927L4.5868 3.92701C5.1515 3.92832 5.60887 4.3865 5.60887 4.95151C5.60887 5.51732 5.15019 5.97601 4.58437 5.97601L4.58194 5.976ZM9.4132 5.976C8.84849 5.9747 8.39111 5.51652 8.39111 4.95151C8.39111 4.38569 8.8498 3.927 9.41562 3.927L9.41805 3.92701C9.98275 3.92831 10.4401 4.3865 10.4401 4.95151C10.4401 5.51732 9.98144 5.97601 9.41563 5.97601L9.4132 5.976Z" fill="black"/>
</g>
<defs>
<clipPath id="clip0_1068_187402">
<rect width="14" height="14" fill="white"/>
</clipPath>
</defs>
</svg>
