<svg width="14" height="14" viewBox="0 0 14 14" fill="none" xmlns="http://www.w3.org/2000/svg">
<g clip-path="url(#clip0_1068_187399)">
<path fill-rule="evenodd" clip-rule="evenodd" d="M7.63701 10.8616C7.63913 10.8603 7.64125 10.859 7.64339 10.8576C7.95037 10.664 8.3425 10.4723 8.78023 10.3296C9.00438 10.2565 9.24048 10.1962 9.48323 10.1551C9.58126 10.1386 9.68038 10.1251 9.78023 10.1151V11.4693C9.78023 12.1493 9.22898 12.7005 8.54899 12.7005C7.86899 12.7005 7.31775 12.1493 7.31775 11.4693V11.0884C7.40929 11.0145 7.51652 10.938 7.63701 10.8616ZM10.2243 9.21917C10.0578 9.13663 9.86982 9.1013 9.68125 9.12006C8.44742 9.24278 7.32002 9.80121 6.68945 10.3105C6.47179 10.4862 6.33854 10.7444 6.31998 11.0216C5.39808 10.8783 4.70421 10.4411 4.22316 9.90656C3.64975 9.26944 3.37305 8.48685 3.37305 7.90648C3.37305 7.63034 3.59691 7.40648 3.87305 7.40648H10.0913C10.3674 7.40648 10.5913 7.63034 10.5913 7.90648C10.5913 8.28738 10.4718 8.75847 10.2243 9.21917ZM0 7C0 3.13401 3.13401 0 7 0C10.866 0 14 3.13401 14 7C14 10.866 10.866 14 7 14C3.13401 14 0 10.866 0 7ZM8.88978 4.73407C8.87624 4.73325 8.86939 4.73339 8.86851 4.73341C8.52375 4.75032 8.23055 4.48454 8.21364 4.13978C8.19673 3.79502 8.4625 3.50182 8.80727 3.48491C9.00211 3.47535 9.23477 3.51233 9.44823 3.56877C9.67069 3.62759 9.92284 3.72088 10.1562 3.85562C10.3896 3.99037 10.5965 4.16209 10.7586 4.32534C10.9143 4.48198 11.0626 4.66498 11.1517 4.8385C11.3095 5.14553 11.1885 5.52229 10.8814 5.68003C10.5744 5.83776 10.1977 5.71682 10.0399 5.40979C10.0395 5.40907 10.0362 5.403 10.0287 5.39162C10.0204 5.37909 10.0088 5.36278 9.99353 5.34315C9.96276 5.30359 9.92166 5.25644 9.87184 5.20629C9.77011 5.10388 9.64942 5.0064 9.53122 4.93815C9.41302 4.86991 9.26826 4.81414 9.1287 4.77724C9.06036 4.75917 8.99898 4.74715 8.94933 4.74028C8.92469 4.73687 8.90477 4.73497 8.88978 4.73407ZM3.97132 5.39162C3.96384 5.40293 3.96054 5.40894 3.96012 5.40971C3.80238 5.71674 3.42561 5.83777 3.11858 5.68003C2.81155 5.52229 2.69052 5.14553 2.84826 4.8385C2.9374 4.66498 3.08575 4.48198 3.24136 4.32534C3.40353 4.16209 3.6104 3.99037 3.84378 3.85562C4.07717 3.72088 4.32932 3.62759 4.55178 3.56877C4.76524 3.51233 4.9979 3.47535 5.19274 3.48491C5.5375 3.50182 5.80328 3.79502 5.78637 4.13978C5.76946 4.48454 5.47626 4.75032 5.13149 4.73341C5.13057 4.73339 5.12371 4.73325 5.11023 4.73407C5.09524 4.73498 5.07531 4.73687 5.05067 4.74028C5.00102 4.74715 4.93965 4.75917 4.8713 4.77724C4.73175 4.81414 4.58699 4.86991 4.46878 4.93816C4.35058 5.0064 4.2299 5.10388 4.12817 5.20629C4.07834 5.25645 4.03725 5.30359 4.00647 5.34315C3.9912 5.36278 3.9796 5.37909 3.97132 5.39162Z" fill="black"/>
</g>
<defs>
<clipPath id="clip0_1068_187399">
<rect width="14" height="14" fill="white"/>
</clipPath>
</defs>
</svg>
