<svg width="14" height="14" viewBox="0 0 14 14" fill="none" xmlns="http://www.w3.org/2000/svg">
<g clip-path="url(#clip0_1068_187435)">
<path fill-rule="evenodd" clip-rule="evenodd" d="M0 7C0 3.13401 3.13401 0 7 0C10.866 0 14 3.13401 14 7C14 10.866 10.866 14 7 14C3.13401 14 0 10.866 0 7ZM3.55988 4.67646C3.55988 5.24146 4.01725 5.69964 4.58194 5.70096H4.58437C5.15019 5.70096 5.60887 5.24227 5.60887 4.67646C5.60887 4.11145 5.1515 3.65327 4.5868 3.65196L4.58438 3.65195C4.01856 3.65195 3.55988 4.11064 3.55988 4.67646ZM8.39111 4.67646C8.39111 5.24147 8.84849 5.69965 9.4132 5.70096H9.41563C9.98144 5.70096 10.4401 5.24227 10.4401 4.67646C10.4401 4.11145 9.98275 3.65326 9.41805 3.65196L9.41562 3.65195C8.8498 3.65195 8.39111 4.11064 8.39111 4.67646ZM7.3637 6.39044C7.02638 6.31718 6.69355 6.53124 6.62029 6.86856C6.54703 7.20587 6.76109 7.53871 7.0984 7.61197L7.54497 7.70896C7.73548 7.75033 7.79368 7.99362 7.64252 8.11673L7.27386 8.41699C7.12813 8.53568 7.04355 8.71365 7.04355 8.9016C7.04355 9.08954 7.12813 9.26751 7.27386 9.3862L7.64252 9.68646C7.79368 9.80958 7.73548 10.0529 7.54497 10.0942L7.0984 10.1912C6.76109 10.2645 6.54703 10.5973 6.62029 10.9346C6.69355 11.2719 7.02638 11.486 7.3637 11.4127L7.81027 11.3158C8.93517 11.0714 9.33617 9.72247 8.62267 8.9016C9.33617 8.08072 8.93517 6.73175 7.81027 6.48743L7.3637 6.39044Z" fill="black"/>
</g>
<defs>
<clipPath id="clip0_1068_187435">
<rect width="14" height="14" fill="white"/>
</clipPath>
</defs>
</svg>
