<svg width="14" height="14" viewBox="0 0 14 14" fill="none" xmlns="http://www.w3.org/2000/svg">
<g clip-path="url(#clip0_1068_187408)">
<path fill-rule="evenodd" clip-rule="evenodd" d="M-0.00195312 7C-0.00195312 3.13401 3.13205 0 6.99804 0C10.8641 0 13.9981 3.13401 13.9981 7C13.9981 10.866 10.8641 14 6.99804 14C3.13205 14 -0.00195312 10.866 -0.00195312 7ZM4.80322 8.6344C4.80322 8.28922 4.5234 8.0094 4.17822 8.0094C3.83304 8.0094 3.55322 8.28922 3.55322 8.6344C3.55322 9.75824 4.46427 10.6693 5.58812 10.6693C6.13543 10.6693 6.63228 10.4532 6.99801 10.1017C7.36374 10.4532 7.86059 10.6693 8.40791 10.6693C9.53175 10.6693 10.4428 9.75824 10.4428 8.6344C10.4428 8.28922 10.163 8.0094 9.81781 8.0094C9.47264 8.0094 9.19281 8.28922 9.19281 8.6344C9.19281 9.06789 8.8414 9.4193 8.40791 9.4193C7.97442 9.4193 7.62301 9.06789 7.62301 8.6344C7.62301 8.28922 7.34319 8.0094 6.99801 8.0094C6.65283 8.0094 6.37301 8.28922 6.37301 8.6344C6.37301 9.06789 6.0216 9.4193 5.58812 9.4193C5.15463 9.4193 4.80322 9.06789 4.80322 8.6344ZM9.51794 5.16827C9.7831 5.16827 9.99795 5.30609 10.061 5.4085C10.2419 5.70247 10.6269 5.79413 10.9208 5.61322C11.2148 5.43231 11.3065 5.04735 11.1256 4.75337C10.7853 4.2005 10.1131 3.91827 9.51794 3.91827C8.92284 3.91827 8.25056 4.2005 7.91033 4.75337C7.72942 5.04735 7.82108 5.43231 8.11505 5.61322C8.40903 5.79413 8.79399 5.70247 8.9749 5.4085C9.03792 5.30609 9.25277 5.16827 9.51794 5.16827ZM3.93511 5.4085C3.99813 5.30609 4.21299 5.16827 4.47815 5.16827C4.74331 5.16827 4.95817 5.30609 5.02118 5.4085C5.20209 5.70247 5.58706 5.79413 5.88103 5.61322C6.17501 5.43231 6.26666 5.04735 6.08576 4.75337C5.74553 4.2005 5.07325 3.91827 4.47815 3.91827C3.88305 3.91827 3.21077 4.2005 2.87054 4.75337C2.68963 5.04735 2.78129 5.43231 3.07527 5.61322C3.36924 5.79413 3.75421 5.70247 3.93511 5.4085Z" fill="black"/>
</g>
<defs>
<clipPath id="clip0_1068_187408">
<rect width="14" height="14" fill="white"/>
</clipPath>
</defs>
</svg>
