<svg width="14" height="14" viewBox="0 0 14 14" fill="none" xmlns="http://www.w3.org/2000/svg">
<g clip-path="url(#clip0_1068_187423)">
<path fill-rule="evenodd" clip-rule="evenodd" d="M0 7C0 3.13401 3.13401 0 7 0C10.866 0 14 3.13401 14 7C14 10.866 10.866 14 7 14C3.13401 14 0 10.866 0 7ZM9.33147 9.58153C9.42117 9.91485 9.76409 10.1123 10.0974 10.0226C10.4307 9.93294 10.6282 9.59002 10.5385 9.2567C10.1186 7.69615 8.69432 6.54673 7.00001 6.54673C5.3057 6.54673 3.88145 7.69615 3.4615 9.2567C3.3718 9.59002 3.56929 9.93294 3.90261 10.0226C4.23593 10.1123 4.57886 9.91485 4.66855 9.58153C4.94534 8.55298 5.88516 7.79673 7.00001 7.79673C8.11486 7.79673 9.05468 8.55298 9.33147 9.58153ZM2.94095 4.40837C2.94095 4.06319 3.22077 3.78337 3.56595 3.78337H4.86948C5.21465 3.78337 5.49448 4.06319 5.49448 4.40837V5.0031C5.49448 5.34828 5.21465 5.6281 4.86948 5.6281C4.53445 5.6281 4.26099 5.36449 4.2452 5.03337H3.56595C3.22077 5.03337 2.94095 4.75355 2.94095 4.40837ZM9.13052 3.78337C8.78535 3.78337 8.50552 4.06319 8.50552 4.40837C8.50552 4.75355 8.78535 5.03337 9.13052 5.03337H9.80977C9.82556 5.36449 10.099 5.6281 10.4341 5.6281C10.7792 5.6281 11.0591 5.34828 11.0591 5.0031V4.40837C11.0591 4.06319 10.7792 3.78337 10.4341 3.78337H9.13052Z" fill="black"/>
</g>
<defs>
<clipPath id="clip0_1068_187423">
<rect width="14" height="14" fill="white"/>
</clipPath>
</defs>
</svg>
