<svg width="14" height="14" viewBox="0 0 14 14" fill="none" xmlns="http://www.w3.org/2000/svg">
<g clip-path="url(#clip0_1068_187450)">
<path fill-rule="evenodd" clip-rule="evenodd" d="M3.52636 0.982177C0.202783 2.90104 -0.93596 7.15089 0.982909 10.4745C2.90178 13.7981 7.15162 14.9368 10.4752 13.0179C13.7988 11.0991 14.9375 6.8492 13.0187 3.52562C11.0998 0.20205 6.84994 -0.936692 3.52636 0.982177ZM2.23217 5.66023C2.34257 5.33318 2.69719 5.15755 3.02424 5.26795L4.95198 5.91866C5.18464 5.9972 5.34975 6.20469 5.37403 6.44904C5.3983 6.6934 5.27725 6.92932 5.06459 7.0521L3.6238 7.88394C3.32487 8.05653 2.94262 7.95411 2.77003 7.65517C2.59745 7.35624 2.69987 6.974 2.9988 6.80141L3.24227 6.66084L2.62446 6.4523C2.29741 6.3419 2.12178 5.98728 2.23217 5.66023ZM8.71457 2.93615C8.78249 2.59772 8.5632 2.26831 8.22477 2.20039C7.88634 2.13247 7.55693 2.35177 7.48901 2.6902L7.08867 4.68503C7.04035 4.92579 7.13749 5.17253 7.33697 5.31573C7.53645 5.45893 7.80129 5.47205 8.01395 5.34928L9.45475 4.51743C9.75368 4.34485 9.8561 3.9626 9.68351 3.66367C9.51092 3.36474 9.12868 3.26231 8.82975 3.4349L8.58627 3.57547L8.71457 2.93615ZM4.20903 9.89568C4.07096 9.65654 4.1529 9.35074 4.39204 9.21267L10.2222 5.84664C10.4613 5.70857 10.7671 5.79051 10.9052 6.02965C11.2137 6.56405 11.377 7.43699 11.1862 8.33584C10.9902 9.25907 10.4192 10.2191 9.24969 10.8943C8.08024 11.5695 6.9633 11.584 6.06575 11.2921C5.19191 11.008 4.51756 10.4301 4.20903 9.89568Z" fill="black"/>
</g>
<defs>
<clipPath id="clip0_1068_187450">
<rect width="14" height="14" fill="white"/>
</clipPath>
</defs>
</svg>
