<svg width="16" height="16" viewBox="0 0 16 16" fill="none" xmlns="http://www.w3.org/2000/svg">
<path d="M13.9914 7.65008C13.9385 8.74585 13.6333 9.61691 13.0758 10.2632C12.5231 10.9053 11.7782 11.2263 10.8411 11.2263C10.4277 11.2263 10.0697 11.1471 9.76692 10.9888C9.36107 10.7731 8.75554 10.7179 8.35072 10.9355C8.01401 11.1166 7.63301 11.2071 7.20774 11.2071C6.50606 11.2071 5.96299 10.9438 5.57851 10.4173C5.19403 9.89085 5.04986 9.19529 5.14597 8.33066C5.23248 7.6244 5.43193 6.99732 5.74432 6.44944C6.06151 5.89727 6.46041 5.47352 6.941 5.17817C7.4216 4.88283 7.94065 4.73515 8.49814 4.73515C9.18539 4.73515 9.77172 4.8764 10.2571 5.15891C10.5347 5.32765 10.6909 5.64063 10.6589 5.9639L10.3436 9.14607C10.2956 9.48422 10.3364 9.74318 10.4662 9.92295C10.6008 10.1027 10.8122 10.1926 11.1006 10.1926C11.5427 10.1926 11.9128 9.96362 12.2108 9.50562C12.5087 9.04334 12.6721 8.43981 12.701 7.69502C12.7827 6.20118 12.4438 5.05404 11.6845 4.25361C10.93 3.4489 9.81017 3.04655 8.32512 3.04655C7.39757 3.04655 6.57095 3.25629 5.84524 3.67576C5.11954 4.09524 4.54763 4.69235 4.12951 5.46709C3.71139 6.23756 3.4759 7.12146 3.42303 8.11878C3.34614 9.63403 3.68736 10.8047 4.44671 11.6308C5.20605 12.4612 6.34266 12.8764 7.85654 12.8764C8.25544 12.8764 8.67356 12.8357 9.1109 12.7544C9.30727 12.7198 9.49152 12.6796 9.66367 12.6338C9.97711 12.5504 10.3193 12.7162 10.4059 13.0288C10.4712 13.2644 10.3702 13.5177 10.1426 13.607C9.91108 13.6978 9.63927 13.7753 9.32717 13.8395C8.83215 13.9465 8.33233 14 7.82771 14C6.55893 14 5.47759 13.771 4.58368 13.313C3.68977 12.8593 3.02174 12.1873 2.57959 11.297C2.14224 10.4109 1.95241 9.35153 2.01008 8.11878C2.06775 6.9374 2.37053 5.87801 2.91841 4.94061C3.46629 4.00321 4.21121 3.27983 5.15318 2.77047C6.09996 2.25682 7.16689 2 8.35396 2C9.56026 2 10.5983 2.23114 11.4682 2.69342C12.3381 3.15142 12.9893 3.80845 13.4219 4.66453C13.8544 5.5206 14.0442 6.51578 13.9914 7.65008ZM6.74636 8.33066C6.6935 8.89567 6.74877 9.32584 6.91217 9.62119C7.07557 9.91225 7.3399 10.0578 7.70515 10.0578C7.94065 10.0578 8.16412 9.96576 8.37559 9.7817C8.49637 9.67658 8.60539 9.54492 8.70265 9.38673C8.85844 9.13336 8.91682 8.83533 8.94633 8.53936L9.1466 6.53052C9.18027 6.19282 8.96727 5.86517 8.6279 5.86517C8.07521 5.86517 7.64508 6.07491 7.3375 6.49438C7.03472 6.91386 6.83768 7.52595 6.74636 8.33066Z" fill="#333333"/>
</svg>
