<svg width="16" height="16" viewBox="0 0 16 16" fill="none" xmlns="http://www.w3.org/2000/svg">
<path d="M7.62063 3.59998H9.00063V12H7.62063V8.36398H4.02062V12H2.64062V3.59998H4.02062V7.04398H7.62063V3.59998Z" fill="#333333"/>
<path d="M12.6637 8.67198C13.0424 8.78398 13.349 8.98131 13.5837 9.26398C13.8237 9.54131 13.9437 9.87731 13.9437 10.272C13.9437 10.848 13.749 11.2986 13.3597 11.624C12.9757 11.9493 12.5037 12.112 11.9437 12.112C11.5064 12.112 11.1144 12.0133 10.7677 11.816C10.4264 11.6133 10.1784 11.3173 10.0237 10.928L10.9677 10.384C11.1064 10.816 11.4317 11.032 11.9437 11.032C12.2264 11.032 12.445 10.9653 12.5997 10.832C12.7597 10.6933 12.8397 10.5066 12.8397 10.272C12.8397 10.0426 12.7597 9.85864 12.5997 9.71998C12.445 9.58131 12.2264 9.51198 11.9437 9.51198H11.7037L11.2797 8.87198L12.3837 7.43198H10.1917V6.39998H13.7117V7.31198L12.6637 8.67198Z" fill="#333333"/>
</svg>
