<svg width="16" height="17" viewBox="0 0 16 17" fill="none" xmlns="http://www.w3.org/2000/svg">
<g opacity="0.3">
<path d="M12.739 3.80656C10.1323 1.1999 5.899 1.1999 3.29233 3.80656C0.639001 6.4599 0.685667 10.7866 3.42567 13.3866C5.959 15.7799 10.0657 15.7799 12.599 13.3866C15.3457 10.7866 15.3923 6.4599 12.739 3.80656ZM10.919 11.5999C10.119 12.3599 9.06567 12.7399 8.01233 12.7399C6.959 12.7399 5.90567 12.3599 5.10567 11.5999C4.90567 11.4066 4.899 11.0932 5.08567 10.8932C5.279 10.6932 5.59233 10.6866 5.79233 10.8732C7.01233 12.0266 9.00567 12.0332 10.2323 10.8732C10.4323 10.6866 10.7523 10.6932 10.939 10.8932C11.1323 11.0932 11.119 11.4066 10.919 11.5999Z" fill="#171717"/>
</g>
</svg>
