<svg width="16" height="17" viewBox="0 0 16 17" fill="none" xmlns="http://www.w3.org/2000/svg">
<g opacity="0.3">
<path d="M1.72052 13.1735L1.70719 13.1868C1.52719 12.7935 1.41385 12.3468 1.36719 11.8535C1.41385 12.3402 1.54052 12.7802 1.72052 13.1735Z" fill="#171717"/>
<path d="M6.00073 7.41943C6.87702 7.41943 7.5874 6.70905 7.5874 5.83276C7.5874 4.95647 6.87702 4.24609 6.00073 4.24609C5.12444 4.24609 4.41406 4.95647 4.41406 5.83276C4.41406 6.70905 5.12444 7.41943 6.00073 7.41943Z" fill="#171717"/>
<path d="M10.792 1.83398H5.20536C2.7787 1.83398 1.33203 3.28065 1.33203 5.70732V11.294C1.33203 12.0207 1.4587 12.654 1.70536 13.1873C2.2787 14.454 3.50536 15.1673 5.20536 15.1673H10.792C13.2187 15.1673 14.6654 13.7207 14.6654 11.294V9.76732V5.70732C14.6654 3.28065 13.2187 1.83398 10.792 1.83398ZM13.5787 8.83398C13.0587 8.38732 12.2187 8.38732 11.6987 8.83398L8.92537 11.214C8.40537 11.6607 7.56536 11.6607 7.04536 11.214L6.8187 11.0273C6.34536 10.614 5.59203 10.574 5.0587 10.934L2.56536 12.6073C2.4187 12.234 2.33203 11.8007 2.33203 11.294V5.70732C2.33203 3.82732 3.32536 2.83398 5.20536 2.83398H10.792C12.672 2.83398 13.6654 3.82732 13.6654 5.70732V8.90732L13.5787 8.83398Z" fill="#171717"/>
</g>
</svg>
