<svg xmlns="http://www.w3.org/2000/svg" viewBox="-0.5 -0.5 16 16" fill="#000000" id="Plus-Light--Streamline-Phosphor.svg" height="16" width="16"><desc>Plus Light Streamline Icon: https://streamlinehq.com</desc><path d="M14.85 7.5c0 0.2591015625 -0.210046875 0.4691484375 -0.4691484375 0.4691484375H7.9691484374999995v6.411703125c0 0.3611484375 -0.39095507812499997 0.5868691406250001 -0.70372265625 0.406294921875 -0.145154296875 -0.083806640625 -0.23457421875 -0.2386875 -0.23457421875 -0.406294921875V7.9691484374999995H0.6191484375c-0.3611484375 0 -0.5868691406250001 -0.39095507812499997 -0.406294921875 -0.70372265625 0.083806640625 -0.145154296875 0.238681640625 -0.23457421875 0.406294921875 -0.23457421875h6.411703125V0.6191484375c0 -0.3611484375 0.39095507812499997 -0.5868691406250001 0.70372265625 -0.406294921875 0.145154296875 0.083806640625 0.23457421875 0.238681640625 0.23457421875 0.406294921875v6.411703125h6.411703125c0.259095703125 0.00001171875 0.4691484375 0.21005273437500002 0.4691484375 0.4691484375Z" stroke-width="1"></path></svg>