<svg width="16" height="16" viewBox="0 0 16 16" fill="none" xmlns="http://www.w3.org/2000/svg">
<path d="M5.5 8C5.5 8.66304 5.76339 9.29893 6.23223 9.76777C6.70107 10.2366 7.33696 10.5 8 10.5C8.66304 10.5 9.29893 10.2366 9.76777 9.76777C10.2366 9.29893 10.5 8.66304 10.5 8C10.5 7.33696 10.2366 6.70107 9.76777 6.23223C9.29893 5.76339 8.66304 5.5 8 5.5C7.33696 5.5 6.70107 5.76339 6.23223 6.23223C5.76339 6.70107 5.5 7.33696 5.5 8Z" stroke="black" stroke-linecap="round" stroke-linejoin="round"/>
<path d="M10.5 5.50001V8.62501C10.5 9.12229 10.6976 9.5992 11.0492 9.95083C11.4008 10.3025 11.8777 10.5 12.375 10.5C12.8723 10.5 13.3492 10.3025 13.7008 9.95083C14.0525 9.5992 14.25 9.12229 14.25 8.62501V8.00001C14.25 6.59207 13.7746 5.22538 12.9009 4.12136C12.0271 3.01734 10.8062 2.24068 9.43596 1.9172C8.06569 1.59372 6.62634 1.74238 5.35111 2.3391C4.07588 2.93582 3.03949 3.94563 2.40984 5.20492C1.78019 6.46422 1.59418 7.89922 1.88195 9.27743C2.16971 10.6556 2.91439 11.8963 3.99534 12.7985C5.07628 13.7006 6.43016 14.2113 7.83762 14.2479C9.24508 14.2845 10.6237 13.8448 11.75 13" stroke="black" stroke-linecap="round" stroke-linejoin="round"/>
</svg>
