<svg width="17" height="17" viewBox="0 0 17 17" fill="none" xmlns="http://www.w3.org/2000/svg">
<path d="M6.5 6.06201H11.1667C11.5 6.06201 11.8333 6.32764 11.8333 6.72868C11.8333 7.06201 11.5755 7.39535 11.1667 7.39534H6.51302C6.09865 7.39535 5.83333 7.06201 5.83333 6.72868C5.83333 6.32764 6.16667 6.06201 6.5 6.06201Z" fill="black"/>
<path d="M6.5 8.72868H9.15885C9.57031 8.72868 9.83333 9.06201 9.83333 9.39535C9.83333 9.72868 9.57031 10.062 9.16667 10.062H6.5C6.16667 10.062 5.83333 9.79653 5.83333 9.39535C5.83333 8.99416 6.16667 8.72868 6.5 8.72868Z" fill="black"/>
<path d="M2.76088 13.8836L3.46384 12.8777C2.32857 11.711 1.60305 10.1638 1.51107 8.45342C1.50372 8.32386 1.5 8.19335 1.5 8.06201C1.5 4.19602 4.72439 1.06201 8.70189 1.06201C8.72413 1.06201 8.74635 1.06211 8.76854 1.06231C8.79012 1.06211 8.81171 1.06201 8.83333 1.06201C10.574 1.06201 12.1663 1.69737 13.391 2.74883C14.3416 3.54217 15.0769 4.5724 15.5 5.74532C15.5145 5.78564 15.8333 7.10668 15.8333 8.06201C15.8333 11.645 13.1413 14.5993 9.66957 15.0126L9.66791 15.0128C9.39425 15.0453 9.11574 15.062 8.83333 15.062L8.69835 15.0617C8.56267 15.0614 8.38169 15.0609 8.3441 15.0617C8.33953 15.0618 8.33708 15.062 8.33708 15.062H3.40299C2.77997 15.062 2.41082 14.3845 2.76088 13.8836ZM8.3408 13.7283C8.35765 13.7281 8.37817 13.728 8.39845 13.728C8.44025 13.7279 8.49549 13.728 8.55174 13.7281L8.83333 13.7287C11.9629 13.7287 14.5 11.1916 14.5 8.06201C14.5 7.70427 14.4372 7.22782 14.3597 6.79581C14.3225 6.58852 14.285 6.40744 14.2563 6.27777C14.2435 6.21991 14.2328 6.17374 14.2251 6.14142C13.8818 5.22135 13.2962 4.40641 12.5367 3.77253L12.5295 3.76654L12.5224 3.76045C11.5304 2.90871 10.2435 2.39535 8.83333 2.39535C8.81574 2.39535 8.79817 2.39542 8.78063 2.39558L8.76871 2.39569L8.75679 2.39559C8.73852 2.39543 8.72021 2.39535 8.70189 2.39535C5.42478 2.39535 2.83333 4.96788 2.83333 8.06201C2.83333 8.16816 2.83634 8.27349 2.84226 8.37793L2.84248 8.38181C2.91624 9.7534 3.49725 11.0002 4.41943 11.9479L5.18819 12.7379L4.49581 13.7287H8.3143C8.32535 13.7284 8.33506 13.7283 8.3408 13.7283ZM14.2152 6.10117L14.216 6.10405C14.2116 6.08819 14.2109 6.08427 14.2152 6.10117Z" fill="black"/>
</svg>
