<svg width="16" height="16" viewBox="0 0 16 16" fill="none" xmlns="http://www.w3.org/2000/svg">
<path d="M1.84673 9.2077L2.35761 9.25189C2.33398 9.52552 2.09898 9.73183 1.82467 9.72002C1.5503 9.7082 1.33398 9.48227 1.33398 9.2077H1.84673ZM13.6314 7.96114L13.149 5.1717L14.1597 4.99695L14.642 7.78639L13.6314 7.96114ZM8.85148 1.67595H5.67311V0.650391H8.85148V1.67595ZM5.04998 2.24864L4.49467 8.67058L3.47292 8.5822L4.02817 2.16027L5.04998 2.24864ZM13.149 5.1717C12.8025 3.16802 10.9958 1.67595 8.85148 1.67595V0.650391C11.4675 0.650391 13.7235 2.4752 14.1597 4.99695L13.149 5.1717ZM8.85817 12.7179L8.40505 9.95258L9.41717 9.78683L9.8703 12.5521L8.85817 12.7179ZM4.70998 9.19989L5.69367 10.0476L5.02417 10.8245L4.04048 9.97683L4.70998 9.19989ZM7.48336 12.8055L7.80861 14.0594L6.81586 14.3169L6.49061 13.0631L7.48336 12.8055ZM8.29986 14.3054L8.39898 14.2735L8.71267 15.25L8.61355 15.2818L8.29986 14.3054ZM6.99073 11.5448C7.20398 11.9441 7.36961 12.367 7.48336 12.8055L6.49061 13.0631C6.39742 12.7036 6.26155 12.3565 6.08611 12.028L6.99073 11.5448ZM8.39898 14.2735C8.60848 14.2063 8.75724 14.0444 8.80611 13.8559L9.79892 14.1134C9.65836 14.6549 9.24392 15.0793 8.71267 15.25L8.39898 14.2735ZM7.80861 14.0594C7.83261 14.1516 7.89923 14.2365 8.00011 14.2851L7.55486 15.209C7.19111 15.0338 6.91786 14.7103 6.81586 14.3169L7.80861 14.0594ZM8.00011 14.2851C8.09217 14.3295 8.20061 14.3372 8.29986 14.3054L8.61355 15.2818C8.26505 15.3938 7.8848 15.368 7.55486 15.209L8.00011 14.2851ZM9.47273 8.69489H13.0152V9.72045H9.47273V8.69489ZM3.02192 1.5692L2.35761 9.25189L1.33586 9.16352L2.00017 1.48089L3.02192 1.5692ZM2.35955 1.49633V9.2077H1.33398V1.49633H2.35955ZM2.00017 1.48089C1.99117 1.5852 2.07336 1.67595 2.17955 1.67595V0.650391C2.67586 0.650391 3.06461 1.0757 3.02192 1.5692L2.00017 1.48089ZM9.8703 12.5521C9.95542 13.0718 9.93111 13.6036 9.79892 14.1134L8.80611 13.8559C8.90255 13.4844 8.92023 13.0968 8.85817 12.7179L9.8703 12.5521ZM5.67311 1.67595C5.34905 1.67595 5.07805 1.9242 5.04998 2.24864L4.02817 2.16027C4.10198 1.30658 4.81592 0.650391 5.67311 0.650391V1.67595ZM5.69367 10.0476C6.15848 10.4481 6.65961 10.9248 6.99073 11.5448L6.08611 12.028C5.8493 11.5846 5.47217 11.2105 5.02417 10.8245L5.69367 10.0476ZM14.642 7.78639C14.8166 8.79589 14.0403 9.72045 13.0152 9.72045V8.69489C13.4025 8.69489 13.6978 8.34502 13.6314 7.96114L14.642 7.78639ZM2.17955 1.67595C2.27948 1.67595 2.35955 1.59502 2.35955 1.49633H1.33398C1.33398 1.0297 1.71198 0.650391 2.17955 0.650391V1.67595ZM8.40505 9.95258C8.29723 9.29427 8.80467 8.69489 9.47273 8.69489V9.72045C9.43867 9.72045 9.41136 9.75139 9.41717 9.78683L8.40505 9.95258ZM4.49467 8.67058C4.4773 8.87158 4.55755 9.06852 4.70998 9.19989L4.04048 9.97683C3.63823 9.63014 3.42717 9.1112 3.47292 8.5822L4.49467 8.67058Z" fill="black"/>
</svg>
