<svg width="16" height="16" viewBox="0 0 16 16" fill="none" xmlns="http://www.w3.org/2000/svg">
<path d="M1.75 8C1.75 9.6576 2.40848 11.2473 3.58058 12.4194C4.75268 13.5915 6.3424 14.25 8 14.25C9.6576 14.25 11.2473 13.5915 12.4194 12.4194C13.5915 11.2473 14.25 9.6576 14.25 8C14.25 6.3424 13.5915 4.75268 12.4194 3.58058C11.2473 2.40848 9.6576 1.75 8 1.75C6.3424 1.75 4.75268 2.40848 3.58058 3.58058C2.40848 4.75268 1.75 6.3424 1.75 8Z" stroke="black"/>
<path d="M6.82812 6.04688C6.82812 5.39967 7.35281 4.875 8 4.875C8.64719 4.875 9.17188 5.39967 9.17188 6.04688C9.17188 6.47653 8.94062 6.85219 8.59587 7.05619C8.29875 7.23194 8 7.49856 8 7.84375V8.625" stroke="black" stroke-linecap="round"/>
<path d="M7.375 10.5C7.375 10.6658 7.44085 10.8247 7.55806 10.9419C7.67527 11.0592 7.83424 11.125 8 11.125C8.16576 11.125 8.32473 11.0592 8.44194 10.9419C8.55915 10.8247 8.625 10.6658 8.625 10.5C8.625 10.3342 8.55915 10.1753 8.44194 10.0581C8.32473 9.94085 8.16576 9.875 8 9.875C7.83424 9.875 7.67527 9.94085 7.55806 10.0581C7.44085 10.1753 7.375 10.3342 7.375 10.5Z" fill="black"/>
</svg>
