<svg width="16" height="16" viewBox="0 0 16 16" fill="none" xmlns="http://www.w3.org/2000/svg">
<g clip-path="url(#clip0_4912_80381)">
<path d="M2.44453 7.99973C2.44453 5.38094 2.44453 4.0716 3.25805 3.25803C4.07162 2.44452 5.38096 2.44452 7.99975 2.44452C10.6185 2.44452 11.9279 2.44452 12.7414 3.25803C13.555 4.0716 13.555 5.38094 13.555 7.99973C13.555 10.6185 13.555 11.9279 12.7414 12.7414C11.9279 13.5549 10.6185 13.5549 7.99975 13.5549C5.38096 13.5549 4.07162 13.5549 3.25805 12.7414C2.44453 11.9279 2.44453 10.6185 2.44453 7.99973Z" stroke="black"/>
<path d="M9.11211 5.77811C9.11028 6.63337 10.035 7.16992 10.7766 6.74387C11.1223 6.54526 11.3351 6.17674 11.3342 5.77811C11.336 4.9228 10.4113 4.3863 9.66969 4.81235C9.32402 5.01091 9.11125 5.37948 9.11211 5.77811Z" fill="black" stroke="black" stroke-width="0.2"/>
<path d="M2.44453 8.27756L3.41755 7.42616C3.92379 6.98325 4.68678 7.00864 5.1624 7.48425L7.54546 9.86732C7.92718 10.2491 8.52818 10.3011 8.96993 9.99066L9.13557 9.87427C9.7712 9.42755 10.6312 9.4793 11.2087 9.99904L12.9995 11.6107" stroke="black" stroke-linecap="round"/>
</g>
<defs>
<clipPath id="clip0_4912_80381">
<rect width="13" height="13" fill="white" transform="translate(1.5 1.5)"/>
</clipPath>
</defs>
</svg>
