<svg width="16" height="16" viewBox="0 0 16 16" fill="none" xmlns="http://www.w3.org/2000/svg">
<g clip-path="url(#clip0_3551_49504)">
<path d="M2.01758 8.00012C2.01758 5.17988 2.01758 3.76982 2.89367 2.89367C3.76982 2.01758 5.17988 2.01758 8.00012 2.01758C10.8203 2.01758 12.2304 2.01758 13.1065 2.89367C13.9827 3.76982 13.9827 5.17988 13.9827 8.00012C13.9827 10.8203 13.9827 12.2304 13.1065 13.1065C12.2305 13.9827 10.8203 13.9827 8.00012 13.9827C5.17988 13.9827 3.76982 13.9827 2.89367 13.1065C2.01758 12.2305 2.01758 10.8203 2.01758 8.00012Z" stroke="black"/>
<path d="M9.19727 5.60711C9.1953 6.52816 10.1912 7.10599 10.9898 6.64716C11.3621 6.43328 11.5912 6.03641 11.5903 5.60711C11.5923 4.68601 10.5964 4.10824 9.79774 4.56707C9.42548 4.78089 9.19634 5.17782 9.19727 5.60711Z" fill="black" stroke="black" stroke-width="0.2"/>
<path d="M2.01758 8.29931L3.06545 7.38242C3.61063 6.90544 4.43231 6.93278 4.94451 7.44498L7.51088 10.0114C7.92197 10.4225 8.5692 10.4786 9.04492 10.1442L9.22331 10.0189C9.90784 9.53777 10.834 9.59349 11.4559 10.1532L13.3844 11.8888" stroke="black" stroke-linecap="round"/>
</g>
<defs>
<clipPath id="clip0_3551_49504">
<rect width="14" height="14" fill="white" transform="translate(1 1)"/>
</clipPath>
</defs>
</svg>
