<svg width="18" height="18" viewBox="0 0 18 18" fill="none" xmlns="http://www.w3.org/2000/svg">
<rect width="18" height="18" rx="6" fill="url(#paint0_linear_3154_1297)" fill-opacity="0.08"/>
<path d="M9.06641 10.3512L9.92804 12.6047C10.0221 12.8506 10.2976 12.9737 10.5435 12.8797C10.7894 12.7857 10.9125 12.5101 10.8185 12.2643L8.2445 5.53232C8.01837 4.9409 7.18168 4.9409 6.95555 5.53232L4.38157 12.2643C4.28756 12.5101 4.41067 12.7857 4.65656 12.8797C4.90245 12.9737 5.17799 12.8506 5.27201 12.6047L6.13364 10.3512H9.06641ZM6.49813 9.39792L7.60002 6.51606L8.70192 9.39792H6.49813Z" fill="#9D46F3" stroke="#9D46F3" stroke-width="0.1"/>
<rect x="12.3" y="5.10001" width="1" height="7.8" rx="0.5" fill="#9D46F3"/>
<defs>
<linearGradient id="paint0_linear_3154_1297" x1="-5.28572" y1="16.9984" x2="16.2306" y2="3.99301" gradientUnits="userSpaceOnUse">
<stop stop-color="#665CE5"/>
<stop offset="1" stop-color="#F03EFF"/>
</linearGradient>
</defs>
</svg>
