<svg width="17" height="16" viewBox="0 0 17 16" fill="none" xmlns="http://www.w3.org/2000/svg">
<path d="M6.27221 14.1865C6.40487 14.1865 6.53208 14.1338 6.62586 14.04L14.5247 6.13678C14.7198 5.94154 14.7198 5.62512 14.5247 5.42987L12.4109 3.3148C12.2156 3.1194 11.8989 3.1194 11.7036 3.31479L3.80504 11.2177C3.71133 11.3115 3.65869 11.4386 3.65869 11.5712V13.6865C3.65869 13.9627 3.88255 14.1865 4.15869 14.1865H6.27221Z" stroke="#1F2329"/>
<path d="M10.0376 4.97949L12.8583 7.80188" stroke="#1F2329"/>
<path d="M6.44835 1.52132C6.48728 1.42647 6.62028 1.42649 6.65918 1.52136L6.70994 1.64515C6.78714 1.83341 6.93517 1.983 7.1215 2.06101L7.24319 2.11196C7.3371 2.15129 7.33708 2.2857 7.24315 2.32499L7.12064 2.37624C6.93411 2.45426 6.78593 2.60399 6.70873 2.79245L6.65864 2.91471C6.61975 3.00967 6.48662 3.00964 6.44775 2.91468L6.39732 2.79145C6.32013 2.60284 6.17185 2.45299 5.98519 2.37494L5.86382 2.3242C5.76986 2.28492 5.76984 2.15047 5.86378 2.11115L5.98633 2.05987C6.17263 1.9819 6.32067 1.83239 6.39791 1.6442L6.44835 1.52132Z" fill="#1F2329"/>
<path d="M4.18739 2.01949C4.28856 1.77289 4.63432 1.77295 4.73541 2.01958L4.93384 2.5037C5.18456 3.1154 5.66544 3.60147 6.27078 3.85504L6.75028 4.05591C6.99433 4.15814 6.99427 4.50742 6.75019 4.60957L6.27096 4.81012C5.665 5.06371 5.18365 5.55024 4.93291 6.16257L4.73526 6.64525C4.63418 6.8921 4.28808 6.89204 4.18708 6.64516L3.98871 6.16024C3.73801 5.54741 3.25636 5.06048 2.64994 4.80683L2.1724 4.60708C1.92826 4.50496 1.9282 4.15559 2.17231 4.05338L2.65258 3.85229C3.25783 3.59888 3.73873 3.11305 3.9896 2.50158L4.18739 2.01949Z" fill="#1F2329"/>
</svg>
