<svg width="16" height="16" viewBox="0 0 16 16" fill="none" xmlns="http://www.w3.org/2000/svg">
<path d="M1.8468 6.79307L2.35767 6.74888C2.33405 6.47532 2.09905 6.26888 1.82467 6.28076C1.55036 6.29257 1.33398 6.51844 1.33398 6.79307H1.8468ZM13.6315 8.03963L13.1491 10.829L14.1597 11.0038L14.6421 8.21438L13.6315 8.03963ZM8.85155 14.3248H5.67317V15.3504H8.85155V14.3248ZM5.05005 13.7522L4.49473 7.33019L3.47298 7.41851L4.02823 13.8405L5.05005 13.7522ZM13.1491 10.829C12.8026 12.8327 10.9959 14.3248 8.85155 14.3248V15.3504C11.4676 15.3504 13.7236 13.5255 14.1597 11.0038L13.1491 10.829ZM8.85823 3.28282L8.40511 6.04819L9.41723 6.21401L9.87036 3.44863L8.85823 3.28282ZM4.71005 6.80088L5.69373 5.95319L5.02423 5.17632L4.04055 6.02394L4.71005 6.80088ZM7.48342 3.19526L7.80867 1.94138L6.81598 1.68388L6.49067 2.93769L7.48342 3.19526ZM8.29992 1.69538L8.39905 1.72726L8.71273 0.750819L8.61361 0.718944L8.29992 1.69538ZM6.9908 4.45594C7.20405 4.05669 7.36973 3.63369 7.48342 3.19526L6.49067 2.93769C6.39748 3.29713 6.26161 3.64432 6.08617 3.97276L6.9908 4.45594ZM8.39905 1.72726C8.60855 1.79451 8.75724 1.95632 8.80617 2.14488L9.79898 1.88738C9.65848 1.34588 9.24398 0.921444 8.71273 0.750819L8.39905 1.72726ZM7.80867 1.94138C7.83267 1.84907 7.8993 1.76426 8.00017 1.71563L7.55492 0.791757C7.19117 0.967007 6.91798 1.29051 6.81598 1.68388L7.80867 1.94138ZM8.00017 1.71563C8.0923 1.67126 8.20073 1.66351 8.29992 1.69538L8.61361 0.718944C8.26511 0.607007 7.88492 0.632757 7.55492 0.791757L8.00017 1.71563ZM9.47286 7.30588H13.0152V6.28026H9.47286V7.30588ZM3.02198 14.4315L2.35767 6.74888L1.33592 6.83726L2.00023 14.5199L3.02198 14.4315ZM2.35961 14.5044V6.79307H1.33398L1.33405 14.5044H2.35961ZM2.00023 14.5199C1.99123 14.4156 2.07342 14.3248 2.17961 14.3248V15.3504C2.67592 15.3504 3.06467 14.925 3.02198 14.4315L2.00023 14.5199ZM9.87036 3.44863C9.95548 2.92894 9.93117 2.39713 9.79898 1.88738L8.80617 2.14488C8.90261 2.51644 8.9203 2.90401 8.85823 3.28282L9.87036 3.44863ZM5.67317 14.3248C5.34911 14.3248 5.07811 14.0766 5.05005 13.7522L4.02823 13.8405C4.10205 14.6941 4.81598 15.3504 5.67317 15.3504V14.3248ZM5.69373 5.95319C6.15855 5.55263 6.65967 5.07588 6.9908 4.45594L6.08617 3.97276C5.84936 4.41607 5.47223 4.79026 5.02423 5.17632L5.69373 5.95319ZM14.6421 8.21438C14.8167 7.20488 14.0404 6.28026 13.0152 6.28026V7.30588C13.4027 7.30588 13.6979 7.65569 13.6315 8.03963L14.6421 8.21438ZM2.17961 14.3248C2.27955 14.3248 2.35961 14.4058 2.35961 14.5044H1.33405C1.33405 14.9711 1.71205 15.3504 2.17961 15.3504V14.3248ZM8.40511 6.04819C8.2973 6.70657 8.8048 7.30588 9.47286 7.30588V6.28026C9.43873 6.28026 9.41142 6.24938 9.41723 6.21401L8.40511 6.04819ZM4.49473 7.33019C4.47736 7.12919 4.55761 6.93226 4.71005 6.80088L4.04055 6.02394C3.6383 6.37057 3.42723 6.88951 3.47298 7.41851L4.49473 7.33019Z" fill="black"/>
</svg>
