<svg width="16" height="16" viewBox="0 0 16 16" fill="none" xmlns="http://www.w3.org/2000/svg">
<path d="M4.00504 11.7381C3.87137 11.7381 3.75931 11.6939 3.66887 11.6054C3.57843 11.517 3.5332 11.4074 3.5332 11.2766C3.5332 11.1458 3.57843 11.0338 3.66887 10.9406C3.75931 10.8475 3.87137 10.8009 4.00504 10.8009H8.0332C8.15598 10.8009 8.25887 10.8427 8.34187 10.9263C8.42498 11.0099 8.46654 11.1135 8.46654 11.2371C8.46654 11.3589 8.42504 11.4621 8.34204 11.5469C8.25915 11.6316 8.15831 11.6739 8.03954 11.6739L4.00504 11.7381ZM3.97137 9.37659C3.8487 9.37659 3.74504 9.33537 3.66037 9.25292C3.57559 9.17048 3.5332 9.06837 3.5332 8.94659C3.5332 8.8247 3.5747 8.72142 3.6577 8.63675C3.7407 8.5522 3.84354 8.50992 3.9662 8.50992H12.0284C12.151 8.50992 12.2547 8.55114 12.3394 8.63359C12.4241 8.71603 12.4665 8.81814 12.4665 8.93992C12.4665 9.06181 12.425 9.16503 12.342 9.24959C12.259 9.33426 12.1562 9.37659 12.0335 9.37659H3.97137ZM3.97137 7.09192C3.8487 7.09192 3.74504 7.0507 3.66037 6.96825C3.57559 6.88581 3.5332 6.7837 3.5332 6.66192C3.5332 6.54003 3.5747 6.43681 3.6577 6.35226C3.7407 6.26759 3.84354 6.22526 3.9662 6.22526H12.0284C12.151 6.22526 12.2547 6.26648 12.3394 6.34892C12.4241 6.43137 12.4665 6.53348 12.4665 6.65526C12.4665 6.77714 12.425 6.88042 12.342 6.96509C12.259 7.04964 12.1562 7.09192 12.0335 7.09192H3.97137ZM4.00987 4.80092C3.87631 4.80092 3.76348 4.75603 3.67137 4.66625C3.57926 4.57648 3.5332 4.46526 3.5332 4.33259C3.5332 4.19992 3.57837 4.08753 3.6687 3.99542C3.75915 3.90342 3.87115 3.85742 4.0047 3.85742H11.9899C12.1234 3.85742 12.2363 3.90226 12.3284 3.99192C12.4205 4.0817 12.4665 4.19292 12.4665 4.32559C12.4665 4.45825 12.4214 4.57064 12.331 4.66276C12.2406 4.75487 12.1286 4.80092 11.995 4.80092H4.00987Z" fill="black"/>
</svg>
