<svg width="16" height="16" viewBox="0 0 16 16" fill="none" xmlns="http://www.w3.org/2000/svg">
<path d="M3.96654 9.83268C3.84376 9.83268 3.74087 9.79146 3.65787 9.70902C3.57476 9.62657 3.5332 9.52446 3.5332 9.40268C3.5332 9.28079 3.57476 9.17757 3.65787 9.09302C3.74087 9.00835 3.84376 8.96602 3.96654 8.96602H8.8332C8.95598 8.96602 9.05887 9.00724 9.14187 9.08968C9.22498 9.17213 9.26654 9.27424 9.26654 9.39602C9.26654 9.5179 9.22498 9.62113 9.14187 9.70568C9.05887 9.79035 8.95598 9.83268 8.8332 9.83268H3.96654ZM3.97137 7.03268C3.8487 7.03268 3.74504 6.99146 3.66037 6.90902C3.57559 6.82657 3.5332 6.72446 3.5332 6.60268C3.5332 6.48079 3.5747 6.37757 3.6577 6.29302C3.7407 6.20835 3.84354 6.16602 3.9662 6.16602H12.0284C12.151 6.16602 12.2547 6.20724 12.3394 6.28968C12.4241 6.37213 12.4665 6.47424 12.4665 6.59602C12.4665 6.7179 12.425 6.82113 12.342 6.90568C12.259 6.99035 12.1562 7.03268 12.0335 7.03268H3.97137Z" fill="black"/>
</svg>
