<svg width="16" height="16" viewBox="0 0 16 16" fill="none" xmlns="http://www.w3.org/2000/svg">
<path d="M7.93913 2.16989C6.3343 2.16989 4.96504 2.73674 3.83136 3.87042C2.69767 5.00411 2.13083 6.37336 2.13083 7.97819C2.13083 8.98158 2.36243 9.90038 2.82562 10.7346C3.28881 11.5687 3.91116 12.2337 4.69267 12.7297V11.7547C4.69267 11.592 4.74729 11.4556 4.85654 11.3455C4.96578 11.2355 5.10109 11.1805 5.26245 11.1805C5.42397 11.1805 5.56075 11.2355 5.67279 11.3455C5.78498 11.4556 5.84107 11.592 5.84107 11.7547V14.2688C5.84107 14.4701 5.77305 14.6387 5.63701 14.7748C5.50082 14.911 5.33217 14.9791 5.13105 14.9791H2.6167C2.454 14.9791 2.31767 14.9244 2.20769 14.8152C2.09756 14.706 2.04249 14.5706 2.04249 14.4093C2.04249 14.2478 2.09756 14.111 2.20769 13.9989C2.31767 13.8868 2.454 13.8307 2.6167 13.8307H4.23397C3.25782 13.227 2.47182 12.4136 1.87597 11.3905C1.28027 10.3675 0.982422 9.23747 0.982422 8.00028C0.982422 7.04621 1.16624 6.14449 1.53388 5.29511C1.90152 4.44558 2.40144 3.70479 3.03366 3.07272C3.66572 2.44051 4.40659 1.94058 5.25627 1.57294C6.10595 1.2053 7.00885 1.02148 7.96497 1.02148C9.43537 1.02148 10.7524 1.42902 11.9162 2.2441C13.08 3.05903 13.9181 4.10629 14.4303 5.38588C14.496 5.53355 14.4963 5.6785 14.4312 5.82073C14.366 5.96296 14.2614 6.06727 14.1176 6.13367C13.9737 6.20022 13.8305 6.19926 13.6878 6.1308C13.5453 6.06219 13.4411 5.95596 13.3753 5.81212C12.9541 4.74645 12.2553 3.873 11.279 3.19176C10.3027 2.51051 9.18942 2.16989 7.93913 2.16989Z" fill="black"/>
<path d="M8.65266 14.3423L11.2145 7.60975C11.2591 7.50867 11.3193 7.43207 11.3949 7.37995C11.4705 7.32782 11.5567 7.30176 11.6533 7.30176H12.0177C12.1204 7.30176 12.2098 7.32913 12.2859 7.38389C12.3619 7.43864 12.4223 7.51655 12.4669 7.61763L14.9796 14.3309C15.0412 14.4879 15.0306 14.635 14.9476 14.7725C14.8647 14.9099 14.7339 14.9786 14.5554 14.9786C14.4458 14.9786 14.35 14.9513 14.268 14.8967C14.1861 14.842 14.126 14.764 14.0876 14.6628L13.4639 12.9301H10.1671L9.53286 14.6756C9.50203 14.7629 9.44686 14.8352 9.36736 14.8926C9.28786 14.9499 9.19591 14.9786 9.09152 14.9786C8.91468 14.9786 8.78263 14.9106 8.69539 14.7745C8.60814 14.6384 8.5939 14.4943 8.65266 14.3423ZM10.4678 12.0719H13.1609L11.8817 8.49181H11.8095L10.4678 12.0719Z" fill="black"/>
</svg>
