<svg width="19" height="18" viewBox="0 0 19 18" fill="none" xmlns="http://www.w3.org/2000/svg">
<path fill-rule="evenodd" clip-rule="evenodd" d="M9.87687 3.99L11.0019 4.5L10.4919 3.375L11.0019 2.25L9.87687 2.76L8.75187 2.25L9.26188 3.375L8.75187 4.5L9.87687 3.99ZM14.6619 4.47L16.2519 3.75L15.5319 5.34L16.2519 6.93L14.6619 6.21L13.0719 6.93L13.7919 5.34L13.0719 3.75L14.6619 4.47ZM8.87937 6.6225C9.70437 5.79 11.0469 5.79 11.8794 6.6225C12.7119 7.4475 12.7119 8.79 11.8794 9.6225L6.37437 15.1275C5.54938 15.96 4.20687 15.96 3.37437 15.1275C2.54187 14.3025 2.54187 12.96 3.37437 12.1275L8.87937 6.6225ZM9.32938 10.5825L11.0919 8.82C11.4819 8.43 11.4819 7.8 11.0919 7.41C10.7019 7.02 10.0719 7.02 9.68188 7.41L7.91937 9.1725C7.52938 9.5625 7.52938 10.1925 7.91937 10.5825C8.30937 10.9725 8.93937 10.9725 9.32938 10.5825ZM11.7519 11.25L14.0019 12.27L16.2519 11.25L15.2319 13.5L16.2519 15.75L14.0019 14.73L11.7519 15.75L12.7719 13.5L11.7519 11.25Z" fill="#750D7E"/>
</svg>
