<svg width="17" height="16" viewBox="0 0 17 16" fill="none" xmlns="http://www.w3.org/2000/svg">
<path d="M13.5491 4.17206C13.3043 3.65812 12.892 3.24292 12.3798 2.99709C12.8922 2.75182 13.3049 2.33713 13.5502 1.82359C13.7949 2.33773 14.2073 2.7531 14.7196 2.99902C14.2072 3.24416 13.7945 3.6587 13.5491 4.17206ZM7.8553 2.67116C7.94884 2.44317 8.26264 2.44322 8.35611 2.67125L8.87245 3.93101C9.57472 5.64439 10.9224 7.00747 12.6208 7.71895L13.8686 8.24163C14.0945 8.33625 14.0944 8.66539 13.8685 8.75993L12.6215 9.28181C10.9213 9.99333 9.57229 11.3577 8.86997 13.0729L8.35566 14.3289C8.2622 14.5571 7.94808 14.557 7.8547 14.3288L7.33851 13.0669C6.6363 11.3504 5.28646 9.9849 3.58499 9.2732L2.34236 8.75342L2.14941 9.2147L2.34236 8.75342C2.1164 8.65891 2.11633 8.32969 2.34227 8.23509L3.59203 7.71183C5.29021 7.00081 6.63792 5.6384 7.34062 3.92565L7.8553 2.67116Z" stroke="#1F2329"/>
<circle cx="13.5825" cy="2.9375" r="0.5" fill="#1F2329"/>
</svg>
