<svg width="16" height="16" viewBox="0 0 16 16" fill="none" xmlns="http://www.w3.org/2000/svg">
<g clip-path="url(#clip0_41_59)">
<path d="M9.36746 14.3244H6.63259V15.35H9.36746V14.3244ZM1.67559 9.36744V6.63256H0.650025V9.36744H1.67559ZM14.3244 9.06863V9.36744H15.35V9.06863H14.3244ZM9.97678 2.94813L12.6835 5.38413L13.3695 4.62181L10.6629 2.18581L9.97678 2.94813ZM15.35 9.06863C15.35 7.91419 15.3603 7.18331 15.069 6.52931L14.1322 6.94656C14.3141 7.35494 14.3244 7.82363 14.3244 9.06863H15.35ZM12.6835 5.38413C13.6088 6.21694 13.9503 6.53819 14.1322 6.94656L15.069 6.52931C14.7778 5.87531 14.2276 5.39406 13.3695 4.62181L12.6835 5.38413ZM6.65296 1.67563C7.73446 1.67563 8.14259 1.68356 8.50628 1.82313L8.87371 0.865626C8.29134 0.642126 7.65677 0.650063 6.65296 0.650063V1.67563ZM10.6629 2.18581C9.92034 1.5175 9.45615 1.08906 8.87371 0.865626L8.50628 1.82313C8.87015 1.96275 9.17703 2.22838 9.97678 2.94813L10.6629 2.18581ZM6.63259 14.3244C5.32884 14.3244 4.40265 14.3233 3.69996 14.2288C3.01209 14.1364 2.61577 13.9629 2.32646 13.6736L1.60121 14.3988C2.1129 14.9104 2.76171 15.1375 3.56334 15.2453C4.35021 15.3511 5.35784 15.35 6.63259 15.35V14.3244ZM0.650025 9.36744C0.650025 10.6422 0.648962 11.6498 0.754712 12.4367C0.862525 13.2383 1.08952 13.8871 1.60121 14.3988L2.32646 13.6736C2.03709 13.3843 1.86365 12.9879 1.77115 12.3001C1.67671 11.5974 1.67559 10.6712 1.67559 9.36744H0.650025ZM9.36746 15.35C10.6421 15.35 11.6498 15.3511 12.4366 15.2453C13.2383 15.1375 13.8871 14.9104 14.3988 14.3988L13.6736 13.6736C13.3842 13.9629 12.9879 14.1364 12.3 14.2288C11.5974 14.3233 10.6711 14.3244 9.36746 14.3244V15.35ZM14.3244 9.36744C14.3244 10.6712 14.3233 11.5974 14.2288 12.3001C14.1364 12.9879 13.9629 13.3843 13.6736 13.6736L14.3988 14.3988C14.9104 13.8871 15.1375 13.2383 15.2453 12.4367C15.3511 11.6498 15.35 10.6422 15.35 9.36744H14.3244ZM1.67559 6.63256C1.67559 5.32888 1.67671 4.40263 1.77115 3.7C1.86365 3.01213 2.03709 2.61581 2.32646 2.32644L1.60121 1.60125C1.08959 2.11294 0.862525 2.76175 0.754712 3.56338C0.648962 4.35019 0.650025 5.35781 0.650025 6.63256H1.67559ZM6.65296 0.650063C5.37134 0.650063 4.35877 0.648938 3.56871 0.754688C2.76427 0.862376 2.11327 1.08919 1.60121 1.60125L2.32646 2.32644C2.6154 2.0375 3.0129 1.86381 3.70477 1.77119C4.41096 1.67669 5.34246 1.67563 6.65296 1.67563V0.650063Z" fill="url(#paint0_linear_41_59)"/>
<path d="M8.68372 1.50469V3.214C8.68372 4.8255 8.68372 5.63131 9.18434 6.13194C9.68503 6.63256 10.4908 6.63256 12.1023 6.63256H14.8372" stroke="url(#paint1_linear_41_59)"/>
<path d="M5.36486 8.69913C5.62467 8.233 5.75461 8 5.94879 8C6.14298 8 6.27292 8.233 6.53273 8.69913L6.59998 8.81975C6.67373 8.95219 6.71067 9.01831 6.76823 9.06206C6.82579 9.10575 6.89748 9.122 7.04086 9.15438L7.17136 9.18394C7.67586 9.29812 7.92817 9.35512 7.98823 9.54819C8.04823 9.74119 7.87623 9.94225 7.53229 10.3445L7.44329 10.4486C7.34554 10.5628 7.29667 10.6199 7.27467 10.6906C7.25273 10.7614 7.26011 10.8376 7.27486 10.9901L7.28836 11.1289C7.34029 11.6656 7.36636 11.9339 7.20923 12.0532C7.05204 12.1724 6.81592 12.0637 6.34354 11.8462L6.22129 11.7899C6.08704 11.7281 6.01998 11.6973 5.94879 11.6973C5.87767 11.6973 5.81054 11.7281 5.67629 11.7899L5.55411 11.8462C5.08173 12.0637 4.84554 12.1724 4.68842 12.0532C4.53129 11.9339 4.55729 11.6656 4.60929 11.1289L4.62273 10.9901C4.63754 10.8376 4.64492 10.7614 4.62292 10.6906C4.60092 10.6199 4.55204 10.5628 4.45429 10.4486L4.36536 10.3445C4.02136 9.94225 3.84942 9.74119 3.90942 9.54819C3.96942 9.35512 4.22173 9.29812 4.72623 9.18394L4.85673 9.15438C5.00011 9.122 5.07179 9.10575 5.12936 9.06206C5.18692 9.01837 5.22386 8.95219 5.29767 8.81975L5.36486 8.69913Z" stroke="url(#paint2_linear_41_59)"/>
</g>
<defs>
<linearGradient id="paint0_linear_41_59" x1="8.00002" y1="0.650028" x2="8.00002" y2="15.35" gradientUnits="userSpaceOnUse">
<stop stop-color="#8032FF"/>
<stop offset="1" stop-color="#EF35FF"/>
</linearGradient>
<linearGradient id="paint1_linear_41_59" x1="11.7605" y1="1.50469" x2="11.7605" y2="6.63256" gradientUnits="userSpaceOnUse">
<stop stop-color="#8032FF"/>
<stop offset="1" stop-color="#EF35FF"/>
</linearGradient>
<linearGradient id="paint2_linear_41_59" x1="5.94882" y1="8" x2="5.94882" y2="12.1023" gradientUnits="userSpaceOnUse">
<stop stop-color="#8032FF"/>
<stop offset="1" stop-color="#EF35FF"/>
</linearGradient>
<clipPath id="clip0_41_59">
<rect width="16" height="16" fill="white"/>
</clipPath>
</defs>
</svg>



