<svg width="16" height="16" viewBox="0 0 16 16" fill="none" xmlns="http://www.w3.org/2000/svg">
<path d="M13.2756 1.18518C13.1733 0.938319 12.8237 0.93826 12.7213 1.18508L12.5887 1.50482C12.3856 1.99453 11.9964 2.38357 11.5066 2.58646L11.1845 2.71991C10.9375 2.82221 10.9376 3.17207 11.1846 3.27429L11.5037 3.40634C11.9944 3.60942 12.3842 3.99934 12.5871 4.49014L12.7197 4.8108C12.8219 5.05791 13.1719 5.05797 13.2742 4.8109L13.4059 4.49274C13.6088 4.00235 13.9984 3.61274 14.4888 3.40971L14.8109 3.27635C15.0578 3.17411 15.0579 2.82435 14.811 2.72202L14.491 2.58944C14.0012 2.38643 13.612 1.99719 13.409 1.5073L13.2756 1.18518ZM7.03777 1.53065C7.33105 0.823135 8.3333 0.823306 8.62633 1.53092L9.20152 2.91991C9.92828 4.67492 11.3222 6.06949 13.0769 6.79701L14.4669 7.37331C15.1743 7.66662 15.1741 8.66875 14.4666 8.96181L13.0774 9.53723C11.3209 10.2648 9.92565 11.6607 9.19883 13.4175L8.6259 14.8024C8.3329 15.5106 7.32966 15.5104 7.03689 14.8021L6.46187 13.4108C5.73517 11.6526 4.33898 10.2555 2.58115 9.52777L1.19689 8.95468C0.489187 8.66168 0.489017 7.6593 1.19662 7.36606L2.5888 6.78913C4.34324 6.06207 5.73723 4.66819 6.46444 2.91382L7.03777 1.53065ZM7.99301 3.46585C7.93083 3.33103 7.7326 3.33098 7.67035 3.46577C6.72861 5.50464 5.17868 7.05429 3.13202 7.99873C2.9972 8.06095 2.99723 8.25919 3.13206 8.32139C5.18189 9.267 6.72982 10.8225 7.67032 12.8649C7.73247 12.9998 7.93091 12.9999 7.99313 12.8649C8.93402 10.8247 10.4843 9.27314 12.532 8.32853C12.6668 8.26635 12.6668 8.06817 12.532 8.00594C10.4909 7.06352 8.93832 5.51531 7.99301 3.46585Z" fill="black"/>
</svg>
