<svg width="16" height="16" viewBox="0 0 16 16" fill="none" xmlns="http://www.w3.org/2000/svg">
<path d="M5.39559 5.93492C5.54326 5.93492 5.67009 5.88314 5.77609 5.77959C5.88198 5.67592 5.93492 5.55026 5.93492 5.40259C5.93492 5.25492 5.88314 5.12809 5.77959 5.02209C5.67592 4.9162 5.55026 4.86326 5.40259 4.86326C5.25492 4.86326 5.12809 4.91503 5.02209 5.01859C4.9162 5.12226 4.86326 5.24792 4.86326 5.39559C4.86326 5.54326 4.91503 5.67009 5.01859 5.77609C5.12226 5.88198 5.24792 5.93492 5.39559 5.93492ZM5.39559 8.53492C5.54326 8.53492 5.67009 8.48314 5.77609 8.37959C5.88198 8.27592 5.93492 8.15026 5.93492 8.00259C5.93492 7.85492 5.88314 7.72809 5.77959 7.62209C5.67592 7.5162 5.55026 7.46325 5.40259 7.46325C5.25492 7.46325 5.12809 7.51503 5.02209 7.61859C4.9162 7.72226 4.86326 7.84792 4.86326 7.99559C4.86326 8.14326 4.91503 8.27009 5.01859 8.37609C5.12226 8.48198 5.24792 8.53492 5.39559 8.53492ZM5.39559 11.1349C5.54326 11.1349 5.67009 11.0831 5.77609 10.9796C5.88198 10.8759 5.93492 10.7503 5.93492 10.6026C5.93492 10.4549 5.88314 10.3281 5.77959 10.2221C5.67592 10.1162 5.55026 10.0633 5.40259 10.0633C5.25492 10.0633 5.12809 10.115 5.02209 10.2186C4.9162 10.3223 4.86326 10.4479 4.86326 10.5956C4.86326 10.7433 4.91503 10.8701 5.01859 10.9761C5.12226 11.082 5.24792 11.1349 5.39559 11.1349ZM3.80426 13.2658C3.50414 13.2658 3.25048 13.1621 3.04326 12.9549C2.83603 12.7477 2.73242 12.494 2.73242 12.1939V3.80426C2.73242 3.50414 2.83603 3.25048 3.04326 3.04326C3.25048 2.83603 3.50414 2.73242 3.80426 2.73242H9.80926C9.95026 2.73242 10.0859 2.75809 10.2163 2.80942C10.3467 2.86064 10.4652 2.93959 10.5718 3.04626L12.9519 5.42642C13.0586 5.53298 13.1375 5.65148 13.1888 5.78192C13.2401 5.91225 13.2658 6.04792 13.2658 6.18892V12.1939C13.2658 12.494 13.1621 12.7477 12.9549 12.9549C12.7477 13.1621 12.494 13.2658 12.1939 13.2658H3.80426ZM3.80426 12.3991H12.1939C12.2538 12.3991 12.303 12.3799 12.3414 12.3414C12.3799 12.303 12.3991 12.2538 12.3991 12.1939V6.39909H10.1349C9.98203 6.39909 9.85453 6.34798 9.75242 6.24576C9.6502 6.14364 9.59909 6.01614 9.59909 5.86326V3.59909H3.80426C3.74437 3.59909 3.6952 3.61831 3.65676 3.65676C3.61831 3.6952 3.59909 3.74437 3.59909 3.80426V12.1939C3.59909 12.2538 3.61831 12.303 3.65676 12.3414C3.6952 12.3799 3.74437 12.3991 3.80426 12.3991Z" fill="black"/>
</svg>
