<svg xmlns="http://www.w3.org/2000/svg" fill="none" viewBox="0 0 16 16" id="Ai-Chip-Spark--Streamline-Core-Remix.svg" height="16" width="16"><desc>Ai Chip Spark Streamline Icon: https://streamlinehq.com</desc><g id="Free Remix/Artificial Intelligence/ai-chip-spark--chip-processor-artificial-intelligence-ai"><path id="Union" fill="#000000" fill-rule="evenodd" d="M5.730194285714285 3.2857142857142856H3.80952c-0.2892914285714286 0 -0.5238057142857143 0.2345142857142857 -0.5238057142857143 0.5238057142857143v8.380994285714285c0 0.2892571428571428 0.2345142857142857 0.5237714285714286 0.5238057142857143 0.5237714285714286h8.380994285714285c0.2892571428571428 0 0.5237714285714286 -0.2345142857142857 0.5237714285714286 -0.5237714285714286V3.80952c0 -0.2892914285714286 -0.2345142857142857 -0.5238057142857143 -0.5237714285714286 -0.5238057142857143H5.730194285714285Zm5.253897142857142 -1.4285714285714284v-1.1428571428571428c0 -0.3944891428571428 -0.3197942857142857 -0.7142857142857142 -0.7142857142857142 -0.7142857142857142 -0.39447999999999994 0 -0.7142857142857142 0.31979657142857143 -0.7142857142857142 0.7142857142857142v1.1428571428571428H6.4444799999999995v-1.1428571428571428c0 -0.3944891428571428 -0.3198057142857143 -0.7142857142857142 -0.7142857142857142 -0.7142857142857142 -0.39449142857142855 0 -0.7142857142857142 0.31979657142857143 -0.7142857142857142 0.7142857142857142v1.1428571428571428H3.80952c-1.078262857142857 0 -1.9523771428571426 0.8741142857142857 -1.9523771428571426 1.9523771428571426v1.2063885714285714h-1.1428571428571428c-0.3944891428571428 0 -0.7142857142857142 0.3197942857142857 -0.7142857142857142 0.7142857142857142 0 0.39447999999999994 0.31979657142857143 0.7142857142857142 0.7142857142857142 0.7142857142857142h1.1428571428571428v3.11104h-1.1428571428571428c-0.3944891428571428 0 -0.7142857142857142 0.3198057142857143 -0.7142857142857142 0.7142857142857142 0 0.39449142857142855 0.31979657142857143 0.7142857142857142 0.7142857142857142 0.7142857142857142h1.1428571428571428v1.206422857142857c0 1.0782857142857143 0.8741142857142857 1.952342857142857 1.9523771428571426 1.952342857142857h1.2063885714285714v1.1428571428571428c0 0.3945142857142857 0.3197942857142857 0.7142857142857142 0.7142857142857142 0.7142857142857142 0.39447999999999994 0 0.7142857142857142 -0.31977142857142854 0.7142857142857142 -0.7142857142857142v-1.1428571428571428h3.11104v1.1428571428571428c0 0.3945142857142857 0.3198057142857143 0.7142857142857142 0.7142857142857142 0.7142857142857142 0.39449142857142855 0 0.7142857142857142 -0.31977142857142854 0.7142857142857142 -0.7142857142857142v-1.1428571428571428h1.206422857142857c1.0782857142857143 0 1.952342857142857 -0.8740571428571429 1.952342857142857 -1.952342857142857V10.984091428571427h1.1428571428571428c0.3945142857142857 0 0.7142857142857142 -0.3197942857142857 0.7142857142857142 -0.7142857142857142 0 -0.39447999999999994 -0.31977142857142854 -0.7142857142857142 -0.7142857142857142 -0.7142857142857142h-1.1428571428571428V6.4444799999999995h1.1428571428571428c0.3945142857142857 0 0.7142857142857142 -0.3198057142857143 0.7142857142857142 -0.7142857142857142 0 -0.39449142857142855 -0.31977142857142854 -0.7142857142857142 -0.7142857142857142 -0.7142857142857142h-1.1428571428571428V3.80952c0 -1.078262857142857 -0.8740571428571429 -1.9523771428571426 -1.952342857142857 -1.9523771428571426H10.984091428571427ZM8.843817142857143 5.2543999999999995c-0.20528 -0.9151542857142857 -1.503062857142857 -0.9085371428571427 -1.70024 0.007394285714285714l-0.01904 0.08846857142857144c-0.20056 0.9316228571428571 -0.9331085714285714 1.6393714285714285 -1.8442742857142855 1.80056 -0.94512 0.16720000000000002 -0.9451085714285714 1.5311542857142857 0 1.6983542857142855 0.9111657142857142 0.16118857142857143 1.6437142857142857 0.8689371428571429 1.8442742857142855 1.8005714285714283l0.01904 0.08845714285714285c0.19717714285714283 0.9159657142857143 1.4949599999999998 0.9225942857142857 1.70024 0.007394285714285714l0.02312 -0.10308571428571428c0.20821714285714282 -0.9282742857142856 0.9417599999999999 -1.630925714285714 1.8515885714285711 -1.7918742857142855 0.9467314285714284 -0.1674857142857143 0.9467314285714284 -1.5337942857142857 0 -1.70128 -0.9098285714285714 -0.16094857142857144 -1.6433714285714285 -0.8636 -1.8515885714285711 -1.7918742857142855l-0.02312 -0.10308571428571428Z" clip-rule="evenodd" stroke-width="1"></path></g></svg>