<svg width="22" height="16" viewBox="0 0 22 16" fill="none" xmlns="http://www.w3.org/2000/svg">
<g clip-path="url(#clip0_3551_49505)">
<path d="M1.49414 7.99955C1.49414 5.38076 1.49414 4.07142 2.30766 3.25785C3.12122 2.44434 4.43057 2.44434 7.04935 2.44434C9.66809 2.44434 10.9775 2.44434 11.791 3.25785C12.6046 4.07142 12.6046 5.38076 12.6046 7.99955C12.6046 10.6183 12.6046 11.9277 11.791 12.7412C10.9775 13.5548 9.66809 13.5548 7.04935 13.5548C4.43057 13.5548 3.12122 13.5548 2.30766 12.7412C1.49414 11.9277 1.49414 10.6183 1.49414 7.99955Z" stroke="black"/>
<path d="M8.16211 5.77817C8.16028 6.63343 9.08501 7.16999 9.82662 6.74393C10.1723 6.54533 10.3851 6.17681 10.3842 5.77817C10.386 4.92286 9.4613 4.38636 8.71969 4.81242C8.37402 5.01097 8.16125 5.37954 8.16211 5.77817Z" fill="black" stroke="black" stroke-width="0.2"/>
<path d="M1.49414 8.27689L2.46716 7.42549C2.9734 6.98257 3.73639 7.00796 4.212 7.48358L6.59507 9.86664C6.97679 10.2484 7.57779 10.3005 8.01953 9.98999L8.18518 9.8736C8.82081 9.42688 9.68084 9.47863 10.2583 9.99837L12.0491 11.61" stroke="black" stroke-linecap="round"/>
</g>
<path d="M21.4512 3.51465H14.5488" stroke="black" stroke-linecap="round"/>
<path d="M19.3805 8H14.5488" stroke="black" stroke-linecap="round"/>
<path d="M18 12.4854H14.5488" stroke="black" stroke-linecap="round"/>
<defs>
<clipPath id="clip0_3551_49505">
<rect width="13" height="13" fill="white" transform="translate(0.548828 1.5)"/>
</clipPath>
</defs>
</svg>
