<svg width="16" height="16" viewBox="0 0 16 16" fill="none" xmlns="http://www.w3.org/2000/svg">
<path d="M12.7067 12.4467L11.28 9.60004L9.85336 12.4467" stroke="#171717" stroke-linecap="round" stroke-linejoin="round"/>
<path d="M10.1134 11.94H12.46" stroke="#171717" stroke-linecap="round" stroke-linejoin="round"/>
<path d="M11.28 14.6667C9.41331 14.6667 7.89331 13.1533 7.89331 11.28C7.89331 9.41334 9.40665 7.89337 11.28 7.89337C13.1466 7.89337 14.6666 9.40668 14.6666 11.28C14.6666 13.1533 13.1533 14.6667 11.28 14.6667Z" stroke="#171717" stroke-linecap="round" stroke-linejoin="round"/>
<path d="M3.34668 1.33334H5.96001C7.34001 1.33334 8.00668 2.00002 7.97335 3.34669V5.96001C8.00668 7.34001 7.34001 8.00669 5.96001 7.97336H3.34668C2.00001 8.00003 1.33334 7.33334 1.33334 5.95334V3.34002C1.33334 2.00002 2.00001 1.33334 3.34668 1.33334Z" stroke="#171717" stroke-linecap="round" stroke-linejoin="round"/>
<path d="M6.00659 3.89999H3.29993" stroke="#171717" stroke-linecap="round" stroke-linejoin="round"/>
<path d="M4.64661 3.44666V3.89998" stroke="#171717" stroke-linecap="round" stroke-linejoin="round"/>
<path d="M5.32661 3.89334C5.32661 5.06001 4.41327 6.00666 3.29327 6.00666" stroke="#171717" stroke-linecap="round" stroke-linejoin="round"/>
<path d="M6.00658 6.00668C5.51991 6.00668 5.07992 5.74668 4.77325 5.33334" stroke="#171717" stroke-linecap="round" stroke-linejoin="round"/>
<path d="M1.33331 10C1.33331 12.58 3.41998 14.6667 5.99998 14.6667L5.29998 13.5" stroke="#171717" stroke-linecap="round" stroke-linejoin="round"/>
<path d="M14.6666 6.00001C14.6666 3.42001 12.58 1.33334 9.99997 1.33334L10.7 2.50001" stroke="#171717" stroke-linecap="round" stroke-linejoin="round"/>
</svg>
