<svg width="16" height="16" viewBox="0 0 16 16" fill="none" xmlns="http://www.w3.org/2000/svg">
<path d="M8.50584 14.2232C8.20974 14.519 7.85975 14.6668 7.45587 14.6668C7.05198 14.6668 6.70199 14.519 6.4059 14.2232L1.76115 9.58414C1.47589 9.29922 1.33325 8.95171 1.33325 8.54161C1.33325 8.13151 1.47589 7.784 1.76115 7.49909L7.47776 1.7771C7.61498 1.64004 7.77515 1.53185 7.95826 1.45251C8.14138 1.37317 8.33661 1.3335 8.54397 1.3335H13.1887C13.5952 1.3335 13.9431 1.47801 14.2325 1.76704C14.5219 2.05607 14.6666 2.40358 14.6666 2.80957V7.44866C14.6666 7.65577 14.6269 7.85077 14.5474 8.03366C14.468 8.21655 14.3597 8.37652 14.2224 8.51358L8.50584 14.2232ZM11.5647 5.40487C11.8354 5.40487 12.0654 5.31025 12.2549 5.12101C12.4444 4.93177 12.5391 4.70197 12.5391 4.43163C12.5391 4.16129 12.4444 3.9315 12.2549 3.74226C12.0654 3.55301 11.8354 3.45839 11.5647 3.45839C11.294 3.45839 11.0639 3.55301 10.8745 3.74226C10.685 3.9315 10.5903 4.16129 10.5903 4.43163C10.5903 4.70197 10.685 4.93177 10.8745 5.12101C11.0639 5.31025 11.294 5.40487 11.5647 5.40487ZM7.45199 13.1908L13.1887 7.44866V2.80957H8.54397L2.80724 8.55166L7.45199 13.1908Z" fill="#750D7E"/>
</svg>
