<svg width="25" height="25" viewBox="0 0 25 25" fill="none" xmlns="http://www.w3.org/2000/svg">
<path d="M13.0938 7.37305H3.09375" stroke="#1F2329" stroke-width="1.25" stroke-linecap="round"/>
<path d="M10.0938 12.373H3.09375" stroke="#1F2329" stroke-width="1.25" stroke-linecap="round"/>
<path d="M8.09375 17.373H3.09375" stroke="#1F2329" stroke-width="1.25" stroke-linecap="round"/>
<path d="M11.41 17.0652C11.24 17.443 11.4084 17.887 11.7861 18.0569C12.1639 18.2269 12.6079 18.0585 12.7778 17.6808L11.41 17.0652ZM16.5939 7.37305L17.2778 7.06528C17.1567 6.79614 16.889 6.62305 16.5939 6.62305C16.2988 6.62305 16.0311 6.79614 15.91 7.06528L16.5939 7.37305ZM20.41 17.6808C20.5799 18.0585 21.0239 18.2269 21.4017 18.0569C21.7794 17.887 21.9478 17.443 21.7778 17.0652L20.41 17.6808ZM13.7303 12.9866C13.3161 12.9866 12.9803 13.3224 12.9803 13.7366C12.9803 14.1509 13.3161 14.4866 13.7303 14.4866V12.9866ZM12.7778 17.6808L17.2778 7.68082L15.91 7.06528L11.41 17.0652L12.7778 17.6808ZM21.7778 17.0652L20.1415 13.4289L18.7736 14.0444L20.41 17.6808L21.7778 17.0652ZM20.1415 13.4289L17.2778 7.06528L15.91 7.68082L18.7736 14.0444L20.1415 13.4289ZM19.4575 12.9866H13.7303V14.4866H19.4575V12.9866Z" fill="#1F2329"/>
</svg>
