<svg width="16" height="16" viewBox="0 0 16 16" fill="none" xmlns="http://www.w3.org/2000/svg">
<path d="M8.58008 10.0468L6.88675 8.3735L6.90675 8.3535C8.06675 7.06016 8.89341 5.5735 9.38008 4.00016H11.3334V2.66683H6.66675V1.3335H5.33341V2.66683H0.666748V3.9935H8.11341C7.66675 5.28016 6.96008 6.50016 6.00008 7.56683C5.38008 6.88016 4.86675 6.12683 4.46008 5.3335H3.12675C3.61341 6.42016 4.28008 7.44683 5.11341 8.3735L1.72008 11.7202L2.66675 12.6668L6.00008 9.3335L8.07341 11.4068L8.58008 10.0468ZM12.3334 6.66683H11.0001L8.00008 14.6668H9.33341L10.0801 12.6668H13.2467L14.0001 14.6668H15.3334L12.3334 6.66683ZM10.5867 11.3335L11.6667 8.44683L12.7467 11.3335H10.5867Z" fill="#750D7E"/>
</svg>
