<svg width="22" height="16" viewBox="0 0 22 16" fill="none" xmlns="http://www.w3.org/2000/svg">
<g clip-path="url(#clip0_4912_80370)">
<path d="M1.49336 7.99973C1.49336 5.38094 1.49336 4.0716 2.30688 3.25803C3.12044 2.44452 4.42979 2.44452 7.04858 2.44452C9.66731 2.44452 10.9767 2.44452 11.7902 3.25803C12.6038 4.0716 12.6038 5.38094 12.6038 7.99973C12.6038 10.6185 12.6038 11.9279 11.7902 12.7414C10.9768 13.5549 9.66731 13.5549 7.04858 13.5549C4.42979 13.5549 3.12044 13.5549 2.30688 12.7414C1.49336 11.9279 1.49336 10.6185 1.49336 7.99973Z" stroke="black"/>
<path d="M8.16094 5.77811C8.15912 6.63337 9.08384 7.16992 9.82545 6.74387C10.1711 6.54526 10.3839 6.17674 10.383 5.77811C10.3849 4.9228 9.46013 4.3863 8.71852 4.81235C8.37285 5.01091 8.16008 5.37948 8.16094 5.77811Z" fill="black" stroke="black" stroke-width="0.2"/>
<path d="M1.49336 8.27756L2.46638 7.42616C2.97262 6.98325 3.73561 7.00864 4.21123 7.48425L6.59429 9.86732C6.97601 10.2491 7.57701 10.3011 8.01875 9.99066L8.1844 9.87427C8.82003 9.42755 9.68006 9.4793 10.2575 9.99904L12.0483 11.6107" stroke="black" stroke-linecap="round"/>
</g>
<path d="M21.4512 3.51453H14.5488" stroke="black" stroke-linecap="round"/>
<path d="M19.3805 8.00012H14.5488" stroke="black" stroke-linecap="round"/>
<path d="M18 12.4857H14.5488" stroke="black" stroke-linecap="round"/>
<defs>
<clipPath id="clip0_4912_80370">
<rect width="13" height="13" fill="white" transform="translate(0.548828 1.5)"/>
</clipPath>
</defs>
</svg>
