<svg width="16" height="16" viewBox="0 0 16 16" fill="none" xmlns="http://www.w3.org/2000/svg">
<path fill-rule="evenodd" clip-rule="evenodd" d="M10.3003 2.0252H6.38474V0.719999H5.07954V2.0252H1.164V3.3304H2.47663C2.5607 5.00003 3.35339 6.55824 4.65933 7.6095L2.39906 9.33788L3.19188 10.3747L5.73214 8.43216L7.29344 9.62611L8.08638 8.58933L6.80495 7.6095C8.11089 6.55824 8.90352 5.00003 8.98765 3.3304H10.3003V2.0252ZM5.89668 6.66323L5.73214 6.78908L5.5676 6.66323C4.51602 5.85915 3.86893 4.64185 3.78393 3.3304H7.68034C7.59535 4.64185 6.94826 5.85915 5.89668 6.66323ZM10.6918 7.24594H10.2187L10.0716 7.69555L7.72225 14.8741L8.9627 15.28L9.57661 13.4042H12.9817L13.5956 15.28L14.836 14.8741L12.4868 7.69555L12.3395 7.24594H10.6918ZM12.5545 12.099H10.0038L11.1649 8.55114H11.3935L12.5545 12.099Z" fill="url(#paint0_linear_41_51)"/>
<defs>
<linearGradient id="paint0_linear_41_51" x1="8.00002" y1="0.719999" x2="8.00002" y2="15.28" gradientUnits="userSpaceOnUse">
<stop stop-color="#8032FF"/>
<stop offset="1" stop-color="#EF35FF"/>
</linearGradient>
</defs>
</svg>


