<svg width="30" height="30" viewBox="0 0 30 30" fill="none" xmlns="http://www.w3.org/2000/svg">
<path d="M28.992 17.8574C28.9896 17.8574 28.9875 17.8592 28.987 17.8615C28.1826 22.2013 24.675 26.0049 20.6109 28.137C20.1001 28.4039 19.9667 28.5512 19.3938 28.5972H27.566C27.7515 28.604 27.9364 28.5733 28.1098 28.507C28.2832 28.4407 28.4414 28.3401 28.575 28.2112C28.7086 28.0823 28.8148 27.9278 28.8873 27.757C28.9598 27.5861 28.9971 27.4024 28.997 27.2168V17.8624C28.997 17.8597 28.9948 17.8574 28.992 17.8574V17.8574Z" fill="#F7931E"/>
<path d="M20.0057 28.3418C19.8387 28.3533 19.6711 28.3533 19.5042 28.3418H20.0057Z" fill="#FFCE00"/>
<path d="M11.797 9.47252C11.6728 9.57605 11.5485 9.67038 11.422 9.76011C9.33523 11.228 2.96683 15.9859 1.52888 13.9382C0.11624 11.9274 1.60481 6.2239 5.27216 3.47684C5.34118 3.42163 5.4102 3.37101 5.48152 3.32269C9.45947 0.525018 12.4366 0.911539 13.8838 2.96148C15.2274 4.88488 13.7158 7.90343 11.797 9.47252Z" fill="#8427E0"/>
<path d="M27.3635 13.8847C25.394 15.2651 22.2858 13.6546 20.7443 11.6737C20.6822 11.5931 20.6224 11.5126 20.5648 11.4298C19.097 9.33614 14.3437 2.96774 16.3867 1.52749C18.4298 0.0872391 24.3196 1.65863 27.0022 5.48013C27.0621 5.56525 27.1196 5.64808 27.1748 5.73091C29.7838 9.58691 29.3674 12.4674 27.3635 13.8847Z" fill="#00B5FF"/>
<path d="M24.7268 26.4382C24.6578 26.4919 24.5888 26.5425 24.5198 26.59C20.5395 29.3877 17.5624 28.9989 16.1221 26.9512C14.7716 25.0278 16.2809 22.0162 18.1928 20.4402C18.317 20.3367 18.4436 20.24 18.5701 20.1503C20.6569 18.6848 27.0253 13.9384 28.4632 15.9745C29.8851 17.983 28.3965 23.6911 24.7268 26.4382Z" fill="#FFBD00"/>
<path d="M13.6143 28.3827C11.5644 29.8207 5.68145 28.247 2.99651 24.4278L2.83776 24.1977C0.214941 20.3302 0.629071 17.452 2.6376 16.0417C4.60472 14.6612 7.71299 16.2717 9.25447 18.2504C9.31659 18.3309 9.37641 18.4114 9.43623 18.4942C10.9041 20.5833 15.662 26.9517 13.6143 28.3827Z" fill="#E3006D"/>
<path d="M13.9434 6.64539C13.2413 8.20966 11.9657 9.44491 10.3796 10.0965C7.30357 11.3918 2.78725 13.0368 2.00961 11.2468C1.24807 9.48678 2.65611 5.90225 5.26973 3.47729L5.32495 3.43128C9.38342 0.513965 12.4181 0.886682 13.8836 2.96193C14.6084 4.00416 14.5002 5.37309 13.9434 6.64539Z" fill="#9327FF"/>
<path d="M27.3632 13.8805C26.2956 14.6305 24.8945 14.4994 23.59 13.9081C22.0248 13.1796 20.7922 11.8871 20.1389 10.2891C18.8666 7.2084 17.3136 2.83703 19.0668 2.0801C20.9074 1.28405 24.7565 2.86924 27.1745 5.72674C29.7835 9.58275 29.3671 12.4633 27.3632 13.8805Z" fill="#00C8FF"/>
<path d="M24.7266 26.4401L24.6805 26.4769C20.6198 29.3988 17.5805 29.0284 16.1219 26.9532C15.3902 25.911 15.4984 24.5489 16.0551 23.272C16.7565 21.7072 18.0324 20.4717 19.619 19.8209C22.6927 18.5233 27.2113 16.8806 27.989 18.6706C28.7666 20.4605 27.3425 24.006 24.7266 26.4401Z" fill="#FFCE00"/>
<path d="M10.934 27.8297C9.09342 28.6235 5.25812 27.0475 2.83776 24.1992C0.214941 20.3248 0.629071 17.4466 2.6376 16.0362C3.70283 15.2862 5.10397 15.415 6.40848 16.0063C7.97135 16.7389 9.19984 18.0348 9.84806 19.6345C11.1227 22.6922 12.6871 27.0682 10.934 27.8297Z" fill="#FB006D"/>
</svg>
