<svg width="18" height="18" viewBox="0 0 18 18" fill="none" xmlns="http://www.w3.org/2000/svg">
<path d="M7.90313 14.7769V3.22312C7.90313 2.12625 7.43513 1.6875 6.27244 1.6875H3.31819C2.1555 1.6875 1.6875 2.12625 1.6875 3.22312V14.7769C1.6875 15.8737 2.1555 16.3125 3.31819 16.3125H6.27244C7.43513 16.3125 7.90313 15.8737 7.90313 14.7769Z" stroke="#171717" stroke-opacity="0.7" stroke-width="1.09687" stroke-linecap="round" stroke-linejoin="round"/>
<path d="M16.3133 9.65812V3.22312C16.3133 2.12625 15.8453 1.6875 14.6826 1.6875H11.7283C10.5657 1.6875 10.0977 2.12625 10.0977 3.22312V9.65812C10.0977 10.755 10.5657 11.1937 11.7283 11.1937H14.6826C15.8453 11.1937 16.3133 10.755 16.3133 9.65812Z" stroke="#171717" stroke-opacity="0.7" stroke-width="1.09687" stroke-linecap="round" stroke-linejoin="round"/>
</svg>
