<svg width="16" height="16" viewBox="0 0 16 16" fill="none" xmlns="http://www.w3.org/2000/svg">
<g clip-path="url(#clip0_45_2)">
<path d="M1.16284 7.82906C1.16284 5.25056 1.16284 3.96137 1.96384 3.16031C2.7649 2.35931 4.05409 2.35931 6.63259 2.35931H9.36747C11.9459 2.35931 13.2352 2.35931 14.0362 3.16031C14.8372 3.96137 14.8372 5.25056 14.8372 7.82906V9.1965C14.8372 11.7749 14.8372 13.0642 14.0362 13.8652C13.2352 14.6662 11.9459 14.6663 9.36747 14.6663H6.63259C4.05409 14.6663 2.7649 14.6662 1.96384 13.8652C1.16284 13.0642 1.16284 11.7749 1.16284 9.1965V7.82906Z" stroke="black"/>
<path d="M4.58136 2.35931V1.33369" stroke="black" stroke-linecap="round"/>
<path d="M11.4186 2.35931V1.33369" stroke="black" stroke-linecap="round"/>
<path d="M1.50464 5.77787H14.4954" stroke="black" stroke-linecap="round"/>
<path d="M12.1023 11.2477C12.1023 11.6253 11.7962 11.9314 11.4186 11.9314C11.041 11.9314 10.7349 11.6253 10.7349 11.2477C10.7349 10.8701 11.041 10.5639 11.4186 10.5639C11.7962 10.5639 12.1023 10.8701 12.1023 11.2477Z" fill="black"/>
<path d="M12.1023 8.51281C12.1023 8.89044 11.7962 9.1965 11.4186 9.1965C11.041 9.1965 10.7349 8.89044 10.7349 8.51281C10.7349 8.13519 11.041 7.82906 11.4186 7.82906C11.7962 7.82906 12.1023 8.13519 12.1023 8.51281Z" fill="black"/>
<path d="M8.68372 11.2477C8.68372 11.6253 8.3776 11.9314 7.99997 11.9314C7.62235 11.9314 7.31628 11.6253 7.31628 11.2477C7.31628 10.8701 7.62235 10.5639 7.99997 10.5639C8.3776 10.5639 8.68372 10.8701 8.68372 11.2477Z" fill="black"/>
<path d="M8.68372 8.51281C8.68372 8.89044 8.3776 9.1965 7.99997 9.1965C7.62235 9.1965 7.31628 8.89044 7.31628 8.51281C7.31628 8.13519 7.62235 7.82906 7.99997 7.82906C8.3776 7.82906 8.68372 8.13519 8.68372 8.51281Z" fill="black"/>
<path d="M5.26514 11.2477C5.26514 11.6253 4.95902 11.9314 4.58139 11.9314C4.20377 11.9314 3.89771 11.6253 3.89771 11.2477C3.89771 10.8701 4.20383 10.5639 4.58139 10.5639C4.95896 10.5639 5.26514 10.8701 5.26514 11.2477Z" fill="black"/>
<path d="M5.26514 8.51281C5.26514 8.89044 4.95902 9.1965 4.58139 9.1965C4.20377 9.1965 3.89771 8.89044 3.89771 8.51281C3.89771 8.13519 4.20383 7.82906 4.58139 7.82906C4.95896 7.82906 5.26514 8.13519 5.26514 8.51281Z" fill="black"/>
</g>
<defs>
<clipPath id="clip0_45_2">
<rect width="16" height="16" fill="white"/>
</clipPath>
</defs>
</svg>
