<svg viewBox="-0.5 -0.5 16 16" fill="none" xmlns="http://www.w3.org/2000/svg" id="Camera--Streamline-Solar-Ar.svg" height="16" width="16"><desc>Camera Streamline Icon: https://streamlinehq.com</desc><path stroke="#000000" d="M5.625 8.125a1.875 1.875 0 1 0 3.75 0 1.875 1.875 0 1 0 -3.75 0" stroke-width="1"></path><path d="M6.1111125 13.125h2.7777625c1.9506875000000001 0 2.926 0 3.6266249999999998 -0.45962500000000006 0.30325 -0.199 0.5636875 -0.4546875 0.766375 -0.7524375 0.468125 -0.687875 0.468125 -1.6455 0.468125 -3.5606875 0 -1.915125 0 -2.87274375 -0.468125 -3.560625 -0.2026875 -0.2977875 -0.463125 -0.553475 -0.766375 -0.7524500000000001 -0.45025000000000004 -0.29534375 -1.0138125 -0.40090624999999996 -1.8767500000000001 -0.4386375 -0.4118125 0 -0.7663125 -0.3063625 -0.8470624999999999 -0.7028125000000001C9.6705 2.30305625 9.1386875 1.875 8.5210625 1.875h-2.042125c-0.61765625 0 -1.14946875 0.42805625 -1.2706062500000002 1.022725 -0.08075625 0.39644999999999997 -0.4353 0.7028125000000001 -0.84708125 0.7028125000000001 -0.8629187500000001 0.03773125 -1.42653125 0.14329375 -1.876725 0.4386375 -0.30330625 0.19897499999999999 -0.563725 0.45466249999999997 -0.7663875 0.7524500000000001C1.25 5.47950625 1.25 6.437125 1.25 8.35225c0 1.9151874999999998 0 2.8728124999999998 0.4681375 3.5606875 0.2026625 0.29775 0.46308125 0.5534375 0.7663875 0.7524375C3.18515 13.125 4.16046875 13.125 6.1111125 13.125Z" stroke="#000000" stroke-width="1"></path><path d="M11.875 6.25h-0.625" stroke="#000000" stroke-linecap="round" stroke-width="1"></path></svg>