<svg width="20" height="20" viewBox="0 0 20 20" fill="none" xmlns="http://www.w3.org/2000/svg">
<path d="M4.46667 8.08256H4.4159V8.13333V11.0667V11.1174H4.46667H14.7333H14.7841V11.0667V8.13333V8.08256H14.7333H4.46667ZM3.05077 3.73333C3.05077 3.35636 3.35636 3.05077 3.73333 3.05077H15.4667C15.8436 3.05077 16.1492 3.35636 16.1492 3.73333C16.1492 4.1103 15.8436 4.4159 15.4667 4.4159H3.73333C3.35636 4.4159 3.05077 4.1103 3.05077 3.73333ZM3.05077 15.4667C3.05077 15.0897 3.35636 14.7841 3.73333 14.7841H15.4667C15.8436 14.7841 16.1492 15.0897 16.1492 15.4667C16.1492 15.8436 15.8436 16.1492 15.4667 16.1492H3.73333C3.35636 16.1492 3.05077 15.8436 3.05077 15.4667ZM3.05077 8.13333C3.05077 7.35135 3.68469 6.71744 4.46667 6.71744H14.7333C15.5153 6.71744 16.1492 7.35135 16.1492 8.13333V11.0667C16.1492 11.8486 15.5153 12.4826 14.7333 12.4826H4.46667C3.68469 12.4826 3.05077 11.8486 3.05077 11.0667V8.13333Z" fill="#2B2F36" stroke="white" stroke-width="0.101538"/>
</svg>
