<svg xmlns="http://www.w3.org/2000/svg" fill="none" viewBox="0 0 16 16" id="Lightbulb--Streamline-Flex.svg" height="16" width="16"><desc>Lightbulb Streamline Icon: https://streamlinehq.com</desc><g id="lightbulb--lighting-light-incandescent-bulb-lights"><path id="Vector" stroke="#a44afd" stroke-linecap="round" stroke-linejoin="round" d="M13.284685714285715 5.819314285714285c0.006171428571428572 -0.8796571428571429 -0.2233142857142857 -1.7449142857142856 -0.6645714285714286 -2.505931428571428 -0.44125714285714285 -0.7610171428571428 -1.0781714285714286 -1.3900571428571427 -1.8445942857142856 -1.8218171428571428C10.009074285714284 1.0598102857142857 9.141039999999998 0.8410719999999999 8.261531428571429 0.858062857142857c-0.87952 0.016989714285714285 -1.7384571428571427 0.26909028571428567 -2.487645714285714 0.7301314285714285 -0.7491885714285714 0.46103999999999995 -1.3613142857142855 1.1142057142857142 -1.772822857142857 1.8916914285714284 -0.41152 0.7774971428571428 -0.6074285714285713 1.6509714285714285 -0.5673828571428571 2.5297371428571425 0.04004571428571429 0.8787657142857143 0.3145828571428571 1.7308 0.7950971428571428 2.467645714285714 0.85808 1.3157942857142855 1.366102857142857 1.7994742857142856 1.366102857142857 3.36536 0 0.14514285714285713 0.05769142857142857 0.28445714285714285 0.16037714285714286 0.3872 0.10269714285714285 0.10262857142857143 0.24197714285714284 0.16034285714285715 0.3872 0.16034285714285715H10.570742857142855c0.14522285714285713 0 0.2845028571428571 -0.05771428571428572 0.3871885714285714 -0.16034285714285715 0.10268571428571428 -0.10274285714285714 0.16037714285714286 -0.24205714285714283 0.16037714285714286 -0.3872 0 -1.603622857142857 0.5683199999999999 -2.0796571428571426 1.420662857142857 -3.44352 0.48365714285714284 -0.77384 0.7419428571428571 -1.667245714285714 0.7457142857142857 -2.5797942857142857Z" stroke-width="1"></path><path id="Vector_2" stroke="#a44afd" stroke-linecap="round" stroke-linejoin="round" d="m6.853794285714285 15.142857142857142 3.005405714285714 0" stroke-width="1"></path></g></svg>