<svg width="18" height="18" viewBox="0 0 18 18" fill="none" xmlns="http://www.w3.org/2000/svg">
    <path d="M9.79343 2.42612C9.79343 2.15082 9.58575 1.91773 9.31069 1.90639C9.20767 1.90214 9.10409 1.89999 9 1.89999C4.99679 1.89999 1.75 5.07791 1.75 8.99774C1.74909 10.1598 2.03948 11.3035 2.59463 12.3243C2.80125 12.688 2.91846 13.1073 2.91846 13.5507C2.91846 14.2081 2.66229 14.8062 2.243 15.2593C2.20192 15.3439 2.14271 15.4889 2.14271 15.565C2.14405 15.6969 2.19377 15.8236 2.28244 15.9212C2.3711 16.0188 2.49252 16.0804 2.62363 16.0943H9C13.0056 16.0943 16.25 12.9176 16.25 8.99653C16.25 8.83715 16.2446 8.679 16.2341 8.52224C16.2158 8.25138 15.9838 8.05085 15.7123 8.05085V8.05085C15.3762 8.05085 15.1227 8.35373 15.141 8.68933C15.1466 8.7912 15.1494 8.89362 15.1494 8.99653C15.1494 12.2445 12.3435 14.9587 9 14.9587L3.7372 14.886C3.93546 14.3755 4.0139 13.8272 3.97377 13.2811C3.93364 12.7349 3.81869 12.2046 3.54794 11.7286C3.10207 10.9057 2.83823 9.96924 2.83823 8.99774C2.83823 5.75095 5.65775 2.98822 9 2.98822C9.06065 2.98822 9.12112 2.98913 9.18141 2.99094C9.50665 3.00067 9.79343 2.75151 9.79343 2.42612V2.42612Z" fill="#232323"/>
    <path d="M13.6546 2.23158C13.7827 1.92275 14.2202 1.92283 14.3481 2.2317L14.5151 2.63473C14.769 3.24768 15.256 3.73469 15.8689 3.98871L16.2692 4.15459C16.5781 4.28262 16.578 4.72025 16.2691 4.84817L15.8661 5.01502C15.2525 5.26905 14.7651 5.75653 14.5111 6.37011L14.3464 6.76819C14.2184 7.07733 13.7805 7.07725 13.6526 6.76807L13.4868 6.36685C13.2328 5.75277 12.7451 5.2649 12.1311 5.0108L11.7318 4.84558C11.4228 4.71769 11.4227 4.27995 11.7317 4.15195L12.1348 3.98497C12.7476 3.73112 13.2346 3.24435 13.4887 2.63163L13.6546 2.23158Z" fill="#2B2F36"/>
    </svg>
