<svg xmlns="http://www.w3.org/2000/svg" fill="none" viewBox="-0.5 -0.5 16 16" height="16" width="16" id="School--Streamline-Rounded----Material-Symbols.svg">
  <path fill="#ffba00" d="M3.437625 10.906312499999999C3.2917812499999997 10.82296875 3.1745937499999997 10.70903125 3.0860593749999996 10.564437499999999C2.9975187500000002 10.419968749999999 2.953246875 10.257875 2.953246875 10.0781875V6.8906875L1.3907468749999998 6.0313125C1.3074125 5.97921875 1.2449124999999999 5.9191875000000005 1.203246875 5.851156250000001C1.16158125 5.78325 1.140746875 5.707718750000001 1.140746875 5.62459375C1.140746875 5.5415625 1.16158125 5.46621875 1.203246875 5.3985C1.2449124999999999 5.330781249999999 1.3074125 5.27090625 1.3907468749999998 5.218812499999999L7.031375 2.1250625000000003C7.10428125 2.08339375 7.1783125000000005 2.05475 7.253406249999999 2.039125C7.3284062500000005 2.0235 7.4054375 2.0156875 7.4845 2.0156875C7.5635625 2.0156875 7.64059375 2.0235 7.71559375 2.039125C7.7906875 2.05475 7.864718750000001 2.08339375 7.937625000000001 2.1250625000000003L14.125125 5.4844375C14.208468750000002 5.5365312499999995 14.27096875 5.598875 14.312625 5.671468750000001C14.35428125 5.7439687500000005 14.375125 5.82225 14.375125 5.9063125V10.1094375C14.375125 10.242249999999999 14.32990625 10.353562499999999 14.2395 10.44334375C14.1491875 10.53325 14.037218750000001 10.5781875 13.9035625 10.5781875C13.77003125 10.5781875 13.65896875 10.53325 13.5704375 10.44334375C13.48190625 10.353562499999999 13.437625 10.242249999999999 13.437625 10.1094375V6.1719375L12.01575 6.8906875V10.0781875C12.01575 10.257875 11.97146875 10.419968749999999 11.882937499999999 10.564437499999999C11.79440625 10.70903125 11.67721875 10.82296875 11.531374999999999 10.906312499999999L7.937625000000001 12.8750625C7.864718750000001 12.916718750000001 7.7906875 12.945374999999999 7.71559375 12.961C7.64059375 12.976624999999999 7.5635625 12.984437499999999 7.4845 12.984437499999999C7.4054375 12.984437499999999 7.3284062500000005 12.976624999999999 7.253406249999999 12.961C7.1783125000000005 12.945374999999999 7.10428125 12.916718750000001 7.031375 12.8750625L3.437625 10.906312499999999ZM7.4845 8.3125625L12.406375 5.6250625L7.4845 2.9844375000000003L2.593871875 5.6250625L7.4845 8.3125625ZM7.4845 12.0625625L11.07825 10.0781875V7.4531875L7.937625000000001 9.1406875C7.864718750000001 9.182343750000001 7.7917812500000005 9.211 7.718875 9.226625C7.64596875 9.24225 7.56784375 9.2500625 7.4845 9.2500625C7.4011562500000005 9.2500625 7.32565625 9.24225 7.257937500000001 9.226625C7.1902187500000005 9.211 7.11990625 9.182343750000001 7.047 9.1406875L3.89075 7.4219375V10.0781875L7.4845 12.0625625Z" stroke-width="1"></path>
</svg>