<svg width="16" height="16" viewBox="0 0 16 16" fill="none" xmlns="http://www.w3.org/2000/svg">
<path d="M2.16671 8C2.16671 4.77834 4.77838 2.16667 8.00004 2.16667C8.86971 2.16667 9.69343 2.3566 10.4333 2.69669C10.726 2.83124 11.0724 2.70302 11.207 2.41029C11.3415 2.11757 11.2133 1.77119 10.9206 1.63664C10.0309 1.22773 9.04129 1 8.00004 1C4.13405 1 1.00005 4.13401 1.00005 8C1.00005 11.866 4.13405 15 8.00004 15C11.866 15 15 11.866 15 8C15 7.67783 14.7389 7.41667 14.4167 7.41667C14.0945 7.41667 13.8334 7.67783 13.8334 8C13.8334 11.2217 11.2217 13.8333 8.00004 13.8333C4.77838 13.8333 2.16671 11.2217 2.16671 8Z" fill="#171717"/>
<path d="M14.8136 4.34413C15.0497 4.12491 15.0634 3.75582 14.8442 3.51974C14.625 3.28366 14.2559 3.26999 14.0198 3.4892L8.13466 8.95396L6.64697 7.57254C6.41089 7.35332 6.0418 7.36699 5.82258 7.60307C5.60336 7.83915 5.61703 8.20824 5.85311 8.42746L7.73773 10.1775C7.96154 10.3853 8.30778 10.3853 8.53159 10.1775L14.8136 4.34413Z" fill="#171717"/>
</svg>
