<svg width="16" height="17" viewBox="0 0 16 17" fill="none" xmlns="http://www.w3.org/2000/svg">
<path d="M7.31665 11.5668L12.0166 6.86683L11.0833 5.9335L7.31665 9.70016L5.41665 7.80016L4.48331 8.7335L7.31665 11.5668ZM8.24998 15.1668C7.32776 15.1668 6.46109 14.9918 5.64998 14.6418C4.83887 14.2918 4.13331 13.8168 3.53331 13.2168C2.93331 12.6168 2.45831 11.9113 2.10831 11.1002C1.75831 10.2891 1.58331 9.42238 1.58331 8.50016C1.58331 7.57794 1.75831 6.71127 2.10831 5.90016C2.45831 5.08905 2.93331 4.3835 3.53331 3.7835C4.13331 3.1835 4.83887 2.7085 5.64998 2.3585C6.46109 2.0085 7.32776 1.8335 8.24998 1.8335C9.1722 1.8335 10.0389 2.0085 10.85 2.3585C11.6611 2.7085 12.3666 3.1835 12.9666 3.7835C13.5666 4.3835 14.0416 5.08905 14.3916 5.90016C14.7416 6.71127 14.9166 7.57794 14.9166 8.50016C14.9166 9.42238 14.7416 10.2891 14.3916 11.1002C14.0416 11.9113 13.5666 12.6168 12.9666 13.2168C12.3666 13.8168 11.6611 14.2918 10.85 14.6418C10.0389 14.9918 9.1722 15.1668 8.24998 15.1668ZM8.24998 13.8335C9.73887 13.8335 11 13.3168 12.0333 12.2835C13.0666 11.2502 13.5833 9.98905 13.5833 8.50016C13.5833 7.01127 13.0666 5.75016 12.0333 4.71683C11 3.6835 9.73887 3.16683 8.24998 3.16683C6.76109 3.16683 5.49998 3.6835 4.46665 4.71683C3.43331 5.75016 2.91665 7.01127 2.91665 8.50016C2.91665 9.98905 3.43331 11.2502 4.46665 12.2835C5.49998 13.3168 6.76109 13.8335 8.24998 13.8335Z" fill="#653E8C"/>
</svg>
