<svg width="16" height="16" viewBox="0 0 16 16" fill="none" xmlns="http://www.w3.org/2000/svg">
<path d="M10.1601 14.6H5.84006C4.09924 14.6 3.03675 14.2481 2.39433 13.6057C1.7519 12.9633 1.40006 11.9008 1.40006 10.16V5.83999C1.40006 4.09917 1.7519 3.03668 2.39433 2.39425C3.03675 1.75183 4.09924 1.39999 5.84006 1.39999H10.1601C11.9009 1.39999 12.9634 1.75183 13.6058 2.39425C14.2482 3.03668 14.6001 4.09917 14.6001 5.83999V10.16C14.6001 11.9008 14.2482 12.9633 13.6058 13.6057C12.9634 14.2481 11.9009 14.6 10.1601 14.6Z" stroke="#171717" stroke-width="1.2" stroke-linecap="round" stroke-linejoin="round"/>
<path d="M4.95006 8.14046L6.9452 10.1356L11.0501 6.20001" stroke="#171717" stroke-width="1.2" stroke-linecap="round" stroke-linejoin="round"/>
</svg>
