<svg width="16" height="16" viewBox="0 0 16 16" fill="none" xmlns="http://www.w3.org/2000/svg">
<mask id="path-1-outside-1_517_23658" maskUnits="userSpaceOnUse" x="3.69922" y="1.62109" width="9" height="6" fill="black">
<rect fill="white" x="3.69922" y="1.62109" width="9" height="6"/>
<path d="M11.5638 2.6337C11.3831 2.45486 11.0903 2.45486 10.9097 2.6337L7.99922 5.51551L5.08876 2.6337C4.90814 2.45486 4.6153 2.45486 4.43468 2.6337C4.25406 2.81254 4.25406 3.1025 4.43468 3.28134L7.67218 6.48696C7.75892 6.57285 7.87656 6.62109 7.99922 6.62109C8.12188 6.62109 8.23952 6.57285 8.32626 6.48696L11.5638 3.28134C11.7444 3.1025 11.7444 2.81254 11.5638 2.6337Z"/>
</mask>
<path d="M11.5638 2.6337C11.3831 2.45486 11.0903 2.45486 10.9097 2.6337L7.99922 5.51551L5.08876 2.6337C4.90814 2.45486 4.6153 2.45486 4.43468 2.6337C4.25406 2.81254 4.25406 3.1025 4.43468 3.28134L7.67218 6.48696C7.75892 6.57285 7.87656 6.62109 7.99922 6.62109C8.12188 6.62109 8.23952 6.57285 8.32626 6.48696L11.5638 3.28134C11.7444 3.1025 11.7444 2.81254 11.5638 2.6337Z" fill="#171717"/>
<path d="M10.9097 2.6337L10.9881 2.71286L10.9097 2.6337ZM11.5638 2.6337L11.4854 2.71286H11.4854L11.5638 2.6337ZM7.99922 5.51551L7.92084 5.59467C7.96425 5.63765 8.03418 5.63765 8.07759 5.59467L7.99922 5.51551ZM5.08876 2.6337L5.01038 2.71286L5.08876 2.6337ZM4.43468 2.6337L4.51306 2.71286V2.71286L4.43468 2.6337ZM4.43468 3.28134L4.51306 3.20218V3.20218L4.43468 3.28134ZM7.67218 6.48696L7.59381 6.56612V6.56612L7.67218 6.48696ZM8.32626 6.48696L8.24788 6.40781V6.40781L8.32626 6.48696ZM11.5638 3.28134L11.6421 3.36049H11.6421L11.5638 3.28134ZM10.9881 2.71286C11.1253 2.577 11.3482 2.577 11.4854 2.71286L11.6421 2.55455C11.4181 2.33273 11.0553 2.33273 10.8313 2.55455L10.9881 2.71286ZM8.07759 5.59467L10.9881 2.71286L10.8313 2.55455L7.92084 5.43636L8.07759 5.59467ZM5.01038 2.71286L7.92084 5.59467L8.07759 5.43636L5.16713 2.55455L5.01038 2.71286ZM4.51306 2.71286C4.65026 2.577 4.87317 2.577 5.01038 2.71286L5.16713 2.55455C4.9431 2.33273 4.58033 2.33273 4.35631 2.55455L4.51306 2.71286ZM4.51306 3.20218C4.37646 3.06693 4.37646 2.84811 4.51306 2.71286L4.35631 2.55455C4.13167 2.77698 4.13167 3.13807 4.35631 3.36049L4.51306 3.20218ZM7.75056 6.40781L4.51306 3.20218L4.35631 3.36049L7.59381 6.56612L7.75056 6.40781ZM7.99922 6.5097C7.90575 6.5097 7.81632 6.47292 7.75056 6.40781L7.59381 6.56612C7.70151 6.67277 7.84737 6.73249 7.99922 6.73249V6.5097ZM8.24788 6.40781C8.18212 6.47292 8.09269 6.5097 7.99922 6.5097V6.73249C8.15107 6.73249 8.29692 6.67277 8.40463 6.56612L8.24788 6.40781ZM11.4854 3.20218L8.24788 6.40781L8.40463 6.56612L11.6421 3.36049L11.4854 3.20218ZM11.4854 2.71286C11.622 2.84811 11.622 3.06693 11.4854 3.20218L11.6421 3.36049C11.8668 3.13807 11.8668 2.77698 11.6421 2.55455L11.4854 2.71286Z" fill="#171717" mask="url(#path-1-outside-1_517_23658)"/>
<mask id="path-3-outside-2_517_23658" maskUnits="userSpaceOnUse" x="3.30078" y="8.37891" width="9" height="6" fill="black">
<rect fill="white" x="3.30078" y="8.37891" width="9" height="6"/>
<path d="M4.43624 13.3663C4.61686 13.5451 4.9097 13.5451 5.09032 13.3663L8.00078 10.4845L10.9112 13.3663C11.0919 13.5451 11.3847 13.5451 11.5653 13.3663C11.7459 13.1875 11.7459 12.8975 11.5653 12.7187L8.32782 9.51304C8.24108 9.42715 8.12344 9.37891 8.00078 9.37891C7.87812 9.37891 7.76048 9.42715 7.67374 9.51304L4.43624 12.7187C4.25563 12.8975 4.25563 13.1875 4.43624 13.3663Z"/>
</mask>
<path d="M4.43624 13.3663C4.61686 13.5451 4.9097 13.5451 5.09032 13.3663L8.00078 10.4845L10.9112 13.3663C11.0919 13.5451 11.3847 13.5451 11.5653 13.3663C11.7459 13.1875 11.7459 12.8975 11.5653 12.7187L8.32782 9.51304C8.24108 9.42715 8.12344 9.37891 8.00078 9.37891C7.87812 9.37891 7.76048 9.42715 7.67374 9.51304L4.43624 12.7187C4.25563 12.8975 4.25563 13.1875 4.43624 13.3663Z" fill="#171717"/>
<path d="M5.09032 13.3663L5.01194 13.2871L5.09032 13.3663ZM4.43624 13.3663L4.51462 13.2871H4.51462L4.43624 13.3663ZM8.00078 10.4845L8.07916 10.4053C8.03575 10.3623 7.96582 10.3623 7.92241 10.4053L8.00078 10.4845ZM10.9112 13.3663L10.9896 13.2871L10.9112 13.3663ZM11.5653 13.3663L11.4869 13.2871V13.2871L11.5653 13.3663ZM11.5653 12.7187L11.4869 12.7978V12.7978L11.5653 12.7187ZM8.32782 9.51304L8.40619 9.43388V9.43388L8.32782 9.51304ZM7.67374 9.51304L7.75212 9.59219V9.59219L7.67374 9.51304ZM4.43624 12.7187L4.35787 12.6395H4.35787L4.43624 12.7187ZM5.01194 13.2871C4.87474 13.423 4.65183 13.423 4.51462 13.2871L4.35787 13.4455C4.5819 13.6673 4.94467 13.6673 5.16869 13.4455L5.01194 13.2871ZM7.92241 10.4053L5.01194 13.2871L5.16869 13.4455L8.07916 10.5636L7.92241 10.4053ZM10.9896 13.2871L8.07916 10.4053L7.92241 10.5636L10.8329 13.4455L10.9896 13.2871ZM11.4869 13.2871C11.3497 13.423 11.1268 13.423 10.9896 13.2871L10.8329 13.4455C11.0569 13.6673 11.4197 13.6673 11.6437 13.4455L11.4869 13.2871ZM11.4869 12.7978C11.6235 12.9331 11.6235 13.1519 11.4869 13.2871L11.6437 13.4455C11.8683 13.223 11.8683 12.8619 11.6437 12.6395L11.4869 12.7978ZM8.24944 9.59219L11.4869 12.7978L11.6437 12.6395L8.40619 9.43388L8.24944 9.59219ZM8.00078 9.4903C8.09425 9.4903 8.18368 9.52708 8.24944 9.59219L8.40619 9.43388C8.29849 9.32723 8.15263 9.26751 8.00078 9.26751V9.4903ZM7.75212 9.59219C7.81788 9.52708 7.90731 9.4903 8.00078 9.4903V9.26751C7.84893 9.26751 7.70308 9.32723 7.59537 9.43388L7.75212 9.59219ZM4.51462 12.7978L7.75212 9.59219L7.59537 9.43388L4.35787 12.6395L4.51462 12.7978ZM4.51462 13.2871C4.37802 13.1519 4.37802 12.9331 4.51462 12.7978L4.35787 12.6395C4.13323 12.8619 4.13323 13.223 4.35787 13.4455L4.51462 13.2871Z" fill="#171717" mask="url(#path-3-outside-2_517_23658)"/>
</svg>
