<svg width="16" height="16" viewBox="0 0 16 16" fill="none" xmlns="http://www.w3.org/2000/svg">
<path d="M13 8C13 5 10.7614 3 8 3C5.23858 3 3 5.01472 3 7.5C3 8.15537 3.15566 8.77801 3.43553 9.33962C3.685 9.84023 3.85093 10.3944 3.75897 10.9462L3.55015 12.1991C3.52647 12.3412 3.6562 12.4609 3.79593 12.426L5.88565 11.9036C6.23457 11.8164 6.59897 11.8332 6.95218 11.901C7.29008 11.9659 7.64061 12 8 12" stroke="#333333"/>
<path d="M13.5421 12.4158C13.4319 11.8191 13.6478 11.2215 13.856 10.6516C13.9497 10.395 14 10.1233 14 9.84211C14 8.27245 12.433 7 10.5 7C8.567 7 7 8.27245 7 9.84211C7 11.4118 8.567 12.6842 10.5 12.6842C10.7122 12.6842 10.9199 12.6689 11.1216 12.6395C11.4439 12.5926 11.7729 12.5766 12.0906 12.6482L13.3542 12.9333C13.4943 12.9649 13.621 12.843 13.5949 12.7019L13.5421 12.4158Z" stroke="#333333"/>
</svg>
