<svg width="16" height="16" viewBox="0 0 16 16" fill="none" xmlns="http://www.w3.org/2000/svg">
<g clip-path="url(#clip0_3228_21314)">
<path d="M1.16284 7.99979C1.16284 4.77666 1.16284 3.16516 2.16409 2.16385C3.1654 1.1626 4.7769 1.1626 8.00003 1.1626C11.2231 1.1626 12.8347 1.1626 13.8359 2.16385C14.8372 3.16516 14.8372 4.77666 14.8372 7.99979C14.8372 11.2228 14.8372 12.8344 13.8359 13.8357C12.8347 14.837 11.2231 14.837 8.00003 14.837C4.7769 14.837 3.1654 14.837 2.16409 13.8357C1.16284 12.8345 1.16284 11.2228 1.16284 7.99979Z" stroke="#171717"/>
<path d="M9.36743 5.26499C9.36518 6.31762 10.5033 6.97799 11.4161 6.45362C11.8415 6.20918 12.1034 5.75562 12.1023 5.26499C12.1046 4.21231 10.9664 3.55199 10.0537 4.07637C9.62825 4.32074 9.36637 4.77437 9.36743 5.26499Z" stroke="#171717"/>
<path d="M1.16284 8.34172L2.3604 7.29385C2.98347 6.74872 3.92253 6.77997 4.5079 7.36535L7.4409 10.2983C7.91072 10.7682 8.6504 10.8323 9.19409 10.4502L9.39797 10.3069C10.1803 9.7571 11.2388 9.82079 11.9495 10.4605L14.1535 12.444" stroke="#171717" stroke-linecap="round"/>
</g>
<defs>
<clipPath id="clip0_3228_21314">
<rect width="16" height="16" fill="white"/>
</clipPath>
</defs>
</svg>
