<svg width="20" height="20" viewBox="0 0 20 20" fill="none" xmlns="http://www.w3.org/2000/svg">
<path d="M3.97143 5.94286C4.50793 5.94286 4.94286 5.50793 4.94286 4.97143C4.94286 4.43492 4.50793 4 3.97143 4C3.43492 4 3 4.43492 3 4.97143C3 5.50793 3.43492 5.94286 3.97143 5.94286Z" fill="#2B2F36"/>
<path d="M7.53333 4.32381C7.17566 4.32381 6.88571 4.61376 6.88571 4.97143C6.88571 5.3291 7.17566 5.61905 7.53333 5.61905H15.9524C16.3101 5.61905 16.6 5.3291 16.6 4.97143C16.6 4.61376 16.3101 4.32381 15.9524 4.32381H7.53333Z" fill="#2B2F36"/>
<path d="M7.53333 9.50476C7.17566 9.50476 6.88571 9.79471 6.88571 10.1524C6.88571 10.5101 7.17566 10.8 7.53333 10.8H15.9524C16.3101 10.8 16.6 10.5101 16.6 10.1524C16.6 9.79471 16.3101 9.50476 15.9524 9.50476H7.53333Z" fill="#2B2F36"/>
<path d="M6.88571 15.3333C6.88571 14.9757 7.17566 14.6857 7.53333 14.6857H15.9524C16.3101 14.6857 16.6 14.9757 16.6 15.3333C16.6 15.691 16.3101 15.981 15.9524 15.981H7.53333C7.17566 15.981 6.88571 15.691 6.88571 15.3333Z" fill="#2B2F36"/>
<path d="M4.94286 10.1524C4.94286 10.6889 4.50793 11.1238 3.97143 11.1238C3.43492 11.1238 3 10.6889 3 10.1524C3 9.61588 3.43492 9.18095 3.97143 9.18095C4.50793 9.18095 4.94286 9.61588 4.94286 10.1524Z" fill="#2B2F36"/>
<path d="M3.97143 16.3048C4.50793 16.3048 4.94286 15.8698 4.94286 15.3333C4.94286 14.7968 4.50793 14.3619 3.97143 14.3619C3.43492 14.3619 3 14.7968 3 15.3333C3 15.8698 3.43492 16.3048 3.97143 16.3048Z" fill="#2B2F36"/>
</svg>
