<svg width="16" height="16" viewBox="0 0 16 16" fill="none" xmlns="http://www.w3.org/2000/svg">
<path fill-rule="evenodd" clip-rule="evenodd" d="M4.5 2C3.67157 2 3 2.67157 3 3.5V12.5C3 13.3284 3.67157 14 4.5 14H11.5C12.3284 14 13 13.3284 13 12.5V7.16667C13 6.62574 12.8246 6.09941 12.5 5.66667L10.5 3C10.0279 2.37049 9.28689 2 8.5 2H4.5ZM4 3.5C4 3.22386 4.22386 3 4.5 3H8.5V6C8.5 6.82843 9.17157 7.5 10 7.5H12V12.5C12 12.7761 11.7761 13 11.5 13H4.5C4.22386 13 4 12.7761 4 12.5V3.5ZM11.8437 6.5C11.8032 6.41843 11.7552 6.34029 11.7 6.26667L9.7 3.6C9.64012 3.52016 9.57303 3.44726 9.5 3.38194V6C9.5 6.27614 9.72386 6.5 10 6.5H11.8437Z" fill="#333333"/>
</svg>
