<svg width="16" height="16" viewBox="0 0 16 16" fill="none" xmlns="http://www.w3.org/2000/svg">
<path d="M3.5 3.5C3.5 2.94771 3.94772 2.5 4.5 2.5H8.5C9.12951 2.5 9.72229 2.79639 10.1 3.3L12.1 5.96667C12.3596 6.31286 12.5 6.73393 12.5 7.16667V12.5C12.5 13.0523 12.0523 13.5 11.5 13.5H4.5C3.94772 13.5 3.5 13.0523 3.5 12.5V3.5Z" fill="#1C1C1E"/>
<path d="M9 2.5V6C9 6.55228 9.44772 7 10 7H12M4.5 13.5H11.5C12.0523 13.5 12.5 13.0523 12.5 12.5V7.16667C12.5 6.73393 12.3596 6.31286 12.1 5.96667L10.1 3.3C9.72229 2.79639 9.12951 2.5 8.5 2.5H4.5C3.94772 2.5 3.5 2.94771 3.5 3.5V12.5C3.5 13.0523 3.94772 13.5 4.5 13.5Z" stroke="white"/>
</svg>
