<svg width="16" height="17" viewBox="0 0 16 17" fill="none" xmlns="http://www.w3.org/2000/svg">
<mask id="mask0_2118_4891" style="mask-type:alpha" maskUnits="userSpaceOnUse" x="0" y="0" width="16" height="17">
<rect y="0.5" width="16" height="16" fill="#D9D9D9"/>
</mask>
<g mask="url(#mask0_2118_4891)">
<path d="M0.666504 14.5L7.99984 1.83337L15.3332 14.5H0.666504ZM2.9665 13.1667H13.0332L7.99984 4.50004L2.9665 13.1667ZM7.99984 12.5C8.18873 12.5 8.34706 12.4362 8.47484 12.3084C8.60262 12.1806 8.6665 12.0223 8.6665 11.8334C8.6665 11.6445 8.60262 11.4862 8.47484 11.3584C8.34706 11.2306 8.18873 11.1667 7.99984 11.1667C7.81095 11.1667 7.65262 11.2306 7.52484 11.3584C7.39706 11.4862 7.33317 11.6445 7.33317 11.8334C7.33317 12.0223 7.39706 12.1806 7.52484 12.3084C7.65262 12.4362 7.81095 12.5 7.99984 12.5ZM7.33317 10.5H8.6665V7.16671H7.33317V10.5Z" fill="#1C1B1F"/>
</g>
</svg>
