<svg width="23" height="22" viewBox="0 0 23 22" fill="none" xmlns="http://www.w3.org/2000/svg">
<path d="M15.7072 6.94837L9.66634 12.9892L6.37551 9.70754L5.08301 11L9.66634 15.5834L16.9997 8.25004L15.7072 6.94837ZM11.4997 1.83337C6.43967 1.83337 2.33301 5.94004 2.33301 11C2.33301 16.06 6.43967 20.1667 11.4997 20.1667C16.5597 20.1667 20.6663 16.06 20.6663 11C20.6663 5.94004 16.5597 1.83337 11.4997 1.83337ZM11.4997 18.3334C7.44801 18.3334 4.16634 15.0517 4.16634 11C4.16634 6.94837 7.44801 3.66671 11.4997 3.66671C15.5513 3.66671 18.833 6.94837 18.833 11C18.833 15.0517 15.5513 18.3334 11.4997 18.3334Z" fill="#2E7D32"/>
</svg>
