<svg width="16" height="16" viewBox="0 0 16 16" fill="none" xmlns="http://www.w3.org/2000/svg">
<path d="M10.6654 8.60065V11.4007C10.6654 13.734 9.73203 14.6673 7.3987 14.6673H4.5987C2.26536 14.6673 1.33203 13.734 1.33203 11.4007V8.60065C1.33203 6.26732 2.26536 5.33398 4.5987 5.33398H7.3987C9.73203 5.33398 10.6654 6.26732 10.6654 8.60065Z" stroke="#171717" stroke-linecap="round" stroke-linejoin="round"/>
<path d="M14.6654 4.60065V7.40065C14.6654 9.73398 13.732 10.6673 11.3987 10.6673H10.6654V8.60065C10.6654 6.26732 9.73203 5.33398 7.3987 5.33398H5.33203V4.60065C5.33203 2.26732 6.26536 1.33398 8.5987 1.33398H11.3987C13.732 1.33398 14.6654 2.26732 14.6654 4.60065Z" stroke="#171717" stroke-linecap="round" stroke-linejoin="round"/>
</svg>
