<svg xmlns="http://www.w3.org/2000/svg" height="20px" viewBox="0 -960 960 960" width="20px" fill="#e8eaed"><path d="M215.74-528Q186-528 165-549.5 144-571 144-600v-144q0-29.7 21.18-50.85Q186.35-816 216.09-816h144.17Q390-816 411-794.85q21 21.15 21 50.85v144q0 29-21.18 50.5-21.17 21.5-50.91 21.5H215.74Zm0 384Q186-144 165-165.18q-21-21.17-21-50.91v-144.17Q144-390 165.18-411q21.17-21 50.91-21h144.17Q390-432 411-410.82q21 21.17 21 50.91v144.17Q432-186 410.82-165q-21.17 21-50.91 21H215.74ZM600-528q-29 0-50.5-21.5T528-600v-144q0-29.7 21.5-50.85Q571-816 600-816h144q29.7 0 50.85 21.15Q816-773.7 816-744v144q0 29-21.15 50.5T744-528H600Zm0 384q-29 0-50.5-21.18-21.5-21.17-21.5-50.91v-144.17Q528-390 549.5-411q21.5-21 50.5-21h144q29.7 0 50.85 21.18Q816-389.65 816-359.91v144.17Q816-186 794.85-165 773.7-144 744-144H600ZM216-600h144v-144H216v144Zm384 0h144v-144H600v144Zm0 384h144v-144H600v144Zm-384 0h144v-144H216v144Zm384-384Zm0 240Zm-240 0Zm0-240Z"/></svg>