<svg width="16" height="16" viewBox="0 0 16 16" fill="none" xmlns="http://www.w3.org/2000/svg">
<path d="M13.4071 4.26416L10.593 1.45009C10.0304 0.887482 9.26736 0.571411 8.47171 0.571411H3.71436C2.60979 0.571411 1.71436 1.46684 1.71436 2.57141V13.0938C1.71436 14.1984 2.60978 15.0938 3.71435 15.0938H12.2858C13.3904 15.0938 14.2858 14.1984 14.2858 13.0938V6.38548C14.2858 5.58983 13.9697 4.82677 13.4071 4.26416Z" stroke="#171717" stroke-width="0.995556" stroke-linecap="round" stroke-linejoin="round"/>
<path d="M4.19995 12V7.70621C4.19995 7.55289 4.32425 7.42859 4.47757 7.42859C4.58683 7.42859 4.68593 7.49267 4.73075 7.5923L5.59171 9.50585C5.64879 9.63271 5.77497 9.7143 5.91409 9.7143C6.05319 9.7143 6.17936 9.63273 6.23644 9.50588L7.09768 7.59228C7.14252 7.49266 7.24161 7.42859 7.35085 7.42859C7.50419 7.42859 7.6285 7.55289 7.6285 7.70622V12" stroke="#171717" stroke-linecap="round" stroke-linejoin="round"/>
<path d="M10.8572 7.42859V11.9999" stroke="#171717" stroke-linecap="round" stroke-linejoin="round"/>
<path d="M9.5 10.8572L10.8 12.1572L12.1 10.8572" stroke="#171717" stroke-width="0.9" stroke-linecap="round" stroke-linejoin="round"/>
</svg>
