<svg width="16" height="16" viewBox="0 0 16 16" fill="none" xmlns="http://www.w3.org/2000/svg">
<path d="M9.15132 2.34025L10.3247 4.68692C10.4847 5.01359 10.9113 5.32692 11.2713 5.38692L13.398 5.74025C14.758 5.96692 15.078 6.95359 14.098 7.92692L12.4447 9.58025C12.1647 9.86025 12.0113 10.4003 12.098 10.7869L12.5713 12.8336C12.9447 14.4536 12.0847 15.0803 10.6513 14.2336L8.65799 13.0536C8.29799 12.8403 7.70465 12.8403 7.33799 13.0536L5.34465 14.2336C3.91799 15.0803 3.05132 14.4469 3.42465 12.8336L3.89799 10.7869C3.98465 10.4003 3.83132 9.86025 3.55132 9.58025L1.89799 7.92692C0.924653 6.95359 1.23799 5.96692 2.59799 5.74025L4.72465 5.38692C5.07799 5.32692 5.50465 5.01359 5.66465 4.68692L6.83799 2.34025C7.47799 1.06692 8.51799 1.06692 9.15132 2.34025Z" fill="#FFBA00"/>
</svg>
