<svg width="16" height="16" viewBox="0 0 16 16" fill="none" xmlns="http://www.w3.org/2000/svg">
<g opacity="0.5">
<path d="M4.21594 1C3.79948 1 3.53477 1.31897 3.53477 1.68668C3.53477 2.04293 3.85938 2.33534 4.21594 2.33333L5.34384 2.33534L5.3436 5.35268C5.3436 5.44225 5.26862 5.52899 5.20522 5.59239L2.43472 8.77204C2.37139 8.83537 2.33657 8.92204 2.33655 9.01163L2.33594 9.54668C2.33594 9.92001 2.62702 10.2214 3.00927 10.2214L7.33078 10.2221L7.33526 14.4C7.33563 14.7679 7.634 15 8.00193 15H8.01594C8.38412 15 8.68259 14.7682 8.6826 14.4L8.68275 10.223L13.0026 10.2213C13.3693 10.2213 13.6693 9.92001 13.6686 9.54668L13.6693 9.01078C13.6693 8.92122 13.6332 8.83471 13.5696 8.77107L10.8064 5.59145C10.7452 5.53017 10.6824 5.4439 10.6824 5.35433L10.6829 2.33676L11.8093 2.33334C12.2825 2.33334 12.492 1.93102 12.492 1.68001C12.492 1.26906 12.1693 1.00001 11.8093 1H4.21594ZM6.70711 2.33483L9.37687 2.33333L9.38048 5.94579L11.9314 8.89026L4.13249 8.88794L6.70923 5.93339L6.70711 2.33483Z" fill="#2B2F36"/>
</g>
</svg>
