<svg width="16" height="16" viewBox="0 0 16 16" fill="none" xmlns="http://www.w3.org/2000/svg">
<path d="M3.52189 12.4331L3.90189 10.7864C3.98856 10.3998 3.83523 9.85977 3.55523 9.57977L1.90189 7.92643C0.928559 6.9531 1.24189 5.96643 2.60189 5.73977L4.72856 5.38643C5.08189 5.32643 5.50856 5.0131 5.66856 4.68643L6.84189 2.33977C7.47523 1.06643 8.51523 1.06643 9.15523 2.33977L10.3286 4.68643C10.4019 4.83977 10.5419 4.98643 10.6952 5.1131" stroke="#171717" stroke-linecap="round" stroke-linejoin="round"/>
<path d="M13.401 5.73975C14.761 5.96641 15.081 6.95308 14.101 7.92641L12.4477 9.57975C12.1677 9.85975 12.0143 10.3997 12.101 10.7864L12.5743 12.8331C12.9477 14.4531 12.0877 15.0797 10.6543 14.2331L8.66099 13.0531C8.30099 12.8397 7.70766 12.8397 7.34099 13.0531L5.34766 14.2331" stroke="#171717" stroke-linecap="round" stroke-linejoin="round"/>
<path d="M14.6693 1.33301L1.33594 14.6663" stroke="#171717" stroke-linecap="round" stroke-linejoin="round"/>
</svg>
