<svg width="16" height="16" viewBox="0 0 16 16" fill="none" xmlns="http://www.w3.org/2000/svg">
<g opacity="0.5">
<path d="M9.2623 2.18766C8.99451 1.91977 8.61919 1.95467 8.38274 2.1912C8.15367 2.42036 8.17437 2.81725 8.40493 3.04532L9.12891 3.77213L7.18854 5.71288C7.13094 5.77049 7.02695 5.77806 6.94541 5.77806L3.11932 6.04124C3.03787 6.04124 2.95976 6.07459 2.90214 6.13221L2.55769 6.47598C2.31763 6.71613 2.31101 7.09723 2.5568 7.34311L5.33522 10.1233L2.50916 12.9561C2.27282 13.193 2.27301 13.5767 2.5096 13.8134L2.51861 13.8224C2.75536 14.0592 3.1392 14.0592 3.37596 13.8224L6.20394 10.9936L8.98279 13.7713C9.21857 14.0071 9.60524 14.0063 9.84485 13.7657L10.1899 13.4214C10.2475 13.3638 10.2799 13.285 10.2799 13.2031L10.5477 9.38042C10.5477 9.30159 10.5628 9.20571 10.6204 9.1481L12.5611 7.20735L13.2876 7.92972C13.5919 8.23414 13.9854 8.11011 14.1468 7.94865C14.411 7.68431 14.3765 7.30363 14.145 7.07205L9.2623 2.18766ZM10.0059 4.64872L11.7235 6.36508L9.40296 8.69111L9.14988 12.226L4.1365 7.20788L7.69325 6.96485L10.0059 4.64872Z" fill="#171717"/>
</g>
</svg>
