<svg width="18" height="18" viewBox="0 0 18 18" fill="none" xmlns="http://www.w3.org/2000/svg">
<path d="M10.2967 2.63248L11.6167 5.27248C11.7967 5.63998 12.2767 5.99248 12.6817 6.05998L15.0742 6.45748C16.6042 6.71248 16.9642 7.82248 15.8617 8.91748L14.0017 10.7775C13.6867 11.0925 13.5142 11.7 13.6117 12.135L14.1442 14.4375C14.5642 16.26 13.5967 16.965 11.9842 16.0125L9.7417 14.685C9.3367 14.445 8.6692 14.445 8.2567 14.685L6.0142 16.0125C4.4092 16.965 3.4342 16.2525 3.8542 14.4375L4.3867 12.135C4.4842 11.7 4.3117 11.0925 3.9967 10.7775L2.1367 8.91748C1.0417 7.82248 1.3942 6.71248 2.9242 6.45748L5.3167 6.05998C5.7142 5.99248 6.1942 5.63998 6.3742 5.27248L7.6942 2.63248C8.4142 1.19998 9.5842 1.19998 10.2967 2.63248Z" fill="#FFBA00"/>
</svg>
