<svg width="12" height="12" viewBox="0 0 12 12" fill="none" xmlns="http://www.w3.org/2000/svg">
<path d="M2.64912 1.71521C2.64912 1.43942 2.84766 1.2002 3.16 1.2002H8.855C9.125 1.2002 9.36707 1.40199 9.36707 1.71021C9.36707 1.89847 9.20994 2.20021 8.855 2.20021L8.01019 2.20277L8.00984 4.46598C8.00984 4.53315 8.05692 4.59785 8.10288 4.64382L10.1752 7.02856C10.223 7.07629 10.25 7.14117 10.25 7.20834L10.2495 7.61027C10.25 7.89027 10.025 8.11628 9.75 8.11628L6.51011 8.11753L6.51 11.2002C6.50999 11.4763 6.28614 11.7002 6.01 11.7002H5.99949C5.72355 11.7002 5.49977 11.4761 5.49949 11.2002L5.49613 8.11681L2.255 8.11631C1.96831 8.11631 1.75 7.89027 1.75 7.61027L1.75046 7.20898C1.75048 7.14179 1.77659 7.07678 1.82409 7.02928L3.90196 4.64452C3.94951 4.59697 4.00575 4.53192 4.00575 4.46474L4.00593 2.20171L3.16 2.20021C2.89258 2.20171 2.64912 1.9824 2.64912 1.71521Z" fill="#F65B6E"/>
</svg>
