<svg width="16" height="16" viewBox="0 0 16 16" fill="none" xmlns="http://www.w3.org/2000/svg">
<g opacity="0.5">
<path d="M8.38274 2.1912C8.61919 1.95467 8.99451 1.91977 9.2623 2.18766L14.145 7.07205C14.3765 7.30363 14.411 7.68431 14.1468 7.94865C13.9854 8.11011 13.5919 8.23414 13.2876 7.92972L12.5611 7.20735L10.6204 9.1481C10.5628 9.20571 10.5477 9.30158 10.5477 9.38042L10.2799 13.2031C10.2799 13.285 10.2475 13.3638 10.1899 13.4214L9.84485 13.7657C9.60524 14.0063 9.21857 14.0071 8.98279 13.7713L6.20394 10.9936L3.37596 13.8224C3.1392 14.0592 2.75536 14.0592 2.51861 13.8224L2.5096 13.8134C2.27301 13.5767 2.27282 13.193 2.50916 12.9561L5.33522 10.1233L2.5568 7.34311C2.31101 7.09723 2.31763 6.71613 2.55769 6.47598L2.90214 6.13221C2.95976 6.07459 3.03787 6.04124 3.11932 6.04124L6.94541 5.77806C7.02695 5.77806 7.13094 5.77049 7.18854 5.71288L9.12891 3.77213L8.40493 3.04532C8.17437 2.81725 8.15367 2.42036 8.38274 2.1912Z" fill="#171717"/>
</g>
</svg>
