<svg width="16" height="16" viewBox="0 0 16 16" fill="none" xmlns="http://www.w3.org/2000/svg">
<g opacity="0.5">
<path d="M2.42691 8.77204L4.58617 6.2939L5.54809 7.25582L4.12467 8.88794L7.18111 8.88885L8.67493 10.3827L8.67479 14.6208C8.67478 14.989 8.37631 15.2875 8.00813 15.2875H7.99411C7.62619 15.2875 7.32782 14.9894 7.32745 14.6215L7.32297 10.2221L3.00146 10.2214C2.61921 10.2214 2.32812 9.92001 2.32812 9.54668L2.32874 9.01163C2.32876 8.92204 2.36357 8.83537 2.42691 8.77204Z" fill="#171717"/>
<path d="M11.9236 8.89026L11.9012 8.89025L13.1997 10.1888C13.4669 10.1012 13.6613 9.8473 13.6608 9.54668L13.6615 9.01078C13.6615 8.92122 13.6254 8.83471 13.5618 8.77107L10.7986 5.59145C10.7374 5.53017 10.6746 5.4439 10.6746 5.35433L10.675 2.33675L11.8015 2.33334C12.2747 2.33334 12.4842 1.93102 12.4842 1.68001C12.4842 1.26906 12.1615 1.00001 11.8015 1H4.20813C4.14572 1 4.08673 1.00716 4.03152 1.02058L6.70009 3.68915L6.6993 2.33483L9.36906 2.33333L9.37267 5.94579L11.9236 8.89026Z" fill="#171717"/>
</g>
<path opacity="0.5" d="M1.79688 1.2002L14.1712 13.5746" stroke="#171717" stroke-width="1.2" stroke-linecap="round"/>
</svg>
