<svg width="20" height="20" viewBox="0 0 20 20" fill="none" xmlns="http://www.w3.org/2000/svg">
<path d="M4.14301 4.54341C4.29304 4.39338 4.49653 4.30909 4.7087 4.30909H12.7087C13.0702 4.30909 13.3632 4.01604 13.3632 3.65455C13.3632 3.29305 13.0702 3 12.7087 3H4.7087C4.14933 3 3.61288 3.22221 3.21735 3.61774C2.82182 4.01327 2.59961 4.54973 2.59961 5.10909V15.2909C2.59961 15.8503 2.82182 16.3867 3.21735 16.7823C3.61288 17.1778 4.14934 17.4 4.7087 17.4H14.8905C15.4499 17.4 15.9863 17.1778 16.3819 16.7823C16.7774 16.3867 16.9996 15.8503 16.9996 15.2909V10.8545C16.9996 10.493 16.7066 10.2 16.3451 10.2C15.9836 10.2 15.6905 10.493 15.6905 10.8545V15.2909C15.6905 15.5031 15.6062 15.7066 15.4562 15.8566C15.3062 16.0066 15.1027 16.0909 14.8905 16.0909H4.7087C4.49653 16.0909 4.29304 16.0066 4.14301 15.8566C3.99299 15.7066 3.9087 15.5031 3.9087 15.2909V5.10909C3.9087 4.89692 3.99299 4.69343 4.14301 4.54341Z" fill="#1F2329" fill-opacity="0.4"/>
<path d="M17.445 6.09783C17.7099 5.85185 17.7252 5.4377 17.4793 5.1728C17.2333 4.90789 16.8191 4.89256 16.5542 5.13854L9.95066 11.2704L8.28136 9.72035C8.01646 9.47437 7.60231 9.48971 7.35633 9.75461C7.11035 10.0195 7.12569 10.4337 7.39059 10.6796L9.50527 12.6433C9.75641 12.8765 10.1449 12.8765 10.396 12.6433L17.445 6.09783Z" fill="#1F2329" fill-opacity="0.4"/>
</svg>
