<svg width="20" height="20" viewBox="0 0 20 20" fill="none" xmlns="http://www.w3.org/2000/svg">
<path d="M8.9875 15.3962L8.12521 12.93H3.35994L2.49766 15.3962H1L4.94837 4.40039H6.53679L10.4852 15.3962H8.9875ZM3.84403 11.5634H7.64112L5.73501 6.14401L3.84403 11.5634Z" fill="#1F2329" fill-opacity="0.5"/>
<path d="M17.6839 7.54205H19V15.3962H17.6839V14.0453C17.0283 15.082 16.0753 15.6004 14.8247 15.6004C13.7658 15.6004 12.8631 15.2024 12.1168 14.4066C11.3705 13.6002 10.9974 12.6211 10.9974 11.4691C10.9974 10.3172 11.3705 9.34326 12.1168 8.54738C12.8631 7.74102 13.7658 7.33784 14.8247 7.33784C16.0753 7.33784 17.0283 7.85621 17.6839 8.89296V7.54205ZM14.9911 14.2809C15.7576 14.2809 16.398 14.0139 16.9124 13.4798C17.4267 12.9352 17.6839 12.265 17.6839 11.4691C17.6839 10.6732 17.4267 10.0082 16.9124 9.47416C16.398 8.92961 15.7576 8.65733 14.9911 8.65733C14.2347 8.65733 13.5994 8.92961 13.085 9.47416C12.5707 10.0082 12.3135 10.6732 12.3135 11.4691C12.3135 12.265 12.5707 12.9352 13.085 13.4798C13.5994 14.0139 14.2347 14.2809 14.9911 14.2809Z" fill="#1F2329" fill-opacity="0.5"/>
</svg>
