<svg width="20" height="20" viewBox="0 0 20 20" fill="none" xmlns="http://www.w3.org/2000/svg">
<path d="M13.2005 3.00016C12.1798 2.99061 11.2063 3.41373 10.4871 4.16177L10.4808 4.16844L9.38111 5.34588C9.14121 5.60273 9.15496 6.00542 9.41181 6.24531C9.66865 6.4852 10.0713 6.47146 10.3112 6.21461L11.4077 5.0407C11.894 4.53649 12.5343 4.26671 13.1886 4.27283C13.8444 4.27897 14.482 4.56193 14.961 5.07775C15.4414 5.5951 15.7211 6.30419 15.7272 7.0544C15.7332 7.80278 15.4662 8.51578 14.996 9.04219L13.0818 11.1036C12.8196 11.3861 12.5071 11.6013 12.1673 11.7378C11.8277 11.8743 11.4666 11.9299 11.1078 11.9022C10.7489 11.8745 10.3975 11.7639 10.0772 11.5755C9.75665 11.3869 9.47373 11.124 9.24993 10.8018C9.04944 10.5131 8.65291 10.4417 8.36425 10.6422C8.07559 10.8426 8.00412 11.2392 8.20461 11.5278C8.52998 11.9963 8.94768 12.3876 9.43175 12.6724C9.91601 12.9573 10.4543 13.1283 11.0099 13.1711C11.5656 13.214 12.1224 13.1275 12.6417 12.9188C13.1609 12.7103 13.6285 12.3854 14.0145 11.9696L15.9326 9.90396L15.94 9.89582C16.6322 9.12396 17.0084 8.0993 16.9999 7.04413C16.9913 5.98894 16.5987 4.97104 15.8936 4.21173C15.1872 3.4509 14.2212 3.00971 13.2005 3.00016Z" fill="#1F2329" fill-opacity="0.5"/>
<path d="M8.9901 6.82886C8.43442 6.786 7.87763 6.87253 7.35826 7.08117C6.83914 7.28972 6.37154 7.61453 5.98554 8.03035L4.06743 10.096L4.06001 10.1042C3.36777 10.876 2.99163 11.9007 3.00014 12.9559C3.00866 14.0111 3.40131 15.029 4.10637 15.7883C4.81285 16.5491 5.77884 16.9903 6.79948 16.9998C7.8202 17.0094 8.79368 16.5863 9.51285 15.8382L9.52044 15.8302L10.6138 14.6528C10.8529 14.3952 10.838 13.9926 10.5804 13.7534C10.3229 13.5143 9.92025 13.5292 9.68111 13.7867L8.59175 14.9599C8.1055 15.4637 7.46547 15.7333 6.81139 15.7272C6.15563 15.721 5.518 15.4381 5.03903 14.9222C4.55864 14.4049 4.27888 13.6958 4.27283 12.9456C4.26679 12.1972 4.53376 11.4842 5.00403 10.9578L6.9182 8.89638C7.18036 8.61394 7.49286 8.39869 7.8327 8.26216C8.17234 8.12572 8.53342 8.07015 8.89223 8.09782C9.25109 8.1255 9.60253 8.23607 9.92284 8.42453C10.2434 8.61312 10.5263 8.876 10.7501 9.19821C10.9506 9.48687 11.3471 9.55834 11.6357 9.35785C11.9244 9.15736 11.9959 8.76082 11.7954 8.47217C11.47 8.00373 11.0523 7.61241 10.5683 7.32759C10.084 7.04266 9.54572 6.87172 8.9901 6.82886Z" fill="#1F2329" fill-opacity="0.5"/>
</svg>
