<svg width="19" height="12" viewBox="0 0 19 12" fill="none" xmlns="http://www.w3.org/2000/svg">
<path d="M2.75125 4.25H3.75125V11.25H2.60125V5.48L1.19125 5.88L0.91125 4.9L2.75125 4.25ZM4.88945 11.25V10.125L7.93945 7.0125C8.68112 6.27083 9.05195 5.62917 9.05195 5.0875C9.05195 4.6625 8.92279 4.33333 8.66445 4.1C8.41445 3.85833 8.09362 3.7375 7.70195 3.7375C6.96862 3.7375 6.42695 4.1 6.07695 4.825L4.86445 4.1125C5.13945 3.52917 5.52695 3.0875 6.02695 2.7875C6.52695 2.4875 7.08112 2.3375 7.68945 2.3375C8.45612 2.3375 9.11445 2.57917 9.66445 3.0625C10.2145 3.54583 10.4895 4.20417 10.4895 5.0375C10.4895 5.92917 9.99362 6.87917 9.00195 7.8875L7.02695 9.8625H10.652V11.25H4.88945ZM16.1282 5.04C16.8882 5.22 17.5032 5.575 17.9732 6.105C18.4532 6.625 18.6932 7.28 18.6932 8.07C18.6932 9.12 18.3382 9.945 17.6282 10.545C16.9182 11.145 16.0482 11.445 15.0182 11.445C14.2182 11.445 13.4982 11.26 12.8582 10.89C12.2282 10.52 11.7732 9.98 11.4932 9.27L12.9632 8.415C13.2732 9.315 13.9582 9.765 15.0182 9.765C15.6182 9.765 16.0932 9.615 16.4432 9.315C16.7932 9.005 16.9682 8.59 16.9682 8.07C16.9682 7.55 16.7932 7.14 16.4432 6.84C16.0932 6.54 15.6182 6.39 15.0182 6.39H14.6282L13.9382 5.355L16.2032 2.37H11.8082V0.749999H18.2582V2.22L16.1282 5.04Z" fill="#1F2329" fill-opacity="0.4"/>
</svg>
