<svg width="20" height="20" viewBox="0 0 20 20" fill="none" xmlns="http://www.w3.org/2000/svg">
<path fill-rule="evenodd" clip-rule="evenodd" d="M13.1747 3.625C13.1747 3.27982 12.8949 3 12.5497 3C12.2045 3 11.9247 3.27982 11.9247 3.625V4.27551H8.0766V3.625C8.0766 3.27982 7.79678 3 7.4516 3C7.10642 3 6.8266 3.27982 6.8266 3.625V4.27551H5.04347C3.97959 4.27551 3.00203 5.06576 3.00203 6.17531V8.72508V15.0989C3.00203 16.2084 3.97959 16.9987 5.04347 16.9987H14.9586C16.0224 16.9987 17 16.2084 17 15.0989V8.72508V6.17531C17 5.06576 16.0224 4.27551 14.9586 4.27551H13.1747V3.625ZM15.75 9.35008V15.0989C15.75 15.3974 15.4592 15.7487 14.9586 15.7487H5.04347C4.5428 15.7487 4.25203 15.3974 4.25203 15.0989V9.35008H15.75ZM4.25203 8.10008H15.75V6.17531C15.75 5.87674 15.4592 5.52551 14.9586 5.52551H13.1747V6.27889C13.1747 6.62407 12.8949 6.90389 12.5497 6.90389C12.2045 6.90389 11.9247 6.62407 11.9247 6.27889V5.52551H8.0766V6.27889C8.0766 6.62407 7.79678 6.90389 7.4516 6.90389C7.10642 6.90389 6.8266 6.62407 6.8266 6.27889V5.52551H5.04347C4.5428 5.52551 4.25203 5.87674 4.25203 6.17531V8.10008Z" fill="#1F2329" fill-opacity="0.5"/>
</svg>
