<svg xmlns="http://www.w3.org/2000/svg" viewBox="-0.5 -0.5 16 16" fill="currentColor" id="File-Txt-Light--Streamline-Phosphor.svg" height="16" width="16"><desc>File Txt Light Streamline Icon: https://streamlinehq.com</desc><path d="M1.245193359375 7.34302734375c0.25908984375 0.00001171875 0.46911328124999996 -0.210017578125 0.46911328124999996 -0.46911328124999996V1.24458984375c0 -0.086361328125 0.0700078125 -0.15636914062499999 0.15636914062499999 -0.15636914062499999h7.036658203125v3.909251953125c0 0.25908984375 0.210017578125 0.46912499999999996 0.469107421875 0.46911328124999996h3.909251953125v1.407328125c0 0.361125 0.39092578125 0.5868222656250001 0.703669921875 0.406265625 0.145142578125 -0.08380078125 0.23455078125 -0.2386640625 0.23455078125 -0.406265625V4.99747265625c-0.00010546875 -0.12437109375 -0.04960546875 -0.24360937500000002 -0.1376015625 -0.331505859375l-4.378365234375001 -4.3783593750000005c-0.087890625 -0.088001953125 -0.207134765625 -0.13749609375 -0.331505859375 -0.137607421875H1.8706757812500001c-0.604529296875 0 -1.0945898437500001 0.49006640625 -1.0945898437500001 1.0945898437500001v5.62932421875c0 0.25908984375 0.210017578125 0.46912499999999996 0.469107421875 0.46911328124999996Zm8.600361328125 -5.5917949218750005 2.7771328125 2.7771328125h-2.7771328125Zm-0.4003125 8.522167968749999 -1.36901953125 1.917099609375 1.36901953125 1.916314453125c0.21065625000000002 0.293712890625 0.02436328125 0.705322265625 -0.335326171875 0.740900390625 -0.16693359375 0.01651171875 -0.329994140625 -0.05729296875 -0.4277578125 -0.19360546874999998L7.5 12.997371093749999l-1.182158203125 1.6551796875c-0.21065625000000002 0.29370703125 -0.660263671875 0.249240234375 -0.809302734375 -0.08005078125000001 -0.0691640625 -0.152818359375 -0.051550781250000004 -0.3309375 0.046218749999999996 -0.46725l1.36901953125 -1.9147500000000002 -1.36901953125 -1.916314453125c-0.21065625000000002 -0.293712890625 -0.02436328125 -0.705322265625 0.335326171875 -0.740900390625 0.16693359375 -0.01651171875 0.329994140625 0.05729296875 0.4277578125 0.19360546874999998L7.5 11.38362890625l1.182158203125 -1.6551738281250001c0.21065625000000002 -0.293712890625 0.660263671875 -0.24924609375 0.809302734375 0.08004492187500001 0.0691640625 0.152818359375 0.051550781250000004 0.3309375 -0.046218749999999996 0.46725Zm-4.9162734375 -0.272080078125c0 0.259072265625 -0.21003515625 0.46909570312500004 -0.46911328124999996 0.469107421875h-1.0945898437500001v3.909251953125c0 0.361125 -0.39092578125 0.5868222656250001 -0.7036640625 0.406265625 -0.145142578125 -0.08380078125 -0.23455664062499998 -0.2386640625 -0.23455664062499998 -0.406265625v-3.909251953125h-1.0945898437500001c-0.361125 0 -0.5868222656250001 -0.39092578125 -0.40625976562500005 -0.7036640625 0.08380078125 -0.1451484375 0.23865234375000002 -0.23456249999999998 0.40625976562500005 -0.23455664062499998h3.127400390625c0.259078125 0.00001171875 0.46911328124999996 0.21003515625 0.46911328124999996 0.46911328124999996Zm10.007689453125 0c0 0.259072265625 -0.21003515625 0.46909570312500004 -0.46911328124999996 0.469107421875h-1.0945898437500001v3.909251953125c0 0.361125 -0.39092578125 0.5868222656250001 -0.7036640625 0.406265625 -0.145142578125 -0.08380078125 -0.23455664062499998 -0.2386640625 -0.23455664062499998 -0.406265625v-3.909251953125h-1.0945898437500001c-0.361125 0 -0.5868222656250001 -0.39092578125 -0.40625976562500005 -0.7036640625 0.08380078125 -0.1451484375 0.23865234375000002 -0.23456249999999998 0.40625976562500005 -0.23455664062499998h3.127400390625c0.259078125 0.00001171875 0.46911328124999996 0.21003515625 0.46911328124999996 0.46911328124999996Z" stroke-width="1"></path></svg>