<svg xmlns="http://www.w3.org/2000/svg" viewBox="-0.5 -0.5 16 16" fill="currentColor" id="File-Md-Light--Streamline-Phosphor.svg" height="16" width="16"><desc>File Md Light Streamline Icon: https://streamlinehq.com</desc><path d="m13.858470703125 4.312119140625001 -4.03529296875 -4.03529296875c-0.081005859375 -0.08110546875 -0.19090429687500002 -0.1267265625 -0.30553125000000003 -0.126826171875H2.599998046875c-0.55715625 0 -1.0088203125 0.4516640625 -1.0088203125 1.0088203125v5.188236328125c0 0.332830078125 0.36029296875 0.54084375 0.64852734375 0.374431640625 0.13376953125 -0.077232421875 0.21617578125 -0.219966796875 0.21617578125 -0.374431640625V1.158826171875c0 -0.079599609375 0.0645234375 -0.14412304687500002 0.1441171875 -0.14412304687500002h6.485296875v3.6029414062500003c0 0.23878710937500003 0.19357031249999998 0.432357421875 0.4323515625 0.432357421875h3.6029414062500003v9.367646484375001c0 0.33282421875 0.36029296875 0.540837890625 0.6485332031250001 0.37442578125000003 0.13376953125 -0.077232421875 0.21617578125 -0.2199609375 0.21617578125 -0.37442578125000003V4.61764453125c-0.00010546875 -0.114626953125 -0.045720703125 -0.22452539062500002 -0.126826171875 -0.305525390625Zm-3.90847265625 -2.686353515625L12.50953125 4.18529296875h-2.559533203125Zm-1.0088203125 7.171294921875h-1.152943359375c-0.23878710937500003 -0.00001171875 -0.4323515625 0.19355859375 -0.4323515625 0.4323515625v4.03529296875c0 0.23878124999999997 0.19357031249999998 0.4323515625 0.4323515625 0.4323515625h1.152943359375c1.886009765625 0 3.064763671875 -2.0416640625 2.1217617187499997 -3.675 -0.4376484375 -0.758033203125 -1.2464648437499999 -1.22499609375 -2.1217617187499997 -1.22499609375Zm0 4.03529296875H8.220585937500001v-3.17058984375h0.720591796875c1.220361328125 0.000744140625 1.982279296875 1.32228515625 1.3714570312499998 2.37877734375 -0.28313671875 0.48972070312500005 -0.8057753906249999 0.791466796875 -1.3714570312499998 0.7918125Zm-3.02647265625 -3.6029414062500003v4.03529296875c0 0.33282421875 -0.36029296875 0.54084375 -0.64852734375 0.374431640625 -0.13376953125 -0.077232421875 -0.21617578125 -0.219966796875 -0.21617578125 -0.374431640625v-2.666173828125L3.819234375 12.359648437499999c-0.172072265625 0.24651562500000002 -0.53698828125 0.24651562500000002 -0.709060546875 0l-1.23076171875 -1.7611171875v2.666173828125c0 0.33282421875 -0.36029296875 0.54084375 -0.64852734375 0.374431640625 -0.13377539062500002 -0.077232421875 -0.21618164062499998 -0.219966796875 -0.21618164062499998 -0.374431640625v-4.03529296875c-0.00032226562499999996 -0.33282421875 0.359771484375 -0.541189453125 0.648169921875 -0.37505859375 0.055013671874999996 0.031693359375 0.10237500000000001 0.075111328125 0.13871484374999998 0.12717773437500002l1.663119140625 2.377939453125 1.66311328125 -2.377939453125c0.1905 -0.27291796875 0.604998046875 -0.237275390625 0.746103515625 0.06416015625 0.026923828125 0.05750390625 0.040845703125 0.12022851562499999 0.04078125 0.183720703125Z" stroke-width="1"></path></svg>