<svg width="16" height="16" viewBox="0 0 16 16" fill="none" xmlns="http://www.w3.org/2000/svg">
<g clip-path="url(#clip0_54_39)">
<path d="M9.35439 14.2642H6.64556V15.28H9.35439V14.2642ZM1.73577 9.35441V6.64558H0.719971V9.35441H1.73577ZM14.2641 9.05844V9.35441H15.2799V9.05844H14.2641ZM9.95789 2.99623L12.6388 5.40903L13.3183 4.65398L10.6375 2.24118L9.95789 2.99623ZM15.2799 9.05844C15.2799 7.915 15.2901 7.19109 15.0016 6.54332L14.0738 6.95659C14.2539 7.36108 14.2641 7.8253 14.2641 9.05844H15.2799ZM12.6388 5.40903C13.5554 6.23392 13.8936 6.55211 14.0738 6.95659L15.0016 6.54332C14.7132 5.89554 14.1682 5.41888 13.3183 4.65398L12.6388 5.40903ZM6.66574 1.73585C7.73694 1.73585 8.14118 1.74372 8.5014 1.88195L8.86534 0.933568C8.28851 0.712197 7.65999 0.720059 6.66574 0.720059V1.73585ZM10.6375 2.24118C9.90199 1.57923 9.44223 1.15488 8.86534 0.933568L8.5014 1.88195C8.86181 2.02024 9.16576 2.28334 9.95789 2.99623L10.6375 2.24118ZM6.64556 14.2642C5.35422 14.2642 4.43686 14.2631 3.74086 14.1695C3.05954 14.0779 2.667 13.9061 2.38044 13.6195L1.6621 14.3379C2.16891 14.8446 2.81155 15.0695 3.60554 15.1763C4.38492 15.2811 5.38295 15.28 6.64556 15.28V14.2642ZM0.719971 9.35441C0.719971 10.617 0.718919 11.615 0.823662 12.3944C0.930447 13.1884 1.15529 13.8311 1.6621 14.3379L2.38044 13.6195C2.09382 13.333 1.92204 12.9404 1.83042 12.2591C1.73688 11.5631 1.73577 10.6457 1.73577 9.35441H0.719971ZM9.35439 15.28C10.6169 15.28 11.615 15.2811 12.3943 15.1763C13.1883 15.0695 13.831 14.8446 14.3378 14.3379L13.6195 13.6195C13.3329 13.9061 12.9403 14.0779 12.259 14.1695C11.5631 14.2631 10.6457 14.2642 9.35439 14.2642V15.28ZM14.2641 9.35441C14.2641 10.6457 14.2631 11.5631 14.1695 12.2591C14.0779 12.9404 13.9061 13.333 13.6195 13.6195L14.3378 14.3379C14.8445 13.8311 15.0694 13.1884 15.1762 12.3944C15.281 11.615 15.2799 10.617 15.2799 9.35441H14.2641ZM1.73577 6.64558C1.73577 5.35431 1.73688 4.43688 1.83042 3.74095C1.92204 3.05963 2.09382 2.66709 2.38044 2.38047L1.6621 1.66219C1.15535 2.169 0.930447 2.81164 0.823662 3.60563C0.718919 4.38494 0.719971 5.38297 0.719971 6.64558H1.73577ZM6.66574 0.720059C5.39632 0.720059 4.3934 0.718944 3.61086 0.823687C2.81409 0.930349 2.16929 1.155 1.6621 1.66219L2.38044 2.38047C2.66663 2.09428 3.06034 1.92225 3.74563 1.83051C4.44509 1.73691 5.36772 1.73585 6.66574 1.73585V0.720059Z" fill="black"/>
<path d="M8.67712 1.56655V3.25958C8.67712 4.85574 8.67712 5.65387 9.17298 6.14973C9.6689 6.64559 10.467 6.64559 12.0632 6.64559H14.772" stroke="black"/>
<path d="M5.62968 12.4019V9.01585M5.62968 9.01585L4.27527 10.2856M5.62968 9.01585L6.9841 10.2856" stroke="black" stroke-linecap="round" stroke-linejoin="round"/>
</g>
<defs>
<clipPath id="clip0_54_39">
<rect width="16" height="16" fill="white"/>
</clipPath>
</defs>
</svg>
