<svg xmlns="http://www.w3.org/2000/svg" viewBox="-0.5 -0.5 16 16" fill="currentColor" id="File-X-Light--Streamline-Phosphor.svg" height="16" width="16"><desc>File X Light Streamline Icon: https://streamlinehq.com</desc><path d="m13.570236328125 4.312119140625001 -4.03529296875 -4.03529296875c-0.081005859375 -0.08110546875 -0.19090429687500002 -0.1267265625 -0.30553125000000003 -0.126826171875H2.3117636718749996c-0.55715625 0 -1.0088203125 0.4516640625 -1.0088203125 1.0088203125v12.682353515625001c0 0.557162109375 0.4516640625 1.008826171875 1.0088203125 1.008826171875h10.37647265625c0.55715625 0 1.0088203125 -0.4516640625 1.0088203125 -1.008826171875V4.61764453125c-0.000099609375 -0.114626953125 -0.04571484375 -0.22452539062500002 -0.1268203125 -0.305525390625Zm-3.90847265625 -2.686353515625 2.55952734375 2.55952734375h-2.55952734375Zm3.17058984375 12.215408203125001c0 0.07959375 -0.064529296875 0.1441171875 -0.1441171875 0.14412304687500002H2.3117636718749996c-0.07959375 0 -0.1441171875 -0.0645234375 -0.1441171875 -0.14412304687500002V1.158826171875c0 -0.079599609375 0.0645234375 -0.14412304687500002 0.1441171875 -0.14412304687500002h6.485296875v3.6029414062500003c0 0.23878710937500003 0.19357031249999998 0.432357421875 0.4323515625 0.432357421875h3.6029414062500003Zm-3.29741015625 -6.646705078125c0.1685859375 0.168802734375 0.1685859375 0.442259765625 0 0.6110625000000001l-1.423166015625 1.4238808593749999 1.423166015625 1.4238808593749999c0.24349218749999998 0.2268984375 0.150046875 0.632302734375 -0.16819921875 0.7297265625 -0.15816796875 0.048416015625 -0.33009375 0.0023496093749999997 -0.44286328125 -0.1186640625L7.5 9.841189453125l-1.4238808593749999 1.423166015625c-0.243498046875 0.2268984375 -0.6413027343750001 0.1051171875 -0.7160566406250001 -0.21920507812499998 -0.03226171875 -0.139951171875 0.007083984375 -0.28678125 0.10499414062500001 -0.391857421875l1.423166015625 -1.4238808593749999 -1.423166015625 -1.4238808593749999c-0.24349218749999998 -0.226904296875 -0.150046875 -0.632302734375 0.16819921875 -0.7297265625 0.15816796875 -0.048416015625 0.33009375 -0.0023496093749999997 0.44286328125 0.1186640625L7.5 8.617634765624999l1.4238808593749999 -1.423166015625c0.168802734375 -0.168591796875 0.442259765625 -0.168591796875 0.6110625000000001 0Z" stroke-width="1"></path></svg>