
<svg viewBox="-0.5 -0.5 16 16" fill="none" xmlns="http://www.w3.org/2000/svg" id="Folder-2--Streamline-Solar-Ar.svg" height="16" width="16"><desc>Folder 2 Streamline Icon: https://streamlinehq.com</desc><path d="M13.75 6.875 1.25 6.875" stroke="#000000" stroke-linecap="round" stroke-width="1"></path><path d="M1.25 4.34359375c0 -0.55158125 0 -0.8273750000000001 0.04334375 -1.0571 0.19080625 -1.0112999999999999 0.9818499999999999 -1.80234375 1.99315 -1.99315C3.5162187499999997 1.25 3.7920125 1.25 4.34359375 1.25c0.24166875000000002 0 0.36250625000000003 0 0.47863749999999994 0.0108625 0.500675 0.046818750000000006 0.97559375 0.24353750000000002 1.36273125 0.56445625 0.0897875 0.0744375 0.175225 0.1598875 0.3461 0.33077500000000004L6.875 2.5c0.509875 0.5098625 0.7648125 0.76479375 1.0700625 0.93464375 0.1676875 0.0933 0.345625 0.16698125000000003 0.5301875 0.21959375C8.811187499999999 3.75 9.171687499999999 3.75 9.89275 3.75h0.23356249999999998c1.64525 0 2.4678125 0 3.0025625 0.4809125 0.0491875 0.0442375 0.09599999999999999 0.09105 0.1401875 0.14023125C13.75 4.90584375 13.75 5.7284625 13.75 7.3736875V8.75c0 2.3569999999999998 0 3.5355625 -0.73225 4.26775C12.285562500000001 13.75 11.107 13.75 8.75 13.75h-2.5c-2.357025 0 -3.53553125 0 -4.26776875 -0.73225C1.25 12.285562500000001 1.25 11.107 1.25 8.75V4.34359375Z" stroke="#000000" stroke-width="1"></path></svg>