<svg xmlns="http://www.w3.org/2000/svg" viewBox="-0.5 -0.5 16 16" fill="currentColor" id="File-Pdf-Light--Streamline-Phosphor.svg" height="16" width="16"><desc>File Pdf Light Streamline Icon: https://streamlinehq.com</desc><path d="M14.537232421875 10.00212890625c0 0.259095703125 -0.21005273437500002 0.46913671875 -0.4691484375 0.4691484375h-2.03298046875v1.56383203125h1.407451171875c0.3611484375 0 0.5868691406250001 0.39095507812499997 0.406294921875 0.70372265625 -0.083806640625 0.145154296875 -0.2386875 0.23457421875 -0.406294921875 0.23457421875h-1.407451171875v1.4074453125c0 0.3611484375 -0.39095507812499997 0.5868691406250001 -0.70372265625 0.406294921875 -0.145154296875 -0.083806640625 -0.23457421875 -0.238681640625 -0.23457421875 -0.406294921875V10.00212890625c0 -0.2591015625 0.210046875 -0.4691484375 0.4691484375 -0.4691484375h2.5021289062500003c0.259107421875 0 0.4691484375 0.210046875 0.4691484375 0.4691484375ZM4.215955078125 11.565955078125c0 1.12278515625 -0.9101953125000001 2.03298046875 -2.032974609375 2.03298046875H1.401064453125v0.781916015625c0 0.3611484375 -0.39095507812499997 0.5868691406250001 -0.70372265625 0.406294921875 -0.145154296875 -0.083806640625 -0.23457421875 -0.238681640625 -0.23457421875 -0.406294921875V10.00212890625c0 -0.259107421875 0.21004101562500002 -0.4691484375 0.4691484375 -0.4691484375h1.2510644531250001c1.122744140625 0.000046875 2.032974609375 0.9102304687499999 2.032974609375 2.032974609375Zm-0.938296875 0c0 -0.604552734375 -0.49012500000000003 -1.0946484374999998 -1.094677734375 -1.094677734375H1.401064453125v2.189361328125h0.781916015625c0.604552734375 -0.000029296875 1.094677734375 -0.49012500000000003 1.094677734375 -1.094677734375Zm6.568083984375 0.62553515625c0 1.46820703125 -1.190296875 2.6584453125 -2.658509765625 2.658509765625h-1.2510644531250001c-0.259107421875 0.00001171875 -0.4691484375 -0.21003515625 -0.4691484375 -0.4691484375V10.00212890625c0 -0.259107421875 0.210046875 -0.4691484375 0.4691484375 -0.4691484375h1.2510644531250001c1.46825390625 0 2.658509765625 1.1902558593750001 2.658509765625 2.658509765625Zm-0.938296875 0c0 -0.950015625 -0.77019140625 -1.7201718750000001 -1.720212890625 -1.720212890625h-0.781916015625v3.44042578125h0.781916015625c0.950021484375 -0.000041015625 1.720212890625 -0.770197265625 1.720212890625 -1.720212890625ZM0.462767578125 6.874470703125V1.24468359375c0 -0.604576171875 0.4901015625 -1.0946835937500001 1.094677734375 -1.0946835937500001h7.506386718750001c0.12465234375 -0.000099609375 0.24421875 0.04941796875 0.33230859375 0.137619140625l4.378728515625 4.37872265625c0.08772070312500001 0.088025390625 0.13693359375 0.2072578125 0.136833984375 0.331529296875v1.876599609375c0 0.3611484375 -0.3909609375 0.5868691406250001 -0.70372265625 0.406294921875 -0.145154296875 -0.083806640625 -0.23457421875 -0.2386875 -0.23457421875 -0.406294921875V5.46701953125h-3.90957421875c-0.259107421875 0 -0.4691484375 -0.21004101562500002 -0.4691484375 -0.4691484375V1.088296875H1.5574453125c-0.0863671875 0 -0.156380859375 0.070013671875 -0.156380859375 0.15638671875000001v5.629787109375c0 0.3611484375 -0.3909609375 0.5868691406250001 -0.70372265625 0.406294921875 -0.145154296875 -0.083806640625 -0.23457421875 -0.2386875 -0.23457421875 -0.406294921875Zm9.070212890625001 -2.3457480468750003h2.777361328125l-2.777361328125 -2.777361328125Z" stroke-width="1"></path></svg>