<svg width="17" height="16" viewBox="0 0 17 16" fill="none" xmlns="http://www.w3.org/2000/svg">
<path d="M8.20011 11.9042C8.20011 13.5068 6.90092 14.8059 5.29836 14.8059C3.69579 14.8059 2.39661 13.5068 2.39661 11.9042C2.39661 10.3016 3.69579 9.00244 5.29836 9.00244C6.90092 9.00244 8.20011 10.3016 8.20011 11.9042Z" stroke="#666D76"/>
<path d="M8.20007 11.904V3.19873" stroke="#666D76"/>
<path d="M11.1864 6.14349L9.27614 5.1883C9.01139 5.05599 8.87901 4.9898 8.7697 4.90618C8.48657 4.68968 8.29295 4.37649 8.22595 4.02637C8.20007 3.89124 8.20007 3.74324 8.20007 3.4473C8.20007 2.7428 8.20007 2.39055 8.28682 2.15112C8.51607 1.51824 9.15045 1.12618 9.81901 1.20418C10.072 1.23368 10.3871 1.39118 11.0171 1.70624L12.9275 2.66143C13.1923 2.7938 13.3246 2.85999 13.4339 2.94355C13.7171 3.16005 13.9107 3.47324 13.9776 3.82337C14.0036 3.95855 14.0036 4.10649 14.0036 4.40249C14.0036 5.10693 14.0036 5.45918 13.9168 5.69862C13.6876 6.33149 13.0531 6.72355 12.3846 6.64562C12.1316 6.61605 11.8166 6.45855 11.1864 6.14349Z" stroke="#666D76" stroke-linecap="round"/>
</svg>
