<svg width="17" height="16" viewBox="0 0 17 16" fill="none" xmlns="http://www.w3.org/2000/svg">
<g clip-path="url(#clip0_3449_43627)">
<path d="M15.1394 7.30103H1.16113" stroke="#666D76" stroke-linecap="round"/>
<path d="M1.16113 4.47032C1.16113 3.85347 1.16113 3.54508 1.20956 3.28818C1.42295 2.15729 2.30755 1.27268 3.43845 1.05929C3.69535 1.01086 4.00374 1.01086 4.62059 1.01086C4.89084 1.01086 5.02596 1.01086 5.15579 1.023C5.71571 1.07533 6.24675 1.2953 6.67966 1.65423C6.7801 1.73741 6.87561 1.83299 7.0667 2.02408L7.45131 2.40869C8.02152 2.97883 8.30659 3.26391 8.64795 3.45385C8.83547 3.55818 9.03448 3.64059 9.24084 3.69944C9.61651 3.80651 10.0196 3.80651 10.826 3.80651H11.0872C12.927 3.80651 13.8468 3.80651 14.4448 4.34427C14.4998 4.39378 14.5522 4.44611 14.6016 4.50111C15.1394 5.09905 15.1394 6.01892 15.1394 7.85873V9.39781C15.1394 12.0336 15.1394 13.3515 14.3206 14.1703C13.5018 14.9891 12.1838 14.9891 9.54808 14.9891H6.75243C4.11663 14.9891 2.7988 14.9891 1.97993 14.1703C1.16113 13.3515 1.16113 12.0336 1.16113 9.39781V4.47032Z" stroke="#666D76"/>
</g>
<defs>
<clipPath id="clip0_3449_43627">
<rect width="16" height="16" fill="white" transform="translate(0.150391)"/>
</clipPath>
</defs>
</svg>
