<svg xmlns="http://www.w3.org/2000/svg" viewBox="-0.5 -0.5 16 16" fill="none" stroke="#000000" stroke-linecap="round" stroke-linejoin="round" id="File-Audio--Streamline-Lucide.svg" height="16" width="16"><desc>File Audio Streamline Icon: https://streamlinehq.com</desc><path d="M11.8431875 14.1818125H12.177249999999999C12.9153125 14.1818125 13.513625000000001 13.583499999999999 13.513625000000001 12.845437500000001V4.1590625L10.172749999999999 0.8181875H4.159125C3.4210625 0.8181875 2.82275 1.4165 2.82275 2.1545625V4.1590625" stroke-width="1"></path><path d="M9.5045625 0.8181875V3.490875C9.5045625 4.2289375 10.102875000000001 4.82725 10.8409375 4.82725H13.513625000000001" stroke-width="1"></path><path d="M1.486375 12.177249999999999C1.486375 11.1485625 2.6 10.5055625 3.4909375 11.019937500000001C3.904375 11.2586875 4.1590625 11.6998125 4.1590625 12.177249999999999V12.845437500000001C4.1590625 13.8741875 3.0454375000000002 14.517125 2.1545625 14.002749999999999C1.7410625 13.764062500000001 1.486375 13.322875 1.486375 12.845437500000001V10.172749999999999C1.4901875 7.086562499999999 4.8335625 5.1618125 7.5043125 6.70825C8.74075 7.4241875 9.502749999999999 8.744 9.5045625 10.172749999999999V12.845437500000001C9.5045625 13.8741875 8.3909375 14.517125 7.5 14.002749999999999C7.0865 13.764062500000001 6.8318125 13.322875 6.8318125 12.845437500000001V12.177249999999999C6.8318125 11.1485625 7.9454375 10.5055625 8.836375 11.019937500000001C9.249812499999999 11.2586875 9.5045625 11.6998125 9.5045625 12.177249999999999" stroke-width="1"></path></svg>