<svg viewBox="-0.5 -0.5 16 16" fill="none" xmlns="http://www.w3.org/2000/svg" id="Document-Text--Streamline-Solar-Ar.svg" height="16" width="16"><desc>Document Text Streamline Icon: https://streamlinehq.com</desc><path d="M1.875 6.25c0 -2.357025 0 -3.53553125 0.73223125 -4.26776875C3.33946875 1.25 4.517975 1.25 6.875 1.25h1.25c2.3569999999999998 0 3.5355625 0 4.26775 0.73223125C13.125 2.71446875 13.125 3.8929750000000003 13.125 6.25v2.5c0 2.3569999999999998 0 3.5355625 -0.73225 4.26775C11.660562500000001 13.75 10.482 13.75 8.125 13.75h-1.25c-2.357025 0 -3.53553125 0 -4.26776875 -0.73225C1.875 12.285562500000001 1.875 11.107 1.875 8.75v-2.5Z" stroke="#000000" stroke-width="1"></path><path d="M5 7.5h5" stroke="#000000" stroke-linecap="round" stroke-width="1"></path><path d="M5 5h5" stroke="#000000" stroke-linecap="round" stroke-width="1"></path><path d="M5 10h3.125" stroke="#000000" stroke-linecap="round" stroke-width="1"></path></svg>