<svg width="16" height="16" viewBox="0 0 16 16" fill="none" xmlns="http://www.w3.org/2000/svg">
<path d="M1.16284 7.65815C1.16284 5.41046 1.16284 4.28659 1.78359 3.53015C1.89728 3.39165 2.02422 3.26471 2.16272 3.15102C2.91915 2.53027 4.04303 2.53027 6.29072 2.53027C8.53847 2.53027 9.66228 2.53027 10.4188 3.15102C10.5572 3.26471 10.6842 3.39165 10.7978 3.53015C11.4187 4.28659 11.4187 5.41046 11.4187 7.65815V8.3419C11.4187 10.5896 11.4187 11.7135 10.7978 12.4699C10.6842 12.6084 10.5572 12.7353 10.4188 12.849C9.66228 13.4698 8.53847 13.4698 6.29072 13.4698C4.04303 13.4698 2.91915 13.4698 2.16272 12.849C2.02422 12.7353 1.89728 12.6084 1.78359 12.4699C1.16284 11.7135 1.16284 10.5896 1.16284 8.3419V7.65815Z" stroke="#666D76"/>
<path d="M11.4186 6.29102L11.8688 6.06595C13.1991 5.40077 13.8645 5.06814 14.3508 5.36877C14.8372 5.66933 14.8372 6.41308 14.8372 7.90058V8.10008C14.8372 9.58758 14.8372 10.3313 14.3508 10.6319C13.8645 10.9325 13.1991 10.5999 11.8688 9.9347L11.4186 9.70964V6.29102Z" stroke="#666D76"/>
</svg>
