<svg viewBox="-0.5 -0.5 16 16" fill="none" xmlns="http://www.w3.org/2000/svg" id="Gallery-Wide--Streamline-Solar-Ar.svg" height="16" width="16"><desc>Gallery Wide Streamline Icon: https://streamlinehq.com</desc><path d="M1.25 8.75c0 -2.3569999999999998 0 -3.53553125 0.73223125 -4.26776875C2.71446875 3.75 3.8929750000000003 3.75 6.25 3.75h2.5c2.3569999999999998 0 3.5355625 0 4.26775 0.73223125C13.75 5.21446875 13.75 6.393 13.75 8.75s0 3.5355625 -0.73225 4.26775C12.285562500000001 13.75 11.107 13.75 8.75 13.75h-2.5c-2.357025 0 -3.53553125 0 -4.26776875 -0.73225C1.25 12.285562500000001 1.25 11.107 1.25 8.75Z" stroke="#000000" stroke-width="1"></path><path d="m2.5 4.375 -0.00763125 -0.625c0.07026875 -0.5818875 0.21696875000000002 -0.9840062500000001 0.52324375 -1.2892124999999999C3.60345625 1.875 4.549575 1.875 6.4418125 1.875h2.0069999999999997c1.89225 0 2.838375 0 3.4261875 0.5857875 0.3063125 0.30520625 0.453 0.707325 0.52325 1.2892124999999999v0.625" stroke="#000000" stroke-width="1"></path><path stroke="#000000" d="M10 6.5625a0.9375 0.9375 0 1 0 1.875 0 0.9375 0.9375 0 1 0 -1.875 0" stroke-width="1"></path><path d="m1.25 9.0625625 1.09474375 -0.957875c0.56954375 -0.4983125 1.4279312499999999 -0.46975 1.9630625 0.065375l2.68106875 2.6810625c0.4295 0.4295625 1.1056249999999999 0.48812500000000003 1.602625 0.1388125l0.186375 -0.13093749999999998c0.715125 -0.502625 1.6826875 -0.44437499999999996 2.3324375 0.140375L13.125 12.8125625" stroke="#000000" stroke-linecap="round" stroke-width="1"></path></svg>