<svg width="207" height="205" viewBox="0 0 207 205" fill="none" xmlns="http://www.w3.org/2000/svg">
<ellipse cx="103.5" cy="102.5" rx="103.5" ry="102.5" fill="white"/>
<path d="M102.752 16C53.1943 16 13.0083 55.0187 13.0083 103.152C13.0083 141.658 38.7225 174.327 74.3807 185.851C78.8658 186.658 80.5127 183.96 80.5127 181.658C80.5127 179.58 80.4286 172.715 80.3907 165.433C55.4239 170.704 50.1557 155.15 50.1557 155.15C46.0731 145.076 40.1907 142.397 40.1907 142.397C32.0486 136.988 40.8049 137.1 40.8049 137.1C49.8163 137.714 54.5615 146.08 54.5615 146.08C62.5662 159.404 75.5565 155.552 80.6775 153.325C81.4831 147.693 83.8087 143.847 86.3755 141.671C66.442 139.468 45.4876 131.994 45.4876 98.6005C45.4876 89.0853 48.9932 81.3105 54.734 75.2072C53.8022 73.012 50.7306 64.1484 55.6034 52.1433C55.6034 52.1433 63.1397 49.8011 80.2898 61.077C87.4482 59.1461 95.1254 58.1779 102.752 58.1445C110.379 58.1779 118.063 59.1454 125.234 61.077C142.363 49.8018 149.889 52.144 149.889 52.144C154.774 64.1478 151.701 73.0127 150.769 75.2072C156.523 81.3105 160.005 89.0853 160.005 98.6005C160.005 132.074 139.011 139.445 119.027 141.602C122.245 144.307 125.114 149.611 125.114 157.742C125.114 169.402 125.01 178.787 125.01 181.658C125.01 183.978 126.625 186.695 131.174 185.838C166.813 174.302 192.495 141.646 192.495 103.153C192.495 55.0187 152.314 16 102.752 16ZM46.6206 140.15C46.4229 140.583 45.7211 140.713 45.0824 140.415C44.431 140.132 44.0658 139.541 44.2761 139.107C44.4696 138.661 45.1728 138.536 45.8221 138.835C46.4741 139.12 46.8457 139.716 46.6206 140.15ZM51.0349 143.975C50.6072 144.36 49.7701 144.181 49.2022 143.573C48.6153 142.965 48.5052 142.152 48.9392 141.762C49.3809 141.376 50.1921 141.557 50.7804 142.164C51.3679 142.779 51.4815 143.586 51.0349 143.975ZM54.0637 148.869C53.5133 149.24 52.6145 148.892 52.0585 148.118C51.5088 147.343 51.5088 146.413 52.0704 146.041C52.6278 145.668 53.5133 146.003 54.0763 146.773C54.6246 147.561 54.6246 148.49 54.063 148.87L54.0637 148.869ZM59.1847 154.537C58.6932 155.064 57.645 154.923 56.878 154.204C56.0935 153.501 55.8754 152.504 56.369 151.977C56.8668 151.449 57.9206 151.597 58.6932 152.311C59.4714 153.012 59.7098 154.017 59.1847 154.537ZM65.8047 156.451C65.5873 157.134 64.5777 157.444 63.5618 157.154C62.5466 156.855 61.8826 156.056 62.0873 155.366C62.2984 154.678 63.3122 154.356 64.3358 154.666C65.3496 154.963 66.0157 155.756 65.8047 156.451ZM73.3375 157.263C73.3627 157.981 72.501 158.577 71.4339 158.591C70.3612 158.614 69.4925 158.032 69.4806 157.324C69.4806 156.599 70.3234 156.009 71.3968 155.991C72.4639 155.971 73.3375 156.548 73.3375 157.263ZM80.7378 156.987C80.8654 157.689 80.1243 158.409 79.0642 158.601C78.023 158.785 77.0583 158.352 76.9258 157.657C76.7968 156.938 77.5519 156.218 78.5917 156.032C79.6532 155.853 80.6025 156.274 80.7378 156.987Z" fill="#161614"/>
</svg>
