<svg width="16" height="16" viewBox="0 0 16 16" fill="none" xmlns="http://www.w3.org/2000/svg">
<path d="M6 2H3C2.44772 2 2 2.44772 2 3V6C2 6.55228 2.44772 7 3 7H6C6.55228 7 7 6.55228 7 6V3C7 2.44772 6.55228 2 6 2Z" stroke="#333333" stroke-linecap="round" stroke-linejoin="round"/>
<path d="M13 2H10C9.44772 2 9 2.44772 9 3V6C9 6.55228 9.44772 7 10 7H13C13.5523 7 14 6.55228 14 6V3C14 2.44772 13.5523 2 13 2Z" stroke="#333333" stroke-linecap="round" stroke-linejoin="round"/>
<path d="M13 9H10C9.44772 9 9 9.44772 9 10V13C9 13.5523 9.44772 14 10 14H13C13.5523 14 14 13.5523 14 13V10C14 9.44772 13.5523 9 13 9Z" stroke="#333333" stroke-linecap="round" stroke-linejoin="round"/>
<path d="M6 9H3C2.44772 9 2 9.44772 2 10V13C2 13.5523 2.44772 14 3 14H6C6.55228 14 7 13.5523 7 13V10C7 9.44772 6.55228 9 6 9Z" stroke="#333333" stroke-linecap="round" stroke-linejoin="round"/>
</svg>
