<svg width="6" height="8" viewBox="0 0 6 8" fill="none" xmlns="http://www.w3.org/2000/svg">
<g id="Vector">
<path d="M0 0.799951C0 0.46858 0.268629 0.199951 0.6 0.199951H5.4C5.73137 0.199951 6 0.46858 6 0.799951C6 1.13132 5.73137 1.39995 5.4 1.39995H0.600001C0.26863 1.39995 0 1.13132 0 0.799951Z" fill="#8F959E"/>
<path d="M0 3.99995C0 3.66858 0.268629 3.39995 0.6 3.39995H5.4C5.73137 3.39995 6 3.66858 6 3.99995C6 4.33132 5.73137 4.59995 5.4 4.59995H0.600001C0.26863 4.59995 0 4.33132 0 3.99995Z" fill="#8F959E"/>
<path d="M0 7.19995C0 6.86858 0.268629 6.59995 0.6 6.59995H5.4C5.73137 6.59995 6 6.86858 6 7.19995C6 7.53132 5.73137 7.79995 5.4 7.79995H0.600001C0.26863 7.79995 0 7.53132 0 7.19995Z" fill="#8F959E"/>
</g>
</svg>
