<svg width="16" height="17" viewBox="0 0 16 17" fill="none" xmlns="http://www.w3.org/2000/svg">
<g clip-path="url(#clip0_859_40861)">
<path d="M8.00207 15.9668C3.84348 15.9668 0.472656 12.596 0.472656 8.43737C0.472656 4.27878 3.84348 0.907959 8.00207 0.907959C12.1607 0.907959 15.5315 4.27878 15.5315 8.43737C15.5315 12.596 12.1607 15.9668 8.00207 15.9668ZM8.00207 15.0256C11.6407 15.0256 14.5903 12.076 14.5903 8.43737C14.5903 4.79878 11.6407 1.84914 8.00207 1.84914C4.36348 1.84914 1.41383 4.79878 1.41383 8.43737C1.41383 12.076 4.36348 15.0256 8.00207 15.0256Z" fill="#171717" stroke="black" stroke-width="0.133333"/>
<path d="M7.96863 12.6016C7.78728 12.6016 7.61337 12.5295 7.48513 12.4013C7.3569 12.2731 7.28486 12.0992 7.28486 11.9178C7.28486 11.7365 7.3569 11.5626 7.48513 11.4343C7.61337 11.3061 7.78728 11.2341 7.96863 11.2341C8.14997 11.2341 8.32389 11.3061 8.45212 11.4343C8.58035 11.5626 8.65239 11.7365 8.65239 11.9178C8.65239 12.0992 8.58035 12.2731 8.45212 12.4013C8.32389 12.5295 8.14997 12.6016 7.96863 12.6016ZM6.12016 7.2157C6.05257 7.21522 5.98585 7.20044 5.92438 7.17233C5.86292 7.14423 5.80809 7.10344 5.76351 7.05263C5.71893 7.00183 5.68561 6.94217 5.66572 6.87757C5.64584 6.81297 5.63986 6.7449 5.64816 6.67782C5.67922 6.41194 5.72863 6.19453 5.79639 6.02559C5.91127 5.74558 6.08998 5.49629 6.31828 5.29759C6.55006 5.08809 6.82166 4.92741 7.11686 4.82512C7.41609 4.72254 7.73043 4.671 8.04675 4.67265C8.70557 4.67265 9.25381 4.86653 9.69239 5.25476C10.131 5.64159 10.3507 6.15829 10.3507 6.803C10.3507 7.09288 10.2943 7.35547 10.1813 7.59076C10.0693 7.82653 9.83028 8.12017 9.46463 8.47123C9.09804 8.82276 8.85616 9.07265 8.73616 9.22135C8.61183 9.3793 8.51973 9.56014 8.4651 9.75359C8.43216 9.86229 8.40863 9.99076 8.39592 10.1385C8.37334 10.3879 8.17286 10.5856 7.92251 10.5856C7.85592 10.5852 7.79014 10.5709 7.72937 10.5436C7.66861 10.5164 7.6142 10.4768 7.5696 10.4273C7.52501 10.3778 7.49122 10.3196 7.47039 10.2564C7.44956 10.1931 7.44215 10.1262 7.44863 10.0599C7.4651 9.88865 7.49004 9.73947 7.52486 9.61241C7.58933 9.37006 7.68722 9.15829 7.81804 8.97712C7.94839 8.79547 8.18369 8.52912 8.52392 8.17759C8.86463 7.82653 9.08392 7.57053 9.18275 7.41194C9.27969 7.25241 9.38181 6.99312 9.38181 6.67782C9.38181 6.36253 9.21569 6.10606 8.99216 5.86323C8.76722 5.62041 8.4411 5.49853 8.01333 5.49853C7.17851 5.49853 6.7051 5.92817 6.59404 6.78747C6.56251 7.02935 6.3658 7.2157 6.12204 7.2157H6.12016Z" fill="#171717" stroke="black" stroke-width="0.133333"/>
</g>
<defs>
<clipPath id="clip0_859_40861">
<rect width="16" height="16" fill="white" transform="translate(0 0.4375)"/>
</clipPath>
</defs>
</svg>
