<svg width="20" height="20" viewBox="0 0 20 20" fill="none" xmlns="http://www.w3.org/2000/svg">
<path d="M18 8.8V10C18 13.7712 18 15.6569 16.8284 16.8284C15.6569 18 13.7712 18 10 18C6.22876 18 4.34314 18 3.17158 16.8284C2 15.6569 2 13.7712 2 10C2 6.22876 2 4.34314 3.17158 3.17158C4.34314 2 6.22876 2 10 2H11.2M6 11H13M6 14H10M13 4.5C13 5.16304 13.2634 5.79893 13.7322 6.26777C14.2011 6.73661 14.837 7 15.5 7C16.163 7 16.7989 6.73661 17.2678 6.26777C17.7366 5.79893 18 5.16304 18 4.5C18 3.83696 17.7366 3.20107 17.2678 2.73223C16.7989 2.26339 16.163 2 15.5 2C14.837 2 14.2011 2.26339 13.7322 2.73223C13.2634 3.20107 13 3.83696 13 4.5Z" stroke="#21232A" stroke-width="1.25" stroke-linecap="round"/>
</svg>
