<svg width="16" height="16" viewBox="0 0 16 16" fill="none" xmlns="http://www.w3.org/2000/svg">
<path d="M6.67502 6.675C6.4908 6.84666 6.34305 7.05366 6.24057 7.28366C6.13809 7.51366 6.08298 7.76194 6.07854 8.0137C6.0741 8.26545 6.12041 8.51553 6.21471 8.749C6.30901 8.98247 6.44937 9.19455 6.62742 9.3726C6.80547 9.55065 7.01755 9.69101 7.25102 9.78531C7.48449 9.87961 7.73457 9.92592 7.98632 9.92148C8.23808 9.91704 8.48637 9.86194 8.71636 9.75946C8.94636 9.65698 9.15336 9.50922 9.32502 9.325" stroke="black" stroke-linecap="round" stroke-linejoin="round"/>
<path d="M7.2063 3.675C7.46962 3.64219 7.73469 3.6255 8.00005 3.625C12.375 3.625 14.25 8 14.25 8C13.9706 8.5982 13.6202 9.16058 13.2063 9.675" stroke="black" stroke-linecap="round" stroke-linejoin="round"/>
<path d="M4.63125 4.63125C3.38828 5.47789 2.39367 6.64079 1.75 8C1.75 8 3.625 12.375 8 12.375C9.19744 12.3782 10.3692 12.0282 11.3687 11.3687" stroke="black" stroke-linecap="round" stroke-linejoin="round"/>
<path d="M1.75 1.75L14.25 14.25" stroke="black" stroke-linecap="round" stroke-linejoin="round"/>
</svg>
