<svg width="16" height="16" viewBox="0 0 16 16" fill="none" xmlns="http://www.w3.org/2000/svg">
<g clip-path="url(#clip0_22_30)">
<path d="M10.0643 6.23059L10.1655 6.33179C10.9519 7.11818 11.3451 7.51143 11.3451 8C11.3451 8.48857 10.9519 8.88182 10.1655 9.66816L10.0643 9.76941" stroke="black" stroke-linecap="round"/>
<path d="M8.76325 5.15155L7.99999 8L7.23672 10.8485" stroke="black" stroke-linecap="round"/>
<path d="M5.93572 6.23059L5.83453 6.33179C5.04813 7.11818 4.65494 7.51143 4.65494 8C4.65494 8.48857 5.04813 8.88182 5.83453 9.66816L5.93572 9.76941" stroke="black" stroke-linecap="round"/>
<path d="M2.10205 8C2.10205 5.21965 2.10205 3.82953 2.96576 2.96577C3.82951 2.10207 5.21964 2.10207 7.99999 2.10207C10.7803 2.10207 12.1705 2.10207 13.0342 2.96577C13.8979 3.82953 13.8979 5.21965 13.8979 8C13.8979 10.7803 13.8979 12.1705 13.0342 13.0342C12.1705 13.8979 10.7803 13.8979 7.99999 13.8979C5.21964 13.8979 3.82951 13.8979 2.96576 13.0342C2.10205 12.1705 2.10205 10.7803 2.10205 8Z" stroke="black"/>
</g>
<defs>
<clipPath id="clip0_22_30">
<rect width="14" height="14" fill="white" transform="translate(1 1)"/>
</clipPath>
</defs>
</svg>
