<svg width="16" height="16" viewBox="0 0 16 16" fill="none" xmlns="http://www.w3.org/2000/svg">
<path fill-rule="evenodd" clip-rule="evenodd" d="M6.75 2.6H12.8C13.4075 2.6 13.9 3.09249 13.9 3.7V5.31699H6.75V2.6ZM6.75 6.41699H13.9V9.58256H6.75V6.41699ZM5.65 9.58256V6.41699H2.1V9.58256H5.65ZM2.1 10.6826H5.65V13.4H3.2C2.59249 13.4 2.1 12.9075 2.1 12.3V10.6826ZM6.75 10.6826H13.9V12.3C13.9 12.9075 13.4075 13.4 12.8 13.4H6.75V10.6826ZM5.65 2.6V5.31699H2.1V3.7C2.1 3.09249 2.59249 2.6 3.2 2.6H5.65ZM1 3.7C1 2.48497 1.98497 1.5 3.2 1.5H12.8C14.015 1.5 15 2.48497 15 3.7V12.3C15 13.515 14.015 14.5 12.8 14.5H3.2C1.98497 14.5 1 13.515 1 12.3V3.7Z" fill="#171717"/>
</svg>
