<svg width="20" height="20" viewBox="0 0 20 20" fill="none" xmlns="http://www.w3.org/2000/svg">
<g opacity="0.6">
<path d="M8.125 3.125H4.375C4.04348 3.125 3.72554 3.2567 3.49112 3.49112C3.2567 3.72554 3.125 4.04348 3.125 4.375V8.125C3.125 8.45652 3.2567 8.77446 3.49112 9.00888C3.72554 9.2433 4.04348 9.375 4.375 9.375H8.125C8.45652 9.375 8.77446 9.2433 9.00888 9.00888C9.2433 8.77446 9.375 8.45652 9.375 8.125V4.375C9.375 4.04348 9.2433 3.72554 9.00888 3.49112C8.77446 3.2567 8.45652 3.125 8.125 3.125ZM8.125 8.125H4.375V4.375H8.125V8.125ZM15.625 3.125H11.875C11.5435 3.125 11.2255 3.2567 10.9911 3.49112C10.7567 3.72554 10.625 4.04348 10.625 4.375V8.125C10.625 8.45652 10.7567 8.77446 10.9911 9.00888C11.2255 9.2433 11.5435 9.375 11.875 9.375H15.625C15.9565 9.375 16.2745 9.2433 16.5089 9.00888C16.7433 8.77446 16.875 8.45652 16.875 8.125V4.375C16.875 4.04348 16.7433 3.72554 16.5089 3.49112C16.2745 3.2567 15.9565 3.125 15.625 3.125ZM15.625 8.125H11.875V4.375H15.625V8.125ZM8.125 10.625H4.375C4.04348 10.625 3.72554 10.7567 3.49112 10.9911C3.2567 11.2255 3.125 11.5435 3.125 11.875V15.625C3.125 15.9565 3.2567 16.2745 3.49112 16.5089C3.72554 16.7433 4.04348 16.875 4.375 16.875H8.125C8.45652 16.875 8.77446 16.7433 9.00888 16.5089C9.2433 16.2745 9.375 15.9565 9.375 15.625V11.875C9.375 11.5435 9.2433 11.2255 9.00888 10.9911C8.77446 10.7567 8.45652 10.625 8.125 10.625ZM8.125 15.625H4.375V11.875H8.125V15.625ZM15.625 10.625H11.875C11.5435 10.625 11.2255 10.7567 10.9911 10.9911C10.7567 11.2255 10.625 11.5435 10.625 11.875V15.625C10.625 15.9565 10.7567 16.2745 10.9911 16.5089C11.2255 16.7433 11.5435 16.875 11.875 16.875H15.625C15.9565 16.875 16.2745 16.7433 16.5089 16.5089C16.7433 16.2745 16.875 15.9565 16.875 15.625V11.875C16.875 11.5435 16.7433 11.2255 16.5089 10.9911C16.2745 10.7567 15.9565 10.625 15.625 10.625ZM15.625 15.625H11.875V11.875H15.625V15.625Z" fill="#101012"/>
</g>
</svg>