<svg width="17" height="17" viewBox="0 0 17 17" fill="none" xmlns="http://www.w3.org/2000/svg">
<g opacity="0.6">
<path d="M6.65532 5.36433C6.1857 5.19336 5.67874 5.1001 5.15 5.1001C2.71995 5.1001 0.75 7.07004 0.75 9.5001C0.75 11.9302 2.71995 13.9001 5.15 13.9001C5.28928 13.9001 5.42705 13.8936 5.56302 13.881C5.58146 13.8352 5.60362 13.7899 5.62967 13.7453L6.22523 12.7266C5.88729 12.8391 5.52577 12.9001 5.15 12.9001C3.27223 12.9001 1.75 11.3779 1.75 9.5001C1.75 7.62233 3.27223 6.1001 5.15 6.1001C5.58951 6.1001 6.00955 6.18349 6.39515 6.33532L6.65532 5.36433Z" fill="#171717"/>
<path d="M8.75223 2.17655L14.1614 3.62593C14.2681 3.65452 14.3314 3.76419 14.3028 3.87088L12.8534 9.28007C12.8368 9.34216 12.7927 9.38956 12.7377 9.4127L13.2431 10.2772C13.5173 10.1248 13.7318 9.8658 13.8194 9.53889L15.2688 4.1297C15.4403 3.48954 15.0604 2.83154 14.4202 2.66001L9.01105 1.21062C8.37089 1.03909 7.71289 1.41899 7.54136 2.05915L6.09197 7.46833C5.92044 8.10849 6.30034 8.7665 6.9405 8.93803L8.23738 9.28553L8.76065 8.39046L7.19932 7.9721C7.09262 7.94351 7.02931 7.83385 7.05789 7.72715L8.50728 2.31797C8.53587 2.21127 8.64554 2.14796 8.75223 2.17655Z" fill="#171717"/>
    <path d="M10.8816 7.22904L14.8387 13.9977C15.0336 14.331 14.7931 14.75 14.407 14.75H6.49297C6.10686 14.75 5.86645 14.331 6.06132 13.9977L10.0184 7.22904C10.2114 6.89884 10.6886 6.89884 10.8816 7.22904Z" stroke="#171717"/>
</g>
</svg>
