<svg width="16" height="16" viewBox="0 0 16 16" fill="none" xmlns="http://www.w3.org/2000/svg">
<g opacity="0.6">
<path d="M6.89922 12.9772V3.0232C6.89922 2.0782 6.50769 1.7002 5.53498 1.7002H3.06345C2.09075 1.7002 1.69922 2.0782 1.69922 3.0232V12.9772C1.69922 13.9222 2.09075 14.3002 3.06345 14.3002H5.53498C6.50769 14.3002 6.89922 13.9222 6.89922 12.9772Z" stroke="#171717" stroke-linecap="round" stroke-linejoin="round"/>
<path d="M14.2996 8.78519V3.0652C14.2996 2.0902 13.9081 1.7002 12.9354 1.7002H10.4638C9.49114 1.7002 9.09961 2.0902 9.09961 3.0652V8.78519C9.09961 9.76019 9.49114 10.1502 10.4638 10.1502H12.9354C13.9081 10.1502 14.2996 9.76019 14.2996 8.78519Z" stroke="#171717" stroke-linecap="round" stroke-linejoin="round"/>
</g>
</svg>
