<svg width="16" height="16" viewBox="0 0 16 16" fill="none" xmlns="http://www.w3.org/2000/svg">
<path fill-rule="evenodd" clip-rule="evenodd" d="M11.5522 1.33329C11.5522 1.02954 11.3059 0.783295 11.0022 0.783295C10.6984 0.783295 10.4522 1.02954 10.4522 1.33329V2.01127H5.75V1.33341C5.75 1.02965 5.50376 0.783409 5.2 0.783409C4.89624 0.783409 4.65 1.02965 4.65 1.33341V2.01127H3.66667C2.19391 2.01127 1 3.20518 1 4.67794V12C1 13.4727 2.19391 14.6666 3.66667 14.6666H12.3333C13.8061 14.6666 15 13.4727 15 12V4.67794C15 3.20518 13.8061 2.01127 12.3333 2.01127H11.5522V1.33329ZM10.4522 3.11127V3.48019C10.4522 3.78394 10.6984 4.03019 11.0022 4.03019C11.3059 4.03019 11.5522 3.78394 11.5522 3.48019V3.11127H12.3333C13.1986 3.11127 13.9 3.81269 13.9 4.67794V5.85763H2.1V4.67794C2.1 3.81269 2.80142 3.11127 3.66667 3.11127H4.65V3.4803C4.65 3.78406 4.89624 4.0303 5.2 4.0303C5.50376 4.0303 5.75 3.78406 5.75 3.4803V3.11127H10.4522ZM2.1 6.95763V12C2.1 12.8652 2.80142 13.5666 3.66667 13.5666H12.3333C13.1986 13.5666 13.9 12.8652 13.9 12V6.95763H2.1Z" fill="#171717"/>
</svg>
