<svg width="15" height="15" viewBox="0 0 15 15" fill="none" xmlns="http://www.w3.org/2000/svg">
<g id="icon_template_outlined" opacity="0.6">
<path id="Union" d="M11.7339 8.97626L11.7024 9.00328L11.7232 9.0392L13.0125 11.2712C13.399 11.9403 12.9159 12.7767 12.1428 12.7767H6.66498C6.07845 12.7767 5.65818 12.295 5.6592 11.7695L5.6593 11.7171L5.60693 11.7195C5.55512 11.7218 5.503 11.723 5.45061 11.723C3.58596 11.723 2.07441 10.2123 2.07441 8.3487C2.07441 6.48514 3.58596 4.97438 5.45061 4.97438C5.79803 4.97438 6.13311 5.02681 6.4484 5.12415L6.49801 5.13947L6.51145 5.08933L7.12678 2.79415C7.27031 2.25875 7.82095 1.94099 8.35669 2.08446L12.4299 3.17527C12.9656 3.31874 13.2835 3.86908 13.1399 4.40446L12.0485 8.47541C11.9942 8.67795 11.8818 8.84923 11.7339 8.97626ZM12.2182 4.15765L12.2312 4.10935L12.1829 4.09641L8.10971 3.0056L8.06142 2.99267L8.04848 3.04095L6.95708 7.1119L6.94413 7.16021L6.99244 7.17314L7.9688 7.43462L8.00584 7.44454L8.02503 7.41133L8.53423 6.52985C8.92075 5.86074 9.88707 5.86074 10.2736 6.52985L11.1071 7.97271L11.1674 8.07718L11.1987 7.96064L12.2182 4.15765ZM6.1238 10.6746L6.14315 10.6691L6.15323 10.6516L7.47933 8.356L7.51193 8.29955L7.44897 8.28269L6.74546 8.09429C6.20973 7.95081 5.89184 7.40047 6.03537 6.86509L6.23824 6.10839L6.2505 6.06267L6.20551 6.04793C5.96789 5.97009 5.71411 5.92802 5.45061 5.92802C4.11301 5.92802 3.02863 7.01177 3.02863 8.3487C3.02863 9.68564 4.11301 10.7694 5.45061 10.7694C5.68413 10.7694 5.91002 10.7363 6.1238 10.6746ZM9.44721 7.00665L9.40391 6.9317L9.36061 7.00665L6.62169 11.748L6.57836 11.823H6.66498H12.1428H12.2295L12.1861 11.748L9.44721 7.00665Z" fill="#171717" stroke="#F7F8FC" stroke-width="0.1"/>
</g>
</svg>
