<svg viewBox="-0.5 -0.5 16 16" fill="none" xmlns="http://www.w3.org/2000/svg" id="Gallery--Streamline-Solar-Ar.svg" height="16" width="16"><desc>Gallery Streamline Icon: https://streamlinehq.com</desc><path d="M0.6628125 7.5C0.6628125 4.276875 0.6628125 2.665375 1.6640625 1.6640625C2.665375 0.6628125 4.276875 0.6628125 7.5 0.6628125C10.723062500000001 0.6628125 12.334624999999999 0.6628125 13.335875 1.6640625C14.337187499999999 2.665375 14.337187499999999 4.276875 14.337187499999999 7.5C14.337187499999999 10.723062500000001 14.337187499999999 12.334624999999999 13.335875 13.335875C12.3346875 14.337187499999999 10.723062500000001 14.337187499999999 7.5 14.337187499999999C4.276875 14.337187499999999 2.665375 14.337187499999999 1.6640625 13.335875C0.6628125 12.3346875 0.6628125 10.723062500000001 0.6628125 7.5Z" stroke="#000000" stroke-width="1"></path><path stroke="#000000" d="M8.867437500000001 4.765125C8.865187500000001 5.81775 10.0033125 6.478125 10.916062499999999 5.953749999999999C11.3415 5.7093125 11.603375 5.25575 11.6023125 4.765125C11.6045625 3.7124375 10.466437500000001 3.052125 9.5536875 3.5765000000000002C9.12825 3.820875 8.866375 4.2745 8.867437500000001 4.765125" stroke-width="1"></path><path d="M0.6628125 7.8419375L1.860375 6.7940625C2.4834375 6.2489375 3.4225 6.280187499999999 4.007875 6.865562499999999L6.940875 9.7985625C7.410687500000001 10.268437500000001 8.150375 10.3325 8.694062500000001 9.950375000000001L8.897937500000001 9.807125C9.680250000000001 9.2573125 10.73875 9.321 11.449499999999999 9.960687499999999L13.653500000000001 11.94425" stroke="#000000" stroke-linecap="round" stroke-width="1"></path></svg>