<svg viewBox="-0.5 -0.5 16 16" fill="none" xmlns="http://www.w3.org/2000/svg" id="Document-Medicine--Streamline-Solar-Ar.svg" height="16" width="16"><desc>Document Medicine Streamline Icon: https://streamlinehq.com</desc><path d="M1.3464999999999998 6.1325625C1.3464999999999998 3.5540624999999997 1.3464999999999998 2.264875 2.1475625000000003 1.4638125C2.9485625 0.6628125 4.2378125 0.6628125 6.81625 0.6628125H8.18375C10.7621875 0.6628125 12.051437499999999 0.6628125 12.8524375 1.4638125C13.653500000000001 2.264875 13.653500000000001 3.5540624999999997 13.653500000000001 6.1325625V8.867437500000001C13.653500000000001 11.445875000000001 13.653500000000001 12.7351875 12.8524375 13.536125000000002C12.051437499999999 14.337187499999999 10.7621875 14.337187499999999 8.18375 14.337187499999999H6.81625C4.2378125 14.337187499999999 2.9485625 14.337187499999999 2.1475625000000003 13.5361875C1.3464999999999998 12.7351875 1.3464999999999998 11.445875000000001 1.3464999999999998 8.867437500000001V6.1325625Z" stroke="#000000" stroke-width="1"></path><path d="M7.5 3.3976875V4.765125M7.5 4.765125V6.1325625M7.5 4.765125H6.1325625M7.5 4.765125H8.867437500000001" stroke="#000000" stroke-linecap="round" stroke-width="1"></path><path d="M4.765125 8.867437500000001H10.234875" stroke="#000000" stroke-linecap="round" stroke-width="1"></path><path d="M5.4488125 11.6023125H9.551187500000001" stroke="#000000" stroke-linecap="round" stroke-width="1"></path></svg>