<svg width="16" height="16" viewBox="0 0 16 16" fill="none" xmlns="http://www.w3.org/2000/svg">
<mask id="mask0_536_9311" style="mask-type:alpha" maskUnits="userSpaceOnUse" x="0" y="0" width="16" height="16">
<rect width="16" height="16" fill="#D9D9D9"/>
</mask>
<g mask="url(#mask0_536_9311)">
<path d="M4.33333 14C3.68889 14 3.13889 13.7722 2.68333 13.3167C2.22778 12.8611 2 12.3111 2 11.6667C2 11.0222 2.22778 10.4722 2.68333 10.0167C3.13889 9.56111 3.68889 9.33333 4.33333 9.33333H5.33333V6.66667H4.33333C3.68889 6.66667 3.13889 6.43889 2.68333 5.98333C2.22778 5.52778 2 4.97778 2 4.33333C2 3.68889 2.22778 3.13889 2.68333 2.68333C3.13889 2.22778 3.68889 2 4.33333 2C4.97778 2 5.52778 2.22778 5.98333 2.68333C6.43889 3.13889 6.66667 3.68889 6.66667 4.33333V5.33333H9.33333V4.33333C9.33333 3.68889 9.56111 3.13889 10.0167 2.68333C10.4722 2.22778 11.0222 2 11.6667 2C12.3111 2 12.8611 2.22778 13.3167 2.68333C13.7722 3.13889 14 3.68889 14 4.33333C14 4.97778 13.7722 5.52778 13.3167 5.98333C12.8611 6.43889 12.3111 6.66667 11.6667 6.66667H10.6667V9.33333H11.6667C12.3111 9.33333 12.8611 9.56111 13.3167 10.0167C13.7722 10.4722 14 11.0222 14 11.6667C14 12.3111 13.7722 12.8611 13.3167 13.3167C12.8611 13.7722 12.3111 14 11.6667 14C11.0222 14 10.4722 13.7722 10.0167 13.3167C9.56111 12.8611 9.33333 12.3111 9.33333 11.6667V10.6667H6.66667V11.6667C6.66667 12.3111 6.43889 12.8611 5.98333 13.3167C5.52778 13.7722 4.97778 14 4.33333 14ZM4.33333 12.6667C4.61111 12.6667 4.84722 12.5694 5.04167 12.375C5.23611 12.1806 5.33333 11.9444 5.33333 11.6667V10.6667H4.33333C4.05556 10.6667 3.81944 10.7639 3.625 10.9583C3.43056 11.1528 3.33333 11.3889 3.33333 11.6667C3.33333 11.9444 3.43056 12.1806 3.625 12.375C3.81944 12.5694 4.05556 12.6667 4.33333 12.6667ZM11.6667 12.6667C11.9444 12.6667 12.1806 12.5694 12.375 12.375C12.5694 12.1806 12.6667 11.9444 12.6667 11.6667C12.6667 11.3889 12.5694 11.1528 12.375 10.9583C12.1806 10.7639 11.9444 10.6667 11.6667 10.6667H10.6667V11.6667C10.6667 11.9444 10.7639 12.1806 10.9583 12.375C11.1528 12.5694 11.3889 12.6667 11.6667 12.6667ZM6.66667 9.33333H9.33333V6.66667H6.66667V9.33333ZM4.33333 5.33333H5.33333V4.33333C5.33333 4.05556 5.23611 3.81944 5.04167 3.625C4.84722 3.43056 4.61111 3.33333 4.33333 3.33333C4.05556 3.33333 3.81944 3.43056 3.625 3.625C3.43056 3.81944 3.33333 4.05556 3.33333 4.33333C3.33333 4.61111 3.43056 4.84722 3.625 5.04167C3.81944 5.23611 4.05556 5.33333 4.33333 5.33333ZM10.6667 5.33333H11.6667C11.9444 5.33333 12.1806 5.23611 12.375 5.04167C12.5694 4.84722 12.6667 4.61111 12.6667 4.33333C12.6667 4.05556 12.5694 3.81944 12.375 3.625C12.1806 3.43056 11.9444 3.33333 11.6667 3.33333C11.3889 3.33333 11.1528 3.43056 10.9583 3.625C10.7639 3.81944 10.6667 4.05556 10.6667 4.33333V5.33333Z" fill="#1C1B1F"/>
</g>
</svg>
