<svg width="16" height="16" viewBox="0 0 16 16" fill="none" xmlns="http://www.w3.org/2000/svg">
<path d="M4.58143 5.94881C4.58143 6.32644 4.2753 6.63256 3.89774 6.63256C3.52018 6.63256 3.21399 6.32644 3.21399 5.94881C3.21399 5.57119 3.52011 5.26513 3.89774 5.26513C4.27536 5.26513 4.58143 5.57125 4.58143 5.94881Z" fill="black"/>
<path d="M4.58143 8C4.58143 8.37762 4.2753 8.68369 3.89774 8.68369C3.52018 8.68369 3.21399 8.37762 3.21399 8C3.21399 7.62238 3.52011 7.31625 3.89774 7.31625C4.27536 7.31625 4.58143 7.62238 4.58143 8Z" fill="black"/>
<path d="M6.63257 8C6.63257 8.37762 6.32645 8.68369 5.94882 8.68369C5.5712 8.68369 5.26514 8.37762 5.26514 8C5.26514 7.62238 5.57126 7.31625 5.94882 7.31625C6.32639 7.31625 6.63257 7.62238 6.63257 8Z" fill="black"/>
<path d="M6.63257 5.94881C6.63257 6.32644 6.32645 6.63256 5.94882 6.63256C5.5712 6.63256 5.26514 6.32644 5.26514 5.94881C5.26514 5.57119 5.57126 5.26513 5.94882 5.26513C6.32639 5.26513 6.63257 5.57125 6.63257 5.94881Z" fill="black"/>
<path d="M8.68372 5.94881C8.68372 6.32644 8.3776 6.63256 7.99997 6.63256C7.62235 6.63256 7.31628 6.32644 7.31628 5.94881C7.31628 5.57119 7.62235 5.26513 7.99997 5.26513C8.3776 5.26513 8.68372 5.57125 8.68372 5.94881Z" fill="black"/>
<path d="M8.68372 8C8.68372 8.37762 8.3776 8.68369 7.99997 8.68369C7.62235 8.68369 7.31628 8.37762 7.31628 8C7.31628 7.62238 7.62235 7.31625 7.99997 7.31625C8.3776 7.31625 8.68372 7.62238 8.68372 8Z" fill="black"/>
<path d="M10.7349 5.94881C10.7349 6.32644 10.4288 6.63256 10.0512 6.63256C9.67356 6.63256 9.36743 6.32644 9.36743 5.94881C9.36743 5.57119 9.67356 5.26513 10.0512 5.26513C10.4288 5.26513 10.7349 5.57125 10.7349 5.94881Z" fill="black"/>
<path d="M10.7349 8C10.7349 8.37762 10.4288 8.68369 10.0512 8.68369C9.67356 8.68369 9.36743 8.37762 9.36743 8C9.36743 7.62238 9.67356 7.31625 10.0512 7.31625C10.4288 7.31625 10.7349 7.62238 10.7349 8Z" fill="black"/>
<path d="M12.786 5.94881C12.786 6.32644 12.4799 6.63256 12.1023 6.63256C11.7246 6.63256 11.4186 6.32644 11.4186 5.94881C11.4186 5.57119 11.7246 5.26513 12.1023 5.26513C12.4799 5.26513 12.786 5.57125 12.786 5.94881Z" fill="black"/>
<path d="M12.786 8C12.786 8.37762 12.4799 8.68369 12.1023 8.68369C11.7246 8.68369 11.4186 8.37762 11.4186 8C11.4186 7.62238 11.7246 7.31625 12.1023 7.31625C12.4799 7.31625 12.786 7.62238 12.786 8Z" fill="black"/>
<path d="M1.16284 7.31625C1.16284 5.38244 1.16284 4.4155 1.76359 3.81475C2.36434 3.21394 3.33128 3.21394 5.26515 3.21394H10.7349C12.6688 3.21394 13.6357 3.21394 14.2365 3.81475C14.8372 4.4155 14.8372 5.38244 14.8372 7.31625V8.68375C14.8372 10.6176 14.8372 11.5845 14.2365 12.1853C13.6357 12.7861 12.6687 12.7861 10.7349 12.7861H5.26515C3.33128 12.7861 2.36434 12.7861 1.76359 12.1853C1.16284 11.5845 1.16284 10.6176 1.16284 8.68375V7.31625Z" stroke="black"/>
<path d="M4.58142 10.7349H11.4187" stroke="black" stroke-linecap="round"/>
</svg>
