<svg width="16" height="16" viewBox="0 0 16 16" fill="none" xmlns="http://www.w3.org/2000/svg">
<path d="M8.29141 4.50217V7.66669L10.9209 9.24422C11.3053 9.4751 11.2956 10.0356 10.9035 10.2531C10.7215 10.354 10.4994 10.3502 10.321 10.243L7.40911 8.49586C7.2338 8.39053 7.12659 8.20097 7.12665 7.99646V4.50217C7.1271 4.05385 7.61269 3.77414 8.00073 3.99868C8.18045 4.10269 8.29121 4.29452 8.29141 4.50217ZM14.6976 2.75502C14.376 2.75502 14.1152 3.01576 14.1152 3.33741V4.64777C13.653 4.11197 13.1812 3.59583 12.6505 3.05859C8.84665 -0.745725 2.35092 0.994418 0.958239 6.19085C-0.43445 11.3873 4.32042 16.1427 9.517 14.7506C10.6358 14.4508 11.6626 13.8778 12.5049 13.0828C12.8311 12.7746 12.7013 12.2289 12.2713 12.1006C12.0717 12.041 11.8555 12.0924 11.7042 12.2355C8.44153 15.3102 3.07387 13.7 2.04238 9.33712C1.01089 4.97421 5.0892 1.13078 9.38333 2.41894C10.3051 2.69546 11.144 3.1961 11.825 3.87611C12.4176 4.47596 12.9366 5.05398 13.4601 5.66693H11.7857C11.3374 5.66738 11.0577 6.15298 11.2822 6.54101C11.3862 6.72074 11.5781 6.83149 11.7857 6.8317H14.6976C15.0193 6.83168 15.28 6.57095 15.28 6.24931V3.33741C15.28 3.01576 15.0193 2.75502 14.6976 2.75502Z" fill="black"/>
</svg>

