<svg width="16" height="16" viewBox="0 0 16 16" fill="none" xmlns="http://www.w3.org/2000/svg">
<path d="M1.75 10.5C1.75 8.73225 1.75 7.84838 2.29918 7.29919C2.84835 6.75 3.73223 6.75 5.5 6.75H10.5C12.2677 6.75 13.1516 6.75 13.7008 7.29919C14.25 7.84838 14.25 8.73225 14.25 10.5C14.25 12.2677 14.25 13.1516 13.7008 13.7008C13.1516 14.25 12.2677 14.25 10.5 14.25H5.5C3.73223 14.25 2.84835 14.25 2.29918 13.7008C1.75 13.1516 1.75 12.2677 1.75 10.5Z" fill="#ED8835" stroke="#ED8835"/>
<path d="M4.25 6.75V5.5C4.25 3.42893 5.92893 1.75 8 1.75C10.0711 1.75 11.75 3.42893 11.75 5.5V6.75" stroke="#ED8835" stroke-linecap="round"/>
</svg>
