<svg width="27" height="26" viewBox="0 0 27 26" fill="none" xmlns="http://www.w3.org/2000/svg">
<path d="M7.28674 4.88434C7.28674 4.54264 6.91808 4.3303 6.62567 4.50359L6.21977 4.74408L6.21664 4.74603C6.17398 4.77264 6.08284 4.82815 5.96719 4.89858C5.69069 5.06697 5.27405 5.3207 5.04464 5.4691C4.90885 5.55693 4.83398 5.70725 4.83398 5.86314C4.83398 6.25554 5.27364 6.49281 5.59983 6.28828C5.78315 6.17334 5.97523 6.05424 6.11808 5.96684V8.79613C6.11808 9.12116 6.3797 9.38465 6.70241 9.38465C7.02513 9.38465 7.28674 9.12116 7.28674 8.79613V4.88434Z" fill="#2B2F36"/>
<path d="M6.56048 10.683C5.56511 10.683 4.90026 11.348 4.90026 12.1803C4.90026 12.293 4.99095 12.3844 5.10282 12.3844H5.82219C5.93754 12.3844 6.03106 12.2902 6.03106 12.174C6.03106 11.9132 6.2153 11.6948 6.52262 11.6948C6.67091 11.6948 6.78927 11.7427 6.86893 11.8168C6.94731 11.8898 6.99841 11.9972 6.99841 12.139C6.99841 12.3949 6.84609 12.6095 6.56306 12.9106L5.09759 14.5115C5.0052 14.6125 4.9539 14.7447 4.9539 14.882C4.9539 15.1839 5.19688 15.4286 5.49661 15.4286H7.92159C8.20248 15.4286 8.43019 15.1993 8.43019 14.9164C8.43019 14.6335 8.20248 14.4041 7.92159 14.4041H6.61413L7.36767 13.5515C7.85971 13.0212 8.16707 12.6353 8.16707 12.0596C8.16707 11.6575 8.00187 11.3085 7.71257 11.0626C7.42521 10.8183 7.02472 10.683 6.56048 10.683Z" fill="#2B2F36"/>
<path d="M6.5731 16.7271C5.76056 16.7271 5.20644 17.1157 5.00147 17.6853C4.94032 17.8552 4.98677 18.0195 5.08791 18.1348C5.18624 18.2469 5.33561 18.3141 5.49397 18.3141C5.64866 18.3141 5.7779 18.2476 5.87977 18.1673C5.98074 18.0878 6.06497 17.9867 6.13223 17.8991C6.20964 17.7983 6.33955 17.7167 6.54471 17.7167C6.71461 17.7167 6.8429 17.7679 6.9262 17.8408C7.00809 17.9125 7.05521 18.0121 7.05521 18.1323L7.05521 18.1338C7.05639 18.2682 7.00616 18.3762 6.92168 18.4524C6.83578 18.5298 6.70432 18.5829 6.53209 18.5829H6.4185C6.14806 18.5829 5.92883 18.8037 5.92883 19.0761C5.92883 19.3485 6.14806 19.5693 6.4185 19.5693H6.55417C6.77678 19.5693 6.93274 19.6298 7.03067 19.7139C7.12652 19.7962 7.18021 19.9123 7.18142 20.0562C7.18263 20.2026 7.12869 20.3234 7.03178 20.4095C6.93332 20.497 6.77781 20.5595 6.56048 20.5595C6.30207 20.5595 6.13402 20.4666 6.04077 20.3449C5.97442 20.2583 5.89156 20.1596 5.79197 20.0821C5.69134 20.0037 5.56426 19.9398 5.41242 19.9398C5.25391 19.9398 5.10446 20.0068 5.00541 20.1185C4.90373 20.2332 4.85566 20.3967 4.91327 20.5671C5.11014 21.1498 5.66129 21.5586 6.5384 21.5586C7.0242 21.5586 7.47637 21.4221 7.81008 21.1706C8.1466 20.917 8.3618 20.5451 8.35636 20.0939C8.34874 19.5333 8.05255 19.181 7.71568 19.0099C7.9902 18.8222 8.2248 18.4866 8.21752 18.0148C8.20251 17.2321 7.47506 16.7271 6.5731 16.7271Z" fill="#2B2F36"/>
<path d="M10.0517 6.66707C10.0517 6.21778 10.4133 5.85357 10.8594 5.85357H21.3596C21.8057 5.85357 22.1673 6.21778 22.1673 6.66707C22.1673 7.11635 21.8057 7.48057 21.3596 7.48057H10.8594C10.4133 7.48057 10.0517 7.11635 10.0517 6.66707Z" fill="#2B2F36"/>
<path d="M10.0517 13.1751C10.0517 12.7258 10.4133 12.3616 10.8594 12.3616H21.3596C21.8057 12.3616 22.1673 12.7258 22.1673 13.1751C22.1673 13.6244 21.8057 13.9886 21.3596 13.9886H10.8594C10.4133 13.9886 10.0517 13.6244 10.0517 13.1751Z" fill="#2B2F36"/>
<path d="M10.0517 19.6831C10.0517 19.2338 10.4133 18.8696 10.8594 18.8696H21.3596C21.8057 18.8696 22.1673 19.2338 22.1673 19.6831C22.1673 20.1323 21.8057 20.4966 21.3596 20.4966H10.8594C10.4133 20.4966 10.0517 20.1323 10.0517 19.6831Z" fill="#2B2F36"/>
</svg>
