<svg width="27" height="26" viewBox="0 0 27 26" fill="none" xmlns="http://www.w3.org/2000/svg">
<path d="M14.8139 3.25614C14.3685 3.20145 13.9631 3.51818 13.9084 3.96356L11.928 20.0924C11.8733 20.5378 12.1901 20.9432 12.6354 20.9979C13.0808 21.0526 13.4862 20.7359 13.5409 20.2905L15.5213 4.1616C15.576 3.71622 15.2592 3.31083 14.8139 3.25614Z" fill="#2B2F36"/>
<path d="M10.6683 6.67747C10.9856 6.99478 10.9856 7.50922 10.6683 7.82652L5.96155 12.5332L10.6683 17.24C10.9856 17.5573 10.9856 18.0717 10.6683 18.389C10.351 18.7063 9.83653 18.7063 9.51923 18.389L4.23798 13.1078C3.92067 12.7905 3.92067 12.276 4.23798 11.9587L9.51923 6.67747C9.83653 6.36017 10.351 6.36017 10.6683 6.67747Z" fill="#2B2F36"/>
<path d="M16.8317 6.67747C16.5144 6.99478 16.5144 7.50922 16.8317 7.82652L21.5385 12.5332L16.8317 17.24C16.5144 17.5573 16.5144 18.0717 16.8317 18.389C17.149 18.7063 17.6635 18.7063 17.9808 18.389L23.262 13.1078C23.5793 12.7905 23.5793 12.276 23.262 11.9587L17.9808 6.67747C17.6635 6.36017 17.149 6.36017 16.8317 6.67747Z" fill="#2B2F36"/>
</svg>
