<svg width="27" height="26" viewBox="0 0 27 26" fill="none" xmlns="http://www.w3.org/2000/svg">
<path d="M3.41602 5.68743C3.41602 5.17887 3.82829 4.7666 4.33685 4.7666H20.9118C21.4204 4.7666 21.8327 5.17887 21.8327 5.68743C21.8327 6.196 21.4204 6.60827 20.9118 6.60827H4.33685C3.82829 6.60827 3.41602 6.196 3.41602 5.68743Z" fill="#2B2F36"/>
<path d="M3.41602 20.4208C3.41602 19.9122 3.82829 19.4999 4.33685 19.4999H20.9118C21.4204 19.4999 21.8327 19.9122 21.8327 20.4208C21.8327 20.9293 21.4204 21.3416 20.9118 21.3416H4.33685C3.82829 21.3416 3.41602 20.9293 3.41602 20.4208Z" fill="#2B2F36"/>
<path d="M12.6243 12.1333C12.1158 12.1333 11.7035 12.5455 11.7035 13.0541C11.7035 13.5627 12.1158 13.9749 12.6243 13.9749H20.9118C21.4204 13.9749 21.8327 13.5627 21.8327 13.0541C21.8327 12.5455 21.4204 12.1333 20.9118 12.1333H12.6243Z" fill="#2B2F36"/>
</svg>
