<svg width="26" height="26" viewBox="0 0 26 26" fill="none" xmlns="http://www.w3.org/2000/svg">
<path fill-rule="evenodd" clip-rule="evenodd" d="M17.0864 4.0627C15.7831 4.05051 14.5402 4.59074 13.622 5.54583L13.6219 5.54577L13.6139 5.55434L12.2098 7.05769C11.9035 7.38563 11.9211 7.89978 12.249 8.20607C12.5769 8.51236 13.0911 8.49481 13.3974 8.16687L14.7973 6.66804C15.4182 6.02427 16.2357 5.67981 17.0712 5.68763C17.9084 5.69547 18.7226 6.05675 19.3341 6.71534C19.9474 7.37588 20.3046 8.28125 20.3124 9.2391C20.3201 10.1946 19.9792 11.105 19.3788 11.7771L16.9348 14.4091L16.9347 14.4092C16.6 14.7698 16.2011 15.0445 15.7672 15.2188C15.3335 15.3931 14.8725 15.464 14.4144 15.4287C13.9562 15.3933 13.5075 15.2522 13.0985 15.0115C12.6893 14.7708 12.3281 14.4351 12.0423 14.0237C11.7863 13.6552 11.2801 13.5639 10.9115 13.8199C10.5429 14.0759 10.4517 14.5822 10.7077 14.9507C11.1231 15.5488 11.6564 16.0484 12.2745 16.4121C12.8928 16.7759 13.58 16.9941 14.2894 17.0489C14.9989 17.1036 15.7098 16.9931 16.3729 16.7267C17.0357 16.4604 17.6328 16.0457 18.1256 15.5148L18.1257 15.5147L20.5746 12.8774L20.5747 12.8775L20.5841 12.867C21.4679 11.8815 21.9482 10.5732 21.9373 9.22599C21.9264 7.87874 21.4251 6.57909 20.5249 5.60962C19.6229 4.63821 18.3895 4.0749 17.0864 4.0627ZM11.7106 8.95114C11.0011 8.89642 10.2902 9.00689 9.62707 9.27328C8.96426 9.53955 8.36723 9.95427 7.8744 10.4852L7.8743 10.4853L5.42538 13.1226L5.42529 13.1225L5.4159 13.133C4.53207 14.1185 4.05181 15.4268 4.06268 16.774C4.07355 18.1213 4.57489 19.4209 5.4751 20.3904C6.37712 21.3618 7.61048 21.9251 8.91363 21.9373C10.2169 21.9495 11.4598 21.4093 12.378 20.4542L12.3781 20.4543L12.3877 20.4439L13.7836 18.9406C14.089 18.6118 14.0699 18.0977 13.7411 17.7923C13.4123 17.487 12.8982 17.506 12.5928 17.8349L11.202 19.3327C10.5811 19.976 9.76395 20.3202 8.92883 20.3124C8.09157 20.3045 7.27745 19.9433 6.6659 19.2847C6.05255 18.6241 5.69536 17.7188 5.68763 16.7609C5.67992 15.8054 6.02078 14.895 6.62122 14.2229L9.0652 11.5909L9.0653 11.5908C9.40003 11.2302 9.79892 10.9555 10.2328 10.7812C10.6665 10.6069 11.1275 10.536 11.5856 10.5713C12.0438 10.6067 12.4925 10.7478 12.9015 10.9885C13.3107 11.2292 13.6719 11.5649 13.9577 11.9763C14.2137 12.3448 14.7199 12.4361 15.0885 12.1801C15.4571 11.9241 15.5483 11.4178 15.2923 11.0493C14.8769 10.4512 14.3436 9.95155 13.7255 9.58791C13.1072 9.22411 12.42 9.00585 11.7106 8.95114Z" fill="#333333"/>
</svg>
