<svg width="32" height="32" viewBox="0 0 32 32" fill="none" xmlns="http://www.w3.org/2000/svg">
<path d="M15.3506 7.2002H18.1106V24.0002H15.3506V16.7282H8.15062V24.0002H5.39062V7.2002H8.15062V14.0882H15.3506V7.2002Z" fill="#1F2329"/>
<path d="M20.2207 24.0002V22.3522L24.0448 18.4162C24.8981 17.5202 25.3248 16.7735 25.3248 16.1762C25.3248 15.7389 25.1861 15.3869 24.9088 15.1202C24.6421 14.8535 24.2954 14.7202 23.8687 14.7202C23.0261 14.7202 22.4021 15.1575 21.9967 16.0322L20.1407 14.9442C20.4928 14.1762 20.9994 13.5895 21.6607 13.1842C22.3221 12.7789 23.0474 12.5762 23.8368 12.5762C24.8501 12.5762 25.7194 12.8962 26.4447 13.5362C27.1701 14.1655 27.5328 15.0189 27.5328 16.0962C27.5328 17.2589 26.9194 18.4535 25.6928 19.6802L23.5007 21.8722H27.7087V24.0002H20.2207Z" fill="#1F2329"/>
</svg>
