<svg width="26" height="26" viewBox="0 0 26 26" fill="none" xmlns="http://www.w3.org/2000/svg">
<path d="M6.60938 4.75098C6.60938 4.40054 6.89346 4.11646 7.2439 4.11646H13.2719C15.9002 4.11646 18.0308 6.2471 18.0308 8.87538C18.0308 10.2227 17.4709 11.4392 16.5712 12.305C18.1929 13.1524 19.2999 14.8504 19.2999 16.8069C19.2999 19.6104 17.0272 21.8831 14.2237 21.8831H7.2439C6.89346 21.8831 6.60938 21.599 6.60938 21.2486V4.75098ZM8.39955 11.7307H13.2719C14.8488 11.7307 16.1272 10.4524 16.1272 8.87538C16.1272 7.29841 14.8488 5.90663 13.2719 5.90663H8.39955V11.7307ZM8.39955 13.6343V19.9796H14.2237C15.9759 19.9796 17.3963 18.5591 17.3963 16.8069C17.3963 15.0547 15.9759 13.6343 14.2237 13.6343H8.39955Z" fill="#2B2F36" stroke="#1F2329"/>
</svg>
