<svg width="26" height="26" viewBox="0 0 26 26" fill="none" xmlns="http://www.w3.org/2000/svg">
<path d="M9.07552 5.018C9.07552 4.52009 8.68179 4.11646 8.1908 4.11646C7.69982 4.11646 7.29751 4.52009 7.29751 5.018V10.2469C7.29751 14.06 9.62366 16.8582 13.2242 16.8582C16.8248 16.8582 19.1509 14.06 19.1509 10.2469V5.0181C19.1509 4.52016 18.7511 4.11658 18.2601 4.1165C17.7691 4.11642 17.3729 4.52004 17.3729 5.0179V10.2469C17.3729 12.9705 15.796 15.0552 13.2242 15.0552C10.6524 15.0552 9.07552 12.9705 9.07552 10.2469V5.018ZM5.22299 19.8634C4.73201 19.8634 4.33398 20.261 4.33398 20.7589C4.33398 21.2568 4.732 21.6665 5.22299 21.6665H21.2251C21.7161 21.6665 22.1141 21.2553 22.1141 20.7574C22.1141 20.2595 21.7161 19.8634 21.2251 19.8634H5.22299Z" fill="#1F2329"/>
</svg>
