<svg width="27" height="26" viewBox="0 0 27 26" fill="none" xmlns="http://www.w3.org/2000/svg">
<path d="M7.85996 8.64213C7.88564 7.52223 8.32036 6.46638 9.10406 5.62693C10.0886 4.56472 11.5893 4 13.4433 4C15.3336 4 16.7787 4.50555 17.7386 5.50034C18.0937 5.85032 18.5097 6.35646 18.8552 6.92534C19.2436 7.5649 18.683 8.27607 17.9348 8.27607C17.3989 8.27607 17.0165 7.88098 16.7646 7.40802C16.6788 7.24707 16.5749 7.09961 16.4434 6.94585C15.7947 6.11929 14.759 5.68547 13.4547 5.68547C11.3339 5.68547 9.78895 6.92465 9.74824 8.69953C9.73102 9.4505 10.0462 10.103 10.6266 10.5144H8.19899C7.96052 9.96233 7.84416 9.33068 7.85996 8.64213ZM15.7185 13.9937H6.58288C6.12291 13.9937 5.75005 13.657 5.75002 13.197C5.74999 12.7371 6.12284 12.3281 6.58277 12.3281H20.8027C21.2626 12.3281 21.6355 12.7159 21.6355 13.1758C21.6355 13.6358 21.2626 13.9937 20.8027 13.9937H18.6418C19.1202 14.7102 19.4888 15.7297 19.4663 16.7081C19.3947 19.8298 17.0192 21.7667 13.2265 21.7667C10.6894 21.7667 8.78898 20.91 7.8174 19.328C7.647 19.046 7.48021 18.6721 7.33264 18.261C7.10437 17.6252 7.616 16.9978 8.29154 16.9978C8.79843 16.9978 9.20505 17.366 9.38498 17.8399C9.53581 18.2371 9.73848 18.5485 10.0334 18.858C10.7439 19.6207 11.8901 20.0171 13.3572 20.0171C15.8675 20.0171 17.501 18.783 17.5463 16.8109C17.5681 15.8583 17.3206 15.3805 16.755 14.6608C16.3377 14.1297 15.7185 13.9937 15.7185 13.9937Z" fill="#1F2329"/>
</svg>
