<svg width="26" height="26" viewBox="0 0 26 26" fill="none" xmlns="http://www.w3.org/2000/svg">
<path d="M3.79102 5.57827C3.79102 5.07013 4.20329 4.6582 4.71185 4.6582H21.2868C21.7954 4.6582 22.2077 5.07013 22.2077 5.57827C22.2077 6.08641 21.7954 6.49834 21.2868 6.49834H4.71185C4.20329 6.49834 3.79102 6.08641 3.79102 5.57827Z" fill="#2B2F36"/>
<path d="M3.79102 20.4215C3.79102 19.9133 4.20329 19.5014 4.71185 19.5014H21.2868C21.7954 19.5014 22.2077 19.9133 22.2077 20.4215C22.2077 20.9296 21.7954 21.3415 21.2868 21.3415H4.71185C4.20329 21.3415 3.79102 20.9296 3.79102 20.4215Z" fill="#2B2F36"/>
<path d="M4.71185 12.0798C4.20329 12.0798 3.79102 12.4917 3.79102 12.9999C3.79102 13.508 4.20329 13.9199 4.71185 13.9199H12.9993C13.5079 13.9199 13.9202 13.508 13.9202 12.9999C13.9202 12.4917 13.5079 12.0798 12.9993 12.0798H4.71185Z" fill="#2B2F36"/>
</svg>
