<svg width="25" height="24" viewBox="0 0 25 24" fill="none" xmlns="http://www.w3.org/2000/svg">
<path d="M4.20422 4C3.71824 4 3.32422 4.39402 3.32422 4.88C3.32422 5.36598 3.71824 5.76 4.20422 5.76H20.0442C20.5302 5.76 20.9242 5.36598 20.9242 4.88C20.9242 4.39402 20.5302 4 20.0442 4H4.20422Z" fill="#2B2F36"/>
<path d="M4.20422 18.08C3.71824 18.08 3.32422 18.474 3.32422 18.96C3.32422 19.446 3.71824 19.84 4.20422 19.84H20.0442C20.5302 19.84 20.9242 19.446 20.9242 18.96C20.9242 18.474 20.5302 18.08 20.0442 18.08H4.20422Z" fill="#2B2F36"/>
<path d="M12.1242 11.92C12.1242 11.434 12.5182 11.04 13.0042 11.04H20.0442C20.5302 11.04 20.9242 11.434 20.9242 11.92C20.9242 12.406 20.5302 12.8 20.0442 12.8H13.0042C12.5182 12.8 12.1242 12.406 12.1242 11.92Z" fill="#2B2F36"/>
<path d="M7.85323 12.4832C8.22878 12.2016 8.22878 11.6384 7.85323 11.3568L4.45064 8.80477C3.98647 8.45672 3.32422 8.7879 3.32422 9.36798V14.472C3.32422 15.0521 3.98647 15.3833 4.45064 15.0352L7.85323 12.4832Z" fill="#2B2F36"/>
</svg>
