<svg width="26" height="26" viewBox="0 0 26 26" fill="none" xmlns="http://www.w3.org/2000/svg">
<path fill-rule="evenodd" clip-rule="evenodd" d="M20.2724 15.4109C20.8019 14.8327 21.125 14.0624 21.125 13.2166C21.125 11.4216 19.6699 9.96655 17.875 9.96655C16.0801 9.96655 14.625 11.4216 14.625 13.2166C14.625 14.9134 15.9254 16.3065 17.584 16.4537L16.2705 18.3651L17.6097 19.2854L20.2724 15.4109Z" fill="#333333"/>
<path fill-rule="evenodd" clip-rule="evenodd" d="M10.5224 12.1609C11.0519 11.5827 11.375 10.8124 11.375 9.96655C11.375 8.17163 9.91993 6.71655 8.125 6.71655C6.33007 6.71655 4.875 8.17163 4.875 9.96655C4.875 11.6634 6.17541 13.0565 7.834 13.2037L6.52046 15.1151L7.8597 16.0354L10.5224 12.1609Z" fill="#333333"/>
</svg>
