<svg width="20" height="20" viewBox="0 0 20 20" fill="none" xmlns="http://www.w3.org/2000/svg">
<path d="M2.69922 3.06956C2.69922 2.6443 3.04691 2.29956 3.47581 2.29956H16.5226C16.9515 2.29956 17.2992 2.6443 17.2992 3.06956V4.96888C17.2992 5.39414 16.9515 5.73888 16.5226 5.73888C16.0937 5.73888 15.746 5.39414 15.746 4.96888V3.83956H10.7759V16.1596H13.1056C13.5345 16.1596 13.8822 16.5043 13.8822 16.9296C13.8822 17.3548 13.5345 17.6996 13.1056 17.6996H6.8928C6.4639 17.6996 6.1162 17.3548 6.1162 16.9296C6.1162 16.5043 6.4639 16.1596 6.8928 16.1596H9.22268V3.83956H4.25241V4.96888C4.25241 5.39414 3.90472 5.73888 3.47581 5.73888C3.04691 5.73888 2.69922 5.39414 2.69922 4.96888V3.06956Z" fill="#1F2329"/>
</svg>
