<svg width="27" height="26" viewBox="0 0 27 26" fill="none" xmlns="http://www.w3.org/2000/svg">
<path d="M5.29513 4.33325C4.76862 4.33325 4.3418 4.76007 4.3418 5.28659C4.3418 5.8131 4.76862 6.23992 5.29513 6.23992H22.4551C22.9816 6.23992 23.4085 5.8131 23.4085 5.28659C23.4085 4.76007 22.9816 4.33325 22.4551 4.33325H5.29513Z" fill="#2B2F36"/>
<path d="M5.29513 19.5866C4.76862 19.5866 4.3418 20.0134 4.3418 20.5399C4.3418 21.0664 4.76862 21.4933 5.29513 21.4933H22.4551C22.9816 21.4933 23.4085 21.0664 23.4085 20.5399C23.4085 20.0134 22.9816 19.5866 22.4551 19.5866H5.29513Z" fill="#2B2F36"/>
<path d="M4.84961 12.9131C4.84961 12.3865 5.27643 11.9597 5.80294 11.9597H13.4296C13.9561 11.9597 14.3829 12.3865 14.3829 12.9131C14.3829 13.4396 13.9561 13.8664 13.4296 13.8664H5.80294C5.27643 13.8664 4.84961 13.4396 4.84961 12.9131Z" fill="#2B2F36"/>
<path d="M18.5121 12.3029C18.1053 12.6079 18.1053 13.2181 18.5121 13.5231L22.1983 16.2878C22.7011 16.6649 23.4186 16.3061 23.4186 15.6777V10.1483C23.4186 9.51986 22.7011 9.16111 22.1983 9.5382L18.5121 12.3029Z" fill="#2B2F36"/>
</svg>
