<svg width="27" height="26" viewBox="0 0 27 26" fill="none" xmlns="http://www.w3.org/2000/svg">
<path d="M16.3356 6.30774L12.7901 19.6924H16.7413C17.3005 19.6924 17.7538 20.1418 17.7538 20.6962C17.7538 21.2506 17.3005 21.7 16.7413 21.7H6.71172C6.15253 21.7 5.69922 21.2506 5.69922 20.6962C5.69922 20.1418 6.15253 19.6924 6.71172 19.6924H10.6629L14.2083 6.30774H10.2572C9.69798 6.30774 9.24467 5.8583 9.24467 5.30389C9.24467 4.74949 9.69799 4.30005 10.2572 4.30005H20.2867C20.8459 4.30005 21.2992 4.74949 21.2992 5.30389C21.2992 5.8583 20.8459 6.30774 20.2867 6.30774H16.3356Z" fill="#2B2F36"/>
</svg>
