<svg width="26" height="26" viewBox="0 0 26 26" fill="none" xmlns="http://www.w3.org/2000/svg">
<path d="M5.57208 7.6759C6.25586 7.6759 6.81017 7.12158 6.81017 6.4378C6.81017 5.75402 6.25586 5.19971 5.57208 5.19971C4.8883 5.19971 4.33398 5.75402 4.33398 6.4378C4.33398 7.12158 4.8883 7.6759 5.57208 7.6759Z" fill="#2B2F36"/>
<path d="M10.1118 5.61241C9.65591 5.61241 9.28637 5.98195 9.28637 6.4378C9.28637 6.89366 9.65591 7.2632 10.1118 7.2632H20.8419C21.2978 7.2632 21.6673 6.89366 21.6673 6.4378C21.6673 5.98195 21.2978 5.61241 20.8419 5.61241H10.1118Z" fill="#2B2F36"/>
<path d="M10.1118 12.2156C9.65591 12.2156 9.28637 12.5851 9.28637 13.041C9.28637 13.4968 9.65591 13.8664 10.1118 13.8664H20.8419C21.2978 13.8664 21.6673 13.4968 21.6673 13.041C21.6673 12.5851 21.2978 12.2156 20.8419 12.2156H10.1118Z" fill="#2B2F36"/>
<path d="M9.28637 19.6442C9.28637 19.1883 9.65591 18.8188 10.1118 18.8188H20.8419C21.2978 18.8188 21.6673 19.1883 21.6673 19.6442C21.6673 20.1 21.2978 20.4695 20.8419 20.4695H10.1118C9.65591 20.4695 9.28637 20.1 9.28637 19.6442Z" fill="#2B2F36"/>
<path d="M6.81017 13.041C6.81017 13.7248 6.25586 14.2791 5.57208 14.2791C4.8883 14.2791 4.33398 13.7248 4.33398 13.041C4.33398 12.3572 4.8883 11.8029 5.57208 11.8029C6.25586 11.8029 6.81017 12.3572 6.81017 13.041Z" fill="#2B2F36"/>
<path d="M5.57208 20.8822C6.25586 20.8822 6.81017 20.3279 6.81017 19.6442C6.81017 18.9604 6.25586 18.4061 5.57208 18.4061C4.8883 18.4061 4.33398 18.9604 4.33398 19.6442C4.33398 20.3279 4.8883 20.8822 5.57208 20.8822Z" fill="#2B2F36"/>
</svg>
