<svg width="26" height="26" viewBox="0 0 26 26" fill="none" xmlns="http://www.w3.org/2000/svg">
<path d="M12.3835 5.84985H14.626V19.4999H12.3835V13.5914H6.53352V19.4999H4.29102V5.84985H6.53352V11.4464H12.3835V5.84985Z" fill="#1F2329"/>
<path d="M20.5785 14.0919C21.1938 14.2739 21.6922 14.5945 22.0735 15.0539C22.4635 15.5045 22.6585 16.0505 22.6585 16.6919C22.6585 17.6279 22.3422 18.3602 21.7095 18.8889C21.0855 19.4175 20.3185 19.6819 19.4085 19.6819C18.6978 19.6819 18.0608 19.5215 17.4975 19.2009C16.9428 18.8715 16.5398 18.3905 16.2885 17.7579L17.8225 16.8739C18.0478 17.5759 18.5765 17.9269 19.4085 17.9269C19.8678 17.9269 20.2232 17.8185 20.4745 17.6019C20.7345 17.3765 20.8645 17.0732 20.8645 16.6919C20.8645 16.3192 20.7345 16.0202 20.4745 15.7949C20.2232 15.5695 19.8678 15.4569 19.4085 15.4569H19.0185L18.3295 14.4169L20.1235 12.0769H16.5615V10.3999H22.2815V11.8819L20.5785 14.0919Z" fill="#1F2329"/>
</svg>
