<svg width="27" height="26" viewBox="0 0 27 26" fill="none" xmlns="http://www.w3.org/2000/svg">
<path d="M22.0896 4.09781C21.7085 3.7892 21.1494 3.84796 20.8408 4.22907L12.7525 14.2173C12.134 14.981 11.7166 15.8874 11.5382 16.8538C11.5099 17.0068 11.6624 17.1303 11.8062 17.0708C12.7144 16.6954 13.5141 16.0986 14.1326 15.3348L22.2209 5.34664C22.5295 4.96554 22.4707 4.40642 22.0896 4.09781Z" fill="#1F2329"/>
<path d="M17.6948 5.46158C16.2968 4.89135 14.765 4.58858 13.2029 4.58725L13.1813 4.59154L12.7035 4.60096L12.2499 4.62717C11.193 4.70864 10.1466 4.93208 9.13416 5.29326C7.88985 5.74259 6.76968 6.3818 5.8004 7.19571C4.82717 8.01371 4.06016 8.96254 3.51996 10.0158C2.95409 11.118 2.66797 12.2774 2.66797 13.4651C2.66797 14.6505 2.95549 15.8 3.5222 16.8817C4.06185 17.9092 4.83083 18.8309 5.80696 19.6197C6.77525 20.4002 7.89584 21.0118 9.14073 21.4382C10.4229 21.8771 11.7882 22.0999 13.1926 22.0999L13.6767 22.0913L14.1428 22.0655C14.6086 22.0311 15.0733 21.9709 15.5364 21.885L16.1777 21.7537L16.3517 21.7001C16.8081 21.5352 17.2035 21.1977 17.4647 20.7391C17.7924 20.1638 17.877 19.4548 17.6952 18.8051L17.6156 18.4951L17.5892 18.3017C17.5492 17.8487 17.6591 17.3886 17.9055 17.011C18.2227 16.5276 18.7306 16.2395 19.2713 16.237H20.8412L21.0219 16.2307C22.4557 16.1305 23.6057 14.8466 23.6922 13.2427L23.6974 13.0484L23.6927 12.8354L23.6483 12.4511L23.5886 12.0922C23.4058 11.139 23.0369 10.2186 22.4907 9.35794C22.2769 9.01993 22.0392 8.69503 21.7784 8.38427L20.7143 9.69897C20.8509 9.87658 20.9784 10.059 21.0964 10.246C21.5247 10.9212 21.8144 11.6341 21.9608 12.3716L22.0147 12.6892L22.0425 12.9344L22.0447 13.0106L22.0386 13.2053L22.0202 13.3558C21.9146 13.9988 21.4839 14.5114 20.9629 14.5813L20.8412 14.5895H19.2688L19.0506 14.597C18.0373 14.6669 17.1038 15.2205 16.5226 16.1071C15.9836 16.928 15.8028 17.9343 16.0126 18.9086L16.0732 19.1514L16.1058 19.267L16.1303 19.4035C16.1491 19.5869 16.113 19.773 16.0258 19.9261C15.9664 20.0296 15.8878 20.108 15.806 20.1446L15.7442 20.1639L15.1481 20.2824L14.6615 20.3577C14.1739 20.4223 13.6832 20.4549 13.1901 20.4549C11.9664 20.4549 10.7825 20.2622 9.67277 19.8815C8.60931 19.5179 7.65582 18.9993 6.84091 18.3419C6.04115 17.6946 5.41398 16.9472 4.97901 16.1222C4.53751 15.2794 4.31297 14.3875 4.31297 13.4725C4.31297 12.5519 4.53908 11.643 4.98375 10.7786C5.4228 9.923 6.05419 9.14556 6.85751 8.46987C7.67772 7.78139 8.62982 7.23877 9.68667 6.8556C10.6669 6.49993 11.6827 6.29892 12.7147 6.25423L13.1926 6.24465L13.6328 6.25384C14.6569 6.29666 15.6584 6.48842 16.5973 6.81615L17.6948 5.46158Z" fill="#1F2329"/>
<path d="M8.69801 15.0514C8.69572 14.3785 8.15097 13.8314 7.47804 13.8314C6.80511 13.8314 6.25806 14.3785 6.25806 15.0514C6.25806 15.7243 6.80282 16.2714 7.47804 16.2714C8.15097 16.2714 8.69801 15.7243 8.69801 15.0514Z" fill="#1F2329"/>
<path d="M9.80708 10.6151C9.80708 9.94221 9.26004 9.39516 8.5871 9.39516C7.91417 9.39516 7.36713 9.94221 7.36713 10.6151C7.36713 11.2881 7.91188 11.8351 8.5871 11.8351C9.26004 11.8351 9.80708 11.2881 9.80708 10.6151Z" fill="#1F2329"/>
<path d="M14.4652 8.95154C14.4652 8.27861 13.9204 7.73156 13.2452 7.73156C12.5723 7.73156 12.0252 8.27861 12.0252 8.95154C12.0252 9.62447 12.57 10.1715 13.2452 10.1715C13.9181 10.1715 14.4652 9.62447 14.4652 8.95154Z" fill="#1F2329"/>
</svg>
