<svg width="27" height="26" viewBox="0 0 27 26" fill="none" xmlns="http://www.w3.org/2000/svg">
<path d="M3.75 5.57904C3.75 5.07047 4.16227 4.6582 4.67083 4.6582H21.2458C21.7544 4.6582 22.1667 5.07047 22.1667 5.57904C22.1667 6.0876 21.7544 6.49987 21.2458 6.49987H4.67083C4.16227 6.49987 3.75 6.0876 3.75 5.57904Z" fill="#2B2F36"/>
<path d="M3.75 20.3124C3.75 19.8038 4.16227 19.3915 4.67083 19.3915H21.2458C21.7544 19.3915 22.1667 19.8038 22.1667 20.3124C22.1667 20.8209 21.7544 21.2332 21.2458 21.2332H4.67083C4.16227 21.2332 3.75 20.8209 3.75 20.3124Z" fill="#2B2F36"/>
<path d="M9.275 12.0249C8.76644 12.0249 8.35417 12.4371 8.35417 12.9457C8.35417 13.4543 8.76644 13.8665 9.275 13.8665H16.6417C17.1502 13.8665 17.5625 13.4543 17.5625 12.9457C17.5625 12.4371 17.1502 12.0249 16.6417 12.0249H9.275Z" fill="#2B2F36"/>
</svg>
