<svg width="30" height="30" viewBox="0 0 30 30" fill="none" xmlns="http://www.w3.org/2000/svg">
<path d="M5.87109 6.3375C5.87109 5.80593 6.30571 5.375 6.84184 5.375H23.1504C23.6865 5.375 24.1211 5.80593 24.1211 6.3375V8.71165C24.1211 9.24322 23.6865 9.67415 23.1504 9.67415C22.6142 9.67415 22.1796 9.24322 22.1796 8.71165V7.3H15.9669V22.7H18.879C19.4152 22.7 19.8498 23.1309 19.8498 23.6625C19.8498 24.1941 19.4152 24.625 18.879 24.625H11.1131C10.5769 24.625 10.1423 24.1941 10.1423 23.6625C10.1423 23.1309 10.5769 22.7 11.1131 22.7H14.0254V7.3H7.81258V8.71165C7.81258 9.24322 7.37797 9.67415 6.84184 9.67415C6.30571 9.67415 5.87109 9.24322 5.87109 8.71165V6.3375Z" fill="#333333"/>
</svg>
