<svg width="30" height="30" viewBox="0 0 30 30" fill="none" xmlns="http://www.w3.org/2000/svg">
<path d="M7.4 5.5C6.35066 5.5 5.5 6.35066 5.5 7.4V13.1C5.5 14.1493 6.35066 15 7.4 15H22.6C23.6493 15 24.5 14.1493 24.5 13.1V7.4C24.5 6.35066 23.6493 5.5 22.6 5.5H7.4ZM22.6 7.4V13.1H7.4V7.4H22.6Z" fill="#1F2329"/>
<path d="M6.45 18.8C6.45 18.2753 6.87533 17.85 7.4 17.85H22.6C23.1247 17.85 23.55 18.2753 23.55 18.8C23.55 19.3247 23.1247 19.75 22.6 19.75H7.4C6.87533 19.75 6.45 19.3247 6.45 18.8Z" fill="#1F2329"/>
<path d="M7.4 22.6C6.87533 22.6 6.45 23.0253 6.45 23.55C6.45 24.0747 6.87533 24.5 7.4 24.5H15C15.5247 24.5 15.95 24.0747 15.95 23.55C15.95 23.0253 15.5247 22.6 15 22.6H7.4Z" fill="#1F2329"/>
</svg>
