<svg width="28" height="28" viewBox="0 0 28 28" fill="none" xmlns="http://www.w3.org/2000/svg">
<path d="M5.48047 5.91493C5.48047 5.4188 5.88611 5.0166 6.3865 5.0166H21.6078C22.1082 5.0166 22.5138 5.4188 22.5138 5.91493V8.13081C22.5138 8.62694 22.1082 9.02914 21.6078 9.02914C21.1074 9.02914 20.7017 8.62694 20.7017 8.13081V6.81327H14.9032V21.1866H17.6212C18.1216 21.1866 18.5272 21.5888 18.5272 22.0849C18.5272 22.5811 18.1216 22.9833 17.6212 22.9833H10.373C9.87259 22.9833 9.46695 22.5811 9.46695 22.0849C9.46695 21.5888 9.87259 21.1866 10.373 21.1866H13.0912V6.81327H7.29253V8.13081C7.29253 8.62694 6.88688 9.02914 6.3865 9.02914C5.88611 9.02914 5.48047 8.62694 5.48047 8.13081V5.91493Z" fill="#333333"/>
</svg>
