<svg width="26" height="26" viewBox="0 0 26 26" fill="none" xmlns="http://www.w3.org/2000/svg">
<path d="M12.3835 5.8501H14.626V19.5001H12.3835V13.5916H6.53352V19.5001H4.29102V5.8501H6.53352V11.4466H12.3835V5.8501Z" fill="#1F2329"/>
<path d="M20.5785 14.0921C21.1938 14.2741 21.6922 14.5948 22.0735 15.0541C22.4635 15.5048 22.6585 16.0508 22.6585 16.6921C22.6585 17.6281 22.3422 18.3604 21.7095 18.8891C21.0855 19.4178 20.3185 19.6821 19.4085 19.6821C18.6978 19.6821 18.0608 19.5218 17.4975 19.2011C16.9428 18.8718 16.5398 18.3908 16.2885 17.7581L17.8225 16.8741C18.0478 17.5761 18.5765 17.9271 19.4085 17.9271C19.8678 17.9271 20.2232 17.8188 20.4745 17.6021C20.7345 17.3768 20.8645 17.0734 20.8645 16.6921C20.8645 16.3194 20.7345 16.0204 20.4745 15.7951C20.2232 15.5698 19.8678 15.4571 19.4085 15.4571H19.0185L18.3295 14.4171L20.1235 12.0771H16.5615V10.4001H22.2815V11.8821L20.5785 14.0921Z" fill="#1F2329"/>
</svg>
