<svg width="28" height="28" viewBox="0 0 28 28" fill="none" xmlns="http://www.w3.org/2000/svg">
<path d="M7.3094 5.26017C7.3094 4.89219 6.91237 4.66352 6.59748 4.85013L6.16035 5.10912L6.15698 5.11122C6.11104 5.13988 6.0129 5.19965 5.88834 5.27551C5.59058 5.45685 5.14189 5.7301 4.89483 5.88991C4.7486 5.9845 4.66797 6.14638 4.66797 6.31426C4.66797 6.73685 5.14145 6.99237 5.49273 6.77211C5.69015 6.64832 5.897 6.52006 6.05084 6.42594V9.47287C6.05084 9.8229 6.33258 10.1067 6.68012 10.1067C7.02766 10.1067 7.3094 9.8229 7.3094 9.47287V5.26017Z" fill="#1F2329"/>
<path d="M6.52728 11.5049C5.45533 11.5049 4.73934 12.221 4.73934 13.1174C4.73934 13.2387 4.83701 13.3371 4.95748 13.3371H5.73219C5.85642 13.3371 5.95712 13.2357 5.95712 13.1106C5.95712 12.8297 6.15554 12.5945 6.4865 12.5945C6.6462 12.5945 6.77366 12.6461 6.85945 12.726C6.94385 12.8045 6.99889 12.9201 6.99889 13.0729C6.99889 13.3485 6.83486 13.5796 6.53005 13.9038L4.95186 15.6279C4.85235 15.7366 4.79711 15.8791 4.79711 16.0269C4.79711 16.352 5.05878 16.6156 5.38156 16.6156H7.99308C8.29558 16.6156 8.54081 16.3686 8.54081 16.0639C8.54081 15.7592 8.29558 15.5122 7.99308 15.5122H6.58505L7.39655 14.5941C7.92644 14.0229 8.25745 13.6073 8.25745 12.9874C8.25745 12.5544 8.07954 12.1785 7.76798 11.9136C7.45852 11.6506 7.02723 11.5049 6.52728 11.5049Z" fill="#1F2329"/>
<path d="M6.54087 18.014C5.66581 18.014 5.06907 18.4324 4.84834 19.0459C4.78249 19.2288 4.8325 19.4057 4.94143 19.5299C5.04732 19.6506 5.20818 19.723 5.37872 19.723C5.54531 19.723 5.68449 19.6514 5.7942 19.5649C5.90294 19.4793 5.99365 19.3705 6.06608 19.2761C6.14945 19.1675 6.28935 19.0796 6.51029 19.0796C6.69326 19.0796 6.83142 19.1348 6.92113 19.2133C7.00931 19.2905 7.06005 19.3978 7.06005 19.5272L7.06006 19.5288C7.06133 19.6735 7.00723 19.7899 6.91625 19.8719C6.82375 19.9553 6.68218 20.0125 6.4967 20.0125H6.37437C6.08313 20.0125 5.84703 20.2503 5.84703 20.5436C5.84703 20.837 6.08313 21.0747 6.37437 21.0747H6.52048C6.76021 21.0747 6.92816 21.1399 7.03363 21.2305C7.13686 21.3191 7.19467 21.4441 7.19597 21.5991C7.19728 21.7568 7.13919 21.8869 7.03483 21.9796C6.92879 22.0738 6.76132 22.1411 6.52728 22.1411C6.24898 22.1411 6.06801 22.0411 5.96758 21.91C5.89613 21.8167 5.8069 21.7104 5.69965 21.6269C5.59127 21.5426 5.45442 21.4738 5.2909 21.4738C5.1202 21.4738 4.95925 21.5459 4.85259 21.6662C4.74308 21.7897 4.69131 21.9658 4.75335 22.1493C4.96537 22.7768 5.55891 23.217 6.50349 23.217C7.02667 23.217 7.51362 23.0701 7.87299 22.7992C8.2354 22.5261 8.46716 22.1256 8.4613 21.6397C8.45309 21.0359 8.13412 20.6565 7.77133 20.4724C8.06697 20.2701 8.31962 19.9088 8.31178 19.4007C8.29561 18.5577 7.5122 18.014 6.54087 18.014Z" fill="#1F2329"/>
<path d="M10.287 7.18003C10.287 6.69619 10.6764 6.30395 11.1568 6.30395H22.4648C22.9452 6.30395 23.3346 6.69619 23.3346 7.18003C23.3346 7.66387 22.9452 8.05611 22.4648 8.05611H11.1568C10.6764 8.05611 10.287 7.66387 10.287 7.18003Z" fill="#1F2329"/>
<path d="M10.287 14.1886C10.287 13.7048 10.6764 13.3126 11.1568 13.3126H22.4648C22.9452 13.3126 23.3346 13.7048 23.3346 14.1886C23.3346 14.6725 22.9452 15.0647 22.4648 15.0647H11.1568C10.6764 15.0647 10.287 14.6725 10.287 14.1886Z" fill="#1F2329"/>
<path d="M10.287 21.1973C10.287 20.7134 10.6764 20.3212 11.1568 20.3212H22.4648C22.9452 20.3212 23.3346 20.7134 23.3346 21.1973C23.3346 21.6811 22.9452 22.0733 22.4648 22.0733H11.1568C10.6764 22.0733 10.287 21.6811 10.287 21.1973Z" fill="#1F2329"/>
</svg>
