<svg width="30" height="30" viewBox="0 0 30 30" fill="none" xmlns="http://www.w3.org/2000/svg">
<path fill-rule="evenodd" clip-rule="evenodd" d="M23.3836 17.7882C23.9991 17.1202 24.375 16.228 24.375 15.248C24.375 13.177 22.6961 11.498 20.625 11.498C18.5539 11.498 16.875 13.177 16.875 15.248C16.875 17.2053 18.3745 18.8124 20.2874 18.9831L18.7724 21.1876L20.3177 22.2496L23.3836 17.7882Z" fill="#1F2329"/>
<path fill-rule="evenodd" clip-rule="evenodd" d="M12.1336 14.0382C12.7491 13.3702 13.125 12.478 13.125 11.498C13.125 9.42698 11.4461 7.74805 9.375 7.74805C7.30393 7.74805 5.625 9.42698 5.625 11.498C5.625 13.4553 7.12454 15.0624 9.03744 15.2331L7.52239 17.4376L9.06767 18.4996L12.1336 14.0382Z" fill="#1F2329"/>
</svg>
