<svg width="28" height="28" viewBox="0 0 28 28" fill="none" xmlns="http://www.w3.org/2000/svg">
<path d="M6.0013 8.26628C6.73768 8.26628 7.33464 7.66932 7.33464 6.93294C7.33464 6.19656 6.73768 5.59961 6.0013 5.59961C5.26492 5.59961 4.66797 6.19656 4.66797 6.93294C4.66797 7.66932 5.26492 8.26628 6.0013 8.26628Z" fill="#1F2329"/>
<path d="M10.8902 6.04405C10.3993 6.04405 10.0013 6.44202 10.0013 6.93294C10.0013 7.42386 10.3993 7.82183 10.8902 7.82183H22.4457C22.9367 7.82183 23.3346 7.42386 23.3346 6.93294C23.3346 6.44202 22.9367 6.04405 22.4457 6.04405H10.8902Z" fill="#1F2329"/>
<path d="M10.8902 13.1552C10.3993 13.1552 10.0013 13.5531 10.0013 14.0441C10.0013 14.535 10.3993 14.9329 10.8902 14.9329H22.4457C22.9367 14.9329 23.3346 14.535 23.3346 14.0441C23.3346 13.5531 22.9367 13.1552 22.4457 13.1552H10.8902Z" fill="#1F2329"/>
<path d="M10.0013 21.1552C10.0013 20.6642 10.3993 20.2663 10.8902 20.2663H22.4457C22.9367 20.2663 23.3346 20.6642 23.3346 21.1552C23.3346 21.6461 22.9367 22.0441 22.4457 22.0441H10.8902C10.3993 22.0441 10.0013 21.6461 10.0013 21.1552Z" fill="#1F2329"/>
<path d="M7.33464 14.0441C7.33464 14.7804 6.73768 15.3774 6.0013 15.3774C5.26492 15.3774 4.66797 14.7804 4.66797 14.0441C4.66797 13.3077 5.26492 12.7107 6.0013 12.7107C6.73768 12.7107 7.33464 13.3077 7.33464 14.0441Z" fill="#1F2329"/>
<path d="M6.0013 22.4885C6.73768 22.4885 7.33464 21.8915 7.33464 21.1552C7.33464 20.4188 6.73768 19.8218 6.0013 19.8218C5.26492 19.8218 4.66797 20.4188 4.66797 21.1552C4.66797 21.8915 5.26492 22.4885 6.0013 22.4885Z" fill="#1F2329"/>
</svg>
