<svg width="28" height="28" viewBox="0 0 28 28" fill="none" xmlns="http://www.w3.org/2000/svg">
<path d="M6.41229 6.80125C6.60255 6.6103 6.86059 6.50303 7.12965 6.50303H17.2746C17.733 6.50303 18.1046 6.13006 18.1046 5.66997C18.1046 5.20989 17.733 4.83691 17.2746 4.83691H7.12965C6.42031 4.83691 5.74002 5.11972 5.23844 5.62313C4.73686 6.12653 4.45508 6.80929 4.45508 7.52121V20.4799C4.45508 21.1918 4.73686 21.8746 5.23844 22.378C5.74002 22.8814 6.42031 23.1642 7.12965 23.1642H20.0414C20.7507 23.1642 21.431 22.8814 21.9326 22.378C22.4342 21.8746 22.7159 21.1918 22.7159 20.4799V14.8336C22.7159 14.3735 22.3443 14.0006 21.8859 14.0006C21.4275 14.0006 21.0559 14.3735 21.0559 14.8336V20.4799C21.0559 20.7499 20.949 21.0089 20.7587 21.1999C20.5685 21.3908 20.3104 21.4981 20.0414 21.4981H7.12965C6.86059 21.4981 6.60255 21.3908 6.41229 21.1999C6.22204 21.0089 6.11516 20.7499 6.11516 20.4799V7.52121C6.11516 7.25117 6.22204 6.99219 6.41229 6.80125Z" fill="#1F2329"/>
<path d="M23.2818 8.78072C23.6177 8.46766 23.6372 7.94056 23.3252 7.60341C23.0133 7.26626 22.4881 7.24674 22.1522 7.55981L13.7781 15.364L11.6612 13.3912C11.3253 13.0781 10.8001 13.0977 10.4882 13.4348C10.1763 13.772 10.1957 14.2991 10.5316 14.6121L13.2133 17.1113C13.5318 17.4081 14.0244 17.4081 14.3429 17.1113L23.2818 8.78072Z" fill="#1F2329"/>
</svg>
