<svg width="31" height="30" viewBox="0 0 31 30" fill="none" xmlns="http://www.w3.org/2000/svg">
<path d="M16.7275 5.00708C16.2136 4.94398 15.7459 5.30944 15.6828 5.82334L13.3977 24.4336C13.3346 24.9475 13.7001 25.4152 14.214 25.4783C14.7279 25.5414 15.1956 25.176 15.2587 24.6621L17.5438 6.05185C17.6069 5.53794 17.2414 5.07018 16.7275 5.00708Z" fill="#1F2329"/>
<path d="M11.9442 8.95478C12.3103 9.32089 12.3103 9.91449 11.9442 10.2806L6.51332 15.7114L11.9442 21.1423C12.3103 21.5084 12.3103 22.102 11.9442 22.4681C11.578 22.8342 10.9845 22.8342 10.6183 22.4681L4.52459 16.3744C4.15847 16.0082 4.15847 15.4146 4.52459 15.0485L10.6183 8.95478C10.9845 8.58866 11.578 8.58866 11.9442 8.95478Z" fill="#1F2329"/>
<path d="M19.0558 8.95478C18.6897 9.32089 18.6897 9.91449 19.0558 10.2806L24.4867 15.7114L19.0558 21.1423C18.6897 21.5084 18.6897 22.102 19.0558 22.4681C19.422 22.8342 20.0155 22.8342 20.3817 22.4681L26.4754 16.3744C26.8415 16.0082 26.8415 15.4146 26.4754 15.0485L20.3817 8.95478C20.0155 8.58866 19.422 8.58866 19.0558 8.95478Z" fill="#1F2329"/>
</svg>
