<svg width="30" height="30" viewBox="0 0 30 30" fill="none" xmlns="http://www.w3.org/2000/svg">
<path d="M5.57143 8.15789C6.4393 8.15789 7.14286 7.45098 7.14286 6.57895C7.14286 5.70692 6.4393 5 5.57143 5C4.70355 5 4 5.70692 4 6.57895C4 7.45098 4.70355 8.15789 5.57143 8.15789Z" fill="#1F2329"/>
<path d="M11.3333 5.52632C10.7548 5.52632 10.2857 5.9976 10.2857 6.57895C10.2857 7.1603 10.7547 7.63158 11.3333 7.63158H24.9524C25.531 7.63158 26 7.1603 26 6.57895C26 5.9976 25.531 5.52632 24.9524 5.52632H11.3333Z" fill="#1F2329"/>
<path d="M11.3333 13.9474C10.7548 13.9474 10.2857 14.4186 10.2857 15C10.2857 15.5814 10.7547 16.0526 11.3333 16.0526H24.9524C25.531 16.0526 26 15.5814 26 15C26 14.4186 25.531 13.9474 24.9524 13.9474H11.3333Z" fill="#1F2329"/>
<path d="M10.2857 23.4211C10.2857 22.8397 10.7548 22.3684 11.3333 22.3684H24.9524C25.531 22.3684 26 22.8397 26 23.4211C26 24.0024 25.531 24.4737 24.9524 24.4737H11.3333C10.7547 24.4737 10.2857 24.0024 10.2857 23.4211Z" fill="#1F2329"/>
<path d="M7.14286 15C7.14286 15.872 6.4393 16.5789 5.57143 16.5789C4.70355 16.5789 4 15.872 4 15C4 14.128 4.70355 13.4211 5.57143 13.4211C6.4393 13.4211 7.14286 14.128 7.14286 15Z" fill="#1F2329"/>
<path d="M5.57143 25C6.4393 25 7.14286 24.2931 7.14286 23.4211C7.14286 22.549 6.4393 21.8421 5.57143 21.8421C4.70355 21.8421 4 22.549 4 23.4211C4 24.2931 4.70355 25 5.57143 25Z" fill="#1F2329"/>
</svg>
