<svg width="31" height="30" viewBox="0 0 31 30" fill="none" xmlns="http://www.w3.org/2000/svg">
<path d="M10.5992 4.46745V4.56745H10.6992H20.0326H20.1326V4.46745C20.1326 3.87834 20.6101 3.40078 21.1992 3.40078C21.7883 3.40078 22.2659 3.87834 22.2659 4.46745V4.56745H22.3659H24.6993C25.9327 4.56745 26.9326 5.56734 26.9326 6.80078V24.3008C26.9326 25.5342 25.9327 26.5341 24.6992 26.5341H6.03255C4.79912 26.5341 3.79922 25.5342 3.79922 24.3008V6.80078C3.79922 5.56734 4.79908 4.56745 6.03251 4.56745H8.36589H8.46589V4.46745C8.46589 3.87834 8.94345 3.40078 9.53255 3.40078C10.1217 3.40078 10.5992 3.87834 10.5992 4.46745ZM24.6992 11.5674H24.7992V11.4674V6.80078V6.70078H24.6992H22.3659H22.2659V6.80078C22.2659 7.38989 21.7883 7.86745 21.1992 7.86745C20.6101 7.86745 20.1326 7.38988 20.1326 6.80078V6.70078H20.0326H10.6992H10.5992V6.80078C10.5992 7.38989 10.1217 7.86745 9.53255 7.86745C8.94345 7.86745 8.46589 7.38988 8.46589 6.80078V6.70078H8.36589H6.03255H5.93255V6.80078V11.4674V11.5674H6.03255H24.6992ZM6.03255 13.7008H5.93255V13.8008V24.3008V24.4008H6.03255H24.6992H24.7992V24.3008V13.8008V13.7008H24.6992H6.03255Z" fill="#2B2F36" stroke="#91EAF5" stroke-width="0.2"/>
</svg>
