<svg width="31" height="30" viewBox="0 0 31 30" fill="none" xmlns="http://www.w3.org/2000/svg">
<path d="M14.8922 6.75H17.4797V22.5H14.8922V15.6825H8.14219V22.5H5.55469V6.75H8.14219V13.2075H14.8922V6.75Z" fill="#1F2329"/>
<path d="M19.4579 22.5V20.955L23.0429 17.265C23.8429 16.425 24.2429 15.725 24.2429 15.165C24.2429 14.755 24.1129 14.425 23.8529 14.175C23.6029 13.925 23.2779 13.8 22.8779 13.8C22.0879 13.8 21.5029 14.21 21.1229 15.03L19.3829 14.01C19.7129 13.29 20.1879 12.74 20.8079 12.36C21.4279 11.98 22.1079 11.79 22.8479 11.79C23.7979 11.79 24.6129 12.09 25.2929 12.69C25.9729 13.28 26.3129 14.08 26.3129 15.09C26.3129 16.18 25.7379 17.3 24.5879 18.45L22.5329 20.505H26.4779V22.5H19.4579Z" fill="#1F2329"/>
</svg>
