<svg width="28" height="28" viewBox="0 0 28 28" fill="none" xmlns="http://www.w3.org/2000/svg">
<path d="M6.9081 5.1333C5.92871 5.1333 5.13477 5.92725 5.13477 6.90663V12.2266C5.13477 13.206 5.92871 14 6.9081 14H21.0948C22.0742 14 22.8681 13.206 22.8681 12.2266V6.90663C22.8681 5.92725 22.0742 5.1333 21.0948 5.1333H6.9081ZM21.0948 6.90663V12.2266H6.9081V6.90663H21.0948Z" fill="#1F2329"/>
<path d="M6.02143 17.5466C6.02143 17.0569 6.41841 16.66 6.9081 16.66H21.0948C21.5845 16.66 21.9814 17.0569 21.9814 17.5466C21.9814 18.0363 21.5845 18.4333 21.0948 18.4333H6.9081C6.41841 18.4333 6.02143 18.0363 6.02143 17.5466Z" fill="#1F2329"/>
<path d="M6.9081 21.0933C6.41841 21.0933 6.02143 21.4903 6.02143 21.98C6.02143 22.4697 6.41841 22.8666 6.9081 22.8666H14.0014C14.4911 22.8666 14.8881 22.4697 14.8881 21.98C14.8881 21.4903 14.4911 21.0933 14.0014 21.0933H6.9081Z" fill="#1F2329"/>
</svg>
