<svg width="28" height="28" viewBox="0 0 28 28" fill="none" xmlns="http://www.w3.org/2000/svg">
<path d="M13.4318 6.30029H15.8468V21.0003H13.4318V14.6373H7.1318V21.0003H4.7168V6.30029H7.1318V12.3273H13.4318V6.30029Z" fill="#1F2329"/>
<path d="M17.6932 21.0003V19.5583L21.0392 16.1143C21.7858 15.3303 22.1592 14.677 22.1592 14.1543C22.1592 13.7716 22.0378 13.4636 21.7952 13.2303C21.5618 12.997 21.2585 12.8803 20.8852 12.8803C20.1478 12.8803 19.6018 13.263 19.2472 14.0283L17.6232 13.0763C17.9312 12.4043 18.3745 11.891 18.9532 11.5363C19.5318 11.1816 20.1665 11.0043 20.8572 11.0043C21.7438 11.0043 22.5045 11.2843 23.1392 11.8443C23.7738 12.395 24.0912 13.1416 24.0912 14.0843C24.0912 15.1016 23.5545 16.147 22.4812 17.2203L20.5632 19.1383H24.2452V21.0003H17.6932Z" fill="#1F2329"/>
</svg>
