<svg width="30" height="30" viewBox="0 0 30 30" fill="none" xmlns="http://www.w3.org/2000/svg">
<path d="M14.0925 8H16.335V21.65H14.0925V15.7415H8.2425V21.65H6V8H8.2425V13.5965H14.0925V8Z" fill="#1F2329"/>
<path d="M22.2875 16.242C22.9028 16.424 23.4011 16.7447 23.7825 17.204C24.1725 17.6547 24.3675 18.2007 24.3675 18.842C24.3675 19.778 24.0511 20.5103 23.4185 21.039C22.7945 21.5677 22.0275 21.832 21.1175 21.832C20.4068 21.832 19.7698 21.6717 19.2065 21.351C18.6518 21.0217 18.2488 20.5407 17.9975 19.908L19.5315 19.024C19.7568 19.726 20.2855 20.077 21.1175 20.077C21.5768 20.077 21.9321 19.9687 22.1835 19.752C22.4435 19.5267 22.5735 19.2233 22.5735 18.842C22.5735 18.4693 22.4435 18.1703 22.1835 17.945C21.9321 17.7197 21.5768 17.607 21.1175 17.607H20.7275L20.0385 16.567L21.8325 14.227H18.2705V12.55H23.9905V14.032L22.2875 16.242Z" fill="#1F2329"/>
</svg>
