<svg width="31" height="30" viewBox="0 0 31 30" fill="none" xmlns="http://www.w3.org/2000/svg">
<path d="M8.11311 4.56867C8.11311 4.12949 7.64519 3.85657 7.27406 4.07929L6.75888 4.38839L6.75491 4.3909C6.70076 4.42511 6.58509 4.49645 6.4383 4.58698C6.08736 4.8034 5.55855 5.12952 5.26737 5.32026C5.09503 5.43315 5 5.62636 5 5.82672C5 6.33108 5.55803 6.63604 5.97203 6.37316C6.20471 6.22542 6.4485 6.07234 6.62982 5.96001V9.59649C6.62982 10.0142 6.96186 10.3529 7.37146 10.3529C7.78107 10.3529 8.11311 10.0142 8.11311 9.59649V4.56867Z" fill="#1F2329"/>
<path d="M7.19133 12.0217C5.92796 12.0217 5.08412 12.8764 5.08412 13.9462C5.08412 14.091 5.19922 14.2084 5.34121 14.2084H6.25426C6.40067 14.2084 6.51936 14.0874 6.51936 13.938C6.51936 13.6029 6.75321 13.3221 7.14327 13.3221C7.33148 13.3221 7.48171 13.3838 7.58282 13.479C7.68229 13.5727 7.74716 13.7108 7.74716 13.8931C7.74716 14.222 7.55383 14.4978 7.1946 14.8848L5.33458 16.9425C5.21731 17.0722 5.1522 17.2422 5.1522 17.4187C5.1522 17.8067 5.46059 18.1212 5.84102 18.1212H8.91888C9.2754 18.1212 9.56442 17.8264 9.56442 17.4628C9.56442 17.0992 9.2754 16.8044 8.91888 16.8044H7.25941L8.21583 15.7086C8.84035 15.0269 9.23046 14.5309 9.23046 13.791C9.23046 13.2742 9.02078 12.8256 8.65359 12.5095C8.28887 12.1956 7.78055 12.0217 7.19133 12.0217Z" fill="#1F2329"/>
<path d="M7.20735 19.7902C6.17603 19.7902 5.47273 20.2897 5.21257 21.0218C5.13497 21.2401 5.19392 21.4512 5.32229 21.5994C5.44709 21.7435 5.63668 21.8299 5.83767 21.8299C6.03401 21.8299 6.19804 21.7444 6.32735 21.6413C6.4555 21.539 6.56241 21.4092 6.64777 21.2965C6.74603 21.1669 6.91092 21.062 7.1713 21.062C7.38695 21.062 7.54978 21.1279 7.65551 21.2216C7.75944 21.3137 7.81924 21.4418 7.81924 21.5963L7.81925 21.5981C7.82075 21.7709 7.75699 21.9098 7.64976 22.0077C7.54074 22.1072 7.37389 22.1754 7.15529 22.1754H7.01112C6.66787 22.1754 6.38961 22.4592 6.38961 22.8093C6.38961 23.1594 6.66787 23.4432 7.01112 23.4432H7.18332C7.46585 23.4432 7.6638 23.5209 7.7881 23.6291C7.90976 23.7349 7.9779 23.8841 7.97943 24.0691C7.98097 24.2572 7.91251 24.4125 7.78951 24.5231C7.66454 24.6356 7.46716 24.7159 7.19133 24.7159C6.86333 24.7159 6.65005 24.5965 6.53169 24.4401C6.44747 24.3287 6.34231 24.2019 6.21591 24.1022C6.08818 24.0016 5.92689 23.9194 5.73417 23.9194C5.53299 23.9194 5.34329 24.0055 5.21758 24.1491C5.08852 24.2966 5.02751 24.5066 5.10063 24.7257C5.35051 25.4746 6.05004 26 7.16329 26C7.77989 26 8.3538 25.8247 8.77735 25.5014C9.20447 25.1754 9.47762 24.6974 9.47071 24.1175C9.46103 23.3969 9.0851 22.9441 8.65754 22.7243C9.00596 22.4829 9.30373 22.0517 9.29449 21.4452C9.27543 20.4392 8.35213 19.7902 7.20735 19.7902Z" fill="#1F2329"/>
<path d="M11.6224 6.86001C11.6224 6.28254 12.0814 5.81442 12.6476 5.81442H25.9748C26.541 5.81442 27 6.28254 27 6.86001C27 7.43747 26.541 7.90559 25.9748 7.90559H12.6476C12.0814 7.90559 11.6224 7.43747 11.6224 6.86001Z" fill="#1F2329"/>
<path d="M11.6224 15.2247C11.6224 14.6473 12.0814 14.1791 12.6476 14.1791H25.9748C26.541 14.1791 27 14.6473 27 15.2247C27 15.8022 26.541 16.2703 25.9748 16.2703H12.6476C12.0814 16.2703 11.6224 15.8022 11.6224 15.2247Z" fill="#1F2329"/>
<path d="M11.6224 23.5894C11.6224 23.012 12.0814 22.5438 12.6476 22.5438H25.9748C26.541 22.5438 27 23.012 27 23.5894C27 24.1669 26.541 24.635 25.9748 24.635H12.6476C12.0814 24.635 11.6224 24.1669 11.6224 23.5894Z" fill="#1F2329"/>
</svg>
