<svg width="28" height="28" viewBox="0 0 28 28" fill="none" xmlns="http://www.w3.org/2000/svg">
<path fill-rule="evenodd" clip-rule="evenodd" d="M21.8267 16.6021C22.4 15.9788 22.75 15.147 22.75 14.2334C22.75 12.3004 21.183 10.7334 19.25 10.7334C17.317 10.7334 15.75 12.3004 15.75 14.2334C15.75 16.0604 17.1498 17.5604 18.9354 17.7195L17.5209 19.7778L18.9632 20.7689L21.8267 16.6021Z" fill="#1F2329"/>
<path fill-rule="evenodd" clip-rule="evenodd" d="M11.3267 13.1021C11.9 12.4788 12.25 11.647 12.25 10.7334C12.25 8.8004 10.683 7.2334 8.75 7.2334C6.817 7.2334 5.25 8.8004 5.25 10.7334C5.25 12.5604 6.64982 14.0604 8.43542 14.2195L7.0209 16.2778L8.46316 17.2689L11.3267 13.1021Z" fill="#1F2329"/>
</svg>
