<svg width="28" height="28" viewBox="0 0 28 28" fill="none" xmlns="http://www.w3.org/2000/svg">
<path d="M15.1457 3.50661C14.666 3.44772 14.2295 3.78881 14.1706 4.26845L12.0379 21.638C11.979 22.1177 12.3201 22.5542 12.7997 22.6131C13.2794 22.672 13.7159 22.3309 13.7748 21.8513L15.9075 4.48173C15.9664 4.00208 15.6253 3.56551 15.1457 3.50661Z" fill="#1F2329"/>
<path d="M10.6812 7.19113C11.0229 7.53284 11.0229 8.08685 10.6812 8.42856L5.61244 13.4973L10.6812 18.5661C11.0229 18.9078 11.0229 19.4619 10.6812 19.8036C10.3395 20.1453 9.78549 20.1453 9.44378 19.8036L3.75628 14.1161C3.41457 13.7744 3.41457 13.2203 3.75628 12.8786L9.44378 7.19113C9.78549 6.84942 10.3395 6.84942 10.6812 7.19113Z" fill="#1F2329"/>
<path d="M17.3188 7.19113C16.9771 7.53284 16.9771 8.08685 17.3188 8.42856L22.3876 13.4973L17.3188 18.5661C16.9771 18.9078 16.9771 19.4619 17.3188 19.8036C17.6605 20.1453 18.2145 20.1453 18.5562 19.8036L24.2437 14.1161C24.5854 13.7744 24.5854 13.2203 24.2437 12.8786L18.5562 7.19113C18.2145 6.84942 17.6605 6.84942 17.3188 7.19113Z" fill="#1F2329"/>
</svg>
