<svg width="20" height="20" viewBox="0 0 20 20" fill="none" xmlns="http://www.w3.org/2000/svg">
<g id="&#229;&#133;&#179;&#233;&#151;&#173;_close 1">
<path id="Union" d="M5.13807 4.19526C4.87772 3.93491 4.45561 3.93491 4.19526 4.19526C3.93491 4.45561 3.93491 4.87772 4.19526 5.13807L9.05719 10L4.19526 14.8619C3.93491 15.1223 3.93491 15.5444 4.19526 15.8047C4.45561 16.0651 4.87772 16.0651 5.13807 15.8047L10 10.9428L14.8619 15.8047C15.1223 16.0651 15.5444 16.0651 15.8047 15.8047C16.0651 15.5444 16.0651 15.1223 15.8047 14.8619L10.9428 10L15.8047 5.13807C16.0651 4.87772 16.0651 4.45561 15.8047 4.19526C15.5444 3.93491 15.1223 3.93491 14.8619 4.19526L10 9.05719L5.13807 4.19526Z" fill="#1F2329" stroke="#1F2329" stroke-width="0.24" stroke-linecap="round" stroke-linejoin="round"/>
</g>
</svg>
