<svg width="24" height="24" viewBox="0 0 24 24" fill="none" xmlns="http://www.w3.org/2000/svg">
<path d="M4.5998 10.45C3.7473 10.45 3.0498 11.1475 3.0498 12C3.0498 12.8525 3.7473 13.55 4.5998 13.55C5.4523 13.55 6.1498 12.8525 6.1498 12C6.1498 11.1475 5.4523 10.45 4.5998 10.45Z" fill="#171717"/>
<path d="M12.0002 10.45C11.1477 10.45 10.4502 11.1475 10.4502 12C10.4502 12.8525 11.1477 13.55 12.0002 13.55C12.8527 13.55 13.5502 12.8525 13.5502 12C13.5502 11.1475 12.8527 10.45 12.0002 10.45Z" fill="#171717"/>
<path d="M19.3996 10.45C18.5471 10.45 17.8496 11.1475 17.8496 12C17.8496 12.8525 18.5471 13.55 19.3996 13.55C20.2521 13.55 20.9496 12.8525 20.9496 12C20.9496 11.1475 20.2521 10.45 19.3996 10.45Z" fill="#171717"/>
</svg>
