<svg width="20" height="20" viewBox="0 0 20 20" fill="none" xmlns="http://www.w3.org/2000/svg">
<path d="M3.10001 5.19994H4.63334M4.63334 5.19994H16.9M4.63334 5.19994L4.63338 16.4C4.63338 16.8243 4.79492 17.2313 5.08248 17.5314C5.37004 17.8314 5.76005 18 6.16671 18H13.8334C14.24 18 14.6301 17.8314 14.9176 17.5314C15.2052 17.2313 15.3667 16.8243 15.3667 16.4V5.2L4.63334 5.19994ZM6.93338 5.2V3.6C6.93338 3.17565 7.09492 2.76869 7.38248 2.46863C7.67004 2.16857 8.06005 2 8.46671 2H11.5334C11.94 2 12.3301 2.16857 12.6176 2.46863C12.9052 2.76869 13.0667 3.17565 13.0667 3.6V5.2M8.46664 9.19994V13.9999M11.5334 9.19994V13.9999" stroke="#FB006D" stroke-width="1.375" stroke-linecap="round" stroke-linejoin="round"/>
</svg>
