<svg width="20" height="20" viewBox="0 0 20 20" fill="none" xmlns="http://www.w3.org/2000/svg">
<path fill-rule="evenodd" clip-rule="evenodd" d="M9.10264 8.36644C8.6962 8.36644 8.36672 8.69592 8.36672 9.10236V15.5641C8.36672 15.9705 8.6962 16.3 9.10264 16.3H15.5644C15.9708 16.3 16.3003 15.9705 16.3003 15.5641V9.10236C16.3003 8.69592 15.9708 8.36644 15.5644 8.36644H9.10264ZM6.96668 9.10236C6.96668 7.9227 7.92298 6.9664 9.10264 6.9664H15.5644C16.744 6.9664 17.7003 7.9227 17.7003 9.10236V15.5641C17.7003 16.7437 16.744 17.7 15.5644 17.7H9.10264C7.92298 17.7 6.96668 16.7437 6.96668 15.5641V9.10236ZM4.43595 3.70009C4.24077 3.70009 4.05359 3.77762 3.91557 3.91564C3.77756 4.05365 3.70003 4.24083 3.70003 4.43601V10.8977C3.70003 11.0929 3.77756 11.2801 3.91557 11.4181C4.05359 11.5561 4.24077 11.6337 4.43595 11.6337H5.15392C5.54053 11.6337 5.85394 11.9471 5.85394 12.3337C5.85394 12.7203 5.54053 13.0337 5.15392 13.0337H4.43595C3.86946 13.0337 3.32617 12.8087 2.9256 12.4081C2.52503 12.0075 2.29999 11.4642 2.29999 10.8977V4.43601C2.29999 3.86952 2.52503 3.32623 2.9256 2.92566C3.32617 2.52509 3.86946 2.30005 4.43595 2.30005H10.8977C11.4642 2.30005 12.0075 2.52509 12.408 2.92566C12.8086 3.32623 13.0336 3.86952 13.0336 4.43601V5.15398C13.0336 5.54059 12.7202 5.854 12.3336 5.854C11.947 5.854 11.6336 5.54059 11.6336 5.15398V4.43601C11.6336 4.24083 11.5561 4.05365 11.4181 3.91564C11.28 3.77762 11.0929 3.70009 10.8977 3.70009H4.43595Z" fill="#333333"/>
</svg>
