<svg width="20" height="20" viewBox="0 0 20 20" fill="none" xmlns="http://www.w3.org/2000/svg">
<path d="M5 16.25C5 16.6642 4.66421 17 4.25 17C3.83579 17 3.5 16.6642 3.5 16.25L3.5 4.25C3.5 3.83579 3.83579 3.5 4.25 3.5C4.66421 3.5 5 3.83579 5 4.25L5 16.25Z" fill="#333333"/>
<path d="M10.4697 16.0303C10.7626 16.3232 11.2374 16.3232 11.5303 16.0303C11.8232 15.7374 11.8232 15.2626 11.5303 14.9697L7.56066 11H17.25C17.6642 11 18 10.6642 18 10.25C18 9.83579 17.6642 9.5 17.25 9.5H7.56066L11.5303 5.53033C11.8232 5.23744 11.8232 4.76256 11.5303 4.46967C11.2374 4.17678 10.7626 4.17678 10.4697 4.46967L5.21967 9.71967C4.92678 10.0126 4.92678 10.4874 5.21967 10.7803L10.4697 16.0303Z" fill="#333333"/>
</svg>
