<svg width="20" height="20" viewBox="0 0 20 20" fill="none" xmlns="http://www.w3.org/2000/svg">
<path fill-rule="evenodd" clip-rule="evenodd" d="M9.1027 8.36639C8.69626 8.36639 8.36678 8.69588 8.36678 9.10231V15.564C8.36678 15.9705 8.69626 16.3 9.1027 16.3H15.5644C15.9709 16.3 16.3003 15.9705 16.3003 15.564V9.10231C16.3003 8.69588 15.9709 8.36639 15.5644 8.36639H9.1027ZM6.96674 9.10231C6.96674 7.92265 7.92304 6.96635 9.1027 6.96635H15.5644C16.7441 6.96635 17.7004 7.92265 17.7004 9.10231V15.564C17.7004 16.7437 16.7441 17.7 15.5644 17.7H9.1027C7.92304 17.7 6.96674 16.7437 6.96674 15.564V9.10231ZM4.43601 3.70004C4.24083 3.70004 4.05365 3.77758 3.91564 3.91559C3.77762 4.0536 3.70009 4.24079 3.70009 4.43596V10.8977C3.70009 11.0929 3.77762 11.2801 3.91564 11.4181C4.05365 11.5561 4.24083 11.6336 4.43601 11.6336H5.15398C5.54059 11.6336 5.854 11.947 5.854 12.3336C5.854 12.7202 5.54059 13.0337 5.15398 13.0337H4.43601C3.86952 13.0337 3.32623 12.8086 2.92566 12.408C2.52509 12.0075 2.30005 11.4642 2.30005 10.8977V4.43596C2.30005 3.86947 2.52509 3.32618 2.92566 2.92561C3.32623 2.52504 3.86952 2.3 4.43601 2.3H10.8977C11.4642 2.3 12.0075 2.52504 12.4081 2.92561C12.8087 3.32618 13.0337 3.86947 13.0337 4.43596V5.15393C13.0337 5.54054 12.7203 5.85395 12.3337 5.85395C11.9471 5.85395 11.6337 5.54054 11.6337 5.15393V4.43596C11.6337 4.24079 11.5561 4.0536 11.4181 3.91559C11.2801 3.77758 11.0929 3.70004 10.8977 3.70004H4.43601Z" fill="#333333"/>
</svg>
