<svg width="20" height="20" viewBox="0 0 20 20" fill="none" xmlns="http://www.w3.org/2000/svg">
<path d="M15.5 3.75C15.5 3.33579 15.8358 3 16.25 3C16.6642 3 17 3.33579 17 3.75V15.75C17 16.1642 16.6642 16.5 16.25 16.5C15.8358 16.5 15.5 16.1642 15.5 15.75V3.75Z" fill="#333333"/>
<path d="M10.0303 3.96967C9.73744 3.67678 9.26256 3.67678 8.96967 3.96967C8.67678 4.26256 8.67678 4.73744 8.96967 5.03033L12.9393 9H3.25C2.83579 9 2.5 9.33579 2.5 9.75C2.5 10.1642 2.83579 10.5 3.25 10.5H12.9393L8.96967 14.4697C8.67678 14.7626 8.67678 15.2374 8.96967 15.5303C9.26256 15.8232 9.73744 15.8232 10.0303 15.5303L15.2803 10.2803C15.5732 9.98744 15.5732 9.51256 15.2803 9.21967L10.0303 3.96967Z" fill="#333333"/>
</svg>
