<svg width="20" height="20" viewBox="0 0 20 20" fill="none" xmlns="http://www.w3.org/2000/svg">
<g id="icon_more_outlined">
<g id="Union">
<path d="M4.58341 9.79171C4.58341 10.5971 3.9305 11.25 3.12508 11.25C2.31967 11.25 1.66675 10.5971 1.66675 9.79171C1.66675 8.98629 2.31967 8.33337 3.12508 8.33337C3.9305 8.33337 4.58341 8.98629 4.58341 9.79171Z" fill="#1F2329" fill-opacity="0.5"/>
<path d="M11.4379 9.79171C11.4379 10.5971 10.785 11.25 9.97957 11.25C9.17415 11.25 8.52124 10.5971 8.52124 9.79171C8.52124 8.98629 9.17415 8.33337 9.97957 8.33337C10.785 8.33337 11.4379 8.98629 11.4379 9.79171Z" fill="#1F2329" fill-opacity="0.5"/>
<path d="M18.3334 9.79171C18.3334 10.5971 17.6805 11.25 16.8751 11.25C16.0697 11.25 15.4167 10.5971 15.4167 9.79171C15.4167 8.98629 16.0697 8.33337 16.8751 8.33337C17.6805 8.33337 18.3334 8.98629 18.3334 9.79171Z" fill="#1F2329" fill-opacity="0.5"/>
</g>
</g>
</svg>
