<svg width="20" height="20" viewBox="0 0 20 20" fill="none" xmlns="http://www.w3.org/2000/svg">
<path d="M16.3429 5.19481H16.3001L16.2894 5.23624C15.9181 6.67889 14.6085 7.74481 13.05 7.74481C11.4915 7.74481 10.1819 6.67889 9.81057 5.23624L9.7999 5.19481H9.75711H2.85C2.41104 5.19481 2.05519 4.83896 2.05519 4.4C2.05519 3.96104 2.41104 3.60519 2.85 3.60519H9.75711H9.7999L9.81057 3.56376C10.1819 2.12111 11.4915 1.05519 13.05 1.05519C14.6085 1.05519 15.9181 2.12111 16.2894 3.56376L16.3001 3.60519H16.3429H18.15C18.589 3.60519 18.9448 3.96104 18.9448 4.4C18.9448 4.83896 18.589 5.19481 18.15 5.19481H16.3429ZM11.2429 15.3948H11.2001L11.1894 15.4362C10.8181 16.8789 9.50847 17.9448 7.95 17.9448C6.39153 17.9448 5.08188 16.8789 4.71057 15.4362L4.6999 15.3948H4.65711H2.85C2.41104 15.3948 2.05519 15.039 2.05519 14.6C2.05519 14.161 2.41104 13.8052 2.85 13.8052H4.65711H4.6999L4.71057 13.7638C5.08188 12.3211 6.39153 11.2552 7.95 11.2552C9.50847 11.2552 10.8181 12.3211 11.1894 13.7638L11.2001 13.8052H11.2429H18.15C18.589 13.8052 18.9448 14.161 18.9448 14.6C18.9448 15.039 18.589 15.3948 18.15 15.3948H11.2429ZM13.05 6.15519C14.0194 6.15519 14.8052 5.36937 14.8052 4.4C14.8052 3.43063 14.0194 2.64481 13.05 2.64481C12.0806 2.64481 11.2948 3.43063 11.2948 4.4C11.2948 5.36937 12.0806 6.15519 13.05 6.15519ZM7.95 16.3552C8.91937 16.3552 9.70519 15.5694 9.70519 14.6C9.70519 13.6306 8.91937 12.8448 7.95 12.8448C6.98063 12.8448 6.19481 13.6306 6.19481 14.6C6.19481 15.5694 6.98063 16.3552 7.95 16.3552Z" fill="#2B2F36" stroke="white" stroke-width="0.11039"/>
</svg>
