<svg width="20" height="20" viewBox="0 0 20 20" fill="none" xmlns="http://www.w3.org/2000/svg">
<path d="M3.09998 5.19994H4.63331M4.63331 5.19994H16.9M4.63331 5.19994L4.63335 16.4C4.63335 16.8243 4.79489 17.2313 5.08245 17.5314C5.37001 17.8314 5.76001 18 6.16668 18H13.8333C14.24 18 14.63 17.8314 14.9176 17.5314C15.2051 17.2313 15.3667 16.8243 15.3667 16.4V5.2L4.63331 5.19994ZM6.93335 5.2V3.6C6.93335 3.17565 7.09489 2.76869 7.38245 2.46863C7.67001 2.16857 8.06001 2 8.46668 2H11.5333C11.94 2 12.33 2.16857 12.6176 2.46863C12.9051 2.76869 13.0667 3.17565 13.0667 3.6V5.2M8.46661 9.19994V13.9999M11.5333 9.19994V13.9999" stroke="#FB006D" stroke-width="1.375" stroke-linecap="round" stroke-linejoin="round"/>
</svg>
