<svg width="20" height="20" viewBox="0 0 20 20" fill="none" xmlns="http://www.w3.org/2000/svg">
<path fill-rule="evenodd" clip-rule="evenodd" d="M14.8073 3.2121C15.0906 2.9293 15.5499 2.9293 15.8333 3.2121C16.1166 3.49489 16.1166 3.95339 15.8333 4.23618L3.74157 16.3051C3.45825 16.5879 2.99889 16.5879 2.71556 16.3051C2.43223 16.0224 2.43223 15.5639 2.71556 15.2811L3.93295 14.066C3.41326 13.5187 2.98355 12.9706 2.64732 12.4971C1.78423 11.2814 1.78423 9.68409 2.64732 8.46845C3.88659 6.72299 6.39575 3.96552 10 3.96552C11.2123 3.96552 12.3007 4.27747 13.2585 4.75793L14.8073 3.2121ZM12.1632 5.85123C11.4982 5.57809 10.7757 5.4138 10 5.4138C7.15653 5.4138 5.02695 7.62166 3.8312 9.30583C3.32427 10.0198 3.32427 10.9457 3.8312 11.6597C4.1444 12.1008 4.52167 12.5779 4.95905 13.0418L7.1835 10.8215C7.17073 10.7102 7.16416 10.5972 7.16416 10.4828C7.16416 8.9042 8.41303 7.5862 10.0002 7.5862C10.1351 7.5862 10.2675 7.59572 10.397 7.61411L12.1632 5.85123Z" fill="#333333"/>
<path d="M10 17C8.38239 17 6.98536 16.4446 5.82471 15.6745L6.87578 14.6254C7.78689 15.1801 8.83336 15.5517 10 15.5517C12.8435 15.5517 14.9731 13.3439 16.1688 11.6597C16.6757 10.9457 16.6757 10.0198 16.1688 9.30583C15.6913 8.63328 15.0649 7.87722 14.3035 7.2116L15.3312 6.18589C16.1916 6.95147 16.8689 7.78707 17.3527 8.46845C18.2158 9.68409 18.2158 11.2814 17.3527 12.4971C16.1134 14.2425 13.6042 17 10 17Z" fill="#333333"/>
<path d="M10.0002 13.3793C9.46217 13.3793 8.963 13.2278 8.53818 12.9661L9.62864 11.8777C9.74764 11.9125 9.87241 11.931 10.0002 11.931C10.7443 11.931 11.3853 11.3038 11.3853 10.4828C11.3853 10.3708 11.3733 10.2624 11.3509 10.1587L12.4637 9.04797C12.7013 9.47302 12.8363 9.96381 12.8363 10.4828C12.8363 12.0613 11.5874 13.3793 10.0002 13.3793Z" fill="#333333"/>
</svg>
