<svg width="24" height="24" viewBox="0 0 24 24" fill="none" xmlns="http://www.w3.org/2000/svg">
<path fill-rule="evenodd" clip-rule="evenodd" d="M21.08 2.99005C20.7241 2.67453 20.3 2.69989 20.03 2.9366L11.5598 13.38C11 14.1608 10.69 14.8119 10.481 15.8C10.4521 15.9564 10.5007 15.94 10.5923 15.9C11.5208 15.5161 12.1477 15 12.78 14.2909L21.05 4.07919C21.35 3.72 21.46 3.4 21.08 2.99005ZM16.6 4.34995C15.1707 3.76697 13.6172 3.45131 12.0202 3.44995H11.9981L11.5096 3.45995L11.0459 3.48995C9.96531 3.57324 8.89552 3.81069 7.86042 4.17995C6.58826 4.63934 5.67097 5.13749 4.68 5.9696C3.685 6.80591 2.83229 7.77598 2.28 8.85281C1.70147 9.97969 1.40039 11.165 1.40039 12.3793C1.40039 13.5913 1.71014 14.7664 2.28953 15.8723C2.87953 16.9229 3.47953 17.6735 4.45876 18.48C5.44872 19.278 6.59438 19.9339 7.86713 20.37C9.17801 20.8187 10.5738 21.0599 12.0097 21.0599L12.5046 21.0499L12.9812 21.02C13.4574 20.9848 13.9324 20.9178 14.4059 20.83L15.0616 20.7L15.2394 20.6399C15.7061 20.42 15.9524 20.2 16.2195 19.816C16.5545 19.2279 16.6454 18.5031 16.4595 17.8388L16.3795 17.5219L16.3495 17.3241C16.3295 16.861 16.4195 16.3906 16.6495 16.0045C16.9738 15.48 17.5595 15.0626 18.2244 15.06L19.8294 15.0621L20.0141 15.06C21.48 14.9576 22.5111 13.65 22.5995 12.1519V11.9533V11.7355L22.5495 11.3426L22.4795 10.9756C22.2927 10.0012 21.9079 9.06018 21.3495 8.18023C21.2717 8.07269 21.2133 7.98923 21.1618 7.9157L21.1618 7.91559L21.1617 7.91547L21.1616 7.91536L21.1616 7.91533C21.0478 7.75275 20.9679 7.63864 20.7876 7.41995L19.8895 8.52889C20.0292 8.71047 20.1489 8.89698 20.2695 9.08815C20.7074 9.77849 20.9798 10.5073 21.1295 11.2613L21.1795 11.586L21.2095 11.8367V11.9147L21.1995 12.1136L21.1795 12.2676C21.0716 13.1 20.4865 13.5984 19.9539 13.67L19.8294 13.68H18.2219L17.9987 13.69C16.9627 13.7614 16.1995 14.241 15.5995 15.0804C14.9995 15.9197 14.835 16.9485 15.0495 17.9446L15.1095 18.1929L15.1395 18.311L15.1595 18.4506C15.1995 18.7031 15.1095 19.0546 14.9063 19.22C14.8526 19.28 14.7895 19.3226 14.6815 19.36L14.6184 19.38L14.009 19.5L13.5115 19.58C13.0129 19.646 12.5113 19.68 12.0071 19.68C10.756 19.68 9.5141 19.4692 8.37953 19.08C7.29227 18.7082 6.15268 18.0721 5.31953 17.4C4.50187 16.7382 3.88424 15.9393 3.43953 15.0959C2.98816 14.2341 2.77953 13.3223 2.77953 12.3869C2.77953 11.4456 3.00491 10.5164 3.45953 9.63271C3.9084 8.75793 4.71152 7.77076 5.53282 7.07995C6.37139 6.37606 7.34479 5.8617 8.42529 5.46995C9.42749 5.10632 10.4659 4.90565 11.521 4.85995L12.0097 4.84995L12.4597 4.85995C13.5068 4.90373 14.5306 5.08489 15.4905 5.41995L16.6 4.34995ZM12.0609 8.8499C12.6685 8.8499 13.1609 8.35742 13.1609 7.7499C13.1609 7.14239 12.6685 6.6499 12.0609 6.6499C11.4534 6.6499 10.9609 7.14239 10.9609 7.7499C10.9609 8.35742 11.4534 8.8499 12.0609 8.8499ZM8.39922 9.4501C8.39922 10.0576 7.90673 10.5501 7.29922 10.5501C6.69171 10.5501 6.19922 10.0576 6.19922 9.4501C6.19922 8.84258 6.69171 8.3501 7.29922 8.3501C7.90673 8.3501 8.39922 8.84258 8.39922 9.4501ZM6.15078 15.0799C6.75829 15.0799 7.25078 14.5874 7.25078 13.9799C7.25078 13.3724 6.75829 12.8799 6.15078 12.8799C5.54327 12.8799 5.05078 13.3724 5.05078 13.9799C5.05078 14.5874 5.54327 15.0799 6.15078 15.0799Z" fill="#171717"/>
</svg>
