<svg width="24" height="24" viewBox="0 0 24 24" fill="none" xmlns="http://www.w3.org/2000/svg">
<g id="magic-star">
<g id="Group">
<path id="Vector" d="M16.8019 4.94194L16.7382 8.38587C16.7292 8.85839 17.0291 9.4854 17.4107 9.7671L19.6643 11.4754C21.1091 12.5659 20.8728 13.9016 19.1463 14.4469L16.2112 15.3646C15.7205 15.5191 15.2026 16.0553 15.0754 16.555L14.3757 19.2266C13.8214 21.3347 12.4401 21.5438 11.2952 19.69L9.69587 17.1002C9.40508 16.6277 8.71448 16.2733 8.16927 16.3006L5.13426 16.4551C2.96248 16.5641 2.34456 15.3101 3.76213 13.6563L5.56132 11.5663C5.89754 11.1756 6.05201 10.4486 5.89753 9.95792L4.9798 7.02283C4.44367 5.29631 5.40687 4.34219 7.1243 4.90558L9.80496 5.78702C10.2593 5.93241 10.9408 5.83244 11.3225 5.55075L14.1213 3.53344C15.6297 2.44301 16.8382 3.07911 16.8019 4.94194Z" stroke="#171717" stroke-width="1.4" stroke-linecap="round" stroke-linejoin="round"/>
<path id="Vector_2" d="M20.9994 21.1711L18.2461 18.4177" stroke="#171717" stroke-width="1.4" stroke-linecap="round" stroke-linejoin="round"/>
</g>
</g>
</svg>
