<svg width="36" height="36" viewBox="0 0 36 36" fill="none" xmlns="http://www.w3.org/2000/svg">
<rect width="36" height="36" rx="18" fill="#F1E2FF"/>
<g clip-path="url(#clip0_756_7938)">
<path d="M10.889 18.9758C10.889 16.467 12.2534 14.148 14.4676 12.8929C15.5594 12.276 16.7922 11.9519 18.0463 11.9519C19.3004 11.9519 20.5332 12.276 21.6251 12.8929C23.8397 14.148 25.2036 16.4666 25.2036 18.9758C25.204 22.8556 21.9997 26 18.0465 26C14.0934 26 10.889 22.8552 10.889 18.9758ZM14.5662 10.2628C14.6346 10.3376 14.6871 10.4256 14.7205 10.5213C14.7539 10.617 14.7674 10.7185 14.7604 10.8196C14.7533 10.9208 14.7258 11.0194 14.6794 11.1096C14.633 11.1997 14.5688 11.2795 14.4907 11.3441L11.3166 14.0258C11.1563 14.1599 10.9506 14.2272 10.7421 14.2137C10.5336 14.2002 10.3383 14.107 10.1966 13.9533C10.1282 13.8785 10.0757 13.7906 10.0423 13.6949C10.0089 13.5993 9.99528 13.4978 10.0023 13.3967C10.0092 13.2956 10.0367 13.1969 10.0829 13.1067C10.1292 13.0166 10.1933 12.9367 10.2713 12.872L13.4458 10.1904C13.6062 10.0558 13.8125 9.98844 14.0214 10.0024C14.2316 10.0157 14.4276 10.1099 14.5662 10.2628ZM17.9363 14.9813C17.4981 14.9813 17.143 15.3244 17.143 15.7475V18.8122C17.143 19.0687 17.2755 19.3078 17.4959 19.45L19.8767 20.9824C20.2411 21.217 20.7344 21.1224 20.9775 20.7699C21.2206 20.418 21.122 19.9424 20.7576 19.7078L18.7301 18.4025V15.7475C18.7301 15.3244 18.3745 14.9813 17.9363 14.9813ZM21.4237 10.2677C21.5641 10.111 21.7602 10.0155 21.9702 10.0016C22.1801 9.98776 22.3871 10.0566 22.5468 10.1935L25.7276 12.9254C26.0582 13.2089 26.092 13.7022 25.8031 14.0267C25.5138 14.3511 25.0112 14.3844 24.6805 14.1004L21.4993 11.3694C21.4208 11.3029 21.3565 11.2213 21.3101 11.1294C21.2636 11.0376 21.2361 10.9374 21.2291 10.8347C21.222 10.7321 21.2356 10.629 21.2691 10.5317C21.3025 10.4344 21.3551 10.3448 21.4237 10.2681V10.2677Z" fill="#B369FE"/>
</g>
<defs>
<clipPath id="clip0_756_7938">
<rect width="16" height="16" fill="white" transform="translate(10 10)"/>
</clipPath>
</defs>
</svg>
