<svg width="36" height="36" viewBox="0 0 36 36" fill="none" xmlns="http://www.w3.org/2000/svg">
<rect width="36" height="36" rx="18" fill="#A44AFD" fill-opacity="0.2"/>
<g clip-path="url(#clip0_599_978)">
<path d="M10.889 18.9759C10.889 16.4671 12.2534 14.1481 14.4676 12.893C15.5594 12.2761 16.7922 11.952 18.0463 11.952C19.3004 11.952 20.5332 12.2761 21.6251 12.893C23.8397 14.1481 25.2036 16.4667 25.2036 18.9759C25.204 22.8558 21.9997 26.0001 18.0465 26.0001C14.0934 26.0001 10.889 22.8553 10.889 18.9759ZM14.5662 10.2629C14.6346 10.3377 14.6871 10.4257 14.7205 10.5214C14.7539 10.6171 14.7674 10.7186 14.7604 10.8198C14.7533 10.9209 14.7258 11.0195 14.6794 11.1097C14.633 11.1998 14.5688 11.2796 14.4907 11.3442L11.3166 14.0259C11.1563 14.16 10.9506 14.2273 10.7421 14.2138C10.5336 14.2003 10.3383 14.1071 10.1966 13.9534C10.1282 13.8787 10.0757 13.7908 10.0423 13.6951C10.0089 13.5994 9.99528 13.4979 10.0023 13.3968C10.0092 13.2957 10.0367 13.1971 10.0829 13.1069C10.1292 13.0167 10.1933 12.9368 10.2713 12.8722L13.4458 10.1905C13.6062 10.0559 13.8125 9.98856 14.0214 10.0025C14.2316 10.0158 14.4276 10.11 14.5662 10.2629ZM17.9363 14.9814C17.4981 14.9814 17.143 15.3245 17.143 15.7476V18.8124C17.143 19.0688 17.2755 19.3079 17.4959 19.4501L19.8767 20.9825C20.2411 21.2172 20.7344 21.1225 20.9775 20.7701C21.2206 20.4181 21.122 19.9425 20.7576 19.7079L18.7301 18.4026V15.7476C18.7301 15.3245 18.3745 14.9814 17.9363 14.9814ZM21.4237 10.2678C21.5641 10.1111 21.7602 10.0156 21.9702 10.0018C22.1801 9.98788 22.3871 10.0567 22.5468 10.1936L25.7276 12.9255C26.0582 13.209 26.092 13.7023 25.8031 14.0268C25.5138 14.3512 25.0112 14.3845 24.6805 14.1006L21.4993 11.3695C21.4208 11.303 21.3565 11.2214 21.3101 11.1296C21.2636 11.0377 21.2361 10.9375 21.2291 10.8348C21.222 10.7322 21.2356 10.6292 21.2691 10.5318C21.3025 10.4345 21.3551 10.3449 21.4237 10.2683V10.2678Z" fill="#A44AFD"/>
</g>
<defs>
<clipPath id="clip0_599_978">
<rect width="16" height="16" fill="white" transform="translate(10 10)"/>
</clipPath>
</defs>
</svg>
