<svg width="20" height="20" viewBox="0 0 20 20" fill="none" xmlns="http://www.w3.org/2000/svg">
<path d="M14.1416 10.2085V13.9585C14.1416 17.0835 12.8916 18.3335 9.7666 18.3335H6.0166C2.8916 18.3335 1.6416 17.0835 1.6416 13.9585V10.2085C1.6416 7.0835 2.8916 5.8335 6.0166 5.8335H9.7666C12.8916 5.8335 14.1416 7.0835 14.1416 10.2085Z" stroke="#171717" stroke-width="1.25" stroke-linecap="round" stroke-linejoin="round"/>
<path d="M18.3084 6.24984C18.3084 8.6415 16.4834 10.5998 14.1417 10.8082V10.2082C14.1417 7.08317 12.8917 5.83317 9.76675 5.83317H9.16675C9.37508 3.4915 11.3334 1.6665 13.7251 1.6665C16.0501 1.6665 17.9667 3.3915 18.2584 5.6415C18.2917 5.83317 18.3084 6.0415 18.3084 6.24984Z" stroke="#171717" stroke-width="1.25" stroke-linecap="round" stroke-linejoin="round"/>
</svg>
