<svg width="20" height="20" viewBox="0 0 20 20" fill="none" xmlns="http://www.w3.org/2000/svg">
<path d="M10 12.5C11.3807 12.5 12.5 11.3807 12.5 10C12.5 8.61929 11.3807 7.5 10 7.5C8.61929 7.5 7.5 8.61929 7.5 10C7.5 11.3807 8.61929 12.5 10 12.5Z" stroke="#171717" stroke-width="1.25" stroke-miterlimit="10" stroke-linecap="round" stroke-linejoin="round"/>
<path d="M1.6665 10.7334V9.26669C1.6665 8.40003 2.37484 7.68336 3.24984 7.68336C4.75817 7.68336 5.37484 6.6167 4.6165 5.30836C4.18317 4.55836 4.4415 3.58336 5.19984 3.15003L6.6415 2.32503C7.29984 1.93336 8.14984 2.1667 8.5415 2.82503L8.63317 2.98336C9.38317 4.2917 10.6165 4.2917 11.3748 2.98336L11.4665 2.82503C11.8582 2.1667 12.7082 1.93336 13.3665 2.32503L14.8082 3.15003C15.5665 3.58336 15.8248 4.55836 15.3915 5.30836C14.6332 6.6167 15.2498 7.68336 16.7582 7.68336C17.6248 7.68336 18.3415 8.39169 18.3415 9.26669V10.7334C18.3415 11.6 17.6332 12.3167 16.7582 12.3167C15.2498 12.3167 14.6332 13.3834 15.3915 14.6917C15.8248 15.45 15.5665 16.4167 14.8082 16.85L13.3665 17.675C12.7082 18.0667 11.8582 17.8334 11.4665 17.175L11.3748 17.0167C10.6248 15.7084 9.3915 15.7084 8.63317 17.0167L8.5415 17.175C8.14984 17.8334 7.29984 18.0667 6.6415 17.675L5.19984 16.85C4.4415 16.4167 4.18317 15.4417 4.6165 14.6917C5.37484 13.3834 4.75817 12.3167 3.24984 12.3167C2.37484 12.3167 1.6665 11.6 1.6665 10.7334Z" stroke="#171717" stroke-width="1.25" stroke-miterlimit="10" stroke-linecap="round" stroke-linejoin="round"/>
</svg>
