<svg width="12" height="12" viewBox="0 0 12 12" fill="none" xmlns="http://www.w3.org/2000/svg">
<g id="icon_left_outlined">
<g id="Union">
<path d="M3.85355 10.8536C3.65829 10.6583 3.65829 10.3417 3.85355 10.1464L8 6L3.85355 1.85355C3.65829 1.65829 3.65829 1.34171 3.85355 1.14645C4.04882 0.951184 4.3654 0.951184 4.56066 1.14645L8.70711 5.29289C9.09763 5.68342 9.09763 6.31658 8.70711 6.70711L4.56066 10.8536C4.3654 11.0488 4.04882 11.0488 3.85355 10.8536Z" fill="#1E2022" fill-opacity="0.5"/>
<path d="M3.78284 10.0757C3.54853 10.3101 3.54853 10.6899 3.78284 10.9243C4.01716 11.1586 4.39706 11.1586 4.63137 10.9243L8.77782 6.77782C9.2074 6.34824 9.20739 5.65176 8.77782 5.22218L4.63137 1.07574C4.39706 0.841421 4.01716 0.841421 3.78284 1.07574C3.54853 1.31005 3.54853 1.68995 3.78284 1.92426L7.85858 6L3.78284 10.0757Z" stroke="#1E2022" stroke-opacity="0.5" stroke-width="0.2" stroke-linecap="round" stroke-linejoin="round"/>
</g>
</g>
</svg>
