<svg width="20" height="20" viewBox="0 0 20 20" fill="none" xmlns="http://www.w3.org/2000/svg">
<path fill-rule="evenodd" clip-rule="evenodd" d="M14.7339 2C14.0997 2 13.4915 2.25192 13.0431 2.70034L3.00447 12.739C2.91636 12.8271 2.85386 12.9375 2.82363 13.0584L2.02054 16.2708C1.96197 16.505 2.03062 16.7529 2.20138 16.9236C2.37214 17.0944 2.61998 17.163 2.85426 17.1045L6.06663 16.3014C6.18751 16.2712 6.29791 16.2087 6.38602 16.1205L16.4247 6.08189C16.6467 5.85985 16.8228 5.59626 16.943 5.30616C17.0632 5.01605 17.125 4.70512 17.125 4.39112C17.125 4.07711 17.0632 3.76618 16.943 3.47608C16.8228 3.18597 16.6467 2.92238 16.4247 2.70034C16.2026 2.47831 15.939 2.30218 15.6489 2.18201C15.3588 2.06185 15.0479 2 14.7339 2ZM14.0154 3.67261C14.206 3.48205 14.4644 3.375 14.7339 3.375C14.8673 3.375 14.9995 3.40128 15.1227 3.45235C15.246 3.50341 15.358 3.57826 15.4524 3.67261C15.5468 3.76697 15.6216 3.87898 15.6727 4.00226C15.7237 4.12555 15.75 4.25768 15.75 4.39112C15.75 4.52455 15.7237 4.65669 15.6727 4.77997C15.6216 4.90325 15.5468 5.01526 15.4524 5.10962L5.5484 15.0136L3.63239 15.4926L4.11139 13.5766L14.0154 3.67261Z" fill="#333333"/>
<path d="M9.56251 15.75C9.18282 15.75 8.87501 16.0578 8.87501 16.4375C8.87501 16.8172 9.18282 17.125 9.56251 17.125H17.8125C18.1922 17.125 18.5 16.8172 18.5 16.4375C18.5 16.0578 18.1922 15.75 17.8125 15.75H9.56251Z" fill="#333333"/>
</svg>
