<svg width="16" height="16" viewBox="0 0 16 16" fill="none" xmlns="http://www.w3.org/2000/svg">
<path d="M10.5 13.625V12.375C10.5 11.712 10.2366 11.0761 9.76777 10.6072C9.29893 10.1384 8.66304 9.875 8 9.875H4.25C3.58696 9.875 2.95107 10.1384 2.48223 10.6072C2.01339 11.0761 1.75 11.712 1.75 12.375V13.625" stroke="black" stroke-linecap="round" stroke-linejoin="round"/>
<path d="M3.625 4.875C3.625 5.53804 3.88839 6.17393 4.35723 6.64277C4.82607 7.11161 5.46196 7.375 6.125 7.375C6.78804 7.375 7.42393 7.11161 7.89277 6.64277C8.36161 6.17393 8.625 5.53804 8.625 4.875C8.625 4.21196 8.36161 3.57607 7.89277 3.10723C7.42393 2.63839 6.78804 2.375 6.125 2.375C5.46196 2.375 4.82607 2.63839 4.35723 3.10723C3.88839 3.57607 3.625 4.21196 3.625 4.875Z" stroke="black" stroke-linecap="round" stroke-linejoin="round"/>
<path d="M14.25 13.625V12.375C14.2496 11.8211 14.0652 11.283 13.7259 10.8452C13.3865 10.4074 12.9113 10.0947 12.375 9.95624" stroke="black" stroke-linecap="round" stroke-linejoin="round"/>
<path d="M10.5 2.45624C11.0378 2.59393 11.5144 2.90668 11.8548 3.34518C12.1952 3.78369 12.3799 4.32301 12.3799 4.87811C12.3799 5.43322 12.1952 5.97254 11.8548 6.41104C11.5144 6.84955 11.0378 7.1623 10.5 7.29999" stroke="black" stroke-linecap="round" stroke-linejoin="round"/>
</svg>
