<svg width="18" height="18" viewBox="0 0 18 18" fill="none" xmlns="http://www.w3.org/2000/svg">
<mask id="path-2-outside-1_136_3860" maskUnits="userSpaceOnUse" x="4" y="7" width="10" height="6" fill="black">
<rect fill="white" x="4" y="7" width="10" height="6"/>
<path d="M5.14645 7.64645C5.34171 7.45118 5.65829 7.45118 5.85355 7.64645L9 10.7929L12.1464 7.64645C12.3417 7.45118 12.6583 7.45118 12.8536 7.64645C13.0488 7.84171 13.0488 8.15829 12.8536 8.35355L9.35355 11.8536C9.25979 11.9473 9.13261 12 9 12C8.86739 12 8.74021 11.9473 8.64645 11.8536L5.14645 8.35355C4.95118 8.15829 4.95118 7.84171 5.14645 7.64645Z"/>
</mask>
<path d="M5.14645 7.64645C5.34171 7.45118 5.65829 7.45118 5.85355 7.64645L9 10.7929L12.1464 7.64645C12.3417 7.45118 12.6583 7.45118 12.8536 7.64645C13.0488 7.84171 13.0488 8.15829 12.8536 8.35355L9.35355 11.8536C9.25979 11.9473 9.13261 12 9 12C8.86739 12 8.74021 11.9473 8.64645 11.8536L5.14645 8.35355C4.95118 8.15829 4.95118 7.84171 5.14645 7.64645Z" fill="#171717"/>
<path d="M5.85355 7.64645L5.78284 7.71716H5.78284L5.85355 7.64645ZM5.14645 7.64645L5.21716 7.71716L5.14645 7.64645ZM9 10.7929L9.07071 10.8636C9.05196 10.8824 9.02652 10.8929 9 10.8929C8.97348 10.8929 8.94804 10.8824 8.92929 10.8636L9 10.7929ZM12.1464 7.64645L12.2172 7.71716L12.1464 7.64645ZM12.8536 7.64645L12.7828 7.71716L12.8536 7.64645ZM12.8536 8.35355L12.7828 8.28284L12.8536 8.35355ZM9.35355 11.8536L9.42426 11.9243V11.9243L9.35355 11.8536ZM8.64645 11.8536L8.71716 11.7828V11.7828L8.64645 11.8536ZM5.14645 8.35355L5.07574 8.42426H5.07574L5.14645 8.35355ZM5.78284 7.71716C5.62663 7.56095 5.37337 7.56095 5.21716 7.71716L5.07574 7.57574C5.31005 7.34142 5.68995 7.34142 5.92426 7.57574L5.78284 7.71716ZM8.92929 10.8636L5.78284 7.71716L5.92426 7.57574L9.07071 10.7222L8.92929 10.8636ZM12.2172 7.71716L9.07071 10.8636L8.92929 10.7222L12.0757 7.57574L12.2172 7.71716ZM12.7828 7.71716C12.6266 7.56095 12.3734 7.56095 12.2172 7.71716L12.0757 7.57574C12.3101 7.34142 12.6899 7.34142 12.9243 7.57574L12.7828 7.71716ZM12.7828 8.28284C12.9391 8.12663 12.9391 7.87337 12.7828 7.71716L12.9243 7.57574C13.1586 7.81005 13.1586 8.18995 12.9243 8.42426L12.7828 8.28284ZM9.28284 11.7828L12.7828 8.28284L12.9243 8.42426L9.42426 11.9243L9.28284 11.7828ZM9 11.9C9.10609 11.9 9.20783 11.8579 9.28284 11.7828L9.42426 11.9243C9.31174 12.0368 9.15913 12.1 9 12.1V11.9ZM8.71716 11.7828C8.79217 11.8579 8.89391 11.9 9 11.9V12.1C8.84087 12.1 8.68826 12.0368 8.57574 11.9243L8.71716 11.7828ZM5.21716 8.28284L8.71716 11.7828L8.57574 11.9243L5.07574 8.42426L5.21716 8.28284ZM5.21716 7.71716C5.06095 7.87337 5.06095 8.12663 5.21716 8.28284L5.07574 8.42426C4.84142 8.18995 4.84142 7.81005 5.07574 7.57574L5.21716 7.71716Z" fill="#171717" fill-opacity="0.8" mask="url(#path-2-outside-1_136_3860)"/>
</svg>
