<svg width="18" height="18" viewBox="0 0 18 18" fill="none" xmlns="http://www.w3.org/2000/svg">
<g opacity="0.5">
<path d="M4.76211 9.0002C4.76211 9.68365 4.20806 10.2377 3.52461 10.2377C2.84116 10.2377 2.28711 9.68365 2.28711 9.0002C2.28711 8.31674 2.84116 7.7627 3.52461 7.7627C4.20806 7.7627 4.76211 8.31674 4.76211 9.0002Z" fill="#171717"/>
<path d="M10.2367 9.0002C10.2367 9.68365 9.68267 10.2377 8.99922 10.2377C8.31577 10.2377 7.76172 9.68365 7.76172 9.0002C7.76172 8.31674 8.31577 7.7627 8.99922 7.7627C9.68267 7.7627 10.2367 8.31674 10.2367 9.0002Z" fill="#171717"/>
<path d="M15.7113 9.0002C15.7113 9.68365 15.1573 10.2377 14.4738 10.2377C13.7904 10.2377 13.2363 9.68365 13.2363 9.0002C13.2363 8.31674 13.7904 7.7627 14.4738 7.7627C15.1573 7.7627 15.7113 8.31674 15.7113 9.0002Z" fill="#171717"/>
</g>
</svg>
