<svg width="25" height="24" viewBox="0 0 25 24" fill="none" xmlns="http://www.w3.org/2000/svg">
<path d="M16.4482 20.5L6.04688 2M22.0469 19C22.0469 20.6569 20.7038 22 19.0469 22C17.39 22 16.0469 20.6569 16.0469 19C16.0469 17.3431 17.39 16 19.0469 16C20.7038 16 22.0469 17.3431 22.0469 19Z" stroke="#666D76" stroke-width="1.5" stroke-linecap="round"/>
<path d="M7.64552 20.5L18.0469 2M2.04688 19C2.04688 20.6569 3.39003 22 5.04688 22C6.70372 22 8.04688 20.6569 8.04688 19C8.04688 17.3431 6.70372 16 5.04688 16C3.39003 16 2.04688 17.3431 2.04688 19Z" stroke="#666D76" stroke-width="1.5" stroke-linecap="round"/>
</svg>
