<svg width="25" height="24" viewBox="0 0 25 24" fill="none" xmlns="http://www.w3.org/2000/svg">
<path d="M16.5469 4.00195C18.7219 4.01406 19.8998 4.11051 20.6682 4.87889C21.5469 5.75757 21.5469 7.17179 21.5469 10.0002V16.0002C21.5469 18.8286 21.5469 20.2429 20.6682 21.1215C19.7895 22.0002 18.3753 22.0002 15.5469 22.0002H9.54688C6.71845 22.0002 5.30423 22.0002 4.42555 21.1215C3.54688 20.2429 3.54688 18.8286 3.54688 16.0002V10.0002C3.54688 7.17179 3.54688 5.75757 4.42555 4.87889C5.19393 4.11051 6.37185 4.01406 8.54688 4.00195" stroke="#666D76" stroke-width="1.5"/>
<path d="M7.54688 14.5H15.5469" stroke="#666D76" stroke-width="1.5" stroke-linecap="round"/>
<path d="M7.54688 18H13.0469" stroke="#666D76" stroke-width="1.5" stroke-linecap="round"/>
<path d="M8.54688 3.5C8.54688 2.67157 9.21845 2 10.0469 2H15.0469C15.8753 2 16.5469 2.67157 16.5469 3.5V4.5C16.5469 5.32843 15.8753 6 15.0469 6H10.0469C9.21845 6 8.54688 5.32843 8.54688 4.5V3.5Z" stroke="#666D76" stroke-width="1.5"/>
</svg>
