<svg width="25" height="24" viewBox="0 0 25 24" fill="none" xmlns="http://www.w3.org/2000/svg">
<path d="M16.2969 12.9V17.1C16.2969 20.6 14.8969 22 11.3969 22H7.19688C3.69688 22 2.29688 20.6 2.29688 17.1V12.9C2.29688 9.4 3.69688 8 7.19688 8H11.3969C14.8969 8 16.2969 9.4 16.2969 12.9Z" stroke="#666D76" stroke-width="1.5" stroke-linecap="round" stroke-linejoin="round"/>
<path d="M22.2969 6.9V11.1C22.2969 14.6 20.8969 16 17.3969 16H16.2969V12.9C16.2969 9.4 14.8969 8 11.3969 8H8.29688V6.9C8.29688 3.4 9.69687 2 13.1969 2H17.3969C20.8969 2 22.2969 3.4 22.2969 6.9Z" stroke="#666D76" stroke-width="1.5" stroke-linecap="round" stroke-linejoin="round"/>
</svg>
