<svg width="25" height="24" viewBox="0 0 25 24" fill="none" xmlns="http://www.w3.org/2000/svg">
<path d="M21.7969 5.97998C18.4669 5.64998 15.1169 5.47998 11.7769 5.47998C9.79687 5.47998 7.81687 5.57998 5.83687 5.77998L3.79688 5.97998" stroke="#FB006D" stroke-width="1.5" stroke-linecap="round" stroke-linejoin="round"/>
<path d="M9.29688 4.97L9.51688 3.66C9.67688 2.71 9.79687 2 11.4869 2H14.1069C15.7969 2 15.9269 2.75 16.0769 3.67L16.2969 4.97" stroke="#FB006D" stroke-width="1.5" stroke-linecap="round" stroke-linejoin="round"/>
<path d="M19.6473 9.14014L18.9973 19.2101C18.8873 20.7801 18.7973 22.0001 16.0073 22.0001H9.58727C6.79727 22.0001 6.70727 20.7801 6.59727 19.2101L5.94727 9.14014" stroke="#FB006D" stroke-width="1.5" stroke-linecap="round" stroke-linejoin="round"/>
<path d="M11.127 16.5H14.457" stroke="#FB006D" stroke-width="1.5" stroke-linecap="round" stroke-linejoin="round"/>
<path d="M10.2969 12.5H15.2969" stroke="#FB006D" stroke-width="1.5" stroke-linecap="round" stroke-linejoin="round"/>
</svg>
