<svg width="32" height="32" viewBox="0 0 32 32" fill="none" xmlns="http://www.w3.org/2000/svg">
<path d="M15 15.1186H15.1V15.0186V12.0186C15.1 11.5215 15.5029 11.1186 16 11.1186C16.4971 11.1186 16.9 11.5215 16.9 12.0186V15.0186V15.1186H17H20C20.4971 15.1186 20.9 15.5215 20.9 16.0186C20.9 16.5156 20.4971 16.9186 20 16.9186H17H16.9V17.0186V20.0186C16.9 20.5156 16.4971 20.9186 16 20.9186C15.5029 20.9186 15.1 20.5156 15.1 20.0186V17.0186V16.9186H15H12C11.5029 16.9186 11.1 16.5156 11.1 16.0186C11.1 15.5215 11.5029 15.1186 12 15.1186H15ZM16 25.1C21.0258 25.1 25.1 21.0258 25.1 16C25.1 10.9742 21.0258 6.9 16 6.9C10.9742 6.9 6.9 10.9742 6.9 16C6.9 21.0258 10.9742 25.1 16 25.1ZM26.9 16C26.9 22.0199 22.0199 26.9 16 26.9C9.9801 26.9 5.1 22.0199 5.1 16C5.1 9.9801 9.9801 5.1 16 5.1C22.0199 5.1 26.9 9.9801 26.9 16Z" fill="#2B2F36" stroke="white" stroke-width="0.2" stroke-linecap="round"/>
</svg>
