<svg width="32" height="32" viewBox="0 0 32 32" fill="none" xmlns="http://www.w3.org/2000/svg">
<path d="M12.7071 6.29289C13.0976 6.68342 13.0976 7.31658 12.7071 7.70711L9.41421 11H18.5C22.6421 11 26 14.3579 26 18.5C26 22.6421 22.6421 26 18.5 26H15C14.4477 26 14 25.5523 14 25C14 24.4477 14.4477 24 15 24H18.5C21.5376 24 24 21.5376 24 18.5C24 15.4624 21.5376 13 18.5 13H9.41421L12.7071 16.2929C13.0976 16.6834 13.0976 17.3166 12.7071 17.7071C12.3166 18.0976 11.6834 18.0976 11.2929 17.7071L6.29289 12.7071C5.90237 12.3166 5.90237 11.6834 6.29289 11.2929L11.2929 6.29289C11.6834 5.90237 12.3166 5.90237 12.7071 6.29289Z" fill="#2B2F36" stroke="#F3F3F8" stroke-width="0.1"/>
</svg>
