<svg width="32" height="32" viewBox="0 0 32 32" fill="none" xmlns="http://www.w3.org/2000/svg">
<path d="M10.947 8.07235L16.5972 23.5028H14.5885L13.3601 20.0576L13.343 20.0095H13.292H6.40881H6.35779L6.34066 20.0576L5.11226 23.5028H3.10354L8.75375 8.07235H10.947ZM7.03988 18.1218L7.00551 18.2185H7.10805H12.5927H12.6955L12.6608 18.1217L9.90757 10.4453L9.83919 10.2547L9.7713 10.4455L7.03988 18.1218ZM22.969 23.7921C21.4597 23.7921 20.1748 23.2369 19.1102 22.1236C18.0454 20.9955 17.513 19.6266 17.513 18.0126C17.513 16.3986 18.0455 15.0373 19.1099 13.9241L19.1103 13.9237C20.175 12.7956 21.46 12.2331 22.969 12.2331C24.7518 12.2331 26.1051 12.9557 27.0381 14.4028L27.1713 14.6093V14.3636V12.5224H28.9276V23.5028H27.1713V21.6616V21.4159L27.0381 21.6224C26.1051 23.0695 24.7518 23.7921 22.969 23.7921ZM26.0361 20.9113L26.0366 20.9108C26.7933 20.1252 27.1713 19.1576 27.1713 18.0126C27.1713 16.8677 26.7933 15.9072 26.0363 15.1363C25.2793 14.3505 24.3353 13.9575 23.2094 13.9575C22.0977 13.9575 21.1611 14.3507 20.4043 15.1364C19.6473 15.9073 19.2694 16.8677 19.2694 18.0126C19.2694 19.1576 19.6474 20.1252 20.404 20.9108L20.4045 20.9113C21.1615 21.6821 22.0981 22.0677 23.2094 22.0677C24.335 22.0677 25.2789 21.6824 26.0361 20.9113Z" fill="#333333" stroke="#F3F3F8" stroke-width="0.144706"/>
</svg>
