<svg width="32" height="32" viewBox="0 0 32 32" fill="none" xmlns="http://www.w3.org/2000/svg">
<path d="M3.80078 10.4225C3.80078 8.47705 5.381 6.8999 7.33029 6.8999H24.0367C25.986 6.8999 27.5662 8.47705 27.5662 10.4225V16.0586C27.186 15.9816 26.7926 15.9412 26.3897 15.9412C26.2313 15.9412 26.0743 15.9474 25.9191 15.9597V10.4225C25.9191 9.38495 25.0763 8.5438 24.0367 8.5438H7.33029C6.29067 8.5438 5.44789 9.38495 5.44789 10.4225V21.4602C5.44789 22.4978 6.29067 23.3389 7.33029 23.3389H20.708C20.8667 23.9287 21.1151 24.4819 21.4378 24.9828H7.33029C5.381 24.9828 3.80078 23.4057 3.80078 21.4602V10.4225Z" fill="#333333"/>
<path d="M21.9042 17.688C21.9945 17.688 22.0813 17.7025 22.1626 17.7293C21.7103 18.1956 21.3348 18.7366 21.0563 19.3319H9.46266C9.00782 19.3319 8.6391 18.9639 8.6391 18.51C8.6391 18.056 9.00782 17.688 9.46266 17.688H21.9042Z" fill="#333333"/>
<path d="M8.6391 13.8865C8.6391 13.4325 9.00782 13.0645 9.46266 13.0645H10.7896C11.2444 13.0645 11.6131 13.4325 11.6131 13.8865C11.6131 14.3404 11.2444 14.7084 10.7896 14.7084H9.46266C9.00782 14.7084 8.6391 14.3404 8.6391 13.8865Z" fill="#333333"/>
<path d="M13.1121 13.8865C13.1121 13.4325 13.4809 13.0645 13.9357 13.0645H15.334C15.7888 13.0645 16.1575 13.4325 16.1575 13.8865C16.1575 14.3404 15.7888 14.7084 15.334 14.7084H13.9357C13.4809 14.7084 13.1121 14.3404 13.1121 13.8865Z" fill="#333333"/>
<path d="M17.4519 13.8865C17.4519 13.4325 17.8206 13.0645 18.2754 13.0645H21.9042C22.3591 13.0645 22.7278 13.4325 22.7278 13.8865C22.7278 14.3404 22.3591 14.7084 21.9042 14.7084H18.2754C17.8206 14.7084 17.4519 14.3404 17.4519 13.8865Z" fill="#333333"/>
<path d="M27.2127 18.8766C27.2127 18.5523 26.9493 18.2895 26.6244 18.2895C26.2996 18.2894 26.0362 18.5523 26.0362 18.8766L26.0361 23.0954L24.2167 21.2796C23.987 21.0503 23.6146 21.0503 23.3848 21.2796C23.1551 21.5089 23.1551 21.8806 23.3848 22.1099L26.2084 24.9279C26.3187 25.038 26.4683 25.0999 26.6243 25.0999C26.7804 25.0999 26.93 25.038 27.0403 24.9279L29.8639 22.1099C30.0936 21.8806 30.0936 21.5089 29.8639 21.2796C29.6341 21.0503 29.2617 21.0503 29.032 21.2796L27.2126 23.0954L27.2127 18.8766Z" fill="#333333"/>
</svg>
