<svg width="32" height="32" viewBox="0 0 32 32" fill="none" xmlns="http://www.w3.org/2000/svg">
<path d="M22.6211 10.9646L22.7065 11.05H22.5858H13.5C9.38548 11.05 6.05 14.3855 6.05 18.5C6.05 22.6145 9.38548 25.95 13.5 25.95H17C17.5247 25.95 17.95 25.5247 17.95 25C17.95 24.4753 17.5247 24.05 17 24.05H13.5C10.4348 24.05 7.95 21.5652 7.95 18.5C7.95 15.4348 10.4348 12.95 13.5 12.95H22.5858H22.7065L22.6211 13.0354L19.3282 16.3282C18.9573 16.6992 18.9573 17.3008 19.3282 17.6718C19.6992 18.0428 20.3008 18.0428 20.6718 17.6718L25.6718 12.6718C26.0427 12.3008 26.0427 11.6992 25.6718 11.3282L20.6718 6.32825C20.3008 5.95725 19.6992 5.95725 19.3282 6.32825C18.9573 6.69925 18.9573 7.30075 19.3282 7.67175L22.6211 10.9646Z" fill="#2B2F36" stroke="#F3F3F8" stroke-width="0.1"/>
</svg>
