<svg width="32" height="32" viewBox="0 0 32 32" fill="none" xmlns="http://www.w3.org/2000/svg">
<path d="M9.60938 7.75073C9.60938 7.4003 9.89346 7.11621 10.2439 7.11621H16.2719C18.9002 7.11621 21.0308 9.24686 21.0308 11.8751C21.0308 13.2224 20.4709 14.4389 19.5712 15.3047C21.1929 16.1521 22.2999 17.8501 22.2999 19.8067C22.2999 22.6102 20.0272 24.8829 17.2237 24.8829H10.2439C9.89346 24.8829 9.60938 24.5988 9.60938 24.2484V7.75073ZM11.3995 14.7305H16.2719C17.8488 14.7305 19.1272 13.4521 19.1272 11.8751C19.1272 10.2982 17.8488 8.90639 16.2719 8.90639H11.3995V14.7305ZM11.3995 16.6341V22.9793H17.2237C18.9758 22.9793 20.3963 21.5589 20.3963 19.8067C20.3963 18.0545 18.9758 16.6341 17.2237 16.6341H11.3995Z" fill="#2B2F36" stroke="#1F2329"/>
</svg>
