<svg width="32" height="32" viewBox="0 0 32 32" fill="none" xmlns="http://www.w3.org/2000/svg">
<path d="M24.5896 7.09781C24.2085 6.7892 23.6494 6.84796 23.3408 7.22907L15.2525 17.2173C14.634 17.981 14.2166 18.8874 14.0382 19.8538C14.0099 20.0068 14.1624 20.1303 14.3062 20.0708C15.2144 19.6954 16.0141 19.0986 16.6326 18.3348L24.7209 8.34664C25.0295 7.96554 24.9707 7.40642 24.5896 7.09781Z" fill="#1F2329"/>
<path d="M20.1948 8.46158C18.7968 7.89135 17.265 7.58858 15.7029 7.58725L15.6813 7.59154L15.2035 7.60096L14.7499 7.62717C13.693 7.70864 12.6466 7.93208 11.6342 8.29326C10.3898 8.74259 9.26968 9.3818 8.3004 10.1957C7.32717 11.0137 6.56016 11.9625 6.01996 13.0158C5.45409 14.118 5.16797 15.2774 5.16797 16.4651C5.16797 17.6505 5.45549 18.8 6.0222 19.8817C6.56185 20.9092 7.33083 21.8309 8.30696 22.6197C9.27525 23.4002 10.3958 24.0118 11.6407 24.4382C12.9229 24.8771 14.2882 25.0999 15.6926 25.0999L16.1767 25.0913L16.6428 25.0655C17.1086 25.0311 17.5733 24.9709 18.0364 24.885L18.6777 24.7537L18.8517 24.7001C19.3081 24.5352 19.7035 24.1977 19.9647 23.7391C20.2924 23.1638 20.377 22.4548 20.1952 21.8051L20.1156 21.4951L20.0892 21.3017C20.0492 20.8487 20.1591 20.3886 20.4055 20.011C20.7227 19.5276 21.2306 19.2395 21.7713 19.237H23.3412L23.5219 19.2307C24.9557 19.1305 26.1057 17.8466 26.1922 16.2427L26.1974 16.0484L26.1927 15.8354L26.1483 15.4511L26.0886 15.0922C25.9058 14.139 25.5369 13.2186 24.9907 12.3579C24.7769 12.0199 24.5392 11.695 24.2784 11.3843L23.2143 12.699C23.3509 12.8766 23.4784 13.059 23.5964 13.246C24.0247 13.9212 24.3144 14.6341 24.4608 15.3716L24.5147 15.6892L24.5425 15.9344L24.5447 16.0106L24.5386 16.2053L24.5202 16.3558C24.4146 16.9988 23.9839 17.5114 23.4629 17.5813L23.3412 17.5895H21.7688L21.5506 17.597C20.5373 17.6669 19.6038 18.2205 19.0226 19.1071C18.4836 19.928 18.3028 20.9343 18.5126 21.9086L18.5732 22.1514L18.6058 22.267L18.6303 22.4035C18.6491 22.5869 18.613 22.773 18.5258 22.9261C18.4664 23.0296 18.3878 23.108 18.306 23.1446L18.2442 23.1639L17.6481 23.2824L17.1615 23.3577C16.6739 23.4224 16.1832 23.4549 15.6901 23.4549C14.4664 23.4549 13.2825 23.2622 12.1728 22.8815C11.1093 22.5179 10.1558 21.9993 9.34091 21.3419C8.54115 20.6946 7.91398 19.9472 7.47901 19.1222C7.03751 18.2794 6.81297 17.3875 6.81297 16.4725C6.81297 15.5519 7.03908 14.643 7.48375 13.7786C7.9228 12.923 8.55419 12.1456 9.35751 11.4699C10.1777 10.7814 11.1298 10.2388 12.1867 9.8556C13.1669 9.49993 14.1827 9.29892 15.2147 9.25423L15.6926 9.24465L16.1328 9.25384C17.1569 9.29666 18.1584 9.48842 19.0973 9.81615L20.1948 8.46158Z" fill="#1F2329"/>
<path d="M11.198 18.0514C11.1957 17.3785 10.651 16.8314 9.97804 16.8314C9.30511 16.8314 8.75806 17.3785 8.75806 18.0514C8.75806 18.7243 9.30282 19.2714 9.97804 19.2714C10.651 19.2714 11.198 18.7243 11.198 18.0514Z" fill="#1F2329"/>
<path d="M12.3071 13.6151C12.3071 12.9422 11.76 12.3952 11.0871 12.3952C10.4142 12.3952 9.86713 12.9422 9.86713 13.6151C9.86713 14.2881 10.4119 14.8351 11.0871 14.8351C11.76 14.8351 12.3071 14.2881 12.3071 13.6151Z" fill="#1F2329"/>
<path d="M16.9652 11.9515C16.9652 11.2786 16.4204 10.7316 15.7452 10.7316C15.0723 10.7316 14.5252 11.2786 14.5252 11.9515C14.5252 12.6245 15.07 13.1715 15.7452 13.1715C16.4181 13.1715 16.9652 12.6245 16.9652 11.9515Z" fill="#1F2329"/>
</svg>
