<svg width="32" height="32" viewBox="0 0 32 32" fill="none" xmlns="http://www.w3.org/2000/svg">
<path d="M8.06835 8.37911C8.2694 8.17699 8.5421 8.06344 8.82643 8.06344H19.5474C20.0318 8.06344 20.4246 7.66864 20.4246 7.18162C20.4246 6.69461 20.0318 6.2998 19.5474 6.2998H8.82643C8.07682 6.2998 7.3579 6.59917 6.82784 7.13204C6.29778 7.6649 6 8.38763 6 9.14122V22.8584C6 23.612 6.29778 24.3347 6.82784 24.8676C7.3579 25.4004 8.07682 25.6998 8.82643 25.6998H22.4713C23.2209 25.6998 23.9398 25.4004 24.4699 24.8676C24.9999 24.3347 25.2977 23.612 25.2977 22.8584V16.8816C25.2977 16.3946 24.905 15.9998 24.4205 15.9998C23.9361 15.9998 23.5434 16.3946 23.5434 16.8816V22.8584C23.5434 23.1442 23.4304 23.4184 23.2294 23.6205C23.0283 23.8226 22.7556 23.9362 22.4713 23.9362H8.82643C8.5421 23.9362 8.2694 23.8226 8.06835 23.6205C7.86729 23.4184 7.75434 23.1442 7.75434 22.8584V9.14122C7.75434 8.85537 7.86729 8.58124 8.06835 8.37911Z" fill="#1F2329"/>
<path d="M25.8957 10.4745C26.2507 10.1431 26.2713 9.58511 25.9416 9.22823C25.612 8.87135 25.057 8.85068 24.702 9.18207L15.8524 17.4431L13.6153 15.3548C13.2603 15.0234 12.7053 15.0441 12.3757 15.401C12.046 15.7578 12.0666 16.3158 12.4216 16.6472L15.2555 19.2926C15.5921 19.6068 16.1127 19.6068 16.4493 19.2926L25.8957 10.4745Z" fill="#1F2329"/>
<path d="M8.06835 8.37911C8.2694 8.17699 8.5421 8.06344 8.82643 8.06344H19.5474C20.0318 8.06344 20.4246 7.66864 20.4246 7.18162C20.4246 6.69461 20.0318 6.2998 19.5474 6.2998H8.82643C8.07682 6.2998 7.3579 6.59917 6.82784 7.13204C6.29778 7.6649 6 8.38763 6 9.14122V22.8584C6 23.612 6.29778 24.3347 6.82784 24.8676C7.3579 25.4004 8.07682 25.6998 8.82643 25.6998H22.4713C23.2209 25.6998 23.9398 25.4004 24.4699 24.8676C24.9999 24.3347 25.2977 23.612 25.2977 22.8584V16.8816C25.2977 16.3946 24.905 15.9998 24.4205 15.9998C23.9361 15.9998 23.5434 16.3946 23.5434 16.8816V22.8584C23.5434 23.1442 23.4304 23.4184 23.2294 23.6205C23.0283 23.8226 22.7556 23.9362 22.4713 23.9362H8.82643C8.5421 23.9362 8.2694 23.8226 8.06835 23.6205C7.86729 23.4184 7.75434 23.1442 7.75434 22.8584V9.14122C7.75434 8.85537 7.86729 8.58124 8.06835 8.37911Z" stroke="#F3F3F8" stroke-width="0.194" stroke-linecap="round" stroke-linejoin="round"/>
<path d="M25.8957 10.4745C26.2507 10.1431 26.2713 9.58511 25.9416 9.22823C25.612 8.87135 25.057 8.85068 24.702 9.18207L15.8524 17.4431L13.6153 15.3548C13.2603 15.0234 12.7053 15.0441 12.3757 15.401C12.046 15.7578 12.0666 16.3158 12.4216 16.6472L15.2555 19.2926C15.5921 19.6068 16.1127 19.6068 16.4493 19.2926L25.8957 10.4745Z" stroke="#F3F3F8" stroke-width="0.194" stroke-linecap="round" stroke-linejoin="round"/>
</svg>
