<svg width="16" height="16" viewBox="0 0 16 16" fill="none" xmlns="http://www.w3.org/2000/svg">
<g clip-path="url(#clip0_325_863)">
<path d="M0.55957 1.04443L15.2068 15.3953" stroke="black" stroke-linecap="round"/>
<path fill-rule="evenodd" clip-rule="evenodd" d="M8.36877 4.64728C8.27405 4.54368 8.14014 4.48467 7.99976 4.48467C7.85938 4.48467 7.72547 4.54368 7.63074 4.64728L7.04482 5.28814L8.49976 6.71365V6.27254L10.6461 8.62012C10.8325 8.82392 11.1487 8.83808 11.3525 8.65174C11.5563 8.46541 11.5705 8.14915 11.3841 7.94535L8.36877 4.64728ZM8.49976 8.11362V14.7847C8.49976 15.0608 8.2759 15.2847 7.99976 15.2847C7.72362 15.2847 7.49976 15.0608 7.49976 14.7847L7.49976 7.13386L8.49976 8.11362ZM7.08437 6.72687L6.36964 6.02661L4.61537 7.94535C4.42904 8.14915 4.4432 8.46541 4.647 8.65174C4.8508 8.83808 5.16706 8.82392 5.3534 8.62012L7.08437 6.72687Z" fill="black"/>
<path fill-rule="evenodd" clip-rule="evenodd" d="M1.55985 1.48933C1.54792 1.50074 1.53608 1.51232 1.52432 1.52409L1.52428 1.52412C1.08469 1.96369 0.89294 2.51891 0.802682 3.19018C0.715396 3.83935 0.715405 4.66661 0.715418 5.70119V5.70122V5.73828C0.715418 6.01442 0.939275 6.23828 1.21542 6.23828C1.49156 6.23828 1.71542 6.01442 1.71542 5.73828C1.71542 4.65808 1.71648 3.89822 1.79376 3.32344C1.86911 2.76305 2.00857 2.45403 2.23139 2.23123L2.23142 2.23119C2.24554 2.21708 2.25999 2.2033 2.27484 2.18985L1.63575 1.5637L1.55985 1.48933ZM2.73041 0.886241L3.62347 1.76123C4.15755 1.71596 4.83629 1.71522 5.73848 1.71522H10.2616C11.3418 1.71522 12.1017 1.71628 12.6765 1.79356C13.2369 1.86891 13.5459 2.00837 13.7687 2.23121C13.9915 2.45401 14.131 2.76302 14.2063 3.32341C14.2836 3.89819 14.2847 4.65805 14.2847 5.73828C14.2847 5.89472 14.3565 6.03438 14.469 6.12606C14.5551 6.19622 14.665 6.23828 14.7847 6.23828C15.0608 6.23828 15.2847 6.01442 15.2847 5.73828L15.2847 5.70123C15.2847 4.66659 15.2847 3.83933 15.1974 3.19017C15.1072 2.51888 14.9154 1.96367 14.4758 1.5241C14.0362 1.08451 13.481 0.892744 12.8097 0.802483C12.1606 0.715196 11.3333 0.715206 10.2987 0.715219H10.2987H10.2616H5.73848H5.70143C4.66682 0.715206 3.83956 0.715196 3.19038 0.802483C3.03048 0.823983 2.87715 0.851243 2.73041 0.886241Z" fill="black"/>
</g>
<defs>
<clipPath id="clip0_325_863">
<rect x="16" y="16" width="16" height="16" transform="rotate(-180 16 16)" fill="white"/>
</clipPath>
</defs>
</svg>
