<svg width="16" height="17" viewBox="0 0 16 17" fill="none" xmlns="http://www.w3.org/2000/svg">
<path d="M14.1958 9.73784C14.1779 11.8531 14.0604 13.0192 13.2915 13.7882C12.3838 14.6958 10.9231 14.6958 8.00158 14.6958C5.08008 14.6958 3.61933 14.6958 2.71173 13.7882C1.80414 12.8806 1.80414 11.4199 1.80414 8.49836C1.80414 5.57685 1.80414 4.1161 2.71173 3.2085C3.48072 2.4395 4.64683 2.32208 6.76211 2.30414" stroke="black" stroke-width="1.13" stroke-linecap="round"/>
<path d="M14.1958 5.40205H9.23915C8.113 5.40205 7.43412 5.95474 7.18238 6.20769C7.10444 6.28603 7.06547 6.32521 7.06491 6.32574C7.06441 6.32627 7.02519 6.36525 6.94688 6.44321C6.69392 6.69495 6.14124 7.37382 6.14124 8.49997V10.3587M14.1958 5.40205L11.0979 2.30414M14.1958 5.40205L11.0979 8.49997" stroke="black" stroke-width="1.13" stroke-linecap="round" stroke-linejoin="round"/>
</svg>
