<svg xmlns="http://www.w3.org/2000/svg" viewBox="-0.5 -0.5 16 16" fill="none" stroke="#000000" stroke-linecap="round" stroke-linejoin="round" id="Wand-Sparkles--Streamline-Lucide.svg" height="16" width="16"><desc>Wand Sparkles Streamline Icon: https://streamlinehq.com</desc><path d="m13.525 2.275 -0.8 -0.8a0.75625 0.75625 0 0 0 -1.075 0L1.4749999999999999 11.65a0.75625 0.75625 0 0 0 0 1.075l0.8 0.8a0.75 0.75 0 0 0 1.075 0L13.525 3.35a0.75 0.75 0 0 0 0 -1.075" stroke-width="1"></path><path d="m8.75 4.375 1.875 1.875" stroke-width="1"></path><path d="M3.125 3.75v2.5" stroke-width="1"></path><path d="M11.875 8.75v2.5" stroke-width="1"></path><path d="M6.25 1.25v1.25" stroke-width="1"></path><path d="M4.375 5H1.875" stroke-width="1"></path><path d="M13.125 10h-2.5" stroke-width="1"></path><path d="M6.875 1.875H5.625" stroke-width="1"></path></svg>