<svg width="16" height="16" viewBox="0 0 16 16" fill="none" xmlns="http://www.w3.org/2000/svg">
    <g opacity="0.6">
    <path d="M4.23516 7.99941C4.23516 8.60693 3.74267 9.09941 3.13516 9.09941C2.52764 9.09941 2.03516 8.60693 2.03516 7.99941C2.03516 7.3919 2.52764 6.89941 3.13516 6.89941C3.74267 6.89941 4.23516 7.3919 4.23516 7.99941Z" fill="#171717"/>
    <path d="M9.10234 7.99941C9.10234 8.60693 8.60986 9.09941 8.00234 9.09941C7.39483 9.09941 6.90234 8.60693 6.90234 7.99941C6.90234 7.3919 7.39483 6.89941 8.00234 6.89941C8.60986 6.89941 9.10234 7.3919 9.10234 7.99941Z" fill="#171717"/>
    <path d="M13.9695 7.99941C13.9695 8.60693 13.477 9.09941 12.8695 9.09941C12.262 9.09941 11.7695 8.60693 11.7695 7.99941C11.7695 7.3919 12.262 6.89941 12.8695 6.89941C13.477 6.89941 13.9695 7.3919 13.9695 7.99941Z" fill="#171717"/>
    </g>
    </svg>
