<svg width="16" height="16" viewBox="0 0 16 16" fill="none" xmlns="http://www.w3.org/2000/svg">
<path d="M4.8174 2.67738C5.06386 2.43092 5.06386 2.03132 4.8174 1.78485C4.57093 1.53839 4.17134 1.53839 3.92487 1.78485L2.4778 3.23192L1.9774 2.73152C1.73093 2.48506 1.33134 2.48506 1.08487 2.73152C0.838408 2.97799 0.838408 3.37758 1.08487 3.62405L2.03154 4.57071C2.278 4.81718 2.6776 4.81718 2.92407 4.57071L4.8174 2.67738Z" fill="#171717"/>
<path d="M6.89558 2.23112C6.54703 2.23112 6.26447 2.51368 6.26447 2.86223C6.26447 3.21078 6.54703 3.49334 6.89558 3.49334H14.4689C14.8175 3.49334 15.1 3.21078 15.1 2.86223C15.1 2.51368 14.8175 2.23112 14.4689 2.23112H6.89558Z" fill="#171717"/>
<path d="M6.89558 7.28001C6.54703 7.28001 6.26447 7.56256 6.26447 7.91112C6.26447 8.25967 6.54703 8.54223 6.89558 8.54223H14.4689C14.8175 8.54223 15.1 8.25967 15.1 7.91112C15.1 7.56256 14.8175 7.28001 14.4689 7.28001H6.89558Z" fill="#171717"/>
<path d="M6.89558 12.3289C6.54703 12.3289 6.26447 12.6115 6.26447 12.96C6.26447 13.3086 6.54703 13.5911 6.89558 13.5911H14.4689C14.8175 13.5911 15.1 13.3086 15.1 12.96C15.1 12.6115 14.8175 12.3289 14.4689 12.3289H6.89558Z" fill="#171717"/>
<path d="M4.8174 12.144C5.06386 11.8976 5.06386 11.498 4.8174 11.2515C4.57093 11.0051 4.17134 11.0051 3.92487 11.2515L2.4778 12.6986L1.9774 12.1982C1.73093 11.9517 1.33134 11.9517 1.08487 12.1982C0.838408 12.4447 0.838408 12.8442 1.08487 13.0907L2.03154 14.0374C2.278 14.2838 2.6776 14.2838 2.92407 14.0374L4.8174 12.144Z" fill="#171717"/>
<path d="M4.8174 6.51819C5.06386 6.76465 5.06386 7.16425 4.8174 7.41071L2.92407 9.30405C2.6776 9.55051 2.278 9.55051 2.03154 9.30405L1.08487 8.35738C0.838408 8.11092 0.838408 7.71132 1.08487 7.46485C1.33134 7.21839 1.73093 7.21839 1.9774 7.46485L2.4778 7.96526L3.92487 6.51819C4.17134 6.27172 4.57093 6.27172 4.8174 6.51819Z" fill="#171717"/>
<path d="M1.5 12.5L2.5 13.5L4.5 11.5" stroke="#171717" stroke-width="1.1" stroke-linecap="round" stroke-linejoin="round"/>
<path d="M1.5 8L2.5 9L4.5 7" stroke="#171717" stroke-width="1.1" stroke-linecap="round" stroke-linejoin="round"/>
<path d="M1.5 3L2.5 4L4.5 2" stroke="#171717" stroke-width="1.1" stroke-linecap="round" stroke-linejoin="round"/>
</svg>
