<svg width="14" height="15" viewBox="0 0 14 15" fill="none" xmlns="http://www.w3.org/2000/svg">
<g opacity="0.8">
<path d="M8.9601 5.53961V7.98961C8.9601 8.37948 9.11497 8.75338 9.39065 9.02906C9.66633 9.30474 10.0402 9.45961 10.4301 9.45961C10.82 9.45961 11.1939 9.30474 11.4695 9.02906C11.7452 8.75338 11.9001 8.37948 11.9001 7.98961V7.49961C11.9001 6.39579 11.5274 5.32431 10.8424 4.45876C10.1574 3.5932 9.20018 2.9843 8.12589 2.73069C7.0516 2.47709 5.92315 2.59364 4.92337 3.06146C3.92359 3.52929 3.11105 4.32098 2.61741 5.30827C2.12377 6.29555 1.97794 7.42059 2.20354 8.50111C2.42915 9.58163 3.01298 10.5543 3.86044 11.2616C4.7079 11.9689 5.76934 12.3693 6.87279 12.398C7.97624 12.4266 9.05704 12.0819 9.9401 11.4196M5.0401 7.49961C5.0401 8.01943 5.2466 8.51796 5.61417 8.88554C5.98174 9.25311 6.48027 9.45961 7.0001 9.45961C7.51992 9.45961 8.01845 9.25311 8.38602 8.88554C8.7536 8.51796 8.96009 8.01943 8.96009 7.49961C8.96009 6.97978 8.7536 6.48125 8.38602 6.11368C8.01845 5.74611 7.51992 5.53961 7.0001 5.53961C6.48027 5.53961 5.98174 5.74611 5.61417 6.11368C5.2466 6.48125 5.0401 6.97978 5.0401 7.49961Z" stroke="#21232A" stroke-linecap="round" stroke-linejoin="round"/>
</g>
</svg>
