<svg width="16" height="16" viewBox="0 0 16 16" fill="none" xmlns="http://www.w3.org/2000/svg">
<path d="M8.01242 1.93994C5.80575 1.93994 4.01242 3.73327 4.01242 5.93994V7.86661C4.01242 8.27328 3.83908 8.89327 3.63242 9.23994L2.86575 10.5133C2.39242 11.2999 2.71908 12.1733 3.58575 12.4666C6.45908 13.4266 9.55908 13.4266 12.4324 12.4666C13.2391 12.1999 13.5924 11.2466 13.1524 10.5133L12.3857 9.23994C12.1857 8.89327 12.0124 8.27328 12.0124 7.86661V5.93994C12.0124 3.73994 10.2124 1.93994 8.01242 1.93994Z" stroke="#171717" stroke-miterlimit="10" stroke-linecap="round"/>
<path d="M9.24792 2.13346C9.04125 2.07346 8.82792 2.02679 8.60792 2.00012C7.96792 1.92012 7.35458 1.96679 6.78125 2.13346C6.97458 1.64012 7.45458 1.29346 8.01458 1.29346C8.57458 1.29346 9.05458 1.64012 9.24792 2.13346Z" stroke="#171717" stroke-miterlimit="10" stroke-linecap="round" stroke-linejoin="round"/>
<path d="M10.0117 12.7065C10.0117 13.8065 9.11172 14.7065 8.01172 14.7065C7.46505 14.7065 6.95838 14.4799 6.59838 14.1199C6.23838 13.7599 6.01172 13.2532 6.01172 12.7065" stroke="#171717" stroke-miterlimit="10"/>
</svg>
