<svg width="9" height="9" viewBox="0 0 9 9" fill="none" xmlns="http://www.w3.org/2000/svg">
<path opacity="0.5" d="M7.2881 3.64223V3.06506C7.2881 2.32975 7.2881 0.100098 4.5 0.100098C1.7119 0.100098 1.7119 2.32975 1.7119 3.06506V3.64223C0.804836 3.85571 0.5 4.48033 0.5 5.83235V6.62301C0.5 8.36245 1.00558 8.9001 2.64127 8.9001H6.35873C7.99442 8.9001 8.5 8.36245 8.5 6.62301V5.83235C8.5 4.48033 8.19516 3.85571 7.2881 3.64223ZM4.5 7.0974C4.04647 7.0974 3.68217 6.70998 3.68217 6.22768C3.68217 5.74538 4.04647 5.35795 4.5 5.35795C4.95353 5.35795 5.31782 5.74538 5.31782 6.22768C5.31782 6.70998 4.95353 7.0974 4.5 7.0974ZM6.17286 3.55526H2.82714V3.06506C2.82714 1.9107 3.0948 1.28608 4.5 1.28608C5.9052 1.28608 6.17286 1.9107 6.17286 3.06506V3.55526Z" fill="#171717"/>
</svg>
