<svg width="16" height="17" viewBox="0 0 16 17" fill="none" xmlns="http://www.w3.org/2000/svg">
<path d="M4.27496 5.47643L4.21805 5.53333H4.29853H9.75C12.2169 5.53333 14.2167 7.53313 14.2167 10C14.2167 12.4669 12.2169 14.4667 9.75 14.4667H7.65C7.33704 14.4667 7.08333 14.213 7.08333 13.9C7.08333 13.587 7.33704 13.3333 7.65 13.3333H9.75C11.591 13.3333 13.0833 11.841 13.0833 10C13.0833 8.15905 11.591 6.66667 9.75 6.66667H4.29853H4.21805L4.27496 6.72357L6.25069 8.69931C6.47199 8.9206 6.47199 9.2794 6.25069 9.50069C6.0294 9.72199 5.6706 9.72199 5.44931 9.50069L2.44931 6.50069C2.22801 6.2794 2.22801 5.9206 2.44931 5.69931L5.44931 2.69931C5.6706 2.47801 6.0294 2.47801 6.25069 2.69931C6.47199 2.9206 6.47199 3.2794 6.25069 3.50069L4.27496 5.47643Z" fill="#1F2225" stroke="white" stroke-width="0.0666667"/>
</svg>
