<svg xmlns="http://www.w3.org/2000/svg" height="20px" viewBox="0 -960 960 960" width="20px" fill="#e8eaed"><path d="M96-384v-192q0-29.7 21.21-50.85 21.21-21.15 51-21.15T219-626.85q21 21.15 21 50.85v192q0 29.7-21.21 50.85-21.21 21.15-51 21.15T117-333.15Q96-354.3 96-384Zm264 144q-33 0-52.5-19.5T288-312v-336q0-33 19.5-52.5T360-720h240q33 0 52.5 19.5T672-648v336q0 33-19.5 52.5T600-240H360Zm360-144v-192q0-29.7 21.21-50.85 21.21-21.15 51-21.15T843-626.85q21 21.15 21 50.85v192q0 29.7-21.21 50.85-21.21 21.15-51 21.15T741-333.15Q720-354.3 720-384Zm-360 72h240v-336H360v336Zm120-168Z"/></svg>