<svg width="20" height="20" viewBox="0 0 20 20" fill="none" xmlns="http://www.w3.org/2000/svg">
<g id="icon_pull-left_outlined">
<path id="Union" d="M14.6515 9.58019H9.1031L10.7447 7.91716C10.9061 7.75372 10.9048 7.4864 10.7435 7.3229C10.5825 7.1597 10.3193 7.15862 10.1582 7.32177L7.66078 9.85165C7.62187 9.89109 7.60001 9.94456 7.60001 10.0003C7.60001 10.0561 7.62187 10.1095 7.66078 10.149L10.1566 12.6773C10.3184 12.8412 10.5808 12.8407 10.7426 12.6767C10.9046 12.5125 10.9053 12.2461 10.7432 12.082L9.10373 10.4213H14.6515C14.8808 10.4213 15.0667 10.233 15.0667 10.0007C15.0667 9.76848 14.8808 9.58019 14.6515 9.58019Z" fill="#8F959E" stroke="#8F959E" stroke-width="0.1" stroke-linecap="round"/>
<path id="Union_2" d="M5.19995 14.1126C5.19995 14.437 5.42384 14.7 5.69995 14.7C5.97606 14.7 6.19995 14.437 6.19995 14.1126V5.88753C6.19995 5.56307 5.97606 5.30005 5.69995 5.30005C5.42384 5.30005 5.19995 5.56307 5.19995 5.88753V14.1126Z" fill="#8F959E"/>
</g>
</svg>
