<svg width="9" height="7" viewBox="0 0 9 7" fill="none" xmlns="http://www.w3.org/2000/svg">
<path fill-rule="evenodd" clip-rule="evenodd" d="M5.14645 1.14645C5.34171 0.951184 5.65829 0.951184 5.85355 1.14645L7.85355 3.14645C8.04882 3.34171 8.04882 3.65829 7.85355 3.85355L5.85355 5.85355C5.65829 6.04882 5.34171 6.04882 5.14645 5.85355C4.95118 5.65829 4.95118 5.34171 5.14645 5.14645L6.29289 4H3.5C3.24668 4 2.85557 4.08011 2.54215 4.30577C2.25423 4.51307 2 4.86296 2 5.5C2 5.77614 1.77614 6 1.5 6C1.22386 6 1 5.77614 1 5.5C1 4.53704 1.41243 3.88693 1.95785 3.49423C2.47777 3.11989 3.08665 3 3.5 3H6.29289L5.14645 1.85355C4.95118 1.65829 4.95118 1.34171 5.14645 1.14645Z" fill="#1F2329"/>
<path fill-rule="evenodd" clip-rule="evenodd" d="M5.14664 1.85375C4.95138 1.65849 4.95138 1.3419 5.14664 1.14664C5.3419 0.95138 5.65849 0.95138 5.85375 1.14664L7.85375 3.14664C8.04901 3.3419 8.04901 3.65849 7.85375 3.85375L5.85375 5.85375C5.65849 6.04901 5.3419 6.04901 5.14664 5.85375C4.95138 5.65849 4.95138 5.3419 5.14664 5.14664L6.29309 4.0002H3.5002C3.24687 4.0002 2.85576 4.08031 2.54235 4.30596C2.25443 4.51326 2.0002 4.86316 2.0002 5.5002C2.0002 5.77634 1.77634 6.0002 1.5002 6.0002C1.22405 6.0002 1.0002 5.77634 1.0002 5.5002C1.0002 4.53724 1.41263 3.88713 1.95804 3.49443C2.47796 3.12009 3.08685 3.0002 3.5002 3.0002H6.29309L5.14664 1.85375ZM4.40442 2.2002H3.5002C2.95908 2.2002 2.17588 2.35179 1.4906 2.8452C0.739241 3.38618 0.200195 4.27643 0.200195 5.5002C0.200195 6.21816 0.782225 6.8002 1.5002 6.8002C2.21817 6.8002 2.8002 6.21816 2.8002 5.5002C2.8002 5.29081 2.84115 5.17293 2.87431 5.10863C2.90721 5.04483 2.95123 4.99735 3.00979 4.95519C3.07701 4.90679 3.16492 4.8659 3.26382 4.83761C3.36373 4.80903 3.45084 4.8002 3.5002 4.8002H4.40442C4.08237 5.30328 4.14121 5.97969 4.58096 6.41943C5.08864 6.92712 5.91175 6.92712 6.41943 6.41943L8.41943 4.41943C8.92711 3.91175 8.92712 3.08864 8.41943 2.58096L6.41943 0.580957C5.91175 0.0732746 5.08864 0.0732751 4.58096 0.580956C4.14121 1.0207 4.08237 1.69711 4.40442 2.2002Z" fill="white"/>
</svg>
