<svg width="16" height="16" viewBox="0 0 16 16" fill="none" xmlns="http://www.w3.org/2000/svg">
<path fill-rule="evenodd" clip-rule="evenodd" d="M3.27096 5.40009C4.12679 5.40009 4.84192 4.69557 4.84192 3.80004C4.84192 2.90452 4.12679 2.2 3.27096 2.2C2.41512 2.2 1.7 2.90452 1.7 3.80004C1.7 4.69557 2.41512 5.40009 3.27096 5.40009ZM4.92464 9.63685L3.97786 6.50815C5.02313 6.23029 5.82697 5.35088 6.00498 4.25835L9.96163 4.81659C9.95931 4.86353 9.95814 4.91076 9.95814 4.95828C9.95814 5.65895 10.2128 6.29951 10.6337 6.79059L7.67829 9.9392C7.21987 9.59992 6.65442 9.39959 6.04266 9.39959C5.64484 9.39959 5.2666 9.48431 4.92464 9.63685ZM8.47034 10.8487C8.68912 11.2492 8.81362 11.7097 8.81362 12.1996C8.81362 13.7461 7.57302 14.9997 6.04266 14.9997C4.5123 14.9997 3.2717 13.7461 3.2717 12.1996C3.2717 11.5195 3.51168 10.896 3.91076 10.4108L2.74216 6.54916C1.46473 6.29973 0.5 5.16373 0.5 3.80004C0.5 2.25362 1.7406 1 3.27096 1C4.53731 1 5.60525 1.8584 5.93604 3.03078L10.2818 3.64392C10.7477 2.75997 11.6688 2.15823 12.7291 2.15823C14.2595 2.15823 15.5001 3.41186 15.5001 4.95828C15.5001 6.5047 14.2595 7.75832 12.7291 7.75832C12.3266 7.75832 11.9441 7.67159 11.5989 7.51561L8.47034 10.8487ZM14.3001 4.95828C14.3001 5.8538 13.5849 6.55832 12.7291 6.55832C11.8733 6.55832 11.1581 5.8538 11.1581 4.95828C11.1581 4.06276 11.8733 3.35823 12.7291 3.35823C13.5849 3.35823 14.3001 4.06276 14.3001 4.95828ZM7.61362 12.1996C7.61362 13.0952 6.89849 13.7997 6.04266 13.7997C5.18682 13.7997 4.4717 13.0952 4.4717 12.1996C4.4717 11.3041 5.18682 10.5996 6.04266 10.5996C6.89849 10.5996 7.61362 11.3041 7.61362 12.1996Z" fill="#171717"/>
</svg>
