<svg width="16" height="16" viewBox="0 0 16 16" fill="none" xmlns="http://www.w3.org/2000/svg">
<path d="M6.40191 11.2778L4.73661 8.3H2.98645V11.2778H2V3.5H4.96996C5.60638 3.5 6.15087 3.73704 6.60344 4.21111C7.056 4.67778 7.28229 5.24444 7.28229 5.91111C7.28229 6.41481 7.13732 6.87407 6.8474 7.28889C6.56455 7.7037 6.19684 7.9963 5.74427 8.16667L7.49443 11.2778H6.40191ZM2.98645 4.46667V7.36667H4.96996C5.33767 7.36667 5.64881 7.22593 5.90338 6.94444C6.16502 6.65556 6.29584 6.31111 6.29584 5.91111C6.29584 5.51111 6.16502 5.17037 5.90338 4.88889C5.64881 4.60741 5.33767 4.46667 4.96996 4.46667H2.98645Z" fill="#333333"/>
<path d="M11.3164 5.57778C12.0589 5.57778 12.6918 5.86296 13.2151 6.43333C13.7384 6.9963 14 7.68518 14 8.5C14 9.31481 13.7384 10.0074 13.2151 10.5778C12.6918 11.1407 12.0589 11.4222 11.3164 11.4222C10.4396 11.4222 9.77134 11.0556 9.3117 10.3222V13.5H8.3889V5.72222H9.3117V6.67778C9.77134 5.94444 10.4396 5.57778 11.3164 5.57778ZM11.1998 10.4889C11.7301 10.4889 12.1756 10.3 12.5362 9.92222C12.8969 9.53704 13.0772 9.06296 13.0772 8.5C13.0772 7.93704 12.8969 7.46667 12.5362 7.08889C12.1756 6.7037 11.7301 6.51111 11.1998 6.51111C10.6623 6.51111 10.2133 6.7037 9.85266 7.08889C9.49202 7.46667 9.3117 7.93704 9.3117 8.5C9.3117 9.06296 9.49202 9.53704 9.85266 9.92222C10.2133 10.3 10.6623 10.4889 11.1998 10.4889Z" fill="#333333"/>
</svg>
