<svg width="16" height="16" viewBox="0 0 16 16" fill="none" xmlns="http://www.w3.org/2000/svg">
<path d="M8 10C9.10457 10 10 9.10457 10 8C10 6.89543 9.10457 6 8 6C6.89543 6 6 6.89543 6 8C6 9.10457 6.89543 10 8 10Z" stroke="#171717" stroke-miterlimit="10" stroke-linecap="round" stroke-linejoin="round"/>
<path d="M1.33203 8.58679V7.41345C1.33203 6.72012 1.8987 6.14679 2.5987 6.14679C3.80536 6.14679 4.2987 5.29345 3.69203 4.24679C3.34536 3.64679 3.55203 2.86679 4.1587 2.52012L5.31203 1.86012C5.8387 1.54679 6.5187 1.73345 6.83203 2.26012L6.90536 2.38679C7.50536 3.43345 8.49203 3.43345 9.0987 2.38679L9.17203 2.26012C9.48536 1.73345 10.1654 1.54679 10.692 1.86012L11.8454 2.52012C12.452 2.86679 12.6587 3.64679 12.312 4.24679C11.7054 5.29345 12.1987 6.14679 13.4054 6.14679C14.0987 6.14679 14.672 6.71345 14.672 7.41345V8.58679C14.672 9.28012 14.1054 9.85345 13.4054 9.85345C12.1987 9.85345 11.7054 10.7068 12.312 11.7535C12.6587 12.3601 12.452 13.1335 11.8454 13.4801L10.692 14.1401C10.1654 14.4535 9.48536 14.2668 9.17203 13.7401L9.0987 13.6135C8.4987 12.5668 7.51203 12.5668 6.90536 13.6135L6.83203 13.7401C6.5187 14.2668 5.8387 14.4535 5.31203 14.1401L4.1587 13.4801C3.55203 13.1335 3.34536 12.3535 3.69203 11.7535C4.2987 10.7068 3.80536 9.85345 2.5987 9.85345C1.8987 9.85345 1.33203 9.28012 1.33203 8.58679Z" stroke="#171717" stroke-miterlimit="10" stroke-linecap="round" stroke-linejoin="round"/>
</svg>
