<svg width="16" height="16" viewBox="0 0 16 16" fill="none" xmlns="http://www.w3.org/2000/svg">
<path d="M6.10573 7.24659C6.03906 7.23992 5.95906 7.23992 5.88573 7.24659C4.29906 7.19325 3.03906 5.89325 3.03906 4.29325C3.03906 2.65992 4.35906 1.33325 5.99906 1.33325C7.6324 1.33325 8.95906 2.65992 8.95906 4.29325C8.9524 5.89325 7.6924 7.19325 6.10573 7.24659Z" stroke="#171717" stroke-linecap="round" stroke-linejoin="round"/>
<path d="M10.9402 2.66675C12.2335 2.66675 13.2735 3.71341 13.2735 5.00008C13.2735 6.26008 12.2735 7.28675 11.0268 7.33341C10.9735 7.32675 10.9135 7.32675 10.8535 7.33341" stroke="#171717" stroke-linecap="round" stroke-linejoin="round"/>
<path d="M2.7725 9.70675C1.15917 10.7867 1.15917 12.5467 2.7725 13.6201C4.60583 14.8467 7.6125 14.8467 9.44583 13.6201C11.0592 12.5401 11.0592 10.7801 9.44583 9.70675C7.61917 8.48675 4.6125 8.48675 2.7725 9.70675Z" stroke="#171717" stroke-linecap="round" stroke-linejoin="round"/>
<path d="M12.2266 13.3333C12.7066 13.2333 13.1599 13.0399 13.5332 12.7533C14.5732 11.9733 14.5732 10.6866 13.5332 9.90659C13.1666 9.62659 12.7199 9.43992 12.2466 9.33325" stroke="#171717" stroke-linecap="round" stroke-linejoin="round"/>
</svg>
