<svg width="18" height="18" viewBox="0 0 18 18" fill="none" xmlns="http://www.w3.org/2000/svg">
<path d="M9 1.6875C13.0387 1.6875 16.3125 4.96125 16.3125 9C16.3125 13.0387 13.0387 16.3125 9 16.3125C4.96125 16.3125 1.6875 13.0387 1.6875 9C1.6875 4.96125 4.96125 1.6875 9 1.6875ZM8.4375 9.5625L6.1995 9.56288C6.21525 9.92288 6.24563 10.2731 6.2895 10.6117L6.32438 10.863L6.36787 11.1311C6.71512 13.1156 7.52325 14.607 8.43787 15.051L8.4375 9.5625ZM11.8005 9.56288L9.5625 9.5625V15.051C10.4565 14.6164 11.2489 13.1813 11.6081 11.2628L11.6321 11.1311L11.6756 10.8634C11.7402 10.4324 11.7819 9.99828 11.8005 9.56288ZM5.07337 9.56288H2.83763C3.04238 11.8316 4.47225 13.7479 6.4605 14.6441C6.07163 14.0415 5.751 13.3009 5.5155 12.4639L5.46225 12.2689L5.40038 12.0199L5.34337 11.7656C5.19117 11.0403 5.10084 10.3034 5.07337 9.56288ZM15.1624 9.56288H12.9262C12.9014 10.2245 12.827 10.8834 12.7035 11.5339L12.6562 11.7656L12.5992 12.0199L12.5374 12.2692C12.2974 13.1858 11.958 13.9954 11.5391 14.6441C13.5274 13.7479 14.9573 11.8316 15.1616 9.56288H15.1624ZM6.4605 3.3555L6.41025 3.37838C4.4475 4.28437 3.0405 6.1875 2.83763 8.4375H5.07337C5.10037 7.75125 5.1765 7.08938 5.29613 6.46613L5.34337 6.23438L5.40038 5.98012L5.46225 5.73075C5.70225 4.81425 6.04163 4.00463 6.4605 3.35588V3.3555ZM8.4375 2.949C7.54612 3.38175 6.75562 4.8105 6.39488 6.72113L6.36787 6.86888L6.32438 7.13662C6.25977 7.56774 6.21809 8.00197 6.1995 8.4375H8.4375V2.949ZM11.5395 3.35588L11.5845 3.42712C11.952 4.01475 12.2565 4.72762 12.4826 5.52863L12.5378 5.73112L12.5996 5.98012L12.6566 6.23438C12.8036 6.92438 12.8963 7.66538 12.9266 8.4375H15.1624C14.958 6.16838 13.5281 4.25213 11.5395 3.35625V3.35588ZM9.5625 2.949V8.4375H11.8005C11.7849 8.07668 11.7537 7.71672 11.7067 7.35862L11.6756 7.13662L11.6321 6.86888C11.2849 4.88475 10.4771 3.39338 9.56288 2.949H9.5625Z" fill="#171717"/>
</svg>
