<svg width="16" height="16" viewBox="0 0 16 16" fill="none" xmlns="http://www.w3.org/2000/svg">
<path d="M2.03447 10.2533C1.45334 9.49838 1.16284 9.12088 1.16284 8C1.16284 6.87913 1.4534 6.50163 2.03447 5.74669C3.19478 4.23925 5.14078 2.53025 8.00003 2.53025C10.8593 2.53025 12.8052 4.23925 13.9655 5.74669C14.5467 6.50163 14.8372 6.87913 14.8372 8C14.8372 9.12088 14.5467 9.49838 13.9656 10.2533C12.8052 11.7608 10.8593 13.4698 8.00003 13.4698C5.14078 13.4698 3.19478 11.7608 2.03447 10.2533Z" stroke="black"/>
<path d="M10.0512 8C10.0512 9.13288 9.13292 10.0512 8.00004 10.0512C6.86717 10.0512 5.94885 9.13288 5.94885 8C5.94885 6.86713 6.86717 5.94881 8.00004 5.94881C9.13292 5.94881 10.0512 6.86713 10.0512 8Z" stroke="black"/>
</svg>
