<svg width="16" height="16" viewBox="0 0 16 16" fill="none" xmlns="http://www.w3.org/2000/svg">
<path fill-rule="evenodd" clip-rule="evenodd" d="M10.5066 13.892L10.6734 13.6784C11.6487 12.4302 11.9926 11.2916 11.7791 9.94711C14.7314 6.68151 14.9121 3.29101 14.0748 1.20029L14.027 1.07792L13.8959 1.06053C11.6655 0.754485 8.40056 1.73528 5.96573 5.40397C4.62845 5.53682 3.60683 6.14599 2.65933 7.35874L2.49249 7.57229L5.32961 9.01353C5.058 9.6909 5.37947 10.6032 6.12887 11.1887C6.87748 11.7736 7.83985 11.8656 8.41785 11.4555L10.5066 13.892ZM4.1851 13.6929C4.1851 13.6929 5.38377 13.3362 5.78764 12.8193C6.09424 12.4269 6.09502 11.911 5.77351 11.6598C5.452 11.4086 4.95241 11.5348 4.64581 11.9272C4.28381 12.3906 4.1851 13.6929 4.1851 13.6929ZM11.1536 6.2089C11.9263 6.18191 12.5309 5.53362 12.5039 4.76089C12.4769 3.98816 11.8286 3.38362 11.0559 3.4106C10.2832 3.43759 9.67863 4.08588 9.70561 4.85861C9.7326 5.63134 10.3809 6.23588 11.1536 6.2089Z" fill="url(#paint0_linear_8313_6635)"/>
<defs>
<linearGradient id="paint0_linear_8313_6635" x1="4.20975" y1="13.6559" x2="14.9687" y2="11.254" gradientUnits="userSpaceOnUse">
<stop stop-color="#8032FF"/>
<stop offset="1" stop-color="#FB3DFF"/>
</linearGradient>
</defs>
</svg>
