<svg width="19" height="18" viewBox="0 0 19 18" fill="none" xmlns="http://www.w3.org/2000/svg">
<g opacity="0.6">
<path d="M16.5 4.48535C14.0025 4.23785 11.49 4.11035 8.985 4.11035C7.5 4.11035 6.015 4.18535 4.53 4.33535L3 4.48535" stroke="#171717" stroke-width="1.125" stroke-linecap="round" stroke-linejoin="round"/>
<path d="M7.125 3.7275L7.29 2.745C7.41 2.0325 7.5 1.5 8.7675 1.5H10.7325C12 1.5 12.0975 2.0625 12.21 2.7525L12.375 3.7275" stroke="#171717" stroke-width="1.125" stroke-linecap="round" stroke-linejoin="round"/>
<path d="M14.8844 6.85449L14.3969 14.407C14.3144 15.5845 14.2469 16.4995 12.1544 16.4995H7.33937C5.24687 16.4995 5.17938 15.5845 5.09688 14.407L4.60938 6.85449" stroke="#171717" stroke-width="1.125" stroke-linecap="round" stroke-linejoin="round"/>
<path d="M8.49609 12.375H10.9936" stroke="#171717" stroke-width="1.125" stroke-linecap="round" stroke-linejoin="round"/>
<path d="M7.875 9.375H11.625" stroke="#171717" stroke-width="1.125" stroke-linecap="round" stroke-linejoin="round"/>
</g>
</svg>
