<svg width="20" height="20" viewBox="0 0 20 20" fill="none" xmlns="http://www.w3.org/2000/svg">
<path d="M7.47554 4.28512C7.99226 3.64256 8.66796 3.21419 9.5424 3V3.97357C9.00581 4.12934 8.58847 4.42141 8.27049 4.84979C7.97238 5.21974 7.83327 5.64811 7.83327 6.11543C7.91276 6.07649 8.07175 6.05701 8.27049 6.05701C8.60834 6.05701 8.90644 6.15437 9.14493 6.38803C9.36354 6.62169 9.48278 6.89429 9.48278 7.24477C9.48278 7.59526 9.34366 7.88733 9.10518 8.12099C8.8667 8.33517 8.56859 8.452 8.19099 8.452C7.7339 8.452 7.37617 8.25729 7.09794 7.9068C6.83959 7.55631 6.72034 7.089 6.72034 6.5438C6.72034 5.66759 6.95883 4.9082 7.47554 4.28512Z" fill="#2B2F36"/>
<path d="M3.77507 4.28512C4.27191 3.64256 4.94762 3.21419 5.82206 3V3.97357C5.28547 4.12934 4.86812 4.42141 4.57002 4.83031C4.25204 5.21974 4.11292 5.64811 4.11292 6.11543C4.19242 6.07648 4.35141 6.05701 4.57002 6.05701C4.888 6.05701 5.16623 6.15437 5.40471 6.38803C5.64319 6.62169 5.76244 6.89429 5.76244 7.24477C5.76244 7.59526 5.64319 7.88733 5.42458 8.12099C5.1861 8.33517 4.86812 8.452 4.47065 8.452C4.01356 8.452 3.65583 8.25729 3.39747 7.9068C3.11924 7.55631 3 7.10847 3 6.5438C3 5.66759 3.25836 4.9082 3.77507 4.28512Z" fill="#2B2F36"/>
<path d="M10.6328 6.75582C10.6328 6.48817 10.8498 6.2712 11.1174 6.2712H16.6906C16.9582 6.2712 17.1752 6.48817 17.1752 6.75582V7.42218C17.1752 7.68983 16.9582 7.9068 16.6906 7.9068H11.1174C10.8498 7.9068 10.6328 7.68983 10.6328 7.42218V6.75582Z" fill="#2B2F36"/>
<path d="M3.5452 11.1174C3.5452 10.8498 3.76217 10.6328 4.02982 10.6328H16.6906C16.9582 10.6328 17.1752 10.8498 17.1752 11.1174V11.7838C17.1752 12.0514 16.9582 12.2684 16.6906 12.2684H4.02982C3.76217 12.2684 3.5452 12.0514 3.5452 11.7838V11.1174Z" fill="#2B2F36"/>
<path d="M3.5452 15.479C3.5452 15.2114 3.76217 14.9944 4.02982 14.9944H13.4194C13.687 14.9944 13.904 15.2114 13.904 15.479V16.1454C13.904 16.413 13.687 16.63 13.4194 16.63H4.02982C3.76217 16.63 3.5452 16.413 3.5452 16.1454V15.479Z" fill="#2B2F36"/>
</svg>
