<svg width="16" height="16" viewBox="0 0 16 16" fill="none" xmlns="http://www.w3.org/2000/svg">
<path d="M4.91919 4.09786C4.91919 3.66203 5.09232 3.24405 5.4005 2.93587C5.70868 2.62769 6.12666 2.45456 6.56249 2.45456H11.9021C12.338 2.45456 12.756 2.62769 13.0641 2.93587C13.3723 3.24405 13.5455 3.66203 13.5455 4.09786V9.43752C13.5455 9.87335 13.3723 10.2913 13.0641 10.5995C12.756 10.9077 12.338 11.0808 11.9021 11.0808H6.56249C6.12666 11.0808 5.70868 10.9077 5.4005 10.5995C5.09232 10.2913 4.91919 9.87335 4.91919 9.43752V4.09786Z" stroke="black" stroke-linecap="round" stroke-linejoin="round"/>
<path d="M3.07811 5.07941C2.88916 5.18712 2.732 5.34282 2.62251 5.53075C2.51302 5.71868 2.45508 5.93218 2.45456 6.14968V12.3113C2.45456 12.9891 3.0091 13.5436 3.68688 13.5436H9.8485C10.3106 13.5436 10.562 13.3064 10.7727 12.9275" stroke="black" stroke-linecap="round" stroke-linejoin="round"/>
<path d="M11.0808 4.91919H11.0859" stroke="black" stroke-linecap="round" stroke-linejoin="round"/>
<path d="M4.91919 8.61616L7.16448 6.37087C7.23372 6.30156 7.31594 6.24658 7.40644 6.20907C7.49694 6.17156 7.59395 6.15225 7.69192 6.15225C7.78988 6.15225 7.88689 6.17156 7.97739 6.20907C8.06789 6.24658 8.15011 6.30156 8.21935 6.37087L10.4646 8.61616" stroke="black" stroke-linecap="round" stroke-linejoin="round"/>
<path d="M9.84848 7.99999L10.8614 6.98702C10.9307 6.91771 11.0129 6.86273 11.1034 6.82522C11.1939 6.78771 11.2909 6.7684 11.3889 6.7684C11.4869 6.7684 11.5839 6.78771 11.6744 6.82522C11.7649 6.86273 11.8471 6.91771 11.9163 6.98702L13.5455 8.61615" stroke="black" stroke-linecap="round" stroke-linejoin="round"/>
</svg>
