<svg width="16" height="16" viewBox="0 0 16 16" fill="none" xmlns="http://www.w3.org/2000/svg">
<g clip-path="url(#clip0_25_68)">
<path d="M14.4459 8.09759C14.9034 7.64013 15.0371 6.95191 14.6556 6.42895C14.4234 6.11243 14.167 5.81439 13.8887 5.53747C13.6118 5.25921 13.3137 5.0028 12.9972 4.77055C12.4743 4.3891 11.786 4.52254 11.3286 4.98027L5.82179 10.4868C5.6622 10.6464 5.55707 10.8513 5.53739 11.0758C5.501 11.4934 5.46299 12.2835 5.54063 13.4009C5.55842 13.6604 5.76545 13.8672 6.02504 13.8853C7.14268 13.9629 7.93253 13.9249 8.35009 13.8885C8.57464 13.8688 8.77952 13.7637 8.93883 13.6041L14.4459 8.09759Z" stroke="black" stroke-linecap="round" stroke-linejoin="round"/>
<path d="M13.3641 8.9171C13.3641 8.9171 13.2005 8.18845 12.219 7.20694C11.2377 6.2257 10.5091 6.06207 10.5091 6.06207" stroke="black" stroke-linecap="round" stroke-linejoin="round"/>
<path d="M8.64283 13.6381C8.64283 13.6381 8.47921 12.9094 7.49797 11.9282C6.51646 10.9467 5.78781 10.7831 5.78781 10.7831" stroke="black" stroke-linecap="round" stroke-linejoin="round"/>
<path d="M7.87563 6.2036C7.84113 6.66672 7.49931 7.04304 7.03781 7.09858C6.63588 7.14683 6.10078 7.19131 5.49559 7.19131C4.89041 7.19131 4.35558 7.14683 3.95338 7.09858C3.49188 7.04304 3.15006 6.66672 3.11555 6.2036C3.09129 5.87365 3.06946 5.49193 3.06946 5.16953C3.06946 4.03787 3.97926 3.16123 5.11092 3.14963C5.36736 3.14706 5.62383 3.14706 5.88027 3.14963C7.01193 3.16096 7.92173 4.03787 7.92173 5.16953C7.92173 5.49166 7.90016 5.87365 7.87563 6.2036Z" stroke="black"/>
<path d="M5.49561 2.06946V3.14774" stroke="black" stroke-linecap="round" stroke-linejoin="round"/>
<path d="M4.68689 5.03473V5.3043" stroke="black" stroke-linecap="round" stroke-linejoin="round"/>
<path d="M6.30432 5.03473V5.3043" stroke="black" stroke-linecap="round" stroke-linejoin="round"/>
</g>
<defs>
<clipPath id="clip0_25_68">
<rect width="14" height="14" fill="white" transform="translate(2 1)"/>
</clipPath>
</defs>
</svg>
