<svg width="16" height="16" viewBox="0 0 16 16" fill="none" xmlns="http://www.w3.org/2000/svg">
<g clip-path="url(#clip0_26_76)">
<path d="M9.18512 13.4812H6.81489V14.37H9.18512V13.4812ZM2.51883 9.18512V6.8149H1.63001V9.18512H2.51883ZM13.4811 8.92615V9.18512H14.37V8.92615H13.4811ZM9.71319 3.62172L12.059 5.73292L12.6536 5.07225L10.3078 2.96105L9.71319 3.62172ZM14.37 8.92615C14.37 7.92564 14.3789 7.29222 14.1265 6.72542L13.3146 7.08703C13.4722 7.44096 13.4811 7.84715 13.4811 8.92615H14.37ZM12.059 5.73292C12.861 6.45469 13.1569 6.73311 13.3146 7.08703L14.1265 6.72542C13.8741 6.15862 13.3972 5.74153 12.6536 5.07225L12.059 5.73292ZM6.83255 2.51889C7.76985 2.51889 8.12356 2.52577 8.43876 2.64672L8.7572 1.81689C8.25248 1.62319 7.70252 1.63007 6.83255 1.63007V2.51889ZM10.3078 2.96105C9.66428 2.38184 9.26198 2.01053 8.7572 1.81689L8.43876 2.64672C8.75411 2.76773 9.02007 2.99794 9.71319 3.62172L10.3078 2.96105ZM6.81489 13.4812C5.68498 13.4812 4.88228 13.4802 4.27328 13.3983C3.67713 13.3182 3.33366 13.1679 3.08292 12.9171L2.45437 13.5456C2.89783 13.9891 3.46013 14.1858 4.15488 14.2793C4.83683 14.3709 5.71011 14.37 6.81489 14.37V13.4812ZM1.63001 9.18512C1.63001 10.2899 1.62908 11.1632 1.72073 11.8451C1.81417 12.5398 2.01091 13.1022 2.45437 13.5456L3.08292 12.9171C2.83213 12.6664 2.68181 12.3228 2.60165 11.7267C2.5198 11.1177 2.51883 10.315 2.51883 9.18512H1.63001ZM9.18512 14.37C10.2898 14.37 11.1632 14.3709 11.8451 14.2793C12.5398 14.1858 13.1021 13.9891 13.5456 13.5456L12.9171 12.9171C12.6663 13.1679 12.3228 13.3182 11.7267 13.3983C11.1177 13.4802 10.315 13.4812 9.18512 13.4812V14.37ZM13.4811 9.18512C13.4811 10.315 13.4802 11.1177 13.3983 11.7267C13.3182 12.3228 13.1678 12.6664 12.9171 12.9171L13.5456 13.5456C13.989 13.1022 14.1858 12.5398 14.2792 11.8451C14.3709 11.1632 14.37 10.2899 14.37 9.18512H13.4811ZM2.51883 6.8149C2.51883 5.68504 2.5198 4.88229 2.60165 4.27334C2.68181 3.67719 2.83213 3.33372 3.08292 3.08292L2.45437 2.45443C2.01096 2.89789 1.81417 3.46019 1.72073 4.15494C1.62908 4.83684 1.63001 5.71012 1.63001 6.8149H2.51883ZM6.83255 1.63007C5.72181 1.63007 4.84426 1.62909 4.15953 1.72074C3.46236 1.81407 2.89816 2.01064 2.45437 2.45443L3.08292 3.08292C3.33333 2.83251 3.67783 2.68198 4.27746 2.60171C4.88948 2.51981 5.69678 2.51889 6.83255 2.51889V1.63007Z" fill="black"/>
<path d="M8.59253 2.37073V3.85213C8.59253 5.24876 8.59253 5.94714 9.0264 6.38101C9.46033 6.81489 10.1587 6.81489 11.5553 6.81489H13.9256" stroke="black"/>
<path d="M5.92602 11.8516V8.88889M5.92602 8.88889L4.74091 9.9999M5.92602 8.88889L7.11113 9.9999" stroke="black" stroke-linecap="round" stroke-linejoin="round"/>
</g>
<defs>
<clipPath id="clip0_26_76">
<rect width="14" height="14" fill="white" transform="translate(1 1)"/>
</clipPath>
</defs>
</svg>
