<svg width="16" height="16" viewBox="0 0 16 16" fill="none" xmlns="http://www.w3.org/2000/svg">
<g clip-path="url(#clip0_27_125)">
<path d="M2.07443 7.99999C2.07443 5.20662 2.07443 3.80999 2.94218 2.94218C3.80999 2.07443 5.20662 2.07443 7.99999 2.07443C10.7933 2.07443 12.19 2.07443 13.0578 2.94218C13.9256 3.80999 13.9256 5.20662 13.9256 7.99999C13.9256 10.7933 13.9256 12.19 13.0578 13.0578C12.1901 13.9256 10.7933 13.9256 7.99999 13.9256C5.20662 13.9256 3.80999 13.9256 2.94218 13.0578C2.07443 12.1901 2.07443 10.7933 2.07443 7.99999Z" stroke="black"/>
<path d="M5.92606 8.2963L7.11117 9.48141L10.0739 6.5186" stroke="black" stroke-linecap="round" stroke-linejoin="round"/>
</g>
<defs>
<clipPath id="clip0_27_125">
<rect width="14" height="14" fill="white" transform="translate(1 1)"/>
</clipPath>
</defs>
</svg>
