<svg width="16" height="16" viewBox="0 0 16 16" fill="none" xmlns="http://www.w3.org/2000/svg">
<g clip-path="url(#clip0_25_68)">
<path d="M13.4459 8.09759C13.9034 7.64013 14.0371 6.95191 13.6556 6.42895C13.4234 6.11243 13.167 5.81439 12.8887 5.53747C12.6118 5.25921 12.3137 5.0028 11.9972 4.77055C11.4743 4.3891 10.786 4.52254 10.3286 4.98027L4.82179 10.4868C4.6622 10.6464 4.55707 10.8513 4.53739 11.0758C4.501 11.4934 4.46299 12.2835 4.54063 13.4009C4.55842 13.6604 4.76545 13.8672 5.02504 13.8853C6.14268 13.9629 6.93253 13.9249 7.35009 13.8885C7.57464 13.8688 7.77952 13.7637 7.93883 13.6041L13.4459 8.09759Z" stroke="black" stroke-linecap="round" stroke-linejoin="round"/>
<path d="M12.3641 8.9171C12.3641 8.9171 12.2005 8.18845 11.219 7.20694C10.2377 6.2257 9.50906 6.06207 9.50906 6.06207" stroke="black" stroke-linecap="round" stroke-linejoin="round"/>
<path d="M7.64283 13.6381C7.64283 13.6381 7.47921 12.9094 6.49797 11.9282C5.51646 10.9467 4.78781 10.7831 4.78781 10.7831" stroke="black" stroke-linecap="round" stroke-linejoin="round"/>
<path d="M6.87563 6.2036C6.84113 6.66672 6.49931 7.04304 6.03781 7.09858C5.63588 7.14683 5.10078 7.19131 4.49559 7.19131C3.89041 7.19131 3.35558 7.14683 2.95338 7.09858C2.49188 7.04304 2.15006 6.66672 2.11555 6.2036C2.09129 5.87365 2.06946 5.49193 2.06946 5.16953C2.06946 4.03787 2.97926 3.16123 4.11092 3.14963C4.36736 3.14706 4.62383 3.14706 4.88027 3.14963C6.01193 3.16096 6.92173 4.03787 6.92173 5.16953C6.92173 5.49166 6.90016 5.87365 6.87563 6.2036Z" stroke="black"/>
<path d="M4.49561 2.06946V3.14774" stroke="black" stroke-linecap="round" stroke-linejoin="round"/>
<path d="M3.68689 5.03473V5.3043" stroke="black" stroke-linecap="round" stroke-linejoin="round"/>
<path d="M5.30432 5.03473V5.3043" stroke="black" stroke-linecap="round" stroke-linejoin="round"/>
</g>
<defs>
<clipPath id="clip0_25_68">
<rect width="14" height="14" fill="white" transform="translate(1 1)"/>
</clipPath>
</defs>
</svg>
