<svg width="8" height="10" viewBox="0 0 8 10" fill="none" xmlns="http://www.w3.org/2000/svg">
<path opacity="0.5" d="M6.7881 4.14174V3.56457C6.7881 2.82926 6.7881 0.599609 4 0.599609C1.2119 0.599609 1.2119 2.82926 1.2119 3.56457V4.14174C0.304836 4.35522 0 4.97984 0 6.33186V7.12252C0 8.86196 0.505579 9.39961 2.14127 9.39961H5.85873C7.49442 9.39961 8 8.86196 8 7.12252V6.33186C8 4.97984 7.69516 4.35522 6.7881 4.14174ZM4 7.59692C3.54647 7.59692 3.18217 7.20949 3.18217 6.72719C3.18217 6.24489 3.54647 5.85746 4 5.85746C4.45353 5.85746 4.81782 6.24489 4.81782 6.72719C4.81782 7.20949 4.45353 7.59692 4 7.59692ZM5.67286 4.05477H2.32714V3.56457C2.32714 2.41021 2.5948 1.78559 4 1.78559C5.4052 1.78559 5.67286 2.41021 5.67286 3.56457V4.05477Z" fill="#171717"/>
</svg>
