<svg width="14" height="14" viewBox="0 0 14 14" fill="none" xmlns="http://www.w3.org/2000/svg">
<path opacity="0.4" fill-rule="evenodd" clip-rule="evenodd" d="M10.2465 5.5418V4.85902C10.2465 4.00116 10.0281 1.45801 6.99367 1.45801C3.84479 1.45801 3.74089 4.00116 3.74089 4.85902V5.5418L3.94766 5.52418L3.74201 5.54277C2.68377 5.83152 2.32812 6.67639 2.32812 8.50516V9.57461C2.32812 11.9274 2.91797 12.8326 4.82627 12.8326H9.16331C11.0716 12.8326 11.6615 11.9274 11.6615 9.57461V8.50516C11.6615 6.67639 11.3058 5.83152 10.2476 5.54277L10.0787 5.5275L10.2465 5.5418ZM5.042 4.85902V5.42523L8.94534 5.42513V4.85902C8.94534 3.51227 8.51146 2.68324 6.99367 2.68324C5.41979 2.68324 5.042 3.51227 5.042 4.85902ZM6.99115 10.4423C7.76434 10.4423 8.39115 9.81545 8.39115 9.04225C8.39115 8.26905 7.76434 7.64225 6.99115 7.64225C6.21795 7.64225 5.59115 8.26905 5.59115 9.04225C5.59115 9.81545 6.21795 10.4423 6.99115 10.4423Z" fill="#171717"/>
</svg>