<svg width="20" height="20" viewBox="0 0 20 20" fill="none" xmlns="http://www.w3.org/2000/svg">
<rect width="20" height="20" rx="6" fill="#FFBD00"/>
<path d="M12.5 15H7.5C7.295 15 7.125 14.83 7.125 14.625C7.125 14.42 7.295 14.25 7.5 14.25H12.5C12.705 14.25 12.875 14.42 12.875 14.625C12.875 14.83 12.705 15 12.5 15Z" fill="white"/>
<path d="M14.1722 6.75953L12.1722 8.18953C11.9072 8.37953 11.5272 8.26453 11.4122 7.95953L10.4672 5.43953C10.3072 5.00453 9.69218 5.00453 9.53218 5.43953L8.58218 7.95453C8.46718 8.26453 8.09218 8.37953 7.82718 8.18453L5.82718 6.75453C5.42718 6.47453 4.89718 6.86953 5.06218 7.33453L7.14218 13.1595C7.21218 13.3595 7.40218 13.4895 7.61218 13.4895H12.3772C12.5872 13.4895 12.7772 13.3545 12.8472 13.1595L14.9272 7.33453C15.0972 6.86953 14.5672 6.47453 14.1722 6.75953ZM11.2472 11.3745H8.74718C8.54218 11.3745 8.37218 11.2045 8.37218 10.9995C8.37218 10.7945 8.54218 10.6245 8.74718 10.6245H11.2472C11.4522 10.6245 11.6222 10.7945 11.6222 10.9995C11.6222 11.2045 11.4522 11.3745 11.2472 11.3745Z" fill="white"/>
</svg>
