<svg width="16" height="16" viewBox="0 0 16 16" fill="none" xmlns="http://www.w3.org/2000/svg">
<path d="M8 10C9.10457 10 10 9.10457 10 8C10 6.89543 9.10457 6 8 6C6.89543 6 6 6.89543 6 8C6 9.10457 6.89543 10 8 10Z" stroke="#171717" stroke-miterlimit="10" stroke-linecap="round" stroke-linejoin="round"/>
<path d="M1.33203 8.58728V7.41394C1.33203 6.72061 1.8987 6.14728 2.5987 6.14728C3.80536 6.14728 4.2987 5.29394 3.69203 4.24728C3.34536 3.64728 3.55203 2.86728 4.1587 2.52061L5.31203 1.86061C5.8387 1.54728 6.5187 1.73394 6.83203 2.26061L6.90536 2.38728C7.50536 3.43394 8.49203 3.43394 9.0987 2.38728L9.17203 2.26061C9.48536 1.73394 10.1654 1.54728 10.692 1.86061L11.8454 2.52061C12.452 2.86728 12.6587 3.64728 12.312 4.24728C11.7054 5.29394 12.1987 6.14728 13.4054 6.14728C14.0987 6.14728 14.672 6.71394 14.672 7.41394V8.58728C14.672 9.28061 14.1054 9.85394 13.4054 9.85394C12.1987 9.85394 11.7054 10.7073 12.312 11.7539C12.6587 12.3606 12.452 13.1339 11.8454 13.4806L10.692 14.1406C10.1654 14.4539 9.48536 14.2673 9.17203 13.7406L9.0987 13.6139C8.4987 12.5673 7.51203 12.5673 6.90536 13.6139L6.83203 13.7406C6.5187 14.2673 5.8387 14.4539 5.31203 14.1406L4.1587 13.4806C3.55203 13.1339 3.34536 12.3539 3.69203 11.7539C4.2987 10.7073 3.80536 9.85394 2.5987 9.85394C1.8987 9.85394 1.33203 9.28061 1.33203 8.58728Z" stroke="#171717" stroke-miterlimit="10" stroke-linecap="round" stroke-linejoin="round"/>
</svg>
