<svg width="28" height="28" viewBox="0 0 28 28" fill="none" xmlns="http://www.w3.org/2000/svg">
<rect width="28" height="28" rx="8" fill="#none"/>
<path d="M19.9276 14.667V15.3337H19.3476C18.8542 15.3337 18.4542 15.7337 18.4542 16.2337V16.4337C18.4542 16.9337 18.0542 17.3337 17.5542 17.3337C17.0609 17.3337 16.6609 16.9337 16.6609 16.4337V16.2337C16.6609 15.7337 16.2542 15.3337 15.7609 15.3337C15.2676 15.3337 14.8676 15.7337 14.8676 16.2337V16.4337C14.8676 16.9337 14.4609 17.3337 13.9676 17.3337C13.4742 17.3337 13.0676 16.9337 13.0676 16.4337V16.2337C13.0676 15.7337 12.6676 15.3337 12.1742 15.3337C11.6809 15.3337 11.2742 15.7337 11.2742 16.2337V16.4337C11.2742 16.9337 10.8742 17.3337 10.3809 17.3337C9.88089 17.3337 9.48089 16.9337 9.48089 16.4337V16.2203C9.48089 15.727 9.08755 15.327 8.60089 15.3203H8.07422V14.667C8.07422 13.747 8.76755 12.967 9.70755 12.7403C9.89422 12.6937 10.0876 12.667 10.2942 12.667H17.7076C17.9142 12.667 18.1076 12.6937 18.2942 12.7403C19.2342 12.967 19.9276 13.747 19.9276 14.667Z" fill="white"/>
<path d="M18.2937 10.7797V11.7197C18.1004 11.6797 17.907 11.6663 17.707 11.6663H10.2937C10.0937 11.6663 9.90036 11.6863 9.70703 11.7263V10.7797C9.70703 9.97967 10.427 9.33301 11.3204 9.33301H16.6804C17.5737 9.33301 18.2937 9.97967 18.2937 10.7797Z" fill="white"/>
<path d="M11.832 8.36693V9.34026H11.3187C11.1454 9.34026 10.9854 9.36026 10.832 9.40026V8.36693C10.832 8.13359 11.0587 7.93359 11.332 7.93359C11.6054 7.93359 11.832 8.13359 11.832 8.36693Z" fill="white"/>
<path d="M17.168 8.21973V9.39973C17.0146 9.35306 16.8546 9.33306 16.6813 9.33306H16.168V8.21973C16.168 7.94639 16.3946 7.71973 16.668 7.71973C16.9413 7.71973 17.168 7.94639 17.168 8.21973Z" fill="white"/>
<path d="M14.5 7.87967V9.33301H13.5V7.87967C13.5 7.57967 13.7267 7.33301 14 7.33301C14.2733 7.33301 14.5 7.57967 14.5 7.87967Z" fill="white"/>
<path d="M20.6654 20.167C20.6654 20.4403 20.4387 20.667 20.1654 20.667H7.83203C7.5587 20.667 7.33203 20.4403 7.33203 20.167C7.33203 19.8936 7.5587 19.667 7.83203 19.667H8.07203V16.3203H8.4787V16.367C8.4787 17.2603 9.06536 18.087 9.9387 18.2803C10.6187 18.4403 11.2654 18.2203 11.7054 17.787C11.9587 17.5336 12.372 17.527 12.6254 17.7803C12.972 18.1203 13.4454 18.3336 13.9654 18.3336C14.4854 18.3336 14.9587 18.127 15.3054 17.7803C15.5587 17.5336 15.9654 17.5336 16.2254 17.787C16.6587 18.2203 17.3054 18.4403 17.992 18.2803C18.8654 18.087 19.452 17.2603 19.452 16.367V16.3336H19.9254V19.667H20.1654C20.4387 19.667 20.6654 19.8936 20.6654 20.167Z" fill="white"/>
</svg>
