<svg width="12" height="12" viewBox="0 0 12 12" fill="none" xmlns="http://www.w3.org/2000/svg">
<path opacity="0.4" fill-rule="evenodd" clip-rule="evenodd" d="M8.78714 4.75039V4.16515C8.78714 3.42984 8.6 1.25 5.99904 1.25C3.3 1.25 3.21094 3.42984 3.21094 4.16515V4.75039L3.38817 4.73529L3.2119 4.75123C2.30484 4.99873 2 5.7229 2 7.29041V8.20709C2 10.2238 2.50558 10.9996 4.14127 10.9996H7.85873C9.49442 10.9996 10 10.2238 10 8.20709V7.29041C10 5.7229 9.69516 4.99873 8.7881 4.75123L8.64331 4.73813L8.78714 4.75039ZM4.32618 4.16515V4.65048L7.6719 4.65039V4.16515C7.6719 3.0108 7.3 2.3002 5.99904 2.3002C4.65 2.3002 4.32618 3.0108 4.32618 4.16515ZM6.00078 8.95078C6.66352 8.95078 7.20078 8.41352 7.20078 7.75078C7.20078 7.08804 6.66352 6.55078 6.00078 6.55078C5.33804 6.55078 4.80078 7.08804 4.80078 7.75078C4.80078 8.41352 5.33804 8.95078 6.00078 8.95078Z" fill="#171717"/>
</svg>
