<svg width="28" height="28" viewBox="0 0 28 28" fill="none" xmlns="http://www.w3.org/2000/svg">
<rect width="28" height="28" rx="8" fill="#none"/>
<path d="M19.6875 11.6672C19.6875 11.9064 19.4892 12.1047 19.25 12.1047H8.75C8.51083 12.1047 8.3125 11.9064 8.3125 11.6672C8.3125 11.428 8.51083 11.2297 8.75 11.2297H9.345L9.56667 10.1739C9.77667 9.15303 10.2142 8.21387 11.9525 8.21387H16.0475C17.7858 8.21387 18.2233 9.15303 18.4333 10.1739L18.655 11.2297H19.25C19.4892 11.2297 19.6875 11.428 19.6875 11.6672Z" fill="white"/>
<path d="M19.9405 14.9687C19.853 14.0062 19.5964 12.9795 17.7239 12.9795H10.2805C8.40804 12.9795 8.15721 14.0062 8.06387 14.9687L7.73721 18.5212C7.69637 18.9645 7.84221 19.4078 8.14554 19.7403C8.45471 20.0787 8.89221 20.2712 9.35887 20.2712H10.4555C11.4005 20.2712 11.5814 19.7287 11.698 19.3728L11.8147 19.0228C11.9489 18.6203 11.9839 18.5212 12.5089 18.5212H15.4955C16.0205 18.5212 16.038 18.5795 16.1897 19.0228L16.3064 19.3728C16.423 19.7287 16.6039 20.2712 17.5489 20.2712H18.6455C19.1064 20.2712 19.5497 20.0787 19.8589 19.7403C20.1622 19.4078 20.308 18.9645 20.2672 18.5212L19.9405 14.9687ZM12.2522 16.1878H10.5022C10.263 16.1878 10.0647 15.9895 10.0647 15.7503C10.0647 15.5112 10.263 15.3128 10.5022 15.3128H12.2522C12.4914 15.3128 12.6897 15.5112 12.6897 15.7503C12.6897 15.9895 12.4914 16.1878 12.2522 16.1878ZM17.5022 16.1878H15.7522C15.513 16.1878 15.3147 15.9895 15.3147 15.7503C15.3147 15.5112 15.513 15.3128 15.7522 15.3128H17.5022C17.7414 15.3128 17.9397 15.5112 17.9397 15.7503C17.9397 15.9895 17.7414 16.1878 17.5022 16.1878Z" fill="white"/>
</svg>
