<svg width="28" height="28" viewBox="0 0 28 28" fill="none" xmlns="http://www.w3.org/2000/svg">
<rect width="28" height="28" rx="8" fill="none"/>
<g clip-path="url(#clip0_474_78597)">
<path d="M19.7487 11.6337C19.0487 8.55366 16.362 7.16699 14.002 7.16699C14.002 7.16699 14.002 7.16699 13.9953 7.16699C11.642 7.16699 8.94868 8.54699 8.24868 11.627C7.46868 15.067 9.57535 17.9803 11.482 19.8137C12.1887 20.4937 13.0954 20.8337 14.002 20.8337C14.9087 20.8337 15.8154 20.4937 16.5154 19.8137C18.422 17.9803 20.5287 15.0737 19.7487 11.6337ZM14.002 14.9737C12.842 14.9737 11.902 14.0337 11.902 12.8737C11.902 11.7137 12.842 10.7737 14.002 10.7737C15.162 10.7737 16.102 11.7137 16.102 12.8737C16.102 14.0337 15.162 14.9737 14.002 14.9737Z" fill="white"/>
</g>
<defs>
<clipPath id="clip0_474_78597">
<rect width="16" height="16" fill="white" transform="translate(6 6)"/>
</clipPath>
</defs>
</svg>
