<svg width="28" height="28" viewBox="0 0 28 28" fill="none" xmlns="http://www.w3.org/2000/svg">
<rect width="28" height="28" rx="8" fill="#none"/>
<path d="M16.7742 12.667C16.7742 12.667 16.6742 13.3337 14.6076 16.0003C12.6676 18.5137 15.4743 20.427 15.8076 20.647C15.8276 20.6603 15.8476 20.6603 15.8743 20.647C16.3276 20.367 21.3742 17.1203 16.7742 12.667Z" fill="white"/>
<path d="M15.1732 11.1934C15.1732 9.66004 14.5732 8.26004 13.9732 7.46004C13.7732 7.26004 13.4398 7.32671 13.3732 7.59337C13.1065 8.59337 12.3065 10.7267 10.3732 13.26C7.90651 16.46 10.1732 19.9267 12.5065 20.5934C13.7732 20.9267 12.1732 19.9267 11.9732 17.86C11.7732 15.26 15.1732 13.3267 15.1732 11.1934Z" fill="white"/>
</svg>
