<svg width="28" height="28" viewBox="0 0 28 28" fill="none" xmlns="http://www.w3.org/2000/svg">
<rect width="28" height="28" rx="8" fill="#none"/>
<path d="M16.392 9.33301H16.1654V7.33301C16.1654 7.05967 15.9387 6.83301 15.6654 6.83301C15.392 6.83301 15.1654 7.05967 15.1654 7.33301V9.33301H12.832V7.33301C12.832 7.05967 12.6054 6.83301 12.332 6.83301C12.0587 6.83301 11.832 7.05967 11.832 7.33301V9.33301H11.6054C10.9054 9.33301 10.332 9.90634 10.332 10.6063V13.9997C10.332 15.4663 11.332 16.6663 12.9987 16.6663H13.4987V20.6663C13.4987 20.9397 13.7254 21.1663 13.9987 21.1663C14.272 21.1663 14.4987 20.9397 14.4987 20.6663V16.6663H14.9987C16.6654 16.6663 17.6654 15.4663 17.6654 13.9997V10.6063C17.6654 9.90634 17.092 9.33301 16.392 9.33301Z" fill="white"/>
</svg>
