<svg width="16" height="16" viewBox="0 0 16 16" fill="none" xmlns="http://www.w3.org/2000/svg">
<path d="M8.96709 13.4158H13.6594C13.7342 13.4158 13.7957 13.3918 13.8438 13.3437C13.8918 13.2957 13.9158 13.2342 13.9158 13.1593V2.84059C13.9158 2.76572 13.8918 2.70427 13.8438 2.65621C13.7957 2.60816 13.7342 2.58413 13.6594 2.58413H8.96709V13.4158ZM3.34063 14.415C2.99535 14.415 2.69973 14.2924 2.45376 14.0473C2.20792 13.8021 2.08501 13.5074 2.08501 13.1631V12.3308C2.08501 12.1933 2.13369 12.0744 2.23105 11.9741C2.32855 11.8738 2.44501 11.8237 2.58042 11.8237C2.71598 11.8237 2.83383 11.8728 2.93397 11.971C3.0341 12.0692 3.08417 12.1873 3.08417 12.3252V13.1593C3.08417 13.2342 3.1082 13.2957 3.15626 13.3437C3.20431 13.3918 3.26577 13.4158 3.34063 13.4158H7.96792V2.58413H3.34063C3.26577 2.58413 3.20431 2.60816 3.15626 2.65621C3.1082 2.70427 3.08417 2.76572 3.08417 2.84059V3.67017C3.08417 3.80697 3.03515 3.92482 2.93709 4.02371C2.83917 4.12274 2.72306 4.17225 2.58876 4.17225C2.45445 4.17225 2.33688 4.12357 2.23605 4.02621C2.13535 3.92899 2.08501 3.81107 2.08501 3.67246V2.836C2.08501 2.48961 2.20792 2.19447 2.45376 1.95059C2.69973 1.70684 2.99535 1.58496 3.34063 1.58496H13.6594C14.0047 1.58496 14.3003 1.70788 14.5463 1.95371C14.7921 2.19968 14.915 2.49531 14.915 2.84059V13.1593C14.915 13.5046 14.7921 13.8002 14.5463 14.0462C14.3003 14.292 14.0047 14.415 13.6594 14.415H3.34063ZM2.58876 10.2475C2.45445 10.2475 2.33688 10.1991 2.23605 10.1023C2.13535 10.0053 2.08501 9.88788 2.08501 9.74996V8.49746H0.836465C0.698548 8.49746 0.580493 8.44947 0.482298 8.3535C0.384104 8.25739 0.335007 8.14093 0.335007 8.00413C0.335007 7.86732 0.384104 7.74885 0.482298 7.64871C0.580493 7.54843 0.698548 7.49829 0.836465 7.49829H2.08501V6.24996C2.08501 6.11204 2.13369 5.99392 2.23105 5.89559C2.32855 5.79739 2.44501 5.74829 2.58042 5.74829C2.71598 5.74829 2.83383 5.79739 2.93397 5.89559C3.0341 5.99392 3.08417 6.11204 3.08417 6.24996V7.49829H4.33646C4.47147 7.49829 4.58813 7.54704 4.68647 7.64454C4.78494 7.74191 4.83417 7.85899 4.83417 7.99579C4.83417 8.1326 4.78494 8.25045 4.68647 8.34934C4.58813 8.44809 4.47147 8.49746 4.33646 8.49746H3.08417V9.74996C3.08417 9.88788 3.03515 10.0053 2.93709 10.1023C2.83917 10.1991 2.72306 10.2475 2.58876 10.2475Z" fill="black"/>
</svg>
