<svg width="16" height="16" viewBox="0 0 16 16" fill="none" xmlns="http://www.w3.org/2000/svg">
<path d="M7.03292 2.58413H2.34063C2.26577 2.58413 2.20431 2.60816 2.15626 2.65621C2.1082 2.70427 2.08417 2.76572 2.08417 2.84059V13.1593C2.08417 13.2342 2.1082 13.2957 2.15626 13.3437C2.20431 13.3918 2.26577 13.4158 2.34063 13.4158H7.03292V2.58413ZM2.34063 14.415C1.99535 14.415 1.69973 14.292 1.45376 14.0462C1.20792 13.8002 1.08501 13.5046 1.08501 13.1593V2.84059C1.08501 2.49531 1.20792 2.19968 1.45376 1.95371C1.69973 1.70788 1.99535 1.58496 2.34063 1.58496H12.6594C13.0047 1.58496 13.3003 1.70753 13.5463 1.95267C13.7921 2.19781 13.915 2.49253 13.915 2.83684V3.66913C13.915 3.80663 13.866 3.92482 13.7681 4.02371C13.6701 4.12274 13.5539 4.17225 13.4196 4.17225C13.2853 4.17225 13.1678 4.12378 13.0671 4.02684C12.9663 3.93003 12.9158 3.81267 12.9158 3.67475V2.84059C12.9158 2.76572 12.8918 2.70427 12.8438 2.65621C12.7957 2.60816 12.7342 2.58413 12.6594 2.58413H8.03209V13.4158H12.6594C12.7342 13.4158 12.7957 13.3918 12.8438 13.3437C12.8918 13.2957 12.9158 13.2342 12.9158 13.1593V12.3298C12.9158 12.1929 12.9646 12.0744 13.0621 11.9741C13.1595 11.8738 13.2758 11.8237 13.4113 11.8237C13.5468 11.8237 13.6647 11.873 13.7648 11.9716C13.8649 12.0702 13.915 12.1889 13.915 12.3275V13.1639C13.915 13.5103 13.7921 13.8054 13.5463 14.0493C13.3003 14.2931 13.0047 14.415 12.6594 14.415H2.34063ZM13.4196 10.2475C13.2853 10.2475 13.1678 10.1991 13.0671 10.1023C12.9663 10.0053 12.9158 9.88788 12.9158 9.74996V8.49746H11.6675C11.5295 8.49746 11.4113 8.44947 11.3131 8.3535C11.2149 8.25739 11.1658 8.14093 11.1658 8.00413C11.1658 7.86732 11.2149 7.74885 11.3131 7.64871C11.4113 7.54843 11.5295 7.49829 11.6675 7.49829H12.9158V6.24996C12.9158 6.11204 12.9646 5.99392 13.0621 5.89559C13.1595 5.79739 13.2758 5.74829 13.4113 5.74829C13.5468 5.74829 13.6647 5.79739 13.7648 5.89559C13.8649 5.99392 13.915 6.11204 13.915 6.24996V7.49829H15.1675C15.3024 7.49829 15.419 7.54704 15.5175 7.64454C15.6158 7.74191 15.665 7.85899 15.665 7.99579C15.665 8.1326 15.6158 8.25045 15.5175 8.34934C15.419 8.44809 15.3024 8.49746 15.1675 8.49746H13.915V9.74996C13.915 9.88788 13.866 10.0053 13.7681 10.1023C13.6701 10.1991 13.5539 10.2475 13.4196 10.2475Z" fill="black"/>
</svg>
