<svg width="16" height="16" viewBox="0 0 16 16" fill="none" xmlns="http://www.w3.org/2000/svg">
<path d="M2.83913 14.415C2.4451 14.415 2.13753 14.3045 1.91642 14.0835C1.69545 13.8624 1.58496 13.5548 1.58496 13.1608V2.83913C1.58496 2.4451 1.69545 2.13753 1.91642 1.91642C2.13753 1.69545 2.4451 1.58496 2.83913 1.58496H13.1608C13.5548 1.58496 13.8624 1.69545 14.0835 1.91642C14.3045 2.13753 14.415 2.4451 14.415 2.83913V13.1608C14.415 13.5548 14.3045 13.8624 14.0835 14.0835C13.8624 14.3045 13.5548 14.415 13.1608 14.415H2.83913ZM7.50246 9.91746H2.58413V13.1593C2.58413 13.2342 2.60816 13.2957 2.65621 13.3437C2.70427 13.3918 2.76572 13.4158 2.84059 13.4158H7.50246V9.91746ZM8.50163 9.91746V13.4158H13.1593C13.2342 13.4158 13.2957 13.3918 13.3437 13.3437C13.3918 13.2957 13.4158 13.2342 13.4158 13.1593V9.91746H8.50163ZM7.50246 8.91829V5.40371H2.58413V8.91829H7.50246ZM8.50163 8.91829H13.4158V5.40371H8.50163V8.91829ZM2.58413 4.40454H13.4158V2.84059C13.4158 2.76572 13.3918 2.70427 13.3437 2.65621C13.2957 2.60816 13.2342 2.58413 13.1593 2.58413H2.84059C2.76572 2.58413 2.70427 2.60816 2.65621 2.65621C2.60816 2.70427 2.58413 2.76572 2.58413 2.84059V4.40454Z" fill="#1F2329"/>
<rect x="2" y="2" width="12" height="3" fill="#1F2329"/>
</svg>
