<svg width="16" height="16" viewBox="0 0 16 16" fill="none" xmlns="http://www.w3.org/2000/svg">
<path fill-rule="evenodd" clip-rule="evenodd" d="M2 8.375C1.68934 8.375 1.4375 8.62684 1.4375 8.9375L1.4375 12.6875C1.4375 14.2408 2.6967 15.5 4.25 15.5H11.75C13.3033 15.5 14.5625 14.2408 14.5625 12.6875V8.9375C14.5625 8.62684 14.3107 8.375 14 8.375H2ZM2.5625 9.5H13.4375V12.6875C13.4375 13.6195 12.682 14.375 11.75 14.375H4.25C3.31802 14.375 2.5625 13.6195 2.5625 12.6875L2.5625 9.5Z" fill="#171717"/>
<path fill-rule="evenodd" clip-rule="evenodd" d="M9.1925 8.9375C9.1925 8.62684 8.94066 8.375 8.63 8.375H2.5625L2.5625 4.46603C2.5625 3.9325 2.995 3.5 3.52853 3.5C3.83919 3.5 4.09103 3.24816 4.09103 2.9375C4.09103 2.62684 3.83919 2.375 3.52853 2.375C2.37368 2.375 1.4375 3.31118 1.4375 4.46603L1.4375 8.9375C1.4375 9.24816 1.68934 9.5 2 9.5H8.63C8.94066 9.5 9.1925 9.24816 9.1925 8.9375Z" fill="#171717"/>
<path fill-rule="evenodd" clip-rule="evenodd" d="M6.8075 8.9375C6.8075 9.24816 7.05934 9.5 7.37 9.5H14C14.3107 9.5 14.5625 9.24816 14.5625 8.9375V4.46603C14.5625 3.31118 13.6263 2.375 12.4715 2.375C12.1608 2.375 11.909 2.62684 11.909 2.9375C11.909 3.24816 12.1608 3.5 12.4715 3.5C13.005 3.5 13.4375 3.9325 13.4375 4.46603V8.375H7.37C7.05934 8.375 6.8075 8.62684 6.8075 8.9375Z" fill="#171717"/>
<path fill-rule="evenodd" clip-rule="evenodd" d="M5.5625 2.9375C5.5625 3.24816 5.81434 3.5 6.125 3.5H7.4375V4.8125C7.4375 5.12316 7.68934 5.375 8 5.375C8.31066 5.375 8.5625 5.12316 8.5625 4.8125V3.5H9.875C10.1857 3.5 10.4375 3.24816 10.4375 2.9375C10.4375 2.62684 10.1857 2.375 9.875 2.375H8.5625V1.0625C8.5625 0.75184 8.31066 0.5 8 0.5C7.68934 0.5 7.4375 0.75184 7.4375 1.0625V2.375L6.125 2.375C5.81434 2.375 5.5625 2.62684 5.5625 2.9375Z" fill="#171717"/>
</svg>
