<svg width="16" height="16" viewBox="0 0 16 16" fill="none" xmlns="http://www.w3.org/2000/svg">
<path d="M13.4158 7.03288V2.34059C13.4158 2.26572 13.3918 2.20427 13.3437 2.15621C13.2957 2.10816 13.2342 2.08413 13.1593 2.08413H2.84059C2.76572 2.08413 2.70427 2.10816 2.65621 2.15621C2.60816 2.20427 2.58413 2.26572 2.58413 2.34059V7.03288H13.4158ZM2.836 13.915C2.48961 13.915 2.19447 13.792 1.95059 13.5462C1.70684 13.3002 1.58496 13.0046 1.58496 12.6593V2.34059C1.58496 1.99531 1.70788 1.69968 1.95371 1.45371C2.19968 1.20788 2.49531 1.08496 2.84059 1.08496H13.1593C13.5046 1.08496 13.8002 1.20788 14.0462 1.45371C14.292 1.69968 14.415 1.99531 14.415 2.34059V12.6593C14.415 13.0046 14.2924 13.3002 14.0473 13.5462C13.8021 13.792 13.5074 13.915 13.1631 13.915H12.3308C12.1933 13.915 12.0751 13.866 11.9762 13.7681C11.8772 13.67 11.8277 13.5539 11.8277 13.4195C11.8277 13.2852 11.8761 13.1677 11.9731 13.067C12.0699 12.9662 12.1873 12.9158 12.3252 12.9158H13.1593C13.2342 12.9158 13.2957 12.8918 13.3437 12.8437C13.3918 12.7957 13.4158 12.7342 13.4158 12.6593V8.03204H2.58413V12.6593C2.58413 12.7342 2.60816 12.7957 2.65621 12.8437C2.70427 12.8918 2.76572 12.9158 2.84059 12.9158H3.67017C3.80698 12.9158 3.92552 12.9646 4.02579 13.0623C4.12607 13.1599 4.17621 13.2756 4.17621 13.4093C4.17621 13.5461 4.12691 13.6646 4.02829 13.7648C3.92968 13.8649 3.81107 13.915 3.67246 13.915H2.836ZM8.00413 15.665C7.86732 15.665 7.74948 15.6159 7.65059 15.5177C7.55184 15.4195 7.50246 15.3014 7.50246 15.1635V13.915H6.24996C6.11204 13.915 5.99461 13.866 5.89767 13.7681C5.80086 13.67 5.75246 13.5539 5.75246 13.4195C5.75246 13.2852 5.80086 13.1677 5.89767 13.067C5.99461 12.9662 6.11204 12.9158 6.24996 12.9158H7.50246V11.6635C7.50246 11.5285 7.55045 11.4118 7.64642 11.3135C7.74253 11.215 7.85899 11.1658 7.99579 11.1658C8.1326 11.1658 8.25107 11.215 8.35121 11.3135C8.45149 11.4118 8.50163 11.5285 8.50163 11.6635V12.9158H9.74996C9.88788 12.9158 10.006 12.9646 10.1043 13.0623C10.2025 13.1599 10.2516 13.2756 10.2516 13.4093C10.2516 13.5461 10.2025 13.6646 10.1043 13.7648C10.006 13.8649 9.88788 13.915 9.74996 13.915H8.50163V15.1635C8.50163 15.3014 8.45288 15.4195 8.35538 15.5177C8.25802 15.6159 8.14093 15.665 8.00413 15.665Z" fill="black"/>
</svg>
