<svg width="16" height="16" viewBox="0 0 16 16" fill="none" xmlns="http://www.w3.org/2000/svg">
<path fill-rule="evenodd" clip-rule="evenodd" d="M2 7.625C1.68934 7.625 1.4375 7.37316 1.4375 7.0625L1.4375 3.3125C1.4375 1.7592 2.6967 0.5 4.25 0.5H11.75C13.3033 0.5 14.5625 1.7592 14.5625 3.3125V7.0625C14.5625 7.37316 14.3107 7.625 14 7.625L2 7.625ZM2.5625 6.5H13.4375V3.3125C13.4375 2.38052 12.682 1.625 11.75 1.625H4.25C3.31802 1.625 2.5625 2.38052 2.5625 3.3125L2.5625 6.5Z" fill="#171717"/>
<path fill-rule="evenodd" clip-rule="evenodd" d="M9.1925 7.0625C9.1925 7.37316 8.94066 7.625 8.63 7.625H2.5625L2.5625 11.534C2.5625 12.0675 2.995 12.5 3.52853 12.5C3.83919 12.5 4.09103 12.7518 4.09103 13.0625C4.09103 13.3732 3.83919 13.625 3.52853 13.625C2.37368 13.625 1.4375 12.6888 1.4375 11.534L1.4375 7.0625C1.4375 6.75184 1.68934 6.5 2 6.5H8.63C8.94066 6.5 9.1925 6.75184 9.1925 7.0625Z" fill="#171717"/>
<path fill-rule="evenodd" clip-rule="evenodd" d="M6.8075 7.0625C6.8075 6.75184 7.05934 6.5 7.37 6.5H14C14.3107 6.5 14.5625 6.75184 14.5625 7.0625V11.534C14.5625 12.6888 13.6263 13.625 12.4715 13.625C12.1608 13.625 11.909 13.3732 11.909 13.0625C11.909 12.7518 12.1608 12.5 12.4715 12.5C13.005 12.5 13.4375 12.0675 13.4375 11.534V7.625L7.37 7.625C7.05934 7.625 6.8075 7.37316 6.8075 7.0625Z" fill="#171717"/>
<path fill-rule="evenodd" clip-rule="evenodd" d="M5.5625 13.0625C5.5625 12.7518 5.81434 12.5 6.125 12.5H7.4375V11.1875C7.4375 10.8768 7.68934 10.625 8 10.625C8.31066 10.625 8.5625 10.8768 8.5625 11.1875V12.5H9.875C10.1857 12.5 10.4375 12.7518 10.4375 13.0625C10.4375 13.3732 10.1857 13.625 9.875 13.625H8.5625V14.9375C8.5625 15.2482 8.31066 15.5 8 15.5C7.68934 15.5 7.4375 15.2482 7.4375 14.9375V13.625H6.125C5.81434 13.625 5.5625 13.3732 5.5625 13.0625Z" fill="#171717"/>
</svg>
