<svg width="17" height="16" viewBox="0 0 17 16" fill="none" xmlns="http://www.w3.org/2000/svg">
<path fill-rule="evenodd" clip-rule="evenodd" d="M8.875 2C8.875 1.68934 9.12684 1.4375 9.4375 1.4375H13.1875C14.7408 1.4375 16 2.6967 16 4.25V11.75C16 13.3033 14.7408 14.5625 13.1875 14.5625H9.4375C9.12684 14.5625 8.875 14.3107 8.875 14V2ZM10 2.5625V13.4375H13.1875C14.1195 13.4375 14.875 12.682 14.875 11.75V4.25C14.875 3.31802 14.1195 2.5625 13.1875 2.5625H10Z" fill="#171717"/>
<path fill-rule="evenodd" clip-rule="evenodd" d="M9.4375 9.1925C9.12684 9.1925 8.875 8.94066 8.875 8.63V2.5625H4.96603C4.4325 2.5625 4 2.995 4 3.52853C4 3.83919 3.74816 4.09103 3.4375 4.09103C3.12684 4.09103 2.875 3.83919 2.875 3.52853C2.875 2.37368 3.81118 1.4375 4.96603 1.4375H9.4375C9.74816 1.4375 10 1.68934 10 2V8.63C10 8.94066 9.74816 9.1925 9.4375 9.1925Z" fill="#171717"/>
<path fill-rule="evenodd" clip-rule="evenodd" d="M9.4375 6.8075C9.74816 6.8075 10 7.05934 10 7.37V14C10 14.3107 9.74816 14.5625 9.4375 14.5625H4.96603C3.81118 14.5625 2.875 13.6263 2.875 12.4715C2.875 12.1608 3.12684 11.909 3.4375 11.909C3.74816 11.909 4 12.1608 4 12.4715C4 13.005 4.4325 13.4375 4.96603 13.4375H8.875V7.37C8.875 7.05934 9.12684 6.8075 9.4375 6.8075Z" fill="#171717"/>
<path fill-rule="evenodd" clip-rule="evenodd" d="M3.4375 5.5625C3.74816 5.5625 4 5.81434 4 6.125V7.4375H5.3125C5.62316 7.4375 5.875 7.68934 5.875 8C5.875 8.31066 5.62316 8.5625 5.3125 8.5625H4V9.875C4 10.1857 3.74816 10.4375 3.4375 10.4375C3.12684 10.4375 2.875 10.1857 2.875 9.875V8.5625H1.5625C1.25184 8.5625 1 8.31066 1 8C1 7.68934 1.25184 7.4375 1.5625 7.4375H2.875V6.125C2.875 5.81434 3.12684 5.5625 3.4375 5.5625Z" fill="#171717"/>
</svg>
