<svg width="16" height="16" viewBox="0 0 16 16" fill="none" xmlns="http://www.w3.org/2000/svg">
<path d="M14.415 13.1609C14.415 13.5549 14.3045 13.8625 14.0835 14.0836C13.8624 14.3046 13.5549 14.415 13.1608 14.415H2.83917C2.44514 14.415 2.13757 14.3046 1.91646 14.0836C1.69548 13.8625 1.585 13.5549 1.585 13.1609L1.585 2.83921C1.585 2.44518 1.69548 2.13761 1.91646 1.9165C2.13757 1.69553 2.44514 1.58504 2.83917 1.58504H13.1608C13.5549 1.58504 13.8624 1.69553 14.0835 1.9165C14.3045 2.13761 14.415 2.44518 14.415 2.83921V13.1609ZM9.9175 8.49754V13.4159H13.1594C13.2342 13.4159 13.2957 13.3918 13.3437 13.3438C13.3918 13.2957 13.4158 13.2343 13.4158 13.1594V8.49754H9.9175ZM9.9175 7.49837H13.4158V2.84066C13.4158 2.7658 13.3918 2.70434 13.3437 2.65629C13.2957 2.60823 13.2342 2.58421 13.1594 2.58421H9.9175V7.49837ZM8.91833 8.49754H5.40375V13.4159H8.91833V8.49754ZM8.91833 7.49837V2.58421H5.40375L5.40375 7.49837L8.91833 7.49837ZM4.40458 13.4159L4.40458 2.58421H2.84062C2.76576 2.58421 2.7043 2.60823 2.65625 2.65629C2.60819 2.70434 2.58416 2.7658 2.58416 2.84066L2.58416 13.1594C2.58416 13.2343 2.60819 13.2957 2.65625 13.3438C2.7043 13.3918 2.76576 13.4159 2.84062 13.4159H4.40458Z" fill="#1F2329"/>
<rect x="2" y="14" width="12" height="3" transform="rotate(-90 2 14)" fill="#1F2329"/>
</svg>
