<svg width="16" height="16" viewBox="0 0 16 16" fill="none" xmlns="http://www.w3.org/2000/svg">
<path d="M8.77563 11.6528C8.95869 11.8358 9.2555 11.8358 9.43856 11.6528C9.62162 11.4697 9.62162 11.1729 9.43856 10.9898L8.77563 11.6528ZM5.01018 6.56145C4.82713 6.37839 4.53033 6.37839 4.34727 6.56145C4.16421 6.74451 4.16421 7.04131 4.34727 7.22437L5.01018 6.56145ZM11.7279 8.03756L8.03756 11.7279L8.7005 12.3908L12.3908 8.7005L11.7279 8.03756ZM4.27212 7.96244L7.96244 4.27212L7.2995 3.60921L3.60921 7.2995L4.27212 7.96244ZM4.27212 11.7279C3.74086 11.1966 3.37647 10.8308 3.13908 10.5197C2.90995 10.2194 2.84375 10.0257 2.84375 9.84513H1.90625C1.90625 10.3131 2.10099 10.7046 2.39375 11.0884C2.67826 11.4613 3.09669 11.8783 3.60921 12.3908L4.27212 11.7279ZM3.60921 7.2995C3.09669 7.812 2.67826 8.22906 2.39375 8.60194C2.10099 8.98562 1.90625 9.37719 1.90625 9.84513H2.84375C2.84375 9.66456 2.90995 9.47094 3.13908 9.17062C3.37647 8.8595 3.74086 8.49369 4.27212 7.96244L3.60921 7.2995ZM8.03756 11.7279C7.50631 12.2591 7.1405 12.6236 6.82937 12.8609C6.52907 13.0901 6.33541 13.1562 6.15485 13.1562V14.0938C6.62281 14.0938 7.01438 13.899 7.39806 13.6062C7.77094 13.3217 8.188 12.9033 8.7005 12.3908L8.03756 11.7279ZM3.60921 12.3908C4.12173 12.9033 4.53876 13.3217 4.91164 13.6062C5.29535 13.899 5.68689 14.0938 6.15485 14.0938V13.1562C5.97429 13.1562 5.78062 13.0901 5.48031 12.8609C5.16918 12.6236 4.80338 12.2591 4.27212 11.7279L3.60921 12.3908ZM11.7279 4.27212C12.2591 4.80338 12.6236 5.16918 12.8609 5.48031C13.0901 5.78062 13.1562 5.97429 13.1562 6.15485H14.0938C14.0938 5.68689 13.899 5.29535 13.6062 4.91164C13.3217 4.53876 12.9033 4.12173 12.3908 3.60921L11.7279 4.27212ZM12.3908 8.7005C12.9033 8.188 13.3217 7.77094 13.6062 7.39806C13.899 7.01438 14.0938 6.62281 14.0938 6.15485H13.1562C13.1562 6.33541 13.0901 6.52907 12.8609 6.82937C12.6236 7.1405 12.2591 7.50631 11.7279 8.03756L12.3908 8.7005ZM12.3908 3.60921C11.8783 3.09669 11.4613 2.67826 11.0884 2.39375C10.7046 2.10099 10.3131 1.90625 9.84513 1.90625V2.84375C10.0257 2.84375 10.2194 2.90995 10.5197 3.13908C10.8308 3.37647 11.1966 3.74086 11.7279 4.27212L12.3908 3.60921ZM7.96244 4.27212C8.49369 3.74086 8.8595 3.37647 9.17062 3.13908C9.47094 2.90995 9.66456 2.84375 9.84513 2.84375V1.90625C9.37719 1.90625 8.98562 2.10099 8.60194 2.39375C8.22906 2.67826 7.812 3.09669 7.2995 3.60921L7.96244 4.27212ZM9.43856 10.9898L5.01018 6.56145L4.34727 7.22437L8.77563 11.6528L9.43856 10.9898Z" fill="#1F2329"/>
<path d="M6.125 13.625H13.625" stroke="#1F2329" stroke-linecap="round"/>
</svg>
