<svg width="17" height="16" viewBox="0 0 17 16" fill="none" xmlns="http://www.w3.org/2000/svg">
<path fill-rule="evenodd" clip-rule="evenodd" d="M8.125 2C8.125 1.68934 7.87316 1.4375 7.5625 1.4375H3.8125C2.2592 1.4375 1 2.6967 1 4.25V11.75C1 13.3033 2.2592 14.5625 3.8125 14.5625H7.5625C7.87316 14.5625 8.125 14.3107 8.125 14V2ZM7 2.5625V13.4375H3.8125C2.88052 13.4375 2.125 12.682 2.125 11.75V4.25C2.125 3.31802 2.88052 2.5625 3.8125 2.5625H7Z" fill="#171717"/>
<path fill-rule="evenodd" clip-rule="evenodd" d="M7.5625 9.1925C7.87316 9.1925 8.125 8.94066 8.125 8.63V2.5625H12.034C12.5675 2.5625 13 2.995 13 3.52853C13 3.83919 13.2518 4.09103 13.5625 4.09103C13.8732 4.09103 14.125 3.83919 14.125 3.52853C14.125 2.37368 13.1888 1.4375 12.034 1.4375H7.5625C7.25184 1.4375 7 1.68934 7 2V8.63C7 8.94066 7.25184 9.1925 7.5625 9.1925Z" fill="#171717"/>
<path fill-rule="evenodd" clip-rule="evenodd" d="M7.5625 6.8075C7.25184 6.8075 7 7.05934 7 7.37V14C7 14.3107 7.25184 14.5625 7.5625 14.5625H12.034C13.1888 14.5625 14.125 13.6263 14.125 12.4715C14.125 12.1608 13.8732 11.909 13.5625 11.909C13.2518 11.909 13 12.1608 13 12.4715C13 13.005 12.5675 13.4375 12.034 13.4375H8.125V7.37C8.125 7.05934 7.87316 6.8075 7.5625 6.8075Z" fill="#171717"/>
<path fill-rule="evenodd" clip-rule="evenodd" d="M13.5625 5.5625C13.2518 5.5625 13 5.81434 13 6.125V7.4375H11.6875C11.3768 7.4375 11.125 7.68934 11.125 8C11.125 8.31066 11.3768 8.5625 11.6875 8.5625H13V9.875C13 10.1857 13.2518 10.4375 13.5625 10.4375C13.8732 10.4375 14.125 10.1857 14.125 9.875V8.5625H15.4375C15.7482 8.5625 16 8.31066 16 8C16 7.68934 15.7482 7.4375 15.4375 7.4375H14.125V6.125C14.125 5.81434 13.8732 5.5625 13.5625 5.5625Z" fill="#171717"/>
</svg>
