<svg width="16" height="16" viewBox="0 0 16 16" fill="none" xmlns="http://www.w3.org/2000/svg">
<g clip-path="url(#clip0_6135_6661)">
<path d="M8.92911 12.376C9.14841 12.5953 9.50398 12.5953 9.72328 12.376C9.94257 12.1567 9.94257 11.8011 9.72328 11.5818L8.92911 12.376ZM4.4183 6.27689C4.19901 6.05759 3.84346 6.05759 3.62417 6.27689C3.40487 6.49619 3.40487 6.85174 3.62417 7.07104L4.4183 6.27689ZM12.4658 8.04519L8.04495 12.466L8.83911 13.2602L13.2599 8.83936L12.4658 8.04519ZM3.53414 7.9552L7.95495 3.53438L7.16079 2.74025L2.74001 7.16103L3.53414 7.9552ZM3.53414 12.466C2.89772 11.8296 2.4612 11.3914 2.17682 11.0187C1.90233 10.6589 1.82303 10.4269 1.82303 10.2106H0.699951C0.699951 10.7712 0.933244 11.2402 1.28395 11.6999C1.62477 12.1466 2.12603 12.6461 2.74001 13.2602L3.53414 12.466ZM2.74001 7.16103C2.12603 7.77498 1.62477 8.2746 1.28395 8.72129C0.933244 9.18092 0.699951 9.65 0.699951 10.2106H1.82303C1.82303 9.99426 1.90233 9.7623 2.17682 9.40254C2.4612 9.02983 2.89772 8.59161 3.53414 7.9552L2.74001 7.16103ZM8.04495 12.466C7.40854 13.1024 6.97031 13.539 6.5976 13.8233C6.23785 14.0978 6.00585 14.1771 5.78956 14.1771V15.3002C6.35014 15.3002 6.81922 15.0669 7.27886 14.7162C7.72555 14.3754 8.22517 13.8741 8.83911 13.2602L8.04495 12.466ZM2.74001 13.2602C3.35398 13.8741 3.85356 14.3754 4.30026 14.7162C4.75992 15.0669 5.22896 15.3002 5.78956 15.3002V14.1771C5.57325 14.1771 5.34125 14.0978 4.98149 13.8233C4.60878 13.539 4.17057 13.1024 3.53414 12.466L2.74001 13.2602ZM12.4658 3.53438C13.1022 4.17081 13.5387 4.60902 13.8231 4.98174C14.0976 5.3415 14.1769 5.5735 14.1769 5.7898H15.3C15.3 5.22921 15.0667 4.76016 14.716 4.3005C14.3751 3.8538 13.8739 3.35422 13.2599 2.74025L12.4658 3.53438ZM13.2599 8.83936C13.8739 8.22541 14.3751 7.72579 14.716 7.27911C15.0667 6.81947 15.3 6.35039 15.3 5.7898H14.1769C14.1769 6.0061 14.0976 6.23809 13.8231 6.59785C13.5387 6.97056 13.1022 7.40878 12.4658 8.04519L13.2599 8.83936ZM13.2599 2.74025C12.6459 2.12628 12.1464 1.62502 11.6997 1.2842C11.24 0.933488 10.771 0.700195 10.2103 0.700195V1.82327C10.4266 1.82327 10.6586 1.90258 11.0184 2.17706C11.3911 2.46144 11.8293 2.89797 12.4658 3.53438L13.2599 2.74025ZM7.95495 3.53438C8.59136 2.89797 9.02959 2.46144 9.4023 2.17706C9.76206 1.90258 9.99401 1.82327 10.2103 1.82327V0.700195C9.64975 0.700195 9.18068 0.933488 8.72104 1.2842C8.27436 1.62502 7.77474 2.12628 7.16079 2.74025L7.95495 3.53438ZM9.72328 11.5818L4.4183 6.27689L3.62417 7.07104L8.92911 12.376L9.72328 11.5818Z" fill="#171717"/>
<path d="M5.7677 14.7979H14.8092" stroke="#171717" stroke-linecap="round"/>
</g>
<defs>
<clipPath id="clip0_6135_6661">
<rect width="16" height="16" fill="white"/>
</clipPath>
</defs>
</svg>
