<svg width="16" height="16" viewBox="0 0 16 16" fill="none" xmlns="http://www.w3.org/2000/svg">
<path d="M2.58413 8.96704V13.6593C2.58413 13.7342 2.60816 13.7957 2.65621 13.8437C2.70427 13.8918 2.76572 13.9158 2.84059 13.9158H13.1593C13.2342 13.9158 13.2957 13.8918 13.3437 13.8437C13.3918 13.7957 13.4158 13.7342 13.4158 13.6593V8.96704H2.58413ZM2.84059 14.915C2.49531 14.915 2.19968 14.792 1.95371 14.5462C1.70788 14.3002 1.58496 14.0046 1.58496 13.6593V3.34059C1.58496 2.99531 1.70753 2.69968 1.95267 2.45371C2.19781 2.20788 2.49253 2.08496 2.83684 2.08496H3.66913C3.80663 2.08496 3.92552 2.13378 4.02579 2.23142C4.12607 2.32906 4.17621 2.44475 4.17621 2.5785C4.17621 2.71531 4.12711 2.83378 4.02892 2.93392C3.93073 3.03406 3.81267 3.08413 3.67475 3.08413H2.84059C2.76572 3.08413 2.70427 3.10816 2.65621 3.15621C2.60816 3.20427 2.58413 3.26572 2.58413 3.34059V7.96788H13.4158V3.34059C13.4158 3.26572 13.3918 3.20427 13.3437 3.15621C13.2957 3.10816 13.2342 3.08413 13.1593 3.08413H12.3298C12.1929 3.08413 12.0751 3.0351 11.9762 2.93704C11.8772 2.83913 11.8277 2.72302 11.8277 2.58871C11.8277 2.45441 11.8763 2.33684 11.9737 2.236C12.0709 2.13531 12.1888 2.08496 12.3275 2.08496H13.1639C13.5103 2.08496 13.8054 2.20788 14.0493 2.45371C14.2931 2.69968 14.415 2.99531 14.415 3.34059V13.6593C14.415 14.0046 14.292 14.3002 14.0462 14.5462C13.8002 14.792 13.5046 14.915 13.1593 14.915H2.84059ZM7.50246 3.08413H6.24996C6.11204 3.08413 5.99461 3.0351 5.89767 2.93704C5.80086 2.83913 5.75246 2.72302 5.75246 2.58871C5.75246 2.45441 5.80086 2.33684 5.89767 2.236C5.99461 2.13531 6.11204 2.08496 6.24996 2.08496H7.50246V0.832461C7.50246 0.6976 7.55045 0.580932 7.64642 0.48246C7.74253 0.384127 7.85899 0.334961 7.99579 0.334961C8.1326 0.334961 8.25107 0.384127 8.35121 0.48246C8.45149 0.580932 8.50163 0.6976 8.50163 0.832461V2.08496H9.74996C9.88788 2.08496 10.006 2.13378 10.1043 2.23142C10.2025 2.32906 10.2516 2.44475 10.2516 2.5785C10.2516 2.71531 10.2025 2.83378 10.1043 2.93392C10.006 3.03406 9.88788 3.08413 9.74996 3.08413H8.50163V4.33246C8.50163 4.47052 8.45288 4.58864 8.35538 4.68684C8.25802 4.78503 8.14093 4.83413 8.00413 4.83413C7.86732 4.83413 7.74948 4.78503 7.65059 4.68684C7.55184 4.58864 7.50246 4.47052 7.50246 4.33246V3.08413Z" fill="black"/>
</svg>
