<svg width="16" height="16" viewBox="0 0 16 16" fill="none" xmlns="http://www.w3.org/2000/svg">
<path d="M15.2 13.292V10.8157M15.2 10.8157V8.33939M15.2 10.8157C15.2 12.1833 14.0913 13.292 12.7236 13.292C11.356 13.292 10.2473 12.1833 10.2473 10.8157C10.2473 9.44807 11.356 8.33939 12.7236 8.33939C14.0913 8.33939 15.2 9.44807 15.2 10.8157Z" stroke="#171717" stroke-width="1.15" stroke-linecap="round" stroke-linejoin="round"/>
<path d="M8.25275 13.464L6.99032 9.94589L6.97947 9.94599H2.66533L2.65451 9.94589L1.39209 13.464C1.27052 13.8028 0.914247 13.9724 0.596318 13.8429C0.278388 13.7133 0.119201 13.3337 0.240762 12.9949L3.95892 2.63325C4.2619 1.78892 5.38293 1.78892 5.68591 2.63325L9.40407 12.9949C9.52563 13.3337 9.36644 13.7133 9.04851 13.8429C8.73058 13.9724 8.37431 13.8028 8.25275 13.464ZM4.82242 3.90443L3.12577 8.6326H6.51906L4.82242 3.90443Z" fill="#171717"/>
</svg>
