<svg width="24" height="24" viewBox="0 0 24 24" fill="none" xmlns="http://www.w3.org/2000/svg">
<path d="M4.4 10.1001C3.35025 10.1001 2.5 10.9503 2.5 12.0001C2.5 13.0498 3.35025 13.9001 4.4 13.9001C5.44975 13.9001 6.3 13.0498 6.3 12.0001C6.3 10.9503 5.44975 10.1001 4.4 10.1001ZM12 10.1001C10.9502 10.1001 10.1 10.9503 10.1 12.0001C10.1 13.0498 10.9502 13.9001 12 13.9001C13.0498 13.9001 13.9 13.0498 13.9 12.0001C13.9 10.9503 13.0498 10.1001 12 10.1001ZM19.6 10.1001C18.5502 10.1001 17.7 10.9503 17.7 12.0001C17.7 13.0498 18.5502 13.9001 19.6 13.9001C20.6497 13.9001 21.5 13.0498 21.5 12.0001C21.5 10.9503 20.6497 10.1001 19.6 10.1001Z" fill="#C5C7CB"/>
</svg>
