<svg width="18" height="18" viewBox="0 0 18 18" fill="none" xmlns="http://www.w3.org/2000/svg">
<path d="M4.76406 8.99995C4.76406 9.6834 4.21001 10.2375 3.52656 10.2375C2.84311 10.2375 2.28906 9.6834 2.28906 8.99995C2.28906 8.3165 2.84311 7.76245 3.52656 7.76245C4.21001 7.76245 4.76406 8.3165 4.76406 8.99995Z" fill="#171717"/>
<path d="M10.2406 8.99995C10.2406 9.6834 9.68658 10.2375 9.00312 10.2375C8.31967 10.2375 7.76562 9.6834 7.76562 8.99995C7.76562 8.3165 8.31967 7.76245 9.00312 7.76245C9.68658 7.76245 10.2406 8.3165 10.2406 8.99995Z" fill="#171717"/>
<path d="M15.7133 8.99995C15.7133 9.6834 15.1592 10.2375 14.4758 10.2375C13.7923 10.2375 13.2383 9.6834 13.2383 8.99995C13.2383 8.3165 13.7923 7.76245 14.4758 7.76245C15.1592 7.76245 15.7133 8.3165 15.7133 8.99995Z" fill="#171717"/>
</svg>
