<svg width="16" height="17" viewBox="0 0 16 17" fill="none" xmlns="http://www.w3.org/2000/svg">
<path d="M9.26576 3.43317C9.26576 2.73334 8.69868 2.1665 7.99909 2.1665C7.29951 2.1665 6.73242 2.73334 6.73242 3.43317C6.73242 4.133 7.29951 4.69984 7.99909 4.69984C8.69868 4.69984 9.26576 4.133 9.26576 3.43317ZM9.26576 8.49984C9.26576 7.8 8.69868 7.23317 7.99909 7.23317C7.29951 7.23317 6.73242 7.8 6.73242 8.49984C6.73242 9.19967 7.29951 9.7665 7.99909 9.7665C8.69868 9.7665 9.26576 9.19967 9.26576 8.49984ZM9.26576 13.5665C9.26576 12.8667 8.69868 12.2998 7.99909 12.2998C7.29951 12.2998 6.73242 12.8667 6.73242 13.5665C6.73242 14.2663 7.29951 14.8332 7.99909 14.8332C8.69868 14.8332 9.26576 14.2663 9.26576 13.5665Z" fill="#2F3030"/>
</svg>
