<svg width="16" height="16" viewBox="0 0 16 16" fill="none" xmlns="http://www.w3.org/2000/svg">
<path d="M4.10968 3.35641C3.9014 3.14813 3.56371 3.14813 3.35543 3.35641C3.14715 3.56468 3.14715 3.90237 3.35543 4.11065L7.24497 8.0002L3.35543 11.8897C3.14715 12.098 3.14715 12.4357 3.35543 12.644C3.56371 12.8523 3.9014 12.8523 4.10968 12.644L7.99922 8.75444L11.8888 12.644C12.097 12.8523 12.4347 12.8523 12.643 12.644C12.8513 12.4357 12.8513 12.098 12.643 11.8897L8.75347 8.0002L12.643 4.11065C12.8513 3.90237 12.8513 3.56468 12.643 3.35641C12.4347 3.14813 12.097 3.14813 11.8888 3.35641L7.99922 7.24595L4.10968 3.35641Z" fill="black" stroke="black" stroke-width="0.15" stroke-linecap="round" stroke-linejoin="round"/>
</svg>
