<svg width="24" height="24" viewBox="0 0 24 24" fill="none" xmlns="http://www.w3.org/2000/svg">
<path d="M2.72503 21C2.5417 21 2.37503 20.9542 2.22503 20.8625C2.07503 20.7708 1.95837 20.65 1.87503 20.5C1.7917 20.35 1.74587 20.1875 1.73753 20.0125C1.7292 19.8375 1.77503 19.6667 1.87503 19.5L11.125 3.5C11.225 3.33333 11.3542 3.20833 11.5125 3.125C11.6709 3.04167 11.8334 3 12 3C12.1667 3 12.3292 3.04167 12.4875 3.125C12.6459 3.20833 12.775 3.33333 12.875 3.5L22.125 19.5C22.225 19.6667 22.2709 19.8375 22.2625 20.0125C22.2542 20.1875 22.2084 20.35 22.125 20.5C22.0417 20.65 21.925 20.7708 21.775 20.8625C21.625 20.9542 21.4584 21 21.275 21H2.72503ZM12 18C12.2834 18 12.5209 17.9042 12.7125 17.7125C12.9042 17.5208 13 17.2833 13 17C13 16.7167 12.9042 16.4792 12.7125 16.2875C12.5209 16.0958 12.2834 16 12 16C11.7167 16 11.4792 16.0958 11.2875 16.2875C11.0959 16.4792 11 16.7167 11 17C11 17.2833 11.0959 17.5208 11.2875 17.7125C11.4792 17.9042 11.7167 18 12 18ZM12 15C12.2834 15 12.5209 14.9042 12.7125 14.7125C12.9042 14.5208 13 14.2833 13 14V11C13 10.7167 12.9042 10.4792 12.7125 10.2875C12.5209 10.0958 12.2834 10 12 10C11.7167 10 11.4792 10.0958 11.2875 10.2875C11.0959 10.4792 11 10.7167 11 11V14C11 14.2833 11.0959 14.5208 11.2875 14.7125C11.4792 14.9042 11.7167 15 12 15Z" fill="#FF7E1E"/>
</svg>
