<svg width="16" height="16" viewBox="0 0 16 16" fill="none" xmlns="http://www.w3.org/2000/svg">
<path d="M3.18516 8.3457L0.738083 10.3849C0.444986 10.6292 0 10.4208 0 10.0392L0 5.96077C0 5.57924 0.444985 5.37082 0.738082 5.61507L3.18516 7.6543C3.40105 7.83421 3.40105 8.16579 3.18516 8.3457Z" fill="#333333"/>
<path d="M14.967 9.34754C15.2394 9.72633 15.3999 10.191 15.3999 10.6932C15.3999 10.8654 15.381 11.0332 15.3453 11.1945C15.2663 11.551 14.9378 11.7807 14.5742 11.8142C14.3397 11.8357 14.1021 11.8467 13.862 11.8467C13.47 11.8467 13.0848 11.8173 12.7086 11.7607M14.967 9.34754C15.2394 8.96881 15.3999 8.50407 15.3999 8.0019C15.3999 7.8297 15.381 7.66197 15.3453 7.5006C15.2663 7.14406 14.9378 6.91438 14.5742 6.88098C14.3397 6.85945 14.1021 6.84844 13.862 6.84844C13.47 6.84844 13.0848 6.87777 12.7086 6.93437M14.967 9.34754H13.4775M5.3999 4.15332V7.99841M5.3999 7.99841V11.8435M5.3999 7.99841L10.7826 7.99877M10.7826 7.99877V4.15369M10.7826 7.99877V11.8438" stroke="#333333" stroke-linecap="round" stroke-linejoin="round"/>
</svg>
