<svg width="20" height="20" viewBox="0 0 20 20" fill="none" xmlns="http://www.w3.org/2000/svg">
<g opacity="0.9">
<path fill-rule="evenodd" clip-rule="evenodd" d="M8.03559 3.91001C8.24508 3.76431 8.49414 3.68622 8.74931 3.68622C9.00448 3.68622 9.25353 3.76431 9.46302 3.91001C9.67251 4.0557 9.83239 4.26202 9.92118 4.50124L9.92169 4.50261L11.4217 8.57292L11.4235 8.57578L11.4263 8.57758L15.498 10.0781C15.7373 10.1669 15.9436 10.3268 16.0893 10.5363C16.235 10.7458 16.3131 10.9948 16.3131 11.25C16.3131 11.5051 16.235 11.7542 16.0893 11.9637C15.9436 12.1732 15.7373 12.3331 15.498 12.4219L15.4967 12.4224L11.4264 13.9224L11.4235 13.9242L11.4217 13.927L9.92169 17.9973L9.92118 17.9987C9.83239 18.2379 9.6725 18.4443 9.46302 18.59C9.25353 18.7356 9.00448 18.8137 8.74931 18.8137C8.49414 18.8137 8.24508 18.7356 8.03559 18.59C7.82611 18.4443 7.66623 18.2379 7.57743 17.9987L7.57692 17.9973L6.07692 13.927L6.07511 13.9242L6.07383 13.9231L6.07228 13.9224L2.00194 12.4224L2.00057 12.4219C1.76134 12.3331 1.55503 12.1732 1.40933 11.9637C1.26364 11.7542 1.18555 11.5051 1.18555 11.25C1.18555 10.9948 1.26364 10.7458 1.40933 10.5363C1.55503 10.3268 1.76134 10.1669 2.00057 10.0781L2.00194 10.0776L6.07225 8.5776L6.07511 8.57578L6.07691 8.57295L7.57692 4.50261L7.57743 4.50124C7.66623 4.26202 7.82611 4.0557 8.03559 3.91001ZM10.2488 13.4948C10.3117 13.324 10.4109 13.169 10.5396 13.0403C10.6683 12.9116 10.8234 12.8124 10.9941 12.7495L15.0631 11.25L10.9942 9.7505C10.8234 9.68758 10.6683 9.58834 10.5396 9.45966C10.4109 9.33098 10.3117 9.17592 10.2488 9.00516L8.74931 4.93622L7.24983 9.00513C7.1869 9.17588 7.08767 9.33098 6.95899 9.45966C6.83031 9.58834 6.67524 9.68756 6.50449 9.75049L2.43555 11.25L6.50446 12.7495C6.67521 12.8124 6.83031 12.9116 6.95899 13.0403C7.08767 13.169 7.18689 13.324 7.24981 13.4948L8.74931 17.5637L10.2488 13.4948Z" fill="#8427E0"/>
<path fill-rule="evenodd" clip-rule="evenodd" d="M13.7493 0.625C14.0945 0.625 14.3743 0.904822 14.3743 1.25V5C14.3743 5.34518 14.0945 5.625 13.7493 5.625C13.4042 5.625 13.1243 5.34518 13.1243 5V1.25C13.1243 0.904822 13.4042 0.625 13.7493 0.625Z" fill="#8427E0"/>
<path fill-rule="evenodd" clip-rule="evenodd" d="M11.2493 3.125C11.2493 2.77982 11.5292 2.5 11.8743 2.5H15.6243C15.9695 2.5 16.2493 2.77982 16.2493 3.125C16.2493 3.47018 15.9695 3.75 15.6243 3.75H11.8743C11.5292 3.75 11.2493 3.47018 11.2493 3.125Z" fill="#8427E0"/>
<path fill-rule="evenodd" clip-rule="evenodd" d="M17.4993 5C17.8445 5 18.1243 5.27982 18.1243 5.625V8.125C18.1243 8.47018 17.8445 8.75 17.4993 8.75C17.1542 8.75 16.8743 8.47018 16.8743 8.125V5.625C16.8743 5.27982 17.1542 5 17.4993 5Z" fill="#8427E0"/>
<path fill-rule="evenodd" clip-rule="evenodd" d="M15.6243 6.875C15.6243 6.52982 15.9042 6.25 16.2493 6.25H18.7493C19.0945 6.25 19.3743 6.52982 19.3743 6.875C19.3743 7.22018 19.0945 7.5 18.7493 7.5H16.2493C15.9042 7.5 15.6243 7.22018 15.6243 6.875Z" fill="#8427E0"/>
</g>
</svg>
