<svg width="17" height="18" viewBox="0 0 17 18" fill="none" xmlns="http://www.w3.org/2000/svg">
<g clip-path="url(#clip0_976_49073)">
<path d="M9.91623 15.7344L9.73114 15.955L7.60354 13.2904C6.97459 13.7044 5.9561 13.571 5.18287 12.9222C4.40883 12.2727 4.10131 11.2921 4.41484 10.5829L1.45567 8.94727L1.64075 8.7267C2.69183 7.47407 3.79922 6.8651 5.22414 6.77362C7.94561 2.9683 11.4489 2.0479 13.8059 2.45559L13.9445 2.47891L13.9907 2.61062C14.8023 4.86171 14.4847 8.45521 11.2286 11.8133C11.4055 13.2489 10.998 14.4452 9.91623 15.7344ZM10.3028 8.4636C11.1522 8.42323 11.8226 7.69864 11.7829 6.84839C11.7425 5.99896 11.0195 5.32841 10.1692 5.3681C9.31977 5.40848 8.64867 6.13388 8.68905 6.98332C8.72875 7.83357 9.45333 8.50398 10.3028 8.4636ZM4.76008 14.641C4.31206 15.1749 3.02602 15.5092 3.02602 15.5092C3.02602 15.5092 3.17912 14.13 3.58071 13.6514C3.92082 13.2461 4.45599 13.1306 4.78807 13.4093C5.12015 13.6879 5.10019 14.2357 4.76008 14.641Z" fill="url(#paint0_linear_976_49073)"/>
</g>
<defs>
<linearGradient id="paint0_linear_976_49073" x1="1.47153" y1="12.1874" x2="11.756" y2="15.6845" gradientUnits="userSpaceOnUse">
<stop stop-color="#8032FF"/>
<stop offset="1" stop-color="#EF35FF"/>
</linearGradient>
<clipPath id="clip0_976_49073">
<rect width="17" height="17" fill="white" transform="translate(0 0.5)"/>
</clipPath>
</defs>
</svg>
