<svg width="13" height="14" viewBox="0 0 13 14" fill="none" xmlns="http://www.w3.org/2000/svg">
<g id="icon_close_outlined" opacity="0.8">
<path id="Union" d="M10.9708 11.4727C11.1824 11.2612 11.1839 10.9198 10.9724 10.7082L7.26476 7.00066L10.9723 3.29309C11.1839 3.08156 11.1823 2.74012 10.9708 2.52859C10.7593 2.31706 10.4178 2.31552 10.2063 2.52706C9.99476 2.73859 6.49873 6.23462 6.49873 6.23462L2.79113 2.52703C2.5796 2.31549 2.23817 2.31703 2.02663 2.52856C1.8151 2.74009 1.81357 3.08152 2.0251 3.29306L5.7327 7.00066L2.02507 10.7083C1.81354 10.9198 1.81507 11.2612 2.02661 11.4728C2.23814 11.6843 2.57957 11.6858 2.79111 11.4743L6.49873 7.76669L10.2063 11.4743C10.4179 11.6858 10.7593 11.6843 10.9708 11.4727Z" fill="#473E69"/>
</g>
</svg>
