<svg width="16" height="16" viewBox="0 0 16 16" fill="none" xmlns="http://www.w3.org/2000/svg">
<path d="M6.7619 8.61904C7.02775 8.97445 7.36693 9.26853 7.75643 9.48134C8.14593 9.69414 8.57664 9.82068 9.01935 9.85239C9.46206 9.8841 9.90641 9.82022 10.3223 9.6651C10.7381 9.50997 11.1157 9.26723 11.4295 8.95333L13.2867 7.09618C13.8505 6.51241 14.1625 5.73055 14.1554 4.91899C14.1484 4.10743 13.8228 3.3311 13.249 2.75722C12.6751 2.18334 11.8988 1.85782 11.0872 1.85076C10.2756 1.84371 9.49377 2.15569 8.91 2.71952L7.84524 3.77809" stroke="black" stroke-linecap="round" stroke-linejoin="round"/>
<path d="M9.23811 7.38095C8.97226 7.02554 8.63308 6.73146 8.24358 6.51866C7.85408 6.30585 7.42337 6.17931 6.98066 6.1476C6.53796 6.1159 6.09361 6.17977 5.67776 6.3349C5.26191 6.49002 4.88428 6.73277 4.5705 7.04667L2.71335 8.90381C2.14953 9.48758 1.83755 10.2694 1.8446 11.081C1.85165 11.8926 2.17717 12.6689 2.75106 13.2428C3.32494 13.8167 4.10126 14.1422 4.91282 14.1492C5.72439 14.1563 6.50625 13.8443 7.09002 13.2805L8.14859 12.2219" stroke="black" stroke-linecap="round" stroke-linejoin="round"/>
</svg>


