<svg width="16" height="16" viewBox="0 0 16 16" fill="none" xmlns="http://www.w3.org/2000/svg">
<g opacity="0.4">
<mask id="path-1-outside-1_517_47838" maskUnits="userSpaceOnUse" x="5.19922" y="2.20117" width="7" height="11" fill="black">
<rect fill="white" x="5.19922" y="2.20117" width="7" height="11"/>
<path d="M6.03945 3.37691C5.80803 3.61122 5.80803 3.99112 6.03945 4.22544L9.76857 8.00117L6.03945 11.7769C5.80803 12.0112 5.80803 12.3911 6.03945 12.6254C6.27087 12.8598 6.64608 12.8598 6.8775 12.6254L11.0257 8.42544C11.1368 8.31291 11.1992 8.1603 11.1992 8.00117C11.1992 7.84204 11.1368 7.68943 11.0257 7.57691L6.8775 3.37691C6.64608 3.14259 6.27087 3.14259 6.03945 3.37691Z"/>
</mask>
<path d="M6.03945 3.37691C5.80803 3.61122 5.80803 3.99112 6.03945 4.22544L9.76857 8.00117L6.03945 11.7769C5.80803 12.0112 5.80803 12.3911 6.03945 12.6254C6.27087 12.8598 6.64608 12.8598 6.8775 12.6254L11.0257 8.42544C11.1368 8.31291 11.1992 8.1603 11.1992 8.00117C11.1992 7.84204 11.1368 7.68943 11.0257 7.57691L6.8775 3.37691C6.64608 3.14259 6.27087 3.14259 6.03945 3.37691Z" fill="#171717"/>
<path d="M6.03945 4.22544L6.13432 4.13174L6.13432 4.13174L6.03945 4.22544ZM6.03945 3.37691L6.13432 3.4706L6.13432 3.4706L6.03945 3.37691ZM9.76857 8.00117L9.86344 8.09487C9.91473 8.04293 9.91473 7.95941 9.86344 7.90748L9.76857 8.00117ZM6.03945 11.7769L6.13432 11.8706L6.13432 11.8706L6.03945 11.7769ZM6.03945 12.6254L6.13432 12.5317L6.13432 12.5317L6.03945 12.6254ZM6.8775 12.6254L6.78264 12.5317L6.78264 12.5317L6.8775 12.6254ZM11.0257 8.42544L11.1205 8.51913L11.1205 8.51913L11.0257 8.42544ZM11.0257 7.57691L10.9308 7.6706L10.9308 7.6706L11.0257 7.57691ZM6.8775 3.37691L6.97237 3.28321L6.97237 3.28321L6.8775 3.37691ZM6.13432 4.13174C5.95419 3.94936 5.95419 3.65298 6.13432 3.4706L5.94459 3.28321C5.66187 3.56946 5.66187 4.03288 5.94459 4.31913L6.13432 4.13174ZM9.86344 7.90748L6.13432 4.13174L5.94459 4.31913L9.67371 8.09487L9.86344 7.90748ZM6.13432 11.8706L9.86344 8.09487L9.67371 7.90748L5.94459 11.6832L6.13432 11.8706ZM6.13432 12.5317C5.95419 12.3494 5.95419 12.053 6.13432 11.8706L5.94459 11.6832C5.66187 11.9695 5.66187 12.4329 5.94459 12.7191L6.13432 12.5317ZM6.78264 12.5317C6.60342 12.7132 6.31354 12.7132 6.13432 12.5317L5.94459 12.7191C6.22821 13.0063 6.68875 13.0063 6.97237 12.7191L6.78264 12.5317ZM10.9308 8.33174L6.78264 12.5317L6.97237 12.7191L11.1205 8.51913L10.9308 8.33174ZM11.0659 8.00117C11.0659 8.12547 11.0171 8.24435 10.9308 8.33174L11.1205 8.51913C11.2565 8.38148 11.3326 8.19513 11.3326 8.00117H11.0659ZM10.9308 7.6706C11.0171 7.75799 11.0659 7.87687 11.0659 8.00117H11.3326C11.3326 7.80721 11.2565 7.62086 11.1205 7.48321L10.9308 7.6706ZM6.78264 3.4706L10.9308 7.6706L11.1205 7.48321L6.97237 3.28321L6.78264 3.4706ZM6.13432 3.4706C6.31354 3.28914 6.60342 3.28914 6.78264 3.4706L6.97237 3.28321C6.68875 2.99605 6.22821 2.99605 5.94459 3.28321L6.13432 3.4706Z" fill="#171717" mask="url(#path-1-outside-1_517_47838)"/>
</g>
</svg>
