<svg width="16" height="17" viewBox="0 0 16 17" fill="none" xmlns="http://www.w3.org/2000/svg">
<path d="M15.3327 8.12533C15.3327 12.1754 12.0494 15.4587 7.99935 15.4587C3.94926 15.4587 0.666016 12.1754 0.666016 8.12533C0.666016 4.07524 3.94926 0.791992 7.99935 0.791992C12.0494 0.791992 15.3327 4.07524 15.3327 8.12533Z" fill="#FB006D"/>
<path d="M8.00065 4.79199C7.63246 4.79199 7.33398 5.09047 7.33398 5.45866V8.79199C7.33398 9.16018 7.63246 9.45866 8.00065 9.45866C8.36884 9.45866 8.66732 9.16018 8.66732 8.79199V5.45866C8.66732 5.09047 8.36884 4.79199 8.00065 4.79199Z" fill="white"/>
<path d="M8.00065 10.1253C7.63246 10.1253 7.33398 10.4238 7.33398 10.792C7.33398 11.1602 7.63246 11.4587 8.00065 11.4587C8.36884 11.4587 8.66732 11.1602 8.66732 10.792C8.66732 10.4238 8.36884 10.1253 8.00065 10.1253Z" fill="white"/>
</svg>
