<svg width="16" height="16" viewBox="0 0 16 16" fill="none" xmlns="http://www.w3.org/2000/svg">
    <g opacity="0.6">
    <path d="M4.73594 8.00005C4.73594 8.66279 4.19868 9.20005 3.53594 9.20005C2.8732 9.20005 2.33594 8.66279 2.33594 8.00005C2.33594 7.33731 2.8732 6.80005 3.53594 6.80005C4.19868 6.80005 4.73594 7.33731 4.73594 8.00005Z" fill="#171717"/>
    <path d="M9.20469 8.00005C9.20469 8.66279 8.66743 9.20005 8.00469 9.20005C7.34195 9.20005 6.80469 8.66279 6.80469 8.00005C6.80469 7.33731 7.34195 6.80005 8.00469 6.80005C8.66743 6.80005 9.20469 7.33731 9.20469 8.00005Z" fill="#171717"/>
    <path d="M13.6656 8.00005C13.6656 8.66279 13.1284 9.20005 12.4656 9.20005C11.8029 9.20005 11.2656 8.66279 11.2656 8.00005C11.2656 7.33731 11.8029 6.80005 12.4656 6.80005C13.1284 6.80005 13.6656 7.33731 13.6656 8.00005Z" fill="#171717"/>
    </g>
    </svg>
