<svg width="10" height="10" viewBox="0 0 10 10" fill="none" xmlns="http://www.w3.org/2000/svg">
<mask id="path-1-outside-1_598_58130" maskUnits="userSpaceOnUse" x="1.33203" y="3" width="8" height="5" fill="black">
<rect fill="white" x="1.33203" y="3" width="8" height="5"/>
<path d="M8.20999 7.62796C8.04727 7.79068 7.78346 7.79068 7.62074 7.62796L4.9987 5.00592L2.37666 7.62796C2.21394 7.79068 1.95012 7.79068 1.7874 7.62796C1.62468 7.46524 1.62468 7.20142 1.7874 7.03871L4.70407 4.12204C4.78221 4.0439 4.88819 4 4.9987 4C5.1092 4 5.21519 4.0439 5.29333 4.12204L8.20999 7.03871C8.37271 7.20142 8.37271 7.46524 8.20999 7.62796Z"/>
</mask>
<path d="M8.20999 7.62796C8.04727 7.79068 7.78346 7.79068 7.62074 7.62796L4.9987 5.00592L2.37666 7.62796C2.21394 7.79068 1.95012 7.79068 1.7874 7.62796C1.62468 7.46524 1.62468 7.20142 1.7874 7.03871L4.70407 4.12204C4.78221 4.0439 4.88819 4 4.9987 4C5.1092 4 5.21519 4.0439 5.29333 4.12204L8.20999 7.03871C8.37271 7.20142 8.37271 7.46524 8.20999 7.62796Z" fill="#171717"/>
<path d="M7.62074 7.62796L7.67966 7.56904L7.62074 7.62796ZM8.20999 7.62796L8.15107 7.56904H8.15107L8.20999 7.62796ZM4.9987 5.00592L4.93977 4.947C4.9554 4.93137 4.9766 4.92259 4.9987 4.92259C5.0208 4.92259 5.042 4.93137 5.05762 4.947L4.9987 5.00592ZM2.37666 7.62796L2.31773 7.56904L2.37666 7.62796ZM1.7874 7.62796L1.84633 7.56904L1.7874 7.62796ZM1.7874 7.03871L1.84633 7.09763L1.7874 7.03871ZM4.70407 4.12204L4.64514 4.06311V4.06311L4.70407 4.12204ZM5.29333 4.12204L5.2344 4.18096L5.2344 4.18096L5.29333 4.12204ZM8.20999 7.03871L8.26892 6.97978L8.20999 7.03871ZM7.67966 7.56904C7.80984 7.69921 8.02089 7.69921 8.15107 7.56904L8.26892 7.68689C8.07366 7.88215 7.75707 7.88215 7.56181 7.68689L7.67966 7.56904ZM5.05762 4.947L7.67966 7.56904L7.56181 7.68689L4.93977 5.06485L5.05762 4.947ZM2.31773 7.56904L4.93977 4.947L5.05762 5.06485L2.43558 7.68689L2.31773 7.56904ZM1.84633 7.56904C1.9765 7.69921 2.18756 7.69921 2.31773 7.56904L2.43558 7.68689C2.24032 7.88215 1.92374 7.88215 1.72848 7.68689L1.84633 7.56904ZM1.84633 7.09763C1.71615 7.22781 1.71615 7.43886 1.84633 7.56904L1.72848 7.68689C1.53322 7.49163 1.53322 7.17504 1.72848 6.97978L1.84633 7.09763ZM4.763 4.18096L1.84633 7.09763L1.72848 6.97978L4.64514 4.06311L4.763 4.18096ZM4.9987 4.08333C4.91029 4.08333 4.82551 4.11845 4.763 4.18096L4.64514 4.06311C4.73891 3.96935 4.86609 3.91667 4.9987 3.91667V4.08333ZM5.2344 4.18096C5.17189 4.11845 5.0871 4.08333 4.9987 4.08333V3.91667C5.13131 3.91667 5.25848 3.96935 5.35225 4.06311L5.2344 4.18096ZM8.15107 7.09763L5.2344 4.18096L5.35225 4.06311L8.26892 6.97978L8.15107 7.09763ZM8.15107 7.56904C8.28124 7.43886 8.28124 7.22781 8.15107 7.09763L8.26892 6.97978C8.46418 7.17504 8.46418 7.49163 8.26892 7.68689L8.15107 7.56904Z" fill="#171717" fill-opacity="0.8" mask="url(#path-1-outside-1_598_58130)"/>
</svg>
