<svg width="10" height="10" viewBox="0 0 10 10" fill="none" xmlns="http://www.w3.org/2000/svg">
<mask id="path-1-outside-1_628_27017" maskUnits="userSpaceOnUse" x="0.667969" y="4" width="8" height="5" fill="black">
<rect fill="white" x="0.667969" y="4" width="8" height="5"/>
<path d="M1.79001 4.37204C1.95273 4.20932 2.21654 4.20932 2.37926 4.37204L5.0013 6.99408L7.62334 4.37204C7.78606 4.20932 8.04988 4.20932 8.2126 4.37204C8.37532 4.53476 8.37532 4.79858 8.2126 4.96129L5.29593 7.87796C5.21779 7.9561 5.11181 8 5.0013 8C4.8908 8 4.78481 7.9561 4.70667 7.87796L1.79001 4.96129C1.62729 4.79858 1.62729 4.53476 1.79001 4.37204Z"/>
</mask>
<path d="M1.79001 4.37204C1.95273 4.20932 2.21654 4.20932 2.37926 4.37204L5.0013 6.99408L7.62334 4.37204C7.78606 4.20932 8.04988 4.20932 8.2126 4.37204C8.37532 4.53476 8.37532 4.79858 8.2126 4.96129L5.29593 7.87796C5.21779 7.9561 5.11181 8 5.0013 8C4.8908 8 4.78481 7.9561 4.70667 7.87796L1.79001 4.96129C1.62729 4.79858 1.62729 4.53476 1.79001 4.37204Z" fill="#171717"/>
<path d="M2.37926 4.37204L2.32034 4.43096L2.37926 4.37204ZM1.79001 4.37204L1.84893 4.43096H1.84893L1.79001 4.37204ZM5.0013 6.99408L5.06023 7.053C5.0446 7.06863 5.0234 7.07741 5.0013 7.07741C4.9792 7.07741 4.958 7.06863 4.94238 7.053L5.0013 6.99408ZM7.62334 4.37204L7.68227 4.43096L7.62334 4.37204ZM8.2126 4.37204L8.15367 4.43096L8.2126 4.37204ZM8.2126 4.96129L8.15367 4.90237L8.2126 4.96129ZM5.29593 7.87796L5.35486 7.93689V7.93689L5.29593 7.87796ZM4.70667 7.87796L4.7656 7.81904L4.7656 7.81904L4.70667 7.87796ZM1.79001 4.96129L1.73108 5.02022L1.79001 4.96129ZM2.32034 4.43096C2.19016 4.30079 1.97911 4.30079 1.84893 4.43096L1.73108 4.31311C1.92634 4.11785 2.24293 4.11785 2.43819 4.31311L2.32034 4.43096ZM4.94238 7.053L2.32034 4.43096L2.43819 4.31311L5.06023 6.93515L4.94238 7.053ZM7.68227 4.43096L5.06023 7.053L4.94238 6.93515L7.56442 4.31311L7.68227 4.43096ZM8.15367 4.43096C8.0235 4.30079 7.81244 4.30079 7.68227 4.43096L7.56442 4.31311C7.75968 4.11785 8.07626 4.11785 8.27152 4.31311L8.15367 4.43096ZM8.15367 4.90237C8.28385 4.77219 8.28385 4.56114 8.15367 4.43096L8.27152 4.31311C8.46678 4.50837 8.46678 4.82496 8.27152 5.02022L8.15367 4.90237ZM5.237 7.81904L8.15367 4.90237L8.27152 5.02022L5.35486 7.93689L5.237 7.81904ZM5.0013 7.91667C5.08971 7.91667 5.17449 7.88155 5.237 7.81904L5.35486 7.93689C5.26109 8.03065 5.13391 8.08333 5.0013 8.08333V7.91667ZM4.7656 7.81904C4.82811 7.88155 4.9129 7.91667 5.0013 7.91667V8.08333C4.86869 8.08333 4.74152 8.03065 4.64775 7.93689L4.7656 7.81904ZM1.84893 4.90237L4.7656 7.81904L4.64775 7.93689L1.73108 5.02022L1.84893 4.90237ZM1.84893 4.43096C1.71876 4.56114 1.71876 4.77219 1.84893 4.90237L1.73108 5.02022C1.53582 4.82496 1.53582 4.50837 1.73108 4.31311L1.84893 4.43096Z" fill="#171717" fill-opacity="0.8" mask="url(#path-1-outside-1_628_27017)"/>
</svg>
