<svg width="16" height="16" viewBox="0 0 16 16" fill="none" xmlns="http://www.w3.org/2000/svg">
<g opacity="0.6">
<path d="M4.23516 7.9999C4.23516 8.60742 3.74267 9.0999 3.13516 9.0999C2.52764 9.0999 2.03516 8.60742 2.03516 7.9999C2.03516 7.39239 2.52764 6.8999 3.13516 6.8999C3.74267 6.8999 4.23516 7.39239 4.23516 7.9999Z" fill="#171717"/>
<path d="M9.10234 7.9999C9.10234 8.60742 8.60986 9.0999 8.00234 9.0999C7.39483 9.0999 6.90234 8.60742 6.90234 7.9999C6.90234 7.39239 7.39483 6.8999 8.00234 6.8999C8.60986 6.8999 9.10234 7.39239 9.10234 7.9999Z" fill="#171717"/>
<path d="M13.9695 7.9999C13.9695 8.60742 13.477 9.0999 12.8695 9.0999C12.262 9.0999 11.7695 8.60742 11.7695 7.9999C11.7695 7.39239 12.262 6.8999 12.8695 6.8999C13.477 6.8999 13.9695 7.39239 13.9695 7.9999Z" fill="#171717"/>
</g>
</svg>
