<svg width="1200" height="280" viewBox="0 0 1200 280" fill="none" xmlns="http://www.w3.org/2000/svg">
<path d="M404.65 91.3566H429.81V100.614C435.936 94.1553 447.532 88.9885 460.441 88.9885C487.571 88.9885 505.292 109.655 505.292 138.503C505.292 167.997 484.726 191.032 453.002 191.032C444.25 191.032 435.718 189.525 430.029 186.295V231.935H404.868V91.3566H404.65ZM430.029 122.788V162.184C436.812 166.49 442.5 167.781 450.814 167.781C468.317 167.781 478.381 155.295 478.381 139.149C478.381 123.649 469.192 112.454 452.564 112.454C444.032 112.239 436.155 116.114 430.029 122.788Z" fill="black"/>
<path d="M342.296 89.4153C310.571 89.4153 290.005 112.235 290.005 141.944C290.005 170.791 307.508 191.458 334.857 191.458C347.546 191.458 359.142 186.292 365.487 179.833V189.09H390.648V107.499C371.832 93.5056 351.047 89.4153 342.296 89.4153ZM365.268 157.659C359.142 164.333 351.266 168.208 342.733 168.208C326.105 168.208 316.916 157.013 316.916 141.513C316.916 125.367 326.98 112.666 344.483 112.666C352.797 112.666 358.486 113.957 365.268 118.263V157.659V157.659Z" fill="black"/>
<path d="M516.012 91.3566H541.172V100.614C547.298 94.1553 558.894 88.9885 571.803 88.9885C598.932 88.9885 616.654 109.655 616.654 138.503C616.654 167.997 596.088 191.032 564.364 191.032C555.612 191.032 547.08 189.525 541.391 186.295V231.935H516.231V91.3566H516.012ZM541.391 122.788V162.184C548.174 166.49 553.862 167.781 562.176 167.781C579.679 167.781 589.743 155.295 589.743 139.149C589.743 123.649 580.554 112.454 563.926 112.454C555.394 112.239 547.517 116.114 541.391 122.788Z" fill="black"/>
<path d="M689.73 63.3687C686.011 60.7853 680.103 58.202 674.196 58.202C662.819 58.202 656.912 64.0146 656.912 77.362V91.1399H674.634V114.606H656.912V188.447H631.532V75.6397C631.532 48.7296 644.66 34.9517 666.757 34.9517C676.821 34.9517 686.011 37.3197 692.574 41.4101H714.891V151.634C714.891 162.613 717.735 167.349 723.423 167.349C727.58 167.349 730.862 165.627 733.925 163.474L739.176 182.419C733.488 186.94 724.955 190.6 713.14 190.6C698.044 190.6 689.73 181.558 689.73 161.752V63.3687Z" fill="black"/>
<path d="M793.218 88.9885C826.036 88.9885 847.04 110.732 847.04 140.01C847.04 169.073 826.036 191.032 793.218 191.032C760.4 191.032 739.396 169.288 739.396 140.01C739.396 110.732 760.619 88.9885 793.218 88.9885ZM793.218 167.781C808.752 167.781 820.129 156.802 820.129 140.01C820.129 123.649 808.533 112.454 793.218 112.454C778.341 112.454 766.526 123.218 766.526 140.01C766.526 156.156 777.903 167.781 793.218 167.781Z" fill="black"/>
<path d="M971.969 189.095H949.434L928.43 135.06C926.899 131.4 926.243 127.31 925.149 123.65C924.273 127.956 923.179 131.615 921.648 135.49L900.644 189.095H879.203L847.041 91.3579H873.952L889.705 144.317C891.236 149.053 891.674 152.713 892.549 157.234C893.643 153.143 894.299 149.699 896.268 144.317L914.647 91.3579H936.963L955.998 144.102C957.529 148.407 958.623 152.928 959.717 157.449C960.592 152.928 961.686 148.192 962.78 143.456L977.22 91.3579H1002.6L971.969 189.095Z" fill="black"/>
<path d="M1056.2 188.663C1041.76 223.538 1032.57 231.934 1017.91 231.934C1008.94 231.934 1002.38 228.49 996.692 224.399L1004.79 205.67C1007.41 207.177 1011.13 209.115 1015.07 209.115C1021.42 209.115 1026.01 204.163 1030.17 194.045L1032.35 188.878L986.628 91.5713H1017.04L1040.01 144.746C1041.98 149.482 1043.29 154.003 1044.83 158.739C1045.7 154.218 1046.58 149.482 1048.33 144.53L1066.05 91.5713H1094.71L1056.2 188.663Z" fill="black"/>
<path d="M221.525 156.155C215.836 186.51 190.894 212.989 162.233 227.844C158.732 229.781 154.575 230.858 150.637 231.073H211.46C217.368 231.073 221.525 226.767 221.525 221.385V156.155Z" fill="#F7931E"/>
<path d="M99.8777 97.601C99.0026 98.2469 98.1274 98.8927 97.2523 99.5386C82.3747 109.872 37.3043 143.025 27.0212 128.601C16.9569 114.608 27.6776 74.9966 53.4946 55.8366C53.9322 55.406 54.5885 55.1907 55.0261 54.7602C83.2498 35.1696 104.254 37.9683 114.537 52.1768C124.163 65.5242 113.443 86.6217 99.8777 97.601Z" fill="#8427E0"/>
<path d="M210.146 128.393C196.144 138.081 174.265 126.886 163.326 112.893C162.888 112.247 162.45 111.817 162.013 111.171C151.511 96.5318 117.818 52.1839 132.258 42.281C146.698 32.1628 188.486 43.1421 207.521 69.8369C207.958 70.4828 208.396 70.9133 208.834 71.5592C227.212 98.4693 224.368 118.49 210.146 128.393Z" fill="#00B5FF"/>
<path d="M191.331 215.789C190.893 216.22 190.456 216.435 189.799 216.866C161.576 236.456 140.572 233.658 130.289 219.449C120.662 206.102 131.383 185.004 144.948 174.025C145.823 173.379 146.698 172.733 147.573 172.087C162.451 161.969 207.521 128.601 217.586 143.024C227.869 157.018 217.367 196.629 191.331 215.789Z" fill="#FFBD00"/>
<path d="M112.568 229.351C98.1278 239.469 56.558 228.49 37.5234 201.795C37.0858 201.364 36.6483 200.719 36.4295 200.288C17.8324 173.378 20.8955 153.141 35.1167 143.454C49.1192 133.766 70.998 144.961 81.9375 158.954C82.375 159.6 82.8126 160.03 83.2502 160.676C93.5332 175.1 127.227 219.448 112.568 229.351Z" fill="#E3006D"/>
<path d="M99.8779 97.601C79.7493 106.428 36.8668 124.511 30.5219 109.872C25.0522 97.601 35.1165 72.6285 53.4947 55.8366C53.9323 55.406 54.5886 55.1907 55.0262 54.7602C83.2499 35.1696 104.254 37.9683 114.537 52.1768C124.163 65.5242 113.443 86.6217 99.8779 97.601Z" fill="#9327FF"/>
<path d="M210.147 128.384C196.145 138.072 174.266 126.878 163.327 112.884C154.356 92.4326 137.072 52.1751 151.512 46.1472C164.639 40.5499 191.769 51.7445 209.054 71.5504C227.213 98.4604 224.369 118.482 210.147 128.384Z" fill="#00C8FF"/>
<path d="M191.331 215.786C190.893 216.217 190.456 216.432 189.799 216.863C161.576 236.453 140.572 233.655 130.289 219.446C120.662 206.099 131.383 185.001 144.948 174.022C165.076 165.195 207.959 147.112 214.304 161.751C219.992 174.022 209.928 198.994 191.331 215.786Z" fill="#FFCE00"/>
<path d="M93.752 225.476C80.6247 231.073 53.495 220.094 36.4295 200.288C17.8324 173.378 20.8955 153.141 35.1167 143.454C49.1192 133.766 70.998 144.961 81.9375 158.954C90.9078 179.19 108.192 219.448 93.752 225.476Z" fill="#FB006D"/>
</svg>
