<svg width="16" height="16" viewBox="0 0 16 16" fill="none" xmlns="http://www.w3.org/2000/svg">
<path id="Vector" d="M1 8.35008L2.22608 7.27725C2.86398 6.71915 3.8254 6.75114 4.42472 7.35046L7.42756 10.3533C7.90856 10.8344 8.66586 10.9 9.2225 10.5087L9.43123 10.3621C10.2322 9.79916 11.3159 9.86436 12.0436 10.5193L14.3 12.5501M1 8C1 4.70012 1 3.05025 2.02509 2.02509C3.05025 1 4.70012 1 8 1C11.2998 1 12.9498 1 13.9748 2.02509C15 3.05025 15 4.70012 15 8C15 11.2998 15 12.9498 13.9748 13.9748C12.9498 15 11.2998 15 8 15C4.70012 15 3.05025 15 2.02509 13.9748C1 12.9498 1 11.2998 1 8ZM9.40235 5.20059C9.40004 6.27828 10.5653 6.95438 11.4998 6.41752C11.9353 6.16726 12.2034 5.70289 12.2023 5.20059C12.2047 4.12283 11.0394 3.44679 10.1049 3.98366C9.66937 4.23385 9.40126 4.69828 9.40235 5.20059Z" stroke="#21232A" stroke-linecap="round"/>
</svg>
