<svg width="28" height="28" viewBox="0 0 28 28" fill="none" xmlns="http://www.w3.org/2000/svg">
    <rect width="28" height="28" rx="8" fill="#none"/>
    <path d="M17.5363 21.0612H10.4749C10.1854 21.0612 9.94531 20.8211 9.94531 20.5316C9.94531 20.242 10.1854 20.002 10.4749 20.002H17.5363C17.8258 20.002 18.0659 20.242 18.0659 20.5316C18.0659 20.8211 17.8258 21.0612 17.5363 21.0612Z"
          fill="var(--content-on-fill)"/>
    <path d="M19.8978 9.42458L17.0733 11.4441C16.699 11.7125 16.1624 11.5501 15.9999 11.1193L14.6653 7.56037C14.4394 6.94602 13.5708 6.94602 13.3449 7.56037L12.0032 11.1123C11.8408 11.5501 11.3112 11.7125 10.9369 11.4371L8.11236 9.41752C7.54745 9.02208 6.79894 9.57993 7.03196 10.2366L9.96951 18.4632C10.0684 18.7456 10.3367 18.9292 10.6333 18.9292H17.3628C17.6594 18.9292 17.9277 18.7386 18.0266 18.4632L20.9641 10.2366C21.2042 9.57993 20.4557 9.02208 19.8978 9.42458ZM15.7669 15.9423H12.2362C11.9467 15.9423 11.7066 15.7022 11.7066 15.4126C11.7066 15.1231 11.9467 14.883 12.2362 14.883H15.7669C16.0564 14.883 16.2965 15.1231 16.2965 15.4126C16.2965 15.7022 16.0564 15.9423 15.7669 15.9423Z"
          fill="var(--content-on-fill)"/>
</svg>
