<svg width="28" height="28" viewBox="0 0 28 28" fill="none" xmlns="http://www.w3.org/2000/svg">
<rect width="28" height="28" rx="8" fill="#none"/>
<path d="M15.811 18.6651C16.0762 18.5617 16.3826 18.7877 16.3257 19.0667C15.9991 20.3333 15.2657 20.6667 14.3657 20.6667H13.6391C12.7391 20.6667 11.9991 20.3333 11.6791 19.06C11.6242 18.7806 11.9291 18.5565 12.1942 18.6603C12.7639 18.8835 13.3729 19 13.9991 19C14.6282 19 15.2403 18.8876 15.811 18.6651Z" fill="white"/>
<path d="M16.3285 8.93301C16.3874 9.21481 16.0768 9.44428 15.8089 9.33882C15.2504 9.11895 14.641 8.99967 14.0018 8.99967C13.3634 8.99967 12.7552 9.12043 12.1963 9.34052C11.931 9.44496 11.6249 9.21901 11.6818 8.93967C12.0018 7.66634 12.7418 7.33301 13.6418 7.33301H14.3685C15.2685 7.33301 16.0018 7.66634 16.3285 8.93301Z" fill="white"/>
<path d="M14.0013 9.66699C11.608 9.66699 9.66797 11.607 9.66797 14.0003C9.66797 15.4003 10.328 16.6403 11.3546 17.4337H11.3613C12.0946 18.0003 13.008 18.3337 14.0013 18.3337C15.008 18.3337 15.928 17.9937 16.6613 17.4203H16.668C17.6813 16.627 18.3346 15.387 18.3346 14.0003C18.3346 11.607 16.3946 9.66699 14.0013 9.66699ZM15.288 15.587C15.188 15.687 15.0613 15.7337 14.9346 15.7337C14.808 15.7337 14.6813 15.687 14.5813 15.587L13.648 14.6537C13.5546 14.5603 13.5013 14.4337 13.5013 14.3003V12.4403C13.5013 12.167 13.728 11.9403 14.0013 11.9403C14.2746 11.9403 14.5013 12.167 14.5013 12.4403V14.0937L15.288 14.8803C15.4813 15.0737 15.4813 15.3937 15.288 15.587Z" fill="white"/>
</svg>
