<svg width="28" height="28" viewBox="0 0 28 28" fill="none" xmlns="http://www.w3.org/2000/svg">
    <rect width="28" height="28" rx="8" fill="#none"/>
    <path d="M14.3312 9.65319C14.3845 9.65319 14.4379 9.65319 14.4979 9.65986V7.68652C14.4979 7.41319 14.2712 7.18652 13.9979 7.18652C13.7245 7.18652 13.4979 7.41319 13.4979 7.68652V9.65986C13.5512 9.65319 13.6045 9.65319 13.6645 9.65319C10.5912 9.80652 8.14453 12.3399 8.14453 15.4532V16.7465C8.14453 17.4799 8.74453 18.0799 9.47786 18.0799H18.5179C19.2512 18.0799 19.8512 17.4799 19.8512 16.7465V15.4532C19.8512 12.3399 17.4045 9.80652 14.3312 9.65319Z"
          fill="var(--content-on-fill)"/>
    <path d="M15.8207 18.7402C16.0407 18.7402 16.2007 18.9469 16.1474 19.1602C15.8941 20.1136 15.0274 20.8136 14.0007 20.8136C12.9741 20.8136 12.1074 20.1136 11.8541 19.1602C11.8007 18.9469 11.9607 18.7402 12.1807 18.7402H15.8207Z"
          fill="var(--content-on-fill)"/>
</svg>
