<svg width="28" height="28" viewBox="0 0 28 28" fill="none" xmlns="http://www.w3.org/2000/svg">
<rect width="28" height="28" rx="8" fill="#none"/>
<path d="M17.0987 9.81348H10.8987C8.93203 9.81348 7.33203 11.4135 7.33203 13.3801V17.1001C7.33203 19.0668 8.93203 20.6668 10.8987 20.6668H17.0987C19.0654 20.6668 20.6654 19.0668 20.6654 17.1001V13.3801C20.6654 11.4135 19.0654 9.81348 17.0987 9.81348ZM15.6654 14.0135C15.6654 13.6468 15.9654 13.3468 16.332 13.3468C16.6987 13.3468 16.9987 13.6468 16.9987 14.0135C16.9987 14.3801 16.6987 14.6868 16.332 14.6868C15.9654 14.6868 15.6654 14.3935 15.6654 14.0268V14.0135ZM12.752 16.7135C12.652 16.8135 12.5254 16.8601 12.3987 16.8601C12.272 16.8601 12.1454 16.8135 12.0454 16.7135L11.3587 16.0268L10.6987 16.6868C10.5987 16.7868 10.472 16.8335 10.3454 16.8335C10.2187 16.8335 10.092 16.7868 9.99203 16.6868C9.7987 16.4935 9.7987 16.1735 9.99203 15.9801L10.652 15.3201L10.012 14.6801C9.8187 14.4868 9.8187 14.1668 10.012 13.9735C10.2054 13.7801 10.5254 13.7801 10.7187 13.9735L11.3587 14.6135L12.0187 13.9535C12.212 13.7601 12.532 13.7601 12.7254 13.9535C12.9187 14.1468 12.9187 14.4668 12.7254 14.6601L12.0654 15.3201L12.752 16.0068C12.9454 16.2001 12.9454 16.5201 12.752 16.7135ZM15.0254 16.0001C14.6587 16.0001 14.352 15.7001 14.352 15.3335C14.352 14.9668 14.6454 14.6668 15.012 14.6668H15.0254C15.392 14.6668 15.692 14.9668 15.692 15.3335C15.692 15.7001 15.3987 16.0001 15.0254 16.0001ZM16.332 17.3135C15.9654 17.3135 15.6654 17.0201 15.6654 16.6535V16.6401C15.6654 16.2735 15.9654 15.9735 16.332 15.9735C16.6987 15.9735 16.9987 16.2735 16.9987 16.6401C16.9987 17.0068 16.7054 17.3135 16.332 17.3135ZM17.652 16.0001C17.2854 16.0001 16.9787 15.7001 16.9787 15.3335C16.9787 14.9668 17.272 14.6668 17.6387 14.6668H17.652C18.0187 14.6668 18.3187 14.9668 18.3187 15.3335C18.3187 15.7001 18.0254 16.0001 17.652 16.0001Z" fill="white"/>
<path d="M15.0929 7.80634L15.0863 8.43301C15.0796 9.01967 14.5929 9.50634 13.9996 9.50634C13.8996 9.50634 13.8396 9.57301 13.8396 9.65967C13.8396 9.74634 13.9063 9.81301 13.9929 9.81301H12.9196C12.9129 9.76634 12.9062 9.71301 12.9062 9.65967C12.9062 9.05967 13.3929 8.57301 13.9862 8.57301C14.0862 8.57301 14.1529 8.50634 14.1529 8.41967L14.1596 7.79301C14.1663 7.53967 14.3729 7.33301 14.6263 7.33301H14.6329C14.8929 7.33301 15.0929 7.54634 15.0929 7.80634Z" fill="white"/>
</svg>
