<svg width="28" height="28" viewBox="0 0 28 28" fill="none" xmlns="http://www.w3.org/2000/svg">
<rect width="28" height="28" rx="8" fill="#none"/>
<path d="M17.8091 7.33301H17.1758C16.9158 7.33301 16.7024 7.54634 16.7024 7.80634C16.7024 8.07301 16.9158 8.28634 17.1758 8.28634H17.8091C18.9491 8.28634 19.8758 9.21301 19.8758 10.3463V14.2663C19.6358 14.1397 19.3691 14.073 19.0824 14.073H16.5424C15.5824 14.073 14.7958 14.853 14.7958 15.8197V16.8597H13.2091V15.8197C13.2091 14.853 12.4224 14.073 11.4624 14.073H8.92245C8.63578 14.073 8.36911 14.1397 8.12911 14.2663V10.3463C8.12911 9.21301 9.05578 8.28634 10.1958 8.28634H10.8291C11.0891 8.28634 11.3024 8.07301 11.3024 7.80634C11.3024 7.54634 11.0891 7.33301 10.8291 7.33301H10.1958C8.52911 7.33301 7.17578 8.68634 7.17578 10.3463V15.8197V18.9197C7.17578 19.8863 7.96245 20.6663 8.92245 20.6663H11.4624C12.4224 20.6663 13.2091 19.8863 13.2091 18.9197V17.8063H14.7958V18.9197C14.7958 19.8863 15.5824 20.6663 16.5424 20.6663H19.0824C20.0424 20.6663 20.8291 19.8863 20.8291 18.9197V15.8197V10.3463C20.8291 8.68634 19.4758 7.33301 17.8091 7.33301Z" fill="white"/>
</svg>
