<svg width="28" height="28" viewBox="0 0 28 28" fill="none" xmlns="http://www.w3.org/2000/svg">
    <rect width="28" height="28" rx="8" fill="#none"/>
    <path d="M20.1668 18.3137L19.0668 18.5737C18.8202 18.6337 18.6268 18.8204 18.5735 19.0671L18.3402 20.0471C18.2135 20.5804 17.5335 20.7471 17.1802 20.3271L15.1868 18.0337C15.0268 17.8471 15.1135 17.5537 15.3535 17.4937C16.5335 17.2071 17.5935 16.5471 18.3735 15.6071C18.5002 15.4537 18.7268 15.4337 18.8668 15.5737L20.3468 17.0537C20.8535 17.5604 20.6735 18.1937 20.1668 18.3137Z"
          fill="var(--content-on-fill)"/>
    <path d="M7.79816 18.3137L8.89816 18.5737C9.14482 18.6337 9.33816 18.8204 9.39149 19.0671L9.62482 20.0471C9.75149 20.5804 10.4315 20.7471 10.7848 20.3271L12.7782 18.0337C12.9382 17.8471 12.8515 17.5537 12.6115 17.4937C11.4315 17.2071 10.3715 16.5471 9.59149 15.6071C9.46482 15.4537 9.23816 15.4337 9.09816 15.5737L7.61816 17.0537C7.11149 17.5604 7.29149 18.1937 7.79816 18.3137Z"
          fill="var(--content-on-fill)"/>
    <path d="M13.9987 7.33301C11.4187 7.33301 9.33203 9.41967 9.33203 11.9997C9.33203 12.9663 9.6187 13.853 10.112 14.593C10.832 15.6597 11.972 16.413 13.2987 16.6063C13.5254 16.6463 13.7587 16.6663 13.9987 16.6663C14.2387 16.6663 14.472 16.6463 14.6987 16.6063C16.0254 16.413 17.1654 15.6597 17.8854 14.593C18.3787 13.853 18.6654 12.9663 18.6654 11.9997C18.6654 9.41967 16.5787 7.33301 13.9987 7.33301ZM16.0387 11.853L15.4854 12.4063C15.392 12.4997 15.3387 12.6797 15.372 12.813L15.532 13.4997C15.6587 14.0397 15.372 14.253 14.892 13.9663L14.2254 13.573C14.1054 13.4997 13.9054 13.4997 13.7854 13.573L13.1187 13.9663C12.6387 14.2463 12.352 14.0397 12.4787 13.4997L12.6387 12.813C12.6654 12.6863 12.6187 12.4997 12.5254 12.4063L11.9587 11.853C11.632 11.5263 11.7387 11.1997 12.192 11.1263L12.9054 11.0063C13.0254 10.9863 13.1654 10.8797 13.2187 10.773L13.612 9.98634C13.8254 9.55967 14.172 9.55967 14.3854 9.98634L14.7787 10.773C14.832 10.8797 14.972 10.9863 15.0987 11.0063L15.812 11.1263C16.2587 11.1997 16.3654 11.5263 16.0387 11.853Z"
          fill="var(--content-on-fill)"/>
</svg>
