<svg width="28" height="28" viewBox="0 0 28 28" fill="none" xmlns="http://www.w3.org/2000/svg">
<rect width="28" height="28" rx="8" fill="#none"/>
<path d="M19.3644 13.087L16.2511 11.747L15.5578 11.4537C15.4511 11.4004 15.3578 11.2604 15.3578 11.1404V9.10036C15.3578 8.46036 14.8844 7.70036 14.3111 7.40703C14.1111 7.30703 13.8711 7.30703 13.6711 7.40703C13.1044 7.70036 12.6311 8.46703 12.6311 9.10703V11.147C12.6311 11.267 12.5378 11.407 12.4311 11.4604L8.63109 13.0937C8.21109 13.267 7.87109 13.7937 7.87109 14.247V15.127C7.87109 15.6937 8.29776 15.9737 8.82443 15.747L12.1644 14.307C12.4244 14.1937 12.6378 14.3337 12.6378 14.6204V15.3604V16.5604C12.6378 16.7137 12.5511 16.9337 12.4444 17.0404L10.8978 18.5937C10.7378 18.7537 10.6644 19.067 10.7378 19.2937L11.0378 20.2004C11.1578 20.5937 11.6044 20.7804 11.9711 20.5937L13.5578 19.2604C13.7978 19.0537 14.1911 19.0537 14.4311 19.2604L16.0178 20.5937C16.3844 20.7737 16.8311 20.5937 16.9644 20.2004L17.2644 19.2937C17.3378 19.0737 17.2644 18.7537 17.1044 18.5937L15.5578 17.0404C15.4444 16.9337 15.3578 16.7137 15.3578 16.5604V14.6204C15.3578 14.3337 15.5644 14.2004 15.8311 14.307L19.1711 15.747C19.6978 15.9737 20.1244 15.6937 20.1244 15.127V14.247C20.1244 13.7937 19.7844 13.267 19.3644 13.087Z" fill="white"/>
</svg>
