<svg width="28" height="28" viewBox="0 0 28 28" fill="none" xmlns="http://www.w3.org/2000/svg">
<path d="M18.5352 12.6064C17.7818 12.6064 17.1085 12.9731 16.6885 13.5331C16.2685 12.9731 15.5952 12.6064 14.8418 12.6064C13.5685 12.6064 12.5352 13.6464 12.5352 14.9264C12.5352 15.4198 12.6152 15.8798 12.7485 16.2998C13.4018 18.3731 15.4285 19.6198 16.4285 19.9598C16.5685 20.0064 16.8018 20.0064 16.9418 19.9598C17.9418 19.6198 19.9685 18.3798 20.6218 16.2998C20.7618 15.8731 20.8352 15.4198 20.8352 14.9264C20.8418 13.6464 19.8085 12.6064 18.5352 12.6064Z" fill="white"/>
<path d="M19.832 11.5597C19.832 11.7131 19.6787 11.8131 19.532 11.7731C18.632 11.5397 17.6454 11.7331 16.8987 12.2664C16.752 12.3731 16.552 12.3731 16.412 12.2664C15.8854 11.8797 15.2454 11.6664 14.572 11.6664C12.852 11.6664 11.452 13.0731 11.452 14.8064C11.452 16.6864 12.352 18.0931 13.2587 19.0331C13.3054 19.0797 13.2654 19.1597 13.2054 19.1331C11.3854 18.5131 7.33203 15.9397 7.33203 11.5597C7.33203 9.62641 8.88536 8.06641 10.8054 8.06641C11.9454 8.06641 12.952 8.61307 13.5854 9.45974C14.2254 8.61307 15.232 8.06641 16.3654 8.06641C18.2787 8.06641 19.832 9.62641 19.832 11.5597Z" fill="white"/>
</svg>
