<svg width="28" height="28" viewBox="0 0 28 28" fill="none" xmlns="http://www.w3.org/2000/svg">
    <rect width="28" height="28" rx="8" fill="#none"/>
    <path d="M16.762 7.97336L10.742 9.97336C6.69536 11.3267 6.69536 13.5334 10.742 14.88L12.5287 15.4734L13.122 17.26C14.4687 21.3067 16.682 21.3067 18.0287 17.26L20.0354 11.2467C20.9287 8.5467 19.462 7.07336 16.762 7.97336ZM16.9754 11.56L14.442 14.1067C14.342 14.2067 14.2154 14.2534 14.0887 14.2534C13.962 14.2534 13.8354 14.2067 13.7354 14.1067C13.542 13.9134 13.542 13.5934 13.7354 13.4L16.2687 10.8534C16.462 10.66 16.782 10.66 16.9754 10.8534C17.1687 11.0467 17.1687 11.3667 16.9754 11.56Z"
          fill="var(--content-on-fill)"/>
</svg>
