<svg width="28" height="28" viewBox="0 0 28 28" fill="none" xmlns="http://www.w3.org/2000/svg">
    <rect width="28" height="28" rx="8" fill="#none"/>
    <path d="M16.7783 12.7069H11.2183C10.4316 12.7069 10.1583 12.1802 10.6183 11.5402L13.3983 7.64687C13.7249 7.18021 14.2716 7.18021 14.5983 7.64687L17.3783 11.5402C17.8383 12.1802 17.5649 12.7069 16.7783 12.7069Z"
          fill="var(--content-on-fill)"/>
    <path d="M17.7264 18.0004H10.2731C9.21973 18.0004 8.85973 17.3004 9.47973 16.447L12.1397 12.707H15.8597L18.5197 16.447C19.1397 17.3004 18.7797 18.0004 17.7264 18.0004Z"
          fill="var(--content-on-fill)"/>
    <path d="M14.5 18V20.6667C14.5 20.94 14.2733 21.1667 14 21.1667C13.7267 21.1667 13.5 20.94 13.5 20.6667V18H14.5Z"
          fill="var(--content-on-fill)"/>
</svg>
