<svg xmlns="http://www.w3.org/2000/svg" version="1.1" width="127px" height="96px" style="shape-rendering:geometricPrecision; text-rendering:geometricPrecision; image-rendering:optimizeQuality; fill-rule:evenodd; clip-rule:evenodd" xmlns:xlink="http://www.w3.org/1999/xlink">
<g><path style="opacity:0.982" fill="#5864f2" d="M 40.5,-0.5 C 42.5,-0.5 44.5,-0.5 46.5,-0.5C 46.7534,3.03777 48.5868,5.03777 52,5.5C 59.3333,4.16667 66.6667,4.16667 74,5.5C 77.4132,5.03777 79.2466,3.03777 79.5,-0.5C 81.8333,-0.5 84.1667,-0.5 86.5,-0.5C 93.6784,1.84095 100.845,4.50762 108,7.5C 117.556,21.9281 123.723,37.5947 126.5,54.5C 126.5,63.1667 126.5,71.8333 126.5,80.5C 117.234,86.2996 107.567,91.2996 97.5,95.5C 95.8333,95.5 94.1667,95.5 92.5,95.5C 90.2583,92.0205 88.2583,88.3538 86.5,84.5C 89.9621,82.9349 93.2954,81.1016 96.5,79C 95.8333,78.8333 95.1667,78.6667 94.5,78.5C 80.6757,84.0674 66.3424,85.9007 51.5,84C 44.0284,82.4993 36.6951,80.8327 29.5,79C 32.7046,81.1016 36.0379,82.9349 39.5,84.5C 37.7417,88.3538 35.7417,92.0205 33.5,95.5C 31.8333,95.5 30.1667,95.5 28.5,95.5C 18.4329,91.2996 8.76625,86.2996 -0.5,80.5C -0.5,71.8333 -0.5,63.1667 -0.5,54.5C 2.27734,37.5947 8.44401,21.9281 18,7.5C 25.419,4.30685 32.919,1.64019 40.5,-0.5 Z M 38.5,40.5 C 51.8373,41.4956 55.6706,48.1623 50,60.5C 42.3899,66.5776 36.3899,65.2442 32,56.5C 30.062,49.3891 32.2287,44.0558 38.5,40.5 Z M 80.5,40.5 C 93.8373,41.4956 97.6706,48.1623 92,60.5C 84.3899,66.5776 78.3899,65.2442 74,56.5C 72.062,49.3891 74.2287,44.0558 80.5,40.5 Z"/></g>
</svg>
