<svg width="32" height="32" viewBox="0 0 32 32" fill="none" xmlns="http://www.w3.org/2000/svg">
<path fill-rule="evenodd" clip-rule="evenodd" d="M21.7874 10.1975C22.48 10.8859 23.0235 11.6885 23.4041 12.5811C23.7967 13.5077 24 14.4863 24 15.499C24 16.5117 23.7987 17.4943 23.4061 18.4189C23.0256 19.3115 22.482 20.1141 21.7894 20.8025C21.0968 21.491 20.2895 22.0314 19.3915 22.4096C18.4614 22.8019 17.4729 23 16.4541 23C15.4354 23 14.4469 22.7999 13.5167 22.4096C12.6188 22.0314 11.8114 21.491 11.1189 20.8025C10.8833 20.5684 10.8833 20.1881 11.1189 19.954C11.3544 19.7198 11.7369 19.7198 11.9725 19.954C13.1684 21.1448 14.7589 21.7992 16.4521 21.7992C18.1453 21.7992 19.7338 21.1428 20.9317 19.954C22.1296 18.7652 22.792 17.1801 22.792 15.499C22.792 13.8179 22.1316 12.2368 20.9357 11.046C19.7398 9.85524 18.1493 9.2008 16.4561 9.2008C15.6971 9.2008 14.9562 9.33089 14.2516 9.59106C13.5711 9.84323 12.9429 10.2055 12.3852 10.6718C11.6041 11.3242 10.996 12.1508 10.6075 13.0734L11.2618 12.7231C11.5557 12.565 11.9222 12.6751 12.0792 12.9673C12.2383 13.2595 12.1275 13.6237 11.8336 13.7799L9.92094 14.8005C9.92094 14.8025 9.91892 14.8025 9.91892 14.8025C9.82832 14.8506 9.72967 14.8746 9.63303 14.8746C9.44378 14.8746 9.26258 14.7885 9.14581 14.6304C9.14455 14.6267 9.14249 14.6237 9.14064 14.621C9.13954 14.6194 9.13851 14.6179 9.13776 14.6164C9.13575 14.6124 9.13323 14.6089 9.13071 14.6054C9.1282 14.6019 9.12568 14.5984 9.12367 14.5944C9.11561 14.5824 9.10756 14.5704 9.10152 14.5584L8.07272 12.6551C7.91367 12.3629 8.0244 11.9987 8.31834 11.8426C8.61228 11.6845 8.97871 11.7945 9.13575 12.0867L9.45989 12.6871C9.91892 11.5584 10.6558 10.5457 11.6061 9.75317C12.2705 9.1988 13.0174 8.76451 13.8288 8.46631C14.6663 8.1561 15.5501 8 16.4521 8C17.4708 8 18.4594 8.20013 19.3895 8.59039C20.2875 8.96865 21.0948 9.50901 21.7874 10.1975ZM15.52 12.1206C15.52 11.7884 15.7898 11.5202 16.124 11.5202C16.4582 11.5202 16.728 11.7884 16.728 12.1206V15.2747H19.8244C20.1587 15.2747 20.4284 15.5429 20.4284 15.8751C20.4284 16.2073 20.1587 16.4755 19.8244 16.4755H16.1481C15.8441 16.4755 15.5925 16.2514 15.5502 15.9612C15.5301 15.9031 15.52 15.8411 15.52 15.7751V12.1206Z" fill="#333333" fill-opacity="0.7"/>
<path d="M23.4041 12.5811L23.4435 12.5643L23.4435 12.5642L23.4041 12.5811ZM21.7874 10.1975L21.7572 10.2279L21.7874 10.1975ZM23.4061 18.4189L23.4455 18.4358L23.4455 18.4357L23.4061 18.4189ZM19.3915 22.4096L19.3749 22.3701L19.3749 22.3701L19.3915 22.4096ZM13.5167 22.4096L13.5001 22.4491L13.5001 22.4491L13.5167 22.4096ZM11.1189 20.8025L11.1491 20.7721L11.1189 20.8025ZM11.1189 19.954L11.1491 19.9844L11.1189 19.954ZM11.9725 19.954L12.0027 19.9236L12.0027 19.9236L11.9725 19.954ZM20.9317 19.954L20.9619 19.9844L20.9317 19.954ZM20.9357 11.046L20.9055 11.0764L20.9357 11.046ZM14.2516 9.59106L14.2367 9.55086L14.2367 9.55087L14.2516 9.59106ZM12.3852 10.6718L12.4127 10.7047L12.4127 10.7047L12.3852 10.6718ZM10.6075 13.0734L10.568 13.0567L10.521 13.1683L10.6277 13.1112L10.6075 13.0734ZM11.2618 12.7231L11.282 12.7609L11.2821 12.7609L11.2618 12.7231ZM12.0792 12.9673L12.0415 12.9876L12.0416 12.9878L12.0792 12.9673ZM11.8336 13.7799L11.8135 13.742L11.8134 13.742L11.8336 13.7799ZM9.92094 14.8005L9.90076 14.7627L9.87808 14.7748V14.8005H9.92094ZM9.91892 14.8025L9.9189 14.7597L9.90825 14.7597L9.89885 14.7647L9.91892 14.8025ZM9.14581 14.6304L9.10311 14.6447L9.11134 14.6559L9.14581 14.6304ZM9.14064 14.621L9.10537 14.6453L9.10537 14.6453L9.14064 14.621ZM9.13776 14.6164L9.17605 14.5972L9.17604 14.5972L9.13776 14.6164ZM9.13071 14.6054L9.09591 14.6304L9.09591 14.6304L9.13071 14.6054ZM9.12367 14.5944L9.16225 14.575L9.15926 14.5705L9.12367 14.5944ZM9.10152 14.5584L9.13982 14.5391L9.13922 14.538L9.10152 14.5584ZM8.07272 12.6551L8.11042 12.6347L8.11036 12.6346L8.07272 12.6551ZM8.31834 11.8426L8.33844 11.8804L8.33864 11.8803L8.31834 11.8426ZM9.13575 12.0867L9.09799 12.107L9.09803 12.1071L9.13575 12.0867ZM9.45989 12.6871L9.42218 12.7075L9.46535 12.7875L9.49959 12.7033L9.45989 12.6871ZM11.6061 9.75317L11.6335 9.78608L11.6335 9.78608L11.6061 9.75317ZM13.8288 8.46631L13.8436 8.50654L13.8437 8.5065L13.8288 8.46631ZM19.3895 8.59039L19.4062 8.5509L19.4061 8.55087L19.3895 8.59039ZM16.728 15.2747H16.6851V15.3176H16.728V15.2747ZM15.5502 15.9612L15.5934 15.9549L15.5907 15.9471L15.5502 15.9612ZM23.4435 12.5642C23.0608 11.6666 22.5141 10.8594 21.8176 10.1671L21.7572 10.2279C22.4458 10.9124 22.9863 11.7104 23.3646 12.5979L23.4435 12.5642ZM24.0429 15.499C24.0429 14.4805 23.8383 13.4961 23.4435 12.5643L23.3646 12.5978C23.755 13.5192 23.9571 14.4922 23.9571 15.499H24.0429ZM23.4455 18.4357C23.8404 17.5058 24.0429 16.5174 24.0429 15.499H23.9571C23.9571 16.5059 23.757 17.4829 23.3666 18.4022L23.4455 18.4357ZM21.8196 20.8329C22.5161 20.1406 23.0628 19.3334 23.4455 18.4358L23.3667 18.4021C22.9883 19.2896 22.4478 20.0876 21.7592 20.7721L21.8196 20.8329ZM19.4082 22.4491C20.3112 22.0687 21.1231 21.5253 21.8196 20.8329L21.7592 20.7721C21.0705 21.4567 20.2678 21.994 19.3749 22.3701L19.4082 22.4491ZM16.4541 23.0429C17.4785 23.0429 18.4727 22.8436 19.4082 22.4491L19.3749 22.3701C18.4501 22.7601 17.4672 22.9571 16.4541 22.9571V23.0429ZM13.5001 22.4491C14.4355 22.8416 15.4297 23.0429 16.4541 23.0429V22.9571C15.4411 22.9571 14.4582 22.7581 13.5333 22.3701L13.5001 22.4491ZM11.0886 20.8329C11.7851 21.5253 12.5971 22.0687 13.5001 22.4491L13.5333 22.3701C12.6405 21.994 11.8377 21.4567 11.1491 20.7721L11.0886 20.8329ZM11.0886 19.9236C10.8362 20.1745 10.8362 20.582 11.0886 20.8329L11.1491 20.7721C10.9304 20.5547 10.9304 20.2018 11.1491 19.9844L11.0886 19.9236ZM12.0027 19.9236C11.7504 19.6728 11.3409 19.6728 11.0886 19.9236L11.1491 19.9844C11.3679 19.7668 11.7234 19.7668 11.9423 19.9844L12.0027 19.9236ZM16.4521 21.7563C14.7702 21.7563 13.1906 21.1064 12.0027 19.9236L11.9423 19.9843C13.1462 21.1832 14.7476 21.8421 16.4521 21.8421V21.7563ZM20.9015 19.9235C19.7116 21.1044 18.134 21.7563 16.4521 21.7563V21.8421C18.1566 21.8421 19.756 21.1811 20.9619 19.9844L20.9015 19.9235ZM22.7492 15.499C22.7492 17.1686 22.0914 18.7428 20.9015 19.9235L20.9619 19.9844C22.1679 18.7876 22.8349 17.1916 22.8349 15.499H22.7492ZM20.9055 11.0764C22.0934 12.2592 22.7492 13.8294 22.7492 15.499H22.8349C22.8349 13.8064 22.1699 12.2144 20.966 11.0157L20.9055 11.0764ZM16.4561 9.24366C18.1381 9.24366 19.7177 9.89365 20.9055 11.0764L20.966 11.0157C19.762 9.81683 18.1606 9.15794 16.4561 9.15794V9.24366ZM14.2664 9.63127C14.9662 9.37289 15.7021 9.24366 16.4561 9.24366V9.15794C15.6922 9.15794 14.9462 9.28889 14.2367 9.55086L14.2664 9.63127ZM12.4127 10.7047C12.9666 10.2415 13.5905 9.88174 14.2665 9.63125L14.2367 9.55087C13.5517 9.80472 12.9192 10.1694 12.3577 10.6389L12.4127 10.7047ZM10.647 13.09C11.0329 12.1737 11.6368 11.3527 12.4127 10.7047L12.3578 10.6389C11.5713 11.2957 10.9592 12.1278 10.568 13.0567L10.647 13.09ZM11.2416 12.6854L10.5872 13.0356L10.6277 13.1112L11.282 12.7609L11.2416 12.6854ZM12.117 12.947C11.9487 12.6339 11.5562 12.5161 11.2415 12.6854L11.2821 12.7609C11.5553 12.614 11.8957 12.7164 12.0415 12.9876L12.117 12.947ZM11.8537 13.8177C12.1685 13.6505 12.2874 13.2601 12.1168 12.9468L12.0416 12.9878C12.1891 13.2589 12.0865 13.597 11.8135 13.742L11.8537 13.8177ZM9.94111 14.8383L11.8538 13.8177L11.8134 13.742L9.90076 14.7627L9.94111 14.8383ZM9.91892 14.8025C9.91894 14.8454 9.91896 14.8454 9.91898 14.8454C9.91899 14.8454 9.91901 14.8454 9.91903 14.8454C9.91905 14.8454 9.91908 14.8454 9.91911 14.8454C9.91917 14.8454 9.91922 14.8454 9.91928 14.8454C9.9194 14.8454 9.91952 14.8454 9.91964 14.8454C9.91987 14.8454 9.92012 14.8454 9.92038 14.8454C9.9209 14.8454 9.92146 14.8453 9.92206 14.8453C9.92325 14.8452 9.92467 14.845 9.92626 14.8448C9.92924 14.8443 9.93387 14.8432 9.93902 14.8407C9.94433 14.838 9.95098 14.8334 9.95622 14.8256C9.96164 14.8175 9.96379 14.8086 9.96379 14.8005H9.87808C9.87808 14.7935 9.87998 14.7853 9.88502 14.7778C9.88988 14.7706 9.89603 14.7663 9.90084 14.7639C9.90549 14.7616 9.90961 14.7607 9.91221 14.7602C9.91361 14.76 9.91488 14.7599 9.91595 14.7598C9.9165 14.7597 9.91702 14.7597 9.91751 14.7597C9.91775 14.7597 9.91799 14.7597 9.91822 14.7597C9.91834 14.7597 9.91845 14.7597 9.91857 14.7597C9.91862 14.7597 9.91868 14.7597 9.91873 14.7597C9.91876 14.7597 9.91879 14.7597 9.91882 14.7597C9.91883 14.7597 9.91885 14.7597 9.91886 14.7597C9.91888 14.7597 9.9189 14.7597 9.91892 14.8025ZM9.63303 14.9174C9.73673 14.9174 9.84227 14.8917 9.939 14.8404L9.89885 14.7647C9.81438 14.8095 9.72261 14.8317 9.63303 14.8317V14.9174ZM9.11134 14.6559C9.23651 14.8254 9.43073 14.9174 9.63303 14.9174V14.8317C9.45684 14.8317 9.28866 14.7517 9.18029 14.605L9.11134 14.6559ZM9.10537 14.6453C9.10749 14.6484 9.10609 14.6468 9.10518 14.644L9.18645 14.6168C9.183 14.6065 9.17749 14.5989 9.17591 14.5966L9.10537 14.6453ZM9.09947 14.6357C9.10181 14.6403 9.10468 14.6443 9.10537 14.6453L9.17591 14.5966L9.17605 14.5972L9.09947 14.6357ZM9.09591 14.6304C9.0987 14.6343 9.09921 14.6352 9.09947 14.6357L9.17604 14.5972C9.17228 14.5897 9.16776 14.5835 9.16552 14.5804L9.09591 14.6304ZM9.08538 14.6137C9.08915 14.6211 9.09367 14.6273 9.09591 14.6304L9.16552 14.5804C9.16272 14.5765 9.16221 14.5757 9.16195 14.5751L9.08538 14.6137ZM9.06323 14.5776C9.0707 14.5925 9.08035 14.6068 9.08807 14.6183L9.15926 14.5705C9.15087 14.558 9.14442 14.5483 9.13981 14.5391L9.06323 14.5776ZM8.03502 12.6755L9.06382 14.5788L9.13922 14.538L8.11042 12.6347L8.03502 12.6755ZM8.29824 11.8047C7.98338 11.9719 7.86455 12.3623 8.03508 12.6756L8.11036 12.6346C7.96278 12.3635 8.06541 12.0254 8.33844 11.8804L8.29824 11.8047ZM9.1735 12.0664C9.0052 11.7533 8.61274 11.6355 8.29804 11.8048L8.33864 11.8803C8.61183 11.7334 8.95222 11.8358 9.09799 12.107L9.1735 12.0664ZM9.4976 12.6668L9.17346 12.0664L9.09803 12.1071L9.42218 12.7075L9.4976 12.6668ZM11.5786 9.72026C10.6229 10.5173 9.88187 11.5357 9.42019 12.671L9.49959 12.7033C9.95598 11.581 10.6886 10.5741 11.6335 9.78608L11.5786 9.72026ZM13.814 8.42608C12.9979 8.72601 12.2467 9.1628 11.5786 9.72026L11.6335 9.78608C12.2942 9.2348 13.0369 8.80301 13.8436 8.50654L13.814 8.42608ZM16.4521 7.95714C15.5452 7.95714 14.6563 8.11412 13.8139 8.42612L13.8437 8.5065C14.6763 8.19809 15.5551 8.04286 16.4521 8.04286V7.95714ZM19.4061 8.55087C18.4707 8.15841 17.4765 7.95714 16.4521 7.95714V8.04286C17.4651 8.04286 18.448 8.24185 19.3729 8.62991L19.4061 8.55087ZM21.8176 10.1671C21.1211 9.47472 20.3092 8.93128 19.4062 8.5509L19.3729 8.62989C20.2658 9.00601 21.0685 9.54329 21.7572 10.2279L21.8176 10.1671ZM16.124 11.4774C15.7663 11.4774 15.4771 11.7645 15.4771 12.1206H15.5628C15.5628 11.8123 15.8132 11.5631 16.124 11.5631V11.4774ZM16.7708 12.1206C16.7708 11.7645 16.4816 11.4774 16.124 11.4774V11.5631C16.4348 11.5631 16.6851 11.8123 16.6851 12.1206H16.7708ZM16.7708 15.2747V12.1206H16.6851V15.2747H16.7708ZM19.8244 15.2319H16.728V15.3176H19.8244V15.2319ZM20.4713 15.8751C20.4713 15.519 20.1821 15.2319 19.8244 15.2319V15.3176C20.1352 15.3176 20.3856 15.5668 20.3856 15.8751H20.4713ZM19.8244 16.5184C20.1821 16.5184 20.4713 16.2313 20.4713 15.8751H20.3856C20.3856 16.1834 20.1352 16.4327 19.8244 16.4327V16.5184ZM16.1481 16.5184H19.8244V16.4327H16.1481V16.5184ZM15.5078 15.9674C15.5531 16.2784 15.8227 16.5184 16.1481 16.5184V16.4327C15.8656 16.4327 15.6318 16.2243 15.5926 15.955L15.5078 15.9674ZM15.4771 15.7751C15.4771 15.8455 15.4879 15.9123 15.5097 15.9752L15.5907 15.9471C15.5722 15.8939 15.5628 15.8367 15.5628 15.7751H15.4771ZM15.4771 12.1206V15.7751H15.5628V12.1206H15.4771Z" fill="#333333"/>
</svg>
