<svg xmlns:xlink="http://www.w3.org/1999/xlink" xmlns="http://www.w3.org/2000/svg" viewBox="0 0 16 16" class="plus" style="width: 16px; height: 100%; display: block; fill: inherit; flex-shrink: 0; backface-visibility: hidden;" width="16"  height="16" ><path d="M7.977 14.963c.407 0 .747-.324.747-.723V8.72h5.362c.399 0 .74-.34.74-.747a.746.746 0 00-.74-.738H8.724V1.706c0-.398-.34-.722-.747-.722a.732.732 0 00-.739.722v5.529h-5.37a.746.746 0 00-.74.738c0 .407.341.747.74.747h5.37v5.52c0 .399.332.723.739.723z" fill-opacity="0.35" fill="#37352F"></path></svg>