<?xml version="1.0" encoding="UTF-8"?>
<svg xmlns="http://www.w3.org/2000/svg" xmlns:xlink="http://www.w3.org/1999/xlink" width="16px" height="16px" viewBox="0 0 16 16" version="1.1">
<g id="surface1">
<path style=" stroke:none;fill-rule:nonzero;fill:rgb(12.941176%,12.941176%,12.941176%);fill-opacity:1;" d="M 8 1.332031 C 11.683594 1.332031 14.667969 4.316406 14.667969 8 C 14.667969 11.683594 11.683594 14.667969 8 14.667969 C 4.316406 14.667969 1.332031 11.683594 1.332031 8 C 1.332031 4.316406 4.316406 1.332031 8 1.332031 Z M 8 2.332031 C 4.871094 2.332031 2.332031 4.871094 2.332031 8 C 2.332031 11.128906 4.871094 13.667969 8 13.667969 C 11.128906 13.667969 13.667969 11.128906 13.667969 8 C 13.667969 4.871094 11.128906 2.332031 8 2.332031 Z M 5.640625 9.855469 C 6.207031 10.574219 7.066406 11 8 11 C 8.929688 11 9.789062 10.574219 10.355469 9.859375 C 10.527344 9.640625 10.84375 9.605469 11.058594 9.777344 C 11.277344 9.949219 11.3125 10.261719 11.140625 10.476562 C 10.386719 11.433594 9.238281 12 8 12 C 6.757812 12 5.609375 11.429688 4.855469 10.476562 C 4.683594 10.257812 4.722656 9.945312 4.9375 9.773438 C 5.15625 9.601562 5.46875 9.640625 5.640625 9.855469 Z M 6 5.835938 C 6.460938 5.835938 6.832031 6.207031 6.832031 6.667969 C 6.832031 7.125 6.460938 7.5 6 7.5 C 5.539062 7.5 5.167969 7.125 5.167969 6.667969 C 5.167969 6.207031 5.539062 5.835938 6 5.835938 Z M 10 5.835938 C 10.460938 5.835938 10.832031 6.207031 10.832031 6.667969 C 10.832031 7.125 10.460938 7.5 10 7.5 C 9.539062 7.5 9.167969 7.125 9.167969 6.667969 C 9.167969 6.207031 9.539062 5.835938 10 5.835938 Z M 10 5.835938 "/>
</g>
</svg>
