<?xml version="1.0" encoding="UTF-8"?>
<svg xmlns="http://www.w3.org/2000/svg" xmlns:xlink="http://www.w3.org/1999/xlink" width="16px" height="16px" viewBox="0 0 16 16" version="1.1">
<g id="surface1">
<path style=" stroke:none;fill-rule:nonzero;fill:rgb(12.941176%,12.941176%,12.941176%);fill-opacity:1;" d="M 11.667969 8 C 13.691406 8 15.332031 9.640625 15.332031 11.667969 C 15.332031 13.691406 13.691406 15.332031 11.667969 15.332031 C 9.640625 15.332031 8 13.691406 8 11.667969 C 8 9.640625 9.640625 8 11.667969 8 Z M 8 1.332031 C 11.683594 1.332031 14.667969 4.316406 14.667969 8 C 14.667969 8.175781 14.660156 8.351562 14.648438 8.523438 C 14.355469 8.246094 14.023438 8.007812 13.664062 7.820312 C 13.570312 4.773438 11.070312 2.332031 8 2.332031 C 4.871094 2.332031 2.332031 4.871094 2.332031 8 C 2.332031 11.070312 4.773438 13.570312 7.820312 13.664062 C 8.007812 14.027344 8.246094 14.355469 8.523438 14.648438 C 8.351562 14.660156 8.175781 14.667969 8 14.667969 C 4.316406 14.667969 1.332031 11.683594 1.332031 8 C 1.332031 4.316406 4.316406 1.332031 8 1.332031 Z M 11.667969 9.332031 L 11.605469 9.339844 C 11.46875 9.363281 11.363281 9.46875 11.339844 9.605469 L 11.332031 9.667969 L 11.332031 11.332031 L 9.664062 11.332031 L 9.605469 11.339844 C 9.46875 11.363281 9.363281 11.46875 9.335938 11.605469 L 9.332031 11.667969 L 9.335938 11.726562 C 9.363281 11.863281 9.46875 11.96875 9.605469 11.996094 L 9.664062 12 L 11.332031 12 L 11.335938 13.667969 L 11.339844 13.730469 C 11.363281 13.863281 11.472656 13.972656 11.609375 13.996094 L 11.667969 14.003906 L 11.726562 13.996094 C 11.863281 13.972656 11.96875 13.863281 11.996094 13.730469 L 12 13.667969 L 12 12 L 13.667969 12 L 13.730469 11.996094 C 13.867188 11.96875 13.972656 11.863281 13.996094 11.726562 L 14.003906 11.667969 L 13.996094 11.605469 C 13.972656 11.46875 13.867188 11.363281 13.730469 11.339844 L 13.667969 11.332031 L 12 11.332031 L 12 9.667969 L 11.996094 9.605469 C 11.96875 9.46875 11.863281 9.363281 11.726562 9.339844 Z M 5.640625 9.855469 C 6.082031 10.414062 6.703125 10.796875 7.394531 10.941406 C 7.355469 11.175781 7.332031 11.417969 7.332031 11.667969 C 7.332031 11.761719 7.335938 11.855469 7.34375 11.945312 C 6.359375 11.785156 5.472656 11.261719 4.855469 10.476562 C 4.683594 10.257812 4.722656 9.945312 4.9375 9.773438 C 5.15625 9.601562 5.46875 9.640625 5.640625 9.855469 Z M 6 5.835938 C 6.460938 5.835938 6.832031 6.207031 6.832031 6.667969 C 6.832031 7.125 6.460938 7.5 6 7.5 C 5.539062 7.5 5.167969 7.125 5.167969 6.667969 C 5.167969 6.207031 5.539062 5.835938 6 5.835938 Z M 10 5.835938 C 10.460938 5.835938 10.832031 6.207031 10.832031 6.667969 C 10.832031 7.125 10.460938 7.5 10 7.5 C 9.539062 7.5 9.167969 7.125 9.167969 6.667969 C 9.167969 6.207031 9.539062 5.835938 10 5.835938 Z M 10 5.835938 "/>
</g>
</svg>
