<svg width="16" height="16" viewBox="0 0 16 16" fill="none" xmlns="http://www.w3.org/2000/svg">
<path d="M8 13C10.7614 13 13 10.7614 13 8C13 5.23858 10.7614 3 8 3C5.23858 3 3 5.23858 3 8C3 10.7614 5.23858 13 8 13Z" stroke="#333333" stroke-linecap="round" stroke-linejoin="round"/>
<path d="M8 4.7C8 4.58954 8.08962 4.4994 8.1999 4.50571C8.86058 4.5435 9.49854 4.76799 10.0387 5.15504C10.6331 5.581 11.0792 6.18247 11.3143 6.87496C11.5493 7.56745 11.5616 8.31618 11.3493 9.016C11.137 9.71581 10.7108 10.3315 10.1307 10.7767C9.55049 11.2219 8.84543 11.4742 8.11452 11.4981C7.38361 11.5221 6.66356 11.3164 6.05551 10.9101C5.44745 10.5039 4.98193 9.91731 4.72433 9.23288C4.49026 8.61098 4.43854 7.93665 4.57304 7.2887C4.59549 7.18055 4.70575 7.11731 4.81244 7.1459L7.74824 7.93254C7.87526 7.96658 8 7.87086 8 7.73936V4.7Z" fill="#333333"/>
<path d="M6 1.5H10" stroke="#333333" stroke-linecap="round"/>
</svg>
