<svg width="16" height="16" viewBox="0 0 16 16" fill="none" xmlns="http://www.w3.org/2000/svg">
<path d="M10.716 9.828C10.716 8.292 9.6 7.896 8.124 7.416C7.128 7.092 6.396 6.828 6.396 6.072C6.396 5.376 6.984 4.968 7.824 4.968C8.412 4.968 9.216 5.22 9.84 5.676L10.44 4.944C9.9 4.512 9.096 4.176 8.352 4.056V2.508H7.572V4.008C6.12 4.092 5.304 4.98 5.304 6.132C5.304 7.56 6.516 7.98 7.824 8.388C8.928 8.748 9.612 9.036 9.612 9.9C9.612 10.644 8.964 11.088 8.076 11.088C7.308 11.088 6.444 10.752 5.772 10.092L5.136 10.836C5.844 11.532 6.684 11.904 7.572 12.012V13.476H8.352V12.024C9.84 11.928 10.716 11.052 10.716 9.828Z" fill="#333333"/>
</svg>
