<svg xmlns="http://www.w3.org/2000/svg" width="24" height="24"><g fill="none" fill-rule="nonzero"><path d="M24 0v24H0V0zM12.593 23.258l-.011.002-.071.035-.02.004-.014-.004-.071-.035c-.01-.004-.019-.001-.024.005l-.004.01-.017.428.005.02.01.013.104.074.015.004.012-.004.104-.074.012-.016.004-.017-.017-.427c-.002-.01-.009-.017-.017-.018m.265-.113-.013.002-.185.093-.01.01-.003.011.018.43.005.012.008.007.201.093c.012.004.023 0 .029-.008l.004-.014-.034-.614c-.003-.012-.01-.02-.02-.022m-.715.002a.023.023 0 0 0-.027.006l-.006.014-.034.614c0 .012.007.02.017.024l.015-.002.201-.093.01-.008.004-.011.017-.43-.003-.012-.01-.01z"/><path fill="#09244B" d="M17.42 3a2 2 0 0 1 1.649.868l.087.14L22.49 9.84a2 2 0 0 1-.208 2.283l-.114.123-9.283 9.283a1.25 1.25 0 0 1-1.666.091l-.102-.09-9.283-9.284a2 2 0 0 1-.4-2.257l.078-.15 3.333-5.832a2 2 0 0 1 1.572-1.001L6.58 3zm0 2H6.58l-3.333 5.833L12 19.586l8.753-8.753zM7.293 9.293a1 1 0 0 1 1.32-.083l.094.083L12 12.586l3.293-3.293a1 1 0 0 1 1.497 1.32l-.083.094-3.823 3.823a1.25 1.25 0 0 1-1.666.091l-.102-.09-3.823-3.824a1 1 0 0 1 0-1.414"/></g></svg>