<svg width="24" height="24" viewBox="0 0 24 24" fill="none" xmlns="http://www.w3.org/2000/svg">
<path d="M4.5 6.59985H6.16667H19.5" stroke="#333333" stroke-width="1.5" stroke-linecap="round" stroke-linejoin="round"/>
<path d="M8.6665 6.6V4.8C8.6665 4.32261 8.8421 3.86477 9.15466 3.52721C9.46722 3.18964 9.89114 3 10.3332 3H13.6665C14.1085 3 14.5325 3.18964 14.845 3.52721C15.1576 3.86477 15.3332 4.32261 15.3332 4.8V6.6M17.8332 6.6V19.2C17.8332 19.6774 17.6576 20.1352 17.345 20.4728C17.0325 20.8104 16.6085 21 16.1665 21H7.83317C7.39114 21 6.96722 20.8104 6.65466 20.4728C6.3421 20.1352 6.1665 19.6774 6.1665 19.2V6.6H17.8332Z" stroke="#333333" stroke-width="1.5" stroke-linecap="round" stroke-linejoin="round"/>
<path d="M10.3335 11.0999V16.4999" stroke="#333333" stroke-width="1.5" stroke-linecap="round" stroke-linejoin="round"/>
<path d="M13.6665 11.0999V16.4999" stroke="#333333" stroke-width="1.5" stroke-linecap="round" stroke-linejoin="round"/>
</svg>
