<svg width="14" height="14" viewBox="0 0 14 14" fill="none" xmlns="http://www.w3.org/2000/svg">
<g clip-path="url(#clip0_1068_188071)">
<path fill-rule="evenodd" clip-rule="evenodd" d="M7.93408 0.767334C7.93408 0.35312 7.59829 0.017334 7.18408 0.017334C6.76987 0.017334 6.43408 0.35312 6.43408 0.767334V1.52082C6.43408 1.93503 6.76987 2.27082 7.18408 2.27082C7.59829 2.27082 7.93408 1.93503 7.93408 1.52082V0.767334ZM6.5957 2.92816C6.95442 2.72105 7.41311 2.84396 7.62022 3.20268L11.4778 9.88429C11.6849 10.243 11.562 10.7017 11.2033 10.9088C10.8446 11.1159 10.3859 10.993 10.1788 10.6343L10.1234 10.5383L7.03185 11.2562C7.13089 11.6203 7.13421 12.0072 7.03655 12.3785C6.89006 12.9354 6.52833 13.4113 6.03095 13.7015C5.53357 13.9917 4.94128 14.0724 4.38438 13.9259C3.82747 13.7794 3.35157 13.4177 3.06137 12.9203L3.05964 12.9174L2.6835 12.2659L1.22998 12.6034C1.01562 12.6531 0.793913 12.5569 0.683879 12.3663L0.0748079 11.3114C-0.0352259 11.1208 -0.00771366 10.8807 0.142575 10.7199L6.37768 4.05053L6.32118 3.95268C6.11407 3.59396 6.23698 3.13527 6.5957 2.92816ZM4.2108 11.9112L5.56739 11.5962C5.61393 11.7239 5.62095 11.8637 5.5859 11.9969C5.54062 12.1691 5.42879 12.3162 5.27502 12.4059C5.12125 12.4956 4.93815 12.5206 4.76598 12.4753C4.59426 12.4301 4.44746 12.3188 4.35768 12.1656L4.2108 11.9112ZM13.9902 6.82339C13.9902 7.23761 13.6544 7.57339 13.2402 7.57339H12.4867C12.0725 7.57339 11.7367 7.23761 11.7367 6.82339C11.7367 6.40918 12.0725 6.07339 12.4867 6.07339H13.2402C13.6544 6.07339 13.9902 6.40918 13.9902 6.82339ZM1.88232 7.57339C2.29654 7.57339 2.63232 7.23761 2.63232 6.82339C2.63232 6.40918 2.29654 6.07339 1.88232 6.07339H1.12884C0.714625 6.07339 0.378838 6.40918 0.378838 6.82339C0.378838 7.23761 0.714625 7.57339 1.12884 7.57339H1.88232ZM4.0652 3.70512C3.7723 3.998 3.29743 3.99799 3.00454 3.70508L2.3709 3.0714C2.07801 2.7785 2.07803 2.30362 2.37093 2.01074C2.66383 1.71786 3.13871 1.71787 3.43159 2.01077L4.06524 2.64446C4.35812 2.93736 4.35811 3.41223 4.0652 3.70512ZM11.9969 3.0714C12.2897 2.77851 12.2897 2.30363 11.9969 2.01074C11.704 1.71785 11.2291 1.71785 10.9362 2.01074L10.2951 2.65179C10.0022 2.94468 10.0022 3.41955 10.2951 3.71245C10.588 4.00534 11.0629 4.00534 11.3558 3.71245L11.9969 3.0714Z" fill="black"/>
</g>
<defs>
<clipPath id="clip0_1068_188071">
<rect width="14" height="14" fill="white"/>
</clipPath>
</defs>
</svg>
