<svg width="14" height="14" viewBox="0 0 14 14" fill="none" xmlns="http://www.w3.org/2000/svg">
<g clip-path="url(#clip0_1068_188110)">
<path fill-rule="evenodd" clip-rule="evenodd" d="M6.11612 1.86612C6.35054 1.6317 6.66848 1.5 7 1.5C7.33152 1.5 7.64946 1.6317 7.88388 1.86612C8.1183 2.10054 8.25 2.41848 8.25 2.75V2.95215H5.75V2.75C5.75 2.41848 5.8817 2.10054 6.11612 1.86612ZM4.25 3.10091V2.75C4.25 2.02065 4.53973 1.32118 5.05546 0.805456C5.57118 0.289731 6.27065 0 7 0C7.72935 0 8.42882 0.289731 8.94454 0.805456C9.46027 1.32118 9.75 2.02065 9.75 2.75V3.10091C9.99632 3.20247 10.2227 3.354 10.4142 3.54921C10.7893 3.93151 11 4.45001 11 4.99065V6.67969H7.625V6.3584C7.625 6.01322 7.34518 5.7334 7 5.7334C6.65482 5.7334 6.375 6.01322 6.375 6.3584V6.67969H3V4.99065C3 4.45001 3.21071 3.93151 3.58579 3.54921C3.77731 3.354 4.00368 3.20247 4.25 3.10091ZM6.375 7.92969H3V13.9521H11V7.92969H7.625V8.3584C7.625 8.70358 7.34518 8.9834 7 8.9834C6.65482 8.9834 6.375 8.70358 6.375 8.3584V7.92969ZM1.5 7.95215H1.75V13.9521H0.5C0.223858 13.9521 0 13.7283 0 13.4521V9.45215C0 9.05432 0.158035 8.67279 0.43934 8.39149C0.720644 8.11018 1.10217 7.95215 1.5 7.95215ZM12.5 7.95215H12.25V13.9521H13.5C13.7761 13.9521 14 13.7283 14 13.4521V9.45215C14 9.05432 13.842 8.67279 13.5607 8.39149C13.2794 8.11018 12.8978 7.95215 12.5 7.95215Z" fill="black"/>
</g>
<defs>
<clipPath id="clip0_1068_188110">
<rect width="14" height="14" fill="white"/>
</clipPath>
</defs>
</svg>
