<svg width="14" height="14" viewBox="0 0 14 14" fill="none" xmlns="http://www.w3.org/2000/svg">
<g clip-path="url(#clip0_1068_188062)">
<path fill-rule="evenodd" clip-rule="evenodd" d="M5 0.0197754C4.53587 0.0197754 4.09075 0.20415 3.76256 0.532339C3.43437 0.860527 3.25 1.30565 3.25 1.76978V3.00003H1.5C0.671573 3.00003 0 3.6716 0 4.50003V12.5C0 13.3285 0.671573 14 1.5 14H12.5C13.3284 14 14 13.3285 14 12.5V4.50003C14 3.6716 13.3284 3.00003 12.5 3.00003H10.75V1.76978C10.75 1.30565 10.5656 0.860527 10.2374 0.532339C9.90925 0.20415 9.46413 0.0197754 9 0.0197754H5ZM9.25 3.00003V1.76978C9.25 1.70347 9.22366 1.63988 9.17678 1.593C9.12989 1.54611 9.0663 1.51978 9 1.51978H5C4.9337 1.51978 4.87011 1.54611 4.82322 1.593C4.77634 1.63988 4.75 1.70347 4.75 1.76978V3.00003H9.25Z" fill="black"/>
</g>
<defs>
<clipPath id="clip0_1068_188062">
<rect width="14" height="14" fill="white"/>
</clipPath>
</defs>
</svg>
