<svg width="14" height="14" viewBox="0 0 14 14" fill="none" xmlns="http://www.w3.org/2000/svg">
<g clip-path="url(#clip0_1068_188080)">
<path fill-rule="evenodd" clip-rule="evenodd" d="M13.4621 9.69167C13.4621 12.6644 10.7694 14 6.99961 14C3.22982 14 0.537109 12.6644 0.537109 9.71321C0.537109 6.48196 2.15273 4.84467 5.38399 3.2075L4.23971 1.07733C4.17146 0.970577 4.13346 0.8473 4.12977 0.720645C4.12607 0.593991 4.15682 0.468708 4.21873 0.358154C4.28064 0.2476 4.37139 0.15592 4.48131 0.0928894C4.59123 0.0298588 4.7162 -0.00215941 4.84288 0.000248535H9.40972C9.52849 0.00326782 9.64453 0.0364614 9.74693 0.0967045C9.84933 0.156948 9.93471 0.242258 9.99505 0.344606C10.0553 0.446953 10.0886 0.56297 10.0918 0.681734C10.0949 0.800499 10.0677 0.918104 10.0129 1.02348L8.61524 3.2075C11.8465 4.82313 13.4621 6.46041 13.4621 9.69167ZM7.6246 4.88745C7.6246 4.54227 7.34478 4.26245 6.9996 4.26245C6.65442 4.26245 6.3746 4.54227 6.3746 4.88745V5.514C5.44759 5.55285 4.70797 6.31667 4.70797 7.25323C4.70797 8.0713 5.27759 8.77899 6.07676 8.95381L7.54985 9.27605C7.83656 9.33876 8.04129 9.59304 8.04129 9.88697C8.04129 10.2324 7.76117 10.5124 7.41629 10.5124H6.58297C6.31182 10.5124 6.07947 10.3394 5.99338 10.0958C5.87835 9.77036 5.52127 9.59979 5.19582 9.71482C4.87037 9.82985 4.6998 10.1869 4.81483 10.5124C5.04977 11.1771 5.64928 11.6708 6.3746 11.751V12.3874C6.3746 12.7326 6.65442 13.0124 6.9996 13.0124C7.34478 13.0124 7.6246 12.7326 7.6246 12.3874V11.751C8.56233 11.6473 9.29129 10.8518 9.29129 9.88697C9.29129 9.00606 8.67797 8.24326 7.81697 8.05492L6.34388 7.73268C6.11857 7.68339 5.95797 7.48387 5.95797 7.25323C5.95797 6.98218 6.1777 6.76245 6.44876 6.76245H7.41629C7.60134 6.76245 7.76696 6.84208 7.88229 6.97094C7.93648 7.03148 7.97868 7.10209 8.00588 7.17906C8.12091 7.50451 8.47799 7.67508 8.80344 7.56005C9.12889 7.44502 9.29946 7.08795 9.18443 6.7625C9.10189 6.52895 8.97473 6.31721 8.81371 6.13729C8.51469 5.8032 8.0958 5.57612 7.6246 5.52392V4.88745Z" fill="black"/>
</g>
<defs>
<clipPath id="clip0_1068_188080">
<rect width="14" height="14" fill="white"/>
</clipPath>
</defs>
</svg>
