<svg width="14" height="14" viewBox="0 0 14 14" fill="none" xmlns="http://www.w3.org/2000/svg">
<g clip-path="url(#clip0_1068_188107)">
<path fill-rule="evenodd" clip-rule="evenodd" d="M4.82322 1.62669C4.87011 1.57981 4.9337 1.55347 5 1.55347H9C9.0663 1.55347 9.12989 1.57981 9.17678 1.62669C9.22366 1.67357 9.25 1.73716 9.25 1.80347V3H4.75V1.80347C4.75 1.73716 4.77634 1.67357 4.82322 1.62669ZM3.25 3V1.80347C3.25 1.33934 3.43437 0.894218 3.76256 0.56603C4.09075 0.237841 4.53587 0.0534668 5 0.0534668H9C9.46413 0.0534668 9.90925 0.237841 10.2374 0.56603C10.5656 0.894218 10.75 1.33934 10.75 1.80347V3H12.5C13.3284 3 14 3.67157 14 4.5V12.5C14 13.3284 13.3284 14 12.5 14H1.5C0.671573 14 0 13.3284 0 12.5V4.5C0 3.67157 0.671573 3 1.5 3H3.25ZM2.875 6.57819C2.875 6.23301 3.15482 5.95319 3.5 5.95319H10.5C10.8452 5.95319 11.125 6.23301 11.125 6.57819C11.125 6.92336 10.8452 7.20319 10.5 7.20319H3.5C3.15482 7.20319 2.875 6.92336 2.875 6.57819ZM3.5 9.79681C3.15482 9.79681 2.875 10.0766 2.875 10.4218C2.875 10.767 3.15482 11.0468 3.5 11.0468H10.5C10.8452 11.0468 11.125 10.767 11.125 10.4218C11.125 10.0766 10.8452 9.79681 10.5 9.79681H3.5Z" fill="black"/>
</g>
<defs>
<clipPath id="clip0_1068_188107">
<rect width="14" height="14" fill="white"/>
</clipPath>
</defs>
</svg>
