<svg width="14" height="14" viewBox="0 0 14 14" fill="none" xmlns="http://www.w3.org/2000/svg">
<g clip-path="url(#clip0_1068_188068)">
<path fill-rule="evenodd" clip-rule="evenodd" d="M13.4621 9.69167C13.4621 12.6644 10.7694 14 6.99961 14C3.22982 14 0.537109 12.6644 0.537109 9.71321C0.537109 6.48196 2.15273 4.84467 5.38399 3.2075L4.23971 1.07733C4.17146 0.970577 4.13346 0.8473 4.12977 0.720645C4.12607 0.593991 4.15682 0.468708 4.21873 0.358154C4.28064 0.2476 4.37139 0.15592 4.48131 0.0928894C4.59123 0.0298588 4.7162 -0.00215941 4.84288 0.000248535H9.40972C9.52849 0.00326782 9.64453 0.0364614 9.74693 0.0967045C9.84933 0.156948 9.93471 0.242258 9.99505 0.344606C10.0553 0.446953 10.0886 0.56297 10.0918 0.681734C10.0949 0.800499 10.0677 0.918104 10.0129 1.02348L8.61524 3.2075C11.8465 4.82313 13.4621 6.46041 13.4621 9.69167ZM4.95788 6.5H6.64076C6.78084 6.54171 6.95613 6.61938 7.09718 6.74986C7.18684 6.83279 7.27163 6.94443 7.32323 7.10413H4.95788C4.68174 7.10413 4.45788 7.32798 4.45788 7.60413C4.45788 7.88027 4.68174 8.10413 4.95788 8.10413H7.16457C7.15522 8.11566 7.14566 8.1269 7.13591 8.13787C6.98903 8.30311 6.77746 8.42936 6.53197 8.52141C6.28856 8.61269 6.03802 8.66052 5.84343 8.68485C5.74744 8.69685 5.6682 8.70274 5.61438 8.70563C5.58754 8.70707 5.56724 8.70774 5.55458 8.70806L5.54151 8.70831L5.53965 8.70833C5.33184 8.70883 5.14594 8.83785 5.07282 9.03247C4.99955 9.22746 5.05506 9.44763 5.21183 9.5848L5.21261 9.58549L5.21404 9.58673L5.2182 9.59032L5.23163 9.60177C5.24285 9.61125 5.25857 9.62436 5.27865 9.64072C5.31881 9.67343 5.37647 9.71914 5.4505 9.77467C5.59845 9.88563 5.81249 10.0363 6.08346 10.2008C6.62378 10.5289 7.39971 10.9176 8.33627 11.1517C8.60417 11.2187 8.87563 11.0558 8.94261 10.7879C9.00958 10.52 8.8467 10.2486 8.5788 10.1816C7.88542 10.0082 7.28725 9.73529 6.82817 9.4778C6.84645 9.4713 6.86476 9.46462 6.8831 9.45774C7.22094 9.33105 7.5927 9.12918 7.88332 8.80223C8.05727 8.60655 8.19461 8.37419 8.27927 8.10413H9.04122C9.31736 8.10413 9.54122 7.88027 9.54122 7.60413C9.54122 7.32798 9.31736 7.10413 9.04122 7.10413H8.34752C8.31201 6.87638 8.24272 6.67555 8.14973 6.5H9.04122C9.31736 6.5 9.54122 6.27614 9.54122 6C9.54122 5.72386 9.31736 5.5 9.04122 5.5H6.71817C6.71081 5.49984 6.70347 5.49984 6.69615 5.5H4.95788C4.68174 5.5 4.45788 5.72386 4.45788 6C4.45788 6.27614 4.68174 6.5 4.95788 6.5ZM5.54087 9.20833C5.21162 9.58462 5.21172 9.58471 5.21183 9.5848L5.54087 9.20833Z" fill="black"/>
</g>
<defs>
<clipPath id="clip0_1068_188068">
<rect width="14" height="14" fill="white"/>
</clipPath>
</defs>
</svg>
