<svg width="14" height="14" viewBox="0 0 14 14" fill="none" xmlns="http://www.w3.org/2000/svg">
<g clip-path="url(#clip0_1068_188065)">
<path fill-rule="evenodd" clip-rule="evenodd" d="M13.4621 9.69167C13.4621 12.6644 10.7694 14 6.99961 14C3.22982 14 0.537109 12.6644 0.537109 9.71321C0.537109 6.48196 2.15273 4.84467 5.38399 3.2075L4.23971 1.07733C4.17146 0.970577 4.13346 0.8473 4.12977 0.720645C4.12607 0.593991 4.15682 0.468708 4.21873 0.358154C4.28064 0.2476 4.37139 0.15592 4.48131 0.0928894C4.59123 0.0298588 4.7162 -0.00215941 4.84288 0.000248535H9.40972C9.52849 0.00326782 9.64453 0.0364614 9.74693 0.0967045C9.84933 0.156948 9.93471 0.242258 9.99505 0.344606C10.0553 0.446953 10.0886 0.56297 10.0918 0.681734C10.0949 0.800499 10.0677 0.918104 10.0129 1.02348L8.61524 3.2075C11.8465 4.82313 13.4621 6.46041 13.4621 9.69167ZM8.48799 5.61532C8.6392 5.66794 8.81408 5.74434 8.92583 5.8384C9.13709 6.01623 9.16419 6.33165 8.98636 6.54291C8.80979 6.75268 8.49757 6.78089 8.28636 6.6072L8.28185 6.60345C8.28335 6.60471 8.28485 6.60596 8.28636 6.6072L8.2899 6.61015C8.29445 6.6139 8.29675 6.6158 8.29656 6.61611C8.29636 6.61642 8.29352 6.61505 8.28777 6.61226C8.27123 6.60425 8.2306 6.58457 8.1593 6.55976C8.04982 6.52165 7.90677 6.48544 7.75159 6.4704C7.43595 6.43982 7.13634 6.49971 6.91572 6.72032C6.79907 6.83696 6.72186 7.03172 6.69374 7.3717C6.67951 7.54384 6.67916 7.7199 6.68323 7.90839H8.1663C8.44244 7.90839 8.6663 8.13224 8.6663 8.40839C8.6663 8.68453 8.44244 8.90839 8.1663 8.90839H6.69687C6.68538 9.23052 6.64407 9.57074 6.52339 9.88244C6.51457 9.90521 6.50536 9.92778 6.49573 9.95012H8.74967C9.02582 9.95012 9.24967 10.174 9.24967 10.4501C9.24967 10.7263 9.02582 10.9501 8.74967 10.9501H5.24967C5.00445 10.9501 4.79541 10.7723 4.75613 10.5302C4.71685 10.2881 4.85892 10.0533 5.09156 9.97578C5.38189 9.879 5.51283 9.72287 5.59085 9.52138C5.65458 9.35678 5.68506 9.15406 5.69584 8.90839H5.24963C4.97349 8.90839 4.74963 8.68453 4.74963 8.40839C4.74963 8.13224 4.97349 7.90839 5.24963 7.90839H5.6831C5.67949 7.69931 5.68084 7.48641 5.69714 7.28929C5.7323 6.86417 5.84202 6.3798 6.20862 6.0132C6.71718 5.50466 7.36287 5.42806 7.84802 5.47506C8.09323 5.49882 8.31444 5.55492 8.48799 5.61532Z" fill="black"/>
</g>
<defs>
<clipPath id="clip0_1068_188065">
<rect width="14" height="14" fill="white"/>
</clipPath>
</defs>
</svg>
