<svg width="14" height="14" viewBox="0 0 14 14" fill="none" xmlns="http://www.w3.org/2000/svg">
<g clip-path="url(#clip0_1068_188095)">
<path fill-rule="evenodd" clip-rule="evenodd" d="M13.4621 9.69167C13.4621 12.6644 10.7694 14 6.99961 14C3.22982 14 0.537109 12.6644 0.537109 9.71321C0.537109 6.48196 2.15273 4.84467 5.38399 3.2075L4.23971 1.07733C4.17146 0.970577 4.13346 0.8473 4.12977 0.720645C4.12607 0.593991 4.15682 0.468708 4.21873 0.358154C4.28064 0.2476 4.37139 0.15592 4.48131 0.0928894C4.59123 0.0298588 4.7162 -0.00215941 4.84288 0.000248535H9.40972C9.52849 0.00326782 9.64453 0.0364614 9.74693 0.0967045C9.84933 0.156948 9.93471 0.242258 9.99505 0.344606C10.0553 0.446953 10.0886 0.56297 10.0918 0.681734C10.0949 0.800499 10.0677 0.918104 10.0129 1.02348L8.61524 3.2075C11.8465 4.82313 13.4621 6.46041 13.4621 9.69167ZM4.94966 5.60003C5.17057 5.43434 5.48397 5.47912 5.64966 5.70003L6.99966 7.50003L8.34966 5.70003C8.51534 5.47912 8.82874 5.43434 9.04966 5.60003C9.27057 5.76571 9.31534 6.07912 9.14966 6.30003L7.9997 7.83331H8.74963C9.02577 7.83331 9.24963 8.05717 9.24963 8.33331C9.24963 8.60946 9.02577 8.83331 8.74963 8.83331H7.49963V9.29163H8.74963C9.02577 9.29163 9.24963 9.51548 9.24963 9.79163C9.24963 10.0678 9.02577 10.2916 8.74963 10.2916H7.49963V10.9583C7.49963 11.2345 7.27577 11.4583 6.99963 11.4583C6.72349 11.4583 6.49963 11.2345 6.49963 10.9583V10.2916H5.24963C4.97349 10.2916 4.74963 10.0678 4.74963 9.79163C4.74963 9.51548 4.97349 9.29163 5.24963 9.29163H6.49963V8.83331H5.24963C4.97349 8.83331 4.74963 8.60946 4.74963 8.33331C4.74963 8.05717 4.97349 7.83331 5.24963 7.83331H5.99962L4.84966 6.30003C4.68397 6.07912 4.72875 5.76571 4.94966 5.60003Z" fill="black"/>
</g>
<defs>
<clipPath id="clip0_1068_188095">
<rect width="14" height="14" fill="white"/>
</clipPath>
</defs>
</svg>
