<svg width="14" height="14" viewBox="0 0 14 14" fill="none" xmlns="http://www.w3.org/2000/svg">
<g clip-path="url(#clip0_1068_188077)">
<path fill-rule="evenodd" clip-rule="evenodd" d="M13.4622 9.69155C13.4622 12.6643 10.7695 13.9999 6.99962 13.9999C3.22983 13.9999 0.537109 12.6643 0.537109 9.71309C0.537109 6.888 1.77211 5.28134 4.24209 3.82792C5.87163 5.05685 8.13438 5.05551 9.76254 3.82391C12.229 5.26214 13.4622 6.86851 13.4622 9.69155ZM8.7428 3.00807L10.0129 1.02336C10.0678 0.917982 10.095 0.800377 10.0918 0.681612C10.0887 0.562847 10.0554 0.446831 9.99504 0.344483C9.93471 0.242136 9.84933 0.156825 9.74693 0.0965824C9.64454 0.0363393 9.52849 0.00314575 9.40973 0.000126465H4.84289C4.7162 -0.00228148 4.59124 0.0297367 4.48132 0.0927673C4.3714 0.155798 4.28065 0.247478 4.21874 0.358032C4.15683 0.468585 4.12608 0.593868 4.12978 0.720523C4.13347 0.847178 4.17147 0.970455 4.23972 1.07721L5.28678 3.0264C6.34811 3.66208 7.6868 3.65597 8.7428 3.00807Z" fill="black"/>
</g>
<defs>
<clipPath id="clip0_1068_188077">
<rect width="14" height="14" fill="white"/>
</clipPath>
</defs>
</svg>
