<svg width="14" height="14" viewBox="0 0 14 14" fill="none" xmlns="http://www.w3.org/2000/svg">
<g clip-path="url(#clip0_1068_188083)">
<path fill-rule="evenodd" clip-rule="evenodd" d="M1.33308 2.88996C0.49455 4.0441 0 5.46433 0 7.00007C0 8.53576 0.494524 9.95595 1.33301 11.1101C1.34578 11.0999 1.35904 11.0902 1.37279 11.0808C1.99016 10.663 2.50769 10.0707 2.86955 9.35511C3.2315 8.63934 3.42343 7.82808 3.42343 6.99999C3.42343 6.1719 3.2315 5.36064 2.86955 4.64487C2.50769 3.92928 1.99016 3.33695 1.37279 2.91914C1.35906 2.90985 1.34582 2.90011 1.33308 2.88996ZM2.15949 1.94342C2.92319 2.48202 3.54872 3.21795 3.98504 4.08079C4.43756 4.97566 4.67343 5.98071 4.67343 6.99999C4.67343 8.01927 4.43756 9.02432 3.98504 9.91919C3.54871 10.7821 2.92314 11.518 2.1594 12.0566C3.2756 13.1254 4.74505 13.8283 6.375 13.9725V0.0275879C4.74509 0.171804 3.27568 0.874652 2.15949 1.94342ZM7.625 13.9725C9.25495 13.8283 10.7244 13.1254 11.8406 12.0566C11.0769 11.518 10.4513 10.7821 10.015 9.91922C9.56244 9.02435 9.32657 8.0193 9.32657 7.00002C9.32657 5.98074 9.56244 4.97569 10.015 4.08082C10.4513 3.21797 11.0768 2.48204 11.8405 1.94344C10.7243 0.874659 9.25492 0.171804 7.625 0.0275879V13.9725ZM14 7.00007C14 8.53577 13.5055 9.95597 12.667 11.1101C12.6542 11.0999 12.641 11.0902 12.6272 11.0809C12.0098 10.6631 11.4923 10.0707 11.1304 9.35514C10.7685 8.63937 10.5766 7.82811 10.5766 7.00002C10.5766 6.17193 10.7685 5.36067 11.1304 4.6449C11.4923 3.9293 12.0098 3.33697 12.6272 2.91916C12.6409 2.90987 12.6542 2.90013 12.6669 2.88997C13.5055 4.04412 14 5.46434 14 7.00007Z" fill="black"/>
</g>
<defs>
<clipPath id="clip0_1068_188083">
<rect width="14" height="14" fill="white"/>
</clipPath>
</defs>
</svg>
