<svg width="14" height="14" viewBox="0 0 14 14" fill="none" xmlns="http://www.w3.org/2000/svg">
<g clip-path="url(#clip0_1068_188086)">
<path fill-rule="evenodd" clip-rule="evenodd" d="M7 0.065918C6.78426 0.065918 6.57244 0.123602 6.38648 0.232993C6.37959 0.237051 6.37279 0.241273 6.36609 0.245656L0.456092 4.11565L0.454848 4.11648C0.0355682 4.39282 -0.0915573 4.86989 0.0703427 5.27734C0.226025 5.66914 0.619106 5.93395 1.09 5.93395H12.91C13.3809 5.93395 13.774 5.66914 13.9297 5.27734C14.0916 4.86989 13.9644 4.39282 13.5452 4.11647L13.5439 4.11566L7.63391 0.245656C7.62722 0.241273 7.62042 0.237051 7.61353 0.232993C7.42757 0.123602 7.21575 0.065918 7 0.065918ZM0 11.8772C0 11.2768 0.57154 10.988 1 10.988H1.05471C1.0528 10.9703 1.05182 10.9522 1.05182 10.934V7.72288C1.05182 7.44673 1.27568 7.22288 1.55182 7.22288H3.21586C3.492 7.22288 3.71586 7.44673 3.71586 7.72288V10.934C3.71586 10.9522 3.71488 10.9703 3.71298 10.988H5.67073C5.66883 10.9703 5.66785 10.9522 5.66785 10.934V7.72288C5.66785 7.44673 5.8917 7.22288 6.16785 7.22288H7.83189C8.10803 7.22288 8.33189 7.44673 8.33189 7.72288V10.934C8.33189 10.9522 8.33091 10.9703 8.329 10.988H10.2868C10.2849 10.9703 10.2839 10.9522 10.2839 10.934V7.72288C10.2839 7.44673 10.5077 7.22288 10.7839 7.22288H12.4479C12.7241 7.22288 12.9479 7.44673 12.9479 7.72288V10.934C12.9479 10.9522 12.9469 10.9703 12.945 10.988H13C13.4285 10.988 14 11.2768 14 11.8772V13.0448C14 13.6452 13.4285 13.934 13 13.934H1C0.57154 13.934 0 13.6452 0 13.0448V11.8772Z" fill="black"/>
</g>
<defs>
<clipPath id="clip0_1068_188086">
<rect width="14" height="14" fill="white"/>
</clipPath>
</defs>
</svg>
