<svg width="14" height="14" viewBox="0 0 14 14" fill="none" xmlns="http://www.w3.org/2000/svg">
<g clip-path="url(#clip0_1068_188101)">
<path fill-rule="evenodd" clip-rule="evenodd" d="M8 1C8 0.447715 7.55228 0 7 0C6.44772 0 6 0.447715 6 1V1.56571C4.77969 1.77197 3.64405 2.35248 2.75736 3.23917C1.63214 4.36439 1 5.89051 1 7.48181V9.50235C1.02554 9.50152 1.05118 9.5011 1.07692 9.5011H12.9231C12.9488 9.5011 12.9745 9.50152 13 9.50235V7.48181C13 5.89051 12.3679 4.36439 11.2426 3.23917C10.356 2.35248 9.22031 1.77197 8 1.56571V1ZM1.07692 10.7511H12.9231C13.5178 10.7511 14 11.2333 14 11.828V12.9049C14 13.4997 13.5178 13.9819 12.9231 13.9819H1.07692C0.482155 13.9819 0 13.4997 0 12.9049V11.828C0 11.2333 0.482155 10.7511 1.07692 10.7511Z" fill="black"/>
</g>
<defs>
<clipPath id="clip0_1068_188101">
<rect width="14" height="14" fill="white"/>
</clipPath>
</defs>
</svg>
