<svg width="14" height="14" viewBox="0 0 14 14" fill="none" xmlns="http://www.w3.org/2000/svg">
<path fill-rule="evenodd" clip-rule="evenodd" d="M0 2.64941C0 1.83455 0.708993 1.25 1.48541 1.25H9.86141C10.6378 1.25 11.3468 1.83455 11.3468 2.64941V8.0459C11.3468 8.86077 10.6378 9.44531 9.86141 9.44531H1.48541C0.708993 9.44531 0 8.86077 0 8.0459V2.64941ZM4.14374 5.34769C4.14374 4.50291 4.82857 3.81809 5.67334 3.81809C6.51812 3.81809 7.20294 4.50291 7.20294 5.34769C7.20294 6.19246 6.51812 6.87729 5.67334 6.87729C4.82857 6.87729 4.14374 6.19246 4.14374 5.34769ZM1.34639 5.25C1.34639 4.83579 1.68218 4.5 2.09639 4.5C2.51048 4.5 2.84644 4.83567 2.84644 5.25C2.84644 5.66433 2.51048 6 2.09639 6C1.68218 6 1.34639 5.66421 1.34639 5.25ZM9.25024 4.5C8.83603 4.5 8.50024 4.83579 8.50024 5.25C8.50024 5.66421 8.83603 6 9.25024 6C9.66434 6 10.0003 5.66433 10.0003 5.25C10.0003 4.83567 9.66434 4.5 9.25024 4.5ZM13.9658 5.34766C13.9658 4.93344 13.63 4.59766 13.2158 4.59766C12.8016 4.59766 12.4658 4.93344 12.4658 5.34766V10.3477C12.4658 10.414 12.4395 10.4775 12.3926 10.5244C12.3457 10.5713 12.2821 10.5977 12.2158 10.5977H3.21579C2.80158 10.5977 2.46579 10.9334 2.46579 11.3477C2.46579 11.7619 2.80158 12.0977 3.21579 12.0977H12.2158C12.6799 12.0977 13.125 11.9133 13.4532 11.5851C13.7814 11.2569 13.9658 10.8118 13.9658 10.3477V5.34766Z" fill="black"/>
</svg>
