<svg width="14" height="14" viewBox="0 0 14 14" fill="none" xmlns="http://www.w3.org/2000/svg">
<path fill-rule="evenodd" clip-rule="evenodd" d="M0 3.67537C0 2.85071 0.696096 2.22546 1.5 2.22546H12.5C13.3039 2.22546 14 2.85071 14 3.67537V10.3247C14 11.1494 13.3039 11.7746 12.5 11.7746H1.5C0.696096 11.7746 0 11.1494 0 10.3247V3.67537ZM4.9 7C4.9 5.8402 5.8402 4.9 7 4.9C8.1598 4.9 9.1 5.8402 9.1 7C9.1 8.1598 8.1598 9.1 7 9.1C5.8402 9.1 4.9 8.1598 4.9 7ZM3.00368 7.00001C3.00368 7.41524 2.66707 7.75185 2.25184 7.75185C1.83661 7.75185 1.5 7.41524 1.5 7.00001C1.5 6.58478 1.83661 6.24817 2.25184 6.24817C2.66707 6.24817 3.00368 6.58478 3.00368 7.00001ZM11.7482 7.75185C12.1634 7.75185 12.5 7.41524 12.5 7.00001C12.5 6.58478 12.1634 6.24817 11.7482 6.24817C11.333 6.24817 10.9964 6.58478 10.9964 7.00001C10.9964 7.41524 11.333 7.75185 11.7482 7.75185Z" fill="black"/>
</svg>
