<svg width="14" height="14" viewBox="0 0 14 14" fill="none" xmlns="http://www.w3.org/2000/svg">
<g clip-path="url(#clip0_1068_188137)">
<path fill-rule="evenodd" clip-rule="evenodd" d="M1.5 0C0.698528 0 0 0.620805 0 1.44514V7.11598C0 7.94031 0.698528 8.56112 1.5 8.56112H12.5C13.3015 8.56112 14 7.94031 14 7.11598V1.44514C14 0.620805 13.3015 0 12.5 0H1.5ZM7 2.47729C6.00409 2.47729 5.19675 3.28464 5.19675 4.28055C5.19675 5.27646 6.00409 6.08381 7 6.08381C7.99592 6.08381 8.80326 5.27646 8.80326 4.28055C8.80326 3.28464 7.99592 2.47729 7 2.47729ZM3.52858 4.50184C3.52858 4.91707 3.19197 5.25368 2.77674 5.25368C2.36151 5.25368 2.0249 4.91707 2.0249 4.50184C2.0249 4.08661 2.36151 3.75 2.77674 3.75C3.19197 3.75 3.52858 4.08661 3.52858 4.50184ZM11.2233 5.25368C11.6385 5.25368 11.9751 4.91707 11.9751 4.50184C11.9751 4.08661 11.6385 3.75 11.2233 3.75C10.808 3.75 10.4714 4.08661 10.4714 4.50184C10.4714 4.91707 10.808 5.25368 11.2233 5.25368ZM1.08554 10.5605C1.08554 10.1463 1.42133 9.81055 1.83554 9.81055H12.1645C12.5787 9.81055 12.9145 10.1463 12.9145 10.5605C12.9145 10.9748 12.5787 11.3105 12.1645 11.3105H1.83554C1.42133 11.3105 1.08554 10.9748 1.08554 10.5605ZM2.77454 12.4658C2.36032 12.4658 2.02454 12.8016 2.02454 13.2158C2.02454 13.63 2.36032 13.9658 2.77454 13.9658H11.2255C11.6397 13.9658 11.9755 13.63 11.9755 13.2158C11.9755 12.8016 11.6397 12.4658 11.2255 12.4658H2.77454Z" fill="black"/>
</g>
<defs>
<clipPath id="clip0_1068_188137">
<rect width="14" height="14" fill="white"/>
</clipPath>
</defs>
</svg>
