<svg width="14" height="14" viewBox="0 0 14 14" fill="none" xmlns="http://www.w3.org/2000/svg">
<g clip-path="url(#clip0_1068_188098)">
<path fill-rule="evenodd" clip-rule="evenodd" d="M0.219669 1.27972C-0.0732231 0.986827 -0.0732231 0.511953 0.219669 0.21906C0.512562 -0.0738338 0.987436 -0.0738338 1.28033 0.21906L3.28673 2.22546H12.5007C13.3046 2.22546 14.0007 2.85071 14.0007 3.67537V10.3248C14.0007 11.0429 13.4728 11.6098 12.8056 11.7443L13.7817 12.7205C14.0746 13.0133 14.0746 13.4882 13.7817 13.7811C13.4888 14.074 13.0139 14.074 12.7211 13.7811L0.219669 1.27972ZM9.21605 8.15478C9.39647 7.80921 9.49848 7.41621 9.49848 6.99939C9.49848 5.61868 8.37919 4.49939 6.99848 4.49939C6.58166 4.49939 6.18866 4.6014 5.84309 4.78182L9.21605 8.15478ZM0.174384 2.99552C0.0639547 3.19623 0.00067804 3.42674 0.00067804 3.67537V10.3248C0.00067804 11.1494 0.696774 11.7747 1.50068 11.7747H8.9535L0.174384 2.99552Z" fill="black"/>
</g>
<defs>
<clipPath id="clip0_1068_188098">
<rect width="14" height="14" fill="white"/>
</clipPath>
</defs>
</svg>
