<svg width="14" height="14" viewBox="0 0 14 14" fill="none" xmlns="http://www.w3.org/2000/svg">
<g clip-path="url(#clip0_1068_188074)">
<path fill-rule="evenodd" clip-rule="evenodd" d="M14 7C14 10.866 10.866 14 7 14C3.13401 14 0 10.866 0 7C0 3.13401 3.13401 0 7 0C10.866 0 14 3.13401 14 7ZM9.89043 3.96313L7.39043 1.96313C7.16217 1.78052 6.83783 1.78052 6.60957 1.96313L4.10957 3.96313C3.84003 4.17876 3.79633 4.57207 4.01196 4.84161C4.22759 5.11115 4.6209 5.15485 4.89043 4.93921L7 3.25156L9.10957 4.93921C9.3791 5.15485 9.77241 5.11115 9.98804 4.84161C10.2037 4.57207 10.16 4.17876 9.89043 3.96313ZM4.89043 9.0603C4.6209 8.84467 4.22759 8.88837 4.01196 9.15791C3.79633 9.42744 3.84003 9.82075 4.10957 10.0364L6.60957 12.0364C6.83783 12.219 7.16217 12.219 7.39043 12.0364L9.89043 10.0364C10.16 9.82075 10.2037 9.42744 9.98804 9.15791C9.77241 8.88837 9.3791 8.84467 9.10957 9.0603L7 10.7479L4.89043 9.0603ZM7.75 7C7.75 7.41421 7.41421 7.75 7 7.75C6.58579 7.75 6.25 7.41421 6.25 7C6.25 6.58579 6.58579 6.25 7 6.25C7.41421 6.25 7.75 6.58579 7.75 7ZM3.8 7.75C4.21422 7.75 4.55 7.41421 4.55 7C4.55 6.58579 4.21422 6.25 3.8 6.25C3.38579 6.25 3.05 6.58579 3.05 7C3.05 7.41421 3.38579 7.75 3.8 7.75ZM10.95 7C10.95 7.41421 10.6142 7.75 10.2 7.75C9.78579 7.75 9.45 7.41421 9.45 7C9.45 6.58579 9.78579 6.25 10.2 6.25C10.6142 6.25 10.95 6.58579 10.95 7Z" fill="black"/>
</g>
<defs>
<clipPath id="clip0_1068_188074">
<rect width="14" height="14" fill="white"/>
</clipPath>
</defs>
</svg>
