<svg width="14" height="14" viewBox="0 0 14 14" fill="none" xmlns="http://www.w3.org/2000/svg">
<path fill-rule="evenodd" clip-rule="evenodd" d="M5.74291 1.02881C5.74291 0.476524 5.2952 0.0288086 4.74291 0.0288086C4.19063 0.0288086 3.74291 0.476524 3.74291 1.02881V1.63283C3.6069 1.70976 3.48069 1.80526 3.36825 1.91769C3.04117 2.24477 2.85742 2.68839 2.85742 3.15095V6.49494V10.5827C2.85742 11.0452 3.04117 11.4888 3.36825 11.8159C3.48069 11.9284 3.6069 12.0239 3.74291 12.1008V12.9712C3.74291 13.5235 4.19063 13.9712 4.74291 13.9712C5.2952 13.9712 5.74291 13.5235 5.74291 12.9712V12.3268H6.76174V12.9712C6.76174 13.5235 7.20946 13.9712 7.76174 13.9712C8.31403 13.9712 8.76174 13.5235 8.76174 12.9712V12.1656C9.27701 12.0014 9.75086 11.7157 10.1403 11.3262C10.781 10.6856 11.1409 9.81677 11.1409 8.91079C11.1409 8.00481 10.781 7.13593 10.1403 6.49531C10.0912 6.44613 10.0406 6.39862 9.98888 6.35279C10.4132 5.8218 10.6496 5.16177 10.6558 4.477C10.6627 3.70351 10.3754 2.95629 9.852 2.38675C9.54612 2.05392 9.173 1.79632 8.76174 1.62805V1.02881C8.76174 0.476524 8.31403 0.0288086 7.76174 0.0288086C7.20946 0.0288086 6.76174 0.476524 6.76174 1.02881V1.40686H5.74291V1.02881ZM4.85742 7.49494V10.3268H7.72486C8.10041 10.3268 8.46058 10.1776 8.72613 9.91205C8.99168 9.6465 9.14087 9.28633 9.14087 8.91079C9.14087 8.53524 8.99168 8.17507 8.72613 7.90952C8.46552 7.64891 8.11379 7.50038 7.74583 7.49494H4.85742ZM7.68946 5.49494H4.85742V3.40686H7.71765C7.97107 3.43366 8.20649 3.55192 8.37941 3.74008C8.55944 3.93597 8.65828 4.19298 8.65588 4.45902C8.65349 4.72507 8.55006 4.98026 8.36654 5.17288C8.18808 5.36019 7.94687 5.47473 7.68946 5.49494Z" fill="black"/>
</svg>
