<svg width="14" height="14" viewBox="0 0 14 14" fill="none" xmlns="http://www.w3.org/2000/svg">
<g clip-path="url(#clip0_1068_188119)">
<path fill-rule="evenodd" clip-rule="evenodd" d="M8.95046 9.27949L12.6534 10.1699C12.8154 10.2089 12.9849 10.2122 13.1485 10.1797C13.3121 10.1472 13.4652 10.0797 13.5959 9.9827C13.7265 9.88565 13.831 9.76167 13.9011 9.62059C13.9711 9.47951 14.0048 9.32522 13.9995 9.16994V4.78994C14.0048 4.63467 13.9711 4.48037 13.9011 4.33929C13.831 4.19822 13.7265 4.07424 13.5959 3.97719C13.4652 3.88014 13.3121 3.81269 13.1485 3.78019C12.9849 3.74768 12.8154 3.75102 12.6534 3.78994L8.94032 4.71187C9.58861 5.26215 10 6.08303 10 7C10 7.91218 9.5929 8.72927 8.95046 9.27949ZM7.00002 9C8.10459 9 9.00002 8.10457 9.00002 7C9.00002 5.89543 8.10459 5 7.00002 5C5.89545 5 5.00002 5.89543 5.00002 7C5.00002 8.10457 5.89545 9 7.00002 9ZM1.3466 10.19L5.04958 9.29951C4.40714 8.74929 4.00003 7.9322 4.00003 7.02002C4.00003 6.10305 4.41142 5.28217 5.05971 4.73189L1.3466 3.80996C1.18465 3.77104 1.01515 3.7677 0.851555 3.80021C0.687963 3.83271 0.534778 3.90016 0.404144 3.99721C0.273511 4.09426 0.169021 4.21824 0.0989659 4.35931C0.0289099 4.50039 -0.00478674 4.65469 0.000547644 4.80996V9.18996C-0.00478674 9.34524 0.0289099 9.49953 0.0989659 9.64061C0.169021 9.78169 0.273511 9.90567 0.404144 10.0027C0.534778 10.0998 0.687963 10.1672 0.851555 10.1997C1.01515 10.2322 1.18465 10.2289 1.3466 10.19Z" fill="black"/>
</g>
<defs>
<clipPath id="clip0_1068_188119">
<rect width="14" height="14" fill="white"/>
</clipPath>
</defs>
</svg>
