<svg width="14" height="14" viewBox="0 0 14 14" fill="none" xmlns="http://www.w3.org/2000/svg">
<g clip-path="url(#clip0_1068_188104)">
<path fill-rule="evenodd" clip-rule="evenodd" d="M3.76256 0.58666C4.09075 0.258471 4.53587 0.0740967 5 0.0740967H9C9.46413 0.0740967 9.90925 0.258471 10.2374 0.58666C10.5656 0.914848 10.75 1.35997 10.75 1.8241V3H12.5C13.3284 3 14 3.67157 14 4.5V12.5C14 13.3284 13.3284 14 12.5 14H1.5C0.671573 14 0 13.3284 0 12.5V4.5C0 3.67157 0.671573 3 1.5 3H3.25V1.8241C3.25 1.35997 3.43437 0.914848 3.76256 0.58666ZM9.25 1.8241V3H4.75V1.8241C4.75 1.75779 4.77634 1.6942 4.82322 1.64732C4.87011 1.60044 4.9337 1.5741 5 1.5741H9C9.0663 1.5741 9.12989 1.60044 9.17678 1.64732C9.22366 1.6942 9.25 1.75779 9.25 1.8241ZM7.75 4.75012C7.75 4.33591 7.41421 4.00012 7 4.00012C6.58579 4.00012 6.25 4.33591 6.25 4.75012V5.26063C5.3132 5.36003 4.58337 6.15274 4.58337 7.11591C4.58337 7.99271 5.19389 8.75122 6.05045 8.93859L7.52354 9.26083C7.75282 9.31098 7.91669 9.51441 7.91669 9.74964C7.91669 10.0261 7.69247 10.2501 7.41669 10.2501H6.58337C6.36684 10.2501 6.18063 10.112 6.11163 9.91683C5.9736 9.52629 5.5451 9.3216 5.15457 9.45963C4.76403 9.59767 4.55934 10.0262 4.69737 10.4167C4.93584 11.0914 5.52651 11.6011 6.25 11.7224V12.2501C6.25 12.6643 6.58579 13.0001 7 13.0001C7.41421 13.0001 7.75 12.6643 7.75 12.2501V11.7224C8.69616 11.5637 9.41669 10.7404 9.41669 9.74964C9.41669 8.81003 8.76251 7.99638 7.84409 7.79548L6.37099 7.47324C6.20307 7.43651 6.08337 7.2878 6.08337 7.11591C6.08337 6.91389 6.24714 6.75012 6.44916 6.75012H7.41669C7.5647 6.75012 7.69692 6.81348 7.78955 6.91697C7.83305 6.96558 7.86676 7.02208 7.88843 7.08338C8.02646 7.47392 8.45496 7.67862 8.84549 7.54058C9.23603 7.40254 9.44072 6.97405 9.30269 6.58352C9.21461 6.33431 9.07896 6.10845 8.90725 5.9166C8.61209 5.58682 8.20724 5.3547 7.75 5.27784V4.75012Z" fill="black"/>
</g>
<defs>
<clipPath id="clip0_1068_188104">
<rect width="14" height="14" fill="white"/>
</clipPath>
</defs>
</svg>
