<svg width="14" height="14" viewBox="0 0 14 14" fill="none" xmlns="http://www.w3.org/2000/svg">
<g clip-path="url(#clip0_1068_188125)">
<path fill-rule="evenodd" clip-rule="evenodd" d="M4.52109 0.137869C4.32801 -0.0459563 4.02466 -0.0459563 3.83157 0.137869L0.155238 3.63787C0.0561082 3.73224 0 3.86313 0 4V13.5C0 13.7761 0.223858 14 0.5 14H3.17633V12C3.17633 11.4477 3.62405 11 4.17633 11C4.72862 11 5.17633 11.4477 5.17633 12V14H7.85266C8.12881 14 8.35266 13.7761 8.35266 13.5V4C8.35266 3.86313 8.29656 3.73224 8.19743 3.63787L4.52109 0.137869ZM9.76862 6.5C9.76862 6.22386 9.99247 6 10.2686 6H13.5C13.7761 6 14 6.22386 14 6.5V13.5C14 13.7761 13.7761 14 13.5 14H10.2686C9.99247 14 9.76862 13.7761 9.76862 13.5V6.5ZM2.1727 7.76298C2.1727 7.4178 2.45252 7.13798 2.7977 7.13798H5.55495C5.90013 7.13798 6.17995 7.4178 6.17995 7.76298C6.17995 8.10816 5.90013 8.38798 5.55495 8.38798H2.7977C2.45252 8.38798 2.1727 8.10816 2.1727 7.76298ZM2.7977 4.53063C2.45252 4.53063 2.1727 4.81045 2.1727 5.15563C2.1727 5.50081 2.45252 5.78063 2.7977 5.78063H5.55495C5.90013 5.78063 6.17995 5.50081 6.17995 5.15563C6.17995 4.81045 5.90013 4.53063 5.55495 4.53063H2.7977Z" fill="black"/>
</g>
<defs>
<clipPath id="clip0_1068_188125">
<rect width="14" height="14" fill="white"/>
</clipPath>
</defs>
</svg>
