<svg width="14" height="14" viewBox="0 0 14 14" fill="none" xmlns="http://www.w3.org/2000/svg">
<g clip-path="url(#clip0_1068_188134)">
<path fill-rule="evenodd" clip-rule="evenodd" d="M6.3222 0.445089C6.70517 0.0918685 7.29518 0.0918709 7.67815 0.445099L13.5202 5.83336C13.8281 6.11898 14.0002 6.5254 14.0002 6.93998V12.5C14.0002 12.8978 13.8421 13.2793 13.5608 13.5606C13.2795 13.8419 12.898 14 12.5002 14H1.5C1.10217 14 0.720644 13.8419 0.43934 13.5606C0.158036 13.2793 0 12.8978 0 12.5V6.93998C0 6.48579 0.178189 6.11326 0.480011 5.83336L0.481012 5.83243L6.3222 0.445089ZM6.56543 5.43018C6.28929 5.43018 6.06543 5.65403 6.06543 5.93018V6.33521H7.9357V5.93018C7.9357 5.65403 7.71184 5.43018 7.4357 5.43018H6.56543ZM5.06543 5.93018V6.33521H4.88037C4.32809 6.33521 3.88037 6.78292 3.88037 7.3352V10.4302C3.88037 10.9825 4.32809 11.4302 4.88037 11.4302H9.11822C9.67051 11.4302 10.1182 10.9825 10.1182 10.4302V7.33521C10.1182 6.78292 9.67051 6.33521 9.11822 6.33521H8.9357V5.93018C8.9357 5.10175 8.26412 4.43018 7.4357 4.43018H6.56543C5.737 4.43018 5.06543 5.10175 5.06543 5.93018Z" fill="black"/>
</g>
<defs>
<clipPath id="clip0_1068_188134">
<rect width="14" height="14" fill="white"/>
</clipPath>
</defs>
</svg>
