<svg width="14" height="14" viewBox="0 0 14 14" fill="none" xmlns="http://www.w3.org/2000/svg">
<path fill-rule="evenodd" clip-rule="evenodd" d="M9.45407 0.643678C8.67646 0.205623 7.79577 -0.0163054 6.90343 0.000932944C6.01109 0.0181713 5.13963 0.273948 4.37951 0.741709C3.6194 1.20947 2.99835 1.87216 2.58083 2.66099C2.16332 3.44982 1.96456 4.33603 2.00518 5.22761C2.04581 6.11919 2.32435 6.98365 2.81188 7.73123C3.2419 8.39064 3.82069 8.93791 4.49989 9.33007V10.5311C4.49989 10.7963 4.60525 11.0506 4.79279 11.2382C4.98032 11.4257 5.23468 11.5311 5.49989 11.5311H8.49989C8.76511 11.5311 9.01946 11.4257 9.207 11.2382C9.39454 11.0506 9.49989 10.7963 9.49989 10.5311V9.33094C10.2087 8.92388 10.808 8.34766 11.243 7.65174C11.7338 6.86646 11.9959 5.95988 11.9999 5.03385C12.0059 4.1416 11.7731 3.26398 11.3255 2.49206C10.8779 1.71995 10.2317 1.08173 9.45407 0.643678ZM7.00008 1.72559C7.34526 1.72559 7.62508 2.00541 7.62508 2.35059V2.73549C7.9804 2.80212 8.29468 2.98571 8.52547 3.24357C8.66346 3.39773 8.77248 3.57925 8.84327 3.77956C8.9583 4.105 8.78773 4.46208 8.46228 4.57711C8.13683 4.69214 7.77975 4.52156 7.66472 4.19611C7.64927 4.15239 7.6252 4.11201 7.59405 4.07721C7.52772 4.0031 7.43332 3.95794 7.32755 3.95794H6.56718C6.42808 3.95794 6.31531 4.07071 6.31531 4.20981C6.31531 4.32818 6.39773 4.43057 6.51336 4.45587L7.67103 4.70911C8.40916 4.87057 8.9349 5.52448 8.9349 6.27961C8.9349 7.06543 8.37084 7.72021 7.62508 7.85983V8.24469C7.62508 8.58987 7.34526 8.86969 7.00008 8.86969C6.6549 8.86969 6.37508 8.58987 6.37508 8.24469V7.85984C5.80715 7.75355 5.34531 7.34867 5.15693 6.8157C5.0419 6.49025 5.21248 6.13318 5.53793 6.01815C5.86337 5.90312 6.22045 6.0737 6.33548 6.39914C6.38483 6.53878 6.51804 6.63732 6.67265 6.63732H7.32755C7.52461 6.63732 7.6849 6.47727 7.6849 6.27961C7.6849 6.11146 7.56775 5.96607 7.40391 5.93023L6.24624 5.67699C5.55675 5.52617 5.06531 4.9156 5.06531 4.20981C5.06531 3.44543 5.63634 2.81443 6.37508 2.72011V2.35059C6.37508 2.00541 6.6549 1.72559 7.00008 1.72559ZM5 12.4912C4.58579 12.4912 4.25 12.827 4.25 13.2412C4.25 13.6554 4.58579 13.9912 5 13.9912H9C9.41421 13.9912 9.75 13.6554 9.75 13.2412C9.75 12.827 9.41421 12.4912 9 12.4912H5Z" fill="black"/>
</svg>
