<svg width="14" height="14" viewBox="0 0 14 14" fill="none" xmlns="http://www.w3.org/2000/svg">
<path fill-rule="evenodd" clip-rule="evenodd" d="M5.38503 5.24157L6.78925 3.97264C7.44263 3.38222 8.32243 3.10868 9.1954 3.22456L11.0529 3.47114L13.6312 2.07754C13.7977 1.98751 14 2.10812 14 2.29747V7.03562C14 7.35827 13.8444 7.6611 13.582 7.84886L11.8457 9.09128L9.96661 7.5146C10.3441 7.38073 10.6665 7.15996 10.9325 6.88409C11.1721 6.63561 11.1649 6.23994 10.9164 6.00035C10.668 5.76075 10.2723 5.76795 10.0327 6.01643C9.84672 6.20931 9.63177 6.33321 9.38026 6.38245C9.16109 6.42536 8.88202 6.41769 8.5311 6.31013L8.08453 5.93543L6.84003 6.94259C6.35114 7.33824 5.63235 7.25369 5.24862 6.75538C4.89215 6.29248 4.95155 5.63329 5.38503 5.24157ZM4.54695 4.31412L5.55522 3.40299C5.12716 3.2862 4.67363 3.26227 4.22557 3.33985L2.39001 3.65766L0.37647 2.57401C0.2063 2.48243 0 2.60568 0 2.79893L2.05134e-05 7.03519C2.21072e-05 7.37306 0.167057 7.68907 0.44623 7.87938L5.90115 11.5979C6.60732 12.0793 7.53849 12.0704 8.23529 11.5755L10.7409 9.79602L8.07017 7.55509L7.62639 7.91424C6.59167 8.75162 5.07039 8.57267 4.25824 7.51803C3.50379 6.53832 3.6295 5.14318 4.54695 4.31412Z" fill="black"/>
</svg>
