<svg width="14" height="14" viewBox="0 0 14 14" fill="none" xmlns="http://www.w3.org/2000/svg">
<g clip-path="url(#clip0_1068_188128)">
<path fill-rule="evenodd" clip-rule="evenodd" d="M4.75045 1.21777C4.75045 0.80356 5.08624 0.467773 5.50045 0.467773L5.5034 0.467779C5.63938 0.468302 5.76682 0.50501 5.8766 0.568774L10.3647 3.06216C10.6028 3.19443 10.7505 3.4454 10.7505 3.71777C10.7505 3.99015 10.6028 4.24111 10.3647 4.37339L6.25045 6.65908V9.36315C6.7518 9.56609 7.15213 9.96642 7.35508 10.4678H10.8498V9.65308C10.8498 9.34973 11.0325 9.07625 11.3128 8.96017C11.593 8.84408 11.9156 8.90825 12.1301 9.12275L13.6948 10.6874C13.7644 10.7571 13.8175 10.837 13.854 10.9223C13.8929 11.0129 13.9145 11.1128 13.9145 11.2178C13.9145 11.3276 13.8909 11.4318 13.8485 11.5258C13.819 11.5914 13.7796 11.6535 13.7303 11.71C13.7177 11.7245 13.7046 11.7385 13.691 11.7519L12.1301 13.3128C11.9156 13.5273 11.593 13.5914 11.3128 13.4754C11.0325 13.3593 10.8498 13.0858 10.8498 12.7824V11.9678H7.35508C7.05838 12.7007 6.3398 13.2178 5.50045 13.2178C4.66111 13.2178 3.94253 12.7007 3.64583 11.9678H0.835937C0.421724 11.9678 0.0859375 11.632 0.0859375 11.2178C0.0859375 10.8036 0.421724 10.4678 0.835937 10.4678H3.64583C3.84878 9.96642 4.2491 9.56609 4.75045 9.36315V6.21777V1.21777Z" fill="black"/>
</g>
<defs>
<clipPath id="clip0_1068_188128">
<rect width="14" height="14" fill="white"/>
</clipPath>
</defs>
</svg>
