<svg width="14" height="14" viewBox="0 0 14 14" fill="none" xmlns="http://www.w3.org/2000/svg">
<path fill-rule="evenodd" clip-rule="evenodd" d="M1.43934 0.43934C1.72064 0.158035 2.10218 0 2.5 0H8.5C8.63261 0 8.75979 0.0526784 8.85355 0.146447L12.8536 4.14645C12.9473 4.24021 13 4.36739 13 4.5V12.5C13 12.8978 12.842 13.2794 12.5607 13.5607C12.2794 13.842 11.8978 14 11.5 14H2.5C2.10217 14 1.72064 13.842 1.43934 13.5607C1.15804 13.2794 1 12.8978 1 12.5V1.5C1 1.10218 1.15804 0.720644 1.43934 0.43934ZM4.9558 3.95126C5.52153 3.95126 5.98014 3.49265 5.98014 2.92692C5.98014 2.3612 5.52153 1.90259 4.9558 1.90259C4.39008 1.90259 3.93147 2.3612 3.93147 2.92692C3.93147 3.49265 4.39008 3.95126 4.9558 3.95126ZM2.87579 8.49996C2.87528 8.15478 3.15468 7.87496 3.49986 7.87496H10.4999C10.845 7.87496 11.1253 8.15478 11.1258 8.49996C11.1263 8.84513 10.8469 9.12496 10.5017 9.12495H3.50173C3.15656 9.12495 2.87631 8.84513 2.87579 8.49996ZM2.87579 11.5C2.87528 11.1548 3.15468 10.875 3.49986 10.875H7.49986C7.84504 10.875 8.12528 11.1548 8.1258 11.5C8.12632 11.8451 7.84692 12.125 7.50174 12.125H3.50173C3.15656 12.125 2.87631 11.8451 2.87579 11.5ZM4.95519 4.63403C4.25536 4.63403 3.61701 4.89721 3.13369 5.32999C2.8468 5.58687 3.07084 5.99981 3.45593 5.99981H6.45445C6.83954 5.99981 7.06357 5.58687 6.77669 5.32999C6.29337 4.89721 5.65501 4.63403 4.95519 4.63403Z" fill="black"/>
</svg>
