<svg width="14" height="14" viewBox="0 0 14 14" fill="none" xmlns="http://www.w3.org/2000/svg">
<path fill-rule="evenodd" clip-rule="evenodd" d="M1.5 2C0.671573 2 0 2.67157 0 3.5V10.5C0 11.3284 0.671573 12 1.5 12H12.5C13.3284 12 14 11.3284 14 10.5V3.5C14 2.67157 13.3284 2 12.5 2H1.5ZM4.27432 4.875C3.10072 4.875 2.14932 5.82639 2.14932 7C2.14932 8.1736 3.10072 9.125 4.27432 9.125C5.44793 9.125 6.39932 8.1736 6.39932 7C6.39932 5.82639 5.44793 4.875 4.27432 4.875ZM8.10068 5.5C8.10068 5.15482 8.3805 4.875 8.72568 4.875H11.2257C11.5709 4.875 11.8507 5.15482 11.8507 5.5C11.8507 5.84518 11.5709 6.125 11.2257 6.125H8.72568C8.3805 6.125 8.10068 5.84518 8.10068 5.5ZM8.72568 7.875C8.3805 7.875 8.10068 8.15482 8.10068 8.5C8.10068 8.84518 8.3805 9.125 8.72568 9.125H11.2257C11.5709 9.125 11.8507 8.84518 11.8507 8.5C11.8507 8.15482 11.5709 7.875 11.2257 7.875H8.72568Z" fill="black"/>
</svg>
