<svg width="14" height="14" viewBox="0 0 14 14" fill="none" xmlns="http://www.w3.org/2000/svg">
<path fill-rule="evenodd" clip-rule="evenodd" d="M2.56836 1.74841C2.56836 1.6257 2.66384 1.54358 2.76038 1.54358H11.2386C11.3351 1.54358 11.4306 1.6257 11.4306 1.74841V5.16354H2.56836V1.74841ZM2.76038 0.0435791C1.81639 0.0435791 1.06836 0.816436 1.06836 1.74841V12.2515C1.06836 13.1835 1.81639 13.9563 2.76038 13.9563H11.2386C12.1826 13.9563 12.9306 13.1835 12.9306 12.2515V1.74841C12.9306 0.816436 12.1826 0.0435791 11.2386 0.0435791H2.76038ZM3.82855 8.71918C4.24276 8.71918 4.57855 8.38339 4.57855 7.96918C4.57855 7.55496 4.24276 7.21918 3.82855 7.21918C3.41434 7.21918 3.07855 7.55496 3.07855 7.96918C3.07855 8.38339 3.41434 8.71918 3.82855 8.71918ZM6.99949 8.71918C7.4137 8.71918 7.74949 8.38339 7.74949 7.96918C7.74949 7.55496 7.4137 7.21918 6.99949 7.21918C6.58527 7.21918 6.24949 7.55496 6.24949 7.96918C6.24949 8.38339 6.58527 8.71918 6.99949 8.71918ZM10.9204 7.96918C10.9204 8.38339 10.5846 8.71918 10.1704 8.71918C9.75621 8.71918 9.42042 8.38339 9.42042 7.96918C9.42042 7.55496 9.75621 7.21918 10.1704 7.21918C10.5846 7.21918 10.9204 7.55496 10.9204 7.96918ZM3.82855 11.9444C4.24276 11.9444 4.57855 11.6086 4.57855 11.1944C4.57855 10.7802 4.24276 10.4444 3.82855 10.4444C3.41434 10.4444 3.07855 10.7802 3.07855 11.1944C3.07855 11.6086 3.41434 11.9444 3.82855 11.9444ZM7.74949 11.1944C7.74949 11.6086 7.4137 11.9444 6.99949 11.9444C6.58527 11.9444 6.24949 11.6086 6.24949 11.1944C6.24949 10.7802 6.58527 10.4444 6.99949 10.4444C7.4137 10.4444 7.74949 10.7802 7.74949 11.1944ZM10.1704 11.9444C10.5846 11.9444 10.9204 11.6086 10.9204 11.1944C10.9204 10.7802 10.5846 10.4444 10.1704 10.4444C9.75621 10.4444 9.42042 10.7802 9.42042 11.1944C9.42042 11.6086 9.75621 11.9444 10.1704 11.9444ZM8.46362 2.8017C8.11844 2.8017 7.83862 3.08152 7.83862 3.4267C7.83862 3.77187 8.11844 4.0517 8.46362 4.0517H9.88208C10.2273 4.0517 10.5071 3.77187 10.5071 3.4267C10.5071 3.08152 10.2273 2.8017 9.88208 2.8017H8.46362Z" fill="black"/>
</svg>
