<svg width="14" height="14" viewBox="0 0 14 14" fill="none" xmlns="http://www.w3.org/2000/svg">
<g clip-path="url(#clip0_1068_188155)">
<path fill-rule="evenodd" clip-rule="evenodd" d="M6.375 0H2.5C1.11929 0 0 1.11929 0 2.5V6.375H6.375V0ZM0 11.5V7.625H6.375V14H2.5C1.11929 14 0 12.8807 0 11.5ZM7.625 14V7.625H14V11.5C14 12.8807 12.8807 14 11.5 14H7.625ZM14 2.5V6.375H7.625V0H11.5C12.8807 0 14 1.11929 14 2.5ZM2.03281 2.72456C1.68763 2.72456 1.40781 3.00439 1.40781 3.34956C1.40781 3.69474 1.68763 3.97456 2.03281 3.97456H2.65781V4.59956C2.65781 4.94474 2.93763 5.22456 3.28281 5.22456C3.62798 5.22456 3.90781 4.94474 3.90781 4.59956V3.97456H4.53281C4.87798 3.97456 5.15781 3.69474 5.15781 3.34956C5.15781 3.00439 4.87798 2.72456 4.53281 2.72456H3.90781V2.09956C3.90781 1.75439 3.62798 1.47456 3.28281 1.47456C2.93763 1.47456 2.65781 1.75439 2.65781 2.09956V2.72456H2.03281ZM9.02545 3.34961C9.02545 3.00443 9.30527 2.72461 9.65045 2.72461H11.6505C11.9956 2.72461 12.2755 3.00443 12.2755 3.34961C12.2755 3.69479 11.9956 3.97461 11.6505 3.97461H9.65045C9.30527 3.97461 9.02545 3.69479 9.02545 3.34961ZM9.65039 9.03223C9.30521 9.03223 9.02539 9.31205 9.02539 9.65723C9.02539 10.0024 9.30521 10.2822 9.65039 10.2822H11.6504C11.9956 10.2822 12.2754 10.0024 12.2754 9.65723C12.2754 9.31205 11.9956 9.03223 11.6504 9.03223H9.65039ZM9.02539 11.6572C9.02539 11.312 9.30521 11.0322 9.65039 11.0322H11.6504C11.9956 11.0322 12.2754 11.312 12.2754 11.6572C12.2754 12.0024 11.9956 12.2822 11.6504 12.2822H9.65039C9.30521 12.2822 9.02539 12.0024 9.02539 11.6572ZM1.78071 9.21518C2.02479 8.9711 2.42052 8.9711 2.6646 9.21518L3.28266 9.83324L3.90071 9.21518C4.14479 8.9711 4.54052 8.9711 4.7846 9.21518C5.02868 9.45926 5.02868 9.85498 4.7846 10.0991L4.16654 10.7171L4.7846 11.3352C5.02868 11.5793 5.02868 11.975 4.7846 12.2191C4.54052 12.4631 4.14479 12.4631 3.90071 12.2191L3.28266 11.601L2.6646 12.2191C2.42052 12.4631 2.02479 12.4631 1.78071 12.2191C1.53664 11.975 1.53664 11.5793 1.78071 11.3352L2.39877 10.7171L1.78071 10.0991C1.53664 9.85498 1.53664 9.45926 1.78071 9.21518Z" fill="black"/>
</g>
<defs>
<clipPath id="clip0_1068_188155">
<rect width="14" height="14" fill="white"/>
</clipPath>
</defs>
</svg>
