<svg width="14" height="14" viewBox="0 0 14 14" fill="none" xmlns="http://www.w3.org/2000/svg">
<path fill-rule="evenodd" clip-rule="evenodd" d="M3.53301 0.907227C3.53301 0.493013 3.19723 0.157227 2.78301 0.157227C2.3688 0.157227 2.03301 0.493013 2.03301 0.907227V7.18713H1.8457C1.43148 7.18713 1.0957 7.52292 1.0957 7.93713C1.0957 8.35135 1.43148 8.68713 1.8457 8.68713H2.55007L5.67712 10.837L3.29543 12.4744C2.9541 12.7091 2.86764 13.176 3.1023 13.5173C3.33696 13.8587 3.8039 13.9451 4.14523 13.7105L7.00097 11.7471L9.85672 13.7105C10.1981 13.9451 10.665 13.8587 10.8997 13.5173C11.1343 13.176 11.0479 12.7091 10.7065 12.4744L8.32483 10.837L11.4519 8.68713H12.1563C12.5705 8.68713 12.9063 8.35135 12.9063 7.93713C12.9063 7.52292 12.5705 7.18713 12.1563 7.18713H11.969V0.907227C11.969 0.493013 11.6332 0.157227 11.219 0.157227C10.8048 0.157227 10.469 0.493013 10.469 0.907227H3.53301ZM8.80417 8.68713H5.19777L7.00097 9.92683L8.80417 8.68713ZM3.53301 5.14435V7.18713H10.469V5.14435H3.53301Z" fill="black"/>
</svg>
