<svg width="14" height="14" viewBox="0 0 14 14" fill="none" xmlns="http://www.w3.org/2000/svg">
<path fill-rule="evenodd" clip-rule="evenodd" d="M6.375 0H2.5C1.67157 0 1 0.671573 1 1.5V12.5C1 13.3284 1.67157 14 2.5 14H6.375V0ZM7.625 14H11.5C12.3284 14 13 13.3284 13 12.5V1.5C13 0.671573 12.3284 0 11.5 0H7.625V14ZM9.5 5.83655C9.84518 5.83655 10.125 6.11637 10.125 6.46155V7.53847C10.125 7.88365 9.84518 8.16347 9.5 8.16347C9.15482 8.16347 8.875 7.88365 8.875 7.53847V6.46155C8.875 6.11637 9.15482 5.83655 9.5 5.83655ZM5.125 6.46155C5.125 6.11637 4.84518 5.83655 4.5 5.83655C4.15482 5.83655 3.875 6.11637 3.875 6.46155V7.53847C3.875 7.88365 4.15482 8.16347 4.5 8.16347C4.84518 8.16347 5.125 7.88365 5.125 7.53847V6.46155Z" fill="black"/>
</svg>
