<svg width="14" height="14" viewBox="0 0 14 14" fill="none" xmlns="http://www.w3.org/2000/svg">
<g clip-path="url(#clip0_1068_188158)">
<path fill-rule="evenodd" clip-rule="evenodd" d="M0.123047 5.58289V7.28567C0.123047 8.25418 1.67347 9.06764 3.75049 9.24829V6.71436C3.75049 6.67392 3.7516 6.63392 3.75377 6.59437C2.59937 6.51198 1.55082 6.26704 0.727785 5.89984C0.514354 5.80462 0.311333 5.69905 0.123047 5.58289ZM9.12305 2V3.47054C7.88729 3.51118 6.72657 3.75088 5.81084 4.15788C5.30819 4.38127 4.82404 4.67966 4.44863 5.07413C4.363 5.16411 4.28065 5.26192 4.2044 5.36723C3.01764 5.32257 1.98131 5.09034 1.23709 4.7583C0.821075 4.5727 0.523622 4.36809 0.338569 4.17283C0.210034 4.0372 0.148256 3.92085 0.123047 3.82491V2C0.123047 0.89543 2.13777 0 4.62305 0C7.10833 0 9.12305 0.89543 9.12305 2ZM4.62292 2.9313C6.35831 2.9313 7.76512 2.52673 7.76512 2.02766C7.76512 1.5286 6.35831 1.12402 4.62292 1.12402C2.88753 1.12402 1.48071 1.5286 1.48071 2.02766C1.48071 2.52673 2.88753 2.9313 4.62292 2.9313ZM5.00049 12V10.2972C5.18878 10.4134 5.3918 10.519 5.60523 10.6142C6.63069 11.0717 8.00622 11.3394 9.5004 11.3394C10.9946 11.3394 12.3701 11.0717 13.3956 10.6142C13.6091 10.5189 13.8122 10.4133 14.0005 10.2971V12C14.0005 13.1 12.0005 14 9.50049 14C7.00049 14 5.00049 13.1 5.00049 12ZM5.21601 8.88718C5.08748 8.75156 5.0257 8.6352 5.00049 8.53926V6.71436C5.00049 5.60979 7.01521 4.71436 9.50049 4.71436C11.9858 4.71436 14.0005 5.60979 14.0005 6.71436V8.53857C13.9754 8.63465 13.9136 8.75123 13.7848 8.88718C13.5997 9.08245 13.3023 9.28705 12.8863 9.47266C12.0558 9.84319 10.8615 10.0894 9.5004 10.0894C8.13927 10.0894 6.94502 9.84319 6.11453 9.47266C5.69852 9.28705 5.40106 9.08245 5.21601 8.88718ZM12.6426 6.74202C12.6426 7.24108 11.2358 7.64565 9.50036 7.64565C7.76497 7.64565 6.35816 7.24108 6.35816 6.74202C6.35816 6.24295 7.76497 5.83838 9.50036 5.83838C11.2358 5.83838 12.6426 6.24295 12.6426 6.74202Z" fill="black"/>
</g>
<defs>
<clipPath id="clip0_1068_188158">
<rect width="14" height="14" fill="white"/>
</clipPath>
</defs>
</svg>
