<svg width="14" height="14" viewBox="0 0 14 14" fill="none" xmlns="http://www.w3.org/2000/svg">
<g clip-path="url(#clip0_1068_188131)">
<path fill-rule="evenodd" clip-rule="evenodd" d="M9.75 8.25C11.9591 8.25 13.75 6.45914 13.75 4.25C13.75 2.04086 11.9591 0.25 9.75 0.25C7.54086 0.25 5.75 2.04086 5.75 4.25C5.75 6.45914 7.54086 8.25 9.75 8.25ZM9.75 2.625C10.0952 2.625 10.375 2.90482 10.375 3.25V5.25C10.375 5.59518 10.0952 5.875 9.75 5.875C9.40482 5.875 9.125 5.59518 9.125 5.25V3.25C9.125 2.90482 9.40482 2.625 9.75 2.625ZM2.09315 6.75H0.25V10.75L2.07843 12.5784C2.82857 13.3286 3.84599 13.75 4.90685 13.75H10.75C11.5784 13.75 12.25 13.0784 12.25 12.25C12.25 11.4216 11.5784 10.75 10.75 10.75H7.97314C7.87662 11.0765 7.69953 11.3842 7.44188 11.6418C6.61791 12.4658 5.28199 12.4658 4.45802 11.6418L3.00801 10.1918C2.76393 9.94774 2.76393 9.55201 3.00801 9.30794C3.25209 9.06386 3.64782 9.06386 3.89189 9.30794L5.34191 10.7579C5.67772 11.0938 6.22218 11.0938 6.558 10.7579C6.85999 10.456 6.89041 9.98522 6.64924 9.64924L4.92157 7.92157C4.17143 7.17143 3.15401 6.75 2.09315 6.75Z" fill="black"/>
</g>
<defs>
<clipPath id="clip0_1068_188131">
<rect width="14" height="14" fill="white"/>
</clipPath>
</defs>
</svg>
