<svg width="14" height="14" viewBox="0 0 14 14" fill="none" xmlns="http://www.w3.org/2000/svg">
<path fill-rule="evenodd" clip-rule="evenodd" d="M1.5 1.75C0.671573 1.75 0 2.42157 0 3.25V4.18994H14V3.25C14 2.42157 13.3284 1.75 12.5 1.75H1.5ZM0 10.75V5.43994H14V10.75C14 11.5784 13.3284 12.25 12.5 12.25H1.5C0.671573 12.25 0 11.5784 0 10.75ZM9.5 8.625C9.15482 8.625 8.875 8.90482 8.875 9.25C8.875 9.59518 9.15482 9.875 9.5 9.875H11C11.3452 9.875 11.625 9.59518 11.625 9.25C11.625 8.90482 11.3452 8.625 11 8.625H9.5Z" fill="black"/>
</svg>
