<svg width="14" height="14" viewBox="0 0 14 14" fill="none" xmlns="http://www.w3.org/2000/svg">
<g clip-path="url(#clip0_1068_188170)">
<path fill-rule="evenodd" clip-rule="evenodd" d="M0.367127 0.378289C0.553058 0.190096 0.806528 0.083252 1.07212 0.083252H12.9279C13.1935 0.083252 13.4469 0.190096 13.6329 0.378289C13.8186 0.566279 13.9219 0.819975 13.9219 1.08325V4.08325C13.9219 4.34653 13.8186 4.60022 13.6329 4.78821C13.4469 4.97641 13.1935 5.08325 12.9279 5.08325H12.0943H12V3.5C12 2.25736 10.9926 1.25 9.75 1.25H4.25C3.00736 1.25 2 2.25736 2 3.5V5.08325H1.90572H1.07212C0.806528 5.08325 0.553058 4.97641 0.367127 4.78821C0.181398 4.60023 0.078125 4.34653 0.078125 4.08325V1.08325C0.078125 0.819973 0.181398 0.566278 0.367127 0.378289Z" fill="black"/>
<path fill-rule="evenodd" clip-rule="evenodd" d="M3.25 3.5C3.25 2.94772 3.69772 2.5 4.25 2.5H9.75C10.3023 2.5 10.75 2.94772 10.75 3.5V12.875C10.75 13.4273 10.3023 13.875 9.75 13.875H4.25C3.69772 13.875 3.25 13.4273 3.25 12.875V3.5ZM6.25 4.83325C6.25 4.41904 6.58579 4.08325 7 4.08325C7.41409 4.08325 7.75005 4.41892 7.75005 4.83325C7.75005 5.24758 7.41409 5.58325 7 5.58325C6.58579 5.58325 6.25 5.24747 6.25 4.83325ZM5.25 8.1875C5.25 7.221 6.0335 6.4375 7 6.4375C7.9665 6.4375 8.75 7.221 8.75 8.1875C8.75 9.154 7.9665 9.9375 7 9.9375C6.0335 9.9375 5.25 9.154 5.25 8.1875ZM6.99995 10.8468C6.58574 10.8468 6.24995 11.1826 6.24995 11.5968C6.24995 12.011 6.58574 12.3468 6.99995 12.3468C7.41405 12.3468 7.75 12.0111 7.75 11.5968C7.75 11.1825 7.41405 10.8468 6.99995 10.8468Z" fill="black"/>
</g>
<defs>
<clipPath id="clip0_1068_188170">
<rect width="14" height="14" fill="white"/>
</clipPath>
</defs>
</svg>
