<svg width="14" height="14" viewBox="0 0 14 14" fill="none" xmlns="http://www.w3.org/2000/svg">
<path fill-rule="evenodd" clip-rule="evenodd" d="M6.40828 1.03998H7.62112L9.33823 4.73074H4.68411L6.40828 1.03998ZM3.30443 4.73074L5.02861 1.03998H3.36035L3.34663 1.04017C3.10036 1.04693 2.85915 1.11155 2.64248 1.22881C2.42737 1.34522 2.24245 1.51028 2.10245 1.71078L0.28501 4.22724L0.282206 4.23116C0.174444 4.38345 0.0958199 4.55281 0.0488281 4.73074H3.30443ZM0.254083 5.98074H3.27821L5.19975 12.1411L0.365164 6.12886C0.325057 6.08155 0.28799 6.03208 0.254083 5.98074ZM4.58761 5.98074H9.43421L7.10359 13.4833C7.06929 13.4857 7.03486 13.4869 7.00035 13.4869C6.97632 13.4869 6.95233 13.4863 6.92838 13.4851L4.58761 5.98074ZM10.7431 5.98074L8.84741 12.0833L13.6355 6.12887C13.6756 6.08156 13.7127 6.03208 13.7466 5.98074H10.7431ZM13.9518 4.73074C13.9048 4.55281 13.8262 4.38345 13.7185 4.23116L13.7157 4.22724L11.8982 1.71078C11.7582 1.51027 11.5733 1.34522 11.3582 1.22881C11.1415 1.11155 10.9003 1.04693 10.654 1.04017L10.6403 1.03998H8.99978L10.7168 4.73074H13.9518Z" fill="black"/>
</svg>
