<svg width="14" height="14" viewBox="0 0 14 14" fill="none" xmlns="http://www.w3.org/2000/svg">
<path fill-rule="evenodd" clip-rule="evenodd" d="M0 11C0 11.8284 0.670533 12.5 1.49768 12.5H12.5023C13.3295 12.5 14 11.8284 14 11V8.96597C14 8.74021 13.8489 8.54245 13.6314 8.48339C12.979 8.30629 12.4997 7.70856 12.4997 7C12.4997 6.29144 12.979 5.69371 13.6314 5.51661C13.8489 5.45755 14 5.25979 14 5.03403V3C14 2.17157 13.3295 1.5 12.5023 1.5H1.49768C0.670535 1.5 0 2.17157 0 3V5.02963C0 5.25697 0.153127 5.45569 0.372701 5.51331C1.03138 5.68615 1.51674 6.28694 1.51674 7C1.51674 7.71306 1.03138 8.31385 0.372701 8.48669C0.153127 8.54431 0 8.74303 0 8.97037V11ZM4.96245 9.94194L9.96245 4.94194C10.2065 4.69786 10.2065 4.30214 9.96245 4.05806C9.71837 3.81398 9.32264 3.81398 9.07857 4.05806L4.07857 9.05806C3.83449 9.30214 3.83449 9.69786 4.07857 9.94194C4.32264 10.186 4.71837 10.186 4.96245 9.94194ZM4.02051 5C4.02051 4.44772 4.46822 4 5.02051 4C5.57279 4 6.02051 4.44772 6.02051 5C6.02051 5.55228 5.57279 6 5.02051 6C4.46822 6 4.02051 5.55228 4.02051 5ZM8.02051 9C8.02051 8.44772 8.46822 8 9.02051 8C9.57279 8 10.0205 8.44772 10.0205 9C10.0205 9.55228 9.57279 10 9.02051 10C8.46822 10 8.02051 9.55228 8.02051 9Z" fill="black"/>
</svg>
