<svg width="14" height="14" viewBox="0 0 14 14" fill="none" xmlns="http://www.w3.org/2000/svg">
<path fill-rule="evenodd" clip-rule="evenodd" d="M5.36497 0.2631C5.48972 0.121605 5.68349 0.0623634 5.86603 0.109908C6.97512 0.398767 8.67946 1.14923 10.1155 2.48749C11.5621 3.8357 12.7466 5.79294 12.7466 8.46237C12.7466 9.51873 12.5095 10.8115 11.6889 11.8833C10.8549 12.9727 9.47155 13.7639 7.32528 13.8963L7.31954 13.8967C4.45975 14.0402 2.45114 12.5544 1.64411 10.507C0.844509 8.4784 1.24598 5.95428 3.04851 4.03894C3.14493 3.93648 3.28006 3.87939 3.42073 3.88167C3.56141 3.88396 3.69461 3.9454 3.78766 4.05093L5.05376 5.48689C5.51662 4.66077 5.7418 3.94064 5.77574 3.22015C5.81026 2.48733 5.64894 1.71266 5.27575 0.779411C5.20572 0.604258 5.24021 0.404596 5.36497 0.2631ZM5.3147 7.86755C5.3147 7.45334 5.65048 7.11755 6.0647 7.11755C6.47891 7.11755 6.8147 7.45334 6.8147 7.86755C6.8147 8.28177 6.47891 8.61755 6.0647 8.61755C5.65048 8.61755 5.3147 8.28177 5.3147 7.86755ZM9.30388 7.994C9.49914 7.79873 9.49914 7.48215 9.30388 7.28689C9.10862 7.09163 8.79203 7.09163 8.59677 7.28689L5.31344 10.5702C5.11817 10.7655 5.11817 11.0821 5.31344 11.2773C5.5087 11.4726 5.82528 11.4726 6.02054 11.2773L9.30388 7.994ZM7.97363 10.6967C7.97363 10.2824 8.30942 9.94666 8.72363 9.94666C9.13784 9.94666 9.47363 10.2824 9.47363 10.6967C9.47363 11.1109 9.13784 11.4467 8.72363 11.4467C8.30942 11.4467 7.97363 11.1109 7.97363 10.6967Z" fill="black"/>
</svg>
