<svg width="14" height="14" viewBox="0 0 14 14" fill="none" xmlns="http://www.w3.org/2000/svg">
<g clip-path="url(#clip0_1068_188198)">
<path fill-rule="evenodd" clip-rule="evenodd" d="M14 7C14 10.866 10.866 14 7 14C3.13401 14 0 10.866 0 7C0 3.13401 3.13401 0 7 0C10.866 0 14 3.13401 14 7ZM10.1877 3.81228C9.94362 3.56821 9.5479 3.56821 9.30382 3.81228L3.81227 9.30383C3.56819 9.54791 3.56819 9.94364 3.81227 10.1877C4.05635 10.4318 4.45208 10.4318 4.69615 10.1877L10.1877 4.69617C10.4318 4.45209 10.4318 4.05636 10.1877 3.81228ZM4.80337 3.62923C4.1549 3.62923 3.62921 4.15491 3.62921 4.80338C3.62921 5.45185 4.1549 5.97754 4.80337 5.97754C5.45183 5.97754 5.97752 5.45185 5.97752 4.80338C5.97752 4.15491 5.45183 3.62923 4.80337 3.62923ZM9.19662 8.02246C8.54815 8.02246 8.02246 8.54815 8.02246 9.19662C8.02246 9.84508 8.54815 10.3708 9.19662 10.3708C9.84508 10.3708 10.3708 9.84508 10.3708 9.19662C10.3708 8.54815 9.84508 8.02246 9.19662 8.02246Z" fill="black"/>
</g>
<defs>
<clipPath id="clip0_1068_188198">
<rect width="14" height="14" fill="white"/>
</clipPath>
</defs>
</svg>
