<svg width="14" height="14" viewBox="0 0 14 14" fill="none" xmlns="http://www.w3.org/2000/svg">
<g clip-path="url(#clip0_1068_188192)">
<path fill-rule="evenodd" clip-rule="evenodd" d="M1.61978 1.61966C1.65771 1.58173 1.70914 1.56042 1.76278 1.56042C2.17699 1.56042 2.51278 1.22464 2.51278 0.810425C2.51278 0.396211 2.17699 0.0604248 1.76278 0.0604248C1.31132 0.0604248 0.87835 0.239767 0.55912 0.558998C0.239889 0.878228 0.0605469 1.3112 0.0605469 1.76266C0.0605469 2.17687 0.396333 2.51266 0.810547 2.51266C1.22476 2.51266 1.56055 2.17687 1.56055 1.76266C1.56055 1.70902 1.58185 1.65758 1.61978 1.61966ZM11.4874 0.810425C11.4874 0.396211 11.8232 0.0604248 12.2374 0.0604248C12.6888 0.0604248 13.1218 0.239767 13.441 0.558998C13.7603 0.878228 13.9396 1.3112 13.9396 1.76266C13.9396 2.17687 13.6038 2.51266 13.1896 2.51266C12.7754 2.51266 12.4396 2.17687 12.4396 1.76266C12.4396 1.70902 12.4183 1.65758 12.3804 1.61966C12.3424 1.58173 12.291 1.56042 12.2374 1.56042C11.8232 1.56042 11.4874 1.22464 11.4874 0.810425ZM4.82538 3.64033C4.17095 3.64033 3.64044 4.17084 3.64044 4.82526C3.64044 5.47969 4.17095 6.0102 4.82538 6.0102C5.4798 6.0102 6.01031 5.47969 6.01031 4.82526C6.01031 4.17084 5.4798 3.64033 4.82538 3.64033ZM9.91098 5.14969L5.14981 9.91086C4.85691 10.2038 4.38204 10.2038 4.08915 9.91086C3.79625 9.61797 3.79625 9.1431 4.08915 8.8502L8.85032 4.08903C9.14321 3.79614 9.61808 3.79614 9.91098 4.08903C10.2039 4.38193 10.2039 4.8568 9.91098 5.14969ZM9.17474 7.98969C8.52032 7.98969 7.98981 8.5202 7.98981 9.17462C7.98981 9.82904 8.52032 10.3596 9.17474 10.3596C9.82916 10.3596 10.3597 9.82904 10.3597 9.17462C10.3597 8.5202 9.82916 7.98969 9.17474 7.98969ZM0.810547 11.4872C1.22476 11.4872 1.56055 11.823 1.56055 12.2372C1.56055 12.2909 1.58185 12.3423 1.61978 12.3802C1.65771 12.4182 1.70914 12.4395 1.76278 12.4395C2.17699 12.4395 2.51278 12.7753 2.51278 13.1895C2.51278 13.6037 2.17699 13.9395 1.76278 13.9395C1.31132 13.9395 0.87835 13.7601 0.55912 13.4409C0.239889 13.1217 0.0605469 12.6887 0.0605469 12.2372C0.0605469 11.823 0.396333 11.4872 0.810547 11.4872ZM13.9396 12.2372C13.9396 11.823 13.6038 11.4872 13.1896 11.4872C12.7754 11.4872 12.4396 11.823 12.4396 12.2372C12.4396 12.2909 12.4183 12.3423 12.3804 12.3802C12.3424 12.4182 12.291 12.4395 12.2374 12.4395C11.8232 12.4395 11.4874 12.7753 11.4874 13.1895C11.4874 13.6037 11.8232 13.9395 12.2374 13.9395C12.6888 13.9395 13.1218 13.7601 13.441 13.4409C13.7603 13.1217 13.9396 12.6887 13.9396 12.2372ZM3.86948 0.810425C3.86948 0.396211 4.20526 0.0604248 4.61948 0.0604248H5.57171C5.98592 0.0604248 6.32171 0.396211 6.32171 0.810425C6.32171 1.22464 5.98592 1.56042 5.57171 1.56042H4.61948C4.20526 1.56042 3.86948 1.22464 3.86948 0.810425ZM8.4284 0.0604248C8.01419 0.0604248 7.6784 0.396211 7.6784 0.810425C7.6784 1.22464 8.01419 1.56042 8.4284 1.56042H9.38064C9.79485 1.56042 10.1307 1.22464 10.1307 0.810425C10.1307 0.396211 9.79485 0.0604248 9.38064 0.0604248H8.4284ZM3.86948 13.1895C3.86948 12.7753 4.20526 12.4395 4.61948 12.4395H5.57171C5.98592 12.4395 6.32171 12.7753 6.32171 13.1895C6.32171 13.6037 5.98592 13.9395 5.57171 13.9395H4.61948C4.20526 13.9395 3.86948 13.6037 3.86948 13.1895ZM8.4284 12.4395C8.01419 12.4395 7.6784 12.7753 7.6784 13.1895C7.6784 13.6037 8.01419 13.9395 8.4284 13.9395H9.38064C9.79485 13.9395 10.1307 13.6037 10.1307 13.1895C10.1307 12.7753 9.79485 12.4395 9.38064 12.4395H8.4284ZM13.1896 3.86936C13.6038 3.86936 13.9396 4.20515 13.9396 4.61936V5.5716C13.9396 5.98581 13.6038 6.3216 13.1896 6.3216C12.7754 6.3216 12.4396 5.98581 12.4396 5.5716V4.61936C12.4396 4.20515 12.7754 3.86936 13.1896 3.86936ZM13.9396 8.4283C13.9396 8.01409 13.6038 7.6783 13.1896 7.6783C12.7754 7.6783 12.4396 8.01409 12.4396 8.4283V9.38053C12.4396 9.79475 12.7754 10.1305 13.1896 10.1305C13.6038 10.1305 13.9396 9.79475 13.9396 9.38053V8.4283ZM0.810547 3.86936C1.22476 3.86936 1.56055 4.20515 1.56055 4.61936V5.5716C1.56055 5.98581 1.22476 6.3216 0.810547 6.3216C0.396333 6.3216 0.0605469 5.98581 0.0605469 5.5716V4.61936C0.0605469 4.20515 0.396333 3.86936 0.810547 3.86936ZM1.56055 8.4283C1.56055 8.01409 1.22476 7.6783 0.810547 7.6783C0.396333 7.6783 0.0605469 8.01409 0.0605469 8.4283V9.38053C0.0605469 9.79475 0.396333 10.1305 0.810547 10.1305C1.22476 10.1305 1.56055 9.79475 1.56055 9.38053V8.4283Z" fill="black"/>
</g>
<defs>
<clipPath id="clip0_1068_188192">
<rect width="14" height="14" fill="white"/>
</clipPath>
</defs>
</svg>
