<svg width="14" height="14" viewBox="0 0 14 14" fill="none" xmlns="http://www.w3.org/2000/svg">
<g clip-path="url(#clip0_1068_188167)">
<path fill-rule="evenodd" clip-rule="evenodd" d="M13.7905 5.50892C13.7905 8.37869 11.4641 10.7051 8.59437 10.7051C5.7246 10.7051 3.39819 8.37869 3.39819 5.50892C3.39819 2.63915 5.7246 0.312744 8.59437 0.312744C11.4641 0.312744 13.7905 2.63915 13.7905 5.50892ZM8.5943 1.58496C9.00851 1.58496 9.3443 1.92075 9.3443 2.33496V2.65193C9.70135 2.73687 10.0165 2.92997 10.2524 3.19349C10.4042 3.36312 10.5242 3.5629 10.6022 3.78342C10.7402 4.17395 10.5355 4.60245 10.145 4.74048C9.75446 4.87852 9.32597 4.67382 9.18793 4.28329C9.1764 4.25066 9.15834 4.22025 9.13471 4.19386C9.08438 4.13762 9.01361 4.10399 8.934 4.10399H8.59928L8.5943 4.10401L8.58931 4.10399H8.14523C8.05706 4.10399 7.98559 4.17546 7.98559 4.26362C7.98559 4.33864 8.03783 4.40354 8.11111 4.41957L9.31204 4.68227C10.1244 4.85998 10.703 5.57967 10.703 6.41075C10.703 7.24626 10.1236 7.94718 9.3443 8.13233V8.44927C9.3443 8.86348 9.00851 9.19927 8.5943 9.19927C8.18008 9.19927 7.8443 8.86348 7.8443 8.44927V8.13235C7.25732 7.99295 6.78452 7.56114 6.58645 7.00074C6.44841 6.6102 6.65311 6.18171 7.04364 6.04368C7.43418 5.90564 7.86267 6.11033 8.00071 6.50087C8.038 6.60638 8.13867 6.68017 8.25464 6.68017H8.934C9.08223 6.68017 9.20305 6.5597 9.20305 6.41075C9.20305 6.28405 9.11475 6.17458 8.99149 6.14762L7.79057 5.88492C7.02866 5.71825 6.48559 5.04355 6.48559 4.26362C6.48559 3.44979 7.07137 2.77277 7.8443 2.6312V2.33496C7.8443 1.92075 8.18008 1.58496 8.5943 1.58496ZM8.59437 11.9551C8.92088 11.9551 9.24172 11.9309 9.55518 11.884C8.602 13.0198 7.17189 13.7418 5.57313 13.7418C2.70336 13.7418 0.376953 11.4154 0.376953 8.54563C0.376953 6.95638 1.09042 5.53377 2.21454 4.58063C2.17082 4.88376 2.14819 5.19371 2.14819 5.50895C2.14819 9.06908 5.03424 11.9551 8.59437 11.9551Z" fill="black"/>
</g>
<defs>
<clipPath id="clip0_1068_188167">
<rect width="14" height="14" fill="white"/>
</clipPath>
</defs>
</svg>
