<svg width="14" height="14" viewBox="0 0 14 14" fill="none" xmlns="http://www.w3.org/2000/svg">
<g clip-path="url(#clip0_1068_188186)">
<path fill-rule="evenodd" clip-rule="evenodd" d="M14 7C14 10.866 10.866 14 7 14C3.13401 14 0 10.866 0 7C0 3.13401 3.13401 0 7 0C10.866 0 14 3.13401 14 7ZM7.74997 3.25C7.74997 2.83579 7.41418 2.5 6.99997 2.5C6.58576 2.5 6.24997 2.83579 6.24997 3.25V3.7605C5.31317 3.85991 4.58334 4.65262 4.58334 5.61578C4.58334 6.49259 5.19386 7.2511 6.05042 7.43847L7.52351 7.76071C7.75279 7.81086 7.91666 8.01429 7.91666 8.24952C7.91666 8.52601 7.69244 8.74997 7.41666 8.74997H6.58334C6.36681 8.74997 6.1806 8.61191 6.1116 8.41671C5.97357 8.02617 5.54507 7.82148 5.15454 7.95951C4.764 8.09755 4.55931 8.52604 4.69734 8.91657C4.93581 9.59128 5.52648 10.101 6.24997 10.2223V10.75C6.24997 11.1642 6.58576 11.5 6.99997 11.5C7.41418 11.5 7.74997 11.1642 7.74997 10.75V10.2223C8.69613 10.0635 9.41666 9.24023 9.41666 8.24952C9.41666 7.30991 8.76248 6.49626 7.84406 6.29536L6.37096 5.97312C6.20304 5.93638 6.08334 5.78768 6.08334 5.61578C6.08334 5.41377 6.24711 5.25 6.44913 5.25H7.41666C7.56467 5.25 7.69689 5.31336 7.78952 5.41685C7.83302 5.46545 7.86673 5.52195 7.8884 5.58326C8.02643 5.9738 8.45493 6.17849 8.84546 6.04046C9.236 5.90242 9.44069 5.47393 9.30266 5.08339C9.21458 4.83419 9.07893 4.60833 8.90722 4.41648C8.61206 4.0867 8.20721 3.85458 7.74997 3.77772V3.25Z" fill="black"/>
</g>
<defs>
<clipPath id="clip0_1068_188186">
<rect width="14" height="14" fill="white"/>
</clipPath>
</defs>
</svg>
