<svg width="14" height="14" viewBox="0 0 14 14" fill="none" xmlns="http://www.w3.org/2000/svg">
<g clip-path="url(#clip0_1068_188195)">
<path d="M13.25 7.5H12.75V5.75C12.75 4.22501 12.1442 2.76247 11.0659 1.68414C9.98753 0.605802 8.52499 0 7 0C5.47501 0 4.01247 0.605802 2.93414 1.68414C1.8558 2.76247 1.25 4.22501 1.25 5.75V7.5H0.75C0.551088 7.5 0.360322 7.57902 0.21967 7.71967C0.0790176 7.86032 0 8.05109 0 8.25C0 8.44891 0.0790176 8.63968 0.21967 8.78033C0.360322 8.92098 0.551088 9 0.75 9H1C1.0663 9 1.12989 9.02634 1.17678 9.07322C1.22366 9.12011 1.25 9.1837 1.25 9.25V12.25C1.25263 12.7133 1.43784 13.1569 1.76546 13.4845C2.09309 13.8122 2.53668 13.9974 3 14H6C6.0663 14 6.12989 13.9737 6.17678 13.9268C6.22366 13.8799 6.25 13.8163 6.25 13.75V7.75C6.25 7.6837 6.22366 7.62011 6.17678 7.57322C6.12989 7.52634 6.0663 7.5 6 7.5H3C2.9337 7.5 2.87011 7.47366 2.82322 7.42678C2.77634 7.37989 2.75 7.3163 2.75 7.25V5.75C2.75 4.62283 3.19777 3.54183 3.9948 2.7448C4.79183 1.94777 5.87283 1.5 7 1.5C8.12717 1.5 9.20817 1.94777 10.0052 2.7448C10.8022 3.54183 11.25 4.62283 11.25 5.75V7.25C11.25 7.3163 11.2237 7.37989 11.1768 7.42678C11.1299 7.47366 11.0663 7.5 11 7.5H8C7.9337 7.5 7.87011 7.52634 7.82322 7.57322C7.77634 7.62011 7.75 7.6837 7.75 7.75V13.75C7.75 13.8163 7.77634 13.8799 7.82322 13.9268C7.87011 13.9737 7.9337 14 8 14H11C11.4633 13.9974 11.9069 13.8122 12.2345 13.4845C12.5622 13.1569 12.7474 12.7133 12.75 12.25V9.25C12.75 9.1837 12.7763 9.12011 12.8232 9.07322C12.8701 9.02634 12.9337 9 13 9H13.25C13.4489 9 13.6397 8.92098 13.7803 8.78033C13.921 8.63968 14 8.44891 14 8.25C14 8.05109 13.921 7.86032 13.7803 7.71967C13.6397 7.57902 13.4489 7.5 13.25 7.5ZM3.5 10.25C3.5 10.0511 3.57902 9.86032 3.71967 9.71967C3.86032 9.57902 4.05109 9.5 4.25 9.5C4.44891 9.5 4.63968 9.57902 4.78033 9.71967C4.92098 9.86032 5 10.0511 5 10.25V11.25C5 11.4489 4.92098 11.6397 4.78033 11.7803C4.63968 11.921 4.44891 12 4.25 12C4.05109 12 3.86032 11.921 3.71967 11.7803C3.57902 11.6397 3.5 11.4489 3.5 11.25V10.25ZM10.5 11.25C10.5 11.4489 10.421 11.6397 10.2803 11.7803C10.1397 11.921 9.94891 12 9.75 12C9.55109 12 9.36032 11.921 9.21967 11.7803C9.07902 11.6397 9 11.4489 9 11.25V10.25C9 10.0511 9.07902 9.86032 9.21967 9.71967C9.36032 9.57902 9.55109 9.5 9.75 9.5C9.94891 9.5 10.1397 9.57902 10.2803 9.71967C10.421 9.86032 10.5 10.0511 10.5 10.25V11.25Z" fill="black"/>
</g>
<defs>
<clipPath id="clip0_1068_188195">
<rect width="14" height="14" fill="white"/>
</clipPath>
</defs>
</svg>
