<svg width="14" height="14" viewBox="0 0 14 14" fill="none" xmlns="http://www.w3.org/2000/svg">
<g clip-path="url(#clip0_1068_188177)">
<path fill-rule="evenodd" clip-rule="evenodd" d="M14 7C14 10.866 10.866 14 7 14C3.13401 14 0 10.866 0 7C0 3.13401 3.13401 0 7 0C10.866 0 14 3.13401 14 7ZM7 2.5C7.14839 2.5 7.28911 2.56591 7.38411 2.67991L9.88411 5.67991C9.97011 5.78311 10.011 5.91658 9.99747 6.05024C9.98397 6.18391 9.91725 6.30651 9.81235 6.39043L7.31235 8.39043C7.12974 8.53652 6.87026 8.53652 6.68765 8.39043L4.18765 6.39043C4.08275 6.30651 4.01603 6.18391 4.00253 6.05024C3.98903 5.91658 4.02989 5.78311 4.11589 5.67991L6.61589 2.67991C6.71089 2.56591 6.85161 2.5 7 2.5ZM4.89043 8.51196C4.6209 8.29633 4.22759 8.34003 4.01196 8.60957C3.79633 8.8791 3.84003 9.27241 4.10957 9.48804L6.60957 11.488C6.83783 11.6707 7.16217 11.6707 7.39043 11.488L9.89043 9.48804C10.16 9.27241 10.2037 8.8791 9.98804 8.60957C9.77241 8.34003 9.3791 8.29633 9.10957 8.51196L7 10.1996L4.89043 8.51196Z" fill="black"/>
</g>
<defs>
<clipPath id="clip0_1068_188177">
<rect width="14" height="14" fill="white"/>
</clipPath>
</defs>
</svg>
