<svg width="14" height="14" viewBox="0 0 14 14" fill="none" xmlns="http://www.w3.org/2000/svg">
<g clip-path="url(#clip0_1068_188217)">
<path fill-rule="evenodd" clip-rule="evenodd" d="M10.0256 2C10.4601 1.9998 10.8916 2.07241 11.3023 2.21485C11.824 2.39585 12.3938 2.11959 12.5748 1.59781C12.7558 1.07603 12.4795 0.50631 11.9577 0.325307C11.3265 0.106326 10.6625 -0.00364813 9.99442 9.22967e-05C9.98096 0.000167697 9.9675 0.000514715 9.95406 0.00113323C8.16635 0.0833766 6.48393 0.870113 5.27465 2.18932C4.73108 2.78231 4.30299 3.4612 4.00304 4.19135H2C1.44771 4.19135 1 4.63906 1 5.19135C1 5.74363 1.44771 6.19135 2 6.19135H3.51942C3.49671 6.45896 3.48984 6.72898 3.4993 7.00008C3.48984 7.2711 3.4967 7.54105 3.5194 7.80859H2C1.44771 7.80859 1 8.25631 1 8.80859C1 9.36088 1.44771 9.80859 2 9.80859H4.00295C4.3029 10.5388 4.73102 11.2178 5.27465 11.8108C6.48392 13.13 8.16635 13.9168 9.95406 13.999C9.96823 13.9997 9.98242 14 9.99661 14.0001C10.8219 14.0029 11.6389 13.8354 12.3966 13.5081C12.9036 13.289 13.137 12.7005 12.918 12.1935C12.699 11.6865 12.1104 11.453 11.6034 11.6721C11.1048 11.8875 10.5675 11.9991 10.0245 12.0001C8.77294 11.9369 7.59615 11.3836 6.74896 10.4594C6.56241 10.2559 6.39516 10.038 6.24825 9.80859H8C8.55228 9.80859 9 9.36088 9 8.80859C9 8.25631 8.55228 7.80859 8 7.80859H5.52963C5.49905 7.55556 5.48861 7.29892 5.49918 7.04099C5.50029 7.01373 5.50029 6.98643 5.49918 6.95916C5.48861 6.70116 5.49905 6.44445 5.52966 6.19135H8C8.55228 6.19135 9 5.74363 9 5.19135C9 4.63906 8.55228 4.19135 8 4.19135H6.24839C6.39526 3.96202 6.56246 3.74422 6.74896 3.54077C7.59639 2.61629 8.77362 2.06295 10.0256 2Z" fill="black"/>
</g>
<defs>
<clipPath id="clip0_1068_188217">
<rect width="14" height="14" fill="white"/>
</clipPath>
</defs>
</svg>
