<svg width="14" height="14" viewBox="0 0 14 14" fill="none" xmlns="http://www.w3.org/2000/svg">
<g clip-path="url(#clip0_1068_188210)">
<path d="M4.65652 0.625855C4.3067 0.404039 3.8433 0.507803 3.62149 0.857618C3.39967 1.20743 3.50343 1.67083 3.85325 1.89265L4.81103 2.49997H1.5C0.77791 2.49997 0 2.98901 0 3.80558V5.22241C0 5.9843 0.677231 6.46106 1.35446 6.52149C1.3487 6.52324 1.34298 6.52509 1.33731 6.52704H6.375V3.88428H7.625V6.52704H12.6627C12.657 6.52509 12.6513 6.52324 12.6455 6.52149C13.3228 6.46106 14 5.9843 14 5.22241V3.80558C14 2.98901 13.2221 2.49997 12.5 2.49997H9.18901L10.1468 1.89265C10.4966 1.67083 10.6004 1.20743 10.3786 0.857618C10.1567 0.507803 9.69335 0.404039 9.34353 0.625855L7.00002 2.11186L4.65652 0.625855Z" fill="black"/>
<path d="M13 7.77704H7.625V14H11.5C11.8978 14 12.2794 13.8419 12.5607 13.5606C12.842 13.2793 13 12.8978 13 12.5V7.77704Z" fill="black"/>
<path d="M6.375 7.77704H1V12.5C1 12.8978 1.15804 13.2793 1.43934 13.5606C1.72064 13.8419 2.10217 14 2.5 14H6.375V7.77704Z" fill="black"/>
<path d="M9.19687 3.38025H4.69727" stroke="black" stroke-width="1.25" stroke-linecap="round" stroke-linejoin="round"/>
</g>
<defs>
<clipPath id="clip0_1068_188210">
<rect width="14" height="14" fill="white"/>
</clipPath>
</defs>
</svg>
