<svg width="14" height="14" viewBox="0 0 14 14" fill="none" xmlns="http://www.w3.org/2000/svg">
<g clip-path="url(#clip0_1068_188204)">
<path fill-rule="evenodd" clip-rule="evenodd" d="M5.95473 3.39135H3.44824C3.30112 3.20202 3.19339 2.93663 3.17059 2.67886C3.14795 2.42306 3.21163 2.24507 3.3098 2.13623C3.40146 2.03459 3.62625 1.87891 4.17101 1.87891C4.6685 1.87891 5.17931 2.21809 5.6129 2.81981C5.74977 3.00976 5.86332 3.20468 5.95473 3.39135ZM1.67642 2.81106C1.69378 3.00725 1.73277 3.20247 1.79058 3.39135H1.19726C0.644981 3.39135 0.197266 3.83907 0.197266 4.39135V5.27344C0.197266 5.82572 0.644981 6.27344 1.19726 6.27344H12.8008C13.353 6.27344 13.8008 5.82572 13.8008 5.27344V4.39135C13.8008 3.83907 13.353 3.39135 12.8008 3.39135H12.2074C12.2653 3.20247 12.3042 3.00725 12.3216 2.81106C12.3705 2.25883 12.2505 1.62879 11.8021 1.13162C11.3472 0.627231 10.6625 0.378906 9.82703 0.378906C8.62767 0.378906 7.72442 1.17095 7.16818 1.94288C7.10963 2.02414 7.05317 2.10754 6.99902 2.19255C6.94487 2.10754 6.88841 2.02414 6.82986 1.94288C6.27362 1.17095 5.37037 0.378906 4.17101 0.378906C3.33551 0.378906 2.6508 0.627231 2.1959 1.13162C1.74751 1.62879 1.62756 2.25883 1.67642 2.81106ZM8.04331 3.39135H10.5498C10.6969 3.20202 10.8046 2.93663 10.8274 2.67886C10.8501 2.42306 10.7864 2.24507 10.6882 2.13623C10.5966 2.03459 10.3718 1.87891 9.82703 1.87891C9.32954 1.87891 8.81873 2.21809 8.38514 2.81981C8.24827 3.00976 8.13472 3.20468 8.04331 3.39135ZM1.19726 7.52338H6.37402V13.8552H2.15258C1.6003 13.8552 1.15258 13.4075 1.15258 12.8552V7.52295C1.16744 7.52324 1.18234 7.52338 1.19726 7.52338ZM11.8452 13.8552H7.62402V7.52338H12.8008C12.8156 7.52338 12.8304 7.52324 12.8452 7.52295V12.8552C12.8452 13.4075 12.3975 13.8552 11.8452 13.8552Z" fill="black"/>
</g>
<defs>
<clipPath id="clip0_1068_188204">
<rect width="14" height="14" fill="white"/>
</clipPath>
</defs>
</svg>
