<svg width="14" height="14" viewBox="0 0 14 14" fill="none" xmlns="http://www.w3.org/2000/svg">
<g clip-path="url(#clip0_1068_188207)">
<path fill-rule="evenodd" clip-rule="evenodd" d="M8.05728 1.2475H5.97695C5.65305 1.24227 5.33739 1.3501 5.08434 1.55254C4.82984 1.75614 4.6548 2.04254 4.58968 2.36189L4.58886 2.36598L3.85671 6.11601C3.82809 6.26264 3.86652 6.41438 3.9615 6.5297C4.05648 6.64502 4.19805 6.71182 4.34745 6.71182H9.70464C9.85443 6.71182 9.99634 6.64466 10.0913 6.52882C10.1863 6.41297 10.2243 6.26065 10.195 6.11376L9.44492 2.36373L9.44455 2.36189C9.37943 2.04254 9.20439 1.75614 8.94988 1.55254C8.69684 1.3501 8.38118 1.24227 8.05728 1.2475ZM4.26257 8.09854H2.18224C1.85834 8.09331 1.54268 8.20114 1.28964 8.40358C1.03513 8.60718 0.860087 8.89358 0.794969 9.21293L0.794153 9.21702L0.062004 12.9671C0.0333768 13.1137 0.0718154 13.2654 0.166795 13.3807C0.261774 13.4961 0.403343 13.5629 0.552738 13.5629H5.90993C6.05973 13.5629 6.20163 13.4957 6.2966 13.3799C6.39157 13.264 6.4296 13.1117 6.40022 12.9648L5.65022 9.21477L5.64984 9.21293C5.58472 8.89358 5.40968 8.60718 5.15518 8.40358C4.90213 8.20114 4.58647 8.09331 4.26257 8.09854ZM9.77165 8.09854H11.852C12.1759 8.09331 12.4916 8.20114 12.7446 8.40358C12.9991 8.60718 13.1742 8.89358 13.2393 9.21293L13.2397 9.21477L13.9897 12.9648C14.0191 13.1117 13.981 13.264 13.8861 13.3799C13.7911 13.4957 13.6492 13.5629 13.4994 13.5629H8.14216C7.99276 13.5629 7.85119 13.4961 7.75621 13.3807C7.66123 13.2654 7.62279 13.1137 7.65142 12.9671L8.38357 9.21702L8.38437 9.21293C8.44948 8.89358 8.62455 8.60718 8.87905 8.40358C9.1321 8.20114 9.44776 8.09331 9.77165 8.09854Z" fill="black"/>
</g>
<defs>
<clipPath id="clip0_1068_188207">
<rect width="14" height="14" fill="white"/>
</clipPath>
</defs>
</svg>
