<svg width="14" height="14" viewBox="0 0 14 14" fill="none" xmlns="http://www.w3.org/2000/svg">
<g clip-path="url(#clip0_1068_188226)">
<path fill-rule="evenodd" clip-rule="evenodd" d="M9.99716 0.220571C10.2117 0.00532459 10.5349 -0.0591832 10.8156 0.0572207L12.9434 0.93949C13.3245 1.09752 13.5064 1.5337 13.3505 1.91569L12.4824 4.04288C12.3677 4.32393 12.0948 4.50812 11.7913 4.50947C11.4877 4.51083 11.2133 4.32907 11.0961 4.04905L10.7526 3.22836L2.11483 6.92021C1.73395 7.083 1.29321 6.90621 1.13042 6.52532C0.967627 6.14444 1.14442 5.70371 1.52531 5.54091L10.1735 1.84462L9.83652 1.03959C9.71919 0.759251 9.78263 0.435818 9.99716 0.220571ZM12.75 5.47953C13.0152 5.47953 13.2696 5.58488 13.4571 5.77242C13.6446 5.95996 13.75 6.21431 13.75 6.47953V13.4795C13.75 13.7557 13.5261 13.9795 13.25 13.9795H10.75C10.4739 13.9795 10.25 13.7557 10.25 13.4795V6.47953C10.25 6.21431 10.3554 5.95996 10.5429 5.77242C10.7304 5.58488 10.9848 5.47953 11.25 5.47953H12.75ZM8.45711 7.27242C8.26957 7.08488 8.01522 6.97953 7.75 6.97953H6.25C5.98478 6.97953 5.73043 7.08488 5.54289 7.27242C5.35536 7.45996 5.25 7.71431 5.25 7.97953V13.4795C5.25 13.7557 5.47386 13.9795 5.75 13.9795H8.25C8.52614 13.9795 8.75 13.7557 8.75 13.4795V7.97953C8.75 7.71431 8.64464 7.45996 8.45711 7.27242ZM2.75 8.47953C3.01522 8.47953 3.26957 8.58488 3.45711 8.77242C3.64464 8.95996 3.75 9.21431 3.75 9.47953V13.4795C3.75 13.7557 3.52614 13.9795 3.25 13.9795H0.75C0.473858 13.9795 0.25 13.7557 0.25 13.4795V9.47953C0.25 9.21431 0.355356 8.95996 0.542893 8.77242C0.73043 8.58488 0.984785 8.47953 1.25 8.47953H2.75Z" fill="black"/>
</g>
<defs>
<clipPath id="clip0_1068_188226">
<rect width="14" height="14" fill="white"/>
</clipPath>
</defs>
</svg>
