<svg width="14" height="14" viewBox="0 0 14 14" fill="none" xmlns="http://www.w3.org/2000/svg">
<path fill-rule="evenodd" clip-rule="evenodd" d="M1.89852 10.7777C1.50799 11.1682 0.874824 11.1682 0.4843 10.7777C0.0937752 10.3871 0.0937752 9.754 0.4843 9.36348L3.81676 6.03103L3.82386 6.02399C4.09613 5.75712 4.46217 5.60764 4.84341 5.60764C5.22466 5.60764 5.5907 5.75712 5.86296 6.02399L5.87007 6.03103L7.57124 7.7322L9.91794 5.24975L8.87809 4.2099C8.66358 3.9954 8.59943 3.67281 8.71551 3.39256C8.8316 3.1123 9.10507 2.92957 9.40842 2.92957H13.0604C13.4746 2.92957 13.8104 3.26536 13.8104 3.67957V7.33157C13.8104 7.63492 13.6277 7.9084 13.3474 8.02448C13.0672 8.14057 12.7446 8.0764 12.5301 7.8619L11.3327 6.66452L8.62866 9.52499C8.61994 9.53422 8.61104 9.54329 8.60197 9.55218C8.32971 9.81905 7.96366 9.96853 7.58242 9.96853C7.20117 9.96853 6.83513 9.81905 6.56287 9.55218L6.55576 9.54514L4.84341 7.8328L1.89852 10.7777Z" fill="black"/>
</svg>
