<svg width="14" height="14" viewBox="0 0 14 14" fill="none" xmlns="http://www.w3.org/2000/svg">
<g clip-path="url(#clip0_1068_188248)">
<path fill-rule="evenodd" clip-rule="evenodd" d="M1.5 0.75C1.5 0.335786 1.16421 0 0.75 0C0.335786 0 0 0.335786 0 0.75V9.42379V13.25C0 13.6642 0.335786 14 0.75 14H13.25C13.6642 14 14 13.6642 14 13.25C14 12.8358 13.6642 12.5 13.25 12.5H1.5V9.72028L3.7024 7.36833C3.99334 7.53376 4.32987 7.62824 4.68848 7.62824C5.14201 7.62824 5.56024 7.47712 5.89557 7.22248L7.31902 8.55012C7.25299 8.74879 7.21724 8.96129 7.21724 9.18213C7.21724 10.2881 8.11378 11.1846 9.21973 11.1846C10.3257 11.1846 11.2222 10.2881 11.2222 9.18213C11.2222 8.66581 11.0268 8.19514 10.7059 7.84002L10.7079 7.8347L11.8665 4.65234C12.8869 4.56227 13.687 3.70539 13.687 2.66162C13.687 1.55786 12.7922 0.663086 11.6885 0.663086C10.5847 0.663086 9.68994 1.55786 9.68994 2.66162C9.68994 3.28831 9.97839 3.84762 10.4298 4.21405L9.34856 7.18372C9.30597 7.18101 9.26301 7.17964 9.21973 7.17964C8.88511 7.17964 8.56966 7.26171 8.29242 7.40683L6.74886 5.96716C6.7231 5.94314 6.6961 5.92128 6.66809 5.90157C6.68012 5.81289 6.68634 5.72236 6.68634 5.63037C6.68634 4.52698 5.79187 3.63251 4.68848 3.63251C3.58509 3.63251 2.69061 4.52698 2.69061 5.63037C2.69061 5.81938 2.71686 6.00225 2.7659 6.17555C2.75597 6.18505 2.74624 6.19489 2.73673 6.20505L1.5 7.52575V0.75Z" fill="black"/>
</g>
<defs>
<clipPath id="clip0_1068_188248">
<rect width="14" height="14" fill="white"/>
</clipPath>
</defs>
</svg>
