<svg width="14" height="14" viewBox="0 0 14 14" fill="none" xmlns="http://www.w3.org/2000/svg">
<g clip-path="url(#clip0_1068_188201)">
<path fill-rule="evenodd" clip-rule="evenodd" d="M1.57422 0.898315C1.57422 0.484102 1.23843 0.148315 0.824219 0.148315C0.410005 0.148315 0.0742188 0.484102 0.0742188 0.898315V13.1016C0.0742188 13.5159 0.410005 13.8516 0.824219 13.8516H13.0276C13.4418 13.8516 13.7776 13.5159 13.7776 13.1016C13.7776 12.6874 13.4418 12.3516 13.0276 12.3516H1.57422V0.898315ZM10.2216 2.43126C10.0012 2.27386 9.72642 2.21256 9.46005 2.26138C9.19368 2.3102 8.9585 2.46497 8.80828 2.69029L5.73004 7.30766L4.24578 5.8234C3.85525 5.43287 3.22209 5.43287 2.83156 5.8234C2.44104 6.21392 2.44104 6.84709 2.83156 7.23761L5.17836 9.5844C5.3902 9.79625 5.68586 9.90195 5.984 9.87243C6.28213 9.84291 6.55133 9.68127 6.71751 9.432L9.8995 4.65902L12.3446 6.40552C12.7941 6.72653 13.4186 6.62244 13.7396 6.17303C14.0606 5.72361 13.9565 5.09906 13.5071 4.77805L10.2216 2.43126Z" fill="black"/>
</g>
<defs>
<clipPath id="clip0_1068_188201">
<rect width="14" height="14" fill="white"/>
</clipPath>
</defs>
</svg>
