<svg width="14" height="14" viewBox="0 0 14 14" fill="none" xmlns="http://www.w3.org/2000/svg">
<path fill-rule="evenodd" clip-rule="evenodd" d="M1.89852 3.2224C1.50799 2.83187 0.874824 2.83187 0.4843 3.2224C0.0937752 3.61292 0.0937752 4.24609 0.4843 4.63661L3.81676 7.96906L3.82386 7.9761C4.09613 8.24297 4.46217 8.39245 4.84341 8.39245C5.22466 8.39245 5.5907 8.24297 5.86296 7.9761L5.87007 7.96906L7.57124 6.26789L9.91794 8.75034L8.87809 9.79019C8.66358 10.0047 8.59943 10.3273 8.71551 10.6075C8.8316 10.8878 9.10507 11.0705 9.40842 11.0705H13.0604C13.4746 11.0705 13.8104 10.7347 13.8104 10.3205V6.66852C13.8104 6.36517 13.6277 6.09169 13.3474 5.97561C13.0672 5.85952 12.7446 5.92369 12.5301 6.13819L11.3327 7.33557L8.62866 4.4751C8.61994 4.46587 8.61104 4.4568 8.60197 4.44791C8.32971 4.18104 7.96366 4.03156 7.58242 4.03156C7.20117 4.03156 6.83513 4.18104 6.56287 4.44791L6.55576 4.45495L4.84341 6.16729L1.89852 3.2224Z" fill="black"/>
</svg>
