<svg width="14" height="14" viewBox="0 0 14 14" fill="none" xmlns="http://www.w3.org/2000/svg">
<g clip-path="url(#clip0_1068_188229)">
<path fill-rule="evenodd" clip-rule="evenodd" d="M1.31491 0.606416C1.48347 0.228052 1.92684 0.0579732 2.30521 0.226535L10.8962 4.05385L11.2573 3.25948C11.3831 2.98281 11.6633 2.80939 11.9671 2.82031C12.2708 2.83124 12.5378 3.02436 12.6434 3.30934L13.4434 5.46934C13.5867 5.85624 13.3906 6.28622 13.0045 6.43167L10.8545 7.24167C10.5704 7.34869 10.2499 7.27393 10.0425 7.05228C9.83505 6.83064 9.7817 6.50582 9.90731 6.22948L10.2755 5.41944L1.69479 1.59671C1.31643 1.42815 1.14635 0.984781 1.31491 0.606416ZM1.25 5.5C0.984783 5.5 0.730429 5.60536 0.542893 5.7929C0.355357 5.98043 0.25 6.23479 0.25 6.5V13.5C0.25 13.7761 0.473858 14 0.75 14H3.25C3.52614 14 3.75 13.7761 3.75 13.5V6.5C3.75 6.23479 3.64464 5.98043 3.45711 5.7929C3.26957 5.60536 3.01522 5.5 2.75 5.5H1.25ZM5.54289 7.2929C5.73043 7.10536 5.98478 7 6.25 7H7.75C8.01522 7 8.26957 7.10536 8.45711 7.2929C8.64464 7.48043 8.75 7.73479 8.75 8V13.5C8.75 13.7761 8.52614 14 8.25 14H5.75C5.47386 14 5.25 13.7761 5.25 13.5V8C5.25 7.73479 5.35536 7.48043 5.54289 7.2929ZM11.25 8.5C10.9848 8.5 10.7304 8.60536 10.5429 8.7929C10.3554 8.98043 10.25 9.23479 10.25 9.5V13.5C10.25 13.7761 10.4739 14 10.75 14H13.25C13.5261 14 13.75 13.7761 13.75 13.5V9.5C13.75 9.23479 13.6446 8.98043 13.4571 8.7929C13.2696 8.60536 13.0152 8.5 12.75 8.5H11.25Z" fill="black"/>
</g>
<defs>
<clipPath id="clip0_1068_188229">
<rect width="14" height="14" fill="white"/>
</clipPath>
</defs>
</svg>
