<svg width="14" height="14" viewBox="0 0 14 14" fill="none" xmlns="http://www.w3.org/2000/svg">
<g clip-path="url(#clip0_1068_188244)">
<path d="M7.5 13.4988V8.24878C7.5 7.91726 7.6317 7.59932 7.86612 7.3649C8.10054 7.13048 8.41848 6.99878 8.75 6.99878C9.08152 6.99878 9.39946 7.13048 9.63388 7.3649C9.8683 7.59932 10 7.91726 10 8.24878V10.9988H12C12.5304 10.9988 13.0391 11.2095 13.4142 11.5846C13.7893 11.9596 14 12.4683 14 12.9988V13.4988" fill="black"/>
<path fill-rule="evenodd" clip-rule="evenodd" d="M0.03125 4.42439C0.03125 1.98154 2.01157 0.0012207 4.45442 0.0012207C6.89727 0.0012207 8.87759 1.98154 8.87759 4.42439C8.87759 4.88617 8.80683 5.33142 8.67556 5.74989C8.03952 5.76882 7.4335 6.02975 6.98223 6.48101C6.51339 6.94985 6.25 7.58574 6.25 8.24878V8.46792C5.70128 8.71195 5.09369 8.84756 4.45442 8.84756C2.01157 8.84756 0.03125 6.86724 0.03125 4.42439ZM4.45443 1.18555C4.7996 1.18555 5.07943 1.46537 5.07943 1.81055V2.09449C5.38654 2.16476 5.65774 2.3295 5.85998 2.55545C5.98841 2.69894 6.0899 2.86792 6.15583 3.05443C6.27086 3.37988 6.10028 3.73696 5.77483 3.85198C5.44938 3.96701 5.09231 3.79644 4.97728 3.47099C4.9667 3.44106 4.95015 3.41322 4.92856 3.3891C4.88257 3.33771 4.81772 3.30684 4.74483 3.30684H4.45677L4.45443 3.30685L4.45209 3.30684H4.07041C3.98605 3.30684 3.91766 3.37523 3.91766 3.45959C3.91766 3.53138 3.96765 3.59348 4.03777 3.60882L5.06459 3.83343C5.75173 3.98374 6.24113 4.59248 6.24113 5.29542C6.24113 6.00656 5.7449 6.60242 5.07943 6.75448V7.03833C5.07943 7.3835 4.7996 7.66333 4.45443 7.66333C4.10925 7.66333 3.82943 7.3835 3.82943 7.03833V6.75452C3.32716 6.63982 2.92191 6.27245 2.75297 5.79446C2.63794 5.46901 2.80852 5.11193 3.13396 4.9969C3.45941 4.88187 3.81649 5.05245 3.93152 5.3779C3.96563 5.4744 4.0577 5.54204 4.16396 5.54204H4.44962L4.45443 5.54203L4.45924 5.54204H4.74483C4.88056 5.54204 4.99113 5.43175 4.99113 5.29542C4.99113 5.17946 4.91032 5.07924 4.79746 5.05456L3.77065 4.82994C3.12667 4.68907 2.66766 4.1188 2.66766 3.45959C2.66766 2.76705 3.16954 2.19172 3.82943 2.07746V1.81055C3.82943 1.46537 4.10925 1.18555 4.45443 1.18555ZM7.5 8.24878V13.9988H14V12.9988C14 12.4683 13.7893 11.9596 13.4142 11.5846C13.0391 11.2095 12.5304 10.9988 12 10.9988H10V8.24878C10 7.91726 9.8683 7.59932 9.63388 7.3649C9.39946 7.13048 9.08152 6.99878 8.75 6.99878C8.41848 6.99878 8.10054 7.13048 7.86612 7.3649C7.6317 7.59932 7.5 7.91726 7.5 8.24878Z" fill="black"/>
</g>
<defs>
<clipPath id="clip0_1068_188244">
<rect width="14" height="14" fill="white"/>
</clipPath>
</defs>
</svg>
