<svg width="14" height="14" viewBox="0 0 14 14" fill="none" xmlns="http://www.w3.org/2000/svg">
<path fill-rule="evenodd" clip-rule="evenodd" d="M7.74912 2.30566C7.74912 1.89145 7.41333 1.55566 6.99912 1.55566C6.58491 1.55566 6.24912 1.89145 6.24912 2.30566V3.43341H3.24365H1.83536C1.42115 3.43341 1.08536 3.7692 1.08536 4.18341C1.08536 4.59762 1.42115 4.93341 1.83536 4.93341H2.15551L0.195583 10.0803C0.163122 10.1655 0.146484 10.256 0.146484 10.3472C0.146484 11.1686 0.472791 11.9564 1.05363 12.5372C1.63446 13.118 2.42223 13.4443 3.24365 13.4443C4.06507 13.4443 4.85285 13.118 5.43368 12.5372C6.01451 11.9564 6.34081 11.1686 6.34081 10.3472C6.34081 10.256 6.32418 10.1655 6.29172 10.0803L4.33179 4.93341H9.66644L7.70651 10.0803C7.67405 10.1655 7.65741 10.256 7.65741 10.3472C7.65741 11.1686 7.98372 11.9564 8.56455 12.5372C9.14538 13.118 9.93316 13.4443 10.7545 13.4443C11.5759 13.4443 12.3637 13.118 12.9446 12.5372C13.5254 11.9564 13.8517 11.1686 13.8517 10.3472C13.8517 10.256 13.8351 10.1655 13.8026 10.0803L11.8427 4.93341H12.1628C12.577 4.93341 12.9128 4.59762 12.9128 4.18341C12.9128 3.7692 12.577 3.43341 12.1628 3.43341H10.7545H7.74912V2.30566ZM4.65607 10L3.24365 6.29091L1.83123 10H4.65607ZM10.7545 6.29091L12.1669 10H9.34216L10.7545 6.29091Z" fill="black"/>
</svg>
