<svg width="14" height="14" viewBox="0 0 14 14" fill="none" xmlns="http://www.w3.org/2000/svg">
<g clip-path="url(#clip0_1068_188232)">
<path fill-rule="evenodd" clip-rule="evenodd" d="M3.8779 6.26556C3.29212 5.67978 3.29212 4.73003 3.8779 4.14424L7.46293 0.559213C8.04872 -0.0265737 8.99847 -0.0265735 9.58426 0.559213L11.1681 2.14313C11.7539 2.72892 11.7539 3.67867 11.1681 4.26445L9.91122 5.52141L13.6998 9.30998C13.9927 9.60287 13.9927 10.0777 13.6998 10.3706C13.4069 10.6635 12.932 10.6635 12.6391 10.3706L8.85056 6.58207L7.58314 7.84948C6.99736 8.43527 6.04761 8.43527 5.46182 7.84948L3.8779 6.26556ZM1.33203 12.3801H0.832031C0.417818 12.3801 0.0820312 12.7159 0.0820312 13.1301C0.0820312 13.5443 0.417818 13.8801 0.832031 13.8801H8.33203C8.74624 13.8801 9.08203 13.5443 9.08203 13.1301C9.08203 12.7159 8.74624 12.3801 8.33203 12.3801H7.83203V10.6301C7.83203 10.354 7.60817 10.1301 7.33203 10.1301H1.83203C1.55589 10.1301 1.33203 10.354 1.33203 10.6301V12.3801Z" fill="black"/>
</g>
<defs>
<clipPath id="clip0_1068_188232">
<rect width="14" height="14" fill="white"/>
</clipPath>
</defs>
</svg>
