<svg width="14" height="14" viewBox="0 0 14 14" fill="none" xmlns="http://www.w3.org/2000/svg">
<g clip-path="url(#clip0_1068_188238)">
<path fill-rule="evenodd" clip-rule="evenodd" d="M12.8642 0.56654C13.0356 0.943626 12.8688 1.38826 12.4917 1.55967L11.748 1.89776L13.8125 6.70412C13.8527 6.79764 13.8734 6.89835 13.8734 7.00013C13.8734 7.82365 13.5463 8.61345 12.964 9.19577C12.3816 9.77809 11.5918 10.1052 10.7683 10.1052C9.94484 10.1052 9.15505 9.77809 8.57273 9.19577C7.99041 8.61345 7.66326 7.82365 7.66326 7.00013C7.66326 6.89835 7.68398 6.79764 7.72415 6.70412L9.31338 3.0044L7.3251 3.90816C7.31525 3.9129 7.30529 3.91743 7.29521 3.92175L4.19635 5.33032L6.28242 10.4871C6.31857 10.5764 6.33715 10.6719 6.33715 10.7683C6.33715 11.5919 6.01001 12.3817 5.42769 12.964C4.84537 13.5463 4.05557 13.8734 3.23205 13.8734C2.40853 13.8734 1.61873 13.5463 1.03641 12.964C0.454097 12.3817 0.126953 11.5919 0.126953 10.7683C0.126953 10.6719 0.145537 10.5764 0.181687 10.4871L1.86087 6.33612C1.56107 6.35281 1.26795 6.18725 1.13622 5.89745C0.964822 5.52036 1.13156 5.07572 1.50864 4.90432L6.25021 2.74906V0.876893C6.25021 0.462679 6.586 0.126893 7.00021 0.126893C7.41442 0.126893 7.75021 0.462679 7.75021 0.876893V2.06724L10.4142 0.856327C10.4429 0.840927 10.4727 0.827379 10.5033 0.815801L11.871 0.194118C12.2481 0.0227148 12.6928 0.189454 12.8642 0.56654ZM12.174 6.69012L10.7683 3.41772L9.3627 6.69012H12.174ZM3.23205 6.94649L1.82765 10.4182H4.63644L3.23205 6.94649Z" fill="black"/>
</g>
<defs>
<clipPath id="clip0_1068_188238">
<rect width="14" height="14" fill="white"/>
</clipPath>
</defs>
</svg>
