<svg width="14" height="14" viewBox="0 0 14 14" fill="none" xmlns="http://www.w3.org/2000/svg">
<g clip-path="url(#clip0_1068_188251)">
<path fill-rule="evenodd" clip-rule="evenodd" d="M11.4952 5.65621L11.4056 5.56671L13.0262 3.97713C13.1171 3.88544 13.1891 3.7767 13.2379 3.65715C13.2868 3.5376 13.3115 3.40958 13.3108 3.28044V1.15111C13.3098 0.957385 13.2515 0.76828 13.1432 0.607628C13.035 0.446977 12.8816 0.321966 12.7024 0.248352C12.5237 0.173208 12.3267 0.152677 12.1364 0.189351C11.946 0.226025 11.7708 0.318259 11.6328 0.454417L8.96312 3.12414L8.83356 2.99458C8.69291 2.85393 8.50215 2.77491 8.30324 2.77491C8.10432 2.77491 7.91356 2.85393 7.77291 2.99458L5.71459 5.0529L5.64757 4.98589C5.54822 4.88653 5.41347 4.83072 5.27296 4.83072C5.13246 4.83072 4.99771 4.88653 4.89835 4.98589L1.16521 8.71903L1.1641 8.72015C0.858841 9.02723 0.6875 9.44263 0.6875 9.87562C0.6875 10.3086 0.85884 10.724 1.1641 11.0311L3.48343 13.3504L3.48455 13.3516C3.79163 13.6568 4.20703 13.8282 4.64002 13.8282C5.07302 13.8282 5.48842 13.6568 5.7955 13.3516L5.79662 13.3504L9.52976 9.61729C9.73665 9.4104 9.73665 9.07496 9.52976 8.86807L9.43688 8.77519L11.4952 6.71687C11.788 6.42398 11.788 5.9491 11.4952 5.65621ZM8.35251 7.69082L9.83203 6.2113L8.27849 4.65776L6.79897 6.13728L8.35251 7.69082Z" fill="black"/>
</g>
<defs>
<clipPath id="clip0_1068_188251">
<rect width="14" height="14" fill="white"/>
</clipPath>
</defs>
</svg>
