<svg width="14" height="14" viewBox="0 0 14 14" fill="none" xmlns="http://www.w3.org/2000/svg">
<g clip-path="url(#clip0_1068_188266)">
<path fill-rule="evenodd" clip-rule="evenodd" d="M13.1271 6.89438L9.46852 8.60171C9.44453 8.57299 9.41904 8.54508 9.39207 8.51811L5.62152 4.74756C5.60483 4.73087 5.58778 4.71475 5.57041 4.6992L7.27634 1.04363C7.56981 0.414768 8.39893 0.268698 8.88963 0.759405L9.47673 1.3465L8.13532 3.12378C7.92737 3.39929 7.98215 3.79121 8.25766 3.99915C8.53317 4.2071 8.92509 4.15232 9.13304 3.87681L10.3692 2.23897L11.9884 3.85821L10.3679 4.88344C10.0762 5.06799 9.98935 5.45406 10.1739 5.74577C10.3584 6.03747 10.7445 6.12434 11.0362 5.93979L12.8944 4.76419L13.4113 5.28109C13.902 5.77179 13.7559 6.60091 13.1271 6.89438ZM8.50795 9.40199L4.7374 5.63144L1.12075 9.24809C0.0795412 10.2893 0.079541 11.9774 1.12075 13.0186C2.16196 14.0599 3.85009 14.0599 4.8913 13.0186L8.50795 9.40199Z" fill="black"/>
</g>
<defs>
<clipPath id="clip0_1068_188266">
<rect width="14" height="14" fill="white"/>
</clipPath>
</defs>
</svg>
