<svg width="14" height="14" viewBox="0 0 14 14" fill="none" xmlns="http://www.w3.org/2000/svg">
<path d="M7.00089 8.39032C7.4257 9.09726 8.07066 9.64534 8.83687 9.95054C9.60308 10.2557 10.4482 10.3012 11.2428 10.08C12.0373 9.85871 12.7373 9.38297 13.2355 8.72569C13.5733 8.28002 13.8057 7.76756 13.9198 7.22668C13.9956 6.86726 13.6157 6.62057 13.2652 6.73039C12.8063 6.87414 12.3297 6.95818 11.847 6.97955C10.7701 6.97955 11.2224 4.37341 9.69319 3.86725C9.20016 3.73563 8.67878 3.75679 8.19804 3.92793C7.71729 4.09908 7.29984 4.41214 7.00089 4.82571C6.70195 4.41214 6.28449 4.09908 5.80375 3.92793C5.323 3.75679 4.80162 3.73563 4.30859 3.86725C2.77936 4.37341 3.23167 6.97955 2.15475 6.97955C1.67213 6.95818 1.19549 6.87414 0.736618 6.73039C0.386086 6.62057 0.00621875 6.86726 0.0820231 7.22668C0.196097 7.76756 0.428458 8.28002 0.766257 8.72569C1.26445 9.38297 1.96448 9.85871 2.75901 10.08C3.55354 10.3012 4.3987 10.2557 5.16491 9.95054C5.93112 9.64534 6.57608 9.09726 7.00089 8.39032Z" fill="black"/>
</svg>
