<svg width="14" height="14" viewBox="0 0 14 14" fill="none" xmlns="http://www.w3.org/2000/svg">
<path fill-rule="evenodd" clip-rule="evenodd" d="M13.7214 6.86523C13.67 6.73845 13.6043 6.58829 13.5231 6.42331C13.2899 5.9493 12.9147 5.32527 12.3559 4.78448C11.7913 4.23806 11.0251 3.76442 10.0318 3.64081C9.13587 3.5293 8.12646 3.71146 6.99939 4.27448C5.87232 3.71146 4.86292 3.5293 3.96695 3.6408C2.97368 3.76441 2.20742 4.23803 1.64282 4.78445C1.08403 5.32524 0.708878 5.94926 0.475608 6.42326C0.394403 6.58827 0.328764 6.73844 0.277344 6.86523H13.7214ZM0.334067 8.11523C0.394546 8.21626 0.472442 8.33953 0.568646 8.47896C0.825587 8.85134 1.21678 9.34432 1.76032 9.83733C2.85405 10.8294 4.56503 11.8191 6.99939 11.8191C9.43375 11.8191 11.1447 10.8294 12.2384 9.83736C12.782 9.34435 13.1732 8.85139 13.4301 8.47901C13.5263 8.33956 13.6042 8.21627 13.6647 8.11523H0.334067Z" fill="black"/>
</svg>
