<svg width="14" height="14" viewBox="0 0 14 14" fill="none" xmlns="http://www.w3.org/2000/svg">
<path fill-rule="evenodd" clip-rule="evenodd" d="M3.24896 1.57994C4.3093 0.718057 5.63406 0.247559 7.00051 0.247559C8.36695 0.247559 9.69172 0.718057 10.7521 1.57994C11.8124 2.44182 12.5436 3.64252 12.8228 4.98013C13.102 6.31775 12.9121 7.7107 12.285 8.92477C11.8104 9.84364 11.1073 10.6176 10.2505 11.1766V10.7501C10.2505 10.3326 10.1015 9.93352 9.83742 9.62088C10.2952 9.24176 10.6757 8.772 10.9523 8.23641C11.4212 7.32853 11.5632 6.28687 11.3545 5.2866C11.1457 4.28632 10.5989 3.38844 9.80593 2.74392C9.013 2.0994 8.02233 1.74756 7.00051 1.74756C5.97868 1.74756 4.98801 2.0994 4.19508 2.74392C3.40216 3.38844 2.85533 4.28632 2.64656 5.2866C2.43779 6.28687 2.57981 7.32853 3.04873 8.23641C3.32536 8.77199 3.7058 9.24175 4.16357 9.62087C3.89951 9.93351 3.75049 10.3326 3.75049 10.7501V11.1766C2.89369 10.6176 2.19059 9.84363 1.716 8.92477C1.08894 7.7107 0.899027 6.31775 1.1782 4.98013C1.45738 3.64252 2.18862 2.44182 3.24896 1.57994ZM8.80049 10.3501C8.92639 10.4445 9.00049 10.5927 9.00049 10.7501V12.2501C9.00049 12.4075 8.92639 12.5557 8.80049 12.6501L7.30049 13.7751C7.12271 13.9085 6.87827 13.9085 6.70049 13.7751L5.20049 12.6501C5.07459 12.5557 5.00049 12.4075 5.00049 12.2501V10.7501C5.00049 10.5927 5.07459 10.4445 5.20049 10.3501L6.70049 9.22512C6.87827 9.09179 7.12271 9.09179 7.30049 9.22512L8.80049 10.3501Z" fill="black"/>
</svg>
