<svg width="14" height="14" viewBox="0 0 14 14" fill="none" xmlns="http://www.w3.org/2000/svg">
<g clip-path="url(#clip0_1068_188260)">
<path fill-rule="evenodd" clip-rule="evenodd" d="M1.5 0C0.671573 0 0 0.671573 0 1.5V7.5C0 8.32843 0.671573 9 1.5 9H12.5C13.3284 9 14 8.32843 14 7.5V1.5C14 0.671573 13.3284 0 12.5 0H1.5ZM7.62498 1.45416C7.62498 1.10898 7.34516 0.829163 6.99998 0.829163C6.6548 0.829163 6.37498 1.10898 6.37498 1.45416V1.85464C5.61295 1.94264 5.0213 2.59009 5.0213 3.37572C5.0213 4.09532 5.52236 4.71784 6.22534 4.87162L7.42183 5.13335C7.60079 5.1725 7.72871 5.33128 7.72871 5.51491C7.72871 5.73076 7.55368 5.90557 7.33843 5.90557H6.66158C6.49263 5.90557 6.34722 5.79786 6.29335 5.64543C6.17832 5.31999 5.82124 5.14941 5.49579 5.26444C5.17035 5.37947 4.99977 5.73654 5.1148 6.06199C5.30893 6.61123 5.78762 7.02715 6.37498 7.13062V7.54587C6.37498 7.89105 6.6548 8.17087 6.99998 8.17087C7.34516 8.17087 7.62498 7.89105 7.62498 7.54587V7.13061C8.39446 6.995 8.97871 6.32283 8.97871 5.51491C8.97871 4.7443 8.4422 4.077 7.68896 3.91223L6.49247 3.65049C6.36334 3.62225 6.2713 3.5079 6.2713 3.37572C6.2713 3.22038 6.39723 3.09445 6.55257 3.09445H7.33843C7.45396 3.09445 7.55713 3.14385 7.62948 3.2247C7.66346 3.26266 7.68977 3.30677 7.70667 3.35458C7.8217 3.68003 8.17877 3.85061 8.50422 3.73558C8.82967 3.62055 9.00025 3.26347 8.88522 2.93802C8.81297 2.73363 8.70172 2.54839 8.5609 2.39105C8.32168 2.12378 7.99458 1.9347 7.62498 1.86946V1.45416ZM2.75 3.75C3.16421 3.75 3.5 4.08579 3.5 4.5C3.5 4.91421 3.16421 5.25 2.75 5.25C2.33579 5.25 2 4.91421 2 4.5C2 4.08579 2.33579 3.75 2.75 3.75ZM11.25 3.75C11.6642 3.75 12 4.08579 12 4.5C12 4.91421 11.6642 5.25 11.25 5.25C10.8358 5.25 10.5 4.91421 10.5 4.5C10.5 4.08579 10.8358 3.75 11.25 3.75ZM4.5 9.875C4.84518 9.875 5.125 10.1548 5.125 10.5V12.5C5.125 12.8452 4.84518 13.125 4.5 13.125C4.15482 13.125 3.875 12.8452 3.875 12.5V10.5C3.875 10.1548 4.15482 9.875 4.5 9.875ZM10.125 10.5C10.125 10.1548 9.84518 9.875 9.5 9.875C9.15482 9.875 8.875 10.1548 8.875 10.5V12.5C8.875 12.8452 9.15482 13.125 9.5 13.125C9.84518 13.125 10.125 12.8452 10.125 12.5V10.5ZM7.625 11.25C7.625 10.9048 7.34518 10.625 7 10.625C6.65482 10.625 6.375 10.9048 6.375 11.25V13.25C6.375 13.5952 6.65482 13.875 7 13.875C7.34518 13.875 7.625 13.5952 7.625 13.25V11.25Z" fill="black"/>
</g>
<defs>
<clipPath id="clip0_1068_188260">
<rect width="14" height="14" fill="white"/>
</clipPath>
</defs>
</svg>
