<svg width="14" height="14" viewBox="0 0 14 14" fill="none" xmlns="http://www.w3.org/2000/svg">
<g clip-path="url(#clip0_1068_188269)">
<path fill-rule="evenodd" clip-rule="evenodd" d="M0 1.44991C0 0.625245 0.696096 0 1.5 0H12.5C13.3039 0 14 0.625245 14 1.44991V7.05009C14 7.87475 13.3039 8.5 12.5 8.5H1.5C0.696096 8.5 0 7.87475 0 7.05009V1.44991ZM9 4.25C9 5.35457 8.10457 6.25 7 6.25C5.89543 6.25 5 5.35457 5 4.25C5 3.14543 5.89543 2.25 7 2.25C8.10457 2.25 9 3.14543 9 4.25ZM3.5 4.5C3.5 4.08579 3.16421 3.75 2.75 3.75C2.33579 3.75 2 4.08579 2 4.5C2 4.91421 2.33579 5.25 2.75 5.25C3.16421 5.25 3.5 4.91421 3.5 4.5ZM11.25 3.75C11.6642 3.75 12 4.08579 12 4.5C12 4.91421 11.6642 5.25 11.25 5.25C10.8358 5.25 10.5 4.91421 10.5 4.5C10.5 4.08579 10.8358 3.75 11.25 3.75Z" fill="black"/>
<path fill-rule="evenodd" clip-rule="evenodd" d="M5.125 10.5C5.125 10.1548 4.84518 9.875 4.5 9.875C4.15482 9.875 3.875 10.1548 3.875 10.5V12.5C3.875 12.8452 4.15482 13.125 4.5 13.125C4.84518 13.125 5.125 12.8452 5.125 12.5V10.5ZM9.5 9.875C9.84518 9.875 10.125 10.1548 10.125 10.5V12.5C10.125 12.8452 9.84518 13.125 9.5 13.125C9.15482 13.125 8.875 12.8452 8.875 12.5V10.5C8.875 10.1548 9.15482 9.875 9.5 9.875ZM7 10.625C7.34518 10.625 7.625 10.9048 7.625 11.25V13.25C7.625 13.5952 7.34518 13.875 7 13.875C6.65482 13.875 6.375 13.5952 6.375 13.25V11.25C6.375 10.9048 6.65482 10.625 7 10.625Z" fill="black"/>
</g>
<defs>
<clipPath id="clip0_1068_188269">
<rect width="14" height="14" fill="white"/>
</clipPath>
</defs>
</svg>
