<svg width="14" height="14" viewBox="0 0 14 14" fill="none" xmlns="http://www.w3.org/2000/svg">
<g clip-path="url(#clip0_1068_188297)">
<path fill-rule="evenodd" clip-rule="evenodd" d="M7.34893 2.08068C8.05807 0.704096 9.53028 0.351223 10.3016 0.386085C10.8548 0.411085 11.104 0.902274 11.104 1.27665V3.03008C11.8045 3.38223 12.273 3.85167 12.5605 4.43675C12.844 5.01364 12.93 5.66156 12.9451 6.32575L13.6401 6.89662C13.7557 6.99159 13.8227 7.13336 13.8227 7.28298V9.50173C13.8227 9.57453 13.8068 9.64646 13.7761 9.71248C13.2284 10.8908 12.2573 11.5275 11.104 11.9793V12.6164C11.104 13.1686 10.6563 13.6164 10.104 13.6164H8.3541C7.80181 13.6164 7.3541 13.1686 7.3541 12.6164V12.132H5.21347V12.5382C5.21347 13.0905 4.76576 13.5382 4.21347 13.5382H2.44781C1.89618 13.5382 1.44774 13.0917 1.4478 12.5386C1.44786 11.9757 1.44793 11.1031 1.44778 10.8216C1.4395 10.7934 1.42729 10.7543 1.4103 10.7009L1.39036 10.6383C1.3549 10.5272 1.30862 10.3822 1.25789 10.2133L1.25343 10.1984C0.910103 9.05506 0.27256 6.93187 1.18618 4.90699C1.25421 4.7562 1.33066 4.60856 1.41611 4.46481C0.943774 4.09099 0.470273 3.56308 0.20758 2.85912C0.0869005 2.53573 0.251234 2.17573 0.574629 2.05505C0.898024 1.93437 1.25802 2.09871 1.3787 2.4221C1.54289 2.86212 1.85375 3.22046 2.20694 3.49654C2.52151 3.2111 2.89457 2.95806 3.33378 2.74761C4.33085 2.26985 5.64407 2.02295 7.34893 2.08068ZM7.37549 4.90198C7.37549 5.24716 7.09567 5.52698 6.75049 5.52698H4.89551C4.55033 5.52698 4.27051 5.24716 4.27051 4.90198C4.27051 4.5568 4.55033 4.27698 4.89551 4.27698H6.75049C7.09567 4.27698 7.37549 4.5568 7.37549 4.90198ZM9.8335 6.91943C10.2563 6.91943 10.5991 6.57665 10.5991 6.15381C10.5991 5.73097 10.2563 5.38818 9.8335 5.38818C9.41065 5.38818 9.06787 5.73097 9.06787 6.15381C9.06787 6.57665 9.41065 6.91943 9.8335 6.91943Z" fill="black"/>
</g>
<defs>
<clipPath id="clip0_1068_188297">
<rect width="14" height="14" fill="white"/>
</clipPath>
</defs>
</svg>
