<svg width="14" height="14" viewBox="0 0 14 14" fill="none" xmlns="http://www.w3.org/2000/svg">
<g clip-path="url(#clip0_1068_188254)">
<path fill-rule="evenodd" clip-rule="evenodd" d="M14 7C14 10.866 10.866 14 7 14C3.13401 14 0 10.866 0 7C0 3.13401 3.13401 0 7 0C10.866 0 14 3.13401 14 7ZM4.28436 5.74944C4.28436 4.19019 5.49086 2.92944 6.99997 2.92944C8.52127 2.92944 9.71557 4.20279 9.71557 5.64505C9.71557 7.11235 8.49727 8.46504 6.99997 8.46504C6.67928 8.46504 6.3595 8.52391 6.05755 8.63758L6.56891 6.08076C6.63661 5.74229 6.4171 5.41302 6.07862 5.34533C5.74015 5.27763 5.41088 5.49714 5.34318 5.83562L4.46026 10.2502C4.44746 10.2843 4.43522 10.3189 4.42356 10.3539C4.3975 10.4321 4.38775 10.5118 4.39246 10.5893L4.29925 11.0553C4.23155 11.3938 4.45106 11.7231 4.78954 11.7907C5.12801 11.8584 5.45728 11.6389 5.52497 11.3005L5.66328 10.6089C5.91833 10.0258 6.46363 9.71504 6.99997 9.71504C9.26084 9.71504 10.9656 7.72713 10.9656 5.64505C10.9656 3.53791 9.23684 1.67944 6.99997 1.67944C4.7509 1.67944 3.03436 3.55051 3.03436 5.74944C3.03436 6.09462 3.31418 6.37444 3.65936 6.37444C4.00454 6.37444 4.28436 6.09462 4.28436 5.74944ZM8.69276 11.1779C8.69276 11.5921 8.35697 11.9279 7.94276 11.9279C7.52855 11.9279 7.19276 11.5921 7.19276 11.1779C7.19276 10.7637 7.52855 10.4279 7.94276 10.4279C8.35697 10.4279 8.69276 10.7637 8.69276 11.1779Z" fill="black"/>
</g>
<defs>
<clipPath id="clip0_1068_188254">
<rect width="14" height="14" fill="white"/>
</clipPath>
</defs>
</svg>
