<svg width="14" height="14" viewBox="0 0 14 14" fill="none" xmlns="http://www.w3.org/2000/svg">
<path fill-rule="evenodd" clip-rule="evenodd" d="M8.29284 1.12451H10.6578C11.0311 1.12451 11.3336 1.3944 11.3336 1.72732V7.71106H2.6449C2.61253 7.71106 2.58027 7.71148 2.5481 7.7123V1.72732C2.5481 1.3944 2.85067 1.12451 3.22391 1.12451H5.5896V4.13857C5.5896 4.21851 5.6252 4.29517 5.68857 4.35169C5.75194 4.40822 5.83789 4.43997 5.92751 4.43997H7.95493C8.04455 4.43997 8.1305 4.40822 8.19387 4.35169C8.25724 4.29517 8.29284 4.21851 8.29284 4.13857V1.12451ZM2.6449 8.96094H11.3536C12.7053 8.96094 13.8012 10.0568 13.8012 11.4086C13.8012 12.7604 12.7053 13.8562 11.3536 13.8562H2.6449C1.29311 13.8562 0.197266 12.7604 0.197266 11.4086C0.197266 10.0568 1.29311 8.96094 2.6449 8.96094ZM4.40659 11.4004C4.40659 11.8836 4.01484 12.2754 3.53159 12.2754C3.04834 12.2754 2.65659 11.8836 2.65659 11.4004C2.65659 10.9171 3.04834 10.5254 3.53159 10.5254C4.01484 10.5254 4.40659 10.9171 4.40659 11.4004ZM7.87885 11.4004C7.87885 11.8836 7.48709 12.2754 7.00385 12.2754C6.5206 12.2754 6.12885 11.8836 6.12885 11.4004C6.12885 10.9171 6.5206 10.5254 7.00385 10.5254C7.48709 10.5254 7.87885 10.9171 7.87885 11.4004ZM10.4761 12.2754C10.9594 12.2754 11.3511 11.8836 11.3511 11.4004C11.3511 10.9171 10.9594 10.5254 10.4761 10.5254C9.99285 10.5254 9.6011 10.9171 9.6011 11.4004C9.6011 11.8836 9.99285 12.2754 10.4761 12.2754Z" fill="black"/>
</svg>
