<svg width="14" height="14" viewBox="0 0 14 14" fill="none" xmlns="http://www.w3.org/2000/svg">
<g clip-path="url(#clip0_1068_188276)">
<path fill-rule="evenodd" clip-rule="evenodd" d="M1.77598 0.0762329C1.32516 0.0762329 0.89281 0.255319 0.574034 0.574095C0.255258 0.892871 0.0761719 1.32522 0.0761719 1.77604V3.20075C0.0761719 3.61497 0.411959 3.95075 0.826172 3.95075C1.24039 3.95075 1.57617 3.61497 1.57617 3.20075V1.77604C1.57617 1.72305 1.59722 1.67223 1.6347 1.63476C1.67217 1.59728 1.72299 1.57623 1.77598 1.57623H3.20069C3.61491 1.57623 3.95069 1.24045 3.95069 0.826233C3.95069 0.412019 3.61491 0.0762329 3.20069 0.0762329H1.77598ZM3.99577 2.74559C3.30541 2.74559 2.74577 3.30524 2.74577 3.99559V6.06855C2.74577 6.75891 3.30541 7.31855 3.99577 7.31855H6.06873C6.75908 7.31855 7.31873 6.75891 7.31873 6.06855V3.99559C7.31873 3.30523 6.75908 2.74559 6.06873 2.74559H3.99577ZM4.24577 5.81855V4.24559H5.81873V5.81855H4.24577ZM10.0492 0.826309C10.0492 0.412096 10.385 0.0763092 10.7992 0.0763092H12.2239C12.6747 0.0763092 13.1071 0.255396 13.4259 0.574171C13.7446 0.892947 13.9237 1.3253 13.9237 1.77612V3.20083C13.9237 3.61504 13.5879 3.95083 13.1737 3.95083C12.7595 3.95083 12.4237 3.61504 12.4237 3.20083V1.77612C12.4237 1.72312 12.4027 1.6723 12.3652 1.63483C12.3277 1.59736 12.2769 1.57631 12.2239 1.57631H10.7992C10.385 1.57631 10.0492 1.24052 10.0492 0.826309ZM1.57623 10.7993C1.57623 10.3851 1.24045 10.0493 0.826232 10.0493C0.412019 10.0493 0.076233 10.3851 0.076233 10.7993V12.224C0.076233 12.6748 0.255319 13.1072 0.574095 13.426C0.89287 13.7447 1.32522 13.9238 1.77604 13.9238H3.20075C3.61497 13.9238 3.95075 13.588 3.95075 13.1738C3.95075 12.7596 3.61497 12.4238 3.20075 12.4238H1.77604C1.72305 12.4238 1.67223 12.4028 1.63476 12.3653C1.59729 12.3278 1.57623 12.277 1.57623 12.224V10.7993ZM13.1737 10.0493C13.5879 10.0493 13.9237 10.3851 13.9237 10.7993V12.224C13.9237 12.6748 13.7446 13.1072 13.4259 13.426C13.1071 13.7447 12.6747 13.9238 12.2239 13.9238H10.7992C10.385 13.9238 10.0492 13.588 10.0492 13.1738C10.0492 12.7596 10.385 12.4238 10.7992 12.4238H12.2239C12.2769 12.4238 12.3277 12.4028 12.3652 12.3653C12.4027 12.3278 12.4237 12.277 12.4237 12.224V10.7993C12.4237 10.3851 12.7595 10.0493 13.1737 10.0493ZM4.24582 9.19012C4.24582 8.77591 3.91003 8.44012 3.49582 8.44012C3.08161 8.44012 2.74582 8.77591 2.74582 9.19012V10.5042C2.74582 10.9184 3.08161 11.2542 3.49582 11.2542H4.80991C5.22412 11.2542 5.55991 10.9184 5.55991 10.5042C5.55991 10.09 5.22412 9.75421 4.80991 9.75421H4.24582V9.19012ZM5.70587 9.19012C5.70587 8.77591 6.04166 8.44012 6.45587 8.44012H6.99989C7.41411 8.44012 7.74989 8.77591 7.74989 9.19012V10.5042C7.74989 10.9184 7.41411 11.2542 6.99989 11.2542C6.58568 11.2542 6.24989 10.9184 6.24989 10.5042V9.91149C5.93583 9.82198 5.70587 9.53291 5.70587 9.19012ZM9.94007 3.49567C9.94007 3.08145 9.60428 2.74567 9.19007 2.74567C8.77585 2.74567 8.44007 3.08145 8.44007 3.49567V4.80976C8.44007 5.22397 8.77585 5.55976 9.19007 5.55976H10.5041C10.9184 5.55976 11.2541 5.22397 11.2541 4.80976C11.2541 4.39554 10.9184 4.05976 10.5041 4.05976H9.94007V3.49567ZM8.44007 6.99998C8.44007 6.58577 8.77585 6.24998 9.19007 6.24998H10.5041C10.9184 6.24998 11.2541 6.58577 11.2541 6.99998V7.63899C11.2541 8.0532 10.9184 8.38898 10.5041 8.38898C10.1276 8.38898 9.81595 8.11156 9.76231 7.74998H9.19007C8.77585 7.74998 8.44007 7.4142 8.44007 6.99998ZM9.94007 9.19012C9.94007 8.77591 9.60428 8.44012 9.19007 8.44012C8.77585 8.44012 8.44007 8.77591 8.44007 9.19012V10.5042C8.44007 10.9184 8.77585 11.2542 9.19007 11.2542H10.5041C10.9184 11.2542 11.2541 10.9184 11.2541 10.5042C11.2541 10.09 10.9184 9.75421 10.5041 9.75421H9.94007V9.19012Z" fill="black"/>
</g>
<defs>
<clipPath id="clip0_1068_188276">
<rect width="14" height="14" fill="white"/>
</clipPath>
</defs>
</svg>
