<svg width="14" height="14" viewBox="0 0 14 14" fill="none" xmlns="http://www.w3.org/2000/svg">
<g clip-path="url(#clip0_1068_188306)">
<path fill-rule="evenodd" clip-rule="evenodd" d="M2.5 0C1.83696 0 1.20107 0.263392 0.732233 0.732233C0.263392 1.20107 0 1.83696 0 2.5V13.5C0 13.6801 0.0968963 13.8463 0.253651 13.9351C0.410405 14.0239 0.602783 14.0214 0.757248 13.9287L3 12.5831L5.24275 13.9287C5.40109 14.0238 5.59891 14.0238 5.75725 13.9287L8 12.5831L10.2428 13.9287C10.3972 14.0214 10.5896 14.0239 10.7463 13.9351C10.9031 13.8463 11 13.6801 11 13.5V6H11.0049V2.5C11.0049 2.15482 11.2847 1.875 11.6299 1.875C11.9751 1.875 12.2549 2.15482 12.2549 2.5V6H13.5C13.7761 6 14 5.77614 14 5.5V2C14 1.46957 13.7893 0.960859 13.4142 0.585786C13.0391 0.210714 12.5304 0 12 0H2.5ZM8.81443 4.99388C9.08719 4.68215 9.05561 4.20833 8.74388 3.93557C8.43215 3.66281 7.95833 3.69439 7.68557 4.00612L4.64358 7.48268L3.2 6.4C2.86863 6.15147 2.39853 6.21863 2.15 6.55C1.90147 6.88137 1.96863 7.35147 2.3 7.6L4.3 9.1C4.61385 9.33539 5.05609 9.28913 5.31443 8.99388L8.81443 4.99388Z" fill="black"/>
</g>
<defs>
<clipPath id="clip0_1068_188306">
<rect width="14" height="14" fill="white"/>
</clipPath>
</defs>
</svg>
