<svg width="14" height="14" viewBox="0 0 14 14" fill="none" xmlns="http://www.w3.org/2000/svg">
<g clip-path="url(#clip0_1068_188303)">
<path fill-rule="evenodd" clip-rule="evenodd" d="M0.732233 0.732233C1.20107 0.263392 1.83696 0 2.5 0H12C12.5304 0 13.0391 0.210714 13.4142 0.585786C13.7893 0.960859 14 1.46957 14 2V5.5C14 5.77614 13.7761 6 13.5 6H12.2549V2.5C12.2549 2.15482 11.9751 1.875 11.6299 1.875C11.2847 1.875 11.0049 2.15482 11.0049 2.5V6H11V13.5C11 13.6801 10.9031 13.8463 10.7463 13.9351C10.5896 14.0239 10.3972 14.0214 10.2428 13.9287L8 12.5831L5.75725 13.9287C5.59891 14.0238 5.40109 14.0238 5.24275 13.9287L3 12.5831L0.757248 13.9287C0.602783 14.0214 0.410405 14.0239 0.253651 13.9351C0.0968963 13.8463 0 13.6801 0 13.5V2.5C0 1.83696 0.263392 1.20107 0.732233 0.732233ZM5.49997 2C5.91418 2 6.24997 2.33579 6.24997 2.75V3.27772C6.70721 3.35458 7.11206 3.5867 7.40722 3.91648C7.57893 4.10833 7.71458 4.33419 7.80266 4.58339C7.94069 4.97393 7.736 5.40242 7.34546 5.54046C6.95493 5.67849 6.52643 5.4738 6.3884 5.08326C6.36673 5.02195 6.33302 4.96545 6.28952 4.91685C6.19689 4.81336 6.06467 4.75 5.91666 4.75H4.94913C4.74711 4.75 4.58334 4.91377 4.58334 5.11578C4.58334 5.28768 4.70304 5.43638 4.87096 5.47312L6.34406 5.79536C7.26248 5.99626 7.91666 6.80991 7.91666 7.74952C7.91666 8.74023 7.19613 9.56353 6.24997 9.72231V10.25C6.24997 10.6642 5.91418 11 5.49997 11C5.08576 11 4.74997 10.6642 4.74997 10.25V9.72232C4.02648 9.60096 3.43581 9.09128 3.19734 8.41657C3.05931 8.02604 3.264 7.59755 3.65454 7.45951C4.04507 7.32148 4.47357 7.52617 4.6116 7.91671C4.6806 8.11191 4.86681 8.24997 5.08334 8.24997H5.91666C6.19244 8.24997 6.41666 8.02601 6.41666 7.74952C6.41666 7.51429 6.25279 7.31086 6.02351 7.26071L4.55042 6.93847C3.69386 6.7511 3.08334 5.99259 3.08334 5.11578C3.08334 4.15262 3.81317 3.35991 4.74997 3.2605V2.75C4.74997 2.33579 5.08576 2 5.49997 2Z" fill="black"/>
</g>
<defs>
<clipPath id="clip0_1068_188303">
<rect width="14" height="14" fill="white"/>
</clipPath>
</defs>
</svg>
