<svg width="14" height="14" viewBox="0 0 14 14" fill="none" xmlns="http://www.w3.org/2000/svg">
<g clip-path="url(#clip0_1068_188300)">
<path fill-rule="evenodd" clip-rule="evenodd" d="M1.5 0C0.671573 0 0 0.671573 0 1.5V11C0 11.8284 0.671573 12.5 1.5 12.5V13.2022C1.5 13.6164 1.83579 13.9522 2.25 13.9522C2.66421 13.9522 3 13.6164 3 13.2022V12.5H11V13.2022C11 13.6164 11.3358 13.9522 11.75 13.9522C12.1642 13.9522 12.5 13.6164 12.5 13.2022V12.5C13.3284 12.5 14 11.8284 14 11V1.5C14 0.671573 13.3284 0 12.5 0H1.5ZM8.74936 4.94285C8.02874 4.94319 7.44448 5.52665 7.44284 6.24697L7.44285 6.25L7.44284 6.25321C7.44458 6.97365 8.02914 7.55715 8.74999 7.55715C9.47191 7.55715 10.0571 6.97192 10.0571 6.25C10.0571 5.52808 9.47128 4.94285 8.74936 4.94285ZM8.125 3.76977C7.88018 3.83127 7.64938 3.92807 7.43831 4.05443L6.85127 3.46739C6.6072 3.22332 6.21147 3.22332 5.96739 3.46739C5.72331 3.71147 5.72331 4.1072 5.96739 4.35128L6.55443 4.93832C6.42806 5.14938 6.33127 5.38018 6.26977 5.625H5.43774C5.09257 5.625 4.81274 5.90482 4.81274 6.25C4.81274 6.59518 5.09257 6.875 5.43774 6.875H6.26977C6.33127 7.11982 6.42806 7.35062 6.55443 7.56169L5.96739 8.14872C5.72331 8.3928 5.72331 8.78853 5.96739 9.03261C6.21147 9.27668 6.6072 9.27668 6.85127 9.03261L7.43831 8.44557C7.64938 8.57193 7.88018 8.66873 8.125 8.73023V9.56226C8.125 9.90744 8.40482 10.1873 8.75 10.1873C9.09518 10.1873 9.375 9.90744 9.375 9.56226V8.73022C9.61981 8.66873 9.85061 8.57193 10.0617 8.44557L10.6487 9.03261C10.8928 9.27668 11.2885 9.27668 11.5326 9.03261C11.7767 8.78853 11.7767 8.3928 11.5326 8.14872L10.9456 7.56169C11.0719 7.35062 11.1687 7.11982 11.2302 6.875H12.0623C12.4074 6.875 12.6873 6.59518 12.6873 6.25C12.6873 5.90482 12.4074 5.625 12.0623 5.625H11.2302C11.1687 5.38018 11.0719 5.14938 10.9456 4.93831L11.5326 4.35128C11.7767 4.1072 11.7767 3.71147 11.5326 3.46739C11.2885 3.22332 10.8928 3.22332 10.6487 3.46739L10.0617 4.05443C9.85061 3.92807 9.61981 3.83128 9.375 3.76978V2.93774C9.375 2.59256 9.09518 2.31274 8.75 2.31274C8.40482 2.31274 8.125 2.59256 8.125 2.93774V3.76977ZM3.11826 4.1338C3.11826 3.78862 2.83843 3.5088 2.49326 3.5088C2.14808 3.5088 1.86826 3.78862 1.86826 4.1338V8.36621C1.86826 8.71138 2.14808 8.99121 2.49326 8.99121C2.83843 8.9912 3.11826 8.71138 3.11826 8.3662V4.1338Z" fill="black"/>
</g>
<defs>
<clipPath id="clip0_1068_188300">
<rect width="14" height="14" fill="white"/>
</clipPath>
</defs>
</svg>
