<svg width="14" height="14" viewBox="0 0 14 14" fill="none" xmlns="http://www.w3.org/2000/svg">
<g clip-path="url(#clip0_1068_188291)">
<path fill-rule="evenodd" clip-rule="evenodd" d="M1.41759 0.135742C1.09394 0.135742 0.783548 0.264312 0.554692 0.493168C0.325836 0.722024 0.197266 1.03242 0.197266 1.35607V5.11869C0.197266 5.5329 0.533053 5.86869 0.947266 5.86869C1.36148 5.86869 1.69726 5.5329 1.69726 5.11869V1.63574H5.18021C5.59442 1.63574 5.93021 1.29996 5.93021 0.885742C5.93021 0.471529 5.59442 0.135742 5.18021 0.135742H1.41759ZM8.94281 0.135742C8.5286 0.135742 8.19281 0.471529 8.19281 0.885742C8.19281 1.29996 8.5286 1.63574 8.94281 1.63574H12.4257V5.11869C12.4257 5.5329 12.7615 5.86869 13.1757 5.86869C13.59 5.86869 13.9257 5.5329 13.9257 5.11869V1.35607C13.9257 1.03242 13.7972 0.722025 13.5683 0.493168C13.3395 0.264312 13.0291 0.135742 12.7054 0.135742H8.94281ZM13.1757 8.13131C13.59 8.13131 13.9257 8.4671 13.9257 8.88131V12.6439C13.9257 12.9676 13.7972 13.278 13.5683 13.5068C13.3395 13.7357 13.0291 13.8643 12.7054 13.8643H8.94281C8.5286 13.8643 8.19281 13.5285 8.19281 13.1143C8.19281 12.7 8.5286 12.3643 8.94281 12.3643H12.4257V8.88131C12.4257 8.4671 12.7615 8.13131 13.1757 8.13131ZM1.69726 8.88131C1.69726 8.4671 1.36148 8.13131 0.947266 8.13131C0.533053 8.13131 0.197266 8.4671 0.197266 8.88131V12.6439C0.197266 12.9676 0.325836 13.278 0.554692 13.5068C0.783549 13.7357 1.09394 13.8643 1.41759 13.8643H5.18021C5.59442 13.8643 5.93021 13.5285 5.93021 13.1143C5.93021 12.7 5.59442 12.3643 5.18021 12.3643H1.69726V8.88131ZM10.6694 3.28271C11.0146 3.28271 11.2944 3.56254 11.2944 3.90771V10.0923C11.2944 10.4374 11.0146 10.7173 10.6694 10.7173C10.3242 10.7173 10.0444 10.4374 10.0444 10.0923V3.90771C10.0444 3.56254 10.3242 3.28271 10.6694 3.28271ZM2.708 3.90771C2.708 3.56254 2.98783 3.28271 3.333 3.28271C3.67818 3.28271 3.958 3.56254 3.958 3.90771V10.0923C3.958 10.4374 3.67818 10.7173 3.333 10.7173C2.98783 10.7173 2.708 10.4374 2.708 10.0923V3.90771ZM8.42895 3.28271C8.77413 3.28271 9.05395 3.56254 9.05395 3.90771V7.51561C9.05395 7.86079 8.77413 8.14061 8.42895 8.14061C8.08377 8.14061 7.80395 7.86079 7.80395 7.51561V3.90771C7.80395 3.56254 8.08377 3.28271 8.42895 3.28271ZM7.80395 10.0923C7.80395 10.4374 8.08377 10.7173 8.42895 10.7173C8.77413 10.7173 9.05395 10.4374 9.05395 10.0923V9.81114C9.05395 9.46596 8.77413 9.18614 8.42895 9.18614C8.08377 9.18614 7.80395 9.46596 7.80395 9.81114V10.0923ZM5.82324 3.28271C6.16842 3.28271 6.44824 3.56254 6.44824 3.90771V7.51561C6.44824 7.86079 6.16842 8.14061 5.82324 8.14061C5.47806 8.14061 5.19824 7.86079 5.19824 7.51561V3.90771C5.19824 3.56254 5.47806 3.28271 5.82324 3.28271ZM5.19824 10.0923C5.19824 10.4374 5.47806 10.7173 5.82324 10.7173C6.16842 10.7173 6.44824 10.4374 6.44824 10.0923V9.81114C6.44824 9.46596 6.16842 9.18614 5.82324 9.18614C5.47806 9.18614 5.19824 9.46596 5.19824 9.81114V10.0923Z" fill="black"/>
</g>
<defs>
<clipPath id="clip0_1068_188291">
<rect width="14" height="14" fill="white"/>
</clipPath>
</defs>
</svg>
