<svg width="14" height="14" viewBox="0 0 14 14" fill="none" xmlns="http://www.w3.org/2000/svg">
<g clip-path="url(#clip0_1068_188315)">
<path fill-rule="evenodd" clip-rule="evenodd" d="M7.00061 2.41833C7.41482 2.41833 7.75061 2.75412 7.75061 3.16833V3.69605C8.20785 3.77292 8.6127 4.00504 8.90786 4.33481C9.07957 4.52666 9.21521 4.75252 9.3033 5.00173C9.44133 5.39227 9.23664 5.82076 8.8461 5.95879C8.45556 6.09683 8.02707 5.89213 7.88904 5.5016C7.86737 5.44029 7.83366 5.38379 7.79016 5.33518C7.69753 5.2317 7.56531 5.16834 7.4173 5.16834H6.44977C6.24775 5.16834 6.08398 5.33211 6.08398 5.53413C6.08398 5.70602 6.20367 5.85472 6.3716 5.89145L7.84469 6.21369C8.76312 6.4146 9.41729 7.22825 9.41729 8.16785C9.41729 9.15857 8.69676 9.98187 7.75061 10.1406V10.6683C7.75061 11.0825 7.41482 11.4183 7.00061 11.4183C6.58639 11.4183 6.25061 11.0825 6.25061 10.6683V10.1407C5.52711 10.0193 4.93645 9.50961 4.69798 8.83492C4.55994 8.44438 4.76464 8.01589 5.15517 7.87786C5.54571 7.73982 5.9742 7.9445 6.11224 8.33504C6.18123 8.53025 6.36745 8.6683 6.58397 8.6683H7.4173C7.69308 8.6683 7.91729 8.44435 7.91729 8.16785C7.91729 7.93262 7.75343 7.7292 7.52415 7.67904L6.05105 7.3568C5.1945 7.16944 4.58398 6.41093 4.58398 5.53413C4.58398 4.57096 5.3138 3.77824 6.25061 3.67884V3.16833C6.25061 2.75412 6.58639 2.41833 7.00061 2.41833Z" fill="black"/>
<path fill-rule="evenodd" clip-rule="evenodd" d="M1.33879 0.09375C1.01428 0.09375 0.703067 0.22266 0.473606 0.452122C0.244144 0.681583 0.115234 0.9928 0.115234 1.31731V5.10577C0.115234 5.51998 0.45102 5.85577 0.865234 5.85577C1.27944 5.85577 1.61523 5.51998 1.61523 5.10577V1.59375H5.12725C5.54146 1.59375 5.87725 1.25796 5.87725 0.84375C5.87725 0.429536 5.54146 0.09375 5.12725 0.09375H1.33879ZM8.91601 0.09375C8.5018 0.09375 8.16601 0.429536 8.16601 0.84375C8.16601 1.25796 8.5018 1.59375 8.91601 1.59375H12.428V5.10577C12.428 5.51998 12.7638 5.85577 13.178 5.85577C13.5923 5.85577 13.928 5.51998 13.928 5.10577V1.31731C13.928 0.992802 13.7991 0.681584 13.5697 0.452122C13.3402 0.22266 13.029 0.09375 12.7045 0.09375H8.91601ZM13.178 8.14423C13.5923 8.14423 13.928 8.48001 13.928 8.89423V12.6827C13.928 13.0072 13.7991 13.3184 13.5697 13.5479C13.3402 13.7773 13.029 13.9062 12.7045 13.9062H8.91601C8.5018 13.9062 8.16601 13.5705 8.16601 13.1562C8.16601 12.742 8.5018 12.4062 8.91601 12.4062H12.428V8.89423C12.428 8.48001 12.7638 8.14423 13.178 8.14423ZM1.61523 8.89423C1.61523 8.48001 1.27944 8.14423 0.865234 8.14423C0.45102 8.14423 0.115234 8.48001 0.115234 8.89423V12.6827C0.115234 13.0072 0.244144 13.3184 0.473606 13.5479C0.703068 13.7773 1.01428 13.9062 1.33879 13.9062H5.12725C5.54146 13.9062 5.87725 13.5705 5.87725 13.1562C5.87725 12.742 5.54146 12.4062 5.12725 12.4062H1.61523V8.89423Z" fill="black"/>
</g>
<defs>
<clipPath id="clip0_1068_188315">
<rect width="14" height="14" fill="white"/>
</clipPath>
</defs>
</svg>
