<svg width="14" height="14" viewBox="0 0 14 14" fill="none" xmlns="http://www.w3.org/2000/svg">
<path fill-rule="evenodd" clip-rule="evenodd" d="M1 1.5C1 0.671573 1.67157 0 2.5 0H11.5C12.3284 0 13 0.671573 13 1.5V3.00195H1V1.5ZM1 4.25195V6.875H7H13V4.25195H1ZM6.375 8.125H1V12.5C1 13.3284 1.67157 14 2.5 14H6.375V8.125ZM7.625 14V8.125H13V12.5C13 13.3284 12.3284 14 11.5 14H7.625ZM9.50003 9.88123C9.84521 9.88123 10.125 10.161 10.125 10.5062V11.5062C10.125 11.8514 9.84521 12.1312 9.50003 12.1312C9.15485 12.1312 8.87503 11.8514 8.87503 11.5062V10.5062C8.87503 10.161 9.15485 9.88123 9.50003 9.88123ZM5.12503 10.5062C5.12503 10.161 4.84521 9.88123 4.50003 9.88123C4.15485 9.88123 3.87503 10.161 3.87503 10.5062V11.5062C3.87503 11.8514 4.15485 12.1312 4.50003 12.1312C4.84521 12.1312 5.12503 11.8514 5.12503 11.5062V10.5062Z" fill="black"/>
</svg>
