<svg width="14" height="14" viewBox="0 0 14 14" fill="none" xmlns="http://www.w3.org/2000/svg">
<g clip-path="url(#clip0_1068_188337)">
<path fill-rule="evenodd" clip-rule="evenodd" d="M0.75 1.5H2.14647L2.52458 2.94042C2.52756 2.95178 2.53079 2.96301 2.53425 2.97411L3.50314 7.81856C3.50556 7.84463 3.50938 7.87084 3.51463 7.89709L3.93463 9.99709L3.93521 10C3.99285 10.2823 4.14626 10.5361 4.36949 10.7183C4.59268 10.9005 4.87195 11 5.16006 11H11.2501C11.6643 11 12.0001 10.6642 12.0001 10.25C12.0001 9.83579 11.6643 9.5 11.2501 9.5H5.36491L5.11491 8.25H12.1015L12.1119 8.25014C12.1471 8.25077 12.2474 8.25253 12.3393 8.2375C12.6744 8.18275 12.9613 7.95491 13.0949 7.64943C13.1494 7.52487 13.1762 7.3678 13.185 7.3165L13.1876 7.30155L13.9791 3.44041L13.9813 3.43002C14.0076 3.28615 14.0019 3.13824 13.9649 2.99675C13.8507 2.5607 13.4519 2.25166 13.0012 2.25H12.9993H3.89416L3.55951 0.975139C3.49812 0.702779 3.34723 0.458536 3.13057 0.281674C2.90738 0.0994786 2.62811 -2.348e-05 2.34 4.15605e-09H0.75C0.335786 4.15605e-09 0 0.335786 0 0.75C0 1.16421 0.335786 1.5 0.75 1.5ZM11.6294 12.8004C11.6294 12.166 11.1151 11.6517 10.4808 11.6517C9.84638 11.6517 9.33211 12.166 9.33211 12.8004C9.33211 13.4348 9.84638 13.949 10.4808 13.949C11.1151 13.949 11.6294 13.4348 11.6294 12.8004ZM5.48073 11.6517C6.1151 11.6517 6.62936 12.166 6.62936 12.8004C6.62936 13.4347 6.1151 13.949 5.48073 13.949C4.84635 13.949 4.33209 13.4347 4.33209 12.8004C4.33209 12.166 4.84635 11.6517 5.48073 11.6517Z" fill="black"/>
</g>
<defs>
<clipPath id="clip0_1068_188337">
<rect width="14" height="14" fill="white"/>
</clipPath>
</defs>
</svg>
