<svg width="14" height="14" viewBox="0 0 14 14" fill="none" xmlns="http://www.w3.org/2000/svg">
<path fill-rule="evenodd" clip-rule="evenodd" d="M6.14624 2.01256C6.47443 1.68437 6.91955 1.5 7.38368 1.5C7.84781 1.5 8.29292 1.68437 8.62111 2.01256C8.9493 2.34075 9.13368 2.78587 9.13368 3.25V3.91284H5.63368V3.25C5.63368 2.78587 5.81805 2.34075 6.14624 2.01256ZM4.13368 3.91284V3.25C4.13368 2.38805 4.47609 1.5614 5.08558 0.951903C5.69507 0.34241 6.52172 0 7.38368 0C8.24563 0 9.07228 0.34241 9.68177 0.951903C10.2913 1.5614 10.6337 2.38805 10.6337 3.25V3.91284H12.3837C12.6384 3.91284 12.8524 4.10429 12.8806 4.35742L13.7277 11.9525C13.73 11.973 13.7331 11.9967 13.7365 12.0233C13.7577 12.186 13.7927 12.4543 13.7386 12.713C13.6243 13.2597 13.2075 13.7085 12.6657 13.8591C12.4213 13.927 12.1434 13.9194 11.9742 13.9147C11.9388 13.9137 11.9082 13.9128 11.8837 13.9128H2.88368C2.85911 13.9128 2.82851 13.9137 2.79317 13.9147C2.62395 13.9194 2.3461 13.927 2.10163 13.8591C1.5599 13.7085 1.14301 13.2598 1.02874 12.713C0.97467 12.4543 1.00962 12.186 1.03081 12.0233C1.03427 11.9967 1.03737 11.973 1.03965 11.9525L1.88676 4.35742C1.91499 4.10429 2.12898 3.91284 2.38368 3.91284H4.13368Z" fill="black"/>
</svg>
