<svg width="14" height="14" viewBox="0 0 14 14" fill="none" xmlns="http://www.w3.org/2000/svg">
<g clip-path="url(#clip0_1068_188322)">
<path fill-rule="evenodd" clip-rule="evenodd" d="M3.50531 0.0776367C3.89051 0.0776367 4.21308 0.369437 4.25156 0.752707L4.53607 3.58623H12.0855C12.3204 3.57776 12.5538 3.62726 12.7651 3.73045C12.9794 3.8351 13.1641 3.99162 13.3025 4.18579C13.4346 4.36883 13.5217 4.58055 13.5564 4.80367C13.5912 5.02758 13.5724 5.25656 13.5014 5.47177L13.501 5.47294L12.2627 9.19706L12.2622 9.19863C12.1626 9.49482 11.9689 9.75029 11.7105 9.926C11.456 10.099 11.1527 10.1853 10.8456 10.1724H4.99426C4.65026 10.1755 4.31659 10.0546 4.05441 9.83179C3.79144 9.60827 3.61811 9.29723 3.56636 8.956C3.56511 8.94772 3.56406 8.9394 3.56322 8.93107L3.08097 4.13626C3.0792 4.11866 3.07837 4.10107 3.07846 4.08355L2.82685 1.57764H1.17774C0.763521 1.57764 0.427734 1.24185 0.427734 0.827637C0.427734 0.413423 0.763521 0.0776367 1.17774 0.0776367H3.50531ZM10.6549 11.6443C11.3054 11.6443 11.8328 12.1716 11.8328 12.8221C11.8328 13.4726 11.3054 14 10.6549 14C10.0044 14 9.47704 13.4726 9.47704 12.8221C9.47704 12.1716 10.0044 11.6443 10.6549 11.6443ZM6.68676 12.8221C6.68676 12.1716 6.15942 11.6443 5.5089 11.6443C4.85839 11.6443 4.33105 12.1716 4.33105 12.8221C4.33105 13.4726 4.85839 14 5.5089 14C6.15942 14 6.68676 13.4726 6.68676 12.8221ZM9.99198 6.1541C10.1989 5.87784 10.1427 5.48612 9.86647 5.27918C9.59021 5.07223 9.19849 5.12842 8.99155 5.40469L7.70284 7.12505L7.09277 6.66805C6.8165 6.4611 6.42478 6.5173 6.21784 6.79356C6.01089 7.06982 6.06708 7.46154 6.34335 7.66849L7.45364 8.50019C7.5863 8.59957 7.75301 8.64218 7.91709 8.61864C8.08118 8.59511 8.22919 8.50735 8.32856 8.37469L9.99198 6.1541Z" fill="black"/>
</g>
<defs>
<clipPath id="clip0_1068_188322">
<rect width="14" height="14" fill="white"/>
</clipPath>
</defs>
</svg>
