<svg width="14" height="14" viewBox="0 0 14 14" fill="none" xmlns="http://www.w3.org/2000/svg">
<g clip-path="url(#clip0_1068_188331)">
<path fill-rule="evenodd" clip-rule="evenodd" d="M3.84335 0.752707C3.80487 0.369437 3.4823 0.0776367 3.0971 0.0776367H0.769531C0.355318 0.0776367 0.0195312 0.413423 0.0195312 0.827637C0.0195312 1.24185 0.355318 1.57764 0.769531 1.57764H2.41864L2.67025 4.08355C2.67016 4.10107 2.67099 4.11866 2.67276 4.13626L3.15501 8.93107C3.15585 8.9394 3.1569 8.94772 3.15815 8.956C3.2099 9.29723 3.38323 9.60827 3.6462 9.83179C3.90838 10.0546 4.24205 10.1755 4.58606 10.1724H10.4374C10.7445 10.1853 11.0478 10.099 11.3022 9.926C11.5606 9.75029 11.7544 9.49482 11.854 9.19863L11.8545 9.19706L13.0928 5.47294L13.0931 5.47177C13.1641 5.25656 13.1829 5.02758 13.1481 4.80367C13.1134 4.58055 13.0264 4.36883 12.8942 4.18579C12.7558 3.99162 12.5711 3.8351 12.3568 3.73045C12.1455 3.62726 11.9121 3.57776 11.6773 3.58623H4.12786L3.84335 0.752707ZM11.4245 12.8221C11.4245 12.1716 10.8972 11.6443 10.2467 11.6443C9.59618 11.6443 9.06883 12.1716 9.06883 12.8221C9.06883 13.4726 9.59618 14 10.2467 14C10.8972 14 11.4245 13.4726 11.4245 12.8221ZM5.1007 11.6443C5.75121 11.6443 6.27855 12.1716 6.27855 12.8221C6.27855 13.4726 5.75121 14 5.1007 14C4.45018 14 3.92284 13.4726 3.92284 12.8221C3.92284 12.1716 4.45018 11.6443 5.1007 11.6443Z" fill="black"/>
</g>
<defs>
<clipPath id="clip0_1068_188331">
<rect width="14" height="14" fill="white"/>
</clipPath>
</defs>
</svg>
