<svg width="14" height="14" viewBox="0 0 14 14" fill="none" xmlns="http://www.w3.org/2000/svg">
<g clip-path="url(#clip0_1068_188319)">
<path fill-rule="evenodd" clip-rule="evenodd" d="M8.77682 1.58711C9.13646 1.3816 9.5946 1.50655 9.80011 1.86618L11.8765 5.49985H12.275C12.498 5.49616 12.7192 5.54228 12.9222 5.63488C13.1269 5.72826 13.308 5.8665 13.4521 6.03936C13.5961 6.21223 13.6995 6.41529 13.7544 6.6335C13.8092 6.85129 13.8144 7.0786 13.7697 7.29867L13.7694 7.29995L12.6698 12.7979L12.6694 12.7997C12.5993 13.1437 12.4108 13.4521 12.1367 13.6714C11.8641 13.8895 11.524 14.0056 11.175 13.9998H2.82397C2.475 14.0056 2.13488 13.8895 1.86226 13.6714C1.58818 13.4521 1.39967 13.1437 1.32955 12.7997L1.32917 12.7979L0.229587 7.29995L0.229359 7.29883C0.184555 7.07871 0.189758 6.85134 0.244591 6.6335C0.299517 6.41529 0.402833 6.21223 0.546886 6.03936C0.69094 5.8665 0.872039 5.72826 1.07677 5.63488C1.27981 5.54228 1.50093 5.49616 1.72401 5.49985H2.12243L4.19881 1.86618C4.40432 1.50655 4.86246 1.3816 5.2221 1.58711C5.58174 1.79261 5.70668 2.25075 5.50118 2.61039L3.85006 5.49985H10.1489L8.49774 2.61039C8.29224 2.25075 8.41718 1.79261 8.77682 1.58711Z" fill="black"/>
</g>
<defs>
<clipPath id="clip0_1068_188319">
<rect width="14" height="14" fill="white"/>
</clipPath>
</defs>
</svg>
