<svg width="14" height="14" viewBox="0 0 14 14" fill="none" xmlns="http://www.w3.org/2000/svg">
<g clip-path="url(#clip0_1068_188309)">
<path fill-rule="evenodd" clip-rule="evenodd" d="M4.1424 1.16739C4.22896 0.940225 4.36297 0.731505 4.53819 0.556288C4.86467 0.229804 5.30748 0.0463867 5.7692 0.0463867H8.25103C8.71275 0.0463867 9.15555 0.229804 9.48203 0.556288C9.65182 0.726078 9.78292 0.927329 9.86965 1.14634C10.4435 1.31718 10.9643 1.638 11.3765 2.07884C11.8796 2.61704 12.1935 3.3047 12.2704 4.03743L12.4324 5.51062C13.2718 5.57459 13.9108 6.34671 13.7998 7.19322L13.1068 12.4145C13.1046 12.4307 13.1024 12.4497 13.0999 12.4711C13.0848 12.601 13.0595 12.818 12.9779 13.0147C12.8022 13.4383 12.4324 13.7672 11.994 13.8946C11.7856 13.9551 11.5736 13.9533 11.4438 13.9521L11.3999 13.9519H2.66692C2.64934 13.9519 2.62878 13.9522 2.60571 13.9526C2.46408 13.955 2.22794 13.9589 2.00641 13.8946C1.56797 13.7672 1.19818 13.4383 1.02248 13.0147C0.928976 12.7892 0.901165 12.5209 0.884403 12.3592C0.880832 12.3247 0.877763 12.2951 0.874666 12.2718L0.213856 7.29308C0.198511 7.17746 0.175474 7.00248 0.200629 6.8113C0.282802 6.18679 0.760137 5.66628 1.38265 5.53697C1.44967 5.52305 1.51823 5.51371 1.58795 5.5093L1.75008 4.03545L1.75021 4.03421C1.83165 3.30499 2.14784 2.62196 2.65114 2.08802C3.06041 1.65384 3.5754 1.33735 4.1424 1.16739ZM4.29447 2.71249C4.08871 2.81188 3.9014 2.94849 3.74265 3.11691C3.4625 3.41411 3.28646 3.79425 3.24101 4.20013L3.09732 5.5064H10.9229L10.7792 4.19948L10.7787 4.19523C10.7361 3.78672 10.5613 3.40329 10.2808 3.10327C10.1237 2.93526 9.93826 2.79856 9.73444 2.6985C9.66327 2.81435 9.57861 2.92173 9.48203 3.01831C9.32038 3.17997 9.12846 3.3082 8.91724 3.39569C8.70603 3.48318 8.47964 3.52821 8.25103 3.52821H5.7692C5.30748 3.52821 4.86467 3.34479 4.53819 3.01831C4.44498 2.9251 4.36342 2.8224 4.29447 2.71249ZM4.3714 8.48822C4.3714 8.14305 4.09158 7.86322 3.7464 7.86322C3.40123 7.86322 3.1214 8.14305 3.1214 8.48822V10.97C3.1214 11.3152 3.40123 11.595 3.7464 11.595C4.09158 11.595 4.3714 11.3152 4.3714 10.97V8.48822ZM7.0101 7.86322C7.35528 7.86322 7.6351 8.14305 7.6351 8.48822V10.97C7.6351 11.3152 7.35528 11.595 7.0101 11.595C6.66492 11.595 6.3851 11.3152 6.3851 10.97V8.48822C6.3851 8.14305 6.66492 7.86322 7.0101 7.86322ZM10.8988 8.48822C10.8988 8.14305 10.619 7.86322 10.2738 7.86322C9.92863 7.86322 9.6488 8.14305 9.6488 8.48822V10.97C9.6488 11.3152 9.92863 11.595 10.2738 11.595C10.619 11.595 10.8988 11.3152 10.8988 10.97V8.48822Z" fill="black"/>
</g>
<defs>
<clipPath id="clip0_1068_188309">
<rect width="14" height="14" fill="white"/>
</clipPath>
</defs>
</svg>
