<svg width="14" height="14" viewBox="0 0 14 14" fill="none" xmlns="http://www.w3.org/2000/svg">
<g clip-path="url(#clip0_1068_188355)">
<path fill-rule="evenodd" clip-rule="evenodd" d="M3.84335 0.752707C3.80487 0.369437 3.4823 0.0776367 3.09711 0.0776367H0.769532C0.355318 0.0776367 0.0195312 0.413423 0.0195312 0.827637C0.0195312 1.24185 0.355318 1.57764 0.769532 1.57764H2.41864L2.67026 4.08355C2.67016 4.10107 2.67099 4.11866 2.67276 4.13626L3.15501 8.93107C3.15585 8.9394 3.1569 8.94772 3.15816 8.956C3.2099 9.29723 3.38323 9.60827 3.64621 9.83179C3.90838 10.0546 4.24205 10.1755 4.58606 10.1724H10.4374C10.7445 10.1853 11.0478 10.099 11.3022 9.926C11.5606 9.75029 11.7544 9.49482 11.854 9.19863L11.8545 9.19706L13.0928 5.47294L13.0932 5.47177C13.1641 5.25656 13.183 5.02758 13.1481 4.80367C13.1134 4.58055 13.0264 4.36883 12.8942 4.18579C12.7559 3.99162 12.5711 3.8351 12.3569 3.73045C12.1456 3.62726 11.9122 3.57776 11.6773 3.58623H4.12786L3.84335 0.752707ZM11.4245 12.8221C11.4245 12.1716 10.8972 11.6443 10.2467 11.6443C9.59618 11.6443 9.06884 12.1716 9.06884 12.8221C9.06884 13.4726 9.59618 14 10.2467 14C10.8972 14 11.4245 13.4726 11.4245 12.8221ZM5.1007 11.6443C5.75121 11.6443 6.27856 12.1716 6.27856 12.8221C6.27856 13.4726 5.75121 14 5.1007 14C4.45018 14 3.92284 13.4726 3.92284 12.8221C3.92284 12.1716 4.45018 11.6443 5.1007 11.6443ZM6.18701 5.375C6.53219 5.375 6.81201 5.65482 6.81201 6V8C6.81201 8.34518 6.53219 8.625 6.18701 8.625C5.84183 8.625 5.56201 8.34518 5.56201 8V6C5.56201 5.65482 5.84183 5.375 6.18701 5.375ZM10.312 6C10.312 5.65482 10.0322 5.375 9.68701 5.375C9.34183 5.375 9.06201 5.65482 9.06201 6V8C9.06201 8.34518 9.34183 8.625 9.68701 8.625C10.0322 8.625 10.312 8.34518 10.312 8V6Z" fill="black"/>
</g>
<defs>
<clipPath id="clip0_1068_188355">
<rect width="14" height="14" fill="white"/>
</clipPath>
</defs>
</svg>
