<svg width="14" height="14" viewBox="0 0 14 14" fill="none" xmlns="http://www.w3.org/2000/svg">
<g clip-path="url(#clip0_1068_188364)">
<path fill-rule="evenodd" clip-rule="evenodd" d="M2.61499 0.40625V1.19165H2.6131C2.26792 1.19165 1.9881 1.47147 1.9881 1.81665C1.9881 2.16183 2.26792 2.44165 2.6131 2.44165H3.23209L3.23999 2.4417L3.24789 2.44165H3.86646C4.21163 2.44165 4.49146 2.16183 4.49146 1.81665C4.49146 1.47147 4.21163 1.19165 3.86646 1.19165H3.86499V0.40625H6.375V1.19165H6.37329C6.02811 1.19165 5.74829 1.47147 5.74829 1.81665C5.74829 2.16183 6.02811 2.44165 6.37329 2.44165H6.99234L7 2.4417L7.00766 2.44165H7.62665C7.97183 2.44165 8.25165 2.16183 8.25165 1.81665C8.25165 1.47147 7.97183 1.19165 7.62665 1.19165H7.625V0.40625H10.135V1.19165H10.1335C9.78837 1.19165 9.50854 1.47147 9.50854 1.81665C9.50854 2.16183 9.78837 2.44165 10.1335 2.44165H11.3869C11.7321 2.44165 12.0119 2.16183 12.0119 1.81665C12.0119 1.47147 11.7321 1.19165 11.3869 1.19165H11.385V0.406616L13.0802 0.40625C13.3563 0.40625 13.5802 0.630108 13.5802 0.90625V9.24156C13.5802 9.5177 13.3563 9.74156 13.0802 9.74156H10.896V13.2422C10.896 13.6564 10.5602 13.9922 10.146 13.9922C9.73178 13.9922 9.396 13.6564 9.396 13.2422V9.74156H4.604V13.2422C4.604 13.6564 4.26822 13.9922 3.854 13.9922C3.43979 13.9922 3.104 13.6564 3.104 13.2422V9.74156H0.919922C0.643779 9.74156 0.419922 9.5177 0.419922 9.24156V0.90625C0.419922 0.630108 0.64378 0.40625 0.919922 0.40625H2.61499ZM8.88013 6.11517C8.53495 6.11517 8.25513 6.395 8.25513 6.74017C8.25513 7.08535 8.53495 7.36517 8.88013 7.36517H11.3868C11.732 7.36517 12.0118 7.08535 12.0118 6.74017C12.0118 6.395 11.732 6.11517 11.3868 6.11517H8.88013Z" fill="black"/>
</g>
<defs>
<clipPath id="clip0_1068_188364">
<rect width="14" height="14" fill="white"/>
</clipPath>
</defs>
</svg>
