<svg width="14" height="14" viewBox="0 0 14 14" fill="none" xmlns="http://www.w3.org/2000/svg">
<path fill-rule="evenodd" clip-rule="evenodd" d="M8.20101 13.4069L10.3225 5.06757L11.6702 10.3651H10.7825C10.3683 10.3651 10.0325 10.7009 10.0325 11.1151C10.0325 11.5293 10.3683 11.8651 10.7825 11.8651H12.0517L12.444 13.4069C12.5461 13.8083 12.9543 14.0509 13.3557 13.9488C13.7571 13.8467 13.9998 13.4385 13.8977 13.037L11.0503 1.84422C11.0484 1.83673 11.0464 1.82927 11.0443 1.82184L11.0386 1.80251C10.9868 1.63552 10.881 1.49857 10.7455 1.40613C10.7234 1.39103 10.7005 1.37713 10.677 1.3645C10.5652 1.30449 10.438 1.27256 10.3067 1.27545H3.67643C3.33343 1.27545 3.03414 1.50813 2.94958 1.84054L0.101283 13.037C0.0442093 13.2614 0.0939379 13.4995 0.236026 13.6823C0.378114 13.865 0.596637 13.9719 0.828131 13.9719H7.47416C7.81716 13.9719 8.11645 13.7393 8.20101 13.4069Z" fill="black"/>
</svg>
