<svg width="14" height="14" viewBox="0 0 14 14" fill="none" xmlns="http://www.w3.org/2000/svg">
<g clip-path="url(#clip0_1068_188334)">
<path fill-rule="evenodd" clip-rule="evenodd" d="M6.54601 10.2633L3.73571 7.45301C4.04468 6.93561 4.35252 6.40063 4.65817 5.86944C5.67438 4.10339 6.66648 2.37925 7.59589 1.48246C10.1198 -1.04151 13.577 0.421965 13.577 0.421965C13.577 0.421965 15.0405 3.87916 12.5165 6.40312C11.6271 7.32489 9.93014 8.30213 8.17759 9.31136C7.63157 9.62578 7.08006 9.94338 6.54601 10.2633ZM8.68658 3.73075C8.68658 2.8572 9.39473 2.14905 10.2683 2.14905C11.1418 2.14905 11.85 2.8572 11.85 3.73075C11.85 4.6043 11.1418 5.31246 10.2683 5.31246C9.39473 5.31246 8.68658 4.6043 8.68658 3.73075ZM4.59568 3.49889C3.1778 3.12158 1.84735 3.82022 0.666867 4.90303C0.429419 5.12084 0.479009 5.50181 0.755008 5.66808L2.66025 6.81582L2.66245 6.81211C2.93729 6.35188 3.2445 5.81876 3.55576 5.27864C3.91117 4.66188 4.27198 4.03577 4.59568 3.49889ZM7.18322 11.3387L8.33097 13.2439C8.49724 13.5199 8.87822 13.5695 9.09602 13.3321C10.1792 12.1512 10.8779 10.8203 10.4998 9.40186C9.97845 9.71606 9.43022 10.0324 8.88716 10.3452L8.8043 10.3929C8.25576 10.7088 7.71291 11.0214 7.18836 11.3356L7.18322 11.3387ZM2.62115 9.3429C2.88969 9.33816 3.15643 9.38756 3.40547 9.48815C3.6545 9.58874 3.88073 9.73846 4.07064 9.92838C4.26056 10.1183 4.41028 10.3445 4.51087 10.5936C4.61146 10.8426 4.66086 11.1093 4.65612 11.3779C4.65138 11.6464 4.5926 11.9112 4.48329 12.1566C4.37454 12.4007 4.21799 12.6205 4.02289 12.803C3.80112 13.0154 3.4541 13.1815 3.13238 13.3093C2.78935 13.4457 2.39793 13.5675 2.03248 13.6672C1.66581 13.7673 1.3156 13.8478 1.05113 13.9003C0.919798 13.9263 0.803944 13.9466 0.715144 13.9587C0.672517 13.9645 0.625434 13.9699 0.581977 13.9718C0.562277 13.9727 0.526669 13.9738 0.485951 13.9699C0.466433 13.968 0.428646 13.9635 0.383709 13.9501C0.354047 13.9412 0.238821 13.9061 0.142826 13.7941C0.0606054 13.6982 0.038221 13.5981 0.0328285 13.574C0.0241841 13.5354 0.0215415 13.5027 0.0205415 13.4853C0.018467 13.4493 0.0200355 13.4174 0.021263 13.3984C0.0239258 13.3573 0.0295985 13.312 0.0357699 13.2696C0.0485436 13.1817 0.0692964 13.0668 0.0958806 12.9358C0.149351 12.6723 0.230533 12.3237 0.331114 11.9586C0.431344 11.5947 0.553418 11.2051 0.689896 10.8635C0.817979 10.5429 0.984049 10.1974 1.19604 9.97612C1.37858 9.78103 1.59837 9.62448 1.84244 9.51573C2.08777 9.40642 2.35261 9.34764 2.62115 9.3429Z" fill="black"/>
</g>
<defs>
<clipPath id="clip0_1068_188334">
<rect width="14" height="14" fill="white"/>
</clipPath>
</defs>
</svg>
