<svg width="14" height="14" viewBox="0 0 14 14" fill="none" xmlns="http://www.w3.org/2000/svg">
<g clip-path="url(#clip0_1068_188343)">
<path fill-rule="evenodd" clip-rule="evenodd" d="M11.7984 0.125732C12.2126 0.125732 12.5484 0.461519 12.5484 0.875732V1.65635C12.782 1.71877 13.0039 1.81429 13.2016 1.94868C13.6264 2.23745 13.9193 2.69938 13.9193 3.27775C13.9193 3.69196 13.5836 4.02775 13.1693 4.02775C12.7551 4.02775 12.4193 3.69196 12.4193 3.27775C12.4193 3.25226 12.4144 3.2436 12.4127 3.24048C12.4098 3.23533 12.3974 3.21575 12.3583 3.1892C12.2728 3.13104 12.0902 3.06256 11.7983 3.06256C11.592 3.06256 11.4439 3.06317 11.319 3.07455C11.2625 3.0797 11.2214 3.08627 11.1919 3.09293C11.1849 3.12767 11.1773 3.18639 11.1773 3.27775C11.1773 3.35485 11.1982 3.43417 11.3491 3.56595C11.5263 3.72073 11.7828 3.8597 12.1464 4.05023L12.1813 4.06848C12.4988 4.2347 12.9094 4.44963 13.2342 4.73336C13.5975 5.05058 13.9193 5.51007 13.9193 6.15136C13.9193 6.46031 13.874 6.76654 13.739 7.04069C13.595 7.33317 13.3733 7.53922 13.1124 7.66823C12.9216 7.76253 12.7243 7.80862 12.5484 7.83305V8.55333C12.5484 8.96754 12.2126 9.30333 11.7984 9.30333C11.3842 9.30333 11.0484 8.96754 11.0484 8.55333V7.79105C10.8306 7.74174 10.6169 7.66357 10.4224 7.54342C9.94224 7.24666 9.67737 6.75505 9.67737 6.15136C9.67737 5.73715 10.0131 5.40136 10.4273 5.40136C10.8415 5.40136 11.1773 5.73715 11.1773 6.15136C11.1773 6.19172 11.1814 6.21782 11.1848 6.23269C11.1879 6.24634 11.1909 6.25199 11.1912 6.25259C11.1922 6.25369 11.1979 6.25936 11.211 6.26741C11.2789 6.30936 11.4529 6.36584 11.792 6.36654L11.7984 6.36652L11.8055 6.36655C12.0081 6.36653 12.1542 6.36581 12.2777 6.35456C12.3342 6.34941 12.3753 6.34284 12.4048 6.33618C12.4118 6.30144 12.4193 6.24272 12.4193 6.15136C12.4193 6.07426 12.3985 5.99494 12.2476 5.86316C12.0703 5.70838 11.8139 5.56941 11.4502 5.37888L11.4154 5.36063C11.0979 5.19441 10.6873 4.97949 10.3624 4.69575C9.99923 4.37853 9.67737 3.91904 9.67737 3.27775C9.67737 2.9688 9.72269 2.66257 9.85769 2.38842C10.0017 2.09594 10.2234 1.8899 10.4843 1.76088C10.6751 1.66657 10.8724 1.62048 11.0484 1.59605V0.875732C11.0484 0.461519 11.3842 0.125732 11.7984 0.125732ZM4.08203 4.46307C4.08203 3.71982 3.54146 3.10283 2.83203 2.98381V0.875732C2.83203 0.461519 2.49624 0.125732 2.08203 0.125732C1.66782 0.125732 1.33203 0.461519 1.33203 0.875732V2.98381C0.622602 3.10283 0.0820312 3.71982 0.0820312 4.46307V8.96307C0.0820312 9.70632 0.622602 10.3233 1.33203 10.4423V11.4631C1.33203 11.8773 1.66782 12.2131 2.08203 12.2131C2.49624 12.2131 2.83203 11.8773 2.83203 11.4631V10.4423C3.54146 10.3233 4.08203 9.70632 4.08203 8.96307V4.46307ZM6.33203 6.98381C5.6226 7.10283 5.08203 7.71982 5.08203 8.46307V9.96307C5.08203 10.7063 5.6226 11.3233 6.33203 11.4423V13.1245C6.33203 13.5387 6.66782 13.8745 7.08203 13.8745C7.49624 13.8745 7.83203 13.5387 7.83203 13.1245V11.4423C8.54146 11.3233 9.08203 10.7063 9.08203 9.96307V8.46307C9.08203 7.71982 8.54146 7.10283 7.83203 6.98381V3.96307C7.83203 3.54886 7.49624 3.21307 7.08203 3.21307C6.66782 3.21307 6.33203 3.54886 6.33203 3.96307V6.98381Z" fill="black"/>
</g>
<defs>
<clipPath id="clip0_1068_188343">
<rect width="14" height="14" fill="white"/>
</clipPath>
</defs>
</svg>
