<svg width="14" height="14" viewBox="0 0 14 14" fill="none" xmlns="http://www.w3.org/2000/svg">
<g clip-path="url(#clip0_1068_188349)">
<path fill-rule="evenodd" clip-rule="evenodd" d="M1.26494 0.901554C1.50517 0.373909 2.03169 -0.00359809 2.62171 2.58685e-05H11.3783L11.3761 4.06802e-05L11.38 0.500026V2.58685e-05H11.3783C11.9683 -0.00359809 12.4948 0.373909 12.7351 0.901554L12.736 0.903571L13.6426 2.91858H0.357407L1.26403 0.903573L1.26494 0.901554ZM0 4.16858H14V5.53371C14 5.79763 13.9057 6.05968 13.7245 6.26021C13.5418 6.46242 13.2825 6.58708 13 6.58708H1C0.717478 6.58708 0.458162 6.46242 0.275457 6.26021C0.0942681 6.05968 0 5.79763 0 5.53371V4.16858ZM1 8.34634C1 8.07019 1.22386 7.84634 1.5 7.84634H12.5C12.7761 7.84634 13 8.07019 13 8.34634V13C13 13.2652 12.8946 13.5196 12.7071 13.7071C12.5196 13.8947 12.2652 14 12 14H10.7445V10.2102C10.7445 10.152 10.7193 10.0962 10.6744 10.055C10.6295 10.0139 10.5687 9.99073 10.5052 9.99073H8.51272C8.44926 9.99073 8.3884 10.0139 8.34352 10.055C8.29865 10.0962 8.27344 10.152 8.27344 10.2102V14H2C1.73478 14 1.48043 13.8947 1.29289 13.7071C1.10536 13.5196 1 13.2652 1 13V8.34634ZM2.50192 10V11.2609C2.50192 11.537 2.72578 11.7609 3.00192 11.7609H6.01593C6.29207 11.7609 6.51593 11.537 6.51593 11.2609V10C6.51593 9.72388 6.29207 9.50002 6.01593 9.50002H3.00192C2.72578 9.50002 2.50192 9.72388 2.50192 10Z" fill="black"/>
</g>
<defs>
<clipPath id="clip0_1068_188349">
<rect width="14" height="14" fill="white"/>
</clipPath>
</defs>
</svg>
