<svg width="14" height="14" viewBox="0 0 14 14" fill="none" xmlns="http://www.w3.org/2000/svg">
<g clip-path="url(#clip0_1068_188367)">
<path fill-rule="evenodd" clip-rule="evenodd" d="M2.18214 0.366521C2.25473 0.211266 2.41062 0.112061 2.582 0.112061H11.41C11.5814 0.112061 11.7372 0.211266 11.8098 0.366521L13.134 3.19892C13.1672 3.26985 13.1804 3.34701 13.174 3.42263H13.1758V4.25725C13.1758 4.71945 12.9759 5.16272 12.6201 5.48954C12.2643 5.81637 11.7818 5.99998 11.2787 5.99998H11.0416C10.5384 5.99998 10.0559 5.81637 9.70015 5.48954C9.55952 5.36035 9.44324 5.21296 9.35405 5.0534C9.24887 4.88527 9.0461 4.88147 8.93036 5.06164C8.84179 5.21804 8.7271 5.36258 8.58889 5.48954C8.23313 5.81637 7.7506 5.99998 7.24747 5.99998H6.7732C6.27007 5.99998 5.78754 5.81637 5.43177 5.48954C5.28395 5.35375 5.16304 5.19785 5.0722 5.02884C4.96728 4.89156 4.78557 4.89052 4.67377 5.04043C4.58366 5.20498 4.46492 5.35686 4.32048 5.48954C3.96472 5.81637 3.48219 5.99998 2.97906 5.99998H2.71347C2.21033 5.99998 1.72781 5.81637 1.37204 5.48954C1.01627 5.16272 0.816406 4.71945 0.816406 4.25725V3.42263H0.81794C0.811622 3.34701 0.824791 3.26985 0.857949 3.19892L2.18214 0.366521ZM1.66064 10.4999V7.07781C1.9982 7.19154 2.35446 7.24999 2.71347 7.24999H2.97906C2.98571 7.24999 2.99237 7.24997 2.99902 7.24993V10H10.999V7.24972C11.0132 7.2499 11.0274 7.24999 11.0416 7.24999H11.2787C11.6398 7.24999 11.9981 7.19087 12.3374 7.07582V10.4999C12.3374 11.0522 11.8897 11.4999 11.3374 11.4999H8.576L9.17605 13H9.99902C10.2751 13 10.499 13.2239 10.499 13.5C10.499 13.7761 10.2751 14 9.99902 14H8.83753H5.16052H3.99902C3.72288 14 3.49902 13.7761 3.49902 13.5C3.49902 13.2239 3.72288 13 3.99902 13H4.822L5.42204 11.4999H2.66064C2.10836 11.4999 1.66064 11.0522 1.66064 10.4999Z" fill="black"/>
</g>
<defs>
<clipPath id="clip0_1068_188367">
<rect width="14" height="14" fill="white"/>
</clipPath>
</defs>
</svg>
