<svg width="14" height="14" viewBox="0 0 14 14" fill="none" xmlns="http://www.w3.org/2000/svg">
<g clip-path="url(#clip0_1068_188340)">
<path fill-rule="evenodd" clip-rule="evenodd" d="M1.99997 0C1.80584 0 1.62925 0.112374 1.54704 0.288238L0.0470579 3.49662C0.00950096 3.57695 -0.005416 3.66435 0.00173586 3.75H0V4.69541C0 5.21897 0.2264 5.72108 0.629395 6.09129C1.03239 6.4615 1.57897 6.66948 2.14889 6.66948H2.44973C3.01965 6.66948 3.56623 6.4615 3.96922 6.09129C4.13284 5.94099 4.26734 5.76895 4.3694 5.58255C4.49605 5.41275 4.70188 5.41392 4.82073 5.56943C4.92363 5.76087 5.06059 5.93747 5.22803 6.09129C5.63103 6.4615 6.1776 6.66948 6.74752 6.66948H7.28475C7.85467 6.66948 8.40124 6.4615 8.80424 6.09129C8.96079 5.94747 9.0907 5.78374 9.19103 5.60658C9.32213 5.40249 9.55182 5.4068 9.67096 5.59725C9.772 5.77799 9.9037 5.94495 10.063 6.09129C10.466 6.4615 11.0126 6.66948 11.5825 6.66948H11.8511C12.421 6.66948 12.9676 6.4615 13.3706 6.09129C13.7736 5.72108 14 5.21897 14 4.69541V3.75H13.9981C14.0052 3.66435 13.9903 3.57695 13.9527 3.49662L12.4528 0.288238C12.3705 0.112374 12.194 0 11.9998 0H1.99997ZM1 13V7.72853C2.18817 8.12118 3.60487 7.94625 4.57848 7.19297C5.87556 8.19652 8.12675 8.19653 9.42383 7.19298C10.4016 7.94946 11.8159 8.12122 13 7.71928V13C13 13.2652 12.8946 13.5196 12.7071 13.7071C12.5196 13.8947 12.2652 14 12 14H10.7445V10.2102C10.7445 10.152 10.7193 10.0962 10.6744 10.055C10.6295 10.0139 10.5687 9.99075 10.5052 9.99075H8.51271C8.44925 9.99075 8.38839 10.0139 8.34352 10.055C8.29865 10.0962 8.27344 10.152 8.27344 10.2102V14H2C1.73478 14 1.48043 13.8947 1.29289 13.7071C1.10536 13.5196 1 13.2652 1 13ZM2.50192 10.7609V9.50002C2.50192 9.22388 2.72578 9.00002 3.00192 9.00002H6.01593C6.29207 9.00002 6.51593 9.22388 6.51593 9.50002V10.7609C6.51593 11.037 6.29207 11.2609 6.01593 11.2609H3.00192C2.72578 11.2609 2.50192 11.037 2.50192 10.7609Z" fill="black"/>
</g>
<defs>
<clipPath id="clip0_1068_188340">
<rect width="14" height="14" fill="white"/>
</clipPath>
</defs>
</svg>
