<svg width="14" height="14" viewBox="0 0 14 14" fill="none" xmlns="http://www.w3.org/2000/svg">
<g clip-path="url(#clip0_1068_188346)">
<path fill-rule="evenodd" clip-rule="evenodd" d="M0.21967 1.28033C-0.0732233 0.987437 -0.0732233 0.512563 0.21967 0.21967C0.512563 -0.0732233 0.987437 -0.0732233 1.28033 0.21967L4.69964 3.63898L6.94395 1.39466C7.03165 1.30437 7.13811 1.23441 7.25586 1.18975C7.37572 1.14429 7.50424 1.12619 7.632 1.1368C7.64356 1.13776 7.65509 1.13912 7.66657 1.14088L11.2444 1.69061L12.6397 0.295354C12.9326 0.00246027 13.4075 0.00246027 13.7004 0.295354C13.9933 0.588247 13.9933 1.06312 13.7004 1.35601L12.3051 2.75127L12.8548 6.32915C12.8566 6.34063 12.858 6.35216 12.8589 6.36372C12.8695 6.49148 12.8514 6.62 12.806 6.73986C12.7613 6.85761 12.6913 6.96407 12.6011 7.05177L10.3567 9.29608L13.7803 12.7197C14.0732 13.0126 14.0732 13.4874 13.7803 13.7803C13.4874 14.0732 13.0126 14.0732 12.7197 13.7803L0.21967 1.28033ZM8.38992 11.2629L2.73282 5.6058L0.437082 7.90153C-0.0387884 8.37799 -0.0390074 9.19195 0.436863 9.66842L4.32708 13.5586C4.56146 13.7926 4.87938 13.9244 5.21064 13.9244C5.54189 13.9244 5.85959 13.7929 6.09397 13.5589L8.38992 11.2629ZM9.49336 5.29345C9.01644 5.29345 8.62982 4.90683 8.62982 4.42991C8.62982 3.953 9.01644 3.56638 9.49336 3.56638C9.97028 3.56638 10.3569 3.953 10.3569 4.42991C10.3569 4.90683 9.97028 5.29345 9.49336 5.29345Z" fill="black"/>
</g>
<defs>
<clipPath id="clip0_1068_188346">
<rect width="14" height="14" fill="white"/>
</clipPath>
</defs>
</svg>
