<svg width="14" height="14" viewBox="0 0 14 14" fill="none" xmlns="http://www.w3.org/2000/svg">
<g clip-path="url(#clip0_1068_188370)">
<path fill-rule="evenodd" clip-rule="evenodd" d="M2.12636 0.167331C2.22123 0.0608804 2.35704 0 2.49963 0H11.4996C11.6422 0 11.778 0.0608804 11.8729 0.167331C11.9677 0.273782 12.0127 0.415674 11.9963 0.557325L11.0364 8.87445H2.96282L2.00293 0.557325C1.98658 0.415674 2.03149 0.273782 2.12636 0.167331ZM3.10709 10.1245L3.38128 12.5002H0.773438C0.359224 12.5002 0.0234375 12.836 0.0234375 13.2502C0.0234375 13.6644 0.359224 14.0002 0.773438 14.0002H13.2258C13.64 14.0002 13.9758 13.6644 13.9758 13.2502C13.9758 12.836 13.64 12.5002 13.2258 12.5002H10.618L10.8921 10.1245H3.10709Z" fill="black"/>
</g>
<defs>
<clipPath id="clip0_1068_188370">
<rect width="14" height="14" fill="white"/>
</clipPath>
</defs>
</svg>
