<svg width="14" height="14" viewBox="0 0 14 14" fill="none" xmlns="http://www.w3.org/2000/svg">
<g clip-path="url(#clip0_1068_188373)">
<path fill-rule="evenodd" clip-rule="evenodd" d="M11.4859 0.378744C11.4423 0.203986 11.3079 0.0662386 11.1343 0.0181543C10.9607 -0.0299301 10.7747 0.019083 10.6473 0.146458L8.64727 2.14646C8.52308 2.27065 8.47316 2.45089 8.51575 2.62128L8.87656 4.06454C8.87173 4.06912 8.86695 4.07377 8.86222 4.07851L6.47006 6.47066C6.17717 6.76356 6.17717 7.23843 6.47006 7.53132C6.76296 7.82422 7.23783 7.82422 7.53072 7.53132L9.92288 5.13917C9.92772 5.13432 9.9325 5.12943 9.93717 5.12449L11.3796 5.48508C11.55 5.52768 11.7302 5.47776 11.8544 5.35357L13.8544 3.35356C13.9818 3.22619 14.0308 3.04014 13.9827 2.86654C13.9346 2.69295 13.7969 2.55863 13.6221 2.51494L11.9132 2.0877L11.4859 0.378744ZM7.318 0.758091C7.34671 1.17131 7.035 1.52956 6.62178 1.55827C5.57714 1.63084 4.57529 2.00176 3.73525 2.62696C2.89521 3.25216 2.2523 4.10537 1.88289 5.0852C1.51348 6.06504 1.43311 7.13032 1.65132 8.1545C1.86953 9.17867 2.37715 10.1187 3.11387 10.8628C3.8506 11.607 4.78545 12.124 5.80738 12.3525C6.82931 12.581 7.89534 12.5114 8.87884 12.1518C9.86234 11.7923 10.722 11.158 11.3556 10.3243C11.9892 9.49055 12.3702 8.49247 12.4533 7.44862C12.4861 7.03571 12.8475 6.72762 13.2604 6.76047C13.6733 6.79333 13.9814 7.1547 13.9485 7.56761C13.8427 8.89774 13.3573 10.1695 12.5499 11.2319C11.7425 12.2942 10.6471 13.1025 9.39387 13.5606C8.14065 14.0188 6.78226 14.1075 5.48008 13.8164C4.1779 13.5252 2.98666 12.8664 2.0479 11.9182C1.10913 10.9699 0.462305 9.77211 0.184253 8.46707C-0.0937991 7.16203 0.00861615 5.8046 0.479331 4.55605C0.950046 3.3075 1.76927 2.22031 2.83968 1.42365C3.9101 0.626994 5.1867 0.15435 6.51783 0.0618737C6.93104 0.0331665 7.28929 0.344874 7.318 0.758091ZM6.64626 4.05796C6.79726 4.44367 6.60699 4.87876 6.22128 5.02976C5.89306 5.15825 5.60205 5.36653 5.37456 5.63576C5.14707 5.90499 4.99027 6.22668 4.91836 6.57174C4.84644 6.91679 4.86166 7.27434 4.96266 7.61203C5.06365 7.94972 5.24723 8.25692 5.49678 8.50583C5.74634 8.75475 6.054 8.93753 6.39196 9.03765C6.72991 9.13778 7.08749 9.15208 7.43236 9.07928C7.77723 9.00647 8.09853 8.84885 8.36716 8.62067C8.6358 8.39248 8.84333 8.10094 8.97098 7.77239C9.12098 7.38629 9.55558 7.1949 9.94168 7.34491C10.3278 7.49492 10.5192 7.92951 10.3692 8.31561C10.1513 8.87655 9.7969 9.37433 9.33823 9.76392C8.87957 10.1535 8.33101 10.4226 7.7422 10.5469C7.15338 10.6712 6.54287 10.6468 5.96586 10.4759C5.38886 10.3049 4.86357 9.99284 4.43749 9.56786C4.01141 9.14287 3.69798 8.61838 3.52555 8.04182C3.35312 7.46526 3.32712 6.85481 3.44991 6.26568C3.5727 5.67654 3.84041 5.12731 4.22881 4.66764C4.61722 4.20797 5.11408 3.85236 5.67446 3.63298C6.06017 3.48198 6.49526 3.67225 6.64626 4.05796Z" fill="black"/>
</g>
<defs>
<clipPath id="clip0_1068_188373">
<rect width="14" height="14" fill="white"/>
</clipPath>
</defs>
</svg>
