<svg width="14" height="14" viewBox="0 0 14 14" fill="none" xmlns="http://www.w3.org/2000/svg">
<g clip-path="url(#clip0_1068_188376)">
<path fill-rule="evenodd" clip-rule="evenodd" d="M12.3231 6.25H11.4917C11.0775 6.25 10.7417 6.58579 10.7417 7C10.7417 7.41421 11.0775 7.75 11.4917 7.75H12.3231C11.9924 10.1184 10.1184 11.9924 7.75 12.3231V11.4917C7.75 11.0775 7.41421 10.7417 7 10.7417C6.58579 10.7417 6.25 11.0775 6.25 11.4917V12.3231C3.8816 11.9924 2.00757 10.1184 1.67691 7.75H2.50833C2.92255 7.75 3.25833 7.41421 3.25833 7C3.25833 6.58579 2.92255 6.25 2.50833 6.25H1.67691C2.00757 3.8816 3.8816 2.00757 6.25 1.67691V2.50833C6.25 2.92255 6.58579 3.25833 7 3.25833C7.41421 3.25833 7.75 2.92255 7.75 2.50833V1.67691C10.1184 2.00757 11.9924 3.8816 12.3231 6.25ZM0.125 7C0.125 3.20304 3.20304 0.125 7 0.125C10.797 0.125 13.875 3.20304 13.875 7C13.875 10.797 10.797 13.875 7 13.875C3.20304 13.875 0.125 10.797 0.125 7ZM4.64624 7C4.64624 7.41421 4.98203 7.75 5.39624 7.75H6.25V8.60366C6.25 9.01788 6.58579 9.35366 7 9.35366C7.41421 9.35366 7.75 9.01788 7.75 8.60366V7.75H8.60366C9.01788 7.75 9.35366 7.41421 9.35366 7C9.35366 6.58579 9.01788 6.25 8.60366 6.25H7.75V5.39624C7.75 4.98203 7.41421 4.64624 7 4.64624C6.58579 4.64624 6.25 4.98203 6.25 5.39624V6.25H5.39624C4.98203 6.25 4.64624 6.58579 4.64624 7Z" fill="black"/>
</g>
<defs>
<clipPath id="clip0_1068_188376">
<rect width="14" height="14" fill="white"/>
</clipPath>
</defs>
</svg>
