<svg width="14" height="14" viewBox="0 0 14 14" fill="none" xmlns="http://www.w3.org/2000/svg">
<g clip-path="url(#clip0_1068_188379)">
<path fill-rule="evenodd" clip-rule="evenodd" d="M0 4.35474C0 2.42174 1.567 0.854736 3.5 0.854736H10C10.2761 0.854736 10.5 1.07859 10.5 1.35474V2.75269H3.35547C3.01029 2.75269 2.73047 3.03251 2.73047 3.37769C2.73047 3.72286 3.01029 4.00269 3.35547 4.00269H10.9396C10.9594 4.00269 10.979 4.00176 10.9983 3.99996H11.2121C11.6099 3.99996 11.9914 4.15799 12.2727 4.4393C12.554 4.7206 12.7121 5.10213 12.7121 5.49996V6.41614H9.76276C8.93828 6.41614 8.01276 7.0409 8.01276 8.11074V9.88917C8.01276 10.959 8.93828 11.5838 9.76276 11.5838H12.7121V12.4999C12.7121 12.8978 12.554 13.2793 12.2727 13.5606C11.9914 13.8419 11.6099 13.9999 11.2121 13.9999L1.5 14C1.10217 14 0.720644 13.8419 0.43934 13.5606C0.158035 13.2793 0 12.8978 0 12.5V4.35474ZM9.76276 7.66614H13.2628C13.5389 7.66614 13.7628 7.86519 13.7628 8.11074V9.88917C13.7628 10.1347 13.5389 10.3338 13.2628 10.3338H9.76276C9.48661 10.3338 9.26276 10.1347 9.26276 9.88917V8.11074C9.26276 7.86519 9.48661 7.66614 9.76276 7.66614Z" fill="black"/>
</g>
<defs>
<clipPath id="clip0_1068_188379">
<rect width="14" height="14" fill="white"/>
</clipPath>
</defs>
</svg>
