<svg width="14" height="14" viewBox="0 0 14 14" fill="none" xmlns="http://www.w3.org/2000/svg">
<g clip-path="url(#clip0_1068_188382)">
<path fill-rule="evenodd" clip-rule="evenodd" d="M5 0.25C5.41421 0.25 5.75 0.585786 5.75 1C5.75 1.33152 5.8817 1.64946 6.11612 1.88388C6.35054 2.1183 6.66848 2.25 7 2.25C7.33152 2.25 7.64946 2.1183 7.88388 1.88388C8.1183 1.64946 8.25 1.33152 8.25 1C8.25 0.585786 8.58579 0.25 9 0.25C9.41421 0.25 9.75 0.585786 9.75 1C9.75 1.55718 9.58091 2.09692 9.27115 2.55063C10.9591 2.96272 12.5181 3.83015 13.7679 5.07835C14.0609 5.37106 14.0612 5.84593 13.7685 6.13901C13.4758 6.43208 13.0009 6.43238 12.7079 6.13967C11.1934 4.62707 9.14045 3.77747 6.99999 3.77747C4.85953 3.77747 2.80659 4.62707 1.29212 6.13967C0.99904 6.43238 0.524166 6.43208 0.231456 6.13901C-0.0612554 5.84593 -0.0609599 5.37106 0.232115 5.07835C1.48186 3.83015 3.04085 2.96271 4.72885 2.55062C4.41909 2.09692 4.25 1.55718 4.25 1C4.25 0.585786 4.58579 0.25 5 0.25ZM7 5C5.14348 5 3.36301 5.7375 2.05025 7.05025C0.737498 8.36301 0 10.1435 0 12C0 12.5304 0.210714 13.0391 0.585786 13.4142C0.960859 13.7893 1.46957 14 2 14H12C12.5304 14 13.0391 13.7893 13.4142 13.4142C13.7893 13.0391 14 12.5304 14 12C14 10.1435 13.2625 8.36301 11.9497 7.05025C10.637 5.7375 8.85652 5 7 5Z" fill="black"/>
</g>
<defs>
<clipPath id="clip0_1068_188382">
<rect width="14" height="14" fill="white"/>
</clipPath>
</defs>
</svg>
