<svg width="14" height="14" viewBox="0 0 14 14" fill="none" xmlns="http://www.w3.org/2000/svg">
<g clip-path="url(#clip0_1068_188385)">
<path fill-rule="evenodd" clip-rule="evenodd" d="M7 14C10.866 14 14 10.866 14 7C14 3.13401 10.866 0 7 0C3.13401 0 0 3.13401 0 7C0 10.866 3.13401 14 7 14ZM3.70244 3.1313C3.94651 2.88722 4.34224 2.88722 4.58632 3.1313L6.63094 5.17592L6.63275 5.17773C6.68083 5.22622 6.73804 5.2647 6.80107 5.29096C6.8641 5.31721 6.93171 5.33074 6.99999 5.33074C7.06827 5.33074 7.13588 5.31721 7.19891 5.29096C7.26194 5.2647 7.31915 5.22622 7.36724 5.17773L7.36904 5.17592L9.41366 3.1313C9.65774 2.88722 10.0535 2.88722 10.2975 3.1313C10.5416 3.37538 10.5416 3.77111 10.2975 4.01518L8.25474 6.05799L8.2537 6.05903C8.08963 6.22418 7.89454 6.35529 7.67963 6.44482C7.46428 6.53454 7.23329 6.58074 6.99999 6.58074C6.7667 6.58074 6.53571 6.53454 6.32035 6.44482C6.10544 6.35529 5.91034 6.22417 5.74626 6.05901L3.70244 4.01518C3.45836 3.77111 3.45836 3.37538 3.70244 3.1313ZM6.80107 8.70903C6.8641 8.68277 6.93171 8.66925 6.99999 8.66925C7.06827 8.66925 7.13588 8.68277 7.19891 8.70903C7.26194 8.73529 7.31915 8.77377 7.36723 8.82225L7.36904 8.82407L9.41366 10.8687C9.65774 11.1128 10.0535 11.1128 10.2975 10.8687C10.5416 10.6246 10.5416 10.2289 10.2975 9.9848L8.25474 7.942L8.25372 7.94098C8.08965 7.77582 7.89455 7.6447 7.67963 7.55516C7.46428 7.46544 7.23329 7.41925 6.99999 7.41925C6.7667 7.41925 6.53571 7.46544 6.32035 7.55516C6.10543 7.6447 5.91032 7.77583 5.74624 7.941L3.70244 9.9848C3.45836 10.2289 3.45836 10.6246 3.70244 10.8687C3.94651 11.1128 4.34224 11.1128 4.58632 10.8687L6.63094 8.82407L6.63275 8.82225C6.68083 8.77377 6.73804 8.73529 6.80107 8.70903Z" fill="black"/>
</g>
<defs>
<clipPath id="clip0_1068_188385">
<rect width="14" height="14" fill="white"/>
</clipPath>
</defs>
</svg>
