<svg width="14" height="14" viewBox="0 0 14 14" fill="none" xmlns="http://www.w3.org/2000/svg">
<g clip-path="url(#clip0_1068_188388)">
<path fill-rule="evenodd" clip-rule="evenodd" d="M7 14C10.866 14 14 10.866 14 7C14 3.13401 10.866 0 7 0C3.13401 0 0 3.13401 0 7C0 10.866 3.13401 14 7 14ZM9.8702 2.99904C10.1467 3.20567 10.2033 3.59733 9.99672 3.87383L7.70581 6.93944V6.95837H8.95933C9.3045 6.95837 9.58433 7.2382 9.58433 7.58337C9.58433 7.92855 9.3045 8.20837 8.95933 8.20837H7.70581V9.07025H8.95933C9.3045 9.07025 9.58433 9.35007 9.58433 9.69525C9.58433 10.0404 9.3045 10.3203 8.95933 10.3203H7.70581V10.7787C7.70581 11.1239 7.42599 11.4037 7.08081 11.4037C6.73563 11.4037 6.45581 11.1239 6.45581 10.7787V10.3203H5.19067C4.8455 10.3203 4.56567 10.0404 4.56567 9.69525C4.56567 9.35007 4.8455 9.07025 5.19067 9.07025H6.45581V8.20837H5.19067C4.8455 8.20837 4.56567 7.92855 4.56567 7.58337C4.56567 7.2382 4.8455 6.95837 5.19067 6.95837H6.45581V6.9401L4.15421 3.87498C3.94694 3.59896 4.00268 3.20718 4.2787 2.99991C4.55473 2.79265 4.94651 2.84838 5.15378 3.12441L7.07966 5.68916L8.99542 3.12556C9.20205 2.84906 9.5937 2.79242 9.8702 2.99904Z" fill="black"/>
</g>
<defs>
<clipPath id="clip0_1068_188388">
<rect width="14" height="14" fill="white"/>
</clipPath>
</defs>
</svg>
