<svg width="14" height="14" viewBox="0 0 14 14" fill="none" xmlns="http://www.w3.org/2000/svg">
<path fill-rule="evenodd" clip-rule="evenodd" d="M3.80006 0.400059C3.46869 -0.0417689 2.84189 -0.131312 2.40006 0.200059C1.95823 0.53143 1.86869 1.15823 2.20006 1.60006L6.11676 6.82232V6.84314H3.91491C3.36263 6.84314 2.91491 7.29085 2.91491 7.84314C2.91491 8.39542 3.36263 8.84314 3.91491 8.84314H6.11676V10.0885H3.91491C3.36263 10.0885 2.91491 10.5362 2.91491 11.0885C2.91491 11.6408 3.36263 12.0885 3.91491 12.0885H6.11676V12.8926C6.11676 13.4449 6.56447 13.8926 7.11676 13.8926C7.66904 13.8926 8.11676 13.4449 8.11676 12.8926V12.0885H10.3186C10.8709 12.0885 11.3186 11.6408 11.3186 11.0885C11.3186 10.5362 10.8709 10.0885 10.3186 10.0885H8.11676V8.84314H10.3186C10.8709 8.84314 11.3186 8.39542 11.3186 7.84314C11.3186 7.29085 10.8709 6.84314 10.3186 6.84314H8.11676V6.82227L12.0334 1.60006C12.3648 1.15823 12.2752 0.53143 11.8334 0.200059C11.3916 -0.131312 10.7648 -0.0417689 10.4334 0.400059L7.11674 4.8223L3.80006 0.400059Z" fill="black"/>
</svg>
