<svg width="14" height="14" viewBox="0 0 14 14" fill="none" xmlns="http://www.w3.org/2000/svg">
    <g clip-path="url(#clip0_1068_189529)">
        <path fill-rule="evenodd" clip-rule="evenodd"
              d="M7.88381 0.165291C6.89196 0.0450664 5.88886 0.268505 5.04181 0.798345C4.25349 1.29145 3.64467 2.02219 3.30135 2.88247C2.87262 2.92977 2.45508 3.05187 2.06781 3.24362C1.63324 3.45878 1.24531 3.75744 0.92616 4.12253C0.281611 4.85986 -0.0436335 5.82304 0.0219743 6.80017C0.087582 7.77731 0.538668 8.68836 1.276 9.33291C1.52925 9.55429 1.80913 9.738 2.10708 9.88114C2.23853 9.09496 2.79956 8.38069 3.79016 8.20836C4.35848 8.10949 4.81104 7.67811 4.93736 7.11585L4.96023 7.01146C5.43591 4.83845 8.53 4.82492 9.02466 6.9937L9.03475 7.03814C9.04166 7.06865 9.047 7.09221 9.05244 7.11538C9.18449 7.6778 9.63973 8.10763 10.2096 8.20676C11.2609 8.38966 11.8287 9.18251 11.9131 10.0243C12.2792 9.884 12.6197 9.67707 12.9162 9.41068C13.5042 8.88231 13.878 8.15668 13.9669 7.37119C14.0558 6.58569 13.8536 5.79486 13.3985 5.14845C12.9811 4.55545 12.3775 4.12175 11.6866 3.91417C11.5613 2.99088 11.1436 2.12994 10.4923 1.45901C9.79633 0.742138 8.87567 0.285516 7.88381 0.165291ZM6.18132 7.27876C6.37146 6.41016 7.60823 6.40476 7.80595 7.27166L7.81577 7.3149C7.8225 7.34462 7.82879 7.37239 7.83553 7.4011C8.08204 8.451 8.93171 9.25323 9.99531 9.43826C10.9004 9.59573 10.9004 10.8951 9.99531 11.0525C8.92604 11.2386 8.07299 12.0484 7.83164 13.1065L7.80595 13.2191C7.60823 14.086 6.37146 14.0806 6.18132 13.212L6.16017 13.1154C5.92765 12.0532 5.07564 11.2373 4.0044 11.0509C3.10108 10.8938 3.10107 9.59701 4.0044 9.43986C5.07191 9.25414 5.92172 8.44323 6.15771 7.38648L6.17343 7.31494L6.18132 7.27876Z"
              fill="black"/>
    </g>
    <defs>
        <clipPath id="clip0_1068_189529">
            <rect width="14" height="14" fill="white"/>
        </clipPath>
    </defs>
</svg>
