<svg width="14" height="14" viewBox="0 0 14 14" fill="none" xmlns="http://www.w3.org/2000/svg">
<g clip-path="url(#clip0_1068_189544)">
<path fill-rule="evenodd" clip-rule="evenodd" d="M8.71468 0.0400391C9.1289 0.0400391 9.46468 0.375825 9.46468 0.790039V1.97754H10.4999C11.3283 1.97754 11.9999 2.64911 11.9999 3.47754V4.51367H13.2186C13.6328 4.51367 13.9686 4.84946 13.9686 5.26367C13.9686 5.67789 13.6328 6.01367 13.2186 6.01367H11.9999V7.94324H13.2186C13.6328 7.94324 13.9686 8.27902 13.9686 8.69324C13.9686 9.10745 13.6328 9.44324 13.2186 9.44324H11.9999V10.4775C11.9999 11.306 11.3283 11.9775 10.4999 11.9775H9.46468V13.2099C9.46468 13.6241 9.1289 13.9599 8.71468 13.9599C8.30047 13.9599 7.96468 13.6241 7.96468 13.2099V11.9775H6.03524V13.2099C6.03524 13.6241 5.69945 13.9599 5.28524 13.9599C4.87103 13.9599 4.53524 13.6241 4.53524 13.2099V11.9775H3.49984C2.67141 11.9775 1.99984 11.306 1.99984 10.4775V9.44324H0.783203C0.368989 9.44324 0.0332031 9.10745 0.0332031 8.69324C0.0332031 8.27902 0.368989 7.94324 0.783203 7.94324H1.99984V6.01367H0.783203C0.368989 6.01367 0.0332031 5.67789 0.0332031 5.26367C0.0332031 4.84946 0.368989 4.51367 0.783203 4.51367H1.99984V3.47754C1.99984 2.64911 2.67141 1.97754 3.49984 1.97754H4.53524V0.790039C4.53524 0.375825 4.87103 0.0400391 5.28524 0.0400391C5.69945 0.0400391 6.03524 0.375825 6.03524 0.790039V1.97754H7.96468V0.790039C7.96468 0.375825 8.30047 0.0400391 8.71468 0.0400391ZM6.24357 4.5682C6.41951 3.76446 7.56392 3.75946 7.74688 4.56163L7.75499 4.59732C7.76038 4.62113 7.76543 4.64342 7.7708 4.66628C7.96264 5.48335 8.62389 6.10768 9.45164 6.25169C10.2908 6.39768 10.2908 7.60232 9.45164 7.74831C8.61948 7.89308 7.95559 8.52332 7.76776 9.34682L7.74688 9.43837C7.56392 10.2405 6.41951 10.2355 6.24357 9.4318L6.22638 9.35325C6.04547 8.52684 5.38257 7.89201 4.54911 7.74701C3.71142 7.60128 3.71141 6.39872 4.54911 6.25299C5.37967 6.10849 6.04086 5.47757 6.22447 4.65539L6.23707 4.598L6.24357 4.5682Z" fill="black"/>
</g>
<defs>
<clipPath id="clip0_1068_189544">
<rect width="14" height="14" fill="white"/>
</clipPath>
</defs>
</svg>
