<svg width="14" height="14" viewBox="0 0 14 14" fill="none" xmlns="http://www.w3.org/2000/svg">
<g clip-path="url(#clip0_1068_189541)">
<path fill-rule="evenodd" clip-rule="evenodd" d="M1.62026 0.0512695H10.9316C11.7887 0.0512695 12.4835 0.746078 12.4835 1.60317V1.68034L6.27595 4.78414L0.0683594 1.68035V1.60317C0.0683594 0.746078 0.763168 0.0512695 1.62026 0.0512695ZM0.0683594 3.07789V7.81076C0.0683594 8.66785 0.763168 9.36266 1.62026 9.36266H6.54725C6.80422 9.07078 7.16884 8.8528 7.64113 8.77063C8.15658 8.68096 8.56704 8.28972 8.68161 7.77976L8.70235 7.68508C9.13378 5.71422 11.94 5.70195 12.3887 7.66897L12.3978 7.70928C12.4041 7.73695 12.4089 7.75832 12.4139 7.77934C12.4295 7.84583 12.4501 7.91029 12.4752 7.9723C12.4807 7.9192 12.4835 7.86531 12.4835 7.81076V3.07788L6.55545 6.04193C6.3795 6.12991 6.17239 6.12991 5.99644 6.04193L0.0683594 3.07789ZM9.76442 7.91757C9.9475 7.08124 11.1383 7.07603 11.3287 7.91073L11.3376 7.95019C11.3436 7.97709 11.3494 8.00194 11.3555 8.02784C11.5748 8.96193 12.3307 9.67568 13.277 9.8403C14.1493 9.99206 14.1493 11.2443 13.277 11.3961C12.3257 11.5616 11.5667 12.282 11.352 13.2235L11.3287 13.3256C11.1383 14.1603 9.9475 14.1551 9.76442 13.3188L9.74524 13.2311C9.5384 12.2862 8.78045 11.5604 7.82749 11.3946C6.9568 11.2431 6.9568 9.99323 7.82749 9.84175C8.77713 9.67654 9.53312 8.95515 9.74306 8.01508L9.75722 7.95059L9.76442 7.91757Z" fill="black"/>
</g>
<defs>
<clipPath id="clip0_1068_189541">
<rect width="14" height="14" fill="white"/>
</clipPath>
</defs>
</svg>
