<svg width="14" height="14" viewBox="0 0 14 14" fill="none" xmlns="http://www.w3.org/2000/svg">
<g clip-path="url(#clip0_1068_189535)">
<path fill-rule="evenodd" clip-rule="evenodd" d="M2.85637 0.654372C3.04651 -0.214226 4.28328 -0.219632 4.481 0.647271L4.49082 0.690505C4.49756 0.720231 4.50384 0.747995 4.51058 0.776709C4.75709 1.82661 5.60676 2.62884 6.67036 2.81387C7.57548 2.97134 7.57548 4.27068 6.67036 4.42815C5.60109 4.61417 4.74804 5.42398 4.50669 6.48214L4.481 6.59475C4.28328 7.46166 3.04651 7.45624 2.85637 6.58765L2.83522 6.49102C2.6027 5.42885 1.75069 4.61292 0.679451 4.42655C-0.223876 4.2694 -0.223883 2.97262 0.679451 2.81547C1.74696 2.62975 2.59677 1.81884 2.83276 0.762091L2.84848 0.690547L2.85637 0.654372ZM10.6352 3.61645C10.8194 3.53895 11.0172 3.49902 11.217 3.49902C11.4168 3.49902 11.6146 3.53895 11.7988 3.61645C11.9823 3.69369 12.1486 3.80669 12.288 3.94888L12.2895 3.95034L13.5557 5.22652C13.6955 5.36563 13.8066 5.53095 13.8824 5.71303C13.9586 5.89582 13.9978 6.09188 13.9978 6.2899C13.9978 6.48792 13.9586 6.68398 13.8824 6.86676C13.8065 7.0489 13.6955 7.21427 13.5556 7.35341L13.5541 7.3549L7.35665 13.5923C7.2733 13.6762 7.16293 13.7278 7.04513 13.738L4.04513 13.998C3.89803 14.0108 3.75281 13.9579 3.6484 13.8535C3.544 13.749 3.49108 13.6038 3.50382 13.4567L3.76382 10.4567C3.77403 10.3389 3.82566 10.2286 3.90954 10.1452L10.1473 3.94751C10.2864 3.80597 10.4522 3.69344 10.6352 3.61645Z" fill="black"/>
</g>
<defs>
<clipPath id="clip0_1068_189535">
<rect width="14" height="14" fill="white"/>
</clipPath>
</defs>
</svg>
