<svg width="14" height="14" viewBox="0 0 14 14" fill="none" xmlns="http://www.w3.org/2000/svg">
<g clip-path="url(#clip0_1068_189562)">
<path fill-rule="evenodd" clip-rule="evenodd" d="M9.2889 0.770414C9.47222 -0.0670114 10.6646 -0.0722238 10.8552 0.763568L10.8642 0.803181C10.8703 0.830101 10.876 0.855164 10.8821 0.881094C11.1023 1.8191 11.8614 2.53584 12.8117 2.70116C13.6851 2.85311 13.6851 4.10695 12.8117 4.2589C11.8564 4.4251 11.0942 5.14861 10.8786 6.094L10.8552 6.19649C10.6646 7.03229 9.47222 7.02707 9.2889 6.18964L9.26965 6.1017C9.06194 5.15283 8.30081 4.42393 7.34384 4.25744C6.47205 4.10578 6.47205 2.85428 7.34384 2.70261C8.29748 2.53671 9.05664 1.81229 9.26746 0.868267L9.28167 0.803553L9.2889 0.770414ZM7.15656 5.33399C6.89004 5.28762 6.65768 5.19815 6.4595 5.07662H3.94145C2.41281 5.07662 1.12861 6.22603 0.959804 7.74533L0.558928 11.3532C0.41107 12.6839 1.45273 13.8478 2.79165 13.8478C3.64254 13.8478 4.42041 13.367 4.80094 12.6059L5.1546 11.8986H8.07831L8.43198 12.6059C8.81251 13.367 9.59038 13.8478 10.4413 13.8478C11.7802 13.8478 12.8218 12.6839 12.674 11.3532L12.2731 7.74533C12.2257 7.31878 12.0904 6.92139 11.8864 6.57041C11.3442 8.41179 8.6446 8.35624 8.22147 6.42331L8.20222 6.33537C8.08944 5.82016 7.67616 5.42438 7.15656 5.33399ZM4.68321 7.51305C4.68321 7.16787 4.40339 6.88805 4.05821 6.88805C3.71304 6.88805 3.43321 7.16787 3.43321 7.51305V8.02512H2.92129C2.57612 8.02512 2.29629 8.30495 2.29629 8.65012C2.29629 8.9953 2.57612 9.27512 2.92129 9.27512H3.43321V9.78704C3.43321 10.1322 3.71304 10.412 4.05821 10.412C4.40339 10.412 4.68321 10.1322 4.68321 9.78704V9.27512H5.19529C5.54047 9.27513 5.82029 8.9953 5.82029 8.65012C5.82029 8.30495 5.54047 8.02512 5.19529 8.02512H4.68321V7.51305ZM9.43357 9.25923C9.43357 9.59563 9.16087 9.86834 8.82447 9.86834C8.48807 9.86834 8.21536 9.59563 8.21536 9.25923C8.21536 8.92283 8.48807 8.65012 8.82447 8.65012C9.16087 8.65012 9.43357 8.92283 9.43357 9.25923Z" fill="black"/>
</g>
<defs>
<clipPath id="clip0_1068_189562">
<rect width="14" height="14" fill="white"/>
</clipPath>
</defs>
</svg>
