<svg width="14" height="14" viewBox="0 0 14 14" fill="none" xmlns="http://www.w3.org/2000/svg">
<g clip-path="url(#clip0_1068_189532)">
<path fill-rule="evenodd" clip-rule="evenodd" d="M9.91814 0.731127C10.0968 -0.0852602 11.2593 -0.0903417 11.4451 0.724453L11.4535 0.761616C11.4591 0.786719 11.4645 0.809825 11.4701 0.83394C11.6726 1.69644 12.3707 2.35548 13.2444 2.50749C14.0964 2.65572 14.0964 3.87884 13.2444 4.02707C12.366 4.17989 11.6652 4.84516 11.4669 5.71445L11.4451 5.81011C11.2593 6.62491 10.0968 6.61982 9.91814 5.80344L9.90017 5.72136C9.7092 4.84895 9.0094 4.17879 8.12955 4.02572C7.27905 3.87775 7.27904 2.65681 8.12955 2.50885C9.00633 2.35631 9.70432 1.69027 9.89815 0.822322L9.91137 0.762143L9.91814 0.731127ZM1.10418 0.170359C0.564475 0.170359 0.126953 0.60788 0.126953 1.14759V5.30082C0.126953 5.84053 0.564475 6.27805 1.10418 6.27805H5.25742C5.79713 6.27805 6.23465 5.84053 6.23465 5.30082V1.14759C6.23465 0.60788 5.79713 0.170359 5.25742 0.170359H1.10418ZM0.126953 8.74214C0.126953 8.20243 0.564475 7.7649 1.10418 7.7649H5.25742C5.79713 7.7649 6.23465 8.20243 6.23465 8.74214V12.8954C6.23465 13.4351 5.79713 13.8726 5.25742 13.8726H1.10418C0.564475 13.8726 0.126953 13.4351 0.126953 12.8954V8.74214ZM7.72149 8.74214C7.72149 8.20243 8.15901 7.7649 8.69872 7.7649H12.8519C13.3917 7.7649 13.8292 8.20243 13.8292 8.74214V12.8954C13.8292 13.4351 13.3917 13.8726 12.8519 13.8726H8.69872C8.15901 13.8726 7.72149 13.4351 7.72149 12.8954V8.74214Z" fill="black"/>
</g>
<defs>
<clipPath id="clip0_1068_189532">
<rect width="14" height="14" fill="white"/>
</clipPath>
</defs>
</svg>
