<svg width="14" height="14" viewBox="0 0 14 14" fill="none" xmlns="http://www.w3.org/2000/svg">
<g clip-path="url(#clip0_1068_189547)">
<path fill-rule="evenodd" clip-rule="evenodd" d="M1.53125 0.00402832C1.13342 0.00402832 0.751895 0.162064 0.47059 0.443368C0.189286 0.724673 0.03125 1.1062 0.03125 1.50403V9.50403C0.03125 9.90185 0.189286 10.2834 0.47059 10.5647C0.751894 10.846 1.13342 11.004 1.53125 11.004H5.46229C5.27732 10.3876 5.37222 9.6894 5.74699 9.15674H2.87063C2.70736 9.15674 2.57501 9.02438 2.57501 8.86112C2.57501 7.22845 3.89855 5.90491 5.53122 5.90491C6.6697 5.90491 7.65786 6.54847 8.15177 7.49165C8.18522 7.41307 8.21189 7.33079 8.23106 7.24548L8.25393 7.1411C8.55971 5.74422 9.9475 5.23971 11.0313 5.63363V1.50403C11.0313 1.1062 10.8732 0.724673 10.5919 0.443368C10.3106 0.162064 9.92907 0.00402832 9.53125 0.00402832H1.53125ZM5.53122 5.02293C6.51082 5.02293 7.30494 4.22881 7.30494 3.2492C7.30494 2.2696 6.51082 1.47548 5.53122 1.47548C4.55162 1.47548 3.75749 2.2696 3.75749 3.2492C3.75749 4.22881 4.55162 5.02293 5.53122 5.02293ZM9.47501 7.4084C9.66516 6.5398 10.902 6.5344 11.0997 7.4013L11.1095 7.44453C11.1162 7.47417 11.1225 7.5021 11.1293 7.53074C11.3758 8.58063 12.2254 9.38286 13.289 9.5679C14.1942 9.72537 14.1942 11.0247 13.289 11.1822C12.2198 11.3682 11.3667 12.178 11.1254 13.2362L11.0997 13.3488C10.902 14.2157 9.66515 14.2103 9.47501 13.3417L9.45386 13.245C9.22135 12.1829 8.36933 11.3669 7.2981 11.1806C6.39477 11.0234 6.39477 9.72665 7.2981 9.5695C8.3656 9.38378 9.21542 8.57287 9.45141 7.51612L9.46712 7.44457L9.47501 7.4084Z" fill="black"/>
</g>
<defs>
<clipPath id="clip0_1068_189547">
<rect width="14" height="14" fill="white"/>
</clipPath>
</defs>
</svg>
