<svg width="14" height="14" viewBox="0 0 14 14" fill="none" xmlns="http://www.w3.org/2000/svg">
<g clip-path="url(#clip0_1068_189556)">
<path fill-rule="evenodd" clip-rule="evenodd" d="M1.73377 10.5064C0.790259 10.5064 0.0253906 9.74157 0.0253906 8.79806V1.7234C0.0253906 0.779884 0.790258 0.0150146 1.73377 0.0150146H9.20934C10.1528 0.0150146 10.9177 0.779883 10.9177 1.7234V5.5825C9.85424 5.2672 8.55639 5.78485 8.26193 7.13002L8.23906 7.23441C8.12212 7.75488 7.72564 8.1632 7.21657 8.29944L6.84942 7.81212C5.65775 6.23042 3.67743 5.45387 1.72825 5.80394L1.52536 5.84038V8.75646C1.52536 8.89453 1.63729 9.00646 1.77536 9.00646H5.86263C5.50855 9.42383 5.34873 9.97147 5.38318 10.5064H1.73377ZM9.25336 3.16205C9.25336 3.91928 8.6395 4.53314 7.88226 4.53314C7.12503 4.53314 6.51117 3.91928 6.51117 3.16205C6.51117 2.40481 7.12503 1.79095 7.88226 1.79095C8.6395 1.79095 9.25336 2.40481 9.25336 3.16205Z" fill="black"/>
<path d="M7.3918 10.6769C7.04087 10.6158 7.04087 10.112 7.3918 10.051C8.65873 9.83058 9.6673 8.86817 9.94739 7.61399L9.96401 7.53828L9.97145 7.50421C10.0474 7.15738 10.5412 7.15522 10.6202 7.50138L10.6255 7.52484C10.6337 7.56122 10.6419 7.59761 10.6505 7.63391C10.9427 8.8788 11.9502 9.83 13.2113 10.0494C13.564 10.1108 13.564 10.6171 13.2113 10.6785C11.9435 10.899 10.932 11.8592 10.6458 13.1139L10.6202 13.2265C10.5412 13.5726 10.0474 13.5705 9.97145 13.2236L9.9503 13.127C9.67434 11.8664 8.66316 10.8981 7.3918 10.6769Z" fill="black"/>
</g>
<defs>
<clipPath id="clip0_1068_189556">
<rect width="14" height="14" fill="white"/>
</clipPath>
</defs>
</svg>
