<svg width="14" height="14" viewBox="0 0 14 14" fill="none" xmlns="http://www.w3.org/2000/svg">
<g clip-path="url(#clip0_1068_189568)">
<path fill-rule="evenodd" clip-rule="evenodd" d="M9.81278 0.6334C9.9959 -0.203147 11.1871 -0.208354 11.3775 0.626561L11.3865 0.666074C11.3926 0.69299 11.3982 0.717837 11.4043 0.743751C11.6238 1.67861 12.3803 2.39294 13.3274 2.5577C14.1999 2.7095 14.1999 3.96205 13.3274 4.11385C12.3753 4.27949 11.6157 5.00057 11.4008 5.94279L11.3775 6.04499C11.1871 6.87991 9.9959 6.87469 9.81278 6.03815L9.79358 5.95045C9.58657 5.00477 8.82799 4.27832 7.87424 4.1124C7.00335 3.96088 7.00334 2.71067 7.87424 2.55915C8.82467 2.39381 9.58129 1.67183 9.79139 0.730975L9.80557 0.666425L9.81278 0.6334ZM3.74081 4.23859L6.14658 3.57098C6.23504 4.32137 6.74876 5.02122 7.68771 5.18457C8.20587 5.27472 8.618 5.66939 8.73047 6.18316L8.74966 6.27086C8.75385 6.29001 8.75827 6.30897 8.7629 6.32775L4.39526 7.54098V11.7936L4.39531 11.8089C4.39531 13.0172 3.41576 13.9968 2.20742 13.9968C0.999084 13.9968 0.0195312 13.0172 0.0195312 11.8089C0.0195312 10.6005 0.999084 9.62098 2.20742 9.62098C2.44772 9.62098 2.67897 9.65972 2.89526 9.73129V6.97092V5.52396V5.3433V5.33909C2.89667 5.08786 2.98051 4.84404 3.13389 4.64507C3.28653 4.44705 3.49965 4.30433 3.74081 4.23859ZM11.5475 7.51205C11.052 7.79034 10.4405 7.831 9.9109 7.6349C9.73475 7.58917 9.54998 7.56483 9.35952 7.56483C8.15118 7.56483 7.17163 8.54438 7.17163 9.75272C7.17163 10.9611 8.15118 11.9406 9.35952 11.9406C10.5216 11.9406 11.472 11.0348 11.5432 9.89069C11.546 9.86401 11.5475 9.83691 11.5475 9.80946V7.51205Z" fill="black"/>
</g>
<defs>
<clipPath id="clip0_1068_189568">
<rect width="14" height="14" fill="white"/>
</clipPath>
</defs>
</svg>
