<svg width="14" height="14" viewBox="0 0 14 14" fill="none" xmlns="http://www.w3.org/2000/svg">
<g clip-path="url(#clip0_1068_189559)">
<path fill-rule="evenodd" clip-rule="evenodd" d="M9.81502 0.666197C9.9981 -0.170135 11.189 -0.175341 11.3793 0.65936L11.3883 0.698818C11.3944 0.725719 11.4 0.75057 11.4061 0.776468C11.6254 1.71056 12.3814 2.4243 13.3276 2.58893C14.2 2.74069 14.2 3.99292 13.3276 4.14468C12.3763 4.31019 11.6174 5.03067 11.4026 5.97212L11.3793 6.07425C11.189 6.90896 9.99809 6.90374 9.81502 6.06741L9.79583 5.97977C9.58899 5.03487 8.83104 4.30902 7.87808 4.14323C7.0074 3.99176 7.00739 2.74185 7.87808 2.59038C8.82772 2.42516 9.58371 1.70378 9.79365 0.763705L9.80781 0.699221L9.81502 0.666197ZM7.69172 5.21435C5.81589 4.88801 5.63841 2.41899 7.1594 1.68728C7.0236 1.44232 6.87994 1.20164 6.72859 0.965667C6.64978 0.962837 6.57062 0.961411 6.49113 0.961411C6.41169 0.961411 6.33258 0.962835 6.25382 0.965661C5.12844 2.72022 4.42868 4.7349 4.22016 6.83759H8.76225C8.7325 6.53763 8.69276 6.23947 8.64321 5.9436C8.46716 5.56473 8.11481 5.28796 7.69172 5.21435ZM0.0195433 6.83765C0.274572 4.16392 2.14899 1.96256 4.65082 1.22555C3.72044 2.95001 3.14382 4.86059 2.96455 6.83759H0.0284221L0.0195433 6.83765ZM0.0284221 8.08759H2.96451C3.1437 10.0646 3.72025 11.9752 4.65057 13.6997C2.14882 12.9626 0.274503 10.7612 0.0195312 8.08752L0.0284221 8.08759ZM4.22011 8.08759C4.42855 10.1903 5.12824 12.205 6.25357 13.9596C6.3324 13.9625 6.4116 13.9639 6.49113 13.9639C6.57071 13.9639 6.64996 13.9625 6.72885 13.9596C7.85417 12.205 8.55386 10.1903 8.7623 8.08759H4.22011ZM12.9628 8.08753C12.7078 10.7612 10.8336 12.9625 8.33187 13.6996C9.26217 11.9751 9.83871 10.0646 10.0179 8.08759H12.9542L12.9628 8.08753Z" fill="black"/>
</g>
<defs>
<clipPath id="clip0_1068_189559">
<rect width="14" height="14" fill="white"/>
</clipPath>
</defs>
</svg>
