<svg width="14" height="14" viewBox="0 0 14 14" fill="none" xmlns="http://www.w3.org/2000/svg">
<g clip-path="url(#clip0_1068_189550)">
<path fill-rule="evenodd" clip-rule="evenodd" d="M9.95758 0.658957C10.1371 -0.161122 11.3048 -0.166226 11.4915 0.652253L11.5 0.689857C11.5058 0.715279 11.5111 0.738717 11.5168 0.76315C11.7224 1.6389 12.4312 2.30807 13.3183 2.46241C14.1741 2.6113 14.1741 3.8398 13.3183 3.98869C12.4264 4.14385 11.7149 4.81934 11.5135 5.70199L11.4915 5.79885C11.3048 6.61733 10.1371 6.61222 9.95758 5.79214L9.93939 5.70903C9.74548 4.82321 9.03492 4.14274 8.14153 3.98731C7.2873 3.8387 7.28729 2.6124 8.14153 2.46379C9.0318 2.3089 9.74053 1.63262 9.93734 0.75132L9.95073 0.69036L9.95758 0.658957ZM7.96919 4.97763C6.31885 4.69052 6.05472 2.65454 7.17687 1.80769C6.59157 1.58233 5.95572 1.4588 5.29102 1.4588C2.39152 1.4588 0.0410156 3.80931 0.0410156 6.7088C0.0410156 8.49682 0.993353 10.2936 2.05776 11.6161C2.5954 12.284 3.17925 12.8534 3.72099 13.2608C3.99167 13.4643 4.26002 13.6336 4.5139 13.7539C4.76038 13.8707 5.02931 13.9588 5.29102 13.9588C5.55272 13.9588 5.82165 13.8707 6.06813 13.7539C6.32201 13.6336 6.59036 13.4643 6.86104 13.2608C7.40278 12.8534 7.98663 12.284 8.52427 11.6161C9.45118 10.4644 10.2931 8.95312 10.4951 7.40113C9.80485 7.31671 9.16041 6.85142 8.97558 6.0071L8.95739 5.92398C8.85081 5.43709 8.46024 5.06306 7.96919 4.97763ZM5.29102 8.4588C6.25751 8.4588 7.04102 7.6753 7.04102 6.7088C7.04102 5.7423 6.25751 4.9588 5.29102 4.9588C4.32452 4.9588 3.54102 5.7423 3.54102 6.7088C3.54102 7.6753 4.32452 8.4588 5.29102 8.4588Z" fill="black"/>
</g>
<defs>
<clipPath id="clip0_1068_189550">
<rect width="14" height="14" fill="white"/>
</clipPath>
</defs>
</svg>
