<svg width="14" height="14" viewBox="0 0 14 14" fill="none" xmlns="http://www.w3.org/2000/svg">
<g clip-path="url(#clip0_1068_189565)">
<path fill-rule="evenodd" clip-rule="evenodd" d="M9.72096 0.656606C9.90611 -0.189194 11.1104 -0.194459 11.3029 0.649692L11.3122 0.690284C11.3184 0.718022 11.3243 0.743687 11.3305 0.770418C11.5578 1.73849 12.3413 2.4782 13.322 2.64882C14.2039 2.80225 14.2039 4.06831 13.322 4.22174C12.3361 4.39327 11.5495 5.13997 11.3269 6.11566L11.3029 6.22087C11.1104 7.06502 9.90611 7.05975 9.72096 6.21395L9.7012 6.12368C9.48682 5.14436 8.70127 4.39208 7.7136 4.22025C6.83334 4.06711 6.83333 2.80345 7.7136 2.65031C8.69783 2.47908 9.48135 1.73142 9.69894 0.757111L9.71355 0.690565L9.72096 0.656606ZM1.76562 2.48053H6.15635C5.58627 3.53175 6.04052 5.08121 7.51904 5.33843C8.00577 5.42311 8.40161 5.76882 8.55511 6.23053H1.51562V12.2305C1.51562 12.3686 1.62755 12.4805 1.76562 12.4805H10.7656C10.9037 12.4805 11.0156 12.3686 11.0156 12.2305V7.92384C11.6597 7.76082 12.226 7.27774 12.4095 6.47325L12.4335 6.36805C12.4531 6.2821 12.4807 6.19943 12.5156 6.12083V12.2305C12.5156 13.197 11.7321 13.9805 10.7656 13.9805H1.76562C0.799126 13.9805 0.015625 13.197 0.015625 12.2305V5.48053V4.23053C0.015625 3.26404 0.799127 2.48053 1.76562 2.48053ZM2.72871 7.31716C2.97279 7.07308 3.36852 7.07308 3.61259 7.31716L5.11259 8.81716C5.35667 9.06123 5.35667 9.45696 5.11259 9.70104L3.61259 11.201C3.36852 11.4451 2.97279 11.4451 2.72871 11.201C2.48463 10.957 2.48463 10.5612 2.72871 10.3172L3.78677 9.2591L2.72871 8.20104C2.48463 7.95696 2.48463 7.56123 2.72871 7.31716ZM5.54565 10.7591C5.54565 10.4139 5.82547 10.1341 6.17065 10.1341H7.67065C8.01583 10.1341 8.29565 10.4139 8.29565 10.7591C8.29565 11.1043 8.01583 11.3841 7.67065 11.3841H6.17065C5.82547 11.3841 5.54565 11.1043 5.54565 10.7591Z" fill="black"/>
</g>
<defs>
<clipPath id="clip0_1068_189565">
<rect width="14" height="14" fill="white"/>
</clipPath>
</defs>
</svg>
