<svg width="14" height="14" viewBox="0 0 14 14" fill="none" xmlns="http://www.w3.org/2000/svg">
<g clip-path="url(#clip0_1068_189571)">
<path fill-rule="evenodd" clip-rule="evenodd" d="M9.80531 0.745416C9.98605 -0.0802161 11.1616 -0.0853549 11.3495 0.738666L11.3582 0.776877C11.364 0.802571 11.3696 0.826946 11.3754 0.851685C11.5857 1.74737 12.3105 2.43176 13.2179 2.58962C14.0793 2.73949 14.0793 3.9761 13.2179 4.12597C12.3057 4.28467 11.5779 4.97553 11.372 5.87826L11.3495 5.97692C11.1616 6.80095 9.98605 6.7958 9.80531 5.97017L9.78678 5.88551C9.58845 4.97951 8.8617 4.28353 7.94797 4.12457C7.08811 3.97498 7.0881 2.74061 7.94797 2.59102C8.85852 2.43261 9.58339 1.74092 9.78469 0.839537L9.79834 0.777362L9.80531 0.745416ZM7.77086 5.14249C6.42908 4.90906 5.98687 3.54072 6.44426 2.55925C6.40716 2.52258 6.36673 2.48909 6.32335 2.45924C6.17579 2.35769 6.001 2.30307 5.82187 2.30254H5.0927C4.91357 2.30307 4.73878 2.35769 4.59121 2.45924C4.44365 2.56079 4.33019 2.70453 4.26571 2.87165L3.88334 3.8587L2.56727 4.60566L1.51797 4.4456C1.34325 4.42188 1.16543 4.45064 1.00709 4.52823C0.848761 4.60581 0.717065 4.72872 0.628743 4.88132L0.273049 5.50379C0.181904 5.65882 0.139911 5.83785 0.152611 6.01725C0.165312 6.19664 0.232109 6.36797 0.344188 6.50862L1.01111 7.33561V8.82952L0.361973 9.65651C0.249894 9.79716 0.183096 9.96849 0.170396 10.1479C0.157695 10.3273 0.199689 10.5063 0.290834 10.6613L0.646528 11.2838C0.73485 11.4364 0.866546 11.5593 1.02488 11.6369C1.18321 11.7145 1.36104 11.7433 1.53576 11.7195L2.58506 11.5595L3.88334 12.3064L4.26571 13.2935C4.33019 13.4606 4.44365 13.6044 4.59121 13.7059C4.73878 13.8074 4.91357 13.8621 5.0927 13.8626H5.83965C6.01878 13.8621 6.19357 13.8074 6.34114 13.7059C6.4887 13.6044 6.60216 13.4606 6.66664 13.2935L7.04901 12.3064L8.3473 11.5595L9.39659 11.7195C9.57131 11.7433 9.74914 11.7145 9.90747 11.6369C10.0658 11.5593 10.1975 11.4364 10.2858 11.2838L10.6415 10.6613C10.7326 10.5063 10.7746 10.3273 10.7619 10.1479C10.7492 9.96849 10.6824 9.79716 10.5703 9.65651L9.90346 8.82952V7.50279C9.38145 7.30485 8.94401 6.86732 8.79599 6.19111L8.77746 6.10646C8.66889 5.6105 8.27105 5.22951 7.77086 5.14249ZM5.45729 9.94043C6.48336 9.94043 7.31515 9.10864 7.31515 8.08257C7.31515 7.0565 6.48336 6.2247 5.45729 6.2247C4.43122 6.2247 3.59942 7.0565 3.59942 8.08257C3.59942 9.10864 4.43122 9.94043 5.45729 9.94043Z" fill="black"/>
</g>
<defs>
<clipPath id="clip0_1068_189571">
<rect width="14" height="14" fill="white"/>
</clipPath>
</defs>
</svg>
