<svg width="14" height="14" viewBox="0 0 14 14" fill="none" xmlns="http://www.w3.org/2000/svg">
<g clip-path="url(#clip0_1068_189553)">
<path fill-rule="evenodd" clip-rule="evenodd" d="M9.82494 0.638365C10.0081 -0.197968 11.1989 -0.203173 11.3893 0.631528L11.3982 0.670986C11.4043 0.697887 11.4099 0.722738 11.416 0.748636C11.6353 1.68273 12.3913 2.39647 13.3376 2.5611C14.2099 2.71285 14.2099 3.96509 13.3376 4.11685C12.3863 4.28236 11.6273 5.00284 11.4126 5.94428L11.3893 6.04642C11.1989 6.88112 10.0081 6.87591 9.82494 6.03958L9.80576 5.95194C9.59891 5.00704 8.84097 4.28119 7.888 4.1154C7.01732 3.96393 7.01731 2.71402 7.888 2.56254C8.83765 2.39733 9.59364 1.67595 9.80357 0.735873L9.81774 0.671389L9.82494 0.638365ZM10.552 7.75606C10.0846 7.74291 9.6217 7.56639 9.27655 7.22701C9.23495 7.2547 9.1957 7.28688 9.15956 7.32342C9.13146 7.35171 9.10599 7.38184 9.08322 7.41349C8.6335 8.00912 8.10529 8.6178 7.50979 9.2133C7.05819 9.6649 6.60047 10.0764 6.14797 10.4436C5.69549 10.0764 5.23777 9.6649 4.78618 9.21331C4.33458 8.76172 3.9231 8.304 3.55583 7.8515C3.9231 7.39901 4.33458 6.94128 4.78618 6.48969C5.38145 5.89442 5.98989 5.36639 6.5853 4.91678C6.61928 4.89238 6.65154 4.86488 6.68162 4.83435C6.70948 4.80622 6.73472 4.77627 6.75731 4.74484C6.36168 4.39279 6.15864 3.88856 6.1482 3.38032C5.16669 2.69292 4.1965 2.18363 3.33055 1.91885C2.39231 1.63196 1.29292 1.55452 0.571954 2.27548C0.104576 2.74286 -0.0227025 3.37911 0.0136461 3.98383C0.0500648 4.58972 0.252331 5.25637 0.559417 5.93196C0.836935 6.5425 1.21427 7.19128 1.67665 7.8515C1.21427 8.51172 0.836935 9.1605 0.559417 9.77104C0.252331 10.4466 0.050065 11.1133 0.0136462 11.7192C-0.0227026 12.3239 0.104576 12.9601 0.571954 13.4275C1.03934 13.8949 1.67559 14.0222 2.28031 13.9858C2.88619 13.9494 3.55284 13.7471 4.22843 13.4401C4.83897 13.1625 5.48775 12.7852 6.14797 12.3228C6.8082 12.7852 7.45699 13.1625 8.06754 13.4401C8.74312 13.7472 9.40978 13.9494 10.0157 13.9858C10.6204 14.0222 11.2567 13.8949 11.7241 13.4275C12.445 12.7066 12.3676 11.6072 12.0807 10.6689C11.8073 9.77499 11.2734 8.76995 10.552 7.75606ZM2.89194 3.35329C3.46733 3.52922 4.15481 3.86372 4.89904 4.34669C4.505 4.68092 4.11194 5.04261 3.72552 5.42903C3.34 5.81454 2.97818 6.2076 2.64318 6.60257C2.34978 6.15049 2.10883 5.71573 1.92497 5.31125C1.66137 4.73134 1.53244 4.25134 1.51095 3.89383C1.48939 3.53516 1.5775 3.39126 1.63262 3.33614C1.7228 3.24596 2.0555 3.09753 2.89194 3.35329ZM1.92497 10.3917C2.10883 9.98727 2.34978 9.55251 2.64317 9.10043C2.97818 9.4954 3.34 9.88846 3.72552 10.274C4.11103 10.6595 4.50408 11.0213 4.89904 11.3563C4.44696 11.6497 4.01221 11.8906 3.60773 12.0745C3.02782 12.3381 2.54782 12.467 2.19031 12.4885C1.83163 12.5101 1.68774 12.422 1.63262 12.3669C1.5775 12.3117 1.48939 12.1678 1.51095 11.8092C1.53244 11.4517 1.66137 10.9717 1.92497 10.3917ZM8.68824 12.0745C8.28375 11.8907 7.84899 11.6497 7.3969 11.3563C7.79187 11.0213 8.18493 10.6595 8.57045 10.274C8.95687 9.88754 9.31856 9.49448 9.65279 9.10043C10.1358 9.84467 10.4703 10.5322 10.6462 11.1075C10.902 11.944 10.7536 12.2767 10.6634 12.3669C10.6083 12.422 10.4644 12.5101 10.1057 12.4885C9.74815 12.4671 9.26815 12.3381 8.68824 12.0745ZM5.14795 7.8519C5.14795 7.29961 5.59567 6.8519 6.14795 6.8519C6.70024 6.8519 7.14795 7.29961 7.14795 7.8519C7.14795 8.40418 6.70024 8.8519 6.14795 8.8519C5.59567 8.8519 5.14795 8.40418 5.14795 7.8519Z" fill="black"/>
</g>
<defs>
<clipPath id="clip0_1068_189553">
<rect width="14" height="14" fill="white"/>
</clipPath>
</defs>
</svg>
