<svg width="14" height="14" viewBox="0 0 14 14" fill="none" xmlns="http://www.w3.org/2000/svg">
<g clip-path="url(#clip0_1068_189583)">
<path fill-rule="evenodd" clip-rule="evenodd" d="M7.52734 9.33109C8.10835 8.99499 8.61545 8.54534 9.0183 8.01248C8.89486 7.82421 8.80049 7.6037 8.74516 7.35097L8.72598 7.26333C8.61359 6.74991 8.20174 6.3555 7.68394 6.26542C5.61213 5.90498 5.61208 2.93078 7.68394 2.57033C8.18485 2.48319 8.58661 2.11125 8.71402 1.62232C7.79996 0.625182 6.48666 0 5.02734 0C2.26592 0 0.0273438 2.23858 0.0273438 5C0.0273438 6.85071 1.03284 8.46657 2.52734 9.33109V10.5C2.52734 11.0523 2.97506 11.5 3.52734 11.5H6.52734C7.07963 11.5 7.52734 11.0523 7.52734 10.5V9.33109ZM2.52734 13.25C2.52734 12.8358 2.86313 12.5 3.27734 12.5H6.77734C7.19155 12.5 7.52734 12.8358 7.52734 13.25C7.52734 13.6642 7.19155 14 6.77734 14H3.27734C2.86313 14 2.52734 13.6642 2.52734 13.25ZM9.80723 1.71727C9.99031 0.880936 11.1811 0.87573 11.3715 1.71043L11.3805 1.74989C11.3865 1.77679 11.3922 1.80164 11.3983 1.82754C11.6176 2.76163 12.3735 3.47537 13.3198 3.64C14.1921 3.79176 14.1921 5.04399 13.3198 5.19575C12.3685 5.36126 11.6095 6.08174 11.3948 7.02319L11.3715 7.12532C11.1811 7.96003 9.99031 7.95481 9.80723 7.11848L9.78805 7.03085C9.58121 6.08595 8.82326 5.36009 7.8703 5.19431C6.99962 5.04283 6.99961 3.79292 7.8703 3.64145C8.81994 3.47624 9.57593 2.75485 9.78587 1.81478L9.80003 1.75029L9.80723 1.71727Z" fill="black"/>
</g>
<defs>
<clipPath id="clip0_1068_189583">
<rect width="14" height="14" fill="white"/>
</clipPath>
</defs>
</svg>
