<svg width="14" height="14" viewBox="0 0 14 14" fill="none" xmlns="http://www.w3.org/2000/svg">
<g clip-path="url(#clip0_1068_189574)">
<path fill-rule="evenodd" clip-rule="evenodd" d="M6.5 1.5C3.73858 1.5 1.5 3.73858 1.5 6.5C1.5 9.26142 3.73858 11.5 6.5 11.5C9.26142 11.5 11.5 9.26142 11.5 6.5C11.5 3.73858 9.26142 1.5 6.5 1.5ZM0 6.5C0 2.91015 2.91015 0 6.5 0C10.0899 0 13 2.91015 13 6.5C13 7.9341 12.5356 9.25973 11.7489 10.3347L13.7073 12.2931C14.0979 12.6836 14.0979 13.3168 13.7073 13.7073C13.3168 14.0978 12.6837 14.0978 12.2931 13.7073L10.3347 11.7489C9.25974 12.5356 7.9341 13 6.5 13C2.91015 13 0 10.0899 0 6.5ZM5.73911 3.86951C5.91933 3.04626 7.09153 3.04113 7.27893 3.86278L7.28755 3.90071C7.29338 3.92646 7.29874 3.95014 7.30455 3.97489C7.51284 4.86203 8.2308 5.5399 9.12952 5.69625C9.98853 5.84569 9.98853 7.07883 9.12952 7.22828C8.22601 7.38546 7.5052 8.06974 7.30126 8.96386L7.27893 9.06175C7.09153 9.8834 5.91933 9.87827 5.73911 9.05502L5.72073 8.97102C5.52429 8.07367 4.80448 7.38434 3.89947 7.22689C3.04202 7.07772 3.04201 5.84681 3.89947 5.69764C4.80133 5.54074 5.51928 4.85565 5.71865 3.96288L5.73219 3.90124L5.73911 3.86951Z" fill="black"/>
</g>
<defs>
<clipPath id="clip0_1068_189574">
<rect width="14" height="14" fill="white"/>
</clipPath>
</defs>
</svg>
