<svg width="14" height="14" viewBox="0 0 14 14" fill="none" xmlns="http://www.w3.org/2000/svg">
<g clip-path="url(#clip0_1068_189577)">
<path fill-rule="evenodd" clip-rule="evenodd" d="M9.81542 0.696227C9.99849 -0.140106 11.1893 -0.145312 11.3797 0.689389L11.3887 0.728847C11.3948 0.755748 11.4004 0.7806 11.4065 0.806498C11.6258 1.74059 12.3817 2.45433 13.328 2.61896C14.2003 2.77072 14.2003 4.02295 13.328 4.17471C12.3767 4.34022 11.6177 5.0607 11.403 6.00215L11.3797 6.10428C11.1893 6.93899 9.99849 6.93377 9.81542 6.09744L9.79623 6.0098C9.58939 5.0649 8.83144 4.33905 7.87848 4.17326C7.0078 4.02179 7.00779 2.77188 7.87848 2.62041C8.82812 2.45519 9.58411 1.73381 9.79405 0.793734L9.80821 0.729251L9.81542 0.696227ZM7.69212 5.24438C6.99023 5.12227 6.52613 4.70018 6.2998 4.18135H4.78172C4.45951 4.16762 4.14131 4.25811 3.87441 4.4396C3.60355 4.62379 3.40043 4.89156 3.29606 5.20203L3.29545 5.20385L2.63913 7.18135H1.5C1.10217 7.18135 0.720644 7.33939 0.43934 7.62069C0.158035 7.902 0 8.28353 0 8.68135V10.6814C0 11.0792 0.158035 11.4607 0.43934 11.742C0.603998 11.9067 0.802996 12.0291 1.0195 12.1023C1.18121 10.8772 2.22965 9.9317 3.49892 9.9317C4.79537 9.9317 5.86142 10.9181 5.98751 12.1814H8.01035C8.13644 10.9181 9.20249 9.9317 10.4989 9.9317C11.7684 9.9317 12.817 10.8776 12.9784 12.103C13.1957 12.0299 13.3955 11.9072 13.5607 11.742C13.842 11.4607 14 11.0792 14 10.6814V8.68135C14 8.28353 13.842 7.902 13.5607 7.62069C13.2794 7.33939 12.8978 7.18135 12.5 7.18135H12.0266C11.101 8.25165 9.11102 7.96388 8.75335 6.32993L8.73416 6.24229C8.62177 5.72887 8.20993 5.33446 7.69212 5.24438ZM3.49894 13.9338C2.66993 13.9338 1.99788 13.2618 1.99788 12.4328C1.99788 11.6037 2.66993 10.9317 3.49894 10.9317C4.32795 10.9317 5 11.6037 5 12.4328C5 13.2618 4.32795 13.9338 3.49894 13.9338ZM10.4989 13.9338C9.66993 13.9338 8.99789 13.2618 8.99789 12.4328C8.99789 11.6037 9.66993 10.9317 10.4989 10.9317C11.328 10.9317 12 11.6037 12 12.4328C12 13.2618 11.328 13.9338 10.4989 13.9338Z" fill="black"/>
</g>
<defs>
<clipPath id="clip0_1068_189577">
<rect width="14" height="14" fill="white"/>
</clipPath>
</defs>
</svg>
