<svg width="14" height="14" viewBox="0 0 14 14" fill="none" xmlns="http://www.w3.org/2000/svg">
<g clip-path="url(#clip0_1068_189580)">
<path fill-rule="evenodd" clip-rule="evenodd" d="M9.739 0.850524C9.92208 0.0141907 11.1129 0.00898498 11.3033 0.843686L11.3122 0.883144C11.3182 0.910044 11.324 0.934897 11.33 0.960795C11.5494 1.89488 12.3053 2.60863 13.2516 2.77326C14.1239 2.92501 14.1239 4.17725 13.2516 4.32901C12.3003 4.49451 11.5413 5.215 11.3266 6.15644L11.3033 6.25858C11.1129 7.09328 9.92208 7.08807 9.739 6.25174L9.71982 6.1641C9.51297 5.2192 8.75502 4.49335 7.80206 4.32756C6.93138 4.17609 6.93137 2.92618 7.80206 2.7747C8.75171 2.60949 9.5077 1.88811 9.71763 0.948031L9.73179 0.883548L9.739 0.850524ZM8.65781 6.39659C8.54608 5.88622 8.13846 5.49346 7.625 5.40032V12.6147C8.17306 13.3232 9.03161 13.7795 9.99672 13.7795C11.3078 13.7795 12.4222 12.9375 12.8287 11.7649C12.582 11.7422 12.316 11.6821 12.0507 11.5823C11.4556 11.3583 10.8088 10.9168 10.2781 10.1463C10.0824 9.86206 10.1541 9.47289 10.4384 9.2771C10.7226 9.08131 11.1118 9.15304 11.3076 9.43731C11.6897 9.99209 12.1284 10.2759 12.491 10.4124C12.6748 10.4815 12.8392 10.5129 12.9672 10.5221L12.9899 10.5235C13.6095 9.85129 14 8.54648 14 7.45712C14 6.72292 13.8226 5.99874 13.5173 5.38485C13.4912 5.39037 13.4648 5.39546 13.438 5.40012C12.9184 5.49052 12.5039 5.88402 12.3866 6.39821L12.3633 6.50034C11.9147 8.46738 9.10842 8.45506 8.67699 6.48423L8.65781 6.39659ZM6.375 4.61469C5.95752 3.98445 5.95752 3.11779 6.375 2.48756V1.96736C5.89476 1.40406 5.17994 1.04684 4.3817 1.04684C2.93566 1.04684 1.76342 2.21908 1.76342 3.66511L1.76343 3.66791C1.8018 4.05742 1.96105 4.34866 2.1451 4.55835C2.37401 4.81912 2.61517 4.92556 2.67236 4.93859C3.00891 5.01532 3.21953 5.35034 3.1428 5.68688C3.06608 6.02343 2.73106 6.23405 2.39451 6.15732C2.03531 6.07543 1.57457 5.80322 1.20568 5.38295C1.06415 5.22172 0.932208 5.03436 0.821827 4.8212C0.312464 5.52594 0 6.4827 0 7.45712C0 8.1919 0.177677 9.02469 0.483473 9.69526C0.563842 9.60565 0.650146 9.52334 0.742325 9.45056C1.01323 9.23665 1.40626 9.28286 1.62016 9.55377C1.83407 9.82468 1.78786 10.2177 1.51695 10.4316C1.33903 10.5721 1.15327 10.8751 1.03924 11.2259C1.25336 12.6708 2.49886 13.7795 4.00331 13.7795C4.9684 13.7795 5.82694 13.3233 6.375 12.6147V8.9453C6.00658 9.24099 5.54184 9.46587 4.9699 9.5297C4.62685 9.56799 4.31772 9.32094 4.27943 8.97789C4.24114 8.63484 4.4882 8.32571 4.83125 8.28742C5.33987 8.23065 5.70976 7.9383 5.97421 7.55267C6.24167 7.16265 6.35817 6.73542 6.375 6.53035V4.61469Z" fill="black"/>
</g>
<defs>
<clipPath id="clip0_1068_189580">
<rect width="14" height="14" fill="white"/>
</clipPath>
</defs>
</svg>
