<svg xmlns="http://www.w3.org/2000/svg" width="16" height="16" viewBox="0 0 16 16" fill="none">
    <path d="M10.3542 4.33333C10.3542 2.49233 8.86084 1 7.02084 1C5.18084 1 3.68751 2.49233 3.68751 4.33333C3.68751 6.17433 5.18084 7.66667 7.02084 7.66667C8.86084 7.66667 10.3542 6.17433 10.3542 4.33333ZM7.02084 6.33333C5.9175 6.33333 5.02084 5.438 5.02084 4.33333C5.02084 3.22867 5.9175 2.33333 7.02084 2.33333C8.12417 2.33333 9.02084 3.22867 9.02084 4.33333C9.02084 5.438 8.12417 6.33333 7.02084 6.33333Z"
          fill="currentColor"/>
    <path d="M2.02083 12.6667C2.02083 12.4363 2.05083 12.213 2.10417 12C2.40083 10.85 3.44417 10 4.6875 10H8.67366V8.66667H4.6875C2.4775 8.66667 0.6875 10.4577 0.6875 12.6667V13.3333C0.6875 14.0667 1.2875 14.6667 2.02083 14.6667H8.65702V13.3333H2.02083V12.6667Z"
          fill="currentColor"/>
    <path d="M12.3542 14.6667C11.986 14.6667 11.6875 14.3682 11.6875 14V12.6667H10.3542C9.98598 12.6667 9.6875 12.3682 9.6875 12C9.6875 11.6318 9.98598 11.3333 10.3542 11.3333H11.6875V10C11.6875 9.63181 11.986 9.33333 12.3542 9.33333C12.7224 9.33333 13.0208 9.63181 13.0208 10V11.3333H14.3542C14.7224 11.3333 15.0208 11.6318 15.0208 12C15.0208 12.3682 14.7224 12.6667 14.3542 12.6667H13.0208V14C13.0208 14.3682 12.7224 14.6667 12.3542 14.6667Z"
          fill="currentColor"/>
    <path d="M10.3542 4.33333C10.3542 2.49233 8.86084 1 7.02084 1C5.18084 1 3.68751 2.49233 3.68751 4.33333C3.68751 6.17433 5.18084 7.66667 7.02084 7.66667C8.86084 7.66667 10.3542 6.17433 10.3542 4.33333ZM7.02084 6.33333C5.9175 6.33333 5.02084 5.438 5.02084 4.33333C5.02084 3.22867 5.9175 2.33333 7.02084 2.33333C8.12417 2.33333 9.02084 3.22867 9.02084 4.33333C9.02084 5.438 8.12417 6.33333 7.02084 6.33333Z"
          stroke="#F7F8FC" stroke-width="0.177778"/>
    <path d="M2.02083 12.6667C2.02083 12.4363 2.05083 12.213 2.10417 12C2.40083 10.85 3.44417 10 4.6875 10H8.67366V8.66667H4.6875C2.4775 8.66667 0.6875 10.4577 0.6875 12.6667V13.3333C0.6875 14.0667 1.2875 14.6667 2.02083 14.6667H8.65702V13.3333H2.02083V12.6667Z"
          stroke="#F7F8FC" stroke-width="0.177778"/>
    <path d="M12.3542 14.6667C11.986 14.6667 11.6875 14.3682 11.6875 14V12.6667H10.3542C9.98598 12.6667 9.6875 12.3682 9.6875 12C9.6875 11.6318 9.98598 11.3333 10.3542 11.3333H11.6875V10C11.6875 9.63181 11.986 9.33333 12.3542 9.33333C12.7224 9.33333 13.0208 9.63181 13.0208 10V11.3333H14.3542C14.7224 11.3333 15.0208 11.6318 15.0208 12C15.0208 12.3682 14.7224 12.6667 14.3542 12.6667H13.0208V14C13.0208 14.3682 12.7224 14.6667 12.3542 14.6667Z"
          stroke="#F7F8FC" stroke-width="0.177778"/>
</svg>