<svg width="57" height="14" viewBox="0 0 57 14" fill="none" xmlns="http://www.w3.org/2000/svg">
    <g id="Group 1171274570">
        <path id="Vector"
              d="M8.35547 4.01126H10.1226V4.67123C10.5568 4.21099 11.3679 3.84192 12.2589 3.84192C14.1641 3.84192 15.3938 5.31819 15.3938 7.36065C15.3938 9.46563 13.9488 11.0947 11.7361 11.0947C11.1213 11.0947 10.5204 10.9871 10.1226 10.7569V13.9995H8.35547V4.01126ZM10.1226 6.25258V9.04967C10.5994 9.35708 10.9989 9.44913 11.5824 9.44913C12.8121 9.44913 13.5189 8.55729 13.5189 7.40494C13.5189 6.2986 12.8737 5.49968 11.7057 5.49968C11.1065 5.50142 10.5534 5.77844 10.1226 6.25258Z"
              fill="currentColor"/>
        <path id="Vector_2"
              d="M3.98189 3.88086C1.76836 3.88086 0.324219 5.50996 0.324219 7.61495C0.324219 9.65915 1.55386 11.1345 3.45912 11.1345C4.35009 11.1345 5.16464 10.7655 5.59536 10.3035V10.9652H7.36862V5.16348C6.05561 4.16917 4.60019 3.88086 3.98189 3.88086ZM5.59536 8.72215C5.16117 9.19716 4.61147 9.47418 4.01228 9.47418C2.84516 9.47418 2.19908 8.67526 2.19908 7.56979C2.19908 6.41657 2.90595 5.52473 4.13473 5.52473C4.71916 5.52473 5.11861 5.61765 5.59536 5.92506V8.72215Z"
              fill="currentColor"/>
        <path id="Vector_3"
              d="M16.1484 4.01126H17.9156V4.67123C18.3498 4.21099 19.16 3.84192 20.051 3.84192C21.9571 3.84192 23.1859 5.31819 23.1859 7.36065C23.1859 9.46563 21.7418 11.0947 19.5291 11.0947C18.9143 11.0947 18.3133 10.9871 17.9156 10.7569V13.9995H16.1484V4.01126ZM17.9156 6.25258V9.04967C18.3915 9.35708 18.791 9.44913 19.3754 9.44913C20.6042 9.44913 21.311 8.55729 21.311 7.40494C21.311 6.2986 20.6658 5.49968 19.4978 5.49968C18.8986 5.50142 18.3455 5.77844 17.9156 6.25258Z"
              fill="currentColor"/>
        <path id="Vector_4"
              d="M28.3102 2.02887C27.9904 1.80209 27.6113 1.6738 27.2195 1.6598C26.4206 1.6598 26.0037 2.0749 26.0037 3.02752V4.01141H27.2481V5.67091H26.0055V10.9264H24.2383V2.88945C24.2383 0.968563 25.1605 0.000305176 26.6967 0.000305176C27.4036 0.000305176 28.0497 0.173984 28.5099 0.461422H30.0774V8.29867C30.0774 9.08022 30.2771 9.41976 30.6766 9.41976C30.9692 9.41976 31.1976 9.29732 31.4147 9.14361L31.7829 10.4957C31.3834 10.8187 30.7842 11.0793 29.9593 11.0793C28.8989 11.0793 28.3145 10.434 28.3145 9.0203L28.3102 2.02887Z"
              fill="currentColor"/>
        <path id="Vector_5"
              d="M35.5466 3.84192C37.8357 3.84192 39.3111 5.39374 39.3111 7.46833C39.3111 9.54292 37.8348 11.0947 35.5466 11.0947C33.2584 11.0947 31.7812 9.54292 31.7812 7.46833C31.7812 5.39374 33.2566 3.84192 35.5466 3.84192ZM35.5466 9.45087C36.6373 9.45087 37.4362 8.66932 37.4362 7.46833C37.4362 6.30034 36.6225 5.50142 35.5466 5.50142C34.5045 5.50142 33.6717 6.26995 33.6717 7.46833C33.6717 8.62069 34.4707 9.45087 35.5466 9.45087Z"
              fill="currentColor"/>
        <path id="Vector_6"
              d="M48.0544 10.9565H46.4713L44.995 7.11477C44.8874 6.85425 44.8413 6.56161 44.7641 6.30022C44.7077 6.58869 44.6255 6.87148 44.5183 7.14517L43.0594 10.9565H41.5545L39.3105 4.0094H41.201L42.3074 7.77388C42.3943 8.07652 42.4611 8.38461 42.5071 8.69611C42.5772 8.38422 42.6642 8.07635 42.7676 7.77388L44.0581 4.0094H45.6212L46.9672 7.75999C47.0701 8.0738 47.157 8.39262 47.2277 8.71522C47.2893 8.39305 47.3666 8.05437 47.443 7.71657L48.4573 4.01374H50.2401L48.0544 10.9565Z"
              fill="currentColor"/>
        <path id="Vector_7"
              d="M53.9557 10.9265C52.9414 13.3997 52.2962 13.9997 51.2819 13.9997C50.6514 13.9997 50.1903 13.7531 49.7909 13.4613L50.3596 12.1249C50.5437 12.2325 50.8051 12.3706 51.0822 12.3706C51.5276 12.3706 51.8498 12.0172 52.1425 11.2947L52.2962 10.9265L49.0996 4.01147H51.222L52.8354 7.79159C52.9735 8.12939 53.0656 8.45157 53.1732 8.79024C53.2298 8.4465 53.3119 8.10746 53.419 7.77596L54.6643 4.01147H56.6755L53.9557 10.9265Z"
              fill="currentColor"/>
    </g>
</svg>
