<svg width="88" height="16" viewBox="0 0 88 16" fill="none" xmlns="http://www.w3.org/2000/svg">
    <path d="M15.9826 9.6731C15.524 12.17 13.5133 14.3481 11.2028 15.57C10.9206 15.7294 10.5855 15.8179 10.2681 15.8357H15.1712C15.6475 15.8357 15.9826 15.4815 15.9826 15.0388V9.6731Z"
          fill="#F7931E"/>
    <path d="M6.17473 4.85546C6.10418 4.90859 6.03363 4.96171 5.96308 5.01484C4.76374 5.86484 1.13045 8.59196 0.301491 7.40549C-0.509827 6.25443 0.354403 2.99607 2.43561 1.42001C2.47089 1.38459 2.5238 1.36688 2.55907 1.33147C4.83429 -0.280007 6.52748 -0.0497963 7.35643 1.11897C8.13248 2.21689 7.26825 3.95233 6.17473 4.85546Z"
          fill="#8427E0"/>
    <path d="M15.0644 7.38918C13.9356 8.18606 12.1719 7.26522 11.29 6.11417C11.2548 6.06104 11.2195 6.02562 11.1842 5.9725C10.3376 4.76832 7.62147 1.12037 8.78554 0.305776C9.9496 -0.526524 13.3183 0.37661 14.8528 2.57247C14.8881 2.62559 14.9233 2.66101 14.9586 2.71413C16.4402 4.9277 16.2109 6.57459 15.0644 7.38918Z"
          fill="#00B5FF"/>
    <path d="M13.5466 14.5783C13.5113 14.6138 13.4761 14.6315 13.4232 14.6669C11.1479 16.2784 9.45475 16.0481 8.62579 14.8794C7.84975 13.7815 8.71398 12.046 9.80749 11.1429C9.87804 11.0898 9.94859 11.0366 10.0191 10.9835C11.2185 10.1512 14.8518 7.40639 15.6631 8.59286C16.4921 9.74391 15.6455 13.0023 13.5466 14.5783Z"
          fill="#FFBD00"/>
    <path d="M7.19914 15.6944C6.03507 16.5267 2.68398 15.6236 1.14953 13.4277C1.11425 13.3923 1.07898 13.3392 1.06134 13.3038C-0.437833 11.0902 -0.19091 9.4256 0.955517 8.62871C2.08431 7.83183 3.84804 8.75267 4.72991 9.90373C4.76518 9.95685 4.80046 9.99227 4.83573 10.0454C5.66469 11.2319 8.38084 14.8798 7.19914 15.6944Z"
          fill="#E3006D"/>
    <path d="M6.17718 4.85546C4.55454 5.58151 1.09762 7.06902 0.586141 5.86485C0.145207 4.85546 0.956526 2.80127 2.43806 1.42001C2.47334 1.38459 2.52625 1.36688 2.56152 1.33147C4.83674 -0.280007 6.52993 -0.0497963 7.35888 1.11897C8.13493 2.21689 7.2707 3.95233 6.17718 4.85546Z"
          fill="#9327FF"/>
    <path d="M15.0647 7.38845C13.9359 8.18533 12.1722 7.26449 11.2903 6.11344C10.5672 4.43113 9.17383 1.11964 10.3379 0.623799C11.3961 0.163377 13.5832 1.08422 14.9765 2.7134C16.4404 4.92697 16.2111 6.57386 15.0647 7.38845Z"
          fill="#00C8FF"/>
    <path d="M13.5466 14.5775C13.5113 14.6129 13.4761 14.6306 13.4232 14.666C11.1479 16.2775 9.45475 16.0473 8.62579 14.8785C7.84975 13.7806 8.71398 12.0452 9.80749 11.142C11.4301 10.416 14.8871 8.92848 15.3985 10.1327C15.8571 11.142 15.0458 13.1962 13.5466 14.5775Z"
          fill="#FFCE00"/>
    <path d="M5.68233 15.3757C4.62409 15.8361 2.43705 14.9329 1.06134 13.3038C-0.437833 11.0902 -0.19091 9.4256 0.955517 8.62871C2.08431 7.83183 3.84804 8.75267 4.72991 9.90373C5.45304 11.5683 6.84639 14.8798 5.68233 15.3757Z"
          fill="#FB006D"/>
    <path d="M33.036 4.63777H35.0241V5.38025C35.5126 4.86247 36.425 4.44727 37.4274 4.44727C39.5708 4.44727 40.9541 6.10807 40.9541 8.40584C40.9541 10.7739 39.3285 12.6067 36.8392 12.6067C36.1476 12.6067 35.4715 12.4855 35.0241 12.2267V15.8746H33.036V4.63777ZM35.0241 7.15926V10.306C35.5604 10.6518 36.0098 10.7554 36.6663 10.7554C38.0497 10.7554 38.8449 9.75206 38.8449 8.45566C38.8449 7.21103 38.119 6.31225 36.8051 6.31225C36.131 6.3142 35.5086 6.62585 35.0241 7.15926Z"
          fill="currentColor"/>
    <path d="M28.1149 4.49121C25.6247 4.49121 24 6.32395 24 8.69206C24 10.9918 25.3833 12.6516 27.5268 12.6516C28.5291 12.6516 29.4455 12.2364 29.93 11.7167V12.4611H31.925V5.93415C30.4478 4.81556 28.8105 4.49121 28.1149 4.49121ZM29.93 9.93766C29.4416 10.4721 28.8232 10.7837 28.1491 10.7837C26.8361 10.7837 26.1092 9.88491 26.1092 8.64126C26.1092 7.34388 26.9044 6.34056 28.2868 6.34056C28.9443 6.34056 29.3937 6.4451 29.93 6.79093V9.93766Z"
          fill="currentColor"/>
    <path d="M41.8025 4.63777H43.7906V5.38025C44.279 4.86247 45.1905 4.44727 46.1929 4.44727C48.3373 4.44727 49.7196 6.10807 49.7196 8.40584C49.7196 10.7739 48.095 12.6067 45.6057 12.6067C44.9141 12.6067 44.238 12.4855 43.7906 12.2267V15.8746H41.8025V4.63777ZM43.7906 7.15926V10.306C44.3259 10.6518 44.7753 10.7554 45.4328 10.7554C46.8152 10.7554 47.6104 9.75206 47.6104 8.45566C47.6104 7.21103 46.8845 6.31225 45.5706 6.31225C44.8965 6.3142 44.2742 6.62585 43.7906 7.15926Z"
          fill="currentColor"/>
    <path d="M55.4834 2.40762C55.1236 2.15249 54.6971 2.00817 54.2563 1.99242C53.3575 1.99242 52.8886 2.4594 52.8886 3.53111V4.63798H54.2886V6.50492H52.8905V12.4174H50.9025V3.37577C50.9025 1.21478 51.94 0.125488 53.6682 0.125488C54.4634 0.125488 55.1903 0.320877 55.708 0.644244H57.4714V9.46115C57.4714 10.3404 57.6961 10.7224 58.1455 10.7224C58.4747 10.7224 58.7317 10.5846 58.9759 10.4117L59.3901 11.9328C58.9407 12.2962 58.2667 12.5893 57.3386 12.5893C56.1457 12.5893 55.4882 11.8634 55.4882 10.273L55.4834 2.40762Z"
          fill="currentColor"/>
    <path d="M63.626 4.44727C66.2013 4.44727 67.8611 6.19306 67.8611 8.52698C67.8611 10.8609 66.2003 12.6067 63.626 12.6067C61.0518 12.6067 59.39 10.8609 59.39 8.52698C59.39 6.19306 61.0498 4.44727 63.626 4.44727ZM63.626 10.7573C64.8531 10.7573 65.7519 9.87809 65.7519 8.52698C65.7519 7.21299 64.8365 6.3142 63.626 6.3142C62.4537 6.3142 61.5168 7.1788 61.5168 8.52698C61.5168 9.82338 62.4156 10.7573 63.626 10.7573Z"
          fill="currentColor"/>
    <path d="M77.6962 12.4513H75.9152L74.2544 8.12929C74.1333 7.8362 74.0815 7.50697 73.9946 7.21291C73.9312 7.53744 73.8387 7.85559 73.7181 8.16348L72.0768 12.4513H70.3838L67.8594 4.63574H69.9862L71.2308 8.87078C71.3286 9.21125 71.4037 9.55786 71.4555 9.9083C71.5344 9.55741 71.6322 9.21107 71.7486 8.87078L73.2003 4.63574H74.9588L76.4731 8.85515C76.5888 9.2082 76.6866 9.56687 76.7662 9.92979C76.8355 9.56734 76.9225 9.18634 77.0084 8.80631L78.1495 4.64063H80.1552L77.6962 12.4513Z"
          fill="currentColor"/>
    <path d="M84.3345 12.4173C83.1934 15.1997 82.4676 15.8747 81.3265 15.8747C80.6173 15.8747 80.0985 15.5973 79.6491 15.269L80.289 13.7655C80.4961 13.8866 80.7902 14.042 81.1018 14.042C81.603 14.042 81.9654 13.6444 82.2947 12.8316L82.4676 12.4173L78.8715 4.63794H81.2591L83.0743 8.89057C83.2296 9.2706 83.3331 9.63304 83.4543 10.0141C83.5179 9.62734 83.6103 9.24592 83.7308 8.87298L85.1317 4.63794H87.3943L84.3345 12.4173Z"
          fill="currentColor"/>
</svg>
