<svg width="24" height="24" viewBox="0 0 24 24" fill="none" xmlns="http://www.w3.org/2000/svg">
    <path d="M10.2023 19.4658V4.53479C10.2023 3.11729 9.61505 2.55029 8.15599 2.55029H4.4487C2.98964 2.55029 2.40234 3.11729 2.40234 4.53479V19.4658C2.40234 20.8833 2.98964 21.4503 4.4487 21.4503H8.15599C9.61505 21.4503 10.2023 20.8833 10.2023 19.4658Z"
          stroke="currentColor" stroke-width="1.5" stroke-linecap="round" stroke-linejoin="round"/>
    <path d="M21.6022 13.1778V4.59779C21.6022 3.13529 21.015 2.55029 19.5559 2.55029H15.8486C14.3895 2.55029 13.8022 3.13529 13.8022 4.59779V13.1778C13.8022 14.6403 14.3895 15.2253 15.8486 15.2253H19.5559C21.015 15.2253 21.6022 14.6403 21.6022 13.1778Z"
          stroke="currentColor" stroke-width="1.5" stroke-linecap="round" stroke-linejoin="round"/>
</svg>
