<svg width="20" height="20" viewBox="0 0 20 20" fill="none" xmlns="http://www.w3.org/2000/svg">
    <g id="Book">
        <path id="Vector"
              d="M16.25 1.875H5.61719C4.24766 1.875 3.13047 2.98594 3.125 4.35469V16.8578C3.125 16.8633 3.125 16.8695 3.125 16.875V17.5C3.125 17.8453 3.40469 18.125 3.75 18.125H15C15.3453 18.125 15.625 17.8453 15.625 17.5C15.625 17.1547 15.3453 16.875 15 16.875H4.375V16.8609C4.37812 16.1813 4.93125 15.6281 5.60938 15.625H16.25C16.5953 15.625 16.875 15.3453 16.875 15V2.5C16.875 2.15469 16.5953 1.875 16.25 1.875ZM15.625 14.375H5.60703C5.15859 14.3766 4.73828 14.4977 4.375 14.707V4.36172C4.37656 4.02969 4.50703 3.71875 4.74219 3.48516C4.97656 3.25313 5.28672 3.125 5.61953 3.125H15.625V14.375Z"
              fill="currentColor"/>
    </g>
</svg>
