<svg width="24" height="24" viewBox="0 0 24 24" fill="none" xmlns="http://www.w3.org/2000/svg">
    <path d="M2.99902 6.10352C2.44702 6.10352 1.99902 6.55152 1.99902 7.10352C1.99902 7.65552 2.44702 8.10352 2.99902 8.10352C3.55102 8.10352 3.99902 7.65552 3.99902 7.10352C3.99902 6.55152 3.55102 6.10352 2.99902 6.10352ZM6.99902 6.10352C6.44702 6.10352 5.99902 6.55152 5.99902 7.10352C5.99902 7.65552 6.44702 8.10352 6.99902 8.10352H20.999C21.551 8.10352 21.999 7.65552 21.999 7.10352C21.999 6.55152 21.551 6.10352 20.999 6.10352H6.99902ZM2.99902 11.1035C2.44702 11.1035 1.99902 11.5515 1.99902 12.1035C1.99902 12.6555 2.44702 13.1035 2.99902 13.1035C3.55102 13.1035 3.99902 12.6555 3.99902 12.1035C3.99902 11.5515 3.55102 11.1035 2.99902 11.1035ZM6.99902 11.1035C6.44702 11.1035 5.99902 11.5515 5.99902 12.1035C5.99902 12.6555 6.44702 13.1035 6.99902 13.1035H20.999C21.551 13.1035 21.999 12.6555 21.999 12.1035C21.999 11.5515 21.551 11.1035 20.999 11.1035H6.99902ZM2.99902 16.1035C2.44702 16.1035 1.99902 16.5515 1.99902 17.1035C1.99902 17.6555 2.44702 18.1035 2.99902 18.1035C3.55102 18.1035 3.99902 17.6555 3.99902 17.1035C3.99902 16.5515 3.55102 16.1035 2.99902 16.1035ZM6.99902 16.1035C6.44702 16.1035 5.99902 16.5515 5.99902 17.1035C5.99902 17.6555 6.44702 18.1035 6.99902 18.1035H20.999C21.551 18.1035 21.999 17.6555 21.999 17.1035C21.999 16.5515 21.551 16.1035 20.999 16.1035H6.99902Z"
          fill="currentColor"/>
</svg>
