<svg width="20" height="21" viewBox="0 0 20 21" fill="none" xmlns="http://www.w3.org/2000/svg">
    <g id="calendar-2">
        <path id="Union" fill-rule="evenodd" clip-rule="evenodd"
              d="M6.57344 1.0002C6.57344 0.558368 6.21527 0.200195 5.77344 0.200195C5.33161 0.200195 4.97344 0.558368 4.97344 1.0002V2.01729H4C1.79086 2.01729 0 3.80815 0 6.01729V17.0003C0 19.2095 1.79086 21.0003 4 21.0003H16C18.2091 21.0003 20 19.2095 20 17.0003V6.01728C20 3.80815 18.2091 2.01729 16 2.01729H15.0266V1.0002C15.0266 0.558368 14.6684 0.200195 14.2266 0.200195C13.7847 0.200195 13.4266 0.558368 13.4266 1.0002V2.01729H6.57344V1.0002ZM4.97344 3.61729V4.22053C4.97344 4.66236 5.33161 5.02053 5.77344 5.02053C6.21527 5.02053 6.57344 4.66236 6.57344 4.22053V3.61729H13.4266V4.22053C13.4266 4.66236 13.7847 5.02053 14.2266 5.02053C14.6684 5.02053 15.0266 4.66236 15.0266 4.22053V3.61729H16C17.3255 3.61729 18.4 4.6918 18.4 6.01728V7.81165H1.6V6.01729C1.6 4.6918 2.67452 3.61729 4 3.61729H4.97344ZM1.6 9.41165V17.0003C1.6 18.3258 2.67452 19.4003 4 19.4003H16C17.3255 19.4003 18.4 18.3258 18.4 17.0003V9.41165H1.6Z"
              fill="currentColor"/>
    </g>
</svg>
