<svg width="20" height="20" viewBox="0 0 20 20" fill="none" xmlns="http://www.w3.org/2000/svg">
    <g id="ChatCircleText">
        <path id="Vector"
              d="M13.125 8.7496C13.125 8.91536 13.0592 9.07433 12.9419 9.19154C12.8247 9.30875 12.6658 9.3746 12.5 9.3746H7.5C7.33424 9.3746 7.17527 9.30875 7.05806 9.19154C6.94085 9.07433 6.875 8.91536 6.875 8.7496C6.875 8.58384 6.94085 8.42487 7.05806 8.30766C7.17527 8.19045 7.33424 8.1246 7.5 8.1246H12.5C12.6658 8.1246 12.8247 8.19045 12.9419 8.30766C13.0592 8.42487 13.125 8.58384 13.125 8.7496ZM12.5 10.6246H7.5C7.33424 10.6246 7.17527 10.6904 7.05806 10.8077C6.94085 10.9249 6.875 11.0838 6.875 11.2496C6.875 11.4154 6.94085 11.5743 7.05806 11.6915C7.17527 11.8087 7.33424 11.8746 7.5 11.8746H12.5C12.6658 11.8746 12.8247 11.8087 12.9419 11.6915C13.0592 11.5743 13.125 11.4154 13.125 11.2496C13.125 11.0838 13.0592 10.9249 12.9419 10.8077C12.8247 10.6904 12.6658 10.6246 12.5 10.6246ZM18.125 9.9996C18.1253 11.4024 17.7624 12.7813 17.0717 14.0022C16.381 15.2231 15.3859 16.2444 14.1834 16.9667C12.9808 17.6889 11.6118 18.0875 10.2095 18.1237C8.80719 18.1598 7.41942 17.8323 6.18125 17.173L3.52109 18.0598C3.30085 18.1332 3.0645 18.1439 2.83854 18.0905C2.61257 18.0372 2.40593 17.922 2.24176 17.7578C2.07759 17.5937 1.96239 17.387 1.90906 17.1611C1.85573 16.9351 1.86639 16.6987 1.93984 16.4785L2.82656 13.8183C2.24699 12.7287 1.92328 11.5213 1.88 10.2879C1.83672 9.05441 2.075 7.82731 2.57677 6.6997C3.07854 5.57209 3.8306 4.57362 4.77587 3.78006C5.72114 2.9865 6.83477 2.41872 8.03224 2.11981C9.22971 1.8209 10.4795 1.79873 11.6868 2.05496C12.8942 2.3112 14.0272 2.83911 15.0001 3.59864C15.9729 4.35816 16.7599 5.32933 17.3014 6.43842C17.8428 7.54752 18.1245 8.76539 18.125 9.9996ZM16.875 9.9996C16.8747 8.94501 16.6318 7.90462 16.1651 6.95893C15.6983 6.01324 15.0203 5.18759 14.1834 4.54587C13.3466 3.90415 12.3733 3.46356 11.3389 3.25818C10.3045 3.0528 9.23671 3.08814 8.21815 3.36147C7.1996 3.6348 6.25757 4.13878 5.46496 4.83443C4.67235 5.53009 4.0504 6.39876 3.64724 7.37324C3.24407 8.34772 3.07048 9.40189 3.13992 10.4542C3.20935 11.5065 3.51994 12.5287 4.04766 13.4418C4.09195 13.5184 4.11945 13.6036 4.12834 13.6917C4.13723 13.7798 4.1273 13.8688 4.09922 13.9527L3.125 16.8746L6.04688 15.9004C6.11052 15.8787 6.17729 15.8676 6.24453 15.8676C6.3543 15.8678 6.46208 15.8969 6.55703 15.9519C7.60219 16.5566 8.78817 16.8754 9.99566 16.8762C11.2031 16.8769 12.3895 16.5597 13.4354 15.9563C14.4814 15.3529 15.3499 14.4847 15.9537 13.439C16.5575 12.3933 16.8753 11.2071 16.875 9.9996Z"
              fill="currentColor"/>
    </g>
</svg>
