<svg width="24" height="24" viewBox="0 0 24 24" fill="none" xmlns="http://www.w3.org/2000/svg">
    <g id="icon_chat-ai_3">
        <path id="Subtract"
              d="M13.0581 3.23471C13.0581 2.86764 12.7812 2.55686 12.4144 2.54173C12.2771 2.53606 12.139 2.5332 12.0002 2.5332C6.66255 2.5332 2.3335 6.77042 2.3335 11.9969C2.33228 13.5462 2.71947 15.0712 3.45967 16.4323C3.73517 16.9172 3.89144 17.4763 3.89144 18.0675C3.89144 18.944 3.54989 19.7415 2.99083 20.3456C2.93605 20.4584 2.85711 20.6518 2.85711 20.7533C2.85889 20.929 2.92519 21.098 3.04341 21.2281C3.16163 21.3582 3.32353 21.4404 3.49833 21.4589H12.0002C17.341 21.4589 21.6668 17.2233 21.6668 11.9953C21.6668 11.7828 21.6597 11.5719 21.6456 11.3629C21.6212 11.0017 21.3119 10.7343 20.9499 10.7343C20.5018 10.7343 20.1637 11.1382 20.1882 11.5857C20.1956 11.7215 20.1994 11.858 20.1994 11.9953C20.1994 16.3259 16.4581 19.9449 12.0002 19.9449L4.9831 19.8478C5.24744 19.1672 5.35203 18.4362 5.29853 17.708C5.24502 16.9798 5.09175 16.2727 4.73075 15.638C4.13625 14.5408 3.78447 13.2922 3.78447 11.9969C3.78447 7.66781 7.54383 3.98417 12.0002 3.98417C12.081 3.98417 12.1617 3.98539 12.242 3.98779C12.6757 4.00077 13.0581 3.66856 13.0581 3.23471Z"
              fill="currentColor"/>
        <path id="Union"
              d="M18.2063 2.97527C18.3771 2.5635 18.9604 2.5636 19.131 2.97543L19.3536 3.51281C19.6922 4.33007 20.3415 4.97943 21.1587 5.31811L21.6924 5.53929C22.1043 5.71 22.1042 6.2935 21.6922 6.46406L21.1549 6.68654C20.3368 7.02524 19.6869 7.67521 19.3483 8.49332L19.1286 9.02409C18.958 9.43628 18.3742 9.43617 18.2037 9.02393L17.9825 8.48897C17.6439 7.6702 16.9936 7.0197 16.1749 6.68091L15.6426 6.46061C15.2305 6.29009 15.2304 5.70644 15.6424 5.53577L16.1799 5.31314C16.997 4.97467 17.6463 4.32564 17.9851 3.50867L18.2063 2.97527Z"
              fill="currentColor"/>
    </g>
</svg>
