<svg width="18" height="18" viewBox="0 0 18 18" fill="none" xmlns="http://www.w3.org/2000/svg">
    <g opacity="1">
        <path d="M15.1924 15.1924C15.4853 14.8995 15.4875 14.4268 15.1946 14.1339L10.061 9.00027L15.1945 3.86672C15.4874 3.57382 15.4853 3.10107 15.1924 2.80818C14.8995 2.51529 14.4268 2.51316 14.1339 2.80606C13.841 3.09895 9.00031 7.93961 9.00031 7.93961L3.86671 2.80601C3.57382 2.51312 3.10107 2.51524 2.80817 2.80814C2.51528 3.10103 2.51316 3.57378 2.80605 3.86667L7.93965 9.00027L2.80601 14.1339C2.51312 14.4268 2.51524 14.8996 2.80814 15.1924C3.10103 15.4853 3.57378 15.4875 3.86667 15.1946L9.00031 10.0609L14.1339 15.1945C14.4268 15.4874 14.8995 15.4853 15.1924 15.1924Z"
              fill="currentColor"/>
    </g>
</svg>