<svg width="14" height="14" viewBox="0 0 14 14" fill="none" xmlns="http://www.w3.org/2000/svg">
    <g clip-path="url(#clip0_1068_187542)">
        <path fill-rule="evenodd" clip-rule="evenodd"
              d="M7.88381 0.0605549C6.89196 -0.05967 5.88886 0.163768 5.04181 0.693609C4.25349 1.18671 3.64467 1.91745 3.30135 2.77774C2.87262 2.82504 2.45508 2.94713 2.06781 3.13888C1.63324 3.35405 1.24531 3.6527 0.92616 4.01779C0.281611 4.75512 -0.0436335 5.7183 0.0219743 6.69544C0.087582 7.67257 0.538668 8.58362 1.276 9.22817C1.65376 9.55839 2.09079 9.8048 2.55861 9.95778C2.77382 9.08534 3.5616 8.43839 4.50049 8.43839H5.00049V7.93839C5.00049 6.83382 5.89592 5.93839 7.00049 5.93839C8.10506 5.93839 9.00049 6.83382 9.00049 7.93839V8.43839H9.50049C10.474 8.43839 11.2851 9.13397 11.4638 10.0553C12.0005 9.93492 12.5014 9.67863 12.9162 9.30595C13.5042 8.77758 13.878 8.05195 13.9669 7.26645C14.0558 6.48096 13.8536 5.69013 13.3985 5.04371C12.9811 4.45071 12.3775 4.01701 11.6866 3.80943C11.5613 2.88615 11.1436 2.02521 10.4923 1.35427C9.79633 0.637401 8.87567 0.18078 7.88381 0.0605549ZM3.75049 10.4384C3.75049 10.0242 4.08628 9.68839 4.50049 9.68839H6.25049V7.93839C6.25049 7.52417 6.58628 7.18839 7.00049 7.18839C7.4147 7.18839 7.75049 7.52417 7.75049 7.93839V9.68839H9.50049C9.9147 9.68839 10.2505 10.0242 10.2505 10.4384C10.2505 10.8526 9.9147 11.1884 9.50049 11.1884H7.75049V12.9384C7.75049 13.3526 7.4147 13.6884 7.00049 13.6884C6.58628 13.6884 6.25049 13.3526 6.25049 12.9384V11.1884H4.50049C4.08628 11.1884 3.75049 10.8526 3.75049 10.4384Z"
              fill="currentColor"/>
    </g>
    <defs>
        <clipPath id="clip0_1068_187542">
            <rect width="14" height="14" fill="white"/>
        </clipPath>
    </defs>
</svg>
