<svg width="16" height="16" viewBox="0 0 16 16" fill="none" xmlns="http://www.w3.org/2000/svg">
<path d="M11.9743 6.33203H7.35889C6.79245 6.33203 6.33325 6.79123 6.33325 7.35767V11.9731C6.33325 12.5395 6.79245 12.9987 7.35889 12.9987H11.9743C12.5407 12.9987 12.9999 12.5395 12.9999 11.9731V7.35767C12.9999 6.79123 12.5407 6.33203 11.9743 6.33203Z" stroke="#333333" stroke-linecap="round" stroke-linejoin="round"/>
<path d="M4.53846 9.66667H4.02564C3.75362 9.66667 3.49275 9.55861 3.3004 9.36626C3.10806 9.17392 3 8.91304 3 8.64103V4.02564C3 3.75362 3.10806 3.49275 3.3004 3.3004C3.49275 3.10806 3.75362 3 4.02564 3H8.64103C8.91304 3 9.17392 3.10806 9.36626 3.3004C9.55861 3.49275 9.66667 3.75362 9.66667 4.02564V4.53846" stroke="#333333" stroke-linecap="round" stroke-linejoin="round"/>
</svg>
