<svg width="32" height="16" viewBox="0 0 32 16" fill="none" xmlns="http://www.w3.org/2000/svg">
<path fill-rule="evenodd" clip-rule="evenodd" d="M15.8774 3.10363H15.9L28 3.0908C28.2761 3.0908 28.5 3.31796 28.5 3.5941C28.5 3.87024 28.2761 4.0908 28 4.0908L15.9 4.10363C14.7716 4.10363 13.9554 4.10402 13.3135 4.15647C12.6774 4.20844 12.2566 4.30902 11.911 4.48511C11.2525 4.82066 10.717 5.3561 10.3815 6.01466C10.2054 6.36025 10.1048 6.78107 10.0528 7.41715C10.0004 8.05908 10 8.87527 10 10.0036V11.6036C10 11.8797 9.77614 12.1036 9.5 12.1036C9.22386 12.1036 9 11.8797 9 11.6036V10.0036V9.981C9 8.88004 9 8.02311 9.05616 7.33572C9.11318 6.63779 9.23058 6.07073 9.49047 5.56067C9.9219 4.71394 10.6103 4.02553 11.457 3.5941C11.9671 3.33421 12.5342 3.21681 13.2321 3.15979C13.9195 3.10363 14.7764 3.10363 15.8774 3.10363Z" fill="black"/>
</svg>
