<svg width="35" height="34" viewBox="0 0 35 34" fill="none" xmlns="http://www.w3.org/2000/svg">
    <path d="M25.5 21.834C25.5 21.2817 25.9477 20.834 26.5 20.834C27.0523 20.834 27.5 21.2817 27.5 21.834V22.834H28.5C29.0523 22.834 29.5 23.2817 29.5 23.834C29.5 24.3863 29.0523 24.834 28.5 24.834H26.5C25.9477 24.834 25.5 24.3863 25.5 23.834V21.834Z"
          fill="currentColor"/>
    <path d="M26.5 29.834C29.8137 29.834 32.5 27.1477 32.5 23.834C32.5 20.5203 29.8137 17.834 26.5 17.834C23.1863 17.834 20.5 20.5203 20.5 23.834C20.5 27.1477 23.1863 29.834 26.5 29.834ZM26.5 27.834C24.2909 27.834 22.5 26.0431 22.5 23.834C22.5 21.6248 24.2909 19.834 26.5 19.834C28.7091 19.834 30.5 21.6248 30.5 23.834C30.5 26.0431 28.7091 27.834 26.5 27.834Z"
          fill="currentColor"/>
    <path d="M25.5 21.834C25.5 21.2817 25.9477 20.834 26.5 20.834C27.0523 20.834 27.5 21.2817 27.5 21.834V22.834H28.5C29.0523 22.834 29.5 23.2817 29.5 23.834C29.5 24.3863 29.0523 24.834 28.5 24.834H26.5C25.9477 24.834 25.5 24.3863 25.5 23.834V21.834Z"
          stroke="currentColor" stroke-width="0.342857"/>
    <path d="M26.5 29.834C29.8137 29.834 32.5 27.1477 32.5 23.834C32.5 20.5203 29.8137 17.834 26.5 17.834C23.1863 17.834 20.5 20.5203 20.5 23.834C20.5 27.1477 23.1863 29.834 26.5 29.834ZM26.5 27.834C24.2909 27.834 22.5 26.0431 22.5 23.834C22.5 21.6248 24.2909 19.834 26.5 19.834C28.7091 19.834 30.5 21.6248 30.5 23.834C30.5 26.0431 28.7091 27.834 26.5 27.834Z"
          stroke="currentColor" stroke-width="0.342857"/>
    <path d="M12.734 6.50065V6.60065H12.834H22.1673H22.2673V6.50065C22.2673 5.91155 22.7449 5.43398 23.334 5.43398C23.9231 5.43398 24.4007 5.91155 24.4007 6.50065V6.60065H24.5007H26.834C28.0675 6.60065 29.0673 7.60055 29.0673 8.83398V15.734H8.16732H8.06732V15.834V26.334V26.434H8.16732H18.734V28.5673H8.16732C6.93388 28.5673 5.93398 27.5674 5.93398 26.334V8.83399C5.93398 7.60055 6.93384 6.60065 8.16728 6.60065H10.5007H10.6007V6.50065C10.6007 5.91155 11.0782 5.43398 11.6673 5.43398C12.2564 5.43398 12.734 5.91155 12.734 6.50065ZM26.834 13.6007H26.934V13.5007V8.83398V8.73398H26.834H24.5007H24.4007V8.83398C24.4007 9.42309 23.9231 9.90065 23.334 9.90065C22.7449 9.90065 22.2673 9.42309 22.2673 8.83398V8.73398H22.1673H12.834H12.734V8.83398C12.734 9.42309 12.2564 9.90065 11.6673 9.90065C11.0782 9.90065 10.6007 9.42309 10.6007 8.83398V8.73398H10.5007H8.16732H8.06732V8.83398V13.5007V13.6007H8.16732H26.834Z"
          fill="currentColor" stroke="currentColor" stroke-width="0.2"/>
</svg>
