<svg width="20" height="20" viewBox="0 0 20 20" fill="none" xmlns="http://www.w3.org/2000/svg">
    <g id="Database">
        <path id="Vector"
              d="M10 1.875C5.79453 1.875 2.5 3.79688 2.5 6.25V13.75C2.5 16.2031 5.79453 18.125 10 18.125C14.2055 18.125 17.5 16.2031 17.5 13.75V6.25C17.5 3.79688 14.2055 1.875 10 1.875ZM16.25 10C16.25 10.7516 15.6344 11.518 14.5617 12.1031C13.3539 12.7617 11.7336 13.125 10 13.125C8.26641 13.125 6.64609 12.7617 5.43828 12.1031C4.36563 11.518 3.75 10.7516 3.75 10V8.7C5.08281 9.87187 7.36172 10.625 10 10.625C12.6383 10.625 14.9172 9.86875 16.25 8.7V10ZM5.43828 4.14688C6.64609 3.48828 8.26641 3.125 10 3.125C11.7336 3.125 13.3539 3.48828 14.5617 4.14688C15.6344 4.73203 16.25 5.49844 16.25 6.25C16.25 7.00156 15.6344 7.76797 14.5617 8.35312C13.3539 9.01172 11.7336 9.375 10 9.375C8.26641 9.375 6.64609 9.01172 5.43828 8.35312C4.36563 7.76797 3.75 7.00156 3.75 6.25C3.75 5.49844 4.36563 4.73203 5.43828 4.14688ZM14.5617 15.8531C13.3539 16.5117 11.7336 16.875 10 16.875C8.26641 16.875 6.64609 16.5117 5.43828 15.8531C4.36563 15.268 3.75 14.5016 3.75 13.75V12.45C5.08281 13.6219 7.36172 14.375 10 14.375C12.6383 14.375 14.9172 13.6187 16.25 12.45V13.75C16.25 14.5016 15.6344 15.268 14.5617 15.8531Z"
              fill="currentColor"/>
    </g>
</svg>
