<svg width="16" height="16" viewBox="0 0 16 16" fill="none" xmlns="http://www.w3.org/2000/svg">
<path d="M3 4.40039H4.11111H13" stroke="#333333" stroke-linecap="round" stroke-linejoin="round"/>
<path d="M5.77775 4.4V3.2C5.77775 2.88174 5.89481 2.57652 6.10319 2.35147C6.31156 2.12643 6.59418 2 6.88886 2H9.11108C9.40577 2 9.68838 2.12643 9.89676 2.35147C10.1051 2.57652 10.2222 2.88174 10.2222 3.2V4.4M11.8889 4.4V12.8C11.8889 13.1183 11.7718 13.4235 11.5634 13.6485C11.3551 13.8736 11.0724 14 10.7778 14H5.2222C4.92751 14 4.64489 13.8736 4.43652 13.6485C4.22815 13.4235 4.11108 13.1183 4.11108 12.8V4.4H11.8889Z" stroke="#333333" stroke-linecap="round" stroke-linejoin="round"/>
<path d="M6.88892 7.40039V11.0004" stroke="#333333" stroke-linecap="round" stroke-linejoin="round"/>
<path d="M9.11108 7.40039V11.0004" stroke="#333333" stroke-linecap="round" stroke-linejoin="round"/>
</svg>
