<svg width="22" height="22" viewBox="0 0 22 22" fill="none" xmlns="http://www.w3.org/2000/svg">
    <g id="document">
        <g id="4">
            <path id="Union" fill-rule="evenodd" clip-rule="evenodd"
                  d="M20.1783 8.93656C20.2569 9.17734 20.2969 9.42902 20.2969 9.6823V14.0265C20.2969 16.5387 19.8692 18.5 18.7213 19.8261C17.5476 21.1821 15.7813 21.6972 13.55 21.6972H8.45C6.21866 21.6972 4.45244 21.1821 3.27874 19.8261C2.13079 18.5 1.70312 16.5387 1.70312 14.0265V8.1346C1.70312 5.62238 2.13079 3.66112 3.27874 2.33493C4.45244 0.978988 6.21866 0.463867 8.45 0.463867H12.1073C12.3671 0.463867 12.6249 0.509322 12.869 0.598176C13.2274 0.728622 13.5464 0.948927 13.7952 1.23798L19.7147 8.11373C19.9221 8.35466 20.0797 8.63433 20.1783 8.93656ZM3.29688 8.1346C3.29688 5.73691 3.71921 4.26125 4.48376 3.37799C5.22256 2.52448 6.43134 2.05762 8.45 2.05762H11.8281V5.04936C11.8281 6.55636 12.0326 7.80405 12.7648 8.65464C13.5286 9.54177 14.681 9.7955 16.025 9.7955H18.7031V14.0265C18.7031 16.4242 18.2808 17.8998 17.5162 18.7831C16.7774 19.6366 15.5687 20.1034 13.55 20.1034H8.45C6.43134 20.1034 5.22256 19.6366 4.48376 18.7831C3.71921 17.8998 3.29688 16.4242 3.29688 14.0265V8.1346ZM13.4219 5.04936V3.24708L17.6874 8.20175H16.025C14.819 8.20175 14.2714 7.96182 13.9727 7.61481C13.6424 7.23125 13.4219 6.50431 13.4219 5.04936Z"
                  fill="currentColor"/>
        </g>
    </g>
</svg>
