<svg xmlns="http://www.w3.org/2000/svg" width="16" height="16" viewBox="0 0 16 16" fill="none">
    <g clip-path="url(#clip0_51_33)">
        <path d="M7.99998 1.16281V6.63256M7.99998 6.63256L10.0511 4.58138M7.99998 6.63256L5.94885 4.58138"
              stroke="currentColor" stroke-linecap="round" stroke-linejoin="round"/>
        <path d="M1.16284 8.68369H3.32359C3.94247 8.68369 4.2519 8.68369 4.5239 8.80881C4.7959 8.93387 4.99728 9.16887 5.40003 9.63869L5.81397 10.1217C6.21672 10.5915 6.41815 10.8265 6.69015 10.9516C6.96215 11.0767 7.27159 11.0767 7.8904 11.0767H8.10965C8.72847 11.0767 9.0379 11.0767 9.3099 10.9516C9.58197 10.8265 9.78328 10.5915 10.1861 10.1217L10.6 9.63869C11.0028 9.16887 11.2042 8.93387 11.4762 8.80881C11.7482 8.68369 12.0576 8.68369 12.6765 8.68369H14.8372"
              stroke="currentColor" stroke-linecap="round"/>
        <path d="M11.4186 1.24956C12.5297 1.35888 13.2777 1.60588 13.8359 2.16413C14.8372 3.16544 14.8372 4.77694 14.8372 8.00006C14.8372 11.2231 14.8372 12.8347 13.8359 13.8359C12.8347 14.8372 11.2231 14.8372 8.00003 14.8372C4.77697 14.8372 3.1654 14.8372 2.16415 13.8359C1.16284 12.8347 1.16284 11.2231 1.16284 8.00006C1.16284 4.77694 1.16284 3.16544 2.16415 2.16413C2.72234 1.60588 3.47028 1.35888 4.58147 1.24956"
              stroke="currentColor" stroke-linecap="round"/>
    </g>
    <defs>
        <clipPath id="clip0_51_33">
            <rect width="16" height="16" fill="white"/>
        </clipPath>
    </defs>
</svg>