<svg width="16" height="16" viewBox="0 0 16 16" fill="none" xmlns="http://www.w3.org/2000/svg">
<path d="M9.15132 2.33977L10.3247 4.68643C10.4847 5.0131 10.9113 5.32643 11.2713 5.38643L13.398 5.73977C14.758 5.96643 15.078 6.9531 14.098 7.92643L12.4447 9.57977C12.1647 9.85977 12.0113 10.3998 12.098 10.7864L12.5713 12.8331C12.9447 14.4531 12.0847 15.0798 10.6513 14.2331L8.65799 13.0531C8.29799 12.8398 7.70465 12.8398 7.33799 13.0531L5.34465 14.2331C3.91799 15.0798 3.05132 14.4464 3.42465 12.8331L3.89799 10.7864C3.98465 10.3998 3.83132 9.85977 3.55132 9.57977L1.89799 7.92643C0.924653 6.9531 1.23799 5.96643 2.59799 5.73977L4.72465 5.38643C5.07799 5.32643 5.50465 5.0131 5.66465 4.68643L6.83799 2.33977C7.47799 1.06643 8.51799 1.06643 9.15132 2.33977Z" stroke="#171717" stroke-linecap="round" stroke-linejoin="round"/>
</svg>
