<svg width="20" height="20" viewBox="0 0 20 20" fill="none" xmlns="http://www.w3.org/2000/svg">
    <g id="GraduationCap">
        <path id="Vector"
              d="M19.6686 6.94833L10.2936 1.94833C10.2031 1.90018 10.1023 1.875 9.9998 1.875C9.89736 1.875 9.79648 1.90018 9.70605 1.94833L0.331055 6.94833C0.231058 7.00163 0.14743 7.0811 0.0891172 7.17825C0.0308042 7.27541 0 7.38659 0 7.4999C0 7.61321 0.0308042 7.72439 0.0891172 7.82154C0.14743 7.91869 0.231058 7.99817 0.331055 8.05146L2.4998 9.20849V12.9913C2.49916 13.2983 2.61214 13.5947 2.81699 13.8233C3.84043 14.9632 6.1334 16.8749 9.9998 16.8749C11.2818 16.8855 12.5542 16.6533 13.7498 16.1905V18.7499C13.7498 18.9157 13.8157 19.0746 13.9329 19.1918C14.0501 19.309 14.209 19.3749 14.3748 19.3749C14.5406 19.3749 14.6995 19.309 14.8167 19.1918C14.934 19.0746 14.9998 18.9157 14.9998 18.7499V15.5866C15.8148 15.1161 16.5513 14.5212 17.1826 13.8233C17.3875 13.5947 17.5005 13.2983 17.4998 12.9913V9.20849L19.6686 8.05146C19.7686 7.99817 19.8522 7.91869 19.9105 7.82154C19.9688 7.72439 19.9996 7.61321 19.9996 7.4999C19.9996 7.38659 19.9688 7.27541 19.9105 7.17825C19.8522 7.0811 19.7686 7.00163 19.6686 6.94833ZM9.9998 15.6249C6.61934 15.6249 4.63105 13.9733 3.7498 12.9913V9.8749L9.70605 13.0515C9.79648 13.0996 9.89736 13.1248 9.9998 13.1248C10.1023 13.1248 10.2031 13.0996 10.2936 13.0515L13.7498 11.2085V14.8288C12.7654 15.2882 11.5248 15.6249 9.9998 15.6249ZM16.2498 12.9882C15.8752 13.4039 15.456 13.7772 14.9998 14.1015V10.5413L16.2498 9.8749V12.9882ZM14.6873 9.29208L14.6701 9.28193L10.2951 6.94833C10.1491 6.87378 9.97974 6.85954 9.82338 6.9087C9.66702 6.95786 9.53623 7.06647 9.45918 7.21114C9.38213 7.35581 9.365 7.52495 9.41147 7.68213C9.45794 7.83931 9.56429 7.97194 9.70762 8.05146L13.3592 9.9999L9.9998 11.7913L1.95293 7.4999L9.9998 3.20849L18.0467 7.4999L14.6873 9.29208Z"
              fill="currentColor"/>
    </g>
</svg>
