<svg width="22" height="20" viewBox="0 0 22 20" fill="none" xmlns="http://www.w3.org/2000/svg">
    <g id="Group 1686556136">
        <path id="Union" fill-rule="evenodd" clip-rule="evenodd"
              d="M8.58687 1.98039H17.6008C18.7164 1.98039 19.6208 2.88477 19.6208 4.00039V6.06034H8.58687V1.98039ZM8.58687 7.64034H19.6208V12.3601H8.58687V7.64034ZM7.00688 12.3601V7.64034H2.38078V12.3601H7.00688ZM2.38078 13.9401H7.00688V18.0204H4.40078C3.28516 18.0204 2.38078 17.116 2.38078 16.0004V13.9401ZM8.58687 13.9401H19.6208V16.0004C19.6208 17.116 18.7164 18.0204 17.6008 18.0204H8.58687V13.9401ZM7.00688 1.98039V6.06034H2.38078V4.00039C2.38078 2.88477 3.28516 1.98039 4.40078 1.98039H7.00688ZM0.800781 4.00039C0.800781 2.01216 2.41256 0.400391 4.40078 0.400391H17.6008C19.589 0.400391 21.2008 2.01217 21.2008 4.00039V16.0004C21.2008 17.9886 19.589 19.6004 17.6008 19.6004H4.40078C2.41255 19.6004 0.800781 17.9886 0.800781 16.0004V4.00039Z"
              fill="currentColor"/>
    </g>
</svg>
