<svg width="14" height="14" viewBox="0 0 14 14" fill="none" xmlns="http://www.w3.org/2000/svg">
<path d="M5.25 1.75H2.625C2.14175 1.75 1.75 2.14175 1.75 2.625V5.25C1.75 5.73325 2.14175 6.125 2.625 6.125H5.25C5.73325 6.125 6.125 5.73325 6.125 5.25V2.625C6.125 2.14175 5.73325 1.75 5.25 1.75Z" stroke="#333333" stroke-width="0.875" stroke-linecap="round" stroke-linejoin="round"/>
<path d="M11.375 1.75H8.75C8.26675 1.75 7.875 2.14175 7.875 2.625V5.25C7.875 5.73325 8.26675 6.125 8.75 6.125H11.375C11.8582 6.125 12.25 5.73325 12.25 5.25V2.625C12.25 2.14175 11.8582 1.75 11.375 1.75Z" stroke="#333333" stroke-width="0.875" stroke-linecap="round" stroke-linejoin="round"/>
<path d="M11.375 7.875H8.75C8.26675 7.875 7.875 8.26675 7.875 8.75V11.375C7.875 11.8582 8.26675 12.25 8.75 12.25H11.375C11.8582 12.25 12.25 11.8582 12.25 11.375V8.75C12.25 8.26675 11.8582 7.875 11.375 7.875Z" stroke="#333333" stroke-width="0.875" stroke-linecap="round" stroke-linejoin="round"/>
<path d="M5.25 7.875H2.625C2.14175 7.875 1.75 8.26675 1.75 8.75V11.375C1.75 11.8582 2.14175 12.25 2.625 12.25H5.25C5.73325 12.25 6.125 11.8582 6.125 11.375V8.75C6.125 8.26675 5.73325 7.875 5.25 7.875Z" stroke="#333333" stroke-width="0.875" stroke-linecap="round" stroke-linejoin="round"/>
</svg>
