<svg width="16" height="16" viewBox="0 0 16 16" fill="none" xmlns="http://www.w3.org/2000/svg">
<path d="M7.67531 3.6001H9.05531V12.0001H7.67531V8.3641H4.07531V12.0001H2.69531V3.6001H4.07531V7.0441H7.67531V3.6001Z" fill="#333333"/>
<path d="M10.1104 12.0001V11.1761L12.0224 9.2081C12.449 8.7601 12.6624 8.38676 12.6624 8.0881C12.6624 7.86943 12.593 7.69343 12.4544 7.5601C12.321 7.42676 12.1477 7.3601 11.9344 7.3601C11.513 7.3601 11.201 7.57876 10.9984 8.0161L10.0704 7.4721C10.2464 7.0881 10.4997 6.79476 10.8304 6.5921C11.161 6.38943 11.5237 6.2881 11.9184 6.2881C12.425 6.2881 12.8597 6.4481 13.2224 6.7681C13.585 7.08276 13.7664 7.50943 13.7664 8.0481C13.7664 8.62943 13.4597 9.22677 12.8464 9.8401L11.7504 10.9361H13.8544V12.0001H10.1104Z" fill="#333333"/>
</svg>
