<svg width="16" height="16" viewBox="0 0 16 16" fill="none" xmlns="http://www.w3.org/2000/svg">
    <path d="M7.62087 3.6001H9.00087V12.0001H7.62087V8.3641H4.02087V12.0001H2.64087V3.6001H4.02087V7.0441H7.62087V3.6001Z"
          fill="currentColor"/>
    <path d="M12.6639 8.6721C13.0426 8.7841 13.3493 8.98143 13.5839 9.2641C13.8239 9.54143 13.9439 9.87743 13.9439 10.2721C13.9439 10.8481 13.7493 11.2988 13.3599 11.6241C12.9759 11.9494 12.5039 12.1121 11.9439 12.1121C11.5066 12.1121 11.1146 12.0134 10.7679 11.8161C10.4266 11.6134 10.1786 11.3174 10.0239 10.9281L10.9679 10.3841C11.1066 10.8161 11.4319 11.0321 11.9439 11.0321C12.2266 11.0321 12.4453 10.9654 12.5999 10.8321C12.7599 10.6934 12.8399 10.5068 12.8399 10.2721C12.8399 10.0428 12.7599 9.85876 12.5999 9.7201C12.4453 9.58143 12.2266 9.5121 11.9439 9.5121H11.7039L11.2799 8.8721L12.3839 7.4321H10.1919V6.4001H13.7119V7.3121L12.6639 8.6721Z"
          fill="currentColor"/>
</svg>
