<svg width="16" height="16" viewBox="0 0 16 16" fill="none" xmlns="http://www.w3.org/2000/svg">
    <path d="M2.5 2.5V11.5H3.8V7.5H8.2V11.5H9.5V2.5H8.2V6.2H3.8V2.5H2.5Z" fill="currentColor"/>
    <path d="M12.8 7.2C12.3 7.2 11.9 7.4 11.6 7.7C11.3 8 11.2 8.4 11.2 8.9V9.7C11.2 10.2 11.3 10.6 11.6 10.9C11.9 11.2 12.3 11.4 12.8 11.4C13.3 11.4 13.7 11.2 14 10.9C14.3 10.6 14.4 10.2 14.4 9.7V8.9C14.4 8.4 14.3 8 14 7.7C13.7 7.4 13.3 7.2 12.8 7.2ZM13.1 9.7C13.1 9.9 13 10.1 12.9 10.2C12.8 10.3 12.6 10.4 12.4 10.4C12.2 10.4 12 10.3 11.9 10.2C11.8 10.1 11.7 9.9 11.7 9.7V8.9C11.7 8.7 11.8 8.5 11.9 8.4C12 8.3 12.2 8.2 12.4 8.2C12.6 8.2 12.8 8.3 12.9 8.4C13 8.5 13.1 8.7 13.1 8.9V9.7ZM12.8 5.5H10.5V6.8H12.8V5.5Z"
          fill="currentColor"/>
</svg>