<svg width="16" height="16" viewBox="0 0 16 16" fill="none" xmlns="http://www.w3.org/2000/svg">
<path fill-rule="evenodd" clip-rule="evenodd" d="M5.1224 11.5847C5.92231 12.1165 6.88514 12.5 8 12.5C10.484 12.5 12.2132 10.596 13.0673 9.39083C13.6621 8.55146 13.6621 7.44854 13.0673 6.60917C12.7339 6.13867 12.2671 5.56168 11.6741 5.03305L10.9658 5.74127C11.4906 6.20089 11.9223 6.72296 12.2514 7.18736C12.6008 7.68035 12.6008 8.31965 12.2514 8.81264C11.4273 9.97552 9.95966 11.5 8 11.5C7.19594 11.5 6.47471 11.2434 5.84677 10.8603L5.1224 11.5847ZM5.03417 10.2587L4.32594 10.967C3.73292 10.4383 3.26612 9.86133 2.93269 9.39083C2.33787 8.55146 2.33787 7.44854 2.93269 6.60917C3.78677 5.40397 5.51603 3.5 8 3.5C9.11486 3.5 10.0777 3.88354 10.8776 4.4153L10.1532 5.13966C9.52529 4.75665 8.80406 4.5 8 4.5C6.04034 4.5 4.57268 6.02448 3.74859 7.18736C3.39923 7.68035 3.39923 8.31965 3.74859 8.81264C4.0777 9.27704 4.50944 9.79911 5.03417 10.2587ZM6.99245 9.71466C7.28524 9.8954 7.62928 10 8.00012 10C9.09398 10 9.95466 9.08996 9.95466 8C9.95466 7.64165 9.86163 7.30275 9.69786 7.00924L8.93093 7.77618C8.94644 7.84779 8.95466 7.92265 8.95466 8C8.95466 8.5669 8.51291 9 8.00012 9C7.912 9 7.82599 8.98721 7.74395 8.96316L6.99245 9.71466ZM7.06926 8.22363L6.30229 8.99061C6.13857 8.69713 6.04557 8.35829 6.04557 8C6.04557 6.91005 6.90626 6 8.00012 6C8.3709 6 8.71489 6.10456 9.00764 6.28525L8.2561 7.03679C8.17412 7.01277 8.08817 7 8.00012 7C7.48733 7 7.04557 7.4331 7.04557 8C7.04557 8.07728 7.05378 8.15208 7.06926 8.22363Z" fill="#333333"/>
<path d="M11.6667 3.33398L3.33341 11.6673" stroke="#333333" stroke-linecap="round"/>
</svg>
