<svg width="32" height="32" viewBox="0 0 32 32" fill="none" xmlns="http://www.w3.org/2000/svg">
    <path d="M18.8356 9.3075L15.2901 22.6921H19.2413C19.8005 22.6921 20.2538 23.1415 20.2538 23.696C20.2538 24.2504 19.8005 24.6998 19.2413 24.6998H9.21172C8.65253 24.6998 8.19922 24.2504 8.19922 23.696C8.19922 23.1415 8.65253 22.6921 9.21172 22.6921H13.1629L16.7083 9.3075H12.7572C12.198 9.3075 11.7447 8.85806 11.7447 8.30365C11.7447 7.74924 12.198 7.2998 12.7572 7.2998H22.7867C23.3459 7.2998 23.7992 7.74924 23.7992 8.30365C23.7992 8.85806 23.3459 9.3075 22.7867 9.3075H18.8356Z"
          fill="currentColor"/>
</svg>