<svg width="34" height="34" viewBox="0 0 34 34" fill="none" xmlns="http://www.w3.org/2000/svg">
    <path d="M12.734 6.50065V6.60065H12.834H22.1673H22.2673V6.50065C22.2673 5.91155 22.7449 5.43398 23.334 5.43398C23.9231 5.43398 24.4007 5.91155 24.4007 6.50065V6.60065H24.5007H26.834C28.0675 6.60065 29.0673 7.60055 29.0673 8.83398V15.734H8.16732H8.06732V15.834V26.334V26.434H8.16732H19.734V28.5673H8.16732C6.93388 28.5673 5.93398 27.5674 5.93398 26.334V8.83399C5.93398 7.60055 6.93384 6.60065 8.16728 6.60065H10.5007H10.6007V6.50065C10.6007 5.91155 11.0782 5.43398 11.6673 5.43398C12.2564 5.43398 12.734 5.91155 12.734 6.50065ZM26.834 13.6007H26.934V13.5007V8.83398V8.73398H26.834H24.5007H24.4007V8.83398C24.4007 9.42309 23.9231 9.90065 23.334 9.90065C22.7449 9.90065 22.2673 9.42309 22.2673 8.83398V8.73398H22.1673H12.834H12.734V8.83398C12.734 9.42309 12.2564 9.90065 11.6673 9.90065C11.0782 9.90065 10.6007 9.42309 10.6007 8.83398V8.73398H10.5007H8.16732H8.06732V8.83398V13.5007V13.6007H8.16732H26.834ZM27.6602 18.999C27.7937 18.7678 28.0893 18.6886 28.3205 18.8221L29.3308 19.4054C29.562 19.5389 29.6412 19.8345 29.5077 20.0657L25.1827 27.5568L23.3352 26.4901L27.6602 18.999ZM22.7054 27.7046L24.4459 28.7094L22.5708 29.9475L22.7054 27.7046Z"
          fill="currentColor" stroke="currentColor" stroke-width="0.2"/>
</svg>
