<svg width="20" height="20" viewBox="0 0 20 20" fill="none" xmlns="http://www.w3.org/2000/svg">
    <path fill-rule="evenodd" clip-rule="evenodd"
          d="M8.68911 5.84996C9.19251 5.09341 9.06598 4.0823 8.39168 3.47312C7.71738 2.86394 6.69866 2.8404 5.99694 3.41779C5.29522 3.99517 5.12213 4.99935 5.59004 5.77835C6.05796 6.55735 7.02577 6.87624 7.86511 6.52796C8.20053 6.38801 8.48717 6.15215 8.68911 5.84996Z"
          stroke="currentColor" stroke-width="1.2" stroke-linecap="round" stroke-linejoin="round"/>
    <path fill-rule="evenodd" clip-rule="evenodd"
          d="M8.68911 16.1649C9.19251 15.4084 9.06598 14.3972 8.39168 13.7881C7.71738 13.1789 6.69866 13.1553 5.99694 13.7327C5.29522 14.3101 5.12213 15.3143 5.59004 16.0933C6.05796 16.8723 7.02577 17.1912 7.86511 16.8429C8.20053 16.703 8.48717 16.4671 8.68911 16.1649V16.1649Z"
          stroke="currentColor" stroke-width="1.2" stroke-linecap="round" stroke-linejoin="round"/>
    <path fill-rule="evenodd" clip-rule="evenodd"
          d="M11.3111 11.0072C10.8077 10.2506 10.9342 9.23953 11.6085 8.63035C12.2828 8.02117 13.3015 7.99763 14.0032 8.57501C14.705 9.1524 14.8781 10.1566 14.4101 10.9356C13.9422 11.7146 12.9744 12.0335 12.1351 11.6852C11.7997 11.5452 11.513 11.3094 11.3111 11.0072V11.0072Z"
          stroke="currentColor" stroke-width="1.2" stroke-linecap="round" stroke-linejoin="round"/>
    <path d="M9 4.22617C8.66863 4.22617 8.4 4.4948 8.4 4.82617C8.4 5.15754 8.66863 5.42617 9 5.42617V4.22617ZM17 5.42617C17.3314 5.42617 17.6 5.15754 17.6 4.82617C17.6 4.4948 17.3314 4.22617 17 4.22617V5.42617ZM5.327 5.42617C5.65837 5.42617 5.927 5.15754 5.927 4.82617C5.927 4.4948 5.65837 4.22617 5.327 4.22617V5.42617ZM3 4.22617C2.66863 4.22617 2.4 4.4948 2.4 4.82617C2.4 5.15754 2.66863 5.42617 3 5.42617V4.22617ZM9 14.5422C8.66863 14.5422 8.4 14.8108 8.4 15.1422C8.4 15.4735 8.66863 15.7422 9 15.7422V14.5422ZM17 15.7422C17.3314 15.7422 17.6 15.4735 17.6 15.1422C17.6 14.8108 17.3314 14.5422 17 14.5422V15.7422ZM5.327 15.7422C5.65837 15.7422 5.927 15.4735 5.927 15.1422C5.927 14.8108 5.65837 14.5422 5.327 14.5422V15.7422ZM3 14.5422C2.66863 14.5422 2.4 14.8108 2.4 15.1422C2.4 15.4735 2.66863 15.7422 3 15.7422V14.5422ZM11 10.5842C11.3314 10.5842 11.6 10.3155 11.6 9.98417C11.6 9.6528 11.3314 9.38417 11 9.38417V10.5842ZM3 9.38417C2.66863 9.38417 2.4 9.6528 2.4 9.98417C2.4 10.3155 2.66863 10.5842 3 10.5842V9.38417ZM14.6719 9.38438C14.3405 9.38438 14.0719 9.653 14.0719 9.98438C14.0719 10.3157 14.3405 10.5844 14.6719 10.5844V9.38438ZM16.9989 10.5844C17.3302 10.5844 17.5989 10.3157 17.5989 9.98438C17.5989 9.653 17.3302 9.38438 16.9989 9.38438V10.5844ZM9 5.42617H17V4.22617H9V5.42617ZM5.327 4.22617H3V5.42617H5.327V4.22617ZM9 15.7422H17V14.5422H9V15.7422ZM5.327 14.5422H3V15.7422H5.327V14.5422ZM11 9.38417H3V10.5842H11V9.38417ZM14.6719 10.5844H16.9989V9.38438H14.6719V10.5844Z"
          fill="currentColor"/>
</svg>
