<svg width="20" height="20" viewBox="0 0 20 20" fill="none" xmlns="http://www.w3.org/2000/svg">
    <g id="Lightbulb">
        <path id="Vector"
              d="M13.7501 18.125C13.7501 18.2908 13.6843 18.4498 13.567 18.567C13.4498 18.6842 13.2909 18.75 13.1251 18.75H6.8751C6.70934 18.75 6.55037 18.6842 6.43316 18.567C6.31595 18.4498 6.2501 18.2908 6.2501 18.125C6.2501 17.9593 6.31595 17.8003 6.43316 17.6831C6.55037 17.5659 6.70934 17.5 6.8751 17.5H13.1251C13.2909 17.5 13.4498 17.5659 13.567 17.6831C13.6843 17.8003 13.7501 17.9593 13.7501 18.125ZM16.8751 8.12504C16.8778 9.16695 16.6424 10.1957 16.1869 11.1328C15.7315 12.0699 15.0679 12.8905 14.247 13.5321C14.0935 13.6497 13.9689 13.8009 13.8828 13.9741C13.7967 14.1473 13.7513 14.3379 13.7501 14.5313V15C13.7501 15.3316 13.6184 15.6495 13.384 15.8839C13.1496 16.1183 12.8316 16.25 12.5001 16.25H7.5001C7.16858 16.25 6.85064 16.1183 6.61622 15.8839C6.3818 15.6495 6.2501 15.3316 6.2501 15V14.5313C6.24997 14.3402 6.20603 14.1517 6.12166 13.9802C6.03728 13.8088 5.91472 13.6589 5.76338 13.5422C4.94448 12.9045 4.28139 12.0887 3.8243 11.1568C3.36722 10.2249 3.12812 9.20128 3.1251 8.16332C3.10479 4.43989 6.11416 1.3391 9.83448 1.25004C10.7512 1.22795 11.663 1.38946 12.5163 1.72506C13.3696 2.06065 14.1472 2.56356 14.8033 3.20418C15.4593 3.84479 15.9806 4.61017 16.3364 5.45527C16.6922 6.30036 16.8754 7.2081 16.8751 8.12504ZM15.6251 8.12504C15.6253 7.37478 15.4754 6.63205 15.1843 5.94058C14.8932 5.24911 14.4666 4.62287 13.9298 4.09872C13.393 3.57458 12.7568 3.16312 12.0585 2.88856C11.3603 2.61401 10.6142 2.48191 9.86416 2.50004C6.81729 2.57192 4.3587 5.10864 4.3751 8.15551C4.37796 9.00441 4.57385 9.84153 4.94796 10.6036C5.32206 11.3656 5.86459 12.0325 6.53448 12.5539C6.8356 12.788 7.07918 13.0879 7.24655 13.4307C7.41392 13.7734 7.50065 14.1499 7.5001 14.5313V15H12.5001V14.5313C12.501 14.1488 12.5892 13.7715 12.758 13.4283C12.9269 13.0851 13.1719 12.785 13.4743 12.5508C14.1463 12.0257 14.6894 11.354 15.0621 10.5869C15.4349 9.81991 15.6274 8.97785 15.6251 8.12504ZM14.3665 7.39536C14.2044 6.49012 13.7689 5.65626 13.1186 5.00606C12.4682 4.35585 11.6343 3.92051 10.729 3.75864C10.6481 3.74499 10.5652 3.74742 10.4852 3.76579C10.4052 3.78416 10.3296 3.81811 10.2627 3.8657C10.1958 3.91329 10.139 3.97359 10.0954 4.04316C10.0518 4.11272 10.0223 4.19019 10.0087 4.27114C9.99505 4.35208 9.99748 4.43493 10.0159 4.51493C10.0342 4.59494 10.0682 4.67055 10.1158 4.73743C10.1634 4.80432 10.2237 4.86118 10.2932 4.90476C10.3628 4.94835 10.4402 4.9778 10.5212 4.99145C11.8157 5.20942 12.9142 6.30785 13.1337 7.60473C13.1584 7.75029 13.2339 7.8824 13.3467 7.97764C13.4595 8.07288 13.6025 8.1251 13.7501 8.12504C13.7854 8.12483 13.8207 8.12196 13.8556 8.11645C14.0189 8.08856 14.1645 7.99693 14.2604 7.8617C14.3562 7.72647 14.3944 7.55873 14.3665 7.39536Z"
              fill="currentColor"/>
    </g>
</svg>
