<svg width="16" height="16" viewBox="0 0 16 16" fill="none" xmlns="http://www.w3.org/2000/svg">
<path d="M7 8.91521C7.21574 9.22582 7.49099 9.48283 7.80707 9.66881C8.12315 9.85479 8.47268 9.96538 8.83194 9.99309C9.1912 10.0208 9.5518 9.96497 9.88926 9.8294C10.2267 9.69383 10.5332 9.48169 10.7878 9.20736L12.2949 7.58431C12.7525 7.07413 13.0056 6.39083 12.9999 5.68156C12.9942 4.9723 12.73 4.29384 12.2643 3.7923C11.7986 3.29075 11.1686 3.00627 10.51 3.0001C9.85142 2.99394 9.21693 3.26659 8.7432 3.75935L7.87913 4.68448" stroke="#333333" stroke-linecap="round" stroke-linejoin="round"/>
<path d="M9 7.08479C8.78426 6.77418 8.50901 6.51717 8.19293 6.33119C7.87685 6.14521 7.52732 6.03462 7.16806 6.00691C6.8088 5.9792 6.4482 6.03503 6.11074 6.1706C5.77327 6.30617 5.46683 6.51831 5.21218 6.79264L3.7051 8.41569C3.24755 8.92587 2.99437 9.60918 3.00009 10.3184C3.00582 11.0277 3.26998 11.7062 3.73569 12.2077C4.2014 12.7092 4.8314 12.9937 5.48999 12.9999C6.14858 13.0061 6.78307 12.7334 7.2568 12.2407L8.11584 11.3155" stroke="#333333" stroke-linecap="round" stroke-linejoin="round"/>
</svg>
