<svg xmlns:xlink="http://www.w3.org/1999/xlink" xmlns="http://www.w3.org/2000/svg" viewBox="0 0 30 30"
     style="width: 16px; height: 16px; display: block; fill: inherit; flex-shrink: 0; backface-visibility: hidden;"
     width="30" height="30">
    <path
            d="M6.04883 27.3232C7.24219 27.3232 7.86426 26.4854 8.20703 25.3936L13.9834 6.79492H27.5039C28.2275 6.79492 28.7227 6.35059 28.7227 5.65234C28.7227 4.97949 28.2275 4.53516 27.5039 4.53516H13.958C12.6631 4.53516 12.0791 5.01758 11.7363 6.13477L6.18848 24.3525H5.97266L3.58594 15.9355C3.38281 15.2373 3.00195 14.9072 2.40527 14.9072C1.73242 14.9072 1.2373 15.3896 1.2373 16.0117C1.2373 16.2656 1.30078 16.4941 1.35156 16.6846L4.04297 25.5332C4.36035 26.5615 4.93164 27.3232 6.04883 27.3232ZM16.3955 24.7334C16.8652 24.7334 17.1064 24.5684 17.4619 24.0732L20.4707 19.8203H20.5215L23.5049 24.0732C23.873 24.5684 24.1143 24.7334 24.5713 24.7334C25.2061 24.7334 25.6758 24.3018 25.6758 23.7051C25.6758 23.4258 25.6123 23.1973 25.4219 22.9561L21.9307 18.208L25.4473 13.4346C25.6377 13.168 25.7139 12.9395 25.7139 12.6855C25.7139 12.127 25.2568 11.6953 24.6475 11.6953C24.2031 11.6953 23.9365 11.8477 23.6064 12.3174L20.7246 16.5957H20.6611L17.6904 12.3047C17.373 11.8477 17.0938 11.6953 16.624 11.6953C16.0146 11.6953 15.5068 12.165 15.5068 12.7363C15.5068 13.0537 15.583 13.2568 15.8115 13.5488L19.1504 18.1445L15.6084 23.0322C15.418 23.2861 15.3672 23.4639 15.3672 23.7559C15.3672 24.3018 15.8115 24.7334 16.3955 24.7334Z"
            fill="currentColor"></path>
</svg>