<svg width="20" height="20" viewBox="0 0 20 20" fill="none" xmlns="http://www.w3.org/2000/svg">
    <g id="MegaphoneSimple">
        <path id="Vector"
              d="M17.8547 6.7707L4.1 2.55195C3.91383 2.49765 3.71758 2.48742 3.52678 2.52205C3.33597 2.55668 3.15584 2.63523 3.00062 2.75148C2.84541 2.86774 2.71938 3.01852 2.63249 3.19189C2.5456 3.36526 2.50024 3.55647 2.5 3.75039V15.0004C2.5 15.3319 2.6317 15.6499 2.86612 15.8843C3.10054 16.1187 3.41848 16.2504 3.75 16.2504C3.86953 16.2504 3.98845 16.2333 4.10313 16.1996L10.625 14.198V15.0004C10.625 15.3319 10.7567 15.6499 10.9911 15.8843C11.2255 16.1187 11.5435 16.2504 11.875 16.2504H14.375C14.7065 16.2504 15.0245 16.1187 15.2589 15.8843C15.4933 15.6499 15.625 15.3319 15.625 15.0004V12.6645L17.8547 11.9809C18.1127 11.9033 18.3391 11.7449 18.5003 11.529C18.6615 11.3131 18.749 11.0511 18.75 10.7816V7.96914C18.7488 7.69982 18.6612 7.438 18.5 7.22224C18.3388 7.00648 18.1126 6.8482 17.8547 6.7707ZM10.625 12.891L3.75 15.0004V3.75039L10.625 5.85977V12.891ZM14.375 15.0004H11.875V13.8145L14.375 13.0473V15.0004ZM17.5 10.7816H17.4914L11.875 12.5066V6.24414L17.4914 7.96289H17.5V10.7754V10.7816Z"
              fill="currentColor"/>
    </g>
</svg>
