<svg width="20" height="20" viewBox="0 0 20 20" fill="none" xmlns="http://www.w3.org/2000/svg">
    <g id="Monitor">
        <path id="Vector"
              d="M16.25 3.125H3.75C3.25272 3.125 2.77581 3.32254 2.42417 3.67417C2.07254 4.02581 1.875 4.50272 1.875 5V13.75C1.875 14.2473 2.07254 14.7242 2.42417 15.0758C2.77581 15.4275 3.25272 15.625 3.75 15.625H16.25C16.7473 15.625 17.2242 15.4275 17.5758 15.0758C17.9275 14.7242 18.125 14.2473 18.125 13.75V5C18.125 4.50272 17.9275 4.02581 17.5758 3.67417C17.2242 3.32254 16.7473 3.125 16.25 3.125ZM16.875 13.75C16.875 13.9158 16.8092 14.0747 16.6919 14.1919C16.5747 14.3092 16.4158 14.375 16.25 14.375H3.75C3.58424 14.375 3.42527 14.3092 3.30806 14.1919C3.19085 14.0747 3.125 13.9158 3.125 13.75V5C3.125 4.83424 3.19085 4.67527 3.30806 4.55806C3.42527 4.44085 3.58424 4.375 3.75 4.375H16.25C16.4158 4.375 16.5747 4.44085 16.6919 4.55806C16.8092 4.67527 16.875 4.83424 16.875 5V13.75ZM13.125 17.5C13.125 17.6658 13.0592 17.8247 12.9419 17.9419C12.8247 18.0592 12.6658 18.125 12.5 18.125H7.5C7.33424 18.125 7.17527 18.0592 7.05806 17.9419C6.94085 17.8247 6.875 17.6658 6.875 17.5C6.875 17.3342 6.94085 17.1753 7.05806 17.0581C7.17527 16.9408 7.33424 16.875 7.5 16.875H12.5C12.6658 16.875 12.8247 16.9408 12.9419 17.0581C13.0592 17.1753 13.125 17.3342 13.125 17.5Z"
              fill="currentColor"/>
    </g>
</svg>
