<svg width="18" height="18" viewBox="0 0 18 18" fill="none" xmlns="http://www.w3.org/2000/svg">
    <path d="M5.325 9.00002C5.325 9.74561 4.72058 10.35 3.975 10.35C3.22942 10.35 2.625 9.74561 2.625 9.00002C2.625 8.25444 3.22942 7.65002 3.975 7.65002C4.72058 7.65002 5.325 8.25444 5.325 9.00002Z"
          fill="currentColor"/>
    <path d="M10.3504 9.00002C10.3504 9.74561 9.74597 10.35 9.00039 10.35C8.25481 10.35 7.65039 9.74561 7.65039 9.00002C7.65039 8.25444 8.25481 7.65002 9.00039 7.65002C9.74597 7.65002 10.3504 8.25444 10.3504 9.00002Z"
          fill="currentColor"/>
    <path d="M15.3758 9.00002C15.3758 9.74561 14.7714 10.35 14.0258 10.35C13.2802 10.35 12.6758 9.74561 12.6758 9.00002C12.6758 8.25444 13.2802 7.65002 14.0258 7.65002C14.7714 7.65002 15.3758 8.25444 15.3758 9.00002Z"
          fill="currentColor"/>
</svg>
