<svg width="20" height="20" viewBox="0 0 20 20" fill="none" xmlns="http://www.w3.org/2000/svg">
    <g id="Notepad">
        <path id="Vector"
              d="M13.125 10C13.125 10.1658 13.0592 10.3247 12.9419 10.4419C12.8247 10.5592 12.6658 10.625 12.5 10.625H7.5C7.33424 10.625 7.17527 10.5592 7.05806 10.4419C6.94085 10.3247 6.875 10.1658 6.875 10C6.875 9.83424 6.94085 9.67527 7.05806 9.55806C7.17527 9.44085 7.33424 9.375 7.5 9.375H12.5C12.6658 9.375 12.8247 9.44085 12.9419 9.55806C13.0592 9.67527 13.125 9.83424 13.125 10ZM12.5 11.875H7.5C7.33424 11.875 7.17527 11.9408 7.05806 12.0581C6.94085 12.1753 6.875 12.3342 6.875 12.5C6.875 12.6658 6.94085 12.8247 7.05806 12.9419C7.17527 13.0592 7.33424 13.125 7.5 13.125H12.5C12.6658 13.125 12.8247 13.0592 12.9419 12.9419C13.0592 12.8247 13.125 12.6658 13.125 12.5C13.125 12.3342 13.0592 12.1753 12.9419 12.0581C12.8247 11.9408 12.6658 11.875 12.5 11.875ZM16.875 3.125V15.625C16.875 16.288 16.6116 16.9239 16.1428 17.3928C15.6739 17.8616 15.038 18.125 14.375 18.125H5.625C4.96196 18.125 4.32607 17.8616 3.85723 17.3928C3.38839 16.9239 3.125 16.288 3.125 15.625V3.125C3.125 2.95924 3.19085 2.80027 3.30806 2.68306C3.42527 2.56585 3.58424 2.5 3.75 2.5H5.625V1.875C5.625 1.70924 5.69085 1.55027 5.80806 1.43306C5.92527 1.31585 6.08424 1.25 6.25 1.25C6.41576 1.25 6.57473 1.31585 6.69194 1.43306C6.80915 1.55027 6.875 1.70924 6.875 1.875V2.5H9.375V1.875C9.375 1.70924 9.44085 1.55027 9.55806 1.43306C9.67527 1.31585 9.83424 1.25 10 1.25C10.1658 1.25 10.3247 1.31585 10.4419 1.43306C10.5592 1.55027 10.625 1.70924 10.625 1.875V2.5H13.125V1.875C13.125 1.70924 13.1908 1.55027 13.3081 1.43306C13.4253 1.31585 13.5842 1.25 13.75 1.25C13.9158 1.25 14.0747 1.31585 14.1919 1.43306C14.3092 1.55027 14.375 1.70924 14.375 1.875V2.5H16.25C16.4158 2.5 16.5747 2.56585 16.6919 2.68306C16.8092 2.80027 16.875 2.95924 16.875 3.125ZM15.625 3.75H14.375V4.375C14.375 4.54076 14.3092 4.69973 14.1919 4.81694C14.0747 4.93415 13.9158 5 13.75 5C13.5842 5 13.4253 4.93415 13.3081 4.81694C13.1908 4.69973 13.125 4.54076 13.125 4.375V3.75H10.625V4.375C10.625 4.54076 10.5592 4.69973 10.4419 4.81694C10.3247 4.93415 10.1658 5 10 5C9.83424 5 9.67527 4.93415 9.55806 4.81694C9.44085 4.69973 9.375 4.54076 9.375 4.375V3.75H6.875V4.375C6.875 4.54076 6.80915 4.69973 6.69194 4.81694C6.57473 4.93415 6.41576 5 6.25 5C6.08424 5 5.92527 4.93415 5.80806 4.81694C5.69085 4.69973 5.625 4.54076 5.625 4.375V3.75H4.375V15.625C4.375 15.9565 4.5067 16.2745 4.74112 16.5089C4.97554 16.7433 5.29348 16.875 5.625 16.875H14.375C14.7065 16.875 15.0245 16.7433 15.2589 16.5089C15.4933 16.2745 15.625 15.9565 15.625 15.625V3.75Z"
              fill="currentColor"/>
    </g>
</svg>
