<svg width="16" height="16" viewBox="0 0 16 16" fill="none" xmlns="http://www.w3.org/2000/svg">
<g id="Icons 16 / docs">
<g id="Group 1321314145">
<path id="Vector" d="M9.08889 2V5.81818C9.08889 6.42067 9.5764 6.90909 10.1778 6.90909H12.3556M4.18889 14H11.8111C12.4125 14 12.9 13.5116 12.9 12.9091V7.09091C12.9 6.61883 12.7472 6.15948 12.4644 5.78182L10.2867 2.87273C9.87538 2.32333 9.22991 2 8.54444 2H4.18889C3.58751 2 3.1 2.48842 3.1 3.09091V12.9091C3.1 13.5116 3.58751 14 4.18889 14Z" stroke="#747B84" stroke-width="1.09091"/>
<g id="Vector_2">
<path d="M5.27777 10.7273C4.97708 10.7273 4.73332 10.9715 4.73332 11.2727C4.73332 11.574 4.97708 11.8182 5.27777 11.8182H7.45554C7.75623 11.8182 7.99999 11.574 7.99999 11.2727C7.99999 10.9715 7.75623 10.7273 7.45554 10.7273H5.27777Z" fill="#747B84"/>
<path d="M4.73332 9.09091C4.73332 8.78966 4.97708 8.54546 5.27777 8.54546H9.63332C9.93401 8.54546 10.1778 8.78966 10.1778 9.09091C10.1778 9.39216 9.93401 9.63637 9.63332 9.63637H5.27777C4.97708 9.63637 4.73332 9.39216 4.73332 9.09091Z" fill="#747B84"/>
</g>
</g>
</g>
</svg>
