<svg width="16" height="16" viewBox="0 0 16 16" fill="none" xmlns="http://www.w3.org/2000/svg">
    <path d="M2.201 6.4H3.001V12H2.081V7.384L0.953 7.704L0.729 6.92L2.201 6.4ZM3.91156 12V11.1L6.35156 8.61C6.9449 8.01667 7.24156 7.50333 7.24156 7.07C7.24156 6.73 7.13823 6.46667 6.93156 6.28C6.73156 6.08667 6.4749 5.99 6.16156 5.99C5.5749 5.99 5.14156 6.28 4.86156 6.86L3.89156 6.29C4.11156 5.82333 4.42156 5.47 4.82156 5.23C5.22156 4.99 5.6649 4.87 6.15156 4.87C6.7649 4.87 7.29156 5.06333 7.73156 5.45C8.17156 5.83667 8.39156 6.36333 8.39156 7.03C8.39156 7.74333 7.9949 8.50333 7.20156 9.31L5.62156 10.89H8.52156V12H3.91156ZM12.9025 7.032C13.5105 7.176 14.0025 7.46 14.3785 7.884C14.7625 8.3 14.9545 8.824 14.9545 9.456C14.9545 10.296 14.6705 10.956 14.1025 11.436C13.5345 11.916 12.8385 12.156 12.0145 12.156C11.3745 12.156 10.7985 12.008 10.2865 11.712C9.78253 11.416 9.41853 10.984 9.19453 10.416L10.3705 9.732C10.6185 10.452 11.1665 10.812 12.0145 10.812C12.4945 10.812 12.8745 10.692 13.1545 10.452C13.4345 10.204 13.5745 9.872 13.5745 9.456C13.5745 9.04 13.4345 8.712 13.1545 8.472C12.8745 8.232 12.4945 8.112 12.0145 8.112H11.7025L11.1505 7.284L12.9625 4.896H9.44653V3.6H14.6065V4.776L12.9025 7.032Z"
          fill="currentColor"/>
</svg>