<svg width="9" height="10" viewBox="0 0 9 10" fill="none" xmlns="http://www.w3.org/2000/svg">
    <path d="M4.05969 10C3.92616 10 3.81509 9.95506 3.72656 9.86516C3.63803 9.77537 3.59375 9.66406 3.59375 9.53125V5.9375H2.96875C2.14741 5.9375 1.44725 5.64788 0.868281 5.06859C0.289428 4.48944 0 3.78891 0 2.96703C0 2.14525 0.289428 1.44531 0.868281 0.867188C1.44725 0.289062 2.14741 0 2.96875 0H8.28125C8.41406 0 8.52541 0.0452093 8.61531 0.135625C8.70509 0.225937 8.75 0.337916 8.75 0.471562C8.75 0.605103 8.70509 0.716156 8.61531 0.804688C8.52541 0.893219 8.41406 0.9375 8.28125 0.9375H7.03125V9.53125C7.03125 9.66406 6.98603 9.77537 6.89563 9.86516C6.80531 9.95506 6.69334 10 6.55969 10C6.42616 10 6.31509 9.95506 6.22656 9.86516C6.13803 9.77537 6.09375 9.66406 6.09375 9.53125V0.9375H4.53125V9.53125C4.53125 9.66406 4.48603 9.77537 4.39563 9.86516C4.30531 9.95506 4.19334 10 4.05969 10Z"
          fill="currentColor"/>
</svg>
