<svg width="32" height="32" viewBox="0 0 32 32" fill="none" xmlns="http://www.w3.org/2000/svg">
    <path d="M10.947 8.072L16.597 23.503H14.589L13.36 20.058L13.343 20.01H13.292H6.409H6.358L6.341 20.058L5.112 23.503H3.104L8.754 8.072H10.947ZM7.04 18.122L7.006 18.219H7.108H12.593H12.696L12.661 18.122L9.908 10.445L9.839 10.255L9.771 10.446L7.04 18.122ZM22.969 23.792C21.46 23.792 20.175 23.237 19.11 22.124C18.045 20.996 17.513 19.627 17.513 18.013C17.513 16.399 18.046 15.037 19.11 13.924C20.175 12.796 21.46 12.233 22.969 12.233C24.752 12.233 26.105 12.956 27.038 14.403L27.171 14.609V14.364V12.522H28.928V23.503H27.171V21.662V21.416L27.038 21.622C26.105 23.07 24.752 23.792 22.969 23.792ZM26.036 20.911C26.793 20.125 27.171 19.158 27.171 18.013C27.171 16.868 26.793 15.907 26.036 15.136C25.279 14.351 24.335 13.958 23.209 13.958C22.098 13.958 21.161 14.351 20.404 15.136C19.647 15.907 19.269 16.868 19.269 18.013C19.269 19.158 19.647 20.125 20.404 20.911C21.162 21.682 22.098 22.068 23.209 22.068C24.335 22.068 25.279 21.682 26.036 20.911Z"
          fill="currentColor"/>
    <path d="M10.947 8.072L16.597 23.503H14.589L13.36 20.058L13.343 20.01H13.292H6.409H6.358L6.341 20.058L5.112 23.503H3.104L8.754 8.072H10.947ZM7.04 18.122L7.006 18.219H7.108H12.593H12.696L12.661 18.122L9.908 10.445L9.839 10.255L9.771 10.446L7.04 18.122ZM22.969 23.792C21.46 23.792 20.175 23.237 19.11 22.124C18.045 20.996 17.513 19.627 17.513 18.013C17.513 16.399 18.046 15.037 19.11 13.924C20.175 12.796 21.46 12.233 22.969 12.233C24.752 12.233 26.105 12.956 27.038 14.403L27.171 14.609V14.364V12.522H28.928V23.503H27.171V21.662V21.416L27.038 21.622C26.105 23.07 24.752 23.792 22.969 23.792ZM26.036 20.911C26.793 20.125 27.171 19.158 27.171 18.013C27.171 16.868 26.793 15.907 26.036 15.136C25.279 14.351 24.335 13.958 23.209 13.958C22.098 13.958 21.161 14.351 20.404 15.136C19.647 15.907 19.269 16.868 19.269 18.013C19.269 19.158 19.647 20.125 20.404 20.911C21.162 21.682 22.098 22.068 23.209 22.068C24.335 22.068 25.279 21.682 26.036 20.911Z"
          stroke="currentColor" stroke-width="0.15"/>
</svg>