<svg width="20" height="20" viewBox="0 0 20 20" fill="none" xmlns="http://www.w3.org/2000/svg">
    <g id="Star">
        <path id="Vector"
              d="M12.5994 10.4965C13.2891 9.9569 13.7924 9.21691 14.0395 8.37951C14.2866 7.5421 14.2651 6.64893 13.978 5.82425C13.6909 4.99956 13.1525 4.28438 12.4376 3.7782C11.7228 3.27201 10.8671 3 9.98957 3C9.11204 3 8.25633 3.27201 7.54149 3.7782C6.82665 4.28438 6.28822 4.99956 6.00112 5.82425C5.71401 6.64893 5.69251 7.5421 5.9396 8.37951C6.18669 9.21691 6.69008 9.9569 7.37974 10.4965C6.19799 10.9674 5.16687 11.7483 4.39631 12.7562C3.62575 13.764 3.14463 14.9609 3.00424 16.2192C2.99408 16.3111 3.00221 16.4041 3.02818 16.4928C3.05414 16.5816 3.09743 16.6643 3.15556 16.7365C3.27298 16.8821 3.44375 16.9754 3.63032 16.9958C3.81689 17.0162 4.00397 16.9621 4.1504 16.8453C4.29684 16.7285 4.39063 16.5587 4.41116 16.3731C4.56562 15.0056 5.22132 13.7425 6.25296 12.8253C7.2846 11.9082 8.61987 11.4011 10.0036 11.4011C11.3874 11.4011 12.7227 11.9082 13.7543 12.8253C14.786 13.7425 15.4416 15.0056 15.5961 16.3731C15.6152 16.545 15.6977 16.7038 15.8276 16.8188C15.9575 16.9338 16.1257 16.9968 16.2996 16.9958H16.377C16.5614 16.9747 16.7299 16.8819 16.8458 16.7378C16.9618 16.5937 17.0158 16.4098 16.996 16.2262C16.8549 14.9643 16.3712 13.7643 15.5967 12.755C14.8222 11.7456 13.7861 10.9649 12.5994 10.4965ZM9.98957 9.99981C9.43304 9.99981 8.88902 9.83569 8.42629 9.5282C7.96356 9.22071 7.6029 8.78366 7.38993 8.27232C7.17696 7.76098 7.12123 7.19832 7.22981 6.65549C7.33838 6.11265 7.60637 5.61403 7.99989 5.22267C8.39341 4.83131 8.89479 4.56478 9.44062 4.45681C9.98645 4.34883 10.5522 4.40425 11.0664 4.61605C11.5805 4.82786 12.02 5.18653 12.3292 5.64672C12.6384 6.10692 12.8034 6.64796 12.8034 7.20143C12.8034 7.9436 12.5069 8.65538 11.9792 9.18018C11.4515 9.70498 10.7358 9.99981 9.98957 9.99981Z"
              fill="currentColor"/>
    </g>
</svg>
