<svg width="16" height="16" viewBox="0 0 16 16" fill="none" xmlns="http://www.w3.org/2000/svg">
    <path d="M8 1.5C11.59 1.5 14.5 4.41 14.5 8C14.5 11.59 11.59 14.5 8 14.5C4.41 14.5 1.5 11.59 1.5 8C1.5 4.41 4.41 1.5 8 1.5ZM7.5 8.5L5.51067 8.50033C5.52467 8.82033 5.55167 9.13167 5.59067 9.43267L5.62167 9.656L5.66033 9.89433C5.969 11.6583 6.68733 12.984 7.50033 13.3787L7.5 8.5ZM10.4893 8.50033L8.5 8.5V13.3787C9.29467 12.9923 9.999 11.7167 10.3183 10.0113L10.3397 9.89433L10.3783 9.65633C10.4357 9.27323 10.4728 8.88736 10.4893 8.50033ZM4.50967 8.50033H2.52233C2.70433 10.517 3.97533 12.2203 5.74267 13.017C5.397 12.4813 5.112 11.823 4.90267 11.079L4.85533 10.9057L4.80033 10.6843L4.74967 10.4583C4.61437 9.81364 4.53408 9.15862 4.50967 8.50033ZM13.4777 8.50033H11.49C11.4679 9.08847 11.4017 9.67411 11.292 10.2523L11.25 10.4583L11.1993 10.6843L11.1443 10.906C10.931 11.7207 10.6293 12.4403 10.257 13.017C12.0243 12.2203 13.2953 10.517 13.477 8.50033H13.4777ZM5.74267 2.98267L5.698 3.003C3.95333 3.80833 2.70267 5.5 2.52233 7.5H4.50967C4.53367 6.89 4.60133 6.30167 4.70767 5.74767L4.74967 5.54167L4.80033 5.31567L4.85533 5.094C5.06867 4.27933 5.37033 3.55967 5.74267 2.983V2.98267ZM7.5 2.62133C6.70767 3.006 6.005 4.276 5.68433 5.97433L5.66033 6.10567L5.62167 6.34367C5.56424 6.72688 5.52719 7.11286 5.51067 7.5H7.5V2.62133ZM10.2573 2.983L10.2973 3.04633C10.624 3.56867 10.8947 4.20233 11.0957 4.91433L11.1447 5.09433L11.1997 5.31567L11.2503 5.54167C11.381 6.155 11.4633 6.81367 11.4903 7.5H13.4777C13.296 5.483 12.025 3.77967 10.2573 2.98333V2.983ZM8.5 2.62133V7.5H10.4893C10.4755 7.17927 10.4477 6.8593 10.406 6.541L10.3783 6.34367L10.3397 6.10567C10.031 4.342 9.313 3.01633 8.50033 2.62133H8.5Z"
          fill="currentColor"/>
</svg>
