<svg width="16" height="16" viewBox="0 0 16 16" fill="none" xmlns="http://www.w3.org/2000/svg">
<path fill-rule="evenodd" clip-rule="evenodd" d="M12.4742 9.35161C12.8007 8.99566 13 8.52111 13 8C13 6.89543 12.1046 6 11 6C9.89543 6 9 6.89543 9 8C9 9.04413 9.80011 9.90137 10.8207 9.99207L10.0124 11.1682L10.8365 11.7346L12.4742 9.35161Z" fill="#333333"/>
<path fill-rule="evenodd" clip-rule="evenodd" d="M6.47395 7.35186C6.80061 6.99588 7 6.52123 7 6C7 4.89543 6.10457 4 5 4C3.89543 4 3 4.89543 3 6C3 7.04411 3.80008 7.90134 4.82061 7.99206L4.01231 9.16823L4.83645 9.73461L6.47395 7.35186Z" fill="#333333"/>
</svg>
