<svg width="24" height="24" viewBox="0 0 24 24" fill="none" xmlns="http://www.w3.org/2000/svg">
    <g id="message-programming">
        <g id="vuesax/linear/message-programming">
            <g id="message-programming_2">
                <path id="Vector"
                      d="M8.5 18.9697H8C4 18.9697 2 17.9697 2 12.9697V7.96973C2 3.96973 4 1.96973 8 1.96973H16C20 1.96973 22 3.96973 22 7.96973V12.9697C22 16.9697 20 18.9697 16 18.9697H15.5C15.19 18.9697 14.89 19.1198 14.7 19.3698L13.2 21.3698C12.54 22.2498 11.46 22.2498 10.8 21.3698L9.29999 19.3698C9.13999 19.1498 8.78 18.9697 8.5 18.9697Z"
                      stroke="currentColor" stroke-width="1.5" stroke-miterlimit="10" stroke-linecap="round"
                      stroke-linejoin="round"/>
            </g>
        </g>
        <g id="Group 1686556182">
            <path id="Vector_2" d="M12 7V12" stroke="currentColor" stroke-width="1.5" stroke-linecap="round"
                  stroke-linejoin="round"/>
            <path id="Vector_3" d="M11.9946 15H12.0036" stroke="currentColor" stroke-width="1.5" stroke-linecap="round"
                  stroke-linejoin="round"/>
        </g>
    </g>
</svg>
