<svg width="16" height="16" viewBox="0 0 16 16" fill="none" xmlns="http://www.w3.org/2000/svg">
    <g id="icon_wiki-side-fold_outlined">
        <g id="Union">
            <path d="M9.33398 2.66669C9.70217 2.66669 10.0007 2.96516 10.0007 3.33335C10.0007 3.70154 9.70217 4.00002 9.33398 4.00002H1.33398C0.965795 4.00002 0.667317 3.70154 0.667317 3.33335C0.667317 2.96516 0.965795 2.66669 1.33398 2.66669H9.33398Z"
                  fill="currentColor"/>
            <path d="M1.33398 7.33335H9.33398C9.70217 7.33335 10.0007 7.63183 10.0007 8.00002C10.0007 8.36821 9.70217 8.66669 9.33398 8.66669H1.33398C0.965795 8.66669 0.667317 8.36821 0.667317 8.00002C0.667317 7.63183 0.965795 7.33335 1.33398 7.33335Z"
                  fill="currentColor"/>
            <path d="M10.0007 12.6667C10.0007 12.2985 9.70217 12 9.33398 12H1.33398C0.965795 12 0.667317 12.2985 0.667317 12.6667C0.667317 13.0349 0.965795 13.3334 1.33398 13.3334H9.33398C9.70217 13.3334 10.0007 13.0349 10.0007 12.6667Z"
                  fill="currentColor"/>
            <path d="M11.5292 5.80476C11.2689 5.54441 11.2689 5.1223 11.5292 4.86195C11.7896 4.6016 12.2117 4.6016 12.4721 4.86195L15.1387 7.52862C15.3991 7.78897 15.3991 8.21108 15.1387 8.47143L12.4721 11.1381C12.2117 11.3984 11.7896 11.3984 11.5292 11.1381C11.2689 10.8777 11.2689 10.4556 11.5292 10.1953L13.7245 8.00002L11.5292 5.80476Z"
                  fill="currentColor"/>
        </g>
    </g>
</svg>
