<svg width="20" height="20" viewBox="0 0 20 20" fill="none" xmlns="http://www.w3.org/2000/svg">
    <g id="Sparkle">
        <g id="Vector" opacity="0.9">
            <path fill-rule="evenodd" clip-rule="evenodd"
                  d="M8.03755 3.91001C8.24703 3.76431 8.49609 3.68622 8.75126 3.68622C9.00643 3.68622 9.25549 3.76431 9.46497 3.91001C9.67446 4.0557 9.83434 4.26202 9.92313 4.50124L9.92364 4.50261L11.4236 8.57292L11.4255 8.57578L11.4283 8.57758L15.5 10.0781C15.7392 10.1669 15.9455 10.3268 16.0912 10.5363C16.2369 10.7458 16.315 10.9948 16.315 11.25C16.315 11.5051 16.2369 11.7542 16.0912 11.9637C15.9455 12.1732 15.7392 12.3331 15.5 12.4219L15.4986 12.4224L11.4283 13.9224L11.4255 13.9242L11.4237 13.927L9.92364 17.9973L9.92313 17.9987C9.83434 18.2379 9.67446 18.4443 9.46497 18.59C9.25549 18.7356 9.00643 18.8137 8.75126 18.8137C8.49609 18.8137 8.24703 18.7356 8.03755 18.59C7.82806 18.4443 7.66818 18.2379 7.57938 17.9987L7.57888 17.9973L6.07888 13.927L6.07706 13.9242L6.07578 13.9231L6.07423 13.9224L2.00389 12.4224L2.00252 12.4219C1.7633 12.3331 1.55698 12.1732 1.41129 11.9637C1.26559 11.7542 1.1875 11.5051 1.1875 11.25C1.1875 10.9948 1.26559 10.7458 1.41129 10.5363C1.55698 10.3268 1.7633 10.1669 2.00252 10.0781L2.00389 10.0776L6.0742 8.5776L6.07706 8.57578L6.07887 8.57295L7.57888 4.50261L7.57938 4.50124C7.66818 4.26202 7.82806 4.0557 8.03755 3.91001ZM10.2508 13.4948C10.3137 13.324 10.4129 13.169 10.5416 13.0403C10.6703 12.9116 10.8253 12.8124 10.9961 12.7495L15.065 11.25L10.9961 9.7505C10.8254 9.68758 10.6703 9.58834 10.5416 9.45966C10.4129 9.33098 10.3137 9.17592 10.2508 9.00516L8.75126 4.93622L7.25178 9.00513C7.18886 9.17588 7.08962 9.33098 6.96094 9.45966C6.83226 9.58834 6.67719 9.68756 6.50644 9.75049L2.4375 11.25L6.50641 12.7495C6.67717 12.8124 6.83226 12.9116 6.96094 13.0403C7.08962 13.169 7.18884 13.324 7.25177 13.4948L8.75126 17.5637L10.2508 13.4948Z"
                  fill="currentColor"/>
            <path fill-rule="evenodd" clip-rule="evenodd"
                  d="M13.7513 0.625C14.0965 0.625 14.3763 0.904822 14.3763 1.25V5C14.3763 5.34518 14.0965 5.625 13.7513 5.625C13.4061 5.625 13.1263 5.34518 13.1263 5V1.25C13.1263 0.904822 13.4061 0.625 13.7513 0.625Z"
                  fill="currentColor"/>
            <path fill-rule="evenodd" clip-rule="evenodd"
                  d="M11.2513 3.125C11.2513 2.77982 11.5311 2.5 11.8763 2.5H15.6263C15.9715 2.5 16.2513 2.77982 16.2513 3.125C16.2513 3.47018 15.9715 3.75 15.6263 3.75H11.8763C11.5311 3.75 11.2513 3.47018 11.2513 3.125Z"
                  fill="currentColor"/>
            <path fill-rule="evenodd" clip-rule="evenodd"
                  d="M17.5013 5C17.8465 5 18.1263 5.27982 18.1263 5.625V8.125C18.1263 8.47018 17.8465 8.75 17.5013 8.75C17.1561 8.75 16.8763 8.47018 16.8763 8.125V5.625C16.8763 5.27982 17.1561 5 17.5013 5Z"
                  fill="currentColor"/>
            <path fill-rule="evenodd" clip-rule="evenodd"
                  d="M15.6263 6.875C15.6263 6.52982 15.9061 6.25 16.2513 6.25H18.7513C19.0965 6.25 19.3763 6.52982 19.3763 6.875C19.3763 7.22018 19.0965 7.5 18.7513 7.5H16.2513C15.9061 7.5 15.6263 7.22018 15.6263 6.875Z"
                  fill="currentColor"/>
        </g>
    </g>
</svg>
