<svg width="16" height="16" viewBox="0 0 16 16" fill="none" xmlns="http://www.w3.org/2000/svg">
    <g clip-path="url(#clip0_51_2)">
        <path d="M6.0536 3.49319C6.9196 1.93962 7.3526 1.16281 8.00004 1.16281C8.64748 1.16281 9.08048 1.93956 9.94648 3.49319L10.1705 3.89512C10.4167 4.33656 10.5397 4.55731 10.7315 4.703C10.9234 4.84862 11.1623 4.90269 11.6402 5.01081L12.0754 5.10925C13.757 5.48975 14.5979 5.68 14.798 6.32331C14.998 6.96662 14.4248 7.637 13.2783 8.97762L12.9817 9.3245C12.6559 9.7055 12.493 9.89594 12.4197 10.1316C12.3464 10.3673 12.371 10.6214 12.4203 11.1298L12.4651 11.5926C12.6385 13.3813 12.7252 14.2757 12.2014 14.6732C11.6776 15.0708 10.8903 14.7083 9.31573 13.9834L8.90835 13.7957C8.46092 13.5897 8.23723 13.4867 8.00004 13.4867C7.76285 13.4867 7.5391 13.5897 7.09173 13.7957L6.68435 13.9834C5.10973 14.7083 4.32242 15.0708 3.79867 14.6732C3.27492 14.2757 3.3616 13.3813 3.53492 11.5926L3.57973 11.1298C3.62904 10.6214 3.65367 10.3673 3.58035 10.1316C3.5071 9.89594 3.34417 9.7055 3.01835 9.3245L2.72179 8.97762C1.57529 7.637 1.00204 6.96662 1.2021 6.32331C1.4021 5.68 2.24298 5.48975 3.92473 5.10925L4.35979 5.01081C4.83773 4.90269 5.07667 4.84862 5.26854 4.703C5.46042 4.55737 5.58342 4.33656 5.82954 3.89512L6.0536 3.49319Z"
              stroke="currentColor"/>
    </g>
    <defs>
        <clipPath id="clip0_51_2">
            <rect width="16" height="16" fill="white"/>
        </clipPath>
    </defs>
</svg>
