<svg width="16" height="16" viewBox="0 0 16 16" fill="none" xmlns="http://www.w3.org/2000/svg">
<path fill-rule="evenodd" clip-rule="evenodd" d="M7.99994 3C6.78324 3 5.57768 3.89295 5.26683 5.05868C5.14348 5.52122 5.16418 6.01807 5.36988 6.5H6.53454C6.50039 6.45893 6.46931 6.41816 6.44111 6.37779C6.18329 6.00862 6.14534 5.64531 6.23306 5.31634C6.4222 4.60706 7.21665 4 7.99994 4C8.69325 4 9.21448 4.21587 9.55371 4.46532C9.7248 4.59113 9.84481 4.72187 9.91824 4.83203C9.98388 4.93049 9.99678 4.98806 9.99929 4.99927C9.99983 5.00168 9.99989 5.00194 9.99989 5H10.9999C10.9999 4.73903 10.8893 4.4858 10.7503 4.27735C10.605 4.05938 10.4 3.84637 10.1461 3.65968C9.63538 3.28413 8.90664 3 7.99994 3ZM10.63 9.5H9.4653C9.49948 9.54108 9.53057 9.58188 9.55877 9.62226C9.8166 9.99142 9.85455 10.3547 9.76683 10.6837C9.57769 11.393 8.78324 12 7.99994 12C7.30664 12 6.78541 11.7842 6.44617 11.5347C6.27508 11.4089 6.15508 11.2781 6.08165 11.168C6.01601 11.0695 6.00311 11.012 6.0006 11.0008C6.00006 10.9983 6 10.9981 6 11H5C5 11.261 5.11062 11.5142 5.24958 11.7227C5.39489 11.9406 5.59988 12.1537 5.85377 12.3403C6.36451 12.7159 7.09325 13 7.99994 13C9.21665 13 10.4222 12.1071 10.7331 10.9414C10.8564 10.4788 10.8357 9.98194 10.63 9.5Z" fill="#333333"/>
<rect width="8" height="1" transform="matrix(1 0 0 -1 4 8.5)" fill="#333333"/>
</svg>
