<svg xmlns="http://www.w3.org/2000/svg" width="16" height="16" viewBox="0 0 16 16" fill="none">
    <path d="M0.649992 3.3085C0.649992 3.0494 0.860038 2.83936 1.11914 2.83936H14.8808C15.242 2.83936 15.4677 3.23031 15.2871 3.54308C15.2033 3.68823 15.0485 3.77765 14.8808 3.77765H1.11914C0.860038 3.77765 0.649992 3.56761 0.649992 3.3085ZM1.11914 6.90531H11.1276C11.4888 6.90531 11.7145 6.51436 11.5339 6.20159C11.4501 6.05643 11.2953 5.96701 11.1276 5.96701H1.11914C0.757992 5.96701 0.532271 6.35797 0.712845 6.67074C0.796652 6.8159 0.951527 6.90531 1.11914 6.90531ZM14.8808 9.09468H1.11914C0.757992 9.09468 0.532271 9.48563 0.712845 9.7984C0.796652 9.94356 0.951527 10.033 1.11914 10.033H14.8808C15.242 10.033 15.4677 9.64201 15.2871 9.32925C15.2033 9.18409 15.0485 9.09468 14.8808 9.09468ZM11.1276 12.2223H1.11914C0.757992 12.2223 0.532271 12.6133 0.712845 12.9261C0.796652 13.0712 0.951527 13.1606 1.11914 13.1606H11.1276C11.4888 13.1606 11.7145 12.7697 11.5339 12.4569C11.4501 12.3118 11.2953 12.2223 11.1276 12.2223Z"
          fill="currentColor"/>
</svg>
