<svg width="16" height="16" viewBox="0 0 16 16" fill="none" xmlns="http://www.w3.org/2000/svg">
    <path d="M3.18516 8.3457L0.738083 10.3849C0.444986 10.6292 0 10.4208 0 10.0392L0 5.96077C0 5.57924 0.444985 5.37082 0.738082 5.61507L3.18516 7.6543C3.40105 7.83421 3.40105 8.16579 3.18516 8.3457Z"
          fill="currentColor"/>
    <path d="M15.3999 11.8468H12.7086V11.0218C12.7086 10.5848 12.9554 10.1855 13.3462 9.99008L14.8275 9.24942C15.1615 9.08241 15.3999 8.75986 15.3999 8.38645C15.3999 8.13105 15.3791 7.88048 15.3393 7.63636C15.2702 7.21369 14.9114 6.90752 14.4845 6.87333C14.2792 6.85688 14.0716 6.84849 13.862 6.84849C13.47 6.84849 13.0848 6.87783 12.7086 6.93442M5.3999 4.15332V7.99849M5.3999 7.99849V11.8436M5.3999 7.99849L10.7827 7.99884M10.7827 7.99884V4.15369M10.7827 7.99884V11.844"
          stroke="currentColor" stroke-linecap="round" stroke-linejoin="round"/>
</svg>
