<svg width="32" height="32" viewBox="0 0 32 32" fill="none" xmlns="http://www.w3.org/2000/svg">
    <path d="M12.0755 8.01775C12.0755 7.51984 11.6818 7.11621 11.1908 7.11621C10.6998 7.11621 10.2975 7.51985 10.2975 8.01775V13.2467C10.2975 17.0597 12.6237 19.858 16.2242 19.858C19.8248 19.858 22.1509 17.0597 22.1509 13.2467V8.01785C22.1509 7.51992 21.7511 7.11634 21.2601 7.11626C20.7691 7.11618 20.3729 7.51979 20.3729 8.01765V13.2467C20.3729 15.9703 18.796 18.0549 16.2242 18.0549C13.6524 18.0549 12.0755 15.9703 12.0755 13.2467V8.01775ZM8.22299 22.8631C7.73201 22.8631 7.33398 23.2608 7.33398 23.7587C7.33398 24.2566 7.732 24.6662 8.22299 24.6662H24.2251C24.7161 24.6662 25.1141 24.255 25.1141 23.7571C25.1141 23.2592 24.7161 22.8631 24.2251 22.8631H8.22299Z"
          fill="currentColor"/>
</svg>