<svg width="16" height="16" viewBox="0 0 16 16" fill="none" xmlns="http://www.w3.org/2000/svg">
<rect x="4" y="12" width="8" height="1" fill="currentColor"/>
<path d="M10.1623 10.2595C9.60377 10.7532 8.88302 11 8 11C7.11698 11 6.39623 10.7532 5.83774 10.2595C5.27925 9.7583 5 9.08883 5 8.25105V3H6.30189V8.17251C6.30189 8.65124 6.44151 9.03273 6.72075 9.31697C7.00755 9.60122 7.43396 9.74334 8 9.74334C8.56604 9.74334 8.98868 9.60122 9.26792 9.31697C9.55472 9.03273 9.69811 8.65124 9.69811 8.17251V3H11V8.25105C11 9.08883 10.7208 9.7583 10.1623 10.2595Z" fill="currentColor"/>
</svg>
