<svg width="20" height="20" viewBox="0 0 20 20" fill="none" xmlns="http://www.w3.org/2000/svg">
    <g id="UsersThree">
        <path id="Vector"
              d="M19.1252 11.7503C19.0596 11.7995 18.9849 11.8354 18.9053 11.8557C18.8258 11.8761 18.7431 11.8806 18.6618 11.869C18.5806 11.8574 18.5024 11.8299 18.4318 11.7881C18.3612 11.7463 18.2995 11.691 18.2502 11.6253C17.8735 11.1189 17.3832 10.7081 16.8187 10.4259C16.2542 10.1436 15.6313 9.99785 15.0002 10.0003C14.8773 10.0003 14.7572 9.96404 14.6547 9.89609C14.5523 9.82814 14.4722 9.73151 14.4245 9.61827C14.392 9.54138 14.3753 9.45876 14.3753 9.3753C14.3753 9.29184 14.392 9.20923 14.4245 9.13233C14.4722 9.0191 14.5523 8.92246 14.6547 8.85451C14.7572 8.78656 14.8773 8.75031 15.0002 8.7503C15.3509 8.75027 15.6946 8.6519 15.9921 8.46635C16.2897 8.2808 16.5293 8.01553 16.6836 7.70065C16.838 7.38577 16.901 7.03391 16.8654 6.68504C16.8298 6.33617 16.6971 6.00427 16.4823 5.72704C16.2676 5.44981 15.9794 5.23837 15.6505 5.11672C15.3216 4.99508 14.9651 4.96811 14.6217 5.03888C14.2782 5.10966 13.9615 5.27533 13.7074 5.51709C13.4534 5.75885 13.2723 6.06701 13.1846 6.40655C13.1641 6.48606 13.1281 6.56075 13.0787 6.62636C13.0293 6.69197 12.9675 6.74721 12.8968 6.78892C12.8261 6.83063 12.7478 6.85801 12.6665 6.86948C12.5852 6.88095 12.5024 6.87629 12.4229 6.85577C12.3434 6.83525 12.2687 6.79927 12.2031 6.74989C12.1375 6.7005 12.0822 6.63868 12.0405 6.56795C11.9988 6.49722 11.9714 6.41896 11.96 6.33765C11.9485 6.25634 11.9532 6.17356 11.9737 6.09405C12.0954 5.6232 12.3253 5.18725 12.6451 4.82089C12.9649 4.45452 13.3658 4.16786 13.8159 3.9837C14.266 3.79954 14.7529 3.72298 15.2378 3.76009C15.7227 3.79721 16.1922 3.94698 16.609 4.1975C17.0259 4.44802 17.3785 4.79236 17.6388 5.20313C17.8991 5.6139 18.06 6.07976 18.1086 6.56364C18.1572 7.04753 18.0922 7.53608 17.9188 7.99042C17.7454 8.44476 17.4683 8.85236 17.1096 9.18077C17.9595 9.54874 18.6982 10.1327 19.2526 10.8745C19.3018 10.9403 19.3376 11.0152 19.3578 11.0949C19.3781 11.1746 19.3824 11.2575 19.3706 11.3388C19.3588 11.4202 19.331 11.4984 19.2889 11.569C19.2468 11.6396 19.1912 11.7012 19.1252 11.7503ZM14.9159 16.5628C14.9611 16.6339 14.9914 16.7135 15.0051 16.7967C15.0188 16.8798 15.0155 16.9649 14.9955 17.0468C14.9754 17.1287 14.939 17.2056 14.8884 17.2731C14.8379 17.3405 14.7742 17.397 14.7012 17.4392C14.6282 17.4814 14.5475 17.5084 14.4638 17.5185C14.3801 17.5287 14.2952 17.5218 14.2143 17.4983C14.1333 17.4749 14.058 17.4352 13.9927 17.3819C13.9275 17.3285 13.8737 17.2625 13.8346 17.1878C13.4409 16.5211 12.8802 15.9686 12.2078 15.5848C11.5353 15.201 10.7745 14.9992 10.0002 14.9992C9.22599 14.9992 8.46513 15.201 7.79272 15.5848C7.1203 15.9686 6.55958 16.5211 6.16586 17.1878C6.12679 17.2625 6.07301 17.3285 6.00777 17.3819C5.94252 17.4352 5.86715 17.4749 5.7862 17.4983C5.70524 17.5218 5.62037 17.5287 5.53669 17.5185C5.45302 17.5084 5.37226 17.4814 5.29928 17.4392C5.2263 17.397 5.16261 17.3405 5.11204 17.2731C5.06147 17.2056 5.02506 17.1287 5.005 17.0468C4.98495 16.9649 4.98166 16.8798 4.99535 16.7967C5.00903 16.7135 5.03939 16.6339 5.08461 16.5628C5.69055 15.5217 6.61445 14.7024 7.72055 14.2253C7.09815 13.7488 6.64073 13.0892 6.41258 12.3392C6.18443 11.5893 6.19703 10.7867 6.44861 10.0443C6.70018 9.30188 7.17808 8.65697 7.81513 8.20021C8.45219 7.74344 9.21636 7.4978 10.0002 7.4978C10.7841 7.4978 11.5483 7.74344 12.1853 8.20021C12.8224 8.65697 13.3003 9.30188 13.5519 10.0443C13.8034 10.7867 13.816 11.5893 13.5879 12.3392C13.3597 13.0892 12.9023 13.7488 12.2799 14.2253C13.386 14.7024 14.3099 15.5217 14.9159 16.5628ZM10.0002 13.7503C10.4947 13.7503 10.978 13.6037 11.3892 13.329C11.8003 13.0543 12.1207 12.6638 12.3099 12.207C12.4992 11.7502 12.5487 11.2475 12.4522 10.7626C12.3557 10.2776 12.1176 9.83217 11.768 9.48254C11.4184 9.1329 10.9729 8.8948 10.488 8.79834C10.003 8.70188 9.50034 8.75138 9.04353 8.9406C8.58671 9.12982 8.19627 9.45025 7.92156 9.86138C7.64686 10.2725 7.50024 10.7558 7.50024 11.2503C7.50024 11.9133 7.76363 12.5492 8.23247 13.0181C8.70131 13.4869 9.3372 13.7503 10.0002 13.7503ZM5.62524 9.3753C5.62524 9.20954 5.55939 9.05057 5.44218 8.93336C5.32497 8.81615 5.166 8.7503 5.00024 8.7503C4.64956 8.75027 4.30591 8.6519 4.00834 8.46635C3.71076 8.2808 3.47119 8.01553 3.31682 7.70065C3.16246 7.38577 3.09949 7.03391 3.13508 6.68504C3.17066 6.33617 3.30337 6.00427 3.51813 5.72704C3.73289 5.44981 4.02109 5.23837 4.35 5.11672C4.67891 4.99508 5.03534 4.96811 5.3788 5.03888C5.72227 5.10966 6.039 5.27533 6.29303 5.51709C6.54706 5.75885 6.72819 6.06701 6.81586 6.40655C6.8573 6.56713 6.96083 6.70467 7.10368 6.78892C7.24653 6.87316 7.417 6.89721 7.57758 6.85577C7.73816 6.81433 7.8757 6.7108 7.95995 6.56795C8.04419 6.4251 8.06824 6.25463 8.0268 6.09405C7.90511 5.6232 7.67522 5.18725 7.3554 4.82089C7.03558 4.45452 6.63468 4.16786 6.18458 3.9837C5.73447 3.79954 5.2476 3.72298 4.7627 3.76009C4.2778 3.79721 3.80826 3.94698 3.39143 4.1975C2.9746 4.44802 2.62199 4.79236 2.36166 5.20313C2.10133 5.6139 1.94046 6.07976 1.89185 6.56364C1.84325 7.04753 1.90825 7.53608 2.08168 7.99042C2.25511 8.44476 2.53219 8.85236 2.89086 9.18077C2.04186 9.54909 1.30392 10.133 0.750237 10.8745C0.650677 11.0071 0.607874 11.1739 0.631242 11.338C0.654611 11.5022 0.742238 11.6504 0.874846 11.7499C1.00745 11.8495 1.17418 11.8923 1.33835 11.8689C1.50252 11.8455 1.65068 11.7579 1.75024 11.6253C2.12695 11.1189 2.61728 10.7081 3.18177 10.4259C3.74625 10.1436 4.36912 9.99785 5.00024 10.0003C5.166 10.0003 5.32497 9.93445 5.44218 9.81724C5.55939 9.70003 5.62524 9.54106 5.62524 9.3753Z"
              fill="currentColor"/>
    </g>
</svg>
