<svg width="14" height="14" viewBox="0 0 14 14" fill="none" xmlns="http://www.w3.org/2000/svg">
<g clip-path="url(#clip0_1068_188036)">
<path fill-rule="evenodd" clip-rule="evenodd" d="M0.43934 0.43934C0.720644 0.158035 1.10218 0 1.5 0H12.5C12.8978 0 13.2794 0.158035 13.5607 0.43934C13.842 0.720644 14 1.10217 14 1.5V11.75V12.5C14 12.8978 13.842 13.2794 13.5607 13.5607C13.2794 13.842 12.8978 14 12.5 14H1.5C1.10217 14 0.720644 13.842 0.43934 13.5607C0.158035 13.2794 0 12.8978 0 12.5V11.5V1.5C0 1.10218 0.158035 0.720644 0.43934 0.43934ZM12.295 5.65853C12.6402 5.65853 12.92 5.37871 12.92 5.03353C12.92 4.68835 12.6402 4.40853 12.295 4.40853H9.67309C9.32791 4.40853 9.04809 4.68835 9.04809 5.03353C9.04809 5.37871 9.32791 5.65853 9.67309 5.65853H10.3591V8.96646C10.3591 9.31164 10.6389 9.59146 10.9841 9.59146C11.3292 9.59146 11.6091 9.31164 11.6091 8.96646V5.65853H12.295ZM6.72339 4.40853C7.06857 4.40853 7.34839 4.68835 7.34839 5.03353V8.34147H9.0176C9.36278 8.34147 9.6426 8.62129 9.6426 8.96647C9.6426 9.31164 9.36278 9.59147 9.0176 9.59147H6.72339C6.37821 9.59147 6.09839 9.31164 6.09839 8.96647V5.03353C6.09839 4.68835 6.37821 4.40853 6.72339 4.40853ZM4.36799 5.14681C4.22103 4.70592 3.80842 4.40853 3.34368 4.40853C2.87893 4.40853 2.46633 4.70592 2.31937 5.14681L1.55363 7.44401C1.55037 7.45308 1.54731 7.46225 1.54446 7.47152L1.11203 8.76882C1.00287 9.09629 1.17985 9.45024 1.50731 9.55939C1.83478 9.66855 2.18873 9.49157 2.29788 9.16411L2.59242 8.28049H4.09493L4.38947 9.16411C4.49863 9.49157 4.85258 9.66855 5.18004 9.55939C5.50751 9.45024 5.68448 9.09629 5.57533 8.76882L5.14289 7.47152C5.14004 7.46225 5.13698 7.45308 5.13372 7.444L4.36799 5.14681ZM3.00909 7.03049L3.34368 6.02672L3.67827 7.03049H3.00909Z" fill="black"/>
</g>
<defs>
<clipPath id="clip0_1068_188036">
<rect width="14" height="14" fill="white"/>
</clipPath>
</defs>
</svg>
