<svg width="14" height="14" viewBox="0 0 14 14" fill="none" xmlns="http://www.w3.org/2000/svg">
<g clip-path="url(#clip0_1068_188039)">
<path fill-rule="evenodd" clip-rule="evenodd" d="M4.44452 2.96142C4.44452 2.49167 4.98914 1.84375 6.02911 1.84375C7.06908 1.84375 7.6137 2.49167 7.6137 2.96142V4.08044H6.02911C4.49036 4.08044 2.94452 5.10489 2.94452 6.69812C2.94452 8.29134 4.49036 9.31579 6.02911 9.31579C6.87633 9.31579 7.72569 9.00523 8.31801 8.46018C8.55022 8.71505 8.86617 8.94921 9.2825 9.04913C9.68528 9.1458 10.0901 8.89765 10.1868 8.49487C10.2835 8.09209 10.0353 7.68722 9.63256 7.59055C9.55563 7.57209 9.44186 7.50004 9.31766 7.30584C9.2153 7.1458 9.14743 6.96484 9.1137 6.83852V6.69812V4.83044V2.96142C9.1137 1.3682 7.56786 0.34375 6.02911 0.34375C4.49036 0.34375 2.94452 1.3682 2.94452 2.96142C2.94452 3.37564 3.28031 3.71142 3.69452 3.71142C4.10874 3.71142 4.44452 3.37564 4.44452 2.96142ZM7.6137 5.58044H6.02911C4.98914 5.58044 4.44452 6.22837 4.44452 6.69812C4.44452 7.16787 4.98914 7.81579 6.02911 7.81579C7.06908 7.81579 7.6137 7.16787 7.6137 6.69812V6.69691V5.58044ZM0.284297 10.0497C0.562563 9.74292 1.03687 9.71977 1.34369 9.99804C2.284 10.8508 4.47445 11.7654 7.31239 11.6268C9.06979 11.5411 10.4931 11.0785 11.4532 10.6292C11.1619 10.6034 10.8883 10.6211 10.6654 10.7014C10.2756 10.8416 9.84598 10.6394 9.70574 10.2496C9.56549 9.85985 9.76776 9.43021 10.1575 9.28997C10.9503 9.0047 11.8138 9.1293 12.3973 9.27371C12.7033 9.34943 12.9664 9.43943 13.1534 9.51052C13.2475 9.54625 13.3235 9.57769 13.3776 9.60092C13.4047 9.61255 13.4264 9.62216 13.4421 9.62926L13.4613 9.638L13.4675 9.64086L13.4697 9.64189L13.471 9.64249C13.4711 9.64254 13.4712 9.64259 13.4041 9.78534C13.4041 9.78533 13.4041 9.78535 13.4041 9.78534L13.471 9.64249C13.745 9.77146 13.9148 10.0526 13.9011 10.3551L13.88 10.3542C13.9011 10.3552 13.9011 10.355 13.9011 10.3551L13.901 10.3569L13.9009 10.3593L13.9006 10.3661L13.8993 10.3872C13.8983 10.4044 13.8967 10.4281 13.8943 10.4575C13.8936 10.4665 13.8928 10.476 13.892 10.4861C13.8921 10.5373 13.887 10.5884 13.8767 10.6385C13.8746 10.6575 13.8723 10.6774 13.8697 10.6979C13.8454 10.8965 13.8023 11.1712 13.7266 11.4772C13.5822 12.0608 13.2897 12.8827 12.6676 13.451C12.3618 13.7303 11.8874 13.7089 11.608 13.403C11.3287 13.0972 11.3501 12.6228 11.6559 12.3435C11.7348 12.2714 11.8072 12.1844 11.8733 12.0858C10.7497 12.5822 9.21539 13.0357 7.38551 13.1251C4.24554 13.2783 1.63486 12.2871 0.336003 11.1091C0.0291795 10.8309 0.00602989 10.3566 0.284297 10.0497Z" fill="black"/>
</g>
<defs>
<clipPath id="clip0_1068_188039">
<rect width="14" height="14" fill="white"/>
</clipPath>
</defs>
</svg>
