<svg width="14" height="14" viewBox="0 0 14 14" fill="none" xmlns="http://www.w3.org/2000/svg">
<g clip-path="url(#clip0_1068_188042)">
<path fill-rule="evenodd" clip-rule="evenodd" d="M3.5296 0.241276C3.23671 -0.0516168 2.76183 -0.0516168 2.46894 0.241276C2.17605 0.53417 2.17605 1.00904 2.46894 1.30194L3.76018 2.59318C3.14494 3.28802 2.77006 4.16189 2.6895 5.08447H11.3091C11.2285 4.16189 10.8537 3.28802 10.2384 2.59317L11.5297 1.30194C11.8226 1.00904 11.8226 0.53417 11.5297 0.241276C11.2368 -0.0516168 10.7619 -0.0516168 10.469 0.241276L9.05556 1.65468C8.4295 1.31649 7.72376 1.13477 6.99929 1.13477C6.27481 1.13477 5.56907 1.31649 4.94301 1.65468L3.5296 0.241276ZM4.1731 11.4084H9.82544V13.1597C9.82544 13.5739 10.1613 13.9097 10.5755 13.9097C10.9897 13.9097 11.3255 13.5739 11.3255 13.1597V10.666V10.6584V7.60819C11.6126 7.62061 11.8853 7.7401 12.0893 7.94413C12.3051 8.15991 12.4264 8.45258 12.4264 8.75774V9.65836C12.4264 10.0726 12.7621 10.4084 13.1764 10.4084C13.5906 10.4084 13.9264 10.0726 13.9264 9.65836V8.75774C13.9264 8.05475 13.6471 7.38055 13.15 6.88347C12.6529 6.38638 11.9787 6.10712 11.2757 6.10712H2.72289C2.0199 6.10712 1.34571 6.38638 0.848616 6.88347C0.351527 7.38055 0.0722656 8.05475 0.0722656 8.75774V9.65836C0.0722656 10.0726 0.408052 10.4084 0.822266 10.4084C1.23648 10.4084 1.57227 10.0726 1.57227 9.65836V8.75774C1.57227 8.45258 1.69349 8.15991 1.90928 7.94413C2.1133 7.74011 2.38604 7.62062 2.6731 7.60819V10.1722V10.6584V13.1597C2.6731 13.5739 3.00888 13.9097 3.4231 13.9097C3.83731 13.9097 4.1731 13.5739 4.1731 13.1597V11.4084Z" fill="black"/>
</g>
<defs>
<clipPath id="clip0_1068_188042">
<rect width="14" height="14" fill="white"/>
</clipPath>
</defs>
</svg>
