<svg width="14" height="14" viewBox="0 0 14 14" fill="none" xmlns="http://www.w3.org/2000/svg">
<path fill-rule="evenodd" clip-rule="evenodd" d="M8.85403 1.29785C8.3503 1.00572 7.70513 1.17725 7.413 1.68098L7.14569 2.14192L6.87837 1.68098C6.58624 1.17725 5.94107 1.00572 5.43735 1.29785C4.93362 1.58998 4.76208 2.23515 5.05421 2.73888L5.92685 4.24359L3.14898 9.03355H1.30826C0.725959 9.03355 0.253906 9.50561 0.253906 10.0879C0.253906 10.6702 0.725959 11.1423 1.30826 11.1423H1.92605H4.36373H8.62917L7.40905 9.03355H5.58665L7.14569 6.34526L9.23716 2.73888C9.52929 2.23515 9.35776 1.58998 8.85403 1.29785ZM1.73909 13.6468C2.25566 13.9443 2.91554 13.7666 3.21299 13.2501L3.80659 12.2192H1.31717C1.0557 12.7283 1.23781 13.3582 1.73909 13.6468ZM11.0899 13.25L7.75134 7.45203L8.99498 5.31396L11.1535 9.03458H12.8226C13.4049 9.03458 13.877 9.50663 13.877 10.0889C13.877 10.6712 13.4049 11.1433 12.8226 11.1433H12.3677L12.9605 12.1729C13.258 12.6894 13.0803 13.3493 12.5638 13.6468C12.0472 13.9442 11.3873 13.7666 11.0899 13.25Z" fill="black"/>
</svg>
