<svg width="14" height="14" viewBox="0 0 14 14" fill="none" xmlns="http://www.w3.org/2000/svg">
<path fill-rule="evenodd" clip-rule="evenodd" d="M10.1475 1.33746C10.4404 1.04457 10.4404 0.569692 10.1475 0.276799C9.85456 -0.0160944 9.37969 -0.0160944 9.0868 0.276799L7.5868 1.7768C7.2939 2.06969 7.2939 2.54457 7.5868 2.83746C7.87969 3.13035 8.35456 3.13035 8.64746 2.83746L10.1475 1.33746ZM8.60918 3.76055C9.05316 3.67621 9.50994 3.68648 9.94968 3.79068C10.3895 3.89489 10.8023 4.09068 11.1612 4.36528C11.5201 4.63988 11.8171 4.9871 12.0327 5.38427C12.1039 5.51546 12.1128 5.6716 12.0569 5.81002C12.001 5.94843 11.8862 6.05463 11.7439 6.0996C11.3751 6.21606 11.0531 6.44685 10.8242 6.75854C10.5954 7.07023 10.4717 7.44665 10.471 7.83333V7.8412C10.4633 8.28422 10.618 8.71473 10.9061 9.05134C11.1943 9.38795 11.5957 9.60733 12.0347 9.668C12.1757 9.68751 12.3018 9.76626 12.3812 9.88449C12.4607 10.0027 12.4859 10.1492 12.4506 10.2872C12.1583 11.43 11.5666 12.4742 10.7364 13.3122C10.7288 13.3199 10.7208 13.3274 10.7126 13.3347C10.2841 13.7141 9.73492 13.9293 9.1627 13.9422C8.59469 13.955 8.04041 13.7677 7.59681 13.4131C7.47241 13.3233 7.32284 13.275 7.16929 13.275C7.01359 13.275 6.86199 13.3247 6.73657 13.4169C6.27444 13.7658 5.70358 13.9396 5.12535 13.9075C4.54601 13.8753 3.99693 13.6385 3.57598 13.2391C3.56938 13.2329 3.56296 13.2264 3.55672 13.2198C2.46945 12.0695 1.78808 10.5954 1.61612 9.02222C1.40797 7.84699 1.60391 6.63576 2.1722 5.58596C2.38534 5.16849 2.68296 4.79988 3.0462 4.50356C3.41124 4.20576 3.83448 3.98754 4.28879 3.86289C4.7431 3.73824 5.21844 3.70991 5.68434 3.77971C6.14603 3.84889 6.58833 4.01292 6.98342 4.26142C7.04742 4.2968 7.11939 4.31539 7.1926 4.31539C7.26305 4.31539 7.33236 4.29817 7.39451 4.26534C7.76018 4.01516 8.17373 3.84326 8.60918 3.76055Z" fill="black"/>
</svg>
