<svg width="14" height="14" viewBox="0 0 14 14" fill="none" xmlns="http://www.w3.org/2000/svg">
<path fill-rule="evenodd" clip-rule="evenodd" d="M7.00037 0.0905762C7.55266 0.0905762 8.00037 0.538291 8.00037 1.09058V5.17834L11.4638 2.97434C11.9298 2.67783 12.5479 2.81518 12.8444 3.28113C13.1409 3.74707 13.0035 4.36515 12.5376 4.66166L8.86303 6.99999L12.5376 9.33832C13.0035 9.63483 13.1409 10.2529 12.8444 10.7189C12.5479 11.1848 11.9298 11.3222 11.4638 11.0256L8.00037 8.82165V12.9094C8.00037 13.4617 7.55266 13.9094 7.00037 13.9094C6.44809 13.9094 6.00037 13.4617 6.00037 12.9094V8.82169L2.53701 11.0256C2.07106 11.3222 1.45298 11.1848 1.15647 10.7189C0.859956 10.2529 0.997309 9.63483 1.46325 9.33832L5.13777 6.99999L1.46325 4.66166C0.997309 4.36515 0.859956 3.74707 1.15647 3.28113C1.45298 2.81518 2.07106 2.67783 2.53701 2.97434L6.00037 5.1783V1.09058C6.00037 0.538291 6.44809 0.0905762 7.00037 0.0905762Z" fill="black"/>
</svg>
