<svg width="14" height="14" viewBox="0 0 14 14" fill="none" xmlns="http://www.w3.org/2000/svg">
<path fill-rule="evenodd" clip-rule="evenodd" d="M13.5 5.5C13.5 5.36739 13.4473 5.24021 13.3536 5.14645C13.2598 5.05268 13.1326 5 13 5H12.5V3.5C12.5 3.23478 12.3946 2.98043 12.2071 2.79289C12.0196 2.60536 11.7652 2.5 11.5 2.5H1.5C1.23478 2.5 0.98043 2.60536 0.792893 2.79289C0.605357 2.98043 0.5 3.23478 0.5 3.5V10.5C0.5 10.7652 0.605357 11.0196 0.792893 11.2071C0.98043 11.3946 1.23478 11.5 1.5 11.5H11.5C11.7652 11.5 12.0196 11.3946 12.2071 11.2071C12.3946 11.0196 12.5 10.7652 12.5 10.5V9H13C13.1326 9 13.2598 8.94732 13.3536 8.85355C13.4473 8.75979 13.5 8.63261 13.5 8.5V5.5ZM6.5 3.875C6.84518 3.875 7.125 4.15482 7.125 4.5V7C7.125 7.34518 6.84518 7.625 6.5 7.625C6.15482 7.625 5.875 7.34518 5.875 7V4.5C5.875 4.15482 6.15482 3.875 6.5 3.875ZM7.25 9.25C7.25 9.66421 6.91421 10 6.5 10C6.08579 10 5.75 9.66421 5.75 9.25C5.75 8.83579 6.08579 8.5 6.5 8.5C6.91421 8.5 7.25 8.83579 7.25 9.25Z" fill="black"/>
</svg>
