<svg width="14" height="14" viewBox="0 0 14 14" fill="none" xmlns="http://www.w3.org/2000/svg">
<g clip-path="url(#clip0_1068_187711)">
<path fill-rule="evenodd" clip-rule="evenodd" d="M0.219669 0.218938C-0.0732231 0.511831 -0.0732231 0.986704 0.219669 1.2796L0.397768 1.4577C0.415456 1.4719 0.432551 1.48721 0.44896 1.50361L12.7769 13.8315C13.0715 14.0727 13.5068 14.0559 13.7817 13.781C14.0746 13.4881 14.0746 13.0132 13.7817 12.7203L12.2391 11.1777C12.407 10.9939 12.5007 10.7535 12.5007 10.5034V9.00342H13.0007C13.1333 9.00342 13.2604 8.95074 13.3542 8.85697C13.448 8.7632 13.5007 8.63603 13.5007 8.50342V5.50342C13.5007 5.37081 13.448 5.24363 13.3542 5.14986C13.2604 5.0561 13.1333 5.00342 13.0007 5.00342H12.5007V3.50342C12.5007 3.2382 12.3953 2.98385 12.2078 2.79631C12.0202 2.60877 11.7659 2.50342 11.5007 2.50342H3.56481L1.28033 0.218938C0.987436 -0.0739558 0.512562 -0.0739558 0.219669 0.218938ZM8.68099 11.5034L0.514567 3.33699C0.505345 3.39162 0.500624 3.44728 0.500624 3.50342V10.5034C0.500624 10.7686 0.605981 11.023 0.793518 11.2105C0.981054 11.3981 1.23541 11.5034 1.50062 11.5034H8.68099Z" fill="black"/>
</g>
<defs>
<clipPath id="clip0_1068_187711">
<rect width="14" height="14" fill="white"/>
</clipPath>
</defs>
</svg>
