<svg width="14" height="14" viewBox="0 0 14 14" fill="none" xmlns="http://www.w3.org/2000/svg">
<path fill-rule="evenodd" clip-rule="evenodd" d="M0.43934 2.43934C0.720644 2.15804 1.10218 2 1.5 2H11.5C11.8978 2 12.2794 2.15804 12.5607 2.43934C12.842 2.72064 13 3.10217 13 3.5V4.5C13.2652 4.5 13.5196 4.60536 13.7071 4.79289C13.8946 4.98043 14 5.23478 14 5.5V8.5C14 8.76521 13.8946 9.01957 13.7071 9.20711C13.5196 9.39464 13.2652 9.5 13 9.5V10.5C13 10.8978 12.842 11.2794 12.5607 11.5607C12.2794 11.842 11.8978 12 11.5 12H1.5C1.10217 12 0.720644 11.842 0.43934 11.5607C0.158035 11.2794 0 10.8978 0 10.5V3.5C0 3.10218 0.158035 2.72064 0.43934 2.43934ZM3.375 5C3.375 4.65482 3.09518 4.375 2.75 4.375C2.40482 4.375 2.125 4.65482 2.125 5V9C2.125 9.34518 2.40482 9.625 2.75 9.625C3.09518 9.625 3.375 9.34518 3.375 9V5ZM6.875 5C6.875 4.65482 6.59518 4.375 6.25 4.375C5.90482 4.375 5.625 4.65482 5.625 5V9C5.625 9.34518 5.90482 9.625 6.25 9.625C6.59518 9.625 6.875 9.34518 6.875 9V5ZM9.75 4.375C10.0952 4.375 10.375 4.65482 10.375 5V9C10.375 9.34518 10.0952 9.625 9.75 9.625C9.40482 9.625 9.125 9.34518 9.125 9V5C9.125 4.65482 9.40482 4.375 9.75 4.375Z" fill="black"/>
</svg>
