<svg width="14" height="14" viewBox="0 0 14 14" fill="none" xmlns="http://www.w3.org/2000/svg">
<path fill-rule="evenodd" clip-rule="evenodd" d="M13.3536 5.14645C13.4473 5.24021 13.5 5.36739 13.5 5.5V8.5C13.5 8.63261 13.4473 8.75979 13.3536 8.85355C13.2598 8.94732 13.1326 9 13 9H12.5V10.5C12.5 10.7652 12.3946 11.0196 12.2071 11.2071C12.0196 11.3946 11.7652 11.5 11.5 11.5H1.5C1.23478 11.5 0.98043 11.3946 0.792893 11.2071C0.605357 11.0196 0.5 10.7652 0.5 10.5V3.5C0.5 3.23478 0.605357 2.98043 0.792893 2.79289C0.98043 2.60536 1.23478 2.5 1.5 2.5H11.5C11.7652 2.5 12.0196 2.60536 12.2071 2.79289C12.3946 2.98043 12.5 3.23478 12.5 3.5V5H13C13.1326 5 13.2598 5.05268 13.3536 5.14645ZM7.49186 5.15503C7.69722 4.87758 7.63877 4.48619 7.36132 4.28084C7.08388 4.07548 6.69249 4.13393 6.48713 4.41138L4.82942 6.65107C4.68901 6.84078 4.66744 7.09341 4.77366 7.30418C4.87988 7.51494 5.09577 7.6479 5.33179 7.6479H6.43813L5.77074 8.84996C5.60319 9.15175 5.712 9.53222 6.01379 9.69977C6.31557 9.86733 6.69605 9.75851 6.8636 9.45672L8.04643 7.32628C8.15391 7.1327 8.15094 6.89669 8.03863 6.70587C7.92631 6.51505 7.72142 6.3979 7.5 6.3979H6.57195L7.49186 5.15503Z" fill="black"/>
</svg>
