<svg width="14" height="14" viewBox="0 0 14 14" fill="none" xmlns="http://www.w3.org/2000/svg">
<path fill-rule="evenodd" clip-rule="evenodd" d="M1.5 2C1.10218 2 0.720644 2.15804 0.43934 2.43934C0.158035 2.72064 0 3.10218 0 3.5V10.5C0 10.8978 0.158035 11.2794 0.43934 11.5607C0.720644 11.842 1.10217 12 1.5 12H11.5C11.8978 12 12.2794 11.842 12.5607 11.5607C12.842 11.2794 13 10.8978 13 10.5V9.5C13.2652 9.5 13.5196 9.39464 13.7071 9.20711C13.8946 9.01957 14 8.76521 14 8.5V5.5C14 5.23478 13.8946 4.98043 13.7071 4.79289C13.5196 4.60536 13.2652 4.5 13 4.5V3.5C13 3.10217 12.842 2.72064 12.5607 2.43934C12.2794 2.15804 11.8978 2 11.5 2H1.5Z" fill="black"/>
</svg>
