<svg width="14" height="14" viewBox="0 0 14 14" fill="none" xmlns="http://www.w3.org/2000/svg">
<g clip-path="url(#clip0_1068_187723)">
<path fill-rule="evenodd" clip-rule="evenodd" d="M3.99923 0.131735C4.26721 0.0101321 4.58155 0.0564902 4.80302 0.250277L8.6094 3.58086C8.78065 3.73071 8.87462 3.95021 8.86483 4.17756C8.85503 4.40491 8.74255 4.61552 8.55904 4.75009L5.49089 7.00007L8.55904 9.25005C8.74255 9.38462 8.85503 9.59523 8.86483 9.82258C8.87462 10.05 8.78065 10.2695 8.6094 10.4193L4.80302 13.7499C4.58155 13.9437 4.26721 13.9901 3.99923 13.8684C3.73125 13.7468 3.55914 13.4798 3.55914 13.1855V8.41669L1.42208 9.98386C1.08806 10.2289 0.618712 10.1566 0.373762 9.82258C0.128811 9.48856 0.201019 9.0192 0.535043 8.77425L2.95438 7.00007L0.535043 5.22589C0.201019 4.98094 0.128811 4.51159 0.373762 4.17756C0.618712 3.84354 1.08806 3.77133 1.42208 4.01628L3.55914 5.58346V0.814709C3.55914 0.520427 3.73125 0.253337 3.99923 0.131735ZM5.05914 8.54356L6.91761 9.90645L5.05914 11.5326V8.54356ZM5.05914 5.45658V2.46753L6.91761 4.0937L5.05914 5.45658ZM11.1345 9.70518C12.6496 8.19004 12.6496 5.71497 11.1345 4.19984C10.8416 3.90694 10.8416 3.43207 11.1345 3.13918C11.4273 2.84628 11.9022 2.84628 12.1951 3.13918C14.296 5.2401 14.296 8.66491 12.1951 10.7659C11.9022 11.0588 11.4273 11.0588 11.1345 10.7659C10.8416 10.473 10.8416 9.99807 11.1345 9.70518ZM9.48851 5.91761C10.0127 6.44178 10.0127 7.3676 9.48851 7.89177C9.19561 8.18466 9.19561 8.65954 9.48851 8.95243C9.7814 9.24532 10.2563 9.24532 10.5492 8.95243C11.6591 7.84247 11.6591 5.96691 10.5492 4.85695C10.2563 4.56406 9.7814 4.56406 9.48851 4.85695C9.19561 5.14984 9.19561 5.62472 9.48851 5.91761Z" fill="black"/>
</g>
<defs>
<clipPath id="clip0_1068_187723">
<rect width="14" height="14" fill="white"/>
</clipPath>
</defs>
</svg>
