<svg width="14" height="14" viewBox="0 0 14 14" fill="none" xmlns="http://www.w3.org/2000/svg">
<g clip-path="url(#clip0_1068_187729)">
<path fill-rule="evenodd" clip-rule="evenodd" d="M0.219669 0.21906C-0.0732231 0.511953 -0.0732231 0.986827 0.219669 1.27972L0.397768 1.45782C0.415456 1.47202 0.432551 1.48733 0.44896 1.50374L12.7768 13.8317C13.0714 14.0729 13.5067 14.056 13.7817 13.7811C14.0745 13.4882 14.0745 13.0133 13.7817 12.7205L11.0505 9.98929C11.0624 9.93039 11.0673 9.86971 11.0647 9.80846C11.0549 9.58111 10.9424 9.3705 10.7589 9.23593L9.02742 7.96615L7.91192 6.85066L10.7589 4.76285C10.9424 4.62827 11.0549 4.41766 11.0647 4.19031C11.0745 3.96296 10.9805 3.74346 10.8093 3.59361L7.02083 0.278707C6.79936 0.0849205 6.48502 0.0385624 6.21704 0.160165C5.94906 0.281767 5.77695 0.548857 5.77695 0.84314V4.71568L1.28033 0.21906C0.987436 -0.0738338 0.512562 -0.0738338 0.219669 0.21906ZM9.0884 11.911L8.02539 10.848L7.27695 11.5029V10.0995L5.77695 8.5995V13.1557C5.77695 13.45 5.94906 13.7171 6.21704 13.8387C6.48502 13.9603 6.79936 13.9139 7.02083 13.7201L9.0884 11.911ZM5.67126 8.49381L4.59812 7.42067L2.76853 8.76237C2.4345 9.00732 2.36229 9.47668 2.60724 9.8107C2.8522 10.1448 3.32155 10.217 3.65557 9.97198L5.67126 8.49381ZM7.27695 5.45619V2.49596L9.11751 4.10645L7.27695 5.45619Z" fill="black"/>
</g>
<defs>
<clipPath id="clip0_1068_187729">
<rect width="14" height="14" fill="white"/>
</clipPath>
</defs>
</svg>
