<svg width="14" height="14" viewBox="0 0 14 14" fill="none" xmlns="http://www.w3.org/2000/svg">
<path fill-rule="evenodd" clip-rule="evenodd" d="M6.27124 0.141745C6.60679 -0.0288002 7.00968 0.00351979 7.31375 0.225375L11.7173 3.4383C11.987 3.63504 12.1407 3.95335 12.1271 4.28687C12.1135 4.62039 11.9344 4.92513 11.6496 5.09926L8.54111 7.00006L11.6496 8.90085C11.9344 9.07499 12.1135 9.37973 12.1271 9.71325C12.1407 10.0468 11.987 10.3651 11.7173 10.5619L7.31375 13.7748C7.00968 13.9966 6.60679 14.029 6.27124 13.8584C5.93569 13.6879 5.72434 13.3434 5.72434 12.967V8.7225L3.39292 10.1482C2.92175 10.4363 2.30622 10.2879 2.0181 9.81669C1.72998 9.34552 1.87837 8.72999 2.34955 8.44187L4.7074 7.00006L2.34955 5.55825C1.87837 5.27013 1.72998 4.6546 2.0181 4.18343C2.30622 3.71225 2.92175 3.56386 3.39292 3.85198L5.72434 5.27762V1.03321C5.72434 0.656807 5.93569 0.31229 6.27124 0.141745ZM7.72433 8.8449L9.33085 9.82727L7.72433 10.9995V8.8449ZM7.72433 5.15522V3.00071L9.33085 4.17285L7.72433 5.15522Z" fill="black"/>
</svg>
