<svg width="14" height="14" viewBox="0 0 14 14" fill="none" xmlns="http://www.w3.org/2000/svg">
<g clip-path="url(#clip0_1068_187741)">
<path fill-rule="evenodd" clip-rule="evenodd" d="M1.54687 3.36147V12.2955C1.54687 12.4084 1.6384 12.4999 1.75131 12.4999H12.2045C12.3426 12.4999 12.4545 12.388 12.4545 12.2499V3.36147H1.54687ZM1.75131 0.0922852C0.809976 0.0922852 0.046875 0.855387 0.046875 1.79672V12.2955C0.046875 13.2368 0.809975 13.9999 1.75131 13.9999H12.2045C13.171 13.9999 13.9545 13.2164 13.9545 12.2499V1.79672C13.9545 0.855386 13.1914 0.0922852 12.2501 0.0922852H1.75131ZM4.43975 7.11111C5.8493 5.70157 8.15208 5.70157 9.56163 7.11111C9.85452 7.40401 10.3294 7.40401 10.6223 7.11111C10.9151 6.81822 10.9151 6.34335 10.6223 6.05045C8.62696 4.05512 5.37442 4.05512 3.37909 6.05045C3.0862 6.34335 3.0862 6.81822 3.37909 7.11111C3.67198 7.40401 4.14686 7.40401 4.43975 7.11111ZM5.90676 8.73022C6.48847 8.14852 7.5129 8.14852 8.09461 8.73022C8.3875 9.02312 8.86237 9.02312 9.15527 8.73022C9.44816 8.43733 9.44816 7.96246 9.15527 7.66956C7.98778 6.50207 6.01359 6.50207 4.8461 7.66956C4.55321 7.96246 4.55321 8.43733 4.8461 8.73022C5.13899 9.02312 5.61387 9.02312 5.90676 8.73022ZM7.75068 10.0725C7.75068 10.4867 7.4149 10.8225 7.00068 10.8225C6.58647 10.8225 6.25068 10.4867 6.25068 10.0725C6.25068 9.6583 6.58647 9.32251 7.00068 9.32251C7.4149 9.32251 7.75068 9.6583 7.75068 10.0725Z" fill="black"/>
</g>
<defs>
<clipPath id="clip0_1068_187741">
<rect width="14" height="14" fill="white"/>
</clipPath>
</defs>
</svg>
