<svg width="14" height="14" viewBox="0 0 14 14" fill="none" xmlns="http://www.w3.org/2000/svg">
<g clip-path="url(#clip0_1068_187699)">
<path fill-rule="evenodd" clip-rule="evenodd" d="M13.7508 7.00002C13.7508 10.72 10.7418 13.7371 7.02498 13.7504L9.84978 8.85768C10.1988 8.32347 10.4017 7.68512 10.4017 6.99939C10.4017 6.35637 10.2233 5.75501 9.91329 5.24212H13.1821C13.2956 5.24212 13.4036 5.21903 13.5019 5.1773C13.6641 5.75711 13.7508 6.36844 13.7508 7.00002ZM12.8366 3.60561C11.6667 1.59852 9.49105 0.249634 7.00039 0.249634C5.05906 0.249634 3.30913 1.06913 2.07767 2.38106C2.14049 2.43488 2.1954 2.50008 2.23911 2.57579L3.93706 5.51671C4.48802 4.3807 5.65242 3.59745 6.99976 3.59745C7.07958 3.59745 7.15876 3.6002 7.23721 3.60561H12.8366ZM0.25 7.00002C0.25 10.1943 2.46865 12.8704 5.449 13.5713C5.46369 13.4868 5.49322 13.4035 5.53858 13.3249L7.23097 10.3936C7.15456 10.3987 7.07746 10.4013 6.99976 10.4013C5.78616 10.4013 4.72098 9.76585 4.11883 8.8095C4.09162 8.77687 4.06682 8.74147 4.04485 8.70341L1.13296 3.65987C0.57105 4.6448 0.25 5.78492 0.25 7.00002ZM8.64335 7.94727C8.65572 7.92585 8.66899 7.90526 8.68308 7.88554C8.82267 7.62092 8.9017 7.31938 8.9017 6.99939C8.9017 5.94898 8.05017 5.09745 6.99976 5.09745C5.94935 5.09745 5.09782 5.94898 5.09782 6.99939C5.09782 8.0498 5.94935 8.90133 6.99976 8.90133C7.65534 8.90133 8.23345 8.56964 8.57542 8.06493L8.64335 7.94727Z" fill="black"/>
</g>
<defs>
<clipPath id="clip0_1068_187699">
<rect width="14" height="14" fill="white"/>
</clipPath>
</defs>
</svg>
