<svg width="14" height="14" viewBox="0 0 14 14" fill="none" xmlns="http://www.w3.org/2000/svg">
<g clip-path="url(#clip0_1068_187717)">
<path fill-rule="evenodd" clip-rule="evenodd" d="M3.33126 2.10694C3.1654 2.03824 2.98289 2.02026 2.80681 2.05529C2.63073 2.09031 2.46899 2.17676 2.34204 2.30371C2.21509 2.43066 2.12864 2.5924 2.09362 2.76848C2.05859 2.94456 2.07657 3.12707 2.14527 3.29293C2.21397 3.4588 2.33032 3.60056 2.47959 3.70031C2.62887 3.80005 2.80436 3.85328 2.98389 3.85328H3.89161V2.94556C3.89161 2.76603 3.83838 2.59054 3.73864 2.44126C3.63889 2.29199 3.49713 2.17564 3.33126 2.10694ZM5.89161 3.85328V2.94556C5.89161 2.37047 5.72108 1.80829 5.40158 1.33012C5.08207 0.851948 4.62795 0.479258 4.09663 0.25918C3.56531 0.0391017 2.98067 -0.0184809 2.41663 0.0937142C1.85258 0.205909 1.33448 0.482842 0.927825 0.889494C0.521173 1.29615 0.24424 1.81425 0.132045 2.3783C0.019849 2.94234 0.0774316 3.52698 0.297511 4.0583C0.517589 4.58962 0.890279 5.04374 1.36845 5.36325C1.84662 5.68275 2.4088 5.85328 2.98389 5.85328H3.89161V8.10779H2.98389C2.4088 8.10779 1.84662 8.27833 1.36845 8.59783C0.89028 8.91733 0.517589 9.37146 0.297511 9.90277C0.0774316 10.4341 0.019849 11.0188 0.132045 11.5828C0.244239 12.1468 0.521172 12.665 0.927825 13.0716C1.33448 13.4783 1.85259 13.7552 2.41663 13.8674C2.98067 13.9796 3.56531 13.922 4.09663 13.7019C4.62795 13.4818 5.08207 13.1092 5.40158 12.631C5.72108 12.1528 5.89161 11.5906 5.89161 11.0155V10.1078H8.14612V11.0155C8.14612 11.5906 8.31666 12.1528 8.63616 12.631C8.95566 13.1092 9.40979 13.4818 9.9411 13.7019C10.4724 13.922 11.0571 13.9796 11.6211 13.8674C12.1852 13.7552 12.7033 13.4783 13.1099 13.0716C13.5166 12.665 13.7935 12.1468 13.9057 11.5828C14.0179 11.0188 13.9603 10.4341 13.7402 9.90277C13.5202 9.37146 13.1475 8.91733 12.6693 8.59783C12.1911 8.27833 11.6289 8.10779 11.0539 8.10779H10.1461V5.85328H11.0539C11.6289 5.85328 12.1911 5.68275 12.6693 5.36325C13.1475 5.04374 13.5202 4.58962 13.7402 4.0583C13.9603 3.52698 14.0179 2.94234 13.9057 2.3783C13.7935 1.81426 13.5166 1.29615 13.1099 0.889494C12.7033 0.482841 12.1852 0.205908 11.6211 0.0937142C11.0571 -0.0184809 10.4724 0.0391017 9.9411 0.25918C9.40979 0.479258 8.95566 0.851948 8.63616 1.33012C8.31666 1.80829 8.14612 2.37047 8.14612 2.94556V3.85328H5.89161ZM5.89161 5.85328V8.10779H8.14612V5.85328H5.89161ZM10.1461 3.85328H11.0539C11.2334 3.85328 11.4089 3.80005 11.5582 3.70031C11.7074 3.60056 11.8238 3.4588 11.8925 3.29293C11.9612 3.12707 11.9792 2.94456 11.9441 2.76848C11.9091 2.59239 11.8227 2.43065 11.6957 2.30371C11.5688 2.17676 11.407 2.09031 11.2309 2.05529C11.0549 2.02026 10.8723 2.03824 10.7065 2.10694C10.5406 2.17564 10.3989 2.29199 10.2991 2.44126C10.1994 2.59054 10.1461 2.76603 10.1461 2.94556V3.85328ZM10.1461 10.1078V11.0155C10.1461 11.1951 10.1994 11.3706 10.2991 11.5198C10.3989 11.6691 10.5406 11.7855 10.7065 11.8542C10.8723 11.9229 11.0549 11.9408 11.2309 11.9058C11.407 11.8708 11.5688 11.7843 11.6957 11.6574C11.8227 11.5305 11.9091 11.3687 11.9441 11.1926C11.9792 11.0165 11.9612 10.834 11.8925 10.6682C11.8238 10.5023 11.7074 10.3605 11.5582 10.2608C11.4089 10.1611 11.2334 10.1078 11.0539 10.1078H10.1461ZM3.89161 10.1078H2.98389C2.80436 10.1078 2.62887 10.1611 2.47959 10.2608C2.33032 10.3605 2.21397 10.5023 2.14527 10.6682C2.07657 10.834 2.05859 11.0165 2.09362 11.1926C2.12864 11.3687 2.21509 11.5305 2.34204 11.6574C2.46898 11.7843 2.63072 11.8708 2.80681 11.9058C2.98289 11.9408 3.1654 11.9229 3.33126 11.8542C3.49713 11.7855 3.63889 11.6691 3.73864 11.5198C3.83838 11.3706 3.89161 11.1951 3.89161 11.0155V10.1078Z" fill="black"/>
</g>
<defs>
<clipPath id="clip0_1068_187717">
<rect width="14" height="14" fill="white"/>
</clipPath>
</defs>
</svg>
