<svg width="14" height="14" viewBox="0 0 14 14" fill="none" xmlns="http://www.w3.org/2000/svg">
<g clip-path="url(#clip0_1068_187726)">
<path fill-rule="evenodd" clip-rule="evenodd" d="M5.86004 0.8573C5.86004 0.443086 5.52426 0.1073 5.11004 0.1073C4.69583 0.1073 4.36004 0.443086 4.36004 0.8573V2.5H4.00012C3.17169 2.5 2.50012 3.17157 2.50012 4V4.35992H0.857422C0.443208 4.35992 0.107422 4.69571 0.107422 5.10992C0.107422 5.52414 0.443208 5.85992 0.857422 5.85992H2.50012V8.14008H0.857422C0.443208 8.14008 0.107422 8.47586 0.107422 8.89008C0.107422 9.30429 0.443208 9.64008 0.857422 9.64008H2.50012V10C2.50012 10.8284 3.17169 11.5 4.00012 11.5H4.36004V13.1427C4.36004 13.5569 4.69583 13.8927 5.11004 13.8927C5.52426 13.8927 5.86004 13.5569 5.86004 13.1427V11.5H8.1402V13.1427C8.1402 13.5569 8.47598 13.8927 8.8902 13.8927C9.30441 13.8927 9.6402 13.5569 9.6402 13.1427V11.5H10.0001C10.8285 11.5 11.5001 10.8284 11.5001 10V9.64008H13.1428C13.557 9.64008 13.8928 9.30429 13.8928 8.89008C13.8928 8.47586 13.557 8.14008 13.1428 8.14008H11.5001V5.85992H13.1428C13.557 5.85992 13.8928 5.52414 13.8928 5.10992C13.8928 4.69571 13.557 4.35992 13.1428 4.35992H11.5001V4C11.5001 3.17157 10.8285 2.5 10.0001 2.5H9.6402V0.8573C9.6402 0.443086 9.30441 0.1073 8.8902 0.1073C8.47598 0.1073 8.1402 0.443086 8.1402 0.8573V2.5H5.86004V0.8573ZM7.40906 8.375C7.06388 8.375 6.78406 8.65482 6.78406 9C6.78406 9.34518 7.06388 9.625 7.40906 9.625H9.40906C9.75423 9.625 10.034 9.34518 10.034 9C10.034 8.65482 9.75423 8.375 9.40906 8.375H7.40906Z" fill="black"/>
</g>
<defs>
<clipPath id="clip0_1068_187726">
<rect width="14" height="14" fill="white"/>
</clipPath>
</defs>
</svg>
