<svg width="14" height="14" viewBox="0 0 14 14" fill="none" xmlns="http://www.w3.org/2000/svg">
<path fill-rule="evenodd" clip-rule="evenodd" d="M8 2C7.44771 2 7 2.44772 7 3V3.46875H7.5C9.01878 3.46875 10.25 4.69997 10.25 6.21875V6.375H14V3C14 2.44772 13.5523 2 13 2H8ZM7.89113 13.8713C7.96169 13.6668 8 13.4472 8 13.2188C8 13.1197 7.9928 13.0224 7.9789 12.9272C9.26939 12.7006 10.25 11.5742 10.25 10.2188V7.625H14V13C14 13.5523 13.5523 14 13 14H8.5C8.28323 14 8.0772 13.954 7.89113 13.8713ZM12.6719 4.1875C12.6719 4.61034 12.3291 4.95312 11.9062 4.95312C11.4834 4.95312 11.1406 4.61034 11.1406 4.1875C11.1406 3.76466 11.4834 3.42188 11.9062 3.42188C12.3291 3.42188 12.6719 3.76466 12.6719 4.1875ZM0 6.21875C0 5.39032 0.671573 4.71875 1.5 4.71875H7.5C8.32843 4.71875 9 5.39032 9 6.21875V10.2188C9 11.0472 8.32843 11.7188 7.5 11.7188H5.25V12.4688H6C6.41421 12.4688 6.75 12.8045 6.75 13.2188C6.75 13.633 6.41421 13.9688 6 13.9688H4.5H3C2.58579 13.9688 2.25 13.633 2.25 13.2188C2.25 12.8045 2.58579 12.4688 3 12.4688H3.75V11.7188H1.5C0.671573 11.7188 0 11.0472 0 10.2188V6.21875Z" fill="black"/>
</svg>
