<svg width="14" height="14" viewBox="0 0 14 14" fill="none" xmlns="http://www.w3.org/2000/svg">
<g clip-path="url(#clip0_1068_187705)">
<path fill-rule="evenodd" clip-rule="evenodd" d="M2.49963 1.5C2.49963 0.671573 3.1712 0 3.99963 0H9.99963C10.828 0 11.4996 0.671573 11.4996 1.5V2.33472H13.1867C13.6009 2.33472 13.9367 2.6705 13.9367 3.08472C13.9367 3.49893 13.6009 3.83472 13.1867 3.83472H11.4996V6.25H13.1867C13.6009 6.25 13.9367 6.58579 13.9367 7C13.9367 7.41421 13.6009 7.75 13.1867 7.75H11.4996V10.1653H13.1867C13.6009 10.1653 13.9367 10.5011 13.9367 10.9153C13.9367 11.3295 13.6009 11.6653 13.1867 11.6653H11.4996V12.5C11.4996 13.3284 10.828 14 9.99963 14H3.99963C3.1712 14 2.49963 13.3284 2.49963 12.5V11.6653H0.8125C0.398287 11.6653 0.0625 11.3295 0.0625 10.9153C0.0625 10.5011 0.398287 10.1653 0.8125 10.1653H2.49963V7.75H0.812561C0.398348 7.75 0.062561 7.41421 0.062561 7C0.062561 6.58579 0.398348 6.25 0.812561 6.25H2.49963V3.83472H0.8125C0.398287 3.83472 0.0625 3.49893 0.0625 3.08472C0.0625 2.6705 0.398287 2.33472 0.8125 2.33472H2.49963V1.5ZM7.34771 11.1825C7.00254 11.1825 6.72271 11.4623 6.72271 11.8075C6.72271 12.1527 7.00254 12.4325 7.34771 12.4325H9.34771C9.69289 12.4325 9.97271 12.1527 9.97271 11.8075C9.97271 11.4623 9.69289 11.1825 9.34771 11.1825H7.34771Z" fill="black"/>
</g>
<defs>
<clipPath id="clip0_1068_187705">
<rect width="14" height="14" fill="white"/>
</clipPath>
</defs>
</svg>
