<svg width="14" height="14" viewBox="0 0 14 14" fill="none" xmlns="http://www.w3.org/2000/svg">
<path fill-rule="evenodd" clip-rule="evenodd" d="M1.20298 5.1687L0.783903 8.94037C0.632187 10.3058 1.70103 11.5 3.07488 11.5C3.94798 11.5 4.74614 11.0067 5.13661 10.2258L5.4995 9.5H8.4995L8.86239 10.2258C9.25285 11.0067 10.051 11.5 10.9241 11.5C12.298 11.5 13.3668 10.3058 13.2151 8.94037L12.796 5.16871C12.6272 3.64941 11.343 2.5 9.81437 2.5H4.18463C2.65598 2.5 1.37179 3.64941 1.20298 5.1687ZM4.37451 4.375C4.71969 4.375 4.99951 4.65482 4.99951 5V5.54175H5.54126C5.88644 5.54175 6.16626 5.82157 6.16626 6.16675C6.16626 6.51193 5.88644 6.79175 5.54126 6.79175H4.99951V7.33333C4.99951 7.67851 4.71969 7.95833 4.37451 7.95833C4.02934 7.95833 3.74951 7.67851 3.74951 7.33333V6.79175H3.20793C2.86275 6.79175 2.58293 6.51193 2.58293 6.16675C2.58293 5.82157 2.86275 5.54175 3.20793 5.54175H3.74951V5C3.74951 4.65482 4.02934 4.375 4.37451 4.375ZM9.26514 7.41675C9.61032 7.41675 9.89014 7.13693 9.89014 6.79175C9.89014 6.44657 9.61032 6.16675 9.26514 6.16675C8.91996 6.16675 8.64014 6.44657 8.64014 6.79175C8.64014 7.13693 8.91996 7.41675 9.26514 7.41675ZM11.1401 5.24219C11.1401 5.58737 10.8603 5.86719 10.5151 5.86719C10.17 5.86719 9.89014 5.58737 9.89014 5.24219C9.89014 4.89701 10.17 4.61719 10.5151 4.61719C10.8603 4.61719 11.1401 4.89701 11.1401 5.24219Z" fill="black"/>
</svg>
