<svg width="14" height="14" viewBox="0 0 14 14" fill="none" xmlns="http://www.w3.org/2000/svg">
<g clip-path="url(#clip0_1068_187714)">
<path fill-rule="evenodd" clip-rule="evenodd" d="M7.01947 1.95251C5.26596 1.95251 3.9843 2.54249 3.63184 2.77747C3.28719 3.00723 2.82154 2.9141 2.59178 2.56945C2.36201 2.22481 2.45514 1.75916 2.79979 1.52939C3.39825 1.13042 4.96933 0.452515 7.01947 0.452515C9.06961 0.452515 10.6407 1.13042 11.2391 1.52939C11.5838 1.75916 11.6769 2.22481 11.4471 2.56945C11.2174 2.9141 10.7517 3.00723 10.4071 2.77747C10.0546 2.54249 8.77299 1.95251 7.01947 1.95251ZM7.0195 4.80524C6.42198 4.80524 5.71791 5.0691 5.45308 5.20151C5.0826 5.38676 4.63209 5.23659 4.44685 4.8661C4.26161 4.49562 4.41178 4.04511 4.78226 3.85987C5.15138 3.67532 6.09555 3.30524 7.0195 3.30524C7.94345 3.30524 8.88762 3.67532 9.25674 3.85987C9.62722 4.04511 9.77739 4.49562 9.59215 4.8661C9.40691 5.23659 8.9564 5.38676 8.58592 5.20151C8.32109 5.0691 7.61702 4.80524 7.0195 4.80524ZM0.0273438 9.93751C0.0273438 7.94377 1.64359 6.32751 3.63734 6.32751C3.67911 6.32751 3.72073 6.32823 3.76219 6.32964C3.77747 6.32823 3.79295 6.32751 3.80859 6.32751H10.3398L10.3475 6.32757L10.3631 6.32751C12.3569 6.32751 13.9731 7.94377 13.9731 9.93751C13.9731 11.9313 12.3569 13.5475 10.3631 13.5475C9.53346 13.5475 8.76818 13.2671 8.15847 12.7963H5.84204C5.23233 13.2671 4.46705 13.5475 3.63734 13.5475C1.64359 13.5475 0.0273438 11.9313 0.0273438 9.93751ZM9.58818 11.4931C10.0107 11.4931 10.3533 11.1505 10.3533 10.7279C10.3533 10.3053 10.0107 9.96271 9.58818 9.96271C9.16558 9.96271 8.82299 10.3053 8.82299 10.7279C8.82299 11.1505 9.16558 11.4931 9.58818 11.4931ZM12.1124 8.84727C12.1124 9.26987 11.7698 9.61246 11.3472 9.61246C10.9246 9.61246 10.582 9.26987 10.582 8.84727C10.582 8.42468 10.9246 8.08209 11.3472 8.08209C11.7698 8.08209 12.1124 8.42468 12.1124 8.84727ZM1.73901 9.92073C1.73901 9.57555 2.01883 9.29573 2.36401 9.29573H2.81218V8.84729C2.81218 8.50211 3.092 8.22229 3.43718 8.22229C3.78236 8.22229 4.06218 8.50211 4.06218 8.84729V9.29573H4.51021C4.85539 9.29573 5.13521 9.57555 5.13521 9.92073C5.13521 10.2659 4.85539 10.5457 4.51021 10.5457H4.06218V10.9935C4.06218 11.3387 3.78236 11.6185 3.43718 11.6185C3.092 11.6185 2.81218 11.3387 2.81218 10.9935V10.5457H2.36401C2.01883 10.5457 1.73901 10.2659 1.73901 9.92073Z" fill="black"/>
</g>
<defs>
<clipPath id="clip0_1068_187714">
<rect width="14" height="14" fill="white"/>
</clipPath>
</defs>
</svg>
