<svg width="14" height="14" viewBox="0 0 14 14" fill="none" xmlns="http://www.w3.org/2000/svg">
<g clip-path="url(#clip0_1068_187768)">
<path fill-rule="evenodd" clip-rule="evenodd" d="M11.0464 0.991089C11.0464 0.576875 10.7106 0.241089 10.2964 0.241089C9.88216 0.241089 9.54637 0.576875 9.54637 0.991089V1.87502C9.54637 2.01309 9.43444 2.12502 9.29637 2.12502H7.9995C7.033 2.12502 6.2495 2.90852 6.2495 3.87502V4.75897H4.18463C2.65598 4.75897 1.37179 5.90838 1.20297 7.42768L0.783903 11.1994C0.632187 12.5648 1.70103 13.759 3.07488 13.759C3.94798 13.759 4.74614 13.2657 5.13661 12.4848L5.4995 11.759H8.4995L8.86239 12.4848C9.25285 13.2657 10.051 13.759 10.9241 13.759C12.298 13.759 13.3668 12.5648 13.2151 11.1994L12.796 7.42768C12.6272 5.90838 11.343 4.75897 9.81437 4.75897H7.7495V3.87502C7.7495 3.73695 7.86143 3.62502 7.9995 3.62502H9.29637C10.2629 3.62502 11.0464 2.84151 11.0464 1.87502V0.991089ZM4.37451 6.63397C4.71969 6.63397 4.99951 6.91379 4.99951 7.25897V7.80066H5.54126C5.88644 7.80066 6.16626 8.08048 6.16626 8.42566C6.16626 8.77084 5.88644 9.05066 5.54126 9.05066H4.99951V9.5923C4.99951 9.93748 4.71969 10.2173 4.37451 10.2173C4.02933 10.2173 3.74951 9.93748 3.74951 9.5923V9.05066H3.20792C2.86275 9.05066 2.58292 8.77084 2.58292 8.42566C2.58292 8.08048 2.86275 7.80066 3.20792 7.80066H3.74951V7.25897C3.74951 6.91379 4.02933 6.63397 4.37451 6.63397ZM9.26513 9.67566C9.61031 9.67566 9.89013 9.39584 9.89013 9.05066C9.89013 8.70548 9.61031 8.42566 9.26513 8.42566C8.91996 8.42566 8.64013 8.70548 8.64013 9.05066C8.64013 9.39584 8.91996 9.67566 9.26513 9.67566ZM11.1401 7.50116C11.1401 7.84634 10.8603 8.12616 10.5151 8.12616C10.1699 8.12616 9.89013 7.84634 9.89013 7.50116C9.89013 7.15598 10.1699 6.87616 10.5151 6.87616C10.8603 6.87616 11.1401 7.15598 11.1401 7.50116Z" fill="black"/>
</g>
<defs>
<clipPath id="clip0_1068_187768">
<rect width="14" height="14" fill="white"/>
</clipPath>
</defs>
</svg>
