<svg width="14" height="14" viewBox="0 0 14 14" fill="none" xmlns="http://www.w3.org/2000/svg">
<path fill-rule="evenodd" clip-rule="evenodd" d="M5.33325 1.85417C5.33325 0.933692 6.07944 0.1875 6.99992 0.1875C7.92039 0.1875 8.66658 0.933692 8.66658 1.85417C8.66658 2.50484 8.29372 3.06843 7.75 3.34291V4.8125H10.5C11.8807 4.8125 13 5.93179 13 7.3125V11.3125C13 12.6932 11.8807 13.8125 10.5 13.8125H3.5C2.11929 13.8125 1 12.6932 1 11.3125V7.3125C1 5.93179 2.11929 4.8125 3.5 4.8125H6.25V3.34299C5.70619 3.06854 5.33325 2.50491 5.33325 1.85417ZM9.20474 11.1788C9.44154 10.9276 9.42991 10.5321 9.17876 10.2953C8.92761 10.0585 8.53205 10.0701 8.29526 10.3212C8.06978 10.5604 7.58797 10.7436 7 10.7436C6.41203 10.7436 5.93022 10.5604 5.70474 10.3212C5.46795 10.0701 5.07239 10.0585 4.82124 10.2953C4.57009 10.5321 4.55846 10.9276 4.79526 11.1788C5.34745 11.7644 6.22681 11.9936 7 11.9936C7.77319 11.9936 8.65255 11.7644 9.20474 11.1788ZM5.04175 9.04163C5.45596 9.04163 5.79175 8.70584 5.79175 8.29163C5.79175 7.87741 5.45596 7.54163 5.04175 7.54163C4.62753 7.54163 4.29175 7.87741 4.29175 8.29163C4.29175 8.70584 4.62753 9.04163 5.04175 9.04163ZM9.70825 8.29163C9.70825 8.70584 9.37247 9.04163 8.95825 9.04163C8.54404 9.04163 8.20825 8.70584 8.20825 8.29163C8.20825 7.87741 8.54404 7.54163 8.95825 7.54163C9.37247 7.54163 9.70825 7.87741 9.70825 8.29163Z" fill="black"/>
</svg>
