<svg width="14" height="14" viewBox="0 0 14 14" fill="none" xmlns="http://www.w3.org/2000/svg">
<path fill-rule="evenodd" clip-rule="evenodd" d="M5.43693 1.60843C5.43693 0.745604 6.13639 0.0461426 6.99922 0.0461426C7.86205 0.0461426 8.56151 0.745604 8.56151 1.60843C8.56151 2.19946 8.23332 2.71384 7.74923 2.97926V4.05454C9.05295 4.16913 10.2477 4.58724 11.1692 5.31333C12.2777 6.18685 12.9575 7.48221 12.9575 9.12299V9.4873H11.5183C10.9742 9.4873 10.4661 9.75964 10.165 10.2128L9.87143 10.6544C9.80192 10.759 9.68468 10.8218 9.55912 10.8218H4.43932C4.31375 10.8218 4.19652 10.759 4.12701 10.6544L3.83351 10.2128C3.53232 9.75964 3.0243 9.4873 2.48017 9.4873H1.04694L1.04102 9.48733V9.12299C1.04102 7.48221 1.72077 6.18685 2.82933 5.31333C3.75079 4.58724 4.94551 4.16913 6.24923 4.05454V2.97927C5.76513 2.71385 5.43693 2.19947 5.43693 1.60843ZM1.04102 10.7373V12.4537C1.04102 13.2822 1.71259 13.9537 2.54102 13.9537H11.4575C12.2859 13.9537 12.9575 13.2822 12.9575 12.4537V10.7373H11.5183C11.3927 10.7373 11.2755 10.8002 11.206 10.9047L10.9125 11.3463C10.6113 11.7995 10.1033 12.0718 9.55912 12.0718H4.43932C3.89519 12.0718 3.38718 11.7995 3.08598 11.3463L2.79248 10.9047C2.72298 10.8002 2.60574 10.7373 2.48017 10.7373H1.04694H1.04102ZM4.74923 7C4.33502 7 3.99923 7.33579 3.99923 7.75C3.99923 8.16421 4.33502 8.5 4.74923 8.5C5.16345 8.5 5.49923 8.16421 5.49923 7.75C5.49923 7.33579 5.16345 7 4.74923 7ZM8.49923 7.75C8.49923 7.33579 8.83502 7 9.24923 7C9.66345 7 9.99923 7.33579 9.99923 7.75C9.99923 8.16421 9.66345 8.5 9.24923 8.5C8.83502 8.5 8.49923 8.16421 8.49923 7.75Z" fill="black"/>
</svg>
