<svg width="14" height="14" viewBox="0 0 14 14" fill="none" xmlns="http://www.w3.org/2000/svg">
<g clip-path="url(#clip0_1068_187759)">
<path fill-rule="evenodd" clip-rule="evenodd" d="M0.127136 1.84993C0.127136 1.7387 0.181743 1.56716 0.421392 1.34359C0.661999 1.11914 1.04417 0.888229 1.56868 0.681271C2.61399 0.26882 4.10075 0 5.77456 0C7.44837 0 8.93513 0.26882 9.98044 0.681271C10.505 0.888229 10.8871 1.11914 11.1277 1.34359C11.3674 1.56716 11.422 1.7387 11.422 1.84993C11.422 1.96117 11.3674 2.13271 11.1277 2.35628C10.8871 2.58073 10.505 2.81164 9.98044 3.0186C8.93513 3.43105 7.44837 3.69987 5.77456 3.69987C4.10075 3.69987 2.61399 3.43105 1.56868 3.0186C1.04417 2.81164 0.661999 2.58073 0.421392 2.35628C0.181743 2.13271 0.127136 1.96117 0.127136 1.84993ZM11.5493 3.61105C11.2265 3.82971 10.8496 4.01942 10.4392 4.18136C9.21437 4.66466 7.56492 4.94987 5.77456 4.94987C3.98421 4.94987 2.33476 4.66466 1.10989 4.18136C0.69954 4.01944 0.322693 3.82976 0 3.61114V6.19555C0.0393004 6.28855 0.11786 6.40338 0.265907 6.53799C0.514315 6.76386 0.908625 6.99598 1.44885 7.20381C2.52512 7.61785 4.05431 7.88729 5.77461 7.88729C6.22613 7.88729 6.66449 7.86873 7.08494 7.83386C7.39823 7.69108 7.73876 7.64075 8.06909 7.67767C8.12534 7.46982 8.22062 7.26731 8.36287 7.08024C8.65282 6.69893 9.03695 6.51574 9.32459 6.42549C9.86775 6.25507 10.4423 6.29886 10.7381 6.33494C10.9533 6.36118 11.163 6.40235 11.3663 6.45727C11.4621 6.35692 11.5181 6.26931 11.5493 6.19547V3.61105ZM1.00004 8.37046C2.18102 8.82478 3.74917 9.10404 5.46139 9.13451C5.16914 9.57172 5.06827 10.1213 5.20552 10.6489C5.306 11.0351 5.52372 11.3695 5.81692 11.6148C5.85703 11.8295 5.91271 12.0393 5.98285 12.2431C5.91374 12.2441 5.84433 12.2447 5.77463 12.2447C2.58526 12.2447 0 11.1359 0 9.76972V7.8876C0.29836 8.06982 0.636259 8.23051 1.00004 8.37046ZM13.4034 10.7476L13.4611 10.7556C13.7115 10.7904 13.9163 10.9727 13.9799 11.2173C14.0435 11.462 13.9536 11.7208 13.7519 11.8733L12.9109 12.5089C12.6699 12.691 12.3397 12.6721 12.1215 12.48C12.0903 12.4526 12.0614 12.4216 12.0354 12.3872L11.3998 11.5462C11.2664 11.3697 11.2375 11.1382 11.3181 10.937C11.3296 10.9083 11.3434 10.8801 11.3594 10.8529C11.4874 10.6349 11.7341 10.5155 11.9845 10.5503L12.1448 10.5726C12.0664 9.7334 11.449 9.02387 10.6068 8.84511C10.5506 8.8332 10.4935 8.82364 10.4354 8.81656C10.2724 8.79668 10.1125 8.79744 9.958 8.81647C9.65823 8.85338 9.38194 8.67154 9.2893 8.396C9.27606 8.35663 9.26658 8.31536 9.2613 8.27253L9.26106 8.27053C9.23066 8.01926 9.31193 7.85143 9.45256 7.74164C9.5461 7.6532 9.66768 7.59278 9.80524 7.57584C9.92995 7.56048 10.0564 7.5524 10.1841 7.55195C10.3283 7.55051 10.4684 7.56132 10.5867 7.57575C12.21 7.77372 13.401 9.15311 13.4034 10.7476ZM7.48419 9.04251C7.75956 8.83438 8.15152 8.88888 8.35965 9.16425L8.99531 10.0053C9.14774 10.2069 9.16367 10.4805 9.03569 10.6985C8.9077 10.9165 8.661 11.036 8.41062 11.0012L8.24998 10.9788C8.33344 11.8742 9.03033 12.6221 9.95943 12.7354C10.1224 12.7552 10.2823 12.7545 10.4368 12.7355C10.7794 12.6933 11.0914 12.9368 11.1335 13.2794C11.1757 13.622 10.9322 13.9339 10.5896 13.9761C10.3349 14.0075 10.0729 14.0085 9.80811 13.9762C8.38757 13.8029 7.2981 12.725 7.04651 11.3899C7.01057 11.1991 6.99172 11.0031 6.99146 10.8038L6.93396 10.7958C6.71488 10.7653 6.53073 10.622 6.44548 10.4228C6.4333 10.3943 6.42314 10.3647 6.41519 10.3341C6.35949 10.1201 6.42143 9.89509 6.57288 9.74008C6.59452 9.71794 6.61798 9.69722 6.64319 9.67817L7.48419 9.04251Z" fill="black"/>
</g>
<defs>
<clipPath id="clip0_1068_187759">
<rect width="14" height="14" fill="white"/>
</clipPath>
</defs>
</svg>
