<svg width="14" height="14" viewBox="0 0 14 14" fill="none" xmlns="http://www.w3.org/2000/svg">
<g clip-path="url(#clip0_1068_187756)">
<path fill-rule="evenodd" clip-rule="evenodd" d="M1.50003 0.407227C0.671604 0.407227 3.23653e-05 1.0788 2.96235e-05 1.90722L0 4.8318C0 5.66023 0.671573 6.3318 1.5 6.3318H12.5C13.3284 6.3318 14 5.66023 14 4.83181V1.90723C14 1.0788 13.3285 0.407227 12.5 0.407227H1.50003ZM2.96235e-05 9.16825C3.23653e-05 8.33983 0.671604 7.66826 1.50003 7.66826H12.5C13.3285 7.66826 14 8.33983 14 9.16826V12.0928C14 12.9212 13.3284 13.5928 12.5 13.5928H1.5C0.671573 13.5928 0 12.9212 0 12.0928L2.96235e-05 9.16825ZM2.04645 3.36952C2.04645 2.7482 2.55013 2.24452 3.17145 2.24452C3.79277 2.24452 4.29645 2.7482 4.29645 3.36952C4.29645 3.99084 3.79277 4.49452 3.17145 4.49452C2.55013 4.49452 2.04645 3.99084 2.04645 3.36952ZM2.04645 10.6305C2.04645 10.0092 2.55013 9.50555 3.17145 9.50555C3.79277 9.50555 4.29645 10.0092 4.29645 10.6305C4.29645 11.2518 3.79277 11.7555 3.17145 11.7555C2.55013 11.7555 2.04645 11.2518 2.04645 10.6305ZM6.875 3.36952C6.875 3.02434 7.15482 2.74452 7.5 2.74452H11C11.3452 2.74452 11.625 3.02434 11.625 3.36952C11.625 3.7147 11.3452 3.99452 11 3.99452H7.5C7.15482 3.99452 6.875 3.7147 6.875 3.36952ZM7.5 10.0055C7.15482 10.0055 6.875 10.2853 6.875 10.6305C6.875 10.9757 7.15482 11.2555 7.5 11.2555H11C11.3452 11.2555 11.625 10.9757 11.625 10.6305C11.625 10.2853 11.3452 10.0055 11 10.0055H7.5Z" fill="black"/>
</g>
<defs>
<clipPath id="clip0_1068_187756">
<rect width="14" height="14" fill="white"/>
</clipPath>
</defs>
</svg>
