<svg width="14" height="14" viewBox="0 0 14 14" fill="none" xmlns="http://www.w3.org/2000/svg">
<g clip-path="url(#clip0_1068_187799)">
<path fill-rule="evenodd" clip-rule="evenodd" d="M0.127136 1.84993C0.127136 1.7387 0.181743 1.56716 0.421392 1.34359C0.661999 1.11914 1.04417 0.888229 1.56868 0.681271C2.61399 0.26882 4.10075 0 5.77456 0C7.44837 0 8.93513 0.26882 9.98044 0.681271C10.505 0.888229 10.8871 1.11914 11.1277 1.34359C11.3674 1.56716 11.422 1.7387 11.422 1.84993C11.422 1.96117 11.3674 2.13271 11.1277 2.35628C10.8871 2.58073 10.505 2.81164 9.98044 3.0186C8.93513 3.43105 7.44837 3.69987 5.77456 3.69987C4.10075 3.69987 2.61399 3.43105 1.56868 3.0186C1.04417 2.81164 0.661999 2.58073 0.421392 2.35628C0.181743 2.13271 0.127136 1.96117 0.127136 1.84993ZM11.5493 3.61105C11.2265 3.82971 10.8496 4.01942 10.4392 4.18136C9.21437 4.66466 7.56492 4.94987 5.77456 4.94987C3.98421 4.94987 2.33476 4.66466 1.10989 4.18136C0.69954 4.01944 0.322693 3.82976 0 3.61114V6.19555C0.0393004 6.28855 0.11786 6.40338 0.265907 6.53799C0.514315 6.76386 0.908625 6.99598 1.44885 7.20381C2.5198 7.6158 4.03921 7.88462 5.74912 7.88727C5.79336 7.7282 5.85815 7.57206 5.94448 7.42243C6.45854 6.53139 7.55467 6.18557 8.47567 6.58814C8.58719 5.58918 9.4345 4.8125 10.4632 4.8125C10.8636 4.8125 11.2365 4.93015 11.5493 5.13277V3.61105ZM5.77461 9.13729L5.8091 9.13725C5.94223 9.48546 6.17295 9.7985 6.48915 10.0313C5.7958 10.5416 5.51346 11.438 5.7698 12.2447C2.58265 12.2435 0 11.1352 0 9.76972V7.8876C0.29836 8.06982 0.636259 8.23051 1.00004 8.37046C2.25268 8.85234 3.94091 9.13729 5.77461 9.13729ZM11.2133 6.8125C11.2133 6.39829 10.8775 6.0625 10.4633 6.0625C10.049 6.0625 9.71326 6.39829 9.71326 6.8125V7.55231C9.32731 7.66895 8.97941 7.87326 8.69272 8.14207L8.05167 7.77224C7.69289 7.56524 7.23424 7.6883 7.02724 8.04708C6.82025 8.40587 6.94331 8.86452 7.30209 9.07151L7.94182 9.44059C7.89756 9.63031 7.87415 9.82805 7.87415 10.0313C7.87415 10.2345 7.89756 10.4322 7.94182 10.6219L7.30209 10.991C6.94331 11.198 6.82025 11.6566 7.02724 12.0154C7.23424 12.3742 7.69289 12.4973 8.05167 12.2903L8.69272 11.9204C8.9794 12.1893 9.3273 12.3936 9.71326 12.5102V13.25C9.71326 13.6642 10.049 14 10.4633 14C10.8775 14 11.2133 13.6642 11.2133 13.25V12.5103C11.5993 12.3937 11.9473 12.1894 12.2341 11.9205L12.8751 12.2903C13.2339 12.4973 13.6925 12.3742 13.8995 12.0154C14.1065 11.6566 13.9834 11.198 13.6247 10.991L12.985 10.622C13.0293 10.4322 13.0527 10.2345 13.0527 10.0313C13.0527 9.82803 13.0293 9.63027 12.985 9.44053L13.6247 9.07151C13.9834 8.86452 14.1065 8.40587 13.8995 8.04708C13.6925 7.6883 13.2339 7.56524 12.8751 7.77224L12.2341 8.14203C11.9473 7.87315 11.5993 7.66882 11.2133 7.5522V6.8125ZM9.52206 9.4864C9.51518 9.49832 9.50803 9.50998 9.5006 9.52138C9.41988 9.6735 9.37415 9.84704 9.37415 10.0313C9.37415 10.2155 9.41987 10.389 9.50058 10.5411C9.50801 10.5525 9.51517 10.5642 9.52206 10.5761C9.52859 10.5874 9.5348 10.5989 9.54068 10.6104C9.73284 10.9159 10.0726 11.1193 10.4599 11.1205H10.4633H10.4668C10.8538 11.1194 11.1932 10.9164 11.3855 10.6114C11.3916 10.5996 11.398 10.5878 11.4047 10.5761C11.4118 10.5638 11.4192 10.5518 11.4268 10.5401C11.5072 10.3882 11.5527 10.215 11.5527 10.0313C11.5527 9.84745 11.5072 9.67428 11.4268 9.5224C11.4191 9.51068 11.4118 9.49868 11.4047 9.4864C11.398 9.47474 11.3916 9.46298 11.3856 9.45113C11.1927 9.14521 10.8518 8.94197 10.4634 8.94197C10.0746 8.94197 9.73341 9.14567 9.54066 9.45217C9.53478 9.46367 9.52858 9.47509 9.52206 9.4864Z" fill="black"/>
</g>
<defs>
<clipPath id="clip0_1068_187799">
<rect width="14" height="14" fill="white"/>
</clipPath>
</defs>
</svg>
