<svg width="14" height="14" viewBox="0 0 14 14" fill="none" xmlns="http://www.w3.org/2000/svg">
<g clip-path="url(#clip0_1068_187802)">
<path fill-rule="evenodd" clip-rule="evenodd" d="M0.256042 1.96175C0.256042 1.85051 0.310648 1.67897 0.550298 1.4554C0.790904 1.23095 1.17309 1.00004 1.6976 0.793086C2.7429 0.380636 4.22965 0.111816 5.90346 0.111816C7.57728 0.111816 9.06404 0.380636 10.1093 0.793086C10.6338 1.00004 11.016 1.23095 11.2566 1.4554C11.4962 1.67897 11.5509 1.85051 11.5509 1.96175C11.5509 2.07298 11.4962 2.24452 11.2566 2.46809C11.016 2.69254 10.6338 2.92345 10.1093 3.13041C9.06404 3.54286 7.57728 3.81168 5.90346 3.81168C4.22965 3.81168 2.7429 3.54286 1.6976 3.13041C1.17309 2.92345 0.790904 2.69254 0.550298 2.46809C0.310648 2.24452 0.256042 2.07298 0.256042 1.96175ZM11.6781 3.72286C11.3554 3.94152 10.9785 4.13123 10.5681 4.29317C9.34328 4.77647 7.69382 5.06168 5.90346 5.06168C4.11311 5.06168 2.46367 4.77647 1.2388 4.29317C0.828446 4.13125 0.451599 3.94157 0.128906 3.72295V6.30736C0.168206 6.40036 0.246766 6.51519 0.394813 6.6498C0.643221 6.87567 1.03754 7.1078 1.57776 7.31562C2.65403 7.72966 4.18322 7.9991 5.90351 7.9991C6.39361 7.9991 6.86821 7.97723 7.32123 7.93638C7.39822 7.81558 7.48945 7.70125 7.59494 7.59576C8.2843 6.9064 9.35171 6.82548 10.1298 7.35299C10.1633 7.34067 10.1965 7.32821 10.2292 7.31562C10.7695 7.1078 11.1638 6.87567 11.4122 6.6498C11.5603 6.51515 11.6388 6.40029 11.6781 6.30728V3.72286ZM5.90351 9.2491C6.28256 9.2491 6.65541 9.23693 7.01945 9.21336C7.06438 9.65547 7.25622 10.0855 7.59494 10.4242L8.30073 11.13L7.59494 11.8358C7.45739 11.9733 7.34405 12.1259 7.25495 12.2883C6.82144 12.3329 6.36893 12.3565 5.90353 12.3565C2.71416 12.3565 0.128906 11.2477 0.128906 9.88153V7.99941C0.427266 8.18163 0.765165 8.34233 1.12895 8.48228C2.38159 8.96416 4.06981 9.2491 5.90351 9.2491ZM11.1222 8.29466L11.1481 8.28261L11.1291 8.30155L11.1222 8.29466ZM13.7794 8.47964C14.0723 8.77254 14.0723 9.24742 13.7794 9.54031L12.1898 11.13L13.7794 12.7197C14.0723 13.0126 14.0723 13.4874 13.7794 13.7803C13.4865 14.0732 13.0117 14.0732 12.7188 13.7803L11.1291 12.1907L9.53949 13.7803C9.2466 14.0732 8.77172 14.0732 8.47883 13.7803C8.18594 13.4874 8.18594 13.0126 8.47883 12.7197L10.0684 11.13L8.47883 9.54031C8.18594 9.24742 8.18594 8.77254 8.47883 8.47964C8.77172 8.18676 9.2466 8.18676 9.53949 8.47964L11.1291 10.0693L12.7188 8.47964C13.0117 8.18676 13.4865 8.18676 13.7794 8.47964Z" fill="black"/>
</g>
<defs>
<clipPath id="clip0_1068_187802">
<rect width="14" height="14" fill="white"/>
</clipPath>
</defs>
</svg>
