<svg width="14" height="14" viewBox="0 0 14 14" fill="none" xmlns="http://www.w3.org/2000/svg">
<g clip-path="url(#clip0_1068_187750)">
<path fill-rule="evenodd" clip-rule="evenodd" d="M0.127136 1.84993C0.127136 1.7387 0.181743 1.56716 0.421392 1.34359C0.661999 1.11914 1.04417 0.888229 1.56868 0.681271C2.61399 0.26882 4.10075 0 5.77456 0C7.44837 0 8.93513 0.26882 9.98044 0.681271C10.505 0.888229 10.8871 1.11914 11.1277 1.34359C11.3674 1.56716 11.422 1.7387 11.422 1.84993C11.422 1.96117 11.3674 2.13271 11.1277 2.35628C10.8871 2.58073 10.505 2.81164 9.98044 3.0186C8.93513 3.43105 7.44837 3.69987 5.77456 3.69987C4.10075 3.69987 2.61399 3.43105 1.56868 3.0186C1.04417 2.81164 0.661999 2.58073 0.421392 2.35628C0.181743 2.13271 0.127136 1.96117 0.127136 1.84993ZM11.5493 3.61105C11.2265 3.82971 10.8496 4.01942 10.4392 4.18136C9.21437 4.66466 7.56492 4.94987 5.77456 4.94987C3.98421 4.94987 2.33476 4.66466 1.10989 4.18136C0.69954 4.01944 0.322693 3.82976 0 3.61114V6.19555C0.0393004 6.28855 0.11786 6.40338 0.265907 6.53799C0.514315 6.76386 0.908625 6.99598 1.44885 7.20381C2.52512 7.61785 4.05431 7.88729 5.77461 7.88729C6.07745 7.88729 6.37437 7.87894 6.66393 7.86292C7.15382 6.20767 8.68588 5 10.5 5C10.8631 5 11.2149 5.04838 11.5493 5.13903V3.61105ZM5.77461 9.13729C5.92196 9.13729 6.06838 9.13545 6.2137 9.13181C5.92293 9.51061 5.75 9.98473 5.75 10.5V12.2446C2.57196 12.2389 0 11.1324 0 9.76972V7.8876C0.29836 8.06982 0.636259 8.23051 1.00004 8.37046C2.25268 8.85234 3.94091 9.13729 5.77461 9.13729ZM10.5 7.75C9.80964 7.75 9.25 8.30964 9.25 9V9.5H11.75V9C11.75 8.30964 11.1904 7.75 10.5 7.75ZM7.75 9V9.5315C7.31869 9.64252 7 10.034 7 10.5V13C7 13.5523 7.44772 14 8 14H13C13.5523 14 14 13.5523 14 13V10.5C14 10.034 13.6813 9.64252 13.25 9.5315V9C13.25 7.48122 12.0188 6.25 10.5 6.25C8.98122 6.25 7.75 7.48122 7.75 9Z" fill="black"/>
</g>
<defs>
<clipPath id="clip0_1068_187750">
<rect width="14" height="14" fill="white"/>
</clipPath>
</defs>
</svg>
