<svg width="14" height="14" viewBox="0 0 14 14" fill="none" xmlns="http://www.w3.org/2000/svg">
<g clip-path="url(#clip0_1068_187786)">
<path fill-rule="evenodd" clip-rule="evenodd" d="M0.27948 1.96175C0.27948 1.85052 0.334086 1.67897 0.573736 1.45541C0.814343 1.23095 1.19651 1.00005 1.72102 0.793087C2.76633 0.380637 4.25309 0.111816 5.9269 0.111816C7.60071 0.111816 9.08747 0.380637 10.1328 0.793087C10.6573 1.00005 11.0395 1.23095 11.2801 1.45541C11.5197 1.67897 11.5743 1.85052 11.5743 1.96175C11.5743 2.07298 11.5197 2.24453 11.2801 2.46809C11.0395 2.69255 10.6573 2.92346 10.1328 3.13041C9.08747 3.54286 7.60071 3.81168 5.9269 3.81168C4.25309 3.81168 2.76633 3.54286 1.72102 3.13041C1.19651 2.92346 0.814343 2.69255 0.573736 2.46809C0.334086 2.24453 0.27948 2.07298 0.27948 1.96175ZM11.7016 3.72286C11.3789 3.94153 11.002 4.13124 10.5916 4.29317C9.36671 4.77647 7.71726 5.06168 5.9269 5.06168C4.13655 5.06168 2.48709 4.77647 1.26223 4.29317C0.851884 4.13126 0.475037 3.94158 0.152344 3.72295V6.30737C0.191644 6.40036 0.270204 6.51519 0.418251 6.64981C0.666659 6.87567 1.06096 7.1078 1.60119 7.31562C2.67746 7.72966 4.20665 7.9991 5.92695 7.9991C6.19764 7.9991 6.46359 7.99243 6.7238 7.97958C7.56176 6.74078 8.97973 5.92645 10.5879 5.92645C10.9718 5.92645 11.3447 5.97284 11.7016 6.06031V3.72286ZM5.92695 9.2491C5.99204 9.2491 6.05695 9.24874 6.12168 9.24803C5.99448 9.67249 5.92614 10.1224 5.92614 10.5882C5.92614 11.2125 6.04884 11.808 6.27142 12.3522C6.15746 12.355 6.04261 12.3565 5.92697 12.3565C2.7376 12.3565 0.152344 11.2477 0.152344 9.88155V7.99942C0.450704 8.18164 0.788603 8.34233 1.15238 8.48227C2.40502 8.96416 4.09324 9.2491 5.92695 9.2491ZM10.5879 14C12.4722 14 13.9997 12.4725 13.9997 10.5882C13.9997 8.70396 12.4722 7.17645 10.5879 7.17645C8.70365 7.17645 7.17614 8.70396 7.17614 10.5882C7.17614 12.4725 8.70365 14 10.5879 14ZM8.47198 10.5882C8.47198 10.243 8.75181 9.96323 9.09698 9.96323H12.0788C12.424 9.96323 12.7038 10.243 12.7038 10.5882C12.7038 10.9334 12.424 11.2132 12.0788 11.2132H9.09698C8.75181 11.2132 8.47198 10.9334 8.47198 10.5882Z" fill="black"/>
</g>
<defs>
<clipPath id="clip0_1068_187786">
<rect width="14" height="14" fill="white"/>
</clipPath>
</defs>
</svg>
