<svg width="14" height="14" viewBox="0 0 14 14" fill="none" xmlns="http://www.w3.org/2000/svg">
<g clip-path="url(#clip0_1068_187753)">
<path fill-rule="evenodd" clip-rule="evenodd" d="M0.55188 2.27781C0.55188 2.12293 0.6289 1.90982 0.909084 1.64844C1.19023 1.38617 1.63106 1.12121 2.22805 0.885658C3.41831 0.416012 5.10532 0.111816 7.00033 0.111816C8.89534 0.111816 10.5824 0.416012 11.7726 0.885658C12.3696 1.12121 12.8105 1.38617 13.0916 1.64844C13.3718 1.90982 13.4488 2.12293 13.4488 2.27781C13.4488 2.43268 13.3718 2.6458 13.0916 2.90717C12.8105 3.16944 12.3696 3.4344 11.7726 3.66996C10.5824 4.13961 8.89534 4.4438 7.00033 4.4438C5.10532 4.4438 3.41831 4.13961 2.22805 3.66996C1.63106 3.4344 1.19023 3.16944 0.909084 2.90717C0.6289 2.6458 0.55188 2.43268 0.55188 2.27781ZM13.5125 4.16706C13.1452 4.42228 12.7099 4.64392 12.2314 4.83272C10.8616 5.37321 9.01188 5.6938 7.00033 5.6938C4.98878 5.6938 3.13907 5.37321 1.76925 4.83272C1.2908 4.64393 0.855523 4.42231 0.488281 4.1671V7.34491C0.54425 7.42981 0.623747 7.52292 0.734474 7.6236C1.02447 7.88728 1.47895 8.15346 2.09352 8.38989C3.31851 8.86114 5.05313 9.16597 7.00037 9.16597C8.9476 9.16597 10.6823 8.86114 11.9072 8.38989C12.5218 8.15346 12.9763 7.88728 13.2663 7.6236C13.377 7.52293 13.4565 7.42982 13.5125 7.34492V4.16706ZM0.488281 11.209V8.99271C0.829445 9.20553 1.22041 9.39331 1.64472 9.55654C3.04606 10.0957 4.93973 10.416 7.00037 10.416C9.061 10.416 10.9547 10.0957 12.356 9.55654C12.7803 9.39331 13.1713 9.20554 13.5125 8.99271V11.209C13.5125 12.7496 10.5971 14 7.00036 14C3.40369 14 0.488281 12.7496 0.488281 11.209Z" fill="black"/>
</g>
<defs>
<clipPath id="clip0_1068_187753">
<rect width="14" height="14" fill="white"/>
</clipPath>
</defs>
</svg>
