<svg width="14" height="14" viewBox="0 0 14 14" fill="none" xmlns="http://www.w3.org/2000/svg">
<g clip-path="url(#clip0_1068_187777)">
<path fill-rule="evenodd" clip-rule="evenodd" d="M0.193603 1.96883C0.193603 1.8576 0.248209 1.68606 0.487859 1.46249C0.728466 1.23804 1.11064 1.00713 1.63515 0.800166C2.68046 0.387717 4.16722 0.118896 5.84103 0.118896C7.51484 0.118896 9.0016 0.387717 10.0469 0.800166C10.5714 1.00713 10.9536 1.23804 11.1942 1.46249C11.4338 1.68606 11.4884 1.8576 11.4884 1.96883C11.4884 2.08007 11.4338 2.25161 11.1942 2.47518C10.9536 2.69963 10.5714 2.93054 10.0469 3.1375C9.0016 3.54995 7.51484 3.81877 5.84103 3.81877C4.16722 3.81877 2.68046 3.54995 1.63515 3.1375C1.11064 2.93054 0.728466 2.69963 0.487859 2.47518C0.248209 2.25161 0.193603 2.08007 0.193603 1.96883ZM11.6157 3.72999C11.2929 3.94863 10.9161 4.13833 10.5057 4.30026C9.28084 4.78356 7.63139 5.06877 5.84103 5.06877C4.05068 5.06877 2.40122 4.78356 1.17636 4.30026C0.765981 4.13833 0.389112 3.94864 0.0664062 3.72999V6.31445C0.105706 6.40745 0.184266 6.52227 0.332313 6.65689C0.580721 6.88276 0.975031 7.11489 1.51525 7.32271C2.59153 7.73675 4.12072 8.00619 5.84102 8.00619C7.56132 8.00619 9.0905 7.73675 10.1668 7.32271C10.707 7.11489 11.1013 6.88276 11.3497 6.65689C11.4978 6.52223 11.5764 6.40738 11.6157 6.31437V3.72999ZM0.0664062 9.88862V8.00649C0.364766 8.18871 0.702665 8.34941 1.06645 8.48936C2.31908 8.97124 4.00731 9.25619 5.84102 9.25619C7.67472 9.25619 9.36295 8.97124 10.6156 8.48936L10.645 8.47796L8.91254 10.427L8.38475 10.0311C7.5011 9.36844 6.24749 9.54753 5.58475 10.4311C5.1553 11.0037 5.07933 11.7317 5.31949 12.3535C2.37453 12.2405 0.0664062 11.1794 0.0664062 9.88862ZM13.7453 9.12946C14.0205 8.81987 13.9926 8.34581 13.683 8.07062C13.3734 7.79543 12.8994 7.82332 12.6242 8.13291L9.08267 12.1171L7.63475 11.0311C7.30338 10.7826 6.83328 10.8498 6.58475 11.1811C6.33623 11.5125 6.40338 11.9826 6.73475 12.2311L8.73475 13.7311C9.04681 13.9652 9.48616 13.9209 9.74531 13.6294L13.7453 9.12946Z" fill="black"/>
</g>
<defs>
<clipPath id="clip0_1068_187777">
<rect width="14" height="14" fill="white"/>
</clipPath>
</defs>
</svg>
