<svg width="14" height="14" viewBox="0 0 14 14" fill="none" xmlns="http://www.w3.org/2000/svg">
<g clip-path="url(#clip0_1068_187774)">
<path fill-rule="evenodd" clip-rule="evenodd" d="M0 1.5C0 0.671573 0.671573 0 1.5 0H12.5C13.3284 0 14 0.671573 14 1.5V3C14 3.82843 13.3284 4.5 12.5 4.5H1.5C0.671573 4.5 0 3.82843 0 3V1.5ZM0 7.5C0 6.67157 0.671573 6 1.5 6H12.5C13.3284 6 14 6.67157 14 7.5V9C14 9.82843 13.3284 10.5 12.5 10.5H7.75V12.4868H12C12.4142 12.4868 12.75 12.8226 12.75 13.2368C12.75 13.651 12.4142 13.9868 12 13.9868H7H2C1.58579 13.9868 1.25 13.651 1.25 13.2368C1.25 12.8226 1.58579 12.4868 2 12.4868H6.25V10.5H1.5C0.671573 10.5 0 9.82843 0 9V7.5ZM3.5 2.25C3.5 2.66421 3.16421 3 2.75 3C2.33579 3 2 2.66421 2 2.25C2 1.83579 2.33579 1.5 2.75 1.5C3.16421 1.5 3.5 1.83579 3.5 2.25ZM7.83057 1.625C7.48539 1.625 7.20557 1.90482 7.20557 2.25C7.20557 2.59518 7.48539 2.875 7.83057 2.875H11C11.3452 2.875 11.625 2.59518 11.625 2.25C11.625 1.90482 11.3452 1.625 11 1.625H7.83057ZM3.5 8.25C3.5 8.66421 3.16421 9 2.75 9C2.33579 9 2 8.66421 2 8.25C2 7.83579 2.33579 7.5 2.75 7.5C3.16421 7.5 3.5 7.83579 3.5 8.25ZM7.20557 8.25C7.20557 7.90482 7.48539 7.625 7.83057 7.625H11C11.3452 7.625 11.625 7.90482 11.625 8.25C11.625 8.59518 11.3452 8.875 11 8.875H7.83057C7.48539 8.875 7.20557 8.59518 7.20557 8.25Z" fill="black"/>
</g>
<defs>
<clipPath id="clip0_1068_187774">
<rect width="14" height="14" fill="white"/>
</clipPath>
</defs>
</svg>
