<svg width="14" height="14" viewBox="0 0 14 14" fill="none" xmlns="http://www.w3.org/2000/svg">
<path fill-rule="evenodd" clip-rule="evenodd" d="M3.31614 10.4626C3.69614 10.9087 4.25269 11.1658 4.83874 11.1658H11.0211C12.1256 11.1658 13.0211 10.2703 13.0211 9.16573V4.83423C13.0211 3.72966 12.1256 2.83423 11.0211 2.83423H4.83874C4.25269 2.83423 3.69614 3.09127 3.31614 3.53742L1.47155 5.70317C0.835004 6.45054 0.835004 7.54942 1.47155 8.29679L3.31614 10.4626ZM5.48076 4.74526C5.72484 4.50118 6.12057 4.50118 6.36464 4.74526L7.71439 6.095L9.06414 4.74526C9.30821 4.50118 9.70394 4.50118 9.94802 4.74526C10.1921 4.98934 10.1921 5.38506 9.94802 5.62914L8.59827 6.97889L9.94804 8.32865C10.1921 8.57273 10.1921 8.96846 9.94804 9.21254C9.70396 9.45661 9.30823 9.45661 9.06415 9.21254L7.71439 7.86277L6.36462 9.21254C6.12055 9.45661 5.72482 9.45661 5.48074 9.21254C5.23666 8.96846 5.23666 8.57273 5.48074 8.32865L6.83051 6.97889L5.48076 5.62914C5.23668 5.38506 5.23668 4.98934 5.48076 4.74526Z" fill="black"/>
</svg>
