<svg width="14" height="14" viewBox="0 0 14 14" fill="none" xmlns="http://www.w3.org/2000/svg">
<g clip-path="url(#clip0_1068_187808)">
<path fill-rule="evenodd" clip-rule="evenodd" d="M10.8183 0.290353L11.6645 2.00338C11.6791 2.04794 11.704 2.08843 11.7372 2.1216C11.7704 2.15476 11.8109 2.17966 11.8554 2.19429L13.749 2.46776C13.8033 2.47549 13.8543 2.49836 13.8962 2.53376C13.9381 2.56915 13.9692 2.61563 13.9859 2.66787C14.0026 2.7201 14.0042 2.77599 13.9906 2.82912C13.977 2.88224 13.9487 2.93046 13.909 2.96825L12.5571 4.3201C12.525 4.3542 12.5009 4.39508 12.4866 4.43973C12.4723 4.48437 12.4682 4.53165 12.4746 4.57809L12.8048 6.41495C12.8144 6.46872 12.8087 6.52409 12.7884 6.57478C12.768 6.62547 12.7339 6.66944 12.6898 6.70169C12.6457 6.73394 12.5935 6.75318 12.539 6.75722C12.4846 6.76126 12.4301 6.74993 12.3817 6.72453L10.6893 5.83706C10.6482 5.81436 10.6021 5.80245 10.5552 5.80245C10.5082 5.80245 10.4621 5.81436 10.421 5.83706L8.72862 6.72453C8.68027 6.74993 8.62577 6.76126 8.5713 6.75722C8.51684 6.75318 8.4646 6.73395 8.42052 6.70169C8.37644 6.66944 8.3423 6.62547 8.32197 6.57478C8.30164 6.52409 8.29594 6.46872 8.30552 6.41495L8.63059 4.53165C8.63697 4.48521 8.63287 4.43793 8.61858 4.39329C8.60429 4.34864 8.58019 4.30777 8.54803 4.27366L7.19618 2.92181C7.16212 2.88487 7.13817 2.83975 7.12665 2.79083C7.11514 2.74191 7.11645 2.69085 7.13047 2.64258C7.14448 2.59432 7.17071 2.55049 7.20663 2.51535C7.24255 2.4802 7.28694 2.45492 7.33549 2.44196L9.22911 2.16849C9.27573 2.16009 9.31968 2.14074 9.35735 2.11204C9.39503 2.08333 9.42535 2.04609 9.44582 2.00338L10.292 0.290353C10.3158 0.240758 10.3531 0.198899 10.3997 0.1696C10.4463 0.140302 10.5002 0.124756 10.5552 0.124756C10.6102 0.124756 10.6641 0.140302 10.7106 0.1696C10.7572 0.198899 10.7945 0.240758 10.8183 0.290353ZM8.51536 11H12.5C13.3284 11 14 10.3284 14 9.50003V9.00003C14 8.44775 13.5523 8.00003 13 8.00003C12.4477 8.00003 12 8.44775 12 9.00003H2V3.00003H5C5.55228 3.00003 6 2.55232 6 2.00003C6 1.44775 5.55228 1.00003 5 1.00003H1.5C0.671573 1.00003 0 1.6716 0 2.50003V9.50003C0 10.3284 0.671573 11 1.5 11H5.48479L4.94794 12.5H4C3.58579 12.5 3.25 12.8358 3.25 13.25C3.25 13.6642 3.58579 14 4 14H10C10.4142 14 10.75 13.6642 10.75 13.25C10.75 12.8358 10.4142 12.5 10 12.5H9.05221L8.51536 11Z" fill="black"/>
</g>
<defs>
<clipPath id="clip0_1068_187808">
<rect width="14" height="14" fill="white"/>
</clipPath>
</defs>
</svg>
