<svg width="14" height="14" viewBox="0 0 14 14" fill="none" xmlns="http://www.w3.org/2000/svg">
<g clip-path="url(#clip0_1068_187789)">
<path fill-rule="evenodd" clip-rule="evenodd" d="M1.5 1C0.671572 1 0 1.67157 0 2.5V9.5C0 10.3284 0.671573 11 1.5 11H5.48479L4.94794 12.5H4C3.58579 12.5 3.25 12.8358 3.25 13.25C3.25 13.6642 3.58579 14 4 14H10C10.4142 14 10.75 13.6642 10.75 13.25C10.75 12.8358 10.4142 12.5 10 12.5H9.05221L8.51536 11H9C9.55229 11 10 10.5523 10 10C10 9.44772 9.55229 9 9 9H2V3H7C7.55228 3 8 2.55228 8 2C8 1.44772 7.55228 1 7 1H1.5Z" fill="black"/>
<path fill-rule="evenodd" clip-rule="evenodd" d="M11.5826 0C11.9968 0 12.3326 0.335786 12.3326 0.75V1.27772C12.7899 1.35458 13.1947 1.5867 13.4899 1.91648C13.6616 2.10833 13.7972 2.33419 13.8853 2.58339C14.0233 2.97393 13.8186 3.40242 13.4281 3.54046C13.0376 3.67849 12.6091 3.4738 12.471 3.08326C12.4494 3.02195 12.4157 2.96545 12.3722 2.91685C12.2795 2.81336 12.1473 2.75 11.9993 2.75H11.0318C10.8298 2.75 10.666 2.91377 10.666 3.11578C10.666 3.28768 10.7857 3.43638 10.9536 3.47312L12.4267 3.79536C13.3451 3.99626 13.9993 4.80991 13.9993 5.74952C13.9993 6.74023 13.2788 7.56353 12.3326 7.72231V8.24999C12.3326 8.66421 11.9968 8.99999 11.5826 8.99999C11.1684 8.99999 10.8326 8.66421 10.8326 8.24999V7.72232C10.1091 7.60096 9.51849 7.09128 9.28001 6.41657C9.14198 6.02604 9.34667 5.59755 9.73721 5.45951C10.1277 5.32148 10.5562 5.52617 10.6942 5.91671C10.7632 6.11191 10.9495 6.24997 11.166 6.24997H11.9993C12.2751 6.24997 12.4993 6.02601 12.4993 5.74952C12.4993 5.51429 12.3354 5.31086 12.1062 5.26071L10.6331 4.93847C9.77654 4.7511 9.16602 3.99259 9.16602 3.11578C9.16602 2.15262 9.89584 1.35991 10.8326 1.2605V0.75C10.8326 0.335786 11.1684 0 11.5826 0Z" fill="black"/>
</g>
<defs>
<clipPath id="clip0_1068_187789">
<rect width="14" height="14" fill="white"/>
</clipPath>
</defs>
</svg>
