<svg width="14" height="14" viewBox="0 0 14 14" fill="none" xmlns="http://www.w3.org/2000/svg">
<g clip-path="url(#clip0_1068_187793)">
<path fill-rule="evenodd" clip-rule="evenodd" d="M0 1.83179C0 1.02723 0.652229 0.375 1.45679 0.375H12.5432C13.3478 0.375 14 1.02723 14 1.83179V9.41821C14 10.2228 13.3478 10.875 12.5432 10.875H8.51694L9.05214 12.3704H9.99998C10.4142 12.3704 10.75 12.7062 10.75 13.1204C10.75 13.5346 10.4142 13.8704 9.99998 13.8704H3.99998C3.58577 13.8704 3.24998 13.5346 3.24998 13.1204C3.24998 12.7062 3.58577 12.3704 3.99998 12.3704H4.94786L5.48306 10.875H1.45679C0.65223 10.875 0 10.2228 0 9.41821V1.83179ZM5.53033 3.59235C5.82322 3.88524 5.82322 4.36012 5.53033 4.65301L4.56066 5.62268L5.53033 6.59235C5.82322 6.88524 5.82322 7.36012 5.53033 7.65301C5.23744 7.9459 4.76256 7.9459 4.46967 7.65301L2.96967 6.15301C2.67678 5.86012 2.67678 5.38524 2.96967 5.09235L4.46967 3.59235C4.76256 3.29946 5.23744 3.29946 5.53033 3.59235ZM9.53033 3.59235C9.23744 3.29946 8.76256 3.29946 8.46967 3.59235C8.17678 3.88524 8.17678 4.36012 8.46967 4.65301L9.43934 5.62268L8.46967 6.59235C8.17678 6.88524 8.17678 7.36012 8.46967 7.65301C8.76256 7.9459 9.23744 7.9459 9.53033 7.65301L11.0303 6.15301C11.3232 5.86012 11.3232 5.38524 11.0303 5.09235L9.53033 3.59235Z" fill="black"/>
</g>
<defs>
<clipPath id="clip0_1068_187793">
<rect width="14" height="14" fill="white"/>
</clipPath>
</defs>
</svg>
