<svg width="14" height="14" viewBox="0 0 14 14" fill="none" xmlns="http://www.w3.org/2000/svg">
<g clip-path="url(#clip0_1068_187805)">
<path fill-rule="evenodd" clip-rule="evenodd" d="M11.7167 1.57608C11.5512 1.54317 11.3797 1.56006 11.2238 1.62462C11.068 1.68918 10.9347 1.79851 10.841 1.93878C10.7473 2.07906 10.6973 2.24397 10.6973 2.41267C10.6973 2.82689 10.3615 3.16267 9.94727 3.16267C9.53305 3.16267 9.19727 2.82689 9.19727 2.41267C9.19727 1.9473 9.33527 1.49237 9.59381 1.10543C9.85236 0.718483 10.2198 0.416895 10.6498 0.238804C11.0798 0.060712 11.5529 0.0141151 12.0093 0.104905C12.4657 0.195696 12.885 0.419796 13.2141 0.748866C13.5431 1.07794 13.7672 1.4972 13.858 1.95363C13.9488 2.41006 13.9022 2.88317 13.7241 3.31312C13.546 3.74307 13.2444 4.11056 12.8575 4.36911C12.6837 4.48522 12.4962 4.57702 12.3002 4.64293V4.81715C12.3002 5.23136 11.9645 5.56715 11.5502 5.56715C11.136 5.56715 10.8002 5.23136 10.8002 4.81715V4.01566C10.8002 3.60144 11.136 3.26566 11.5502 3.26566C11.719 3.26566 11.8839 3.21563 12.0241 3.1219C12.1644 3.02818 12.2737 2.89496 12.3383 2.7391C12.4029 2.58323 12.4198 2.41173 12.3868 2.24627C12.3539 2.0808 12.2727 1.92882 12.1534 1.80953C12.0341 1.69023 11.8821 1.609 11.7167 1.57608ZM11.5435 7.84664C11.0908 7.84304 10.7249 7.4749 10.7249 7.0213C10.7249 6.56546 11.0944 6.19592 11.5502 6.19592L11.5569 6.19596C12.0097 6.19956 12.3756 6.5677 12.3756 7.02131C12.3756 7.47715 12.0061 7.84668 11.5502 7.84668L11.5435 7.84664ZM8.51536 11H13C13.5523 11 14 10.5523 14 10C14 9.44772 13.5523 9 13 9H2V3H7C7.55228 3 8 2.55229 8 2C8 1.44772 7.55228 1 7 1H1.5C0.671572 1 0 1.67157 0 2.5V9.5C0 10.3284 0.671573 11 1.5 11H5.48479L4.94794 12.5H4C3.58579 12.5 3.25 12.8358 3.25 13.25C3.25 13.6642 3.58579 14 4 14H10C10.4142 14 10.75 13.6642 10.75 13.25C10.75 12.8358 10.4142 12.5 10 12.5H9.05221L8.51536 11Z" fill="black"/>
</g>
<defs>
<clipPath id="clip0_1068_187805">
<rect width="14" height="14" fill="white"/>
</clipPath>
</defs>
</svg>
