<svg width="14" height="14" viewBox="0 0 14 14" fill="none" xmlns="http://www.w3.org/2000/svg">
<g clip-path="url(#clip0_1068_187765)">
<path fill-rule="evenodd" clip-rule="evenodd" d="M13.4983 0.435789C13.8079 0.710978 13.8358 1.18504 13.5606 1.49462L9.56062 5.99462C9.30147 6.28616 8.86211 6.33039 8.55006 6.09635L6.55006 4.59635C6.21869 4.34782 6.15153 3.87772 6.40006 3.54635C6.64859 3.21498 7.11869 3.14782 7.45006 3.39635L8.89798 4.48229L12.4395 0.498073C12.7147 0.188486 13.1887 0.160601 13.4983 0.435789ZM8.51536 10.9999H12.5C13.3284 10.9999 14 10.3283 14 9.49995V7.49995C14 6.94767 13.5523 6.49995 13 6.49995C12.4477 6.49995 12 6.94767 12 7.49995V8.99995H2V2.99995H4.5C5.05228 2.99995 5.5 2.55224 5.5 1.99995C5.5 1.44767 5.05228 0.999947 4.5 0.999947H1.5C0.671573 0.999947 0 1.67152 0 2.49995V9.49995C0 10.3283 0.671573 10.9999 1.5 10.9999H5.48479L4.94794 12.4999H4C3.58579 12.4999 3.25 12.8357 3.25 13.2499C3.25 13.6641 3.58579 13.9999 4 13.9999H10C10.4142 13.9999 10.75 13.6641 10.75 13.2499C10.75 12.8357 10.4142 12.4999 10 12.4999H9.05221L8.51536 10.9999Z" fill="black"/>
</g>
<defs>
<clipPath id="clip0_1068_187765">
<rect width="14" height="14" fill="white"/>
</clipPath>
</defs>
</svg>
