<svg width="14" height="14" viewBox="0 0 14 14" fill="none" xmlns="http://www.w3.org/2000/svg">
<g clip-path="url(#clip0_1068_187783)">
<path fill-rule="evenodd" clip-rule="evenodd" d="M1.45679 0.252319C0.652229 0.252319 0 0.904549 0 1.70911V9.29553C0 10.1001 0.65223 10.7523 1.45679 10.7523H5.48306L4.94786 12.2477H3.99998C3.58577 12.2477 3.24998 12.5835 3.24998 12.9977C3.24998 13.4119 3.58577 13.7477 3.99998 13.7477H9.99998C10.4142 13.7477 10.75 13.4119 10.75 12.9977C10.75 12.5835 10.4142 12.2477 9.99998 12.2477H9.05214L8.51694 10.7523H12.5432C13.3478 10.7523 14 10.1001 14 9.29553V1.70911C14 0.904549 13.3478 0.252319 12.5432 0.252319H1.45679ZM5.00248 6.38556C4.76048 6.13943 4.36477 6.13608 4.11863 6.37808C3.8725 6.62009 3.86915 7.0158 4.11115 7.26193C4.70567 7.8666 5.70784 8.37732 7 8.37732C8.29216 8.37732 9.29433 7.8666 9.88885 7.26193C10.1309 7.0158 10.1275 6.62009 9.88137 6.37808C9.63523 6.13608 9.23952 6.13943 8.99752 6.38556C8.63935 6.74984 7.9589 7.12732 7 7.12732C6.0411 7.12732 5.36065 6.74984 5.00248 6.38556ZM6.01587 4.00256C6.01587 4.42541 5.67309 4.76819 5.25024 4.76819C4.8274 4.76819 4.48462 4.42541 4.48462 4.00256C4.48462 3.57972 4.8274 3.23694 5.25024 3.23694C5.67309 3.23694 6.01587 3.57972 6.01587 4.00256ZM8.75 4.76819C9.17284 4.76819 9.51562 4.42541 9.51562 4.00256C9.51562 3.57972 9.17284 3.23694 8.75 3.23694C8.32716 3.23694 7.98438 3.57972 7.98438 4.00256C7.98438 4.42541 8.32716 4.76819 8.75 4.76819Z" fill="black"/>
</g>
<defs>
<clipPath id="clip0_1068_187783">
<rect width="14" height="14" fill="white"/>
</clipPath>
</defs>
</svg>
