<svg width="14" height="14" viewBox="0 0 14 14" fill="none" xmlns="http://www.w3.org/2000/svg">
<g clip-path="url(#clip0_1068_187817)">
<path fill-rule="evenodd" clip-rule="evenodd" d="M5.42859 4.64752C5.42859 5.19981 5.8763 5.64752 6.42859 5.64752H8.64287V6.85612C8.64287 7.25547 9.08795 7.49367 9.42023 7.27215L11.8572 5.64752H13C13.5523 5.64752 14 5.19981 14 4.64752V1C14 0.447716 13.5523 0 13 0H6.42859C5.8763 0 5.42859 0.447715 5.42859 1V4.64752ZM8.51536 11H12.5C13.3284 11 14 10.3284 14 9.5V8C14 7.44772 13.5523 7 13 7C12.4477 7 12 7.44772 12 8V9H2V3H3C3.55228 3 4 2.55228 4 2C4 1.44772 3.55228 1 3 1H1.5C0.671573 1 0 1.67157 0 2.5V9.5C0 10.3284 0.671573 11 1.5 11H5.48479L4.94794 12.5H4C3.58579 12.5 3.25 12.8358 3.25 13.25C3.25 13.6642 3.58579 14 4 14H10C10.4142 14 10.75 13.6642 10.75 13.25C10.75 12.8358 10.4142 12.5 10 12.5H9.05221L8.51536 11Z" fill="black"/>
</g>
<defs>
<clipPath id="clip0_1068_187817">
<rect width="14" height="14" fill="white"/>
</clipPath>
</defs>
</svg>
