<svg width="14" height="14" viewBox="0 0 14 14" fill="none" xmlns="http://www.w3.org/2000/svg">
<g clip-path="url(#clip0_1068_187796)">
<path fill-rule="evenodd" clip-rule="evenodd" d="M13.7607 1.33819C14.0536 1.0453 14.0536 0.570424 13.7607 0.277531C13.4678 -0.0153619 12.9929 -0.0153619 12.7 0.277531L10.9803 1.9972L9.26068 0.277531C8.96778 -0.0153619 8.49291 -0.0153619 8.20002 0.277531C7.90712 0.570424 7.90712 1.0453 8.20002 1.33819L9.91969 3.05786L8.20002 4.77753C7.90712 5.07042 7.90712 5.5453 8.20002 5.83819C8.49291 6.13108 8.96778 6.13108 9.26068 5.83819L10.9803 4.11852L12.7 5.83819C12.9929 6.13108 13.4678 6.13108 13.7607 5.83819C14.0536 5.5453 14.0536 5.07042 13.7607 4.77753L12.041 3.05786L13.7607 1.33819ZM8.51536 11H12.5C13.3284 11 14 10.3284 14 9.5V8.5C14 7.94772 13.5523 7.5 13 7.5C12.4477 7.5 12 7.94772 12 8.5V9H2V3H5.5C6.05228 3 6.5 2.55228 6.5 2C6.5 1.44772 6.05228 1 5.5 1H1.5C0.671573 1 0 1.67157 0 2.5V9.5C0 10.3284 0.671573 11 1.5 11H5.48479L4.94794 12.5H4C3.58579 12.5 3.25 12.8358 3.25 13.25C3.25 13.6642 3.58579 14 4 14H10C10.4142 14 10.75 13.6642 10.75 13.25C10.75 12.8358 10.4142 12.5 10 12.5H9.05221L8.51536 11Z" fill="black"/>
</g>
<defs>
<clipPath id="clip0_1068_187796">
<rect width="14" height="14" fill="white"/>
</clipPath>
</defs>
</svg>
