<svg width="14" height="14" viewBox="0 0 14 14" fill="none" xmlns="http://www.w3.org/2000/svg">
<g clip-path="url(#clip0_1068_187823)">
<path fill-rule="evenodd" clip-rule="evenodd" d="M2.5586 1.95388C2.5586 0.895159 3.44546 0.092041 4.46994 0.092041C5.49441 0.092041 6.38128 0.895158 6.38128 1.95388V2.41606C6.38128 3.47478 5.49441 4.2779 4.46994 4.2779C3.44546 4.2779 2.5586 3.47478 2.5586 2.41606V1.95388ZM4.46994 1.59204C4.21163 1.59204 4.0586 1.7845 4.0586 1.95388V2.41606C4.0586 2.58544 4.21163 2.7779 4.46994 2.7779C4.72824 2.7779 4.88128 2.58544 4.88128 2.41606V1.95388C4.88128 1.7845 4.72824 1.59204 4.46994 1.59204ZM1.59375 0.842054C1.59375 0.42784 1.25797 0.0920541 0.84375 0.0920541C0.429537 0.0920541 0.09375 0.427841 0.09375 0.842054V3.54484C0.09375 3.95905 0.429537 4.29484 0.843751 4.29484C1.25797 4.29484 1.59375 3.95905 1.59375 3.54484V0.842054ZM1.59375 5.63447C1.59375 5.22026 1.25797 4.88447 0.84375 4.88447C0.429537 4.88447 0.09375 5.22026 0.09375 5.63447V8.33725C0.09375 8.75147 0.429537 9.08725 0.843751 9.08725C1.25797 9.08725 1.59375 8.75147 1.59375 8.33725V5.63447ZM3.3086 4.88447C3.72281 4.88447 4.0586 5.22026 4.0586 5.63447V8.33725C4.0586 8.75147 3.72281 9.08725 3.3086 9.08725C2.89438 9.08725 2.5586 8.75147 2.5586 8.33725V5.63447C2.5586 5.22026 2.89438 4.88447 3.3086 4.88447ZM1.59375 10.3873C1.59375 9.97307 1.25797 9.63728 0.84375 9.63728C0.429537 9.63728 0.09375 9.97307 0.09375 10.3873V13.0901C0.09375 13.5043 0.429537 13.8401 0.843751 13.8401C1.25797 13.8401 1.59375 13.5043 1.59375 13.0901V10.3873ZM8.09607 0.0920541C8.51028 0.0920541 8.84607 0.42784 8.84607 0.842054V3.54483C8.84607 3.95904 8.51029 4.29483 8.09607 4.29483C7.68186 4.29483 7.34607 3.95904 7.34607 3.54483V0.842054C7.34607 0.427841 7.68186 0.0920541 8.09607 0.0920541ZM11.2722 0.842054C11.2722 0.42784 10.9365 0.0920541 10.5222 0.0920541C10.108 0.0920541 9.77222 0.427841 9.77222 0.842054V3.54483C9.77222 3.95904 10.108 4.29483 10.5222 4.29483C10.9365 4.29483 11.2722 3.95904 11.2722 3.54483V0.842054ZM4.46994 9.65417C3.44546 9.65417 2.5586 10.4573 2.5586 11.516V11.9782C2.5586 13.0369 3.44546 13.84 4.46994 13.84C5.49441 13.84 6.38128 13.0369 6.38128 11.9782V11.516C6.38128 10.4573 5.49441 9.65417 4.46994 9.65417ZM4.0586 11.516C4.0586 11.3466 4.21163 11.1542 4.46994 11.1542C4.72824 11.1542 4.88128 11.3466 4.88128 11.516V11.9782C4.88128 12.1476 4.72824 12.34 4.46994 12.34C4.21163 12.34 4.0586 12.1476 4.0586 11.9782V11.516ZM5.02338 6.74448C5.02338 5.68888 5.87912 4.83314 6.93472 4.83314C7.34893 4.83314 7.68472 5.16893 7.68472 5.58314C7.68472 5.99736 7.34893 6.33314 6.93472 6.33314C6.70754 6.33314 6.52338 6.51731 6.52338 6.74448V7.22724C6.52338 7.64146 6.18759 7.97724 5.77338 7.97724C5.35917 7.97724 5.02338 7.64146 5.02338 7.22724V6.74448ZM10.4993 7.75C9.80891 7.75 9.24927 8.30964 9.24927 9V9.5H11.7493V9C11.7493 8.30964 11.1897 7.75 10.4993 7.75ZM7.74927 9V9.5315C7.31796 9.64252 6.99927 10.034 6.99927 10.5V13C6.99927 13.5523 7.44699 14 7.99927 14H12.9993C13.5516 14 13.9993 13.5523 13.9993 13V10.5C13.9993 10.034 13.6806 9.64252 13.2493 9.5315V9C13.2493 7.48122 12.0181 6.25 10.4993 6.25C8.98049 6.25 7.74927 7.48122 7.74927 9Z" fill="black"/>
</g>
<defs>
<clipPath id="clip0_1068_187823">
<rect width="14" height="14" fill="white"/>
</clipPath>
</defs>
</svg>
