<svg width="14" height="14" viewBox="0 0 14 14" fill="none" xmlns="http://www.w3.org/2000/svg">
<path fill-rule="evenodd" clip-rule="evenodd" d="M2.22521 2.76846C1.80034 3.46476 1.35703 4.6272 1.01228 5.97174C0.661894 7.33824 0.42661 8.84067 0.408203 10.1426C0.746425 10.5592 1.66715 11.3607 3.18851 11.7367L4.27636 10.3769C3.75066 10.1874 3.30828 9.94355 3.03054 9.66581C2.83528 9.47055 2.83528 9.15396 3.03054 8.9587C3.2258 8.76344 3.54238 8.76344 3.73765 8.9587C3.94183 9.16288 4.46581 9.43719 5.23954 9.61985L5.24608 9.62134C5.72845 9.73469 6.28038 9.80566 6.8612 9.80566C7.44202 9.80566 7.99395 9.73469 8.47632 9.62134L8.48188 9.62006C9.25611 9.43741 9.78043 9.16297 9.9847 8.9587C10.18 8.76344 10.4966 8.76344 10.6918 8.9587C10.8871 9.15396 10.8871 9.47055 10.6918 9.66581C10.4141 9.94355 9.97171 10.1874 9.44603 10.3769L10.5339 11.7367C12.0553 11.3607 12.976 10.5592 13.3142 10.1426C13.2958 8.84067 13.0605 7.33823 12.7101 5.97174C12.3654 4.6272 11.9221 3.46476 11.4972 2.76846L11.4675 2.75935C11.3354 2.71973 11.1079 2.66207 10.7528 2.60289C10.0418 2.48439 8.82861 2.36133 6.8612 2.36133C4.89379 2.36133 3.68059 2.48439 2.96959 2.60289C2.61452 2.66207 2.38702 2.71973 2.25494 2.75935L2.22521 2.76846ZM1.89394 2.35805C1.67034 1.91084 1.67069 1.91066 1.67105 1.91049L1.67331 1.90937L1.67663 1.90775L1.68435 1.90406L1.70425 1.89502C1.71956 1.88826 1.73905 1.88009 1.76317 1.87071C1.81138 1.85196 1.8783 1.82831 1.96759 1.80153C2.14595 1.74802 2.41518 1.6815 2.8052 1.61649C3.58438 1.48663 4.85481 1.36133 6.8612 1.36133C8.86759 1.36133 10.1381 1.48663 10.9172 1.61649C11.3072 1.6815 11.5765 1.74802 11.7548 1.80153C11.8441 1.82831 11.911 1.85196 11.9593 1.87071C11.9834 1.88009 12.0029 1.88826 12.0182 1.89502L12.0381 1.90406L12.0458 1.90775L12.0491 1.90937L12.0507 1.91012C12.051 1.91029 12.0521 1.91084 11.8285 2.35805M4.40594 7.0769C4.95823 7.0769 5.40594 6.62919 5.40594 6.0769C5.40594 5.52462 4.95823 5.0769 4.40594 5.0769C3.85366 5.0769 3.40594 5.52462 3.40594 6.0769C3.40594 6.62919 3.85366 7.0769 4.40594 7.0769ZM10.3165 6.0769C10.3165 6.62919 9.86875 7.0769 9.31646 7.0769C8.76418 7.0769 8.31646 6.62919 8.31646 6.0769C8.31646 5.52462 8.76418 5.0769 9.31646 5.0769C9.86875 5.0769 10.3165 5.52462 10.3165 6.0769Z" fill="black"/>
</svg>
