<svg width="14" height="14" viewBox="0 0 14 14" fill="none" xmlns="http://www.w3.org/2000/svg">
<g clip-path="url(#clip0_1068_187838)">
<path fill-rule="evenodd" clip-rule="evenodd" d="M0.0344238 0.789307C0.0344238 0.375093 0.37021 0.0393066 0.784424 0.0393066H2.6969H4.60941C5.02362 0.0393066 5.35941 0.375093 5.35941 0.789307C5.35941 1.20352 5.02362 1.53931 4.60941 1.53931H3.4469V3.5H10.5531V1.53931H9.39062C8.97641 1.53931 8.64062 1.20352 8.64062 0.789307C8.64062 0.375093 8.97641 0.0393066 9.39062 0.0393066H11.3031H13.2156C13.6298 0.0393066 13.9656 0.375093 13.9656 0.789307C13.9656 1.20352 13.6298 1.53931 13.2156 1.53931H12.0531V3.5H13.5C13.7761 3.5 14 3.72386 14 4V5C14 5.66304 13.7366 6.29893 13.2678 6.76777C12.813 7.22249 12.2012 7.48395 11.5598 7.49929C11.5401 7.49742 11.5202 7.49646 11.5 7.49646H2.5C2.47982 7.49646 2.45987 7.49742 2.44018 7.49929C1.79882 7.48395 1.18696 7.22249 0.732233 6.76777C0.263392 6.29893 0 5.66304 0 5V4C0 3.72386 0.223858 3.5 0.5 3.5H1.9469V1.53931H0.784424C0.37021 1.53931 0.0344238 1.20352 0.0344238 0.789307ZM3.23132 8.74646H10.8532C11.403 9.33072 11.6471 10.1266 11.7535 10.8095C11.8892 11.6793 11.8334 12.5616 11.7398 13.1233C11.6795 13.4849 11.3666 13.75 11 13.75H10C9.58579 13.75 9.25 13.4142 9.25 13C9.25 12.5858 9.58579 12.25 10 12.25H10.3256C10.3448 11.8803 10.3358 11.4535 10.2715 11.0405C10.2259 10.7486 10.1579 10.4944 10.0702 10.2808C10.0396 10.3172 10.0079 10.3521 9.97487 10.3851C9.3185 11.0415 8.42826 11.4102 7.5 11.4102H6.5C5.57174 11.4102 4.6815 11.0415 4.02513 10.3851C4.01267 10.3726 4.0004 10.3599 3.98831 10.347C3.91308 10.5463 3.85399 10.7782 3.81308 11.0405C3.74869 11.4535 3.73971 11.8803 3.75894 12.25H4.08453C4.49875 12.25 4.83453 12.5858 4.83453 13C4.83453 13.4142 4.49875 13.75 4.08453 13.75H3.08453C2.7179 13.75 2.40501 13.4849 2.34474 13.1233C2.25112 12.5616 2.19537 11.6793 2.33099 10.8095C2.43746 10.1266 2.68156 9.33072 3.23132 8.74646Z" fill="black"/>
</g>
<defs>
<clipPath id="clip0_1068_187838">
<rect width="14" height="14" fill="white"/>
</clipPath>
</defs>
</svg>
