<svg width="14" height="14" viewBox="0 0 14 14" fill="none" xmlns="http://www.w3.org/2000/svg">
<path fill-rule="evenodd" clip-rule="evenodd" d="M5.25 0.8125C5.25 0.398286 4.91421 0.0625 4.5 0.0625C4.08579 0.0625 3.75 0.398286 3.75 0.8125V3.53125H3C2.44772 3.53125 2 3.97897 2 4.53125V7.53125C2 9.1881 3.34315 10.5312 5 10.5312H6.25V13.2188C6.25 13.633 6.58579 13.9688 7 13.9688C7.41421 13.9688 7.75 13.633 7.75 13.2188V10.5312H9C10.6569 10.5312 12 9.1881 12 7.53125V4.53125C12 3.97897 11.5523 3.53125 11 3.53125H10.25V0.8125C10.25 0.398286 9.91421 0.0625 9.5 0.0625C9.08579 0.0625 8.75 0.398286 8.75 0.8125V3.53125H5.25V0.8125Z" fill="black"/>
</svg>
