<svg width="14" height="14" viewBox="0 0 14 14" fill="none" xmlns="http://www.w3.org/2000/svg">
<g clip-path="url(#clip0_1068_187820)">
<path fill-rule="evenodd" clip-rule="evenodd" d="M1.5 7.03345C1.5 3.99588 3.96243 1.53345 7 1.53345C10.0376 1.53345 12.5 3.99588 12.5 7.03345C12.5 9.77197 10.4978 12.0443 7.87748 12.464C7.86021 12.4667 7.85075 12.4647 7.84464 12.4627C7.83712 12.4602 7.82501 12.4543 7.81063 12.4406C7.78 12.4115 7.75 12.3564 7.75 12.2835V10.8309C9.39368 10.4855 10.6278 9.02727 10.6278 7.28086V5.73138C10.6278 5.31717 10.292 4.98138 9.87777 4.98138H9.3125V3.77087C9.3125 3.35666 8.97671 3.02087 8.5625 3.02087C8.14829 3.02087 7.8125 3.35666 7.8125 3.77087V4.98138H6.1875V3.77087C6.1875 3.35666 5.85171 3.02087 5.4375 3.02087C5.02329 3.02087 4.6875 3.35666 4.6875 3.77087V4.98138H4.12256C3.70834 4.98138 3.37256 5.31717 3.37256 5.73138V7.28086C3.37256 9.02715 4.60648 10.4853 6.25 10.8308V12.2835C6.25 13.211 7.03231 14.1185 8.11469 13.9451C11.4511 13.4108 14 10.5205 14 7.03345C14 3.16745 10.866 0.0334473 7 0.0334473C3.13401 0.0334473 0 3.16745 0 7.03345C0 9.62538 1.40911 11.8873 3.49946 13.0965C3.858 13.304 4.3168 13.1814 4.5242 12.8229C4.73161 12.4643 4.60909 12.0055 4.25054 11.7981C2.60463 10.846 1.5 9.06828 1.5 7.03345Z" fill="black"/>
</g>
<defs>
<clipPath id="clip0_1068_187820">
<rect width="14" height="14" fill="white"/>
</clipPath>
</defs>
</svg>
