<svg width="14" height="14" viewBox="0 0 14 14" fill="none" xmlns="http://www.w3.org/2000/svg">
<g clip-path="url(#clip0_1068_187847)">
<path d="M0 12.9231V1.07692C0 0.791305 0.113461 0.517386 0.315423 0.315423C0.517386 0.113461 0.791305 0 1.07692 0H12.9231C13.2087 0 13.4826 0.113461 13.6846 0.315423C13.8865 0.517386 14 0.791305 14 1.07692V12.9231C14 13.2087 13.8865 13.4826 13.6846 13.6846C13.4826 13.8865 13.2087 14 12.9231 14H9.69231V8.89539H10.4569C10.6312 8.89539 10.7982 8.82617 10.9214 8.70298C11.0446 8.57978 11.1138 8.41269 11.1138 8.23846V7.40923C11.1138 7.32296 11.0969 7.23754 11.0638 7.15784C11.0308 7.07814 10.9824 7.00572 10.9214 6.94472C10.8604 6.88372 10.788 6.83533 10.7083 6.80231C10.6286 6.7693 10.5432 6.75231 10.4569 6.75231H9.73539V5.74C9.73539 4.83538 10.1446 4.83538 10.5538 4.83538H11.0815C11.1682 4.83895 11.2546 4.82344 11.3346 4.78995C11.4146 4.75645 11.4863 4.70579 11.5446 4.64154C11.6072 4.58196 11.6567 4.51004 11.6901 4.43033C11.7235 4.35062 11.7399 4.26486 11.7385 4.17846V3.38154C11.7413 3.29384 11.7269 3.20644 11.696 3.12433C11.665 3.04222 11.6182 2.96701 11.5582 2.903C11.4982 2.83899 11.4262 2.78744 11.3462 2.75128C11.2663 2.71513 11.18 2.69509 11.0923 2.69231H9.85385C9.49248 2.67872 9.13248 2.74374 8.79869 2.88288C8.46491 3.02201 8.16531 3.23194 7.92058 3.49817C7.67586 3.7644 7.49184 4.08058 7.38124 4.42487C7.27064 4.76917 7.2361 5.13336 7.28 5.49231V6.75231H6.59077C6.5036 6.75088 6.41702 6.76682 6.33607 6.79919C6.25512 6.83156 6.18142 6.87972 6.11928 6.94087C6.05713 7.00201 6.00778 7.07491 5.97409 7.15532C5.94041 7.23574 5.92307 7.32205 5.92308 7.40923V8.23846C5.92307 8.32564 5.94041 8.41196 5.97409 8.49237C6.00778 8.57278 6.05713 8.64568 6.11928 8.70683C6.18142 8.76797 6.25512 8.81613 6.33607 8.84851C6.41702 8.88088 6.5036 8.89681 6.59077 8.89539H7.28V14H1.07692C0.791305 14 0.517386 13.8865 0.315423 13.6846C0.113461 13.4826 0 13.2087 0 12.9231Z" fill="black"/>
</g>
<defs>
<clipPath id="clip0_1068_187847">
<rect width="14" height="14" fill="white"/>
</clipPath>
</defs>
</svg>
