<svg width="14" height="14" viewBox="0 0 14 14" fill="none" xmlns="http://www.w3.org/2000/svg">
<path fill-rule="evenodd" clip-rule="evenodd" d="M4.502 5.06078C3.43235 5.07723 2.57031 5.94945 2.57031 7.02301C2.57031 8.10685 3.44894 8.98548 4.53278 8.98548H6.49524V5.06078H4.502ZM10.0071 5.06078C11.0682 5.08685 11.9204 5.95523 11.9204 7.02265C11.9204 8.10649 11.0418 8.98511 9.95795 8.98511C8.87411 8.98511 7.99548 8.10649 7.99548 7.02265C7.99548 5.95523 8.84769 5.08685 9.90883 5.06078H10.0071ZM10.2292 0.178345C11.1632 0.178345 11.9204 0.935529 11.9204 1.86956C11.9204 2.8036 11.1632 3.56078 10.2292 3.56078H10.0232C10.0015 3.56038 9.97975 3.56018 9.95795 3.56018C9.93615 3.56018 9.91439 3.56038 9.89269 3.56078H7.99548V0.178345H10.2292ZM2.57031 1.86956C2.57031 0.935529 3.3275 0.178345 4.26153 0.178345H6.49524V3.56055H4.53278C4.51913 3.56055 4.5055 3.56063 4.49189 3.56078H4.26153C3.3275 3.56078 2.57031 2.8036 2.57031 1.86956ZM4.26153 10.4863C3.3275 10.4863 2.57031 11.2435 2.57031 12.1775C2.57031 13.1116 3.3275 13.8688 4.26153 13.8688H4.53278C5.61662 13.8688 6.49524 12.9901 6.49524 11.9063V10.4863H4.26153Z" fill="black"/>
</svg>
