<svg width="14" height="14" viewBox="0 0 14 14" fill="none" xmlns="http://www.w3.org/2000/svg">
<path fill-rule="evenodd" clip-rule="evenodd" d="M0.0859375 6.78695V11.1358C0.0859375 11.6431 0.498634 12.0543 1.00772 12.0543H3.77307V9.17388L0.0859375 6.78695ZM9.0625 8.52705L7.04295 9.83444L5.02344 8.52707V3.58677L7.04295 4.88319L9.0625 3.58676V8.52705ZM10.3129 9.17386V12.0543H13.0782C13.5873 12.0543 14 11.6431 14 11.1358V6.78694L10.3129 9.17386ZM14 5.33069L10.3125 7.71785V2.78434L11.1595 2.24054C12.3864 1.45467 14 2.33241 14 3.7857V4.98217V5.33069ZM3.77307 2.78404L3.77344 7.71786L0.0859375 5.33069V4.98217V3.78576C0.0859375 2.33247 1.69951 1.45467 2.92642 2.24054L3.77307 2.78404Z" fill="black"/>
</svg>
