<svg width="14" height="14" viewBox="0 0 14 14" fill="none" xmlns="http://www.w3.org/2000/svg">
<g clip-path="url(#clip0_1068_187877)">
<path d="M11.701 5.73497H7.54988C7.47675 5.73495 7.40435 5.74952 7.33693 5.77781C7.2695 5.8061 7.2084 5.84754 7.15719 5.89972C7.10599 5.9519 7.06571 6.01376 7.03872 6.08169C7.01173 6.14961 6.99857 6.22224 7 6.29531V7.81469C7 7.96045 7.05793 8.10023 7.16106 8.2033C7.26418 8.30636 7.40404 8.36426 7.54988 8.36426H10.4072C10.415 8.78076 10.3348 9.19423 10.172 9.57768C10.0091 9.96114 9.7671 10.306 9.46188 10.5897C9.15666 10.8733 8.79502 11.0895 8.40056 11.2241C8.00609 11.3587 7.58767 11.4087 7.17259 11.3707C4.75744 11.3707 3.59299 9.32331 3.59299 6.99573C3.59299 4.66816 4.8437 2.62076 7.17259 2.62076C8.20075 2.58667 9.20822 2.91467 10.0191 3.54748C10.0839 3.58987 10.1572 3.6175 10.2339 3.62842C10.3105 3.63933 10.3887 3.63326 10.4628 3.61065C10.5368 3.58803 10.605 3.54941 10.6625 3.49752C10.72 3.44564 10.7653 3.38176 10.7954 3.31041L11.4746 1.7587C11.5305 1.64433 11.5449 1.51412 11.5154 1.39031C11.4859 1.2665 11.4143 1.15676 11.3129 1.07982C10.0765 0.340925 8.65587 -0.0327003 7.21572 0.00224508C3.2911 -0.00853072 0.617188 3.04102 0.617188 6.99573C0.617188 10.9505 3.30188 14 7.17259 14C11.0433 14 13.383 11.2414 13.383 7.53452C13.383 6.34919 12.9086 5.73497 11.701 5.73497Z" fill="black"/>
</g>
<defs>
<clipPath id="clip0_1068_187877">
<rect width="14" height="14" fill="white"/>
</clipPath>
</defs>
</svg>
