<svg width="14" height="14" viewBox="0 0 14 14" fill="none" xmlns="http://www.w3.org/2000/svg">
<g clip-path="url(#clip0_1068_187850)">
<path fill-rule="evenodd" clip-rule="evenodd" d="M2.49805 1.74749C2.49805 1.63427 2.58983 1.54248 2.70305 1.54248H11.2981C11.4113 1.54248 11.5031 1.63427 11.5031 1.74749V10.474H2.49805V1.74749ZM2.70305 0.0424805C1.7614 0.0424805 0.998047 0.805839 0.998047 1.74749V12.2525C0.998047 13.1942 1.7614 13.9576 2.70305 13.9576H11.2981C12.2398 13.9576 13.0031 13.1942 13.0031 12.2525V1.74749C13.0031 0.805839 12.2398 0.0424805 11.2981 0.0424805H2.70305ZM4.6131 2.63571C4.19888 2.63571 3.8631 2.9715 3.8631 3.38571C3.8631 3.79992 4.19888 4.13571 4.6131 4.13571H9.38814C9.80235 4.13571 10.1381 3.79992 10.1381 3.38571C10.1381 2.9715 9.80235 2.63571 9.38814 2.63571H4.6131ZM3.8631 6.00992C3.8631 5.5957 4.19888 5.25992 4.6131 5.25992H9.38814C9.80235 5.25992 10.1381 5.5957 10.1381 6.00992C10.1381 6.42413 9.80235 6.75992 9.38814 6.75992H4.6131C4.19888 6.75992 3.8631 6.42413 3.8631 6.00992ZM4.6131 7.88409C4.19888 7.88409 3.8631 8.21988 3.8631 8.63409C3.8631 9.04831 4.19888 9.38409 4.6131 9.38409H7.47812C7.89234 9.38409 8.22812 9.04831 8.22812 8.63409C8.22812 8.21988 7.89234 7.88409 7.47812 7.88409H4.6131Z" fill="black"/>
</g>
<defs>
<clipPath id="clip0_1068_187850">
<rect width="14" height="14" fill="white"/>
</clipPath>
</defs>
</svg>
