<svg width="14" height="14" viewBox="0 0 14 14" fill="none" xmlns="http://www.w3.org/2000/svg">
<path fill-rule="evenodd" clip-rule="evenodd" d="M2.7156 1.5625C2.60408 1.5625 2.51367 1.6529 2.51367 1.76442V10.3317H11.4849V1.76442C11.4849 1.6529 11.3945 1.5625 11.2829 1.5625H2.7156ZM1.01367 1.76442C1.01367 0.824477 1.77565 0.0625 2.7156 0.0625H11.2829C12.2229 0.0625 12.9849 0.824477 12.9849 1.76442V12.2356C12.9849 13.1755 12.2229 13.9375 11.2829 13.9375H2.7156C1.77565 13.9375 1.01367 13.1755 1.01367 12.2356V1.76442ZM4.66698 4.5917C4.89862 4.26425 5.21585 3.94471 5.50769 3.78661C5.64957 3.70975 5.74712 3.69184 5.8033 3.69381C5.84012 3.6951 5.88592 3.70385 5.95202 3.76728L5.95259 3.77414C5.95505 3.8148 5.94665 3.89977 5.897 4.04399C5.79462 4.34141 5.58998 4.69604 5.34313 5.12125L5.33035 5.14326C5.10887 5.52469 4.84265 5.98319 4.71588 6.39978C4.64977 6.61703 4.60043 6.8861 4.65539 7.1632C4.7161 7.46935 4.89318 7.72814 5.17118 7.90279C5.79527 8.29486 6.4244 8.02071 6.82614 7.7508C7.23491 7.47616 7.64265 7.05548 7.98851 6.69865L7.99975 6.68706C8.37771 6.29713 8.68975 5.97674 8.96605 5.78592C9.09415 5.69745 9.17359 5.66685 9.21142 5.65832L9.21457 5.66067C9.21377 5.66612 9.21265 5.67257 9.21111 5.68009C9.1821 5.82143 9.08927 5.99689 8.92828 6.30118L8.90309 6.3488C8.7592 6.62097 8.54556 7.02691 8.50951 7.453C8.48983 7.68553 8.52014 7.93893 8.64354 8.18719C8.76585 8.43326 8.95866 8.63217 9.1977 8.79152C9.48491 8.983 9.87295 8.90539 10.0645 8.61818C10.2559 8.33098 10.1783 7.94293 9.89108 7.75146C9.79339 7.68634 9.76835 7.64179 9.76289 7.63081C9.75852 7.62202 9.75113 7.60476 9.75506 7.55839C9.7662 7.42666 9.84491 7.2418 10.0082 6.93304C10.0222 6.90649 10.0373 6.87836 10.0531 6.84882C10.1846 6.60347 10.3679 6.26144 10.4356 5.93137C10.4777 5.7265 10.488 5.47881 10.3947 5.22428C10.2992 4.96362 10.1186 4.76033 9.89108 4.60866C9.27093 4.19523 8.6377 4.49356 8.25572 4.75736C7.87184 5.02248 7.48207 5.42488 7.14607 5.77178L7.1022 5.81706C6.7268 6.20434 6.41082 6.52391 6.12904 6.71323C6.01965 6.78672 5.94199 6.82167 5.8924 6.83686C5.89681 6.81661 5.90302 6.79234 5.91174 6.76368C5.98977 6.50727 6.17612 6.1761 6.42417 5.74883L6.45285 5.69945C6.67251 5.3214 6.93444 4.87062 7.07894 4.45085C7.22325 4.03163 7.33673 3.38407 6.84354 2.89087C6.55883 2.60617 6.21432 2.45747 5.84717 2.44458C5.49798 2.43232 5.17719 2.54401 4.91227 2.68753C4.39049 2.9702 3.94023 3.45458 3.6465 3.86982C3.44716 4.15162 3.514 4.54166 3.7958 4.741C4.0776 4.94034 4.46764 4.8735 4.66698 4.5917ZM5.83694 6.84511L5.83896 6.84683C5.83788 6.84649 5.83731 6.84566 5.83694 6.84511Z" fill="black"/>
</svg>
