<svg width="14" height="14" viewBox="0 0 14 14" fill="none" xmlns="http://www.w3.org/2000/svg">
<g clip-path="url(#clip0_1068_187856)">
<path fill-rule="evenodd" clip-rule="evenodd" d="M1.71665 1.59375C1.60779 1.59375 1.51954 1.682 1.51954 1.79087V10.3125H10.4378V7.94712C10.4378 7.5329 10.7735 7.19712 11.1878 7.19712C11.602 7.19712 11.9378 7.5329 11.9378 7.94712V12.2091C11.9378 13.1464 11.1779 13.9062 10.2406 13.9062H1.71665C0.779355 13.9062 0.0195312 13.1464 0.0195312 12.2091V1.79087C0.0195312 0.853574 0.779355 0.09375 1.71665 0.09375H7.8729C8.28711 0.09375 8.6229 0.429536 8.6229 0.84375C8.6229 1.25796 8.28711 1.59375 7.8729 1.59375H1.71665ZM3.61109 3.0072C3.26591 3.0072 2.98609 3.28702 2.98609 3.6322C2.98609 3.97738 3.26591 4.2572 3.61109 4.2572H5.50532C5.8505 4.2572 6.13032 3.97738 6.13032 3.6322C6.13032 3.28702 5.8505 3.0072 5.50532 3.0072H3.61109ZM2.98609 6.5C2.98609 6.15482 3.26591 5.875 3.61109 5.875H4.5582C4.90338 5.875 5.1832 6.15482 5.1832 6.5C5.1832 6.84518 4.90338 7.125 4.5582 7.125H3.61109C3.26591 7.125 2.98609 6.84518 2.98609 6.5ZM9.31807 7.53367C9.41886 7.51553 9.51164 7.46688 9.58388 7.39429L13.6829 3.2758C13.7766 3.18284 13.851 3.07223 13.9017 2.95037C13.9525 2.82852 13.9787 2.69781 13.9787 2.5658C13.9787 2.43379 13.9525 2.30308 13.9017 2.18122C13.851 2.05936 13.7766 1.94876 13.6829 1.8558L12.6229 0.795798C12.5299 0.70207 12.4193 0.627676 12.2974 0.576907C12.1756 0.526138 12.0449 0.5 11.9129 0.5C11.7808 0.5 11.6501 0.526138 11.5283 0.576907C11.4064 0.627676 11.2958 0.70207 11.2029 0.795798L7.08736 4.89189C7.01295 4.96595 6.96374 5.06154 6.9467 5.16513L6.58782 7.34713C6.53177 7.68791 6.82987 7.98154 7.16977 7.92036L9.31807 7.53367Z" fill="black"/>
</g>
<defs>
<clipPath id="clip0_1068_187856">
<rect width="14" height="14" fill="white"/>
</clipPath>
</defs>
</svg>
