<svg width="14" height="14" viewBox="0 0 14 14" fill="none" xmlns="http://www.w3.org/2000/svg">
<g clip-path="url(#clip0_1068_187865)">
<path fill-rule="evenodd" clip-rule="evenodd" d="M0.588074 6.07072C0.7457 6.03702 0.909243 6.01929 1.07693 6.01929H12.9231C13.1021 6.01929 13.2764 6.0395 13.4438 6.07777L12.186 1.16243C12.1087 0.827214 11.9184 0.528689 11.647 0.317003C11.3753 0.10506 11.0389 -0.0068189 10.6945 5.47072e-05H3.30003L3.29728 6.2277e-05C2.95822 0.00192826 2.62979 0.118614 2.36556 0.331092C2.10337 0.541918 1.91974 0.834711 1.84404 1.16236L0.588074 6.07072ZM12.9231 7.26929H1.07692C0.482155 7.26929 0 7.75144 0 8.34621V12.6539C0 13.2487 0.482155 13.7309 1.07692 13.7309H12.9231C13.5178 13.7309 14 13.2487 14 12.6539V8.34621C14 7.75144 13.5178 7.26929 12.9231 7.26929ZM3.5 9.87505C3.15482 9.87505 2.875 10.1549 2.875 10.5001C2.875 10.8453 3.15482 11.1251 3.5 11.1251H6.5C6.84518 11.1251 7.125 10.8453 7.125 10.5001C7.125 10.1549 6.84518 9.87505 6.5 9.87505H3.5ZM9.50311 10.5001C9.50311 9.94948 9.94944 9.50315 10.5 9.50315C11.0506 9.50315 11.4969 9.94948 11.4969 10.5001C11.4969 11.0507 11.0506 11.497 10.5 11.497C9.94944 11.497 9.50311 11.0507 9.50311 10.5001Z" fill="black"/>
</g>
<defs>
<clipPath id="clip0_1068_187865">
<rect width="14" height="14" fill="white"/>
</clipPath>
</defs>
</svg>
