<svg width="14" height="14" viewBox="0 0 14 14" fill="none" xmlns="http://www.w3.org/2000/svg">
<path fill-rule="evenodd" clip-rule="evenodd" d="M1 1.5C1 0.671573 1.67157 0 2.5 0H11.5C12.3284 0 13 0.671573 13 1.5V12.5C13 13.3284 12.3284 14 11.5 14H2.5C1.67157 14 1 13.3284 1 12.5V1.5ZM6.99109 8.19248C7.17641 7.90127 7.09057 7.51496 6.79935 7.32965C6.61735 7.21382 6.39819 7.20392 6.21418 7.28388C6.25401 7.26657 6.29548 7.25347 6.33787 7.24474C6.19061 7.26788 6.0493 7.35027 5.94346 7.51072C5.94111 7.51424 5.9388 7.5178 5.93652 7.52139L4.18652 10.2714C4.0012 10.5626 4.08705 10.9489 4.37826 11.1342C4.66947 11.3195 5.05578 11.2337 5.24109 10.9425L6.99109 8.19248ZM7.24866 11.6059C7.24866 11.2607 7.52848 10.9809 7.87366 10.9809H10.3737C10.7188 10.9809 10.9987 11.2607 10.9987 11.6059C10.9987 11.951 10.7188 12.2309 10.3737 12.2309H7.87366C7.52848 12.2309 7.24866 11.951 7.24866 11.6059ZM6.9903 1.89737C4.85019 1.89737 3.1153 3.63227 3.1153 5.77237C3.1153 6.70841 3.44719 7.56694 3.99971 8.23669L4.88198 6.85027C5.18022 6.38161 5.64261 6.08214 6.16609 6.00654C6.6556 5.93585 7.11227 6.07134 7.4595 6.29231C7.80674 6.51328 8.12289 6.86958 8.26618 7.34296C8.4194 7.84918 8.34395 8.3949 8.04571 8.86356L7.57479 9.60358C9.43757 9.32176 10.8653 7.71379 10.8653 5.77237C10.8653 3.63227 9.1304 1.89737 6.9903 1.89737ZM7.07176 7.71176C7.10965 7.87053 7.08565 8.04389 6.99109 8.19248C7.09766 8.02503 7.11407 7.85809 7.07176 7.71176Z" fill="black"/>
</svg>
