<svg width="14" height="14" viewBox="0 0 14 14" fill="none" xmlns="http://www.w3.org/2000/svg">
<path fill-rule="evenodd" clip-rule="evenodd" d="M3.39088 0.786621C1.95286 0.786621 0.787109 1.95237 0.787109 3.3904V10.3338C0.787109 11.7718 1.95286 12.9376 3.39088 12.9376H10.3343C11.7723 12.9376 12.938 11.7718 12.938 10.3338V3.3904C12.938 1.95237 11.7723 0.786621 10.3343 0.786621H3.39088ZM11.0838 3.39417C11.0838 3.80838 10.748 4.14417 10.3338 4.14417C9.91959 4.14417 9.5838 3.80838 9.5838 3.39417C9.5838 2.97995 9.91959 2.64417 10.3338 2.64417C10.748 2.64417 11.0838 2.97995 11.0838 3.39417ZM6.86271 4.78198C5.71393 4.78198 4.78265 5.71326 4.78265 6.86204C4.78265 8.01082 5.71393 8.9421 6.86271 8.9421C8.01149 8.9421 8.94277 8.01082 8.94277 6.86204C8.94277 5.71326 8.01149 4.78198 6.86271 4.78198ZM3.78265 6.86204C3.78265 5.16097 5.16164 3.78198 6.86271 3.78198C8.56378 3.78198 9.94277 5.16097 9.94277 6.86204C9.94277 8.56311 8.56378 9.9421 6.86271 9.9421C5.16164 9.9421 3.78265 8.56311 3.78265 6.86204Z" fill="black"/>
</svg>
