<svg width="14" height="14" viewBox="0 0 14 14" fill="none" xmlns="http://www.w3.org/2000/svg">
<g clip-path="url(#clip0_1068_187874)">
<path fill-rule="evenodd" clip-rule="evenodd" d="M1.5 0.203125C0.710645 0.203125 0 0.802204 0 1.625V7.15625C0 7.97905 0.710645 8.57812 1.5 8.57812H12.5C13.2894 8.57812 14 7.97905 14 7.15625V1.625C14 0.802204 13.2894 0.203125 12.5 0.203125H1.5ZM5 5.54688C5 5.27073 5.22386 5.04688 5.5 5.04688H8.5C8.77614 5.04688 9 5.27073 9 5.54688C9 5.82302 8.77614 6.04688 8.5 6.04688H5.5C5.22386 6.04688 5 5.82302 5 5.54688ZM2.5 5.04688C2.22386 5.04688 2 5.27073 2 5.54688C2 5.82302 2.22386 6.04688 2.5 6.04688H3.5C3.77614 6.04688 4 5.82302 4 5.54688C4 5.27073 3.77614 5.04688 3.5 5.04688H2.5ZM10.5 5.04688C10.2239 5.04688 10 5.27073 10 5.54688C10 5.82302 10.2239 6.04688 10.5 6.04688H11.5C11.7761 6.04688 12 5.82302 12 5.54688C12 5.27073 11.7761 5.04688 11.5 5.04688H10.5ZM2 3.04688C2 2.77073 2.22386 2.54688 2.5 2.54688H3.5C3.77614 2.54688 4 2.77073 4 3.04688C4 3.32302 3.77614 3.54688 3.5 3.54688H2.5C2.22386 3.54688 2 3.32302 2 3.04688ZM5.16675 2.54688C4.89061 2.54688 4.66675 2.77073 4.66675 3.04688C4.66675 3.32302 4.89061 3.54688 5.16675 3.54688H6.16675C6.44289 3.54688 6.66675 3.32302 6.66675 3.04688C6.66675 2.77073 6.44289 2.54688 6.16675 2.54688H5.16675ZM7.33325 3.04688C7.33325 2.77073 7.55711 2.54688 7.83325 2.54688H8.83325C9.10939 2.54688 9.33325 2.77073 9.33325 3.04688C9.33325 3.32302 9.10939 3.54688 8.83325 3.54688H7.83325C7.55711 3.54688 7.33325 3.32302 7.33325 3.04688ZM10.5 2.54688C10.2239 2.54688 10 2.77073 10 3.04688C10 3.32302 10.2239 3.54688 10.5 3.54688H11.5C11.7761 3.54688 12 3.32302 12 3.04688C12 2.77073 11.7761 2.54688 11.5 2.54688H10.5ZM4.53806 11.1055C4.61545 10.9187 4.79777 10.7969 5 10.7969H9C9.20223 10.7969 9.38455 10.9187 9.46194 11.1055C9.53933 11.2924 9.49655 11.5074 9.35355 11.6504L7.35355 13.6504C7.15829 13.8457 6.84171 13.8457 6.64645 13.6504L4.64645 11.6504C4.50345 11.5074 4.46067 11.2924 4.53806 11.1055Z" fill="black"/>
</g>
<defs>
<clipPath id="clip0_1068_187874">
<rect width="14" height="14" fill="white"/>
</clipPath>
</defs>
</svg>
