<svg width="14" height="14" viewBox="0 0 14 14" fill="none" xmlns="http://www.w3.org/2000/svg">
<g clip-path="url(#clip0_1068_187880)">
<path fill-rule="evenodd" clip-rule="evenodd" d="M3.20828 0.845111C4.40822 0.338597 5.69749 0.0776367 6.99995 0.0776367C8.30241 0.0776367 9.59168 0.338597 10.7916 0.845111C11.1732 1.00619 11.352 1.44613 11.1909 1.82774C11.0298 2.20935 10.5899 2.38812 10.2083 2.22704C9.19295 1.79845 8.10203 1.57764 6.99995 1.57764C5.89787 1.57764 4.80695 1.79845 3.79162 2.22704C3.41001 2.38812 2.97007 2.20935 2.80899 1.82774C2.6479 1.44613 2.82667 1.00619 3.20828 0.845111ZM4.59889 2.92549C6.16896 2.39235 7.87111 2.39235 9.44119 2.92549C9.83341 3.05868 10.0434 3.4846 9.91021 3.87682C9.77703 4.26903 9.35111 4.47902 8.95889 4.34584C7.70158 3.9189 6.3385 3.9189 5.08119 4.34584C4.68897 4.47902 4.26305 4.26903 4.12986 3.87682C3.99668 3.4846 4.20667 3.05868 4.59889 2.92549ZM0 6.9693C0 6.1465 0.710645 5.54742 1.5 5.54742H12.5C13.2894 5.54742 14 6.1465 14 6.9693V12.5005C14 13.3233 13.2894 13.9224 12.5 13.9224H1.5C0.710645 13.9224 0 13.3233 0 12.5005V6.9693ZM5.5 10.3911C5.22386 10.3911 5 10.615 5 10.8911C5 11.1673 5.22386 11.3911 5.5 11.3911H8.5C8.77614 11.3911 9 11.1673 9 10.8911C9 10.615 8.77614 10.3911 8.5 10.3911H5.5ZM2 10.8911C2 10.615 2.22386 10.3911 2.5 10.3911H3.5C3.77614 10.3911 4 10.615 4 10.8911C4 11.1673 3.77614 11.3911 3.5 11.3911H2.5C2.22386 11.3911 2 11.1673 2 10.8911ZM10 10.8911C10 10.615 10.2239 10.3911 10.5 10.3911H11.5C11.7761 10.3911 12 10.615 12 10.8911C12 11.1673 11.7761 11.3911 11.5 11.3911H10.5C10.2239 11.3911 10 11.1673 10 10.8911ZM2.5 7.89117C2.22386 7.89117 2 8.11503 2 8.39117C2 8.66732 2.22386 8.89117 2.5 8.89117H3.5C3.77614 8.89117 4 8.66732 4 8.39117C4 8.11503 3.77614 7.89117 3.5 7.89117H2.5ZM4.66675 8.39117C4.66675 8.11503 4.89061 7.89117 5.16675 7.89117H6.16675C6.44289 7.89117 6.66675 8.11503 6.66675 8.39117C6.66675 8.66732 6.44289 8.89117 6.16675 8.89117H5.16675C4.89061 8.89117 4.66675 8.66732 4.66675 8.39117ZM7.83325 7.89117C7.55711 7.89117 7.33325 8.11503 7.33325 8.39117C7.33325 8.66732 7.55711 8.89117 7.83325 8.89117H8.83325C9.10939 8.89117 9.33325 8.66732 9.33325 8.39117C9.33325 8.11503 9.10939 7.89117 8.83325 7.89117H7.83325ZM10 8.39117C10 8.11503 10.2239 7.89117 10.5 7.89117H11.5C11.7761 7.89117 12 8.11503 12 8.39117C12 8.66732 11.7761 8.89117 11.5 8.89117H10.5C10.2239 8.89117 10 8.66732 10 8.39117Z" fill="black"/>
</g>
<defs>
<clipPath id="clip0_1068_187880">
<rect width="14" height="14" fill="white"/>
</clipPath>
</defs>
</svg>
