<svg width="14" height="14" viewBox="0 0 14 14" fill="none" xmlns="http://www.w3.org/2000/svg">
<g clip-path="url(#clip0_1068_187871)">
<path fill-rule="evenodd" clip-rule="evenodd" d="M11.5 0.0546875C11.9142 0.0546875 12.25 0.390474 12.25 0.804688C12.25 1.51747 11.948 2.19074 11.4276 2.67944C10.9088 3.16663 10.2147 3.43279 9.5 3.43279H5.5C5.15379 3.43279 4.83052 3.56238 4.59919 3.7796C4.36947 3.99532 4.25 4.27746 4.25 4.56089V4.99994H12.5C13.3284 4.99994 14 5.67151 14 6.49994V12.4999C14 13.3283 13.3284 13.9999 12.5 13.9999H1.5C0.671573 13.9999 0 13.3283 0 12.4999V6.49994C0 5.67151 0.671573 4.99994 1.5 4.99994H2.75V4.56089C2.75 3.84811 3.05196 3.17484 3.57238 2.68614C4.0912 2.19894 4.78534 1.93279 5.5 1.93279H9.5C9.84621 1.93279 10.1695 1.8032 10.4008 1.58598C10.6305 1.37025 10.75 1.08812 10.75 0.804688C10.75 0.390474 11.0858 0.0546875 11.5 0.0546875ZM4.86591 10.8437C4.86591 10.5675 5.08976 10.3437 5.36591 10.3437H8.63408C8.91022 10.3437 9.13408 10.5675 9.13408 10.8437C9.13408 11.1198 8.91022 11.3437 8.63408 11.3437H5.36591C5.08976 11.3437 4.86591 11.1198 4.86591 10.8437ZM2.09778 10.3437C1.82164 10.3437 1.59778 10.5675 1.59778 10.8437C1.59778 11.1198 1.82164 11.3437 2.09778 11.3437H3.18717C3.46331 11.3437 3.68717 11.1198 3.68717 10.8437C3.68717 10.5675 3.46331 10.3437 3.18717 10.3437H2.09778ZM10.8129 10.3437C10.5368 10.3437 10.3129 10.5675 10.3129 10.8437C10.3129 11.1198 10.5368 11.3437 10.8129 11.3437H11.9023C12.1784 11.3437 12.4023 11.1198 12.4023 10.8437C12.4023 10.5675 12.1784 10.3437 11.9023 10.3437H10.8129ZM1.59778 8.15615C1.59778 7.88001 1.82164 7.65615 2.09778 7.65615H3.18717C3.46331 7.65615 3.68717 7.88001 3.68717 8.15615C3.68717 8.43229 3.46331 8.65615 3.18717 8.65615H2.09778C1.82164 8.65615 1.59778 8.43229 1.59778 8.15615ZM5.00281 7.65615C4.72667 7.65615 4.50281 7.88001 4.50281 8.15615C4.50281 8.43229 4.72667 8.65615 5.00281 8.65615H6.0922C6.36834 8.65615 6.5922 8.43229 6.5922 8.15615C6.5922 7.88001 6.36834 7.65615 6.0922 7.65615H5.00281ZM7.40784 8.15615C7.40784 7.88001 7.63169 7.65615 7.90784 7.65615H8.99723C9.27337 7.65615 9.49723 7.88001 9.49723 8.15615C9.49723 8.43229 9.27337 8.65615 8.99723 8.65615H7.90784C7.63169 8.65615 7.40784 8.43229 7.40784 8.15615ZM10.8129 7.65615C10.5367 7.65615 10.3129 7.88001 10.3129 8.15615C10.3129 8.43229 10.5367 8.65615 10.8129 8.65615H11.9023C12.1784 8.65615 12.4023 8.43229 12.4023 8.15615C12.4023 7.88001 12.1784 7.65615 11.9023 7.65615H10.8129Z" fill="black"/>
</g>
<defs>
<clipPath id="clip0_1068_187871">
<rect width="14" height="14" fill="white"/>
</clipPath>
</defs>
</svg>
