<svg width="14" height="14" viewBox="0 0 14 14" fill="none" xmlns="http://www.w3.org/2000/svg">
<g clip-path="url(#clip0_1068_187883)">
<path fill-rule="evenodd" clip-rule="evenodd" d="M12.0823 1.1661C12.3121 0.821458 12.219 0.355806 11.8743 0.126042C11.5297 -0.103723 11.064 -0.0105918 10.8343 0.334054L9.00096 3.08405C8.84753 3.3142 8.83323 3.6101 8.96374 3.85397C9.09425 4.09784 9.3484 4.25008 9.625 4.25008H10.9736L9.91763 5.83405C9.68786 6.1787 9.78099 6.64435 10.1256 6.87412C10.4702 7.10388 10.9359 7.01075 11.1657 6.6661L12.999 3.9161C13.1524 3.68596 13.1667 3.39005 13.0362 3.14619C12.9057 2.90232 12.6516 2.75008 12.375 2.75008H11.0263L12.0823 1.1661ZM6.99657 3.04244C7.41078 3.04244 7.74657 3.37822 7.74657 3.79244C7.74657 4.20665 7.41078 4.54244 6.99657 4.54244H3.69927C3.5612 4.54244 3.44927 4.65437 3.44927 4.79244V8.75008H10.5438V8.50008C10.5438 8.08587 10.8796 7.75008 11.2938 7.75008C11.708 7.75008 12.0438 8.08587 12.0438 8.50008V9.39398L13.6979 11.6003C14.4393 12.5892 13.7337 14.0001 12.4978 14.0001H1.50272C0.266785 14.0001 -0.438824 12.5892 0.302554 11.6003L1.94927 9.40382V4.79244C1.94927 3.82594 2.73277 3.04244 3.69927 3.04244H6.99657Z" fill="black"/>
</g>
<defs>
<clipPath id="clip0_1068_187883">
<rect width="14" height="14" fill="white"/>
</clipPath>
</defs>
</svg>
