<svg width="14" height="14" viewBox="0 0 14 14" fill="none" xmlns="http://www.w3.org/2000/svg">
<g clip-path="url(#clip0_1068_187886)">
<path fill-rule="evenodd" clip-rule="evenodd" d="M2.91416 2.36157C3.17333 2.09441 3.317 1.73602 3.3141 1.36381C3.30061 1.00275 3.1497 0.66048 2.89224 0.40698C2.63478 0.153479 2.29021 0.00789779 1.92898 0C1.56669 0.00775305 1.22091 0.152974 0.961722 0.406224C0.702537 0.659474 0.549345 1.0018 0.533203 1.36381C0.538417 1.73538 0.686177 2.09073 0.945945 2.35645C1.20571 2.62217 1.55763 2.77793 1.92898 2.79156C2.3011 2.78317 2.65498 2.62872 2.91416 2.36157ZM1.66959 4.631C1.08309 4.61771 0.68237 4.60864 0.68237 5.3274V13.3185C0.68237 14.0224 1.06449 14.0078 1.61514 13.9869C1.71467 13.9831 1.8197 13.9791 1.92898 13.9791C2.03846 13.9791 2.14342 13.9831 2.24269 13.9869C2.7907 14.0078 3.16494 14.0221 3.16494 13.3185V5.3274C3.16494 4.60879 2.77256 4.61771 2.18829 4.63099C2.10552 4.63287 2.01889 4.63484 1.92898 4.63484C1.83921 4.63484 1.75254 4.63288 1.66959 4.631ZM5.75404 4.64551C5.48767 4.69878 5.3172 4.86926 5.3172 5.32741V13.3185C5.3172 14.0217 5.68338 14.0079 6.235 13.9869C6.33529 13.9831 6.4417 13.9791 6.55315 13.9791C6.66441 13.9791 6.77089 13.9831 6.87144 13.9869C7.42571 14.0079 7.79977 14.022 7.79977 13.3185V9.05659C7.77857 8.83881 7.80387 8.61901 7.87401 8.41174C7.94414 8.20448 8.0575 8.01447 8.20659 7.85431C8.35567 7.69414 8.53707 7.56747 8.73879 7.48268C8.94051 7.3979 9.15793 7.35692 9.37668 7.36248C9.59644 7.34945 9.81643 7.38387 10.0217 7.46339C10.227 7.54291 10.4127 7.66568 10.5664 7.82335C10.72 7.98103 10.8379 8.16992 10.9121 8.3772C10.9862 8.58447 11.0149 8.80528 10.9962 9.02463V13.2865C10.9962 13.9898 11.3624 13.9759 11.914 13.955C12.0143 13.9512 12.1207 13.9471 12.2321 13.9471C12.3436 13.9471 12.45 13.9512 12.5503 13.955C13.1019 13.9759 13.4681 13.9898 13.4681 13.2865V7.83129C13.4884 7.38339 13.4142 6.93623 13.2503 6.51887C13.0865 6.1015 12.8367 5.72328 12.5172 5.40876C12.1976 5.09424 11.8155 4.85046 11.3956 4.69327C10.9757 4.53608 10.5274 4.46898 10.0799 4.49634C9.62415 4.4549 9.1654 4.5311 8.74753 4.71765C8.32965 4.9042 7.96664 5.19486 7.69322 5.56182C7.70387 5.16759 7.57601 4.64551 7.25637 4.64551C7.16472 4.64551 7.024 4.64113 6.86362 4.63613C6.46468 4.62371 5.94403 4.60751 5.75404 4.64551Z" fill="black"/>
</g>
<defs>
<clipPath id="clip0_1068_187886">
<rect width="14" height="14" fill="white"/>
</clipPath>
</defs>
</svg>
