<svg width="14" height="14" viewBox="0 0 14 14" fill="none" xmlns="http://www.w3.org/2000/svg">
<g clip-path="url(#clip0_1068_187889)">
<path fill-rule="evenodd" clip-rule="evenodd" d="M8.79609 5H13.5655C13.8056 5 14.0002 4.80535 14.0002 4.56523V1.30448C14.0002 1.18918 13.9544 1.07859 13.8729 0.997058C13.7914 0.915523 13.6808 0.869718 13.5655 0.869718H10.9569L10.8351 0.330607C10.8113 0.234143 10.7552 0.148742 10.6761 0.088622C10.597 0.0285022 10.4997 -0.00270902 10.4004 0.00018452H8.79609C8.68079 0.00018452 8.5702 0.0459902 8.48867 0.127525C8.40713 0.209059 8.36133 0.319644 8.36133 0.434951V4.56523C8.36133 4.68054 8.40713 4.79113 8.48867 4.87266C8.5702 4.95419 8.68079 5 8.79609 5ZM2 3H6.25C6.80228 3 7.25 2.55228 7.25 2C7.25 1.44772 6.80228 1 6.25 1H1.45679C0.652229 1 0 1.65223 0 2.45679V9.54321C0 10.3478 0.65223 11 1.45679 11H5.48481L4.94788 12.5002H4C3.58579 12.5002 3.25 12.836 3.25 13.2502C3.25 13.6645 3.58579 14.0002 4 14.0002H10C10.4142 14.0002 10.75 13.6645 10.75 13.2502C10.75 12.836 10.4142 12.5002 10 12.5002H9.05215L8.51522 11H12.5432C13.3478 11 14 10.3478 14 9.54321V7.25C14 6.69772 13.5523 6.25 13 6.25C12.4477 6.25 12 6.69772 12 7.25V9.00001H2V3Z" fill="black"/>
</g>
<defs>
<clipPath id="clip0_1068_187889">
<rect width="14" height="14" fill="white"/>
</clipPath>
</defs>
</svg>
