<svg width="14" height="14" viewBox="0 0 14 14" fill="none" xmlns="http://www.w3.org/2000/svg">
<path d="M10.4286 2.57141C11.8598 2.57141 12.7635 3.64808 13.2516 4.62419C13.7574 5.63586 14 6.86326 14 7.85712C14 9.83808 12.9429 11.4285 11.2857 11.4285C10.7443 11.4285 10.2791 11.2118 9.90976 10.9556C9.54105 10.6999 9.20513 10.3617 8.90201 10.0112C8.44119 9.47815 7.96343 8.8029 7.4994 8.14705C7.36445 7.95632 7.23056 7.76708 7.0987 7.58362C6.48466 6.7293 5.88256 5.95105 5.25406 5.38717C4.62516 4.82292 4.07809 4.57141 3.57143 4.57141C3.28836 4.57141 2.90637 4.78045 2.53728 5.51862C2.18598 6.22124 2 7.1367 2 7.85712C2 9.30474 2.65715 9.42855 2.71429 9.42855C2.80273 9.42855 2.91903 9.40356 3.34598 8.96491C3.54885 8.75647 3.88142 8.33614 4.20261 7.91129C4.52898 7.4796 5.13591 7.37013 5.58447 7.67291C6.05174 7.98832 6.16752 8.62805 5.82794 9.07807C5.46006 9.56557 5.05775 10.0737 4.77918 10.3599C4.29185 10.8606 3.59369 11.4286 2.71429 11.4286C1.05714 11.4286 0 9.83807 0 7.85712C0 6.86326 0.242596 5.63586 0.74843 4.6242C1.23649 3.64808 2.14021 2.57141 3.57143 2.57141C4.77905 2.57141 5.78555 3.17704 6.58969 3.89851C7.39423 4.62034 8.10463 5.55638 8.72273 6.41634C8.88001 6.63517 9.03031 6.84746 9.17515 7.05203C9.62594 7.68871 10.0239 8.25076 10.415 8.70309C10.6676 8.99536 10.8775 9.19288 11.0495 9.31217C11.1325 9.36971 11.1937 9.39984 11.234 9.41494C11.2536 9.42225 11.267 9.42559 11.2749 9.42711C11.2788 9.42788 11.2832 9.42839 11.2832 9.42839L11.2857 9.42855C11.3429 9.42855 12 9.30474 12 7.85712C12 7.1367 11.814 6.22124 11.4627 5.51862C11.0936 4.78045 10.7116 4.57141 10.4286 4.57141C10.1362 4.59057 9.87935 4.64334 9.64631 4.71532C9.08839 4.88765 8.47213 4.61328 8.36886 4.03856C8.3028 3.6709 8.4718 3.29028 8.7842 3.08546C9.16033 2.83885 9.60668 2.60008 10.4286 2.57141Z" fill="black"/>
</svg>
