<svg width="14" height="14" viewBox="0 0 14 14" fill="none" xmlns="http://www.w3.org/2000/svg">
<path fill-rule="evenodd" clip-rule="evenodd" d="M5.65874 1.93946C5.94005 1.65816 6.32158 1.50012 6.7194 1.50012C7.11723 1.50012 7.49876 1.65816 7.78006 1.93946C8.06137 2.22077 8.2194 2.6023 8.2194 3.00012V3.25012C8.2194 3.97947 8.50914 4.67894 9.02486 5.19466C9.54058 5.71039 10.2401 6.00012 10.9694 6.00012C11.6987 6.00012 12.3982 5.71039 12.9139 5.19466C13.4297 4.67894 13.7194 3.97947 13.7194 3.25012V1.75012C13.7194 1.33591 13.3836 1.00012 12.9694 1.00012C12.5552 1.00012 12.2194 1.33591 12.2194 1.75012V3.25012C12.2194 3.58164 12.0877 3.89958 11.8533 4.134C11.6189 4.36843 11.3009 4.50012 10.9694 4.50012C10.6379 4.50012 10.3199 4.36843 10.0855 4.134C9.8511 3.89958 9.7194 3.58164 9.7194 3.25012V3.00012C9.7194 2.20447 9.40333 1.44141 8.84072 0.878802C8.27811 0.316193 7.51505 0.00012207 6.7194 0.00012207C5.92375 0.00012207 5.16069 0.316193 4.59808 0.878802C4.1889 1.28798 3.91013 1.80319 3.78851 2.35985C4.01083 2.32772 4.23816 2.3111 4.46938 2.3111C4.76959 2.3111 5.06325 2.33913 5.34789 2.39271C5.422 2.22536 5.52682 2.07139 5.65874 1.93946ZM7.9388 7.03051C7.9388 5.11441 6.38549 3.56111 4.4694 3.56111C2.5533 3.56111 1 5.11441 1 7.03051V10.4999C1 12.416 2.5533 13.9693 4.4694 13.9693C6.38549 13.9693 7.9388 12.416 7.9388 10.4999V7.03051ZM5.09442 5.9693C5.09442 5.62412 4.8146 5.3443 4.46942 5.3443C4.12424 5.3443 3.84442 5.62412 3.84442 5.9693V6.9693C3.84442 7.31448 4.12424 7.5943 4.46942 7.5943C4.8146 7.5943 5.09442 7.31448 5.09442 6.9693V5.9693Z" fill="black"/>
</svg>
