<svg width="14" height="14" viewBox="0 0 14 14" fill="none" xmlns="http://www.w3.org/2000/svg">
<path fill-rule="evenodd" clip-rule="evenodd" d="M7.00016 0.0776367C5.71439 0.0776367 4.44166 0.335252 3.2571 0.835272C2.9391 0.969508 2.79012 1.33612 2.92436 1.65413C3.05859 1.97214 3.42521 2.12111 3.74322 1.98688C4.77393 1.55179 5.88138 1.32764 7.00016 1.32764C8.11894 1.32764 9.22639 1.55179 10.2571 1.98688C10.5751 2.12111 10.9417 1.97214 11.0759 1.65413C11.2102 1.33612 11.0612 0.969508 10.7432 0.835272C9.55866 0.335252 8.28593 0.0776367 7.00016 0.0776367ZM3.50016 8.42242C3.50016 6.48943 5.06716 4.92242 7.00016 4.92242C8.93316 4.92242 10.5001 6.48943 10.5001 8.42242V10.4224C10.5001 12.3554 8.93316 13.9224 7.00016 13.9224C5.06716 13.9224 3.50016 12.3554 3.50016 10.4224V8.42242ZM4.63929 2.91885C6.1833 2.39456 7.85719 2.39456 9.40121 2.91885C9.72805 3.02984 9.90305 3.38478 9.79206 3.71162C9.68107 4.03847 9.32614 4.21346 8.99929 4.10248C7.71591 3.66669 6.32458 3.66669 5.04121 4.10248C4.71436 4.21346 4.35942 4.03847 4.24844 3.71162C4.13745 3.38478 4.31244 3.02984 4.63929 2.91885ZM7.75024 7.42242C7.75024 7.00821 7.41446 6.67242 7.00024 6.67242C6.58603 6.67242 6.25024 7.00821 6.25024 7.42242V8.42242C6.25024 8.83664 6.58603 9.17242 7.00024 9.17242C7.41446 9.17242 7.75024 8.83664 7.75024 8.42242V7.42242Z" fill="black"/>
</svg>
