<svg width="14" height="14" viewBox="0 0 14 14" fill="none" xmlns="http://www.w3.org/2000/svg">
<path fill-rule="evenodd" clip-rule="evenodd" d="M1.625 13.2117V2.79296L5.025 10.2805V12.2482C5.025 12.4524 4.9008 12.6361 4.71128 12.7122L2.31128 13.6757C2.15721 13.7375 1.98248 13.7189 1.84495 13.6259C1.70741 13.5329 1.625 13.3777 1.625 13.2117ZM12.3751 0.511231V11.3371L8.9751 4.28157V0.511231C8.9751 0.235088 9.19896 0.0112305 9.4751 0.0112305H11.8751C12.0077 0.0112305 12.1349 0.0639089 12.2287 0.157677C12.3224 0.251445 12.3751 0.378622 12.3751 0.511231ZM2.125 0.266113H5.37503L11.8751 13.7548L7.81255 12.7913L2.125 0.266113Z" fill="black"/>
</svg>
