<svg width="14" height="14" viewBox="0 0 14 14" fill="none" xmlns="http://www.w3.org/2000/svg">
<path fill-rule="evenodd" clip-rule="evenodd" d="M1.80549 4.48686C2.05836 2.36304 3.58358 0.629705 5.59737 0.0706266C4.69829 1.48703 4.19207 2.95966 4.11496 4.48686H1.80549ZM1.80548 5.73686H4.14727C4.29704 7.21289 4.8399 8.69941 5.75703 10.1948C3.66453 9.68488 2.06495 7.9165 1.80548 5.73686ZM12.1945 5.73686C11.9363 7.90587 10.351 9.66762 8.2735 10.1872C9.19999 8.7155 9.74606 7.23051 9.88403 5.73686H12.1945ZM7.00978 9.838C7.95407 8.43114 8.48277 7.06506 8.62765 5.73686H5.40492C5.56106 7.04523 6.08329 8.41022 7.00978 9.838ZM5.36688 4.48686H8.65091C8.54874 3.07895 8.00977 1.66163 6.99663 0.231277C5.98701 1.64015 5.45254 3.05585 5.36688 4.48686ZM12.1945 4.48686H9.90373C9.81137 2.97752 9.29794 1.50277 8.39084 0.0673828C10.4104 0.622974 11.9411 2.35892 12.1945 4.48686ZM6.25 11.5504V12.4458H2C1.58579 12.4458 1.25 12.7816 1.25 13.1958C1.25 13.61 1.58579 13.9458 2 13.9458H12C12.4142 13.9458 12.75 13.61 12.75 13.1958C12.75 12.7816 12.4142 12.4458 12 12.4458H7.75V11.5504C7.50393 11.5787 7.25366 11.5933 6.99999 11.5933C6.74633 11.5933 6.49607 11.5787 6.25 11.5504Z" fill="black"/>
</svg>
