<svg width="14" height="14" viewBox="0 0 14 14" fill="none" xmlns="http://www.w3.org/2000/svg">
<path fill-rule="evenodd" clip-rule="evenodd" d="M13 2.5C13.5523 2.5 14 2.94772 14 3.5V10.5C14 11.0523 13.5523 11.5 13 11.5C12.4477 11.5 12 11.0523 12 10.5V3.5C12 2.94772 12.4477 2.5 13 2.5ZM6 8.25H1.25C0.559644 8.25 0 7.69036 0 7C0 6.30965 0.559644 5.75 1.25 5.75H6V3.70711C6 3.26165 6.53857 3.03857 6.85355 3.35355L10.1464 6.64645C10.3417 6.84171 10.3417 7.15829 10.1464 7.35355L6.85355 10.6464C6.53857 10.9614 6 10.7383 6 10.2929V8.25Z" fill="black"/>
</svg>
