<svg width="14" height="14" viewBox="0 0 14 14" fill="none" xmlns="http://www.w3.org/2000/svg">
<g clip-path="url(#clip0_1068_187913)">
<path fill-rule="evenodd" clip-rule="evenodd" d="M2.9808 0.0152523L8.0008 1.09486C8.80642 1.2621 9.53012 1.70091 10.0508 2.33781C10.5714 2.97472 10.8574 3.77108 10.8608 4.59358C10.8591 5.1175 10.7404 5.63444 10.5133 6.10665C10.2863 6.57885 9.95661 6.99441 9.54837 7.32299C9.14013 7.65157 8.66365 7.88487 8.1537 8.00586C7.64375 8.12685 7.11321 8.13248 6.6008 8.02233L3.1608 7.2826L2.1608 11.9609C2.14771 12.0239 2.12231 12.0838 2.08607 12.137C2.04982 12.1902 2.00344 12.2357 1.94957 12.271C1.89571 12.3063 1.83541 12.3306 1.77213 12.3426C1.70886 12.3545 1.64384 12.3539 1.5808 12.3408L0.380804 12.0808C0.255305 12.0522 0.146138 11.9753 0.0769012 11.8668C0.00766461 11.7583 -0.0160786 11.6269 0.0108044 11.5011L1.0208 6.79278L2.3808 0.385117C2.39487 0.320879 2.42172 0.260129 2.45977 0.206488C2.49783 0.152848 2.54629 0.107415 2.60228 0.0728997C2.65828 0.038384 2.72065 0.0154917 2.78568 0.00558757C2.85071 -0.00431652 2.91707 -0.00102961 2.9808 0.0152523ZM3.6408 5.1034L6.6408 5.75316L6.6308 5.73317C6.97293 5.8074 7.33055 5.74273 7.62498 5.55339C7.91941 5.36405 8.12654 5.06554 8.2008 4.72353C8.27506 4.38153 8.21037 4.02404 8.02096 3.72972C7.83155 3.43539 7.53293 3.22834 7.1908 3.15411L4.1908 2.50434L3.6408 5.1034ZM4.16002 9.65954L4.33944 8.81419L6.33803 9.24396C7.0324 9.39322 7.75134 9.3856 8.44238 9.22164C9.13342 9.05768 9.77911 8.74154 10.3323 8.29628C10.8855 7.85102 11.3323 7.28788 11.64 6.64799C11.9477 6.0081 12.1086 5.30759 12.1108 4.59762V4.58837C12.1104 4.4953 12.1073 4.40248 12.1016 4.31001C12.517 4.53186 12.8877 4.83484 13.19 5.20458C13.7106 5.84149 13.9966 6.63785 14 7.46035C13.9983 7.98427 13.8796 8.5012 13.6526 8.97341C13.4255 9.44562 13.0958 9.86118 12.6876 10.1898C12.2793 10.5183 11.8029 10.7516 11.2929 10.8726C10.783 10.9936 10.2524 10.9992 9.74001 10.8891L6.30002 10.1494L5.4744 13.6098C5.46131 13.6728 5.43591 13.7326 5.39967 13.7859C5.36342 13.8391 5.31704 13.8846 5.26317 13.9199C5.20931 13.9552 5.14901 13.9795 5.08573 13.9915C5.02246 14.0034 4.95744 14.0028 4.8944 13.9896L3.6944 13.7297C3.5689 13.7011 3.45974 13.6242 3.3905 13.5157C3.32126 13.4072 3.29752 13.2758 3.3244 13.1499L4.16002 9.65954Z" fill="black"/>
</g>
<defs>
<clipPath id="clip0_1068_187913">
<rect width="14" height="14" fill="white"/>
</clipPath>
</defs>
</svg>
