<svg width="14" height="14" viewBox="0 0 14 14" fill="none" xmlns="http://www.w3.org/2000/svg">
<g clip-path="url(#clip0_1068_187898)">
<path fill-rule="evenodd" clip-rule="evenodd" d="M0.351562 1.30517C0.351562 1.28038 0.352551 1.25591 0.354488 1.23176L5.98374 6.86101L0.354434 12.4903C0.352532 12.4664 0.351562 12.4421 0.351562 12.4176V1.30517ZM1.60888 13.3572C1.70975 13.338 1.81026 13.3044 1.90767 13.2549L8.85033 9.7276L7.0444 7.92167L1.60888 13.3572ZM8.10506 6.86101L10.257 9.01294L12.8437 7.69871C13.562 7.33375 13.562 6.38899 12.8437 6.02403L10.2565 4.70956L8.10506 6.86101ZM8.84986 3.99489L1.90767 0.46783C1.81055 0.418487 1.71034 0.384943 1.60977 0.365723L7.0444 5.80035L8.84986 3.99489Z" fill="black"/>
</g>
<defs>
<clipPath id="clip0_1068_187898">
<rect width="14" height="14" fill="white"/>
</clipPath>
</defs>
</svg>
