<svg width="14" height="14" viewBox="0 0 14 14" fill="none" xmlns="http://www.w3.org/2000/svg">
<g clip-path="url(#clip0_1068_187934)">
<path fill-rule="evenodd" clip-rule="evenodd" d="M3.25 0.5V3H10.75V0.5C10.75 0.223858 10.5261 0 10.25 0H3.75C3.47386 0 3.25 0.223858 3.25 0.5ZM3.8877 9.5V13C3.8877 13.1326 3.93454 13.2598 4.01792 13.3536C4.1013 13.4473 4.21439 13.5 4.33231 13.5H9.66765C9.78557 13.5 9.89866 13.4473 9.98204 13.3536C10.0654 13.2598 10.1123 13.1326 10.1123 13V9.5H3.8877ZM0.450532 4.80396C0.733887 4.53775 1.11189 4.39319 1.5 4.39319H12.5C12.8881 4.39319 13.2661 4.53775 13.5495 4.80396C13.8339 5.07117 14 5.4405 14 5.8327V10.0605C14 10.4527 13.8339 10.822 13.5495 11.0893C13.2661 11.3555 12.8881 11.5 12.5 11.5H11.3623V9.50003C11.3623 8.80968 10.8026 8.25003 10.1123 8.25003H3.8877C3.19734 8.25003 2.6377 8.80968 2.6377 9.50003V11.5H1.5C1.11189 11.5 0.733887 11.3555 0.450532 11.0893C0.16612 10.822 0 10.4527 0 10.0605V5.8327C0 5.4405 0.16612 5.07117 0.450532 4.80396ZM9.31476 6.24783C9.31476 5.90266 9.59458 5.62283 9.93976 5.62283H11.5768C11.922 5.62283 12.2018 5.90266 12.2018 6.24783C12.2018 6.59301 11.922 6.87283 11.5768 6.87283H9.93976C9.59458 6.87283 9.31476 6.59301 9.31476 6.24783Z" fill="black"/>
</g>
<defs>
<clipPath id="clip0_1068_187934">
<rect width="14" height="14" fill="white"/>
</clipPath>
</defs>
</svg>
