<svg width="14" height="14" viewBox="0 0 14 14" fill="none" xmlns="http://www.w3.org/2000/svg">
<g clip-path="url(#clip0_1068_187928)">
<path fill-rule="evenodd" clip-rule="evenodd" d="M6.54608 0.998413C5.9938 0.998413 5.54608 1.44613 5.54608 1.99841C5.54608 2.5507 5.9938 2.99841 6.54608 2.99841H9.27421C9.97371 2.99841 10.6445 3.27629 11.1392 3.77092C11.6338 4.26554 11.9117 4.9364 11.9117 5.63591C11.9117 6.33542 11.6338 7.00627 11.1392 7.5009C10.6445 7.99553 9.97371 8.2734 9.27421 8.2734H4.81796V6.54529C4.81796 6.14083 4.57432 5.77619 4.20065 5.62141C3.82697 5.46663 3.39685 5.55218 3.11086 5.83818L0.384794 8.56425C0.37822 8.57078 0.371737 8.57741 0.365346 8.58412C0.278808 8.675 0.212657 8.77816 0.166893 8.88781C0.11726 9.00647 0.0898438 9.13674 0.0898438 9.2734C0.0898438 9.40806 0.116457 9.53649 0.164712 9.65374C0.213521 9.77261 0.286196 9.88398 0.382737 9.98052L3.11086 12.7087C3.39685 12.9947 3.82697 13.0802 4.20065 12.9254C4.57432 12.7707 4.81796 12.406 4.81796 12.0016V10.2734H9.27421C10.5041 10.2734 11.6837 9.78481 12.5534 8.91511C13.4231 8.04541 13.9117 6.86585 13.9117 5.63591C13.9117 4.40597 13.4231 3.2264 12.5534 2.3567C11.6837 1.48701 10.5041 0.998413 9.27421 0.998413H6.54608Z" fill="black"/>
</g>
<defs>
<clipPath id="clip0_1068_187928">
<rect width="14" height="14" fill="white"/>
</clipPath>
</defs>
</svg>
