<svg width="14" height="14" viewBox="0 0 14 14" fill="none" xmlns="http://www.w3.org/2000/svg">
<g clip-path="url(#clip0_1068_187910)">
<path fill-rule="evenodd" clip-rule="evenodd" d="M2 9V2.5H12V9H2ZM1.45679 0.5C0.652229 0.5 0 1.15223 0 1.95679V9.54321C0 10.3478 0.65223 11 1.45679 11H5.48306L4.94786 12.4954H3.99998C3.58577 12.4954 3.24998 12.8312 3.24998 13.2454C3.24998 13.6596 3.58577 13.9954 3.99998 13.9954H9.99998C10.4142 13.9954 10.75 13.6596 10.75 13.2454C10.75 12.8312 10.4142 12.4954 9.99998 12.4954H9.05214L8.51694 11H12.5432C13.3478 11 14 10.3478 14 9.54321V1.95679C14 1.15223 13.3478 0.5 12.5432 0.5H1.45679Z" fill="black"/>
</g>
<defs>
<clipPath id="clip0_1068_187910">
<rect width="14" height="14" fill="white"/>
</clipPath>
</defs>
</svg>
