<svg width="14" height="14" viewBox="0 0 14 14" fill="none" xmlns="http://www.w3.org/2000/svg">
<g clip-path="url(#clip0_1068_187943)">
<path fill-rule="evenodd" clip-rule="evenodd" d="M14 2.49465C14 1.32017 12.9036 0.541563 11.8532 0.730161C10.6188 0.951804 8.73727 1.14538 7 1.14538C5.26273 1.14538 3.38116 0.951804 2.14679 0.730161C1.09644 0.541563 0 1.32017 0 2.49465V6.00005V9.50544C0 10.68 1.09644 11.4586 2.14679 11.27C3.20507 11.08 4.73907 10.9106 6.25 10.8661V12.2989H4.63861C4.2244 12.2989 3.88861 12.6347 3.88861 13.0489C3.88861 13.4631 4.2244 13.7989 4.63861 13.7989H9.36138C9.77559 13.7989 10.1114 13.4631 10.1114 13.0489C10.1114 12.6347 9.77559 12.2989 9.36138 12.2989H7.75V10.8661C9.26093 10.9106 10.7949 11.08 11.8532 11.27C12.9036 11.4586 14 10.68 14 9.50544V6.00005V2.49465ZM7 3.14538C8.76644 3.14538 10.6597 2.96058 12 2.73463V6.00005V9.26547C10.6597 9.03952 8.76644 8.85471 7 8.85471C5.23356 8.85471 3.34026 9.03952 2 9.26547V6.00005V2.73463C3.34026 2.96058 5.23356 3.14538 7 3.14538Z" fill="black"/>
</g>
<defs>
<clipPath id="clip0_1068_187943">
<rect width="14" height="14" fill="white"/>
</clipPath>
</defs>
</svg>
