<svg width="14" height="14" viewBox="0 0 14 14" fill="none" xmlns="http://www.w3.org/2000/svg">
<g clip-path="url(#clip0_1068_187922)">
<path fill-rule="evenodd" clip-rule="evenodd" d="M2 2.24988V8.74989H4.17811L8.17632 5.00492C8.1834 4.99829 8.19067 4.99186 8.19813 4.98565C8.37781 4.83599 8.60427 4.75403 8.83813 4.75403C9.06504 4.75403 9.28499 4.83119 9.462 4.97251L12 6.79773V2.24988H2ZM0 1.70667C0 0.902107 0.652229 0.249878 1.45679 0.249878H12.5432C13.3478 0.249878 14 0.902107 14 1.70667V9.29309C14 10.0977 13.3478 10.7499 12.5432 10.7499H8.51522L9.05215 12.2501H10C10.4142 12.2501 10.75 12.5859 10.75 13.0001C10.75 13.4143 10.4142 13.7501 10 13.7501H4C3.58579 13.7501 3.25 13.4143 3.25 13.0001C3.25 12.5859 3.58579 12.2501 4 12.2501H4.94788L5.48481 10.7499H1.45679C0.65223 10.7499 0 10.0977 0 9.29309V1.70667ZM5.96875 4.39075C5.96875 5.14151 5.36014 5.75012 4.60938 5.75012C3.85861 5.75012 3.25 5.14151 3.25 4.39075C3.25 3.63999 3.85861 3.03137 4.60938 3.03137C5.36014 3.03137 5.96875 3.63999 5.96875 4.39075Z" fill="black"/>
</g>
<defs>
<clipPath id="clip0_1068_187922">
<rect width="14" height="14" fill="white"/>
</clipPath>
</defs>
</svg>
