<svg width="14" height="14" viewBox="0 0 14 14" fill="none" xmlns="http://www.w3.org/2000/svg">
<g clip-path="url(#clip0_1068_187925)">
<path fill-rule="evenodd" clip-rule="evenodd" d="M12 9.00001V2.5H2V9.00001H12ZM12.5432 0.5C13.3478 0.5 14 1.15223 14 1.95679V9.54321C14 10.3478 13.3478 11 12.5432 11H10.0568C10.5872 11.5918 10.9371 12.3282 11.0579 13.1215C11.1202 13.531 10.8388 13.9135 10.4293 13.9758C10.0198 14.0382 9.63731 13.7568 9.57495 13.3473C9.48119 12.7315 9.16988 12.1698 8.69748 11.7639C8.22508 11.358 7.62286 11.1348 7.00002 11.1348C6.37717 11.1348 5.77495 11.358 5.30255 11.7639C4.83015 12.1698 4.51884 12.7315 4.42508 13.3473C4.36272 13.7568 3.98021 14.0382 3.57072 13.9758C3.16123 13.9135 2.87982 13.531 2.94217 13.1215C3.06296 12.3282 3.41286 11.5918 3.94325 11H1.45679C0.652229 11 0 10.3478 0 9.54321V1.95679C0 1.15223 0.652228 0.5 1.45679 0.5H12.5432Z" fill="black"/>
</g>
<defs>
<clipPath id="clip0_1068_187925">
<rect width="14" height="14" fill="white"/>
</clipPath>
</defs>
</svg>
