<svg width="14" height="14" viewBox="0 0 14 14" fill="none" xmlns="http://www.w3.org/2000/svg">
<g clip-path="url(#clip0_1068_187931)">
<path fill-rule="evenodd" clip-rule="evenodd" d="M11.0761 3.53792V2.74339C11.0761 2.47817 10.9707 2.22382 10.7832 2.03628L9.03978 0.292894C8.85224 0.105357 8.59789 0 8.33267 0H3.42395C3.14781 0 2.92395 0.223858 2.92395 0.5V3.53792H11.0761ZM0.470422 5.13255C0.755714 4.89179 1.12702 4.76749 1.5 4.76749H12.5C12.873 4.76749 13.2443 4.89179 13.5296 5.13255C13.8174 5.37545 14 5.72493 14 6.1114V9.90899C14 10.2955 13.8174 10.6449 13.5296 10.8878C13.2443 11.1286 12.873 11.2529 12.5 11.2529H11.7995C11.8093 11.2075 11.8144 11.1609 11.8144 11.1138V7.9824C11.8144 7.79785 11.7364 7.62085 11.5975 7.49035C11.4586 7.35984 11.2702 7.28653 11.0737 7.28653H2.92634C2.7299 7.28653 2.54151 7.35984 2.40261 7.49035C2.2637 7.62085 2.18567 7.79785 2.18567 7.9824V11.1138C2.18567 11.1609 2.19074 11.2075 2.20061 11.2529H1.5C1.12702 11.2529 0.755714 11.1286 0.470422 10.8878C0.182585 10.6449 0 10.2955 0 9.90899V6.1114C0 5.72494 0.182585 5.37545 0.470422 5.13255ZM7.75 9C7.75 8.58579 7.41421 8.25 7 8.25C6.58579 8.25 6.25 8.58579 6.25 9V13.197C6.25 13.6112 6.58579 13.947 7 13.947C7.41421 13.947 7.75 13.6112 7.75 13.197V9ZM4.28898 8.25C4.7032 8.25 5.03898 8.58579 5.03898 9V11.6617C5.03898 12.197 4.82636 12.7103 4.44788 13.0888C4.0694 13.4673 3.55607 13.6799 3.02081 13.6799C2.6066 13.6799 2.27081 13.3441 2.27081 12.9299C2.27081 12.5157 2.6066 12.1799 3.02081 12.1799C3.15824 12.1799 3.29004 12.1253 3.38722 12.0281C3.48439 11.931 3.53898 11.7992 3.53898 11.6617V9C3.53898 8.58579 3.87477 8.25 4.28898 8.25ZM10.4608 9C10.4608 8.58579 10.125 8.25 9.71082 8.25C9.2966 8.25 8.96082 8.58579 8.96082 9V11.6617C8.96082 12.197 9.17344 12.7103 9.55192 13.0888C9.9304 13.4673 10.4437 13.6799 10.979 13.6799C11.3932 13.6799 11.729 13.3441 11.729 12.9299C11.729 12.5157 11.3932 12.1799 10.979 12.1799C10.8416 12.1799 10.7098 12.1253 10.6126 12.0281C10.5154 11.931 10.4608 11.7992 10.4608 11.6617V9Z" fill="black"/>
</g>
<defs>
<clipPath id="clip0_1068_187931">
<rect width="14" height="14" fill="white"/>
</clipPath>
</defs>
</svg>
