<svg width="14" height="14" viewBox="0 0 14 14" fill="none" xmlns="http://www.w3.org/2000/svg">
<path fill-rule="evenodd" clip-rule="evenodd" d="M3.69949 3.95752C3.9991 4.24354 4.01011 4.71829 3.72408 5.01789L1.83182 7L3.72408 8.98211C4.01011 9.28171 3.9991 9.75646 3.69949 10.0425C3.39989 10.3285 2.92514 10.3175 2.63912 10.0179L0.25244 7.51789C-0.0242509 7.22807 -0.0242509 6.77194 0.25244 6.48211L2.63912 3.98211C2.92514 3.6825 3.39989 3.67149 3.69949 3.95752ZM10.301 3.95752C10.6006 3.67149 11.0754 3.6825 11.3614 3.98211L13.7481 6.48211C14.0248 6.77194 14.0248 7.22807 13.7481 7.51789L11.3614 10.0179C11.0754 10.3175 10.6006 10.3285 10.301 10.0425C10.0014 9.75646 9.99046 9.28171 10.2764 8.98211L12.1687 7L10.2764 5.01789C9.99046 4.71829 10.0014 4.24354 10.301 3.95752ZM4.5003 6.25C4.91451 6.25 5.2503 6.58579 5.2503 7C5.2503 7.41421 4.91451 7.75 4.5003 7.75C4.08609 7.75 3.7503 7.41421 3.7503 7C3.7503 6.58579 4.08609 6.25 4.5003 6.25ZM7.7503 7C7.7503 6.58579 7.41451 6.25 7.0003 6.25C6.58609 6.25 6.2503 6.58579 6.2503 7C6.2503 7.41421 6.58609 7.75 7.0003 7.75C7.41451 7.75 7.7503 7.41421 7.7503 7ZM10.2503 7C10.2503 6.58579 9.91451 6.25 9.5003 6.25C9.08609 6.25 8.7503 6.58579 8.7503 7C8.7503 7.41421 9.08609 7.75 9.5003 7.75C9.91451 7.75 10.2503 7.41421 10.2503 7Z" fill="black"/>
</svg>
