<svg width="14" height="14" viewBox="0 0 14 14" fill="none" xmlns="http://www.w3.org/2000/svg">
<g clip-path="url(#clip0_1068_187949)">
<path fill-rule="evenodd" clip-rule="evenodd" d="M8.855 0.25C9.28298 0.25 9.62993 0.59695 9.62993 1.02493V6.12578C9.62993 6.55376 9.28298 6.90071 8.855 6.90071C8.42701 6.90071 8.08006 6.55376 8.08006 6.12578V1.02493C8.08006 0.59695 8.42701 0.25 8.855 0.25ZM5.14581 7.09937C5.5738 7.09937 5.92075 7.44632 5.92075 7.8743V12.9751C5.92075 13.4031 5.5738 13.7501 5.14581 13.7501C4.71783 13.7501 4.37088 13.4031 4.37088 12.9751V7.8743C4.37088 7.44632 4.71783 7.09937 5.14581 7.09937ZM1.02493 4.37085C0.59695 4.37085 0.25 4.7178 0.25 5.14578C0.25 5.57377 0.59695 5.92072 1.02493 5.92072H6.12566C6.55365 5.92072 6.9006 5.57377 6.9006 5.14578C6.9006 4.7178 6.55365 4.37085 6.12566 4.37085H1.02493ZM7.09929 8.85501C7.09929 8.42703 7.44624 8.08008 7.87422 8.08008H12.9752C13.4032 8.08008 13.7501 8.42703 13.7501 8.85501C13.7501 9.283 13.4032 9.62995 12.9752 9.62995H7.87422C7.44624 9.62995 7.09929 9.283 7.09929 8.85501ZM5.00006 2C5.00006 1.44772 5.44778 1 6.00006 1C6.55235 1 7.00006 1.44772 7.00006 2C7.00006 2.55228 6.55235 3 6.00006 3C5.44778 3 5.00006 2.55228 5.00006 2ZM11.0001 6C11.0001 5.44772 11.4478 5 12.0001 5C12.5523 5 13.0001 5.44772 13.0001 6C13.0001 6.55228 12.5523 7 12.0001 7C11.4478 7 11.0001 6.55228 11.0001 6ZM8.00006 11C7.44778 11 7.00006 11.4477 7.00006 12C7.00006 12.5523 7.44778 13 8.00006 13C8.55235 13 9.00006 12.5523 9.00006 12C9.00006 11.4477 8.55235 11 8.00006 11ZM1.00006 8C1.00006 7.44772 1.44778 7 2.00006 7C2.55235 7 3.00006 7.44772 3.00006 8C3.00006 8.55228 2.55235 9 2.00006 9C1.44778 9 1.00006 8.55228 1.00006 8Z" fill="black"/>
</g>
<defs>
<clipPath id="clip0_1068_187949">
<rect width="14" height="14" fill="white"/>
</clipPath>
</defs>
</svg>
