<svg width="14" height="14" viewBox="0 0 14 14" fill="none" xmlns="http://www.w3.org/2000/svg">
<g clip-path="url(#clip0_1068_187955)">
<path fill-rule="evenodd" clip-rule="evenodd" d="M0.5 7C0.5 3.41015 3.41015 0.5 7 0.5C10.5899 0.5 13.5 3.41015 13.5 7C13.5 10.5899 10.5899 13.5 7 13.5C3.41015 13.5 0.5 10.5899 0.5 7ZM5.15875 9.59397C5.47994 9.51875 5.81531 9.47882 6.1608 9.47882C6.83043 9.47882 7.46327 9.62883 8.02909 9.89649C8.34111 10.0441 8.71372 9.91081 8.86132 9.59879C9.00893 9.28676 8.87564 8.91416 8.56361 8.76655C7.83421 8.4215 7.01914 8.22882 6.1608 8.22882C5.71866 8.22882 5.28767 8.27995 4.87372 8.3769C4.53764 8.4556 4.32899 8.79186 4.4077 9.12794C4.48641 9.46403 4.82266 9.67268 5.15875 9.59397ZM6.16085 7.47882C5.65488 7.47882 5.16344 7.53764 4.69271 7.64855C4.35673 7.72771 4.02019 7.51952 3.94103 7.18354C3.86188 6.84756 4.07007 6.51103 4.40605 6.43187C4.97005 6.29898 5.55766 6.22882 6.16085 6.22882C7.39938 6.22882 8.57063 6.52458 9.60615 7.04989C9.91398 7.20605 10.0369 7.58219 9.88078 7.89002C9.72462 8.19786 9.34847 8.32081 9.04064 8.16465C8.17635 7.72621 7.1984 7.47882 6.16085 7.47882ZM4.22 5.70471C4.84229 5.5571 5.49203 5.47882 6.16086 5.47882C7.57635 5.47882 8.90811 5.82948 10.0758 6.44814C10.3808 6.60974 10.7591 6.49348 10.9207 6.18847C11.0823 5.88345 10.966 5.50519 10.661 5.34359C9.31741 4.63173 7.78526 4.22882 6.16086 4.22882C5.39416 4.22882 4.64762 4.31859 3.93149 4.48846C3.59563 4.56813 3.38795 4.90498 3.46762 5.24084C3.54729 5.5767 3.88414 5.78438 4.22 5.70471Z" fill="black"/>
</g>
<defs>
<clipPath id="clip0_1068_187955">
<rect width="14" height="14" fill="white"/>
</clipPath>
</defs>
</svg>
