<svg width="14" height="14" viewBox="0 0 14 14" fill="none" xmlns="http://www.w3.org/2000/svg">
<g clip-path="url(#clip0_1068_187946)">
<path fill-rule="evenodd" clip-rule="evenodd" d="M0.25 7C0.25 3.27208 3.27208 0.25 7 0.25C10.7279 0.25 13.75 3.27208 13.75 7C13.75 10.7279 10.7279 13.75 7 13.75C3.27208 13.75 0.25 10.7279 0.25 7ZM9.25184 11.0643L10.2969 3.13171L2.13166 7.06705L4.54939 7.94317L7.23463 5.86744C7.45311 5.69855 7.76713 5.73875 7.93601 5.95723C8.1049 6.17571 8.0647 6.48973 7.84622 6.65861L5.61825 8.38087L5.61829 11.1069L7.30337 9.50304L9.25184 11.0643Z" fill="black"/>
</g>
<defs>
<clipPath id="clip0_1068_187946">
<rect width="14" height="14" fill="white"/>
</clipPath>
</defs>
</svg>
