<svg width="14" height="14" viewBox="0 0 14 14" fill="none" xmlns="http://www.w3.org/2000/svg">
<path d="M9.42188 1.14062C9.42188 0.58834 8.97416 0.140625 8.42188 0.140625C7.86959 0.140625 7.42188 0.58834 7.42188 1.14062V9.7207C7.42188 10.7659 6.57454 11.6133 5.5293 11.6133C4.48406 11.6133 3.63672 10.7659 3.63672 9.7207C3.63672 8.67546 4.48405 7.82812 5.5293 7.82812C6.08158 7.82812 6.5293 7.38041 6.5293 6.82812C6.5293 6.27584 6.08158 5.82812 5.5293 5.82812C3.37949 5.82812 1.63672 7.57089 1.63672 9.7207C1.63672 11.8705 3.37949 13.6133 5.5293 13.6133C7.67911 13.6133 9.42188 11.8705 9.42188 9.7207V5.28256C10.3246 6.00023 11.4674 6.42898 12.7102 6.42898C13.2625 6.42898 13.7102 5.98126 13.7102 5.42898C13.7102 4.8767 13.2625 4.42898 12.7102 4.42898C10.8941 4.42898 9.42188 2.95673 9.42188 1.14062Z" fill="black"/>
</svg>
