<svg width="14" height="14" viewBox="0 0 14 14" fill="none" xmlns="http://www.w3.org/2000/svg">
<path d="M8.17695 0.476102C8.02544 0.36247 7.82273 0.344192 7.65334 0.428888C7.48395 0.513584 7.37695 0.686715 7.37695 0.876101C7.37695 2.52097 6.98108 4.67341 4.97085 5.53257C4.69905 5.13811 4.43945 4.47042 4.43945 3.5011C4.43945 3.32781 4.34972 3.16688 4.20231 3.07578C4.0549 2.98467 3.87083 2.97639 3.71584 3.05389C2.67011 3.57676 1.25195 5.06322 1.25195 7.8761C1.25195 9.76178 1.96405 11.2128 3.06039 12.1873C4.14753 13.1537 5.58291 13.6261 7.00195 13.6261C8.42098 13.6261 9.85637 13.1537 10.9435 12.1873C12.0398 11.2128 12.7519 9.76178 12.7519 7.8761C12.7519 4.10595 9.92086 1.78403 8.17695 0.476102Z" fill="black"/>
</svg>
