<svg width="14" height="14" viewBox="0 0 14 14" fill="none" xmlns="http://www.w3.org/2000/svg">
<path fill-rule="evenodd" clip-rule="evenodd" d="M8.47405 1.1632C9.77618 0.827743 11.3476 1.2901 12.304 2.30864H13.3775C13.5496 2.30864 13.7095 2.3971 13.801 2.54283C13.8925 2.68855 13.9026 2.87107 13.8278 3.02602L12.7722 5.21251C13.0717 7.76022 12.0751 10.196 10.0704 11.636C8.0197 13.109 5.00285 13.4801 1.42568 12.0144C1.23741 11.9435 1.0748 11.8175 0.959229 11.6526C0.841356 11.4844 0.778123 11.284 0.778123 11.0786C0.778123 10.8732 0.841356 10.6728 0.959229 10.5047C1.0771 10.3365 1.2439 10.2087 1.43695 10.1386C1.45001 10.1339 1.46327 10.1297 1.47668 10.126C2.02683 9.97689 2.55282 9.75372 3.0406 9.46364C2.07413 8.88294 1.28472 8.03895 0.770145 7.02251C0.127689 5.75346 -0.0444883 4.29828 0.283414 2.91498C0.304264 2.7417 0.37015 2.57659 0.474878 2.43629C0.589208 2.28311 0.745042 2.16592 0.923922 2.09857C1.1028 2.03123 1.29724 2.01656 1.48419 2.05631C1.67097 2.09602 1.84248 2.18837 1.97843 2.32245C3.39089 3.71077 4.62674 4.28532 5.48241 4.52023C5.81414 4.61131 6.09188 4.6522 6.30434 4.66875C6.23852 3.78839 6.38841 3.05479 6.72023 2.47463C7.12459 1.76761 7.76707 1.34534 8.47405 1.1632Z" fill="black"/>
</svg>
