<svg width="14" height="14" viewBox="0 0 14 14" fill="none" xmlns="http://www.w3.org/2000/svg">
<g clip-path="url(#clip0_1068_187985)">
<path fill-rule="evenodd" clip-rule="evenodd" d="M2.78919 1.08726C3.06045 0.636148 3.54831 0.360229 4.0747 0.360229L9.92675 0.360234C10.4526 0.360234 10.94 0.635564 11.2114 1.0859L13.797 5.37561H0.210632L2.78919 1.08726ZM0 7C0 6.72386 0.223858 6.5 0.5 6.5H13.5C13.7761 6.5 14 6.72386 14 7V12C14 12.8284 13.3284 13.5 12.5 13.5H9.48063C9.02495 13.5 8.59398 13.2929 8.30932 12.937L7.39043 11.7884C7.19027 11.5382 6.80973 11.5382 6.60957 11.7884L5.69068 12.937C5.40602 13.2929 4.97505 13.5 4.51938 13.5H1.5C0.671573 13.5 0 12.8284 0 12V7Z" fill="black"/>
</g>
<defs>
<clipPath id="clip0_1068_187985">
<rect width="14" height="14" fill="white"/>
</clipPath>
</defs>
</svg>
