<svg width="14" height="14" viewBox="0 0 14 14" fill="none" xmlns="http://www.w3.org/2000/svg">
<path fill-rule="evenodd" clip-rule="evenodd" d="M6.75002 0C5.96864 0 5.21927 0.310401 4.66675 0.862918C4.11423 1.41544 3.80383 2.16481 3.80383 2.94619V6.37085C3.80383 7.15223 4.11423 7.9016 4.66675 8.45412C5.21927 9.00663 5.96864 9.31704 6.75002 9.31704C7.5314 9.31704 8.28077 9.00663 8.83329 8.45412C9.38581 7.9016 9.69621 7.15223 9.69621 6.37085V2.94619C9.69621 2.16481 9.38581 1.41544 8.83329 0.862918C8.28077 0.310401 7.5314 0 6.75002 0ZM6 12.0075V13.2201C6 13.6343 6.33579 13.9701 6.75 13.9701C7.16421 13.9701 7.5 13.6343 7.5 13.2201V12.0075C10.2834 11.877 12.5 9.57899 12.5 6.76331C12.5 6.34909 12.1642 6.01331 11.75 6.01331C11.3358 6.01331 11 6.34909 11 6.76331C11 8.83437 9.32107 10.5133 7.25 10.5133H6.76367C6.75912 10.5132 6.75457 10.5132 6.75 10.5132C6.74543 10.5132 6.74088 10.5132 6.73633 10.5133H6.25C4.17893 10.5133 2.5 8.83437 2.5 6.76331C2.5 6.34909 2.16421 6.01331 1.75 6.01331C1.33579 6.01331 1 6.34909 1 6.76331C1 9.57899 3.21659 11.877 6 12.0075Z" fill="black"/>
</svg>
