<svg width="14" height="14" viewBox="0 0 14 14" fill="none" xmlns="http://www.w3.org/2000/svg">
<g clip-path="url(#clip0_1068_187991)">
<path fill-rule="evenodd" clip-rule="evenodd" d="M4.91669 0.862918C5.46921 0.310401 6.21858 0 6.99996 0C7.78134 0 8.53071 0.310401 9.08323 0.862918C9.63575 1.41544 9.94615 2.16481 9.94615 2.94619V6.37085C9.94615 7.04984 9.71176 7.70466 9.2878 8.22715L10.3088 9.24809C10.8951 8.58598 11.25 7.71626 11.25 6.76331C11.25 6.34909 11.5858 6.01331 12 6.01331C12.4142 6.01331 12.75 6.34909 12.75 6.76331C12.75 8.13081 12.2266 9.37642 11.3707 10.3101L13.7803 12.7197C14.0732 13.0126 14.0732 13.4874 13.7803 13.7803C13.4874 14.0732 13.0126 14.0732 12.7197 13.7803L8.05933 9.11999C8.05852 9.1203 8.05772 9.1206 8.05692 9.12091L4.05377 5.11776V5.11443L0.21967 1.28033C-0.0732233 0.987437 -0.0732233 0.512563 0.21967 0.21967C0.512563 -0.0732233 0.987437 -0.0732233 1.28033 0.21967L4.05377 2.99311V2.94619C4.05377 2.16481 4.36417 1.41544 4.91669 0.862918ZM7.75 11.2632C7.75 10.849 7.41421 10.5132 7 10.5132L6.98633 10.5133H6.5C4.42893 10.5133 2.75 8.83437 2.75 6.76331C2.75 6.34909 2.41421 6.01331 2 6.01331C1.58579 6.01331 1.25 6.34909 1.25 6.76331C1.25 9.57899 3.46659 11.877 6.25 12.0075V13.2201C6.25 13.6343 6.58579 13.9701 7 13.9701C7.41421 13.9701 7.75 13.6343 7.75 13.2201V11.2632Z" fill="black"/>
</g>
<defs>
<clipPath id="clip0_1068_187991">
<rect width="14" height="14" fill="white"/>
</clipPath>
</defs>
</svg>
