<svg width="14" height="14" viewBox="0 0 14 14" fill="none" xmlns="http://www.w3.org/2000/svg">
<g clip-path="url(#clip0_1068_187973)">
<path fill-rule="evenodd" clip-rule="evenodd" d="M0 1.53812C0 0.696591 0.694014 0 1.53623 0H12.4638C13.306 0 14 0.69659 14 1.53812V4.46371C14 8.72248 11.4311 12.394 7.57577 13.8884C7.23129 14.0497 6.81222 14.0195 6.46482 13.9035L6.45284 13.8993L6.44342 13.8958C2.57482 12.4052 0 8.63232 0 4.46371V1.53812ZM3.65545 5.1308C4.01637 4.86333 5.27972 4.22144 6.99761 4.22144C8.7155 4.22144 9.97886 4.86333 10.3398 5.1308C10.6171 5.33632 11.0085 5.27811 11.214 5.00078C11.4196 4.72346 11.3614 4.33203 11.084 4.12651C10.5164 3.70583 8.99401 2.97144 6.99761 2.97144C5.00122 2.97144 3.47886 3.70583 2.9112 4.12651C2.63387 4.33203 2.57566 4.72346 2.78118 5.00078C2.9867 5.27811 3.37813 5.33632 3.65545 5.1308ZM6.99758 6.80493C6.20195 6.80493 5.28515 7.18896 4.93419 7.38403C4.63248 7.55172 4.25196 7.44308 4.08426 7.14137C3.91657 6.83966 4.02521 6.45914 4.32692 6.29145C4.76497 6.04798 5.89959 5.55493 6.99758 5.55493C8.09557 5.55493 9.2302 6.04798 9.66824 6.29145C9.96995 6.45914 10.0786 6.83966 9.9109 7.14137C9.74321 7.44308 9.36269 7.55172 9.06098 7.38403C8.71001 7.18896 7.79322 6.80493 6.99758 6.80493ZM6.52604 9.62531C6.55379 9.60989 6.63259 9.57198 6.73436 9.53909C6.83817 9.50555 6.93116 9.48859 6.9976 9.48859C7.06405 9.48859 7.15704 9.50555 7.26085 9.53909C7.36262 9.57198 7.44142 9.60989 7.46916 9.62531C7.77087 9.793 8.15139 9.68436 8.31908 9.38265C8.48678 9.08094 8.37813 8.70042 8.07643 8.53273C7.90369 8.43672 7.45886 8.23859 6.9976 8.23859C6.53635 8.23859 6.09152 8.43672 5.91878 8.53273C5.61707 8.70042 5.50843 9.08094 5.67612 9.38265C5.84381 9.68436 6.22434 9.793 6.52604 9.62531Z" fill="black"/>
</g>
<defs>
<clipPath id="clip0_1068_187973">
<rect width="14" height="14" fill="white"/>
</clipPath>
</defs>
</svg>
