<svg width="14" height="14" viewBox="0 0 14 14" fill="none" xmlns="http://www.w3.org/2000/svg">
<path fill-rule="evenodd" clip-rule="evenodd" d="M4.43934 0.43934C4.72064 0.158035 5.10218 0 5.5 0H8.5C8.89782 0 9.27936 0.158035 9.56066 0.43934C9.84196 0.720644 10 1.10217 10 1.5V1.75H10.5C11.4665 1.75 12.25 2.5335 12.25 3.5V10.5C12.25 11.4665 11.4665 12.25 10.5 12.25H10V12.5C10 12.8978 9.84196 13.2794 9.56066 13.5607C9.27936 13.842 8.89783 14 8.5 14H5.5C5.10217 14 4.72064 13.842 4.43934 13.5607C4.15804 13.2794 4 12.8978 4 12.5V12.25H3.5C2.5335 12.25 1.75 11.4665 1.75 10.5V3.5C1.75 2.5335 2.5335 1.75 3.5 1.75H4V1.5C4 1.10217 4.15804 0.720644 4.43934 0.43934ZM3.25 3.5C3.25 3.36193 3.36193 3.25 3.5 3.25H10.5C10.6381 3.25 10.75 3.36193 10.75 3.5V10.5C10.75 10.6381 10.6381 10.75 10.5 10.75H3.5C3.36193 10.75 3.25 10.6381 3.25 10.5V3.5Z" fill="black"/>
</svg>
