<svg width="14" height="14" viewBox="0 0 14 14" fill="none" xmlns="http://www.w3.org/2000/svg">
<path fill-rule="evenodd" clip-rule="evenodd" d="M5.5 0C5.10218 0 4.72064 0.158035 4.43934 0.43934C4.15804 0.720644 4 1.10217 4 1.5V2.69102C2.63989 3.63973 1.75 5.21594 1.75 7C1.75 8.78406 2.63989 10.3603 4 11.309V12.5C4 12.8978 4.15804 13.2794 4.43934 13.5607C4.72064 13.842 5.10217 14 5.5 14H8.5C8.89783 14 9.27936 13.842 9.56066 13.5607C9.84196 13.2794 10 12.8978 10 12.5V11.309C11.3601 10.3603 12.25 8.78406 12.25 7C12.25 5.21594 11.3601 3.63973 10 2.69102V1.5C10 1.10217 9.84196 0.720644 9.56066 0.43934C9.27936 0.158035 8.89782 0 8.5 0H5.5ZM3.25 7C3.25 4.92893 4.92893 3.25 7 3.25C9.07107 3.25 10.75 4.92893 10.75 7C10.75 9.07107 9.07107 10.75 7 10.75C4.92893 10.75 3.25 9.07107 3.25 7ZM7.0688 5.43213C6.98347 5.20999 6.77939 5.05558 6.54242 5.03386C6.30544 5.01214 6.07669 5.12688 5.9524 5.3298L5.30739 6.38288H4.81934C4.47416 6.38288 4.19434 6.6627 4.19434 7.00788C4.19434 7.35306 4.47416 7.63288 4.81934 7.63288H5.6575C5.875 7.63288 6.07687 7.5198 6.19047 7.33432L6.3564 7.06342L6.96635 8.65121C7.05316 8.8772 7.26267 9.03273 7.50412 9.05042C7.74556 9.0681 7.9755 8.94477 8.09432 8.73384L8.71451 7.63288H9.346C9.69117 7.63288 9.971 7.35306 9.971 7.00788C9.971 6.6627 9.69117 6.38288 9.346 6.38288H8.34924C8.12358 6.38288 7.91545 6.50452 7.8047 6.70113L7.657 6.96331L7.0688 5.43213Z" fill="black"/>
</svg>
