<svg width="14" height="14" viewBox="0 0 14 14" fill="none" xmlns="http://www.w3.org/2000/svg">
<path fill-rule="evenodd" clip-rule="evenodd" d="M4.43934 0.43934C4.72064 0.158035 5.10218 0 5.5 0H8.5C8.89782 0 9.27936 0.158035 9.56066 0.43934C9.84196 0.720644 10 1.10217 10 1.5V2.69102C11.3601 3.63973 12.25 5.21594 12.25 7C12.25 8.78406 11.3601 10.3603 10 11.309V12.5C10 12.8978 9.84196 13.2794 9.56066 13.5607C9.27936 13.842 8.89783 14 8.5 14H5.5C5.10217 14 4.72064 13.842 4.43934 13.5607C4.15804 13.2794 4 12.8978 4 12.5V11.309C2.63989 10.3603 1.75 8.78406 1.75 7C1.75 5.21594 2.63989 3.63973 4 2.69102V1.5C4 1.10217 4.15804 0.720644 4.43934 0.43934ZM7 3.25C4.92893 3.25 3.25 4.92893 3.25 7C3.25 9.07107 4.92893 10.75 7 10.75C9.07107 10.75 10.75 9.07107 10.75 7C10.75 4.92893 9.07107 3.25 7 3.25Z" fill="black"/>
</svg>
