<svg width="14" height="14" viewBox="0 0 14 14" fill="none" xmlns="http://www.w3.org/2000/svg">
<g clip-path="url(#clip0_1068_188000)">
<path fill-rule="evenodd" clip-rule="evenodd" d="M0 7C0 3.13401 3.13401 0 7 0C10.866 0 14 3.13401 14 7C14 10.866 10.866 14 7 14C3.13401 14 0 10.866 0 7ZM8.61586 5.92278L10.1348 5.24951C10.1757 5.23371 10.2199 5.22815 10.2635 5.23333C10.3071 5.23851 10.3487 5.25426 10.3849 5.27922C10.421 5.30417 10.4504 5.33758 10.4707 5.37652C10.4909 5.41547 10.5013 5.45877 10.501 5.50266V8.49739C10.5013 8.54128 10.4909 8.58459 10.4707 8.62353C10.4504 8.66247 10.421 8.69588 10.3849 8.72083C10.3487 8.74579 10.3071 8.76154 10.2635 8.76672C10.2199 8.7719 10.1757 8.76635 10.1348 8.75054L8.61586 8.07727V8.8852C8.61586 9.02805 8.55911 9.16505 8.4581 9.26606C8.35709 9.36707 8.22009 9.42382 8.07724 9.42382H4.03758C3.89473 9.42382 3.75773 9.36707 3.65672 9.26606C3.55571 9.16505 3.49896 9.02805 3.49896 8.8852V5.11485C3.49896 4.972 3.55571 4.835 3.65672 4.73399C3.75773 4.63298 3.89473 4.57623 4.03758 4.57623H8.07724C8.22009 4.57623 8.35709 4.63298 8.4581 4.73399C8.55911 4.835 8.61586 4.972 8.61586 5.11485V5.92278Z" fill="black"/>
</g>
<defs>
<clipPath id="clip0_1068_188000">
<rect width="14" height="14" fill="white"/>
</clipPath>
</defs>
</svg>
