<svg width="14" height="14" viewBox="0 0 14 14" fill="none" xmlns="http://www.w3.org/2000/svg">
<g clip-path="url(#clip0_1068_188006)">
<path fill-rule="evenodd" clip-rule="evenodd" d="M0.5 6.52002C0.5 2.93017 3.41015 0.0200195 7 0.0200195C10.5899 0.0200195 13.5 2.93017 13.5 6.52002C13.5 8.38627 12.7135 10.0688 11.4539 11.2543C12.0632 11.6446 12.6193 12.1154 13.1067 12.6552C13.3843 12.9626 13.3601 13.4369 13.0526 13.7145C12.7452 13.992 12.2709 13.9678 11.9933 13.6604C11.462 13.0719 10.8304 12.5839 10.129 12.2187C9.2008 12.7295 8.13433 13.02 7 13.02C5.86567 13.02 4.79921 12.7295 3.87098 12.2187C3.16963 12.5839 2.53805 13.0719 2.00669 13.6604C1.72911 13.9678 1.25485 13.992 0.947407 13.7145C0.639963 13.4369 0.615755 12.9626 0.893337 12.6552C1.3807 12.1154 1.93685 11.6446 2.54615 11.2543C1.28651 10.0688 0.5 8.38628 0.5 6.52002ZM7 3.27002C5.20507 3.27002 3.75 4.72509 3.75 6.52002C3.75 8.31495 5.20507 9.77002 7 9.77002C8.79493 9.77002 10.25 8.31495 10.25 6.52002C10.25 4.72509 8.79493 3.27002 7 3.27002ZM7 5.52002C6.44772 5.52002 6 5.96773 6 6.52002C6 7.0723 6.44772 7.52002 7 7.52002C7.55228 7.52002 8 7.0723 8 6.52002C8 5.96773 7.55228 5.52002 7 5.52002Z" fill="black"/>
</g>
<defs>
<clipPath id="clip0_1068_188006">
<rect width="14" height="14" fill="white"/>
</clipPath>
</defs>
</svg>
