<svg width="14" height="14" viewBox="0 0 14 14" fill="none" xmlns="http://www.w3.org/2000/svg">
<g clip-path="url(#clip0_1068_188003)">
<path fill-rule="evenodd" clip-rule="evenodd" d="M0.21967 1.28033C-0.0732231 0.987437 -0.0732231 0.512563 0.21967 0.21967C0.512563 -0.0732233 0.987437 -0.0732233 1.28033 0.21967L3.06066 2H9C9.82843 2 10.5 2.67157 10.5 3.5V4.24173L12.6061 3.33912C13.2659 3.05632 14 3.54035 14 4.25827V9.74173C14 10.4596 13.2659 10.9437 12.6061 10.6609L11.0581 9.99747L13.7803 12.7197C14.0732 13.0126 14.0732 13.4874 13.7803 13.7803C13.4874 14.0732 13.0126 14.0732 12.7197 13.7803L0.21967 1.28033ZM0 3.5C0 3.30075 0.0388484 3.11058 0.109384 2.93664L9.16389 11.9911C9.11007 11.997 9.05538 12 9 12H1.5C0.671573 12 0 11.3284 0 10.5V3.5Z" fill="black"/>
</g>
<defs>
<clipPath id="clip0_1068_188003">
<rect width="14" height="14" fill="white"/>
</clipPath>
</defs>
</svg>
