<svg width="14" height="14" viewBox="0 0 14 14" fill="none" xmlns="http://www.w3.org/2000/svg">
<g clip-path="url(#clip0_1068_188012)">
<path fill-rule="evenodd" clip-rule="evenodd" d="M7 0.379396C10.6134 0.377342 13.627 3.39621 13.627 7.00258C13.627 10.6134 10.6137 13.6232 6.99982 13.6208C6.05839 13.6202 5.11573 13.4218 4.24666 13.0246L0.965928 13.6178C0.788843 13.6498 0.608212 13.5842 0.492959 13.446C0.377706 13.3078 0.345614 13.1183 0.408928 12.9499L1.34789 10.4517C0.715752 9.41468 0.378871 8.21589 0.378865 7.00258C0.378848 3.39444 3.38884 0.3806 7 0.379396ZM10.3247 9.81587C9.58741 10.4122 8.44683 11.0139 7.3562 10.3138C5.92563 9.39548 4.6597 8.18769 3.74127 6.7572C3.20283 5.91857 3.70954 4.57641 4.46759 3.75857C4.77023 3.43205 5.26791 3.48368 5.5967 3.78384L6.28889 4.41577C6.49942 4.60797 6.50683 4.94203 6.37557 5.19508C6.16861 5.59409 6.04689 6.12908 6.3028 6.52775C6.62431 7.0286 7.02107 7.52118 7.96637 7.80888C8.25233 7.89591 8.61996 7.85838 8.93144 7.73219C9.19306 7.6262 9.52387 7.62743 9.71713 7.83316L10.3606 8.51811C10.7154 8.89588 10.7277 9.48992 10.3247 9.81587Z" fill="black"/>
</g>
<defs>
<clipPath id="clip0_1068_188012">
<rect width="14" height="14" fill="white"/>
</clipPath>
</defs>
</svg>
