<svg width="14" height="14" viewBox="0 0 14 14" fill="none" xmlns="http://www.w3.org/2000/svg">
<path fill-rule="evenodd" clip-rule="evenodd" d="M3.91603 3.38108C4.8937 2.97597 5.94162 2.76746 6.9999 2.76746C8.05819 2.76746 9.1061 2.97597 10.0838 3.38108C11.0615 3.7862 11.9497 4.37998 12.6979 5.12849C12.9907 5.42146 13.4656 5.42158 13.7585 5.12877C14.0515 4.83595 14.0516 4.36108 13.7588 4.06811C12.8714 3.18022 11.8177 2.47589 10.658 1.99534C9.49827 1.51479 8.25523 1.26746 6.9999 1.26746C5.74457 1.26746 4.50154 1.51479 3.34182 1.99534C2.18211 2.47589 1.12844 3.18022 0.241017 4.06811C-0.0518006 4.36108 -0.0516772 4.83595 0.241292 5.12877C0.534262 5.42158 1.00914 5.42146 1.30195 5.12849C2.05008 4.37998 2.93835 3.7862 3.91603 3.38108ZM6.99993 5.60968C6.2715 5.60968 5.55026 5.75369 4.87768 6.03343C4.2051 6.31316 3.59446 6.72311 3.08088 7.23969C2.78884 7.53343 2.31397 7.53481 2.02023 7.24277C1.72648 6.95073 1.7251 6.47586 2.01714 6.18211C2.67012 5.52533 3.44651 5.00411 4.30164 4.64844C5.15677 4.29278 6.07379 4.10968 6.99993 4.10968C7.92608 4.10968 8.8431 4.29278 9.69823 4.64844C10.5534 5.00411 11.3298 5.52533 11.9827 6.18211C12.2748 6.47586 12.2734 6.95073 11.9797 7.24277C11.6859 7.53481 11.211 7.53343 10.919 7.23969C10.4054 6.72311 9.79477 6.31316 9.12219 6.03343C8.44961 5.75369 7.72837 5.60968 6.99993 5.60968ZM6.0202 8.54883C6.33936 8.41417 6.68226 8.34479 7.02866 8.34479C7.37507 8.34479 7.71797 8.41417 8.03713 8.54883C8.35629 8.68349 8.64525 8.88071 8.88696 9.12885C9.17598 9.42557 9.65081 9.43181 9.94753 9.14278C10.2443 8.85376 10.2505 8.37893 9.96146 8.08222C9.57999 7.69059 9.12395 7.37934 8.62024 7.16681C8.11654 6.95428 7.57537 6.84479 7.02866 6.84479C6.48196 6.84479 5.94079 6.95428 5.43708 7.16681C4.93338 7.37934 4.47734 7.69059 4.09587 8.08222C3.80685 8.37893 3.81309 8.85376 4.1098 9.14278C4.40651 9.43181 4.88135 9.42557 5.17037 9.12885C5.41208 8.88071 5.70104 8.68349 6.0202 8.54883ZM5.40766 11.7133C5.40766 10.8339 6.12055 10.121 6.99996 10.121C7.87936 10.121 8.59226 10.8339 8.59226 11.7133C8.59226 12.5927 7.87936 13.3056 6.99996 13.3056C6.12055 13.3056 5.40766 12.5927 5.40766 11.7133Z" fill="black"/>
</svg>
