<svg width="14" height="14" viewBox="0 0 14 14" fill="none" xmlns="http://www.w3.org/2000/svg">
<g clip-path="url(#clip0_1068_188018)">
<path fill-rule="evenodd" clip-rule="evenodd" d="M0.219669 0.21906C-0.0732231 0.511953 -0.0732231 0.986826 0.219669 1.27972L0.397768 1.45782C0.415456 1.47202 0.432551 1.48733 0.44896 1.50374L12.7769 13.8317C13.0715 14.0729 13.5068 14.056 13.7817 13.7811C14.0746 13.4882 14.0746 13.0133 13.7817 12.7205L7.28974 6.22847C7.90723 6.2609 8.51535 6.39877 9.08757 6.63676C9.74747 6.91123 10.3466 7.31344 10.8505 7.82027C11.1426 8.11402 11.6174 8.1154 11.9112 7.82336C12.2049 7.53132 12.2063 7.05645 11.9143 6.7627C11.271 6.11566 10.5061 5.60217 9.66361 5.25178C8.82116 4.90139 7.91775 4.72101 7.00533 4.72101C6.55159 4.72101 6.16848 4.76428 5.89561 4.80829L5.87321 4.81194L5.05503 3.99376C5.68949 3.83277 6.34293 3.75079 7.00044 3.75079C8.03952 3.75079 9.06842 3.95552 10.0284 4.35328C10.9883 4.75105 11.8605 5.33405 12.595 6.06898C12.8878 6.36194 13.3627 6.36207 13.6557 6.06925C13.9486 5.77643 13.9488 5.30156 13.6559 5.00859C12.7821 4.13429 11.7445 3.44073 10.6026 2.96754C9.46058 2.49435 8.23657 2.25079 7.00044 2.25079C5.92717 2.25079 4.86302 2.4344 3.85378 2.79251L1.28033 0.21906C0.987436 -0.0738338 0.512562 -0.0738338 0.219669 0.21906ZM4.91497 7.73751L6.02461 8.84715C5.71922 8.97871 5.44259 9.16902 5.21048 9.4073C4.92146 9.70402 4.44663 9.71025 4.14991 9.42123C3.8532 9.13221 3.84696 8.65738 4.13598 8.36066C4.36944 8.12099 4.63122 7.91183 4.91497 7.73751ZM3.10449 5.92704L4.18895 7.0115C4.1888 7.01159 4.18911 7.01141 4.18895 7.0115L4.18788 7.01212L4.18653 7.01292L4.1728 7.02111C4.1595 7.02913 4.1382 7.04217 4.11011 7.05998C4.05384 7.09567 3.97098 7.15011 3.87123 7.22127C3.66993 7.36486 3.40888 7.57012 3.16018 7.82027C2.86814 8.11401 2.39327 8.11539 2.09952 7.82335C1.80578 7.53131 1.8044 7.05644 2.09644 6.7627C2.42133 6.43591 2.75256 6.17673 3.00014 6.00012C3.03664 5.97409 3.07151 5.94971 3.10449 5.92704ZM1.33435 4.1569L2.40494 5.22749C2.00932 5.52501 1.70084 5.77411 1.40609 6.069C1.11327 6.36197 0.638401 6.3621 0.345432 6.06928C0.0524631 5.77646 0.0523397 5.30159 0.345156 5.00862C0.663074 4.69054 0.985125 4.42455 1.33435 4.1569ZM8.31056 11.9394C8.31056 12.6629 7.72406 13.2494 7.00056 13.2494C6.27707 13.2494 5.69056 12.6629 5.69056 11.9394C5.69056 11.2159 6.27707 10.6294 7.00056 10.6294C7.72406 10.6294 8.31056 11.2159 8.31056 11.9394Z" fill="black"/>
</g>
<defs>
<clipPath id="clip0_1068_188018">
<rect width="14" height="14" fill="white"/>
</clipPath>
</defs>
</svg>
