<svg width="14" height="14" viewBox="0 0 14 14" fill="none" xmlns="http://www.w3.org/2000/svg">
<g clip-path="url(#clip0_1068_188015)">
<path fill-rule="evenodd" clip-rule="evenodd" d="M11.63 0.246946C11.3125 -0.0190168 10.8394 0.0228008 10.5735 0.340348C10.3075 0.657897 10.3493 1.13092 10.6669 1.39689C11.1965 1.8405 11.6428 2.43601 11.9607 3.14325C12.2764 3.84555 12.4536 4.6322 12.474 5.43997C12.4534 6.24844 12.2754 7.03559 11.9586 7.73786C11.6395 8.44504 11.1918 9.03979 10.6608 9.48186C10.3425 9.7469 10.2993 10.2198 10.5643 10.5381C10.8294 10.8564 11.3023 10.8996 11.6206 10.6346C12.3402 10.0354 12.9211 9.25188 13.3258 8.35472C13.7306 7.45756 13.9511 6.46536 13.974 5.45716C13.9743 5.44584 13.9743 5.43452 13.974 5.4232C13.9514 4.41619 13.732 3.42504 13.3289 2.52828C12.9258 1.63153 12.3471 0.847593 11.63 0.246946ZM5.35063 8.66404C5.08702 8.98354 4.61431 9.02885 4.29481 8.76523C3.8234 8.37629 3.44492 7.87194 3.18065 7.29892C2.9164 6.72594 2.7707 6.09413 2.75069 5.45245C2.75022 5.43735 2.75021 5.42224 2.75065 5.40714C2.76947 4.7639 2.91459 4.1303 3.17887 3.55563C3.44317 2.98094 3.82227 2.4751 4.29475 2.08518C4.61422 1.82153 5.08693 1.86679 5.35058 2.18626C5.61423 2.50574 5.56897 2.97845 5.2495 3.2421C4.9641 3.47762 4.71884 3.79712 4.54166 4.18237C4.36746 4.56116 4.26657 4.98765 4.25075 5.42836C4.26738 5.86795 4.36863 6.29314 4.54277 6.67073C4.71989 7.05477 4.96471 7.37329 5.24944 7.60822C5.56894 7.87183 5.61424 8.34454 5.35063 8.66404ZM8.62355 2.21612C8.88716 1.89662 9.35987 1.85132 9.67937 2.11493C10.1508 2.50388 10.5293 3.00822 10.7935 3.58124C11.0578 4.15422 11.2035 4.78603 11.2235 5.42771C11.224 5.44281 11.224 5.45792 11.2235 5.47302C11.2047 6.11626 11.0596 6.74986 10.7953 7.32453C10.531 7.89922 10.1519 8.40506 9.67943 8.79498C9.35996 9.05863 8.88724 9.01337 8.6236 8.6939C8.35995 8.37442 8.40521 7.90171 8.72468 7.63807C9.01007 7.40254 9.25534 7.08305 9.43251 6.6978C9.60672 6.319 9.7076 5.89252 9.72343 5.45181C9.7068 5.01221 9.60554 4.58702 9.4314 4.20943C9.25429 3.82539 9.00947 3.50687 8.72474 3.27194C8.40524 3.00833 8.35993 2.53562 8.62355 2.21612ZM3.40078 10.5398C3.13481 10.8573 2.66179 10.8991 2.34424 10.6332C1.62709 10.0325 1.04843 9.24863 0.645355 8.35188C0.24227 7.45512 0.0228566 6.46397 0.000189966 5.45696C-6.49029e-05 5.44565 -6.3233e-05 5.43432 0.000194498 5.423C0.023165 4.4148 0.243633 3.4226 0.648396 2.52544C1.05316 1.62829 1.63405 0.844701 2.35363 0.245563C2.67195 -0.0194769 3.14485 0.023715 3.40989 0.342034C3.67493 0.660353 3.63174 1.13326 3.31342 1.3983C2.78248 1.84037 2.33474 2.43512 2.01569 3.14231C1.69885 3.84457 1.52085 4.63172 1.50022 5.44019C1.5206 6.24796 1.69782 7.03461 2.0135 7.73692C2.33139 8.44416 2.77772 9.03966 3.30738 9.48327C3.62492 9.74924 3.66674 10.2222 3.40078 10.5398ZM7.00003 3.87648C6.10338 3.87648 5.37649 4.60337 5.37649 5.50002C5.37649 6.12702 5.73192 6.67101 6.25228 6.94149C6.25079 6.96081 6.25003 6.98032 6.25003 7.00002V13.1485C6.25003 13.5627 6.58581 13.8985 7.00003 13.8985C7.41424 13.8985 7.75003 13.5627 7.75003 13.1485V7.00002C7.75003 6.98033 7.74927 6.96081 7.74778 6.9415C8.26815 6.67102 8.62358 6.12703 8.62358 5.50002C8.62358 4.60337 7.89669 3.87648 7.00003 3.87648Z" fill="black"/>
</g>
<defs>
<clipPath id="clip0_1068_188015">
<rect width="14" height="14" fill="white"/>
</clipPath>
</defs>
</svg>
