<svg width="14" height="14" viewBox="0 0 14 14" fill="none" xmlns="http://www.w3.org/2000/svg">
<g clip-path="url(#clip0_1068_188024)">
<path fill-rule="evenodd" clip-rule="evenodd" d="M4.23297 2.75333C5.75596 1.23034 8.24385 1.23034 9.76684 2.75333C10.0597 3.04622 10.5346 3.04622 10.8275 2.75333C11.1204 2.46043 11.1204 1.98556 10.8275 1.69267C8.71872 -0.416111 5.28109 -0.416111 3.17231 1.69267C2.87941 1.98556 2.87941 2.46043 3.17231 2.75333C3.4652 3.04622 3.94007 3.04622 4.23297 2.75333ZM6.94965 6.26562C7.36386 6.26562 7.69965 5.92984 7.69965 5.51562C7.69965 5.10141 7.36386 4.76562 6.94965 4.76562C6.53543 4.76562 6.19965 5.10141 6.19965 5.51562C6.19965 5.92984 6.53543 6.26562 6.94965 6.26562ZM7.94541 4.2183C7.41769 3.69058 6.48579 3.69058 5.95806 4.2183C5.66517 4.5112 5.1903 4.5112 4.8974 4.2183C4.60451 3.92541 4.60451 3.45054 4.8974 3.15764C6.01091 2.04413 7.89256 2.04413 9.00607 3.15764C9.29896 3.45054 9.29896 3.92541 9.00607 4.2183C8.71318 4.5112 8.2383 4.5112 7.94541 4.2183ZM1.98914 2.98144C1.88016 2.58182 1.46785 2.34622 1.06823 2.4552C0.668613 2.56419 0.433009 2.9765 0.541996 3.37612L1.59851 7.25H3.1533L1.98914 2.98144ZM13.4579 3.37612L12.4014 7.25H10.8466L12.0107 2.98144C12.1197 2.58182 12.532 2.34622 12.9317 2.4552C13.3313 2.56419 13.5669 2.9765 13.4579 3.37612ZM2.427 13.2139V12.5H1.5C0.947715 12.5 0.5 12.0523 0.5 11.5V9.5C0.5 8.94772 0.947715 8.5 1.5 8.5H12.5C13.0523 8.5 13.5 8.94772 13.5 9.5V11.5C13.5 12.0523 13.0523 12.5 12.5 12.5H11.5728V13.2139C11.5728 13.6281 11.237 13.9639 10.8228 13.9639C10.4086 13.9639 10.0728 13.6281 10.0728 13.2139V12.5H3.927V13.2139C3.927 13.6281 3.59122 13.9639 3.177 13.9639C2.76279 13.9639 2.427 13.6281 2.427 13.2139ZM2.677 10.3467C2.677 10.0706 2.90086 9.84674 3.177 9.84674H3.65487C3.93101 9.84674 4.15487 10.0706 4.15487 10.3467C4.15487 10.6229 3.93101 10.8467 3.65487 10.8467H3.177C2.90086 10.8467 2.677 10.6229 2.677 10.3467ZM5.56641 9.84674C5.29026 9.84674 5.06641 10.0706 5.06641 10.3467C5.06641 10.6229 5.29026 10.8467 5.56641 10.8467H6.04427C6.32041 10.8467 6.54427 10.6229 6.54427 10.3467C6.54427 10.0706 6.32041 9.84674 6.04427 9.84674H5.56641Z" fill="black"/>
</g>
<defs>
<clipPath id="clip0_1068_188024">
<rect width="14" height="14" fill="white"/>
</clipPath>
</defs>
</svg>
