<svg width="14" height="14" viewBox="0 0 14 14" fill="none" xmlns="http://www.w3.org/2000/svg">
<g clip-path="url(#clip0_1068_188021)">
<path fill-rule="evenodd" clip-rule="evenodd" d="M3.81274 2.2317C4.13775 1.97491 4.19305 1.50327 3.93626 1.17826C3.67947 0.853247 3.20783 0.797946 2.88282 1.05474C2.01795 1.73807 1.31364 2.63064 0.819405 3.6575C0.325231 4.68424 0.0526525 5.82092 0.0198324 6.97876C0.0194336 6.99283 0.0194309 7.0069 0.0198241 7.02097C0.0522393 8.18052 0.325809 9.31884 0.822158 10.3462C1.31857 11.3738 2.02609 12.2659 2.89456 12.947C3.2205 13.2026 3.69194 13.1455 3.94754 12.8196C4.20314 12.4936 4.14612 12.0222 3.82018 11.7666C3.14082 11.2339 2.57477 10.5258 2.17281 9.69379C1.77375 8.86774 1.5492 7.94564 1.51986 7.00016C1.54954 6.0555 1.7734 5.13413 2.171 4.30803C2.5715 3.47591 3.13548 2.76681 3.81274 2.2317ZM5.9064 4.28601C6.24873 4.05281 6.33719 3.58625 6.10399 3.24392C5.87079 2.90159 5.40422 2.81312 5.0619 3.04633C4.41045 3.49011 3.87213 4.07557 3.49123 4.75823C3.11025 5.44102 2.8977 6.20153 2.87175 6.97972C2.8712 6.99639 2.8712 7.01308 2.87175 7.02975C2.89771 7.80694 3.11049 8.56639 3.49179 9.24785C3.87301 9.92917 4.41169 10.513 5.06329 10.9547C5.40615 11.1871 5.87251 11.0976 6.10494 10.7548C6.33737 10.4119 6.24785 9.94557 5.905 9.71314C5.44358 9.40033 5.0662 8.98972 4.80081 8.51541C4.53962 8.0486 4.39341 7.53186 4.37185 7.00469C4.39342 6.47592 4.53972 5.95759 4.80112 5.48911C5.06671 5.01312 5.44441 4.60073 5.9064 4.28601ZM7.89505 3.24392C8.12825 2.90159 8.59481 2.81312 8.93714 3.04633C9.58859 3.49011 10.1269 4.07557 10.5078 4.75823C10.8888 5.44102 11.1013 6.20153 11.1273 6.97972C11.1278 6.99639 11.1278 7.01308 11.1273 7.02975C11.1013 7.80694 10.8885 8.56639 10.5072 9.24785C10.126 9.92917 9.58735 10.513 8.93574 10.9547C8.59289 11.1871 8.12653 11.0976 7.8941 10.7548C7.66167 10.4119 7.75118 9.94557 8.09404 9.71314C8.55546 9.40033 8.93284 8.98972 9.19823 8.51541C9.45942 8.0486 9.60563 7.53186 9.62719 7.00469C9.60562 6.47592 9.45932 5.95759 9.19792 5.48911C8.93233 5.01312 8.55463 4.60073 8.09264 4.28601C7.75031 4.05281 7.66185 3.58625 7.89505 3.24392ZM11.1162 1.05474C10.7912 0.797946 10.3195 0.853247 10.0628 1.17826C9.80597 1.50327 9.86127 1.97491 10.1863 2.2317C10.8635 2.76681 11.4275 3.47591 11.828 4.30803C12.2256 5.13413 12.4495 6.0555 12.4792 7.00016C12.4498 7.94564 12.2253 8.86774 11.8262 9.69379C11.4242 10.5258 10.8582 11.2339 10.1788 11.7666C9.85291 12.0222 9.79588 12.4936 10.0515 12.8196C10.3071 13.1455 10.7785 13.2026 11.1045 12.947C11.9729 12.2659 12.6805 11.3738 13.1769 10.3462C13.6732 9.31884 13.9468 8.18052 13.9792 7.02097C13.9796 7.0069 13.9796 6.99283 13.9792 6.97876C13.9464 5.82092 13.6738 4.68424 13.1796 3.6575C12.6854 2.63064 11.9811 1.73807 11.1162 1.05474ZM5.74951 7.00003C5.74951 6.30967 6.30915 5.75003 6.99951 5.75003C7.68987 5.75003 8.24951 6.30967 8.24951 7.00003C8.24951 7.69039 7.68987 8.25003 6.99951 8.25003C6.30915 8.25003 5.74951 7.69039 5.74951 7.00003Z" fill="black"/>
</g>
<defs>
<clipPath id="clip0_1068_188021">
<rect width="14" height="14" fill="white"/>
</clipPath>
</defs>
</svg>
