<svg width="14" height="14" viewBox="0 0 14 14" fill="none" xmlns="http://www.w3.org/2000/svg">
<g clip-path="url(#clip0_1068_188030)">
<path fill-rule="evenodd" clip-rule="evenodd" d="M0.882877 1.50329L5.375 0.986699V6.13501H0V2.46002C0 2.44783 0.000446111 2.43564 0.00133747 2.42347C0.0183182 2.19178 0.115439 1.97323 0.276021 1.80534C0.436603 1.63746 0.650626 1.53073 0.881337 1.50347L0.882877 1.50329ZM0 7.38501V11.08L3.8445e-06 11.082C0.000928879 11.3183 0.0846618 11.5467 0.236634 11.7276C0.388607 11.9086 0.599171 12.0306 0.83174 12.0723L5.375 12.769V7.38501H0ZM6.625 7.38501V12.9606L12.8425 13.914C12.9841 13.9366 13.1289 13.9284 13.2671 13.8901C13.4061 13.8516 13.5352 13.7834 13.6454 13.6903C13.7556 13.5973 13.8443 13.4814 13.9055 13.3508C13.9667 13.2202 13.999 13.0778 14 12.9336V7.38501H6.625ZM14 6.13501V1.11209C14.001 0.97032 13.9716 0.829968 13.9136 0.700538C13.8553 0.570178 13.7694 0.453987 13.6619 0.359939C13.5545 0.26589 13.4279 0.196211 13.2909 0.155684C13.1567 0.11596 13.0156 0.105166 12.8769 0.123976L6.625 0.842949V6.13501H14Z" fill="black"/>
</g>
<defs>
<clipPath id="clip0_1068_188030">
<rect width="14" height="14" fill="white"/>
</clipPath>
</defs>
</svg>
