<?xml version="1.0" encoding="utf-8"?><!-- Uploaded to: SVG Repo, www.svgrepo.com, Generator: SVG Repo Mixer Tools -->
<svg width="800px" height="800px" viewBox="0 0 24 24" fill="none" xmlns="http://www.w3.org/2000/svg">
<path d="M3 6C3 3.79086 4.79086 2 7 2H17C19.2091 2 21 3.79086 21 6C21 8.20914 19.2091 10 17 10H7C4.79086 10 3 8.20914 3 6Z" stroke="#000000" stroke-width="2"/>
<path d="M3 16C3 14.8954 3.89543 14 5 14H8C9.10457 14 10 14.8954 10 16V19C10 20.1046 9.10457 21 8 21H5C3.89543 21 3 20.1046 3 19V16Z" stroke="#000000" stroke-width="2"/>
<path d="M14 17.5C14 15.567 15.567 14 17.5 14C19.433 14 21 15.567 21 17.5C21 19.433 19.433 21 17.5 21C15.567 21 14 19.433 14 17.5Z" stroke="#000000" stroke-width="2"/>
</svg>