<svg width="16" height="16" viewBox="0 0 16 16" fill="none" xmlns="http://www.w3.org/2000/svg">
<path d="M11.974 6.33301H7.35865C6.7922 6.33301 6.33301 6.7922 6.33301 7.35865V11.974C6.33301 12.5405 6.7922 12.9997 7.35865 12.9997H11.974C12.5405 12.9997 12.9997 12.5405 12.9997 11.974V7.35865C12.9997 6.7922 12.5405 6.33301 11.974 6.33301Z" stroke="white" stroke-linecap="round" stroke-linejoin="round"/>
<path d="M4.53846 9.66667H4.02564C3.75362 9.66667 3.49275 9.55861 3.3004 9.36626C3.10806 9.17392 3 8.91304 3 8.64103V4.02564C3 3.75362 3.10806 3.49275 3.3004 3.3004C3.49275 3.10806 3.75362 3 4.02564 3H8.64103C8.91304 3 9.17392 3.10806 9.36626 3.3004C9.55861 3.49275 9.66667 3.75362 9.66667 4.02564V4.53846" stroke="white" stroke-linecap="round" stroke-linejoin="round"/>
</svg>
