<svg width="24" height="24" viewBox="0 0 24 24" fill="none" xmlns="http://www.w3.org/2000/svg">
<path d="M10.5 13.3728C10.8236 13.8387 11.2365 14.2242 11.7106 14.5032C12.1847 14.7822 12.709 14.9481 13.2479 14.9896C13.7868 15.0312 14.3277 14.9475 14.8339 14.7441C15.3401 14.5408 15.7998 14.2225 16.1817 13.811L18.4424 11.3765C19.1287 10.6112 19.5084 9.58624 19.4999 8.52235C19.4913 7.45846 19.095 6.44076 18.3965 5.68845C17.6979 4.93613 16.7529 4.5094 15.765 4.50015C14.7771 4.49091 13.8254 4.89989 13.1148 5.63902L11.8187 7.02672" stroke="#333333" stroke-width="1.5" stroke-linecap="round" stroke-linejoin="round"/>
<path d="M13.5 10.6272C13.1764 10.1613 12.7635 9.77575 12.2894 9.49679C11.8153 9.21782 11.291 9.05193 10.7521 9.01037C10.2132 8.9688 9.67231 9.05254 9.16611 9.25589C8.65991 9.45925 8.20024 9.77747 7.81828 10.189L5.55764 12.6235C4.87132 13.3888 4.49156 14.4138 4.50014 15.4777C4.50873 16.5415 4.90497 17.5592 5.60354 18.3116C6.30211 19.0639 7.2471 19.4906 8.23498 19.4998C9.22287 19.5091 10.1746 19.1001 10.8852 18.361L12.1738 16.9733" stroke="#333333" stroke-width="1.5" stroke-linecap="round" stroke-linejoin="round"/>
</svg>
