<svg width="14" height="14" viewBox="0 0 14 14" fill="none" xmlns="http://www.w3.org/2000/svg">
<g clip-path="url(#clip0_1068_189630)">
<path d="M4.88578 4.85079L4.68177 3.45672C4.55494 2.59004 4.79062 1.70938 5.33337 1.02188C6.18353 -0.0549825 7.81647 -0.0549825 8.66663 1.02188C9.20938 1.70938 9.44507 2.59004 9.31823 3.45672L9.11422 4.85079L13.2311 6.93861C13.5877 7.1195 13.8125 7.48549 13.8125 7.88542C13.8125 8.56607 13.181 9.07087 12.5171 8.92095L8.61084 8.0389L8.37592 10.2202L10.416 11.9486C10.6546 12.1508 10.7922 12.4477 10.7922 12.7604C10.7922 13.5263 10.0075 14.0413 9.30486 13.7366L7 12.7372L4.69514 13.7366C3.99253 14.0413 3.20782 13.5263 3.20782 12.7604C3.20782 12.4477 3.34542 12.1508 3.58404 11.9486L5.62408 10.2202L5.38916 8.0389L1.48294 8.92095C0.819006 9.07087 0.1875 8.56607 0.1875 7.88542C0.1875 7.48549 0.412256 7.1195 0.768938 6.93861L4.88578 4.85079Z" fill="black"/>
</g>
<defs>
<clipPath id="clip0_1068_189630">
<rect width="14" height="14" fill="white"/>
</clipPath>
</defs>
</svg>
