<svg width="14" height="14" viewBox="0 0 14 14" fill="none" xmlns="http://www.w3.org/2000/svg">
<g clip-path="url(#clip0_1068_189615)">
<path fill-rule="evenodd" clip-rule="evenodd" d="M0.219669 1.2796C-0.0732231 0.986704 -0.0732231 0.511831 0.219669 0.218938C0.512562 -0.0739558 0.987436 -0.0739558 1.28033 0.218938L4.7104 3.64901L4.68215 3.45596C4.55531 2.58928 4.791 1.70861 5.33375 1.02112C6.18391 -0.0557467 7.81685 -0.0557467 8.66701 1.02112C9.20976 1.70861 9.44544 2.58928 9.31861 3.45596L9.1146 4.85002L13.2315 6.93785C13.5882 7.11874 13.8129 7.48473 13.8129 7.88466C13.8129 8.5653 13.1814 9.07011 12.5175 8.92019L9.24195 8.18056L13.7817 12.7203C14.0746 13.0132 14.0746 13.4881 13.7817 13.781C13.4888 14.0738 13.0139 14.0738 12.7211 13.781L0.219669 1.2796ZM5.41053 8.23306L10.5785 13.401C10.2971 13.7718 9.78222 13.9427 9.30524 13.7359L7.00038 12.7364L4.69552 13.7359C3.99291 14.0405 3.2082 13.5255 3.2082 12.7597C3.2082 12.4469 3.34579 12.15 3.58442 11.9478L5.62446 10.2195L5.41053 8.23306ZM2.98941 5.81194L5.24765 8.07018L1.48332 8.92019C0.819386 9.07011 0.18788 8.5653 0.18788 7.88466C0.18788 7.48473 0.412637 7.11874 0.769319 6.93785L2.98941 5.81194Z" fill="black"/>
</g>
<defs>
<clipPath id="clip0_1068_189615">
<rect width="14" height="14" fill="white"/>
</clipPath>
</defs>
</svg>
