<svg width="14" height="14" viewBox="0 0 14 14" fill="none" xmlns="http://www.w3.org/2000/svg">
<path fill-rule="evenodd" clip-rule="evenodd" d="M2.68428 0.432108C2.95339 0.146509 3.32575 0 3.73132 0H10.2694C10.6749 0 11.0473 0.146509 11.3164 0.432108C11.583 0.71502 11.7116 1.09498 11.7116 1.5V12.5C11.7116 12.905 11.583 13.285 11.3164 13.5679C11.0473 13.8535 10.6749 14 10.2694 14H3.73132C3.32575 14 2.95339 13.8535 2.68428 13.5679C2.4177 13.285 2.28906 12.905 2.28906 12.5V1.5C2.28906 1.09498 2.4177 0.71502 2.68428 0.432108ZM7.00024 4C7.55252 4 8.00024 3.55228 8.00024 3C8.00024 2.44772 7.55252 2 7.00024 2C6.44796 2 6.00024 2.44772 6.00024 3C6.00024 3.55228 6.44796 4 7.00024 4Z" fill="black"/>
</svg>
