<svg width="14" height="14" viewBox="0 0 14 14" fill="none" xmlns="http://www.w3.org/2000/svg">
<g clip-path="url(#clip0_1068_189606)">
<path fill-rule="evenodd" clip-rule="evenodd" d="M0.21967 1.28033C-0.0732233 0.987437 -0.0732233 0.512563 0.21967 0.21967C0.512563 -0.0732233 0.987437 -0.0732233 1.28033 0.21967L7.40258 6.34192L8.35599 5.3885L8.35859 5.38594C8.40975 5.33553 8.45037 5.27545 8.4781 5.2092C8.50582 5.14295 8.5201 5.07185 8.5201 5.00003C8.5201 4.92821 8.50582 4.85711 8.4781 4.79086C8.45037 4.72461 8.4097 4.66458 8.35855 4.61417L8.35294 4.60846C8.06776 4.31828 7.90797 3.92771 7.90797 3.52086C7.90797 3.11402 8.06775 2.72343 8.35292 2.43326L10.2234 0.562779L10.2274 0.558831C10.5191 0.273597 10.911 0.113892 11.319 0.113892C11.727 0.113892 12.1188 0.273597 12.4106 0.558831L12.8479 1.00599C13.4405 1.59218 13.8136 2.36423 13.9048 3.19284C13.9961 4.02297 13.7989 4.85931 13.3462 5.56109L13.3397 5.57071C12.4433 6.89177 11.4411 8.13341 10.3448 9.28414L13.7803 12.7197C14.0732 13.0126 14.0732 13.4874 13.7803 13.7803C13.4874 14.0732 13.0126 14.0732 12.7197 13.7803L0.21967 1.28033ZM5.46239 8.28212L8.357 11.1767L8.28577 11.2427C8.28138 11.2467 8.27691 11.2507 8.27237 11.2546C7.41711 11.9909 6.51794 12.678 5.57885 13.3116L5.57018 13.3172C4.8684 13.77 4.03213 13.9673 3.20199 13.876C2.37338 13.7848 1.60132 13.4117 1.01512 12.8191L0.575863 12.3898L0.567986 12.3817C0.282751 12.09 0.123047 11.6982 0.123047 11.2902C0.123047 10.8821 0.282703 10.4903 0.567937 10.1985L2.45103 8.33516L2.45225 8.33395C2.74243 8.04878 3.133 7.88899 3.53985 7.88899C3.94647 7.88899 4.33684 8.0486 4.62696 8.33349C4.73182 8.43577 4.87251 8.49303 5.01901 8.49303C5.16493 8.49303 5.30509 8.43622 5.40982 8.33469L5.46239 8.28212Z" fill="black"/>
</g>
<defs>
<clipPath id="clip0_1068_189606">
<rect width="14" height="14" fill="white"/>
</clipPath>
</defs>
</svg>
