<svg width="14" height="14" viewBox="0 0 14 14" fill="none" xmlns="http://www.w3.org/2000/svg">
<path fill-rule="evenodd" clip-rule="evenodd" d="M1.69479 2.23645C1.4309 2.45895 1.39734 2.85325 1.61984 3.11715C1.84233 3.38105 2.23664 3.41461 2.50053 3.19211C2.88845 2.86505 3.31112 2.57811 3.76226 2.33689C4.76034 1.80323 5.87003 1.50816 7.00315 1.47522C8.1373 1.50857 9.24782 1.80497 10.246 2.34065C10.694 2.58106 11.1137 2.86663 11.499 3.19187C11.7627 3.41452 12.157 3.3812 12.3797 3.11743C12.6024 2.85367 12.569 2.45935 12.3053 2.23669C11.8537 1.85548 11.3619 1.52086 10.8371 1.23924C9.66207 0.608649 8.35465 0.261371 7.02019 0.225205C7.00897 0.224901 6.99774 0.224899 6.98653 0.225199C5.65361 0.260889 4.34748 0.606519 3.17287 1.23457C2.64451 1.51707 2.14936 1.8532 1.69479 2.23645ZM4.15101 4.21204C3.86895 4.41101 3.80159 4.80096 4.00056 5.08302C4.19953 5.36508 4.58948 5.43244 4.87154 5.23347C5.54346 4.75949 6.27707 4.49973 7.01648 4.45876C7.75769 4.49765 8.49336 4.75637 9.16723 5.23039C9.44956 5.42899 9.83942 5.36111 10.0381 5.07878C10.2367 4.79646 10.1688 4.40659 9.8864 4.208C9.0238 3.60122 8.05031 3.25367 7.04351 3.20861C7.02428 3.20775 7.00502 3.20778 6.98579 3.2087C5.98149 3.2566 5.01093 3.60544 4.15101 4.21204ZM9.65979 8.58398C9.28015 8.58398 8.979 8.88881 8.979 9.25673V11.8522C8.979 12.2201 9.28015 12.525 9.65979 12.525H10.5304C10.91 12.525 11.2111 12.2201 11.2111 11.8522V11.6121H10.5304C10.1852 11.6121 9.90531 11.3322 9.90531 10.9871C9.90531 10.6419 10.1852 10.3621 10.5304 10.3621H11.8361C12.1813 10.3621 12.4611 10.6419 12.4611 10.9871V11.8522C12.4611 12.9178 11.5931 13.775 10.5304 13.775H9.65979C8.59709 13.775 7.729 12.9178 7.729 11.8522V9.25673C7.729 8.19119 8.59709 7.33398 9.65979 7.33398H10.5304C11.3696 7.33398 12.085 7.86747 12.3507 8.61473C12.4664 8.93995 12.2965 9.29736 11.9713 9.41302C11.646 9.52868 11.2886 9.3588 11.173 9.03357C11.0802 8.77275 10.8282 8.58398 10.5304 8.58398H9.65979ZM5.34588 7.33401C5.0802 7.33401 4.82735 7.44828 4.65178 7.64769L1.77281 10.9177C1.62185 11.0891 1.53857 11.3098 1.53857 11.5382C1.53857 12.0568 1.95899 12.4772 2.47761 12.4772H5.02067V13.15C5.02067 13.4952 5.30049 13.775 5.64567 13.775C5.99085 13.775 6.27067 13.4952 6.27067 13.15V12.4772H6.51619C6.86137 12.4772 7.14119 12.1974 7.14119 11.8522C7.14119 11.5071 6.86137 11.2272 6.51619 11.2272H6.27067V8.2588C6.27067 7.74805 5.85663 7.33401 5.34588 7.33401ZM5.02067 9.12033V11.2272H3.16569L5.02067 9.12033Z" fill="black"/>
</svg>
