<svg width="14" height="14" viewBox="0 0 14 14" fill="none" xmlns="http://www.w3.org/2000/svg">
<g clip-path="url(#clip0_1068_189642)">
<path fill-rule="evenodd" clip-rule="evenodd" d="M1.69384 2.25045C1.43062 2.47376 1.39826 2.86816 1.62156 3.13138C1.84486 3.3946 2.23926 3.42695 2.50248 3.20365C2.89045 2.87452 3.31311 2.58582 3.76418 2.34315C4.76201 1.80631 5.87121 1.50959 7.00365 1.47645C8.13712 1.51 9.24713 1.80806 10.2451 2.34694C10.6929 2.58879 11.1126 2.87612 11.498 3.20341C11.761 3.42687 12.1555 3.39475 12.3789 3.13166C12.6024 2.86858 12.5703 2.47415 12.3072 2.25069C11.8556 1.86717 11.3638 1.53046 10.839 1.24705C9.66378 0.61244 8.3559 0.262837 7.02079 0.226428C7.0095 0.226121 6.99821 0.226119 6.98692 0.226423C5.65335 0.262351 4.34676 0.610295 3.17195 1.24235C2.64351 1.52665 2.14835 1.86487 1.69384 2.25045ZM4.00259 5.1097C3.8028 4.82822 3.86903 4.43807 4.15051 4.23828C5.01043 3.62792 5.98144 3.27662 6.98659 3.22839C7.00593 3.22746 7.02531 3.22743 7.04466 3.2283C8.05232 3.27368 9.02626 3.62368 9.88887 4.23422C10.1706 4.43364 10.2374 4.8237 10.038 5.10544C9.83853 5.38719 9.44847 5.45393 9.16673 5.25452C8.49293 4.77762 7.75777 4.51758 7.01747 4.47846C6.27896 4.51967 5.54586 4.78075 4.87401 5.25762C4.59253 5.45741 4.20238 5.39118 4.00259 5.1097ZM1.63672 7.92558C1.63672 7.5804 1.3569 7.30058 1.01172 7.30058C0.666541 7.30058 0.386719 7.5804 0.386719 7.92558V13.1487C0.386719 13.4939 0.666541 13.7737 1.01172 13.7737H4.05856C4.40373 13.7737 4.68356 13.4939 4.68356 13.1487C4.68356 12.8036 4.40373 12.5237 4.05856 12.5237H1.63672V7.92558ZM8.41553 7.92558C8.41553 8.27076 8.13571 8.55058 7.79053 8.55058H6.67448V13.1487C6.67448 13.4939 6.39466 13.7737 6.04948 13.7737C5.7043 13.7737 5.42448 13.4939 5.42448 13.1487V8.55058H4.30843C3.96325 8.55058 3.68343 8.27076 3.68343 7.92558C3.68343 7.5804 3.96325 7.30058 4.30843 7.30058H7.79053C8.13571 7.30058 8.41553 7.5804 8.41553 7.92558ZM9.10445 7.48364C9.22166 7.36643 9.38063 7.30058 9.54639 7.30058H13.0285C13.3737 7.30058 13.6535 7.5804 13.6535 7.92558C13.6535 8.27076 13.3737 8.55058 13.0285 8.55058H10.1714V9.69453H12.5932C12.9384 9.69453 13.2182 9.97435 13.2182 10.3195C13.2182 10.6647 12.9384 10.9445 12.5932 10.9445H10.1714V12.5237H13.0285C13.3737 12.5237 13.6535 12.8036 13.6535 13.1487C13.6535 13.4939 13.3737 13.7737 13.0285 13.7737H9.54639C9.20121 13.7737 8.92139 13.4939 8.92139 13.1487V7.92558C8.92139 7.75982 8.98724 7.60085 9.10445 7.48364Z" fill="black"/>
</g>
<defs>
<clipPath id="clip0_1068_189642">
<rect width="14" height="14" fill="white"/>
</clipPath>
</defs>
</svg>
