<svg width="14" height="14" viewBox="0 0 14 14" fill="none" xmlns="http://www.w3.org/2000/svg">
<path fill-rule="evenodd" clip-rule="evenodd" d="M1.77343 2.21904C1.51021 2.44234 1.47785 2.83674 1.70115 3.09996C1.92445 3.36318 2.31886 3.39554 2.58207 3.17224C2.96326 2.84886 3.37853 2.5652 3.82171 2.32677C4.80202 1.79937 5.89173 1.50783 7.00427 1.47523C8.11782 1.50823 9.20832 1.80108 10.1887 2.33049C10.6288 2.56811 11.0411 2.85042 11.4197 3.17199C11.6828 3.39545 12.0772 3.36333 12.3007 3.10024C12.5242 2.83716 12.492 2.44274 12.2289 2.21928C11.7841 1.84147 11.2997 1.50979 10.7827 1.23061C9.62497 0.60546 8.3366 0.261073 7.02141 0.225208C7.01012 0.2249 6.99882 0.224898 6.98754 0.225202C5.67387 0.260594 4.38677 0.603347 3.22948 1.22597C2.70893 1.50603 2.22116 1.8392 1.77343 2.21904ZM4.19055 4.17436C3.90907 4.37416 3.84284 4.7643 4.04263 5.04578C4.24242 5.32727 4.63257 5.39349 4.91405 5.1937C5.57349 4.72564 6.29279 4.46948 7.0172 4.42895C7.74336 4.46743 8.46467 4.72256 9.12602 5.19066C9.40777 5.39007 9.79783 5.32333 9.99725 5.04158C10.1967 4.75983 10.1299 4.36977 9.84817 4.17036C8.99799 3.56862 8.0379 3.22353 7.04439 3.17879C7.02504 3.17792 7.00566 3.17795 6.98631 3.17888C5.99528 3.22644 5.03807 3.57281 4.19055 4.17436ZM9.30137 8.63589C8.93699 8.63589 8.6416 8.93128 8.6416 9.29566V11.8652C8.6416 12.2296 8.93699 12.525 9.30137 12.525H10.1579C10.5223 12.525 10.8177 12.2296 10.8177 11.8652V11.6337H10.1579C9.8127 11.6337 9.53288 11.3539 9.53288 11.0087C9.53288 10.6635 9.8127 10.3837 10.1579 10.3837H11.4427C11.7878 10.3837 12.0677 10.6635 12.0677 11.0087V11.8652C12.0677 12.9199 11.2126 13.775 10.1579 13.775H9.30137C8.24664 13.775 7.3916 12.9199 7.3916 11.8652V9.29566C7.3916 8.24093 8.24664 7.38589 9.30137 7.38589H10.1579C10.9904 7.38589 11.697 7.91823 11.9588 8.65914C12.0739 8.98458 11.9033 9.34166 11.5778 9.45669C11.2524 9.57172 10.8953 9.40114 10.7803 9.07569C10.6894 8.81859 10.4442 8.63589 10.1579 8.63589H9.30137ZM5.80619 8.63901H3.55366L3.39367 9.59896C3.61148 9.5526 3.83425 9.52899 4.05842 9.52899H4.7362C5.7905 9.52899 6.64519 10.3837 6.64519 11.438V11.866C6.64519 12.9203 5.7905 13.775 4.7362 13.775H3.8802C3.04804 13.775 2.34176 13.2429 2.08 12.5023C1.96497 12.1768 2.13555 11.8197 2.46099 11.7047C2.78644 11.5897 3.14352 11.7603 3.25855 12.0857C3.34931 12.3425 3.59425 12.525 3.8802 12.525H4.7362C5.10015 12.525 5.39519 12.2299 5.39519 11.866V11.438C5.39519 11.074 5.10015 10.779 4.7362 10.779H4.05842C3.75679 10.779 3.45929 10.8492 3.1895 10.9841L2.87572 11.141C2.66546 11.2461 2.41399 11.2244 2.2249 11.0847C2.0358 10.9451 1.94107 10.7111 1.97972 10.4792L2.40771 7.91126C2.45794 7.60989 2.71868 7.38901 3.02421 7.38901H5.80619C6.15137 7.38901 6.43119 7.66883 6.43119 8.01401C6.43119 8.35919 6.15137 8.63901 5.80619 8.63901Z" fill="black"/>
</svg>
