<svg width="14" height="14" viewBox="0 0 14 14" fill="none" xmlns="http://www.w3.org/2000/svg">
<path fill-rule="evenodd" clip-rule="evenodd" d="M11.1324 0.0625001H3.0464C2.47904 0.0623681 1.93377 0.283735 1.5272 0.679465C1.12056 1.07526 0.88454 1.61418 0.869408 2.18143L0.869141 2.20143V11.7527L0.869145 11.7552C0.869801 12.3316 1.09909 12.8844 1.50677 13.292C1.91503 13.7003 2.46876 13.9297 3.04613 13.9297H11.12L11.1328 13.9298L11.1457 13.9297H12.0837C12.4979 13.9297 12.8337 13.5939 12.8337 13.1797C12.8337 12.7655 12.4979 12.4297 12.0837 12.4297H11.8828V10.9013C12.0489 10.8197 12.2021 10.7108 12.3354 10.5774C12.6545 10.2584 12.8337 9.82565 12.8337 9.37443V1.76383C12.8337 1.31261 12.6545 0.879867 12.3354 0.560807C12.0164 0.241746 11.5836 0.0625001 11.1324 0.0625001ZM2.56743 12.2314C2.44047 12.1044 2.36914 11.9322 2.36914 11.7527C2.36916 11.5732 2.44048 11.401 2.56743 11.274C2.69439 11.1471 2.86658 11.0758 3.04613 11.0758H10.3828V12.4297H3.04613C2.86658 12.4297 2.69439 12.3583 2.56743 12.2314ZM8.5781 8.32505C8.22626 8.408 7.85714 8.37681 7.52421 8.23598C6.17901 7.42931 5.05331 6.30361 4.24664 4.95842C4.10706 4.62528 4.07653 4.25651 4.15942 3.90496C4.2423 3.55341 4.43435 3.23712 4.70805 3.00142L4.95466 2.75481C5.04076 2.64753 5.165 2.57769 5.30141 2.5599C5.43781 2.54211 5.57581 2.57774 5.68654 2.65935L6.48207 3.45487C6.56368 3.56561 6.59931 3.70361 6.58152 3.84001C6.56373 3.97641 6.49389 4.10066 6.38661 4.18676C6.27933 4.27285 6.20949 4.3971 6.1917 4.5335C6.17391 4.6699 6.20954 4.8079 6.29114 4.91864L7.56399 6.19148C7.67472 6.27309 7.81272 6.30872 7.94912 6.29093C8.08553 6.27314 8.20977 6.2033 8.29587 6.09602C8.38197 5.98874 8.50621 5.9189 8.64261 5.90111C8.77902 5.88332 8.91702 5.91895 9.02775 6.00055L9.82328 6.79608C9.90488 6.90682 9.94052 7.04482 9.92273 7.18122C9.90493 7.31762 9.8351 7.44186 9.72782 7.52796L9.4812 7.77458C9.24625 8.04929 8.92994 8.24209 8.5781 8.32505Z" fill="black"/>
</svg>
