<svg width="14" height="14" viewBox="0 0 14 14" fill="none" xmlns="http://www.w3.org/2000/svg">
<path d="M11.4584 4.23604C12.1428 4.38367 12.7555 4.76259 13.1935 5.30883C13.6305 5.85385 13.867 6.53241 13.8634 7.23089L13.8691 7.74049C13.8651 8.0965 13.7217 8.43679 13.47 8.68854C13.2182 8.94029 12.8779 9.08351 12.5219 9.08753L10.366 9.08756C10.0109 9.08447 9.67117 8.942 9.42003 8.69086C9.16889 8.43972 9.02644 8.09999 9.02335 7.74484C9.02292 7.69587 9.01615 7.64846 8.99746 7.60285C8.98003 7.56035 8.95433 7.52174 8.92185 7.48925C8.88937 7.45677 8.85076 7.43107 8.80825 7.41365C8.76575 7.39623 8.72021 7.38743 8.67428 7.38777L5.28579 7.38778C5.19187 7.38941 5.10222 7.42744 5.03576 7.4939C4.96877 7.56088 4.93067 7.65142 4.9296 7.74614C4.92652 8.10129 4.78407 8.43972 4.53293 8.69086C4.28179 8.942 3.94206 9.08445 3.58691 9.08754L1.43102 9.09889C1.07501 9.09487 0.73472 8.95159 0.482968 8.69984C0.231217 8.44809 0.0880061 8.1078 0.0839844 7.75179L0.0895827 7.24221C0.0859952 6.54372 0.322457 5.86515 0.75946 5.32012C1.19744 4.77388 1.81014 4.3951 2.49454 4.24747C5.44091 3.64369 8.50851 3.6711 11.4584 4.23604Z" fill="black"/>
</svg>
