<svg width="14" height="14" viewBox="0 0 14 14" fill="none" xmlns="http://www.w3.org/2000/svg">
<path fill-rule="evenodd" clip-rule="evenodd" d="M13.174 4.06786C12.736 3.52162 12.1233 3.14271 11.4389 2.99508C8.48898 2.43014 5.42138 2.40273 2.47501 3.0065C1.79061 3.15413 1.17791 3.53291 0.739928 4.07916C0.302926 4.62418 0.066464 5.30276 0.0700515 6.00124L0.0644531 6.51082C0.0684749 6.86683 0.211685 7.20712 0.463436 7.45887C0.715188 7.71062 1.05548 7.8539 1.41149 7.85792L3.56738 7.84657C3.92254 7.84349 4.26227 7.70103 4.51341 7.44989C4.76455 7.19875 4.90699 6.86033 4.91007 6.50517C4.91114 6.41045 4.94925 6.31992 5.01623 6.25293C5.08269 6.18647 5.17234 6.14844 5.26626 6.14681L8.65475 6.1468C8.70068 6.14646 8.74622 6.15526 8.78873 6.17268C8.83123 6.19011 8.86984 6.21581 8.90232 6.24829C8.93481 6.28077 8.96051 6.31938 8.97793 6.36189C8.99662 6.40749 9.00339 6.4549 9.00382 6.50387C9.00691 6.85902 9.14936 7.19875 9.4005 7.44989C9.65164 7.70103 9.99137 7.84351 10.3465 7.84659L12.5024 7.84656C12.8584 7.84254 13.1987 7.69933 13.4505 7.44758C13.7022 7.19583 13.8456 6.85554 13.8496 6.49953L13.8439 5.98992C13.8474 5.29144 13.611 4.61288 13.174 4.06786ZM7.62549 7.93857C7.62549 7.59339 7.34567 7.31357 7.00049 7.31357C6.65531 7.31357 6.37549 7.59339 6.37549 7.93857V10.1595H5.12893C4.87614 10.1595 4.64824 10.3118 4.5515 10.5453C4.45476 10.7789 4.50824 11.0477 4.68698 11.2265L6.55264 13.0921C6.57526 13.1153 6.59966 13.1368 6.62564 13.1563C6.66028 13.1824 6.69701 13.2043 6.73517 13.2222C6.80301 13.2541 6.87751 13.2741 6.956 13.2796C6.9967 13.2825 7.03761 13.2814 7.07814 13.2764C7.10814 13.2727 7.13749 13.2668 7.16602 13.259C7.2673 13.2313 7.36297 13.1777 7.44253 13.0981L9.3142 11.2265C9.49295 11.0477 9.54642 10.7789 9.44968 10.5453C9.35295 10.3118 9.12505 10.1595 8.87226 10.1595H7.62549V7.93857Z" fill="black"/>
</svg>
