<svg width="14" height="14" viewBox="0 0 14 14" fill="none" xmlns="http://www.w3.org/2000/svg">
<g clip-path="url(#clip0_1068_189654)">
<path fill-rule="evenodd" clip-rule="evenodd" d="M6.40047 5.99538C6.36529 6.07968 6.31404 6.15887 6.24672 6.22825C6.24134 6.2338 6.23588 6.23927 6.23033 6.24465C6.0958 6.3751 5.91255 6.45559 5.71051 6.45618C5.70976 6.45618 5.70901 6.45618 5.70826 6.45618L2.44253 6.45619C2.13919 6.45619 1.86571 6.27345 1.74962 5.9932C1.63354 5.71294 1.69771 5.39035 1.9122 5.17586L3.01473 4.07332L0.512639 1.57122C0.219745 1.27833 0.219745 0.803457 0.512639 0.510564C0.805532 0.21767 1.2804 0.21767 1.5733 0.510564L4.0754 3.01266L5.17793 1.91013C5.39243 1.69563 5.71501 1.63147 5.99527 1.74755C6.27553 1.86364 6.45826 2.13711 6.45826 2.44046V5.70618C6.45826 5.80869 6.4377 5.90639 6.40047 5.99538ZM6.7377 13.2792C6.2193 13.613 5.60227 13.7593 4.98918 13.6938C4.3761 13.6284 3.80389 13.355 3.3677 12.9192L2.9877 12.5392C2.81916 12.3689 2.72462 12.1389 2.72462 11.8992C2.72462 11.6596 2.81916 11.4296 2.9877 11.2592L4.5877 9.66922C4.75637 9.50129 4.98469 9.40701 5.2227 9.40701C5.46071 9.40701 5.68903 9.50129 5.8577 9.66922C6.02807 9.83777 6.25805 9.93231 6.4977 9.93231C6.73735 9.93231 6.96733 9.83777 7.1377 9.66922L9.6877 7.11922C9.85625 6.94886 9.95079 6.71888 9.95079 6.47922C9.95079 6.23957 9.85625 6.00959 9.6877 5.83922C9.51977 5.67056 9.42549 5.44223 9.42549 5.20422C9.42549 4.96621 9.51977 4.73789 9.6877 4.56922L11.2277 2.96922C11.3981 2.80068 11.6281 2.70614 11.8677 2.70614C12.1074 2.70614 12.3374 2.80068 12.5077 2.96922L12.8877 3.34922C13.3313 3.77926 13.614 4.34842 13.6886 4.96173C13.7633 5.57503 13.6253 6.19537 13.2977 6.71922C11.554 9.30801 9.32648 11.5355 6.7377 13.2792Z" fill="black"/>
</g>
<defs>
<clipPath id="clip0_1068_189654">
<rect width="14" height="14" fill="white"/>
</clipPath>
</defs>
</svg>
