<svg width="14" height="14" viewBox="0 0 14 14" fill="none" xmlns="http://www.w3.org/2000/svg">
<g clip-path="url(#clip0_1068_189618)">
<path fill-rule="evenodd" clip-rule="evenodd" d="M4.17878 1.59892C4.00003 1.42018 3.94655 1.15135 4.04329 0.917806C4.14003 0.684259 4.36793 0.531982 4.62072 0.531982H6.93469C7.27987 0.531982 7.55969 0.811804 7.55969 1.15698V3.47096C7.55969 3.72375 7.40742 3.95164 7.17387 4.04838C6.94032 4.14512 6.67149 4.09165 6.49274 3.9129L5.8659 3.28605L4.20035 4.9516C3.51693 5.63501 2.40889 5.63501 1.72548 4.95159L0.286074 3.51218C-0.00681806 3.21929 -0.00681615 2.74441 0.286078 2.45152C0.578972 2.15863 1.05385 2.15863 1.34674 2.45152L2.78614 3.89093C2.88377 3.98856 3.04206 3.98856 3.1397 3.89093L4.80523 2.22539L4.17878 1.59892ZM11.446 1.25C11.8536 1.25 12.2451 1.40956 12.5366 1.69454L12.9238 2.09032C13.4752 2.63633 13.8224 3.3552 13.9073 4.12669C13.992 4.89653 13.807 5.69794 13.3787 6.34521C11.5418 9.05244 9.19369 11.3908 6.48173 13.2208C5.82789 13.6426 5.04874 13.8265 4.27531 13.7414C3.50382 13.6565 2.78495 13.3093 2.23893 12.7578L1.84317 12.3706C1.55819 12.0791 1.39862 11.6877 1.39862 11.28C1.39862 10.8724 1.55812 10.4809 1.8431 10.1894L3.50415 8.54571L3.50568 8.54421C3.79581 8.25908 4.18633 8.0993 4.59311 8.0993C4.9999 8.0993 5.38926 8.25794 5.67939 8.54307C5.73733 8.59971 5.81513 8.63142 5.89615 8.63142C5.97632 8.63142 6.05332 8.60038 6.11106 8.54486L8.7053 5.9506L8.70856 5.94739C8.7362 5.92015 8.75815 5.88769 8.77313 5.85189C8.8188 5.74277 8.78575 5.60631 8.70149 5.52327C8.41636 5.23314 8.25658 4.84263 8.25658 4.43584C8.25658 4.02905 8.41634 3.63851 8.70147 3.34838L10.3503 1.69948L10.3554 1.69454C10.6468 1.40956 11.0383 1.25 11.446 1.25Z" fill="black"/>
</g>
<defs>
<clipPath id="clip0_1068_189618">
<rect width="14" height="14" fill="white"/>
</clipPath>
</defs>
</svg>
