<svg width="14" height="14" viewBox="0 0 14 14" fill="none" xmlns="http://www.w3.org/2000/svg">
<g clip-path="url(#clip0_1068_189627)">
<path fill-rule="evenodd" clip-rule="evenodd" d="M14 2.5C14 3.88071 12.8807 5 11.5 5C10.1193 5 9 3.88071 9 2.5C9 1.11929 10.1193 0 11.5 0C12.8807 0 14 1.11929 14 2.5ZM2 2.5H7.75C7.75 4.57107 9.42893 6.25 11.5 6.25V12C11.5 13.1046 10.6046 14 9.5 14H2C0.895431 14 0 13.1046 0 12V4.5C0 3.39543 0.895431 2.5 2 2.5Z" fill="black"/>
</g>
<defs>
<clipPath id="clip0_1068_189627">
<rect width="14" height="14" fill="white"/>
</clipPath>
</defs>
</svg>
