<svg width="14" height="14" viewBox="0 0 14 14" fill="none" xmlns="http://www.w3.org/2000/svg">
<g clip-path="url(#clip0_1068_189603)">
<path fill-rule="evenodd" clip-rule="evenodd" d="M10.6482 0.0240479C11.1314 0.0240479 11.5232 0.415799 11.5232 0.899048V3.39905C11.5232 3.8823 11.1314 4.27405 10.6482 4.27405C10.1649 4.27405 9.77319 3.8823 9.77319 3.39905V0.899048C9.77319 0.415799 10.1649 0.0240479 10.6482 0.0240479ZM9.64819 5.89905C9.64819 5.34676 10.0959 4.89905 10.6482 4.89905C11.2005 4.89905 11.6482 5.34676 11.6482 5.89905C11.6482 6.45133 11.2005 6.89905 10.6482 6.89905C10.0959 6.89905 9.64819 6.45133 9.64819 5.89905ZM8.64807 3.39908V2.50003H2C0.895431 2.50003 0 3.39546 0 4.50003V12C0 13.1046 0.895431 14 2 14H9.5C10.6046 14 11.5 13.1046 11.5 12V7.7839C11.2402 7.90149 10.9518 7.96695 10.6481 7.96695C9.50605 7.96695 8.5802 7.04111 8.5802 5.89902C8.5802 5.40411 8.75405 4.94982 9.04402 4.59386C8.79531 4.2605 8.64807 3.84698 8.64807 3.39908Z" fill="black"/>
</g>
<defs>
<clipPath id="clip0_1068_189603">
<rect width="14" height="14" fill="white"/>
</clipPath>
</defs>
</svg>
