<svg width="14" height="14" viewBox="0 0 14 14" fill="none" xmlns="http://www.w3.org/2000/svg">
<g clip-path="url(#clip0_1068_189597)">
<path fill-rule="evenodd" clip-rule="evenodd" d="M1.75 1.5C1.61193 1.5 1.5 1.61193 1.5 1.75V12.2388C1.50165 12.2429 1.50486 12.2499 1.51076 12.26C1.52996 12.2927 1.56669 12.3382 1.62329 12.3864C1.67937 12.4343 1.73851 12.4707 1.78463 12.4924C1.79111 12.4954 1.79688 12.4979 1.80187 12.5H8.25C8.38807 12.5 8.5 12.3881 8.5 12.25V9.75C8.5 9.33579 8.83579 9 9.25 9C9.66421 9 10 9.33579 10 9.75V12.25C10 13.2165 9.2165 14 8.25 14H1.75C1.51778 14 1.30218 13.9229 1.14782 13.8505C0.978094 13.7709 0.806129 13.6609 0.649999 13.5278C0.361255 13.2816 0 12.8419 0 12.25V1.75C0 0.783502 0.783502 0 1.75 0H5C5.41421 0 5.75 0.335786 5.75 0.75C5.75 1.16421 5.41421 1.5 5 1.5H1.75ZM10.0005 0C8.93964 0 7.92223 0.421427 7.17208 1.17157C6.42194 1.92172 6.00051 2.93913 6.00051 4C6.00339 4.54247 6.11209 5.07916 6.32051 5.58L5.63744 7.17938C5.57678 7.32142 5.69317 7.47569 5.8464 7.45636L7.64051 7.23C8.15057 7.60259 8.74162 7.84909 9.36527 7.94932C9.98892 8.04955 10.6274 8.00066 11.2286 7.80665C11.8297 7.61264 12.3763 7.27902 12.8237 6.83312C13.2711 6.38721 13.6065 5.84169 13.8025 5.24122C13.9985 4.64074 14.0495 4.00239 13.9514 3.37841C13.8532 2.75443 13.6087 2.16256 13.2378 1.65127C12.8669 1.13997 12.3802 0.723781 11.8175 0.436769C11.2548 0.149758 10.6322 8.36577e-05 10.0005 0ZM10.0005 1.5C10.2767 1.5 10.5005 1.72386 10.5005 2V3.5C10.5005 3.77614 10.2767 4 10.0005 4C9.72437 4 9.50051 3.77614 9.50051 3.5V2C9.50051 1.72386 9.72437 1.5 10.0005 1.5ZM10.7505 5.5C10.7505 5.08579 10.4147 4.75 10.0005 4.75C9.5863 4.75 9.25051 5.08579 9.25051 5.5C9.25051 5.91421 9.5863 6.25 10.0005 6.25C10.4147 6.25 10.7505 5.91421 10.7505 5.5ZM4.5 9.75C4.08579 9.75 3.75 10.0858 3.75 10.5C3.75 10.9142 4.08579 11.25 4.5 11.25H5.5C5.91421 11.25 6.25 10.9142 6.25 10.5C6.25 10.0858 5.91421 9.75 5.5 9.75H4.5Z" fill="black"/>
</g>
<defs>
<clipPath id="clip0_1068_189597">
<rect width="14" height="14" fill="white"/>
</clipPath>
</defs>
</svg>
