<svg width="14" height="14" viewBox="0 0 14 14" fill="none" xmlns="http://www.w3.org/2000/svg">
<g clip-path="url(#clip0_1068_189594)">
<path fill-rule="evenodd" clip-rule="evenodd" d="M13.2503 2.5C13.2503 3.88071 12.131 5 10.7503 5C9.3696 5 8.25031 3.88071 8.25031 2.5C8.25031 1.11929 9.3696 0 10.7503 0C12.131 0 13.2503 1.11929 13.2503 2.5ZM7.46122 0.697322C7.03264 0.567626 6.58368 0.5 6.12774 0.5C4.90662 0.5 3.7355 0.985091 2.87204 1.84856C2.00857 2.71202 1.52348 3.88314 1.52348 5.10426V8.47675C1.52348 8.66116 1.45022 8.83803 1.31982 8.96843C1.18941 9.09883 1.01255 9.17209 0.828125 9.17209C0.413911 9.17209 0.078125 9.50788 0.078125 9.92209C0.078125 10.3363 0.413911 10.6721 0.828125 10.6721H11.4273C11.8416 10.6721 12.1773 10.3363 12.1773 9.92209C12.1773 9.50788 11.8416 9.17209 11.4273 9.17209C11.2429 9.17209 11.0661 9.09883 10.9357 8.96843C10.8053 8.83803 10.732 8.66116 10.732 8.47675V6.24996C8.66936 6.2401 7.00031 4.56496 7.00031 2.5C7.00031 1.84661 7.16742 1.23225 7.46122 0.697322ZM4.37775 12.75C4.37775 12.3358 4.71354 12 5.12775 12H7.12775C7.54197 12 7.87775 12.3358 7.87775 12.75C7.87775 13.1642 7.54197 13.5 7.12775 13.5H5.12775C4.71354 13.5 4.37775 13.1642 4.37775 12.75Z" fill="black"/>
</g>
<defs>
<clipPath id="clip0_1068_189594">
<rect width="14" height="14" fill="white"/>
</clipPath>
</defs>
</svg>
