<svg width="14" height="14" viewBox="0 0 14 14" fill="none" xmlns="http://www.w3.org/2000/svg">
<g clip-path="url(#clip0_1068_189651)">
<path fill-rule="evenodd" clip-rule="evenodd" d="M5.0016 0.753881C4.88552 0.473625 4.61204 0.290894 4.30869 0.290894H1.04297C0.839263 0.290894 0.654525 0.372106 0.519366 0.50392C0.514809 0.508365 0.510307 0.512866 0.505864 0.517425C0.437879 0.587146 0.386176 0.666826 0.350757 0.751696C0.313531 0.840692 0.292969 0.938392 0.292969 1.04089V4.30662C0.292969 4.60996 0.4757 4.88344 0.755957 4.99953C1.03621 5.11561 1.3588 5.05145 1.5733 4.83695L2.67583 3.73442L5.17793 6.23652C5.47083 6.52941 5.9457 6.52941 6.23859 6.23652C6.53149 5.94362 6.53149 5.46875 6.23859 5.17585L3.73649 2.67375L4.83902 1.57122C5.05352 1.35673 5.11769 1.03414 5.0016 0.753881ZM6.73774 13.2793C6.21934 13.6131 5.60231 13.7594 4.98922 13.6939C4.37614 13.6284 3.80393 13.355 3.36774 12.9193L2.98774 12.5393C2.8192 12.3689 2.72466 12.1389 2.72466 11.8993C2.72466 11.6596 2.8192 11.4296 2.98774 11.2593L4.58774 9.66925C4.75641 9.50132 4.98473 9.40704 5.22274 9.40704C5.46075 9.40704 5.68907 9.50132 5.85774 9.66925C6.02811 9.8378 6.25809 9.93234 6.49774 9.93234C6.73739 9.93234 6.96737 9.8378 7.13774 9.66925L9.68774 7.11925C9.85629 6.94888 9.95083 6.71891 9.95083 6.47925C9.95083 6.2396 9.85629 6.00962 9.68774 5.83925C9.51981 5.67059 9.42553 5.44226 9.42553 5.20425C9.42553 4.96624 9.51981 4.73792 9.68774 4.56925L11.2278 2.96925C11.3981 2.80071 11.6281 2.70617 11.8678 2.70617C12.1074 2.70617 12.3374 2.80071 12.5078 2.96925L12.8878 3.34925C13.3314 3.77929 13.6141 4.34845 13.6887 4.96175C13.7633 5.57506 13.6253 6.1954 13.2978 6.71925C11.554 9.30803 9.32652 11.5355 6.73774 13.2793Z" fill="black"/>
</g>
<defs>
<clipPath id="clip0_1068_189651">
<rect width="14" height="14" fill="white"/>
</clipPath>
</defs>
</svg>
