<svg width="14" height="14" viewBox="0 0 14 14" fill="none" xmlns="http://www.w3.org/2000/svg">
<path fill-rule="evenodd" clip-rule="evenodd" d="M1.53515 2.58172C1.53515 2.53659 1.57174 2.5 1.61688 2.5H7.43893C7.48406 2.5 7.52065 2.53659 7.52065 2.58172V11.7307C7.52065 11.7758 7.48406 11.8124 7.43893 11.8124H1.61688C1.57174 11.8124 1.53515 11.7758 1.53515 11.7307V2.58172ZM1.61688 1C0.743317 1 0.0351562 1.70816 0.0351562 2.58172V11.7307C0.0351562 12.6042 0.743317 13.3124 1.61688 13.3124H7.43893C8.31249 13.3124 9.02065 12.6042 9.02065 11.7307V2.58172C9.02065 1.70816 8.31249 1 7.43893 1H1.61688ZM4.11181 9.73306C3.6976 9.73306 3.36181 10.0688 3.36181 10.4831C3.36181 10.8973 3.6976 11.2331 4.11181 11.2331H4.94354C5.35775 11.2331 5.69354 10.8973 5.69354 10.4831C5.69354 10.0688 5.35775 9.73306 4.94354 9.73306H4.11181ZM11.7492 9.50952C12.8831 8.21801 12.8831 6.09448 11.7492 4.80297C11.5215 4.54357 11.5472 4.14867 11.8066 3.92095C12.066 3.69322 12.4609 3.7189 12.6886 3.9783C14.2366 5.74159 14.2366 8.5709 12.6886 10.3342C12.4609 10.5936 12.066 10.6193 11.8066 10.3915C11.5472 10.1638 11.5215 9.76892 11.7492 9.50952ZM9.86305 5.75111C10.1125 6.11278 10.2554 6.61931 10.2554 7.15617C10.2554 7.69303 10.1125 8.19956 9.86305 8.56123C9.66706 8.84537 9.73852 9.23459 10.0226 9.43059C10.3068 9.62658 10.696 9.55512 10.892 9.27098C11.313 8.66067 11.5054 7.89326 11.5054 7.15617C11.5054 6.41909 11.313 5.65167 10.892 5.04136C10.696 4.75722 10.3068 4.68577 10.0226 4.88176C9.73852 5.07775 9.66706 5.46697 9.86305 5.75111Z" fill="black"/>
</svg>
