<svg width="14" height="14" viewBox="0 0 14 14" fill="none" xmlns="http://www.w3.org/2000/svg">
<path fill-rule="evenodd" clip-rule="evenodd" d="M3.5 1.75C3.5 1.61193 3.61193 1.5 3.75 1.5H10.25C10.3881 1.5 10.5 1.61193 10.5 1.75V12.25C10.5 12.3881 10.3881 12.5 10.25 12.5H3.80187C3.79688 12.4979 3.79111 12.4954 3.78463 12.4924C3.73851 12.4707 3.67937 12.4343 3.62329 12.3864C3.56669 12.3382 3.52996 12.2927 3.51076 12.26C3.50486 12.2499 3.50165 12.2429 3.5 12.2388V1.75ZM3.75 0C2.7835 0 2 0.783502 2 1.75V12.25C2 12.8419 2.36126 13.2816 2.65 13.5278C2.80613 13.6609 2.97809 13.7709 3.14782 13.8505C3.30218 13.9229 3.51778 14 3.75 14H10.25C11.2165 14 12 13.2165 12 12.25V1.75C12 0.783502 11.2165 0 10.25 0H3.75ZM6.5 9.75C6.08579 9.75 5.75 10.0858 5.75 10.5C5.75 10.9142 6.08579 11.25 6.5 11.25H7.5C7.91421 11.25 8.25 10.9142 8.25 10.5C8.25 10.0858 7.91421 9.75 7.5 9.75H6.5Z" fill="black"/>
</svg>
