<svg width="14" height="14" viewBox="0 0 14 14" fill="none" xmlns="http://www.w3.org/2000/svg">
<path fill-rule="evenodd" clip-rule="evenodd" d="M4 1.5C3.86193 1.5 3.75 1.61193 3.75 1.75V12.2388C3.75165 12.2429 3.75486 12.2499 3.76076 12.26C3.77996 12.2927 3.81669 12.3382 3.87329 12.3864C3.92937 12.4343 3.98851 12.4707 4.03463 12.4924C4.04111 12.4954 4.04688 12.4979 4.05187 12.5H10.5C10.6381 12.5 10.75 12.3881 10.75 12.25V1.75C10.75 1.61193 10.6381 1.5 10.5 1.5H4ZM2.25 1.75C2.25 0.783502 3.0335 0 4 0H10.5C11.4665 0 12.25 0.783502 12.25 1.75V12.25C12.25 13.2165 11.4665 14 10.5 14H4C3.76778 14 3.55218 13.9229 3.39782 13.8505C3.22809 13.7709 3.05613 13.6609 2.9 13.5278C2.61126 13.2816 2.25 12.8419 2.25 12.25V1.75ZM4.57452 3.35608C4.57452 3.0109 4.85435 2.73108 5.19952 2.73108H6.01971C6.36489 2.73108 6.64471 3.0109 6.64471 3.35608C6.64471 3.70126 6.36489 3.98108 6.01971 3.98108H5.82452V4.58636C5.82452 4.93153 5.5447 5.21136 5.19952 5.21136C4.85435 5.21136 4.57452 4.93153 4.57452 4.58636V3.35608ZM9.30047 6.42191C9.64565 6.42191 9.92547 6.70173 9.92547 7.04691V7.86709C9.92547 8.21227 9.64565 8.49209 9.30047 8.49209H8.48029C8.13511 8.49209 7.85529 8.21227 7.85529 7.86709C7.85529 7.52191 8.13511 7.24209 8.48029 7.24209H8.67547V7.04691C8.67547 6.70173 8.95529 6.42191 9.30047 6.42191ZM5.19952 6.15723C4.85435 6.15723 4.57452 6.43705 4.57452 6.78223C4.57452 7.1274 4.85435 7.40723 5.19952 7.40723H5.6594V7.8671C5.6594 8.21228 5.93922 8.4921 6.2844 8.4921C6.62957 8.4921 6.9094 8.21228 6.9094 7.8671V6.78223C6.9094 6.43705 6.62957 6.15723 6.2844 6.15723H5.19952ZM7.44513 3.35608C7.44513 3.0109 7.72495 2.73108 8.07013 2.73108H9.30041C9.64559 2.73108 9.92541 3.0109 9.92541 3.35608V5.11628C9.92541 5.46146 9.64559 5.74128 9.30041 5.74128C8.95523 5.74128 8.67541 5.46146 8.67541 5.11628V3.98108H8.07013C7.72495 3.98108 7.44513 3.70126 7.44513 3.35608ZM7.20645 4.68015C6.89771 4.52578 6.52229 4.65092 6.36792 4.95966C6.21356 5.26839 6.3387 5.64382 6.64743 5.79818L7.29343 6.12118C7.60217 6.27555 7.97759 6.15041 8.13196 5.84168C8.28633 5.53294 8.16119 5.15752 7.85245 5.00315L7.20645 4.68015ZM6.75 9.75C6.33579 9.75 6 10.0858 6 10.5C6 10.9142 6.33579 11.25 6.75 11.25H7.75C8.16421 11.25 8.5 10.9142 8.5 10.5C8.5 10.0858 8.16421 9.75 7.75 9.75H6.75Z" fill="black"/>
</svg>
