<svg width="14" height="14" viewBox="0 0 14 14" fill="none" xmlns="http://www.w3.org/2000/svg">
<g clip-path="url(#clip0_1068_189621)">
<path fill-rule="evenodd" clip-rule="evenodd" d="M8.05079 0.860474C8.05079 0.44626 7.715 0.110474 7.30079 0.110474C6.3487 0.110474 5.40594 0.298 4.52633 0.662347C3.64672 1.02669 2.84749 1.56072 2.17426 2.23395C1.50104 2.90717 0.967001 3.70641 0.602655 4.58602C0.238308 5.46563 0.0507812 6.40839 0.0507812 7.36047C0.0507812 7.77469 0.386568 8.11047 0.800781 8.11047C1.215 8.11047 1.55079 7.77469 1.55079 7.36047C1.55079 6.60537 1.69951 5.85767 1.98848 5.16004C2.27744 4.46242 2.70098 3.82855 3.23492 3.29461C3.76886 2.76067 4.40273 2.33713 5.10036 2.04817C5.79798 1.7592 6.54568 1.61047 7.30079 1.61047C7.715 1.61047 8.05079 1.27469 8.05079 0.860474ZM6.9769 13.4596C6.4585 13.7934 5.84147 13.9397 5.22838 13.8742C4.6153 13.8087 4.0431 13.5354 3.6069 13.0996L3.2269 12.7196C3.05836 12.5492 2.96382 12.3192 2.96382 12.0796C2.96382 11.8399 3.05836 11.61 3.2269 11.4396L4.8269 9.84959C4.99557 9.68166 5.22389 9.58738 5.4619 9.58738C5.69992 9.58738 5.92824 9.68166 6.0969 9.84959C6.26727 10.0181 6.49725 10.1127 6.7369 10.1127C6.97656 10.1127 7.20654 10.0181 7.3769 9.84959L9.9269 7.29959C10.0955 7.12922 10.19 6.89924 10.19 6.65959C10.19 6.41994 10.0955 6.18996 9.9269 6.01959C9.75897 5.85092 9.66469 5.6226 9.66469 5.38459C9.66469 5.14658 9.75897 4.91826 9.9269 4.74959L11.4669 3.14959C11.6373 2.98104 11.8673 2.88651 12.1069 2.88651C12.3466 2.88651 12.5766 2.98104 12.7469 3.14959L13.1269 3.52959C13.5705 3.95963 13.8532 4.52879 13.9278 5.14209C14.0024 5.75539 13.8645 6.37574 13.5369 6.89959C11.7932 9.48837 9.56568 11.7159 6.9769 13.4596ZM7.61475 3.00296C8.02896 3.00296 8.36475 3.33875 8.36475 3.75296C8.36475 4.16717 8.02896 4.50296 7.61475 4.50296C6.7528 4.50296 5.92615 4.84537 5.31665 5.45486C4.70716 6.06436 4.36475 6.89101 4.36475 7.75296C4.36475 8.16717 4.02896 8.50296 3.61475 8.50296C3.20054 8.50296 2.86475 8.16717 2.86475 7.75296C2.86475 6.49318 3.36519 5.285 4.25599 4.3942C5.14679 3.5034 6.35497 3.00296 7.61475 3.00296Z" fill="black"/>
</g>
<defs>
<clipPath id="clip0_1068_189621">
<rect width="14" height="14" fill="white"/>
</clipPath>
</defs>
</svg>
