<svg width="14" height="14" viewBox="0 0 14 14" fill="none" xmlns="http://www.w3.org/2000/svg">
<g clip-path="url(#clip0_1068_189633)">
<path d="M5.16951 13.2407C4.52896 13.654 3.76565 13.8341 3.00793 13.7507C2.25021 13.6674 1.54429 13.3257 1.00888 12.7831L0.540808 12.3254C0.335601 12.1155 0.220703 11.8336 0.220703 11.5401C0.220703 11.2465 0.335601 10.9646 0.540808 10.7547L2.52751 8.78885C2.73565 8.58429 3.0158 8.46967 3.30763 8.46967C3.59946 8.46967 3.87961 8.58429 4.08775 8.78885C4.29765 8.99405 4.57953 9.10895 4.87307 9.10895C5.16661 9.10895 5.44849 8.99405 5.65839 8.78885L8.77886 5.66837C8.88296 5.56579 8.96562 5.44353 9.02205 5.30871C9.07847 5.17389 9.10752 5.0292 9.10752 4.88305C9.10752 4.7369 9.07847 4.59221 9.02205 4.45739C8.96562 4.32257 8.88296 4.20032 8.77886 4.09773C8.57431 3.88959 8.45969 3.60944 8.45969 3.31761C8.45969 3.02579 8.57431 2.74563 8.77886 2.53749L10.7551 0.561194C10.965 0.355987 11.2469 0.241089 11.5405 0.241089C11.834 0.241089 12.1159 0.355987 12.3258 0.561194L12.7834 1.02927C13.326 1.56468 13.6677 2.27059 13.7511 3.02831C13.8344 3.78603 13.6544 4.54934 13.2411 5.1899C11.0879 8.36314 8.3483 11.0957 5.16951 13.2407Z" fill="black"/>
</g>
<defs>
<clipPath id="clip0_1068_189633">
<rect width="14" height="14" fill="white"/>
</clipPath>
</defs>
</svg>
