<svg width="14" height="14" viewBox="0 0 14 14" fill="none" xmlns="http://www.w3.org/2000/svg">
<path fill-rule="evenodd" clip-rule="evenodd" d="M0 13.25C0 12.8358 0.335786 12.5 0.75 12.5H3.12485C3.53907 12.5 3.87485 12.8358 3.87485 13.25C3.87485 13.6642 3.53907 14 3.12485 14H0.75C0.335786 14 0 13.6642 0 13.25ZM10.1162 13.25C10.1162 12.8358 10.452 12.5 10.8662 12.5H13.2411C13.6553 12.5 13.9911 12.8358 13.9911 13.25C13.9911 13.6642 13.6553 14 13.2411 14H10.8662C10.452 14 10.1162 13.6642 10.1162 13.25ZM5.81256 12.5C5.39835 12.5 5.06256 12.8358 5.06256 13.25C5.06256 13.6642 5.39835 14 5.81256 14H8.18742C8.60163 14 8.93742 13.6642 8.93742 13.25C8.93742 12.8358 8.60163 12.5 8.18742 12.5H5.81256Z" fill="black"/>
</svg>
