<svg width="14" height="14" viewBox="0 0 14 14" fill="none" xmlns="http://www.w3.org/2000/svg">
<path fill-rule="evenodd" clip-rule="evenodd" d="M8.33124 5H5.66876C5.39262 5 5.16876 5.22386 5.16876 5.5V13.5C5.16876 13.7761 5.39262 14 5.66876 14H8.33124C8.60738 14 8.83124 13.7761 8.83124 13.5V5.5C8.83124 5.22386 8.60738 5 8.33124 5ZM3.16247 8H0.5C0.223858 8 0 8.22386 0 8.5V13.5C0 13.7761 0.223857 14 0.5 14H3.16247C3.43862 14 3.66247 13.7761 3.66247 13.5V8.5C3.66247 8.22386 3.43862 8 3.16247 8ZM10.8662 12.5C10.452 12.5 10.1162 12.8358 10.1162 13.25C10.1162 13.6642 10.452 14 10.8662 14H13.2411C13.6553 14 13.9911 13.6642 13.9911 13.25C13.9911 12.8358 13.6553 12.5 13.2411 12.5H10.8662Z" fill="black"/>
</svg>
