<svg width="14" height="14" viewBox="0 0 14 14" fill="none" xmlns="http://www.w3.org/2000/svg">
<path fill-rule="evenodd" clip-rule="evenodd" d="M13.0005 1H10.338C10.0619 1 9.83801 1.22386 9.83801 1.5V13.5C9.83801 13.7761 10.0619 14 10.338 14H13.0005C13.2766 14 13.5005 13.7761 13.5005 13.5V1.5C13.5005 1.22386 13.2766 1 13.0005 1ZM3.16247 8H0.5C0.223858 8 0 8.22386 0 8.5V13.5C0 13.7761 0.223857 14 0.5 14H3.16247C3.43862 14 3.66247 13.7761 3.66247 13.5V8.5C3.66247 8.22386 3.43862 8 3.16247 8ZM5.41925 5H8.08173C8.35787 5 8.58173 5.22386 8.58173 5.5V13.5C8.58173 13.7761 8.35787 14 8.08173 14H5.41925C5.14311 14 4.91925 13.7761 4.91925 13.5V5.5C4.91925 5.22386 5.14311 5 5.41925 5Z" fill="black"/>
</svg>
