<svg width="16" height="16" viewBox="0 0 16 16" fill="none" xmlns="http://www.w3.org/2000/svg">
<mask id="mask0_83_2591" style="mask-type:alpha" maskUnits="userSpaceOnUse" x="0" y="0" width="16" height="16">
<rect width="16" height="16" fill="#66CF80"/>
</mask>
<g mask="url(#mask0_83_2591)">
<path d="M7.06607 11.0666L11.7661 6.36659L10.8327 5.43325L7.06607 9.19992L5.16607 7.29992L4.23273 8.23325L7.06607 11.0666ZM7.9994 14.6666C7.07718 14.6666 6.21051 14.4916 5.3994 14.1416C4.58829 13.7916 3.88273 13.3166 3.28273 12.7166C2.68273 12.1166 2.20773 11.411 1.85773 10.5999C1.50773 9.78881 1.33273 8.92214 1.33273 7.99992C1.33273 7.0777 1.50773 6.21103 1.85773 5.39992C2.20773 4.58881 2.68273 3.88325 3.28273 3.28325C3.88273 2.68325 4.58829 2.20825 5.3994 1.85825C6.21051 1.50825 7.07718 1.33325 7.9994 1.33325C8.92162 1.33325 9.78829 1.50825 10.5994 1.85825C11.4105 2.20825 12.1161 2.68325 12.7161 3.28325C13.3161 3.88325 13.7911 4.58881 14.1411 5.39992C14.4911 6.21103 14.6661 7.0777 14.6661 7.99992C14.6661 8.92214 14.4911 9.78881 14.1411 10.5999C13.7911 11.411 13.3161 12.1166 12.7161 12.7166C12.1161 13.3166 11.4105 13.7916 10.5994 14.1416C9.78829 14.4916 8.92162 14.6666 7.9994 14.6666Z" fill="#66CF80"/>
</g>
</svg>
