<svg xmlns="http://www.w3.org/2000/svg" viewBox="0 0 761.68 143.1"><title>Asset 16</title><g id="Layer_2" data-name="Layer 2"><g id="Layer_1-2" data-name="Layer 1"><path d="M271,40.73h18v6.7c4.37-4.68,12.64-8.42,21.69-8.42C330,39,342.5,54,342.5,74.74c0,21.38-14.67,37.92-37.14,37.92-6.24,0-12.32-1.09-16.38-3.44v32.93H271Zm18,22.78v28.4c4.84,3.12,8.89,4,14.82,4,12.48,0,19.66-9,19.66-20.75,0-11.24-6.55-19.35-18.41-19.35C299,55.86,293.35,58.67,289,63.51Z" style="fill:#fff"/><path d="M226.66,39.4c-22.48,0-37.14,16.54-37.14,37.91,0,20.76,12.47,35.74,31.83,35.74,9,0,17.31-3.75,21.68-8.43v6.72h18V52.42C247.68,42.36,232.89,39.4,226.66,39.4ZM243,88.55c-4.37,4.83-10,7.64-16.07,7.64-11.85,0-18.41-8.11-18.41-19.34,0-11.7,7.18-20.76,19.66-20.76,5.93,0,10,.94,14.82,4.07Z" style="fill:#fff"/><path d="M350.16,40.73h17.95v6.7c4.36-4.68,12.63-8.42,21.68-8.42,19.35,0,31.84,15,31.84,35.73,0,21.38-14.67,37.92-37.14,37.92-6.24,0-12.33-1.09-16.38-3.44v32.93H350.16Zm17.95,22.78v28.4c4.83,3.12,8.89,4,14.82,4,12.48,0,19.66-9,19.66-20.75,0-11.24-6.55-19.35-18.41-19.35C378.09,55.86,372.47,58.67,368.11,63.51Z" style="fill:#fff"/><path d="M473.63,20.6a20.34,20.34,0,0,0-11.08-3.75c-8.11,0-12.32,4.22-12.32,13.89v10h12.64V57.58H450.23v53.36h-18V29.34c0-19.51,9.36-29.34,25-29.34,7.18,0,13.73,1.72,18.41,4.68h15.92V84.26c0,8,2,11.39,6.08,11.39a12.6,12.6,0,0,0,7.49-2.81l3.75,13.73c-4.06,3.28-10.15,5.93-18.57,5.93-10.77,0-16.7-6.55-16.7-20.91Z" style="fill:#fff"/><path d="M547.12,39c23.25,0,38.23,15.76,38.23,36.82s-15,36.83-38.23,36.83S508.9,96.9,508.9,75.83,523.87,39,547.12,39Zm0,57c11.08,0,19.2-8,19.2-20.13,0-11.86-8.27-20-19.2-20-10.61,0-19,7.8-19,20C528.09,87.54,536.2,96,547.12,96Z" style="fill:#fff"/><path d="M674.14,111.25H658.07l-15-39c-1.1-2.65-1.56-5.61-2.34-8.27a50.32,50.32,0,0,1-2.5,8.59l-14.82,38.69h-15.3L585.35,40.73h19.2L615.78,79a73.76,73.76,0,0,1,2,9.37A91.46,91.46,0,0,1,620.46,79l13.11-38.22h15.91L663.06,78.8a98.26,98.26,0,0,1,2.65,9.67c.63-3.28,1.41-6.71,2.18-10.14l10.3-37.6h18.1Z" style="fill:#fff"/><path d="M734.06,110.94c-10.3,25.12-16.85,31.21-27.15,31.21-6.4,0-11.08-2.5-15.14-5.46l5.78-13.58c1.87,1.09,4.52,2.5,7.33,2.5,4.53,0,7.8-3.59,10.77-10.92l1.56-3.75L684.75,40.73h21.54l16.38,38.38c1.4,3.43,2.34,6.71,3.43,10.14A71.08,71.08,0,0,1,728.6,79l12.64-38.22h20.44Z" style="fill:#fff"/><path d="M140.91,87.45c-4,21.87-21.71,41-42.18,51.75-2.57,1.35-3.58,2.12-6.47,2.3h41.49a7,7,0,0,0,7.2-7V87.45Z" style="fill:#f7931e"/><path d="M95.68,140.24a15.15,15.15,0,0,1-2.52,0Z" style="fill:#ffce00"/><path d="M54.36,45.23c-.63.51-1.25,1-1.89,1.44C42,54.06,9.9,78,2.65,67.71-4.46,57.58,3,28.86,21.49,15c.35-.28.71-.53,1.06-.78,20-14.09,35-12.13,42.28-1.81C71.63,22.13,64,37.31,54.36,45.23Z" style="fill:#8427e0"/><path d="M132.72,67.41c-9.91,7-25.55-1.17-33.32-11.14-.31-.4-.61-.81-.91-1.22-7.38-10.51-31.34-42.57-21-49.82s39.94.67,53.45,19.9c.3.43.59.85.87,1.27C144.91,45.8,142.81,60.31,132.72,67.41Z" style="fill:#00b5ff"/><path d="M119.45,130.66c-.34.26-.69.52-1,.76-20,14.09-35,12.12-42.28,1.82-6.79-9.68.8-24.85,10.46-32.78.62-.52,1.26-1,1.9-1.45C99,91.62,131.06,67.67,138.31,78,145.42,88.1,137.93,116.83,119.45,130.66Z" style="fill:#ffbd00"/><path d="M63.51,140.45c-10.32,7.24-39.94-.67-53.45-19.91-.28-.38-.54-.77-.8-1.16a0,0,0,0,0,0,0c-13.19-19.44-11.1-34-1-41.08,9.9-7,25.55,1.15,33.31,11.12.31.4.62.82.91,1.23C49.86,101.14,73.82,133.2,63.51,140.45Z" style="fill:#e3006d"/><path d="M54.36,45.23C40,51.53,9.65,64.64,5.08,54.12,1.25,45.3,8.34,27.25,21.49,15c.35-.28.71-.53,1.06-.78,20-14.09,35-12.13,42.28-1.81C71.63,22.13,64,37.31,54.36,45.23Z" style="fill:#9327ff"/><path d="M132.72,67.41c-9.91,7-25.55-1.17-33.32-11.14C93,41.57,80.68,12.49,91,8c9.26-4,28.65,4,40.83,18.37C144.91,45.8,142.81,60.31,132.72,67.41Z" style="fill:#00c8ff"/><path d="M119.45,130.66c-.34.26-.69.52-1,.76-20,14.09-35,12.12-42.28,1.82-6.79-9.68.8-24.85,10.46-32.78,14.32-6.3,44.72-19.42,49.29-8.91C139.71,100.38,132.62,118.44,119.45,130.66Z" style="fill:#ffce00"/><path d="M50,137.65c-9.23,4-28.57-3.94-40.75-18.27a0,0,0,0,0,0,0c-13.19-19.44-11.1-34-1-41.08,9.9-7,25.55,1.15,33.31,11.12C48,104.11,60.28,133.2,50,137.65Z" style="fill:#fb006d"/></g></g></svg>