<svg width="16" height="16" viewBox="0 0 16 16" fill="none" xmlns="http://www.w3.org/2000/svg">
<path d="M10.9083 10.9011C10.4173 11.2751 9.83813 11.4814 9.09532 11.4814C7.93705 11.4814 6.82914 10.8367 6.45144 9.2765H10.027V8.50287H6.32554C6.31295 8.34814 6.31295 8.19341 6.31295 8.02579C6.31295 7.84527 6.32554 7.67765 6.33813 7.51003H10.027V6.73639H6.45144C6.81655 5.25358 7.82374 4.50573 9.09532 4.50573C9.72482 4.50573 10.304 4.69914 10.8201 5.06017L11.4371 4.24785C10.7194 3.73209 9.91367 3.5 9.09532 3.5C7.10612 3.5 5.72122 4.69914 5.31835 6.73639H4.5V7.51003H5.21763C5.20504 7.67765 5.20504 7.84527 5.20504 8.02579C5.20504 8.19341 5.20504 8.34814 5.21763 8.50287H4.5V9.2765H5.31835C5.7464 11.5716 7.40827 12.5 9.09532 12.5C10.0773 12.5 10.8705 12.1777 11.5 11.7264L10.9083 10.9011Z" fill="#333333"/>
</svg>
