<svg width="16" height="16" viewBox="0 0 16 16" fill="none" xmlns="http://www.w3.org/2000/svg">
<path fill-rule="evenodd" clip-rule="evenodd" d="M5.12265 11.5847C5.92255 12.1165 6.88538 12.5 8.00024 12.5C10.4842 12.5 12.2135 10.596 13.0675 9.39083C13.6624 8.55146 13.6624 7.44854 13.0675 6.60917C12.7341 6.13867 12.2673 5.56168 11.6743 5.03305L10.9661 5.74127C11.4908 6.20089 11.9225 6.72296 12.2516 7.18736C12.601 7.68035 12.601 8.31965 12.2516 8.81264C11.4276 9.97552 9.9599 11.5 8.00024 11.5C7.19618 11.5 6.47495 11.2434 5.84702 10.8603L5.12265 11.5847ZM5.03441 10.2587L4.32618 10.967C3.73316 10.4383 3.26636 9.86133 2.93294 9.39083C2.33811 8.55146 2.33811 7.44854 2.93294 6.60917C3.78701 5.40397 5.51627 3.5 8.00024 3.5C9.1151 3.5 10.0779 3.88354 10.8778 4.4153L10.1535 5.13966C9.52554 4.75665 8.80431 4.5 8.00024 4.5C6.04059 4.5 4.57293 6.02448 3.74884 7.18736C3.39948 7.68035 3.39948 8.31965 3.74884 8.81264C4.07794 9.27704 4.50968 9.79911 5.03441 10.2587ZM6.99269 9.71466C7.28548 9.8954 7.62952 10 8.00036 10C9.09422 10 9.95491 9.08996 9.95491 8C9.95491 7.64165 9.86187 7.30275 9.69811 7.00924L8.93118 7.77618C8.94668 7.84779 8.95491 7.92265 8.95491 8C8.95491 8.5669 8.51315 9 8.00036 9C7.91225 9 7.82623 8.98721 7.7442 8.96316L6.99269 9.71466ZM7.06951 8.22363L6.30253 8.99061C6.13882 8.69713 6.04582 8.35829 6.04582 8C6.04582 6.91005 6.9065 6 8.00036 6C8.37114 6 8.71513 6.10456 9.00789 6.28525L8.25635 7.03679C8.17436 7.01277 8.08841 7 8.00036 7C7.48757 7 7.04582 7.4331 7.04582 8C7.04582 8.07728 7.05403 8.15208 7.06951 8.22363Z" fill="#333333"/>
<path d="M11.667 3.33325L3.33366 11.6666" stroke="#333333" stroke-linecap="round"/>
</svg>
