<svg width="29" height="29" viewBox="0 0 29 29" fill="none" xmlns="http://www.w3.org/2000/svg">
<path d="M14.7777 3.34827C14.1116 3.34803 13.4314 3.76244 13.0286 4.58727L10.5507 9.68875L4.90265 10.4904C3.08627 10.7431 2.4978 12.525 3.80948 13.806L7.8906 17.7785L6.94327 23.354C6.6313 25.1589 8.12825 26.2497 9.7491 25.3945C10.3754 25.0632 13.5955 23.3949 14.7777 22.7707L19.8062 25.3945C21.4289 26.2497 22.9306 25.16 22.6121 23.354L21.6282 17.7785L25.7095 13.806C27.0273 12.5297 26.4692 10.7482 24.6527 10.4904L18.9682 9.68875L16.5267 4.58727C16.1245 3.76209 15.4437 3.34862 14.7777 3.34827Z" fill="#FFCE00"/>
</svg>
