<svg width="29" height="29" viewBox="0 0 29 29" fill="none" xmlns="http://www.w3.org/2000/svg">
<path d="M14.7777 3.34827C14.1116 3.34803 13.4315 3.76244 13.0286 4.58727L10.5507 9.68875L4.90265 10.4904C3.08627 10.7431 2.4978 12.525 3.80948 13.806L7.8906 17.7785L6.94327 23.354C6.6313 25.1589 8.12825 26.2497 9.7491 25.3945C10.3754 25.0632 13.5955 23.3949 14.7777 22.7707L19.8062 25.3945C21.429 26.2497 22.9306 25.16 22.6121 23.354L21.6282 17.7785L25.7095 13.806C27.0273 12.5297 26.4692 10.7482 24.6527 10.4904L18.9682 9.68875L16.5267 4.58727C16.1245 3.76209 15.4437 3.34862 14.7777 3.34827ZM14.7777 6.37273L17.1826 11.2921C17.3523 11.6401 17.6739 11.8572 18.0572 11.9116L23.5231 12.7129L19.5512 16.5395C19.2732 16.809 19.1561 17.1789 19.2233 17.5592L20.1707 22.9527L15.3243 20.4024C14.9838 20.2227 14.5714 20.2227 14.2311 20.4024C13.6264 20.7209 10.671 22.2737 9.38464 22.9527L10.2957 17.5965C10.3609 17.2174 10.2423 16.8079 9.96774 16.5395L6.03222 12.7129L11.4617 11.948C11.846 11.8946 12.2024 11.6407 12.3727 11.2921L14.7777 6.37273Z" fill="#676666"/>
</svg>
