<svg width="28" height="29" viewBox="0 0 28 29" fill="none" xmlns="http://www.w3.org/2000/svg">
<path d="M5.83138 3.91803C4.54221 3.91803 3.49805 4.9622 3.49805 6.25136V13.2514C3.49805 14.5405 4.54221 15.5847 5.83138 15.5847H9.33138C10.6205 15.5847 11.6647 14.5405 11.6647 13.2514V6.25136C11.6647 4.9622 10.6205 3.91803 9.33138 3.91803H5.83138ZM16.3314 5.0847C15.0422 5.0847 13.998 6.12886 13.998 7.41803V12.0847C13.998 13.3739 15.0422 14.418 16.3314 14.418H20.998C22.2872 14.418 23.3314 13.3739 23.3314 12.0847V7.41803C23.3314 6.12886 22.2872 5.0847 20.998 5.0847H16.3314ZM5.83138 6.25136H9.33138V13.2514H5.83138V6.25136ZM16.3314 7.41803H20.998V12.0847H16.3314V7.41803ZM16.3314 16.7514C15.0422 16.7514 13.998 17.7955 13.998 19.0847V21.418C13.998 22.7072 15.0422 23.7514 16.3314 23.7514H22.1647C23.4539 23.7514 24.498 22.7072 24.498 21.418V19.0847C24.498 17.7955 23.4539 16.7514 22.1647 16.7514H16.3314ZM6.59672 17.918C5.52339 17.918 4.66471 18.7767 4.66471 19.85V22.986C4.66471 24.0594 5.52339 24.918 6.59672 24.918H9.73271C10.806 24.918 11.6647 24.0594 11.6647 22.986V19.85C11.6647 18.7767 10.806 17.918 9.73271 17.918H6.59672ZM16.3314 19.0847H22.1647V21.418H16.3314V19.0847ZM6.99805 20.2514H9.33138V22.5847H6.99805V20.2514Z" fill="#5C5C5C"/>
</svg>
