<svg width="24" height="24" viewBox="0 0 24 24" fill="none" xmlns="http://www.w3.org/2000/svg">
<path d="M4.99805 2.92969C3.89305 2.92969 2.99805 3.82469 2.99805 4.92969V10.9297C2.99805 12.0347 3.89305 12.9297 4.99805 12.9297H7.99805C9.10305 12.9297 9.99805 12.0347 9.99805 10.9297V4.92969C9.99805 3.82469 9.10305 2.92969 7.99805 2.92969H4.99805ZM13.998 3.92969C12.893 3.92969 11.998 4.82469 11.998 5.92969V9.92969C11.998 11.0347 12.893 11.9297 13.998 11.9297H17.998C19.103 11.9297 19.998 11.0347 19.998 9.92969V5.92969C19.998 4.82469 19.103 3.92969 17.998 3.92969H13.998ZM13.998 13.9297C12.893 13.9297 11.998 14.8247 11.998 15.9297V17.9297C11.998 19.0347 12.893 19.9297 13.998 19.9297H18.998C20.103 19.9297 20.998 19.0347 20.998 17.9297V15.9297C20.998 14.8247 20.103 13.9297 18.998 13.9297H13.998ZM5.65405 14.9297C4.73405 14.9297 3.99805 15.6657 3.99805 16.5857V19.2737C3.99805 20.1937 4.73405 20.9297 5.65405 20.9297H8.34204C9.26204 20.9297 9.99805 20.1937 9.99805 19.2737V16.5857C9.99805 15.6657 9.26204 14.9297 8.34204 14.9297H5.65405Z" fill="#2F3030"/>
</svg>
