<svg width="24" height="24" viewBox="0 0 24 24" fill="none" xmlns="http://www.w3.org/2000/svg">
<path d="M11.9909 1.99902C8.43887 1.99902 5.99087 4.44703 5.99087 7.99904C5.99087 8.48404 5.99087 8.99905 5.99087 9.99905C5.99087 10.9991 5.82887 11.5391 5.27187 11.9991C5.20887 12.0511 4.94487 12.278 4.86587 12.3431C3.60087 13.3891 2.97987 14.3691 2.99087 15.9991C2.99887 17.0771 3.88387 18.0101 4.99087 17.9991H9.18186C9.18186 17.9991 8.99087 18.6101 8.99087 18.9991C8.99087 20.6561 10.3339 21.9991 11.9909 21.9991C13.6479 21.9991 14.9909 20.6561 14.9909 18.9991C14.9909 18.6101 14.8079 17.9991 14.8079 17.9991H18.9909C20.0949 18.0021 20.9899 17.0831 20.9909 15.9991C20.9929 14.3811 20.3649 13.3841 19.1159 12.3431C19.0339 12.274 18.7439 12.0531 18.6789 11.9991C18.1339 11.5451 17.9909 10.9991 17.9909 9.99905C17.9909 8.74904 17.9909 7.99904 17.9909 7.99904C17.9909 4.44703 15.5429 1.99902 11.9909 1.99902ZM11.9909 17.9991C12.5429 17.9991 12.9909 18.4471 12.9909 18.9991C12.9909 19.5511 12.5429 19.9991 11.9909 19.9991C11.4389 19.9991 10.9909 19.5511 10.9909 18.9991C10.9909 18.4471 11.4389 17.9991 11.9909 17.9991Z" fill="#2F3030"/>
</svg>
