<svg width="28" height="29" viewBox="0 0 28 29" fill="none" xmlns="http://www.w3.org/2000/svg">
<path d="M13.9895 2.83203C9.84515 2.83203 6.9895 5.68804 6.9895 9.83205C6.9895 10.3979 6.9895 12.1304 6.9895 12.1654C6.9895 12.5411 6.7998 12.7966 6.1509 13.3321C6.07728 13.3927 5.7687 13.6576 5.677 13.7334C4.2007 14.9537 3.4741 16.0971 3.4895 17.9987C3.50501 19.9214 5.07232 21.4766 6.9895 21.4988H10.6948C10.6948 21.4988 10.4895 22.2116 10.4895 22.6654C10.4895 24.5986 12.0563 26.1654 13.9895 26.1654C15.9227 26.1654 17.4895 24.5986 17.4895 22.6654C17.4895 22.2116 17.2935 21.4988 17.2935 21.4988H20.9895C22.9028 21.5058 24.4918 19.9296 24.4895 17.9987C24.4872 16.1111 23.7592 14.9479 22.302 13.7334C22.2063 13.6529 21.868 13.3951 21.791 13.3321C21.1563 12.8024 20.9895 12.5364 20.9895 12.1654C20.9895 10.7071 20.9895 9.83205 20.9895 9.83205C20.9895 5.68804 18.1335 2.83203 13.9895 2.83203ZM13.9895 5.16537C16.8455 5.16537 18.6562 6.97604 18.6562 9.83205C18.6562 9.83205 18.6562 10.7071 18.6562 12.1654C18.6562 13.4044 19.1788 14.1861 20.2965 15.1182C20.3852 15.1917 20.7597 15.4857 20.8437 15.5557C21.8213 16.3712 22.155 16.9231 22.1562 17.9987C22.1573 18.6334 21.6137 19.1677 20.9895 19.1654C20.769 19.1642 17.3728 19.1642 13.9895 19.1654C10.6065 19.1666 7.23742 19.1677 6.9895 19.1654C6.33827 19.1572 5.82808 18.6462 5.82283 17.9987C5.8142 16.9254 6.14775 16.3724 7.13533 15.5557C7.21595 15.4892 7.56093 15.1882 7.64575 15.1182C8.78115 14.1802 9.32283 13.4161 9.32283 12.1654C9.32283 12.1304 9.32283 10.3979 9.32283 9.83205C9.32283 6.97604 11.1339 5.16537 13.9895 5.16537ZM13.9895 21.4988C14.6335 21.4988 15.1562 22.0214 15.1562 22.6654C15.1562 23.3094 14.6335 23.8321 13.9895 23.8321C13.3455 23.8321 12.8228 23.3094 12.8228 22.6654C12.8228 22.0214 13.3455 21.4988 13.9895 21.4988Z" fill="#676666"/>
</svg>
