<svg width="29" height="29" viewBox="0 0 29 29" fill="none" xmlns="http://www.w3.org/2000/svg">
<path d="M11.9332 2.77869C6.7785 2.77869 2.59985 6.9577 2.59985 12.112C2.59985 17.2664 6.7785 21.4454 11.9332 21.4454C14.076 21.4454 16.1071 20.7092 17.6824 19.4959L22.7612 24.6176C23.2169 25.0726 23.9828 25.0726 24.4385 24.6176C24.894 24.1614 24.894 23.3961 24.4385 22.9399L19.3244 17.8532C20.5386 16.2782 21.2665 14.2552 21.2665 12.112C21.2665 6.9577 17.0879 2.77869 11.9332 2.77869ZM11.9332 5.11203C15.7992 5.11203 18.9332 8.2457 18.9332 12.112C18.9332 15.9784 15.7992 19.1121 11.9332 19.1121C8.0672 19.1121 4.93319 15.9784 4.93319 12.112C4.93319 8.2457 8.0672 5.11203 11.9332 5.11203Z" fill="#676666"/>
</svg>
