<svg width="25" height="24" viewBox="0 0 25 24" fill="none" xmlns="http://www.w3.org/2000/svg">
<path d="M7.49805 2.99072C5.28905 2.99072 3.49805 4.78172 3.49805 6.99072V15.9907V16.9907C3.49805 19.1997 5.28905 20.9907 7.49805 20.9907H17.498C19.707 20.9907 21.498 19.1997 21.498 16.9907V15.9907V6.99072C21.498 4.78172 19.707 2.99072 17.498 2.99072H7.49805ZM7.49805 4.99072H17.498C18.603 4.99072 19.498 5.88572 19.498 6.99072L19.502 13.1867C18.724 12.4647 17.9311 12.0127 17.0601 11.9907C17.0291 11.9897 17.03 11.9907 16.998 11.9907C15.861 11.9907 14.597 12.8647 13.748 13.9597C13.531 13.4697 13.3121 12.9857 13.0601 12.5217C11.8801 10.3427 10.591 8.99372 8.99805 8.99072C7.64405 8.98772 6.48205 10.0947 5.49005 11.6107L5.49805 6.99072C5.49805 5.88572 6.39305 4.99072 7.49805 4.99072ZM16.498 6.99072C15.946 6.99072 15.498 7.43872 15.498 7.99072C15.498 8.54272 15.946 8.99072 16.498 8.99072C17.05 8.99072 17.498 8.54272 17.498 7.99072C17.498 7.43872 17.05 6.99072 16.498 6.99072ZM8.99805 10.9907C9.58005 10.9917 10.4641 11.8977 11.3101 13.4597C11.6461 14.0777 11.947 14.7587 12.217 15.4287C12.379 15.8287 12.5041 16.1347 12.5601 16.3027C12.8331 17.1197 13.941 17.2357 14.373 16.4907C14.416 16.4167 14.494 16.2747 14.623 16.0847C14.839 15.7647 15.085 15.4407 15.342 15.1467C15.984 14.4107 16.603 13.9907 16.998 13.9907C17.397 14.0007 18.0131 14.4197 18.6541 15.1467C18.9141 15.4417 19.154 15.7647 19.373 16.0847C19.442 16.1847 19.452 16.2317 19.498 16.3027V16.9907C19.498 18.0957 18.603 18.9907 17.498 18.9907H7.49805C6.39305 18.9907 5.49805 18.0957 5.49805 16.9907V16.1467C5.56105 15.9687 5.64505 15.7577 5.77905 15.4287C6.05205 14.7587 6.34804 14.0787 6.68604 13.4597C7.53904 11.8947 8.41705 10.9897 8.99805 10.9907Z" fill="#676666"/>
</svg>
