<svg width="32" height="32" viewBox="0 0 32 32" fill="none" xmlns="http://www.w3.org/2000/svg">
    <path opacity="0.7"
        d="M14.1579 9L14.6673 8.57546C14.5413 8.42426 14.3547 8.33684 14.1579 8.33684V9ZM16 11.2105L15.4905 11.6351C15.6165 11.7863 15.8032 11.8737 16 11.8737V11.2105ZM9.66316 12.6843C9.66316 12.318 9.36625 12.0211 9 12.0211C8.63375 12.0211 8.33684 12.318 8.33684 12.6843H9.66316ZM8.33684 17.1053C8.33684 17.4716 8.63375 17.7685 9 17.7685C9.36625 17.7685 9.66316 17.4716 9.66316 17.1053H8.33684ZM23.6632 12.6843C23.6632 12.318 23.3663 12.0211 23 12.0211C22.6337 12.0211 22.3368 12.318 22.3368 12.6843H23.6632ZM22.3368 17.1053C22.3368 17.4716 22.6337 17.7685 23 17.7685C23.3663 17.7685 23.6632 17.4716 23.6632 17.1053H22.3368ZM9.66316 9.73684C9.66316 9.69614 9.69614 9.66316 9.73684 9.66316V8.33684C8.96364 8.33684 8.33684 8.96364 8.33684 9.73684H9.66316ZM9.73684 9.66316H14.1579V8.33684H9.73684V9.66316ZM13.6484 9.42454L15.4905 11.6351L16.5094 10.786L14.6673 8.57546L13.6484 9.42454ZM16 11.8737H22.2631V10.5474H16V11.8737ZM22.2631 11.8737C22.3038 11.8737 22.3368 11.9067 22.3368 11.9474H23.6631C23.6631 11.1742 23.0363 10.5474 22.2631 10.5474V11.8737ZM22.3368 11.9474V21.5263H23.6631V11.9474H22.3368ZM22.3368 21.5263C22.3368 21.567 22.3038 21.6 22.2631 21.6V22.9263C23.0363 22.9263 23.6631 22.2995 23.6631 21.5263H22.3368ZM22.2631 21.6H9.73684V22.9263H22.2631V21.6ZM9.73684 21.6C9.69614 21.6 9.66316 21.567 9.66316 21.5263H8.33684C8.33684 22.2995 8.96365 22.9263 9.73684 22.9263V21.6ZM9.66316 21.5263V9.73684H8.33684V21.5263H9.66316ZM22.9999 14.2317H9V15.558H22.9999V14.2317ZM8.33684 12.6843V17.1053H9.66316V12.6843H8.33684ZM22.3368 12.6843V17.1053H23.6632V12.6843H22.3368Z"
        fill="#333333" />
</svg>