<svg id="emoji" viewBox="0 0 72 72" xmlns="http://www.w3.org/2000/svg">
  <g id="color">
    <path fill="#3F3F3F" stroke="none" d="M35.8377,9.4188c-0.8333,0.1667-9,0.1667-9,0.1667l-8.75,7.25l-4.9167,10.25l-3,12.4167l1.3333,8.75 l5.75,7.1667c0,0,4.75,4,11.1667,3.75c0,0,20,2.9167,26.5-3.5833l3.3333-3.5833l3.1667-6.3333l0.0833-7.6667l-1.5-7l-2.1667-6.9167 l-4.0833-7.5l-4.9167-4.1667L44.921,9.8355l-4.1667-0.8333L35.8377,9.4188z"/>
    <path fill="#F4AA41" stroke="none" d="M55.5877,19.5021l2.5-1.8333l3.0833-0.5l1.9167,1.25l0.75,1c0,0,0.9167,3.6667,1,3.9167 c0.0833,0.25,0,6,0,6l-1.25,3.1667l-2.1667,1.9167l-2.3333-5.5l-3.1667-7.25L55.5877,19.5021z"/>
    <polygon fill="#F4AA41" stroke="none" points="16.671,19.0021 14.0044,17.1688 11.2544,16.5855 8.3377,18.4188 6.671,23.3355 7.171,29.1688 8.3377,31.8355 10.8377,34.6688 12.2544,30.1688 14.421,24.2521"/>
    <path fill="#F4AA41" stroke="none" d="M46.3377,44.5855l4.0833-2.4167l1.75-4.6667l1.25-7.25l-1.0833-4.75l-2.4167-2.8333l-4.3333-1.8333 l-5.4167,0.1667l-3.5833-0.0833l-7-0.3333l-4.6667,0.3333l-4.25,2.8333l-2,4.5833l0.0833,3.9167c0,0-0.0833,3.5,0.1667,3.9167 c0.25,0.4167,1.5833,4.4167,1.5833,4.4167l1.1667,1.6667l4,1.8333l-1,4c0,0-0.1667,6.5,1.25,8.4167 c1.4167,1.9167,5.75,5.4167,5.75,5.4167l6.4167,0.6667l4.5833-1.6667l3.8334-4.8333c0.8412-2.6884,1.1213-5.4142,1-8.1667 L46.3377,44.5855z"/>
  </g>
  <g id="hair"/>
  <g id="skin"/>
  <g id="skin-shadow"/>
  <g id="line">
    <circle cx="27.6338" cy="29.6771" r="2" fill="#000000" stroke="none"/>
    <path fill="none" stroke="#000000" stroke-linecap="round" stroke-linejoin="round" stroke-miterlimit="10" stroke-width="2" d="M23.0393,27.9538c0,0,4.726-6.5434,9.4521,0.1023"/>
    <path fill="none" stroke="#000000" stroke-linecap="round" stroke-linejoin="round" stroke-miterlimit="10" stroke-width="2" d="M30.8968,40.1701c0,0,0.6484,2.299,3.537,2.7117"/>
    <path fill="none" stroke="#000000" stroke-linecap="round" stroke-linejoin="round" stroke-miterlimit="10" stroke-width="2" d="M27.989,51.7674l1.2915,0.8045c1.2002,0.7477,2.5573,1.1408,3.9382,1.1408h5.6222c1.3232,0,2.6255-0.361,3.7893-1.0503 l1.5111-0.895"/>
    <path fill="none" stroke="#000000" stroke-linecap="round" stroke-linejoin="round" stroke-miterlimit="10" stroke-width="2" d="M31.0557,35.5878c-2.6158,1.5082-5.9686,4.8289-5.5798,11.8762"/>
    <path fill="none" stroke="#000000" stroke-linecap="round" stroke-linejoin="round" stroke-miterlimit="10" stroke-width="2" d="M26.8178,56.0264l0.2809,0.6695c1.0574,2.5206,3.1675,4.4503,5.7723,5.279l0.7864,0.2502 c2.2541,0.7171,4.6965,0.5509,6.8326-0.4651l0,0c2.0135-0.9577,3.6173-2.6051,4.5206-4.6436l0.4855-1.0957"/>
    <path fill="none" stroke="#000000" stroke-linecap="round" stroke-linejoin="round" stroke-miterlimit="10" stroke-width="2" d="M16.0795,18.8447l-1.7688-1.228c-1.6197-1.1245-3.7931-1.0191-5.2965,0.2567l0,0c-0.7659,0.65-1.2866,1.5421-1.4642,2.5308 c-0.6192,3.4457-1.5742,11.5715,2.6707,13.7114"/>
    <circle cx="43.3662" cy="29.9126" r="2" fill="#000000" stroke="none"/>
    <path fill="none" stroke="#000000" stroke-linecap="round" stroke-linejoin="round" stroke-miterlimit="10" stroke-width="2" d="M48.0175,28.1759c0,0-4.726-6.5434-9.4521,0.1023"/>
    <path fill="none" stroke="#000000" stroke-linecap="round" stroke-linejoin="round" stroke-miterlimit="10" stroke-width="2" d="M49.9607,41.4195c2.5152-1.7505,2.6995-5.9685,3.3012-10.1803c0.4127-2.8885-0.4716-5.895-3.5959-8.4888 c-3.1321-2.6002-7.3146-2.1486-9.39-1.6993c-1.0224,0.2213-2.0608,0.3145-3.1062,0.2758l-2.7267-0.1011 c-0.842-0.0312-1.6765-0.1564-2.4973-0.3471c-1.9859-0.4613-6.3637-1.0469-9.6117,1.6496 c-3.1243,2.5938-4.0086,5.6002-3.5959,8.4888c0.6017,4.2118,0.786,8.4298,3.3012,10.1803"/>
    <path fill="none" stroke="#000000" stroke-linecap="round" stroke-linejoin="round" stroke-miterlimit="10" stroke-width="2" d="M41.1032,40.1701c0,0-0.6484,2.299-3.537,2.7117"/>
    <path fill="none" stroke="#000000" stroke-linecap="round" stroke-linejoin="round" stroke-miterlimit="10" stroke-width="2" d="M41.2534,35.9947c2.5625,1.588,5.6444,4.9189,5.2707,11.6914"/>
    <path fill="none" stroke="#000000" stroke-linecap="round" stroke-linejoin="round" stroke-miterlimit="10" stroke-width="2" d="M41.2534,35.9947c-0.5708-0.3538-1.1928-0.6531-1.7718-0.8958c-1.2375-0.5188-2.5724-0.7524-3.9139-0.7201l-0.0521,0.0013 c-1.5439,0.0372-3.0699,0.4152-4.4116,1.18c-0.0161,0.0092-0.0322,0.0184-0.0483,0.0277"/>
    <path fill="none" stroke="#000000" stroke-linecap="round" stroke-linejoin="round" stroke-miterlimit="10" stroke-width="2" d="M54.4627,54.7601c0,0,12.6763-6.0522,3.9518-28.4623S36.0651,9.7105,36.0651,9.7105S22.3101,3.6656,13.5856,26.0757 s3.9518,28.4623,3.9518,28.4623"/>
    <path fill="none" stroke="#000000" stroke-linecap="round" stroke-linejoin="round" stroke-miterlimit="10" stroke-width="2" d="M55.9205,19.0668l1.7688-1.228c1.6197-1.1245,3.7931-1.0191,5.2965,0.2567l0,0c0.7659,0.65,1.2866,1.5421,1.4642,2.5308 c0.6192,3.4457,1.5742,11.5715-2.6707,13.7114"/>
  </g>
</svg>
