<svg id="emoji" viewBox="0 0 72 72" xmlns="http://www.w3.org/2000/svg">
  <g id="color">
    <path fill="#92d3f5" d="M54.9224,60.9315s2-14.0268-10-14.0268c-3.1919,2.1279-5.9264,3.5984-9,3.5921h.125c-3.0736.0063-5.8082-1.4642-9-3.5921-12,0-10,14.0268-10,14.0268Z"/>
    <path fill="#61b2e4" d="M45.3084,46.9047a18.0129,18.0129,0,0,1-8.9375,3.5885c13.0625.4115,12.9775,6.395,13.74,10.395h5.1129S57.3084,46.9047,45.3084,46.9047Z"/>
    <polyline fill="#6a462f" points="18.056 52.064 18.056 42.499 25.141 42.499 25.141 46.063"/>
    <path fill="#a57939" d="M47.9673,60.9583c-18.4989-5.1358-20.92-14.0536-20.92-14.0536s-4.2.2046-5.6776,1.3537c3.1163,6.4287,5.9346,9.5505,14.1044,12.6807"/>
  </g>
  <g id="skin">
    <path fill="#fcea2b" d="M38.1326,20.5319a9.3955,9.3955,0,0,1-2.18-5.054c-.028,0-.0549-.0052-.0829-.0052a8.2719,8.2719,0,0,1-1.98,5.0591,10.8766,10.8766,0,0,1-8.7937,4.7087,17.3993,17.3993,0,0,0-.5656,4.4052c0,7.8277,5.0765,14.1732,11.3386,14.1732S47.208,37.4734,47.208,29.6457a17.3453,17.3453,0,0,0-.6258-4.6109A9.7529,9.7529,0,0,1,38.1326,20.5319Z"/>
    <path fill="#fcea2b" d="M46.5844,24.451l11.45-1.6359S51.7663,32.6639,47.54,31.614"/>
    <path fill="#fcea2b" d="M25.4747,24.4322,14.1572,22.8151s6.1889,9.7351,10.3663,8.6973"/>
  </g>
  <g id="hair">
    <path fill="#f4aa41" d="M35.7974,11.7565A15.35,15.35,0,0,0,20.661,24.6021c8.8261,3.0574,13.1564-3.9388,13.1564-3.9388a8.2716,8.2716,0,0,0,1.98-5.0592H35.88a9.3969,9.3969,0,0,0,2.18,5.0592s3.413,6.46,12.8727,3.93A15.3509,15.3509,0,0,0,35.7974,11.7565Z"/>
    <path fill="#f4aa41" d="M37.48,44.3806l-5.1958-.6448-4.21-2.6168-3.4133-6.106-.3793-2.8445-2.3514-.4171L19.02,29.4878V42.0409l6.159.3305v4.5958l1.9062-.19c3.17,2.1133,5.8895,3.5747,8.9375,3.5885,3.048-.0138,5.7675-1.4752,8.9375-3.5885a9.6884,9.6884,0,0,1,6.5536,2.1348,12.86,12.86,0,0,0,.6612-4.1082c0-16.6561-.27-14.3257-.27-14.3257l-2.3265,1.4249-2.2.2654-1.29,4.8924-3.6029,4.9683Z"/>
  </g>
  <g id="line">
    <path d="M42.0163,28.5884a2,2,0,1,1-2-2,2.0007,2.0007,0,0,1,2,2"/>
    <path d="M34.0163,28.5884a2,2,0,1,1-2-2,2.0007,2.0007,0,0,1,2,2"/>
    <path d="M36.0162,38.5908a7.6528,7.6528,0,0,1-3.4473-.8579,1,1,0,0,1,.8945-1.7891,5.3774,5.3774,0,0,0,5.1055,0,1,1,0,1,1,.8945,1.7891A7.6524,7.6524,0,0,1,36.0162,38.5908Z"/>
    <path fill="none" stroke="#000" stroke-linecap="round" stroke-linejoin="round" stroke-width="2" d="M50.9636,24.15C46.49,10.5289,36.0162,11.9284,36.0162,11.9284S25.663,10.545,21.147,23.9148"/>
    <circle cx="36.0162" cy="22.1497" r="1.5"/>
    <path fill="none" stroke="#000" stroke-linecap="round" stroke-linejoin="round" stroke-width="2" d="M25.4613,24.7355,14.1438,23.1184s6.1889,9.7351,10.3663,8.6973"/>
    <path fill="none" stroke="#000" stroke-linecap="round" stroke-linejoin="round" stroke-width="2" d="M36.0162,15.776a20.4581,20.4581,0,0,1-3.08,5.0592"/>
    <path fill="none" stroke="#000" stroke-linecap="round" stroke-linejoin="round" stroke-width="2" d="M46.571,24.7543l11.45-1.6359s-6.2678,9.8488-10.494,8.7989"/>
    <path fill="none" stroke="#000" stroke-linecap="round" stroke-linejoin="round" stroke-width="2" d="M36.0162,15.776a20.4558,20.4558,0,0,0,3.08,5.0592"/>
    <line x1="51.2159" x2="51.2159" y1="31.033" y2="44.5357" fill="none" stroke="#000" stroke-linecap="round" stroke-linejoin="round" stroke-width="2"/>
    <polyline fill="none" stroke="#000" stroke-linecap="round" stroke-linejoin="round" stroke-width="2" points="18.088 52.108 18.088 42.543 25.173 42.543 25.173 46.108"/>
    <line x1="20.0217" x2="20.0217" y1="42.5045" y2="37.7613" fill="none" stroke="#000" stroke-linecap="round" stroke-linejoin="round" stroke-width="2"/>
    <line x1="23.3932" x2="23.3932" y1="42.5433" y2="39.102" fill="none" stroke="#000" stroke-linecap="round" stroke-linejoin="round" stroke-width="2"/>
    <path fill="none" stroke="#000" stroke-linecap="round" stroke-linejoin="round" stroke-width="2" d="M54.9537,59.9492s2-13-10-13c-3.1919,2.1279-5.9264,3.5984-9,3.5921h.125c-3.0736.0063-5.8082-1.4642-9-3.5921-12,0-10,13-10,13"/>
    <path fill="none" stroke="#000" stroke-linecap="round" stroke-linejoin="round" stroke-width="2" d="M26.4391,24.5466l-.9825.2293a17.29,17.29,0,0,0-.779,5.1733c0,7.8276,5.0765,14.1732,11.3386,14.1732s11.3386-6.3456,11.3386-14.1732a17.29,17.29,0,0,0-.7791-5.1733l-.8123-.3239"/>
    <path fill="none" stroke="#000" stroke-linecap="round" stroke-linejoin="round" stroke-width="2" d="M46.571,24.7543l11.45-1.6359s-6.2678,9.8488-10.494,8.7989"/>
    <line x1="19.9468" x2="19.9468" y1="30.333" y2="33.5011" fill="none" stroke="#000" stroke-linecap="round" stroke-linejoin="round" stroke-width="2"/>
    <path fill="none" stroke="#000" stroke-linecap="round" stroke-linejoin="round" stroke-width="2" d="M47.8955,60.0059C29.3966,54.87,27.0787,46.9492,27.0787,46.9492s-4.2.2046-5.6776,1.3537c3.1163,6.4287,5.69,8.6387,13.8595,11.7689"/>
    <path fill="none" stroke="#000" stroke-linecap="round" stroke-linejoin="round" stroke-width="2" d="M46.7244,21.2945c-2.6425-.6931-3.2409,2.473-6.127,1.7854"/>
    <path fill="none" stroke="#000" stroke-linecap="round" stroke-linejoin="round" stroke-width="2" d="M31.3867,23.08c-2.886.6876-2.8758-2.7625-5.5183-2.0694"/>
  </g>
</svg>
