<svg width="512" height="512" viewBox="0 0 512 512" fill="none" xmlns="http://www.w3.org/2000/svg">
<path d="M455.885 297.861C455.85 297.861 455.82 297.886 455.814 297.92C444.323 359.916 394.213 414.254 336.155 444.713C328.858 448.526 326.952 450.629 318.768 451.286H435.513C438.163 451.384 440.805 450.945 443.282 449.998C445.759 449.051 448.019 447.613 449.927 445.772C451.836 443.931 453.353 441.724 454.389 439.283C455.425 436.843 455.958 434.218 455.956 431.566V297.933C455.956 297.893 455.924 297.861 455.885 297.861V297.861Z" fill="#F7931E"/>
<path d="M327.511 447.668C325.125 447.832 322.731 447.832 320.345 447.668H327.511Z" fill="#FFCE00"/>
<path d="M210.239 178.025C208.465 179.504 206.69 180.852 204.882 182.134C175.071 203.103 84.0943 271.073 63.5522 241.821C43.3716 213.095 64.6368 131.617 117.027 92.3728C118.013 91.584 119 90.8609 120.018 90.1707C176.846 50.204 219.377 55.7257 240.05 85.0105C259.245 112.488 237.651 155.61 210.239 178.025Z" fill="#8427E0"/>
<path d="M432.62 241.066C404.486 260.787 360.082 237.78 338.061 209.481C337.173 208.33 336.319 207.18 335.497 205.997C314.528 176.088 246.624 85.1106 275.81 64.5356C304.996 43.9606 389.137 66.409 427.46 121.002C428.315 122.218 429.136 123.401 429.925 124.584C467.197 179.67 461.248 220.82 432.62 241.066Z" fill="#00B5FF"/>
<path d="M394.954 420.458C393.968 421.225 392.982 421.948 391.996 422.627C335.136 462.594 292.605 457.04 272.03 427.788C252.737 400.311 274.298 357.287 301.611 334.773C303.386 333.294 305.193 331.913 307.001 330.632C336.812 309.695 427.789 241.89 448.331 270.977C468.643 299.67 447.378 381.215 394.954 420.458Z" fill="#FFBD00"/>
<path d="M236.205 448.131C206.92 468.673 122.878 446.192 84.5216 391.632L82.2537 388.345C44.7849 333.095 50.701 291.978 79.3943 271.83C107.496 252.11 151.9 275.117 173.921 303.383C174.808 304.534 175.663 305.684 176.517 306.867C197.487 336.711 265.457 427.688 236.205 448.131Z" fill="#E3006D"/>
<path d="M240.905 137.634C230.873 159.981 212.651 177.627 189.993 186.935C146.049 205.439 81.5306 228.939 70.4214 203.369C59.5423 178.225 79.6572 127.018 116.995 92.3754L117.783 91.718C175.761 50.0421 219.114 55.3667 240.05 85.0131C250.403 99.902 248.859 119.458 240.905 137.634Z" fill="#9327FF"/>
<path d="M432.62 241.066C417.37 251.78 397.354 249.907 378.718 241.46C356.357 231.053 338.75 212.589 329.417 189.759C311.241 145.75 289.056 83.3019 314.101 72.4885C340.394 61.1164 395.382 83.7621 429.925 124.583C467.197 179.669 461.248 220.819 432.62 241.066Z" fill="#00C8FF"/>
<path d="M394.954 420.458L394.297 420.984C336.286 462.726 292.868 457.434 272.03 427.787C261.578 412.899 263.123 393.441 271.077 375.2C281.097 352.845 299.324 335.195 321.989 325.899C365.899 307.361 430.451 283.894 441.56 309.465C452.669 335.036 432.325 385.684 394.954 420.458Z" fill="#FFCE00"/>
<path d="M197.914 440.311C171.62 451.65 116.83 429.136 82.2537 388.446C44.7849 333.098 50.701 291.981 79.3943 271.833C94.6119 261.118 114.628 262.959 133.264 271.406C155.591 281.872 173.141 300.384 182.401 323.237C200.609 366.918 222.959 429.432 197.914 440.311Z" fill="#FB006D"/>
</svg>
